<svg width="56" height="44" viewBox="0 0 56 44" fill="none" xmlns="http://www.w3.org/2000/svg">
<g clip-path="url(#clip0_2010_526)">
<path d="M45.7393 29.5156C44.8557 28.7977 44.1393 28.7977 43.8475 29.4805C43.3869 30.5573 44.4606 30.9099 44.977 31.4954C45.3442 31.9117 45.954 31.9101 46.3589 31.5305C47.3769 30.5812 48.3736 29.6081 49.349 28.6158C49.7359 28.2218 49.6834 27.6826 49.3162 27.3252C48.949 26.9679 48.4294 26.9471 47.9835 27.2853C47.8228 27.4066 47.6802 27.5533 47.5392 27.6953C46.9442 28.2936 46.3524 28.895 45.7393 29.5156ZM46.6638 38.5147C46.6638 38.5147 46.6638 38.5115 46.6638 38.5099C46.3573 38.5099 46.0507 38.5099 45.7442 38.5099C45.7032 38.5099 45.6622 38.5099 45.6212 38.5147C45.0786 38.5753 44.7016 38.9614 44.7 39.4576C44.6967 39.9521 45.0704 40.3796 45.6098 40.4052C46.3032 40.4387 46.9999 40.4371 47.6933 40.4052C48.2359 40.3812 48.613 39.9633 48.6162 39.4687C48.6195 38.9742 48.2441 38.5642 47.7048 38.5195C47.3605 38.4908 47.0097 38.5147 46.6622 38.5147H46.6638Z" fill="white"/>
<path d="M45.6773 7.95834H2.46388V8.59487C2.46388 16.1981 2.46388 23.7998 2.46388 31.403C2.46388 32.499 2.75075 32.7782 3.87531 32.7782C14.3701 32.7782 24.8632 32.7782 35.358 32.7782C36.3629 32.7782 36.8284 33.0797 36.8333 33.729C36.8366 34.3783 36.3629 34.6894 35.3678 34.6894C24.8534 34.6894 14.3389 34.6894 3.82449 34.6894C1.6639 34.6878 0.5 33.5487 0.5 31.4333C0.5 22.1391 0.5 12.8448 0.5 3.5505C0.5 1.4048 1.6557 0.288086 3.87531 0.288086C17.3356 0.288086 30.7958 0.288086 44.2561 0.288086C46.5035 0.288086 47.6412 1.40161 47.6412 3.60155C47.6412 6.46832 47.6412 9.3335 47.6412 12.2003C47.6412 12.3598 47.6478 12.5193 47.6379 12.6773C47.5986 13.2723 47.1806 13.6791 46.6298 13.6616C46.1003 13.6456 45.6954 13.2532 45.6855 12.6805C45.6659 11.5861 45.679 10.4917 45.679 9.39731C45.679 8.94105 45.679 8.4832 45.679 7.95993L45.6773 7.95834ZM2.46715 5.98334H45.6265C45.6495 5.90836 45.6691 5.87167 45.6691 5.83498C45.6741 5.09954 45.6773 4.36251 45.6773 3.62707C45.6773 2.45611 45.4118 2.19927 44.1987 2.19927C30.7827 2.19927 17.3683 2.19927 3.95236 2.19927C3.78843 2.19927 3.6245 2.19129 3.46221 2.20246C2.87534 2.24234 2.4901 2.57895 2.47535 3.1405C2.45076 4.07216 2.46879 5.00542 2.46879 5.98334H2.46715Z" fill="#014898"/>
<path d="M37.8202 28.9558C37.8202 25.2356 37.8202 21.5137 37.8202 17.7934C37.8202 15.777 39.0152 14.6235 41.1037 14.6235C44.8052 14.6235 48.5068 14.6235 52.2083 14.6235C54.2968 14.6235 55.4951 15.777 55.4967 17.7918C55.4967 25.234 55.4967 32.6761 55.4967 40.1182C55.4967 42.1331 54.2968 43.2897 52.2116 43.2897C48.51 43.2897 44.8085 43.2897 41.107 43.2897C39.0021 43.2897 37.8202 42.1283 37.8202 40.0608C37.8202 36.3596 37.8202 32.6585 37.8202 28.9574V28.9558ZM53.5345 28.9542C53.5345 25.2515 53.5345 21.5488 53.5345 17.8477C53.5345 16.8331 53.2263 16.5347 52.1837 16.5347C48.5018 16.5347 44.8183 16.5347 41.1365 16.5347C40.0939 16.5347 39.7873 16.8331 39.7873 17.8493C39.7873 25.2547 39.7873 32.6585 39.7873 40.064C39.7873 41.0786 40.0955 41.3785 41.1381 41.3785C44.82 41.3785 48.5035 41.3785 52.1853 41.3785C53.2263 41.3785 53.5361 41.077 53.5361 40.0624C53.5361 36.3597 53.5361 32.6569 53.5361 28.9558L53.5345 28.9542Z" fill="#014898"/>
<path d="M32.3712 5.05966C32.2073 5.05966 32.0433 5.07402 31.881 5.05806C31.3368 5.00542 30.9597 4.61935 30.9516 4.12321C30.9434 3.62867 31.3155 3.21229 31.8532 3.16762C32.2187 3.13731 32.5892 3.13891 32.9564 3.16603C33.5007 3.20591 33.8793 3.60314 33.8875 4.09769C33.8957 4.59064 33.5203 4.99904 32.9843 5.05647C32.7826 5.0788 32.5761 5.05966 32.3712 5.06126V5.05966Z" fill="#014898"/>
<path d="M37.2923 5.05806C37.1087 5.05806 36.9202 5.08199 36.7415 5.05328C36.212 4.96873 35.9006 4.65924 35.8662 4.13278C35.835 3.64143 36.2219 3.21867 36.7547 3.16762C37.0792 3.13731 37.4087 3.14688 37.735 3.15805C38.3661 3.17879 38.7841 3.5505 38.7972 4.08652C38.812 4.64488 38.3792 5.03892 37.7202 5.06445C37.5776 5.06923 37.4333 5.06445 37.2907 5.06445C37.2907 5.06125 37.2907 5.05966 37.2907 5.05647L37.2923 5.05806Z" fill="#014898"/>
<path d="M42.1988 5.05806C42.0152 5.05806 41.8266 5.08199 41.648 5.05328C41.1201 4.96713 40.807 4.65605 40.7758 4.12959C40.7463 3.63824 41.1332 3.21708 41.6676 3.16762C41.9922 3.13731 42.3217 3.14688 42.6479 3.15805C43.2774 3.17879 43.6954 3.55369 43.7069 4.08971C43.72 4.64966 43.2889 5.03892 42.6266 5.06445C42.484 5.06923 42.3397 5.06445 42.1971 5.06445C42.1971 5.06125 42.1971 5.05966 42.1971 5.05647L42.1988 5.05806Z" fill="#014898"/>
<path d="M45.7396 29.5158C46.3527 28.8952 46.9445 28.2938 47.5396 27.6955C47.6822 27.5535 47.8232 27.4068 47.9838 27.2855C48.4297 26.9473 48.9494 26.9681 49.3166 27.3254C49.6838 27.6844 49.7362 28.222 49.3494 28.616C48.374 29.6083 47.3773 30.5798 46.3593 31.5306C45.9528 31.9103 45.3429 31.9103 44.9774 31.4955C44.461 30.9101 43.3873 30.5575 43.8479 29.4807C44.1397 28.7979 44.8561 28.7995 45.7396 29.5158Z" fill="#014898"/>
<path d="M46.6658 38.5165C47.0134 38.5165 47.3625 38.4926 47.7084 38.5213C48.2478 38.566 48.6232 38.976 48.6199 39.4705C48.6166 39.9666 48.2396 40.383 47.697 40.407C47.0035 40.4389 46.3052 40.4389 45.6134 40.407C45.0741 40.3814 44.7003 39.9555 44.7036 39.4593C44.7069 38.9632 45.0839 38.5771 45.6249 38.5165C45.6659 38.5117 45.7069 38.5117 45.7478 38.5117C46.0544 38.5117 46.3609 38.5117 46.6675 38.5117V38.5165H46.6658Z" fill="#014898"/>
<path d="M45.6773 7.95834H2.46388V8.59487C2.46388 16.1981 2.46388 23.7998 2.46388 31.403C2.46388 32.499 2.75075 32.7782 3.87531 32.7782C14.3701 32.7782 24.8632 32.7782 35.358 32.7782C36.3629 32.7782 36.8284 33.0797 36.8333 33.729C36.8366 34.3783 36.3629 34.6894 35.3678 34.6894C24.8534 34.6894 14.3389 34.6894 3.82449 34.6894C1.6639 34.6878 0.5 33.5487 0.5 31.4333C0.5 22.1391 0.5 12.8448 0.5 3.5505C0.5 1.4048 1.6557 0.288086 3.87531 0.288086C17.3356 0.288086 30.7958 0.288086 44.2561 0.288086C46.5035 0.288086 47.6412 1.40161 47.6412 3.60155C47.6412 6.46832 47.6412 9.3335 47.6412 12.2003C47.6412 12.3598 47.6478 12.5193 47.6379 12.6773C47.5986 13.2723 47.1806 13.6791 46.6298 13.6616C46.1003 13.6456 45.6954 13.2532 45.6855 12.6805C45.6659 11.5861 45.679 10.4917 45.679 9.39731C45.679 8.94105 45.679 8.4832 45.679 7.95993L45.6773 7.95834ZM2.46715 5.98334H45.6265C45.6495 5.90836 45.6691 5.87167 45.6691 5.83498C45.6741 5.09954 45.6773 4.36251 45.6773 3.62707C45.6773 2.45611 45.4118 2.19927 44.1987 2.19927C30.7827 2.19927 17.3683 2.19927 3.95236 2.19927C3.78843 2.19927 3.6245 2.19129 3.46221 2.20246C2.87534 2.24234 2.4901 2.57895 2.47535 3.1405C2.45076 4.07216 2.46879 5.00542 2.46879 5.98334H2.46715Z" stroke="white" stroke-width="0.3"/>
<path d="M37.8202 28.9558C37.8202 25.2356 37.8202 21.5137 37.8202 17.7934C37.8202 15.777 39.0152 14.6235 41.1037 14.6235C44.8052 14.6235 48.5068 14.6235 52.2083 14.6235C54.2968 14.6235 55.4951 15.777 55.4967 17.7918C55.4967 25.234 55.4967 32.6761 55.4967 40.1182C55.4967 42.1331 54.2968 43.2897 52.2116 43.2897C48.51 43.2897 44.8085 43.2897 41.107 43.2897C39.0021 43.2897 37.8202 42.1283 37.8202 40.0608C37.8202 36.3596 37.8202 32.6585 37.8202 28.9574V28.9558ZM53.5345 28.9542C53.5345 25.2515 53.5345 21.5488 53.5345 17.8477C53.5345 16.8331 53.2263 16.5347 52.1837 16.5347C48.5018 16.5347 44.8183 16.5347 41.1365 16.5347C40.0939 16.5347 39.7873 16.8331 39.7873 17.8493C39.7873 25.2547 39.7873 32.6585 39.7873 40.064C39.7873 41.0786 40.0955 41.3785 41.1381 41.3785C44.82 41.3785 48.5035 41.3785 52.1853 41.3785C53.2263 41.3785 53.5361 41.077 53.5361 40.0624C53.5361 36.3597 53.5361 32.6569 53.5361 28.9558L53.5345 28.9542Z" stroke="white" stroke-width="0.3"/>
<path d="M32.3712 5.05966C32.2073 5.05966 32.0433 5.07402 31.881 5.05806C31.3368 5.00542 30.9597 4.61935 30.9516 4.12321C30.9434 3.62867 31.3155 3.21229 31.8532 3.16762C32.2187 3.13731 32.5892 3.13891 32.9564 3.16603C33.5007 3.20591 33.8793 3.60314 33.8875 4.09769C33.8957 4.59064 33.5203 4.99904 32.9843 5.05647C32.7826 5.0788 32.5761 5.05966 32.3712 5.06126V5.05966Z" stroke="white" stroke-width="0.3"/>
<path d="M37.2923 5.05806C37.1087 5.05806 36.9202 5.08199 36.7415 5.05328C36.212 4.96873 35.9006 4.65924 35.8662 4.13278C35.835 3.64143 36.2219 3.21867 36.7547 3.16762C37.0792 3.13731 37.4087 3.14688 37.735 3.15805C38.3661 3.17879 38.7841 3.5505 38.7972 4.08652C38.812 4.64488 38.3792 5.03892 37.7202 5.06445C37.5776 5.06923 37.4333 5.06445 37.2907 5.06445C37.2907 5.06125 37.2907 5.05966 37.2907 5.05647L37.2923 5.05806Z" stroke="white" stroke-width="0.3"/>
<path d="M42.1988 5.05806C42.0152 5.05806 41.8266 5.08199 41.648 5.05328C41.1201 4.96713 40.807 4.65605 40.7758 4.12959C40.7463 3.63824 41.1332 3.21708 41.6676 3.16762C41.9922 3.13731 42.3217 3.14688 42.6479 3.15805C43.2774 3.17879 43.6954 3.55369 43.7069 4.08971C43.72 4.64966 43.2889 5.03892 42.6266 5.06445C42.484 5.06923 42.3397 5.06445 42.1971 5.06445C42.1971 5.06125 42.1971 5.05966 42.1971 5.05647L42.1988 5.05806Z" stroke="white" stroke-width="0.3"/>
<path d="M45.7396 29.5158C46.3527 28.8952 46.9445 28.2938 47.5396 27.6955C47.6822 27.5535 47.8232 27.4068 47.9838 27.2855C48.4297 26.9473 48.9494 26.9681 49.3166 27.3254C49.6838 27.6844 49.7362 28.222 49.3494 28.616C48.374 29.6083 47.3773 30.5798 46.3593 31.5306C45.9528 31.9103 45.3429 31.9103 44.9774 31.4955C44.461 30.9101 43.3873 30.5575 43.8479 29.4807C44.1397 28.7979 44.8561 28.7995 45.7396 29.5158Z" stroke="white" stroke-width="0.3"/>
<path d="M46.6658 38.5165C47.0134 38.5165 47.3625 38.4926 47.7084 38.5213C48.2478 38.566 48.6232 38.976 48.6199 39.4705C48.6166 39.9666 48.2396 40.383 47.697 40.407C47.0035 40.4389 46.3052 40.4389 45.6134 40.407C45.0741 40.3814 44.7003 39.9555 44.7036 39.4593C44.7069 38.9632 45.0839 38.5771 45.6249 38.5165C45.6659 38.5117 45.7069 38.5117 45.7478 38.5117C46.0544 38.5117 46.3609 38.5117 46.6675 38.5117V38.5165H46.6658Z" stroke="white" stroke-width="0.3"/>
</g>
<defs>
<clipPath id="clip0_2010_526">
<rect width="55" height="43" fill="white" transform="translate(0.5 0.288086)"/>
</clipPath>
</defs>
</svg>
