<svg width="39" height="56" viewBox="0 0 39 56" fill="none" xmlns="http://www.w3.org/2000/svg">
<g clip-path="url(#clip0_2010_547)">
<path d="M3.89356 29.8544H10.9769C11.3417 28.4762 11.6884 27.1161 12.0664 25.7642C12.2149 25.2343 12.4097 24.7142 12.621 24.2056C12.867 23.61 13.3837 23.382 13.9102 23.5903C14.4484 23.8036 14.6498 24.2876 14.4616 24.9029C13.9664 26.5189 13.4745 28.1366 12.9545 29.8363H26.0019C25.5711 28.3581 25.1584 26.934 24.7407 25.5099C24.678 25.295 24.5839 25.0883 24.5179 24.8733C24.333 24.2679 24.5592 23.7774 25.1072 23.5789C25.6189 23.3935 26.1488 23.6018 26.3486 24.1777C26.7761 25.4115 27.164 26.6617 27.5288 27.9168C27.7104 28.5402 27.8078 29.1883 27.9481 29.8478H35.109C34.9935 29.587 34.901 29.3523 34.7888 29.1276C33.2239 25.9709 30.9013 23.5214 27.821 21.7774C27.6609 21.6855 27.4859 21.6101 27.3456 21.4919C26.9725 21.1802 26.8652 20.7766 27.0633 20.3336C27.2631 19.8857 27.6427 19.6954 28.1231 19.7922C28.3592 19.8398 28.587 19.9563 28.7999 20.0744C35.6026 23.8364 39.4901 31.6805 38.2768 39.1849C36.9694 47.275 30.9723 53.4849 23.0454 54.9566C12.3734 56.9385 2.34682 49.8508 0.704338 39.1619C-0.464385 31.5525 3.44126 23.7331 10.2588 20.035C10.3496 19.9858 10.4371 19.93 10.5312 19.889C11.0792 19.6462 11.619 19.7906 11.8798 20.2467C12.1588 20.7339 11.9772 21.254 11.4705 21.6199C10.14 22.578 8.75169 23.4738 7.52519 24.5485C6.04613 25.8446 4.97975 27.4902 4.13787 29.2654C4.05369 29.4442 3.98766 29.6313 3.89687 29.8528L3.89356 29.8544ZM26.2809 31.8675H12.8158C12.7811 32.0053 12.7366 32.1218 12.7234 32.2416C12.4262 35.0373 12.4361 37.8329 12.7036 40.6319C12.7481 41.0995 13.0023 41.1192 13.3688 41.1176C17.4511 41.111 21.5334 41.1044 25.6156 41.1241C26.0927 41.1258 26.2759 40.9814 26.2941 40.5154C26.3469 39.1881 26.4889 37.8608 26.4823 36.5335C26.4757 34.9848 26.3535 33.4376 26.2792 31.8675H26.2809ZM13.0667 43.1077C13.2054 43.7541 13.3061 44.3169 13.448 44.8681C14.0621 47.2586 14.8594 49.5752 16.4474 51.5325C18.3986 53.9393 20.604 53.9344 22.5568 51.5144C24.1531 49.5374 24.9537 47.2011 25.5579 44.7861C25.6932 44.243 25.7923 43.6918 25.9144 43.1093H13.0651L13.0667 43.1077ZM10.6302 31.8396C8.28288 31.8396 5.8761 31.8314 3.46932 31.8593C3.32076 31.8609 3.09131 32.1267 3.04343 32.3072C2.32041 35.0701 2.33362 37.8379 3.02032 40.6106C3.11937 41.0076 3.29765 41.1241 3.69548 41.1208C5.8794 41.1044 8.06333 41.1143 10.2456 41.111C10.4041 41.111 10.5625 41.0815 10.6286 41.0749V31.8396H10.6302ZM28.3608 41.0765C28.3608 41.0765 28.4632 41.1077 28.5605 41.1077C30.8468 41.111 33.1331 41.1044 35.421 41.1176C35.771 41.1192 35.8783 40.9551 35.9526 40.6664C36.6591 37.8772 36.664 35.0914 35.9691 32.299C35.8766 31.9282 35.7066 31.8265 35.3368 31.8298C33.1116 31.8462 30.8881 31.8363 28.6629 31.8396C28.5259 31.8396 28.3872 31.8708 28.3625 31.8741V41.0765H28.3608ZM3.95464 43.1159C5.04083 46.9534 11.4358 52.5267 14.7752 52.5382C12.7696 49.6769 11.5612 46.5186 11.0627 43.1159H3.95299H3.95464ZM27.9168 43.111C27.4347 46.5678 26.1868 49.6982 24.2719 52.5874C29.3116 51.0469 32.897 47.9132 35.1255 43.111H27.9168Z" fill="#014898"/>
<path d="M19.5161 0.288096C25.023 0.2963 29.5229 4.84258 29.2373 10.2765C29.1696 11.5644 28.7025 12.8835 28.1808 14.0861C26.5202 17.9252 24.1035 21.3231 21.6027 24.6585C21.1718 25.2328 20.741 25.8086 20.2738 26.3533C19.8232 26.8783 19.1464 26.9013 18.7254 26.3648C15.5164 22.2763 12.5038 18.0729 10.4222 13.2674C7.85861 7.34459 12.5434 0.278252 19.5161 0.288096ZM19.4914 24.1909C22.1672 20.588 24.744 17.0606 26.4971 13.0328C26.9065 12.0927 27.2465 11.041 27.2729 10.0336C27.4034 4.8918 22.2927 1.12648 17.2959 2.56206C13.3143 3.70724 10.3941 8.31915 12.3024 12.6521C14.1347 16.8112 16.761 20.4617 19.4914 24.1909Z" fill="#014898"/>
<path d="M23.6303 8.63416C23.6418 10.9262 21.788 12.7867 19.4852 12.7916C17.2237 12.7965 15.3617 10.9409 15.3584 8.68174C15.3551 6.40942 17.1858 4.58172 19.472 4.57351C21.7682 4.56531 23.6187 6.37168 23.6303 8.6358V8.63416ZM21.6444 8.69322C21.6543 7.4939 20.7167 6.54723 19.515 6.54067C18.305 6.53411 17.3624 7.45288 17.3459 8.65385C17.3294 9.8302 18.2951 10.813 19.4753 10.8244C20.6556 10.8343 21.6362 9.87286 21.6444 8.69322Z" fill="#014898"/>
</g>
<defs>
<clipPath id="clip0_2010_547">
<rect width="38" height="55" fill="white" transform="translate(0.5 0.288086)"/>
</clipPath>
</defs>
</svg>
