<svg width="45" height="45" viewBox="0 0 45 45" fill="none" xmlns="http://www.w3.org/2000/svg">
<g id="Frame" clip-path="url(#clip0_2108_916)">
<g id="Group">
<path id="Vector" d="M45 15.6445C44.7773 16.1602 44.3672 16.3125 43.8281 16.3008C42.9141 16.2773 42.9258 16.3008 42.5977 17.1328C42.375 17.6836 42.1289 18.2344 41.8359 18.8789C42.0938 19.1016 42.3984 19.3594 42.6797 19.6406C43.1016 20.0742 43.1133 20.5312 42.6914 20.9648C41.6602 22.0078 40.6289 23.0508 39.5859 24.0703C39.1758 24.4688 38.7187 24.457 38.2969 24.0586C38.0156 23.7891 37.7578 23.4844 37.5352 23.2383C36.6914 23.5664 35.9297 23.8594 35.1797 24.1875C35.0742 24.2344 34.9687 24.4102 34.957 24.5273C34.9219 24.8438 34.957 25.1719 34.9336 25.4883C34.8984 26.0391 34.5703 26.3672 34.043 26.3672C32.5664 26.3789 31.0898 26.3789 29.6016 26.3672C29.0859 26.3672 28.7695 26.0273 28.7227 25.5117C28.7227 25.4648 28.7227 25.4297 28.7227 25.3828C28.6875 24.1992 28.6875 24.1992 27.5742 23.8594C26.6367 24.8672 25.6875 25.8398 24.7969 26.8711C23.9883 27.7969 23.5664 28.9219 23.4258 30.1406C23.4141 30.2695 23.4609 30.4336 23.543 30.5273C25.3594 32.3672 25.2305 34.3008 23.168 35.8594C23.8008 36.9727 23.9063 38.1211 23.2148 39.2578C22.5234 40.3945 21.457 40.8398 20.1562 40.8047C19.9336 41.8828 19.4648 42.8086 18.6797 43.5586C17.9062 44.2969 17.0039 44.7773 15.9375 44.9414C15.8672 44.9531 15.8086 44.9883 15.7383 45.0117C15.3281 45.0117 14.918 45.0117 14.5078 45.0117C14.4141 44.9883 14.3203 44.9531 14.2148 44.9297C12.1992 44.4961 10.875 43.2891 10.2187 41.332C10.1602 41.1563 10.125 40.9805 10.0781 40.8047C7.5 40.957 5.625 38.3555 7.06641 35.8359C6.97266 35.7656 6.87891 35.707 6.78516 35.6367C5.10938 34.418 4.98047 32.0625 6.53906 30.6914C6.79687 30.4688 6.89063 30.2578 6.79688 29.9414C6.75 29.8008 6.75 29.6484 6.72656 29.5078C6.43359 28.1133 5.68359 27 4.66406 26.0156C2.49609 23.9414 1.07813 21.4219 0.398438 18.4922C0.222656 17.7305 0.128906 16.9453 0 16.1719C0 15.4336 0 14.707 0 13.9687C0.140625 13.1484 0.257812 12.3281 0.445312 11.5195C0.738281 10.1953 1.24219 8.95312 1.91016 7.78125C2.21484 7.25391 2.70703 7.08984 3.16406 7.34766C3.60937 7.60547 3.72656 8.08594 3.45703 8.60156C3.42187 8.68359 3.375 8.75391 3.32812 8.83594C2.27344 10.8281 1.72266 12.9492 1.75781 15.1992C1.81641 18.9023 3.14062 22.0898 5.80078 24.668C7.27734 26.1094 8.28516 27.7617 8.55469 29.8477C12.9141 29.8477 17.2734 29.8477 21.668 29.8477C21.9492 27.6445 23.0156 25.8633 24.6562 24.4805C24.3047 24.1992 23.9531 23.9531 23.6484 23.6602C22.7813 22.8164 21.9258 21.9492 21.0703 21.082C20.4961 20.5078 20.4961 20.0859 21.0703 19.5117C21.3047 19.2773 21.5625 19.0664 21.7617 18.8789C21.4219 18.0234 21.1289 17.2617 20.8125 16.5117C20.7656 16.4063 20.5898 16.3008 20.4609 16.2891C20.1328 16.2539 19.793 16.2891 19.4531 16.2656C18.9609 16.2305 18.6211 15.9141 18.6211 15.4219C18.6094 13.9336 18.6094 12.4336 18.6211 10.9453C18.6211 10.4297 18.9609 10.1133 19.4766 10.0664C19.5 10.0664 19.5352 10.0547 19.5586 10.0664C20.4961 10.2773 20.9531 9.86719 21.1523 8.95312C21.2578 8.48438 21.5391 8.03906 21.7969 7.47656C21.5508 7.25391 21.2344 7.01953 20.9531 6.73828C20.5195 6.29297 20.5195 5.83594 20.9531 5.39062C21.4219 4.91016 21.9023 4.44141 22.4062 3.94922C20.9531 2.98828 19.418 2.35547 17.7656 2.03906C14.6484 1.42969 11.6836 1.85156 8.87109 3.32812C8.50781 3.51563 8.15625 3.59766 7.79297 3.33984C7.5 3.12891 7.33594 2.82422 7.45312 2.49609C7.54687 2.23828 7.74609 1.94531 7.99219 1.80469C9.75 0.84375 11.625 0.28125 13.5938 0.0820313C13.7227 0.0703125 13.8516 0.0234375 13.9687 1.74623e-10C14.7305 1.74623e-10 15.4922 1.74623e-10 16.2539 1.74623e-10C16.3711 0.0234375 16.4766 0.0703125 16.5938 0.0703125C17.9063 0.1875 19.207 0.445313 20.4141 0.960938C21.5391 1.44141 22.6172 2.01563 23.7539 2.56641C23.7656 2.55469 23.8359 2.48438 23.918 2.41406C24.5039 1.85156 24.9141 1.85156 25.4883 2.4375C25.7227 2.67187 25.9219 2.94141 26.0977 3.15234C26.7422 2.87109 27.2461 2.63672 27.7852 2.42578C28.6875 2.07422 28.7109 2.07422 28.6992 1.11328C28.6875 0.585938 28.8633 0.210937 29.3555 -0.0117188C30.9961 -0.0117188 32.6367 -0.0117188 34.2773 -0.0117188C34.7695 0.199219 34.9688 0.574219 34.9453 1.10156C34.9336 1.34766 34.9219 1.60547 34.9453 1.85156C34.957 1.95703 35.0156 2.13281 35.1094 2.16797C35.8828 2.48438 36.6797 2.78906 37.5234 3.11719C37.7227 2.89453 37.957 2.63672 38.2031 2.39062C38.707 1.89844 39.1523 1.88672 39.6445 2.37891C40.6406 3.36328 41.6367 4.35937 42.6211 5.35547C43.1016 5.83594 43.1016 6.29297 42.6211 6.77344C42.3516 7.04297 42.0469 7.26562 41.8242 7.46484C42.1172 8.14453 42.375 8.68359 42.5977 9.24609C42.9258 10.0664 42.9141 10.0898 43.793 10.0664C44.3438 10.0547 44.7773 10.1836 45 10.7227C45 12.3633 45 14.0039 45 15.6445ZM30.4688 1.78125C30.4688 2.08594 30.4688 2.35547 30.4688 2.61328C30.457 3.30469 30.2695 3.55078 29.5898 3.71484C28.5469 3.97266 27.5625 4.38281 26.6484 4.94531C26.1445 5.26172 25.7813 5.20312 25.3477 4.78125C25.1367 4.58203 24.9492 4.35937 24.7969 4.19531C24.1289 4.875 23.5078 5.49609 22.8398 6.17578C23.0039 6.31641 23.2266 6.49219 23.4141 6.69141C23.8711 7.14844 23.9062 7.47656 23.5781 8.02734C23.0156 8.94141 22.6055 9.92578 22.3477 10.9687C22.1836 11.625 21.9492 11.8125 21.2695 11.8125C20.9883 11.8125 20.6953 11.8125 20.4258 11.8125C20.4258 12.7617 20.4258 13.6289 20.4258 14.5312C20.6016 14.5312 20.7422 14.5312 20.8945 14.5312C21.0586 14.5312 21.2227 14.5312 21.375 14.5312C21.9258 14.5547 22.207 14.7656 22.3359 15.3164C22.6055 16.4063 23.0156 17.4258 23.6133 18.3867C23.9062 18.8555 23.8594 19.2187 23.4727 19.6172C23.25 19.8398 22.9922 20.0273 22.8047 20.1914C23.5078 20.9063 24.1289 21.5273 24.8203 22.2188C24.9961 22.0078 25.1836 21.7617 25.3945 21.5508C25.793 21.1523 26.1445 21.1055 26.625 21.3984C27.5742 21.9961 28.6055 22.4063 29.6836 22.6758C30.2461 22.8164 30.457 23.0859 30.4805 23.6719C30.4922 23.9766 30.4805 24.2812 30.4805 24.5977C31.4063 24.5977 32.2734 24.5977 33.1875 24.5977C33.1875 24.4219 33.1875 24.2578 33.1875 24.1055C33.1875 23.9297 33.1875 23.7539 33.1875 23.5781C33.2227 23.0977 33.4336 22.8047 33.9023 22.6992C35.0273 22.4414 36.0703 22.0078 37.0547 21.3984C37.5117 21.1172 37.8633 21.1641 38.25 21.5273C38.4844 21.75 38.6836 21.9844 38.8359 22.1484C39.5156 21.4805 40.1484 20.8594 40.8164 20.1914C40.6289 20.0273 40.4063 19.8398 40.207 19.6289C39.7969 19.2188 39.75 18.8555 40.0547 18.3633C40.6406 17.4141 41.0625 16.3828 41.3203 15.293C41.4375 14.7773 41.7305 14.5547 42.2578 14.5312C42.5742 14.5195 42.8906 14.5312 43.2305 14.5312C43.2305 13.6055 43.2305 12.7383 43.2305 11.8125C42.8789 11.8125 42.5391 11.8242 42.2109 11.8125C41.7422 11.7891 41.4375 11.543 41.332 11.0977C41.0742 9.97266 40.6406 8.92969 40.0313 7.94531C39.75 7.5 39.8086 7.125 40.1836 6.75C40.4062 6.52734 40.6641 6.32812 40.8516 6.17578C40.1484 5.47266 39.5273 4.85156 38.8711 4.19531C38.7188 4.34766 38.543 4.54687 38.3555 4.73438C37.8516 5.23828 37.5586 5.21484 36.9141 4.91016C35.9648 4.46484 34.9922 4.06641 34.0078 3.71484C33.4336 3.50391 33.2109 3.30469 33.1875 2.68359C33.1758 2.37891 33.1875 2.08594 33.1875 1.78125C32.25 1.78125 31.3828 1.78125 30.4688 1.78125ZM15.1055 34.4531C17.2734 34.4531 19.4414 34.4648 21.6094 34.4531C22.4062 34.4531 23.0156 33.832 23.0273 33.0703C23.0391 32.2852 22.418 31.6523 21.6094 31.6523C17.2852 31.6406 12.9727 31.6523 8.64844 31.6523C8.42578 31.6523 8.17969 31.7227 7.98047 31.8164C7.39453 32.0977 7.10156 32.7539 7.24219 33.3633C7.39453 34.0195 7.94531 34.4531 8.64844 34.4648C10.8047 34.4531 12.9609 34.4531 15.1055 34.4531ZM15.1055 36.2109C13.3828 36.2109 11.6484 36.2109 9.92578 36.2109C8.95312 36.2109 8.32031 36.7734 8.33203 37.6289C8.33203 38.4609 8.96484 39.0234 9.90234 39.0234C13.3711 39.0234 16.8398 39.0234 20.3086 39.0234C21.2813 39.0234 21.9023 38.4609 21.9023 37.6055C21.9023 36.7617 21.2695 36.2109 20.2852 36.2109C18.5625 36.2109 16.8281 36.2109 15.1055 36.2109ZM18.2695 40.8047C16.1719 40.8047 14.0742 40.8047 11.9648 40.8047C12.0703 42.0586 13.5938 43.2422 15.0938 43.2422C16.6055 43.2539 18.1289 42.082 18.2695 40.8047Z" fill="#014898"/>
<path id="Vector_2" d="M5.13281 4.10183C5.61328 4.09011 6.01172 4.46511 6.02344 4.94558C6.03516 5.43777 5.63672 5.84792 5.14453 5.84792C4.66406 5.84792 4.28906 5.4612 4.27734 4.98074C4.27734 4.48855 4.65234 4.11355 5.13281 4.10183Z" fill="#014898"/>
<path id="Vector_3" d="M37.8868 13.2071C37.875 16.5703 35.1446 19.2657 31.7696 19.2539C28.4297 19.2422 25.7344 16.5118 25.7461 13.1602C25.7579 9.79691 28.4883 7.1016 31.8633 7.11332C35.2032 7.12504 37.8985 9.85551 37.8868 13.2071ZM36.1289 13.1719C36.1289 10.793 34.2071 8.87113 31.8282 8.87113C29.4375 8.87113 27.5039 10.793 27.5039 13.1953C27.5039 15.5625 29.4258 17.4961 31.8047 17.4961C34.1954 17.4961 36.1289 15.5625 36.1289 13.1719Z" fill="#014898"/>
</g>
</g>
<defs>
<clipPath id="clip0_2108_916">
<rect width="45" height="45" fill="white"/>
</clipPath>
</defs>
</svg>
