<svg width="43" height="45" viewBox="0 0 43 45" fill="none" xmlns="http://www.w3.org/2000/svg">
<g id="Layer_1" clip-path="url(#clip0_2108_894)">
<path id="Vector" d="M5.46605 22.0535V21.4792C5.46605 16.6767 5.46605 11.8729 5.46605 7.07043C5.46605 6.28731 5.56949 6.15578 6.34647 5.93255C8.4213 5.33646 10.4937 4.73313 12.5709 4.14548C12.8369 4.07067 12.9305 3.95242 12.9256 3.6773C12.9083 2.74455 12.9157 1.81059 12.9207 0.876639C12.9243 0.257622 13.1842 0.00180999 13.8208 0.00180999C18.9358 -0.00060333 24.0521 -0.00060333 29.1671 0.00180999C29.8259 0.00180999 30.0783 0.257622 30.0795 0.910426C30.0832 1.93367 30.0795 2.95572 30.0795 4.02723C30.9624 4.28304 31.8391 4.53765 32.7158 4.78984C34.0691 5.1808 35.4236 5.56814 36.7756 5.96151C37.3901 6.14009 37.5329 6.33195 37.5329 6.96786C37.5329 11.8005 37.5329 16.6344 37.5329 21.4671C37.5329 21.6445 37.5329 21.8219 37.5329 22.0511C37.7361 22.0511 37.8998 22.0511 38.0636 22.0511C39.4156 22.0511 40.7676 22.0475 42.1197 22.0535C42.728 22.0559 42.989 22.3118 42.9927 22.9079C42.9989 24.1121 42.9853 25.3163 43.0001 26.5218C43.005 26.9779 42.8117 27.253 42.3795 27.4099C41.5163 27.7236 40.6544 28.0374 39.8072 28.3897C39.6188 28.4681 39.4415 28.6805 39.3578 28.8724C38.7889 30.1671 38.2606 31.4788 37.6831 32.7699C37.5661 33.0329 37.5464 33.2248 37.6671 33.4794C38.0488 34.2843 38.3924 35.1048 38.7766 35.9072C38.9834 36.3404 38.9034 36.6722 38.5635 37.0004C37.3174 38.2071 36.0787 39.4198 34.8498 40.6421C34.5099 40.98 34.1639 41.0416 33.7292 40.8461C32.8932 40.4696 32.0534 40.0991 31.2013 39.7601C31.0215 39.6889 30.7592 39.7094 30.5721 39.783C29.2225 40.3115 27.8791 40.8557 26.5443 41.4192C26.3498 41.5013 26.138 41.6823 26.0579 41.8693C25.7058 42.685 25.3905 43.5176 25.079 44.3502C24.9078 44.8063 24.6062 45.0054 24.1038 45.0018C22.3676 44.9873 20.6314 44.9873 18.8964 45.0018C18.3928 45.0066 18.0948 44.8051 17.9236 44.3478C17.6133 43.5152 17.2969 42.6838 16.9447 41.8669C16.8634 41.6799 16.6541 41.4977 16.4583 41.4156C15.1235 40.8533 13.7801 40.3103 12.4306 39.783C12.2446 39.7106 11.9824 39.6913 11.8026 39.7625C10.9505 40.1016 10.1107 40.472 9.27462 40.8473C8.84242 41.0416 8.49395 40.9885 8.15409 40.6494C6.9252 39.427 5.6877 38.2119 4.44034 37.0077C4.08078 36.6614 4.02414 36.3199 4.23963 35.8746C4.63489 35.0601 5.00553 34.2336 5.354 33.3998C5.42173 33.2369 5.3971 32.9955 5.32691 32.8254C4.78142 31.5053 4.20146 30.1985 3.66705 28.8736C3.55992 28.6057 3.43186 28.4585 3.16466 28.362C2.31626 28.0555 1.47894 27.7164 0.629309 27.4123C0.195873 27.2555 -0.00483697 26.9912 8.84338e-05 26.5327C0.0136333 25.3284 8.84336e-05 24.1242 0.00624519 22.9187C0.00870789 22.3021 0.269754 22.0559 0.914982 22.0535C2.251 22.0499 3.58824 22.0523 4.92426 22.0523C5.08926 22.0523 5.25303 22.0523 5.46482 22.0523L5.46605 22.0535ZM1.4851 23.5245C1.4851 24.3619 1.47402 25.1595 1.49864 25.9559C1.50234 26.0693 1.65872 26.2298 1.78185 26.2781C2.59085 26.6026 3.406 26.9116 4.22732 27.2048C4.62381 27.3472 4.85284 27.5873 4.95504 27.9951C5.35646 29.5976 5.99677 31.1071 6.87349 32.5153C7.08651 32.858 7.09883 33.1802 6.9289 33.5397C6.55703 34.3313 6.19009 35.1265 5.849 35.9313C5.79729 36.0544 5.83423 36.2909 5.92535 36.3826C6.85625 37.3214 7.81178 38.2385 8.74884 39.1724C8.9163 39.339 9.05175 39.3631 9.26477 39.2666C10.059 38.9082 10.8668 38.5788 11.6573 38.2143C12.0415 38.037 12.3764 38.0454 12.7421 38.2626C14.1816 39.1169 15.7183 39.7492 17.3572 40.1329C17.7722 40.2307 18.0135 40.4672 18.1576 40.8557C18.4556 41.6606 18.7905 42.4533 19.0885 43.2582C19.171 43.4826 19.2855 43.5514 19.5207 43.5502C20.8419 43.5405 22.1632 43.5405 23.4832 43.5502C23.7159 43.5514 23.8341 43.4875 23.9178 43.2606C24.222 42.4413 24.5655 41.6364 24.8684 40.8171C25.0088 40.437 25.2576 40.2271 25.6491 40.1353C27.3028 39.748 28.8531 39.1073 30.3061 38.2445C30.6238 38.0563 30.9205 38.0297 31.2616 38.183C32.0706 38.5462 32.8944 38.8768 33.6997 39.246C33.9497 39.3607 34.0974 39.3341 34.2895 39.1423C35.1909 38.2385 36.1021 37.3419 37.028 36.4611C37.246 36.2547 37.2534 36.0942 37.1315 35.842C36.767 35.0806 36.4345 34.3036 36.0762 33.5385C35.9087 33.1789 35.9235 32.858 36.1353 32.5141C37.0059 31.1023 37.6499 29.594 38.0488 27.9915C38.151 27.58 38.3862 27.346 38.7802 27.2048C39.5868 26.9164 40.3872 26.6099 41.1838 26.2974C41.3082 26.2491 41.4941 26.132 41.4978 26.0416C41.5225 25.2053 41.5126 24.3691 41.5126 23.5293H32.0423C32.0977 26.4072 31.1767 28.9134 29.1757 30.9913C27.1625 33.0812 24.6653 34.1744 21.7273 34.2408C19.0885 34.3011 16.7341 33.4963 14.7246 31.8203C12.1338 29.6603 10.9222 26.8669 10.9579 23.5257H1.4851V23.5245ZM17.0186 22.0342V21.449C17.0186 19.417 17.0186 17.3838 17.0186 15.3517C17.0186 14.4829 17.2279 14.2766 18.0936 14.2754C20.3666 14.2754 22.6397 14.2754 24.914 14.2754C25.7612 14.2754 25.9804 14.4866 25.9816 15.3143C25.9841 17.3765 25.9816 19.4387 25.9816 21.5021V22.0258H28.5711V1.48359H14.4352V22.0342H17.0174H17.0186ZM12.4466 23.5208C12.4072 26.8271 13.7136 29.4395 16.4743 31.2966C19.4911 33.325 23.5115 33.325 26.5283 31.2966C29.2902 29.4395 30.5967 26.8283 30.5573 23.522H12.4453L12.4466 23.5208ZM36.0294 22.0366C36.0417 21.9305 36.0528 21.8725 36.0528 21.8146C36.0528 17.0749 36.0503 12.3351 36.0627 7.59533C36.0627 7.29004 35.9112 7.21764 35.676 7.15128C34.0876 6.69757 32.4991 6.23904 30.9107 5.78413C30.6509 5.70932 30.3874 5.64657 30.114 5.57658V22.0379H36.0269L36.0294 22.0366ZM6.97815 7.25987V22.0222H12.9009V5.55486C10.9037 6.12923 8.94093 6.69516 6.97815 7.25987ZM24.4535 22.0258V15.7548H18.5258V22.0258H24.4535Z" fill="#014898"/>
<path id="Vector_2" d="M21.4998 9.77989C20.3177 9.77989 19.1356 9.78351 17.9535 9.77869C17.28 9.77627 17.0251 9.53856 17.0201 8.88938C17.0115 7.61032 17.0115 6.33126 17.0201 5.0534C17.0238 4.40422 17.2861 4.15806 17.9523 4.15806C20.3165 4.15565 22.6807 4.15565 25.0436 4.15806C25.7098 4.15806 25.9721 4.40301 25.977 5.0534C25.9856 6.33246 25.9856 7.61152 25.977 8.88938C25.9721 9.53977 25.7184 9.77748 25.0449 9.77989C23.8628 9.78472 22.6807 9.7811 21.4986 9.7811L21.4998 9.77989ZM18.5335 8.28967H24.4649V5.62777H18.5335V8.28967Z" fill="#014898"/>
</g>
<defs>
<clipPath id="clip0_2108_894">
<rect width="43" height="45" fill="white"/>
</clipPath>
</defs>
</svg>
