<svg width="43" height="44" viewBox="0 0 43 44" fill="none" xmlns="http://www.w3.org/2000/svg">
<g clip-path="url(#clip0_2128_2723)">
<path d="M38.8913 43.7104C37.6371 43.5424 36.7525 42.781 35.9014 41.9187C33.2699 39.2648 30.616 36.6333 27.9845 33.9794C27.7381 33.7331 27.559 33.6771 27.2454 33.8786C25.409 35.0432 23.4046 35.8159 21.2658 36.2078C18.1415 36.7901 15.0509 36.5773 12.0387 35.5247C9.08242 34.4945 6.57409 32.8036 4.49128 30.4633C2.40846 28.1117 1.03112 25.4018 0.381641 22.3224C0.236068 21.6281 0.16888 20.9115 0.068099 20.206C0.0457031 20.0604 0.0121094 19.9036 -0.0214844 19.7581C-0.0214844 19.0302 -0.0214844 18.3023 -0.0214844 17.5745C0.000911457 17.4737 0.0457031 17.3617 0.056901 17.2609C0.236068 14.6742 0.941536 12.2219 2.2181 9.9599C4.97279 5.1112 9.10482 2.12135 14.5806 1.02396C15.3085 0.878385 16.0363 0.8 16.7754 0.699219C17.4473 0.699219 18.1191 0.699219 18.791 0.699219C19.4293 0.777604 20.0676 0.844792 20.6947 0.945573C25.2186 1.69583 28.9363 3.83463 31.8366 7.38437C31.915 7.48516 32.0158 7.57474 32.1165 7.69792C32.4749 7.33958 32.7884 7.00365 33.1243 6.6901C33.3147 6.52213 33.3147 6.37656 33.2139 6.1526C32.5868 4.69687 33.2587 3.00599 34.7257 2.3901C36.215 1.76302 37.8947 2.47969 38.4882 4.0026C38.5889 4.26016 38.7233 4.32734 38.9809 4.32734C40.3246 4.31615 41.6684 4.32734 43.0121 4.33854C43.0121 4.82005 43.0121 5.29036 43.0121 5.77187C41.646 5.77187 40.2686 5.77187 38.9025 5.76068C38.6897 5.76068 38.5889 5.82786 38.5105 6.02943C37.8723 7.65312 36.2598 8.29141 34.6249 7.61953C34.5241 7.57474 34.3449 7.58594 34.2665 7.65312C33.8186 8.05625 33.4043 8.48177 32.9676 8.90729C33.1467 9.22083 33.3147 9.47838 33.4603 9.74713C35.0616 12.5242 35.8566 15.5253 35.8454 18.7167C35.8342 22.0424 34.9608 25.1443 33.1915 27.9885C33.0124 28.2797 33.0236 28.4365 33.2699 28.6828C35.9462 31.3367 38.5889 34.013 41.2652 36.6557C42.0939 37.4732 42.8217 38.3354 43.0121 39.5336C43.0121 39.8135 43.0121 40.0935 43.0121 40.3734C42.9897 40.463 42.9561 40.5526 42.9449 40.6534C42.7546 41.594 42.2842 42.3555 41.5228 42.9602C40.9741 43.3969 40.3134 43.576 39.6527 43.744C39.3952 43.7104 39.1376 43.7104 38.8913 43.7104ZM34.4009 18.5823C34.3337 9.34401 26.8871 1.93099 17.5368 2.12135C8.57852 2.30052 1.23268 9.63516 1.42305 18.9742C1.59102 27.8654 8.84726 35.256 18.2423 35.088C27.2006 34.9201 34.3449 27.6862 34.4009 18.5823ZM35.2184 32.6245C34.0986 33.7331 33.0236 34.8193 31.9374 35.8943C33.8186 37.7755 35.7223 39.7016 37.6483 41.6164C37.7827 41.7508 37.9506 41.874 38.1186 41.9635C39.1376 42.5458 40.3582 42.3107 41.0973 41.3812C41.8251 40.463 41.7803 39.1977 40.8845 38.2906C38.9921 36.3758 37.066 34.4833 35.2184 32.6245ZM30.8848 34.7745C31.9486 33.7219 33.0348 32.6581 34.0986 31.6055C33.3819 30.9 32.7436 30.2505 32.1053 29.6234C31.6126 30.1609 31.1087 30.7432 30.56 31.2807C30.0225 31.8182 29.4402 32.3221 28.9139 32.8036C29.5634 33.4531 30.2129 34.0914 30.8848 34.7745ZM35.8118 6.43255C36.6069 6.44375 37.2676 5.80547 37.2676 5.01042C37.2676 4.24896 36.6293 3.59948 35.8566 3.57708C35.0728 3.56589 34.4121 4.21536 34.4121 5.01042C34.4121 5.80547 35.028 6.43255 35.8118 6.43255Z" fill="#014898"/>
<path d="M2.87891 18.6253C2.95729 10.2828 9.53047 3.59766 17.9177 3.59766C26.3497 3.59766 32.9677 10.3276 32.9565 18.6477C32.9565 26.9901 26.1706 33.6977 17.9177 33.6641C9.59766 33.6193 2.95729 27.0125 2.87891 18.6253ZM4.41302 17.1919C3.78594 23.0596 6.96615 28.7706 12.6435 31.1669C18.3096 33.5633 24.8044 31.8836 28.6229 27.0349C32.3294 22.3318 32.2174 16.1617 29.7763 12.0745C29.362 12.5 28.9589 12.9255 28.5333 13.3286C28.3318 13.519 28.287 13.6534 28.4102 13.9333C29.1044 15.4786 28.2758 17.2703 26.6521 17.7742C25.8458 18.0318 25.0844 17.9086 24.3341 17.5167C22.8224 19.0284 21.3331 20.5177 19.8549 22.0294C19.7766 22.1078 19.7766 22.3206 19.799 22.4549C19.8661 22.9365 20.0677 23.418 20.0341 23.8771C19.9445 25.0753 19.3063 25.9151 18.1641 26.3294C17.0107 26.7437 15.9581 26.4862 15.1294 25.6016C14.2896 24.7057 14.1216 23.6419 14.5807 22.4885C14.6367 22.3542 14.6255 22.119 14.5359 22.0294C13.5841 21.044 12.6099 20.081 11.6357 19.118C11.5685 19.0508 11.3669 19.006 11.2885 19.0508C9.75443 19.857 7.82839 18.9612 7.34687 17.4271C7.31328 17.3375 7.1901 17.2031 7.10052 17.2031C6.21589 17.1807 5.33125 17.1919 4.41302 17.1919ZM29.026 10.8203C26.2938 6.78906 20.7396 3.9112 14.6143 5.43411C9.09375 6.81146 5.46563 11.3802 4.68177 15.7362C5.54401 15.7362 6.41745 15.7362 7.26849 15.7362C7.92917 13.7878 9.75443 13.2951 11.1206 13.8214C12.6883 14.4372 13.2258 16.0161 12.5315 17.9534C13.5505 18.9724 14.5807 20.0026 15.6221 21.0216C15.7005 21.1 15.9245 21.0776 16.0477 21.0216C16.8091 20.6969 17.5706 20.6745 18.3208 21.0216C18.5896 21.1448 18.7352 21.1 18.9255 20.9096C20.2357 19.5883 21.5458 18.2669 22.8784 16.9568C23.0352 16.8 23.2367 16.688 23.4159 16.5536C23.3487 16.5201 23.2815 16.4977 23.2143 16.4641C23.1247 15.9266 22.9456 15.3779 22.9792 14.8404C23.1135 12.7352 25.3083 11.6042 27.0552 12.4664C27.1448 12.5112 27.3352 12.4888 27.4023 12.4216C27.951 11.9065 28.4773 11.369 29.026 10.8203ZM10.0568 15.0531C9.26172 15.0531 8.64583 15.6578 8.62344 16.4417C8.61224 17.2479 9.23932 17.8974 10.0344 17.9086C10.807 17.9198 11.4901 17.2367 11.4789 16.4641C11.4789 15.6914 10.8406 15.0643 10.0568 15.0531ZM17.2122 25.0641C18.0073 25.0641 18.6568 24.4034 18.6456 23.6195C18.6344 22.8469 17.9849 22.2086 17.2122 22.2086C16.4396 22.2086 15.8013 22.8469 15.7901 23.6195C15.7789 24.4258 16.4172 25.0641 17.2122 25.0641ZM27.2232 15.0531C27.2232 14.2581 26.6185 13.6422 25.8234 13.631C25.0284 13.6198 24.3677 14.2581 24.3677 15.0531C24.3677 15.837 25.0396 16.4977 25.8234 16.4865C26.5961 16.4641 27.2232 15.8258 27.2232 15.0531Z" fill="#014898"/>
</g>
<defs>
<clipPath id="clip0_2128_2723">
<rect width="43" height="43" fill="white" transform="translate(0 0.710938)"/>
</clipPath>
</defs>
</svg>
