<svg width="51" height="44" viewBox="0 0 51 44" fill="none" xmlns="http://www.w3.org/2000/svg">
<g clip-path="url(#clip0_2128_2731)">
<path d="M8.52692 27.2485C9.72629 27.3852 10.9397 27.5315 12.1559 27.6571C12.6418 27.7082 12.8651 27.9733 13.0365 28.4068C13.507 29.6052 14.0097 30.7911 14.5434 31.9646C14.747 32.4119 14.7527 32.7722 14.4353 33.1547C13.6727 34.0755 12.9255 35.006 12.2079 35.8896C13.0449 36.7125 13.8567 37.5104 14.7274 38.3664C15.3257 37.897 16.004 37.3641 16.6823 36.8298C18.2848 35.5666 17.9308 35.7212 19.5347 36.5164C20.3872 36.9389 21.3141 37.226 22.2255 37.5173C22.7522 37.6858 23.064 37.9315 23.1187 38.5072C23.2283 39.6711 23.3842 40.8308 23.5232 42.0222H27.0497C27.1915 40.8059 27.339 39.6117 27.4668 38.4161C27.5173 37.937 27.7715 37.6733 28.2364 37.5629C29.5228 37.2592 30.7306 36.7663 31.857 36.0843C32.2867 35.8234 32.6729 35.8731 33.0619 36.1851C33.9973 36.9347 34.9452 37.6692 35.8553 38.3844C36.6895 37.5588 37.4985 36.7553 38.3608 35.902C37.8482 35.2697 37.278 34.5587 36.698 33.8532C35.5393 32.4437 35.7022 32.688 36.4297 31.2605C36.8651 30.4059 37.1867 29.4878 37.483 28.5739C37.6656 28.0119 37.9282 27.6765 38.5602 27.6447C39.1543 27.6143 39.7441 27.5274 40.3368 27.4597C40.9098 27.3948 41.4814 27.3244 42.1148 27.2485C42.1148 26.7087 42.1091 26.1799 42.1162 25.6511C42.1246 25.0533 42.4659 24.6806 42.9785 24.6958C43.4714 24.7096 43.7888 25.0671 43.7944 25.6442C43.8029 26.3842 43.8029 27.1256 43.7944 27.867C43.7874 28.4883 43.5276 28.7602 42.8802 28.8362C41.7328 28.9701 40.5854 29.1123 39.4351 29.2172C39.1304 29.2448 39.0405 29.376 38.9422 29.6286C38.6248 30.4459 38.2948 31.2619 37.9156 32.0529C37.7625 32.3732 37.7962 32.5665 38.0167 32.8261C38.7231 33.6586 39.4057 34.5132 40.091 35.3622C40.5376 35.9145 40.5222 36.261 40.018 36.7608C38.9324 37.8376 37.8411 38.909 36.7471 39.9776C36.2176 40.4939 35.8679 40.505 35.2851 40.0466C34.4088 39.3591 33.524 38.6812 32.6631 37.9757C32.4173 37.7755 32.2404 37.7921 31.9665 37.9136C31.1393 38.2808 30.2995 38.6246 29.4484 38.938C29.1759 39.0388 29.0748 39.1547 29.0467 39.4378C28.9344 40.5685 28.7925 41.6964 28.6591 42.8244C28.5861 43.4442 28.301 43.7052 27.6606 43.7079C26.0834 43.7135 24.5063 43.7135 22.9291 43.7079C22.2648 43.7052 21.991 43.447 21.9137 42.7871C21.7817 41.6577 21.6385 40.5312 21.5261 39.4005C21.4994 39.1285 21.3787 39.036 21.1385 38.9449C20.2748 38.6177 19.4167 38.2753 18.5741 37.8998C18.3044 37.7797 18.1387 37.8031 17.921 37.9785C17.0545 38.6784 16.1767 39.3632 15.299 40.0494C14.7035 40.5146 14.3665 40.4994 13.837 39.9817C12.743 38.9131 11.6531 37.8404 10.5661 36.7663C10.0605 36.2665 10.0437 35.92 10.4889 35.3705C11.1981 34.4938 11.9031 33.6158 12.6278 32.7529C12.8118 32.5334 12.8132 32.3719 12.6952 32.1137C12.3146 31.2853 11.9916 30.4307 11.6124 29.601C11.5394 29.4409 11.3287 29.2614 11.1602 29.2393C10.0156 29.0833 8.86538 28.9646 7.71658 28.8375C7.04808 28.763 6.78967 28.4938 6.78405 27.8352C6.77843 27.1118 6.77703 26.3884 6.78405 25.6649C6.78967 25.063 7.12532 24.6916 7.63512 24.6985C8.14352 24.7068 8.45389 25.0768 8.46372 25.6884C8.47075 26.1702 8.47075 26.6521 8.47777 27.1353C8.47777 27.1656 8.50445 27.196 8.53114 27.254L8.52692 27.2485Z" fill="#014898"/>
<path d="M25.2987 0.710942C28.9909 0.7068 32.0062 3.67646 32.0146 7.32537C32.0216 10.9494 28.9811 13.9412 25.2959 13.9398C21.5855 13.937 18.5604 10.9798 18.5562 7.34884C18.5505 3.67784 21.5602 0.715084 25.2987 0.710942ZM20.2372 7.34332C20.2457 10.0755 22.511 12.2858 25.3015 12.2845C28.0724 12.2845 30.3476 10.0313 30.3293 7.30742C30.3125 4.57108 28.05 2.36489 25.2636 2.36489C22.4941 2.36489 20.2288 4.60836 20.2372 7.34332Z" fill="#014898"/>
<path d="M37.0644 21.3151C37.0644 21.8494 37.0715 22.3836 37.063 22.9165C37.0532 23.4881 36.7288 23.8498 36.2387 23.8581C35.7289 23.8678 35.3904 23.4936 35.3848 22.8931C35.3778 21.9971 35.344 21.0997 35.396 20.2064C35.4311 19.6114 35.2205 19.1641 34.7247 18.9128C33.6265 18.3551 32.5422 17.7131 31.3738 17.3583C26.5244 15.8852 21.7409 16.0854 17.0825 18.1645C16.9547 18.2211 16.8367 18.2957 16.7103 18.3551C15.6318 18.8493 14.9703 19.5534 15.1725 20.8484C15.2779 21.5221 15.1978 22.2235 15.1894 22.9124C15.1824 23.484 14.8593 23.8471 14.3692 23.8595C13.8608 23.8719 13.5167 23.4978 13.5111 22.9C13.5041 22.004 13.5546 21.1052 13.4971 20.2133C13.4254 19.1158 13.9226 18.3288 14.7414 17.6772C15.834 16.8074 17.1064 16.2731 18.4279 15.8576C23.2816 14.332 28.1184 14.3872 32.9004 16.1351C33.8722 16.4913 34.7963 17.02 35.6713 17.5764C36.6558 18.2018 37.2063 19.1144 37.0701 20.3348C37.0336 20.6579 37.0644 20.9892 37.0644 21.3164V21.3151Z" fill="#014898"/>
<path d="M4.25393 8.96786C4.26235 5.75936 6.91388 3.17903 10.1904 3.19145C13.3938 3.2025 16.0341 5.8132 16.0299 8.96234C16.0257 12.175 13.3854 14.7664 10.1173 14.7677C6.89421 14.7677 4.2455 12.1487 4.25393 8.96924V8.96786ZM10.1412 4.8454C7.84359 4.83988 5.95186 6.68159 5.93641 8.93887C5.92096 11.2293 7.79163 13.0972 10.1145 13.111C12.4402 13.1248 14.3488 11.2693 14.3474 8.99409C14.3474 6.70506 12.4683 4.85093 10.1412 4.8454Z" fill="#014898"/>
<path d="M34.543 8.97198C34.55 5.7621 37.2001 3.18177 40.4752 3.19143C43.6787 3.2011 46.3204 5.80904 46.3176 8.95818C46.3147 12.1708 43.6759 14.765 40.4092 14.7663C37.1861 14.7691 34.5346 12.1501 34.543 8.97198ZM44.6365 8.99683C44.6365 6.70781 42.7588 4.85229 40.4331 4.84539C38.1144 4.83848 36.2213 6.70229 36.2255 8.98717C36.2297 11.2693 38.1228 13.1165 40.4527 13.111C42.7475 13.1055 44.6365 11.2486 44.6365 8.99545V8.99683Z" fill="#014898"/>
<path d="M0.0481003 21.4692C-0.322664 18.9469 1.50588 17.7527 3.60828 16.8208C6.10532 15.7149 8.76386 15.4747 11.4702 15.6417C12.1499 15.6832 12.8268 15.7895 13.5009 15.8916C14.1062 15.9841 14.4292 16.3804 14.3366 16.865C14.2439 17.3537 13.7987 17.6091 13.2074 17.5125C10.3059 17.0306 7.44231 17.1355 4.67984 18.1917C3.87792 18.4982 3.14061 18.9938 2.42015 19.4701C1.92299 19.8001 1.68143 20.3082 1.72216 20.9418C1.76288 21.5935 1.7376 22.2493 1.72918 22.9037C1.72075 23.4987 1.37386 23.8729 0.864062 23.8563C0.375328 23.8411 0.06074 23.4794 0.0509091 22.9051C0.0438871 22.4923 0.0495047 22.0781 0.0495047 21.4692H0.0481003Z" fill="#014898"/>
<path d="M50.5243 21.7085C50.5243 22.0178 50.5243 22.3284 50.5243 22.6376C50.5243 23.4701 50.2434 23.8705 49.669 23.8609C49.1101 23.8512 48.8418 23.4646 48.8418 22.6639C48.8418 22.1296 48.8025 21.5925 48.8516 21.0638C48.9219 20.3058 48.5792 19.7771 48.0132 19.3353C46.7731 18.3702 45.321 17.8815 43.8014 17.5778C41.6695 17.1512 39.525 17.1374 37.3804 17.5129C36.7836 17.6178 36.344 17.3707 36.2415 16.8833C36.1389 16.4001 36.4619 15.9928 37.0588 15.8962C40.6415 15.315 44.1427 15.5041 47.4753 17.0573C47.9921 17.2989 48.4809 17.6192 48.9387 17.9602C50.2308 18.9238 50.5243 19.6556 50.5243 21.7085Z" fill="#014898"/>
<path d="M25.3063 31.3055C22.159 31.3152 19.485 28.7998 19.405 25.7514C19.3881 25.1025 19.6845 24.7146 20.2111 24.6966C20.7307 24.6787 21.0495 25.0445 21.0847 25.6976C21.2082 27.9203 23.0312 29.6447 25.267 29.6516C27.5295 29.6599 29.3608 27.9383 29.4886 25.6837C29.5251 25.039 29.8566 24.6704 30.3762 24.6966C30.8973 24.7229 31.1894 25.1163 31.1683 25.7652C31.0756 28.7998 28.4339 31.2959 25.3063 31.3055Z" fill="#014898"/>
</g>
<defs>
<clipPath id="clip0_2128_2731">
<rect width="50.525" height="43" fill="white" transform="translate(0 0.710938)"/>
</clipPath>
</defs>
</svg>
