<svg width="42" height="47" viewBox="0 0 42 47" fill="none" xmlns="http://www.w3.org/2000/svg">
<g clip-path="url(#clip0_2128_4018)">
<path d="M1 22.9818C1 16.7176 1 10.4534 1 4.17665C1 2.56371 1.82577 1.4259 3.26462 1.08831C3.58993 1.01329 3.95277 1.00078 4.29058 1.00078C11.9853 1.00078 19.68 1.00078 27.3747 0.988281C28.1129 0.988281 28.6759 1.20084 29.2014 1.75099C30.903 3.50146 32.6297 5.22693 34.3688 6.92739C34.8317 7.37752 35.0194 7.86515 35.0194 8.50282C35.0069 14.767 35.0194 21.0312 35.0069 27.3079C35.0069 27.733 35.132 27.9456 35.5073 28.1707C39.2984 30.3087 41.2377 33.5096 40.975 37.9108C40.6997 42.3745 36.8961 46.3381 32.467 46.9133C29.9021 47.2509 27.5749 46.6882 25.4104 45.2878C25.1727 45.1253 24.8348 45.0252 24.5471 45.0252C17.7407 45.0127 10.9468 45.0127 4.14044 45.0127C2.53894 45.0127 1.37535 44.125 1.06256 42.6621C1 42.337 1 41.9869 1 41.6493C1 35.4226 1 29.2085 1 22.9818ZM27.0119 3.10136C26.7867 3.10136 26.6365 3.10136 26.4864 3.10136C19.092 3.10136 11.6975 3.10136 4.3031 3.10136C3.28965 3.10136 3.00188 3.38893 3.00188 4.41421C3.00188 16.8676 3.00188 29.321 3.00188 41.7744C3.00188 42.8246 3.28965 43.1122 4.34063 43.1122C10.3963 43.1122 16.4395 43.1122 22.4951 43.1122C22.6453 43.1122 22.7829 43.0997 22.9831 43.0872C20.5683 39.3487 20.218 35.5352 22.6203 31.7716C25.0225 28.0081 28.6134 26.6453 33.0175 27.2579C33.0175 21.2063 33.0175 15.1671 33.0175 9.09048C32.0666 9.09048 31.1533 9.09048 30.2274 9.09048C28.2631 9.09048 27.0369 7.86515 27.0369 5.90212C27.0119 5.00187 27.0119 4.07662 27.0119 3.10136ZM23.0081 37.3482C23.2459 41.9369 26.9618 45.3503 31.4786 45.1003C35.8452 44.8627 39.2233 41.0867 39.0231 36.6605C38.823 32.3718 34.9944 28.8959 30.7279 29.1084C26.2236 29.3335 22.9205 33.0095 23.0081 37.3482ZM31.416 7.08994C30.6153 6.28972 29.802 5.4895 29.0263 4.7268C29.0263 5.15191 29.0012 5.66455 29.0388 6.17719C29.0763 6.71484 29.3516 7.03993 29.8771 7.08994C30.3901 7.12745 30.9406 7.08994 31.416 7.08994Z" fill="#014898"/>
<path d="M17.9784 20.106C15.0256 20.106 12.0729 20.106 9.12011 20.106C8.30685 20.106 7.88145 19.6183 8.01908 18.9056C8.10666 18.443 8.39443 18.2055 8.84485 18.1304C8.95746 18.1179 9.05755 18.1179 9.17016 18.1179C15.0632 18.1179 20.9562 18.1179 26.8367 18.1179C27.625 18.1179 28.0504 18.518 28.0003 19.1932C27.9628 19.7559 27.6124 20.0935 27.0119 20.106C26.0485 20.1185 25.0726 20.1185 24.1092 20.1185C22.0823 20.106 20.0303 20.106 17.9784 20.106Z" fill="#014898"/>
<path d="M15.9765 25.1198C13.7119 25.1198 11.4473 25.1198 9.18267 25.1198C8.3569 25.1198 7.90647 24.6572 8.01908 23.957C8.09415 23.5069 8.33187 23.2193 8.79481 23.1443C8.98248 23.1193 9.17016 23.1068 9.35783 23.1068C13.7995 23.1068 18.2412 23.1068 22.6703 23.1068C22.883 23.1068 23.1082 23.1193 23.3209 23.1693C23.7588 23.2693 24.0091 23.6319 24.0091 24.1071C24.0091 24.5822 23.7713 24.9448 23.3334 25.0573C23.1207 25.1073 22.8955 25.1198 22.6828 25.1198C20.4557 25.1198 18.2161 25.1198 15.9765 25.1198Z" fill="#014898"/>
<path d="M13.5493 13.1166C15.0382 13.1166 16.5145 13.1041 18.0034 13.1166C18.7792 13.1291 19.2171 13.8043 18.9293 14.517C18.7291 14.9921 18.3287 15.1046 17.8533 15.1046C15.0882 15.1046 12.3231 15.1046 9.55802 15.1046C9.35783 15.1046 9.15765 15.1171 8.94495 15.1046C8.3569 15.0671 7.98154 14.6795 7.98154 14.1043C7.98154 13.5292 8.3569 13.1291 8.94495 13.1291C10.4964 13.1041 12.0228 13.1166 13.5493 13.1166Z" fill="#014898"/>
<path d="M30.7279 38.3984C31.1157 37.6232 31.5036 36.873 31.879 36.1228C32.2793 35.3226 32.6672 34.5224 33.0676 33.7347C33.3303 33.222 33.8808 33.0095 34.3688 33.197C34.8442 33.3846 35.107 34.0098 34.9443 34.5349C34.9068 34.6474 34.8567 34.7725 34.7942 34.8725C33.8808 36.698 32.9675 38.536 32.0541 40.3615C31.6162 41.2367 30.878 41.3618 30.1774 40.6741C29.264 39.7613 28.3506 38.8361 27.4248 37.9233C27.1495 37.6482 26.9618 37.3357 27.0369 36.923C27.1996 36.1353 28.1129 35.8728 28.7135 36.4354C29.2765 36.9606 29.802 37.5107 30.34 38.0484C30.4651 38.1609 30.5777 38.2609 30.7279 38.3984Z" fill="#014898"/>
<path d="M1 22.9818C1 16.7176 1 10.4534 1 4.17665C1 2.56371 1.82577 1.4259 3.26462 1.08831C3.58993 1.01329 3.95277 1.00078 4.29058 1.00078C11.9853 1.00078 19.68 1.00078 27.3747 0.988281C28.1129 0.988281 28.6759 1.20084 29.2014 1.75099C30.903 3.50146 32.6297 5.22693 34.3688 6.92739C34.8317 7.37752 35.0194 7.86515 35.0194 8.50282C35.0069 14.767 35.0194 21.0312 35.0069 27.3079C35.0069 27.733 35.132 27.9456 35.5073 28.1707C39.2984 30.3087 41.2377 33.5096 40.975 37.9108C40.6997 42.3745 36.8961 46.3381 32.467 46.9133C29.9021 47.2509 27.5749 46.6882 25.4104 45.2878C25.1727 45.1253 24.8348 45.0252 24.5471 45.0252C17.7407 45.0127 10.9468 45.0127 4.14044 45.0127C2.53894 45.0127 1.37535 44.125 1.06256 42.6621C1 42.337 1 41.9869 1 41.6493C1 35.4226 1 29.2085 1 22.9818ZM27.0119 3.10136C26.7867 3.10136 26.6365 3.10136 26.4864 3.10136C19.092 3.10136 11.6975 3.10136 4.3031 3.10136C3.28965 3.10136 3.00188 3.38893 3.00188 4.41421C3.00188 16.8676 3.00188 29.321 3.00188 41.7744C3.00188 42.8246 3.28965 43.1122 4.34063 43.1122C10.3963 43.1122 16.4395 43.1122 22.4951 43.1122C22.6453 43.1122 22.7829 43.0997 22.9831 43.0872C20.5683 39.3487 20.218 35.5352 22.6203 31.7716C25.0225 28.0081 28.6134 26.6453 33.0175 27.2579C33.0175 21.2063 33.0175 15.1671 33.0175 9.09048C32.0666 9.09048 31.1533 9.09048 30.2274 9.09048C28.2631 9.09048 27.0369 7.86515 27.0369 5.90212C27.0119 5.00187 27.0119 4.07662 27.0119 3.10136ZM23.0081 37.3482C23.2459 41.9369 26.9618 45.3503 31.4786 45.1003C35.8452 44.8627 39.2233 41.0867 39.0231 36.6605C38.823 32.3718 34.9944 28.8959 30.7279 29.1084C26.2236 29.3335 22.9205 33.0095 23.0081 37.3482ZM31.416 7.08994C30.6153 6.28972 29.802 5.4895 29.0263 4.7268C29.0263 5.15191 29.0012 5.66455 29.0388 6.17719C29.0763 6.71484 29.3516 7.03993 29.8771 7.08994C30.3901 7.12745 30.9406 7.08994 31.416 7.08994Z" stroke="#F2F8FF" stroke-width="0.2"/>
<path d="M17.9784 20.106C15.0256 20.106 12.0729 20.106 9.12011 20.106C8.30685 20.106 7.88145 19.6183 8.01908 18.9056C8.10666 18.443 8.39443 18.2055 8.84485 18.1304C8.95746 18.1179 9.05755 18.1179 9.17016 18.1179C15.0632 18.1179 20.9562 18.1179 26.8367 18.1179C27.625 18.1179 28.0504 18.518 28.0003 19.1932C27.9628 19.7559 27.6124 20.0935 27.0119 20.106C26.0485 20.1185 25.0726 20.1185 24.1092 20.1185C22.0823 20.106 20.0303 20.106 17.9784 20.106Z" stroke="#F2F8FF" stroke-width="0.2"/>
<path d="M15.9765 25.1198C13.7119 25.1198 11.4473 25.1198 9.18267 25.1198C8.3569 25.1198 7.90647 24.6572 8.01908 23.957C8.09415 23.5069 8.33187 23.2193 8.79481 23.1443C8.98248 23.1193 9.17016 23.1068 9.35783 23.1068C13.7995 23.1068 18.2412 23.1068 22.6703 23.1068C22.883 23.1068 23.1082 23.1193 23.3209 23.1693C23.7588 23.2693 24.0091 23.6319 24.0091 24.1071C24.0091 24.5822 23.7713 24.9448 23.3334 25.0573C23.1207 25.1073 22.8955 25.1198 22.6828 25.1198C20.4557 25.1198 18.2161 25.1198 15.9765 25.1198Z" stroke="#F2F8FF" stroke-width="0.2"/>
<path d="M13.5493 13.1166C15.0382 13.1166 16.5145 13.1041 18.0034 13.1166C18.7792 13.1291 19.2171 13.8043 18.9293 14.517C18.7291 14.9921 18.3287 15.1046 17.8533 15.1046C15.0882 15.1046 12.3231 15.1046 9.55802 15.1046C9.35783 15.1046 9.15765 15.1171 8.94495 15.1046C8.3569 15.0671 7.98154 14.6795 7.98154 14.1043C7.98154 13.5292 8.3569 13.1291 8.94495 13.1291C10.4964 13.1041 12.0228 13.1166 13.5493 13.1166Z" stroke="#F2F8FF" stroke-width="0.2"/>
<path d="M30.7279 38.3984C31.1157 37.6232 31.5036 36.873 31.879 36.1228C32.2793 35.3226 32.6672 34.5224 33.0676 33.7347C33.3303 33.222 33.8808 33.0095 34.3688 33.197C34.8442 33.3846 35.107 34.0098 34.9443 34.5349C34.9068 34.6474 34.8567 34.7725 34.7942 34.8725C33.8808 36.698 32.9675 38.536 32.0541 40.3615C31.6162 41.2367 30.878 41.3618 30.1774 40.6741C29.264 39.7613 28.3506 38.8361 27.4248 37.9233C27.1495 37.6482 26.9618 37.3357 27.0369 36.923C27.1996 36.1353 28.1129 35.8728 28.7135 36.4354C29.2765 36.9606 29.802 37.5107 30.34 38.0484C30.4651 38.1609 30.5777 38.2609 30.7279 38.3984Z" stroke="#F2F8FF" stroke-width="0.2"/>
</g>
<defs>
<clipPath id="clip0_2128_4018">
<rect width="42" height="47" fill="white"/>
</clipPath>
</defs>
</svg>
