<svg width="45" height="45" viewBox="0 0 45 45" fill="none" xmlns="http://www.w3.org/2000/svg">
<g clip-path="url(#clip0_2108_7235)">
<mask id="path-1-inside-1_2108_7235" fill="white">
<path d="M21.1795 45.0002C20.183 44.8546 19.1771 44.7513 18.1899 44.5576C14.651 43.8649 11.5088 42.2988 8.66243 40.1691C10.794 38.0371 12.9209 35.9086 15.1135 33.7156C15.3494 33.9656 15.6076 34.258 15.8846 34.5303C16.4856 35.1209 17.3072 35.149 17.839 34.609C18.3707 34.069 18.3296 33.2577 17.7333 32.6531C17.468 32.3842 17.1934 32.126 16.9457 31.8865C18.8273 30.0092 20.6689 28.1707 22.547 26.297C22.6127 26.3592 22.7277 26.4637 22.838 26.5729C23.9355 27.6706 25.0365 28.7647 26.1258 29.8695C26.303 30.0491 26.4403 30.0855 26.6927 29.9975C28.2573 29.4551 29.687 29.7227 30.8655 30.8921C32.0463 32.0626 32.3151 33.4937 31.7869 35.0598C31.6965 35.3275 31.7282 35.4731 31.9195 35.6633C33.4067 37.1367 34.8844 38.6194 36.4491 40.1832C35.1978 40.9499 34.0135 41.7505 32.7623 42.4268C30.0919 43.8708 27.2303 44.7067 24.1949 44.9286C24.0963 44.9356 24.0001 44.9755 23.9027 45.0014H21.1783L21.1795 45.0002ZM22.5164 29.9423C21.8474 30.6103 21.2194 31.222 20.6161 31.8571C20.5422 31.9346 20.5551 32.1506 20.6008 32.2762C20.8591 32.983 20.9271 33.7062 20.7781 34.4364C20.2792 36.8784 17.8519 38.2238 15.4973 37.3855C15.3705 37.3409 15.1534 37.3233 15.0771 37.3961C14.3 38.144 13.543 38.9129 12.7424 39.7124C16.0853 41.6038 19.6172 42.5207 23.4108 42.3399C26.5542 42.1908 29.4851 41.2985 32.2716 39.6937C30.8525 38.2848 29.4828 36.9265 28.0578 35.5118C28.3782 35.216 28.6928 34.953 28.9769 34.6595C29.5285 34.0901 29.5414 33.2918 29.0297 32.7681C28.5038 32.2304 27.6892 32.241 27.107 32.8092C26.816 33.0933 26.5495 33.4009 26.2596 33.712C24.9884 32.4324 23.7724 31.209 22.5153 29.9435L22.5164 29.9423Z"/>
<path d="M0 21.0949C0.103292 20.3435 0.187803 19.5886 0.31457 18.8408C0.894413 15.4209 2.25599 12.3274 4.23848 9.49446C4.4392 9.20801 4.63991 8.92037 4.81833 8.66444C6.95576 10.8023 9.08263 12.9296 11.287 15.1344C11.0428 15.3587 10.7459 15.6099 10.4712 15.887C9.87375 16.4892 9.84441 17.3017 10.3879 17.8394C10.929 18.3759 11.7377 18.3395 12.3422 17.7407C12.611 17.4754 12.8622 17.1913 13.0922 16.9459C14.9797 18.8361 16.8178 20.677 18.6946 22.5566C18.643 22.6117 18.5409 22.728 18.4317 22.836C17.3448 23.9243 16.2626 25.0161 15.1663 26.0939C14.9656 26.2911 14.9116 26.4425 15.0113 26.7325C15.5466 28.2998 15.259 29.7286 14.0805 30.8968C12.9138 32.052 11.4924 32.3197 9.94653 31.7914C9.65074 31.6904 9.50401 31.7573 9.31034 31.9534C7.849 33.4315 6.37709 34.9002 4.87349 36.4088C4.57536 35.9826 4.29013 35.5846 4.01547 35.1796C1.76887 31.8724 0.38617 28.2529 0.0751213 24.2471C0.0657311 24.1333 0.0258229 24.0206 0 23.9079C0 22.9698 0 22.0329 0 21.0949ZM5.28666 12.7512C3.40511 16.0572 2.49426 19.5628 2.65507 23.3232C2.79123 26.4989 3.68329 29.4609 5.30661 32.2751C6.71631 30.8592 8.07789 29.4915 9.49463 28.0686C9.78337 28.3808 10.0475 28.6955 10.3409 28.9796C10.9067 29.5314 11.706 29.5455 12.2319 29.0336C12.7741 28.5065 12.7647 27.6987 12.1943 27.1117C11.9114 26.8206 11.6027 26.5529 11.2823 26.2512C11.9455 25.5914 12.5582 24.9844 13.1697 24.3763C13.7895 23.7599 14.4104 23.1436 15.0536 22.5049C14.4385 21.8909 13.8493 21.3227 13.2859 20.731C13.0922 20.5279 12.9361 20.5091 12.6814 20.61C11.9842 20.8871 11.2541 20.9317 10.524 20.7744C8.1084 20.2555 6.77735 17.8288 7.61542 15.5042C7.6612 15.3775 7.68115 15.1591 7.60838 15.0828C6.85951 14.3056 6.08835 13.5483 5.28783 12.75L5.28666 12.7512Z"/>
<path d="M31.8655 28.0932C29.964 26.1913 28.1317 24.3587 26.2631 22.4873C26.3547 22.3898 26.4568 22.2748 26.5648 22.1656C27.6622 21.0667 28.7574 19.9667 29.8607 18.8748C30.0368 18.7011 30.0849 18.5661 29.9945 18.309C29.4487 16.7452 29.714 15.3129 30.8842 14.1342C32.0686 12.9402 33.5123 12.6713 35.0922 13.2231C35.3551 13.3147 35.4854 13.249 35.6556 13.0776C37.1299 11.5913 38.6123 10.1108 40.0936 8.62804C46.0106 16.0596 47.2008 27.0953 40.1793 36.309C38.0583 34.1875 35.9314 32.0602 33.7588 29.8871C33.9748 29.6711 34.2506 29.3987 34.5206 29.1205C35.1122 28.5123 35.1485 27.7011 34.6121 27.1634C34.0757 26.6269 33.2588 26.6609 32.6566 27.2561C32.3878 27.5226 32.1355 27.8056 31.8655 28.0909V28.0932ZM39.7051 32.2574C41.4317 29.2273 42.3438 26.0199 42.3555 22.5695C42.3672 19.0721 41.4552 15.8189 39.7039 12.7465C38.3013 14.1518 36.9374 15.5183 35.5124 16.9459C35.2295 16.6372 34.9748 16.3355 34.6955 16.0607C34.0863 15.462 33.2776 15.4397 32.7411 15.9915C32.2118 16.5362 32.2388 17.3181 32.8233 17.9133C33.1003 18.1951 33.3985 18.4545 33.7189 18.7527C32.443 20.0254 31.2129 21.2522 29.9546 22.5084C30.5955 23.1483 31.207 23.7728 31.842 24.3751C31.9207 24.4502 32.1343 24.4455 32.2576 24.3998C32.9782 24.1344 33.7154 24.0675 34.4607 24.2248C36.8763 24.7332 38.2144 27.1622 37.3858 29.4879C37.3376 29.623 37.3294 29.8566 37.4104 29.9423C38.1475 30.7136 38.9093 31.4626 39.7028 32.2574H39.7051Z"/>
<path d="M8.60843 4.88411C17.3507 -1.81952 28.2362 -1.42153 36.327 4.84654C34.2025 6.97268 32.0756 9.10352 29.8959 11.286C29.6353 11.016 29.363 10.7154 29.0719 10.4349C28.4897 9.87367 27.6693 9.86428 27.1493 10.3996C26.6411 10.9221 26.6587 11.7263 27.2045 12.2921C27.478 12.5763 27.7737 12.8392 28.0085 13.0635C26.1328 14.9384 24.2877 16.7851 22.3181 18.7539C22.3016 18.7211 22.2605 18.5438 22.1514 18.4322C21.0621 17.3275 19.9576 16.2368 18.8684 15.1321C18.6911 14.9525 18.5526 14.9184 18.3003 15.0053C16.7356 15.5465 15.306 15.2788 14.1287 14.1095C12.9502 12.939 12.6755 11.5091 13.2073 9.94294C13.2976 9.67644 13.2683 9.52969 13.0758 9.3395C11.5886 7.86728 10.1109 6.3845 8.6096 4.88411H8.60843ZM16.9398 9.43107C16.6077 9.75627 16.3318 10.0169 16.0666 10.2881C15.4656 10.9021 15.4292 11.7004 15.9738 12.2428C16.5185 12.7864 17.3166 12.7524 17.9305 12.1536C18.2087 11.8824 18.4751 11.5983 18.812 11.252C20.0832 12.5258 21.3086 13.755 22.5622 15.0112C23.1479 14.4148 23.7512 13.8172 24.3287 13.1973C24.4156 13.1034 24.4461 12.8792 24.3992 12.7535C24.1398 12.0468 24.067 11.3236 24.209 10.5933C24.682 8.15491 27.1223 6.78014 29.4698 7.60548C29.6025 7.65244 29.8243 7.69353 29.8959 7.62426C30.6812 6.86819 31.4441 6.08982 32.2212 5.31028C26.2502 1.7037 18.5221 1.81641 12.8058 5.29971C14.1686 6.66157 15.5325 8.02343 16.9398 9.43107Z"/>
</mask>
<path d="M21.1795 45.0002C20.183 44.8546 19.1771 44.7513 18.1899 44.5576C14.651 43.8649 11.5088 42.2988 8.66243 40.1691C10.794 38.0371 12.9209 35.9086 15.1135 33.7156C15.3494 33.9656 15.6076 34.258 15.8846 34.5303C16.4856 35.1209 17.3072 35.149 17.839 34.609C18.3707 34.069 18.3296 33.2577 17.7333 32.6531C17.468 32.3842 17.1934 32.126 16.9457 31.8865C18.8273 30.0092 20.6689 28.1707 22.547 26.297C22.6127 26.3592 22.7277 26.4637 22.838 26.5729C23.9355 27.6706 25.0365 28.7647 26.1258 29.8695C26.303 30.0491 26.4403 30.0855 26.6927 29.9975C28.2573 29.4551 29.687 29.7227 30.8655 30.8921C32.0463 32.0626 32.3151 33.4937 31.7869 35.0598C31.6965 35.3275 31.7282 35.4731 31.9195 35.6633C33.4067 37.1367 34.8844 38.6194 36.4491 40.1832C35.1978 40.9499 34.0135 41.7505 32.7623 42.4268C30.0919 43.8708 27.2303 44.7067 24.1949 44.9286C24.0963 44.9356 24.0001 44.9755 23.9027 45.0014H21.1783L21.1795 45.0002ZM22.5164 29.9423C21.8474 30.6103 21.2194 31.222 20.6161 31.8571C20.5422 31.9346 20.5551 32.1506 20.6008 32.2762C20.8591 32.983 20.9271 33.7062 20.7781 34.4364C20.2792 36.8784 17.8519 38.2238 15.4973 37.3855C15.3705 37.3409 15.1534 37.3233 15.0771 37.3961C14.3 38.144 13.543 38.9129 12.7424 39.7124C16.0853 41.6038 19.6172 42.5207 23.4108 42.3399C26.5542 42.1908 29.4851 41.2985 32.2716 39.6937C30.8525 38.2848 29.4828 36.9265 28.0578 35.5118C28.3782 35.216 28.6928 34.953 28.9769 34.6595C29.5285 34.0901 29.5414 33.2918 29.0297 32.7681C28.5038 32.2304 27.6892 32.241 27.107 32.8092C26.816 33.0933 26.5495 33.4009 26.2596 33.712C24.9884 32.4324 23.7724 31.209 22.5153 29.9435L22.5164 29.9423Z" fill="#014898"/>
<path d="M0 21.0949C0.103292 20.3435 0.187803 19.5886 0.31457 18.8408C0.894413 15.4209 2.25599 12.3274 4.23848 9.49446C4.4392 9.20801 4.63991 8.92037 4.81833 8.66444C6.95576 10.8023 9.08263 12.9296 11.287 15.1344C11.0428 15.3587 10.7459 15.6099 10.4712 15.887C9.87375 16.4892 9.84441 17.3017 10.3879 17.8394C10.929 18.3759 11.7377 18.3395 12.3422 17.7407C12.611 17.4754 12.8622 17.1913 13.0922 16.9459C14.9797 18.8361 16.8178 20.677 18.6946 22.5566C18.643 22.6117 18.5409 22.728 18.4317 22.836C17.3448 23.9243 16.2626 25.0161 15.1663 26.0939C14.9656 26.2911 14.9116 26.4425 15.0113 26.7325C15.5466 28.2998 15.259 29.7286 14.0805 30.8968C12.9138 32.052 11.4924 32.3197 9.94653 31.7914C9.65074 31.6904 9.50401 31.7573 9.31034 31.9534C7.849 33.4315 6.37709 34.9002 4.87349 36.4088C4.57536 35.9826 4.29013 35.5846 4.01547 35.1796C1.76887 31.8724 0.38617 28.2529 0.0751213 24.2471C0.0657311 24.1333 0.0258229 24.0206 0 23.9079C0 22.9698 0 22.0329 0 21.0949ZM5.28666 12.7512C3.40511 16.0572 2.49426 19.5628 2.65507 23.3232C2.79123 26.4989 3.68329 29.4609 5.30661 32.2751C6.71631 30.8592 8.07789 29.4915 9.49463 28.0686C9.78337 28.3808 10.0475 28.6955 10.3409 28.9796C10.9067 29.5314 11.706 29.5455 12.2319 29.0336C12.7741 28.5065 12.7647 27.6987 12.1943 27.1117C11.9114 26.8206 11.6027 26.5529 11.2823 26.2512C11.9455 25.5914 12.5582 24.9844 13.1697 24.3763C13.7895 23.7599 14.4104 23.1436 15.0536 22.5049C14.4385 21.8909 13.8493 21.3227 13.2859 20.731C13.0922 20.5279 12.9361 20.5091 12.6814 20.61C11.9842 20.8871 11.2541 20.9317 10.524 20.7744C8.1084 20.2555 6.77735 17.8288 7.61542 15.5042C7.6612 15.3775 7.68115 15.1591 7.60838 15.0828C6.85951 14.3056 6.08835 13.5483 5.28783 12.75L5.28666 12.7512Z" fill="#014898"/>
<path d="M31.8655 28.0932C29.964 26.1913 28.1317 24.3587 26.2631 22.4873C26.3547 22.3898 26.4568 22.2748 26.5648 22.1656C27.6622 21.0667 28.7574 19.9667 29.8607 18.8748C30.0368 18.7011 30.0849 18.5661 29.9945 18.309C29.4487 16.7452 29.714 15.3129 30.8842 14.1342C32.0686 12.9402 33.5123 12.6713 35.0922 13.2231C35.3551 13.3147 35.4854 13.249 35.6556 13.0776C37.1299 11.5913 38.6123 10.1108 40.0936 8.62804C46.0106 16.0596 47.2008 27.0953 40.1793 36.309C38.0583 34.1875 35.9314 32.0602 33.7588 29.8871C33.9748 29.6711 34.2506 29.3987 34.5206 29.1205C35.1122 28.5123 35.1485 27.7011 34.6121 27.1634C34.0757 26.6269 33.2588 26.6609 32.6566 27.2561C32.3878 27.5226 32.1355 27.8056 31.8655 28.0909V28.0932ZM39.7051 32.2574C41.4317 29.2273 42.3438 26.0199 42.3555 22.5695C42.3672 19.0721 41.4552 15.8189 39.7039 12.7465C38.3013 14.1518 36.9374 15.5183 35.5124 16.9459C35.2295 16.6372 34.9748 16.3355 34.6955 16.0607C34.0863 15.462 33.2776 15.4397 32.7411 15.9915C32.2118 16.5362 32.2388 17.3181 32.8233 17.9133C33.1003 18.1951 33.3985 18.4545 33.7189 18.7527C32.443 20.0254 31.2129 21.2522 29.9546 22.5084C30.5955 23.1483 31.207 23.7728 31.842 24.3751C31.9207 24.4502 32.1343 24.4455 32.2576 24.3998C32.9782 24.1344 33.7154 24.0675 34.4607 24.2248C36.8763 24.7332 38.2144 27.1622 37.3858 29.4879C37.3376 29.623 37.3294 29.8566 37.4104 29.9423C38.1475 30.7136 38.9093 31.4626 39.7028 32.2574H39.7051Z" fill="#014898"/>
<path d="M8.60843 4.88411C17.3507 -1.81952 28.2362 -1.42153 36.327 4.84654C34.2025 6.97268 32.0756 9.10352 29.8959 11.286C29.6353 11.016 29.363 10.7154 29.0719 10.4349C28.4897 9.87367 27.6693 9.86428 27.1493 10.3996C26.6411 10.9221 26.6587 11.7263 27.2045 12.2921C27.478 12.5763 27.7737 12.8392 28.0085 13.0635C26.1328 14.9384 24.2877 16.7851 22.3181 18.7539C22.3016 18.7211 22.2605 18.5438 22.1514 18.4322C21.0621 17.3275 19.9576 16.2368 18.8684 15.1321C18.6911 14.9525 18.5526 14.9184 18.3003 15.0053C16.7356 15.5465 15.306 15.2788 14.1287 14.1095C12.9502 12.939 12.6755 11.5091 13.2073 9.94294C13.2976 9.67644 13.2683 9.52969 13.0758 9.3395C11.5886 7.86728 10.1109 6.3845 8.6096 4.88411H8.60843ZM16.9398 9.43107C16.6077 9.75627 16.3318 10.0169 16.0666 10.2881C15.4656 10.9021 15.4292 11.7004 15.9738 12.2428C16.5185 12.7864 17.3166 12.7524 17.9305 12.1536C18.2087 11.8824 18.4751 11.5983 18.812 11.252C20.0832 12.5258 21.3086 13.755 22.5622 15.0112C23.1479 14.4148 23.7512 13.8172 24.3287 13.1973C24.4156 13.1034 24.4461 12.8792 24.3992 12.7535C24.1398 12.0468 24.067 11.3236 24.209 10.5933C24.682 8.15491 27.1223 6.78014 29.4698 7.60548C29.6025 7.65244 29.8243 7.69353 29.8959 7.62426C30.6812 6.86819 31.4441 6.08982 32.2212 5.31028C26.2502 1.7037 18.5221 1.81641 12.8058 5.29971C14.1686 6.66157 15.5325 8.02343 16.9398 9.43107Z" fill="#014898"/>
<path d="M21.1795 45.0002C20.183 44.8546 19.1771 44.7513 18.1899 44.5576C14.651 43.8649 11.5088 42.2988 8.66243 40.1691C10.794 38.0371 12.9209 35.9086 15.1135 33.7156C15.3494 33.9656 15.6076 34.258 15.8846 34.5303C16.4856 35.1209 17.3072 35.149 17.839 34.609C18.3707 34.069 18.3296 33.2577 17.7333 32.6531C17.468 32.3842 17.1934 32.126 16.9457 31.8865C18.8273 30.0092 20.6689 28.1707 22.547 26.297C22.6127 26.3592 22.7277 26.4637 22.838 26.5729C23.9355 27.6706 25.0365 28.7647 26.1258 29.8695C26.303 30.0491 26.4403 30.0855 26.6927 29.9975C28.2573 29.4551 29.687 29.7227 30.8655 30.8921C32.0463 32.0626 32.3151 33.4937 31.7869 35.0598C31.6965 35.3275 31.7282 35.4731 31.9195 35.6633C33.4067 37.1367 34.8844 38.6194 36.4491 40.1832C35.1978 40.9499 34.0135 41.7505 32.7623 42.4268C30.0919 43.8708 27.2303 44.7067 24.1949 44.9286C24.0963 44.9356 24.0001 44.9755 23.9027 45.0014H21.1783L21.1795 45.0002ZM22.5164 29.9423C21.8474 30.6103 21.2194 31.222 20.6161 31.8571C20.5422 31.9346 20.5551 32.1506 20.6008 32.2762C20.8591 32.983 20.9271 33.7062 20.7781 34.4364C20.2792 36.8784 17.8519 38.2238 15.4973 37.3855C15.3705 37.3409 15.1534 37.3233 15.0771 37.3961C14.3 38.144 13.543 38.9129 12.7424 39.7124C16.0853 41.6038 19.6172 42.5207 23.4108 42.3399C26.5542 42.1908 29.4851 41.2985 32.2716 39.6937C30.8525 38.2848 29.4828 36.9265 28.0578 35.5118C28.3782 35.216 28.6928 34.953 28.9769 34.6595C29.5285 34.0901 29.5414 33.2918 29.0297 32.7681C28.5038 32.2304 27.6892 32.241 27.107 32.8092C26.816 33.0933 26.5495 33.4009 26.2596 33.712C24.9884 32.4324 23.7724 31.209 22.5153 29.9435L22.5164 29.9423Z" stroke="white" stroke-width="0.8" mask="url(#path-1-inside-1_2108_7235)"/>
<path d="M0 21.0949C0.103292 20.3435 0.187803 19.5886 0.31457 18.8408C0.894413 15.4209 2.25599 12.3274 4.23848 9.49446C4.4392 9.20801 4.63991 8.92037 4.81833 8.66444C6.95576 10.8023 9.08263 12.9296 11.287 15.1344C11.0428 15.3587 10.7459 15.6099 10.4712 15.887C9.87375 16.4892 9.84441 17.3017 10.3879 17.8394C10.929 18.3759 11.7377 18.3395 12.3422 17.7407C12.611 17.4754 12.8622 17.1913 13.0922 16.9459C14.9797 18.8361 16.8178 20.677 18.6946 22.5566C18.643 22.6117 18.5409 22.728 18.4317 22.836C17.3448 23.9243 16.2626 25.0161 15.1663 26.0939C14.9656 26.2911 14.9116 26.4425 15.0113 26.7325C15.5466 28.2998 15.259 29.7286 14.0805 30.8968C12.9138 32.052 11.4924 32.3197 9.94653 31.7914C9.65074 31.6904 9.50401 31.7573 9.31034 31.9534C7.849 33.4315 6.37709 34.9002 4.87349 36.4088C4.57536 35.9826 4.29013 35.5846 4.01547 35.1796C1.76887 31.8724 0.38617 28.2529 0.0751213 24.2471C0.0657311 24.1333 0.0258229 24.0206 0 23.9079C0 22.9698 0 22.0329 0 21.0949ZM5.28666 12.7512C3.40511 16.0572 2.49426 19.5628 2.65507 23.3232C2.79123 26.4989 3.68329 29.4609 5.30661 32.2751C6.71631 30.8592 8.07789 29.4915 9.49463 28.0686C9.78337 28.3808 10.0475 28.6955 10.3409 28.9796C10.9067 29.5314 11.706 29.5455 12.2319 29.0336C12.7741 28.5065 12.7647 27.6987 12.1943 27.1117C11.9114 26.8206 11.6027 26.5529 11.2823 26.2512C11.9455 25.5914 12.5582 24.9844 13.1697 24.3763C13.7895 23.7599 14.4104 23.1436 15.0536 22.5049C14.4385 21.8909 13.8493 21.3227 13.2859 20.731C13.0922 20.5279 12.9361 20.5091 12.6814 20.61C11.9842 20.8871 11.2541 20.9317 10.524 20.7744C8.1084 20.2555 6.77735 17.8288 7.61542 15.5042C7.6612 15.3775 7.68115 15.1591 7.60838 15.0828C6.85951 14.3056 6.08835 13.5483 5.28783 12.75L5.28666 12.7512Z" stroke="white" stroke-width="0.8" mask="url(#path-1-inside-1_2108_7235)"/>
<path d="M31.8655 28.0932C29.964 26.1913 28.1317 24.3587 26.2631 22.4873C26.3547 22.3898 26.4568 22.2748 26.5648 22.1656C27.6622 21.0667 28.7574 19.9667 29.8607 18.8748C30.0368 18.7011 30.0849 18.5661 29.9945 18.309C29.4487 16.7452 29.714 15.3129 30.8842 14.1342C32.0686 12.9402 33.5123 12.6713 35.0922 13.2231C35.3551 13.3147 35.4854 13.249 35.6556 13.0776C37.1299 11.5913 38.6123 10.1108 40.0936 8.62804C46.0106 16.0596 47.2008 27.0953 40.1793 36.309C38.0583 34.1875 35.9314 32.0602 33.7588 29.8871C33.9748 29.6711 34.2506 29.3987 34.5206 29.1205C35.1122 28.5123 35.1485 27.7011 34.6121 27.1634C34.0757 26.6269 33.2588 26.6609 32.6566 27.2561C32.3878 27.5226 32.1355 27.8056 31.8655 28.0909V28.0932ZM39.7051 32.2574C41.4317 29.2273 42.3438 26.0199 42.3555 22.5695C42.3672 19.0721 41.4552 15.8189 39.7039 12.7465C38.3013 14.1518 36.9374 15.5183 35.5124 16.9459C35.2295 16.6372 34.9748 16.3355 34.6955 16.0607C34.0863 15.462 33.2776 15.4397 32.7411 15.9915C32.2118 16.5362 32.2388 17.3181 32.8233 17.9133C33.1003 18.1951 33.3985 18.4545 33.7189 18.7527C32.443 20.0254 31.2129 21.2522 29.9546 22.5084C30.5955 23.1483 31.207 23.7728 31.842 24.3751C31.9207 24.4502 32.1343 24.4455 32.2576 24.3998C32.9782 24.1344 33.7154 24.0675 34.4607 24.2248C36.8763 24.7332 38.2144 27.1622 37.3858 29.4879C37.3376 29.623 37.3294 29.8566 37.4104 29.9423C38.1475 30.7136 38.9093 31.4626 39.7028 32.2574H39.7051Z" stroke="white" stroke-width="0.8" mask="url(#path-1-inside-1_2108_7235)"/>
<path d="M8.60843 4.88411C17.3507 -1.81952 28.2362 -1.42153 36.327 4.84654C34.2025 6.97268 32.0756 9.10352 29.8959 11.286C29.6353 11.016 29.363 10.7154 29.0719 10.4349C28.4897 9.87367 27.6693 9.86428 27.1493 10.3996C26.6411 10.9221 26.6587 11.7263 27.2045 12.2921C27.478 12.5763 27.7737 12.8392 28.0085 13.0635C26.1328 14.9384 24.2877 16.7851 22.3181 18.7539C22.3016 18.7211 22.2605 18.5438 22.1514 18.4322C21.0621 17.3275 19.9576 16.2368 18.8684 15.1321C18.6911 14.9525 18.5526 14.9184 18.3003 15.0053C16.7356 15.5465 15.306 15.2788 14.1287 14.1095C12.9502 12.939 12.6755 11.5091 13.2073 9.94294C13.2976 9.67644 13.2683 9.52969 13.0758 9.3395C11.5886 7.86728 10.1109 6.3845 8.6096 4.88411H8.60843ZM16.9398 9.43107C16.6077 9.75627 16.3318 10.0169 16.0666 10.2881C15.4656 10.9021 15.4292 11.7004 15.9738 12.2428C16.5185 12.7864 17.3166 12.7524 17.9305 12.1536C18.2087 11.8824 18.4751 11.5983 18.812 11.252C20.0832 12.5258 21.3086 13.755 22.5622 15.0112C23.1479 14.4148 23.7512 13.8172 24.3287 13.1973C24.4156 13.1034 24.4461 12.8792 24.3992 12.7535C24.1398 12.0468 24.067 11.3236 24.209 10.5933C24.682 8.15491 27.1223 6.78014 29.4698 7.60548C29.6025 7.65244 29.8243 7.69353 29.8959 7.62426C30.6812 6.86819 31.4441 6.08982 32.2212 5.31028C26.2502 1.7037 18.5221 1.81641 12.8058 5.29971C14.1686 6.66157 15.5325 8.02343 16.9398 9.43107Z" stroke="white" stroke-width="0.8" mask="url(#path-1-inside-1_2108_7235)"/>
</g>
<defs>
<clipPath id="clip0_2108_7235">
<rect width="45" height="45" fill="white"/>
</clipPath>
</defs>
</svg>
