<svg width="44" height="44" viewBox="0 0 44 44" fill="none" xmlns="http://www.w3.org/2000/svg">
<g clip-path="url(#clip0_2108_7646)">
<path d="M27.0797 6.78057C26.0784 6.78057 24.9925 6.78057 23.8925 6.78057C21.3682 6.78057 18.8579 6.78057 16.3335 6.78057C14.7823 6.78057 13.5694 7.55596 13.0194 8.86708C12.4694 10.1923 12.7797 11.5739 13.8938 12.6876C19.704 18.496 25.5143 24.3044 31.3105 30.1128C33.2848 32.1007 33.4964 34.9767 31.804 37.0491C30.7746 38.3179 29.4066 38.9241 27.7848 38.9241C23.2156 38.9241 18.6605 38.9241 14.0912 38.91C13.6823 38.91 13.4848 39.0651 13.231 39.3612C12.2015 40.63 11.1861 41.927 10.0297 43.083C8.80276 44.3237 8.15405 44.3096 6.89892 43.083C3.37328 39.6854 0.933533 35.6534 0.157892 30.7472C-0.378005 27.406 0.411739 24.4454 3.11943 22.2461C5.64379 20.1878 8.53482 19.7226 11.5528 20.9068C14.5707 22.091 16.3758 24.389 16.8412 27.6175C17.1797 30 16.6579 32.2839 15.8258 34.4973C15.4874 35.3996 15.0502 36.2596 14.6412 37.19C14.7681 37.2041 14.8951 37.2182 15.022 37.2182C19.2669 37.2182 23.5117 37.2182 27.7707 37.2182C29.2797 37.2182 30.3797 36.5274 30.9861 35.1599C31.5643 33.8629 31.254 32.439 30.1964 31.3676C24.3579 25.5451 18.5194 19.7085 12.6951 13.8719C10.3823 11.5598 10.5797 7.993 13.104 6.08976C14.0348 5.38486 15.0925 5.0606 16.263 5.0747C19.9156 5.0747 23.554 5.0747 27.2066 5.0747C27.404 5.0747 27.5874 5.0747 27.7848 5.0747C28.6451 3.19966 29.9707 1.78986 31.8182 0.873484C37.3323 -1.87563 43.9464 2.15641 44.0028 8.31725C44.031 11.87 42.8181 15.042 40.9848 18.0167C39.913 19.7508 38.6861 21.3579 37.1771 22.7255C35.8233 23.9661 35.2169 23.9943 33.9053 22.7114C30.4502 19.3419 28.0246 15.3804 27.263 10.5588C27.0797 9.34641 27.1361 8.09168 27.0797 6.78057ZM35.4707 21.9924C37.3746 20.3429 38.7707 18.5101 39.9271 16.5082C41.3797 13.9988 42.3105 11.3342 42.3105 8.40184C42.3105 5.68092 40.5899 3.18556 38.0656 2.1846C35.4425 1.15545 32.5374 1.78986 30.6335 3.80588C28.8425 5.70911 28.5182 7.9789 28.9271 10.4461C29.463 13.7309 30.9438 16.5787 32.9605 19.1727C33.7361 20.1455 34.6105 21.0337 35.4707 21.9924ZM8.39379 42.2935C8.76046 41.9693 9.02841 41.7437 9.28225 41.49C10.6925 40.0942 11.8771 38.5153 12.8643 36.7953C14.3169 34.2577 15.3181 31.5508 15.2194 28.5761C15.1348 25.7706 13.7387 23.6982 11.172 22.5704C8.60533 21.4425 6.15148 21.8373 4.022 23.67C1.8361 25.5592 1.41302 28.0404 1.8643 30.7613C2.4002 34.0462 3.88097 36.894 5.89764 39.4739C6.65917 40.4467 7.54764 41.3349 8.39379 42.2935Z" fill="#014898"/>
<path d="M35.5565 11.855C33.6808 11.855 32.1719 10.3325 32.1719 8.45742C32.186 6.61058 33.695 5.10208 35.5283 5.08799C37.418 5.07389 38.9552 6.61058 38.9411 8.51381C38.927 10.3466 37.3898 11.855 35.5565 11.855ZM37.2488 8.48562C37.2488 7.55515 36.5155 6.79385 35.5847 6.77975C34.6398 6.76565 33.8642 7.54105 33.8642 8.48562C33.8642 9.40199 34.6257 10.1633 35.5565 10.1633C36.4732 10.1633 37.2347 9.38789 37.2488 8.48562Z" fill="#014898"/>
<path d="M8.45026 32.1577C6.58872 32.1436 5.07975 30.6069 5.09385 28.7459C5.10795 26.885 6.64513 25.3765 8.52077 25.4047C10.3823 25.4329 11.8772 26.9696 11.8631 28.8446C11.8349 30.6633 10.2977 32.1577 8.45026 32.1577ZM8.47846 27.0824C7.5618 27.0824 6.80026 27.8436 6.78616 28.76C6.77205 29.7046 7.5618 30.48 8.50667 30.4659C9.42334 30.4518 10.1849 29.6764 10.1708 28.76C10.1567 27.8296 9.39513 27.0824 8.47846 27.0824Z" fill="#014898"/>
</g>
<defs>
<clipPath id="clip0_2108_7646">
<rect width="44" height="44" fill="white"/>
</clipPath>
</defs>
</svg>
