<svg width="45" height="45" viewBox="0 0 45 45" fill="none" xmlns="http://www.w3.org/2000/svg">
<g clip-path="url(#clip0_2108_7668)">
<path d="M0 30.4102C0.0351562 30.3516 0.0703125 30.2812 0.09375 30.2227C0.445312 29.1914 1.24219 28.5586 2.34375 28.6055C3.75 28.6523 4.98047 28.2422 6.14062 27.4805C7.47656 26.6133 8.85938 25.8164 10.2188 24.9727C11.3086 24.293 12.5039 23.9531 13.7812 23.8945C14.625 23.8594 15.4687 23.7891 16.2773 23.7305C15.8672 22.7695 15.4688 21.832 15.082 20.8945C14.9531 20.5898 14.8594 20.2617 14.8008 19.9336C14.7539 19.6172 14.6016 19.4531 14.2969 19.3711C13.9336 19.2773 13.5703 19.1484 13.2188 19.0078C12.4922 18.7031 12.0703 18.1523 12.0234 17.3672C11.9883 16.793 11.9883 16.2305 12.0234 15.6563C12.0586 14.8594 12.4922 14.3203 13.1953 14.0039C13.2188 13.9922 13.2539 13.9805 13.2773 13.9805C14.4023 13.8516 14.8359 13.1484 15.1172 12.0938C15.3867 11.0859 15.9609 10.1484 16.418 9.1875C16.5352 8.95312 16.5703 8.77734 16.4414 8.55469C16.2656 8.25 16.125 7.93359 15.9727 7.61719C15.5859 6.78516 15.7031 6.01172 16.3359 5.35547C16.6641 5.01562 16.9922 4.6875 17.332 4.35938C17.9883 3.73828 18.7969 3.52734 19.5469 4.00781C20.4727 4.58203 21.1875 4.5 22.1133 3.96094C23.0273 3.42188 24.1172 3.17578 25.1367 2.82422C25.3711 2.74219 25.5586 2.67188 25.6055 2.39062C25.6406 2.19141 25.7461 2.00391 25.793 1.80469C26.0039 0.878906 26.5195 0.257812 27.4219 0C28.1602 0 28.8867 0 29.625 0C30.5156 0.292969 31.0195 0.914062 31.2188 1.80469C31.2539 1.98047 31.3477 2.13281 31.3828 2.30859C31.4414 2.60156 31.6172 2.71875 31.8984 2.8125C32.8828 3.14062 33.8555 3.49219 34.8164 3.87891C35.2734 4.06641 35.6836 4.52344 36.1289 4.53516C36.5859 4.54688 37.043 4.14844 37.5117 3.94922C38.2734 3.63281 38.9766 3.73828 39.5859 4.27734C39.9844 4.64062 40.3711 5.02734 40.7344 5.42578C41.2852 6.03516 41.3906 6.75 41.0625 7.5C40.9102 7.86328 40.6875 8.20312 40.5586 8.56641C40.5 8.74219 40.5 9 40.582 9.15234C41.2734 10.3125 41.8359 11.543 42.1289 12.8555C42.2461 13.3828 42.5039 13.6172 42.9844 13.7227C43.9336 13.9336 44.6836 14.3906 45 15.3867C45 16.125 45 16.8516 45 17.5898C44.7305 18.5156 44.0859 19.0195 43.1836 19.2422C42.9961 19.2891 42.8203 19.3828 42.6445 19.4062C42.3633 19.4531 42.293 19.6406 42.2109 19.875C41.8594 20.8945 41.6016 21.9844 41.0625 22.8984C40.5117 23.8242 40.4531 24.5508 41.0156 25.4648C41.4727 26.2031 41.2734 27 40.6875 27.6445C40.3477 28.0078 39.9961 28.3594 39.6328 28.6992C38.9883 29.2969 38.25 29.4141 37.4414 29.0508C37.0898 28.8984 36.7734 28.6875 36.4102 28.5586C36.2461 28.5 36.0117 28.5 35.8711 28.582C34.6055 29.332 33.2578 29.8828 31.8281 30.2461C31.6641 30.2812 31.4883 30.457 31.418 30.6094C31.2539 30.9727 31.1719 31.3594 31.0312 31.7227C30.7266 32.4844 30.1641 32.9297 29.3438 32.9766C28.793 33.0117 28.2305 33 27.6797 32.9766C26.8477 32.9297 26.2852 32.4961 25.9805 31.7344C25.8398 31.3945 25.7227 31.043 25.6289 30.6914C25.5469 30.4102 25.4062 30.2813 25.1133 30.1992C24.3867 29.9883 23.6719 29.707 22.957 29.4844C22.6758 29.4023 22.3594 29.332 22.0781 29.3789C21.0938 29.5195 20.1211 29.7188 19.1367 29.8828C18.7734 29.9414 18.6094 30.1172 18.5508 30.4805C18.4688 31.0195 18.3398 31.5469 18.2344 32.0742C18.1289 32.5898 18.1992 32.707 18.7031 32.8945C20.7305 33.6445 22.7695 34.3828 24.7852 35.168C25.3242 35.3789 25.793 35.3672 26.3438 35.1797C31.2539 33.5391 36.1641 31.9219 41.0742 30.3047C42.7266 29.7656 44.3906 30.6328 44.9062 32.2969C44.9414 32.4023 44.9883 32.5078 45.0234 32.6133C45.0234 32.9648 45.0234 33.3164 45.0234 33.668C44.707 34.8984 43.8516 35.6016 42.7617 36.1758C39.1289 38.0977 35.543 40.1133 31.9102 42.0234C29.8242 43.1133 27.9023 44.5781 25.5117 45.0117C25.0195 45.0117 24.5156 45.0117 24.0117 45.0117C23.6836 44.9297 23.3672 44.8594 23.0391 44.7773C16.125 43.0664 9.21094 41.3438 2.29688 39.668C1.16016 39.3867 0.339844 38.8828 0.0234375 37.7109C0 35.2734 0 32.8477 0 30.4102ZM1.5 34.0898C1.5 35.0391 1.5 35.9883 1.5 36.9492C1.5 37.8047 1.62891 37.9453 2.44922 38.1562C9.375 39.8672 16.3008 41.5664 23.2266 43.2891C24.6914 43.6523 26.0508 43.5 27.375 42.7852C30.6797 40.9805 33.9844 39.1992 37.2891 37.4062C39.0586 36.4453 40.8398 35.4844 42.6094 34.5234C43.2891 34.1484 43.6055 33.5156 43.4648 32.8594C43.2656 31.8867 42.3984 31.4297 41.3672 31.7813C36.3867 33.4336 31.4062 35.0742 26.4258 36.7266C25.8633 36.9141 25.3242 36.9727 24.7617 36.7617C22.5117 35.918 20.2617 35.0977 18.0234 34.2656C16.9922 33.8789 16.5234 33 16.7344 31.9219C16.8398 31.3945 16.9453 30.8672 17.0508 30.3281C17.2852 29.0977 17.7891 28.6172 19.043 28.4062C20.8359 28.1016 22.6172 27.7734 24.3984 27.457C24.8672 27.375 25.1953 27.1055 25.3828 26.6719C25.793 25.7461 25.0781 24.7031 23.9883 24.7734C20.4961 25.0195 17.0039 25.2188 13.5117 25.4297C12.6328 25.4883 11.8242 25.7578 11.0742 26.2148C9.64453 27.082 8.20312 27.9258 6.79688 28.8281C5.46094 29.6836 4.04297 30.1523 2.44922 30.0937C1.76953 30.0703 1.5 30.3633 1.5 31.0547C1.5 32.0625 1.5 33.082 1.5 34.0898ZM27.0469 26.1328C27.5039 26.168 27.9844 26.2383 28.4648 26.25C33.4922 26.2969 37.8164 22.3359 38.2148 17.3203C38.707 11.1211 33.3984 6.01172 27.2461 6.85547C23.3906 7.38281 20.6836 9.55078 19.3477 13.1836C18.0117 16.8398 18.7852 20.1797 21.3398 23.1094C21.5391 23.332 21.7383 23.4023 22.0312 23.3789C22.6992 23.3203 23.3789 23.2852 24.0469 23.2617C25.3359 23.2148 26.4727 24.0117 26.8594 25.2305C26.9414 25.5 26.9766 25.793 27.0469 26.1328ZM19.6406 23.5312C19.6406 23.4609 19.6406 23.4492 19.6406 23.4375C19.5586 23.3203 19.4766 23.1914 19.3945 23.0742C17.6953 20.6836 16.9688 18.0234 17.332 15.1055C18.1406 8.67187 24.1055 4.26562 30.5039 5.44922C34.6992 6.22266 37.6172 8.70703 39.0586 12.7031C40.5 16.7344 39.8086 20.5312 37.0078 23.8008C34.3711 26.8711 30.9492 28.1367 26.9062 27.6211C26.7773 27.6094 26.5898 27.6211 26.5195 27.7031C26.2031 28.0898 25.9219 28.5 25.6406 28.9102C25.5703 28.8516 25.5 28.793 25.4297 28.7344C25.582 28.7695 25.7344 28.8281 25.8867 28.8398C26.4375 28.8984 26.7539 29.1914 26.8828 29.7305C27 30.1875 27.1875 30.6211 27.3164 31.0664C27.4102 31.3594 27.5859 31.5 27.8906 31.5C28.2891 31.4883 28.6875 31.4883 29.0742 31.5C29.4023 31.5117 29.5898 31.3594 29.6836 31.0547C29.8359 30.5859 30 30.1172 30.1406 29.6367C30.2695 29.2148 30.5039 28.9805 30.9492 28.8867C32.6016 28.5703 34.1367 27.9375 35.543 26.9883C35.8711 26.7656 36.1875 26.7422 36.5273 26.9297C36.9844 27.1641 37.4531 27.375 37.8984 27.6211C38.2148 27.7969 38.4727 27.7734 38.7188 27.5039C38.9648 27.2344 39.2227 26.9766 39.4922 26.7305C39.7266 26.5078 39.7734 26.2734 39.6211 25.9805C39.375 25.5 39.1406 25.0078 38.8945 24.5273C38.7305 24.2109 38.7422 23.918 38.9414 23.6133C39.9141 22.1719 40.5703 20.6133 40.8867 18.9023C40.957 18.5391 41.1562 18.3047 41.5195 18.1992C42.0234 18.0469 42.5156 17.8594 43.0195 17.707C43.3477 17.6016 43.5117 17.4258 43.4883 17.0742C43.4766 16.6992 43.4766 16.3125 43.4883 15.9375C43.5 15.6328 43.3594 15.4453 43.0781 15.3516C42.5625 15.1875 42.0469 15.0117 41.5312 14.8477C41.1562 14.7305 40.9453 14.4844 40.875 14.1094C40.5586 12.4336 39.9141 10.8867 38.9648 9.48047C38.7422 9.15234 38.7188 8.84766 38.9062 8.49609C39.1523 8.03906 39.3516 7.57031 39.5977 7.125C39.7617 6.80859 39.75 6.55078 39.4805 6.30469C39.2227 6.07031 38.9648 5.82422 38.7305 5.55469C38.4844 5.28516 38.2383 5.23828 37.9102 5.41406C37.4766 5.64844 37.0195 5.85938 36.5742 6.09375C36.1992 6.29297 35.8711 6.28125 35.5078 6.03516C34.1016 5.09766 32.5781 4.45312 30.9141 4.14844C30.5156 4.07812 30.2695 3.84375 30.1523 3.45703C30 2.95312 29.8242 2.46094 29.6602 1.95703C29.5664 1.67578 29.3906 1.52344 29.0859 1.52344C28.6875 1.53516 28.3008 1.53516 27.9023 1.52344C27.5977 1.51172 27.4102 1.64062 27.3164 1.94531C27.1523 2.44922 26.9648 2.94141 26.8242 3.44531C26.707 3.86719 26.4375 4.07812 26.0273 4.16016C24.375 4.44141 22.8516 5.07422 21.4453 6.02344C21.1172 6.24609 20.8125 6.26953 20.4609 6.08203C19.9922 5.83594 19.5117 5.61328 19.0547 5.37891C18.7734 5.22656 18.5273 5.25 18.3047 5.48438C18.0469 5.76562 17.7773 6.03516 17.4961 6.29297C17.2617 6.51562 17.2148 6.75 17.3672 7.04297C17.6133 7.52344 17.8477 8.01562 18.0938 8.49609C18.2578 8.8125 18.2461 9.11719 18.0469 9.41016C17.0742 10.8398 16.4297 12.4219 16.1016 14.1211C16.0312 14.4961 15.8203 14.7188 15.4688 14.8242C14.9766 14.9766 14.4961 15.1641 14.0039 15.3047C13.6289 15.4102 13.4766 15.6211 13.5 16.0078C13.5234 16.3594 13.5117 16.7109 13.5 17.0625C13.4883 17.4023 13.6172 17.6133 13.957 17.707C14.3906 17.8242 14.8125 18.0117 15.2461 18.1289C15.7734 18.2695 16.0547 18.5742 16.1484 19.125C16.3945 20.4961 16.9336 21.75 17.6016 22.957C17.8828 23.4727 18.1875 23.7773 18.8203 23.6133C19.0898 23.5195 19.3594 23.543 19.6406 23.5312Z" fill="#014898"/>
<path d="M23.4371 17.8119C23.7653 19.0189 24.3981 19.9447 25.3239 20.6595C27.5153 22.3353 30.5856 22.0423 32.4254 19.9798C32.5074 19.8861 32.5895 19.7806 32.6949 19.6869C32.9879 19.4408 33.3746 19.4291 33.6559 19.6634C33.9489 19.9095 34.0192 20.308 33.7965 20.6478C33.7028 20.7884 33.5856 20.9291 33.4567 21.058C31.5699 23.0033 29.2848 23.6947 26.6832 22.9681C24.0817 22.2416 22.4996 20.4486 21.8785 17.8236C21.8668 17.7533 21.8434 17.683 21.8317 17.6127C21.8317 17.6009 21.8082 17.6009 21.7614 17.5775C21.6559 17.6595 21.5387 17.765 21.4098 17.8588C21.0934 18.0697 20.7067 18.0345 20.4489 17.765C20.191 17.5072 20.1442 17.0736 20.402 16.8041C20.9293 16.2416 21.4801 15.6908 22.0426 15.1634C22.3239 14.9056 22.7223 14.9525 23.0387 15.2572C23.4957 15.6908 23.941 16.1361 24.3746 16.5931C24.7614 16.9798 24.8317 17.3431 24.5973 17.683C24.3864 17.9994 24.0348 18.058 23.4371 17.8119Z" fill="#014898"/>
<path d="M33.5523 15.1766C32.5679 11.3212 27.7281 9.9618 24.8804 12.704C24.7632 12.8212 24.6577 12.9266 24.5406 13.0556C24.0952 13.5477 23.6617 13.6415 23.2984 13.3134C22.9468 12.997 22.9702 12.5516 23.4038 12.0829C25.2554 10.079 27.5288 9.31727 30.1656 9.99696C32.7788 10.6766 34.396 12.4345 35.064 15.0477C35.0992 15.1884 35.1343 15.3173 35.1695 15.4931C35.3101 15.3641 35.4156 15.2704 35.521 15.1766C35.8374 14.9423 36.2593 14.9774 36.5171 15.247C36.7749 15.5165 36.8218 15.9266 36.5523 16.2079C36.0249 16.7704 35.4742 17.3329 34.8999 17.8485C34.5835 18.1298 34.2202 18.0595 33.9156 17.7665C33.4702 17.3329 33.0484 16.8993 32.6148 16.4657C32.1929 16.0438 32.1226 15.704 32.357 15.3524C32.6265 14.9891 32.9663 14.9306 33.5523 15.1766Z" fill="#014898"/>
</g>
<defs>
<clipPath id="clip0_2108_7668">
<rect width="45" height="45" fill="white"/>
</clipPath>
</defs>
</svg>
