<svg width="50" height="50" viewBox="0 0 50 50" fill="none" xmlns="http://www.w3.org/2000/svg">
<g clip-path="url(#clip0_4203_9372)">
<mask id="mask0_4203_9372" style="mask-type:luminance" maskUnits="userSpaceOnUse" x="0" y="0" width="50" height="50">
<path d="M50 0H0V50H50V0Z" fill="white"/>
</mask>
<g mask="url(#mask0_4203_9372)">
<path d="M-0.000238228 17.5817C0.42403 16.2622 1.3875 15.6788 2.71165 15.5065C3.59565 15.3903 4.46864 15.1787 5.33795 14.9721C5.51646 14.9292 5.7182 14.7507 5.80012 14.5832C6.04955 14.0745 6.26719 13.5462 6.44936 13.0093C6.5105 12.8296 6.4995 12.5568 6.40167 12.4028C5.85636 11.5358 5.27437 10.692 4.70705 9.83963C3.79616 8.47121 3.90254 7.36572 5.05185 6.21255C5.48834 5.77476 5.91995 5.33207 6.365 4.90284C7.32725 3.97222 8.48267 3.84871 9.60997 4.57266C10.5404 5.17065 11.444 5.809 12.3805 6.39599C12.5456 6.49992 12.8293 6.49993 13.0298 6.4449C13.3551 6.35685 13.6461 6.11472 13.9712 6.05969C14.7892 5.92027 15.0411 5.40177 15.1389 4.65582C15.2514 3.80347 15.4556 2.96335 15.6279 2.11956C15.8969 0.798848 16.8336 0.0223176 18.1687 0.00642013C18.8681 -0.00214004 19.5687 -0.00214004 20.2681 0.00642013C21.5408 0.0223176 22.4786 0.759716 22.7549 1.99605C23.0032 3.10642 23.1963 4.22781 23.4469 5.33696C23.4873 5.51551 23.6683 5.7185 23.8382 5.80289C24.3322 6.04746 24.8616 6.21744 25.3581 6.45467C25.6258 6.58186 25.8202 6.57207 26.0659 6.40087C26.9341 5.79921 27.8168 5.21712 28.6996 4.63625C29.9321 3.82549 31.0862 3.94287 32.1389 4.98111C32.6023 5.43846 33.0682 5.89337 33.5182 6.36296C34.4583 7.34127 34.5708 8.51035 33.8287 9.65252C33.2442 10.5526 32.6488 11.4465 32.0387 12.3282C31.8614 12.5838 31.8223 12.7856 31.9727 13.0766C32.1952 13.5071 32.3933 13.9595 32.5302 14.4242C32.6501 14.8302 32.8884 14.9733 33.2784 15.0406C34.2872 15.2166 35.2886 15.427 36.2923 15.6312C37.6018 15.8978 38.3623 16.7807 38.4052 18.1161C38.4296 18.8633 38.4321 19.6141 38.4027 20.3613C38.3526 21.6318 37.6312 22.4928 36.3853 22.7692C35.3069 23.0088 34.2236 23.2315 33.1354 23.4222C32.8066 23.4797 32.6733 23.6301 32.5742 23.9211C32.4226 24.3662 32.2392 24.8016 32.0412 25.2283C31.8124 25.7237 31.3931 25.901 30.9774 25.7115C30.5568 25.5195 30.4149 25.1061 30.6044 24.5962C30.8246 24.0031 31.0752 23.4197 31.2684 22.8181C31.4201 22.3461 31.7012 22.0892 32.1867 21.9987C33.3848 21.775 34.5782 21.5267 35.7739 21.2932C36.6311 21.1256 36.8267 20.8945 36.8292 20.0091C36.8303 19.4075 36.8364 18.8046 36.8267 18.203C36.8169 17.594 36.5894 17.3115 35.9903 17.1867C34.7176 16.9213 33.4448 16.6608 32.1671 16.42C31.7208 16.3356 31.4567 16.1155 31.2941 15.685C30.9737 14.8351 30.6266 13.995 30.2499 13.1696C30.0579 12.7501 30.0861 12.4077 30.3428 12.0335C31.0496 11.0001 31.7379 9.95335 32.4287 8.91023C32.8701 8.24376 32.8396 7.92091 32.2893 7.3645C31.8663 6.9365 31.4421 6.50971 31.0104 6.08904C30.5054 5.59621 30.1704 5.55952 29.5823 5.94719C28.5236 6.64423 27.4622 7.34005 26.4181 8.06032C26.0084 8.34281 25.6429 8.35504 25.1942 8.1447C24.4166 7.78151 23.6218 7.44399 22.8136 7.15784C22.3209 6.98296 22.0739 6.68947 21.9822 6.19176C21.7609 4.99334 21.5139 3.7998 21.2804 2.60382C21.1263 1.81629 20.8512 1.58149 20.0564 1.57782C19.4378 1.57537 18.8192 1.56682 18.2017 1.58027C17.6013 1.59372 17.3043 1.83585 17.1808 2.42284C16.9154 3.69586 16.6526 4.96887 16.4153 6.24679C16.3273 6.71882 16.0816 6.97685 15.6389 7.14194C14.8186 7.44889 14.0054 7.77906 13.2119 8.14715C12.7608 8.35749 12.3952 8.33303 11.9868 8.05299C10.9561 7.3425 9.90831 6.65524 8.86415 5.96552C8.24302 5.55586 7.91901 5.58644 7.39816 6.09637C6.96777 6.51705 6.54229 6.94384 6.11924 7.37184C5.5776 7.92091 5.54214 8.23886 5.96151 8.87354C6.65232 9.91789 7.33825 10.9659 8.04862 11.9968C8.32984 12.4052 8.34817 12.7708 8.13787 13.2221C7.76862 14.0158 7.43851 14.829 7.13284 15.6483C6.96655 16.0935 6.70367 16.3331 6.23295 16.42C4.97115 16.6547 3.71425 16.9165 2.45734 17.1782C1.81054 17.3127 1.57946 17.6001 1.56967 18.2605C1.56111 18.8792 1.56356 19.4967 1.56967 20.1155C1.57579 20.8297 1.81054 21.1243 2.50502 21.265C3.69957 21.5083 4.89167 21.7615 6.09235 21.9682C6.67556 22.0685 6.99467 22.3473 7.18664 22.9147C7.45685 23.7108 7.80654 24.4837 8.15744 25.2492C8.34817 25.6637 8.33106 26.0111 8.0743 26.3877C7.35904 27.4345 6.65966 28.4935 5.95907 29.5513C5.54091 30.1835 5.5776 30.5088 6.1168 31.0555C6.53984 31.4847 6.96411 31.9115 7.39326 32.3333C7.89334 32.8237 8.24425 32.8641 8.82257 32.4837C9.88141 31.7867 10.9415 31.0897 11.9868 30.3693C12.394 30.0881 12.7621 30.0673 13.2119 30.2765C14.0054 30.6446 14.8186 30.9747 15.6378 31.2828C16.0792 31.4492 16.3261 31.706 16.4142 32.1792C16.6477 33.4412 16.9093 34.6983 17.1709 35.9543C17.3079 36.611 17.5769 36.825 18.2506 36.8311C18.8852 36.8372 19.5197 36.8372 20.1543 36.8311C20.8427 36.825 21.1227 36.5963 21.2608 35.9163C21.5029 34.7216 21.7572 33.5293 21.9614 32.3285C22.0617 31.7427 22.3319 31.404 22.9102 31.2413C23.4556 31.0885 23.9752 30.8487 24.5071 30.6495C25.0487 30.4452 25.4926 30.5871 25.6649 31.0175C25.8397 31.4541 25.6343 31.8613 25.1111 32.1047C24.9044 32.2012 24.7014 32.3321 24.4826 32.3663C23.6292 32.4985 23.3577 33.0402 23.2636 33.8338C23.1608 34.7021 22.9493 35.5593 22.7549 36.4153C22.4798 37.6308 21.6227 38.3523 20.3756 38.405C19.6127 38.4367 18.8461 38.4355 18.0819 38.4086C16.7736 38.3621 15.8896 37.6003 15.6256 36.3212C15.4018 35.239 15.2037 34.1517 14.9604 33.0745C14.9213 32.8996 14.7329 32.7038 14.5642 32.6207C14.0556 32.3712 13.5287 32.15 12.9931 31.9652C12.8158 31.9041 12.5456 31.9237 12.3903 32.0215C11.4831 32.5938 10.6003 33.2052 9.70412 33.796C8.49734 34.5907 7.32846 34.4782 6.3002 33.4718C5.83559 33.017 5.37341 32.5571 4.9198 32.0912C3.95022 31.0946 3.8304 29.9291 4.58845 28.7662C5.18267 27.854 5.78912 26.9477 6.40657 26.0502C6.56551 25.8191 6.57285 25.6368 6.45425 25.385C6.21827 24.8872 6.05077 24.3565 5.80257 23.8648C5.71209 23.6838 5.49446 23.4943 5.3025 23.4491C4.32191 23.2216 3.33399 23.015 2.34119 22.8511C1.1234 22.6493 0.351892 21.9731 -0.00390625 20.8028V17.5805L-0.000238228 17.5817Z" fill="#014898"/>
<path d="M35.9342 50C34.9757 49.6551 34.5086 48.941 34.3863 47.9577C34.3485 47.6521 34.2127 47.35 34.2201 47.0491C34.2421 46.176 33.621 45.9584 32.9742 45.7676C32.8641 45.7346 32.6978 45.8019 32.5878 45.8715C32.0522 46.2115 31.5326 46.5759 30.9996 46.9184C30.0837 47.5065 29.2083 47.4185 28.4307 46.6652C28.1152 46.3595 27.8022 46.0512 27.4991 45.7321C26.8095 45.0057 26.7153 44.124 27.2472 43.279C27.5846 42.7422 27.938 42.2151 28.3023 41.6966C28.4576 41.4765 28.4601 41.2955 28.3842 41.0326C28.1923 40.3636 27.817 40.0127 27.0992 39.9662C26.6016 39.9332 26.1065 39.7962 25.621 39.6666C24.775 39.4404 24.2431 38.7592 24.2186 37.8897C24.2027 37.353 24.2002 36.8149 24.2211 36.2792C24.2565 35.3816 24.9277 34.6357 25.8045 34.4877C26.2922 34.4057 26.6835 34.6259 26.8033 35.0502C26.9158 35.4477 26.708 35.8561 26.2458 35.9906C25.8692 36.0995 25.7715 36.3086 25.78 36.6656C25.8216 38.3765 25.5171 38.0329 27.2032 38.39C27.68 38.4915 28.1581 38.588 28.6373 38.6774C29.0225 38.7495 29.2707 38.9549 29.4101 39.3327C29.6131 39.8794 29.838 40.4199 30.0801 40.9506C30.2525 41.331 30.2232 41.6636 29.9885 42.0047C29.5372 42.6615 29.1093 43.3341 28.657 43.9895C28.4698 44.261 28.4563 44.4824 28.7095 44.7171C28.9833 44.9715 29.2475 45.2381 29.5042 45.5107C29.7231 45.7444 29.9346 45.7444 30.1926 45.5682C30.8503 45.1182 31.5241 44.6915 32.177 44.2354C32.5523 43.9724 32.9106 43.9601 33.3202 44.1521C33.8031 44.3796 34.2983 44.5887 34.8033 44.766C35.2337 44.9165 35.4696 45.183 35.5491 45.6319C35.6861 46.3999 35.8682 47.1592 35.9991 47.9272C36.0651 48.3136 36.262 48.4396 36.6312 48.431C38.3833 48.3931 38.0287 48.6854 38.3882 46.9856C38.486 46.5246 38.585 46.0635 38.6682 45.6001C38.7403 45.1941 38.9445 44.9349 39.3443 44.7905C39.8933 44.5924 40.4312 44.3612 40.9631 44.1216C41.3251 43.9577 41.6478 43.9797 41.9742 44.2011C42.6467 44.6572 43.3315 45.0962 44.0002 45.5597C44.2802 45.7529 44.493 45.7297 44.7253 45.4864C46.0165 44.1339 45.9455 44.6634 45.009 43.1946C44.7473 42.7837 44.4722 42.3802 44.1971 41.9766C43.9746 41.6514 43.9562 41.3274 44.1201 40.9641C44.361 40.4321 44.5908 39.8941 44.7888 39.345C44.9331 38.9451 45.1936 38.7446 45.5982 38.6687C46.3808 38.522 47.1572 38.3422 47.941 38.2052C48.3041 38.1417 48.4435 37.9607 48.4263 37.6097C48.4141 37.3505 48.4238 37.0887 48.4238 36.8284C48.4238 36.1105 48.4043 36.0897 47.6853 35.9491C46.9995 35.8157 46.316 35.6679 45.6276 35.5492C45.1777 35.4721 44.9123 35.2337 44.7607 34.8032C44.5773 34.2835 44.3597 33.7747 44.1298 33.2746C43.9562 32.898 43.9685 32.5641 44.2045 32.2192C44.6543 31.5614 45.0798 30.8864 45.536 30.2345C45.7413 29.941 45.734 29.7209 45.4723 29.4702C44.1372 28.1985 44.6568 28.2632 43.175 29.2061C42.7776 29.4592 42.3838 29.7197 41.9975 29.9912C41.6588 30.2296 41.3238 30.2565 40.9436 30.0829C40.413 29.8407 39.8725 29.6145 39.3247 29.4127C38.9457 29.2734 38.7452 29.0239 38.6706 28.6399C38.5153 27.8426 38.3405 27.0489 38.1962 26.2491C38.1351 25.9129 37.9688 25.7771 37.6338 25.7845C35.8058 25.8249 36.1763 25.5056 35.8181 27.2116C35.7178 27.6885 35.625 28.1679 35.5308 28.646C35.455 29.0275 35.2496 29.277 34.8706 29.4152C34.3228 29.6145 33.7823 29.842 33.2517 30.0841C32.8702 30.259 32.5388 30.2224 32.1977 29.9887C31.5535 29.5472 30.8907 29.134 30.2525 28.6851C29.9456 28.4699 29.7157 28.4662 29.448 28.7475C28.2033 30.0547 28.2607 29.5607 29.1887 31.0074C29.4516 31.4182 29.7231 31.8242 29.9995 32.2266C30.222 32.5506 30.2525 32.8722 30.0875 33.2367C29.8466 33.7686 29.6326 34.3129 29.4113 34.8534C29.1887 35.4 28.8135 35.6189 28.3635 35.4575C27.9208 35.2985 27.7558 34.879 27.9282 34.3275C28.015 34.0487 28.0761 33.7466 28.2277 33.5057C28.5383 33.0154 28.4368 32.6252 28.0945 32.1997C27.7692 31.7961 27.4991 31.3461 27.2263 30.9035C26.7276 30.0927 26.8095 29.2245 27.4538 28.5261C27.7961 28.1556 28.1532 27.7986 28.5236 27.4561C29.2181 26.8154 30.0936 26.7334 30.9017 27.2349C31.4262 27.5601 31.9496 27.894 32.4436 28.262C32.7308 28.476 32.9595 28.4491 33.2823 28.3415C33.8521 28.152 34.1736 27.8585 34.2055 27.2214C34.2286 26.7566 34.3753 26.2969 34.4743 25.8359C34.6921 24.816 35.3987 24.2314 36.4356 24.2155C36.8916 24.2094 37.3465 24.207 37.8025 24.2155C38.7843 24.2351 39.4947 24.8099 39.7111 25.7784C39.8432 26.3654 39.9593 26.956 40.0535 27.5491C40.1072 27.889 40.2846 28.0492 40.5866 28.2106C41.1477 28.5115 41.5928 28.4626 42.0733 28.0529C42.4413 27.7386 42.873 27.4952 43.2875 27.2385C44.1103 26.7285 45.0003 26.8166 45.7035 27.4794C46.0702 27.8255 46.4285 28.1814 46.7696 28.5531C47.3761 29.2146 47.469 30.0792 47.0007 30.8484C46.6547 31.4182 46.2781 31.9699 45.8966 32.5165C45.7426 32.7365 45.7303 32.9175 45.816 33.1817C46.0176 33.8077 46.3356 34.2052 47.057 34.2297C47.4897 34.2444 47.919 34.3862 48.3481 34.4755C49.3947 34.6944 49.9778 35.4 49.9913 36.4676C49.9975 36.9066 49.9987 37.3469 49.9913 37.7859C49.973 38.7935 49.3922 39.504 48.3982 39.7216C47.7636 39.8611 47.1205 39.965 46.4896 40.1191C46.3343 40.157 46.1791 40.3086 46.0825 40.4492C45.6667 41.0546 45.701 41.6184 46.2157 42.1834C46.519 42.516 46.739 42.9269 46.9762 43.3157C47.4715 44.124 47.3833 45.0057 46.739 45.6905C46.393 46.0574 46.0372 46.4157 45.668 46.7594C44.998 47.3842 44.1188 47.4772 43.3327 46.9929C42.7653 46.6444 42.2286 46.2432 41.6563 45.9045C41.495 45.8091 41.2443 45.7994 41.05 45.8324C40.3616 45.9522 40.007 46.368 39.9691 47.0859C39.9495 47.4551 39.804 47.8159 39.76 48.1852C39.6487 49.111 39.1022 49.6637 38.277 49.9975H35.9331L35.9342 50Z" fill="#014898"/>
<path d="M14.4043 19.2142C14.4043 16.5886 16.6003 14.3985 19.2217 14.4082C21.8468 14.418 24.0292 16.6156 24.0182 19.2374C24.0072 21.8324 21.8187 24.0165 19.2229 24.0226C16.6015 24.0286 14.4043 21.8349 14.4043 19.2142ZM15.995 19.1591C15.9608 20.9311 17.3754 22.3961 19.1679 22.445C20.8968 22.4927 22.4068 21.0167 22.4422 19.2435C22.4764 17.5131 21.0398 16.0407 19.2767 15.9992C17.494 15.9576 16.0305 17.3689 15.995 19.1591Z" fill="#014898"/>
<path d="M28.1176 19.2616C28.0588 20.5847 27.7728 21.8418 27.2091 23.0366C26.9462 23.5942 26.5575 23.7985 26.0953 23.6077C25.6551 23.4242 25.5121 22.9657 25.7701 22.4032C26.6541 20.4722 26.7421 18.5168 25.9828 16.5308C24.2246 11.9328 18.2408 10.4238 14.5166 13.6376C14.3931 13.744 14.2745 13.8565 14.1473 13.9567C13.7255 14.2893 13.2731 14.2735 12.976 13.9225C12.6898 13.585 12.729 13.1483 13.0982 12.7926C13.9272 11.9928 14.8785 11.3715 15.9532 10.9606C21.1202 8.98446 26.6772 11.9707 27.8841 17.3771C28.021 17.9922 28.0417 18.633 28.1176 19.2616Z" fill="#014898"/>
<path d="M19.5004 28.0946C14.54 27.976 10.899 24.6766 10.3818 20.0896C10.2473 18.8997 10.3781 17.7208 10.7412 16.5738C10.9356 15.9623 11.3244 15.6897 11.8025 15.8388C12.2537 15.9807 12.4346 16.4185 12.2549 17.0128C11.6802 18.9058 11.8355 20.7353 12.7073 22.506C14.5487 26.2432 19.3782 27.6397 22.9288 25.4642C23.1233 25.3456 23.3128 25.2172 23.5145 25.1145C23.9437 24.8943 24.3605 24.9872 24.5929 25.3395C24.8338 25.7063 24.7433 26.16 24.3385 26.4511C23.4167 27.1102 22.4055 27.5932 21.2978 27.8292C20.602 27.9785 19.8868 28.0408 19.5017 28.0971L19.5004 28.0946Z" fill="#014898"/>
<path d="M32.6963 37.0537C32.7354 34.6679 34.6136 32.7724 37.0051 32.7039C39.3428 32.6379 41.3479 34.4734 41.4947 36.8127C41.5363 37.472 41.2857 37.8486 40.7819 37.884C40.2977 37.9182 39.9908 37.5697 39.9284 36.9142C39.7719 35.2817 38.4417 34.1542 36.8266 34.2864C35.3018 34.4099 34.1587 35.7917 34.2784 37.3644C34.4338 39.3882 36.7251 40.5891 38.4954 39.5741C38.6361 39.4934 38.7682 39.3955 38.9124 39.3234C39.3392 39.1081 39.7524 39.2096 39.9762 39.5765C40.1999 39.9434 40.1131 40.3677 39.7292 40.6477C38.6593 41.4292 37.4648 41.686 36.1724 41.4145C34.1281 40.9853 32.6597 39.1314 32.6939 37.0537H32.6963Z" fill="#014898"/>
</g>
</g>
<defs>
<clipPath id="clip0_4203_9372">
<rect width="50" height="50" fill="white"/>
</clipPath>
</defs>
</svg>
