<svg width="40" height="40" viewBox="0 0 40 40" fill="none" xmlns="http://www.w3.org/2000/svg">
<g clip-path="url(#clip0_4909_7933)">
<path d="M-0.000239412 14.0651C0.339175 13.0095 1.10995 12.5428 2.16927 12.4049C2.87647 12.312 3.57486 12.1427 4.27031 11.9774C4.41312 11.9431 4.57451 11.8003 4.64005 11.6663C4.83959 11.2593 5.0137 10.8367 5.15944 10.4072C5.20835 10.2634 5.19955 10.0452 5.12129 9.92197C4.68504 9.22835 4.21945 8.55332 3.76559 7.87144C3.03688 6.77671 3.12198 5.89232 4.04143 4.96978C4.39062 4.61955 4.73591 4.2654 5.09195 3.92201C5.86175 3.17752 6.78609 3.07871 7.68793 3.65787C8.43229 4.13626 9.15514 4.64694 9.90439 5.11653C10.0364 5.19968 10.2634 5.19968 10.4238 5.15566C10.684 5.08522 10.9168 4.89152 11.1769 4.84749C11.8313 4.73596 12.0328 4.32116 12.1111 3.7244C12.2011 3.04252 12.3644 2.37042 12.5023 1.69539C12.7175 0.638819 13.4668 0.0175947 14.5349 0.00487671C15.0944 -0.00197143 15.6549 -0.00197143 16.2144 0.00487671C17.2326 0.0175947 17.9828 0.607513 18.2039 1.59658C18.4025 2.48488 18.557 3.38199 18.7575 4.26931C18.7898 4.41215 18.9346 4.57454 19.0705 4.64205C19.4657 4.83771 19.8892 4.97369 20.2864 5.16348C20.5006 5.26523 20.6561 5.2574 20.8527 5.12044C21.5472 4.63911 22.2534 4.17344 22.9596 3.70874C23.9456 3.06013 24.8689 3.15404 25.7111 3.98463C26.0818 4.35051 26.4545 4.71444 26.8145 5.09011C27.5666 5.87276 27.6566 6.80802 27.0629 7.72176C26.5953 8.44179 26.119 9.15693 25.6309 9.86229C25.4891 10.0668 25.4578 10.2282 25.5781 10.461C25.7561 10.8054 25.9146 11.1673 26.0241 11.5391C26.12 11.8639 26.3107 11.9784 26.6227 12.0322C27.4297 12.173 28.2308 12.3413 29.0338 12.5047C30.0814 12.718 30.6898 13.4243 30.7241 14.4926C30.7436 15.0904 30.7456 15.691 30.7221 16.2888C30.682 17.3052 30.1049 17.994 29.1082 18.2151C28.2455 18.4068 27.3788 18.5849 26.5083 18.7375C26.2452 18.7835 26.1386 18.9038 26.0593 19.1366C25.938 19.4927 25.7913 19.841 25.6329 20.1824C25.4499 20.5787 25.1144 20.7205 24.7819 20.5689C24.4454 20.4153 24.3319 20.0846 24.4835 19.6767C24.6596 19.2022 24.8601 18.7355 25.0147 18.2542C25.136 17.8766 25.3609 17.6711 25.7493 17.5987C26.7078 17.4197 27.6625 17.2211 28.6191 17.0343C29.3048 16.9002 29.4613 16.7153 29.4633 16.007C29.4642 15.5257 29.4691 15.0434 29.4613 14.5621C29.4535 14.0749 29.2715 13.8489 28.7922 13.7491C27.774 13.5368 26.7558 13.3284 25.7336 13.1357C25.3766 13.0682 25.1653 12.8921 25.0352 12.5477C24.7789 11.8678 24.5012 11.1957 24.1999 10.5354C24.0463 10.1998 24.0688 9.92588 24.2742 9.62652C24.8396 8.79985 25.3903 7.96242 25.9429 7.12792C26.296 6.59475 26.2716 6.33647 25.8314 5.89134C25.493 5.54894 25.1536 5.20751 24.8083 4.87097C24.4043 4.47671 24.1363 4.44736 23.6658 4.75749C22.8188 5.31512 21.9697 5.87178 21.1344 6.448C20.8067 6.67399 20.5143 6.68377 20.1553 6.5155C19.5332 6.22495 18.8974 5.95493 18.2508 5.72601C17.8567 5.58611 17.6591 5.35132 17.5857 4.95315C17.4087 3.99441 17.2111 3.03958 17.0243 2.0828C16.901 1.45277 16.6809 1.26493 16.0451 1.262C15.5502 1.26004 15.0553 1.2532 14.5613 1.26396C14.081 1.27472 13.8434 1.46842 13.7446 1.93801C13.5323 2.95643 13.322 3.97484 13.1322 4.99717C13.0618 5.3748 12.8652 5.58122 12.5111 5.71329C11.8548 5.95885 11.2043 6.22299 10.5695 6.51746C10.2086 6.68573 9.91613 6.66616 9.58943 6.44213C8.76486 5.87374 7.9266 5.32393 7.09127 4.77216C6.59437 4.44443 6.33516 4.46889 5.91848 4.87684C5.57417 5.21338 5.23378 5.55481 4.89534 5.89721C4.46203 6.33647 4.43366 6.59083 4.76916 7.09857C5.32181 7.93405 5.87055 8.77246 6.43885 9.59717C6.66382 9.92392 6.67849 10.2164 6.51025 10.5774C6.21485 11.2124 5.95076 11.8629 5.70622 12.5184C5.57319 12.8745 5.36289 13.0662 4.98631 13.1357C3.97687 13.3235 2.97135 13.5329 1.96582 13.7423C1.44838 13.8499 1.26352 14.0798 1.25569 14.6081C1.24884 15.1031 1.2508 15.5971 1.25569 16.0921C1.26058 16.6635 1.44838 16.8992 2.00397 17.0117C2.95961 17.2064 3.91329 17.4089 4.87383 17.5743C5.3404 17.6545 5.59569 17.8776 5.74926 18.3315C5.96543 18.9684 6.24518 19.5867 6.5259 20.1991C6.67849 20.5307 6.6648 20.8086 6.45939 21.1099C5.88718 21.9473 5.32768 22.7945 4.76721 23.6408C4.43268 24.1465 4.46203 24.4068 4.89339 24.8441C5.23182 25.1875 5.57124 25.5289 5.91456 25.8664C6.31462 26.2587 6.59535 26.291 7.05801 25.9867C7.90508 25.4291 8.75312 24.8715 9.58943 24.2952C9.91515 24.0702 10.2096 24.0536 10.5695 24.2209C11.2043 24.5154 11.8548 24.7795 12.5102 25.026C12.8633 25.1591 13.0608 25.3645 13.1313 25.7431C13.3181 26.7527 13.5274 27.7584 13.7367 28.7632C13.8463 29.2885 14.0615 29.4597 14.6004 29.4646C15.1081 29.4695 15.6157 29.4695 16.1234 29.4646C16.6741 29.4597 16.8981 29.2768 17.0086 28.7328C17.2023 27.777 17.4057 26.8232 17.5691 25.8625C17.6493 25.3939 17.8655 25.1229 18.3281 24.9928C18.7644 24.8705 19.1801 24.6787 19.6056 24.5193C20.0389 24.3559 20.394 24.4694 20.5319 24.8137C20.6717 25.163 20.5074 25.4888 20.0888 25.6835C19.9235 25.7607 19.7611 25.8654 19.586 25.8928C18.9033 25.9985 18.6861 26.4319 18.6108 27.0668C18.5286 27.7614 18.3594 28.4472 18.2039 29.132C17.9838 30.1044 17.2981 30.6816 16.3004 30.7237C15.6901 30.7491 15.0768 30.7481 14.4655 30.7266C13.4188 30.6894 12.7116 30.08 12.5004 29.0567C12.3214 28.1909 12.1629 27.3211 11.9683 26.4593C11.937 26.3194 11.7863 26.1628 11.6513 26.0963C11.2444 25.8967 10.8229 25.7197 10.3944 25.5719C10.2526 25.523 10.0364 25.5387 9.91222 25.6169C9.18644 26.0748 8.48022 26.5639 7.76325 27.0365C6.79782 27.6723 5.86272 27.5823 5.04011 26.7772C4.66842 26.4133 4.29868 26.0454 3.93579 25.6727C3.16013 24.8754 3.06427 23.943 3.67071 23.0127C4.14609 22.2829 4.63125 21.5579 5.12521 20.8399C5.25236 20.655 5.25823 20.5092 5.16335 20.3077C4.97457 19.9095 4.84057 19.4849 4.64201 19.0916C4.56962 18.9468 4.39552 18.7952 4.24195 18.759C3.45748 18.577 2.66714 18.4117 1.8729 18.2806C0.89867 18.1192 0.281465 17.5782 -0.00317383 16.642V14.0641L-0.000239412 14.0651Z" fill="#014898"/>
<path d="M28.7475 40C27.9807 39.7241 27.607 39.1528 27.5092 38.3662C27.4789 38.1217 27.3703 37.88 27.3762 37.6393C27.3938 36.9408 26.8969 36.7667 26.3795 36.6141C26.2914 36.5877 26.1584 36.6415 26.0704 36.6972C25.6419 36.9692 25.2262 37.2607 24.7998 37.5347C24.0671 38.0052 23.3668 37.9348 22.7447 37.3322C22.4923 37.0876 22.2419 36.841 21.9994 36.5857C21.4477 36.0046 21.3724 35.2992 21.7979 34.6232C22.0678 34.1938 22.3505 33.7721 22.642 33.3573C22.7662 33.1812 22.7682 33.0364 22.7075 32.8261C22.554 32.2909 22.2537 32.0102 21.6795 31.973C21.2814 31.9466 20.8853 31.837 20.4969 31.7333C19.8201 31.5523 19.3946 31.0074 19.375 30.3118C19.3623 29.8824 19.3603 29.4519 19.377 29.0234C19.4053 28.3053 19.9423 27.7086 20.6437 27.5902C21.0339 27.5246 21.3469 27.7007 21.4428 28.0402C21.5328 28.3582 21.3665 28.6849 20.9968 28.7925C20.6955 28.8796 20.6173 29.0469 20.6241 29.3325C20.6574 30.7012 20.4138 30.4263 21.7627 30.712C22.1441 30.7932 22.5266 30.8704 22.91 30.9419C23.2181 30.9996 23.4167 31.1639 23.5282 31.4662C23.6906 31.9035 23.8705 32.3359 24.0642 32.7605C24.2021 33.0648 24.1787 33.3309 23.9909 33.6038C23.6299 34.1292 23.2876 34.6673 22.9257 35.1916C22.776 35.4088 22.7652 35.5859 22.9677 35.7737C23.1868 35.9772 23.3981 36.1905 23.6035 36.4086C23.7786 36.5955 23.9478 36.5955 24.1542 36.4546C24.6804 36.0946 25.2194 35.7532 25.7417 35.3883C26.042 35.1779 26.3286 35.1681 26.6563 35.3217C27.0426 35.5037 27.4388 35.671 27.8428 35.8128C28.1871 35.9332 28.3758 36.1464 28.4394 36.5055C28.549 37.1199 28.6947 37.7274 28.7994 38.3418C28.8522 38.6509 29.0097 38.7517 29.3051 38.7448C30.7068 38.7145 30.4231 38.9483 30.7107 37.5885C30.7889 37.2197 30.8681 36.8508 30.9347 36.4801C30.9924 36.1553 31.1557 35.9479 31.4756 35.8324C31.9148 35.6739 32.3451 35.489 32.7706 35.2973C33.0602 35.1662 33.3184 35.1838 33.5795 35.3609C34.1175 35.7258 34.6653 36.077 35.2003 36.4478C35.4243 36.6023 35.5945 36.5838 35.7804 36.3891C36.8133 35.3071 36.7565 35.7307 36.0073 34.5557C35.798 34.227 35.5779 33.9042 35.3578 33.5813C35.1798 33.3211 35.1651 33.0619 35.2962 32.7713C35.4889 32.3457 35.6728 31.9153 35.8312 31.476C35.9466 31.1561 36.155 30.9957 36.4787 30.935C37.1048 30.8176 37.7259 30.6738 38.3529 30.5642C38.6434 30.5134 38.7549 30.3686 38.7412 30.0878C38.7314 29.8804 38.7392 29.671 38.7392 29.4627C38.7392 28.8884 38.7236 28.8718 38.1484 28.7593C37.5997 28.6526 37.0529 28.5343 36.5022 28.4394C36.1423 28.3777 35.93 28.187 35.8087 27.8426C35.662 27.4268 35.4879 27.0198 35.304 26.6197C35.1651 26.3184 35.1749 26.0513 35.3637 25.7754C35.7236 25.2491 36.064 24.7091 36.4289 24.1876C36.5932 23.9528 36.5873 23.7767 36.378 23.5762C35.3099 22.5588 35.7256 22.6106 34.5401 23.3649C34.2222 23.5674 33.9072 23.7758 33.5981 23.993C33.3272 24.1837 33.0592 24.2052 32.755 24.0663C32.3305 23.8726 31.8981 23.6916 31.4599 23.5302C31.1567 23.4187 30.9963 23.2191 30.9366 22.9119C30.8124 22.2741 30.6725 21.6391 30.5571 20.9993C30.5082 20.7303 30.3752 20.6217 30.1072 20.6276C28.6448 20.6599 28.9412 20.4045 28.6546 21.7693C28.5744 22.1508 28.5001 22.5343 28.4248 22.9168C28.3641 23.222 28.1998 23.4216 27.8966 23.5322C27.4584 23.6916 27.026 23.8736 26.6015 24.0673C26.2963 24.2072 26.0312 24.1779 25.7583 23.991C25.2429 23.6378 24.7127 23.3072 24.2021 22.9481C23.9566 22.7759 23.7727 22.773 23.5585 22.998C22.5628 24.0438 22.6087 23.6486 23.3511 24.8059C23.5614 25.1346 23.7786 25.4594 23.9997 25.7813C24.1777 26.0405 24.2021 26.2978 24.0701 26.5894C23.8774 27.0149 23.7062 27.4503 23.5292 27.8827C23.3511 28.32 23.0509 28.4951 22.6909 28.366C22.3368 28.2388 22.2048 27.9032 22.3427 27.462C22.4121 27.239 22.461 26.9973 22.5823 26.8046C22.8308 26.4123 22.7496 26.1002 22.4757 25.7598C22.2155 25.4369 21.9994 25.0769 21.7812 24.7228C21.3822 24.0742 21.4477 23.3796 21.9632 22.8209C22.237 22.5245 22.5227 22.2389 22.819 21.9649C23.3746 21.4523 24.075 21.3867 24.7215 21.7879C25.1411 22.0481 25.5598 22.3152 25.955 22.6096C26.1848 22.7808 26.3677 22.7593 26.626 22.6732C27.0818 22.5216 27.339 22.2868 27.3645 21.7771C27.383 21.4053 27.5004 21.0375 27.5796 20.6687C27.7538 19.8528 28.3191 19.3851 29.1486 19.3724C29.5134 19.3675 29.8773 19.3656 30.2421 19.3724C31.0276 19.3881 31.5959 19.8479 31.769 20.6227C31.8747 21.0923 31.9676 21.5648 32.0429 22.0393C32.0859 22.3112 32.2278 22.4394 32.4694 22.5685C32.9183 22.8092 33.2744 22.7701 33.6588 22.4423C33.9532 22.1909 34.2985 21.9962 34.6301 21.7908C35.2884 21.3828 36.0004 21.4533 36.5629 21.9835C36.8563 22.2604 37.1429 22.5451 37.4158 22.8425C37.901 23.3717 37.9753 24.0634 37.6007 24.6787C37.3239 25.1346 37.0226 25.5759 36.7174 26.0132C36.5942 26.1892 36.5844 26.334 36.6529 26.5454C36.8142 27.0462 37.0686 27.3642 37.6457 27.3838C37.9919 27.3955 38.3353 27.509 38.6786 27.5804C39.5159 27.7555 39.9824 28.32 39.9932 29.1741C39.9981 29.5253 39.9991 29.8775 39.9932 30.2287C39.9785 31.0348 39.5139 31.6032 38.7187 31.7773C38.211 31.8889 37.6965 31.972 37.1918 32.0953C37.0676 32.1256 36.9434 32.2469 36.8661 32.3594C36.5335 32.8437 36.5609 33.2947 36.9727 33.7467C37.2153 34.0128 37.3913 34.3415 37.5811 34.6526C37.9773 35.2992 37.9068 36.0046 37.3913 36.5524C37.1145 36.8459 36.8299 37.1326 36.5345 37.4075C35.9985 37.9074 35.2952 37.9818 34.6663 37.5943C34.2124 37.3155 33.783 36.9946 33.3252 36.7236C33.1961 36.6473 32.9956 36.6395 32.8401 36.6659C32.2894 36.7618 32.0057 37.0944 31.9754 37.6687C31.9597 37.9641 31.8433 38.2527 31.8081 38.5482C31.7191 39.2888 31.2819 39.731 30.6217 39.998H28.7466L28.7475 40Z" fill="#014898"/>
<path d="M11.5234 15.3712C11.5234 13.2707 13.2802 11.5186 15.3773 11.5264C17.4774 11.5342 19.2233 13.2923 19.2145 15.3897C19.2057 17.4657 17.4549 19.213 15.3783 19.2179C13.2812 19.2227 11.5234 17.4686 11.5234 15.3721V15.3712ZM12.796 15.3271C12.7686 16.7447 13.9003 17.9167 15.3343 17.9558C16.7174 17.994 17.9254 16.8132 17.9537 15.3946C17.9811 14.0103 16.8318 12.8324 15.4213 12.7992C13.9952 12.7659 12.8244 13.8949 12.796 15.3271Z" fill="#014898"/>
<path d="M22.4943 15.4093C22.4473 16.4678 22.2185 17.4735 21.7675 18.4293C21.5572 18.8754 21.2462 19.0388 20.8765 18.8862C20.5243 18.7394 20.4099 18.3726 20.6163 17.9226C21.3235 16.3778 21.3939 14.8135 20.7865 13.2247C19.3799 9.5463 14.5929 8.33907 11.6135 10.9101C11.5147 10.9952 11.4198 11.0852 11.3181 11.1654C10.9806 11.4315 10.6187 11.4188 10.381 11.138C10.1521 10.868 10.1834 10.5187 10.4788 10.2341C11.142 9.59424 11.903 9.09726 12.7628 8.76855C16.8964 7.18761 21.342 9.57663 22.3075 13.9017C22.417 14.3938 22.4346 14.9064 22.4953 15.4093H22.4943Z" fill="#014898"/>
<path d="M15.6003 22.4756C11.632 22.3807 8.71914 19.7412 8.30538 16.0716C8.19779 15.1197 8.30245 14.1766 8.59296 13.259C8.74848 12.7698 9.05953 12.5517 9.44198 12.671C9.80291 12.7845 9.94768 13.1347 9.80389 13.6102C9.34417 15.1246 9.46839 16.5882 10.1658 18.0047C11.6389 20.9945 15.5025 22.1117 18.343 20.3713C18.4986 20.2764 18.6502 20.1737 18.8116 20.0915C19.1549 19.9154 19.4884 19.9897 19.6743 20.2715C19.867 20.565 19.7946 20.9279 19.4708 21.1608C18.7333 21.6881 17.9244 22.0745 17.0382 22.2633C16.4816 22.3827 15.9094 22.4326 15.6013 22.4776L15.6003 22.4756Z" fill="#014898"/>
<path d="M26.1573 29.6427C26.1886 27.734 27.6911 26.2176 29.6043 26.1628C31.4745 26.11 33.0786 27.5784 33.196 29.4499C33.2293 29.9773 33.0288 30.2786 32.6258 30.3069C32.2384 30.3343 31.9929 30.0555 31.943 29.5311C31.8178 28.2251 30.7536 27.3231 29.4615 27.4288C28.2417 27.5276 27.3272 28.6331 27.423 29.8912C27.5473 31.5103 29.3803 32.471 30.7966 31.659C30.9091 31.5944 31.0148 31.5161 31.1302 31.4584C31.4716 31.2862 31.8022 31.3674 31.9812 31.6609C32.1602 31.9544 32.0907 32.2939 31.7836 32.5179C30.9277 33.1431 29.9721 33.3485 28.9382 33.1313C27.3027 32.7879 26.128 31.3048 26.1554 29.6427H26.1573Z" fill="#014898"/>
</g>
<defs>
<clipPath id="clip0_4909_7933">
<rect width="40" height="40" fill="white"/>
</clipPath>
</defs>
</svg>
