<svg width="44" height="49" viewBox="0 0 44 49" fill="none" xmlns="http://www.w3.org/2000/svg">
<g clip-path="url(#clip0_5029_4728)">
<path d="M16.9625 49.0003C16.354 48.7324 16.2019 48.2604 16.3033 47.6353C16.5188 46.2576 16.709 44.867 16.9245 43.4765C16.9752 43.1831 16.9245 42.979 16.709 42.7621C15.7075 41.7671 14.7315 40.7337 13.7427 39.7259C13.4258 39.3942 13.1976 39.0498 13.3497 38.5778C13.5018 38.1058 13.8821 37.9654 14.3385 37.8889C15.7456 37.6593 17.1527 37.4169 18.5471 37.1617C18.7372 37.1235 18.9654 36.9449 19.0668 36.779C19.7513 35.5161 20.4105 34.2531 21.057 32.9774C21.2725 32.5692 21.526 32.263 22.0331 32.263C22.5021 32.2758 22.7557 32.5819 22.9585 32.9647C23.6177 34.2404 24.2642 35.5033 24.9487 36.7663C25.0374 36.9449 25.2656 37.1107 25.4557 37.149C26.8755 37.4169 28.2826 37.6593 29.715 37.8889C30.146 37.9654 30.5137 38.1185 30.6531 38.5778C30.7925 39.0243 30.6151 39.3687 30.2981 39.6877C29.284 40.721 28.2699 41.7543 27.2812 42.8004C27.1544 42.9407 27.053 43.1959 27.0783 43.3745C27.2558 44.765 27.484 46.1427 27.6868 47.5333C27.8136 48.3625 27.6995 48.6049 27.0403 49.0003C26.8502 49.0003 26.66 49.0003 26.4699 49.0003C25.367 48.4263 24.2261 47.916 23.174 47.2781C22.35 46.7806 21.6655 46.7806 20.8415 47.2781C19.7767 47.916 18.6358 48.4263 17.533 49.0003C17.3428 49.0003 17.1527 49.0003 16.9625 49.0003ZM16.2146 39.5218C17.0259 40.351 17.7484 41.1164 18.4964 41.8691C18.8386 42.2136 18.9781 42.5708 18.902 43.0683C18.7245 44.1271 18.5851 45.1987 18.433 46.3596C19.2443 45.9641 20.0175 45.658 20.7021 45.2242C21.6148 44.6374 22.4261 44.6502 23.3388 45.2242C24.0233 45.658 24.7839 45.9641 25.5952 46.3596C25.4684 45.4539 25.4304 44.6119 25.2149 43.8209C24.936 42.7749 25.2149 42.0222 26.0262 41.3461C26.6473 40.823 27.1797 40.1852 27.7502 39.5856C27.6741 39.5346 27.6614 39.5091 27.6234 39.4963C26.6093 39.3177 25.5952 39.1263 24.5811 38.9733C24.074 38.8967 23.7444 38.6543 23.5289 38.2078C23.1106 37.3531 22.6542 36.5111 22.2106 35.6692C22.1599 35.5671 22.0838 35.4778 21.9951 35.3375C21.6528 36.0008 21.3359 36.6004 21.019 37.2128C19.9922 39.1391 20.4612 38.7819 18.3062 39.1774C17.6217 39.2667 16.9625 39.3942 16.2146 39.5218Z" fill="#014898"/>
<path d="M12.6525 24.7236C13.2737 22.0829 14.6807 20.0545 16.8991 18.5619C15.6315 16.9035 15.1625 15.0537 15.5808 13.0253C15.9104 11.4307 16.7343 10.1422 18.0147 9.14716C20.5499 7.18257 24.1374 7.36117 26.4825 9.54264C28.7897 11.6986 29.4488 15.4747 27.129 18.5619C29.3221 20.0417 30.7418 22.0701 31.3757 24.7618C31.7813 24.2898 32.1743 23.8944 32.4912 23.4606C35.673 19.0977 36.1547 14.4286 33.9743 9.49161C33.9109 9.36404 33.8476 9.23646 33.7842 9.10889C33.5687 8.58585 33.7335 8.07557 34.1898 7.83318C34.6589 7.5908 35.2166 7.75664 35.4828 8.26693C36.18 9.60642 36.6744 11.0097 36.9279 12.4895C38.3477 20.7944 33.2771 28.4742 25.0881 30.2091C16.4047 32.0462 8.44393 26.1141 7.06219 17.8985C5.74384 10.0657 10.4341 2.62829 18.0147 0.548883C21.7669 -0.471684 25.3797 -0.0507001 28.8657 1.65875C29.3094 1.87562 29.5756 2.20731 29.4995 2.71759C29.4362 3.16409 29.1573 3.4575 28.7263 3.50853C28.4854 3.53404 28.1939 3.4575 27.9657 3.34269C25.9248 2.32212 23.7698 1.86286 21.488 1.91389C15.492 2.05422 10.0158 6.73608 8.96366 12.6809C8.17772 17.1841 9.29325 21.1388 12.399 24.5067C12.475 24.5577 12.5384 24.6088 12.6525 24.7236ZM22.0077 28.6272C24.6318 28.589 27.0657 27.8873 29.284 26.4458C29.5756 26.2544 29.639 26.0503 29.6009 25.7441C29.2333 23.3203 28.0417 21.445 25.9882 20.1183C25.7473 19.9652 25.5698 19.9524 25.3036 20.1055C23.1106 21.3302 20.8922 21.3302 18.6992 20.0928C18.4457 19.9524 18.2809 19.9652 18.0654 20.1055C15.9864 21.4322 14.7822 23.3203 14.4145 25.7569C14.3638 26.0758 14.4652 26.2799 14.7441 26.4585C16.9625 27.8873 19.3837 28.589 22.0077 28.6272ZM21.9951 19.0722C24.5684 19.0849 26.66 17.0055 26.6727 14.4158C26.6854 11.8134 24.6064 9.68296 22.0204 9.68296C19.4598 9.67021 17.3555 11.7751 17.3428 14.3393C17.3301 16.9673 19.3964 19.0594 21.9951 19.0722Z" fill="#014898"/>
<path d="M2.13105 38.2716C2.27049 37.3276 2.39725 36.3453 2.56205 35.3758C2.62543 35.0186 2.54937 34.7889 2.29584 34.5338C1.63667 33.8959 1.01552 33.207 0.36902 32.5564C0.0647853 32.2503 -0.0873322 31.9058 0.0521089 31.4721C0.19155 31.0383 0.521138 30.8725 0.952138 30.796C1.90287 30.6429 2.85361 30.4898 3.80434 30.2984C3.98181 30.2602 4.19731 30.0943 4.28605 29.9285C4.75508 29.0993 5.18608 28.2445 5.61708 27.3898C5.8199 26.9816 6.11146 26.7137 6.56781 26.7264C7.01149 26.7392 7.27769 27.0071 7.46784 27.3898C7.89884 28.2445 8.32984 29.0865 8.79887 29.9157C8.90028 30.0943 9.12846 30.2602 9.33128 30.2984C10.282 30.4898 11.2327 30.6429 12.1835 30.796C12.5891 30.8597 12.906 31.0511 13.0328 31.4593C13.1722 31.8676 13.0328 32.212 12.7539 32.5054C12.1074 33.1688 11.4863 33.8321 10.8144 34.4828C10.5355 34.7507 10.4468 35.0313 10.5102 35.414C10.6623 36.307 10.7764 37.2128 10.9158 38.1058C10.9792 38.514 10.9032 38.8712 10.5736 39.1263C10.2186 39.407 9.83834 39.3687 9.45804 39.1774C8.60872 38.7564 7.7594 38.3354 6.91008 37.9017C6.64387 37.7613 6.42837 37.7741 6.16216 37.9017C5.28749 38.3482 4.41281 38.7947 3.52546 39.2156C2.8029 39.5728 2.1057 39.1008 2.13105 38.2716ZM6.54246 29.7754C6.26358 30.3112 5.98469 30.7832 5.76919 31.268C5.52834 31.8293 5.12269 32.0972 4.5269 32.161C4.01984 32.2247 3.51278 32.3268 3.00573 32.4161C2.9677 32.4799 2.91699 32.5437 2.87896 32.6075C3.32264 32.9902 3.76631 33.3729 4.20999 33.7556C4.56493 34.0618 4.66634 34.4445 4.57761 34.9165C4.46352 35.4778 4.41281 36.0519 4.32408 36.7152C4.84381 36.4601 5.30016 36.2815 5.69313 36.0391C6.30161 35.6437 6.85937 35.6819 7.46784 36.0519C7.87349 36.2943 8.31716 36.4729 8.81154 36.7152C8.72281 36.0774 8.65943 35.5544 8.55802 35.0441C8.4566 34.4955 8.55802 34.049 8.98902 33.6663C9.39466 33.2963 9.7496 32.8881 10.1933 32.4289C9.5341 32.314 8.96366 32.1992 8.38055 32.1227C7.91152 32.0589 7.60728 31.8165 7.40446 31.3955C7.12558 30.8725 6.84669 30.3622 6.54246 29.7754Z" fill="#014898"/>
<path d="M40.7943 39.3432C40.7182 39.3177 40.5154 39.2539 40.3379 39.1646C39.5139 38.7564 38.69 38.3609 37.8787 37.9272C37.5998 37.7741 37.3716 37.7868 37.0801 37.9399C36.2561 38.3737 35.4068 38.7691 34.5701 39.1901C34.1898 39.3815 33.8095 39.4325 33.4546 39.1519C33.0996 38.884 33.0236 38.514 33.0996 38.093C33.2518 37.2 33.3532 36.2943 33.5053 35.4013C33.5687 35.0441 33.5053 34.7762 33.2264 34.5083C32.5672 33.8832 31.9588 33.207 31.3249 32.5692C31.0207 32.263 30.8559 31.9186 30.9827 31.4976C31.1221 31.0511 31.4644 30.8725 31.9081 30.796C32.8461 30.6556 33.7842 30.5025 34.7096 30.3112C34.8997 30.2729 35.1279 30.0943 35.2166 29.9157C35.6856 29.0865 36.1166 28.2318 36.5476 27.3898C36.7378 27.0071 37.0167 26.7392 37.4604 26.7392C37.904 26.7392 38.1829 26.9943 38.3731 27.3898C38.8041 28.2445 39.2351 29.0865 39.7041 29.9157C39.8055 30.1071 40.059 30.2729 40.2618 30.3112C41.2126 30.5025 42.1633 30.6429 43.1141 30.8087C43.507 30.8725 43.7986 31.0639 43.9253 31.4466C44.0521 31.842 43.9634 32.1992 43.6591 32.4926C42.9746 33.1943 42.2774 33.8959 41.6056 34.6231C41.4661 34.7762 41.3774 35.0441 41.4027 35.2482C41.5168 36.1922 41.6816 37.1362 41.8211 38.0803C41.9605 38.8329 41.5548 39.356 40.7943 39.3432ZM33.9363 32.4161C33.9109 32.4671 33.8983 32.5182 33.8729 32.5692C34.2786 32.9519 34.6715 33.3346 35.0898 33.7046C35.4828 34.0618 35.5842 34.4955 35.4955 35.0058C35.3941 35.5544 35.3307 36.1029 35.242 36.7408C35.8378 36.4473 36.3702 36.1922 36.8772 35.9243C37.2956 35.6947 37.6759 35.6947 38.0942 35.9115C38.6012 36.1794 39.1336 36.4346 39.7294 36.728C39.6407 36.0901 39.6027 35.5416 39.4886 35.0058C39.3618 34.4572 39.5393 34.049 39.9196 33.6791C40.3126 33.2963 40.6802 32.9009 41.1238 32.4289C40.49 32.3268 39.9703 32.212 39.4379 32.1482C38.8801 32.0844 38.5125 31.8165 38.2843 31.2935C38.0561 30.796 37.7773 30.3112 37.4984 29.7626C37.2195 30.3112 36.9279 30.7704 36.7251 31.2552C36.4843 31.8165 36.0786 32.0717 35.4955 32.1482C34.9504 32.212 34.4434 32.3268 33.9363 32.4161Z" fill="#014898"/>
<path d="M31.1221 5.16695C31.1221 4.64391 31.5151 4.23568 32.0348 4.22293C32.5672 4.21017 33.0109 4.64391 33.0109 5.16695C33.0109 5.68999 32.5546 6.13649 32.0348 6.12373C31.5278 6.11098 31.1221 5.67724 31.1221 5.16695Z" fill="#014898"/>
<path d="M16.9625 49.0003C16.354 48.7324 16.2019 48.2604 16.3033 47.6353C16.5188 46.2576 16.709 44.867 16.9245 43.4765C16.9752 43.1831 16.9245 42.979 16.709 42.7621C15.7075 41.7671 14.7315 40.7337 13.7427 39.7259C13.4258 39.3942 13.1976 39.0498 13.3497 38.5778C13.5018 38.1058 13.8821 37.9654 14.3385 37.8889C15.7456 37.6593 17.1527 37.4169 18.5471 37.1617C18.7372 37.1235 18.9654 36.9449 19.0668 36.779C19.7513 35.5161 20.4105 34.2531 21.057 32.9774C21.2725 32.5692 21.526 32.263 22.0331 32.263C22.5021 32.2758 22.7557 32.5819 22.9585 32.9647C23.6177 34.2404 24.2642 35.5033 24.9487 36.7663C25.0374 36.9449 25.2656 37.1107 25.4557 37.149C26.8755 37.4169 28.2826 37.6593 29.715 37.8889C30.146 37.9654 30.5137 38.1185 30.6531 38.5778C30.7925 39.0243 30.6151 39.3687 30.2981 39.6877C29.284 40.721 28.2699 41.7543 27.2812 42.8004C27.1544 42.9407 27.053 43.1959 27.0783 43.3745C27.2558 44.765 27.484 46.1427 27.6868 47.5333C27.8136 48.3625 27.6995 48.6049 27.0403 49.0003C26.8502 49.0003 26.66 49.0003 26.4699 49.0003C25.367 48.4263 24.2261 47.916 23.174 47.2781C22.35 46.7806 21.6655 46.7806 20.8415 47.2781C19.7767 47.916 18.6358 48.4263 17.533 49.0003C17.3428 49.0003 17.1527 49.0003 16.9625 49.0003ZM16.2146 39.5218C17.0259 40.351 17.7484 41.1164 18.4964 41.8691C18.8386 42.2136 18.9781 42.5708 18.902 43.0683C18.7245 44.1271 18.5851 45.1987 18.433 46.3596C19.2443 45.9641 20.0175 45.658 20.7021 45.2242C21.6148 44.6374 22.4261 44.6502 23.3388 45.2242C24.0233 45.658 24.7839 45.9641 25.5952 46.3596C25.4684 45.4539 25.4304 44.6119 25.2149 43.8209C24.936 42.7749 25.2149 42.0222 26.0262 41.3461C26.6473 40.823 27.1797 40.1852 27.7502 39.5856C27.6741 39.5346 27.6614 39.5091 27.6234 39.4963C26.6093 39.3177 25.5952 39.1263 24.5811 38.9733C24.074 38.8967 23.7444 38.6543 23.5289 38.2078C23.1106 37.3531 22.6542 36.5111 22.2106 35.6692C22.1599 35.5671 22.0838 35.4778 21.9951 35.3375C21.6528 36.0008 21.3359 36.6004 21.019 37.2128C19.9922 39.1391 20.4612 38.7819 18.3062 39.1774C17.6217 39.2667 16.9625 39.3942 16.2146 39.5218Z" stroke="white" stroke-width="0.3"/>
<path d="M12.6525 24.7236C13.2737 22.0829 14.6807 20.0545 16.8991 18.5619C15.6315 16.9035 15.1625 15.0537 15.5808 13.0253C15.9104 11.4307 16.7343 10.1422 18.0147 9.14716C20.5499 7.18257 24.1374 7.36117 26.4825 9.54264C28.7897 11.6986 29.4488 15.4747 27.129 18.5619C29.3221 20.0417 30.7418 22.0701 31.3757 24.7618C31.7813 24.2898 32.1743 23.8944 32.4912 23.4606C35.673 19.0977 36.1547 14.4286 33.9743 9.49161C33.9109 9.36404 33.8476 9.23646 33.7842 9.10889C33.5687 8.58585 33.7335 8.07557 34.1898 7.83318C34.6589 7.5908 35.2166 7.75664 35.4828 8.26693C36.18 9.60642 36.6744 11.0097 36.9279 12.4895C38.3477 20.7944 33.2771 28.4742 25.0881 30.2091C16.4047 32.0462 8.44393 26.1141 7.06219 17.8985C5.74384 10.0657 10.4341 2.62829 18.0147 0.548883C21.7669 -0.471684 25.3797 -0.0507001 28.8657 1.65875C29.3094 1.87562 29.5756 2.20731 29.4995 2.71759C29.4362 3.16409 29.1573 3.4575 28.7263 3.50853C28.4854 3.53404 28.1939 3.4575 27.9657 3.34269C25.9248 2.32212 23.7698 1.86286 21.488 1.91389C15.492 2.05422 10.0158 6.73608 8.96366 12.6809C8.17772 17.1841 9.29325 21.1388 12.399 24.5067C12.475 24.5577 12.5384 24.6088 12.6525 24.7236ZM22.0077 28.6272C24.6318 28.589 27.0657 27.8873 29.284 26.4458C29.5756 26.2544 29.639 26.0503 29.6009 25.7441C29.2333 23.3203 28.0417 21.445 25.9882 20.1183C25.7473 19.9652 25.5698 19.9524 25.3036 20.1055C23.1106 21.3302 20.8922 21.3302 18.6992 20.0928C18.4457 19.9524 18.2809 19.9652 18.0654 20.1055C15.9864 21.4322 14.7822 23.3203 14.4145 25.7569C14.3638 26.0758 14.4652 26.2799 14.7441 26.4585C16.9625 27.8873 19.3837 28.589 22.0077 28.6272ZM21.9951 19.0722C24.5684 19.0849 26.66 17.0055 26.6727 14.4158C26.6854 11.8134 24.6064 9.68296 22.0204 9.68296C19.4598 9.67021 17.3555 11.7751 17.3428 14.3393C17.3301 16.9673 19.3964 19.0594 21.9951 19.0722Z" stroke="white" stroke-width="0.3"/>
<path d="M2.13105 38.2716C2.27049 37.3276 2.39725 36.3453 2.56205 35.3758C2.62543 35.0186 2.54937 34.7889 2.29584 34.5338C1.63667 33.8959 1.01552 33.207 0.36902 32.5564C0.0647853 32.2503 -0.0873322 31.9058 0.0521089 31.4721C0.19155 31.0383 0.521138 30.8725 0.952138 30.796C1.90287 30.6429 2.85361 30.4898 3.80434 30.2984C3.98181 30.2602 4.19731 30.0943 4.28605 29.9285C4.75508 29.0993 5.18608 28.2445 5.61708 27.3898C5.8199 26.9816 6.11146 26.7137 6.56781 26.7264C7.01149 26.7392 7.27769 27.0071 7.46784 27.3898C7.89884 28.2445 8.32984 29.0865 8.79887 29.9157C8.90028 30.0943 9.12846 30.2602 9.33128 30.2984C10.282 30.4898 11.2327 30.6429 12.1835 30.796C12.5891 30.8597 12.906 31.0511 13.0328 31.4593C13.1722 31.8676 13.0328 32.212 12.7539 32.5054C12.1074 33.1688 11.4863 33.8321 10.8144 34.4828C10.5355 34.7507 10.4468 35.0313 10.5102 35.414C10.6623 36.307 10.7764 37.2128 10.9158 38.1058C10.9792 38.514 10.9032 38.8712 10.5736 39.1263C10.2186 39.407 9.83834 39.3687 9.45804 39.1774C8.60872 38.7564 7.7594 38.3354 6.91008 37.9017C6.64387 37.7613 6.42837 37.7741 6.16216 37.9017C5.28749 38.3482 4.41281 38.7947 3.52546 39.2156C2.8029 39.5728 2.1057 39.1008 2.13105 38.2716ZM6.54246 29.7754C6.26358 30.3112 5.98469 30.7832 5.76919 31.268C5.52834 31.8293 5.12269 32.0972 4.5269 32.161C4.01984 32.2247 3.51278 32.3268 3.00573 32.4161C2.9677 32.4799 2.91699 32.5437 2.87896 32.6075C3.32264 32.9902 3.76631 33.3729 4.20999 33.7556C4.56493 34.0618 4.66634 34.4445 4.57761 34.9165C4.46352 35.4778 4.41281 36.0519 4.32408 36.7152C4.84381 36.4601 5.30016 36.2815 5.69313 36.0391C6.30161 35.6437 6.85937 35.6819 7.46784 36.0519C7.87349 36.2943 8.31716 36.4729 8.81154 36.7152C8.72281 36.0774 8.65943 35.5544 8.55802 35.0441C8.4566 34.4955 8.55802 34.049 8.98902 33.6663C9.39466 33.2963 9.7496 32.8881 10.1933 32.4289C9.5341 32.314 8.96366 32.1992 8.38055 32.1227C7.91152 32.0589 7.60728 31.8165 7.40446 31.3955C7.12558 30.8725 6.84669 30.3622 6.54246 29.7754Z" stroke="white" stroke-width="0.3"/>
<path d="M40.7943 39.3432C40.7182 39.3177 40.5154 39.2539 40.3379 39.1646C39.5139 38.7564 38.69 38.3609 37.8787 37.9272C37.5998 37.7741 37.3716 37.7868 37.0801 37.9399C36.2561 38.3737 35.4068 38.7691 34.5701 39.1901C34.1898 39.3815 33.8095 39.4325 33.4546 39.1519C33.0996 38.884 33.0236 38.514 33.0996 38.093C33.2518 37.2 33.3532 36.2943 33.5053 35.4013C33.5687 35.0441 33.5053 34.7762 33.2264 34.5083C32.5672 33.8832 31.9588 33.207 31.3249 32.5692C31.0207 32.263 30.8559 31.9186 30.9827 31.4976C31.1221 31.0511 31.4644 30.8725 31.9081 30.796C32.8461 30.6556 33.7842 30.5025 34.7096 30.3112C34.8997 30.2729 35.1279 30.0943 35.2166 29.9157C35.6856 29.0865 36.1166 28.2318 36.5476 27.3898C36.7378 27.0071 37.0167 26.7392 37.4604 26.7392C37.904 26.7392 38.1829 26.9943 38.3731 27.3898C38.8041 28.2445 39.2351 29.0865 39.7041 29.9157C39.8055 30.1071 40.059 30.2729 40.2618 30.3112C41.2126 30.5025 42.1633 30.6429 43.1141 30.8087C43.507 30.8725 43.7986 31.0639 43.9253 31.4466C44.0521 31.842 43.9634 32.1992 43.6591 32.4926C42.9746 33.1943 42.2774 33.8959 41.6056 34.6231C41.4661 34.7762 41.3774 35.0441 41.4027 35.2482C41.5168 36.1922 41.6816 37.1362 41.8211 38.0803C41.9605 38.8329 41.5548 39.356 40.7943 39.3432ZM33.9363 32.4161C33.9109 32.4671 33.8983 32.5182 33.8729 32.5692C34.2786 32.9519 34.6715 33.3346 35.0898 33.7046C35.4828 34.0618 35.5842 34.4955 35.4955 35.0058C35.3941 35.5544 35.3307 36.1029 35.242 36.7408C35.8378 36.4473 36.3702 36.1922 36.8772 35.9243C37.2956 35.6947 37.6759 35.6947 38.0942 35.9115C38.6012 36.1794 39.1336 36.4346 39.7294 36.728C39.6407 36.0901 39.6027 35.5416 39.4886 35.0058C39.3618 34.4572 39.5393 34.049 39.9196 33.6791C40.3126 33.2963 40.6802 32.9009 41.1238 32.4289C40.49 32.3268 39.9703 32.212 39.4379 32.1482C38.8801 32.0844 38.5125 31.8165 38.2843 31.2935C38.0561 30.796 37.7773 30.3112 37.4984 29.7626C37.2195 30.3112 36.9279 30.7704 36.7251 31.2552C36.4843 31.8165 36.0786 32.0717 35.4955 32.1482C34.9504 32.212 34.4434 32.3268 33.9363 32.4161Z" stroke="white" stroke-width="0.3"/>
<path d="M31.1221 5.16695C31.1221 4.64391 31.5151 4.23568 32.0348 4.22293C32.5672 4.21017 33.0109 4.64391 33.0109 5.16695C33.0109 5.68999 32.5546 6.13649 32.0348 6.12373C31.5278 6.11098 31.1221 5.67724 31.1221 5.16695Z" stroke="white" stroke-width="0.3"/>
</g>
<defs>
<clipPath id="clip0_5029_4728">
<rect width="44" height="49" fill="white"/>
</clipPath>
</defs>
</svg>
