<svg width="40" height="48" viewBox="0 0 40 48" fill="none" xmlns="http://www.w3.org/2000/svg">
<g id="Isolation_Mode">
<g id="Vector">
<path d="M4.21822 21.6146C3.12361 19.7958 2.22702 17.8934 1.70171 15.8363C1.14753 13.6614 0.956385 11.4687 1.69621 9.30481C2.84033 5.95757 5.15469 3.80186 8.57742 2.85001C8.87445 2.76783 9.02159 2.64731 9.11648 2.36107C9.42726 1.42702 10.2262 1.01615 11.1847 1.2928C12.5543 1.68724 13.9212 2.09263 15.284 2.50761C16.281 2.81166 16.7265 3.62382 16.4542 4.61265C16.3387 5.03174 16.2163 5.44946 16.0678 5.85759C15.7708 6.67249 14.9622 7.10391 14.1247 6.86697C12.6891 6.46021 11.2589 6.03016 9.83155 5.59737C9.20036 5.407 8.83457 4.95093 8.66268 4.27573C7.70283 4.51541 6.85299 4.93176 6.08704 5.50424C3.33401 7.56682 2.2944 10.3553 2.70007 13.7053C3.00397 16.2198 3.98582 18.5029 5.27433 20.6654C5.30733 20.7202 5.35546 20.7654 5.42285 20.8449C5.72263 20.638 6.00866 20.4395 6.29469 20.2422C6.93138 19.804 7.24628 19.8629 7.65333 20.5052C9.64591 23.6484 12.1968 26.2533 15.284 28.3378C15.7282 28.6377 16.1971 28.9021 16.6536 29.1815C17.4471 29.6677 18.2337 29.6403 19.0326 29.1787C22.1597 27.3722 24.756 24.9782 26.9163 22.1049C27.3289 21.557 27.6919 20.9722 28.0769 20.4038C28.4166 19.9012 28.7535 19.83 29.2637 20.1669C29.5855 20.3792 29.899 20.6038 30.2098 20.8175C30.2538 20.801 30.2964 20.7983 30.3088 20.7764C31.86 18.2249 32.9711 15.5268 33.0453 12.4946C33.1361 8.77616 30.8011 5.46179 27.3412 4.36339C27.2464 4.33326 27.1473 4.31682 26.9988 4.28121C26.8173 5.20978 26.1284 5.54259 25.3019 5.76309C24.1523 6.06988 23.0178 6.43555 21.8778 6.77658C20.6182 7.15321 19.8701 6.7574 19.4933 5.51657C19.397 5.19609 19.2884 4.87972 19.2045 4.5565C18.9652 3.64299 19.4012 2.80618 20.2936 2.53226C21.7045 2.09811 23.1196 1.68176 24.5387 1.27636C25.4449 1.01751 26.2397 1.42154 26.5368 2.31587C26.6468 2.64594 26.8132 2.77742 27.1446 2.86507C31.9562 4.14152 34.9994 8.71727 34.3778 13.6203C34.0341 16.3431 33.0605 18.8234 31.7046 21.179C31.6207 21.3242 31.5368 21.468 31.4282 21.6543C31.7843 21.9076 32.1377 22.1528 32.4829 22.4089C32.9614 22.7636 33.0233 23.0745 32.6809 23.5648C29.3434 28.3474 25.2084 32.2781 20.1039 35.1583C19.7161 35.3774 19.2595 35.4747 18.8497 35.6609C18.7163 35.7212 18.5307 35.891 18.5376 36.0019C18.6008 37.2168 18.5403 38.4672 18.8154 39.6368C19.6157 43.0457 22.7249 45.3904 26.2604 45.4109C29.7725 45.4315 32.8721 43.0785 33.7797 39.6984C33.814 39.5724 33.8278 39.4396 33.858 39.2725C33.6779 39.2067 33.5115 39.1437 33.3437 39.0849C31.4295 38.4138 30.2703 36.4498 30.6485 34.5159C31.0431 32.4958 32.7854 31.0811 34.8055 31.1386C36.805 31.1961 38.5431 32.7588 38.759 34.6954C38.9901 36.7716 37.7511 38.637 35.7571 39.1588C35.3954 39.2533 35.2648 39.4204 35.1795 39.7724C34.1496 43.9975 30.4532 46.8462 26.0967 46.7956C21.897 46.7463 18.2254 43.7483 17.355 39.5519C17.1363 38.5 17.1858 37.3907 17.1528 36.306C17.1404 35.9102 17.0552 35.7499 16.6371 35.576C15.6539 35.1665 14.6886 34.6748 13.7947 34.0955C9.51664 31.3262 5.94815 27.8215 3.0466 23.6429C2.63268 23.0471 2.68494 22.7691 3.27075 22.3486C3.57053 22.1336 3.86894 21.92 4.16734 21.7036C4.17972 21.6954 4.18384 21.6748 4.22097 21.6104L4.21822 21.6146ZM4.42312 23.232C7.60795 27.5886 11.3951 31.1797 16.0348 33.8544C17.2573 34.5584 18.4358 34.5433 19.6542 33.8435C22.2601 32.3479 24.6102 30.5223 26.7582 28.4337C28.396 26.8422 29.8866 25.1248 31.2274 23.2224C30.4614 22.6883 29.7134 22.1665 28.9502 21.6351C28.8071 21.8392 28.7013 21.9884 28.5967 22.1377C26.2342 25.5014 23.3217 28.2775 19.7532 30.3552C18.4798 31.0961 17.2243 31.1016 15.9399 30.3675C13.5733 29.0144 11.4776 27.3243 9.65141 25.3179C8.6063 24.1702 7.66295 22.9307 6.63985 21.6926C5.95365 22.1692 5.21383 22.6815 4.42174 23.232H4.42312ZM31.9823 35.2322C31.9823 36.7347 33.2035 37.9522 34.7024 37.944C36.1751 37.9358 37.3894 36.7292 37.4059 35.2555C37.4238 33.7654 36.2027 32.5355 34.701 32.5301C33.187 32.5246 31.9837 33.7202 31.9837 35.2322H31.9823ZM21.1228 5.55492C21.3071 5.50013 21.4185 5.46726 21.5313 5.43439C22.5104 5.14404 23.4922 4.86465 24.4658 4.55787C25.8506 4.12097 25.7172 4.48528 25.3088 2.97738C25.2084 2.60759 25.031 2.55144 24.6858 2.661C23.6806 2.97875 22.6658 3.26636 21.6564 3.56903C20.7873 3.83017 20.5182 4.38758 20.8492 5.24128C20.8616 5.27278 20.8671 5.30976 20.8891 5.33305C20.9716 5.41659 21.0596 5.49603 21.1242 5.55492H21.1228ZM14.529 5.55218C14.5992 5.47548 14.7463 5.37824 14.8027 5.24402C14.9168 4.96874 14.9636 4.66469 15.0736 4.38667C15.2152 4.02921 15.0956 3.88404 14.7394 3.78269C13.5637 3.44988 12.3962 3.08694 11.2259 2.73633C10.504 2.51994 10.4999 2.51857 10.2798 3.26499C9.95256 4.37708 9.90031 4.16206 10.9482 4.48939C12.0992 4.84822 13.2584 5.17691 14.5277 5.55355L14.529 5.55218Z" fill="#014898"/>
<path d="M17.8336 12.015C19.4796 10.8468 21.2082 10.6249 22.9959 11.611C24.9609 12.6957 25.7805 14.9199 25.0173 17.3194C23.9653 20.6255 21.7128 22.9689 18.7439 24.6726C18.1732 24.9999 17.5242 25.0136 16.9507 24.6849C13.902 22.9374 11.5877 20.542 10.5948 17.1071C9.82474 14.4391 11.1036 11.9821 13.5569 11.2206C15.0104 10.7701 16.3773 11.0043 17.6259 11.8822C17.6933 11.9301 17.7662 11.9725 17.8322 12.015H17.8336ZM23.9158 15.506C23.8388 14.1981 23.2351 13.1723 21.959 12.6409C20.687 12.1122 19.5236 12.3697 18.5143 13.2956C17.9491 13.8133 17.7208 13.816 17.1584 13.301C16.149 12.3766 14.9925 12.1218 13.7123 12.634C12.1515 13.2586 11.4034 14.8788 11.9108 16.6798C12.7689 19.7202 14.8248 21.8143 17.4788 23.3838C17.6864 23.5057 18.1168 23.4331 18.3547 23.2962C20.1218 22.2896 21.5355 20.8994 22.6397 19.2012C23.3616 18.0904 23.8663 16.9003 23.9158 15.5074V15.506Z" fill="#014898"/>
<path d="M4.21822 21.6146C3.12361 19.7958 2.22702 17.8934 1.70171 15.8363C1.14753 13.6614 0.956385 11.4687 1.69621 9.30481C2.84033 5.95757 5.15469 3.80186 8.57742 2.85001C8.87445 2.76783 9.02159 2.64731 9.11648 2.36107C9.42726 1.42702 10.2262 1.01615 11.1847 1.2928C12.5543 1.68724 13.9212 2.09263 15.284 2.50761C16.281 2.81166 16.7265 3.62382 16.4542 4.61265C16.3387 5.03174 16.2163 5.44946 16.0678 5.85759C15.7708 6.67249 14.9622 7.10391 14.1247 6.86697C12.6891 6.46021 11.2589 6.03016 9.83155 5.59737C9.20036 5.407 8.83457 4.95093 8.66268 4.27573C7.70283 4.51541 6.85299 4.93176 6.08704 5.50424C3.33401 7.56682 2.2944 10.3553 2.70007 13.7053C3.00397 16.2198 3.98582 18.5029 5.27433 20.6654C5.30733 20.7202 5.35546 20.7654 5.42285 20.8449C5.72263 20.638 6.00866 20.4395 6.29469 20.2422C6.93138 19.804 7.24628 19.8629 7.65333 20.5052C9.64591 23.6484 12.1968 26.2533 15.284 28.3378C15.7282 28.6377 16.1971 28.9021 16.6536 29.1815C17.4471 29.6677 18.2337 29.6403 19.0326 29.1787C22.1597 27.3722 24.756 24.9782 26.9163 22.1049C27.3289 21.557 27.6919 20.9722 28.0769 20.4038C28.4166 19.9012 28.7535 19.83 29.2637 20.1669C29.5855 20.3792 29.899 20.6038 30.2098 20.8175C30.2538 20.801 30.2964 20.7983 30.3088 20.7764C31.86 18.2249 32.9711 15.5268 33.0453 12.4946C33.1361 8.77616 30.8011 5.46179 27.3412 4.36339C27.2464 4.33326 27.1473 4.31682 26.9988 4.28121C26.8173 5.20978 26.1284 5.54259 25.3019 5.76309C24.1523 6.06988 23.0178 6.43555 21.8778 6.77658C20.6182 7.15321 19.8701 6.7574 19.4933 5.51657C19.397 5.19609 19.2884 4.87972 19.2045 4.5565C18.9652 3.64299 19.4012 2.80618 20.2936 2.53226C21.7045 2.09811 23.1196 1.68176 24.5387 1.27636C25.4449 1.01751 26.2397 1.42154 26.5368 2.31587C26.6468 2.64594 26.8132 2.77742 27.1446 2.86507C31.9562 4.14152 34.9994 8.71727 34.3778 13.6203C34.0341 16.3431 33.0605 18.8234 31.7046 21.179C31.6207 21.3242 31.5368 21.468 31.4282 21.6543C31.7843 21.9076 32.1377 22.1528 32.4829 22.4089C32.9614 22.7636 33.0233 23.0745 32.6809 23.5648C29.3434 28.3474 25.2084 32.2781 20.1039 35.1583C19.7161 35.3774 19.2595 35.4747 18.8497 35.6609C18.7163 35.7212 18.5307 35.891 18.5376 36.0019C18.6008 37.2168 18.5403 38.4672 18.8154 39.6368C19.6157 43.0457 22.7249 45.3904 26.2604 45.4109C29.7725 45.4315 32.8721 43.0785 33.7797 39.6984C33.814 39.5724 33.8278 39.4396 33.858 39.2725C33.6779 39.2067 33.5115 39.1437 33.3437 39.0849C31.4295 38.4138 30.2703 36.4498 30.6485 34.5159C31.0431 32.4958 32.7854 31.0811 34.8055 31.1386C36.805 31.1961 38.5431 32.7588 38.759 34.6954C38.9901 36.7716 37.7511 38.637 35.7571 39.1588C35.3954 39.2533 35.2648 39.4204 35.1795 39.7724C34.1496 43.9975 30.4532 46.8462 26.0967 46.7956C21.897 46.7463 18.2254 43.7483 17.355 39.5519C17.1363 38.5 17.1858 37.3907 17.1528 36.306C17.1404 35.9102 17.0552 35.7499 16.6371 35.576C15.6539 35.1665 14.6886 34.6748 13.7947 34.0955C9.51664 31.3262 5.94815 27.8215 3.0466 23.6429C2.63268 23.0471 2.68494 22.7691 3.27075 22.3486C3.57053 22.1336 3.86894 21.92 4.16734 21.7036C4.17972 21.6954 4.18384 21.6748 4.22097 21.6104L4.21822 21.6146ZM4.42312 23.232C7.60795 27.5886 11.3951 31.1797 16.0348 33.8544C17.2573 34.5584 18.4358 34.5433 19.6542 33.8435C22.2601 32.3479 24.6102 30.5223 26.7582 28.4337C28.396 26.8422 29.8866 25.1248 31.2274 23.2224C30.4614 22.6883 29.7134 22.1665 28.9502 21.6351C28.8071 21.8392 28.7013 21.9884 28.5967 22.1377C26.2342 25.5014 23.3217 28.2775 19.7532 30.3552C18.4798 31.0961 17.2243 31.1016 15.9399 30.3675C13.5733 29.0144 11.4776 27.3243 9.65141 25.3179C8.6063 24.1702 7.66295 22.9307 6.63985 21.6926C5.95365 22.1692 5.21383 22.6815 4.42174 23.232H4.42312ZM31.9823 35.2322C31.9823 36.7347 33.2035 37.9522 34.7024 37.944C36.1751 37.9358 37.3894 36.7292 37.4059 35.2555C37.4238 33.7654 36.2027 32.5355 34.701 32.5301C33.187 32.5246 31.9837 33.7202 31.9837 35.2322H31.9823ZM21.1228 5.55492C21.3071 5.50013 21.4185 5.46726 21.5313 5.43439C22.5104 5.14404 23.4922 4.86465 24.4658 4.55787C25.8506 4.12097 25.7172 4.48528 25.3088 2.97738C25.2084 2.60759 25.031 2.55144 24.6858 2.661C23.6806 2.97875 22.6658 3.26636 21.6564 3.56903C20.7873 3.83017 20.5182 4.38758 20.8492 5.24128C20.8616 5.27278 20.8671 5.30976 20.8891 5.33305C20.9716 5.41659 21.0596 5.49603 21.1242 5.55492H21.1228ZM14.529 5.55218C14.5992 5.47548 14.7463 5.37824 14.8027 5.24402C14.9168 4.96874 14.9636 4.66469 15.0736 4.38667C15.2152 4.02921 15.0956 3.88404 14.7394 3.78269C13.5637 3.44988 12.3962 3.08694 11.2259 2.73633C10.504 2.51994 10.4999 2.51857 10.2798 3.26499C9.95256 4.37708 9.90031 4.16206 10.9482 4.48939C12.0992 4.84822 13.2584 5.17691 14.5277 5.55355L14.529 5.55218Z" stroke="#014898" stroke-width="0.3"/>
<path d="M17.8336 12.015C19.4796 10.8468 21.2082 10.6249 22.9959 11.611C24.9609 12.6957 25.7805 14.9199 25.0173 17.3194C23.9653 20.6255 21.7128 22.9689 18.7439 24.6726C18.1732 24.9999 17.5242 25.0136 16.9507 24.6849C13.902 22.9374 11.5877 20.542 10.5948 17.1071C9.82474 14.4391 11.1036 11.9821 13.5569 11.2206C15.0104 10.7701 16.3773 11.0043 17.6259 11.8822C17.6933 11.9301 17.7662 11.9725 17.8322 12.015H17.8336ZM23.9158 15.506C23.8388 14.1981 23.2351 13.1723 21.959 12.6409C20.687 12.1122 19.5236 12.3697 18.5143 13.2956C17.9491 13.8133 17.7208 13.816 17.1584 13.301C16.149 12.3766 14.9925 12.1218 13.7123 12.634C12.1515 13.2586 11.4034 14.8788 11.9108 16.6798C12.7689 19.7202 14.8248 21.8143 17.4788 23.3838C17.6864 23.5057 18.1168 23.4331 18.3547 23.2962C20.1218 22.2896 21.5355 20.8994 22.6397 19.2012C23.3616 18.0904 23.8663 16.9003 23.9158 15.5074V15.506Z" stroke="#014898" stroke-width="0.3"/>
</g>
</g>
</svg>
