<svg width="50" height="54" viewBox="0 0 50 54" fill="none" xmlns="http://www.w3.org/2000/svg">
<path d="M8.25221 26.3514C7.12951 26.3514 6.21094 25.436 6.21094 24.3172V10.9678C6.21094 9.84898 7.12951 8.93359 8.25221 8.93359C9.37491 8.93359 10.2935 9.84898 10.2935 10.9678V24.3172C10.2935 25.436 9.37491 26.3514 8.25221 26.3514Z" fill="white"/>
<path d="M24.5826 53.6902C24.1999 53.6902 23.8171 53.5885 23.4854 53.3724L1.03145 39.133C0.0746013 38.5355 -0.206074 37.2768 0.406308 36.3233C1.01869 35.3698 2.26897 35.1028 3.22581 35.7003L24.5826 49.2404L45.9394 35.7003C46.8963 35.1028 48.1466 35.3825 48.7589 36.3233C49.3586 37.2768 49.0779 38.5228 48.1338 39.133L25.6798 53.3724C25.3481 53.5885 24.9654 53.6902 24.5826 53.6902Z" fill="white"/>
<path d="M24.5803 44.7879C23.4576 44.7879 22.5391 43.8725 22.5391 42.7537V33.46C22.5391 32.3412 23.4576 31.4258 24.5803 31.4258C25.703 31.4258 26.6216 32.3412 26.6216 33.46V42.7537C26.6216 43.8725 25.703 44.7879 24.5803 44.7879Z" fill="white"/>
<path d="M8.25221 4.86916C9.37957 4.86916 10.2935 3.95843 10.2935 2.83497C10.2935 1.71152 9.37957 0.800781 8.25221 0.800781C7.12485 0.800781 6.21094 1.71152 6.21094 2.83497C6.21094 3.95843 7.12485 4.86916 8.25221 4.86916Z" fill="white"/>
<path d="M8.25221 34.4903C9.37957 34.4903 10.2935 33.5795 10.2935 32.4561C10.2935 31.3326 9.37957 30.4219 8.25221 30.4219C7.12485 30.4219 6.21094 31.3326 6.21094 32.4561C6.21094 33.5795 7.12485 34.4903 8.25221 34.4903Z" fill="white"/>
<path d="M40.9418 34.623C39.8191 34.623 38.9005 33.7204 38.9005 32.5888L38.875 19.1123C38.875 17.9935 39.7808 17.0781 40.9163 17.0781C42.039 17.0781 42.9575 17.9808 42.9575 19.1123L42.9831 32.5888C42.9831 33.7076 42.0772 34.623 40.9418 34.623Z" fill="white"/>
<path d="M40.9163 4.86916C42.0436 4.86916 42.9575 3.95843 42.9575 2.83497C42.9575 1.71152 42.0436 0.800781 40.9163 0.800781C39.7889 0.800781 38.875 1.71152 38.875 2.83497C38.875 3.95843 39.7889 4.86916 40.9163 4.86916Z" fill="white"/>
<path d="M40.9163 13.002C42.0436 13.002 42.9575 12.0912 42.9575 10.9678C42.9575 9.84433 42.0436 8.93359 40.9163 8.93359C39.7889 8.93359 38.875 9.84433 38.875 10.9678C38.875 12.0912 39.7889 13.002 40.9163 13.002Z" fill="white"/>
<path d="M32.7483 23.3041C31.6256 23.3041 30.707 22.3887 30.707 21.2699V8.17482C30.707 7.05601 31.6256 6.14062 32.7483 6.14062C33.871 6.14062 34.7896 7.05601 34.7896 8.17482V21.2699C34.7896 22.3887 33.871 23.3041 32.7483 23.3041Z" fill="white"/>
<path d="M24.5803 19.2403C25.7077 19.2403 26.6216 18.3295 26.6216 17.2061C26.6216 16.0826 25.7077 15.1719 24.5803 15.1719C23.453 15.1719 22.5391 16.0826 22.5391 17.2061C22.5391 18.3295 23.453 19.2403 24.5803 19.2403Z" fill="white"/>
<path d="M24.5803 27.3731C25.7077 27.3731 26.6216 26.4623 26.6216 25.3389C26.6216 24.2154 25.7077 23.3047 24.5803 23.3047C23.453 23.3047 22.5391 24.2154 22.5391 25.3389C22.5391 26.4623 23.453 27.3731 24.5803 27.3731Z" fill="white"/>
<path d="M32.7483 31.4473C33.8757 31.4473 34.7896 30.5366 34.7896 29.4131C34.7896 28.2896 33.8757 27.3789 32.7483 27.3789C31.6209 27.3789 30.707 28.2896 30.707 29.4131C30.707 30.5366 31.6209 31.4473 32.7483 31.4473Z" fill="white"/>
<path d="M32.7483 39.5762C33.8757 39.5762 34.7896 38.6655 34.7896 37.542C34.7896 36.4186 33.8757 35.5078 32.7483 35.5078C31.6209 35.5078 30.707 36.4186 30.707 37.542C30.707 38.6655 31.6209 39.5762 32.7483 39.5762Z" fill="white"/>
<path d="M16.4124 23.3041C15.2897 23.3041 14.3711 22.3887 14.3711 21.2699V8.17482C14.3711 7.05601 15.2897 6.14062 16.4124 6.14062C17.5351 6.14062 18.4536 7.05601 18.4536 8.17482V21.2699C18.4536 22.3887 17.5351 23.3041 16.4124 23.3041Z" fill="white"/>
<path d="M16.4124 31.4473C17.5397 31.4473 18.4536 30.5366 18.4536 29.4131C18.4536 28.2896 17.5397 27.3789 16.4124 27.3789C15.285 27.3789 14.3711 28.2896 14.3711 29.4131C14.3711 30.5366 15.285 31.4473 16.4124 31.4473Z" fill="white"/>
<path d="M16.4124 39.5762C17.5397 39.5762 18.4536 38.6655 18.4536 37.542C18.4536 36.4186 17.5397 35.5078 16.4124 35.5078C15.285 35.5078 14.3711 36.4186 14.3711 37.542C14.3711 38.6655 15.285 39.5762 16.4124 39.5762Z" fill="white"/>
</svg>
