<svg width="137" height="29" viewBox="0 0 137 29" fill="none" xmlns="http://www.w3.org/2000/svg">
<path d="M4.62839 19.1297C4.62839 20.7118 4.97599 21.9264 5.43033 22.6613C6.02602 23.6238 6.91451 24.0315 7.82031 24.0315C8.98862 24.0315 10.0574 23.7419 12.1171 20.8962C13.7671 18.6153 15.7114 15.4137 17.0196 13.4065L19.2351 10.0061C20.7741 7.6445 22.5554 5.01923 24.5978 3.23975C26.2651 1.78736 28.0637 0.980469 29.8739 0.980469C32.9129 0.980469 35.8077 2.73977 38.0232 6.03937C40.4478 9.65307 41.6247 14.2048 41.6247 18.902C41.6247 21.6944 41.0738 23.7462 40.1362 25.3672C39.2304 26.9349 37.465 28.5011 34.4952 28.5011V24.0315C37.0381 24.0315 37.6727 21.6973 37.6727 19.0259C37.6727 15.2192 36.7842 10.9945 34.8269 7.9759C33.4379 5.83476 31.6379 4.52645 29.6575 4.52645C27.5156 4.52645 25.792 6.14023 23.8549 9.01765C22.8251 10.5464 21.7679 12.4095 20.5808 14.5117L19.274 16.8243C16.649 21.474 15.984 22.533 14.6715 24.2808C12.3709 27.3412 10.4065 28.5011 7.82031 28.5011C4.75243 28.5011 2.81246 27.1741 1.61098 25.1741C0.630183 23.5445 0.148438 21.4063 0.148438 18.9697L4.62839 19.1297Z" fill="white"/>
<path d="M3.68076 6.35492C5.73467 3.19221 8.6987 0.980469 12.0983 0.980469C14.0671 0.980469 16.0244 1.56258 18.0682 3.22967C20.3039 5.05237 22.6866 8.05371 25.6593 13.0002L26.7252 14.7754C29.2984 19.0576 30.7624 21.2607 31.6191 22.2996C32.7211 23.6338 33.4927 24.0315 34.4952 24.0315C37.0381 24.0315 37.6727 21.6973 37.6727 19.0259L41.6247 18.902C41.6247 21.6944 41.0738 23.7462 40.1362 25.3672C39.2304 26.9349 37.465 28.5011 34.4952 28.5011C32.649 28.5011 31.0133 28.1005 29.2046 26.396C27.8142 25.0877 26.1887 22.7636 24.9382 20.6743L21.2183 14.467C19.3519 11.3519 17.6399 9.02917 16.649 7.97734C15.5831 6.84626 14.2128 5.48031 12.0262 5.48031C10.2564 5.48031 8.75351 6.7209 7.49578 8.61853L3.68076 6.35492Z" fill="white"/>
<path d="M12.0262 5.48031C10.2564 5.48031 8.75351 6.7209 7.49578 8.61853C5.71736 11.3 4.62839 15.2941 4.62839 19.1297C4.62839 20.7118 4.97599 21.9264 5.43033 22.6613L1.61098 25.1741C0.630183 23.5445 0.148438 21.4063 0.148438 18.9697C0.148438 14.5391 1.36578 9.92107 3.68076 6.35492C5.73467 3.19221 8.6987 0.980469 12.0983 0.980469L12.0262 5.48031Z" fill="white"/>
<path d="M50.3359 1.85156H55.5183L64.3296 17.7761L73.1424 1.85156H78.2123V28.0178H73.9848V7.96374L66.2566 21.8509H62.2902L54.5635 7.96374V28.0178H50.3359V1.85156ZM91.4589 11.6077C88.427 11.6077 86.601 13.8872 86.164 16.7098H96.4537C96.2417 13.8021 94.5628 11.6077 91.4589 11.6077ZM81.9725 18.3178C81.9725 12.3786 85.8149 8.05595 91.5324 8.05595C97.1562 8.05595 100.514 12.3238 100.514 18.6348V19.7947H86.164C86.6731 22.8652 88.7126 24.9343 92.0012 24.9343C94.6248 24.9343 96.2648 24.1346 97.8196 22.6722L100.065 25.4199C97.9495 27.3636 95.258 28.4846 91.8512 28.4846C85.6621 28.4846 81.9725 23.9761 81.9725 18.3178ZM105.64 11.9823H101.749V8.52424H105.64V2.80542H109.719V8.52424H115.631V11.9823H109.719V20.7471C109.719 23.7398 110.677 24.8032 113.031 24.8032C114.105 24.8032 114.721 24.711 115.631 24.5597V27.9803C114.498 28.3002 113.416 28.4472 112.245 28.4472C107.841 28.4472 105.64 26.0438 105.64 21.2327V11.9823ZM132.807 15.3453C131.988 13.2791 130.16 11.7576 127.474 11.7576C123.984 11.7576 121.75 14.2315 121.75 18.2616C121.75 22.1909 123.807 24.7845 127.307 24.7845C130.059 24.7845 132.024 23.1851 132.807 21.1953V15.3453ZM136.886 28.0178H132.882V25.2888C131.763 26.8953 129.726 28.4846 126.427 28.4846C121.122 28.4846 117.577 24.0482 117.577 18.2616C117.577 12.4204 121.207 8.05595 126.652 8.05595C129.344 8.05595 131.455 9.13085 132.882 11.0285V8.52424H136.886V28.0178Z" fill="white"/>
</svg>
