<svg width="99" height="59" viewBox="0 0 99 59" fill="none" xmlns="http://www.w3.org/2000/svg">
<g clip-path="url(#clip0_2079_430)">
<path d="M28.1722 21.2622C28.1722 22.447 28.3022 23.4083 28.5281 24.1129C28.7873 24.8176 29.1115 25.5858 29.565 26.4183C29.7087 26.638 29.787 26.8934 29.7908 27.1551C29.7908 27.4753 29.5975 27.7954 29.1757 28.1155L27.137 29.4605C26.8453 29.6527 26.5536 29.7493 26.2944 29.7493C25.971 29.7493 25.6476 29.5892 25.3234 29.3004C24.8873 28.8367 24.4971 28.3328 24.1582 27.7954C23.7964 27.1801 23.4616 26.5497 23.1547 25.9059C20.6292 28.8524 17.4562 30.3252 13.6363 30.3252C10.9167 30.3252 8.748 29.557 7.1619 28.0198C5.57493 26.4827 4.76562 24.4331 4.76562 21.8711C4.76562 19.1482 5.73749 16.9386 7.71199 15.2735C9.68648 13.6085 12.3095 12.7759 15.6433 12.7759C16.7444 12.7759 17.8771 12.8716 19.0748 13.0317C20.2733 13.1918 21.5036 13.4484 22.7979 13.7363V11.3988C22.7979 8.96472 22.2795 7.26748 21.2768 6.27488C20.2399 5.28228 18.4922 4.8012 16.0001 4.8012C14.8666 4.8012 13.7014 4.92995 12.5028 5.2179C11.3051 5.50585 10.1399 5.85818 9.00722 6.30706C8.48878 6.53064 8.10038 6.65939 7.87367 6.72289C7.64696 6.78727 7.48527 6.81859 7.35522 6.81859C6.90268 6.81859 6.67597 6.49845 6.67597 5.82686V4.25662C6.67597 3.74336 6.741 3.35972 6.90268 3.13527C7.06437 2.91083 7.3561 2.68725 7.80864 2.46281C8.9422 1.88604 10.3016 1.40584 11.8886 1.02132C13.4747 0.605493 15.1574 0.413237 16.9386 0.413237C20.7909 0.413237 23.6081 1.27795 25.4209 3.00739C27.2012 4.73683 28.108 7.3623 28.108 10.8855V21.2613L28.1722 21.2622ZM15.0282 26.1303C16.0968 26.1303 17.1978 25.9389 18.363 25.5536C19.5282 25.1699 20.5642 24.4653 21.4385 23.504C21.957 22.895 22.3454 22.2234 22.5396 21.4544C22.7329 20.6863 22.8629 19.758 22.8629 18.668V17.3231C21.881 17.0869 20.8865 16.9054 19.8841 16.7794C18.8748 16.6526 17.8584 16.5884 16.841 16.5871C14.6724 16.5871 13.0863 17.0029 12.0169 17.8677C10.9492 18.7324 10.4316 19.9494 10.4316 21.551C10.4316 23.056 10.82 24.1765 11.6293 24.9455C12.4061 25.7458 13.5397 26.1303 15.0282 26.1303ZM41.0253 29.5892C40.4418 29.5892 40.0534 29.4935 39.7951 29.2691C39.5358 29.0768 39.3091 28.6279 39.1149 28.0198L31.5069 3.26402C31.3127 2.62375 31.2152 2.20792 31.2152 1.98347C31.2152 1.47021 31.4744 1.18313 31.992 1.18313H35.1651C35.7802 1.18313 36.2011 1.27882 36.4278 1.50327C36.687 1.69466 36.8812 2.14354 37.0754 2.75163L42.5147 23.952L47.5639 2.7525C47.7255 2.11223 47.9197 1.69639 48.179 1.50414C48.4373 1.31188 48.8907 1.18313 49.4733 1.18313H52.0638C52.6789 1.18313 53.0998 1.27882 53.3582 1.50414C53.6174 1.69552 53.8441 2.14441 53.9733 2.7525L59.0883 24.2095L64.6902 2.75163C64.8844 2.11136 65.1111 1.69552 65.3378 1.50327C65.597 1.31101 66.0179 1.18226 66.6005 1.18226H69.611C70.1295 1.18226 70.4203 1.43889 70.4203 1.9826C70.4203 2.14354 70.3878 2.30361 70.3553 2.49587C70.3237 2.68725 70.2587 2.94389 70.1286 3.29621L62.3273 28.052C62.1331 28.6923 61.9055 29.109 61.6472 29.3004C61.3879 29.4926 60.967 29.6214 60.417 29.6214H57.6332C57.018 29.6214 56.5963 29.5257 56.3379 29.3013C56.0787 29.0768 55.852 28.6601 55.7228 28.0198L50.7053 7.36317L45.7185 27.9877C45.556 28.6279 45.3618 29.0446 45.1034 29.2691C44.8442 29.4926 44.3917 29.5892 43.8082 29.5892H41.0235H41.0253ZM82.6258 30.4539C80.9422 30.4539 79.2585 30.2617 77.6399 29.8772C76.0213 29.4926 74.7577 29.0768 73.9168 28.5966C73.3983 28.3078 73.0425 27.9877 72.9133 27.6997C72.7873 27.417 72.7212 27.1118 72.7191 26.8028V25.1699C72.7191 24.4975 72.9783 24.1765 73.4634 24.1765C73.6576 24.1765 73.8518 24.2086 74.046 24.2721C74.2402 24.3365 74.5319 24.4653 74.8553 24.5932C75.9989 25.0906 77.1928 25.4662 78.4167 25.7136C79.712 25.9703 80.9738 26.0981 82.269 26.0981C84.3086 26.0981 85.8955 25.7458 86.9966 25.0412C88.0967 24.3365 88.6793 23.3117 88.6793 21.999C88.6793 21.103 88.3876 20.3661 87.805 19.7572C87.2224 19.1482 86.1223 18.6045 84.5362 18.0921L79.8411 16.6506C77.4774 15.9147 75.7296 14.8255 74.6611 13.384C73.5934 11.9747 73.0424 10.4062 73.0424 8.74028C73.0424 7.39536 73.3342 6.2105 73.9168 5.18571C74.495 4.15518 75.29 3.25955 76.248 2.55937C77.219 1.82341 78.3201 1.27882 79.6144 0.894312C80.9097 0.5098 82.269 0.349731 83.6935 0.349731C84.4052 0.349731 85.1504 0.381919 85.863 0.478482C86.6073 0.574175 87.2866 0.702056 87.9667 0.830807C88.5884 0.97848 89.2042 1.1494 89.8129 1.3432C90.3955 1.53459 90.848 1.72684 91.1723 1.9191C91.6257 2.17573 91.9491 2.43236 92.1433 2.71944C92.3375 2.97607 92.435 3.3284 92.435 3.77642V5.28141C92.435 5.95474 92.1758 6.30706 91.6898 6.30706C91.4315 6.30706 91.0106 6.17831 90.4596 5.92255C88.6143 5.09002 86.5432 4.67332 84.2444 4.67332C82.3991 4.67332 80.9422 4.96127 79.9387 5.56936C78.9352 6.17831 78.4167 7.10741 78.4167 8.42014C78.4167 9.31705 78.7401 10.0861 79.3877 10.6942C80.0353 11.3031 81.233 11.9112 82.9492 12.4558L87.5467 13.8964C89.877 14.6332 91.5607 15.658 92.5642 16.9708C93.5677 18.2844 94.0536 19.7894 94.0536 21.4544C94.0536 22.8315 93.7619 24.0808 93.2118 25.1691C92.6292 26.2582 91.8524 27.2195 90.848 27.9877C89.8445 28.788 88.6468 29.3648 87.2549 29.7815C85.798 30.2295 84.2761 30.4539 82.6258 30.4539Z" fill="white"/>
<path fill-rule="evenodd" clip-rule="evenodd" d="M88.7451 46.0162C78.0941 53.7969 62.6189 57.9291 49.3133 57.9291C30.6668 57.9291 13.8638 51.1079 1.17328 39.7709C0.169775 38.8749 1.07662 37.657 2.27432 38.3616C16 46.2398 32.933 51.0122 50.4459 51.0122C62.263 51.0122 75.2453 48.5782 87.1915 43.5821C88.9718 42.7818 90.4929 44.7348 88.7451 46.0162Z" fill="white"/>
<path fill-rule="evenodd" clip-rule="evenodd" d="M93.1788 41.0193C91.8186 39.2899 84.1789 40.1868 80.715 40.6026C79.6781 40.7314 79.5164 39.8345 80.4558 39.162C86.5418 34.9341 96.5452 36.152 97.7113 37.5613C98.8765 39.0019 97.387 48.8975 91.6894 53.6378C90.8151 54.3737 89.9732 53.9892 90.3625 53.0288C91.6569 49.8579 94.5382 42.7166 93.1788 41.0193Z" fill="white"/>
</g>
<defs>
<clipPath id="clip0_2079_430">
<rect width="98.417" height="58.2858" fill="white" transform="translate(0.201172)"/>
</clipPath>
</defs>
</svg>
