<svg width="60" height="60" viewBox="0 0 60 60" fill="none" xmlns="http://www.w3.org/2000/svg">
<g clip-path="url(#clip0_2123_2)">
<mask id="mask0_2123_2" style="mask-type:luminance" maskUnits="userSpaceOnUse" x="0" y="0" width="60" height="60">
<path d="M60 0H0V59.1892H60V0Z" fill="white"/>
</mask>
<g mask="url(#mask0_2123_2)">
<path d="M33.7176 37.4865C36.1424 37.4865 38.4477 37.5038 40.753 37.4865C42.2045 37.4693 43.434 37.9178 44.4244 39.0046C45.0733 39.7291 45.5514 40.5744 45.5514 41.5577C45.5685 44.4214 45.6197 47.3023 45.4148 50.1487C45.2441 52.5984 44.2536 54.8237 42.768 56.7731C41.1628 58.8949 38.9771 60.0508 36.3303 60.0853C33.1541 60.137 29.9779 60.1025 26.7847 60.0508C24.7697 60.0163 22.8742 59.4297 21.0641 58.5672C20.8934 58.4809 20.7226 58.4119 20.5518 58.3429C19.1345 60.4648 16.4877 60.3958 14.4215 59.8438C13.0042 59.4642 12.0479 58.0324 12.0479 56.4971C12.0137 51.3908 12.0137 46.2845 12.0479 41.161C12.065 39.1254 13.636 37.59 15.651 37.521C16.2486 37.5038 16.8463 37.5038 17.444 37.521C18.571 37.5555 19.4931 38.0558 20.2445 38.8838C23.6939 35.8304 25.9821 32.1042 27.0067 27.6017C27.6214 24.9106 29.7901 23.8928 32.2149 25.1521C34.7593 26.4632 36.04 29.3786 35.2715 32.2077C34.8788 33.6741 34.4007 35.1404 33.9738 36.6067C33.8713 36.8482 33.803 37.1242 33.7176 37.4865ZM31.2245 57.9461C31.2245 57.8944 31.2245 57.8426 31.2416 57.7909C32.7955 57.7909 34.3494 57.8081 35.9204 57.7909C38.277 57.7564 40.1041 56.7386 41.3336 54.6857C42.4436 52.8399 43.1266 50.856 43.1608 48.6996C43.1949 46.6123 43.1266 44.5249 43.0754 42.4375C43.0241 40.7642 42.1703 39.9879 40.5139 39.9879C37.7476 39.9879 34.9642 39.9707 32.1978 39.9879C31.566 39.9879 31.0879 39.7809 30.9 39.1599C30.8147 38.8838 30.8659 38.5216 30.9513 38.2111C31.566 36.0892 32.1978 33.9673 32.8126 31.8282C33.3761 29.9133 32.5906 28.0675 30.9 27.2567C29.8755 26.7564 29.4144 26.9807 29.1583 28.102C28.4752 31.0692 27.3482 33.8638 25.5039 36.279C24.2403 37.935 22.7205 39.4186 21.3374 40.9885C21.1666 41.1782 20.9788 41.4542 20.9788 41.6785C20.9617 46.2845 20.9617 50.9078 20.9788 55.5138C20.9788 55.7035 21.1324 55.9795 21.3032 56.0485C22.4644 56.5316 23.6085 57.1699 24.8209 57.3596C26.9213 57.7391 29.0729 57.7736 31.2245 57.9461ZM18.6052 48.8204C18.6052 46.6295 18.6052 44.4214 18.6052 42.2305C18.6052 40.0224 18.4344 39.8499 16.2316 39.8499C14.763 39.8499 14.3703 40.2467 14.3703 41.713C14.3703 46.4398 14.3703 51.1493 14.3703 55.876C14.3703 56.083 14.3703 56.3073 14.3873 56.5143C14.4727 57.2561 14.9338 57.6874 15.651 57.7219C16.0267 57.7391 16.4194 57.7219 16.7951 57.7219C18.2124 57.7219 18.6052 57.3251 18.6052 55.8588C18.6052 53.5127 18.6052 51.1665 18.6052 48.8204Z" fill="white"/>
<path d="M25.1112 22.219C23.4719 22.1155 22.2765 20.6664 22.5498 19.0276C22.7547 17.7338 23.0108 16.44 23.1987 15.1461C23.2328 14.9046 23.1304 14.5423 22.9596 14.3698C22.0887 13.4555 21.1837 12.5585 20.2957 11.6614C19.5273 10.9024 19.237 10.0054 19.5443 8.95305C19.8688 7.84899 20.6202 7.22795 21.7301 7.05544C23.0108 6.84843 24.3086 6.69317 25.5893 6.46891C25.8284 6.43441 26.1187 6.21015 26.2382 5.98589C26.8188 4.88182 27.3482 3.76051 27.8946 2.6392C28.3898 1.58689 29.1924 0.983109 30.3536 1.00036C31.5148 1.00036 32.3003 1.63865 32.7955 2.6737C33.3078 3.76051 33.8542 4.83007 34.3494 5.93413C34.5373 6.36541 34.8276 6.52066 35.2545 6.58967C36.484 6.74493 37.6964 6.93469 38.9259 7.12445C39.9846 7.27971 40.7359 7.86624 41.0775 8.9013C41.419 9.93635 41.1628 10.8507 40.4115 11.6269C39.5065 12.5412 38.5843 13.4383 37.6964 14.3698C37.5256 14.5596 37.4061 14.8874 37.4232 15.1461C37.5768 16.3882 37.7817 17.613 37.9696 18.8551C38.1404 19.9764 37.9013 20.9597 36.945 21.6497C35.9887 22.3398 34.9983 22.288 33.9908 21.736C32.9321 21.1667 31.8734 20.6147 30.8317 20.0454C30.4902 19.8556 30.217 19.8211 29.8413 20.0282C28.7143 20.6492 27.5872 21.2357 26.4261 21.805C25.9992 21.9775 25.5381 22.0638 25.1112 22.219ZM22.0033 9.38432C22.2595 9.71209 22.4302 10.0054 22.6522 10.2296C23.6426 11.2302 24.6501 12.2307 25.6747 13.214C26.1358 13.6625 26.2724 14.1628 26.1528 14.7839C25.8796 16.2502 25.6406 17.7165 25.3844 19.1829C25.3503 19.3381 25.4015 19.5106 25.4186 19.6659C25.5893 19.6486 25.7942 19.6659 25.9309 19.5796C27.2628 18.8896 28.5947 18.1996 29.8925 17.475C30.4561 17.1645 30.9513 17.1645 31.5148 17.475C32.7613 18.165 34.0421 18.8378 35.3057 19.4934C35.4935 19.5969 35.7326 19.6314 35.9546 19.7004C35.9717 19.4589 36.0571 19.2001 36.0229 18.9758C35.8009 17.6303 35.5789 16.3019 35.3057 14.9736C35.152 14.2146 35.3057 13.6108 35.9034 13.0588C36.8938 12.1445 37.8501 11.1784 38.7892 10.2124C38.96 10.0399 39.0454 9.79835 39.182 9.59134C38.96 9.48783 38.738 9.34982 38.516 9.31532C37.0816 9.09106 35.6472 8.86679 34.2128 8.67703C33.6152 8.60803 33.2566 8.29751 32.9833 7.77998C32.3344 6.46891 31.6514 5.17509 30.9854 3.88127C30.883 3.67426 30.678 3.50175 30.5244 3.32924C30.3707 3.519 30.1828 3.69151 30.0804 3.91577C29.3973 5.20959 28.7314 6.50341 28.0825 7.81449C27.8263 8.34927 27.4506 8.60803 26.8359 8.67703C25.2649 8.88404 23.6939 9.14281 22.0033 9.38432Z" fill="white"/>
<path d="M54.5164 28.8085C54.1237 28.6705 53.6968 28.5842 53.3211 28.3945C52.399 27.9459 51.511 27.4284 50.5889 26.9799C50.384 26.8764 50.0595 26.8764 49.8546 26.9799C48.9496 27.4112 48.0616 27.8942 47.1907 28.3772C46.2686 28.8775 45.3465 28.912 44.4927 28.2737C43.6389 27.6354 43.3828 26.7556 43.6047 25.6861C43.7926 24.7373 43.9804 23.7885 44.0999 22.8224C44.1341 22.5636 44.0146 22.1841 43.8267 21.9944C43.1266 21.2353 42.3753 20.528 41.641 19.8035C40.9067 19.0789 40.6164 18.2164 40.975 17.2158C41.3165 16.2498 42.0679 15.7668 43.0583 15.646C44.0316 15.5253 45.005 15.3527 45.9783 15.232C46.354 15.1802 46.576 15.0077 46.7297 14.6627C47.1395 13.7829 47.5664 12.9204 48.0104 12.0578C48.4715 11.1263 49.2399 10.626 50.2645 10.626C51.272 10.6432 52.0062 11.1435 52.4673 12.0406C52.8942 12.9031 53.3382 13.7657 53.7309 14.6455C53.9017 15.0422 54.1578 15.1802 54.5506 15.232C55.5069 15.3527 56.4461 15.508 57.4023 15.6288C58.3927 15.7668 59.127 16.2498 59.4515 17.2331C59.793 18.2337 59.5198 19.0962 58.7855 19.8207C58.0854 20.5108 57.4023 21.2353 56.6851 21.9081C56.3607 22.2186 56.2753 22.5119 56.3607 22.9259C56.5485 23.9437 56.7364 24.9615 56.89 25.9793C57.095 27.4802 56.0191 28.7395 54.5164 28.8085ZM57.0266 18.0611C55.9508 17.8714 54.8238 17.6126 53.6797 17.5091C52.6893 17.4229 52.1599 16.9571 51.7842 16.0773C51.3403 15.025 50.7767 14.0244 50.2303 12.9031C49.7351 13.8864 49.2057 14.749 48.8642 15.6633C48.369 17.0433 47.4469 17.5609 46.0466 17.6126C45.1416 17.6471 44.2366 17.8714 43.1778 18.0266C44.0658 18.9237 44.8172 19.7517 45.6539 20.4763C46.5419 21.2353 46.8321 22.0461 46.4735 23.2019C46.1662 24.168 46.0637 25.203 45.8417 26.3243C47.02 25.7378 48.0958 25.2548 49.1033 24.6683C49.8888 24.2197 50.5548 24.237 51.3061 24.6855C52.3136 25.272 53.3723 25.7896 54.4823 26.3761C54.2774 25.0823 54.1237 23.892 53.8846 22.7189C53.7309 21.9081 53.8846 21.2871 54.4994 20.7005C55.4215 19.8725 56.1899 18.9582 57.0266 18.0611Z" fill="white"/>
<path d="M14.7118 28.8261C14.302 28.6881 13.858 28.5674 13.4652 28.3776C12.5773 27.9463 11.7064 27.4806 10.8696 26.9975C10.5281 26.8078 10.272 26.825 9.93044 27.0148C9.07663 27.4978 8.18866 27.9463 7.33486 28.3949C6.42982 28.8779 5.52478 28.8951 4.68804 28.2741C3.85131 27.6531 3.56101 26.8078 3.76593 25.7727C3.95376 24.8067 4.1416 23.8234 4.26114 22.8401C4.29529 22.564 4.17575 22.2018 4.00499 22.012C3.30487 21.253 2.55351 20.5457 1.81924 19.8211C1.08496 19.0966 0.794663 18.2341 1.15326 17.2335C1.49479 16.2674 2.22907 15.7844 3.23656 15.6464C4.20991 15.5257 5.18325 15.3531 6.1566 15.2324C6.53227 15.1806 6.75427 15.0254 6.92503 14.6631C7.30071 13.8351 7.72761 13.0415 8.10328 12.2307C8.56434 11.2129 9.3157 10.6091 10.4427 10.6263C11.5698 10.6263 12.304 11.2474 12.7651 12.2652C13.1408 13.0588 13.5677 13.8351 13.9092 14.6459C14.08 15.0254 14.319 15.1979 14.7118 15.2496C15.6851 15.3704 16.6585 15.5257 17.6318 15.6637C18.6222 15.8017 19.3565 16.3019 19.681 17.268C20.0225 18.2513 19.7493 19.0966 19.0321 19.8039C18.2978 20.5284 17.5806 21.2702 16.8292 21.9603C16.5219 22.2535 16.4706 22.5468 16.5389 22.9263C16.7268 23.9441 16.9146 24.9619 17.0854 25.9797C17.3074 27.4461 16.2145 28.7399 14.7118 28.8261ZM3.39025 18.0098C4.4319 19.0448 5.33694 20.0109 6.29321 20.9252C6.78842 21.4082 6.95918 21.9085 6.78842 22.5985C6.5152 23.7889 6.31028 24.9964 6.05414 26.3075C6.83965 25.9107 7.5227 25.5485 8.20574 25.2207C10.8184 23.9614 9.94752 23.8751 12.6114 25.2552C13.2774 25.6002 13.9434 25.9452 14.6947 26.342C14.4727 24.9792 14.302 23.7371 14.0629 22.5123C13.9434 21.805 14.08 21.253 14.6093 20.7699C15.2582 20.1834 15.8559 19.5451 16.4877 18.9241C16.7439 18.6653 17.0341 18.4238 17.4269 18.0615C16.0096 17.82 14.8313 17.5958 13.6189 17.4405C12.8505 17.3543 12.3894 17.0092 12.065 16.3019C11.5527 15.1634 10.9721 14.0766 10.3915 12.869C9.75968 14.1283 9.14493 15.2841 8.58142 16.4745C8.3082 17.061 7.8813 17.337 7.24948 17.4233C6.03706 17.613 4.7905 17.8028 3.39025 18.0098Z" fill="white"/>
<path d="M33.7176 37.4865C36.1424 37.4865 38.4477 37.5038 40.753 37.4865C42.2045 37.4693 43.434 37.9178 44.4244 39.0046C45.0733 39.7291 45.5514 40.5744 45.5514 41.5577C45.5685 44.4214 45.6197 47.3023 45.4148 50.1487C45.2441 52.5984 44.2536 54.8237 42.768 56.7731C41.1628 58.8949 38.9771 60.0508 36.3303 60.0853C33.1541 60.137 29.9779 60.1025 26.7847 60.0508C24.7697 60.0163 22.8742 59.4297 21.0641 58.5672C20.8934 58.4809 20.7226 58.4119 20.5518 58.3429C19.1345 60.4648 16.4877 60.3958 14.4215 59.8438C13.0042 59.4642 12.0479 58.0324 12.0479 56.4971C12.0137 51.3908 12.0137 46.2845 12.0479 41.161C12.065 39.1254 13.636 37.59 15.651 37.521C16.2486 37.5038 16.8463 37.5038 17.444 37.521C18.571 37.5555 19.4931 38.0558 20.2445 38.8838C23.6939 35.8304 25.9821 32.1042 27.0067 27.6017C27.6214 24.9106 29.7901 23.8928 32.2149 25.1521C34.7593 26.4632 36.04 29.3786 35.2715 32.2077C34.8788 33.6741 34.4007 35.1404 33.9738 36.6067C33.8713 36.8482 33.803 37.1242 33.7176 37.4865ZM31.2245 57.9461C31.2245 57.8944 31.2245 57.8426 31.2416 57.7909C32.7955 57.7909 34.3494 57.8081 35.9204 57.7909C38.277 57.7564 40.1041 56.7386 41.3336 54.6857C42.4436 52.8399 43.1266 50.856 43.1608 48.6996C43.1949 46.6123 43.1266 44.5249 43.0754 42.4375C43.0241 40.7642 42.1703 39.9879 40.5139 39.9879C37.7476 39.9879 34.9642 39.9707 32.1978 39.9879C31.566 39.9879 31.0879 39.7809 30.9 39.1599C30.8147 38.8838 30.8659 38.5216 30.9513 38.2111C31.566 36.0892 32.1978 33.9673 32.8126 31.8282C33.3761 29.9133 32.5906 28.0675 30.9 27.2567C29.8755 26.7564 29.4144 26.9807 29.1583 28.102C28.4752 31.0692 27.3482 33.8638 25.5039 36.279C24.2403 37.935 22.7205 39.4186 21.3374 40.9885C21.1666 41.1782 20.9788 41.4542 20.9788 41.6785C20.9617 46.2845 20.9617 50.9078 20.9788 55.5138C20.9788 55.7035 21.1324 55.9795 21.3032 56.0485C22.4644 56.5316 23.6085 57.1699 24.8209 57.3596C26.9213 57.7391 29.0729 57.7736 31.2245 57.9461ZM18.6052 48.8204C18.6052 46.6295 18.6052 44.4214 18.6052 42.2305C18.6052 40.0224 18.4344 39.8499 16.2316 39.8499C14.763 39.8499 14.3703 40.2467 14.3703 41.713C14.3703 46.4398 14.3703 51.1493 14.3703 55.876C14.3703 56.083 14.3703 56.3073 14.3873 56.5143C14.4727 57.2561 14.9338 57.6874 15.651 57.7219C16.0267 57.7391 16.4194 57.7219 16.7951 57.7219C18.2124 57.7219 18.6052 57.3251 18.6052 55.8588C18.6052 53.5127 18.6052 51.1665 18.6052 48.8204Z" stroke="white"/>
<path d="M25.1112 22.219C23.4719 22.1155 22.2765 20.6664 22.5498 19.0276C22.7547 17.7338 23.0108 16.44 23.1987 15.1461C23.2328 14.9046 23.1304 14.5423 22.9596 14.3698C22.0887 13.4555 21.1837 12.5585 20.2957 11.6614C19.5273 10.9024 19.237 10.0054 19.5443 8.95305C19.8688 7.84899 20.6202 7.22795 21.7301 7.05544C23.0108 6.84843 24.3086 6.69317 25.5893 6.46891C25.8284 6.43441 26.1187 6.21015 26.2382 5.98589C26.8188 4.88182 27.3482 3.76051 27.8946 2.6392C28.3898 1.58689 29.1924 0.983109 30.3536 1.00036C31.5148 1.00036 32.3003 1.63865 32.7955 2.6737C33.3078 3.76051 33.8542 4.83007 34.3494 5.93413C34.5373 6.36541 34.8276 6.52066 35.2545 6.58967C36.484 6.74493 37.6964 6.93469 38.9259 7.12445C39.9846 7.27971 40.7359 7.86624 41.0775 8.9013C41.419 9.93635 41.1628 10.8507 40.4115 11.6269C39.5065 12.5412 38.5843 13.4383 37.6964 14.3698C37.5256 14.5596 37.4061 14.8874 37.4232 15.1461C37.5768 16.3882 37.7817 17.613 37.9696 18.8551C38.1404 19.9764 37.9013 20.9597 36.945 21.6497C35.9887 22.3398 34.9983 22.288 33.9908 21.736C32.9321 21.1667 31.8734 20.6147 30.8317 20.0454C30.4902 19.8556 30.217 19.8211 29.8413 20.0282C28.7143 20.6492 27.5872 21.2357 26.4261 21.805C25.9992 21.9775 25.5381 22.0638 25.1112 22.219ZM22.0033 9.38432C22.2595 9.71209 22.4302 10.0054 22.6522 10.2296C23.6426 11.2302 24.6501 12.2307 25.6747 13.214C26.1358 13.6625 26.2724 14.1628 26.1528 14.7839C25.8796 16.2502 25.6406 17.7165 25.3844 19.1829C25.3503 19.3381 25.4015 19.5106 25.4186 19.6659C25.5893 19.6486 25.7942 19.6659 25.9309 19.5796C27.2628 18.8896 28.5947 18.1996 29.8925 17.475C30.4561 17.1645 30.9513 17.1645 31.5148 17.475C32.7613 18.165 34.0421 18.8378 35.3057 19.4934C35.4935 19.5969 35.7326 19.6314 35.9546 19.7004C35.9717 19.4589 36.0571 19.2001 36.0229 18.9758C35.8009 17.6303 35.5789 16.3019 35.3057 14.9736C35.152 14.2146 35.3057 13.6108 35.9034 13.0588C36.8938 12.1445 37.8501 11.1784 38.7892 10.2124C38.96 10.0399 39.0454 9.79835 39.182 9.59134C38.96 9.48783 38.738 9.34982 38.516 9.31532C37.0816 9.09106 35.6472 8.86679 34.2128 8.67703C33.6152 8.60803 33.2566 8.29751 32.9833 7.77998C32.3344 6.46891 31.6514 5.17509 30.9854 3.88127C30.883 3.67426 30.678 3.50175 30.5244 3.32924C30.3707 3.519 30.1828 3.69151 30.0804 3.91577C29.3973 5.20959 28.7314 6.50341 28.0825 7.81449C27.8263 8.34927 27.4506 8.60803 26.8359 8.67703C25.2649 8.88404 23.6939 9.14281 22.0033 9.38432Z" stroke="white"/>
<path d="M54.5164 28.8085C54.1237 28.6705 53.6968 28.5842 53.3211 28.3945C52.399 27.9459 51.511 27.4284 50.5889 26.9799C50.384 26.8764 50.0595 26.8764 49.8546 26.9799C48.9496 27.4112 48.0616 27.8942 47.1907 28.3772C46.2686 28.8775 45.3465 28.912 44.4927 28.2737C43.6389 27.6354 43.3828 26.7556 43.6047 25.6861C43.7926 24.7373 43.9804 23.7885 44.0999 22.8224C44.1341 22.5636 44.0146 22.1841 43.8267 21.9944C43.1266 21.2353 42.3753 20.528 41.641 19.8035C40.9067 19.0789 40.6164 18.2164 40.975 17.2158C41.3165 16.2498 42.0679 15.7668 43.0583 15.646C44.0316 15.5253 45.005 15.3527 45.9783 15.232C46.354 15.1802 46.576 15.0077 46.7297 14.6627C47.1395 13.7829 47.5664 12.9204 48.0104 12.0578C48.4715 11.1263 49.2399 10.626 50.2645 10.626C51.272 10.6432 52.0062 11.1435 52.4673 12.0406C52.8942 12.9031 53.3382 13.7657 53.7309 14.6455C53.9017 15.0422 54.1578 15.1802 54.5506 15.232C55.5069 15.3527 56.4461 15.508 57.4023 15.6288C58.3927 15.7668 59.127 16.2498 59.4515 17.2331C59.793 18.2337 59.5198 19.0962 58.7855 19.8207C58.0854 20.5108 57.4023 21.2353 56.6851 21.9081C56.3607 22.2186 56.2753 22.5119 56.3607 22.9259C56.5485 23.9437 56.7364 24.9615 56.89 25.9793C57.095 27.4802 56.0191 28.7395 54.5164 28.8085ZM57.0266 18.0611C55.9508 17.8714 54.8238 17.6126 53.6797 17.5091C52.6893 17.4229 52.1599 16.9571 51.7842 16.0773C51.3403 15.025 50.7767 14.0244 50.2303 12.9031C49.7351 13.8864 49.2057 14.749 48.8642 15.6633C48.369 17.0433 47.4469 17.5609 46.0466 17.6126C45.1416 17.6471 44.2366 17.8714 43.1778 18.0266C44.0658 18.9237 44.8172 19.7517 45.6539 20.4763C46.5419 21.2353 46.8321 22.0461 46.4735 23.2019C46.1662 24.168 46.0637 25.203 45.8417 26.3243C47.02 25.7378 48.0958 25.2548 49.1033 24.6683C49.8888 24.2197 50.5548 24.237 51.3061 24.6855C52.3136 25.272 53.3723 25.7896 54.4823 26.3761C54.2774 25.0823 54.1237 23.892 53.8846 22.7189C53.7309 21.9081 53.8846 21.2871 54.4994 20.7005C55.4215 19.8725 56.1899 18.9582 57.0266 18.0611Z" stroke="white"/>
<path d="M14.7118 28.8261C14.302 28.6881 13.858 28.5674 13.4652 28.3776C12.5773 27.9463 11.7064 27.4806 10.8696 26.9975C10.5281 26.8078 10.272 26.825 9.93044 27.0148C9.07663 27.4978 8.18866 27.9463 7.33486 28.3949C6.42982 28.8779 5.52478 28.8951 4.68804 28.2741C3.85131 27.6531 3.56101 26.8078 3.76593 25.7727C3.95376 24.8067 4.1416 23.8234 4.26114 22.8401C4.29529 22.564 4.17575 22.2018 4.00499 22.012C3.30487 21.253 2.55351 20.5457 1.81924 19.8211C1.08496 19.0966 0.794663 18.2341 1.15326 17.2335C1.49479 16.2674 2.22907 15.7844 3.23656 15.6464C4.20991 15.5257 5.18325 15.3531 6.1566 15.2324C6.53227 15.1806 6.75427 15.0254 6.92503 14.6631C7.30071 13.8351 7.72761 13.0415 8.10328 12.2307C8.56434 11.2129 9.3157 10.6091 10.4427 10.6263C11.5698 10.6263 12.304 11.2474 12.7651 12.2652C13.1408 13.0588 13.5677 13.8351 13.9092 14.6459C14.08 15.0254 14.319 15.1979 14.7118 15.2496C15.6851 15.3704 16.6585 15.5257 17.6318 15.6637C18.6222 15.8017 19.3565 16.3019 19.681 17.268C20.0225 18.2513 19.7493 19.0966 19.0321 19.8039C18.2978 20.5284 17.5806 21.2702 16.8292 21.9603C16.5219 22.2535 16.4706 22.5468 16.5389 22.9263C16.7268 23.9441 16.9146 24.9619 17.0854 25.9797C17.3074 27.4461 16.2145 28.7399 14.7118 28.8261ZM3.39025 18.0098C4.4319 19.0448 5.33694 20.0109 6.29321 20.9252C6.78842 21.4082 6.95918 21.9085 6.78842 22.5985C6.5152 23.7889 6.31028 24.9964 6.05414 26.3075C6.83965 25.9107 7.5227 25.5485 8.20574 25.2207C10.8184 23.9614 9.94752 23.8751 12.6114 25.2552C13.2774 25.6002 13.9434 25.9452 14.6947 26.342C14.4727 24.9792 14.302 23.7371 14.0629 22.5123C13.9434 21.805 14.08 21.253 14.6093 20.7699C15.2582 20.1834 15.8559 19.5451 16.4877 18.9241C16.7439 18.6653 17.0341 18.4238 17.4269 18.0615C16.0096 17.82 14.8313 17.5958 13.6189 17.4405C12.8505 17.3543 12.3894 17.0092 12.065 16.3019C11.5527 15.1634 10.9721 14.0766 10.3915 12.869C9.75968 14.1283 9.14493 15.2841 8.58142 16.4745C8.3082 17.061 7.8813 17.337 7.24948 17.4233C6.03706 17.613 4.7905 17.8028 3.39025 18.0098Z" stroke="white"/>
</g>
</g>
<defs>
<clipPath id="clip0_2123_2">
<rect width="60" height="60" fill="white"/>
</clipPath>
</defs>
</svg>
