<svg width="40" height="40" viewBox="0 0 40 40" fill="none" xmlns="http://www.w3.org/2000/svg">
<g clip-path="url(#clip0_2056_5759)">
<path d="M0.000651042 36.9516C0.031901 36.8675 0.0735677 36.7939 0.094401 36.6993C0.365234 35.5534 1.33398 34.6809 2.44857 34.6073C3.67773 34.5232 4.7819 35.1855 5.18815 36.3314C5.30273 36.6467 5.45898 36.7098 5.75065 36.7098C9.4694 36.6993 13.1986 36.6993 16.9173 36.7098C17.2298 36.7098 17.3965 36.6467 17.5111 36.3103C17.7715 35.564 18.3027 35.0383 19.0319 34.786C19.3236 34.6809 19.3861 34.5337 19.3861 34.2499C19.3757 33.1986 19.3652 32.1474 19.3861 31.0961C19.3965 30.7282 19.2819 30.6336 18.9277 30.6336C15.7923 30.5705 12.709 30.1605 9.72982 29.1408C8.2819 28.6467 6.89648 28.0055 5.74023 26.9647C4.82357 26.1343 4.3444 25.1461 4.35482 23.853C4.38607 18.2184 4.39648 12.5837 4.35482 6.93846C4.35482 5.43518 4.93815 4.35239 6.04232 3.46934C7.4694 2.32348 9.14648 1.68222 10.8757 1.17762C13.2194 0.504822 15.6257 0.189447 18.0632 0.0527851C20.1048 -0.0523397 22.1465 0.000222728 24.1777 0.231497C27.1465 0.567897 30.0527 1.16711 32.7194 2.62834C33.5111 3.05936 34.2402 3.59549 34.8132 4.31034C35.3548 4.97263 35.6256 5.71901 35.6152 6.59155C35.6048 12.3629 35.5944 18.1237 35.6257 23.8951C35.6361 25.1251 35.1673 26.0817 34.3027 26.8806C33.1361 27.9634 31.7298 28.6047 30.2611 29.1093C28.1152 29.8557 25.8965 30.2762 23.6361 30.4549C22.7402 30.5285 21.8444 30.5705 20.9486 30.6126C20.6777 30.6231 20.5944 30.7177 20.5944 30.9805C20.6048 32.0948 20.6048 33.2092 20.5944 34.334C20.5944 34.5758 20.6882 34.6704 20.8965 34.744C21.6673 35.0173 22.209 35.5429 22.4798 36.3209C22.584 36.6152 22.7298 36.6993 23.0111 36.6888C24.7194 36.6783 26.4173 36.6783 28.1257 36.6783C30.1257 36.6783 32.1361 36.6678 34.1361 36.6888C34.4902 36.6888 34.6777 36.6152 34.8236 36.2473C35.2402 35.1329 36.3548 34.4812 37.5632 34.5863C38.6777 34.6809 39.6465 35.564 39.8861 36.7098C39.9069 36.8149 39.9486 36.9096 39.9798 37.0042C39.9798 37.1934 39.9798 37.3721 39.9798 37.5613C39.9486 37.6454 39.9069 37.7295 39.8861 37.8136C39.6256 39.0226 38.6673 39.8636 37.4173 39.9792C36.3236 40.0738 35.1881 39.3484 34.7819 38.2551C34.6673 37.9503 34.5423 37.8662 34.2298 37.8662C30.4902 37.8767 26.7611 37.8767 23.0215 37.8662C22.7194 37.8662 22.5632 37.9398 22.459 38.2446C22.084 39.2854 21.084 39.9792 20.0007 39.9897C18.9069 40.0002 17.8757 39.3064 17.5007 38.2446C17.3965 37.9398 17.2402 37.8662 16.9382 37.8662C13.1986 37.8767 9.4694 37.8767 5.72982 37.8662C5.41732 37.8662 5.2819 37.9608 5.17773 38.2551C4.7819 39.3274 3.7194 40.0318 2.62565 39.9897C1.44857 39.9477 0.448568 39.1592 0.125651 38.0134C0.0839844 37.8662 0.031901 37.719 -0.00976562 37.5718C0.000651042 37.3721 0.000651042 37.1619 0.000651042 36.9516ZM19.1569 11.606C22.4694 11.606 24.9277 11.4063 27.3444 10.8596C29.1986 10.4391 31.0319 9.90298 32.6257 8.8202C33.1882 8.44175 33.6986 7.93715 34.1152 7.40101C34.5944 6.79129 34.5632 6.06593 34.1361 5.41415C33.9069 5.06724 33.6256 4.74135 33.3131 4.47854C32.3548 3.64805 31.209 3.13294 30.0215 2.72296C27.5215 1.83991 24.9382 1.42992 22.3132 1.28275C18.5632 1.06198 14.8548 1.30377 11.2194 2.33399C9.63607 2.77552 8.0944 3.3537 6.79232 4.39444C5.14648 5.71901 5.1569 7.12769 6.80273 8.44175C7.67773 9.14608 8.67773 9.61915 9.7194 9.99759C13.0423 11.217 16.4902 11.5955 19.1569 11.606ZM34.4277 9.00942C34.3027 9.08301 34.2402 9.12506 34.1882 9.16711C33.5527 9.58761 32.9382 10.0817 32.2611 10.4286C29.5423 11.8057 26.5944 12.3629 23.5944 12.6467C21.6361 12.836 19.6777 12.857 17.709 12.7414C15.5632 12.6152 13.4382 12.3314 11.3652 11.7742C9.31315 11.2276 7.3444 10.4917 5.70898 9.0725C5.68815 9.05147 5.63607 9.06198 5.55273 9.05147C5.55273 9.20916 5.55273 9.34582 5.55273 9.48248C5.55273 11.3327 5.56315 13.1829 5.55273 15.0331C5.55273 15.7479 5.79232 16.3366 6.27148 16.8412C6.88607 17.5035 7.63607 17.9661 8.44857 18.355C11.459 19.7847 14.6673 20.2683 17.9382 20.468C19.8965 20.5942 21.8652 20.5311 23.8236 20.3314C26.0527 20.1001 28.2402 19.6901 30.3444 18.8912C31.5632 18.4286 32.7402 17.8714 33.6881 16.9148C34.2194 16.3787 34.4798 15.7479 34.4798 14.97C34.459 13.1408 34.4694 11.3222 34.4694 9.493C34.459 9.35633 34.4382 9.20916 34.4277 9.00942ZM34.4382 17.9345C34.334 17.9976 34.2715 18.0081 34.2298 18.0502C33.3027 18.8806 32.2194 19.4378 31.0736 19.9004C28.0632 21.0988 24.9069 21.5613 21.6986 21.698C18.3236 21.8347 14.9694 21.6139 11.6777 20.7729C9.52148 20.2262 7.44857 19.4904 5.7194 18.0081C5.69857 17.9871 5.64648 17.9976 5.57357 17.9871C5.56315 18.1448 5.55273 18.2814 5.55273 18.4181C5.55273 20.2578 5.56315 22.0975 5.54232 23.9371C5.5319 24.6835 5.74023 25.3458 6.30273 25.8084C6.95898 26.355 7.64648 26.9017 8.4069 27.2696C11.3548 28.7203 14.5423 29.1934 17.7715 29.4036C20.0632 29.5508 22.3444 29.4667 24.6257 29.1829C26.5944 28.9411 28.5215 28.5311 30.3757 27.8268C31.5527 27.3747 32.6777 26.8386 33.5944 25.9555C34.1777 25.3984 34.4798 24.7256 34.4694 23.8951C34.4486 22.087 34.459 20.2683 34.459 18.4601C34.459 18.2814 34.4382 18.1343 34.4382 17.9345ZM2.69857 38.7808C3.5319 38.7808 4.19857 38.1185 4.18815 37.288C4.18815 36.468 3.54232 35.8057 2.72982 35.7952C1.9069 35.7742 1.22982 36.4365 1.2194 37.267C1.2194 38.1185 1.86523 38.7808 2.69857 38.7808ZM19.9902 38.7808C20.8132 38.7808 21.4902 38.1185 21.5007 37.2985C21.5111 36.4785 20.834 35.7952 20.0215 35.7847C19.209 35.7847 18.5215 36.447 18.5111 37.267C18.5007 38.087 19.1673 38.7808 19.9902 38.7808ZM38.7715 37.2775C38.7611 36.4575 38.1152 35.8057 37.3132 35.7952C36.4902 35.7847 35.8236 36.447 35.8131 37.288C35.8027 38.1185 36.4694 38.7913 37.3027 38.7808C38.1257 38.7808 38.7819 38.1185 38.7715 37.2775Z" fill="#014898"/>
<path d="M24.3027 16.1474C24.3132 15.1382 25.0632 14.3918 26.0632 14.4023C27.0215 14.4128 27.7923 15.2013 27.7819 16.1684C27.7715 17.1356 26.9486 17.945 26.0007 17.9345C25.0527 17.903 24.2923 17.1145 24.3027 16.1474ZM26.584 16.1579C26.584 15.8425 26.3236 15.5692 26.0215 15.5797C25.7402 15.5902 25.4798 15.853 25.4694 16.1474C25.459 16.4312 25.7194 16.7046 26.0111 16.7151C26.3444 16.7151 26.584 16.4943 26.584 16.1579Z" fill="#014898"/>
<path d="M15.698 16.158C15.698 17.1462 14.8959 17.9346 13.9376 17.9241C13.0001 17.9031 12.2084 17.0936 12.2189 16.1475C12.2293 15.1594 13.0105 14.3919 14.0001 14.4025C14.9689 14.413 15.698 15.1699 15.698 16.158ZM13.948 16.7047C14.2605 16.7152 14.5314 16.4629 14.5314 16.1475C14.5314 15.8637 14.2709 15.5904 13.9897 15.5798C13.6876 15.5693 13.4168 15.8321 13.4168 16.1475C13.4168 16.4629 13.6355 16.6942 13.948 16.7047Z" fill="#014898"/>
<path d="M19.9896 18.8908C19.0312 18.8908 18.25 18.1129 18.25 17.1563C18.25 16.1786 19.0521 15.3691 20.0104 15.3691C20.9688 15.3797 21.7396 16.1576 21.7396 17.1247C21.75 18.1129 20.9792 18.8908 19.9896 18.8908ZM20 17.7134C20.3021 17.7134 20.5729 17.4401 20.5625 17.1247C20.5521 16.8304 20.3021 16.5886 20 16.5886C19.6979 16.5886 19.4479 16.8199 19.4375 17.1247C19.4271 17.4191 19.6979 17.7134 20 17.7134Z" fill="#014898"/>
<path d="M15.6986 24.7992C15.6986 25.7979 14.9277 26.5758 13.9486 26.5653C13.0111 26.5653 12.209 25.7558 12.209 24.7992C12.209 23.832 13.0006 23.0331 13.9798 23.0331C14.9277 23.0436 15.6986 23.832 15.6986 24.7992ZM14.5319 24.8097C14.5319 24.4943 14.2611 24.2315 13.959 24.2315C13.6673 24.2315 13.4277 24.4838 13.4173 24.7887C13.4173 25.0935 13.6465 25.3458 13.9382 25.3668C14.2402 25.3879 14.5319 25.1145 14.5319 24.8097Z" fill="#014898"/>
<path d="M24.3027 24.7887C24.3132 23.8005 25.1048 23.0226 26.0736 23.0436C27.0215 23.0646 27.8027 23.8741 27.7923 24.8307C27.7819 25.7979 26.9486 26.6073 26.0007 26.5863C25.0423 26.5548 24.2923 25.7663 24.3027 24.7887ZM26.0215 25.3774C26.3132 25.3879 26.5736 25.1461 26.584 24.8412C26.6048 24.5153 26.3548 24.2525 26.0423 24.242C25.7507 24.242 25.4798 24.4943 25.4694 24.7781C25.4486 25.083 25.709 25.3668 26.0215 25.3774Z" fill="#014898"/>
<path d="M20.0001 27.5529C19.0209 27.5529 18.2397 26.754 18.2501 25.7763C18.2605 24.8092 19.0418 24.0312 20.0001 24.0312C20.9689 24.0312 21.7605 24.8302 21.7501 25.8079C21.7501 26.775 20.9584 27.5529 20.0001 27.5529ZM20.0105 26.3545C20.3334 26.344 20.573 26.0812 20.5626 25.7658C20.5522 25.4715 20.2918 25.2402 19.9897 25.2402C19.6668 25.2402 19.4168 25.5135 19.4376 25.8289C19.4584 26.1232 19.7189 26.365 20.0105 26.3545Z" fill="#014898"/>
<path d="M0.000651042 36.9516C0.031901 36.8675 0.0735677 36.7939 0.094401 36.6993C0.365234 35.5534 1.33398 34.6809 2.44857 34.6073C3.67773 34.5232 4.7819 35.1855 5.18815 36.3314C5.30273 36.6467 5.45898 36.7098 5.75065 36.7098C9.4694 36.6993 13.1986 36.6993 16.9173 36.7098C17.2298 36.7098 17.3965 36.6467 17.5111 36.3103C17.7715 35.564 18.3027 35.0383 19.0319 34.786C19.3236 34.6809 19.3861 34.5337 19.3861 34.2499C19.3757 33.1986 19.3652 32.1474 19.3861 31.0961C19.3965 30.7282 19.2819 30.6336 18.9277 30.6336C15.7923 30.5705 12.709 30.1605 9.72982 29.1408C8.2819 28.6467 6.89648 28.0055 5.74023 26.9647C4.82357 26.1343 4.3444 25.1461 4.35482 23.853C4.38607 18.2184 4.39648 12.5837 4.35482 6.93846C4.35482 5.43518 4.93815 4.35239 6.04232 3.46934C7.4694 2.32348 9.14648 1.68222 10.8757 1.17762C13.2194 0.504822 15.6257 0.189447 18.0632 0.0527851C20.1048 -0.0523397 22.1465 0.000222728 24.1777 0.231497C27.1465 0.567897 30.0527 1.16711 32.7194 2.62834C33.5111 3.05936 34.2402 3.59549 34.8132 4.31034C35.3548 4.97263 35.6256 5.71901 35.6152 6.59155C35.6048 12.3629 35.5944 18.1237 35.6257 23.8951C35.6361 25.1251 35.1673 26.0817 34.3027 26.8806C33.1361 27.9634 31.7298 28.6047 30.2611 29.1093C28.1152 29.8557 25.8965 30.2762 23.6361 30.4549C22.7402 30.5285 21.8444 30.5705 20.9486 30.6126C20.6777 30.6231 20.5944 30.7177 20.5944 30.9805C20.6048 32.0948 20.6048 33.2092 20.5944 34.334C20.5944 34.5758 20.6882 34.6704 20.8965 34.744C21.6673 35.0173 22.209 35.5429 22.4798 36.3209C22.584 36.6152 22.7298 36.6993 23.0111 36.6888C24.7194 36.6783 26.4173 36.6783 28.1257 36.6783C30.1257 36.6783 32.1361 36.6678 34.1361 36.6888C34.4902 36.6888 34.6777 36.6152 34.8236 36.2473C35.2402 35.1329 36.3548 34.4812 37.5632 34.5863C38.6777 34.6809 39.6465 35.564 39.8861 36.7098C39.9069 36.8149 39.9486 36.9096 39.9798 37.0042C39.9798 37.1934 39.9798 37.3721 39.9798 37.5613C39.9486 37.6454 39.9069 37.7295 39.8861 37.8136C39.6256 39.0226 38.6673 39.8636 37.4173 39.9792C36.3236 40.0738 35.1881 39.3484 34.7819 38.2551C34.6673 37.9503 34.5423 37.8662 34.2298 37.8662C30.4902 37.8767 26.7611 37.8767 23.0215 37.8662C22.7194 37.8662 22.5632 37.9398 22.459 38.2446C22.084 39.2854 21.084 39.9792 20.0007 39.9897C18.9069 40.0002 17.8757 39.3064 17.5007 38.2446C17.3965 37.9398 17.2402 37.8662 16.9382 37.8662C13.1986 37.8767 9.4694 37.8767 5.72982 37.8662C5.41732 37.8662 5.2819 37.9608 5.17773 38.2551C4.7819 39.3274 3.7194 40.0318 2.62565 39.9897C1.44857 39.9477 0.448568 39.1592 0.125651 38.0134C0.0839844 37.8662 0.031901 37.719 -0.00976562 37.5718C0.000651042 37.3721 0.000651042 37.1619 0.000651042 36.9516ZM19.1569 11.606C22.4694 11.606 24.9277 11.4063 27.3444 10.8596C29.1986 10.4391 31.0319 9.90298 32.6257 8.8202C33.1882 8.44175 33.6986 7.93715 34.1152 7.40101C34.5944 6.79129 34.5632 6.06593 34.1361 5.41415C33.9069 5.06724 33.6256 4.74135 33.3131 4.47854C32.3548 3.64805 31.209 3.13294 30.0215 2.72296C27.5215 1.83991 24.9382 1.42992 22.3132 1.28275C18.5632 1.06198 14.8548 1.30377 11.2194 2.33399C9.63607 2.77552 8.0944 3.3537 6.79232 4.39444C5.14648 5.71901 5.1569 7.12769 6.80273 8.44175C7.67773 9.14608 8.67773 9.61915 9.7194 9.99759C13.0423 11.217 16.4902 11.5955 19.1569 11.606ZM34.4277 9.00942C34.3027 9.08301 34.2402 9.12506 34.1882 9.16711C33.5527 9.58761 32.9382 10.0817 32.2611 10.4286C29.5423 11.8057 26.5944 12.3629 23.5944 12.6467C21.6361 12.836 19.6777 12.857 17.709 12.7414C15.5632 12.6152 13.4382 12.3314 11.3652 11.7742C9.31315 11.2276 7.3444 10.4917 5.70898 9.0725C5.68815 9.05147 5.63607 9.06198 5.55273 9.05147C5.55273 9.20916 5.55273 9.34582 5.55273 9.48248C5.55273 11.3327 5.56315 13.1829 5.55273 15.0331C5.55273 15.7479 5.79232 16.3366 6.27148 16.8412C6.88607 17.5035 7.63607 17.9661 8.44857 18.355C11.459 19.7847 14.6673 20.2683 17.9382 20.468C19.8965 20.5942 21.8652 20.5311 23.8236 20.3314C26.0527 20.1001 28.2402 19.6901 30.3444 18.8912C31.5632 18.4286 32.7402 17.8714 33.6881 16.9148C34.2194 16.3787 34.4798 15.7479 34.4798 14.97C34.459 13.1408 34.4694 11.3222 34.4694 9.493C34.459 9.35633 34.4382 9.20916 34.4277 9.00942ZM34.4382 17.9345C34.334 17.9976 34.2715 18.0081 34.2298 18.0502C33.3027 18.8806 32.2194 19.4378 31.0736 19.9004C28.0632 21.0988 24.9069 21.5613 21.6986 21.698C18.3236 21.8347 14.9694 21.6139 11.6777 20.7729C9.52148 20.2262 7.44857 19.4904 5.7194 18.0081C5.69857 17.9871 5.64648 17.9976 5.57357 17.9871C5.56315 18.1448 5.55273 18.2814 5.55273 18.4181C5.55273 20.2578 5.56315 22.0975 5.54232 23.9371C5.5319 24.6835 5.74023 25.3458 6.30273 25.8084C6.95898 26.355 7.64648 26.9017 8.4069 27.2696C11.3548 28.7203 14.5423 29.1934 17.7715 29.4036C20.0632 29.5508 22.3444 29.4667 24.6257 29.1829C26.5944 28.9411 28.5215 28.5311 30.3757 27.8268C31.5527 27.3747 32.6777 26.8386 33.5944 25.9555C34.1777 25.3984 34.4798 24.7256 34.4694 23.8951C34.4486 22.087 34.459 20.2683 34.459 18.4601C34.459 18.2814 34.4382 18.1343 34.4382 17.9345ZM2.69857 38.7808C3.5319 38.7808 4.19857 38.1185 4.18815 37.288C4.18815 36.468 3.54232 35.8057 2.72982 35.7952C1.9069 35.7742 1.22982 36.4365 1.2194 37.267C1.2194 38.1185 1.86523 38.7808 2.69857 38.7808ZM19.9902 38.7808C20.8132 38.7808 21.4902 38.1185 21.5007 37.2985C21.5111 36.4785 20.834 35.7952 20.0215 35.7847C19.209 35.7847 18.5215 36.447 18.5111 37.267C18.5007 38.087 19.1673 38.7808 19.9902 38.7808ZM38.7715 37.2775C38.7611 36.4575 38.1152 35.8057 37.3132 35.7952C36.4902 35.7847 35.8236 36.447 35.8131 37.288C35.8027 38.1185 36.4694 38.7913 37.3027 38.7808C38.1257 38.7808 38.7819 38.1185 38.7715 37.2775Z" stroke="#014898" stroke-width="0.2"/>
<path d="M24.3027 16.1474C24.3132 15.1382 25.0632 14.3918 26.0632 14.4023C27.0215 14.4128 27.7923 15.2013 27.7819 16.1684C27.7715 17.1356 26.9486 17.945 26.0007 17.9345C25.0527 17.903 24.2923 17.1145 24.3027 16.1474ZM26.584 16.1579C26.584 15.8425 26.3236 15.5692 26.0215 15.5797C25.7402 15.5902 25.4798 15.853 25.4694 16.1474C25.459 16.4312 25.7194 16.7046 26.0111 16.7151C26.3444 16.7151 26.584 16.4943 26.584 16.1579Z" stroke="#014898" stroke-width="0.2"/>
<path d="M15.698 16.158C15.698 17.1462 14.8959 17.9346 13.9376 17.9241C13.0001 17.9031 12.2084 17.0936 12.2189 16.1475C12.2293 15.1594 13.0105 14.3919 14.0001 14.4025C14.9689 14.413 15.698 15.1699 15.698 16.158ZM13.948 16.7047C14.2605 16.7152 14.5314 16.4629 14.5314 16.1475C14.5314 15.8637 14.2709 15.5904 13.9897 15.5798C13.6876 15.5693 13.4168 15.8321 13.4168 16.1475C13.4168 16.4629 13.6355 16.6942 13.948 16.7047Z" stroke="#014898" stroke-width="0.2"/>
<path d="M19.9896 18.8908C19.0312 18.8908 18.25 18.1129 18.25 17.1563C18.25 16.1786 19.0521 15.3691 20.0104 15.3691C20.9688 15.3797 21.7396 16.1576 21.7396 17.1247C21.75 18.1129 20.9792 18.8908 19.9896 18.8908ZM20 17.7134C20.3021 17.7134 20.5729 17.4401 20.5625 17.1247C20.5521 16.8304 20.3021 16.5886 20 16.5886C19.6979 16.5886 19.4479 16.8199 19.4375 17.1247C19.4271 17.4191 19.6979 17.7134 20 17.7134Z" stroke="#014898" stroke-width="0.2"/>
<path d="M15.6986 24.7992C15.6986 25.7979 14.9277 26.5758 13.9486 26.5653C13.0111 26.5653 12.209 25.7558 12.209 24.7992C12.209 23.832 13.0006 23.0331 13.9798 23.0331C14.9277 23.0436 15.6986 23.832 15.6986 24.7992ZM14.5319 24.8097C14.5319 24.4943 14.2611 24.2315 13.959 24.2315C13.6673 24.2315 13.4277 24.4838 13.4173 24.7887C13.4173 25.0935 13.6465 25.3458 13.9382 25.3668C14.2402 25.3879 14.5319 25.1145 14.5319 24.8097Z" stroke="#014898" stroke-width="0.2"/>
<path d="M24.3027 24.7887C24.3132 23.8005 25.1048 23.0226 26.0736 23.0436C27.0215 23.0646 27.8027 23.8741 27.7923 24.8307C27.7819 25.7979 26.9486 26.6073 26.0007 26.5863C25.0423 26.5548 24.2923 25.7663 24.3027 24.7887ZM26.0215 25.3774C26.3132 25.3879 26.5736 25.1461 26.584 24.8412C26.6048 24.5153 26.3548 24.2525 26.0423 24.242C25.7507 24.242 25.4798 24.4943 25.4694 24.7781C25.4486 25.083 25.709 25.3668 26.0215 25.3774Z" stroke="#014898" stroke-width="0.2"/>
<path d="M20.0001 27.5529C19.0209 27.5529 18.2397 26.754 18.2501 25.7763C18.2605 24.8092 19.0418 24.0312 20.0001 24.0312C20.9689 24.0312 21.7605 24.8302 21.7501 25.8079C21.7501 26.775 20.9584 27.5529 20.0001 27.5529ZM20.0105 26.3545C20.3334 26.344 20.573 26.0812 20.5626 25.7658C20.5522 25.4715 20.2918 25.2402 19.9897 25.2402C19.6668 25.2402 19.4168 25.5135 19.4376 25.8289C19.4584 26.1232 19.7189 26.365 20.0105 26.3545Z" stroke="#014898" stroke-width="0.2"/>
</g>
<defs>
<clipPath id="clip0_2056_5759">
<rect width="40" height="40" fill="white"/>
</clipPath>
</defs>
</svg>
