<svg width="45" height="45" viewBox="0 0 45 45" fill="none" xmlns="http://www.w3.org/2000/svg">
<g clip-path="url(#clip0_2128_2824)">
<path d="M0 21.3633C0.117187 20.4492 0.199219 19.5352 0.351562 18.6328C1.95703 9.375 9.21094 2.03906 18.4102 0.375C19.3242 0.210938 20.2617 0.117188 21.1875 0C22.1016 0 23.0039 0 23.918 0C24.7734 0.117188 25.6289 0.210938 26.4727 0.363281C29.5547 0.902344 32.3906 2.0625 34.9922 3.79688C35.0273 3.82031 35.0625 3.84375 35.1328 3.89063C34.9922 4.11328 34.8516 4.3125 34.7227 4.51172C34.5937 4.69922 34.4531 4.89844 34.3125 5.10938C29.25 1.82812 23.7773 0.738281 17.9062 2.02734C13.5 3 9.78516 5.21484 6.79687 8.58984C0.796875 15.3164 -0.550781 25.8047 5.10937 34.2891C4.72266 34.5586 4.32422 34.8281 3.90234 35.1211C3.82031 35.0039 3.73828 34.9102 3.66797 34.8047C1.53516 31.5234 0.328125 27.9375 0.0585937 24.0234C0.046875 23.8945 0.0117187 23.7656 0 23.6367C0 22.8867 0 22.125 0 21.3633Z" fill="#014898"/>
<path d="M45 23.6484C44.9414 24.0938 44.8945 24.5391 44.8359 24.9961C43.7227 34.8867 36.4336 42.7383 26.625 44.625C25.8281 44.7773 25.0078 44.8359 24.1875 44.9414C24.0586 44.9531 23.9297 44.9883 23.8125 45.0234C22.8984 45.0234 21.9961 45.0234 21.082 45.0234C20.2266 44.9063 19.3711 44.8125 18.5273 44.6602C15.4453 44.1211 12.6094 42.9609 9.99609 41.2266C9.96094 41.2031 9.92578 41.1797 9.85547 41.1328C10.1367 40.7109 10.4062 40.3242 10.6875 39.9023C15.3398 42.9375 20.3906 44.1094 25.8516 43.2305C30.3047 42.5156 34.1484 40.5352 37.3359 37.3477C40.8398 33.832 42.8555 29.5664 43.3594 24.6328C43.8633 19.6992 42.7031 15.1406 39.9961 10.9453C40.418 10.6641 40.8164 10.4062 41.2266 10.1367C42.2344 11.6367 43.0195 13.2188 43.6172 14.8945C44.3203 16.8281 44.7422 18.832 44.8945 20.8828C44.9062 21.0234 44.9414 21.1641 44.9648 21.3047C45 22.0664 45 22.8516 45 23.6484Z" fill="#014898"/>
<path d="M34.4063 32.4023C34.1016 32.4023 33.7969 32.4141 33.4805 32.4023C32.8828 32.3789 32.5898 32.6484 32.6133 33.2461C32.6367 33.8789 32.6602 34.5 32.707 35.1328C32.7422 35.543 32.6016 35.8477 32.2383 36.0469C31.3594 36.5391 30.4805 37.0312 29.6016 37.5352C29.2617 37.7344 28.9453 37.6992 28.6172 37.4883C28.0547 37.125 27.4805 36.7617 26.9063 36.4102C26.4961 36.1523 25.9922 36.293 25.7695 36.7148C25.4648 37.2891 25.1602 37.8516 24.8789 38.4258C24.6797 38.8242 24.3867 39.0117 23.9414 39.0117C22.9805 39 22.0078 39 21.0469 39.0117C20.625 39.0117 20.3203 38.8477 20.1328 38.4609C19.8281 37.8633 19.5117 37.2656 19.1953 36.6797C18.9961 36.3164 18.4805 36.1758 18.1172 36.3984C17.543 36.75 16.9688 37.1016 16.4062 37.4766C16.0664 37.6992 15.7383 37.7461 15.375 37.5352C14.4961 37.0312 13.6172 36.5391 12.7383 36.0469C12.3984 35.8594 12.2461 35.5664 12.2695 35.1797C12.3164 34.5117 12.3398 33.832 12.3633 33.1641C12.375 32.707 12.0352 32.3789 11.5781 32.4023C10.9102 32.4375 10.2305 32.4609 9.5625 32.5078C9.15234 32.5312 8.84766 32.4023 8.63672 32.0508C8.13281 31.1953 7.61719 30.3398 7.11328 29.4844C6.90234 29.1328 6.92578 28.793 7.16016 28.4531C7.53516 27.9141 7.88672 27.3516 8.25 26.8008C8.49609 26.4258 8.39063 25.9453 8.00391 25.7109C7.5 25.4062 7.00781 25.1016 6.49219 24.8203C6.11719 24.6094 5.96484 24.3047 5.96484 23.8828C5.97656 22.9453 5.97656 22.0078 5.96484 21.0703C5.96484 20.6602 6.11719 20.3672 6.48047 20.168C6.94922 19.9102 7.41797 19.6172 7.875 19.3477C8.4375 19.0078 8.53125 18.6094 8.16797 18.0586C7.82812 17.543 7.5 17.0273 7.14844 16.5234C6.92578 16.1953 6.90234 15.8672 7.10156 15.5391C7.59375 14.6953 8.09766 13.8516 8.58984 13.0078C8.82422 12.6094 9.17578 12.4687 9.62109 12.4922C10.2773 12.5391 10.9336 12.5625 11.5898 12.5977C12.0234 12.6211 12.3633 12.293 12.3516 11.8477C12.3281 11.1914 12.3047 10.5352 12.2578 9.87891C12.2227 9.45703 12.375 9.14062 12.75 8.92969C13.6172 8.44922 14.4844 7.95703 15.3398 7.46484C15.6914 7.26563 16.0195 7.28906 16.3711 7.52344C16.9336 7.89844 17.5078 8.25 18.082 8.60156C18.4688 8.83594 18.9727 8.69531 19.1836 8.29688C19.4883 7.71094 19.8047 7.13672 20.0977 6.55078C20.2852 6.16406 20.5781 5.98828 21.0117 5.98828C21.9961 6 22.9688 5.98828 23.9531 5.98828C24.3633 5.98828 24.6445 6.15234 24.832 6.52734C25.125 7.10156 25.4297 7.66406 25.7227 8.23828C25.9922 8.74219 26.4492 8.85938 26.9414 8.55469C27.4688 8.21484 28.0195 7.89844 28.5352 7.54688C28.8867 7.3125 29.2266 7.27734 29.6016 7.48828C30.4688 7.98047 31.3242 8.47266 32.1914 8.96484C32.5547 9.16406 32.6953 9.45703 32.6719 9.86719C32.625 10.5352 32.6016 11.2148 32.5781 11.8828C32.5664 12.3164 32.918 12.6328 33.3516 12.6211C34.0195 12.5859 34.6992 12.5625 35.3672 12.5156C35.7891 12.4805 36.1055 12.6328 36.3281 12.9961C36.8203 13.8398 37.3242 14.6836 37.8281 15.5156C38.0508 15.8789 38.0156 16.2305 37.7695 16.582C37.3945 17.1211 37.043 17.6836 36.6797 18.2344C36.457 18.5859 36.5625 19.0664 36.9258 19.2891C37.4297 19.5938 37.9219 19.8984 38.4375 20.1797C38.8125 20.3906 38.9883 20.6836 38.9766 21.1055C38.9648 22.0547 38.9766 23.0039 38.9766 23.9648C38.9766 24.3516 38.8242 24.6328 38.4844 24.832C38.0039 25.1016 37.5234 25.3945 37.043 25.6758C36.5156 25.9922 36.4102 26.4023 36.7383 26.9062C37.0898 27.4336 37.418 27.9609 37.7812 28.4766C38.0156 28.8164 38.0273 29.1562 37.8281 29.5078C37.3359 30.3398 36.8438 31.1602 36.3516 32.0039C36.1055 32.4258 35.7656 32.5898 35.2852 32.5312C34.9805 32.4961 34.6758 32.4844 34.3711 32.4609C34.4062 32.4258 34.4063 32.4141 34.4063 32.4023ZM33.9141 30.9258C35.3555 30.9961 35.3555 30.9961 36.0469 29.7187C36.1289 29.5781 36.2344 29.4492 36.2695 29.2969C36.3047 29.1445 36.3164 28.957 36.2461 28.8281C35.918 28.2891 35.543 27.7852 35.2266 27.2461C35.0859 27.0117 34.9922 26.6953 35.0273 26.4375C35.1445 25.4297 35.5195 24.5742 36.5742 24.2109C36.6563 24.1875 36.7266 24.1172 36.8086 24.082C37.3828 23.8711 37.4766 23.4609 37.5352 22.875C37.6641 21.7031 37.2891 20.9648 36.1758 20.5664C35.9063 20.4609 35.5547 20.2617 35.4609 20.0273C35.1211 19.1602 34.6523 18.293 35.4492 17.3672C35.8242 16.9336 36.2812 16.3594 36.2695 15.8555C36.2578 15.3281 35.7422 14.8125 35.4141 14.3086C35.3203 14.1797 35.0977 14.0625 34.9336 14.0625C34.3008 14.0625 33.6797 14.1562 33.0469 14.1211C32.7305 14.1094 32.332 13.9922 32.1094 13.7812C30.8555 12.5859 31.0781 13.043 31.1133 11.3789C31.1133 11.2617 31.1016 11.1445 31.1367 11.0273C31.3359 10.3008 31.0312 9.90234 30.3867 9.55078C29.2383 8.92969 29.25 8.88281 28.1602 9.58594C28.125 9.60938 28.0781 9.63281 28.0547 9.65625C27.2695 10.3477 26.4141 10.4297 25.4531 10.043C25.1133 9.90234 24.832 9.75 24.668 9.41016C24.3984 8.87109 24.1055 8.35547 23.8359 7.81641C23.7305 7.59375 23.5898 7.48828 23.332 7.5C22.7813 7.52344 22.2188 7.52344 21.668 7.5C21.4102 7.48828 21.2695 7.58203 21.1641 7.81641C20.9063 8.35547 20.6133 8.88281 20.3203 9.41016C20.2266 9.58594 20.0977 9.80859 19.9453 9.86719C19.0664 10.1836 18.1875 10.6406 17.2734 9.87891C16.8164 9.50391 16.2539 9.03516 15.7383 9.04687C15.1992 9.05859 14.6602 9.57422 14.1211 9.86719C14.0977 9.87891 14.0625 9.89062 14.0508 9.91406C13.9688 10.0664 13.8281 10.2188 13.8281 10.3594C13.8281 10.9922 13.9102 11.6133 13.8984 12.2461C13.8984 12.5039 13.8281 12.8086 13.6641 13.0078C13.043 13.793 12.3164 14.4141 11.2031 14.0859C11.0391 14.0391 10.8516 14.0977 10.6758 14.0508C9.9375 13.875 9.55078 14.2148 9.19922 14.8359C8.58984 15.9023 8.55469 15.8906 9.22266 16.8867C9.25781 16.9453 9.29297 17.0156 9.33984 17.0742C10.0898 17.8477 10.1367 18.7266 9.69141 19.6523C9.5625 19.9219 9.36328 20.2031 9.11719 20.3789C8.69531 20.6836 8.20313 20.9062 7.76953 21.1992C7.64063 21.2812 7.52344 21.4805 7.51172 21.6328C7.47656 22.207 7.47656 22.7812 7.51172 23.3438C7.52344 23.5078 7.65234 23.7188 7.79297 23.8125C8.19141 24.082 8.61328 24.3281 9.03516 24.5508C9.43359 24.7617 9.59766 25.0898 9.76172 25.4883C10.1016 26.3789 10.043 27.1641 9.375 27.8672C9.28125 27.9727 9.23438 28.125 9.12891 28.2305C8.58984 28.7695 8.63672 29.2852 9.04687 29.918C9.70312 30.9375 9.65625 30.9727 10.875 30.9258C10.957 30.9258 11.0508 30.9375 11.1328 30.9141C12.1758 30.6445 12.9609 31.0547 13.5586 31.875C13.7344 32.1211 13.875 32.4375 13.8867 32.7305C13.9102 33.3516 13.8516 33.9844 13.8047 34.6172C13.793 34.8516 13.8516 34.9922 14.0625 35.1094C14.5547 35.3672 15.0234 35.6719 15.5156 35.918C15.6562 35.9883 15.9141 35.9766 16.0547 35.8945C16.582 35.6016 17.0859 35.2734 17.5781 34.9453C17.9531 34.6875 18.3164 34.7109 18.7383 34.7578C19.7227 34.8867 20.3789 35.3789 20.6953 36.3164C20.7188 36.3984 20.7891 36.4687 20.8125 36.5508C21.0469 37.3359 21.5625 37.5234 22.3711 37.5469C23.3672 37.582 23.8711 37.2656 24.2812 36.375C24.9727 34.8867 24.668 35.2031 26.3203 34.7461C26.332 34.7461 26.3438 34.7344 26.3672 34.7344C26.6836 34.793 27.0469 34.7695 27.3164 34.9102C27.8789 35.1914 28.3828 35.5781 28.9219 35.8945C29.0625 35.9766 29.3203 35.9883 29.4609 35.918C29.9648 35.6719 30.4219 35.3672 30.9141 35.1094C31.125 34.9922 31.1836 34.8516 31.1719 34.6172C31.125 33.9844 31.0781 33.3633 31.0781 32.7305C31.0781 32.4844 31.1484 32.1914 31.3008 32.0039C31.9219 31.2187 32.6367 30.5859 33.7617 30.9141C33.8203 30.9258 33.8672 30.9258 33.9141 30.9258Z" fill="#014898"/>
<path d="M33.7734 9C33.7734 8.47266 33.7734 8.00391 33.7734 7.51172C35.25 7.51172 36.7148 7.51172 38.2266 7.51172C38.2266 6.01172 38.2266 4.53516 38.2266 3.03516C38.7422 3.03516 39.2227 3.03516 39.7148 3.03516C39.7266 3.17578 39.7383 3.29297 39.7383 3.42188C39.7383 4.95703 39.7383 6.49219 39.7383 8.02734C39.7383 8.74219 39.4922 8.98828 38.8008 8.98828C37.1367 9 35.4727 9 33.7734 9Z" fill="#014898"/>
<path d="M11.2266 36C11.2266 36.5273 11.2266 36.9961 11.2266 37.4883C9.75 37.4883 8.28516 37.4883 6.77344 37.4883C6.77344 38.9883 6.77344 40.4648 6.77344 41.9648C6.25781 41.9648 5.77734 41.9648 5.28516 41.9648C5.27344 41.8359 5.26172 41.707 5.26172 41.5781C5.26172 40.043 5.26172 38.5078 5.26172 36.9727C5.26172 36.2578 5.50781 36.0117 6.19922 36.0117C7.86328 36 9.52734 36 11.2266 36Z" fill="#014898"/>
<path d="M22.4059 11.2516C28.5348 11.1462 33.6325 16.1501 33.7497 22.3962C33.8669 28.5485 28.8278 33.6696 22.5817 33.7516C16.4411 33.8337 11.3552 28.8298 11.2614 22.5954C11.1559 16.443 16.1598 11.3571 22.4059 11.2516ZM32.2497 22.443C32.1794 17.0407 27.7497 12.6813 22.4294 12.7634C17.0387 12.8454 12.7028 17.2282 12.7497 22.5485C12.7966 27.9391 17.2145 32.3102 22.5466 32.2634C27.9372 32.193 32.32 27.7634 32.2497 22.443Z" fill="#014898"/>
</g>
<defs>
<clipPath id="clip0_2128_2824">
<rect width="45" height="45" fill="white"/>
</clipPath>
</defs>
</svg>
