<svg width="55" height="40" viewBox="0 0 55 40" fill="none" xmlns="http://www.w3.org/2000/svg">
<g clip-path="url(#clip0_2171_5570)">
<path d="M0.00155573 35.1132C0.253771 34.1092 0.612182 33.1855 1.40865 32.4894C2.96176 31.1239 4.96621 30.9767 6.70517 32.0744C6.79809 32.1279 6.87773 32.1949 7.01048 32.2752C7.97952 31.472 8.93528 30.6554 9.90431 29.8522C9.97069 29.7986 10.0371 29.7317 10.1034 29.6781C10.807 29.0757 10.7937 29.0891 10.5548 28.1922C10.1034 26.5456 10.4618 25.0597 11.6831 23.8682C12.984 22.6099 14.5637 22.2886 16.2495 22.9445C17.7894 23.5603 18.7053 24.7518 18.931 26.4385C19.0504 27.3354 18.8646 28.1654 18.4796 29.0222C19.5814 29.9459 20.6965 30.883 21.8381 31.8468C23.4177 30.3609 25.1965 30.053 27.2142 31.0302C28.3957 29.3301 29.5904 27.6166 30.7718 25.903C26.4709 21.9539 24.8647 17.2149 26.5903 11.5791C28.0505 6.81334 32.3116 3.11856 38.0064 2.60986C38.0064 2.11455 38.0064 1.60584 38.0064 1.09714C38.0197 0.280542 38.3382 -0.0407428 39.148 -0.000582136C45.679 0.360864 50.3516 3.53356 53.126 9.5041C54.0021 11.3783 54.3473 13.3997 54.3871 15.4747C54.4004 16.1574 54.0818 16.4921 53.3915 16.5188C52.8605 16.5322 52.3428 16.5188 51.7986 16.5188C51.2676 21.2979 49.0507 24.9526 44.856 27.1748C40.6613 29.4104 36.4267 29.156 32.232 26.8803C32.1523 26.974 32.0594 27.0945 31.9665 27.2149C30.9311 28.7009 29.909 30.2002 28.847 31.6728C28.5815 32.0476 28.5815 32.3153 28.7939 32.7036C30.1081 35.0998 28.9266 38.1119 26.3514 38.9017C24.7585 39.397 23.285 39.0623 22.077 37.9111C20.8956 36.7732 20.5372 35.3542 20.8425 33.7477C20.8823 33.5603 20.8292 33.2658 20.7097 33.1587C19.6212 32.2083 18.5195 31.2979 17.3911 30.3475C15.6123 31.5791 13.8203 31.6058 11.9751 30.3475C10.7141 31.405 9.43971 32.476 8.17863 33.5336C8.32465 34.0958 8.52377 34.6179 8.57687 35.1534C8.81581 37.4425 7.27597 39.5443 5.13878 39.9057C2.76265 40.3073 0.638731 38.9017 0.0944771 36.559C0.0679281 36.4251 0.0281047 36.2913 -0.0117188 36.1574C0.00155573 35.8227 0.00155573 35.4747 0.00155573 35.1132ZM37.9798 4.43048C33.1877 4.6045 27.785 8.80799 27.6125 15.488C27.4532 21.7531 32.7231 27.0811 38.9754 26.9606C45.5065 26.8267 49.7676 21.4586 49.9534 16.5188C49.741 16.5188 49.5419 16.5188 49.3295 16.5188C45.9711 16.5188 42.6126 16.5188 39.2409 16.5188C38.2055 16.5188 37.9666 16.2779 37.9666 15.2203C37.9666 11.8334 37.9666 8.44654 37.9666 5.04627C37.9798 4.85886 37.9798 4.64467 37.9798 4.43048ZM39.7453 14.7518C44.0463 14.7518 48.2941 14.7518 52.5552 14.7518C52.3826 8.09848 46.5153 2.03422 39.7453 1.83342C39.7453 6.11722 39.7453 10.4144 39.7453 14.7518ZM6.90428 35.7022C6.91756 34.2832 5.77595 33.1052 4.36886 33.0784C2.93521 33.0516 1.75379 34.2163 1.72724 35.6487C1.70069 37.0677 2.90867 38.2859 4.31576 38.2859C5.72285 38.2859 6.89101 37.1079 6.90428 35.7022ZM14.6699 24.3769C13.2495 24.3769 12.1079 25.5148 12.0946 26.9472C12.0813 28.4064 13.2229 29.571 14.6699 29.571C16.0902 29.571 17.2318 28.4332 17.2451 27.0008C17.2716 25.555 16.1168 24.3769 14.6699 24.3769ZM25.0372 32.2083C23.6036 32.2083 22.4221 33.3863 22.4354 34.8187C22.4487 36.2377 23.6036 37.389 25.0107 37.4024C26.4443 37.4024 27.6125 36.2243 27.5992 34.7785C27.5992 33.3729 26.4576 32.2083 25.0372 32.2083Z" fill="#014898" stroke="#014898" stroke-width="0.1"/>
</g>
<defs>
<clipPath id="clip0_2171_5570">
<rect width="54.359" height="40" fill="white"/>
</clipPath>
</defs>
</svg>
