<svg width="45" height="45" viewBox="0 0 45 45" fill="none" xmlns="http://www.w3.org/2000/svg">
<g id="Frame" clip-path="url(#clip0_2198_3717)">
<g id="Group">
<g id="Vector">
<path d="M0 2.19727C0.164795 1.8457 0.274658 1.4502 0.494385 1.13159C1.03271 0.351562 1.81274 0 2.74658 0C10.7007 0 18.6548 0 26.6089 0.0109863C26.9275 0.0109863 27.312 0.164795 27.5427 0.384521C30.0916 2.8894 32.6184 5.41626 35.1233 7.96509C35.343 8.18481 35.4968 8.58032 35.4968 8.89893C35.5188 14.2603 35.5188 19.6216 35.5078 24.9829C35.5078 25.1367 35.4968 25.3125 35.4529 25.4553C35.343 25.8508 35.0464 26.0596 34.6399 26.0815C34.2554 26.1035 33.8928 25.8289 33.8049 25.4333C33.761 25.2356 33.761 25.0269 33.761 24.8291C33.761 19.9402 33.761 15.0403 33.761 10.1514C33.761 9.97559 33.761 9.7998 33.761 9.56909C33.5852 9.56909 33.4314 9.56909 33.2776 9.56909C31.7834 9.56909 30.2893 9.56909 28.7952 9.56909C27.0483 9.56909 25.9497 8.47046 25.9387 6.71265C25.9387 5.22949 25.9387 3.75732 25.9387 2.27417C25.9387 2.12036 25.9387 1.95557 25.9387 1.74683C25.752 1.74683 25.5981 1.74683 25.4333 1.74683C17.9517 1.74683 10.47 1.74683 2.97729 1.74683C2.04346 1.75781 1.75781 2.04346 1.75781 2.96631C1.75781 15.9851 1.75781 29.0039 1.75781 42.0227C1.75781 42.9675 2.04346 43.2422 2.99927 43.2422C8.28369 43.2422 13.5791 43.2422 18.8635 43.2422C18.9624 43.2422 19.0723 43.2422 19.1711 43.2422C19.8193 43.2422 20.1709 43.4729 20.2698 43.9563C20.3577 44.3958 20.1599 44.7144 19.5996 45C13.7988 45 7.99805 45 2.19727 45C1.95557 44.9011 1.70288 44.8242 1.47217 44.7144C0.65918 44.3298 0.252686 43.6267 0 42.8027C0 29.2676 0 15.7324 0 2.19727ZM27.6855 3.1311C27.6855 4.32861 27.6855 5.53711 27.6855 6.74561C27.6855 7.49268 28.0151 7.82227 28.7622 7.82227C29.8938 7.82227 31.0144 7.82227 32.146 7.82227C32.2339 7.82227 32.3218 7.80029 32.3438 7.78931C30.7947 6.25122 29.2456 4.70215 27.6855 3.1311Z" fill="#014898"/>
<path d="M26.0156 45C25.2795 44.7363 24.4775 44.5825 23.8184 44.198C20.863 42.4841 20.2368 38.3862 22.5989 35.9143C24.9829 33.4204 27.4438 30.9814 29.9268 28.5754C31.6187 26.9385 34.2664 26.6858 36.2769 27.8613C38.3533 29.0698 39.386 31.4209 38.8806 33.75C38.8586 33.8599 38.8477 33.9807 38.8367 34.0466C39.5398 34.1235 40.2319 34.1345 40.8911 34.2883C43.418 34.8926 45.1099 37.2327 44.989 39.8584C44.8682 42.3633 42.9346 44.5056 40.4077 44.9121C40.3198 44.9231 40.2429 44.967 40.166 44.989C39.7595 44.989 39.342 44.989 38.9355 44.989C38.8477 44.967 38.7708 44.9231 38.6829 44.9121C36.3757 44.4617 34.9146 43.0994 34.2664 40.8472C34.1785 40.5176 34.1345 40.177 34.0576 39.7815C32.8711 40.968 31.7615 42.1436 30.5859 43.2312C30.0146 43.7585 29.3335 44.176 28.6523 44.5605C28.2349 44.7913 27.7185 44.8572 27.2461 44.989C26.8396 45 26.4221 45 26.0156 45ZM28.1909 32.7832C29.9268 34.519 31.6626 36.2439 33.3984 37.9907C34.2993 37.0898 35.2551 36.156 36.178 35.2002C36.947 34.4092 37.3315 33.4424 37.2327 32.3328C37.1008 30.8386 36.3208 29.74 34.9255 29.1907C33.4863 28.6194 32.146 28.894 31.0254 29.9487C30.0366 30.8716 29.1028 31.8603 28.1909 32.7832ZM26.9495 34.2444C25.8728 35.2551 24.7302 36.1999 23.7415 37.2986C22.511 38.6719 22.6868 40.8472 23.9941 42.1655C25.3125 43.4839 27.4988 43.6377 28.894 42.4072C29.9048 41.5283 30.8276 40.5395 31.7834 39.5947C31.8713 39.5068 31.9592 39.408 32.0251 39.342C30.2893 37.5842 28.5754 35.8704 26.9495 34.2444ZM40.4407 43.0884C42.0886 42.7698 43.3411 41.0779 43.2312 39.353C43.1213 37.7051 41.803 36.123 40.4407 36.0461C40.4407 38.3752 40.4407 40.7153 40.4407 43.0884ZM38.6499 43.0884C38.6499 40.7153 38.6499 38.3752 38.6499 36.0242C37.0898 36.3208 35.8813 37.8589 35.8594 39.5288C35.8484 41.1987 37.0569 42.7588 38.6499 43.0884Z" fill="#014898"/>
<path d="M17.7649 21.9727C13.5022 21.9836 10.0085 18.49 10.0195 14.2273C10.0305 9.98657 13.4912 6.51489 17.7429 6.50391C21.9946 6.49292 25.4883 9.99756 25.4883 14.2493C25.4773 18.501 22.0166 21.9617 17.7649 21.9727ZM17.7319 20.2148C21.0278 20.2258 23.7195 17.5452 23.7305 14.2493C23.7415 10.9644 21.0388 8.26172 17.7539 8.26172C14.48 8.26172 11.7993 10.9314 11.7773 14.2053C11.7554 17.5012 14.436 20.2039 17.7319 20.2148Z" fill="#014898"/>
<path d="M21.3574 24.6094C23.7854 24.6094 26.2134 24.6094 28.6523 24.6094C28.7842 24.6094 28.916 24.5984 29.0478 24.6204C29.5312 24.6753 29.8828 25.0378 29.8828 25.4883C29.8828 25.9387 29.5422 26.3013 29.0588 26.3672C28.96 26.3782 28.8501 26.3782 28.7512 26.3782C23.8293 26.3782 18.9185 26.3782 13.9966 26.3782C13.5352 26.3782 13.1396 26.2793 12.9529 25.8179C12.7002 25.2356 13.1287 24.6423 13.8098 24.6204C14.3811 24.5984 14.9524 24.6204 15.5237 24.6204C17.4573 24.6094 19.4019 24.6094 21.3574 24.6094Z" fill="#014898"/>
<path d="M18.1055 31.2891C16.7102 31.2891 15.3259 31.2891 13.9307 31.2891C13.5461 31.2891 13.2056 31.2012 12.9968 30.8386C12.7222 30.3662 12.9309 29.762 13.4692 29.5972C13.656 29.5422 13.8757 29.5312 14.0735 29.5312C16.7651 29.5312 19.4568 29.5312 22.1484 29.5312C22.2473 29.5312 22.3572 29.5312 22.4561 29.5312C22.9944 29.5642 23.3679 29.9268 23.3679 30.4102C23.3679 30.8936 22.9944 31.2671 22.4451 31.2781C21.665 31.3 20.896 31.2891 20.116 31.2891C19.4568 31.2891 18.7756 31.2891 18.1055 31.2891Z" fill="#014898"/>
<path d="M7.92114 26.3672C7.48169 26.3672 7.04224 26.3782 6.60278 26.3672C6.03149 26.3562 5.64697 26.0046 5.625 25.5103C5.61401 25.0049 6.02051 24.6313 6.61377 24.6204C7.49268 24.6094 8.36059 24.6094 9.2395 24.6204C9.85474 24.6313 10.2283 24.9719 10.2283 25.4993C10.2283 26.0266 9.84375 26.3562 9.22852 26.3672C8.78906 26.3782 8.36059 26.3672 7.92114 26.3672Z" fill="#014898"/>
<path d="M7.91016 31.2891C7.4707 31.2891 7.03125 31.3 6.5918 31.2891C6.02051 31.2781 5.63599 30.9155 5.625 30.4211C5.61401 29.9268 6.00952 29.5532 6.56982 29.5422C7.4707 29.5312 8.38257 29.5312 9.28345 29.5422C9.85474 29.5532 10.2283 29.9158 10.2173 30.4321C10.2063 30.9375 9.84375 31.2781 9.26147 31.2891C8.81104 31.3 8.3606 31.2891 7.91016 31.2891Z" fill="#014898"/>
<path d="M7.93213 34.4531C8.37158 34.4531 8.81103 34.4421 9.25049 34.4531C9.86572 34.4641 10.2393 34.8047 10.2283 35.343C10.2173 35.8484 9.85474 36.2 9.27246 36.2109C8.38257 36.2219 7.49268 36.2219 6.60278 36.2109C6.03149 36.2 5.64697 35.8374 5.63599 35.343C5.625 34.8377 6.02051 34.4641 6.62476 34.4531C7.05322 34.4421 7.49267 34.4531 7.93213 34.4531Z" fill="#014898"/>
<path d="M14.6008 35.354C14.5898 35.8264 14.1724 36.2219 13.7109 36.2C13.2495 36.178 12.854 35.7605 12.865 35.2991C12.887 34.8376 13.3044 34.4421 13.7659 34.4531C14.2383 34.4751 14.6118 34.8816 14.6008 35.354Z" fill="#014898"/>
<path d="M16.875 15.1172C16.1829 15.1172 15.5457 15.1172 14.9194 15.1172C14.0735 15.1172 13.667 14.8206 13.667 14.2273C13.678 13.634 14.0845 13.3594 14.9414 13.3594C15.5457 13.3594 16.1389 13.3594 16.7432 13.3484C16.7651 13.3484 16.7981 13.3264 16.875 13.3044C16.875 12.5903 16.864 11.8652 16.875 11.1401C16.886 10.6128 17.1277 10.2722 17.5452 10.1843C18.1494 10.0525 18.6108 10.448 18.6218 11.1182C18.6328 11.8433 18.6218 12.5793 18.6218 13.3484C19.3469 13.3484 20.0281 13.3374 20.7092 13.3484C20.907 13.3484 21.1267 13.3704 21.3135 13.4473C21.687 13.5901 21.8738 13.9636 21.8079 14.3701C21.7419 14.7876 21.4233 15.0842 20.9509 15.0952C20.3467 15.1172 19.7534 15.1062 19.1492 15.1062C18.9954 15.1062 18.8306 15.1062 18.6328 15.1062C18.6328 15.8752 18.6438 16.6003 18.6328 17.3254C18.6218 17.8308 18.3911 18.1604 18.0066 18.2703C17.4023 18.4351 16.897 18.0286 16.886 17.3474C16.864 16.6223 16.875 15.8972 16.875 15.1172Z" fill="#014898"/>
<path d="M0 2.19727C0.164795 1.8457 0.274658 1.4502 0.494385 1.13159C1.03271 0.351562 1.81274 0 2.74658 0C10.7007 0 18.6548 0 26.6089 0.0109863C26.9275 0.0109863 27.312 0.164795 27.5427 0.384521C30.0916 2.8894 32.6184 5.41626 35.1233 7.96509C35.343 8.18481 35.4968 8.58032 35.4968 8.89893C35.5188 14.2603 35.5188 19.6216 35.5078 24.9829C35.5078 25.1367 35.4968 25.3125 35.4529 25.4553C35.343 25.8508 35.0464 26.0596 34.6399 26.0815C34.2554 26.1035 33.8928 25.8289 33.8049 25.4333C33.761 25.2356 33.761 25.0269 33.761 24.8291C33.761 19.9402 33.761 15.0403 33.761 10.1514C33.761 9.97559 33.761 9.7998 33.761 9.56909C33.5852 9.56909 33.4314 9.56909 33.2776 9.56909C31.7834 9.56909 30.2893 9.56909 28.7952 9.56909C27.0483 9.56909 25.9497 8.47046 25.9387 6.71265C25.9387 5.22949 25.9387 3.75732 25.9387 2.27417C25.9387 2.12036 25.9387 1.95557 25.9387 1.74683C25.752 1.74683 25.5981 1.74683 25.4333 1.74683C17.9517 1.74683 10.47 1.74683 2.97729 1.74683C2.04346 1.75781 1.75781 2.04346 1.75781 2.96631C1.75781 15.9851 1.75781 29.0039 1.75781 42.0227C1.75781 42.9675 2.04346 43.2422 2.99927 43.2422C8.28369 43.2422 13.5791 43.2422 18.8635 43.2422C18.9624 43.2422 19.0723 43.2422 19.1711 43.2422C19.8193 43.2422 20.1709 43.4729 20.2698 43.9563C20.3577 44.3958 20.1599 44.7144 19.5996 45C13.7988 45 7.99805 45 2.19727 45C1.95557 44.9011 1.70288 44.8242 1.47217 44.7144C0.65918 44.3298 0.252686 43.6267 0 42.8027C0 29.2676 0 15.7324 0 2.19727ZM27.6855 3.1311C27.6855 4.32861 27.6855 5.53711 27.6855 6.74561C27.6855 7.49268 28.0151 7.82227 28.7622 7.82227C29.8938 7.82227 31.0144 7.82227 32.146 7.82227C32.2339 7.82227 32.3218 7.80029 32.3438 7.78931C30.7947 6.25122 29.2456 4.70215 27.6855 3.1311Z" stroke="white" stroke-width="0.2"/>
<path d="M26.0156 45C25.2795 44.7363 24.4775 44.5825 23.8184 44.198C20.863 42.4841 20.2368 38.3862 22.5989 35.9143C24.9829 33.4204 27.4438 30.9814 29.9268 28.5754C31.6187 26.9385 34.2664 26.6858 36.2769 27.8613C38.3533 29.0698 39.386 31.4209 38.8806 33.75C38.8586 33.8599 38.8477 33.9807 38.8367 34.0466C39.5398 34.1235 40.2319 34.1345 40.8911 34.2883C43.418 34.8926 45.1099 37.2327 44.989 39.8584C44.8682 42.3633 42.9346 44.5056 40.4077 44.9121C40.3198 44.9231 40.2429 44.967 40.166 44.989C39.7595 44.989 39.342 44.989 38.9355 44.989C38.8477 44.967 38.7708 44.9231 38.6829 44.9121C36.3757 44.4617 34.9146 43.0994 34.2664 40.8472C34.1785 40.5176 34.1345 40.177 34.0576 39.7815C32.8711 40.968 31.7615 42.1436 30.5859 43.2312C30.0146 43.7585 29.3335 44.176 28.6523 44.5605C28.2349 44.7913 27.7185 44.8572 27.2461 44.989C26.8396 45 26.4221 45 26.0156 45ZM28.1909 32.7832C29.9268 34.519 31.6626 36.2439 33.3984 37.9907C34.2993 37.0898 35.2551 36.156 36.178 35.2002C36.947 34.4092 37.3315 33.4424 37.2327 32.3328C37.1008 30.8386 36.3208 29.74 34.9255 29.1907C33.4863 28.6194 32.146 28.894 31.0254 29.9487C30.0366 30.8716 29.1028 31.8603 28.1909 32.7832ZM26.9495 34.2444C25.8728 35.2551 24.7302 36.1999 23.7415 37.2986C22.511 38.6719 22.6868 40.8472 23.9941 42.1655C25.3125 43.4839 27.4988 43.6377 28.894 42.4072C29.9048 41.5283 30.8276 40.5395 31.7834 39.5947C31.8713 39.5068 31.9592 39.408 32.0251 39.342C30.2893 37.5842 28.5754 35.8704 26.9495 34.2444ZM40.4407 43.0884C42.0886 42.7698 43.3411 41.0779 43.2312 39.353C43.1213 37.7051 41.803 36.123 40.4407 36.0461C40.4407 38.3752 40.4407 40.7153 40.4407 43.0884ZM38.6499 43.0884C38.6499 40.7153 38.6499 38.3752 38.6499 36.0242C37.0898 36.3208 35.8813 37.8589 35.8594 39.5288C35.8484 41.1987 37.0569 42.7588 38.6499 43.0884Z" stroke="white" stroke-width="0.2"/>
<path d="M17.7649 21.9727C13.5022 21.9836 10.0085 18.49 10.0195 14.2273C10.0305 9.98657 13.4912 6.51489 17.7429 6.50391C21.9946 6.49292 25.4883 9.99756 25.4883 14.2493C25.4773 18.501 22.0166 21.9617 17.7649 21.9727ZM17.7319 20.2148C21.0278 20.2258 23.7195 17.5452 23.7305 14.2493C23.7415 10.9644 21.0388 8.26172 17.7539 8.26172C14.48 8.26172 11.7993 10.9314 11.7773 14.2053C11.7554 17.5012 14.436 20.2039 17.7319 20.2148Z" stroke="white" stroke-width="0.2"/>
<path d="M21.3574 24.6094C23.7854 24.6094 26.2134 24.6094 28.6523 24.6094C28.7842 24.6094 28.916 24.5984 29.0478 24.6204C29.5312 24.6753 29.8828 25.0378 29.8828 25.4883C29.8828 25.9387 29.5422 26.3013 29.0588 26.3672C28.96 26.3782 28.8501 26.3782 28.7512 26.3782C23.8293 26.3782 18.9185 26.3782 13.9966 26.3782C13.5352 26.3782 13.1396 26.2793 12.9529 25.8179C12.7002 25.2356 13.1287 24.6423 13.8098 24.6204C14.3811 24.5984 14.9524 24.6204 15.5237 24.6204C17.4573 24.6094 19.4019 24.6094 21.3574 24.6094Z" stroke="white" stroke-width="0.2"/>
<path d="M18.1055 31.2891C16.7102 31.2891 15.3259 31.2891 13.9307 31.2891C13.5461 31.2891 13.2056 31.2012 12.9968 30.8386C12.7222 30.3662 12.9309 29.762 13.4692 29.5972C13.656 29.5422 13.8757 29.5312 14.0735 29.5312C16.7651 29.5312 19.4568 29.5312 22.1484 29.5312C22.2473 29.5312 22.3572 29.5312 22.4561 29.5312C22.9944 29.5642 23.3679 29.9268 23.3679 30.4102C23.3679 30.8936 22.9944 31.2671 22.4451 31.2781C21.665 31.3 20.896 31.2891 20.116 31.2891C19.4568 31.2891 18.7756 31.2891 18.1055 31.2891Z" stroke="white" stroke-width="0.2"/>
<path d="M7.92114 26.3672C7.48169 26.3672 7.04224 26.3782 6.60278 26.3672C6.03149 26.3562 5.64697 26.0046 5.625 25.5103C5.61401 25.0049 6.02051 24.6313 6.61377 24.6204C7.49268 24.6094 8.36059 24.6094 9.2395 24.6204C9.85474 24.6313 10.2283 24.9719 10.2283 25.4993C10.2283 26.0266 9.84375 26.3562 9.22852 26.3672C8.78906 26.3782 8.36059 26.3672 7.92114 26.3672Z" stroke="white" stroke-width="0.2"/>
<path d="M7.91016 31.2891C7.4707 31.2891 7.03125 31.3 6.5918 31.2891C6.02051 31.2781 5.63599 30.9155 5.625 30.4211C5.61401 29.9268 6.00952 29.5532 6.56982 29.5422C7.4707 29.5312 8.38257 29.5312 9.28345 29.5422C9.85474 29.5532 10.2283 29.9158 10.2173 30.4321C10.2063 30.9375 9.84375 31.2781 9.26147 31.2891C8.81104 31.3 8.3606 31.2891 7.91016 31.2891Z" stroke="white" stroke-width="0.2"/>
<path d="M7.93213 34.4531C8.37158 34.4531 8.81103 34.4421 9.25049 34.4531C9.86572 34.4641 10.2393 34.8047 10.2283 35.343C10.2173 35.8484 9.85474 36.2 9.27246 36.2109C8.38257 36.2219 7.49268 36.2219 6.60278 36.2109C6.03149 36.2 5.64697 35.8374 5.63599 35.343C5.625 34.8377 6.02051 34.4641 6.62476 34.4531C7.05322 34.4421 7.49267 34.4531 7.93213 34.4531Z" stroke="white" stroke-width="0.2"/>
<path d="M14.6008 35.354C14.5898 35.8264 14.1724 36.2219 13.7109 36.2C13.2495 36.178 12.854 35.7605 12.865 35.2991C12.887 34.8376 13.3044 34.4421 13.7659 34.4531C14.2383 34.4751 14.6118 34.8816 14.6008 35.354Z" stroke="white" stroke-width="0.2"/>
<path d="M16.875 15.1172C16.1829 15.1172 15.5457 15.1172 14.9194 15.1172C14.0735 15.1172 13.667 14.8206 13.667 14.2273C13.678 13.634 14.0845 13.3594 14.9414 13.3594C15.5457 13.3594 16.1389 13.3594 16.7432 13.3484C16.7651 13.3484 16.7981 13.3264 16.875 13.3044C16.875 12.5903 16.864 11.8652 16.875 11.1401C16.886 10.6128 17.1277 10.2722 17.5452 10.1843C18.1494 10.0525 18.6108 10.448 18.6218 11.1182C18.6328 11.8433 18.6218 12.5793 18.6218 13.3484C19.3469 13.3484 20.0281 13.3374 20.7092 13.3484C20.907 13.3484 21.1267 13.3704 21.3135 13.4473C21.687 13.5901 21.8738 13.9636 21.8079 14.3701C21.7419 14.7876 21.4233 15.0842 20.9509 15.0952C20.3467 15.1172 19.7534 15.1062 19.1492 15.1062C18.9954 15.1062 18.8306 15.1062 18.6328 15.1062C18.6328 15.8752 18.6438 16.6003 18.6328 17.3254C18.6218 17.8308 18.3911 18.1604 18.0066 18.2703C17.4023 18.4351 16.897 18.0286 16.886 17.3474C16.864 16.6223 16.875 15.8972 16.875 15.1172Z" stroke="white" stroke-width="0.2"/>
</g>
</g>
</g>
<defs>
<clipPath id="clip0_2198_3717">
<rect width="45" height="45" fill="white"/>
</clipPath>
</defs>
</svg>
