<svg width="43" height="43" viewBox="0 0 43 43" fill="none" xmlns="http://www.w3.org/2000/svg">
<g id="Frame" clip-path="url(#clip0_2198_3723)">
<g id="Group">
<path id="Vector" d="M38.8913 42.9995C37.6371 42.8315 36.7525 42.07 35.9014 41.2078C33.2699 38.5539 30.616 35.9224 27.9845 33.2685C27.7381 33.0221 27.559 32.9661 27.2454 33.1677C25.409 34.3323 23.4046 35.1049 21.2658 35.4969C18.1415 36.0792 15.0509 35.8664 12.0387 34.8138C9.08242 33.7836 6.57409 32.0927 4.49128 29.7523C2.40846 27.4008 1.03112 24.6909 0.381641 21.6115C0.236068 20.9172 0.16888 20.2005 0.068099 19.4951C0.0457031 19.3495 0.0121094 19.1927 -0.0214844 19.0471C-0.0214844 18.3193 -0.0214844 17.5914 -0.0214844 16.8635C0.000911457 16.7628 0.0457031 16.6508 0.056901 16.55C0.236068 13.9633 0.941536 11.5109 2.2181 9.24896C4.97279 4.40026 9.10482 1.41042 14.5806 0.313021C15.3085 0.167448 16.0363 0.0890625 16.7754 -0.0117188C17.4473 -0.0117188 18.1191 -0.0117188 18.791 -0.0117188C19.4293 0.0666667 20.0676 0.133854 20.6947 0.234635C25.2186 0.984896 28.9363 3.1237 31.8366 6.67344C31.915 6.77422 32.0158 6.8638 32.1165 6.98698C32.4749 6.62865 32.7884 6.29271 33.1243 5.97917C33.3147 5.8112 33.3147 5.66562 33.2139 5.44167C32.5868 3.98594 33.2587 2.29505 34.7257 1.67917C36.215 1.05208 37.8947 1.76875 38.4882 3.29167C38.5889 3.54922 38.7233 3.61641 38.9809 3.61641C40.3246 3.60521 41.6684 3.61641 43.0121 3.6276C43.0121 4.10911 43.0121 4.57943 43.0121 5.06094C41.646 5.06094 40.2686 5.06094 38.9025 5.04974C38.6897 5.04974 38.5889 5.11693 38.5105 5.31849C37.8723 6.94219 36.2598 7.58047 34.6249 6.90859C34.5241 6.8638 34.3449 6.875 34.2665 6.94219C33.8186 7.34531 33.4043 7.77083 32.9676 8.19635C33.1467 8.50989 33.3147 8.76745 33.4603 9.0362C35.0616 11.8133 35.8566 14.8143 35.8454 18.0057C35.8342 21.3315 34.9608 24.4333 33.1915 27.2776C33.0124 27.5687 33.0236 27.7255 33.2699 27.9719C35.9462 30.6258 38.5889 33.3021 41.2652 35.9448C42.0939 36.7622 42.8217 37.6245 43.0121 38.8227C43.0121 39.1026 43.0121 39.3825 43.0121 39.6625C42.9897 39.7521 42.9561 39.8417 42.9449 39.9424C42.7546 40.8831 42.2842 41.6445 41.5228 42.2492C40.9741 42.6859 40.3134 42.8651 39.6527 43.0331C39.3952 42.9995 39.1376 42.9995 38.8913 42.9995ZM34.4009 17.8714C34.3337 8.63307 26.8871 1.22005 17.5368 1.41042C8.57852 1.58958 1.23268 8.92422 1.42305 18.2633C1.59102 27.1544 8.84726 34.5451 18.2423 34.3771C27.2006 34.2091 34.3449 26.9753 34.4009 17.8714ZM35.2184 31.9135C34.0986 33.0221 33.0236 34.1083 31.9374 35.1833C33.8186 37.0646 35.7223 38.9906 37.6483 40.9055C37.7827 41.0398 37.9506 41.163 38.1186 41.2526C39.1376 41.8349 40.3582 41.5997 41.0973 40.6703C41.8251 39.7521 41.7803 38.4867 40.8845 37.5797C38.9921 35.6648 37.066 33.7724 35.2184 31.9135ZM30.8848 34.0635C31.9486 33.0109 33.0348 31.9471 34.0986 30.8945C33.3819 30.1891 32.7436 29.5396 32.1053 28.9125C31.6126 29.45 31.1087 30.0323 30.56 30.5698C30.0225 31.1073 29.4402 31.6112 28.9139 32.0927C29.5634 32.7422 30.2129 33.3805 30.8848 34.0635ZM35.8118 5.72161C36.6069 5.73281 37.2676 5.09453 37.2676 4.29948C37.2676 3.53802 36.6293 2.88854 35.8566 2.86615C35.0728 2.85495 34.4121 3.50443 34.4121 4.29948C34.4121 5.09453 35.028 5.72161 35.8118 5.72161Z" fill="#014898"/>
<path id="Vector_2" d="M2.87891 17.9143C2.95729 9.57187 9.53047 2.88672 17.9177 2.88672C26.3497 2.88672 32.9677 9.61667 32.9565 17.9367C32.9565 26.2792 26.1706 32.9867 17.9177 32.9531C9.59766 32.9083 2.95729 26.3016 2.87891 17.9143ZM4.41302 16.481C3.78594 22.3487 6.96615 28.0596 12.6435 30.456C18.3096 32.8523 24.8044 31.1727 28.6229 26.324C32.3294 21.6208 32.2175 15.4508 29.7763 11.3635C29.362 11.7891 28.9589 12.2146 28.5333 12.6177C28.3318 12.8081 28.287 12.9424 28.4102 13.2224C29.1044 14.7677 28.2758 16.5594 26.6521 17.0633C25.8458 17.3208 25.0844 17.1977 24.3341 16.8057C22.8224 18.3174 21.3331 19.8068 19.8549 21.3185C19.7766 21.3969 19.7766 21.6096 19.799 21.744C19.8661 22.2255 20.0677 22.707 20.0341 23.1661C19.9445 24.3643 19.3063 25.2042 18.1641 25.6185C17.0107 26.0328 15.9581 25.7753 15.1294 24.8906C14.2896 23.9948 14.1216 22.931 14.5807 21.7776C14.6367 21.6432 14.6255 21.4081 14.5359 21.3185C13.5841 20.3331 12.6099 19.3701 11.6357 18.407C11.5685 18.3398 11.3669 18.2951 11.2885 18.3398C9.75443 19.1461 7.82839 18.2503 7.34688 16.7161C7.31328 16.6266 7.1901 16.4922 7.10052 16.4922C6.21589 16.4698 5.33125 16.481 4.41302 16.481ZM29.026 10.1094C26.2938 6.07812 20.7396 3.20026 14.6143 4.72318C9.09375 6.10052 5.46563 10.6693 4.68177 15.0253C5.54401 15.0253 6.41745 15.0253 7.26849 15.0253C7.92917 13.0768 9.75443 12.5841 11.1206 13.1104C12.6883 13.7263 13.2258 15.3052 12.5315 17.2424C13.5505 18.2615 14.5807 19.2917 15.6221 20.3107C15.7005 20.3891 15.9245 20.3667 16.0477 20.3107C16.8091 19.9859 17.5706 19.9635 18.3208 20.3107C18.5896 20.4339 18.7352 20.3891 18.9255 20.1987C20.2357 18.8773 21.5458 17.556 22.8784 16.2458C23.0352 16.0891 23.2367 15.9771 23.4159 15.8427C23.3487 15.8091 23.2815 15.7867 23.2143 15.7531C23.1247 15.2156 22.9456 14.6669 22.9792 14.1294C23.1135 12.0242 25.3083 10.8932 27.0552 11.7555C27.1448 11.8003 27.3352 11.7779 27.4023 11.7107C27.951 11.1956 28.4773 10.6581 29.026 10.1094ZM10.0568 14.3422C9.26172 14.3422 8.64583 14.9469 8.62344 15.7307C8.61224 16.537 9.23932 17.1865 10.0344 17.1977C10.807 17.2089 11.4901 16.5258 11.4789 15.7531C11.4789 14.9805 10.8406 14.3534 10.0568 14.3422ZM17.2122 24.3531C18.0073 24.3531 18.6568 23.6924 18.6456 22.9086C18.6344 22.1359 17.9849 21.4977 17.2122 21.4977C16.4396 21.4977 15.8013 22.1359 15.7901 22.9086C15.7789 23.7148 16.4172 24.3531 17.2122 24.3531ZM27.2232 14.3422C27.2232 13.5471 26.6185 12.9313 25.8234 12.9201C25.0284 12.9089 24.3677 13.5471 24.3677 14.3422C24.3677 15.126 25.0396 15.7867 25.8234 15.7755C26.5961 15.7531 27.2232 15.1148 27.2232 14.3422Z" fill="#014898"/>
</g>
</g>
<defs>
<clipPath id="clip0_2198_3723">
<rect width="43" height="43" fill="white"/>
</clipPath>
</defs>
</svg>
