<svg width="47" height="46" viewBox="0 0 47 46" fill="none" xmlns="http://www.w3.org/2000/svg">
<g id="Group">
<path id="Vector" d="M9.49909 16.5614C9.49909 14.9631 9.48531 13.3647 9.49909 11.7663C9.51288 11.0696 9.69205 10.9193 10.395 10.7964C14.7779 10.086 18.9402 8.74721 22.7856 6.50677C23.1991 6.27453 23.5437 6.24721 23.9571 6.49311C27.8301 8.74721 32.02 10.0997 36.4443 10.7964C37.0507 10.892 37.2437 11.0833 37.2575 11.6844C37.3677 16.0286 37.5055 20.3866 36.8164 24.7035C36.2927 28.0505 35.2865 31.2199 33.288 34.0204C31.0552 37.1352 28.0093 39.1434 24.4395 40.4412C23.7366 40.7008 23.1302 40.7281 22.4135 40.4685C16.0045 38.2008 12.0627 33.7609 10.4777 27.2308C9.59557 23.7199 9.40261 20.1543 9.49909 16.5614ZM35.8654 16.9303C35.8654 15.4822 35.8654 14.0341 35.8654 12.5723C35.8654 12.2581 35.7689 12.1215 35.4244 12.0532C31.2758 11.3155 27.3339 10.004 23.6401 7.96852C23.5023 7.88656 23.2404 7.88656 23.1026 7.95486C19.4226 10.004 15.467 11.3019 11.3184 12.0532C10.9463 12.1215 10.8636 12.2718 10.8636 12.5997C10.8636 13.7472 10.836 14.8948 10.8222 16.056C10.7947 19.6079 10.9463 23.1598 11.7595 26.6434C13.1929 32.8319 16.8728 37.0532 22.951 39.1571C23.1715 39.239 23.4472 39.2663 23.6677 39.198C29.484 37.2172 33.2191 33.3101 34.7766 27.3948C35.7 23.9521 35.9067 20.4549 35.8654 16.9303Z" fill="#014898"/>
<path id="Vector_2" d="M43.2808 33.3516C44.1353 33.0511 44.8796 32.7778 45.6101 32.5183C46.1614 32.327 46.5473 32.4636 46.6989 32.8735C46.8505 33.297 46.6576 33.6385 46.0925 33.8434C44.728 34.3352 43.3773 34.8133 42.0128 35.2915C41.4064 35.5101 41.0894 35.3598 40.8826 34.7587C40.3864 33.3926 39.8903 32.0265 39.4079 30.674C39.2287 30.1685 39.3803 29.7724 39.78 29.6357C40.1935 29.4855 40.5518 29.6904 40.7448 30.1959C41.0894 31.1248 41.4201 32.0674 41.7923 33.0784C42.7295 31.5073 43.3911 29.909 43.8735 28.2423C47.2364 16.4527 39.7111 4.22591 27.5961 1.8352C21.9865 0.728645 16.7353 1.72591 11.8976 4.7587C11.7873 4.82701 11.6771 4.90897 11.553 4.97728C11.1258 5.22318 10.7123 5.15487 10.4918 4.78602C10.285 4.44449 10.3677 4.03466 10.7812 3.80242C12.0216 3.10569 13.2345 2.34067 14.5439 1.79422C26.5486 -3.19212 40.097 2.57291 44.6453 14.6494C46.9608 20.797 46.5335 26.8762 43.584 32.7642C43.5013 32.9144 43.4186 33.0647 43.2808 33.3516Z" fill="#014898"/>
<path id="Vector_3" d="M3.46264 11.6566C2.59433 11.9572 1.86384 12.2304 1.11958 12.4899C0.56827 12.6812 0.182355 12.5446 0.0445276 12.1074C-0.0932994 11.6839 0.0858757 11.3697 0.623401 11.1785C2.00167 10.6867 3.36616 10.1949 4.74443 9.70306C5.3233 9.49814 5.64031 9.63476 5.84705 10.2085C6.35701 11.5883 6.85318 12.9681 7.33558 14.3479C7.51475 14.8533 7.34936 15.2495 6.94966 15.3861C6.53618 15.5227 6.19161 15.3178 5.99865 14.7987C5.65409 13.8834 5.3233 12.9544 4.96495 11.9298C4.82713 12.1621 4.73065 12.326 4.63417 12.4899C-1.65074 23.938 4.15177 38.4736 16.6527 42.5036C23.103 44.5801 29.2225 43.7604 34.9699 40.1949C34.9975 40.1812 35.025 40.1539 35.0526 40.1402C35.5901 39.7987 36.0036 39.826 36.2517 40.1949C36.5136 40.5774 36.3895 40.9872 35.852 41.3014C34.9285 41.8479 34.0051 42.408 33.0403 42.8588C19.6711 49.0746 4.00016 41.2468 1.11958 26.8889C0.0996584 21.7796 0.802576 16.8752 3.18698 12.2167C3.2559 12.0665 3.32481 11.9162 3.46264 11.6566Z" fill="#014898"/>
<path id="Vector_4" d="M29.0424 17.1917C29.8969 16.2627 30.6687 15.443 31.4543 14.6097C31.6611 14.3911 31.854 14.1589 32.0746 13.954C32.3916 13.6534 32.7361 13.6124 33.0669 13.913C33.3839 14.2135 33.3701 14.5551 33.1083 14.8966C33.0394 14.9922 32.9567 15.0742 32.874 15.1562C32.0056 16.0851 31.1511 17.0277 30.269 17.943C30.0347 18.189 30.0209 18.3665 30.1725 18.6671C32.6121 23.2573 30.0899 28.79 25.0178 30.0469C20.6763 31.1261 16.2245 28.3392 15.3148 23.9676C14.4051 19.5961 17.3684 15.2791 21.7789 14.5824C24.4803 14.1452 26.8234 14.9103 28.7943 16.8092C28.8908 16.9048 28.9459 17.0414 29.0424 17.1917ZM28.1051 18.2026C26.2169 15.6343 22.1235 15.1288 19.3256 17.0824C16.4174 19.1179 15.7007 23.0933 17.713 26.0441C19.6839 28.9403 23.7222 29.7463 26.6855 27.8338C29.8969 25.7436 30.3379 21.8365 28.8632 19.3228C28.7667 19.4868 28.6978 19.6234 28.6013 19.7327C27.0577 21.3993 25.514 23.066 23.9565 24.7327C23.4466 25.2791 23.0882 25.2791 22.5645 24.7463C22.0683 24.2272 21.5721 23.7081 21.076 23.1889C20.566 22.6562 20.056 22.137 19.5599 21.5906C19.2704 21.2764 19.2704 20.9075 19.5874 20.607C19.9044 20.3064 20.2628 20.3338 20.5798 20.6206C20.7314 20.7573 20.8554 20.9075 20.9933 21.0578C21.7375 21.8365 22.4956 22.6152 23.2674 23.4212C24.9076 21.6452 26.5063 19.9239 28.1051 18.2026Z" fill="#014898"/>
<path id="Vector_5" d="M23.5305 33.4052C21.9868 33.4052 20.4294 33.4052 18.8857 33.4052C18.4998 33.4052 18.169 33.2549 18.1414 32.886C18.1276 32.6401 18.293 32.3396 18.4584 32.121C18.5411 32.0117 18.803 32.0117 18.9822 32.0117C22.0144 32.0117 25.0328 32.0117 28.065 32.0117C28.6163 32.0117 28.9195 32.2713 28.9333 32.7084C28.9333 33.1456 28.6301 33.4052 28.0788 33.4052C26.5627 33.4188 25.0466 33.4052 23.5305 33.4052Z" fill="#014898"/>
</g>
</svg>
