<svg width="33" height="40" viewBox="0 0 33 40" fill="none" xmlns="http://www.w3.org/2000/svg">
<g id="Frame" clip-path="url(#clip0_2198_3437)">
<g id="Group">
<path id="Vector" d="M2.80447 39.9989C2.30932 39.7698 1.76259 39.6135 1.31901 39.301C0.47312 38.7177 0.0501756 37.8531 0.0089127 36.8114C-0.00140303 36.6552 -0.00140303 36.4989 -0.00140303 36.3427C-0.00140303 26.7593 -0.00140303 17.176 -0.0117188 7.59268C-0.0117188 6.11351 0.555646 4.9781 1.88637 4.33226C2.3609 4.1031 2.92826 4.00935 3.45436 3.99893C5.43498 3.95726 7.42592 3.98851 9.40654 3.9781C9.59222 3.9781 9.80885 3.89476 9.95327 3.78018C10.3762 3.45726 10.8404 3.32185 11.3562 3.33226C11.7276 3.34268 12.1712 3.45726 12.46 3.2906C12.6973 3.14476 12.7385 2.67601 12.8829 2.3531C13.5638 0.842681 15.1421 -0.105236 16.7926 0.00934769C18.4018 0.123931 19.8357 1.25935 20.269 2.83226C20.3928 3.26976 20.5682 3.37393 20.9705 3.34268C21.3625 3.31143 21.7751 3.31143 22.1671 3.38435C22.4353 3.42601 22.7241 3.56143 22.9305 3.7281C23.178 3.93643 23.4256 3.99893 23.7351 3.99893C25.6538 3.98851 27.5725 3.98851 29.5016 3.99893C31.5957 3.99893 32.9986 5.40518 32.9986 7.51976C32.9986 17.1656 32.9986 26.8114 32.9986 36.4677C32.9986 38.3114 32.0599 39.5093 30.2856 39.9468C30.2546 39.9573 30.2237 39.9885 30.1927 40.0093C21.0633 39.9989 11.9339 39.9989 2.80447 39.9989ZM23.797 8.00935C23.766 8.1656 23.7351 8.30101 23.7041 8.43643C23.5081 9.32185 22.7551 9.9781 21.8576 9.98851C18.2884 9.99893 14.7191 9.99893 11.1396 9.98851C10.2421 9.98851 9.48906 9.32185 9.29306 8.43643C9.26212 8.30101 9.23117 8.15518 9.20022 8.01976C7.45686 8.01976 5.72382 8.01976 3.99078 8.01976C3.99078 17.3635 3.99078 26.676 3.99078 35.9781C12.3465 35.9781 20.6713 35.9781 29.0064 35.9781C29.0064 26.6448 29.0064 17.3323 29.0064 8.00935C27.2527 8.00935 25.53 8.00935 23.797 8.00935ZM9.22085 5.32185C9.0558 5.32185 8.93201 5.32185 8.80822 5.32185C7.04424 5.32185 5.28025 5.32185 3.50594 5.32185C2.12364 5.32185 1.32933 6.13435 1.32933 7.5406C1.32933 17.176 1.32933 26.8114 1.32933 36.4468C1.32933 37.8739 2.12364 38.676 3.52657 38.676C12.1815 38.676 20.826 38.676 29.4809 38.676C30.8942 38.676 31.6782 37.8739 31.6782 36.4468C31.6782 26.8114 31.6782 17.176 31.6782 7.5406C31.6782 6.14476 30.8839 5.33226 29.5016 5.33226C27.7376 5.33226 25.9736 5.33226 24.1993 5.33226C24.0652 5.33226 23.9311 5.33226 23.7867 5.33226C23.7867 5.80101 23.7867 6.21768 23.7867 6.6656C23.9414 6.6656 24.0858 6.6656 24.2199 6.6656C25.7363 6.6656 27.2631 6.6656 28.7795 6.6656C29.8523 6.6656 30.3475 7.1656 30.3475 8.2281C30.3475 17.4052 30.3475 26.5823 30.3475 35.7593C30.3475 36.8427 29.8523 37.3323 28.7898 37.3323C20.5888 37.3323 12.3878 37.3323 4.18678 37.3323C3.12426 37.3323 2.62911 36.8323 2.62911 35.7489C2.62911 26.5719 2.62911 17.3948 2.62911 8.21768C2.62911 7.15518 3.12426 6.65518 4.16615 6.65518C5.70319 6.65518 7.22992 6.65518 8.76696 6.65518C8.90107 6.65518 9.04549 6.65518 9.20022 6.65518C9.22085 6.20726 9.22085 5.7906 9.22085 5.32185ZM16.5038 4.67601C14.7913 4.67601 13.0789 4.67601 11.3665 4.67601C10.7992 4.67601 10.5619 4.90518 10.5619 5.4781C10.5516 6.26976 10.5516 7.06143 10.5619 7.86351C10.5619 8.42601 10.8095 8.67601 11.3665 8.67601C14.7913 8.67601 18.2162 8.67601 21.6513 8.67601C22.2083 8.67601 22.4559 8.42601 22.4559 7.86351C22.4662 7.08226 22.4559 6.30101 22.4559 5.51976C22.4559 4.90518 22.229 4.67601 21.61 4.67601C19.9079 4.67601 18.2059 4.67601 16.5038 4.67601ZM19.0002 3.31143C18.8248 2.17601 17.6282 1.26976 16.38 1.33226C15.2246 1.38435 14.0796 2.3531 14.028 3.31143C15.6785 3.31143 17.3393 3.31143 19.0002 3.31143Z" fill="#014898"/>
<path id="Vector_2" d="M16.5129 13.6042C17.3175 12.5209 18.3387 11.8021 19.6076 11.4896C22.2381 10.8542 24.6829 12.3438 25.4669 15.0729C26.1168 17.3334 25.6113 19.3854 24.2497 21.2604C23.0633 22.8854 21.5882 24.2292 20.1234 25.5834C19.4013 26.25 18.6689 26.9063 17.9467 27.5729C17.0287 28.4063 15.9661 28.4167 15.079 27.5729C13.284 25.875 11.4582 24.1979 9.72512 22.4375C8.62134 21.3334 7.76513 20.0209 7.42471 18.4375C7.12555 17.0521 7.2184 15.6875 7.78576 14.3854C9.41565 10.6771 13.5832 10.5104 15.9661 12.9792C16.1415 13.1667 16.3066 13.3646 16.5129 13.6042ZM24.4766 16.9792C24.3734 16.4375 24.3116 15.875 24.1465 15.3438C23.5482 13.4271 21.8977 12.375 20.0512 12.75C18.7101 13.0209 17.8023 13.9063 17.1421 15.0625C16.9874 15.3334 16.8223 15.5417 16.4922 15.5417C16.1724 15.5417 15.9868 15.3438 15.8423 15.0729C15.4607 14.3542 14.9346 13.75 14.2537 13.2917C12.4794 12.125 10.3131 12.6146 9.22996 14.4584C8.53881 15.6354 8.4047 16.9167 8.72449 18.2292C9.0546 19.6146 9.85922 20.75 10.8289 21.7188C12.5207 23.3959 14.264 25.0104 15.9971 26.6459C16.3375 26.9688 16.6573 26.9375 17.0287 26.5938C18.2872 25.4375 19.5766 24.3125 20.7836 23.1042C21.6914 22.1979 22.5269 21.2292 23.3109 20.2188C24.0433 19.2917 24.4353 18.1979 24.4766 16.9792Z" fill="#014898"/>
<path id="Vector_3" d="M16.5041 31.332C14.5751 31.332 12.6357 31.3424 10.7067 31.3216C10.4797 31.3216 10.1909 31.1966 10.0362 31.0299C9.71638 30.6758 9.97427 30.1029 10.4488 30.0091C10.5726 29.9883 10.7067 29.9987 10.8305 29.9987C14.606 29.9987 18.3816 29.9987 22.1675 29.9987C22.2912 29.9987 22.4254 29.9883 22.5491 30.0091C22.8792 30.0612 23.0959 30.3424 23.0856 30.6654C23.0856 30.9987 22.8586 31.2591 22.5285 31.3112C22.415 31.332 22.3016 31.3216 22.1778 31.3216C20.29 31.332 18.4022 31.332 16.5041 31.332Z" fill="#014898"/>
<path id="Vector_4" d="M16.4643 33.9987C15.4328 33.9987 14.4012 33.9987 13.3696 33.9987C12.8332 33.9987 12.5547 33.7695 12.5547 33.3424C12.5547 32.9154 12.8538 32.6758 13.3696 32.6758C15.474 32.6758 17.5681 32.6758 19.6725 32.6758C19.982 32.6758 20.2708 32.7487 20.3637 33.0508C20.4256 33.2591 20.4153 33.5716 20.3018 33.7279C20.178 33.8841 19.8892 33.9883 19.6725 33.9883C18.61 34.0091 17.5372 33.9987 16.4643 33.9987Z" fill="#014898"/>
<path id="Vector_5" d="M16.5144 6.65495C16.0914 6.65495 15.6685 6.66536 15.2352 6.65495C14.802 6.64453 14.5234 6.38411 14.5234 5.9987C14.5234 5.6237 14.802 5.33203 15.2249 5.33203C16.0708 5.32161 16.927 5.32161 17.7729 5.33203C18.1958 5.34245 18.4744 5.63411 18.464 6.00911C18.4537 6.38411 18.1752 6.64453 17.7419 6.65495C17.3396 6.66536 16.927 6.65495 16.5144 6.65495Z" fill="#014898"/>
<path id="Vector_6" d="M15.8442 19.344C15.8442 18.8857 15.8339 18.5003 15.8442 18.1149C15.8546 17.6149 16.1124 17.3336 16.5148 17.344C16.9068 17.3544 17.144 17.6253 17.1543 18.1149C17.1647 18.4794 17.1647 18.844 17.1647 19.2086C17.1647 19.2294 17.1853 19.2607 17.2059 19.344C17.5876 19.344 18.0002 19.3336 18.4025 19.344C18.8358 19.3544 19.0937 19.594 19.1143 19.9586C19.1453 20.3649 18.8771 20.6565 18.4232 20.6774C18.0105 20.6982 17.6082 20.6774 17.144 20.6774C17.144 21.1461 17.1647 21.5732 17.144 21.9899C17.1234 22.469 16.752 22.7607 16.3394 22.6461C15.999 22.5524 15.8339 22.3024 15.8339 21.9482C15.8236 21.5419 15.8339 21.1461 15.8339 20.6669C15.5451 20.6669 15.2872 20.6669 15.019 20.6669C14.823 20.6669 14.627 20.6774 14.4413 20.6461C14.0802 20.594 13.8533 20.3336 13.8636 19.9899C13.8636 19.6461 14.0906 19.3753 14.4619 19.344C14.9055 19.3232 15.3388 19.344 15.8442 19.344Z" fill="#014898"/>
</g>
</g>
<defs>
<clipPath id="clip0_2198_3437">
<rect width="33" height="40" fill="white"/>
</clipPath>
</defs>
</svg>
