<svg width="42" height="42" viewBox="0 0 42 42" fill="none" xmlns="http://www.w3.org/2000/svg">
<path d="M1 30.846C1 28.945 1 27.045 1 25.1441C1.02399 25.1002 1.05841 25.0585 1.06885 25.0116C1.33275 23.7898 2.04832 22.9332 3.18948 22.4449C3.41688 22.3479 3.42209 22.2133 3.42209 22.0244C3.42001 19.7729 3.41583 17.5203 3.42627 15.2687C3.42731 15.0215 3.34177 14.9182 3.12481 14.8128C1.88873 14.2139 1.18359 13.2165 1.09075 11.8455C0.967664 10.0342 2.21313 8.50157 4.01458 8.17291C5.69606 7.86512 7.40154 8.897 7.93457 10.5434C8.48429 12.2399 7.69048 14.0626 6.05489 14.817C5.82854 14.9213 5.75761 15.0319 5.75865 15.275C5.76804 17.4744 5.76387 19.6748 5.76595 21.8742C5.76595 21.9702 5.78369 22.0672 5.79307 22.1632C5.83271 22.1757 5.87131 22.1882 5.91094 22.1997C5.96519 22.0672 6.03403 21.9389 6.07158 21.8022C6.48361 20.2893 7.22943 18.9632 8.33304 17.8521C10.0948 16.0784 12.2332 15.1769 14.7346 15.1467C15.2499 15.1404 15.7662 15.1467 16.3086 15.1467C16.3086 14.9443 16.3086 14.7909 16.3086 14.6365C16.3086 11.76 16.2961 8.88343 16.3138 6.00691C16.3295 3.30463 18.567 1.03013 21.255 1.01761C26.1879 0.994655 31.1207 0.993612 36.0536 1.01761C38.7073 1.03013 40.9541 3.28377 40.9791 5.94118C41.0073 8.92204 41.0042 11.9029 40.9802 14.8837C40.9604 17.3116 39.0911 19.4192 36.6888 19.7614C36.1955 19.8313 35.6927 19.8324 35.2076 19.8647C35.4945 20.6357 35.7772 21.3963 36.0672 22.1768C36.4938 22.1768 36.9361 22.1747 37.3773 22.1768C39.4552 22.1882 40.976 23.7001 40.9864 25.7742C40.9937 27.284 40.9948 28.7937 40.9864 30.3034C40.975 32.3567 39.4552 33.8748 37.4075 33.8915C36.9538 33.8946 36.5011 33.8915 36.0411 33.8915C35.9973 34.0449 35.9628 34.167 35.9274 34.2901C35.023 37.4389 33.0119 39.5392 29.916 40.5857C29.3318 40.7829 28.708 40.8642 28.103 40.9999H13.8865C13.8146 40.9759 13.7447 40.9414 13.6706 40.931C10.0969 40.3916 7.65085 38.4311 6.31045 35.0841C6.15816 34.7032 6.0622 34.3005 5.93389 33.8905C5.42799 33.8905 4.9346 33.8999 4.44225 33.8884C2.95687 33.856 1.63942 32.8826 1.17733 31.4782C1.10848 31.2706 1.05841 31.0567 1 30.8449V30.846ZM16.3076 17.49C15.7266 17.49 15.1946 17.4848 14.6637 17.49C11.0754 17.5286 8.13693 20.4542 8.1119 24.0412C8.09312 26.7352 8.09104 29.4291 8.1119 32.123C8.14006 35.685 11.0785 38.6283 14.6459 38.6482C18.8747 38.6711 23.1045 38.6711 27.3332 38.6482C30.9205 38.6283 33.8485 35.684 33.8745 32.0897C33.8944 29.4093 33.8881 26.7279 33.8745 24.0475C33.8672 22.5837 33.3905 21.2701 32.5175 20.0953C32.3704 19.897 32.2129 19.8251 31.9646 19.8251C28.8937 19.8344 25.8228 19.8282 22.7519 19.8365C22.5537 19.8365 22.3399 19.8918 22.1615 19.9795C20.866 20.6138 19.5527 21.2158 18.2957 21.9201C17.1494 22.5628 16.2064 21.7845 16.2888 20.6963C16.3681 19.6498 16.3055 18.5929 16.3055 17.4869L16.3076 17.49ZM18.6504 19.1051C19.5829 18.6409 20.4466 18.2246 21.2957 17.7811C21.6869 17.5766 22.0812 17.4827 22.5255 17.4838C26.9233 17.4932 31.32 17.4911 35.7177 17.489C37.4993 17.489 38.6426 16.3423 38.6447 14.5582C38.6468 11.7996 38.6468 9.04202 38.6447 6.2834C38.6436 4.49823 37.5004 3.35263 35.7198 3.35263C31.0102 3.35159 26.3005 3.35263 21.5909 3.35263C19.7884 3.35263 18.6525 4.49614 18.6514 6.30844C18.6514 10.4203 18.6514 14.5311 18.6514 18.6429C18.6514 18.7713 18.6514 18.8986 18.6514 19.1062L18.6504 19.1051ZM36.256 24.5191V31.5482C36.6116 31.5482 36.959 31.5482 37.3064 31.5482C37.4107 31.5482 37.515 31.5534 37.6182 31.5388C38.1961 31.4595 38.6353 30.9879 38.6395 30.39C38.6509 28.8177 38.652 27.2443 38.6395 25.672C38.6342 25.0282 38.1388 24.5452 37.4972 24.5222C37.0946 24.5076 36.692 24.5191 36.257 24.5191H36.256ZM5.74718 24.5191C5.30073 24.5191 4.89809 24.5087 4.49649 24.5212C3.85394 24.542 3.35325 25.023 3.34803 25.6636C3.33343 27.236 3.33656 28.8094 3.34595 30.3817C3.34908 30.9388 3.7079 31.4229 4.24928 31.4981C4.73954 31.5669 5.24649 31.5127 5.74718 31.5127V24.518V24.5191ZM4.60706 12.8012C5.23814 12.7929 5.76491 12.2566 5.76178 11.6254C5.75865 10.9931 5.22771 10.4631 4.59559 10.461C3.94886 10.4589 3.40749 11.0098 3.42105 11.6556C3.43461 12.2858 3.97598 12.8096 4.60602 12.8012H4.60706Z" fill="#014898"/>
<path d="M20.9557 33.8915C20.2286 33.8915 19.5005 33.8936 18.7735 33.8915C18.0162 33.8884 17.4873 33.4105 17.4811 32.7302C17.4748 32.0489 18.0047 31.5523 18.7526 31.5502C20.2464 31.546 21.7401 31.546 23.2338 31.5502C23.9838 31.5523 24.5127 32.0469 24.5064 32.7292C24.5001 33.4116 23.9744 33.8873 23.215 33.8915C22.4619 33.8946 21.7077 33.8915 20.9546 33.8915H20.9557Z" fill="#014898"/>
<path d="M16.3076 26.899C16.3076 27.2756 16.3159 27.6523 16.3055 28.0279C16.2867 28.6935 15.785 29.1975 15.1477 29.2037C14.4957 29.211 13.9773 28.6977 13.9679 28.0122C13.9575 27.2464 13.9575 26.4806 13.9679 25.7148C13.9773 25.0282 14.4915 24.5149 15.1445 24.5201C15.7965 24.5243 16.293 25.0376 16.3065 25.7304C16.3138 26.1196 16.3076 26.5087 16.3076 26.899Z" fill="#014898"/>
<path d="M25.6809 26.8593C25.6809 26.4701 25.6716 26.0799 25.683 25.6908C25.7018 25.0272 26.2077 24.5243 26.845 24.5201C27.4813 24.5159 28.006 25.0178 28.0185 25.6772C28.0342 26.4691 28.0352 27.261 28.0185 28.0519C28.005 28.7102 27.4751 29.211 26.8398 29.2037C26.2035 29.1964 25.7008 28.6914 25.6841 28.0268C25.6736 27.6376 25.682 27.2485 25.682 26.8583L25.6809 26.8593Z" fill="#014898"/>
<path d="M28.6444 6.94486C30.7504 6.94486 32.8575 6.94173 34.9635 6.94695C35.895 6.94904 36.4854 7.79415 36.1141 8.59336C35.8888 9.07956 35.482 9.29032 34.951 9.28927C32.7532 9.28614 30.5564 9.28823 28.3586 9.28823C26.3433 9.28823 24.328 9.29345 22.3117 9.28614C21.3865 9.28301 20.8044 8.41599 21.1893 7.62304C21.424 7.13997 21.8329 6.94278 22.3639 6.94382C24.4574 6.94904 26.5509 6.94591 28.6444 6.94591V6.94486Z" fill="#014898"/>
<path d="M28.6496 13.9739C26.5436 13.9739 24.4365 13.9781 22.3305 13.9718C21.3813 13.9687 20.795 13.0923 21.2008 12.2889C21.4355 11.8236 21.8329 11.6285 22.3472 11.6295C24.883 11.6326 27.4188 11.6306 29.9535 11.6306C31.6047 11.6306 33.256 11.6295 34.9072 11.6306C35.6937 11.6306 36.2278 12.1136 36.2226 12.8095C36.2174 13.5055 35.6864 13.9718 34.8916 13.9729C32.8106 13.975 30.7306 13.9729 28.6496 13.9729V13.9739Z" fill="#014898"/>
<path d="M1 30.846C1 28.945 1 27.045 1 25.1441C1.02399 25.1002 1.05841 25.0585 1.06885 25.0116C1.33275 23.7898 2.04832 22.9332 3.18948 22.4449C3.41688 22.3479 3.42209 22.2133 3.42209 22.0244C3.42001 19.7729 3.41583 17.5203 3.42627 15.2687C3.42731 15.0215 3.34177 14.9182 3.12481 14.8128C1.88873 14.2139 1.18359 13.2165 1.09075 11.8455C0.967664 10.0342 2.21313 8.50157 4.01458 8.17291C5.69606 7.86512 7.40154 8.897 7.93457 10.5434C8.48429 12.2399 7.69048 14.0626 6.05489 14.817C5.82854 14.9213 5.75761 15.0319 5.75865 15.275C5.76804 17.4744 5.76387 19.6748 5.76595 21.8742C5.76595 21.9702 5.78369 22.0672 5.79307 22.1632C5.83271 22.1757 5.87131 22.1882 5.91094 22.1997C5.96519 22.0672 6.03403 21.9389 6.07158 21.8022C6.48361 20.2893 7.22943 18.9632 8.33304 17.8521C10.0948 16.0784 12.2332 15.1769 14.7346 15.1467C15.2499 15.1404 15.7662 15.1467 16.3086 15.1467C16.3086 14.9443 16.3086 14.7909 16.3086 14.6365C16.3086 11.76 16.2961 8.88343 16.3138 6.00691C16.3295 3.30463 18.567 1.03013 21.255 1.01761C26.1879 0.994655 31.1207 0.993612 36.0536 1.01761C38.7073 1.03013 40.9541 3.28377 40.9791 5.94118C41.0073 8.92204 41.0042 11.9029 40.9802 14.8837C40.9604 17.3116 39.0911 19.4192 36.6888 19.7614C36.1955 19.8313 35.6927 19.8324 35.2076 19.8647C35.4945 20.6357 35.7772 21.3963 36.0672 22.1768C36.4938 22.1768 36.9361 22.1747 37.3773 22.1768C39.4552 22.1882 40.976 23.7001 40.9864 25.7742C40.9937 27.284 40.9948 28.7937 40.9864 30.3034C40.975 32.3567 39.4552 33.8748 37.4075 33.8915C36.9538 33.8946 36.5011 33.8915 36.0411 33.8915C35.9973 34.0449 35.9628 34.167 35.9274 34.2901C35.023 37.4389 33.0119 39.5392 29.916 40.5857C29.3318 40.7829 28.708 40.8642 28.103 40.9999H13.8865C13.8146 40.9759 13.7447 40.9414 13.6706 40.931C10.0969 40.3916 7.65085 38.4311 6.31045 35.0841C6.15816 34.7032 6.0622 34.3005 5.93389 33.8905C5.42799 33.8905 4.9346 33.8999 4.44225 33.8884C2.95687 33.856 1.63942 32.8826 1.17733 31.4782C1.10848 31.2706 1.05841 31.0567 1 30.8449V30.846ZM16.3076 17.49C15.7266 17.49 15.1946 17.4848 14.6637 17.49C11.0754 17.5286 8.13693 20.4542 8.1119 24.0412C8.09312 26.7352 8.09104 29.4291 8.1119 32.123C8.14006 35.685 11.0785 38.6283 14.6459 38.6482C18.8747 38.6711 23.1045 38.6711 27.3332 38.6482C30.9205 38.6283 33.8485 35.684 33.8745 32.0897C33.8944 29.4093 33.8881 26.7279 33.8745 24.0475C33.8672 22.5837 33.3905 21.2701 32.5175 20.0953C32.3704 19.897 32.2129 19.8251 31.9646 19.8251C28.8937 19.8344 25.8228 19.8282 22.7519 19.8365C22.5537 19.8365 22.3399 19.8918 22.1615 19.9795C20.866 20.6138 19.5527 21.2158 18.2957 21.9201C17.1494 22.5628 16.2064 21.7845 16.2888 20.6963C16.3681 19.6498 16.3055 18.5929 16.3055 17.4869L16.3076 17.49ZM18.6504 19.1051C19.5829 18.6409 20.4466 18.2246 21.2957 17.7811C21.6869 17.5766 22.0812 17.4827 22.5255 17.4838C26.9233 17.4932 31.32 17.4911 35.7177 17.489C37.4993 17.489 38.6426 16.3423 38.6447 14.5582C38.6468 11.7996 38.6468 9.04202 38.6447 6.2834C38.6436 4.49823 37.5004 3.35263 35.7198 3.35263C31.0102 3.35159 26.3005 3.35263 21.5909 3.35263C19.7884 3.35263 18.6525 4.49614 18.6514 6.30844C18.6514 10.4203 18.6514 14.5311 18.6514 18.6429C18.6514 18.7713 18.6514 18.8986 18.6514 19.1062L18.6504 19.1051ZM36.256 24.5191V31.5482C36.6116 31.5482 36.959 31.5482 37.3064 31.5482C37.4107 31.5482 37.515 31.5534 37.6182 31.5388C38.1961 31.4595 38.6353 30.9879 38.6395 30.39C38.6509 28.8177 38.652 27.2443 38.6395 25.672C38.6342 25.0282 38.1388 24.5452 37.4972 24.5222C37.0946 24.5076 36.692 24.5191 36.257 24.5191H36.256ZM5.74718 24.5191C5.30073 24.5191 4.89809 24.5087 4.49649 24.5212C3.85394 24.542 3.35325 25.023 3.34803 25.6636C3.33343 27.236 3.33656 28.8094 3.34595 30.3817C3.34908 30.9388 3.7079 31.4229 4.24928 31.4981C4.73954 31.5669 5.24649 31.5127 5.74718 31.5127V24.518V24.5191ZM4.60706 12.8012C5.23814 12.7929 5.76491 12.2566 5.76178 11.6254C5.75865 10.9931 5.22771 10.4631 4.59559 10.461C3.94886 10.4589 3.40749 11.0098 3.42105 11.6556C3.43461 12.2858 3.97598 12.8096 4.60602 12.8012H4.60706Z" stroke="white" stroke-width="0.7"/>
<path d="M20.9557 33.8915C20.2286 33.8915 19.5005 33.8936 18.7735 33.8915C18.0162 33.8884 17.4873 33.4105 17.4811 32.7302C17.4748 32.0489 18.0047 31.5523 18.7526 31.5502C20.2464 31.546 21.7401 31.546 23.2338 31.5502C23.9838 31.5523 24.5127 32.0469 24.5064 32.7292C24.5001 33.4116 23.9744 33.8873 23.215 33.8915C22.4619 33.8946 21.7077 33.8915 20.9546 33.8915H20.9557Z" stroke="white" stroke-width="0.7"/>
<path d="M16.3076 26.899C16.3076 27.2756 16.3159 27.6523 16.3055 28.0279C16.2867 28.6935 15.785 29.1975 15.1477 29.2037C14.4957 29.211 13.9773 28.6977 13.9679 28.0122C13.9575 27.2464 13.9575 26.4806 13.9679 25.7148C13.9773 25.0282 14.4915 24.5149 15.1445 24.5201C15.7965 24.5243 16.293 25.0376 16.3065 25.7304C16.3138 26.1196 16.3076 26.5087 16.3076 26.899Z" stroke="white" stroke-width="0.7"/>
<path d="M25.6809 26.8593C25.6809 26.4701 25.6716 26.0799 25.683 25.6908C25.7018 25.0272 26.2077 24.5243 26.845 24.5201C27.4813 24.5159 28.006 25.0178 28.0185 25.6772C28.0342 26.4691 28.0352 27.261 28.0185 28.0519C28.005 28.7102 27.4751 29.211 26.8398 29.2037C26.2035 29.1964 25.7008 28.6914 25.6841 28.0268C25.6736 27.6376 25.682 27.2485 25.682 26.8583L25.6809 26.8593Z" stroke="white" stroke-width="0.7"/>
<path d="M28.6444 6.94486C30.7504 6.94486 32.8575 6.94173 34.9635 6.94695C35.895 6.94904 36.4854 7.79415 36.1141 8.59336C35.8888 9.07956 35.482 9.29032 34.951 9.28927C32.7532 9.28614 30.5564 9.28823 28.3586 9.28823C26.3433 9.28823 24.328 9.29345 22.3117 9.28614C21.3865 9.28301 20.8044 8.41599 21.1893 7.62304C21.424 7.13997 21.8329 6.94278 22.3639 6.94382C24.4574 6.94904 26.5509 6.94591 28.6444 6.94591V6.94486Z" stroke="white" stroke-width="0.7"/>
<path d="M28.6496 13.9739C26.5436 13.9739 24.4365 13.9781 22.3305 13.9718C21.3813 13.9687 20.795 13.0923 21.2008 12.2889C21.4355 11.8236 21.8329 11.6285 22.3472 11.6295C24.883 11.6326 27.4188 11.6306 29.9535 11.6306C31.6047 11.6306 33.256 11.6295 34.9072 11.6306C35.6937 11.6306 36.2278 12.1136 36.2226 12.8095C36.2174 13.5055 35.6864 13.9718 34.8916 13.9729C32.8106 13.975 30.7306 13.9729 28.6496 13.9729V13.9739Z" stroke="white" stroke-width="0.7"/>
</svg>
