<svg width="40" height="41" viewBox="0 0 40 41" fill="none" xmlns="http://www.w3.org/2000/svg">
<path d="M31.2067 31.0211C30.3988 31.0211 29.4754 31.0211 28.6675 31.0211C27.0516 31.0211 25.8975 29.867 25.8975 28.2511C25.8975 26.8661 25.8975 25.4811 25.8975 24.0961C24.1662 24.0961 22.4349 24.0961 20.7037 24.0961C20.7037 24.2115 20.7037 24.4423 20.7037 24.5577C20.7037 27.4432 20.7037 30.2132 20.7037 33.0987C20.7037 33.4449 20.8191 33.6758 21.1653 33.7912C22.6658 34.3683 23.5891 35.9841 23.2428 37.6C22.8966 39.3312 21.5116 40.4854 19.8957 40.4854C18.2799 40.4854 16.7795 39.3312 16.4332 37.6C16.0869 35.9841 17.0103 34.3683 18.5107 33.7912C18.6261 33.6758 18.857 33.6758 18.9724 33.5603C18.9724 30.3286 18.9724 27.2124 18.9724 23.9807C17.2411 23.9807 15.5099 23.9807 13.7786 23.9807C13.7786 25.0194 13.6632 26.0582 13.7786 27.0969C14.0094 29.867 12.7398 31.1366 10.0852 30.9057C9.16188 30.7903 8.46937 30.9057 8.0077 31.9445C7.3152 33.3295 5.58393 33.7912 4.0835 33.3295C2.58307 32.7524 1.65972 31.3674 1.77514 29.7515C1.89056 28.1357 3.04474 26.9815 4.66059 26.6353C6.16102 26.4044 7.66145 27.2124 8.35396 28.5974C8.46937 28.8282 8.46937 28.9436 8.58479 29.1745C9.50813 29.1745 10.3161 29.1745 11.2394 29.1745C11.8165 29.1745 12.1627 28.8282 12.1627 28.2511C12.1627 26.9815 12.1627 25.7119 12.1627 24.4423C12.1627 24.3269 12.1627 24.2115 12.1627 23.9807C11.9319 23.9807 11.7011 23.9807 11.5857 23.9807C9.9698 23.9807 8.35396 23.9807 6.85352 23.9807C3.96808 23.8652 1.54431 21.7877 1.08264 19.0177C0.620965 16.0168 2.1214 13.2468 4.89142 12.208C5.46851 11.9772 6.0456 11.8618 6.50727 11.7464C4.89142 6.55257 8.12312 2.51295 11.4702 1.24336C15.1636 -0.141658 19.6649 1.01252 22.2041 5.05214C24.8587 3.78255 27.3979 3.78255 29.9371 5.28298C32.4763 6.78341 33.6304 9.09176 33.7459 11.9772C35.3617 12.208 36.6313 13.016 37.6701 14.2856C39.1705 16.2477 39.4013 18.3252 38.3626 20.5181C37.3238 22.7111 35.5925 23.8652 33.1688 23.9807C31.4375 24.0961 29.5908 23.9807 27.7441 23.9807C27.7441 24.5577 27.7441 25.1348 27.7441 25.8273C27.7441 26.6353 27.7441 27.4432 27.7441 28.2511C27.7441 28.9436 28.0904 29.1745 28.6675 29.1745C29.36 29.1745 30.1679 29.1745 30.8604 29.1745C31.2067 29.1745 31.3221 29.059 31.4375 28.7128C32.0146 27.2124 33.3996 26.4044 34.9 26.5198C36.4005 26.6353 37.6701 27.7894 38.0163 29.2899C38.3626 31.0211 37.4392 32.7524 35.708 33.2141C33.9767 33.7912 32.2454 32.9832 31.4375 31.3674C31.3221 31.3674 31.2067 31.1366 31.2067 31.0211ZM19.7803 22.3648C24.0508 22.3648 28.3212 22.3648 32.5917 22.3648C33.515 22.3648 34.4384 22.134 35.2463 21.5569C36.7467 20.5181 37.4392 18.556 36.9776 16.8248C36.5159 14.9781 34.9 13.8239 33.0534 13.7085C32.13 13.7085 31.8992 13.3622 32.0146 12.4389C32.0146 12.3235 32.0146 12.208 32.0146 12.0926C32.0146 9.20718 30.1679 6.78341 27.2825 6.0909C25.5512 5.74465 24.0508 5.97548 22.5503 7.01424C21.8578 7.47592 21.3962 7.3605 20.9345 6.55257C20.9345 6.43716 20.8191 6.43715 20.8191 6.32174C19.4341 3.55171 16.4332 2.05128 13.4323 2.51295C10.5469 2.97462 8.23854 5.3984 7.77687 8.39926C7.54603 9.78427 7.77687 11.0539 8.35396 12.3235C8.70021 13.1314 8.35396 13.7085 7.43061 13.7085C7.19978 13.7085 6.85353 13.7085 6.62269 13.7085C4.42975 13.8239 2.58307 15.6706 2.58307 17.8635C2.58307 20.2873 4.42975 22.3648 6.96894 22.3648C11.2394 22.3648 15.5099 22.2494 19.7803 22.3648ZM5.12226 31.8291C6.0456 31.8291 6.85352 31.1366 6.85352 30.0978C6.85352 29.1745 6.16102 28.3665 5.12226 28.3665C4.19892 28.3665 3.39099 29.1745 3.39099 30.0978C3.39099 31.0211 4.19892 31.8291 5.12226 31.8291ZM34.5538 28.3665C33.6304 28.3665 32.8225 29.1745 32.8225 30.0978C32.8225 31.0211 33.6304 31.8291 34.5538 31.8291C35.4771 31.8291 36.2851 31.0211 36.2851 30.0978C36.2851 29.1745 35.4771 28.3665 34.5538 28.3665ZM19.8957 35.2916C18.9724 35.2916 18.1645 36.0995 18.1645 37.0229C18.1645 37.9462 18.9724 38.7541 19.8957 38.7541C20.8191 38.7541 21.627 37.9462 21.627 37.0229C21.5116 36.0995 20.8191 35.2916 19.8957 35.2916Z" fill="#014898" stroke="white" stroke-width="0.5"/>
</svg>
