<svg width="50" height="44" viewBox="0 0 50 44" fill="none" xmlns="http://www.w3.org/2000/svg">
<g clip-path="url(#clip0_5029_4859)">
<path d="M48.3479 28.0695C48.7984 28.0695 49.1641 27.6941 49.1641 27.2316V4.36103C49.1641 2.05198 47.3341 0.171875 45.083 0.171875H18.9639C16.7128 0.171875 14.8828 2.05198 14.8828 4.36111V29.1266C14.8828 31.4357 16.7128 33.3158 18.9639 33.3158H45.083C47.3341 33.3158 49.164 31.4357 49.164 29.1266V24.0996C49.164 23.6371 48.7983 23.2617 48.3478 23.2617C47.8972 23.2617 47.5315 23.6371 47.5315 24.0996V29.1266C47.5315 30.5124 46.4329 31.6401 45.0829 31.6401H18.9639C17.6138 31.6401 16.5152 30.5124 16.5152 29.1266V8.55026H47.5316V16.0305V27.2317C47.5317 27.6942 47.8973 28.0695 48.3479 28.0695ZM16.5152 6.87461V4.36111C16.5152 2.9753 17.6138 1.8476 18.9639 1.8476H45.083C46.433 1.8476 47.5316 2.9753 47.5316 4.36111V6.87461H16.5152Z" fill="#014898"/>
<path d="M18.9647 5.19916C19.4155 5.19916 19.7809 4.82404 19.7809 4.3613C19.7809 3.89856 19.4155 3.52344 18.9647 3.52344C18.5139 3.52344 18.1484 3.89856 18.1484 4.3613C18.1484 4.82404 18.5139 5.19916 18.9647 5.19916Z" fill="#014898"/>
<path d="M22.2303 5.19916C22.6811 5.19916 23.0466 4.82404 23.0466 4.3613C23.0466 3.89856 22.6811 3.52344 22.2303 3.52344C21.7795 3.52344 21.4141 3.89856 21.4141 4.3613C21.4141 4.82404 21.7795 5.19916 22.2303 5.19916Z" fill="#014898"/>
<path d="M25.4959 5.19916C25.9467 5.19916 26.3122 4.82404 26.3122 4.3613C26.3122 3.89856 25.9467 3.52344 25.4959 3.52344C25.0451 3.52344 24.6797 3.89856 24.6797 4.3613C24.6797 4.82404 25.0451 5.19916 25.4959 5.19916Z" fill="#014898"/>
</g>
<g clip-path="url(#clip1_5029_4859)">
<rect width="34.4186" height="37.2093" transform="translate(0 6.51172)" fill="white"/>
<path d="M33.4651 32.514C33.9156 32.514 34.2813 32.1386 34.2813 31.6761V10.8727C34.2813 8.5637 32.4513 6.68359 30.2002 6.68359H4.08108C1.82999 6.68359 0 8.5637 0 10.8728V35.6383C0 37.9474 1.82999 39.8275 4.08108 39.8275H30.2001C32.4513 39.8275 34.2812 37.9474 34.2812 35.6383V30.6113C34.2812 30.1488 33.9155 29.7735 33.465 29.7735C33.0144 29.7735 32.6487 30.1488 32.6487 30.6113V35.6383C32.6487 37.0241 31.5501 38.1518 30.2001 38.1518H4.08108C2.73103 38.1518 1.63242 37.0241 1.63242 35.6383V15.062H32.6488V31.6762C32.6489 32.1387 33.0145 32.514 33.4651 32.514ZM1.63242 13.3863V10.8728C1.63242 9.48702 2.73103 8.35932 4.08108 8.35932H30.2001C31.5502 8.35932 32.6488 9.48702 32.6488 10.8728V13.3863H1.63242Z" fill="#014898"/>
<path d="M4.08187 11.7109C4.53267 11.7109 4.89812 11.3358 4.89812 10.873C4.89812 10.4103 4.53267 10.0352 4.08187 10.0352C3.63107 10.0352 3.26562 10.4103 3.26562 10.873C3.26562 11.3358 3.63107 11.7109 4.08187 11.7109Z" fill="#014898"/>
<path d="M7.3475 11.7109C7.7983 11.7109 8.16374 11.3358 8.16374 10.873C8.16374 10.4103 7.7983 10.0352 7.3475 10.0352C6.8967 10.0352 6.53125 10.4103 6.53125 10.873C6.53125 11.3358 6.8967 11.7109 7.3475 11.7109Z" fill="#014898"/>
<path d="M10.6131 11.7109C11.0639 11.7109 11.4294 11.3358 11.4294 10.873C11.4294 10.4103 11.0639 10.0352 10.6131 10.0352C10.1623 10.0352 9.79688 10.4103 9.79688 10.873C9.79688 11.3358 10.1623 11.7109 10.6131 11.7109Z" fill="#014898"/>
</g>
<defs>
<clipPath id="clip0_5029_4859">
<rect width="34.4186" height="37.2093" fill="white" transform="translate(14.8828)"/>
</clipPath>
<clipPath id="clip1_5029_4859">
<rect width="34.4186" height="37.2093" fill="white" transform="translate(0 6.51172)"/>
</clipPath>
</defs>
</svg>
