<svg width="37" height="42" viewBox="0 0 37 42" fill="none" xmlns="http://www.w3.org/2000/svg">
<g clip-path="url(#clip0_5352_4469)">
<path d="M26.1443 37.7574C29.4251 35.8802 31.8102 33.2587 33.2098 29.793C34.6655 26.194 34.7439 22.5283 33.5458 18.8405C33.333 18.1851 33.4002 17.8518 33.8033 17.7074C34.2064 17.563 34.4863 17.7852 34.6991 18.4406C38.0807 28.3489 31.631 39.0348 21.2287 40.7677C12.2708 42.2562 3.6824 36.7022 1.52131 28.0268C-0.930916 18.174 5.51876 8.50999 15.6076 6.91043C17.2088 6.65495 18.81 6.64384 20.4113 6.84379C20.8703 6.89933 21.1167 7.15481 21.0719 7.54359C21.0271 7.92127 20.7136 8.12121 20.2657 8.06567C20.1537 8.05456 20.0417 8.03235 19.8066 8.01013C19.9186 8.41002 20.0081 8.75437 20.1089 9.09872C20.2769 9.64301 20.5568 10.1651 20.6128 10.7205C20.792 12.6089 19.661 14.0862 17.7911 14.6194C16.7161 14.9193 15.6524 15.2415 14.5998 15.6191C14.1407 15.7857 13.7152 16.0968 13.3121 16.3856C12.5507 16.9188 12.1364 17.6186 12.1588 18.6072C12.1924 19.8846 11.2854 20.5289 10.0425 20.2067C9.75137 20.129 9.47143 19.9957 9.1915 19.8624C8.28451 19.4403 7.66866 19.5625 6.96322 20.2845C6.77287 20.4844 6.73928 20.64 6.95203 20.8399C7.09759 20.9843 7.24316 21.1398 7.36633 21.3064C7.95979 22.0729 7.78063 22.9504 6.90724 23.3947C6.2018 23.7613 5.42918 23.7613 4.65657 23.728C4.25346 23.7058 3.85036 23.6502 3.45845 23.5614C3.06654 23.4836 2.68583 23.3392 2.29392 23.2281C1.91321 27.1381 3.62641 33.2253 9.12431 36.9465C14.1183 40.3234 19.4483 40.6455 25.047 38.3684C24.3751 37.2687 24.6551 36.2689 25.1701 35.3025C25.6404 34.4361 26.1667 33.603 26.6818 32.7588C26.7826 32.5922 26.8833 32.4367 26.9841 32.2701C26.581 32.1812 26.2115 32.159 25.8644 32.0257C24.4871 31.5147 23.5353 29.6708 23.9384 28.2601C24.0168 27.9824 24.1848 27.6824 24.4087 27.4936C25.3829 26.6494 25.3717 25.3053 24.9238 24.35C24.5543 23.5503 23.9832 22.906 23.3226 22.3395C22.494 21.6175 21.6206 20.9399 20.8144 20.1845C20.3665 19.7735 19.9634 19.2959 19.6386 18.7849C18.8548 17.563 18.9556 16.2079 19.8626 15.0637C20.3665 14.4195 21.0271 13.9862 21.7885 13.7197C22.158 13.5864 22.494 13.7419 22.6171 14.0751C22.7291 14.3861 22.5835 14.6861 22.2476 14.8527C21.9453 15.0082 21.6318 15.1304 21.363 15.3192C20.2321 16.119 20.0193 17.3742 20.8927 18.4295C21.4302 19.0848 22.0797 19.6402 22.6955 20.2178C23.5353 21.0065 24.4647 21.7285 25.2261 22.5727C26.2339 23.6835 26.6818 25.0276 26.3459 26.5494C26.2115 27.1937 25.898 27.7491 25.4165 28.1934C25.1141 28.4711 25.047 28.8043 25.1141 29.1709C25.2597 30.104 25.9427 31.0926 27.1633 31.0148C28.0814 30.9593 28.5965 31.9368 28.1374 32.7366C27.6447 33.603 27.0961 34.4472 26.5922 35.3025C26.3794 35.6691 26.2003 36.069 26.0323 36.4578C25.8196 36.891 25.8532 37.3131 26.1443 37.7574ZM18.4965 7.92127C18.5637 7.93237 18.5301 7.92127 18.4853 7.92127C18.3845 7.92127 18.295 7.91016 18.1942 7.92127C12.5059 8.06567 8.04937 10.4539 4.85812 15.1082C3.53683 17.0298 2.77541 19.1737 2.42829 21.4731C2.3947 21.6619 2.32752 21.8729 2.60745 21.984C3.70479 22.4395 4.83572 22.6283 6.01145 22.4172C6.1906 22.3839 6.34737 22.2839 6.57131 22.184C6.32497 21.9063 6.12342 21.6841 5.94426 21.4619C5.56355 21.0065 5.46278 20.4955 5.72032 19.9513C6.29138 18.7405 8.04937 18.0407 9.30347 18.5294C9.617 18.6516 9.90813 18.8071 10.2217 18.9293C10.8039 19.1515 11.0055 19.0293 10.9831 18.4183C10.9383 17.2742 11.4086 16.3745 12.2596 15.6524C13.4577 14.6194 14.8798 14.0307 16.4026 13.6641C16.9289 13.5419 17.4775 13.442 17.9814 13.242C19.1571 12.7755 19.7282 11.4314 19.3027 10.2428C19.0228 9.4986 18.7764 8.73215 18.4965 7.92127Z" fill="#014898"/>
<path d="M29.2802 1C33.3672 1 36.5249 4.4657 36.2114 8.50902C35.9874 11.3749 34.8453 13.8631 33.2441 16.1847C32.2699 17.6176 31.139 18.9172 29.8849 20.1169C29.3922 20.5835 29.1458 20.5834 28.6756 20.1391C26.0666 17.6176 23.9391 14.774 22.8529 11.2749C22.3378 9.59761 22.0915 7.88698 22.5506 6.14302C23.3568 3.09942 26.1114 1 29.2802 1ZM29.2802 19.0283C31.3853 16.9067 33.1209 14.6184 34.2071 11.8859C34.7445 10.5307 35.0357 9.13107 35.0021 7.66482C34.9125 4.28798 31.6093 1.65537 28.2724 2.31075C25.1372 2.92169 23.1777 5.69869 23.6031 8.8867C23.8159 10.5085 24.3198 12.0192 25.07 13.4521C26.1561 15.5293 27.6006 17.3288 29.2802 19.0283Z" fill="#014898"/>
<path d="M12.8637 34.2361C12.8637 34.1806 12.8637 34.125 12.8749 34.0695C13.0429 32.9143 12.6958 32.0256 11.6208 31.4258C10.9266 31.037 10.3107 30.5371 9.67247 30.0484C9.03422 29.5596 8.57513 28.9376 8.47435 28.1156C8.37358 27.3491 8.63111 26.7049 9.25817 26.2494C9.69486 25.9273 9.82923 25.5941 9.62768 25.0498C9.37014 24.3389 9.60528 23.739 10.2771 23.3836C10.9938 23.0059 11.744 22.6949 12.5054 22.4172C13.1548 22.1839 13.8043 22.295 14.3754 22.706C14.7561 22.9837 15.1704 23.117 15.6407 23.1947C15.999 23.2503 16.3685 23.4835 16.626 23.739C16.9284 24.0389 17.1411 24.4277 17.3539 24.8054C17.6338 25.3164 18.0257 25.6274 18.608 25.7496C19.9069 26.0384 21.105 26.5716 22.1799 27.3491C22.9077 27.8823 23.49 28.5377 23.5236 29.5041C23.5572 30.4594 23.1429 31.1925 22.3031 31.6702C21.3177 32.2367 21.3177 32.2367 21.7992 33.2919C21.8888 33.4808 21.956 33.6807 22.0008 33.8807C22.1463 34.6138 21.8664 35.1025 21.1386 35.3136C19.235 35.8579 17.8689 37.002 17.0179 38.7793C16.794 39.2569 16.3685 39.4347 15.9094 39.157C15.3831 38.8348 14.924 38.4016 14.4537 38.0017C14.2634 37.8462 14.129 37.613 13.9387 37.4574C13.1325 36.791 12.8413 35.9134 12.8525 34.9026C12.8525 34.6804 12.8525 34.4583 12.8525 34.2361C12.8413 34.2361 12.8525 34.2361 12.8637 34.2361ZM20.825 34.1139C20.6459 33.7363 20.4667 33.4141 20.3212 33.0698C19.9405 32.2033 20.1868 31.448 21.0154 30.9704C21.2393 30.8371 21.4857 30.726 21.7208 30.5927C22.1239 30.3594 22.3143 29.9928 22.2919 29.5485C22.2807 29.0487 21.956 28.7043 21.5753 28.4266C20.5787 27.6713 19.459 27.1825 18.2496 26.9159C17.4098 26.7271 16.7828 26.2606 16.3573 25.5163C16.1893 25.2164 16.0102 24.9165 15.7974 24.6388C15.6966 24.5055 15.5063 24.3722 15.3607 24.3722C14.7561 24.3611 14.241 24.1278 13.7819 23.7835C13.4348 23.5169 13.0653 23.4724 12.6734 23.6391C12.1247 23.8723 11.576 24.1167 11.0273 24.3611C10.8146 24.4611 10.7362 24.6166 10.8258 24.8276C11.2289 25.7829 10.9154 26.5049 10.1204 27.1159C9.59409 27.5269 9.5381 28.0267 9.94121 28.571C10.1092 28.8043 10.3331 29.0153 10.5571 29.182C11.3409 29.7596 12.1471 30.315 12.9421 30.8815C13.6475 31.3814 14.0506 32.0589 14.0842 32.9143C14.1066 33.6363 14.0394 34.3583 14.0954 35.0803C14.129 35.4913 14.2746 35.9245 14.4985 36.2689C14.8009 36.7132 15.2152 37.0798 15.5959 37.4685C15.7302 37.613 15.8982 37.7351 16.0774 37.8907C17.1523 35.9801 18.6863 34.736 20.825 34.1139Z" fill="#014898"/>
<path d="M33.2651 8.66416C33.2315 10.708 31.5407 12.3298 29.5028 12.2854C27.4425 12.2409 25.8077 10.5636 25.8525 8.54197C25.8973 6.54253 27.5881 4.90965 29.6036 4.93186C31.6415 4.96519 33.2987 6.6425 33.2651 8.66416ZM29.5588 6.16486C28.1815 6.16486 27.0842 7.25344 27.0842 8.61973C27.0842 9.97491 28.2039 11.0857 29.5588 11.0857C30.9137 11.0857 32.0446 9.9638 32.0446 8.61973C32.0446 7.26455 30.9249 6.16486 29.5588 6.16486Z" fill="#014898"/>
<path d="M26.1443 37.7574C29.4251 35.8802 31.8102 33.2587 33.2098 29.793C34.6655 26.194 34.7439 22.5283 33.5458 18.8405C33.333 18.1851 33.4002 17.8518 33.8033 17.7074C34.2064 17.563 34.4863 17.7852 34.6991 18.4406C38.0807 28.3489 31.631 39.0348 21.2287 40.7677C12.2708 42.2562 3.6824 36.7022 1.52131 28.0268C-0.930916 18.174 5.51876 8.50999 15.6076 6.91043C17.2088 6.65495 18.81 6.64384 20.4113 6.84379C20.8703 6.89933 21.1167 7.15481 21.0719 7.54359C21.0271 7.92127 20.7136 8.12121 20.2657 8.06567C20.1537 8.05456 20.0417 8.03235 19.8066 8.01013C19.9186 8.41002 20.0081 8.75437 20.1089 9.09872C20.2769 9.64301 20.5568 10.1651 20.6128 10.7205C20.792 12.6089 19.661 14.0862 17.7911 14.6194C16.7161 14.9193 15.6524 15.2415 14.5998 15.6191C14.1407 15.7857 13.7152 16.0968 13.3121 16.3856C12.5507 16.9188 12.1364 17.6186 12.1588 18.6072C12.1924 19.8846 11.2854 20.5289 10.0425 20.2067C9.75137 20.129 9.47143 19.9957 9.1915 19.8624C8.28451 19.4403 7.66866 19.5625 6.96322 20.2845C6.77287 20.4844 6.73928 20.64 6.95203 20.8399C7.09759 20.9843 7.24316 21.1398 7.36633 21.3064C7.95979 22.0729 7.78063 22.9504 6.90724 23.3947C6.2018 23.7613 5.42918 23.7613 4.65657 23.728C4.25346 23.7058 3.85036 23.6502 3.45845 23.5614C3.06654 23.4836 2.68583 23.3392 2.29392 23.2281C1.91321 27.1381 3.62641 33.2253 9.12431 36.9465C14.1183 40.3234 19.4483 40.6455 25.047 38.3684C24.3751 37.2687 24.6551 36.2689 25.1701 35.3025C25.6404 34.4361 26.1667 33.603 26.6818 32.7588C26.7826 32.5922 26.8833 32.4367 26.9841 32.2701C26.581 32.1812 26.2115 32.159 25.8644 32.0257C24.4871 31.5147 23.5353 29.6708 23.9384 28.2601C24.0168 27.9824 24.1848 27.6824 24.4087 27.4936C25.3829 26.6494 25.3717 25.3053 24.9238 24.35C24.5543 23.5503 23.9832 22.906 23.3226 22.3395C22.494 21.6175 21.6206 20.9399 20.8144 20.1845C20.3665 19.7735 19.9634 19.2959 19.6386 18.7849C18.8548 17.563 18.9556 16.2079 19.8626 15.0637C20.3665 14.4195 21.0271 13.9862 21.7885 13.7197C22.158 13.5864 22.494 13.7419 22.6171 14.0751C22.7291 14.3861 22.5835 14.6861 22.2476 14.8527C21.9453 15.0082 21.6318 15.1304 21.363 15.3192C20.2321 16.119 20.0193 17.3742 20.8927 18.4295C21.4302 19.0848 22.0797 19.6402 22.6955 20.2178C23.5353 21.0065 24.4647 21.7285 25.2261 22.5727C26.2339 23.6835 26.6818 25.0276 26.3459 26.5494C26.2115 27.1937 25.898 27.7491 25.4165 28.1934C25.1141 28.4711 25.047 28.8043 25.1141 29.1709C25.2597 30.104 25.9427 31.0926 27.1633 31.0148C28.0814 30.9593 28.5965 31.9368 28.1374 32.7366C27.6447 33.603 27.0961 34.4472 26.5922 35.3025C26.3794 35.6691 26.2003 36.069 26.0323 36.4578C25.8196 36.891 25.8532 37.3131 26.1443 37.7574ZM18.4965 7.92127C18.5637 7.93237 18.5301 7.92127 18.4853 7.92127C18.3845 7.92127 18.295 7.91016 18.1942 7.92127C12.5059 8.06567 8.04937 10.4539 4.85812 15.1082C3.53683 17.0298 2.77541 19.1737 2.42829 21.4731C2.3947 21.6619 2.32752 21.8729 2.60745 21.984C3.70479 22.4395 4.83572 22.6283 6.01145 22.4172C6.1906 22.3839 6.34737 22.2839 6.57131 22.184C6.32497 21.9063 6.12342 21.6841 5.94426 21.4619C5.56355 21.0065 5.46278 20.4955 5.72032 19.9513C6.29138 18.7405 8.04937 18.0407 9.30347 18.5294C9.617 18.6516 9.90813 18.8071 10.2217 18.9293C10.8039 19.1515 11.0055 19.0293 10.9831 18.4183C10.9383 17.2742 11.4086 16.3745 12.2596 15.6524C13.4577 14.6194 14.8798 14.0307 16.4026 13.6641C16.9289 13.5419 17.4775 13.442 17.9814 13.242C19.1571 12.7755 19.7282 11.4314 19.3027 10.2428C19.0228 9.4986 18.7764 8.73215 18.4965 7.92127Z" stroke="#014898" stroke-width="0.2"/>
<path d="M29.2802 1C33.3672 1 36.5249 4.4657 36.2114 8.50902C35.9874 11.3749 34.8453 13.8631 33.2441 16.1847C32.2699 17.6176 31.139 18.9172 29.8849 20.1169C29.3922 20.5835 29.1458 20.5834 28.6756 20.1391C26.0666 17.6176 23.9391 14.774 22.8529 11.2749C22.3378 9.59761 22.0915 7.88698 22.5506 6.14302C23.3568 3.09942 26.1114 1 29.2802 1ZM29.2802 19.0283C31.3853 16.9067 33.1209 14.6184 34.2071 11.8859C34.7445 10.5307 35.0357 9.13107 35.0021 7.66482C34.9125 4.28798 31.6093 1.65537 28.2724 2.31075C25.1372 2.92169 23.1777 5.69869 23.6031 8.8867C23.8159 10.5085 24.3198 12.0192 25.07 13.4521C26.1561 15.5293 27.6006 17.3288 29.2802 19.0283Z" stroke="#014898" stroke-width="0.2"/>
<path d="M12.8637 34.2361C12.8637 34.1806 12.8637 34.125 12.8749 34.0695C13.0429 32.9143 12.6958 32.0256 11.6208 31.4258C10.9266 31.037 10.3107 30.5371 9.67247 30.0484C9.03422 29.5596 8.57513 28.9376 8.47435 28.1156C8.37358 27.3491 8.63111 26.7049 9.25817 26.2494C9.69486 25.9273 9.82923 25.5941 9.62768 25.0498C9.37014 24.3389 9.60528 23.739 10.2771 23.3836C10.9938 23.0059 11.744 22.6949 12.5054 22.4172C13.1548 22.1839 13.8043 22.295 14.3754 22.706C14.7561 22.9837 15.1704 23.117 15.6407 23.1947C15.999 23.2503 16.3685 23.4835 16.626 23.739C16.9284 24.0389 17.1411 24.4277 17.3539 24.8054C17.6338 25.3164 18.0257 25.6274 18.608 25.7496C19.9069 26.0384 21.105 26.5716 22.1799 27.3491C22.9077 27.8823 23.49 28.5377 23.5236 29.5041C23.5572 30.4594 23.1429 31.1925 22.3031 31.6702C21.3177 32.2367 21.3177 32.2367 21.7992 33.2919C21.8888 33.4808 21.956 33.6807 22.0008 33.8807C22.1463 34.6138 21.8664 35.1025 21.1386 35.3136C19.235 35.8579 17.8689 37.002 17.0179 38.7793C16.794 39.2569 16.3685 39.4347 15.9094 39.157C15.3831 38.8348 14.924 38.4016 14.4537 38.0017C14.2634 37.8462 14.129 37.613 13.9387 37.4574C13.1325 36.791 12.8413 35.9134 12.8525 34.9026C12.8525 34.6804 12.8525 34.4583 12.8525 34.2361C12.8413 34.2361 12.8525 34.2361 12.8637 34.2361ZM20.825 34.1139C20.6459 33.7363 20.4667 33.4141 20.3212 33.0698C19.9405 32.2033 20.1868 31.448 21.0154 30.9704C21.2393 30.8371 21.4857 30.726 21.7208 30.5927C22.1239 30.3594 22.3143 29.9928 22.2919 29.5485C22.2807 29.0487 21.956 28.7043 21.5753 28.4266C20.5787 27.6713 19.459 27.1825 18.2496 26.9159C17.4098 26.7271 16.7828 26.2606 16.3573 25.5163C16.1893 25.2164 16.0102 24.9165 15.7974 24.6388C15.6966 24.5055 15.5063 24.3722 15.3607 24.3722C14.7561 24.3611 14.241 24.1278 13.7819 23.7835C13.4348 23.5169 13.0653 23.4724 12.6734 23.6391C12.1247 23.8723 11.576 24.1167 11.0273 24.3611C10.8146 24.4611 10.7362 24.6166 10.8258 24.8276C11.2289 25.7829 10.9154 26.5049 10.1204 27.1159C9.59409 27.5269 9.5381 28.0267 9.94121 28.571C10.1092 28.8043 10.3331 29.0153 10.5571 29.182C11.3409 29.7596 12.1471 30.315 12.9421 30.8815C13.6475 31.3814 14.0506 32.0589 14.0842 32.9143C14.1066 33.6363 14.0394 34.3583 14.0954 35.0803C14.129 35.4913 14.2746 35.9245 14.4985 36.2689C14.8009 36.7132 15.2152 37.0798 15.5959 37.4685C15.7302 37.613 15.8982 37.7351 16.0774 37.8907C17.1523 35.9801 18.6863 34.736 20.825 34.1139Z" stroke="#014898" stroke-width="0.2"/>
<path d="M33.2651 8.66416C33.2315 10.708 31.5407 12.3298 29.5028 12.2854C27.4425 12.2409 25.8077 10.5636 25.8525 8.54197C25.8973 6.54253 27.5881 4.90965 29.6036 4.93186C31.6415 4.96519 33.2987 6.6425 33.2651 8.66416ZM29.5588 6.16486C28.1815 6.16486 27.0842 7.25344 27.0842 8.61973C27.0842 9.97491 28.2039 11.0857 29.5588 11.0857C30.9137 11.0857 32.0446 9.9638 32.0446 8.61973C32.0446 7.26455 30.9249 6.16486 29.5588 6.16486Z" stroke="#014898" stroke-width="0.2"/>
</g>
<defs>
<clipPath id="clip0_5352_4469">
<rect width="37" height="42" fill="white"/>
</clipPath>
</defs>
</svg>
