<svg width="46" height="44" viewBox="0 0 46 44" fill="none" xmlns="http://www.w3.org/2000/svg">
<g clip-path="url(#clip0_5352_4460)">
<path d="M15.3231 8.58172C13.0186 9.41397 11.0158 10.6555 9.28741 12.3337C6.87313 14.6803 5.29563 17.5045 4.58232 20.7926C4.40399 21.6112 3.91016 22.0614 3.19685 22.0614C2.55213 22.0614 1.98972 21.6385 1.86626 20.9972C1.82511 20.7789 1.83882 20.5197 1.89369 20.2878C3.51236 13.4251 7.62759 8.69087 14.1983 6.08498C14.6921 5.89397 14.9116 5.67568 14.9939 5.14358C15.3917 2.53769 17.5179 0.436606 20.0831 0.054591C22.8265 -0.368355 25.4603 0.955056 26.6812 3.36994C28.2175 6.41242 27.0241 10.0961 24.0062 11.6651C20.9747 13.2341 17.271 12.1017 15.6386 9.11382C15.5151 8.96374 15.4328 8.80002 15.3231 8.58172ZM24.5687 6.18048C24.5687 4.25676 23.0049 2.71506 21.0707 2.71506C19.164 2.7287 17.6139 4.25676 17.6002 6.16684C17.5865 8.09056 19.1503 9.65955 21.0844 9.65955C23.0049 9.67319 24.5824 8.1042 24.5687 6.18048Z" fill="#014898"/>
<path d="M39.411 26.2499C39.4384 25.6496 39.4933 25.063 39.4933 24.4627C39.4658 19.1281 37.3808 14.7485 33.3067 11.2968C33.0049 11.0375 32.7306 10.6555 32.5934 10.2871C32.4151 9.7687 32.7306 9.16839 33.2244 8.89552C33.7731 8.59537 34.3492 8.60901 34.8019 9.03195C35.913 10.0825 37.1064 11.0921 38.0529 12.2927C41.4137 16.5358 42.7031 21.4065 42.0859 26.7684C42.0447 27.0685 42.1682 27.1777 42.3876 27.3278C44.5687 28.8695 45.5015 30.9706 45.0626 33.5901C44.6373 36.1823 42.6894 38.0515 40.1105 38.5699C36.7223 39.2658 33.3341 36.9054 32.7854 33.4673C32.223 29.9746 34.7333 26.6729 38.2175 26.3318C38.6016 26.3045 38.972 26.2909 39.411 26.2499ZM38.9446 35.9777C40.865 35.9777 42.4425 34.3951 42.4425 32.485C42.4288 30.5885 40.865 29.0332 38.972 29.0332C37.0378 29.0196 35.4603 30.5885 35.4603 32.4986C35.4466 34.4087 37.0241 35.9777 38.9446 35.9777Z" fill="#014898"/>
<path d="M11.2079 37.3693C13.5124 39.2658 16.0913 40.4527 18.9719 40.9985C21.7703 41.5169 24.5275 41.3123 27.2436 40.4527C27.8334 40.2617 28.3684 40.289 28.8211 40.7392C29.5755 41.4896 29.2189 42.6766 28.1352 43.0313C26.1187 43.6862 24.0474 44.0137 21.9212 44C17.2024 43.9454 13.0323 42.4037 9.41086 39.4022C9.15023 39.1839 8.95819 39.1703 8.64269 39.3067C6.297 40.3027 3.59466 39.7706 1.81139 37.9833C0.000684208 36.1551 -0.506862 33.4673 0.535665 31.107C1.55076 28.7876 3.88273 27.3141 6.42046 27.396C11.1393 27.5324 13.9925 32.676 11.6057 36.7144C11.4822 36.9327 11.3587 37.1237 11.2079 37.3693ZM6.2147 30.1383C4.28053 30.1383 2.71674 31.7073 2.73046 33.631C2.74418 35.5411 4.3354 37.1101 6.25585 37.0828C8.14886 37.0692 9.71265 35.5002 9.71265 33.6037C9.72637 31.68 8.16258 30.1383 6.2147 30.1383Z" fill="#014898"/>
<path d="M15.3231 8.58172C13.0186 9.41397 11.0158 10.6555 9.28741 12.3337C6.87313 14.6803 5.29563 17.5045 4.58232 20.7926C4.40399 21.6112 3.91016 22.0614 3.19685 22.0614C2.55213 22.0614 1.98972 21.6385 1.86626 20.9972C1.82511 20.7789 1.83882 20.5197 1.89369 20.2878C3.51236 13.4251 7.62759 8.69087 14.1983 6.08498C14.6921 5.89397 14.9116 5.67568 14.9939 5.14358C15.3917 2.53769 17.5179 0.436606 20.0831 0.054591C22.8265 -0.368355 25.4603 0.955056 26.6812 3.36994C28.2175 6.41242 27.0241 10.0961 24.0062 11.6651C20.9747 13.2341 17.271 12.1017 15.6386 9.11382C15.5151 8.96374 15.4328 8.80002 15.3231 8.58172ZM24.5687 6.18048C24.5687 4.25676 23.0049 2.71506 21.0707 2.71506C19.164 2.7287 17.6139 4.25676 17.6002 6.16684C17.5865 8.09056 19.1503 9.65955 21.0844 9.65955C23.0049 9.67319 24.5824 8.1042 24.5687 6.18048Z" stroke="white" stroke-width="1.3"/>
<path d="M39.411 26.2499C39.4384 25.6496 39.4933 25.063 39.4933 24.4627C39.4658 19.1281 37.3808 14.7485 33.3067 11.2968C33.0049 11.0375 32.7306 10.6555 32.5934 10.2871C32.4151 9.7687 32.7306 9.16839 33.2244 8.89552C33.7731 8.59537 34.3492 8.60901 34.8019 9.03195C35.913 10.0825 37.1064 11.0921 38.0529 12.2927C41.4137 16.5358 42.7031 21.4065 42.0859 26.7684C42.0447 27.0685 42.1682 27.1777 42.3876 27.3278C44.5687 28.8695 45.5015 30.9706 45.0626 33.5901C44.6373 36.1823 42.6894 38.0515 40.1105 38.5699C36.7223 39.2658 33.3341 36.9054 32.7854 33.4673C32.223 29.9746 34.7333 26.6729 38.2175 26.3318C38.6016 26.3045 38.972 26.2909 39.411 26.2499ZM38.9446 35.9777C40.865 35.9777 42.4425 34.3951 42.4425 32.485C42.4288 30.5885 40.865 29.0332 38.972 29.0332C37.0378 29.0196 35.4603 30.5885 35.4603 32.4986C35.4466 34.4087 37.0241 35.9777 38.9446 35.9777Z" stroke="white" stroke-width="1.3"/>
<path d="M11.2079 37.3693C13.5124 39.2658 16.0913 40.4527 18.9719 40.9985C21.7703 41.5169 24.5275 41.3123 27.2436 40.4527C27.8334 40.2617 28.3684 40.289 28.8211 40.7392C29.5755 41.4896 29.2189 42.6766 28.1352 43.0313C26.1187 43.6862 24.0474 44.0137 21.9212 44C17.2024 43.9454 13.0323 42.4037 9.41086 39.4022C9.15023 39.1839 8.95819 39.1703 8.64269 39.3067C6.297 40.3027 3.59466 39.7706 1.81139 37.9833C0.000684208 36.1551 -0.506862 33.4673 0.535665 31.107C1.55076 28.7876 3.88273 27.3141 6.42046 27.396C11.1393 27.5324 13.9925 32.676 11.6057 36.7144C11.4822 36.9327 11.3587 37.1237 11.2079 37.3693ZM6.2147 30.1383C4.28053 30.1383 2.71674 31.7073 2.73046 33.631C2.74418 35.5411 4.3354 37.1101 6.25585 37.0828C8.14886 37.0692 9.71265 35.5002 9.71265 33.6037C9.72637 31.68 8.16258 30.1383 6.2147 30.1383Z" stroke="white" stroke-width="1.3"/>
</g>
<defs>
<clipPath id="clip0_5352_4460">
<rect width="45.1579" height="44" fill="white"/>
</clipPath>
</defs>
</svg>
