<svg width="52" height="40" viewBox="0 0 52 40" fill="none" xmlns="http://www.w3.org/2000/svg">
<path d="M23.722 37.8543C27.7531 37.1387 31.7837 36.4204 35.8138 35.6997L35.9274 35.6753L29.7076 28.2263C26.2869 24.1295 23.488 20.7616 23.488 20.7425C23.488 20.7057 29.9103 2.89846 29.9465 2.83498C29.9585 2.814 34.3291 10.4114 40.5411 21.2521C46.3568 31.4011 51.1516 39.769 51.1961 39.8474L51.2771 39.9898L31.5107 39.9872L11.744 39.9846L23.722 37.8543ZM0 35.5827C0 35.5722 2.93067 30.45 6.51265 24.1998L13.0253 12.8358L20.615 6.42293C24.7891 2.89584 28.2158 0.00539004 28.2296 0.000143737C28.2432 -0.00510257 28.1885 0.133924 28.1074 0.309151C28.0267 0.48464 24.3181 8.49365 19.8662 18.1072L11.7716 35.5866L5.88582 35.5942C2.64878 35.5984 0 35.5932 0 35.5827Z" fill="#AAAAAA"/>
</svg>
