<svg width="44" height="36" viewBox="0 0 44 36" fill="none" xmlns="http://www.w3.org/2000/svg">
<g clip-path="url(#clip0_2280_6208)">
<path d="M27.901 10.1172H29.2065L32.9779 6.32258L33.1713 4.71718C26.1603 -1.50985 15.4262 -0.828771 9.23722 6.22528C7.49657 8.17123 6.28777 10.5064 5.5625 13.0361C5.99766 12.8415 6.43283 12.8415 6.86799 12.9388L14.4109 11.6739C14.4109 11.6739 14.7977 11.0415 14.9911 11.0901C18.3757 7.39285 24.0328 6.95501 27.901 10.1172Z" fill="#C4C4C4"/>
<path d="M38.3919 13.0377C37.5216 9.82686 35.7326 6.95659 33.2666 4.71875L27.948 10.0701C30.1721 11.9188 31.4776 14.6917 31.3809 17.562V18.4863C33.9919 18.4863 36.071 20.6269 36.071 23.2052C36.071 25.7836 33.9436 27.9242 31.3809 27.9242H22.0007L21.082 28.8971V34.589L22.0007 35.5133H31.4293C38.1985 35.562 43.7106 30.0647 43.759 23.2539C43.8073 19.216 41.7765 15.3728 38.3919 13.0377Z" fill="#E0E0E0"/>
<path d="M12.5267 35.5114H21.9553V27.9222H12.5267C11.8498 27.9222 11.1729 27.7763 10.5926 27.4844L9.28715 27.9222L5.46737 31.7168L5.12891 33.0303C7.25638 34.6844 9.86737 35.5601 12.5267 35.5114Z" fill="#C4C4C4"/>
<path d="M12.5248 10.8945C5.75555 10.9432 0.291811 16.4891 0.340162 23.2999C0.340162 27.0945 2.12917 30.6945 5.12697 32.981L10.5907 27.4837C8.22148 26.4134 7.15774 23.5918 8.22148 21.208C9.28522 18.8243 12.0896 17.754 14.4588 18.8243C15.5226 19.3107 16.3446 20.1378 16.8281 21.208L22.2918 15.7107C19.9709 12.6945 16.3446 10.8945 12.5248 10.8945Z" fill="#E0E0E0"/>
</g>
<defs>
<clipPath id="clip0_2280_6208">
<rect width="44" height="36" fill="white"/>
</clipPath>
</defs>
</svg>
