<svg width="46" height="46" viewBox="0 0 46 46" fill="none" xmlns="http://www.w3.org/2000/svg">
<path fill-rule="evenodd" clip-rule="evenodd" d="M22.7178 0H22.9519C23.3972 0.0552606 23.7722 0.454644 23.7722 0.909288C23.7747 2.84341 23.7722 4.77753 23.7722 6.71165C23.7772 7.20146 23.3469 7.63852 22.8562 7.63852C22.3605 7.66867 21.8975 7.24165 21.8925 6.74682C21.89 4.79009 21.89 2.83336 21.8925 0.876634C21.9076 0.434549 22.28 0.0427014 22.7178 0Z" fill="#B2B2B2"/>
<path fill-rule="evenodd" clip-rule="evenodd" d="M10.0846 2.85351C10.4947 2.76058 10.9527 2.97659 11.1313 3.35839C11.9642 5.09408 12.7946 6.82977 13.6275 8.56545C13.7684 8.85431 13.7457 9.21602 13.5696 9.48479C13.3708 9.79877 12.9758 9.96706 12.6109 9.89924C12.3266 9.84901 12.0699 9.66313 11.9416 9.40441C11.1062 7.6637 10.2733 5.92299 9.4379 4.18228C9.29448 3.89593 9.31712 3.53925 9.49075 3.27048C9.61908 3.05446 9.84302 2.90877 10.0846 2.85351Z" fill="#B2B2B2"/>
<path fill-rule="evenodd" clip-rule="evenodd" d="M34.7198 2.85452C35.1602 2.74148 35.6508 3.00271 35.8094 3.4247C35.9025 3.66333 35.8949 3.93963 35.7842 4.17323C34.984 5.8411 34.1838 7.50897 33.3837 9.17683C33.2931 9.36522 33.2075 9.56617 33.0389 9.69678C32.6967 9.98816 32.1432 9.9756 31.8135 9.67167C31.5065 9.40541 31.4109 8.93318 31.5896 8.56897C32.425 6.82574 33.2604 5.08252 34.0933 3.3393C34.2166 3.09565 34.4531 2.9148 34.7198 2.85452Z" fill="#B2B2B2"/>
<path fill-rule="evenodd" clip-rule="evenodd" d="M21.6013 10.3298C23.2998 10.2168 25.0134 10.3374 26.6741 10.7091C30.2623 11.5004 33.5737 13.4671 36.0069 16.2151C36.5429 16.8004 37.0159 17.4434 37.4664 18.099C39.2881 20.8017 40.3273 24.0194 40.4255 27.2748C40.5387 30.4472 39.7662 33.6473 38.2087 36.4154C37.5192 37.6462 36.6788 38.7941 35.715 39.8264C35.2973 40.3012 34.8218 40.7207 34.3487 41.1427C32.0161 43.1647 29.1426 44.5613 26.1054 45.1315C22.7085 45.7745 19.1228 45.3977 15.9448 44.0363C13.9796 43.2024 12.1704 42.0042 10.6304 40.5247C10.0089 39.9194 9.41256 39.2864 8.8917 38.5931C7.49014 36.7846 6.44338 34.6998 5.83947 32.4944C5.04182 29.5831 5.01162 26.4684 5.75644 23.5447C6.48112 20.6661 7.96571 17.9885 10.0014 15.8283C10.3738 15.4038 10.8015 15.0295 11.2218 14.6502C13.5116 12.6407 16.3298 11.2341 19.3216 10.6363C20.0765 10.4856 20.8389 10.3826 21.6013 10.3298ZM16.6644 12.9648C16.3474 13.1029 16.0228 13.2285 15.7233 13.3993C18.0584 13.3516 20.3684 13.9419 22.5022 14.8537C23.096 13.7786 23.7653 12.7287 24.6183 11.8369C21.931 11.5431 19.1631 11.9223 16.6644 12.9648ZM26.6968 12.2087C26.6968 12.2313 26.7018 12.274 26.7043 12.2941C26.4904 12.2589 26.274 12.3318 26.0929 12.4448C25.7456 12.6608 25.4789 12.9723 25.2298 13.2913C24.7718 13.8916 24.3944 14.5472 24.0446 15.2154C23.9943 15.3133 23.9339 15.4088 23.9012 15.5118C24.1428 15.6273 24.3743 15.7579 24.6083 15.8835C25.7054 16.4939 26.7546 17.1847 27.7536 17.9458C28.0404 18.1618 28.3172 18.3878 28.5991 18.6114C29.5452 19.4026 30.446 20.2491 31.2864 21.1509C32.0639 20.8771 32.9899 21.1006 33.5485 21.7085C33.8807 22.0602 34.0845 22.5274 34.1222 23.0096C34.1373 23.2885 34.1147 23.5748 34.0166 23.8411L34.0241 23.8486C33.9537 23.9993 33.8983 24.1626 33.8002 24.3032C34.1952 24.881 34.5626 25.4763 34.9073 26.0841C35.0281 26.2826 35.1187 26.5011 35.252 26.692C35.6194 25.8556 35.934 24.9965 36.1629 24.1148C36.246 23.7984 36.3189 23.4794 36.3768 23.1578C36.6133 21.8642 36.6763 20.5003 36.2737 19.2343C36.1554 18.8852 36.0195 18.531 35.783 18.2447C35.4861 17.8604 35.1917 17.466 34.8444 17.1244C34.8243 17.0817 34.7966 17.044 34.7639 17.0113C33.7473 15.9036 32.5823 14.9215 31.294 14.1428C30.29 13.5098 29.2055 13.005 28.0857 12.6156C27.6303 12.4624 27.1673 12.3242 26.6968 12.2087ZM13.5543 15.1852C12.8372 15.4188 12.1628 15.7881 11.5992 16.293C11.3778 16.5165 11.1463 16.73 10.95 16.9762C10.8217 17.0792 10.7235 17.2173 10.6103 17.3379C9.70445 18.3853 8.92692 19.5508 8.32302 20.7992C7.13786 23.1905 6.57925 25.8882 6.70255 28.5533C6.72016 29.0808 6.76294 29.6133 6.85101 30.1357C6.8334 30.3266 6.97682 30.4748 7.10515 30.5929C7.4222 30.8491 7.81725 30.9797 8.20224 31.0953C8.54949 31.1932 8.90428 31.2636 9.25907 31.3213C10.2404 31.4796 11.2369 31.5348 12.2308 31.565L12.2484 31.5474L12.2509 31.5223C12.2585 31.5298 12.2786 31.5449 12.2861 31.5549C12.5352 31.575 12.7869 31.5725 13.0385 31.5725C14.4904 31.5675 15.9423 31.5022 17.3866 31.3691C17.6709 29.7565 18.0157 28.1539 18.3755 26.5564C17.9553 26.2851 17.6156 25.8882 17.4042 25.4361C17.3287 25.2628 17.2683 25.0844 17.2256 24.9011C17.0343 24.047 17.291 23.1076 17.9049 22.4847C18.3679 21.9949 19.0247 21.6909 19.699 21.6633C20.1947 20.1059 20.7534 18.5687 21.4151 17.0741C21.5535 16.7652 21.6944 16.4562 21.8429 16.1498C20.6099 15.6072 19.314 15.1978 17.9829 14.9717C16.5185 14.7281 14.976 14.713 13.5543 15.1852ZM23.2671 16.8305C22.5072 18.5386 21.858 20.2918 21.2692 22.0677C21.9058 22.4771 22.3638 23.1553 22.4795 23.9064C22.5047 24.0772 22.5147 24.2505 22.5122 24.4263C22.4845 25.1296 22.17 25.8179 21.6466 26.2926C21.161 26.7347 20.5068 26.9984 19.8475 26.9909C19.5078 28.395 19.1983 29.8067 18.9416 31.2284C19.5003 31.1681 20.0589 31.1003 20.6175 31.03C20.693 30.4924 21.0025 29.9926 21.4529 29.6861C21.9159 29.3646 22.5248 29.2616 23.0708 29.4098C23.6244 29.553 24.1 29.9549 24.339 30.4723C24.9027 30.3744 25.4663 30.2764 26.0274 30.1634C26.03 30.1508 26.0375 30.1257 26.04 30.1157L26.0274 30.1659C26.2539 30.1207 26.4829 30.0729 26.7119 30.0277C29.2583 29.5078 31.7872 28.8723 34.238 28.0007C33.7574 27.0386 33.2114 26.1118 32.6049 25.2226C32.0237 25.3934 31.372 25.3105 30.8587 24.9865C30.4032 24.7026 30.066 24.2455 29.9276 23.7305C29.8748 23.5296 29.8522 23.3211 29.8597 23.1126C29.8622 22.7685 29.9654 22.4294 30.1264 22.128C29.598 21.5628 29.0469 21.0177 28.4732 20.4978C28.2166 20.2667 27.9574 20.0381 27.6907 19.8171C26.3244 18.6717 24.8498 17.6519 23.2671 16.8305ZM37.8463 23.4166C37.7884 23.7783 37.7104 24.1375 37.6299 24.4966L37.6249 24.4941C37.4236 25.323 37.1443 26.1319 36.8172 26.9206C37.1569 26.7674 37.4815 26.579 37.796 26.383C38.0979 26.1846 38.4049 25.9786 38.6314 25.6923C38.7295 25.5692 38.8126 25.4084 38.7647 25.2477C38.6716 24.6825 38.5484 24.1224 38.3949 23.5698C38.2766 23.1428 38.1432 22.7183 37.9847 22.3038C37.9419 22.6731 37.9117 23.0473 37.8463 23.4166ZM36.1982 28.7844C36.9581 30.6884 37.4362 32.7305 37.4085 34.7877C38.5282 32.4617 39.0667 29.8594 38.966 27.2823C38.1231 27.9153 37.1619 28.3649 36.1982 28.7844ZM33.6014 29.7238C31.2034 30.4975 28.745 31.0802 26.2765 31.5851C26.035 31.6328 25.7934 31.6805 25.5493 31.7283C25.1719 31.7986 24.7945 31.8714 24.417 31.9317C24.2686 32.3512 23.9792 32.7229 23.5992 32.9591C23.1287 33.258 22.5298 33.3333 21.9964 33.1751C21.5686 33.052 21.1987 32.7707 20.9396 32.4115C20.1897 32.5019 19.4399 32.5798 18.6875 32.6476C18.4636 34.0492 18.2698 35.4533 18.149 36.8675C18.1289 37.1111 18.1088 37.3523 18.0962 37.5934C18.0433 38.4047 18.0056 39.2186 18.0308 40.0324C18.9442 39.8867 19.85 39.6732 20.7357 39.4019C21.0603 39.3015 21.3849 39.196 21.7045 39.0829C22.0668 38.9498 22.4267 38.8217 22.7789 38.666C23.174 38.5102 23.5615 38.3344 23.9465 38.151C25.187 37.5608 26.3747 36.86 27.4994 36.0712C27.4466 35.8854 27.3887 35.702 27.3736 35.5086C27.2705 34.652 27.6957 33.7629 28.428 33.3057C29.125 32.8485 30.0736 32.8234 30.8008 33.2303C31.84 32.1528 32.7836 30.9797 33.6014 29.7238ZM35.1187 30.1106C34.165 31.6177 33.0176 32.9967 31.767 34.2652C32.0564 34.8656 32.0665 35.5915 31.7922 36.1993C31.5708 36.6917 31.1732 37.1061 30.6825 37.3372C29.9528 37.6989 29.0344 37.6311 28.365 37.1664C26.8754 38.2415 25.2826 39.1759 23.6018 39.9219C22.9903 40.1932 22.3663 40.4368 21.7347 40.6579C20.5671 41.0573 19.3694 41.3662 18.149 41.542C18.2119 41.9565 18.3 42.371 18.4661 42.7578C18.5894 43.0341 18.763 43.3079 19.0322 43.4636C19.0322 43.4812 19.0322 43.5164 19.0297 43.5339C19.5405 43.6595 20.0589 43.7575 20.5797 43.8278C23.1262 44.187 25.7582 43.9308 28.1814 43.0718C28.8054 42.8457 29.4294 42.602 30.0132 42.2855C30.2522 42.1926 30.4712 42.0519 30.6976 41.9339C31.8828 41.2682 32.9924 40.4594 33.9688 39.5125C34.3185 39.1884 34.6658 38.8493 34.9224 38.4474C35.393 37.7517 35.6848 36.9479 35.8383 36.1215C36.1554 34.3682 35.8861 32.5622 35.3804 30.8717C35.2973 30.618 35.2344 30.3518 35.1187 30.1106ZM7.28381 32.2356C7.41968 32.6953 7.56311 33.155 7.74428 33.5996C8.15192 34.6897 8.69794 35.7321 9.33707 36.7067C9.56605 37.0383 9.78497 37.3824 10.0517 37.6864L10.0416 37.6688C10.2933 38.0405 10.5977 38.3696 10.8946 38.7062C11.0506 38.8644 11.184 39.0453 11.3702 39.1658C12.0421 39.633 12.8322 39.9018 13.6273 40.055C14.591 40.2409 15.5749 40.2635 16.5487 40.2007C16.4782 38.9322 16.5562 37.6663 16.6619 36.4028C16.6871 36.1692 16.7198 35.9356 16.7273 35.6995L16.7424 35.7146C16.8355 34.7299 16.9865 33.7503 17.14 32.7732C16.1159 32.8435 15.0892 32.8963 14.0626 32.9214C13.8185 32.9164 13.5719 32.9365 13.3279 32.9289C11.8986 32.9365 10.4644 32.8837 9.04771 32.6627C8.65769 32.5974 8.2727 32.522 7.89022 32.419C7.68641 32.3688 7.48511 32.3085 7.28381 32.2356ZM14.43 41.6174C15.2503 42.1323 16.131 42.5543 17.0318 42.9085C16.8833 42.5116 16.7877 42.0972 16.7097 41.6827C15.9473 41.7279 15.1824 41.7078 14.43 41.6174Z" fill="#B2B2B2"/>
<path fill-rule="evenodd" clip-rule="evenodd" d="M0.540995 11.2033C0.825332 11.0702 1.17258 11.0928 1.43678 11.2611C2.96164 12.2056 4.48398 13.1525 6.00883 14.097C6.21516 14.2326 6.45924 14.3381 6.60267 14.5491C6.83165 14.8606 6.8392 15.3177 6.61525 15.6317C6.35607 16.0261 5.78237 16.1617 5.37725 15.9156C3.78446 14.9309 2.19418 13.9438 0.603901 12.9591C0.457958 12.8687 0.299435 12.7808 0.196268 12.6401C0.0880688 12.507 0.0251626 12.3437 0 12.1754V11.9418C0.0402602 11.6253 0.249108 11.334 0.540995 11.2033Z" fill="#B2B2B2"/>
<path fill-rule="evenodd" clip-rule="evenodd" d="M44.3073 11.1614C44.6143 11.066 44.9615 11.1438 45.2006 11.3548C45.5302 11.6336 45.6132 12.146 45.4019 12.5178C45.2811 12.764 45.0295 12.8921 44.8055 13.0277C43.2605 13.9847 41.713 14.9442 40.1655 15.9013C39.9063 16.067 39.5616 16.0846 39.2823 15.959C38.9376 15.8058 38.7111 15.429 38.7363 15.0548C38.7514 14.7433 38.93 14.4419 39.2043 14.2861C40.7795 13.309 42.3572 12.3319 43.9324 11.3573C44.0506 11.282 44.1689 11.1991 44.3073 11.1614Z" fill="#B2B2B2"/>
<path fill-rule="evenodd" clip-rule="evenodd" d="M26.6993 12.2109C27.1698 12.324 27.6328 12.4621 28.0908 12.6204C28.2518 13.1227 28.3575 13.6402 28.438 14.1626C29.3892 14.0597 30.3479 14.0446 31.299 14.1476C32.5874 14.9288 33.7499 15.9084 34.7689 17.0161C34.8042 17.0488 34.8293 17.0864 34.8495 17.1291C34.0921 16.4233 33.146 15.9385 32.1571 15.6497C30.9946 15.3055 29.7691 15.2 28.5613 15.2427C28.6544 16.3655 28.6469 17.4908 28.6041 18.6136C28.3248 18.3901 28.0455 18.164 27.7586 17.948C27.7863 17.0663 27.7662 16.1847 27.7083 15.3055C26.6616 15.396 25.6249 15.6044 24.6133 15.8858C24.3793 15.7602 24.1453 15.6296 23.9062 15.514C23.939 15.4085 23.9968 15.3156 24.0497 15.2176C25.1996 14.7981 26.3898 14.4741 27.5976 14.2782C27.5221 13.806 27.4366 13.3262 27.2478 12.8841C27.1371 12.6405 26.9836 12.3692 26.7068 12.2963C26.7043 12.2762 26.7018 12.2335 26.6993 12.2109Z" fill="#CBCBCB"/>
<path fill-rule="evenodd" clip-rule="evenodd" d="M15.8095 20.1085C17.6489 18.5486 19.6694 17.1973 21.846 16.1523C21.6975 16.4588 21.5566 16.7677 21.4182 17.0767C19.521 17.9584 17.747 19.1038 16.1542 20.4627C16.3781 20.8219 16.4109 21.2941 16.2247 21.6759C16.0083 22.1406 15.4824 22.437 14.9716 22.3767C14.7501 22.3616 14.5513 22.2612 14.3626 22.1557C13.4568 23.1102 12.6314 24.14 11.9042 25.2352C11.6274 25.6622 11.3507 26.0917 11.1141 26.5388C13.1196 25.8757 15.1678 25.3583 17.2286 24.9036C17.2689 25.087 17.3318 25.2653 17.4073 25.4386C15.7793 25.8355 14.1689 26.3027 12.5887 26.8629C11.9923 27.0789 11.396 27.2999 10.8147 27.5511C11.411 28.9678 12.1634 30.3166 13.0416 31.5751C12.79 31.5776 12.5383 31.5801 12.2892 31.5575C12.2817 31.55 12.2615 31.5349 12.254 31.5248C11.5117 30.4774 10.8424 29.3797 10.2636 28.2343C9.83335 29.229 9.48359 30.2614 9.26216 31.3239C8.90737 31.2636 8.55258 31.1958 8.20533 31.0978C8.48464 30.1107 8.86459 29.1537 9.315 28.2343C8.93002 28.4227 8.55509 28.6312 8.19275 28.8548C7.80776 29.1009 7.42277 29.3571 7.11076 29.6962C6.99501 29.8218 6.89688 29.97 6.85158 30.1383C6.761 29.6158 6.72074 29.0858 6.70312 28.5558C7.62408 27.9078 8.66078 27.4481 9.70502 27.0437C8.87717 25.0719 8.2934 22.9569 8.3236 20.8018C8.9275 19.5534 9.70502 18.3879 10.6109 17.3404C10.7241 17.2199 10.8197 17.0817 10.9506 16.9787C10.7845 17.2073 10.6209 17.4384 10.4851 17.6846C9.82077 18.8551 9.56411 20.214 9.54398 21.5478C9.52637 23.178 9.84593 24.8006 10.3668 26.3454C11.401 24.6851 12.639 23.1529 14.0204 21.7688C13.887 21.5252 13.8191 21.2413 13.8619 20.965C13.9122 20.5481 14.194 20.1713 14.5765 19.998C14.9665 19.8171 15.4522 19.8573 15.8095 20.1085Z" fill="#CBCBCB"/>
<path fill-rule="evenodd" clip-rule="evenodd" d="M27.6877 19.8203C27.9545 20.0414 28.2136 20.2699 28.4703 20.501C28.3822 21.4204 28.2715 22.3347 28.1356 23.2465C28.7093 23.1962 29.2805 23.156 29.8568 23.1184C29.8492 23.3268 29.8719 23.5328 29.9247 23.7363C29.3032 23.7589 28.6817 23.774 28.0627 23.8217C28.0048 23.9573 28.0073 24.1181 27.9721 24.2663C27.889 24.7611 27.7985 25.2559 27.7028 25.7508C27.9218 25.8688 28.108 26.0497 28.2237 26.2707C28.4502 26.6877 28.4099 27.2328 28.118 27.6095C27.9041 27.9034 27.5544 28.0793 27.1946 28.1069C27.0411 28.7499 26.8825 29.393 26.7089 30.0335C26.4799 30.0787 26.251 30.1264 26.0245 30.1716L26.0371 30.1214C26.2333 29.4131 26.4145 28.6997 26.5705 27.9813C26.2057 27.803 25.9364 27.4387 25.8836 27.0343C25.8081 26.5571 26.0446 26.0547 26.4548 25.8035C26.6259 25.693 26.8247 25.6377 27.026 25.6126C27.1216 25.0349 27.2096 24.4547 27.2877 23.8744C26.8297 23.9096 26.3717 23.9498 25.9138 23.9975C25.8635 24.2135 25.7527 24.422 25.5766 24.5627C25.3023 24.7988 24.8947 24.8566 24.5625 24.7134C24.331 24.6204 24.1499 24.4321 24.0442 24.211C23.5309 24.2788 23.0201 24.3517 22.5093 24.4321C22.5118 24.2587 22.5017 24.0829 22.4766 23.9121C22.9723 23.8368 23.4705 23.774 23.9662 23.7011C24.0115 23.1987 24.4921 22.7868 24.9979 22.827C25.3854 22.8396 25.7376 23.1108 25.876 23.4725C26.3717 23.4198 26.8649 23.367 27.3606 23.3193C27.5066 22.1538 27.6097 20.9883 27.6877 19.8203Z" fill="#CBCBCB"/>
<path fill-rule="evenodd" clip-rule="evenodd" d="M34.1252 23.0156C34.8776 23.0232 35.6325 23.0759 36.3823 23.1613C36.3219 23.4828 36.2489 23.8018 36.1684 24.1183C35.6526 24.0229 35.1317 23.95 34.6083 23.8923C34.4146 23.8797 34.2234 23.837 34.0271 23.8521L34.0195 23.8445C34.1177 23.5808 34.1403 23.2944 34.1252 23.0156Z" fill="#CBCBCB"/>
<path fill-rule="evenodd" clip-rule="evenodd" d="M37.8492 23.4141C38.0354 23.4593 38.2191 23.507 38.3978 23.5673C38.5512 24.1199 38.6745 24.68 38.7676 25.2452C38.6896 25.0543 38.5236 24.9262 38.355 24.8207C38.1285 24.6825 37.8819 24.5821 37.6328 24.4942C37.7133 24.135 37.7913 23.7758 37.8492 23.4141Z" fill="#CBCBCB"/>
<path fill-rule="evenodd" clip-rule="evenodd" d="M25.5542 31.7252C25.7957 31.6775 26.0373 31.6298 26.2814 31.582C25.6297 33.8126 24.8697 36.0154 23.9488 38.153C23.5638 38.3364 23.1788 38.5122 22.7812 38.6679C23.8708 36.4249 24.7892 34.0989 25.5542 31.7252Z" fill="#CBCBCB"/>
<path fill-rule="evenodd" clip-rule="evenodd" d="M7.89065 32.4258C8.27312 32.5288 8.66062 32.6041 9.04813 32.6694C8.9198 33.9404 9.00032 35.2516 9.43815 36.4598C9.59164 36.8868 9.79797 37.2912 10.0395 37.673L10.0496 37.6906C9.78287 37.3842 9.56396 37.0426 9.33498 36.711C8.69333 35.7364 8.14982 34.694 7.74219 33.6038C7.76987 33.207 7.82522 32.8151 7.89065 32.4258Z" fill="#CBCBCB"/>
<path fill-rule="evenodd" clip-rule="evenodd" d="M13.3281 32.9341C13.5722 32.9417 13.8188 32.9216 14.0629 32.9266C14.2189 33.1175 14.3824 33.3059 14.541 33.4968C14.7649 33.3913 15.0115 33.3184 15.2606 33.3461C15.7337 33.3737 16.1665 33.7002 16.3325 34.1448C16.4709 34.504 16.4256 34.921 16.2294 35.2475C16.3954 35.4008 16.5615 35.5515 16.7301 35.7047C16.7226 35.9408 16.6899 36.1744 16.6647 36.408C16.3854 36.1568 16.1086 35.9056 15.8368 35.6469C15.4468 35.8931 14.9209 35.9031 14.5284 35.6645C14.1233 35.4309 13.8767 34.9562 13.9194 34.494C13.932 34.2729 14.0151 34.067 14.1308 33.8811C13.8591 33.5696 13.5898 33.2531 13.3281 32.9341Z" fill="#CBCBCB"/>
<path fill-rule="evenodd" clip-rule="evenodd" d="M18.0977 37.5931C18.1128 37.352 18.1329 37.1108 18.1505 36.8672C19.2677 37.7087 20.4554 38.4572 21.706 39.0826C21.3864 39.1957 21.0618 39.3037 20.7372 39.4016C19.8188 38.8541 18.9431 38.2462 18.0977 37.5931Z" fill="#CBCBCB"/>
<path fill-rule="evenodd" clip-rule="evenodd" d="M30.4576 40.9384C31.7233 40.7752 32.9864 40.3406 33.9728 39.5117C32.999 40.4587 31.8893 41.2675 30.7017 41.9331C30.4752 42.0512 30.2563 42.1919 30.0172 42.2848C27.5136 42.3149 25.0627 41.5815 22.8157 40.524C22.1917 41.697 21.5022 42.855 20.5813 43.8246C20.0604 43.7542 19.5421 43.6563 19.0312 43.5307C19.0338 43.5131 19.0338 43.4779 19.0338 43.4603C19.1571 43.5181 19.298 43.5206 19.4263 43.4704C19.7056 43.3649 19.9296 43.1589 20.1359 42.9479C20.775 42.2622 21.2682 41.4584 21.7362 40.6521C22.3678 40.4336 22.9893 40.1899 23.6033 39.9161C24.2173 40.1472 24.8388 40.3532 25.4729 40.5165C27.0934 40.9435 28.7893 41.152 30.4576 40.9384Z" fill="#CBCBCB"/>
</svg>
