<svg width="64" height="38" viewBox="0 0 64 38" fill="none" xmlns="http://www.w3.org/2000/svg">
<path d="M18.4266 9.59648C26.578 9.59648 36.8006 17.1357 36.8006 17.1357V16.3629C36.8006 16.3629 26.8061 0 8.17738 0H2.44625C1.09518 0 0 0.997028 0 2.22242V17.7379C0 18.9649 1.09518 19.9626 2.44625 19.9626H18.4243L18.4266 9.59648Z" fill="#D4D4D4"/>
<path d="M45.572 28.0536C37.4202 28.0536 27.1992 20.514 27.1992 20.514V21.2895C27.1992 21.2895 37.1935 37.6498 55.8202 37.6498H61.5513C62.9027 37.6498 63.9986 36.6521 63.9986 35.4264V19.9106C63.9986 18.6826 62.9027 17.6875 61.5513 17.6875H45.5733L45.572 28.0536Z" fill="#AAAAAA"/>
</svg>
