<svg width="60" height="47" viewBox="0 0 60 47" fill="none" xmlns="http://www.w3.org/2000/svg">
<mask id="mask0_2108_4716" style="mask-type:luminance" maskUnits="userSpaceOnUse" x="0" y="0" width="60" height="47">
<path d="M59.5 0H0.5V47H59.5V0Z" fill="white"/>
</mask>
<g mask="url(#mask0_2108_4716)">
<path d="M17.1809 18.6135C17.1649 19.2106 17.2372 19.8068 17.3952 20.3812C17.5652 20.8719 17.7699 21.3489 18.0076 21.8082C18.0905 21.9463 18.1355 22.1053 18.1377 22.2681C18.1259 22.3891 18.0872 22.5056 18.0248 22.6087C17.9624 22.7119 17.878 22.7987 17.7779 22.8626L16.5685 23.695C16.4231 23.8039 16.2503 23.8672 16.0709 23.8772C15.8535 23.8596 15.6496 23.761 15.4968 23.5998C15.2397 23.3106 15.009 22.9976 14.8078 22.6644C14.6165 22.3235 14.4251 21.9508 14.2108 21.491C13.5356 22.3625 12.6769 23.0628 11.7005 23.5381C10.7241 24.0135 9.65565 24.2516 8.57682 24.2339C7.87854 24.2728 7.17983 24.1659 6.52228 23.9194C5.86474 23.6729 5.26182 23.2919 4.74939 22.7992C4.272 22.3008 3.89967 21.7052 3.65591 21.0503C3.41214 20.3954 3.30227 19.6951 3.33324 18.9939C3.30555 18.2204 3.44752 17.4505 3.74849 16.742C4.04946 16.0335 4.50159 15.405 5.0709 14.9035C6.40451 13.8146 8.07505 13.2651 9.77098 13.3576C10.4497 13.3656 11.1273 13.4183 11.7995 13.5161C12.5038 13.6191 13.2387 13.7778 14.0041 13.9521V12.5015C14.0041 10.9952 13.698 9.94888 13.1008 9.33055C12.5038 8.71222 11.4551 8.4189 9.97766 8.4189C9.28149 8.41897 8.58776 8.50413 7.91085 8.67259C7.2042 8.84701 6.51085 9.07487 5.83639 9.35433C5.61915 9.45175 5.39681 9.53645 5.17041 9.608C5.07132 9.64234 4.96844 9.66365 4.86421 9.67143C4.5963 9.67143 4.45851 9.47324 4.45851 9.0531V8.07804C4.43613 7.83901 4.48417 7.59857 4.5963 7.38836C4.73934 7.20535 4.92325 7.06116 5.13213 6.9682C5.90232 6.57573 6.71412 6.27776 7.55107 6.08035C8.52579 5.81849 9.52954 5.69055 10.5365 5.69984C12.8074 5.69984 14.4787 6.22833 15.5504 7.2853C16.6068 8.35549 17.1426 9.9806 17.1426 12.1606V18.5897L17.1809 18.6135ZM9.40355 21.6337C10.0762 21.6264 10.7432 21.506 11.3785 21.277C12.0815 21.0245 12.7093 20.5876 13.2003 20.0087C13.5092 19.6407 13.7318 19.2039 13.851 18.7324C13.9825 18.1693 14.0469 17.5915 14.0424 17.0121V16.1718C13.459 16.0292 12.8688 15.918 12.2741 15.8389C11.6775 15.7603 11.0767 15.7205 10.4752 15.7199C9.4637 15.6354 8.45502 15.9155 7.61997 16.5127C7.30447 16.7926 7.05593 17.1444 6.89388 17.5405C6.73185 17.9367 6.66071 18.3665 6.68608 18.7958C6.65768 19.1773 6.70557 19.5607 6.82674 19.9222C6.94791 20.2837 7.13978 20.6153 7.39032 20.8966C7.65811 21.1574 7.97541 21.3576 8.32201 21.4845C8.66861 21.6115 9.03694 21.6623 9.40355 21.6337ZM24.7898 23.7742C24.5195 23.8139 24.2449 23.7428 24.0243 23.576C23.8183 23.3577 23.6774 23.0824 23.6187 22.7833L19.1558 7.46762C19.0684 7.21111 19.0094 6.94517 18.9798 6.6749C18.9701 6.60907 18.9751 6.54183 18.9943 6.47832C19.0137 6.4148 19.0468 6.35671 19.0911 6.3085C19.1355 6.26029 19.1898 6.22323 19.2502 6.20016C19.3106 6.17711 19.3751 6.16866 19.4391 6.17548H21.3298C21.6001 6.13831 21.8738 6.20919 22.0954 6.37366C22.2931 6.59485 22.4259 6.86984 22.4781 7.16639L25.7007 20.3019L28.6861 7.16639C28.725 6.86868 28.8536 6.59126 29.0536 6.37366C29.2831 6.2281 29.5503 6.15894 29.819 6.17548H31.3501C31.6198 6.14718 31.8905 6.21728 32.1155 6.37366C32.3206 6.58756 32.4501 6.86686 32.483 7.16639L35.545 20.4605L38.7905 7.15054C38.8508 6.8568 38.9825 6.58391 39.1734 6.3578C39.4015 6.20878 39.6698 6.13933 39.9388 6.15963H41.7224C41.7875 6.15012 41.8539 6.15657 41.9162 6.17844C41.9786 6.2003 42.035 6.23699 42.0812 6.28554C42.1273 6.3341 42.1618 6.39318 42.1819 6.45804C42.2021 6.5229 42.2072 6.59174 42.197 6.65905C42.2069 6.76449 42.2069 6.87069 42.197 6.97613C42.1498 7.15262 42.083 7.32286 41.998 7.48349L37.4051 22.8229C37.3463 23.122 37.2055 23.3973 36.9993 23.6157C36.7828 23.7584 36.5286 23.8279 36.2722 23.8139H34.6187C34.349 23.8421 34.0783 23.7721 33.8532 23.6157C33.6514 23.3993 33.5225 23.1212 33.4858 22.8229L30.5157 10.0043L27.5685 22.7833C27.5207 23.0781 27.3933 23.3528 27.2011 23.576C26.976 23.7323 26.7053 23.8025 26.4356 23.7742H24.7898ZM49.4079 24.3133C48.4129 24.3143 47.4212 24.1946 46.4531 23.9565C45.6891 23.7979 44.9499 23.5312 44.2562 23.1638C44.0059 23.0481 43.7971 22.854 43.6591 22.6089C43.5838 22.4342 43.5447 22.2451 43.5442 22.054V21.0391C43.5442 20.619 43.6973 20.4209 43.9806 20.4209C44.1004 20.4225 44.2193 20.444 44.3327 20.4843C44.4475 20.5239 44.6159 20.6033 44.8073 20.6825C45.4842 20.9868 46.1896 21.2179 46.9123 21.3721C47.6683 21.5303 48.4376 21.61 49.2088 21.61C50.1832 21.6708 51.1544 21.4456 52.0105 20.96C52.3218 20.7637 52.5777 20.4859 52.7524 20.1547C52.9271 19.8236 53.0144 19.4504 53.0057 19.0731C53.012 18.8179 52.9694 18.5635 52.88 18.3254C52.7907 18.0872 52.6564 17.8699 52.4851 17.686C51.9254 17.1917 51.2625 16.8388 50.5485 16.6554L47.7774 15.7596C46.5772 15.4353 45.506 14.728 44.7155 13.738C44.0977 12.9151 43.7612 11.9029 43.7586 10.8605C43.7452 10.0897 43.9301 9.32907 44.2944 8.65672C44.6406 8.03351 45.1102 7.4932 45.6723 7.07126C46.2679 6.60227 46.9429 6.25274 47.6626 6.04072C48.4317 5.79604 49.231 5.66788 50.0356 5.6602C50.4654 5.65893 50.895 5.68542 51.3216 5.73947C51.7656 5.80289 52.1637 5.88216 52.5693 5.96144C52.975 6.04071 53.3348 6.15962 53.6564 6.27853C53.9374 6.3697 54.2092 6.48919 54.4678 6.63527C54.692 6.75288 54.8881 6.92078 55.0419 7.12676C55.1651 7.32149 55.2242 7.55232 55.2102 7.78472V8.71222C55.2102 9.13236 55.0572 9.35433 54.774 9.35433C54.5051 9.32835 54.2443 9.24466 54.0085 9.10858C52.8536 8.57148 51.5999 8.30098 50.3341 8.31586C49.4517 8.26002 48.571 8.45172 47.7851 8.87076C47.492 9.0509 47.2527 9.31123 47.0933 9.62311C46.934 9.935 46.8608 10.2863 46.8818 10.6385C46.876 10.9012 46.9243 11.1621 47.0233 11.404C47.1223 11.6458 47.2697 11.8632 47.4559 12.0417C48.0782 12.5559 48.7981 12.9286 49.5686 13.1356L52.2861 14.0314C53.4573 14.3348 54.5069 15.0114 55.2868 15.9657C55.8718 16.7624 56.1819 17.7394 56.1672 18.7403C56.1792 19.5391 56.0088 20.3297 55.6695 21.0472C55.3222 21.726 54.8364 22.3183 54.2457 22.7833C53.6226 23.2903 52.9103 23.6672 52.1484 23.8931C51.2606 24.1758 50.3366 24.3175 49.4079 24.3133Z" fill="#F2F2F2"/>
<path d="M53.0261 33.9512C46.7185 38.771 37.5632 41.3314 29.6864 41.3314C19.1702 41.3875 9.01253 37.3759 1.20264 30.0826C0.605563 29.5278 1.1414 28.7746 1.85331 29.2106C10.5363 34.3437 20.3619 37.0433 30.36 37.0428C37.8302 37.002 45.2197 35.4398 52.1075 32.4449C53.1562 31.9455 54.0595 33.1584 53.0261 33.9512ZM55.6517 30.8595C54.8862 29.7814 50.2933 30.3363 48.2724 30.5979C47.66 30.6771 47.5605 30.1223 48.1193 29.7021C51.7248 27.0622 57.6419 27.855 58.3309 28.7112C59.0198 29.5673 58.1396 35.7348 54.7714 38.6758C54.2509 39.1277 53.7533 38.8899 54.0059 38.2954C54.7484 36.3294 56.4555 31.9059 55.6517 30.8595Z" fill="white"/>
</g>
</svg>
