<?xml version="1.0" encoding="UTF-8" standalone="no"?>
<svg
   width="30"
   height="22"
   viewBox="0 0 30 22"
   fill="none"
   version="1.1"
   id="svg11"
   sodipodi:docname="arrow.svg"
   inkscape:version="1.1.1 (3bf5ae0d25, 2021-09-20)"
   xmlns:inkscape="http://www.inkscape.org/namespaces/inkscape"
   xmlns:sodipodi="http://sodipodi.sourceforge.net/DTD/sodipodi-0.dtd"
   xmlns="http://www.w3.org/2000/svg"
   xmlns:svg="http://www.w3.org/2000/svg">
  <sodipodi:namedview
     id="namedview13"
     pagecolor="#ffffff"
     bordercolor="#666666"
     borderopacity="1.0"
     inkscape:pageshadow="2"
     inkscape:pageopacity="0.0"
     inkscape:pagecheckerboard="0"
     showgrid="false"
     inkscape:zoom="36.2"
     inkscape:cx="14.986188"
     inkscape:cy="11.008287"
     inkscape:window-width="1920"
     inkscape:window-height="1009"
     inkscape:window-x="-8"
     inkscape:window-y="-8"
     inkscape:window-maximized="1"
     inkscape:current-layer="svg11" />
  <path
     style="color:#000000;fill:#0057b8;stroke-linecap:round;stroke-linejoin:round;-inkscape-stroke:none"
     d="M 21.111328,0.00585938 A 1,1 0 0 0 20.375,0.21875 1,1 0 0 0 20.21875,1.625 L 26.917969,10 H 1 a 1,1 0 0 0 -1,1 1,1 0 0 0 1,1 H 26.917969 L 20.21875,20.375 A 1,1 0 0 0 20.375,21.78125 1,1 0 0 0 21.78125,21.625 l 8,-10 a 1,1 0 0 0 0.04102,-0.08008 1,1 0 0 0 0.08594,-0.164063 1,1 0 0 0 0.06055,-0.189453 1,1 0 0 0 0.01758,-0.160156 A 1,1 0 0 0 30,11 a 1,1 0 0 0 -0.01172,-0.05469 1,1 0 0 0 -0.01953,-0.136719 1,1 0 0 0 -0.0332,-0.136719 1,1 0 0 0 -0.04492,-0.103516 1,1 0 0 0 -0.06836,-0.113281 1,1 0 0 0 -0.04102,-0.08008 l -8,-10 A 1,1 0 0 0 21.111328,0.00585938 Z"
     id="path2" />
  <defs
     id="defs9">
    <clipPath
       id="clip0_6_6710">
      <rect
         width="22"
         height="30"
         fill="white"
         transform="translate(30) rotate(90)"
         id="rect6" />
    </clipPath>
  </defs>
</svg>
