<svg width="30" height="30" viewBox="0 0 30 30" fill="none" xmlns="http://www.w3.org/2000/svg">
<g id="material-symbols-light:attach-file">
<path id="Vector" d="M20.2776 21.0474C19.7784 22.8738 18.7246 24.2561 17.1161 25.1944C15.5069 26.1324 13.7919 26.3527 11.9712 25.855C10.1521 25.3578 8.7847 24.2951 7.86908 22.667C6.95345 21.0388 6.74523 19.3115 7.2444 17.4852L10.1215 6.95877C10.4702 5.68306 11.2053 4.71903 12.327 4.06668C13.4487 3.41433 14.6475 3.2621 15.9234 3.60997C17.1983 3.95843 18.1528 4.69875 18.7867 5.83095C19.4188 6.96351 19.5605 8.16764 19.2118 9.44335L16.4867 19.4139C16.2933 20.1213 15.8799 20.6635 15.2464 21.0407C14.6128 21.4178 13.9408 21.5093 13.2302 21.3151C12.5196 21.1209 11.9775 20.7019 11.604 20.0581C11.2303 19.4152 11.1425 18.7316 11.3404 18.0073L14.0784 7.98975L15.2842 8.31931L12.5462 18.3369C12.4409 18.7219 12.4831 19.0859 12.6728 19.4289C12.8614 19.7724 13.1482 19.9968 13.5332 20.1021C13.9191 20.2075 14.2805 20.1603 14.6177 19.9605C14.9554 19.7616 15.1768 19.4697 15.2821 19.0846L18.0138 9.09C18.265 8.1522 18.1601 7.27 17.6992 6.44341C17.2378 5.6158 16.536 5.07324 15.5939 4.81574C14.659 4.56022 13.7786 4.67423 12.9528 5.15776C12.1261 5.64108 11.5846 6.35138 11.3285 7.28866L8.45138 17.8151C8.04046 19.3027 8.20932 20.7125 8.95796 22.0445C9.7074 23.3767 10.8257 24.2461 12.3128 24.6525C13.7782 25.0531 15.1675 24.8691 16.4808 24.1007C17.7932 23.332 18.6573 22.2045 19.073 20.7182L21.9626 10.146L23.1684 10.4755L20.2776 21.0474Z" fill="#0057B8"/>
</g>
</svg>
