<svg width="13" height="8" viewBox="0 0 13 8" fill="none" xmlns="http://www.w3.org/2000/svg">
<path d="M1.98423 1.16491C1.92854 1.11228 1.86303 1.07114 1.79143 1.04383C1.71984 1.01652 1.64357 1.00358 1.56698 1.00575C1.49039 1.00791 1.41497 1.02515 1.34504 1.05646C1.2751 1.08777 1.21202 1.13255 1.1594 1.18824C1.10677 1.24394 1.06563 1.30945 1.03832 1.38104C1.01101 1.45263 0.998066 1.5289 1.00023 1.60549C1.0024 1.68209 1.01963 1.7575 1.05094 1.82744C1.08226 1.89737 1.12704 1.96045 1.18273 2.01308L6.43273 6.97141C6.54104 7.07381 6.68443 7.13086 6.83348 7.13086C6.98253 7.13086 7.12592 7.07381 7.23423 6.97141L12.4848 2.01308C12.5417 1.9608 12.5877 1.89773 12.62 1.82754C12.6523 1.75735 12.6704 1.68143 12.6731 1.6042C12.6759 1.52697 12.6633 1.44997 12.636 1.37766C12.6087 1.30535 12.5674 1.23918 12.5143 1.18299C12.4612 1.12681 12.3976 1.08172 12.3269 1.05036C12.2563 1.019 12.1801 1.00198 12.1029 1.0003C12.0256 0.998613 11.9488 1.0123 11.8769 1.04056C11.8049 1.06882 11.7393 1.11109 11.6839 1.16491L6.83348 5.74524L1.98423 1.16491Z" fill="#303030" stroke="black" stroke-width="0.2"/>
</svg>
