<?xml version="1.0" encoding="UTF-8" standalone="no"?>
<svg
   width="16"
   height="16"
   viewBox="0 0 16 16"
   fill="none"
   version="1.1"
   id="svg4"
   sodipodi:docname="close.svg"
   inkscape:version="1.1.1 (3bf5ae0d25, 2021-09-20)"
   xmlns:inkscape="http://www.inkscape.org/namespaces/inkscape"
   xmlns:sodipodi="http://sodipodi.sourceforge.net/DTD/sodipodi-0.dtd"
   xmlns="http://www.w3.org/2000/svg"
   xmlns:svg="http://www.w3.org/2000/svg">
  <defs
     id="defs8" />
  <sodipodi:namedview
     id="namedview6"
     pagecolor="#ffffff"
     bordercolor="#666666"
     borderopacity="1.0"
     inkscape:pageshadow="2"
     inkscape:pageopacity="0.0"
     inkscape:pagecheckerboard="0"
     showgrid="false"
     inkscape:zoom="51.5"
     inkscape:cx="7.9902913"
     inkscape:cy="7.9902913"
     inkscape:window-width="1920"
     inkscape:window-height="1009"
     inkscape:window-x="-8"
     inkscape:window-y="-8"
     inkscape:window-maximized="1"
     inkscape:current-layer="svg4" />
  <path
     style="color:#000000;fill:#000000;stroke-linecap:round;stroke-linejoin:round;-inkscape-stroke:none"
     d="m 1,0 a 1,1 0 0 0 -0.70703125,0.29296875 1,1 0 0 0 0,1.41406245 L 6.2539062,7.6679687 0.29296875,13.626953 a 1,1 0 0 0 0,1.414063 1,1 0 0 0 1.41406245,0 L 7.6679687,9.0820313 13.626953,15.041016 a 1,1 0 0 0 1.414063,0 1,1 0 0 0 0,-1.414063 L 9.0820313,7.6679687 15.041016,1.7070312 a 1,1 0 0 0 0,-1.41406245 1,1 0 0 0 -1.414063,0 L 7.6679687,6.2539062 1.7070312,0.29296875 A 1,1 0 0 0 1,0 Z"
     id="path2" />
</svg>
