<svg width="20" height="20" viewBox="0 0 20 20" fill="none" xmlns="http://www.w3.org/2000/svg">
<path d="M3.125 4.99979H1.875C1.70924 4.99979 1.55027 4.93394 1.43306 4.81673C1.31585 4.69952 1.25 4.54055 1.25 4.37479C1.25 4.20902 1.31585 4.05005 1.43306 3.93284C1.55027 3.81563 1.70924 3.74979 1.875 3.74979H6.875V1.87354C6.875 1.70777 6.94085 1.5488 7.05806 1.43159C7.17527 1.31438 7.33424 1.24854 7.5 1.24854H12.5C12.6658 1.24854 12.8247 1.31438 12.9419 1.43159C13.0592 1.5488 13.125 1.70777 13.125 1.87354V3.74979H18.125C18.2908 3.74979 18.4497 3.81563 18.5669 3.93284C18.6842 4.05005 18.75 4.20902 18.75 4.37479C18.75 4.54055 18.6842 4.69952 18.5669 4.81673C18.4497 4.93394 18.2908 4.99979 18.125 4.99979H16.875V18.1248C16.875 18.2905 16.8092 18.4495 16.6919 18.5667C16.5747 18.6839 16.4158 18.7498 16.25 18.7498H3.75C3.58424 18.7498 3.42527 18.6839 3.30806 18.5667C3.19085 18.4495 3.125 18.2905 3.125 18.1248V4.99979ZM11.875 3.74979V2.49979H8.125V3.74979H11.875ZM4.375 17.4998H15.625V4.99979H4.375V17.4998ZM8.125 14.9998C7.95924 14.9998 7.80027 14.9339 7.68306 14.8167C7.56585 14.6995 7.5 14.5405 7.5 14.3748V8.12479C7.5 7.95902 7.56585 7.80005 7.68306 7.68284C7.80027 7.56563 7.95924 7.49979 8.125 7.49979C8.29076 7.49979 8.44973 7.56563 8.56694 7.68284C8.68415 7.80005 8.75 7.95902 8.75 8.12479V14.3748C8.75 14.5405 8.68415 14.6995 8.56694 14.8167C8.44973 14.9339 8.29076 14.9998 8.125 14.9998ZM11.875 14.9998C11.7092 14.9998 11.5503 14.9339 11.4331 14.8167C11.3158 14.6995 11.25 14.5405 11.25 14.3748V8.12479C11.25 7.95902 11.3158 7.80005 11.4331 7.68284C11.5503 7.56563 11.7092 7.49979 11.875 7.49979C12.0408 7.49979 12.1997 7.56563 12.3169 7.68284C12.4342 7.80005 12.5 7.95902 12.5 8.12479V14.3748C12.5 14.5405 12.4342 14.6995 12.3169 14.8167C12.1997 14.9339 12.0408 14.9998 11.875 14.9998Z" fill="#303030"/>
</svg>
