<?xml version="1.0" encoding="UTF-8" standalone="no"?>
<svg
   width="36"
   height="18"
   viewBox="0 0 36 18"
   fill="none"
   version="1.1"
   id="svg11"
   sodipodi:docname="left.svg"
   inkscape:version="1.1.1 (3bf5ae0d25, 2021-09-20)"
   xmlns:inkscape="http://www.inkscape.org/namespaces/inkscape"
   xmlns:sodipodi="http://sodipodi.sourceforge.net/DTD/sodipodi-0.dtd"
   xmlns="http://www.w3.org/2000/svg"
   xmlns:svg="http://www.w3.org/2000/svg">
  <sodipodi:namedview
     id="namedview13"
     pagecolor="#ffffff"
     bordercolor="#666666"
     borderopacity="1.0"
     inkscape:pageshadow="2"
     inkscape:pageopacity="0.0"
     inkscape:pagecheckerboard="0"
     showgrid="false"
     inkscape:zoom="35.583333"
     inkscape:cx="18"
     inkscape:cy="9.0070258"
     inkscape:window-width="1920"
     inkscape:window-height="991"
     inkscape:window-x="-9"
     inkscape:window-y="-9"
     inkscape:window-maximized="1"
     inkscape:current-layer="svg11" />
  <path
     style="color:#000000;fill:#0057b8;stroke-linecap:round;stroke-linejoin:round;-inkscape-stroke:none"
     d="M 8.5,0.75 A 0.75,0.75 0 0 0 7.96875,0.96875 l -7.5,7.5 A 0.75,0.75 0 0 0 0.25,9 0.75,0.75 0 0 0 0.46875,9.53125 l 7.5,7.5 a 0.75,0.75 0 0 0 1.0625,0 0.75,0.75 0 0 0 0,-1.0625 L 2.8125,9.75 H 35 A 0.75,0.75 0 0 0 35.75,9 0.75,0.75 0 0 0 35,8.25 H 2.8125 L 9.03125,2.03125 a 0.75,0.75 0 0 0 0,-1.0625 A 0.75,0.75 0 0 0 8.5,0.75 Z"
     id="path2" />
  <defs
     id="defs9">
    <clipPath
       id="clip0_6_6790">
      <rect
         width="18"
         height="36"
         fill="white"
         transform="matrix(4.37114e-08 1 1 -4.37114e-08 0 0)"
         id="rect6" />
    </clipPath>
  </defs>
</svg>
