<svg width="34" height="33" viewBox="0 0 34 33" fill="none" xmlns="http://www.w3.org/2000/svg">
<path fill-rule="evenodd" clip-rule="evenodd" d="M16.8793 33C25.992 33 33.3793 25.6127 33.3793 16.5C33.3793 7.3873 25.992 0 16.8793 0C7.76657 0 0.379272 7.3873 0.379272 16.5C0.379272 25.6127 7.76657 33 16.8793 33ZM8.6268 25.1106H12.1872V13.6586H8.6268V25.1106ZM9.26199 11.7451C9.60136 11.9718 10.0003 12.0929 10.4085 12.0929C11.5453 12.0929 12.4691 11.169 12.4721 10.0292C12.4721 9.62107 12.3511 9.22209 12.1243 8.88273C11.8976 8.54336 11.5753 8.27885 11.1982 8.12266C10.8211 7.96647 10.4062 7.9256 10.0059 8.00523C9.60559 8.08486 9.23788 8.28141 8.94928 8.57001C8.66067 8.85862 8.46413 9.22632 8.3845 9.62663C8.30488 10.0269 8.34574 10.4419 8.50194 10.8189C8.65813 11.196 8.92263 11.5183 9.26199 11.7451ZM21.9595 25.1106H25.5169V18.8297C25.5169 15.7462 24.854 13.3736 21.2486 13.3736C19.5149 13.3736 18.3541 14.3245 17.8802 15.2243H17.8322V13.6586H14.4188V25.1106H17.9732V19.4446C17.9732 17.9509 18.2581 16.5051 20.1088 16.5051C21.9355 16.5051 21.9595 18.2118 21.9595 19.5406V25.1106Z" fill="white"/>
</svg>
