<?xml version="1.0" encoding="UTF-8" standalone="no"?>
<svg
   width="14"
   height="20"
   viewBox="0 0 14 20"
   fill="none"
   version="1.1"
   id="svg4"
   sodipodi:docname="location.svg"
   inkscape:version="1.1.1 (3bf5ae0d25, 2021-09-20)"
   xmlns:inkscape="http://www.inkscape.org/namespaces/inkscape"
   xmlns:sodipodi="http://sodipodi.sourceforge.net/DTD/sodipodi-0.dtd"
   xmlns="http://www.w3.org/2000/svg"
   xmlns:svg="http://www.w3.org/2000/svg">
  <defs
     id="defs8" />
  <sodipodi:namedview
     id="namedview6"
     pagecolor="#ffffff"
     bordercolor="#666666"
     borderopacity="1.0"
     inkscape:pageshadow="2"
     inkscape:pageopacity="0.0"
     inkscape:pagecheckerboard="0"
     showgrid="false"
     inkscape:zoom="41.2"
     inkscape:cx="7.0024272"
     inkscape:cy="10.012136"
     inkscape:window-width="1920"
     inkscape:window-height="1009"
     inkscape:window-x="-8"
     inkscape:window-y="-8"
     inkscape:window-maximized="1"
     inkscape:current-layer="svg4" />
  <path
     style="color:#000000;fill:#ffffff;stroke-linecap:round;stroke-linejoin:round;-inkscape-stroke:none"
     d="m 7,0.96875 c -1.7998388,0 -3.5251214,0.7397073 -4.7929687,2.0507813 C 0.93918546,4.3306036 0.23046875,6.1054758 0.23046875,7.953125 v 0.4726563 a 0.50005,0.50005 0 0 0 0,0.035156 C 0.50193049,12.25995 3.4702124,15.174718 6.6210937,18.855469 a 0.50005,0.50005 0 0 0 0.7578125,0 c 1.6445998,-1.92058 3.2227478,-3.620581 4.4082028,-5.353516 1.185456,-1.732935 1.982422,-3.5199154 1.982422,-5.548828 0,-1.8476512 -0.708663,-3.6225214 -1.976562,-4.9335937 C 10.525166,1.7084476 8.7998388,0.96875 7,0.96875 Z m 0,1 c 1.5259778,0 2.990424,0.6252999 4.074219,1.7460938 1.083898,1.1208052 1.695312,2.6467358 1.695312,4.2382812 0,1.7685836 -0.685096,3.342013 -1.808593,4.984375 C 9.9354144,14.436641 8.4964143,16.015257 7,17.746094 4.0106208,14.281001 1.4596619,11.549077 1.2304687,8.3964844 V 7.953125 c 0,-1.5915473 0.6114607,-3.117476 1.6953126,-4.2382812 C 4.0096315,2.5940401 5.4740222,1.96875 7,1.96875 Z m 0,2.3691406 c -0.9361063,0 -1.8326597,0.3854162 -2.4902344,1.0644531 C 3.8521911,6.0813805 3.4856684,6.9966872 3.484375,7.9511719 3.4834164,8.6639195 3.6865128,9.361472 4.0703125,9.9570313 4.4541118,10.552625 5.0003678,11.020219 5.6445312,11.296875 6.2886563,11.573637 7.0001959,11.646224 7.6855469,11.505859 8.3709509,11.365601 8.999218,11.018676 9.4902344,10.511719 9.9812672,10.004617 10.314335,9.3614414 10.449219,8.6621094 10.584139,7.9627564 10.516016,7.2379938 10.251953,6.578125 9.9879014,5.9182675 9.5394411,5.3530033 8.9609375,4.953125 8.3824339,4.5532584 7.6990363,4.3378906 7,4.3378906 Z m 0,1 c 0.4945425,0 0.9787628,0.1514673 1.3925781,0.4375 0.4138154,0.2860411 0.7373597,0.6932067 0.9296875,1.1738281 0.1923363,0.4806301 0.2431308,1.0123517 0.1445313,1.5234376 -0.098576,0.5110868 -0.3417462,0.978613 -0.6953125,1.34375 -0.3535628,0.3650417 -0.7997015,0.6115957 -1.2851563,0.7109377 -0.4855079,0.09944 -0.9871986,0.0484 -1.4453125,-0.148438 a 0.50005,0.50005 0 0 0 -0.00195,0 C 5.5809671,10.182163 5.1882563,9.8475812 4.9101562,9.4160156 4.6320566,8.9844759 4.4836736,8.4746561 4.484375,7.953125 4.4853216,7.2545113 4.7549113,6.5867183 5.2285156,6.0976562 5.7021198,5.6085943 6.3375079,5.3378906 7,5.3378906 Z"
     id="path2" />
</svg>
