<svg width="12" height="17" viewBox="0 0 12 17" fill="none" xmlns="http://www.w3.org/2000/svg">
<path d="M1.33276 0.158792L11.6178 7.71368C11.7353 7.79989 11.8317 7.91676 11.8984 8.05392C11.9651 8.19108 12 8.34426 12 8.49986C12 8.65546 11.9651 8.80865 11.8984 8.9458C11.8317 9.08296 11.7353 9.19984 11.6178 9.28604L1.33276 16.8409C1.20363 16.936 1.05348 16.9906 0.898371 16.9989C0.74326 17.0072 0.589014 16.9689 0.452113 16.8882C0.315334 16.8074 0.201032 16.6872 0.121406 16.5404C0.0417806 16.3936 -0.000180833 16.2258 0 16.0548V0.944974C-0.000100266 0.773964 0.0419465 0.606134 0.12165 0.459396C0.201354 0.312658 0.315724 0.19252 0.452553 0.111805C0.589383 0.0310912 0.743536 -0.00716889 0.898559 0.00110662C1.05358 0.00938214 1.20366 0.0638813 1.33276 0.158792Z" fill="white"/>
</svg>
