<?xml version="1.0" encoding="UTF-8" standalone="no"?>
<svg
   width="36"
   height="18"
   viewBox="0 0 36 18"
   fill="none"
   version="1.1"
   id="svg11"
   sodipodi:docname="right.svg"
   inkscape:version="1.1.1 (3bf5ae0d25, 2021-09-20)"
   xmlns:inkscape="http://www.inkscape.org/namespaces/inkscape"
   xmlns:sodipodi="http://sodipodi.sourceforge.net/DTD/sodipodi-0.dtd"
   xmlns="http://www.w3.org/2000/svg"
   xmlns:svg="http://www.w3.org/2000/svg">
  <sodipodi:namedview
     id="namedview13"
     pagecolor="#ffffff"
     bordercolor="#666666"
     borderopacity="1.0"
     inkscape:pageshadow="2"
     inkscape:pageopacity="0.0"
     inkscape:pagecheckerboard="0"
     showgrid="false"
     inkscape:zoom="35.583333"
     inkscape:cx="18"
     inkscape:cy="9.0070258"
     inkscape:window-width="1920"
     inkscape:window-height="991"
     inkscape:window-x="-9"
     inkscape:window-y="-9"
     inkscape:window-maximized="1"
     inkscape:current-layer="svg11" />
  <path
     style="color:#000000;fill:#0057b8;stroke-linecap:round;stroke-linejoin:round;-inkscape-stroke:none"
     d="m 27.5,0.75 a 0.75,0.75 0 0 0 -0.53125,0.21875 0.75,0.75 0 0 0 0,1.0625 L 33.1875,8.25 H 1 A 0.75,0.75 0 0 0 0.25,9 0.75,0.75 0 0 0 1,9.75 h 32.1875 l -6.21875,6.21875 a 0.75,0.75 0 0 0 0,1.0625 0.75,0.75 0 0 0 1.0625,0 l 7.5,-7.5 a 0.75,0.75 0 0 0 0.193359,-0.3378906 0.75,0.75 0 0 0 0,-0.1308594 A 0.75,0.75 0 0 0 35.75,9 0.75,0.75 0 0 0 35.724609,8.8710938 0.75,0.75 0 0 0 35.705078,8.7734375 0.75,0.75 0 0 0 35.53125,8.46875 l -7.5,-7.5 A 0.75,0.75 0 0 0 27.5,0.75 Z"
     id="path2" />
  <defs
     id="defs9">
    <clipPath
       id="clip0_6_6792">
      <rect
         width="18"
         height="36"
         fill="white"
         transform="translate(36) rotate(90)"
         id="rect6" />
    </clipPath>
  </defs>
</svg>
