<svg width="40" height="40" viewBox="0 0 40 40" fill="none" xmlns="http://www.w3.org/2000/svg">
<path fill-rule="evenodd" clip-rule="evenodd" d="M19.9974 39.9948C31.0416 39.9948 39.9948 31.0416 39.9948 19.9974C39.9948 8.95313 31.0416 0 19.9974 0C8.95313 0 0 8.95313 0 19.9974C0 31.0416 8.95313 39.9948 19.9974 39.9948ZM22.8576 10.9132C22.2773 11.1576 21.7511 11.5146 21.3093 11.9634L18.2783 14.9934L19.6923 16.4074L22.7233 13.3764C23.2432 12.8568 23.9481 12.565 24.683 12.5652C25.418 12.5654 26.1228 12.8575 26.6423 13.3774C27.1619 13.8972 27.4537 14.6021 27.4535 15.3371C27.4533 16.072 27.1612 16.7768 26.6413 17.2964L23.6113 20.3274L25.0263 21.7404L28.0563 18.7104C28.5051 18.2686 28.8621 17.7424 29.1065 17.1621C29.351 16.5817 29.4781 15.9587 29.4806 15.329C29.4831 14.6993 29.3609 14.0753 29.1211 13.493C28.8812 12.9108 28.5285 12.3817 28.0832 11.9365C27.638 11.4912 27.1089 11.1384 26.5267 10.8986C25.9444 10.6588 25.3204 10.5366 24.6907 10.5391C24.061 10.5416 23.438 10.6687 22.8576 10.9132ZM18.0143 23.4174L23.4293 18.0034L22.0143 16.5894L16.6003 22.0034L18.0143 23.4174ZM13.3893 22.7104L16.4193 19.6794L15.0053 18.2664L11.9753 21.2964C11.0806 22.1912 10.578 23.4048 10.5781 24.6702C10.5782 25.9356 11.081 27.1492 11.9758 28.0439C12.8707 28.9386 14.0843 29.4412 15.3497 29.4411C16.6151 29.441 17.8286 28.9382 18.7233 28.0434L21.7533 25.0134L20.3393 23.5994L17.3093 26.6304C16.7895 27.1502 16.0845 27.4422 15.3493 27.4422C14.6142 27.4422 13.9092 27.1502 13.3893 26.6304C12.8695 26.1105 12.5775 25.4055 12.5775 24.6704C12.5775 23.9352 12.8695 23.2302 13.3893 22.7104Z" fill="#0057B8"/>
</svg>
