<svg width="34" height="33" viewBox="0 0 34 33" fill="none" xmlns="http://www.w3.org/2000/svg">
<path fill-rule="evenodd" clip-rule="evenodd" d="M17.2587 33C26.3714 33 33.7587 25.6127 33.7587 16.5C33.7587 7.3873 26.3714 0 17.2587 0C8.14597 0 0.758667 7.3873 0.758667 16.5C0.758667 25.6127 8.14597 33 17.2587 33ZM14.2541 8.46688C14.141 8.41776 14.019 8.39239 13.8956 8.39233H10.0516L9.95345 8.39774C9.79636 8.41507 9.64658 8.47342 9.51917 8.56694C9.39177 8.66046 9.2912 8.78586 9.22758 8.93053C9.16396 9.07521 9.13952 9.23408 9.15672 9.39119C9.17391 9.5483 9.23214 9.69812 9.32555 9.82561L14.965 17.5181L9.41473 23.0701L9.33997 23.1548C9.19996 23.3358 9.13412 23.5634 9.15583 23.7912C9.17754 24.0191 9.28515 24.2301 9.45683 24.3815C9.62849 24.5329 9.85135 24.6132 10.0801 24.6063C10.3089 24.5993 10.5264 24.5055 10.6886 24.3439L16.0433 18.9883L19.8954 24.2394L19.9638 24.3223C20.0481 24.4124 20.1499 24.4842 20.263 24.5333C20.3761 24.5824 20.4981 24.6078 20.6215 24.6079H24.4654L24.5636 24.6024C24.7207 24.5851 24.8705 24.5268 24.9979 24.4332C25.1253 24.3397 25.2259 24.2143 25.2895 24.0697C25.3531 23.925 25.3776 23.7661 25.3604 23.609C25.3432 23.4519 25.2849 23.3021 25.1915 23.1746L19.5503 15.4812L25.1023 9.93011L25.1771 9.84542C25.3171 9.66436 25.383 9.43679 25.3613 9.20894C25.3396 8.98109 25.2319 8.77005 25.0603 8.61867C24.8886 8.4673 24.6657 8.38694 24.437 8.39393C24.2082 8.40092 23.9906 8.49472 23.8285 8.65629L18.472 14.011L14.6217 8.76079L14.5533 8.67791C14.469 8.58783 14.3672 8.516 14.2541 8.46688Z" fill="white"/>
</svg>
