<svg width="47" height="40" viewBox="0 0 47 40" fill="none" xmlns="http://www.w3.org/2000/svg">
<g clip-path="url(#clip0_2010_399)">
<path d="M7.93234 24.6866C9.04803 24.8137 10.1768 24.9498 11.3081 25.0667C11.7602 25.1142 11.9679 25.3608 12.1273 25.7641C12.5649 26.8788 13.0326 27.982 13.5291 29.0736C13.7185 29.4897 13.7237 29.8249 13.4285 30.1807C12.7191 31.0373 12.0241 31.9029 11.3565 32.7248C12.1351 33.4903 12.8902 34.2326 13.7002 35.0288C14.2567 34.5922 14.8878 34.0964 15.5188 33.5994C17.0094 32.4243 16.6802 32.5682 18.1721 33.3079C18.9651 33.7009 19.8274 33.968 20.6752 34.239C21.1651 34.3957 21.4552 34.6243 21.5061 35.1598C21.608 36.2425 21.753 37.3213 21.8824 38.4296H25.1628C25.2947 37.2981 25.4319 36.1872 25.5508 35.0751C25.5978 34.6294 25.8343 34.3841 26.2667 34.2814C27.4634 33.9988 28.5869 33.5403 29.6347 32.9059C30.0345 32.6632 30.3937 32.7094 30.7556 32.9997C31.6257 33.697 32.5075 34.3803 33.3541 35.0455C34.1301 34.2775 34.8826 33.5301 35.6848 32.7364C35.2079 32.1482 34.6775 31.4868 34.1379 30.8305C33.0601 29.5193 33.2117 29.7466 33.8884 28.4187C34.2934 27.6237 34.5926 26.7697 34.8682 25.9195C35.0381 25.3968 35.2824 25.0847 35.8703 25.0551C36.4229 25.0269 36.9716 24.946 37.5229 24.8831C38.0559 24.8227 38.5876 24.7572 39.1768 24.6866C39.1768 24.1844 39.1716 23.6925 39.1781 23.2007C39.186 22.6446 39.5034 22.2978 39.9803 22.3119C40.4388 22.3248 40.7341 22.6574 40.7393 23.1942C40.7472 23.8826 40.7472 24.5723 40.7393 25.2619C40.7328 25.8398 40.4911 26.0928 39.8888 26.1635C38.8215 26.2881 37.7541 26.4203 36.6842 26.5179C36.4007 26.5436 36.3171 26.6656 36.2256 26.9007C35.9304 27.6609 35.6234 28.4199 35.2706 29.1558C35.1282 29.4538 35.1596 29.6336 35.3647 29.875C36.0218 30.6494 36.6567 31.4444 37.2943 32.2342C37.7097 32.748 37.6953 33.0703 37.2263 33.5352C36.2165 34.5369 35.2014 35.5335 34.1837 36.5276C33.6912 37.0079 33.3658 37.0182 32.8237 36.5918C32.0085 35.9522 31.1854 35.3216 30.3846 34.6654C30.156 34.4792 29.9913 34.4946 29.7366 34.6076C28.9671 34.9492 28.1859 35.269 27.3942 35.5605C27.1407 35.6543 27.0467 35.7621 27.0205 36.0254C26.916 37.0772 26.7841 38.1265 26.66 39.1757C26.592 39.7524 26.3268 39.9951 25.7311 39.9977C24.264 40.0028 22.7969 40.0028 21.3297 39.9977C20.7118 39.9951 20.457 39.7549 20.3852 39.1411C20.2624 38.0905 20.1291 37.0426 20.0246 35.9907C19.9998 35.7377 19.8874 35.6517 19.664 35.5669C18.8606 35.2626 18.0624 34.9441 17.2785 34.5947C17.0277 34.483 16.8735 34.5048 16.671 34.6679C15.865 35.3191 15.0484 35.9561 14.2319 36.5944C13.678 37.0272 13.3645 37.013 12.8719 36.5314C11.8542 35.5374 10.8404 34.5395 9.82927 33.5403C9.35896 33.0754 9.34328 32.7531 9.75742 32.2419C10.4172 31.4264 11.073 30.6096 11.7471 29.807C11.9182 29.6028 11.9196 29.4525 11.8098 29.2123C11.4558 28.4418 11.1553 27.6468 10.8026 26.875C10.7346 26.726 10.5387 26.559 10.3819 26.5385C9.31715 26.3934 8.24719 26.2829 7.17853 26.1648C6.55667 26.0954 6.31629 25.845 6.31106 25.2324C6.30584 24.5594 6.30453 23.8865 6.31106 23.2135C6.31629 22.6536 6.62852 22.3081 7.10276 22.3145C7.57568 22.3222 7.8644 22.6664 7.87355 23.2353C7.88008 23.6835 7.88008 24.1318 7.88661 24.5813C7.88661 24.6095 7.91144 24.6378 7.93626 24.6917L7.93234 24.6866Z" fill="#0057B8"/>
<path d="M23.5349 4.02526e-06C26.9695 -0.0038488 29.7743 2.75862 29.7822 6.15296C29.7887 9.52418 26.9603 12.3072 23.5322 12.3059C20.0807 12.3034 17.2666 9.55244 17.2627 6.17479C17.2575 2.75991 20.0571 0.00385685 23.5349 4.02526e-06ZM18.8265 6.16966C18.8343 8.71124 20.9416 10.7674 23.5375 10.7661C26.115 10.7661 28.2315 8.67014 28.2145 6.13627C28.1988 3.59083 26.0941 1.53856 23.5022 1.53856C20.9259 1.53856 18.8187 3.62551 18.8265 6.16966Z" fill="#0057B8"/>
<path d="M34.4783 19.1665C34.4783 19.6635 34.4849 20.1605 34.477 20.6562C34.4679 21.1879 34.1661 21.5244 33.7101 21.5321C33.2359 21.5411 32.9211 21.1931 32.9158 20.6344C32.9093 19.8009 32.878 18.9661 32.9263 18.1352C32.9589 17.5817 32.763 17.1656 32.3018 16.9318C31.2802 16.413 30.2716 15.8158 29.1847 15.4857C24.6736 14.1154 20.2239 14.3016 15.8905 16.2358C15.7716 16.2884 15.6619 16.3578 15.5443 16.413C14.5409 16.8728 13.9256 17.5277 14.1137 18.7324C14.2117 19.3591 14.1373 20.0115 14.1294 20.6524C14.1229 21.1841 13.8224 21.5218 13.3665 21.5334C12.8935 21.5449 12.5735 21.1969 12.5682 20.6408C12.5617 19.8073 12.6087 18.9713 12.5552 18.1416C12.4886 17.1206 12.951 16.3886 13.7127 15.7824C14.7291 14.9733 15.9127 14.4763 17.142 14.0897C21.6571 12.6706 26.1564 12.722 30.6048 14.3479C31.5088 14.6792 32.3684 15.1711 33.1823 15.6887C34.0982 16.2704 34.6103 17.1193 34.4836 18.2546C34.4496 18.5552 34.4783 18.8634 34.4783 19.1678V19.1665Z" fill="#0057B8"/>
<path d="M3.95803 7.67996C3.96587 4.69531 6.4324 2.295 9.48029 2.30656C12.4603 2.31683 14.9163 4.7454 14.9124 7.67483C14.9085 10.6633 12.4524 13.0739 9.41236 13.0752C6.41411 13.0752 3.95019 10.6389 3.95803 7.68125V7.67996ZM9.43457 3.84512C7.29725 3.83998 5.5375 5.55321 5.52313 7.65299C5.50875 9.7836 7.24891 11.5212 9.40974 11.5341C11.5732 11.5469 13.3486 9.82085 13.3473 7.70436C13.3473 5.57504 11.5993 3.85026 9.43457 3.84512Z" fill="#0057B8"/>
<path d="M32.1319 7.6838C32.1384 4.69786 34.6036 2.29755 37.6502 2.30654C40.6302 2.31553 43.0875 4.74153 43.0849 7.67096C43.0823 10.6595 40.6275 13.0726 37.5888 13.0739C34.5905 13.0765 32.124 10.6402 32.1319 7.6838ZM41.5211 7.70692C41.5211 5.57759 39.7745 3.85153 37.611 3.8451C35.4541 3.83868 33.693 5.57245 33.697 7.69793C33.7009 9.82083 35.4619 11.5392 37.6293 11.5341C39.764 11.5289 41.5211 9.80157 41.5211 7.70563V7.70692Z" fill="#0057B8"/>
<path d="M0.0447445 19.3113C-0.300152 16.9649 1.40082 15.854 3.35654 14.9871C5.67936 13.9584 8.15243 13.735 10.6699 13.8904C11.3022 13.9289 11.9319 14.0278 12.559 14.1228C13.1221 14.2088 13.4226 14.5774 13.3363 15.0282C13.2501 15.4828 12.836 15.7204 12.286 15.6305C9.58688 15.1823 6.92308 15.2799 4.35334 16.2624C3.60737 16.5475 2.9215 17.0086 2.2513 17.4516C1.78882 17.7586 1.56412 18.2312 1.602 18.8207C1.63989 19.4269 1.61638 20.0369 1.60854 20.6456C1.6007 21.1992 1.27801 21.5472 0.803778 21.5318C0.349142 21.5177 0.0565023 21.1812 0.0473573 20.6469C0.0408252 20.2629 0.0460509 19.8776 0.0460509 19.3113H0.0447445Z" fill="#0057B8"/>
<path d="M47.0001 19.5299C47.0001 19.8176 47.0001 20.1066 47.0001 20.3943C47.0001 21.1687 46.7389 21.5411 46.2045 21.5321C45.6846 21.5231 45.435 21.1635 45.435 20.4187C45.435 19.9216 45.3985 19.4221 45.4442 18.9302C45.5095 18.2251 45.1907 17.7332 44.6642 17.3223C43.5107 16.4246 42.1598 15.9699 40.7463 15.6874C38.7631 15.2906 36.7682 15.2777 34.7733 15.627C34.2181 15.7246 33.8091 15.4948 33.7138 15.0414C33.6184 14.5919 33.9189 14.213 34.4741 14.1232C37.8068 13.5825 41.0637 13.7584 44.1639 15.2032C44.6446 15.428 45.0993 15.7259 45.5252 16.0431C46.7271 16.9396 47.0001 17.6202 47.0001 19.5299Z" fill="#0057B8"/>
<path d="M23.54 28.4586C20.6123 28.4676 18.1249 26.1277 18.0504 23.292C18.0348 22.6884 18.3104 22.3275 18.8003 22.3108C19.2837 22.2941 19.5803 22.6344 19.6129 23.2419C19.7279 25.3096 21.4236 26.9136 23.5035 26.9201C25.6081 26.9278 27.3117 25.3263 27.4306 23.229C27.4645 22.6293 27.7729 22.2864 28.2562 22.3108C28.7409 22.3352 29.0127 22.7012 28.9931 23.3048C28.9068 26.1277 26.4495 28.4496 23.54 28.4586Z" fill="#0057B8"/>
</g>
<defs>
<clipPath id="clip0_2010_399">
<rect width="47" height="40" fill="white"/>
</clipPath>
</defs>
</svg>
