<svg width="41" height="42" viewBox="0 0 41 42" fill="none" xmlns="http://www.w3.org/2000/svg">
<g clip-path="url(#clip0_2048_469)">
<mask id="path-1-inside-1_2048_469" fill="white">
<path d="M22.9023 25.3201C24.5997 25.3201 26.2134 25.3321 27.8271 25.3201C28.8431 25.3082 29.7038 25.6189 30.3971 26.3717C30.8513 26.8736 31.186 27.4591 31.186 28.1403C31.198 30.124 31.2338 32.1196 31.0904 34.0913C30.9708 35.7882 30.2775 37.3297 29.2376 38.6801C28.114 40.1499 26.584 40.9505 24.7312 40.9744C22.5079 41.0103 20.2845 40.9864 18.0493 40.9505C16.6388 40.9266 15.3119 40.5203 14.0449 39.9229C13.9254 39.8631 13.8058 39.8153 13.6863 39.7675C12.6942 41.2373 10.8414 41.1895 9.39504 40.8071C8.40291 40.5443 7.73352 39.5524 7.73352 38.4889C7.70962 34.9517 7.70962 31.4146 7.73352 27.8654C7.74548 26.4554 8.84519 25.3918 10.2557 25.344C10.674 25.3321 11.0924 25.3321 11.5108 25.344C12.2997 25.3679 12.9452 25.7145 13.4711 26.2881C15.8857 24.1729 17.4875 21.5918 18.2047 18.4728C18.635 16.6087 20.1531 15.9036 21.8504 16.776C23.6315 17.6842 24.528 19.7037 23.9901 21.6635C23.7152 22.6792 23.3805 23.6949 23.0816 24.7107C23.0099 24.878 22.9621 25.0692 22.9023 25.3201ZM21.1571 39.4927C21.1571 39.4568 21.1571 39.421 21.1691 39.3851C22.2568 39.3851 23.3446 39.3971 24.4443 39.3851C26.0939 39.3612 27.3729 38.6562 28.2335 37.2341C29.0105 35.9555 29.4886 34.5813 29.5125 33.0875C29.5364 31.6416 29.4886 30.1957 29.4528 28.7497C29.4169 27.5906 28.8192 27.0529 27.6598 27.0529C25.7233 27.0529 23.7749 27.0409 21.8385 27.0529C21.3962 27.0529 21.0615 26.9095 20.93 26.4793C20.8703 26.2881 20.9061 26.0371 20.9659 25.822C21.3962 24.3522 21.8385 22.8823 22.2688 21.4006C22.6633 20.0741 22.1134 18.7955 20.93 18.2338C20.2128 17.8873 19.8901 18.0426 19.7108 18.8194C19.2326 20.8748 18.4437 22.8106 17.1528 24.4836C16.2682 25.6308 15.2044 26.6585 14.2361 27.7459C14.1166 27.8774 13.9851 28.0686 13.9851 28.2239C13.9732 31.4146 13.9732 34.6171 13.9851 37.8077C13.9851 37.9392 14.0927 38.1304 14.2122 38.1782C15.0251 38.5128 15.8259 38.9549 16.6746 39.0864C18.1449 39.3493 19.651 39.3732 21.1571 39.4927ZM12.3236 33.1712C12.3236 31.6535 12.3236 30.124 12.3236 28.6063C12.3236 27.0768 12.2041 26.9573 10.6621 26.9573C9.63411 26.9573 9.35918 27.2321 9.35918 28.2478C9.35918 31.5221 9.35918 34.7844 9.35918 38.0587C9.35918 38.2021 9.35918 38.3574 9.37113 38.5008C9.4309 39.0147 9.75364 39.3134 10.2557 39.3373C10.5187 39.3493 10.7936 39.3373 11.0566 39.3373C12.0487 39.3373 12.3236 39.0625 12.3236 38.0467C12.3236 36.4215 12.3236 34.7964 12.3236 33.1712Z"/>
<path d="M16.8778 14.7445C15.7303 14.6728 14.8936 13.669 15.0848 12.5338C15.2283 11.6375 15.4076 10.7413 15.5391 9.84504C15.563 9.67774 15.4913 9.42679 15.3717 9.3073C14.7621 8.67395 14.1286 8.05256 13.507 7.43117C12.9691 6.90537 12.7659 6.28398 12.981 5.55504C13.2082 4.79025 13.7341 4.36005 14.5111 4.24055C15.4076 4.09715 16.316 3.9896 17.2125 3.83426C17.3799 3.81036 17.5831 3.65501 17.6668 3.49966C18.0732 2.73487 18.4437 1.95813 18.8262 1.18139C19.1729 0.452443 19.7347 0.0341978 20.5475 0.0461477C21.3603 0.0461477 21.9102 0.488293 22.2568 1.20528C22.6154 1.95813 22.998 2.69902 23.3446 3.46381C23.4761 3.76256 23.6793 3.87011 23.9781 3.9179C24.8388 4.02545 25.6875 4.1569 26.5481 4.28835C27.2892 4.3959 27.8152 4.8022 28.0542 5.51919C28.2933 6.23618 28.114 6.86952 27.588 7.40727C26.9545 8.04061 26.309 8.662 25.6875 9.3073C25.5679 9.43874 25.4843 9.66579 25.4962 9.84504C25.6038 10.7054 25.7472 11.5539 25.8787 12.4143C25.9982 13.191 25.8309 13.8721 25.1615 14.3501C24.4921 14.8281 23.7988 14.7923 23.0936 14.4099C22.3525 14.0155 21.6114 13.6331 20.8822 13.2388C20.6431 13.1074 20.4519 13.0835 20.1889 13.2269C19.4 13.657 18.6111 14.0633 17.7982 14.4577C17.4994 14.5772 17.1767 14.6369 16.8778 14.7445ZM14.7023 5.85378C14.8816 6.08083 15.0012 6.28398 15.1566 6.43933C15.8499 7.13242 16.5551 7.82551 17.2723 8.50665C17.595 8.81735 17.6907 9.1639 17.607 9.59409C17.4157 10.6098 17.2484 11.6256 17.0691 12.6413C17.0452 12.7489 17.081 12.8684 17.093 12.9759C17.2125 12.964 17.356 12.9759 17.4516 12.9162C18.384 12.4382 19.3163 11.9602 20.2248 11.4583C20.6192 11.2432 20.9659 11.2432 21.3603 11.4583C22.2329 11.9363 23.1294 12.4023 24.014 12.8564C24.1455 12.9281 24.3128 12.952 24.4682 12.9998C24.4802 12.8325 24.5399 12.6533 24.516 12.4979C24.3606 11.5658 24.2052 10.6457 24.014 9.72554C23.9064 9.19975 24.014 8.7815 24.4324 8.39911C25.1257 7.76576 25.795 7.09657 26.4525 6.42738C26.572 6.30788 26.6318 6.14058 26.7274 5.99718C26.572 5.92548 26.4166 5.82988 26.2612 5.80598C25.2571 5.65064 24.2531 5.49529 23.249 5.36384C22.8306 5.31604 22.5796 5.10094 22.3883 4.74245C21.9341 3.83426 21.456 2.93802 20.9898 2.04178C20.9181 1.89838 20.7746 1.77888 20.6671 1.65938C20.5595 1.79083 20.428 1.91033 20.3563 2.06568C19.8781 2.96192 19.412 3.85816 18.9577 4.76635C18.7784 5.13679 18.5154 5.31604 18.0851 5.36384C16.9854 5.50724 15.8857 5.68649 14.7023 5.85378Z"/>
<path d="M37.4615 19.3093C37.1866 19.2137 36.8877 19.154 36.6248 19.0225C35.9793 18.7118 35.3577 18.3533 34.7122 18.0427C34.5688 17.971 34.3417 17.971 34.1982 18.0427C33.5647 18.3414 32.9431 18.676 32.3335 19.0106C31.688 19.3571 31.0426 19.381 30.4449 18.9389C29.8472 18.4967 29.6679 17.8873 29.8233 17.1464C29.9548 16.4892 30.0863 15.8319 30.17 15.1627C30.1939 14.9835 30.1102 14.7206 29.9787 14.5891C29.4886 14.0633 28.9627 13.5734 28.4487 13.0715C27.9347 12.5696 27.7315 11.9721 27.9825 11.279C28.2216 10.6098 28.7475 10.2752 29.4408 10.1916C30.1222 10.1079 30.8035 9.98844 31.4848 9.90479C31.7478 9.86894 31.9032 9.74944 32.0108 9.51044C32.2977 8.901 32.5965 8.30351 32.9073 7.70601C33.23 7.06072 33.7679 6.71417 34.4851 6.71417C35.1904 6.72612 35.7044 7.07267 36.0271 7.69406C36.3259 8.29156 36.6367 8.88905 36.9117 9.49849C37.0312 9.77334 37.2105 9.86894 37.4854 9.90479C38.1548 9.98844 38.8122 10.096 39.4816 10.1796C40.1749 10.2752 40.6889 10.6098 40.916 11.291C41.1551 11.9841 40.9638 12.5816 40.4498 13.0835C39.9598 13.5614 39.4816 14.0633 38.9796 14.5294C38.7525 14.7445 38.6927 14.9476 38.7525 15.2344C38.884 15.9395 39.0154 16.6445 39.123 17.3496C39.2665 18.3892 38.5134 19.2615 37.4615 19.3093ZM39.2187 11.8646C38.4656 11.7331 37.6767 11.5539 36.8758 11.4822C36.1825 11.4224 35.812 11.0998 35.549 10.4903C35.2382 9.76139 34.8437 9.0683 34.4612 8.29156C34.1146 8.9727 33.744 9.57019 33.505 10.2035C33.1583 11.1595 32.5128 11.518 31.5326 11.5539C30.8991 11.5778 30.2656 11.7331 29.5245 11.8407C30.1461 12.4621 30.672 13.0357 31.2577 13.5375C31.8793 14.0633 32.0825 14.625 31.8315 15.4256C31.6163 16.0948 31.5446 16.8118 31.3892 17.5886C32.214 17.1823 32.9671 16.8477 33.6723 16.4414C34.2222 16.1307 34.6883 16.1426 35.2143 16.4533C35.9195 16.8596 36.6606 17.2181 37.4376 17.6244C37.2942 16.7282 37.1866 15.9036 37.0192 15.091C36.9117 14.5294 37.0192 14.0992 37.4496 13.6929C38.095 13.1193 38.6329 12.486 39.2187 11.8646Z"/>
<path d="M9.59825 19.3213C9.31137 19.2257 9.00058 19.142 8.72565 19.0106C8.10408 18.7118 7.49446 18.3892 6.90874 18.0546C6.66968 17.9232 6.49038 17.9351 6.25131 18.0665C5.65364 18.4011 5.03207 18.7118 4.4344 19.0225C3.80087 19.3571 3.16734 19.3691 2.58163 18.9389C1.99591 18.5087 1.79271 17.9232 1.93615 17.2062C2.06763 16.537 2.19912 15.8558 2.28279 15.1747C2.3067 14.9835 2.22303 14.7325 2.10349 14.6011C1.61341 14.0753 1.08746 13.5853 0.573466 13.0835C0.0594714 12.5816 -0.143736 11.9841 0.107285 11.291C0.346352 10.6218 0.860346 10.2872 1.56559 10.1916C2.24694 10.1079 2.92828 9.98844 3.60962 9.90479C3.87259 9.86894 4.02798 9.76139 4.14752 9.51044C4.41049 8.93685 4.70933 8.38716 4.9723 7.82551C5.29504 7.12047 5.82099 6.70222 6.60991 6.71417C7.39883 6.71417 7.91282 7.14437 8.23557 7.84941C8.49854 8.39911 8.79737 8.93685 9.03644 9.49849C9.15597 9.76139 9.32332 9.88089 9.59825 9.91674C10.2796 10.0004 10.9609 10.1079 11.6423 10.2035C12.3356 10.2991 12.8496 10.6457 13.0767 11.3149C13.3157 11.996 13.1245 12.5816 12.6224 13.0715C12.1085 13.5734 11.6064 14.0872 11.0805 14.5652C10.8653 14.7684 10.8294 14.9715 10.8773 15.2344C11.0087 15.9395 11.1402 16.6445 11.2598 17.3496C11.4152 18.3653 10.6501 19.2615 9.59825 19.3213ZM1.67317 11.8287C2.40233 12.5457 3.03586 13.2149 3.70524 13.8482C4.05189 14.1828 4.17142 14.5294 4.05189 15.0074C3.86064 15.8319 3.7172 16.6684 3.5379 17.5766C4.08775 17.3018 4.56589 17.0508 5.04402 16.8238C6.87288 15.9514 6.26326 15.8917 8.12799 16.8477C8.59417 17.0867 9.06035 17.3257 9.58629 17.6005C9.4309 16.6565 9.31137 15.7961 9.14402 14.9476C9.06035 14.4577 9.15597 14.0753 9.52653 13.7407C9.98075 13.3344 10.3991 12.8923 10.8414 12.4621C11.0207 12.2828 11.2239 12.1155 11.4988 11.8646C10.5067 11.6973 9.68192 11.5419 8.83323 11.4344C8.29533 11.3746 7.97259 11.1356 7.74548 10.6457C7.38688 9.85699 6.98046 9.10415 6.57405 8.26766C6.13177 9.14 5.70145 9.94064 5.30699 10.7652C5.11574 11.1715 4.81691 11.3627 4.37463 11.4224C3.52594 11.5539 2.65335 11.6853 1.67317 11.8287Z"/>
</mask>
<path d="M22.9023 25.3201C24.5997 25.3201 26.2134 25.3321 27.8271 25.3201C28.8431 25.3082 29.7038 25.6189 30.3971 26.3717C30.8513 26.8736 31.186 27.4591 31.186 28.1403C31.198 30.124 31.2338 32.1196 31.0904 34.0913C30.9708 35.7882 30.2775 37.3297 29.2376 38.6801C28.114 40.1499 26.584 40.9505 24.7312 40.9744C22.5079 41.0103 20.2845 40.9864 18.0493 40.9505C16.6388 40.9266 15.3119 40.5203 14.0449 39.9229C13.9254 39.8631 13.8058 39.8153 13.6863 39.7675C12.6942 41.2373 10.8414 41.1895 9.39504 40.8071C8.40291 40.5443 7.73352 39.5524 7.73352 38.4889C7.70962 34.9517 7.70962 31.4146 7.73352 27.8654C7.74548 26.4554 8.84519 25.3918 10.2557 25.344C10.674 25.3321 11.0924 25.3321 11.5108 25.344C12.2997 25.3679 12.9452 25.7145 13.4711 26.2881C15.8857 24.1729 17.4875 21.5918 18.2047 18.4728C18.635 16.6087 20.1531 15.9036 21.8504 16.776C23.6315 17.6842 24.528 19.7037 23.9901 21.6635C23.7152 22.6792 23.3805 23.6949 23.0816 24.7107C23.0099 24.878 22.9621 25.0692 22.9023 25.3201ZM21.1571 39.4927C21.1571 39.4568 21.1571 39.421 21.1691 39.3851C22.2568 39.3851 23.3446 39.3971 24.4443 39.3851C26.0939 39.3612 27.3729 38.6562 28.2335 37.2341C29.0105 35.9555 29.4886 34.5813 29.5125 33.0875C29.5364 31.6416 29.4886 30.1957 29.4528 28.7497C29.4169 27.5906 28.8192 27.0529 27.6598 27.0529C25.7233 27.0529 23.7749 27.0409 21.8385 27.0529C21.3962 27.0529 21.0615 26.9095 20.93 26.4793C20.8703 26.2881 20.9061 26.0371 20.9659 25.822C21.3962 24.3522 21.8385 22.8823 22.2688 21.4006C22.6633 20.0741 22.1134 18.7955 20.93 18.2338C20.2128 17.8873 19.8901 18.0426 19.7108 18.8194C19.2326 20.8748 18.4437 22.8106 17.1528 24.4836C16.2682 25.6308 15.2044 26.6585 14.2361 27.7459C14.1166 27.8774 13.9851 28.0686 13.9851 28.2239C13.9732 31.4146 13.9732 34.6171 13.9851 37.8077C13.9851 37.9392 14.0927 38.1304 14.2122 38.1782C15.0251 38.5128 15.8259 38.9549 16.6746 39.0864C18.1449 39.3493 19.651 39.3732 21.1571 39.4927ZM12.3236 33.1712C12.3236 31.6535 12.3236 30.124 12.3236 28.6063C12.3236 27.0768 12.2041 26.9573 10.6621 26.9573C9.63411 26.9573 9.35918 27.2321 9.35918 28.2478C9.35918 31.5221 9.35918 34.7844 9.35918 38.0587C9.35918 38.2021 9.35918 38.3574 9.37113 38.5008C9.4309 39.0147 9.75364 39.3134 10.2557 39.3373C10.5187 39.3493 10.7936 39.3373 11.0566 39.3373C12.0487 39.3373 12.3236 39.0625 12.3236 38.0467C12.3236 36.4215 12.3236 34.7964 12.3236 33.1712Z" fill="#014898"/>
<path d="M16.8778 14.7445C15.7303 14.6728 14.8936 13.669 15.0848 12.5338C15.2283 11.6375 15.4076 10.7413 15.5391 9.84504C15.563 9.67774 15.4913 9.42679 15.3717 9.3073C14.7621 8.67395 14.1286 8.05256 13.507 7.43117C12.9691 6.90537 12.7659 6.28398 12.981 5.55504C13.2082 4.79025 13.7341 4.36005 14.5111 4.24055C15.4076 4.09715 16.316 3.9896 17.2125 3.83426C17.3799 3.81036 17.5831 3.65501 17.6668 3.49966C18.0732 2.73487 18.4437 1.95813 18.8262 1.18139C19.1729 0.452443 19.7347 0.0341978 20.5475 0.0461477C21.3603 0.0461477 21.9102 0.488293 22.2568 1.20528C22.6154 1.95813 22.998 2.69902 23.3446 3.46381C23.4761 3.76256 23.6793 3.87011 23.9781 3.9179C24.8388 4.02545 25.6875 4.1569 26.5481 4.28835C27.2892 4.3959 27.8152 4.8022 28.0542 5.51919C28.2933 6.23618 28.114 6.86952 27.588 7.40727C26.9545 8.04061 26.309 8.662 25.6875 9.3073C25.5679 9.43874 25.4843 9.66579 25.4962 9.84504C25.6038 10.7054 25.7472 11.5539 25.8787 12.4143C25.9982 13.191 25.8309 13.8721 25.1615 14.3501C24.4921 14.8281 23.7988 14.7923 23.0936 14.4099C22.3525 14.0155 21.6114 13.6331 20.8822 13.2388C20.6431 13.1074 20.4519 13.0835 20.1889 13.2269C19.4 13.657 18.6111 14.0633 17.7982 14.4577C17.4994 14.5772 17.1767 14.6369 16.8778 14.7445ZM14.7023 5.85378C14.8816 6.08083 15.0012 6.28398 15.1566 6.43933C15.8499 7.13242 16.5551 7.82551 17.2723 8.50665C17.595 8.81735 17.6907 9.1639 17.607 9.59409C17.4157 10.6098 17.2484 11.6256 17.0691 12.6413C17.0452 12.7489 17.081 12.8684 17.093 12.9759C17.2125 12.964 17.356 12.9759 17.4516 12.9162C18.384 12.4382 19.3163 11.9602 20.2248 11.4583C20.6192 11.2432 20.9659 11.2432 21.3603 11.4583C22.2329 11.9363 23.1294 12.4023 24.014 12.8564C24.1455 12.9281 24.3128 12.952 24.4682 12.9998C24.4802 12.8325 24.5399 12.6533 24.516 12.4979C24.3606 11.5658 24.2052 10.6457 24.014 9.72554C23.9064 9.19975 24.014 8.7815 24.4324 8.39911C25.1257 7.76576 25.795 7.09657 26.4525 6.42738C26.572 6.30788 26.6318 6.14058 26.7274 5.99718C26.572 5.92548 26.4166 5.82988 26.2612 5.80598C25.2571 5.65064 24.2531 5.49529 23.249 5.36384C22.8306 5.31604 22.5796 5.10094 22.3883 4.74245C21.9341 3.83426 21.456 2.93802 20.9898 2.04178C20.9181 1.89838 20.7746 1.77888 20.6671 1.65938C20.5595 1.79083 20.428 1.91033 20.3563 2.06568C19.8781 2.96192 19.412 3.85816 18.9577 4.76635C18.7784 5.13679 18.5154 5.31604 18.0851 5.36384C16.9854 5.50724 15.8857 5.68649 14.7023 5.85378Z" fill="#014898"/>
<path d="M37.4615 19.3093C37.1866 19.2137 36.8877 19.154 36.6248 19.0225C35.9793 18.7118 35.3577 18.3533 34.7122 18.0427C34.5688 17.971 34.3417 17.971 34.1982 18.0427C33.5647 18.3414 32.9431 18.676 32.3335 19.0106C31.688 19.3571 31.0426 19.381 30.4449 18.9389C29.8472 18.4967 29.6679 17.8873 29.8233 17.1464C29.9548 16.4892 30.0863 15.8319 30.17 15.1627C30.1939 14.9835 30.1102 14.7206 29.9787 14.5891C29.4886 14.0633 28.9627 13.5734 28.4487 13.0715C27.9347 12.5696 27.7315 11.9721 27.9825 11.279C28.2216 10.6098 28.7475 10.2752 29.4408 10.1916C30.1222 10.1079 30.8035 9.98844 31.4848 9.90479C31.7478 9.86894 31.9032 9.74944 32.0108 9.51044C32.2977 8.901 32.5965 8.30351 32.9073 7.70601C33.23 7.06072 33.7679 6.71417 34.4851 6.71417C35.1904 6.72612 35.7044 7.07267 36.0271 7.69406C36.3259 8.29156 36.6367 8.88905 36.9117 9.49849C37.0312 9.77334 37.2105 9.86894 37.4854 9.90479C38.1548 9.98844 38.8122 10.096 39.4816 10.1796C40.1749 10.2752 40.6889 10.6098 40.916 11.291C41.1551 11.9841 40.9638 12.5816 40.4498 13.0835C39.9598 13.5614 39.4816 14.0633 38.9796 14.5294C38.7525 14.7445 38.6927 14.9476 38.7525 15.2344C38.884 15.9395 39.0154 16.6445 39.123 17.3496C39.2665 18.3892 38.5134 19.2615 37.4615 19.3093ZM39.2187 11.8646C38.4656 11.7331 37.6767 11.5539 36.8758 11.4822C36.1825 11.4224 35.812 11.0998 35.549 10.4903C35.2382 9.76139 34.8437 9.0683 34.4612 8.29156C34.1146 8.9727 33.744 9.57019 33.505 10.2035C33.1583 11.1595 32.5128 11.518 31.5326 11.5539C30.8991 11.5778 30.2656 11.7331 29.5245 11.8407C30.1461 12.4621 30.672 13.0357 31.2577 13.5375C31.8793 14.0633 32.0825 14.625 31.8315 15.4256C31.6163 16.0948 31.5446 16.8118 31.3892 17.5886C32.214 17.1823 32.9671 16.8477 33.6723 16.4414C34.2222 16.1307 34.6883 16.1426 35.2143 16.4533C35.9195 16.8596 36.6606 17.2181 37.4376 17.6244C37.2942 16.7282 37.1866 15.9036 37.0192 15.091C36.9117 14.5294 37.0192 14.0992 37.4496 13.6929C38.095 13.1193 38.6329 12.486 39.2187 11.8646Z" fill="#014898"/>
<path d="M9.59825 19.3213C9.31137 19.2257 9.00058 19.142 8.72565 19.0106C8.10408 18.7118 7.49446 18.3892 6.90874 18.0546C6.66968 17.9232 6.49038 17.9351 6.25131 18.0665C5.65364 18.4011 5.03207 18.7118 4.4344 19.0225C3.80087 19.3571 3.16734 19.3691 2.58163 18.9389C1.99591 18.5087 1.79271 17.9232 1.93615 17.2062C2.06763 16.537 2.19912 15.8558 2.28279 15.1747C2.3067 14.9835 2.22303 14.7325 2.10349 14.6011C1.61341 14.0753 1.08746 13.5853 0.573466 13.0835C0.0594714 12.5816 -0.143736 11.9841 0.107285 11.291C0.346352 10.6218 0.860346 10.2872 1.56559 10.1916C2.24694 10.1079 2.92828 9.98844 3.60962 9.90479C3.87259 9.86894 4.02798 9.76139 4.14752 9.51044C4.41049 8.93685 4.70933 8.38716 4.9723 7.82551C5.29504 7.12047 5.82099 6.70222 6.60991 6.71417C7.39883 6.71417 7.91282 7.14437 8.23557 7.84941C8.49854 8.39911 8.79737 8.93685 9.03644 9.49849C9.15597 9.76139 9.32332 9.88089 9.59825 9.91674C10.2796 10.0004 10.9609 10.1079 11.6423 10.2035C12.3356 10.2991 12.8496 10.6457 13.0767 11.3149C13.3157 11.996 13.1245 12.5816 12.6224 13.0715C12.1085 13.5734 11.6064 14.0872 11.0805 14.5652C10.8653 14.7684 10.8294 14.9715 10.8773 15.2344C11.0087 15.9395 11.1402 16.6445 11.2598 17.3496C11.4152 18.3653 10.6501 19.2615 9.59825 19.3213ZM1.67317 11.8287C2.40233 12.5457 3.03586 13.2149 3.70524 13.8482C4.05189 14.1828 4.17142 14.5294 4.05189 15.0074C3.86064 15.8319 3.7172 16.6684 3.5379 17.5766C4.08775 17.3018 4.56589 17.0508 5.04402 16.8238C6.87288 15.9514 6.26326 15.8917 8.12799 16.8477C8.59417 17.0867 9.06035 17.3257 9.58629 17.6005C9.4309 16.6565 9.31137 15.7961 9.14402 14.9476C9.06035 14.4577 9.15597 14.0753 9.52653 13.7407C9.98075 13.3344 10.3991 12.8923 10.8414 12.4621C11.0207 12.2828 11.2239 12.1155 11.4988 11.8646C10.5067 11.6973 9.68192 11.5419 8.83323 11.4344C8.29533 11.3746 7.97259 11.1356 7.74548 10.6457C7.38688 9.85699 6.98046 9.10415 6.57405 8.26766C6.13177 9.14 5.70145 9.94064 5.30699 10.7652C5.11574 11.1715 4.81691 11.3627 4.37463 11.4224C3.52594 11.5539 2.65335 11.6853 1.67317 11.8287Z" fill="#014898"/>
<path d="M22.9023 25.3201C24.5997 25.3201 26.2134 25.3321 27.8271 25.3201C28.8431 25.3082 29.7038 25.6189 30.3971 26.3717C30.8513 26.8736 31.186 27.4591 31.186 28.1403C31.198 30.124 31.2338 32.1196 31.0904 34.0913C30.9708 35.7882 30.2775 37.3297 29.2376 38.6801C28.114 40.1499 26.584 40.9505 24.7312 40.9744C22.5079 41.0103 20.2845 40.9864 18.0493 40.9505C16.6388 40.9266 15.3119 40.5203 14.0449 39.9229C13.9254 39.8631 13.8058 39.8153 13.6863 39.7675C12.6942 41.2373 10.8414 41.1895 9.39504 40.8071C8.40291 40.5443 7.73352 39.5524 7.73352 38.4889C7.70962 34.9517 7.70962 31.4146 7.73352 27.8654C7.74548 26.4554 8.84519 25.3918 10.2557 25.344C10.674 25.3321 11.0924 25.3321 11.5108 25.344C12.2997 25.3679 12.9452 25.7145 13.4711 26.2881C15.8857 24.1729 17.4875 21.5918 18.2047 18.4728C18.635 16.6087 20.1531 15.9036 21.8504 16.776C23.6315 17.6842 24.528 19.7037 23.9901 21.6635C23.7152 22.6792 23.3805 23.6949 23.0816 24.7107C23.0099 24.878 22.9621 25.0692 22.9023 25.3201ZM21.1571 39.4927C21.1571 39.4568 21.1571 39.421 21.1691 39.3851C22.2568 39.3851 23.3446 39.3971 24.4443 39.3851C26.0939 39.3612 27.3729 38.6562 28.2335 37.2341C29.0105 35.9555 29.4886 34.5813 29.5125 33.0875C29.5364 31.6416 29.4886 30.1957 29.4528 28.7497C29.4169 27.5906 28.8192 27.0529 27.6598 27.0529C25.7233 27.0529 23.7749 27.0409 21.8385 27.0529C21.3962 27.0529 21.0615 26.9095 20.93 26.4793C20.8703 26.2881 20.9061 26.0371 20.9659 25.822C21.3962 24.3522 21.8385 22.8823 22.2688 21.4006C22.6633 20.0741 22.1134 18.7955 20.93 18.2338C20.2128 17.8873 19.8901 18.0426 19.7108 18.8194C19.2326 20.8748 18.4437 22.8106 17.1528 24.4836C16.2682 25.6308 15.2044 26.6585 14.2361 27.7459C14.1166 27.8774 13.9851 28.0686 13.9851 28.2239C13.9732 31.4146 13.9732 34.6171 13.9851 37.8077C13.9851 37.9392 14.0927 38.1304 14.2122 38.1782C15.0251 38.5128 15.8259 38.9549 16.6746 39.0864C18.1449 39.3493 19.651 39.3732 21.1571 39.4927ZM12.3236 33.1712C12.3236 31.6535 12.3236 30.124 12.3236 28.6063C12.3236 27.0768 12.2041 26.9573 10.6621 26.9573C9.63411 26.9573 9.35918 27.2321 9.35918 28.2478C9.35918 31.5221 9.35918 34.7844 9.35918 38.0587C9.35918 38.2021 9.35918 38.3574 9.37113 38.5008C9.4309 39.0147 9.75364 39.3134 10.2557 39.3373C10.5187 39.3493 10.7936 39.3373 11.0566 39.3373C12.0487 39.3373 12.3236 39.0625 12.3236 38.0467C12.3236 36.4215 12.3236 34.7964 12.3236 33.1712Z" stroke="white" stroke-width="0.2" mask="url(#path-1-inside-1_2048_469)"/>
<path d="M16.8778 14.7445C15.7303 14.6728 14.8936 13.669 15.0848 12.5338C15.2283 11.6375 15.4076 10.7413 15.5391 9.84504C15.563 9.67774 15.4913 9.42679 15.3717 9.3073C14.7621 8.67395 14.1286 8.05256 13.507 7.43117C12.9691 6.90537 12.7659 6.28398 12.981 5.55504C13.2082 4.79025 13.7341 4.36005 14.5111 4.24055C15.4076 4.09715 16.316 3.9896 17.2125 3.83426C17.3799 3.81036 17.5831 3.65501 17.6668 3.49966C18.0732 2.73487 18.4437 1.95813 18.8262 1.18139C19.1729 0.452443 19.7347 0.0341978 20.5475 0.0461477C21.3603 0.0461477 21.9102 0.488293 22.2568 1.20528C22.6154 1.95813 22.998 2.69902 23.3446 3.46381C23.4761 3.76256 23.6793 3.87011 23.9781 3.9179C24.8388 4.02545 25.6875 4.1569 26.5481 4.28835C27.2892 4.3959 27.8152 4.8022 28.0542 5.51919C28.2933 6.23618 28.114 6.86952 27.588 7.40727C26.9545 8.04061 26.309 8.662 25.6875 9.3073C25.5679 9.43874 25.4843 9.66579 25.4962 9.84504C25.6038 10.7054 25.7472 11.5539 25.8787 12.4143C25.9982 13.191 25.8309 13.8721 25.1615 14.3501C24.4921 14.8281 23.7988 14.7923 23.0936 14.4099C22.3525 14.0155 21.6114 13.6331 20.8822 13.2388C20.6431 13.1074 20.4519 13.0835 20.1889 13.2269C19.4 13.657 18.6111 14.0633 17.7982 14.4577C17.4994 14.5772 17.1767 14.6369 16.8778 14.7445ZM14.7023 5.85378C14.8816 6.08083 15.0012 6.28398 15.1566 6.43933C15.8499 7.13242 16.5551 7.82551 17.2723 8.50665C17.595 8.81735 17.6907 9.1639 17.607 9.59409C17.4157 10.6098 17.2484 11.6256 17.0691 12.6413C17.0452 12.7489 17.081 12.8684 17.093 12.9759C17.2125 12.964 17.356 12.9759 17.4516 12.9162C18.384 12.4382 19.3163 11.9602 20.2248 11.4583C20.6192 11.2432 20.9659 11.2432 21.3603 11.4583C22.2329 11.9363 23.1294 12.4023 24.014 12.8564C24.1455 12.9281 24.3128 12.952 24.4682 12.9998C24.4802 12.8325 24.5399 12.6533 24.516 12.4979C24.3606 11.5658 24.2052 10.6457 24.014 9.72554C23.9064 9.19975 24.014 8.7815 24.4324 8.39911C25.1257 7.76576 25.795 7.09657 26.4525 6.42738C26.572 6.30788 26.6318 6.14058 26.7274 5.99718C26.572 5.92548 26.4166 5.82988 26.2612 5.80598C25.2571 5.65064 24.2531 5.49529 23.249 5.36384C22.8306 5.31604 22.5796 5.10094 22.3883 4.74245C21.9341 3.83426 21.456 2.93802 20.9898 2.04178C20.9181 1.89838 20.7746 1.77888 20.6671 1.65938C20.5595 1.79083 20.428 1.91033 20.3563 2.06568C19.8781 2.96192 19.412 3.85816 18.9577 4.76635C18.7784 5.13679 18.5154 5.31604 18.0851 5.36384C16.9854 5.50724 15.8857 5.68649 14.7023 5.85378Z" stroke="white" stroke-width="0.2" mask="url(#path-1-inside-1_2048_469)"/>
<path d="M37.4615 19.3093C37.1866 19.2137 36.8877 19.154 36.6248 19.0225C35.9793 18.7118 35.3577 18.3533 34.7122 18.0427C34.5688 17.971 34.3417 17.971 34.1982 18.0427C33.5647 18.3414 32.9431 18.676 32.3335 19.0106C31.688 19.3571 31.0426 19.381 30.4449 18.9389C29.8472 18.4967 29.6679 17.8873 29.8233 17.1464C29.9548 16.4892 30.0863 15.8319 30.17 15.1627C30.1939 14.9835 30.1102 14.7206 29.9787 14.5891C29.4886 14.0633 28.9627 13.5734 28.4487 13.0715C27.9347 12.5696 27.7315 11.9721 27.9825 11.279C28.2216 10.6098 28.7475 10.2752 29.4408 10.1916C30.1222 10.1079 30.8035 9.98844 31.4848 9.90479C31.7478 9.86894 31.9032 9.74944 32.0108 9.51044C32.2977 8.901 32.5965 8.30351 32.9073 7.70601C33.23 7.06072 33.7679 6.71417 34.4851 6.71417C35.1904 6.72612 35.7044 7.07267 36.0271 7.69406C36.3259 8.29156 36.6367 8.88905 36.9117 9.49849C37.0312 9.77334 37.2105 9.86894 37.4854 9.90479C38.1548 9.98844 38.8122 10.096 39.4816 10.1796C40.1749 10.2752 40.6889 10.6098 40.916 11.291C41.1551 11.9841 40.9638 12.5816 40.4498 13.0835C39.9598 13.5614 39.4816 14.0633 38.9796 14.5294C38.7525 14.7445 38.6927 14.9476 38.7525 15.2344C38.884 15.9395 39.0154 16.6445 39.123 17.3496C39.2665 18.3892 38.5134 19.2615 37.4615 19.3093ZM39.2187 11.8646C38.4656 11.7331 37.6767 11.5539 36.8758 11.4822C36.1825 11.4224 35.812 11.0998 35.549 10.4903C35.2382 9.76139 34.8437 9.0683 34.4612 8.29156C34.1146 8.9727 33.744 9.57019 33.505 10.2035C33.1583 11.1595 32.5128 11.518 31.5326 11.5539C30.8991 11.5778 30.2656 11.7331 29.5245 11.8407C30.1461 12.4621 30.672 13.0357 31.2577 13.5375C31.8793 14.0633 32.0825 14.625 31.8315 15.4256C31.6163 16.0948 31.5446 16.8118 31.3892 17.5886C32.214 17.1823 32.9671 16.8477 33.6723 16.4414C34.2222 16.1307 34.6883 16.1426 35.2143 16.4533C35.9195 16.8596 36.6606 17.2181 37.4376 17.6244C37.2942 16.7282 37.1866 15.9036 37.0192 15.091C36.9117 14.5294 37.0192 14.0992 37.4496 13.6929C38.095 13.1193 38.6329 12.486 39.2187 11.8646Z" stroke="white" stroke-width="0.2" mask="url(#path-1-inside-1_2048_469)"/>
<path d="M9.59825 19.3213C9.31137 19.2257 9.00058 19.142 8.72565 19.0106C8.10408 18.7118 7.49446 18.3892 6.90874 18.0546C6.66968 17.9232 6.49038 17.9351 6.25131 18.0665C5.65364 18.4011 5.03207 18.7118 4.4344 19.0225C3.80087 19.3571 3.16734 19.3691 2.58163 18.9389C1.99591 18.5087 1.79271 17.9232 1.93615 17.2062C2.06763 16.537 2.19912 15.8558 2.28279 15.1747C2.3067 14.9835 2.22303 14.7325 2.10349 14.6011C1.61341 14.0753 1.08746 13.5853 0.573466 13.0835C0.0594714 12.5816 -0.143736 11.9841 0.107285 11.291C0.346352 10.6218 0.860346 10.2872 1.56559 10.1916C2.24694 10.1079 2.92828 9.98844 3.60962 9.90479C3.87259 9.86894 4.02798 9.76139 4.14752 9.51044C4.41049 8.93685 4.70933 8.38716 4.9723 7.82551C5.29504 7.12047 5.82099 6.70222 6.60991 6.71417C7.39883 6.71417 7.91282 7.14437 8.23557 7.84941C8.49854 8.39911 8.79737 8.93685 9.03644 9.49849C9.15597 9.76139 9.32332 9.88089 9.59825 9.91674C10.2796 10.0004 10.9609 10.1079 11.6423 10.2035C12.3356 10.2991 12.8496 10.6457 13.0767 11.3149C13.3157 11.996 13.1245 12.5816 12.6224 13.0715C12.1085 13.5734 11.6064 14.0872 11.0805 14.5652C10.8653 14.7684 10.8294 14.9715 10.8773 15.2344C11.0087 15.9395 11.1402 16.6445 11.2598 17.3496C11.4152 18.3653 10.6501 19.2615 9.59825 19.3213ZM1.67317 11.8287C2.40233 12.5457 3.03586 13.2149 3.70524 13.8482C4.05189 14.1828 4.17142 14.5294 4.05189 15.0074C3.86064 15.8319 3.7172 16.6684 3.5379 17.5766C4.08775 17.3018 4.56589 17.0508 5.04402 16.8238C6.87288 15.9514 6.26326 15.8917 8.12799 16.8477C8.59417 17.0867 9.06035 17.3257 9.58629 17.6005C9.4309 16.6565 9.31137 15.7961 9.14402 14.9476C9.06035 14.4577 9.15597 14.0753 9.52653 13.7407C9.98075 13.3344 10.3991 12.8923 10.8414 12.4621C11.0207 12.2828 11.2239 12.1155 11.4988 11.8646C10.5067 11.6973 9.68192 11.5419 8.83323 11.4344C8.29533 11.3746 7.97259 11.1356 7.74548 10.6457C7.38688 9.85699 6.98046 9.10415 6.57405 8.26766C6.13177 9.14 5.70145 9.94064 5.30699 10.7652C5.11574 11.1715 4.81691 11.3627 4.37463 11.4224C3.52594 11.5539 2.65335 11.6853 1.67317 11.8287Z" stroke="white" stroke-width="0.2" mask="url(#path-1-inside-1_2048_469)"/>
</g>
<defs>
<clipPath id="clip0_2048_469">
<rect width="41" height="41" fill="white" transform="translate(0 0.0341797)"/>
</clipPath>
</defs>
</svg>
