<svg width="40" height="41" viewBox="0 0 40 41" fill="none" xmlns="http://www.w3.org/2000/svg">
<g clip-path="url(#clip0_2048_448)">
<path d="M20.3913 0.0341797C21.1023 0.260742 21.7195 0.604492 22.0788 1.30762C22.6882 2.49512 22.1882 3.93262 20.9695 4.50293C19.7742 5.05762 18.3054 4.46387 17.8288 3.2373C17.3445 1.97949 17.9929 0.59668 19.2507 0.174805C19.3757 0.135742 19.4929 0.0810547 19.6101 0.0341797C19.8679 0.0341797 20.1335 0.0341797 20.3913 0.0341797ZM20.0085 3.15137C20.4148 3.15137 20.782 2.77637 20.782 2.37012C20.782 1.96387 20.407 1.59668 20.0007 1.59668C19.5945 1.59668 19.2273 1.97168 19.2273 2.37793C19.2273 2.79199 19.5945 3.15918 20.0085 3.15137Z" fill="#014898"/>
<path d="M0 19.6436C0.226563 18.9326 0.570312 18.3155 1.27344 17.9561C2.46094 17.3467 3.89844 17.8467 4.46875 19.0655C5.02344 20.2608 4.42969 21.7295 3.20312 22.2061C1.94531 22.6905 0.5625 22.042 0.140625 20.7842C0.09375 20.6592 0.046875 20.542 0 20.4248C0 20.167 0 19.9014 0 19.6436ZM2.34375 20.8076C2.75 20.8076 3.11719 20.4405 3.11719 20.0342C3.11719 19.628 2.75 19.2608 2.34375 19.2608C1.9375 19.2608 1.57031 19.628 1.57031 20.0342C1.57031 20.4405 1.9375 20.8076 2.34375 20.8076Z" fill="#014898"/>
<path d="M39.9999 20.425C39.7733 21.136 39.4296 21.7532 38.7264 22.1125C37.5389 22.7219 36.1014 22.2219 35.5311 21.0032C34.9764 19.8078 35.5702 18.3391 36.7968 17.8625C38.0546 17.3782 39.4374 18.0266 39.8593 19.2844C39.8983 19.4094 39.953 19.5266 39.9999 19.6438C39.9999 19.9016 39.9999 20.1672 39.9999 20.425ZM37.6405 19.261C37.2342 19.2688 36.8671 19.6438 36.8749 20.05C36.8827 20.4641 37.2577 20.8235 37.6639 20.8157C38.0702 20.8078 38.4374 20.4328 38.4296 20.0266C38.4217 19.6125 38.0467 19.2532 37.6405 19.261Z" fill="#014898"/>
<path d="M19.6094 40.0341C18.8985 39.8075 18.2813 39.4637 17.9219 38.7606C17.3125 37.5731 17.8125 36.1356 19.0313 35.5653C20.2266 35.0106 21.6953 35.6044 22.1719 36.8309C22.6563 38.0887 22.0078 39.4716 20.75 39.8934C20.625 39.9325 20.5078 39.9872 20.3906 40.0341C20.1328 40.0341 19.8672 40.0341 19.6094 40.0341ZM19.9922 38.4637C20.3985 38.4716 20.7735 38.1044 20.7735 37.6981C20.7813 37.2919 20.4141 36.9169 20.0078 36.9169C19.6016 36.9091 19.2266 37.2762 19.2266 37.6825C19.2188 38.0887 19.586 38.4637 19.9922 38.4637Z" fill="#014898"/>
<path d="M33.515 20.417C33.3978 24.5186 31.5697 28.1279 27.9916 30.8154C25.2416 32.8857 22.1244 33.8232 18.6869 33.4561C14.7962 33.042 11.6791 31.1982 9.2728 28.1357C8.16343 26.7295 7.3978 25.1436 6.92905 23.417C6.76499 22.792 7.19468 22.2686 7.78843 22.3701C8.15561 22.4326 8.32749 22.6904 8.43686 23.0186C8.67124 23.6826 8.85874 24.3623 9.17124 24.9873C10.9916 28.6592 13.9056 30.9717 17.9369 31.7686C20.6947 32.3154 23.3275 31.8076 25.765 30.417C28.4056 28.9092 30.2728 26.7139 31.2806 23.8311C32.2962 20.9404 32.1634 18.0654 30.9212 15.2764C29.6869 12.5107 27.6712 10.4561 24.9212 9.18262C21.64 7.66699 18.3119 7.65137 15.0384 9.19824C11.7259 10.7686 9.53061 13.3467 8.47593 16.8779C8.44468 16.9795 8.41343 17.0732 8.37436 17.167C8.19468 17.5889 7.78843 17.7764 7.3978 17.6357C7.01499 17.5029 6.78843 17.1045 6.91343 16.6904C7.13999 15.9717 7.35093 15.2373 7.67124 14.5654C9.51499 10.6982 12.4994 8.11231 16.6322 6.97168C20.1791 5.98731 23.5775 6.51856 26.7416 8.38574C29.7025 10.1357 31.7259 12.667 32.8509 15.917C33.2259 17.0264 33.515 18.7686 33.515 20.417Z" fill="#014898"/>
<path d="M19.3049 19.253C16.6721 18.5655 15.8908 16.3233 16.133 14.8311C16.4611 12.8076 18.1096 11.4092 20.0861 11.4405C22.0002 11.4717 23.6486 12.9717 23.8752 14.9326C24.0705 16.5889 23.1018 18.6436 20.6174 19.2139C21.2346 19.253 21.7971 19.253 22.3439 19.3233C24.9064 19.667 26.9064 21.8701 27.008 24.4561C27.0314 24.9795 27.0158 25.4951 27.0158 26.0186C27.0158 26.792 26.7502 27.0576 25.9846 27.0576C22.1721 27.0576 18.3596 27.0576 14.5393 27.0576C14.2814 27.0576 14.0158 27.0655 13.758 27.0498C13.3205 27.0264 12.9924 26.7842 12.9768 26.378C12.9221 25.0264 12.8361 23.667 13.4768 22.4014C14.4846 20.4014 16.1174 19.3545 18.3596 19.253C18.5158 19.2451 18.6721 19.253 18.8283 19.253C19.0002 19.253 19.1486 19.253 19.3049 19.253ZM25.4299 25.4951C25.5393 24.5889 25.4064 23.6826 25.0705 23.0342C24.2971 21.5576 23.0705 20.8311 21.4143 20.8155C20.5002 20.8076 19.5939 20.7842 18.6799 20.8233C18.1564 20.8467 17.6174 20.917 17.1096 21.0655C15.3752 21.5967 14.1877 23.6983 14.5783 25.4639C15.0783 25.4639 15.5783 25.4639 16.0861 25.4639C16.0861 25.003 16.0861 24.5733 16.0861 24.1436C16.0861 24.003 16.0939 23.8545 16.133 23.7217C16.2346 23.3623 16.5783 23.128 16.9221 23.1592C17.3205 23.1983 17.6174 23.503 17.6408 23.9561C17.6564 24.4561 17.6486 24.9639 17.6486 25.4717C19.2346 25.4717 20.7736 25.4717 22.3439 25.4717C22.3439 24.9405 22.3283 24.4326 22.3518 23.9248C22.3674 23.4873 22.6955 23.1748 23.0939 23.1592C23.4846 23.1436 23.8361 23.4405 23.8908 23.8623C23.9142 24.0264 23.9064 24.1983 23.9064 24.3701C23.9064 24.7451 23.9064 25.1123 23.9064 25.4873C24.4455 25.4951 24.9299 25.4951 25.4299 25.4951ZM20.0002 13.003C18.7268 13.003 17.6643 14.0576 17.6564 15.3311C17.6486 16.6045 18.7033 17.667 19.9768 17.6826C21.258 17.6983 22.3439 16.6201 22.3361 15.3311C22.3361 14.0655 21.2736 13.003 20.0002 13.003Z" fill="#014898"/>
<path d="M36.9148 16.1511C36.5945 16.1433 36.3757 15.8933 36.2429 15.534C35.9226 14.698 35.6648 13.8308 35.2664 13.034C33.032 8.54958 29.5554 5.46365 24.782 3.87771C24.6336 3.83084 24.4851 3.78396 24.3445 3.72146C23.9461 3.53396 23.782 3.14334 23.9226 2.7449C24.0554 2.38552 24.4382 2.15115 24.8367 2.27615C25.6179 2.52615 26.407 2.76052 27.1492 3.10427C31.9773 5.35427 35.407 8.9324 37.3523 13.909C37.5164 14.3308 37.657 14.7683 37.7664 15.2058C37.8836 15.7293 37.5242 16.1511 36.9148 16.1511Z" fill="#014898"/>
<path d="M3.07059 23.9171C3.42215 23.9327 3.62527 24.1983 3.7659 24.5733C4.07059 25.4015 4.33621 26.253 4.72684 27.0343C6.96121 31.503 10.4221 34.589 15.18 36.1749C15.305 36.214 15.43 36.2452 15.555 36.2921C16.0159 36.4796 16.219 36.8624 16.0862 37.2843C15.9612 37.6905 15.5471 37.9171 15.0784 37.7687C14.3362 37.5265 13.5862 37.2999 12.8831 36.9718C8.00809 34.7218 4.56277 31.1046 2.61746 26.0812C2.46121 25.6827 2.33621 25.2687 2.23465 24.8546C2.11746 24.339 2.48465 23.9093 3.07059 23.9171Z" fill="#014898"/>
<path d="M2.93753 16.1513C2.4141 16.1279 2.07816 15.667 2.25785 15.1279C2.54691 14.2529 2.83597 13.3701 3.23441 12.542C5.13285 8.64352 7.96879 5.63571 11.8047 3.58102C11.9219 3.51852 12.0391 3.47165 12.1641 3.43258C12.5078 3.33102 12.8516 3.47946 13.0313 3.79196C13.2032 4.09665 13.1485 4.48727 12.8907 4.72165C12.7657 4.83102 12.6172 4.91696 12.4688 4.99508C8.2266 7.33883 5.30472 10.7763 3.79691 15.3935C3.61722 15.956 3.36722 16.167 2.93753 16.1513Z" fill="#014898"/>
<path d="M37.0622 23.9168C37.5857 23.9403 37.9216 24.3934 37.7419 24.9403C37.4528 25.8153 37.1638 26.6981 36.7653 27.5262C34.8669 31.4246 32.031 34.4324 28.2028 36.4871C28.0857 36.5496 27.9685 36.5965 27.8435 36.6356C27.4997 36.7371 27.156 36.5887 26.9763 36.2762C26.8044 35.9715 26.8513 35.5809 27.1169 35.3465C27.2419 35.2371 27.3903 35.1512 27.5388 35.0653C31.781 32.7215 34.7028 29.284 36.2107 24.6668C36.3825 24.1121 36.6325 23.9012 37.0622 23.9168Z" fill="#014898"/>
</g>
<defs>
<clipPath id="clip0_2048_448">
<rect width="40" height="40" fill="white" transform="translate(0 0.0341797)"/>
</clipPath>
</defs>
</svg>
