<svg width="57" height="45" viewBox="0 0 57 45" fill="none" xmlns="http://www.w3.org/2000/svg">
<path d="M46.1773 8.67025H2.96388V9.30678C2.96388 16.91 2.96388 24.5117 2.96388 32.1149C2.96388 33.2109 3.25075 33.4901 4.37531 33.4901C14.8701 33.4901 25.3632 33.4901 35.858 33.4901C36.8629 33.4901 37.3284 33.7916 37.3333 34.4409C37.3366 35.0902 36.8629 35.4013 35.8678 35.4013C25.3534 35.4013 14.8389 35.4013 4.32449 35.4013C2.1639 35.3997 1 34.2606 1 32.1452C1 22.851 1 13.5567 1 4.26241C1 2.11672 2.1557 1 4.37531 1C17.8356 1 31.2958 1 44.7561 1C47.0035 1 48.1412 2.11353 48.1412 4.31346C48.1412 7.18023 48.1412 10.0454 48.1412 12.9122C48.1412 13.0717 48.1478 13.2312 48.1379 13.3892C48.0986 13.9842 47.6806 14.391 47.1298 14.3735C46.6003 14.3575 46.1954 13.9651 46.1855 13.3924C46.1659 12.298 46.179 11.2036 46.179 10.1092C46.179 9.65296 46.179 9.19511 46.179 8.67185L46.1773 8.67025ZM2.96715 6.69526H46.1265C46.1495 6.62028 46.1691 6.58359 46.1691 6.54689C46.1741 5.81146 46.1773 5.07442 46.1773 4.33898C46.1773 3.16803 45.9118 2.91118 44.6987 2.91118C31.2827 2.91118 17.8683 2.91118 4.45236 2.91118C4.28843 2.91118 4.1245 2.90321 3.96221 2.91437C3.37534 2.95426 2.9901 3.29087 2.97535 3.85242C2.95076 4.78408 2.96879 5.71733 2.96879 6.69526H2.96715Z" fill="#014898"/>
<path d="M38.3202 29.6677C38.3202 25.9475 38.3202 22.2256 38.3202 18.5053C38.3202 16.4889 39.5152 15.3355 41.6037 15.3355C45.3052 15.3355 49.0068 15.3355 52.7083 15.3355C54.7968 15.3355 55.9951 16.4889 55.9967 18.5037C55.9967 25.9459 55.9967 33.388 55.9967 40.8301C55.9967 42.845 54.7968 44.0016 52.7116 44.0016C49.01 44.0016 45.3085 44.0016 41.607 44.0016C39.5021 44.0016 38.3202 42.8402 38.3202 40.7727C38.3202 37.0716 38.3202 33.3704 38.3202 29.6693V29.6677ZM54.0345 29.6661C54.0345 25.9634 54.0345 22.2607 54.0345 18.5596C54.0345 17.545 53.7263 17.2466 52.6837 17.2466C49.0018 17.2466 45.3183 17.2466 41.6365 17.2466C40.5939 17.2466 40.2873 17.545 40.2873 18.5612C40.2873 25.9666 40.2873 33.3704 40.2873 40.7759C40.2873 41.7905 40.5955 42.0904 41.6381 42.0904C45.32 42.0904 49.0035 42.0904 52.6853 42.0904C53.7263 42.0904 54.0361 41.7889 54.0361 40.7743C54.0361 37.0716 54.0361 33.3689 54.0361 29.6677L54.0345 29.6661Z" fill="#014898"/>
<path d="M32.8712 5.77157C32.7073 5.77157 32.5433 5.78593 32.381 5.76998C31.8368 5.71733 31.4597 5.33127 31.4516 4.83513C31.4434 4.34058 31.8155 3.9242 32.3532 3.87954C32.7187 3.84922 33.0892 3.85082 33.4564 3.87794C34.0007 3.91782 34.3793 4.31506 34.3875 4.8096C34.3957 5.30255 34.0203 5.71095 33.4843 5.76838C33.2826 5.79072 33.0761 5.77157 32.8712 5.77317V5.77157Z" fill="#014898"/>
<path d="M37.7923 5.76998C37.6087 5.76998 37.4202 5.79391 37.2415 5.76519C36.712 5.68064 36.4006 5.37115 36.3662 4.8447C36.335 4.35334 36.7219 3.93059 37.2547 3.87954C37.5792 3.84922 37.9087 3.8588 38.235 3.86996C38.8661 3.8907 39.2841 4.26241 39.2972 4.79843C39.312 5.35679 38.8792 5.75083 38.2202 5.77636C38.0776 5.78115 37.9333 5.77636 37.7907 5.77636C37.7907 5.77317 37.7907 5.77157 37.7907 5.76838L37.7923 5.76998Z" fill="#014898"/>
<path d="M42.6988 5.76998C42.5152 5.76998 42.3266 5.79391 42.148 5.76519C41.6201 5.67905 41.307 5.36796 41.2758 4.84151C41.2463 4.35015 41.6332 3.92899 42.1676 3.87954C42.4922 3.84922 42.8217 3.8588 43.1479 3.86996C43.7774 3.8907 44.1954 4.2656 44.2069 4.80162C44.22 5.36158 43.7889 5.75083 43.1266 5.77636C42.984 5.78115 42.8397 5.77636 42.6971 5.77636C42.6971 5.77317 42.6971 5.77157 42.6971 5.76838L42.6988 5.76998Z" fill="#014898"/>
<path d="M46.2396 30.2277C46.8527 29.6071 47.4445 29.0057 48.0396 28.4074C48.1822 28.2655 48.3232 28.1187 48.4838 27.9974C48.9297 27.6592 49.4494 27.68 49.8166 28.0373C50.1838 28.3963 50.2362 28.9339 49.8494 29.3279C48.874 30.3202 47.8773 31.2918 46.8593 32.2426C46.4528 32.6222 45.8429 32.6222 45.4774 32.2075C44.961 31.622 43.8873 31.2694 44.3479 30.1926C44.6397 29.5098 45.3561 29.5114 46.2396 30.2277Z" fill="#014898"/>
<path d="M47.1658 39.2284C47.5134 39.2284 47.8625 39.2045 48.2084 39.2332C48.7478 39.2779 49.1232 39.6879 49.1199 40.1824C49.1166 40.6786 48.7396 41.0949 48.197 41.1189C47.5035 41.1508 46.8052 41.1508 46.1134 41.1189C45.5741 41.0933 45.2003 40.6674 45.2036 40.1713C45.2069 39.6751 45.5839 39.289 46.1249 39.2284C46.1659 39.2236 46.2069 39.2236 46.2478 39.2236C46.5544 39.2236 46.8609 39.2236 47.1675 39.2236V39.2284H47.1658Z" fill="#014898"/>
<path d="M46.1773 8.67025H2.96388V9.30678C2.96388 16.91 2.96388 24.5117 2.96388 32.1149C2.96388 33.2109 3.25075 33.4901 4.37531 33.4901C14.8701 33.4901 25.3632 33.4901 35.858 33.4901C36.8629 33.4901 37.3284 33.7916 37.3333 34.4409C37.3366 35.0902 36.8629 35.4013 35.8678 35.4013C25.3534 35.4013 14.8389 35.4013 4.32449 35.4013C2.1639 35.3997 1 34.2606 1 32.1452C1 22.851 1 13.5567 1 4.26241C1 2.11672 2.1557 1 4.37531 1C17.8356 1 31.2958 1 44.7561 1C47.0035 1 48.1412 2.11353 48.1412 4.31346C48.1412 7.18023 48.1412 10.0454 48.1412 12.9122C48.1412 13.0717 48.1478 13.2312 48.1379 13.3892C48.0986 13.9842 47.6806 14.391 47.1298 14.3735C46.6003 14.3575 46.1954 13.9651 46.1855 13.3924C46.1659 12.298 46.179 11.2036 46.179 10.1092C46.179 9.65296 46.179 9.19511 46.179 8.67185L46.1773 8.67025ZM2.96715 6.69526H46.1265C46.1495 6.62028 46.1691 6.58359 46.1691 6.54689C46.1741 5.81146 46.1773 5.07442 46.1773 4.33898C46.1773 3.16803 45.9118 2.91118 44.6987 2.91118C31.2827 2.91118 17.8683 2.91118 4.45236 2.91118C4.28843 2.91118 4.1245 2.90321 3.96221 2.91437C3.37534 2.95426 2.9901 3.29087 2.97535 3.85242C2.95076 4.78408 2.96879 5.71733 2.96879 6.69526H2.96715Z" stroke="white" stroke-width="0.3"/>
<path d="M38.3202 29.6677C38.3202 25.9475 38.3202 22.2256 38.3202 18.5053C38.3202 16.4889 39.5152 15.3355 41.6037 15.3355C45.3052 15.3355 49.0068 15.3355 52.7083 15.3355C54.7968 15.3355 55.9951 16.4889 55.9967 18.5037C55.9967 25.9459 55.9967 33.388 55.9967 40.8301C55.9967 42.845 54.7968 44.0016 52.7116 44.0016C49.01 44.0016 45.3085 44.0016 41.607 44.0016C39.5021 44.0016 38.3202 42.8402 38.3202 40.7727C38.3202 37.0716 38.3202 33.3704 38.3202 29.6693V29.6677ZM54.0345 29.6661C54.0345 25.9634 54.0345 22.2607 54.0345 18.5596C54.0345 17.545 53.7263 17.2466 52.6837 17.2466C49.0018 17.2466 45.3183 17.2466 41.6365 17.2466C40.5939 17.2466 40.2873 17.545 40.2873 18.5612C40.2873 25.9666 40.2873 33.3704 40.2873 40.7759C40.2873 41.7905 40.5955 42.0904 41.6381 42.0904C45.32 42.0904 49.0035 42.0904 52.6853 42.0904C53.7263 42.0904 54.0361 41.7889 54.0361 40.7743C54.0361 37.0716 54.0361 33.3689 54.0361 29.6677L54.0345 29.6661Z" stroke="white" stroke-width="0.3"/>
<path d="M32.8712 5.77157C32.7073 5.77157 32.5433 5.78593 32.381 5.76998C31.8368 5.71733 31.4597 5.33127 31.4516 4.83513C31.4434 4.34058 31.8155 3.9242 32.3532 3.87954C32.7187 3.84922 33.0892 3.85082 33.4564 3.87794C34.0007 3.91782 34.3793 4.31506 34.3875 4.8096C34.3957 5.30255 34.0203 5.71095 33.4843 5.76838C33.2826 5.79072 33.0761 5.77157 32.8712 5.77317V5.77157Z" stroke="white" stroke-width="0.3"/>
<path d="M37.7923 5.76998C37.6087 5.76998 37.4202 5.79391 37.2415 5.76519C36.712 5.68064 36.4006 5.37115 36.3662 4.8447C36.335 4.35334 36.7219 3.93059 37.2547 3.87954C37.5792 3.84922 37.9087 3.8588 38.235 3.86996C38.8661 3.8907 39.2841 4.26241 39.2972 4.79843C39.312 5.35679 38.8792 5.75083 38.2202 5.77636C38.0776 5.78115 37.9333 5.77636 37.7907 5.77636C37.7907 5.77317 37.7907 5.77157 37.7907 5.76838L37.7923 5.76998Z" stroke="white" stroke-width="0.3"/>
<path d="M42.6988 5.76998C42.5152 5.76998 42.3266 5.79391 42.148 5.76519C41.6201 5.67905 41.307 5.36796 41.2758 4.84151C41.2463 4.35015 41.6332 3.92899 42.1676 3.87954C42.4922 3.84922 42.8217 3.8588 43.1479 3.86996C43.7774 3.8907 44.1954 4.2656 44.2069 4.80162C44.22 5.36158 43.7889 5.75083 43.1266 5.77636C42.984 5.78115 42.8397 5.77636 42.6971 5.77636C42.6971 5.77317 42.6971 5.77157 42.6971 5.76838L42.6988 5.76998Z" stroke="white" stroke-width="0.3"/>
<path d="M46.2396 30.2277C46.8527 29.6071 47.4445 29.0057 48.0396 28.4074C48.1822 28.2655 48.3232 28.1187 48.4838 27.9974C48.9297 27.6592 49.4494 27.68 49.8166 28.0373C50.1838 28.3963 50.2362 28.9339 49.8494 29.3279C48.874 30.3202 47.8773 31.2918 46.8593 32.2426C46.4528 32.6222 45.8429 32.6222 45.4774 32.2075C44.961 31.622 43.8873 31.2694 44.3479 30.1926C44.6397 29.5098 45.3561 29.5114 46.2396 30.2277Z" stroke="white" stroke-width="0.3"/>
<path d="M47.1658 39.2284C47.5134 39.2284 47.8625 39.2045 48.2084 39.2332C48.7478 39.2779 49.1232 39.6879 49.1199 40.1824C49.1166 40.6786 48.7396 41.0949 48.197 41.1189C47.5035 41.1508 46.8052 41.1508 46.1134 41.1189C45.5741 41.0933 45.2003 40.6674 45.2036 40.1713C45.2069 39.6751 45.5839 39.289 46.1249 39.2284C46.1659 39.2236 46.2069 39.2236 46.2478 39.2236C46.5544 39.2236 46.8609 39.2236 47.1675 39.2236V39.2284H47.1658Z" stroke="white" stroke-width="0.3"/>
</svg>
