<svg width="41" height="41" viewBox="0 0 41 41" fill="none" xmlns="http://www.w3.org/2000/svg">
<g clip-path="url(#clip0_2171_5661)">
<path d="M36.2734 40.0023C35.1359 39.85 34.3336 39.1594 33.5617 38.3773C31.175 35.9703 28.768 33.5836 26.3812 31.1766C26.1578 30.9531 25.9953 30.9023 25.7109 31.0852C24.0453 32.1414 22.2273 32.8422 20.2875 33.1977C17.4539 33.7258 14.6508 33.5328 11.9187 32.5781C9.2375 31.6437 6.9625 30.1102 5.07344 27.9875C3.18437 25.8547 1.93516 23.3969 1.34609 20.6039C1.21406 19.9742 1.15312 19.3242 1.06172 18.6844C1.04141 18.5523 1.01094 18.4102 0.980469 18.2781C0.980469 17.618 0.980469 16.9578 0.980469 16.2977C1.00078 16.2063 1.04141 16.1047 1.05156 16.0133C1.21406 13.6672 1.85391 11.443 3.01172 9.39141C5.51016 4.99375 9.25781 2.28203 14.2242 1.28672C14.8844 1.15469 15.5445 1.08359 16.2148 0.992188C16.8242 0.992188 17.4336 0.992188 18.043 0.992188C18.6219 1.06328 19.2008 1.12422 19.7695 1.21562C23.8727 1.89609 27.2445 3.83594 29.875 7.05547C29.9461 7.14687 30.0375 7.22812 30.1289 7.33984C30.4539 7.01484 30.7383 6.71016 31.043 6.42578C31.2156 6.27344 31.2156 6.14141 31.1242 5.93828C30.5555 4.61797 31.1648 3.08437 32.4953 2.52578C33.8461 1.95703 35.3695 2.60703 35.9078 3.98828C35.9992 4.22187 36.1211 4.28281 36.3547 4.28281C37.5734 4.27266 38.7922 4.28281 40.0109 4.29297C40.0109 4.72969 40.0109 5.15625 40.0109 5.59297C38.7719 5.59297 37.5227 5.59297 36.2836 5.58281C36.0906 5.58281 35.9992 5.64375 35.9281 5.82656C35.3492 7.29922 33.8867 7.87812 32.4039 7.26875C32.3125 7.22812 32.15 7.23828 32.0789 7.29922C31.6727 7.66484 31.2969 8.05078 30.9008 8.43672C31.0633 8.72109 31.2156 8.95469 31.3477 9.19844C32.8 11.7172 33.5211 14.4391 33.5109 17.3336C33.5008 20.35 32.7086 23.1633 31.1039 25.743C30.9414 26.007 30.9516 26.1492 31.175 26.3727C33.6023 28.7797 35.9992 31.207 38.4266 33.6039C39.1781 34.3453 39.8383 35.1273 40.0109 36.2141C40.0109 36.468 40.0109 36.7219 40.0109 36.9758C39.9906 37.057 39.9602 37.1383 39.95 37.2297C39.7773 38.0828 39.3508 38.7734 38.6602 39.3219C38.1625 39.718 37.5633 39.8805 36.9641 40.0328C36.7305 40.0023 36.4969 40.0023 36.2734 40.0023ZM32.2008 17.2117C32.1398 8.83281 25.3859 2.10938 16.9055 2.28203C8.78047 2.44453 2.11797 9.09688 2.29062 17.5672C2.44297 25.6313 9.02422 32.3344 17.5453 32.182C25.6703 32.0297 32.15 25.4688 32.2008 17.2117ZM32.9422 29.9477C31.9266 30.9531 30.9516 31.9383 29.9664 32.9133C31.6727 34.6195 33.3992 36.3664 35.1461 38.1031C35.268 38.225 35.4203 38.3367 35.5727 38.418C36.4969 38.9461 37.6039 38.7328 38.2742 37.8898C38.9344 37.057 38.8937 35.9094 38.0812 35.0867C36.3648 33.35 34.618 31.6336 32.9422 29.9477ZM29.0117 31.8977C29.9766 30.943 30.9617 29.9781 31.9266 29.0234C31.2766 28.3836 30.6977 27.7945 30.1187 27.2258C29.6719 27.7133 29.2148 28.2414 28.7172 28.7289C28.2297 29.2164 27.7016 29.6734 27.2242 30.1102C27.8133 30.6992 28.4023 31.2781 29.0117 31.8977ZM33.4805 6.19219C34.2016 6.20234 34.8008 5.62344 34.8008 4.90234C34.8008 4.21172 34.2219 3.62266 33.5211 3.60234C32.8102 3.59219 32.2109 4.18125 32.2109 4.90234C32.2109 5.62344 32.7695 6.19219 33.4805 6.19219Z" fill="#014898"/>
<path d="M3.60938 17.2547C3.68047 9.68828 9.64219 3.625 17.2492 3.625C24.8969 3.625 30.8992 9.72891 30.8891 17.275C30.8891 24.8414 24.7344 30.925 17.2492 30.8945C9.70313 30.8539 3.68047 24.8617 3.60938 17.2547ZM5.00078 15.9547C4.43203 21.2766 7.31641 26.4562 12.4656 28.6297C17.6047 30.8031 23.4953 29.2797 26.9586 24.882C30.3203 20.6164 30.2188 15.0203 28.0047 11.3133C27.6289 11.6992 27.2633 12.0852 26.8773 12.4508C26.6945 12.6234 26.6539 12.7453 26.7656 12.9992C27.3953 14.4008 26.6438 16.0258 25.1711 16.4828C24.4398 16.7164 23.7492 16.6047 23.0688 16.2492C21.6977 17.6203 20.3469 18.9711 19.0063 20.3422C18.9352 20.4133 18.9352 20.6062 18.9555 20.7281C19.0164 21.1648 19.1992 21.6016 19.1688 22.018C19.0875 23.1047 18.5086 23.8664 17.4727 24.2422C16.4266 24.618 15.4719 24.3844 14.7203 23.582C13.9586 22.7695 13.8063 21.8047 14.2227 20.7586C14.2734 20.6367 14.2633 20.4234 14.182 20.3422C13.3188 19.4484 12.4352 18.575 11.5516 17.7016C11.4906 17.6406 11.3078 17.6 11.2367 17.6406C9.84531 18.3719 8.09844 17.5594 7.66172 16.168C7.63125 16.0867 7.51953 15.9648 7.43828 15.9648C6.63594 15.9445 5.83359 15.9547 5.00078 15.9547ZM27.3242 10.1758C24.8461 6.51953 19.8086 3.90938 14.2531 5.29063C9.24609 6.53984 5.95547 10.6836 5.24453 14.6344C6.02656 14.6344 6.81875 14.6344 7.59063 14.6344C8.18984 12.8672 9.84531 12.4203 11.0844 12.8977C12.5063 13.4563 12.9938 14.8883 12.3641 16.6453C13.2883 17.5695 14.2227 18.5039 15.1672 19.4281C15.2383 19.4992 15.4414 19.4789 15.5531 19.4281C16.2438 19.1336 16.9344 19.1133 17.6148 19.4281C17.8586 19.5398 17.9906 19.4992 18.1633 19.3266C19.3516 18.1281 20.5398 16.9297 21.7484 15.7414C21.8906 15.5992 22.0734 15.4977 22.2359 15.3758C22.175 15.3453 22.1141 15.325 22.0531 15.2945C21.9719 14.807 21.8094 14.3094 21.8398 13.8219C21.9617 11.9125 23.9523 10.8867 25.5367 11.6687C25.618 11.7094 25.7906 11.6891 25.8516 11.6281C26.3492 11.1609 26.8266 10.6734 27.3242 10.1758ZM10.1195 14.0148C9.39844 14.0148 8.83984 14.5633 8.81953 15.2742C8.80938 16.0055 9.37813 16.5945 10.0992 16.6047C10.8 16.6148 11.4195 15.9953 11.4094 15.2945C11.4094 14.5937 10.8305 14.025 10.1195 14.0148ZM16.6094 23.0945C17.3305 23.0945 17.9195 22.4953 17.9094 21.7844C17.8992 21.0836 17.3102 20.5047 16.6094 20.5047C15.9086 20.5047 15.3297 21.0836 15.3195 21.7844C15.3094 22.5156 15.8883 23.0945 16.6094 23.0945ZM25.6891 14.0148C25.6891 13.2938 25.1406 12.7352 24.4195 12.725C23.6984 12.7148 23.0992 13.2938 23.0992 14.0148C23.0992 14.7258 23.7086 15.325 24.4195 15.3148C25.1203 15.2945 25.6891 14.7156 25.6891 14.0148Z" fill="#014898"/>
</g>
<defs>
<clipPath id="clip0_2171_5661">
<rect width="41" height="41" fill="white"/>
</clipPath>
</defs>
</svg>
