<svg width="45" height="39" viewBox="0 0 45 39" fill="none" xmlns="http://www.w3.org/2000/svg">
<g id="Frame" clip-path="url(#clip0_2198_3720)">
<g id="Group">
<g id="Vector">
<path d="M35.4643 7.48368C36.1607 7.48368 36.8036 7.47036 37.4464 7.48368C38.0625 7.49699 38.692 7.45705 39.2946 7.57688C41.4643 7.98965 42.9643 9.80051 42.9777 11.9975C42.9911 14.0214 42.9777 16.0586 42.9777 18.0825C42.9777 18.2689 42.9777 18.442 42.9777 18.695C43.3527 18.695 43.7009 18.695 44.0491 18.695C44.6786 18.7083 44.9866 18.9879 44.9866 19.6004C44.9866 22.0105 44.9866 24.4205 44.9866 26.8439C44.9866 27.4564 44.6786 27.7626 44.0625 27.7759C43.7277 27.7892 43.3929 27.7759 42.9777 27.7759C42.9777 27.9623 42.9777 28.1488 42.9777 28.3219C42.9777 30.3058 42.9777 32.2764 42.9777 34.2604C42.9777 37.0433 41.0491 38.9873 38.25 38.9873C27.067 39.0006 15.8839 39.0006 4.71429 38.9873C1.92857 38.9873 0 37.0433 0 34.2737C0 24.2341 0 14.1945 0 4.16821C0 1.74486 1.67411 0.0138926 4.11161 0.0138926C13.2054 0.000577468 22.2857 0.000577468 31.3795 0.0138926C33.7902 0.0138926 35.4509 1.73154 35.4643 4.14158C35.4777 5.23342 35.4643 6.32526 35.4643 7.48368ZM1.60714 8.25596C1.60714 8.53557 1.60714 8.70867 1.60714 8.88177C1.60714 13.7418 1.60714 18.6018 1.60714 23.4618C1.60714 27.0835 1.60714 30.7186 1.60714 34.3403C1.60714 36.1112 2.83929 37.3495 4.62054 37.3895C5.23661 37.4028 5.85268 37.3895 6.48214 37.3895C17.0223 37.3895 27.5759 37.3895 38.1161 37.3895C40.192 37.3895 41.3839 36.2044 41.3839 34.1406C41.3839 32.2232 41.3839 30.3191 41.3839 28.4017C41.3839 28.202 41.3839 28.0156 41.3839 27.7759C40.433 27.7759 39.5223 27.7892 38.625 27.7759C35.5179 27.7094 33.4955 25.1795 34.1518 22.1569C34.5937 20.1064 36.3214 18.735 38.5446 18.695C39.4821 18.6817 40.4062 18.695 41.3438 18.695C41.3705 18.6018 41.3839 18.5485 41.3839 18.5086C41.3839 16.2983 41.3973 14.088 41.3705 11.8644C41.3705 11.1054 41.0357 10.453 40.4866 9.90703C39.8304 9.25459 39.0134 9.06818 38.1027 9.06818C27.1205 9.08149 16.1384 9.06818 5.15625 9.08149C3.9375 9.09481 2.71875 9.10812 1.60714 8.25596ZM33.8571 7.48368C33.8571 6.83124 33.8571 6.24537 33.8571 5.64619C33.8571 5.10027 33.8705 4.55435 33.8571 3.99512C33.8304 2.63697 32.8527 1.61171 31.4866 1.59839C22.3125 1.58508 13.1384 1.59839 3.97768 1.59839C3.95089 1.59839 3.91071 1.59839 3.88393 1.59839C2.66518 1.66497 1.6875 2.63697 1.63393 3.86196C1.62054 4.08832 1.66071 4.32799 1.62054 4.55435C1.36607 6.03233 2.49107 7.48368 4.40625 7.48368C14.0357 7.45705 23.6518 7.47036 33.2812 7.47036C33.442 7.48368 33.6161 7.48368 33.8571 7.48368ZM43.3661 20.3061C41.7857 20.3061 40.2321 20.3061 38.6786 20.3061C38.5179 20.3061 38.3438 20.3061 38.183 20.3195C36.7232 20.5059 35.6384 21.7042 35.5848 23.1689C35.5313 24.5537 36.5357 25.8319 37.942 26.0982C38.4643 26.1914 39 26.1781 39.5357 26.1781C40.7946 26.1914 42.067 26.1781 43.3527 26.1781C43.3661 24.2208 43.3661 22.3034 43.3661 20.3061Z" fill="#014898"/>
<path d="M21.4821 32.1299C16.3795 32.1299 12.5223 28.2685 12.5089 23.1555C12.4955 18.3088 16.5804 14.3009 21.5089 14.3143C26.4375 14.3143 30.5223 18.3621 30.4821 23.1821C30.442 28.3085 26.5982 32.1299 21.4821 32.1299ZM28.875 23.2487C28.7679 19.0012 25.5402 15.8455 21.4018 15.9387C17.1429 16.0452 14.0223 19.2542 14.1161 23.4218C14.2098 27.4962 17.6116 30.6919 21.75 30.5853C25.6741 30.4788 28.9688 27.0835 28.875 23.2487Z" fill="#014898"/>
<path d="M38.5313 24.021C38.1027 23.9944 37.7545 23.6082 37.7813 23.1821C37.808 22.7694 38.1696 22.4365 38.5848 22.4498C39.0134 22.4631 39.375 22.8359 39.3616 23.262C39.3482 23.7014 38.9732 24.0476 38.5313 24.021Z" fill="#014898"/>
<path d="M20.692 26.6174C20.692 25.752 20.7054 24.9797 20.6786 24.2207C20.6786 24.0876 20.5446 23.8878 20.4107 23.8346C19.192 23.302 18.5089 22.3699 18.4955 21.0517C18.4821 19.7069 19.1786 18.7748 20.4107 18.2156C20.5312 18.1623 20.6652 17.9759 20.6786 17.8295C20.7589 17.2569 21.0134 16.924 21.4821 16.924C21.9643 16.9107 22.2321 17.2436 22.3125 17.8561C22.3393 18.0026 22.5 18.1756 22.6473 18.2422C23.7723 18.7615 24.4286 19.6137 24.5223 20.8653C24.5625 21.4379 24.2812 21.784 23.8125 21.824C23.3304 21.8639 23.0089 21.571 22.9286 21.0118C22.8482 20.3993 22.7812 20.2794 22.3125 19.9332C22.3125 20.7854 22.2991 21.5843 22.3259 22.3965C22.3259 22.4897 22.4732 22.6362 22.5938 22.6762C23.8125 23.2088 24.5089 24.1275 24.5089 25.459C24.5223 26.8039 23.8259 27.7359 22.5938 28.2951C22.4732 28.3484 22.3393 28.5348 22.3259 28.6813C22.2455 29.2538 21.9911 29.5867 21.5357 29.6C21.067 29.6133 20.7857 29.2671 20.692 28.668C20.6652 28.5082 20.4777 28.3218 20.3304 28.2552C19.2054 27.7226 18.5759 26.8571 18.4955 25.6055C18.4688 25.0729 18.75 24.74 19.2054 24.7001C19.7009 24.6601 20.0357 24.953 20.0893 25.5123C20.1161 25.9251 20.25 26.2846 20.692 26.6174ZM20.6652 19.9332C19.8616 20.5324 19.875 21.571 20.6652 22.1036C20.6652 21.3846 20.6652 20.6789 20.6652 19.9332ZM22.3259 26.5642C23.1295 26.1647 23.0759 24.6601 22.3259 24.4071C22.3259 25.1128 22.3259 25.8185 22.3259 26.5642Z" fill="#014898"/>
<path d="M35.4643 7.48368C36.1607 7.48368 36.8036 7.47036 37.4464 7.48368C38.0625 7.49699 38.692 7.45705 39.2946 7.57688C41.4643 7.98965 42.9643 9.80051 42.9777 11.9975C42.9911 14.0214 42.9777 16.0586 42.9777 18.0825C42.9777 18.2689 42.9777 18.442 42.9777 18.695C43.3527 18.695 43.7009 18.695 44.0491 18.695C44.6786 18.7083 44.9866 18.9879 44.9866 19.6004C44.9866 22.0105 44.9866 24.4205 44.9866 26.8439C44.9866 27.4564 44.6786 27.7626 44.0625 27.7759C43.7277 27.7892 43.3929 27.7759 42.9777 27.7759C42.9777 27.9623 42.9777 28.1488 42.9777 28.3219C42.9777 30.3058 42.9777 32.2764 42.9777 34.2604C42.9777 37.0433 41.0491 38.9873 38.25 38.9873C27.067 39.0006 15.8839 39.0006 4.71429 38.9873C1.92857 38.9873 0 37.0433 0 34.2737C0 24.2341 0 14.1945 0 4.16821C0 1.74486 1.67411 0.0138926 4.11161 0.0138926C13.2054 0.000577468 22.2857 0.000577468 31.3795 0.0138926C33.7902 0.0138926 35.4509 1.73154 35.4643 4.14158C35.4777 5.23342 35.4643 6.32526 35.4643 7.48368ZM1.60714 8.25596C1.60714 8.53557 1.60714 8.70867 1.60714 8.88177C1.60714 13.7418 1.60714 18.6018 1.60714 23.4618C1.60714 27.0835 1.60714 30.7186 1.60714 34.3403C1.60714 36.1112 2.83929 37.3495 4.62054 37.3895C5.23661 37.4028 5.85268 37.3895 6.48214 37.3895C17.0223 37.3895 27.5759 37.3895 38.1161 37.3895C40.192 37.3895 41.3839 36.2044 41.3839 34.1406C41.3839 32.2232 41.3839 30.3191 41.3839 28.4017C41.3839 28.202 41.3839 28.0156 41.3839 27.7759C40.433 27.7759 39.5223 27.7892 38.625 27.7759C35.5179 27.7094 33.4955 25.1795 34.1518 22.1569C34.5937 20.1064 36.3214 18.735 38.5446 18.695C39.4821 18.6817 40.4062 18.695 41.3438 18.695C41.3705 18.6018 41.3839 18.5485 41.3839 18.5086C41.3839 16.2983 41.3973 14.088 41.3705 11.8644C41.3705 11.1054 41.0357 10.453 40.4866 9.90703C39.8304 9.25459 39.0134 9.06818 38.1027 9.06818C27.1205 9.08149 16.1384 9.06818 5.15625 9.08149C3.9375 9.09481 2.71875 9.10812 1.60714 8.25596ZM33.8571 7.48368C33.8571 6.83124 33.8571 6.24537 33.8571 5.64619C33.8571 5.10027 33.8705 4.55435 33.8571 3.99512C33.8304 2.63697 32.8527 1.61171 31.4866 1.59839C22.3125 1.58508 13.1384 1.59839 3.97768 1.59839C3.95089 1.59839 3.91071 1.59839 3.88393 1.59839C2.66518 1.66497 1.6875 2.63697 1.63393 3.86196C1.62054 4.08832 1.66071 4.32799 1.62054 4.55435C1.36607 6.03233 2.49107 7.48368 4.40625 7.48368C14.0357 7.45705 23.6518 7.47036 33.2812 7.47036C33.442 7.48368 33.6161 7.48368 33.8571 7.48368ZM43.3661 20.3061C41.7857 20.3061 40.2321 20.3061 38.6786 20.3061C38.5179 20.3061 38.3438 20.3061 38.183 20.3195C36.7232 20.5059 35.6384 21.7042 35.5848 23.1689C35.5313 24.5537 36.5357 25.8319 37.942 26.0982C38.4643 26.1914 39 26.1781 39.5357 26.1781C40.7946 26.1914 42.067 26.1781 43.3527 26.1781C43.3661 24.2208 43.3661 22.3034 43.3661 20.3061Z" stroke="white" stroke-width="0.2"/>
<path d="M21.4821 32.1299C16.3795 32.1299 12.5223 28.2685 12.5089 23.1555C12.4955 18.3088 16.5804 14.3009 21.5089 14.3143C26.4375 14.3143 30.5223 18.3621 30.4821 23.1821C30.442 28.3085 26.5982 32.1299 21.4821 32.1299ZM28.875 23.2487C28.7679 19.0012 25.5402 15.8455 21.4018 15.9387C17.1429 16.0452 14.0223 19.2542 14.1161 23.4218C14.2098 27.4962 17.6116 30.6919 21.75 30.5853C25.6741 30.4788 28.9688 27.0835 28.875 23.2487Z" stroke="white" stroke-width="0.2"/>
<path d="M38.5313 24.021C38.1027 23.9944 37.7545 23.6082 37.7813 23.1821C37.808 22.7694 38.1696 22.4365 38.5848 22.4498C39.0134 22.4631 39.375 22.8359 39.3616 23.262C39.3482 23.7014 38.9732 24.0476 38.5313 24.021Z" stroke="white" stroke-width="0.2"/>
<path d="M20.692 26.6174C20.692 25.752 20.7054 24.9797 20.6786 24.2207C20.6786 24.0876 20.5446 23.8878 20.4107 23.8346C19.192 23.302 18.5089 22.3699 18.4955 21.0517C18.4821 19.7069 19.1786 18.7748 20.4107 18.2156C20.5312 18.1623 20.6652 17.9759 20.6786 17.8295C20.7589 17.2569 21.0134 16.924 21.4821 16.924C21.9643 16.9107 22.2321 17.2436 22.3125 17.8561C22.3393 18.0026 22.5 18.1756 22.6473 18.2422C23.7723 18.7615 24.4286 19.6137 24.5223 20.8653C24.5625 21.4379 24.2812 21.784 23.8125 21.824C23.3304 21.8639 23.0089 21.571 22.9286 21.0118C22.8482 20.3993 22.7812 20.2794 22.3125 19.9332C22.3125 20.7854 22.2991 21.5843 22.3259 22.3965C22.3259 22.4897 22.4732 22.6362 22.5938 22.6762C23.8125 23.2088 24.5089 24.1275 24.5089 25.459C24.5223 26.8039 23.8259 27.7359 22.5938 28.2951C22.4732 28.3484 22.3393 28.5348 22.3259 28.6813C22.2455 29.2538 21.9911 29.5867 21.5357 29.6C21.067 29.6133 20.7857 29.2671 20.692 28.668C20.6652 28.5082 20.4777 28.3218 20.3304 28.2552C19.2054 27.7226 18.5759 26.8571 18.4955 25.6055C18.4688 25.0729 18.75 24.74 19.2054 24.7001C19.7009 24.6601 20.0357 24.953 20.0893 25.5123C20.1161 25.9251 20.25 26.2846 20.692 26.6174ZM20.6652 19.9332C19.8616 20.5324 19.875 21.571 20.6652 22.1036C20.6652 21.3846 20.6652 20.6789 20.6652 19.9332ZM22.3259 26.5642C23.1295 26.1647 23.0759 24.6601 22.3259 24.4071C22.3259 25.1128 22.3259 25.8185 22.3259 26.5642Z" stroke="white" stroke-width="0.2"/>
</g>
</g>
</g>
<defs>
<clipPath id="clip0_2198_3720">
<rect width="45" height="39" fill="white"/>
</clipPath>
</defs>
</svg>
