<svg width="49" height="42" viewBox="0 0 49 42" fill="none" xmlns="http://www.w3.org/2000/svg">
<g id="Layer_1" clip-path="url(#clip0_2232_12141)">
<path id="Vector" d="M1.00123 16.8657C1.25217 16.191 1.40962 15.4605 1.77127 14.8541C2.70737 13.2865 4.13919 12.4717 5.9585 12.4146C7.01392 12.3811 8.07057 12.4084 9.18872 12.4084C9.18872 12.2075 9.18872 12.0438 9.18872 11.8801C9.18872 10.0235 9.18503 8.16694 9.18872 6.31161C9.19733 3.21732 11.3635 1.00854 14.4289 1.00605C23.9117 0.997374 33.3932 0.998614 42.876 1.00605C45.9648 1.00854 48.142 3.22104 48.1433 6.33517C48.147 11.7647 48.0904 17.1956 48.1642 22.6239C48.2097 25.9476 45.656 28.2196 42.9474 28.1117C42.8883 28.1093 42.828 28.1229 42.7198 28.1341C42.7124 28.3015 42.6977 28.464 42.6977 28.6277C42.6964 30.5921 42.6977 32.5566 42.6964 34.5211C42.6964 35.4636 42.122 35.8072 41.3101 35.352C38.4428 33.7472 35.5766 32.1399 32.7093 30.5351C32.5642 30.4532 32.4141 30.3813 32.2234 30.2821C32.1964 30.4309 32.1656 30.5438 32.1558 30.6579C31.9073 33.643 29.8506 35.5703 26.8627 35.5814C23.5328 35.5951 20.2042 35.579 16.8743 35.5951C16.5693 35.5963 16.2335 35.6782 15.9641 35.8233C12.8532 37.4938 9.75702 39.1892 6.64243 40.8535C6.38903 40.9887 6.01877 41.0346 5.74323 40.9639C5.35452 40.8634 5.28564 40.4765 5.28687 40.0945C5.29302 38.7018 5.28687 37.3103 5.29179 35.9175C5.29179 35.6869 5.28687 35.5169 4.99657 35.445C2.81439 34.8969 1.50926 33.4967 1.06889 31.2742C1.06027 31.2333 1.02337 31.1974 1 31.1589C1 26.3941 1 21.628 1 16.8632L1.00123 16.8657ZM10.7706 12.4059C11.008 12.4059 11.1901 12.4059 11.3734 12.4059C16.6049 12.4059 21.8365 12.401 27.0681 12.4084C29.302 12.4121 31.2086 13.7801 31.8901 15.8872C32.0143 16.2704 32.1914 16.3324 32.5383 16.3311C35.0391 16.3187 37.5399 16.3225 40.0407 16.3274C40.2375 16.3274 40.4454 16.3349 40.6274 16.3994C40.9878 16.5259 41.1625 16.821 41.1194 17.198C41.0776 17.5701 40.8513 17.8181 40.4712 17.8814C40.3211 17.9062 40.1649 17.8938 40.0124 17.8938C37.5731 17.8938 35.1338 17.8938 32.6945 17.8938C32.5322 17.8938 32.371 17.8938 32.2074 17.8938C32.1902 18.0389 32.1742 18.1145 32.1742 18.1902C32.173 21.5003 32.1767 24.8104 32.1644 28.1204C32.1644 28.4156 32.3157 28.5223 32.5248 28.6401C35.2458 30.1593 37.9643 31.6835 40.6852 33.2052C40.8119 33.2759 40.9485 33.3317 41.1379 33.4223C41.1379 33.1916 41.1379 33.0254 41.1379 32.8605C41.1379 31.0659 41.1354 29.2713 41.1391 27.478C41.1404 26.8269 41.4171 26.5516 42.0666 26.5379C42.3729 26.5317 42.6804 26.5392 42.9867 26.5355C45.0902 26.5082 46.5786 25.0137 46.5811 22.898C46.5872 17.3456 46.5872 11.792 46.5811 6.23844C46.5786 4.1053 45.0742 2.57862 42.956 2.57738C33.4289 2.57118 23.9018 2.57118 14.3736 2.57738C12.2516 2.57862 10.7608 4.09414 10.7509 6.2372C10.7423 8.13965 10.7485 10.0421 10.7509 11.9446C10.7509 12.081 10.7632 12.2162 10.7718 12.4047L10.7706 12.4059ZM6.84294 38.9709C7.06558 38.8543 7.20089 38.7861 7.33497 38.7129C10.0473 37.2408 12.7548 35.76 15.4769 34.3065C15.7992 34.1341 16.1978 34.0312 16.5607 34.0287C20.0123 34.0076 23.4652 34.025 26.918 34.0138C29.0535 34.0064 30.5825 32.5777 30.6022 30.4582C30.6427 26.1423 30.6427 21.8264 30.6022 17.5106C30.5825 15.4221 29.0584 13.9847 26.998 13.9835C20.0467 13.9785 13.0967 13.9785 6.14547 13.9835C4.07892 13.9847 2.5696 15.5039 2.56468 17.585C2.55607 21.855 2.55853 26.1237 2.56837 30.3937C2.56837 30.7596 2.6188 31.1378 2.71967 31.4888C3.13913 32.9435 4.3151 33.8439 5.95727 34.0076C6.61168 34.0734 6.82325 34.2954 6.84048 34.9465C6.8454 35.1474 6.84171 35.3483 6.84171 35.5492C6.84171 36.6592 6.84171 37.7691 6.84171 38.9709H6.84294Z" fill="#014898" stroke="#014898" stroke-width="0.1"/>
<path id="Vector_2" d="M28.6585 8.87374C32.4312 8.87374 36.2039 8.87374 39.9766 8.87374C40.1303 8.87374 40.2853 8.86382 40.4366 8.88242C40.8413 8.93327 41.0812 9.18627 41.1206 9.57817C41.1599 9.97379 40.9668 10.2727 40.5781 10.3868C40.3911 10.4413 40.1857 10.4451 39.9876 10.4451C32.4423 10.4475 24.8969 10.4475 17.3515 10.4451C17.1399 10.4451 16.916 10.4389 16.718 10.3744C16.3551 10.2566 16.1718 9.96883 16.2075 9.58933C16.2444 9.19247 16.4794 8.94195 16.8816 8.8849C17.0317 8.86382 17.1879 8.87498 17.3416 8.87498C21.1143 8.87498 24.887 8.87498 28.6597 8.87498L28.6585 8.87374Z" fill="#014898"/>
<path id="Vector_3" d="M16.6197 26.1469C19.3493 26.1469 22.0789 26.1469 24.8084 26.1469C24.9622 26.1469 25.1172 26.1369 25.2673 26.1617C25.6498 26.2225 25.9364 26.5636 25.9364 26.9344C25.9364 27.3052 25.6486 27.6438 25.2673 27.7083C25.1479 27.7281 25.0225 27.7207 24.8995 27.7207C19.3628 27.7207 13.8274 27.7207 8.29077 27.7207C8.16776 27.7207 8.04352 27.7294 7.92297 27.7107C7.5072 27.65 7.23535 27.3226 7.24642 26.9096C7.25626 26.5177 7.52442 26.2126 7.9242 26.158C8.0755 26.1369 8.23049 26.1469 8.38302 26.1469C11.1286 26.1469 13.8729 26.1469 16.6185 26.1469H16.6197Z" fill="#014898"/>
<path id="Vector_4" d="M16.5782 21.4323C13.8486 21.4323 11.119 21.4323 8.38943 21.4323C8.22091 21.4323 8.0487 21.4434 7.8851 21.4136C7.50992 21.3454 7.28727 21.1123 7.25406 20.7241C7.22085 20.3384 7.39183 20.0581 7.75102 19.9304C7.91954 19.8708 8.11143 19.8622 8.29349 19.8622C13.8289 19.8584 19.3643 19.8584 24.8997 19.8622C25.0658 19.8622 25.2405 19.8721 25.3979 19.9205C25.7657 20.0346 25.9539 20.3198 25.9281 20.6943C25.9023 21.0875 25.6759 21.3541 25.2712 21.4149C25.1064 21.4397 24.9342 21.431 24.7656 21.431C22.0361 21.431 19.3065 21.431 16.5769 21.431L16.5782 21.4323Z" fill="#014898"/>
</g>
<defs>
<clipPath id="clip0_2232_12141">
<rect width="49" height="42" fill="white"/>
</clipPath>
</defs>
</svg>
