<svg width="36" height="40" viewBox="0 0 36 40" fill="none" xmlns="http://www.w3.org/2000/svg">
<g clip-path="url(#clip0_2108_7373)">
<path d="M25.1521 36.7574C28.4329 34.8802 30.818 32.2587 32.2176 28.793C33.6733 25.194 33.7517 21.5283 32.5536 17.8405C32.3408 17.1851 32.408 16.8518 32.8111 16.7074C33.2142 16.563 33.4941 16.7852 33.7069 17.4406C37.0885 27.3489 30.6388 38.0348 20.2365 39.7677C11.2786 41.2562 2.69021 35.7022 0.529118 27.0268C-1.9231 17.174 4.52658 7.50999 14.6154 5.91044C16.2166 5.65495 17.8178 5.64384 19.4191 5.84379C19.8782 5.89933 20.1245 6.15481 20.0797 6.54359C20.0349 6.92127 19.7214 7.12121 19.2735 7.06567C19.1615 7.05456 19.0496 7.03235 18.8144 7.01013C18.9264 7.41002 19.016 7.75437 19.1167 8.09872C19.2847 8.64301 19.5646 9.16509 19.6206 9.72049C19.7998 11.6089 18.6688 13.0862 16.7989 13.6194C15.7239 13.9193 14.6602 14.2415 13.6076 14.6191C13.1485 14.7857 12.723 15.0968 12.3199 15.3856C11.5585 15.9188 11.1442 16.6186 11.1666 17.6072C11.2002 18.8846 10.2932 19.5289 9.05031 19.2067C8.75918 19.129 8.47924 18.9957 8.19931 18.8624C7.29232 18.4403 6.67647 18.5625 5.97104 19.2845C5.78068 19.4844 5.74709 19.64 5.95984 19.8399C6.1054 19.9843 6.25097 20.1398 6.37414 20.3064C6.9676 21.0729 6.78844 21.9504 5.91505 22.3947C5.20961 22.7613 4.437 22.7613 3.66438 22.728C3.26127 22.7058 2.85817 22.6502 2.46626 22.5614C2.07435 22.4836 1.69364 22.3392 1.30174 22.2281C0.921026 26.1381 2.63422 32.2253 8.13213 35.9465C13.1261 39.3234 18.4561 39.6455 24.0548 37.3684C23.3829 36.2687 23.6629 35.2689 24.1779 34.3025C24.6482 33.4361 25.1745 32.603 25.6896 31.7588C25.7904 31.5922 25.8911 31.4367 25.9919 31.2701C25.5888 31.1812 25.2193 31.159 24.8722 31.0257C23.4949 30.5147 22.5431 28.6708 22.9462 27.2601C23.0246 26.9824 23.1926 26.6824 23.4165 26.4936C24.3907 25.6494 24.3795 24.3053 23.9316 23.35C23.5621 22.5503 22.991 21.906 22.3304 21.3395C21.5018 20.6175 20.6284 19.9399 19.8222 19.1845C19.3743 18.7735 18.9712 18.2959 18.6464 17.7849C17.8626 16.563 17.9634 15.2079 18.8704 14.0637C19.3743 13.4195 20.0349 12.9862 20.7963 12.7197C21.1659 12.5864 21.5018 12.7419 21.6249 13.0751C21.7369 13.3861 21.5914 13.6861 21.2554 13.8527C20.9531 14.0082 20.6396 14.1304 20.3708 14.3192C19.2399 15.119 19.0272 16.3742 19.9006 17.4295C20.438 18.0848 21.0875 18.6402 21.7033 19.2178C22.5431 20.0065 23.4725 20.7285 24.2339 21.5727C25.2417 22.6836 25.6896 24.0276 25.3537 25.5494C25.2193 26.1937 24.9058 26.7491 24.4243 27.1934C24.122 27.4711 24.0548 27.8044 24.122 28.1709C24.2675 29.104 24.9506 30.0926 26.1711 30.0148C27.0893 29.9593 27.6043 30.9368 27.1452 31.7366C26.6526 32.603 26.1039 33.4472 25.6 34.3025C25.3873 34.6691 25.2081 35.069 25.0401 35.4578C24.8274 35.891 24.861 36.3131 25.1521 36.7574ZM17.5043 6.92127C17.5715 6.93237 17.5379 6.92127 17.4931 6.92127C17.3923 6.92127 17.3028 6.91016 17.202 6.92127C11.5137 7.06567 7.05718 9.45389 3.86593 14.1082C2.54464 16.0298 1.78322 18.1737 1.4361 20.4731C1.40251 20.6619 1.33533 20.8729 1.61526 20.984C2.7126 21.4395 3.84354 21.6283 5.01926 21.4172C5.19842 21.3839 5.35518 21.2839 5.57913 21.184C5.33279 20.9063 5.13123 20.6841 4.95208 20.4619C4.57136 20.0065 4.47059 19.4956 4.72813 18.9513C5.29919 17.7405 7.05718 17.0407 8.31128 17.5294C8.62481 17.6516 8.91594 17.8071 9.22947 17.9293C9.81173 18.1515 10.0133 18.0293 9.99089 17.4183C9.9461 16.2742 10.4164 15.3745 11.2674 14.6524C12.4655 13.6194 13.8876 13.0307 15.4104 12.6641C15.9367 12.5419 16.4854 12.442 16.9892 12.242C18.165 11.7755 18.736 10.4314 18.3105 9.24284C18.0306 8.4986 17.7843 7.73215 17.5043 6.92127Z" fill="#014898"/>
<path d="M28.288 0C32.3751 0 35.5327 3.4657 35.2192 7.50902C34.9952 10.3749 33.8531 12.8631 32.2519 15.1847C31.2777 16.6176 30.1468 17.9172 28.8927 19.1169C28.4 19.5834 28.1537 19.5834 27.6834 19.1391C25.0744 16.6176 22.9469 13.774 21.8607 10.2749C21.3457 8.59761 21.0993 6.88698 21.5584 5.14302C22.3646 2.09942 25.1192 0 28.288 0ZM28.288 18.0283C30.3931 15.9067 32.1287 13.6184 33.2149 10.8859C33.7523 9.53069 34.0435 8.13107 34.0099 6.66481C33.9203 3.28798 30.6171 0.655374 27.2803 1.31075C24.145 1.92169 22.1855 4.69869 22.611 7.8867C22.8237 9.50847 23.3276 11.0192 24.0778 12.4521C25.164 14.5293 26.6084 16.3288 28.288 18.0283Z" fill="#014898"/>
<path d="M11.8715 33.2361C11.8715 33.1806 11.8715 33.125 11.8827 33.0695C12.0507 31.9143 11.7036 31.0256 10.6286 30.4258C9.93439 30.037 9.31853 29.5371 8.68028 29.0484C8.04203 28.5596 7.58294 27.9376 7.48216 27.1156C7.38139 26.3491 7.63893 25.7049 8.26598 25.2494C8.70268 24.9273 8.83704 24.5941 8.63549 24.0498C8.37795 23.3389 8.6131 22.739 9.28494 22.3836C10.0016 22.0059 10.7518 21.6949 11.5132 21.4172C12.1627 21.1839 12.8121 21.295 13.3832 21.706C13.7639 21.9837 14.1782 22.117 14.6485 22.1947C15.0068 22.2503 15.3763 22.4835 15.6338 22.739C15.9362 23.0389 16.1489 23.4277 16.3617 23.8054C16.6416 24.3164 17.0335 24.6274 17.6158 24.7496C18.9147 25.0384 20.1128 25.5716 21.1877 26.3491C21.9156 26.8823 22.4978 27.5377 22.5314 28.5041C22.565 29.4594 22.1507 30.1925 21.3109 30.6702C20.3255 31.2367 20.3255 31.2367 20.807 32.2919C20.8966 32.4808 20.9638 32.6807 21.0086 32.8807C21.1541 33.6138 20.8742 34.1025 20.1464 34.3136C18.2428 34.8579 16.8767 36.002 16.0258 37.7793C15.8018 38.2569 15.3763 38.4347 14.9172 38.157C14.3909 37.8348 13.9318 37.4016 13.4616 37.0017C13.2712 36.8462 13.1368 36.613 12.9465 36.4574C12.1403 35.791 11.8491 34.9134 11.8603 33.9026C11.8603 33.6804 11.8603 33.4583 11.8603 33.2361C11.8491 33.2361 11.8603 33.2361 11.8715 33.2361ZM19.8329 33.1139C19.6537 32.7363 19.4745 32.4141 19.329 32.0698C18.9483 31.2033 19.1946 30.448 20.0232 29.9704C20.2472 29.8371 20.4935 29.726 20.7286 29.5927C21.1317 29.3594 21.3221 28.9928 21.2997 28.5485C21.2885 28.0487 20.9638 27.7043 20.5831 27.4266C19.5865 26.6713 18.4668 26.1825 17.2575 25.9159C16.4177 25.7271 15.7906 25.2606 15.3651 24.5163C15.1971 24.2164 15.018 23.9165 14.8052 23.6388C14.7045 23.5055 14.5141 23.3722 14.3685 23.3722C13.7639 23.3611 13.2488 23.1278 12.7897 22.7835C12.4426 22.5169 12.0731 22.4724 11.6812 22.6391C11.1325 22.8723 10.5838 23.1167 10.0352 23.3611C9.82241 23.4611 9.74403 23.6166 9.83361 23.8276C10.2367 24.7829 9.92319 25.5049 9.12818 26.1159C8.6019 26.5269 8.54591 27.0267 8.94902 27.571C9.11698 27.8043 9.34093 28.0153 9.56487 28.182C10.3487 28.7596 11.1549 29.315 11.9499 29.8815C12.6553 30.3814 13.0584 31.0589 13.092 31.9143C13.1144 32.6363 13.0473 33.3583 13.1032 34.0803C13.1368 34.4913 13.2824 34.9245 13.5063 35.2689C13.8087 35.7132 14.223 36.0798 14.6037 36.4685C14.7381 36.613 14.906 36.7351 15.0852 36.8907C16.1601 34.9801 17.6942 33.736 19.8329 33.1139Z" fill="#014898"/>
<path d="M32.2729 7.66416C32.2393 9.70804 30.5485 11.3298 28.5106 11.2854C26.4503 11.2409 24.8155 9.56363 24.8603 7.54197C24.9051 5.54253 26.5959 3.90965 28.6114 3.93186C30.6493 3.96519 32.3065 5.6425 32.2729 7.66416ZM28.5666 5.16486C27.1893 5.16486 26.092 6.25344 26.092 7.61973C26.092 8.97491 27.2117 10.0857 28.5666 10.0857C29.9215 10.0857 31.0524 8.9638 31.0524 7.61973C31.0524 6.26455 29.9327 5.16486 28.5666 5.16486Z" fill="#014898"/>
</g>
<defs>
<clipPath id="clip0_2108_7373">
<rect width="35.2381" height="40" fill="white"/>
</clipPath>
</defs>
</svg>
