<svg width="41" height="38" viewBox="0 0 41 38" fill="none" xmlns="http://www.w3.org/2000/svg">
<path d="M31.9242 6.77836H1.73552V7.34088C1.73552 14.06 1.73552 20.7778 1.73552 27.4969C1.73552 28.4655 1.98904 28.7122 2.98283 28.7122C12.2573 28.7122 13.5303 28.7122 22.8047 28.7122C23.6928 28.7122 24.1042 28.9786 24.1085 29.5524C24.1114 30.1262 23.6928 30.4011 22.8134 30.4011C13.5216 30.4011 12.2298 30.4011 2.93792 30.4011C1.02856 30.3997 0 29.3931 0 27.5237C0 19.3102 0 11.0966 0 2.88306C0 0.986866 1.02132 0 2.98283 0C14.8779 0 18.7731 0 30.6682 0C32.6543 0 33.6597 0.984047 33.6597 2.92817C33.6597 5.4616 33.6597 7.99362 33.6597 10.527C33.6597 10.668 33.6655 10.809 33.6568 10.9486C33.622 11.4744 33.2526 11.8339 32.7658 11.8184C32.2979 11.8043 31.9401 11.4575 31.9314 10.9514C31.914 9.98427 31.9256 9.01714 31.9256 8.05001C31.9256 7.64681 31.9256 7.24219 31.9256 6.77977L31.9242 6.77836ZM1.73842 5.03302H31.8793C31.8995 4.96676 31.9169 4.93433 31.9169 4.90191C31.9213 4.25198 31.9242 3.60065 31.9242 2.95073C31.9242 1.91593 31.6895 1.68895 30.6175 1.68895C18.7615 1.68895 14.9069 1.68895 3.05092 1.68895C2.90605 1.68895 2.76118 1.6819 2.61776 1.69177C2.09914 1.72702 1.7587 2.02449 1.74566 2.52074C1.72393 3.34407 1.73986 4.16881 1.73986 5.03302H1.73842Z" fill="#014898"/>
<path d="M24.9806 25.3343C24.9806 22.0466 24.9806 18.7575 24.9806 15.4698C24.9806 13.6878 26.0367 12.6685 27.8823 12.6685C31.1535 12.6685 34.4246 12.6685 37.6957 12.6685C39.5413 12.6685 40.6003 13.6878 40.6017 15.4684C40.6017 22.0452 40.6017 28.6219 40.6017 35.1987C40.6017 36.9793 39.5413 38.0014 37.6986 38.0014C34.4275 38.0014 31.1564 38.0014 27.8852 38.0014C26.0251 38.0014 24.9806 36.9751 24.9806 35.148C24.9806 31.8772 24.9806 28.6064 24.9806 25.3357V25.3343ZM38.8677 25.3329C38.8677 22.0607 38.8677 18.7885 38.8677 15.5178C38.8677 14.6211 38.5953 14.3575 37.674 14.3575C34.4202 14.3575 31.1651 14.3575 27.9113 14.3575C26.99 14.3575 26.7191 14.6211 26.7191 15.5192C26.7191 22.0635 26.7191 28.6064 26.7191 35.1508C26.7191 36.0474 26.9914 36.3125 27.9128 36.3125C31.1665 36.3125 34.4217 36.3125 37.6754 36.3125C38.5953 36.3125 38.8691 36.046 38.8691 35.1494C38.8691 31.8772 38.8691 28.605 38.8691 25.3343L38.8677 25.3329Z" fill="#014898"/>
<path d="M20.1652 4.21674C20.0204 4.21674 19.8755 4.22943 19.7321 4.21533C19.2511 4.16881 18.9179 3.82763 18.9107 3.38918C18.9034 2.95214 19.2323 2.58418 19.7074 2.54471C20.0305 2.51792 20.3579 2.51933 20.6824 2.5433C21.1634 2.57854 21.498 2.92958 21.5053 3.36662C21.5125 3.80226 21.1808 4.16317 20.707 4.21392C20.5289 4.23366 20.3463 4.21674 20.1652 4.21815V4.21674Z" fill="#014898"/>
<path d="M24.5142 4.21533C24.3519 4.21533 24.1853 4.23648 24.0274 4.2111C23.5595 4.13638 23.2842 3.86288 23.2538 3.39764C23.2263 2.96342 23.5682 2.58982 24.039 2.54471C24.3258 2.51792 24.617 2.52638 24.9053 2.53625C25.463 2.55457 25.8325 2.88306 25.8441 3.35676C25.8571 3.85019 25.4746 4.19841 24.8923 4.22097C24.7662 4.2252 24.6387 4.22097 24.5127 4.22097C24.5127 4.21815 24.5127 4.21674 24.5127 4.21392L24.5142 4.21533Z" fill="#014898"/>
<path d="M28.8501 4.21533C28.6878 4.21533 28.5212 4.23648 28.3633 4.2111C27.8968 4.13497 27.6201 3.86006 27.5926 3.39482C27.5665 2.9606 27.9084 2.58841 28.3807 2.54471C28.6675 2.51792 28.9587 2.52638 29.247 2.53625C29.8033 2.55457 30.1727 2.88588 30.1828 3.35958C30.1944 3.85442 29.8134 4.19841 29.2282 4.22097C29.1021 4.2252 28.9747 4.22097 28.8486 4.22097C28.8486 4.21815 28.8486 4.21674 28.8486 4.21392L28.8501 4.21533Z" fill="#014898"/>
<path d="M31.9792 25.8291C32.521 25.2807 33.044 24.7492 33.5699 24.2205C33.6959 24.0951 33.8205 23.9653 33.9625 23.8582C34.3565 23.5593 34.8157 23.5776 35.1402 23.8934C35.4647 24.2107 35.5111 24.6858 35.1692 25.034C34.3072 25.9109 33.4265 26.7695 32.5268 27.6097C32.1675 27.9452 31.6286 27.9452 31.3056 27.5787C30.8492 27.0613 29.9004 26.7497 30.3074 25.7981C30.5653 25.1947 31.1984 25.1961 31.9792 25.8291Z" fill="#014898"/>
<path d="M32.7977 33.7833C33.1048 33.7833 33.4134 33.7621 33.7191 33.7875C34.1957 33.827 34.5274 34.1893 34.5245 34.6263C34.5217 35.0648 34.1885 35.4327 33.7089 35.4539C33.0962 35.4821 32.479 35.4821 31.8677 35.4539C31.3911 35.4313 31.0608 35.0549 31.0636 34.6165C31.0665 34.178 31.3997 33.8368 31.8778 33.7833C31.914 33.779 31.9502 33.779 31.9865 33.779C32.2574 33.779 32.5283 33.779 32.7992 33.779V33.7833H32.7977Z" fill="#014898"/>
</svg>
