<svg width="34" height="42" viewBox="0 0 34 42" fill="none" xmlns="http://www.w3.org/2000/svg">
<g id="Layer_1" clip-path="url(#clip0_2232_12059)">
<g id="Vector">
<path d="M1.00082 20.9757C1.00082 15.7803 1.00082 10.5849 1.00082 5.38942C1.01053 3.11702 2.48662 1.40787 4.72017 1.03884C4.95324 1 5.20572 1 5.4485 1C10.0224 1 14.5964 1 19.1703 1C21.7923 1 23.618 2.8354 23.6277 5.45739C23.6277 5.86526 23.6277 6.27312 23.6277 6.68099C23.6277 7.20539 23.3266 7.53557 22.8896 7.53557C22.4526 7.53557 22.1807 7.20539 22.171 6.66157C22.171 6.17601 22.171 5.69046 22.171 5.2049C22.1322 3.68997 20.928 2.47609 19.4033 2.44695C18.5293 2.42753 17.6456 2.42753 16.7716 2.44695C16.626 2.44695 16.3832 2.59262 16.3443 2.71886C16.0433 3.68997 15.3927 3.93275 14.4313 3.8842C12.9552 3.80651 11.4597 3.84535 9.97387 3.87448C9.42034 3.87448 9.01247 3.7094 8.83767 3.17529C8.63374 2.56349 8.25501 2.35955 7.61408 2.41782C6.89545 2.4858 6.15741 2.42753 5.42908 2.43724C3.64224 2.43724 2.44777 3.63171 2.44777 5.43797C2.44777 10.7208 2.44777 16.0134 2.44777 21.2962C2.44777 26.3265 2.44777 31.3569 2.44777 36.3775C2.44777 38.3683 3.59368 39.5142 5.57475 39.5142C10.071 39.5142 14.5769 39.5142 19.0732 39.5142C21.0251 39.5142 22.171 38.3683 22.171 36.4067C22.171 35.319 22.171 34.2217 22.171 33.134C22.171 32.5708 22.4623 32.2406 22.9188 32.2503C23.3558 32.26 23.6277 32.5902 23.618 33.134C23.5985 34.5713 23.6859 36.0182 23.5208 37.4457C23.2878 39.4365 21.5107 40.9514 19.5005 40.9612C14.7129 40.9903 9.92532 40.9903 5.13775 40.9612C2.81679 40.9417 1.01053 39.0189 1.00082 36.6397C0.981397 33.503 1.00082 30.3664 1.00082 27.2297C1.00082 25.1418 1.00082 23.0539 1.00082 20.9563V20.9757Z" fill="#014898"/>
<path d="M22.9285 30.8131C16.9561 30.8422 12.0229 25.9575 12.0035 19.9949C11.9744 13.9449 16.8299 9.02136 22.8411 9.00194C28.8717 8.98252 33.7855 13.8284 33.8146 19.8201C33.8437 25.8895 28.9882 30.7936 22.9285 30.8131ZM22.9382 10.4586C17.7233 10.4586 13.4602 14.6732 13.4504 19.8298C13.4504 25.1224 17.6553 29.3564 22.9188 29.3564C28.1142 29.3564 32.3482 25.1224 32.3579 19.8881C32.3579 14.7121 28.1142 10.4489 22.9382 10.4489V10.4586Z" fill="#014898"/>
<path d="M23.3849 25.3846C23.3849 25.6273 23.3946 25.8313 23.3849 26.0449C23.3558 26.4625 23.0644 26.7344 22.6857 26.7247C22.2778 26.715 21.9574 26.4819 21.9962 26.0935C22.0836 25.3457 21.6757 25.0447 21.1222 24.6756C20.5687 24.3163 20.1123 23.7725 19.6655 23.2675C19.3354 22.8888 19.4033 22.4518 19.7529 22.1896C20.1025 21.9274 20.5493 22.0245 20.8406 22.4518C21.3747 23.219 22.0739 23.7337 22.9867 23.9376C23.6957 24.093 24.5017 23.6657 24.6668 23.0442C24.793 22.5781 24.7347 22.1411 24.3269 21.8594C23.8413 21.5293 23.3169 21.2573 22.8022 20.9757C22.1225 20.6067 21.3941 20.3251 20.7726 19.8881C19.8501 19.2374 19.3159 18.3246 19.5102 17.1593C19.7141 15.9454 20.491 15.1879 21.6563 14.8189C21.7729 14.78 21.8894 14.615 21.9185 14.4984C21.9574 14.2654 21.9185 14.0129 21.9477 13.7701C21.9962 13.3331 22.2973 13.0709 22.7051 13.0903C23.0936 13.1097 23.414 13.3816 23.3752 13.7992C23.3072 14.479 23.5014 14.78 24.2298 14.984C25.5408 15.3336 26.172 16.6349 25.8321 17.8779C25.7058 18.344 25.3757 18.5771 24.9775 18.4994C24.5502 18.412 24.3366 18.0624 24.424 17.5671C24.5405 16.8971 24.3851 16.5086 23.7345 16.3435C23.181 16.2076 22.5497 16.1493 22.0059 16.2756C20.8794 16.5475 20.5978 17.7808 21.4621 18.5479C21.8408 18.8878 22.3167 19.1112 22.7634 19.354C23.4432 19.7133 24.1812 19.9852 24.8221 20.4028C26.0069 21.1602 26.3953 22.1022 26.104 23.2967C25.803 24.5397 24.8998 25.1224 23.7151 25.3554C23.6374 25.3748 23.5694 25.3748 23.4043 25.3943L23.3849 25.3846Z" fill="#014898"/>
<path d="M1.00082 20.9757C1.00082 15.7803 1.00082 10.5849 1.00082 5.38942C1.01053 3.11702 2.48662 1.40787 4.72017 1.03884C4.95324 1 5.20572 1 5.4485 1C10.0224 1 14.5964 1 19.1703 1C21.7923 1 23.618 2.8354 23.6277 5.45739C23.6277 5.86526 23.6277 6.27312 23.6277 6.68099C23.6277 7.20539 23.3266 7.53557 22.8896 7.53557C22.4526 7.53557 22.1807 7.20539 22.171 6.66157C22.171 6.17601 22.171 5.69046 22.171 5.2049C22.1322 3.68997 20.928 2.47609 19.4033 2.44695C18.5293 2.42753 17.6456 2.42753 16.7716 2.44695C16.626 2.44695 16.3832 2.59262 16.3443 2.71886C16.0433 3.68997 15.3927 3.93275 14.4313 3.8842C12.9552 3.80651 11.4597 3.84535 9.97387 3.87448C9.42034 3.87448 9.01247 3.7094 8.83767 3.17529C8.63374 2.56349 8.25501 2.35955 7.61408 2.41782C6.89545 2.4858 6.15741 2.42753 5.42908 2.43724C3.64224 2.43724 2.44777 3.63171 2.44777 5.43797C2.44777 10.7208 2.44777 16.0134 2.44777 21.2962C2.44777 26.3265 2.44777 31.3569 2.44777 36.3775C2.44777 38.3683 3.59368 39.5142 5.57475 39.5142C10.071 39.5142 14.5769 39.5142 19.0732 39.5142C21.0251 39.5142 22.171 38.3683 22.171 36.4067C22.171 35.319 22.171 34.2217 22.171 33.134C22.171 32.5708 22.4623 32.2406 22.9188 32.2503C23.3558 32.26 23.6277 32.5902 23.618 33.134C23.5985 34.5713 23.6859 36.0182 23.5208 37.4457C23.2878 39.4365 21.5107 40.9514 19.5005 40.9612C14.7129 40.9903 9.92532 40.9903 5.13775 40.9612C2.81679 40.9417 1.01053 39.0189 1.00082 36.6397C0.981397 33.503 1.00082 30.3664 1.00082 27.2297C1.00082 25.1418 1.00082 23.0539 1.00082 20.9563V20.9757Z" stroke="#014898" stroke-width="0.2"/>
<path d="M22.9285 30.8131C16.9561 30.8422 12.0229 25.9575 12.0035 19.9949C11.9744 13.9449 16.8299 9.02136 22.8411 9.00194C28.8717 8.98252 33.7855 13.8284 33.8146 19.8201C33.8437 25.8895 28.9882 30.7936 22.9285 30.8131ZM22.9382 10.4586C17.7233 10.4586 13.4602 14.6732 13.4504 19.8298C13.4504 25.1224 17.6553 29.3564 22.9188 29.3564C28.1142 29.3564 32.3482 25.1224 32.3579 19.8881C32.3579 14.7121 28.1142 10.4489 22.9382 10.4489V10.4586Z" stroke="#014898" stroke-width="0.2"/>
<path d="M23.3849 25.3846C23.3849 25.6273 23.3946 25.8313 23.3849 26.0449C23.3558 26.4625 23.0644 26.7344 22.6857 26.7247C22.2778 26.715 21.9574 26.4819 21.9962 26.0935C22.0836 25.3457 21.6757 25.0447 21.1222 24.6756C20.5687 24.3163 20.1123 23.7725 19.6655 23.2675C19.3354 22.8888 19.4033 22.4518 19.7529 22.1896C20.1025 21.9274 20.5493 22.0245 20.8406 22.4518C21.3747 23.219 22.0739 23.7337 22.9867 23.9376C23.6957 24.093 24.5017 23.6657 24.6668 23.0442C24.793 22.5781 24.7347 22.1411 24.3269 21.8594C23.8413 21.5293 23.3169 21.2573 22.8022 20.9757C22.1225 20.6067 21.3941 20.3251 20.7726 19.8881C19.8501 19.2374 19.3159 18.3246 19.5102 17.1593C19.7141 15.9454 20.491 15.1879 21.6563 14.8189C21.7729 14.78 21.8894 14.615 21.9185 14.4984C21.9574 14.2654 21.9185 14.0129 21.9477 13.7701C21.9962 13.3331 22.2973 13.0709 22.7051 13.0903C23.0936 13.1097 23.414 13.3816 23.3752 13.7992C23.3072 14.479 23.5014 14.78 24.2298 14.984C25.5408 15.3336 26.172 16.6349 25.8321 17.8779C25.7058 18.344 25.3757 18.5771 24.9775 18.4994C24.5502 18.412 24.3366 18.0624 24.424 17.5671C24.5405 16.8971 24.3851 16.5086 23.7345 16.3435C23.181 16.2076 22.5497 16.1493 22.0059 16.2756C20.8794 16.5475 20.5978 17.7808 21.4621 18.5479C21.8408 18.8878 22.3167 19.1112 22.7634 19.354C23.4432 19.7133 24.1812 19.9852 24.8221 20.4028C26.0069 21.1602 26.3953 22.1022 26.104 23.2967C25.803 24.5397 24.8998 25.1224 23.7151 25.3554C23.6374 25.3748 23.5694 25.3748 23.4043 25.3943L23.3849 25.3846Z" stroke="#014898" stroke-width="0.2"/>
</g>
</g>
<defs>
<clipPath id="clip0_2232_12059">
<rect width="34" height="42" fill="white"/>
</clipPath>
</defs>
</svg>
