<svg width="46" height="40" viewBox="0 0 46 40" fill="none" xmlns="http://www.w3.org/2000/svg">
<g clip-path="url(#clip0_2232_13219)">
<path d="M0 13.1578C0.217581 12.2022 0.595672 11.3368 1.34948 10.6685C2.1116 9.99303 2.99738 9.62266 4.01514 9.60723C5.18627 9.58824 6.35859 9.58705 7.53091 9.60723C7.90068 9.61316 8.12777 9.55025 8.12064 9.12527C8.11826 8.9662 8.17414 8.80476 8.20387 8.64569C8.42145 7.49897 9.20854 6.84963 10.3856 6.8437C10.6377 6.8437 10.8897 6.8437 11.2167 6.8437C11.2167 6.36649 11.1798 5.8964 11.225 5.43463C11.2869 4.80547 11.3249 4.15495 11.5223 3.56259C12.2333 1.42466 14.2319 0.0132122 16.5005 0.00846383C20.7879 -0.00221993 25.0741 -0.00340702 29.3615 0.00846383C32.3244 0.0167734 34.6179 2.29004 34.6881 5.26369C34.7 5.76582 34.6893 6.26915 34.6893 6.8437C36.6879 6.64664 37.4072 7.80761 37.5143 9.60011C37.9577 9.60011 38.3525 9.59417 38.7472 9.60011C39.8874 9.62029 41.0419 9.54075 42.1655 9.69032C44.1332 9.95267 45.5469 11.6561 45.5695 13.6481C45.5897 15.3955 45.5755 17.144 45.5755 18.8914C45.5755 24.4612 45.5755 30.031 45.5755 35.6008C45.5755 38.2682 43.8491 39.999 41.1846 39.999C28.9466 39.999 16.7097 39.999 4.4717 39.999C2.09615 39.999 0.637286 38.8617 0.0594483 36.5659C0.0487476 36.5244 0.0202124 36.4864 0 36.4472C0 28.6837 0 20.9213 0 13.1578ZM22.7687 11.021C16.6574 11.021 10.5461 11.021 4.43484 11.021C2.49921 11.021 1.42319 12.087 1.42319 14.0054C1.42319 21.2039 1.42319 28.4023 1.42319 35.602C1.42319 37.4918 2.50991 38.5768 4.40393 38.5768C16.6562 38.5768 28.9085 38.5768 41.1596 38.5768C43.0572 38.5768 44.1487 37.493 44.1487 35.6091C44.1487 28.4107 44.1487 21.211 44.1487 14.0125C44.1487 12.0906 43.0751 11.021 41.1442 11.0199C35.0186 11.0199 28.8919 11.0199 22.7663 11.0199L22.7687 11.021ZM30.1724 6.86625C30.2045 6.74873 30.2259 6.70718 30.2259 6.66445C30.2295 6.27983 30.2342 5.89403 30.2307 5.50941C30.2235 4.72475 29.9417 4.44935 29.1463 4.44935C26.2845 4.44935 23.4238 4.44935 20.562 4.44935C19.2422 4.44935 17.9225 4.44579 16.6027 4.45172C16.1141 4.4541 15.7419 4.67489 15.7051 5.0785C15.6515 5.6578 15.692 6.24541 15.692 6.8437C15.8418 6.8437 15.9452 6.8437 16.0487 6.8437C17.2543 6.85675 18.0247 7.5049 18.2387 8.68605C18.2708 8.86055 18.3243 9.03505 18.3279 9.20956C18.335 9.54669 18.5051 9.60842 18.8118 9.60486C20.3539 9.58942 21.896 9.59773 23.4381 9.59773C24.6675 9.59773 25.8969 9.59773 27.1964 9.59773C27.3034 7.73876 28.0976 6.58373 30.1736 6.86506L30.1724 6.86625ZM31.6562 6.82233H33.228C33.228 6.15519 33.2815 5.50348 33.2185 4.86364C33.0283 2.94294 31.4553 1.45433 29.528 1.44127C25.1407 1.41041 20.7522 1.41635 16.3649 1.44127C15.1415 1.4484 14.1535 2.01701 13.4008 2.99042C12.5091 4.14427 12.6173 5.47618 12.6613 6.80927H14.2426C14.2426 6.33444 14.2414 5.89165 14.2426 5.44887C14.2474 3.96858 15.1795 3.02722 16.6527 3.02722C20.8473 3.02485 25.0432 3.02485 29.2379 3.02722C30.6943 3.02722 31.6265 3.94602 31.655 5.40258C31.6634 5.86079 31.6562 6.31901 31.6562 6.82114V6.82233ZM16.9392 9.58111C16.8916 9.29503 16.8631 9.05998 16.8132 8.83088C16.7347 8.46763 16.5135 8.26582 16.1271 8.26582C14.1844 8.26582 12.2428 8.26701 10.3 8.26582C9.97899 8.26582 9.74714 8.40946 9.65797 8.71098C9.57712 8.9852 9.54859 9.27603 9.49271 9.5823H16.938L16.9392 9.58111ZM36.0435 9.58467C36.0221 8.44151 35.845 8.26464 34.7511 8.26464C33.0901 8.26464 31.4303 8.26464 29.7693 8.26464C28.8824 8.26464 28.5447 8.68843 28.723 9.58467H36.0435Z" fill="#014898" stroke="white" stroke-width="0.1"/>
<path d="M22.7854 14.4922C28.4782 14.491 33.1175 19.1289 33.1104 24.8139C33.1021 30.4727 28.4615 35.1024 22.7937 35.1047C17.1093 35.1071 12.4593 30.4561 12.4688 24.7771C12.4783 19.1123 17.1117 14.4934 22.7854 14.4922ZM22.7973 15.9143C17.9023 15.9108 13.9015 19.8934 13.8931 24.7771C13.8848 29.6608 17.8702 33.6648 22.7593 33.6838C27.6626 33.7028 31.6884 29.6928 31.686 24.7937C31.6848 19.9077 27.6899 15.9191 22.7973 15.9155V15.9143Z" fill="#014898"/>
<path d="M24.7498 21.4493C25.2492 21.1608 25.7045 20.8937 26.1647 20.6349C26.9553 20.1898 27.589 20.3571 28.0468 21.1299C28.2584 21.4861 28.4713 21.8422 28.6662 22.2078C29.0277 22.8856 28.8541 23.5195 28.1942 23.9255C27.7198 24.2175 27.2324 24.4906 26.689 24.8075C27.1824 25.0948 27.614 25.3441 28.042 25.5946C28.9338 26.1169 29.0919 26.7235 28.5711 27.6304C28.3868 27.9509 28.2097 28.2774 28.0135 28.5908C27.6045 29.2437 26.9684 29.4146 26.2871 29.0454C25.783 28.7724 25.2932 28.4756 24.7201 28.1456C24.7201 28.7213 24.7224 29.2175 24.7201 29.7137C24.7141 30.7489 24.2623 31.1964 23.2232 31.1988C22.8819 31.1988 22.5407 31.2024 22.1995 31.1988C21.3327 31.1881 20.8464 30.7085 20.8369 29.8514C20.831 29.322 20.8369 28.7914 20.8369 28.1788C20.3173 28.4768 19.8608 28.7415 19.4018 28.9991C18.5909 29.4538 17.9667 29.2852 17.4947 28.4839C17.2985 28.1527 17.1036 27.8203 16.9181 27.4832C16.5245 26.765 16.6969 26.1181 17.3913 25.6955C17.6315 25.5495 17.8776 25.4129 18.1213 25.2717C18.3639 25.1304 18.6064 24.9903 18.9239 24.8052C18.4471 24.5286 18.0202 24.2805 17.591 24.0335C16.6636 23.4982 16.5019 22.8999 17.0334 21.9751C17.188 21.7057 17.3437 21.4362 17.5019 21.1691C18.0036 20.3144 18.604 20.1577 19.4755 20.6539C19.9083 20.9008 20.3411 21.1477 20.8381 21.4303C20.8381 20.826 20.8345 20.2978 20.8381 19.7695C20.8452 18.8769 21.3232 18.4032 22.2149 18.3973C22.6156 18.3949 23.0163 18.3925 23.417 18.3973C24.2064 18.408 24.6844 18.865 24.7177 19.6663C24.7379 20.1542 24.7213 20.6444 24.7248 21.1323C24.7248 21.2166 24.7403 21.3009 24.7545 21.4481L24.7498 21.4493ZM18.2247 22.7574C18.7788 23.0768 19.2924 23.3676 19.8025 23.6656C20.8203 24.2615 20.8215 25.3429 19.8025 25.9436C19.2817 26.251 18.7562 26.5502 18.2033 26.8707C18.3853 27.1805 18.547 27.4559 18.7182 27.7479C19.2734 27.4298 19.7966 27.1247 20.3245 26.8279C21.3113 26.2748 22.2482 26.8101 22.2589 27.9319C22.2637 28.5338 22.2589 29.1368 22.2589 29.7458H23.2957C23.2957 29.1119 23.2886 28.5065 23.2969 27.9023C23.3123 26.765 24.2338 26.2403 25.2301 26.7983C25.7687 27.0998 26.3026 27.412 26.8626 27.7337C27.0374 27.431 27.1979 27.1556 27.3738 26.8517C26.8079 26.5252 26.2812 26.2273 25.7616 25.9186C24.789 25.3405 24.7902 24.2686 25.7652 23.6905C26.2836 23.383 26.8055 23.0839 27.3513 22.7657C27.1682 22.4559 27.0065 22.1841 26.8531 21.9241C26.777 21.9431 26.7449 21.9443 26.7199 21.9585C26.2312 22.2375 25.7461 22.5224 25.2539 22.7942C25.0875 22.8856 24.9091 22.9782 24.7248 23.0127C23.9782 23.1515 23.3314 22.634 23.3052 21.8636C23.2826 21.1905 23.3004 20.515 23.3004 19.8384H22.2589C22.2589 20.4474 22.2613 21.035 22.2589 21.6238C22.253 22.812 21.3291 23.3474 20.2912 22.7634C19.7787 22.4749 19.2687 22.1793 18.7384 21.8754C18.5648 22.1746 18.409 22.4405 18.2259 22.7551L18.2247 22.7574Z" fill="#014898"/>
</g>
<defs>
<clipPath id="clip0_2232_13219">
<rect width="45.5814" height="40" fill="white"/>
</clipPath>
</defs>
</svg>
