<svg width="47" height="40" viewBox="0 0 47 40" fill="none" xmlns="http://www.w3.org/2000/svg">
<g clip-path="url(#clip0_4909_7955)">
<path d="M1 20.5328C1.1217 20.771 1.24418 21.0099 1.36588 21.2481C1.24339 21.4854 1.1217 21.7236 1 21.9617C1 21.4854 1 21.0091 1 20.5328Z" fill="white"/>
<path d="M45.9537 26.4297C45.6367 27.2058 45.1529 27.7862 44.188 27.8806C44.188 28.0693 44.1941 28.2545 44.1871 28.4389C44.1432 29.5538 43.3943 30.2999 42.2836 30.3255C41.7155 30.3379 41.1466 30.3282 40.5083 30.3282C40.5083 30.5257 40.5083 30.6951 40.5083 30.8635C40.5083 33.4064 40.5092 35.9483 40.5083 38.4912C40.5083 39.5161 40.028 39.9915 38.9972 39.9968C38.7338 39.9985 38.4705 39.9994 38.207 39.9968C37.2421 39.9853 36.7496 39.494 36.7478 38.5212C36.7434 35.9783 36.7461 33.4364 36.7461 30.8935V30.3537H10.2067C10.2067 30.5487 10.2067 30.7207 10.2067 30.8926C10.2067 33.4055 10.2076 35.9183 10.2067 38.4321C10.2067 39.5214 9.73787 39.9932 8.65968 39.9977C8.38135 39.9985 8.10391 40.0029 7.82558 39.9968C6.94319 39.9747 6.448 39.472 6.44712 38.5811C6.44273 36.0092 6.44536 33.4372 6.44536 30.8653C6.44536 30.7065 6.44536 30.5469 6.44536 30.3299C5.91944 30.3299 5.42688 30.3299 4.93432 30.3299C3.48562 30.3273 2.79727 29.6437 2.76215 28.1769C2.76039 28.0914 2.74898 28.0058 2.7402 27.8876C1.82708 27.7977 1.31784 27.2261 1 26.4297C1 25.7532 1 25.0775 1 24.401C1.13521 24.1364 1.27042 23.8718 1.40651 23.6081C1.2713 23.3435 1.13521 23.078 1 22.8134C1 22.1369 1 21.4613 1 20.7848C1.02107 20.7663 1.05444 20.7513 1.06146 20.7283C1.37139 19.7564 2.06238 19.3251 3.04925 19.3251C6.19425 19.3233 9.34013 19.3162 12.4851 19.3286C13.7863 19.3339 14.5168 20.0951 14.5238 21.3934C14.5265 21.8891 14.5238 22.3848 14.5238 22.9457C14.6635 22.9457 14.8338 22.9457 15.0041 22.9457C17.1403 22.9457 19.2765 22.9625 21.4118 22.9378C22.3398 22.9272 22.5497 23.153 22.5848 23.5993C22.6225 24.0756 22.2617 24.274 21.432 24.274C15.3904 24.274 9.34803 24.274 3.30651 24.274C2.40217 24.274 2.31788 24.3578 2.31788 25.2487C2.31788 26.1307 2.75395 26.5717 3.6261 26.5717C16.9384 26.5717 30.2515 26.5717 43.5637 26.5717C43.7393 26.5717 43.9158 26.5778 44.0897 26.5593C44.4277 26.5232 44.6244 26.3318 44.634 25.9834C44.6437 25.6165 44.6419 25.2487 44.6349 24.8809C44.6279 24.4884 44.4128 24.2926 44.0291 24.2776C43.8833 24.2714 43.7367 24.274 43.5901 24.274C37.5485 24.274 31.5061 24.274 25.4646 24.2723C25.2609 24.2723 25.052 24.2705 24.8553 24.2264C24.526 24.1532 24.3144 23.8956 24.3856 23.5887C24.4382 23.362 24.6621 23.1345 24.8693 22.9995C25.0186 22.9025 25.2662 22.9466 25.4699 22.9466C31.4974 22.9448 37.5248 22.9607 43.5514 22.9307C44.706 22.9254 45.534 23.2818 45.9545 24.401L45.9537 26.4297ZM42.8394 27.9361H4.10373C4.03613 28.8561 4.16695 29.0051 5.00983 29.0051C17.3256 29.0051 29.6413 29.0051 41.957 29.0051C42.7911 29.0051 42.9342 28.8358 42.8394 27.9361ZM7.80626 20.6472C6.43131 20.6472 5.05636 20.6472 3.68229 20.6472C2.30822 20.6472 2.317 20.6472 2.31788 21.9984C2.31788 22.8425 2.42675 22.9501 3.2907 22.9501C6.27415 22.9501 9.2576 22.9501 12.241 22.9501C12.3578 22.9501 12.4755 22.9528 12.5922 22.9457C12.9909 22.921 13.213 22.7235 13.2077 22.3036C13.2042 22.054 13.2077 21.8044 13.2077 21.5539C13.2077 20.7672 13.0857 20.6472 12.2823 20.6463C10.7906 20.6454 9.29887 20.6463 7.80714 20.6463L7.80626 20.6472ZM8.87567 30.3687H7.78519V38.6314H8.87567V30.3687ZM38.0912 30.352V38.6473H39.1685V30.352H38.0912Z" fill="#014898"/>
<path d="M35.1779 3.54569C35.9163 2.48816 36.631 1.48531 37.322 0.465706C37.5442 0.137598 37.8181 -0.000877827 38.2018 4.18517e-06C40.2502 0.00529626 42.2994 4.07335e-06 44.3478 0.00353212C44.8711 0.00353212 45.1643 0.243439 45.1722 0.651811C45.1793 1.07606 44.8781 1.32302 44.3285 1.3239C42.4697 1.32655 40.6119 1.33361 38.7532 1.31685C38.4353 1.3142 38.2545 1.4174 38.0806 1.67671C37.495 2.55166 36.883 3.40898 36.2596 4.30422C37.0375 4.85283 37.7795 5.39792 38.5442 5.90948C40.1966 7.01376 41.259 8.50436 41.6111 10.4871C41.64 10.6512 41.7735 10.8267 41.9078 10.9361C42.8201 11.6778 42.9834 12.6842 42.3257 13.6632C42.1537 13.919 41.9798 14.1748 41.784 14.4112C41.1817 15.1424 40.2414 15.317 39.4161 14.8434C39.1974 14.7181 39.035 14.682 38.7839 14.8072C37.7083 15.3461 36.6468 15.2482 35.674 14.562C34.6986 13.8741 34.2762 12.9012 34.3693 11.6999C34.3807 11.5508 34.3421 11.3347 34.2437 11.258C34.1489 11.1839 33.9224 11.1998 33.7933 11.2606C32.7072 11.7731 31.6554 11.7166 30.6712 11.0428C29.701 10.3786 29.2558 9.43136 29.3401 8.24329C29.3506 8.08894 29.3779 7.89754 29.3041 7.78288C29.1698 7.57208 28.9757 7.58883 28.7378 7.70791C27.0055 8.57581 24.9431 7.67968 24.4154 5.81775C24.3065 5.43408 24.3583 5.0063 24.3039 4.60322C24.2802 4.4277 24.2249 4.20896 24.1028 4.10136C23.3232 3.4081 23.1634 2.45464 23.7174 1.56646C23.8728 1.31773 24.0423 1.07694 24.217 0.842325C24.879 -0.0493886 25.8509 -0.231965 26.8167 0.321938C26.9765 0.413668 27.2031 0.464824 27.383 0.435718C29.2743 0.12525 30.9767 0.56361 32.5255 1.67847C33.3921 2.30206 34.271 2.90712 35.1779 3.54569ZM25.6788 1.24717C25.4637 1.48884 25.2302 1.71199 25.0449 1.96954C24.5401 2.66985 24.5708 2.81186 25.2706 3.3049C29.9986 6.63185 34.7267 9.9588 39.4547 13.2857C40.4653 13.9967 40.5373 13.9834 41.2142 12.9515C41.5092 12.5016 41.4758 12.2582 41.0377 11.9495C36.1077 8.4779 31.1751 5.00807 26.2416 1.54176C26.102 1.44386 25.9379 1.38123 25.6788 1.24717ZM39.8577 9.50015C39.8919 9.47193 39.9262 9.44459 39.9604 9.41636C39.6926 9.00887 39.4837 8.54141 39.1448 8.20712C38.5749 7.64616 37.9507 7.12842 37.2992 6.66449C35.2482 5.20564 33.1831 3.76531 31.1023 2.35057C30.4499 1.90691 29.6878 1.71816 28.8634 1.76579C32.5281 4.34391 36.1929 6.92203 39.8577 9.50015ZM25.6955 5.22063C25.6499 6.16703 26.9318 6.98907 27.6833 6.62038C27.016 6.15027 26.3681 5.69427 25.6955 5.22063ZM32.7538 10.1837C32.0408 9.68361 31.3867 9.22497 30.6852 8.7328C30.8626 9.80533 31.7248 10.4077 32.7538 10.1837ZM35.7443 12.2891C35.7706 13.2699 36.9752 14.0602 37.7698 13.7144C37.1008 13.2443 36.4493 12.7848 35.7443 12.2891Z" fill="#014898"/>
<path d="M25.4532 13.0511C25.2767 12.8835 25.0054 12.7424 24.9501 12.5413C24.8939 12.3367 24.9721 11.9592 25.1257 11.8542C25.8553 11.3506 26.6218 10.8973 27.3945 10.4615C27.6807 10.3001 28.0196 10.4113 28.1381 10.7059C28.2251 10.9228 28.2277 11.3577 28.0969 11.4503C27.3251 11.9927 26.5042 12.4646 25.6973 12.955C25.6525 12.9823 25.584 12.9718 25.5261 12.9779L25.4532 13.0511Z" fill="#014898"/>
<path d="M28.0819 15.4758C27.5139 15.4634 27.1671 14.9766 27.412 14.5814C27.887 13.8141 28.4182 13.0794 28.9599 12.357C29.1584 12.0933 29.4823 12.0994 29.751 12.2864C30.0337 12.4831 30.161 12.7901 29.967 13.0891C29.4824 13.8344 28.9661 14.5594 28.4402 15.2756C28.3506 15.3982 28.1504 15.4396 28.0828 15.4749L28.0819 15.4758Z" fill="#014898"/>
<path d="M32.2832 14.0654C32.1348 14.7905 31.9785 15.654 31.7748 16.5042C31.6949 16.8385 31.4096 16.9946 31.0584 16.9276C30.6896 16.857 30.4727 16.5951 30.5298 16.2378C30.6668 15.3876 30.8433 14.5435 31.0347 13.7038C31.1119 13.3634 31.3894 13.1949 31.7335 13.2487C32.0979 13.3052 32.2832 13.5504 32.2832 14.0654Z" fill="#014898"/>
<path d="M45.9537 26.4297C45.6367 27.2058 45.1529 27.7862 44.188 27.8806C44.188 28.0693 44.1941 28.2545 44.1871 28.4389C44.1432 29.5538 43.3943 30.2999 42.2836 30.3255C41.7155 30.3379 41.1466 30.3282 40.5083 30.3282C40.5083 30.5257 40.5083 30.6951 40.5083 30.8635C40.5083 33.4064 40.5092 35.9483 40.5083 38.4912C40.5083 39.5161 40.028 39.9915 38.9972 39.9968C38.7338 39.9985 38.4705 39.9994 38.207 39.9968C37.2421 39.9853 36.7496 39.494 36.7478 38.5212C36.7434 35.9783 36.7461 33.4364 36.7461 30.8935V30.3537H10.2067C10.2067 30.5487 10.2067 30.7207 10.2067 30.8926C10.2067 33.4055 10.2076 35.9183 10.2067 38.4321C10.2067 39.5214 9.73787 39.9932 8.65968 39.9977C8.38135 39.9985 8.10391 40.0029 7.82558 39.9968C6.94319 39.9747 6.448 39.472 6.44712 38.5811C6.44273 36.0092 6.44536 33.4372 6.44536 30.8653C6.44536 30.7065 6.44536 30.5469 6.44536 30.3299C5.91944 30.3299 5.42688 30.3299 4.93432 30.3299C3.48562 30.3273 2.79727 29.6437 2.76215 28.1769C2.76039 28.0914 2.74898 28.0058 2.7402 27.8876C1.82708 27.7977 1.31784 27.2261 1 26.4297C1 25.7532 1 25.0775 1 24.401C1.13521 24.1364 1.27042 23.8718 1.40651 23.6081C1.2713 23.3435 1.13521 23.078 1 22.8134C1 22.1369 1 21.4613 1 20.7848C1.02107 20.7663 1.05444 20.7513 1.06146 20.7283C1.37139 19.7564 2.06238 19.3251 3.04925 19.3251C6.19425 19.3233 9.34013 19.3162 12.4851 19.3286C13.7863 19.3339 14.5168 20.0951 14.5238 21.3934C14.5265 21.8891 14.5238 22.3848 14.5238 22.9457C14.6635 22.9457 14.8338 22.9457 15.0041 22.9457C17.1403 22.9457 19.2765 22.9625 21.4118 22.9378C22.3398 22.9272 22.5497 23.153 22.5848 23.5993C22.6225 24.0756 22.2617 24.274 21.432 24.274C15.3904 24.274 9.34803 24.274 3.30651 24.274C2.40217 24.274 2.31788 24.3578 2.31788 25.2487C2.31788 26.1307 2.75395 26.5717 3.6261 26.5717C16.9384 26.5717 30.2515 26.5717 43.5637 26.5717C43.7393 26.5717 43.9158 26.5778 44.0897 26.5593C44.4277 26.5232 44.6244 26.3318 44.634 25.9834C44.6437 25.6165 44.6419 25.2487 44.6349 24.8809C44.6279 24.4884 44.4128 24.2926 44.0291 24.2776C43.8833 24.2714 43.7367 24.274 43.5901 24.274C37.5485 24.274 31.5061 24.274 25.4646 24.2723C25.2609 24.2723 25.052 24.2705 24.8553 24.2264C24.526 24.1532 24.3144 23.8956 24.3856 23.5887C24.4382 23.362 24.6621 23.1345 24.8693 22.9995C25.0186 22.9025 25.2662 22.9466 25.4699 22.9466C31.4974 22.9448 37.5248 22.9607 43.5514 22.9307C44.706 22.9254 45.534 23.2818 45.9545 24.401L45.9537 26.4297ZM42.8394 27.9361H4.10373C4.03613 28.8561 4.16695 29.0051 5.00983 29.0051C17.3256 29.0051 29.6413 29.0051 41.957 29.0051C42.7911 29.0051 42.9342 28.8358 42.8394 27.9361ZM7.80626 20.6472C6.43131 20.6472 5.05636 20.6472 3.68229 20.6472C2.30822 20.6472 2.317 20.6472 2.31788 21.9984C2.31788 22.8425 2.42675 22.9501 3.2907 22.9501C6.27415 22.9501 9.2576 22.9501 12.241 22.9501C12.3578 22.9501 12.4755 22.9528 12.5922 22.9457C12.9909 22.921 13.213 22.7235 13.2077 22.3036C13.2042 22.054 13.2077 21.8044 13.2077 21.5539C13.2077 20.7672 13.0857 20.6472 12.2823 20.6463C10.7906 20.6454 9.29887 20.6463 7.80714 20.6463L7.80626 20.6472ZM8.87567 30.3687H7.78519V38.6314H8.87567V30.3687ZM38.0912 30.352V38.6473H39.1685V30.352H38.0912Z" stroke="white" stroke-width="0.2"/>
<path d="M35.1779 3.54569C35.9163 2.48816 36.631 1.48531 37.322 0.465706C37.5442 0.137598 37.8181 -0.000877827 38.2018 4.18517e-06C40.2502 0.00529626 42.2994 4.07335e-06 44.3478 0.00353212C44.8711 0.00353212 45.1643 0.243439 45.1722 0.651811C45.1793 1.07606 44.8781 1.32302 44.3285 1.3239C42.4697 1.32655 40.6119 1.33361 38.7532 1.31685C38.4353 1.3142 38.2545 1.4174 38.0806 1.67671C37.495 2.55166 36.883 3.40898 36.2596 4.30422C37.0375 4.85283 37.7795 5.39792 38.5442 5.90948C40.1966 7.01376 41.259 8.50436 41.6111 10.4871C41.64 10.6512 41.7735 10.8267 41.9078 10.9361C42.8201 11.6778 42.9834 12.6842 42.3257 13.6632C42.1537 13.919 41.9798 14.1748 41.784 14.4112C41.1817 15.1424 40.2414 15.317 39.4161 14.8434C39.1974 14.7181 39.035 14.682 38.7839 14.8072C37.7083 15.3461 36.6468 15.2482 35.674 14.562C34.6986 13.8741 34.2762 12.9012 34.3693 11.6999C34.3807 11.5508 34.3421 11.3347 34.2437 11.258C34.1489 11.1839 33.9224 11.1998 33.7933 11.2606C32.7072 11.7731 31.6554 11.7166 30.6712 11.0428C29.701 10.3786 29.2558 9.43136 29.3401 8.24329C29.3506 8.08894 29.3779 7.89754 29.3041 7.78288C29.1698 7.57208 28.9757 7.58883 28.7378 7.70791C27.0055 8.57581 24.9431 7.67968 24.4154 5.81775C24.3065 5.43408 24.3583 5.0063 24.3039 4.60322C24.2802 4.4277 24.2249 4.20896 24.1028 4.10136C23.3232 3.4081 23.1634 2.45464 23.7174 1.56646C23.8728 1.31773 24.0423 1.07694 24.217 0.842325C24.879 -0.0493886 25.8509 -0.231965 26.8167 0.321938C26.9765 0.413668 27.2031 0.464824 27.383 0.435718C29.2743 0.12525 30.9767 0.56361 32.5255 1.67847C33.3921 2.30206 34.271 2.90712 35.1779 3.54569ZM25.6788 1.24717C25.4637 1.48884 25.2302 1.71199 25.0449 1.96954C24.5401 2.66985 24.5708 2.81186 25.2706 3.3049C29.9986 6.63185 34.7267 9.9588 39.4547 13.2857C40.4653 13.9967 40.5373 13.9834 41.2142 12.9515C41.5092 12.5016 41.4758 12.2582 41.0377 11.9495C36.1077 8.4779 31.1751 5.00807 26.2416 1.54176C26.102 1.44386 25.9379 1.38123 25.6788 1.24717ZM39.8577 9.50015C39.8919 9.47193 39.9262 9.44459 39.9604 9.41636C39.6926 9.00887 39.4837 8.54141 39.1448 8.20712C38.5749 7.64616 37.9507 7.12842 37.2992 6.66449C35.2482 5.20564 33.1831 3.76531 31.1023 2.35057C30.4499 1.90691 29.6878 1.71816 28.8634 1.76579C32.5281 4.34391 36.1929 6.92203 39.8577 9.50015ZM25.6955 5.22063C25.6499 6.16703 26.9318 6.98907 27.6833 6.62038C27.016 6.15027 26.3681 5.69427 25.6955 5.22063ZM32.7538 10.1837C32.0408 9.68361 31.3867 9.22497 30.6852 8.7328C30.8626 9.80533 31.7248 10.4077 32.7538 10.1837ZM35.7443 12.2891C35.7706 13.2699 36.9752 14.0602 37.7698 13.7144C37.1008 13.2443 36.4493 12.7848 35.7443 12.2891Z" stroke="white" stroke-width="0.2"/>
<path d="M25.4532 13.0511C25.2767 12.8835 25.0054 12.7424 24.9501 12.5413C24.8939 12.3367 24.9721 11.9592 25.1257 11.8542C25.8553 11.3506 26.6218 10.8973 27.3945 10.4615C27.6807 10.3001 28.0196 10.4113 28.1381 10.7059C28.2251 10.9228 28.2277 11.3577 28.0969 11.4503C27.3251 11.9927 26.5042 12.4646 25.6973 12.955C25.6525 12.9823 25.584 12.9718 25.5261 12.9779L25.4532 13.0511Z" stroke="white" stroke-width="0.2"/>
<path d="M28.0819 15.4758C27.5139 15.4634 27.1671 14.9766 27.412 14.5814C27.887 13.8141 28.4182 13.0794 28.9599 12.357C29.1584 12.0933 29.4823 12.0994 29.751 12.2864C30.0337 12.4831 30.161 12.7901 29.967 13.0891C29.4824 13.8344 28.9661 14.5594 28.4402 15.2756C28.3506 15.3982 28.1504 15.4396 28.0828 15.4749L28.0819 15.4758Z" stroke="white" stroke-width="0.2"/>
<path d="M32.2832 14.0654C32.1348 14.7905 31.9785 15.654 31.7748 16.5042C31.6949 16.8385 31.4096 16.9946 31.0584 16.9276C30.6896 16.857 30.4727 16.5951 30.5298 16.2378C30.6668 15.3876 30.8433 14.5435 31.0347 13.7038C31.1119 13.3634 31.3894 13.1949 31.7335 13.2487C32.0979 13.3052 32.2832 13.5504 32.2832 14.0654Z" stroke="white" stroke-width="0.2"/>
</g>
<defs>
<clipPath id="clip0_4909_7955">
<rect width="47" height="40" fill="white"/>
</clipPath>
</defs>
</svg>
