<svg width="92" height="60" viewBox="0 0 92 60" fill="none" xmlns="http://www.w3.org/2000/svg">
<path fill-rule="evenodd" clip-rule="evenodd" d="M67.8303 42.445H77.1334V18.468H67.8303V42.445ZM66.8584 10.9567C66.8584 12.571 67.4 13.8378 68.4821 14.758C69.5641 15.6741 70.9044 16.1347 72.4965 16.1347C74.0897 16.1347 75.4279 15.6741 76.5099 14.758C77.591 13.8378 78.1315 12.571 78.1315 10.9567C78.1315 9.30818 77.591 8.02172 76.5099 7.10252C75.4279 6.18332 74.0897 5.72268 72.4965 5.72268C70.9044 5.72268 69.5641 6.18332 68.4821 7.10252C67.4 8.02172 66.8584 9.30818 66.8584 10.9567ZM64.0394 41.6783L64.0268 35.6703C62.824 36.1112 61.6926 36.4463 60.6326 36.6766C59.5747 36.9111 58.4905 37.0263 57.3832 37.0263C56.3064 37.0263 55.3031 36.8862 54.37 36.6071C53.4349 36.3312 52.6215 35.9193 51.9246 35.3756C51.2288 34.831 50.6746 34.1473 50.2622 33.3235C49.8539 32.5019 49.6471 31.5463 49.6471 30.456C49.6471 28.3499 50.3031 26.7263 51.615 25.5913C52.9311 24.4573 54.6303 23.8888 56.7178 23.8888C58.0161 23.8888 59.2346 24.0569 60.3723 24.393C61.5121 24.7281 62.5396 25.1514 63.4558 25.6608L63.4705 19.2264C62.3003 18.8093 62.2688 18.7678 60.7995 18.4493C59.3375 18.135 57.6666 18.0852 55.8625 18.0852C53.5231 18.0852 51.3789 18.3819 49.4341 18.9701C47.4882 19.5625 45.8121 20.4029 44.4047 21.4912C42.9973 22.5795 41.9058 23.8888 41.1312 25.4159C40.3556 26.9483 39.9683 28.6373 39.9683 30.4923C39.9683 32.368 40.3325 34.0695 41.0588 35.6018C41.7861 37.13 42.8462 38.4248 44.2378 39.4934C45.6295 40.5588 47.3298 41.3826 49.3386 41.9605C51.3484 42.5383 53.6343 42.8288 56.1962 42.8288C58.0004 42.8288 59.6124 42.696 61.0356 42.4273C62.4598 42.1617 62.5774 42.1005 64.0394 41.6783ZM38.1526 26.6692C38.1526 23.9137 36.9961 21.8553 34.6818 20.5004C32.3676 19.1455 29.1833 18.468 25.129 18.468H14.2831V42.445H23.541V35.2512H24.9925C26.9583 35.2512 28.7509 35.0737 30.3703 34.7137C31.9898 34.3569 33.3731 33.8174 34.5234 33.0974C35.6736 32.3794 36.5657 31.4831 37.2007 30.4041C37.8367 29.3272 38.1526 28.0812 38.1526 26.6692ZM92 37.8645L20.7766 60L0 4.15299L74.7719 0L92 37.8645ZM29.2578 26.7729C29.2578 27.9079 28.8517 28.741 28.0341 29.2743C27.2155 29.8075 26.0368 30.0742 24.494 30.0742H23.4497V23.646H24.5853C27.7014 23.646 29.2578 24.6887 29.2578 26.7729Z" fill="white"/>
</svg>
