<svg width="161" height="127" viewBox="0 0 161 127" fill="none" xmlns="http://www.w3.org/2000/svg">
<path d="M15.3879 32.9988H19.025C23.2057 32.9988 23.8899 33.0875 25.3696 33.8198C27.5156 34.8756 29.0837 36.9674 30.4522 40.5979C31.0087 42.0756 31.0005 42.0756 32.238 41.6947L33.0565 41.4435L32.9812 36.0923C32.9403 33.1499 32.8715 30.5325 32.8306 30.278L32.7569 29.8134L16.807 29.7805C8.03495 29.7625 0.686937 29.7805 0.477415 29.8166L0.0976562 29.884L0.132031 30.8347L0.164769 31.7854L1.37934 31.9315C2.95403 32.1203 3.89525 32.5637 4.45343 33.3814C5.7122 35.222 5.94136 37.7293 5.93809 49.6369C5.93809 62.3228 5.67291 65.3999 4.45506 67.0041C3.82813 67.8251 3.31906 68.0993 1.89824 68.3653C0.0452758 68.7101 0.107477 68.6658 0.107477 69.6263C0.107477 70.1616 0.154947 70.4473 0.251524 70.49C0.459409 70.5738 20.86 70.5803 21.0777 70.49C21.3576 70.3816 21.3412 68.871 21.0581 68.7249C20.556 68.5858 20.0445 68.4838 19.5276 68.4195C18.9166 68.3396 18.314 68.205 17.727 68.0172C16.3913 67.4343 15.6481 65.8202 15.3682 62.9024C15.1849 60.8155 15.0212 56.9569 15.0212 54.1047V51.4891L16.2636 51.5268C18.9088 51.6073 20.2773 51.7469 20.8305 51.9915C22.0271 52.5235 22.9961 54.0046 23.4987 56.0751L23.7671 57.1752L24.7116 57.2097L25.6544 57.2426V43.3104L24.7116 43.3432L23.7687 43.3777L23.4921 44.4778C22.9585 46.6124 22.086 47.926 20.8043 48.5155C20.2838 48.7568 19.9139 48.8242 18.6666 48.898C17.8367 48.9489 16.6777 48.9916 16.0901 48.9949H15.0212V45.5468C15.0212 42.0888 15.2045 34.7442 15.3224 33.603L15.3879 32.9988Z" fill="#333333"/>
<path d="M57.1165 53.4692C56.5108 48.3233 54.3337 44.5566 50.7473 42.4368C46.7582 40.0822 40.6952 39.9459 36.3885 42.1084C33.2784 43.6748 30.7363 46.6912 29.6085 50.1541C28.4479 53.7385 28.4479 58.4362 29.6101 62.0814C30.3566 64.4196 31.3682 66.1256 32.9297 67.6772C34.8024 69.5376 37.2528 70.7264 40.0568 71.1369C41.0602 71.283 44.2259 71.2863 45.2637 71.1369C45.8998 71.0362 46.5295 70.898 47.1494 70.7231C52.232 69.2453 55.6989 65.3309 56.8906 59.7219C57.1819 58.359 57.3014 55.0406 57.1165 53.4692ZM37.955 50.5317C38.5737 45.4416 40.1386 42.8621 42.6054 42.8588C43.7169 42.8588 44.3323 43.1297 45.2032 44.0082C47.2722 46.0984 48.2543 50.09 48.238 56.3657C48.2249 61.3721 47.7289 64.5263 46.6174 66.6576C46.0789 67.6904 45.0689 68.6411 44.2505 68.8857C41.0913 69.8266 38.8291 66.807 37.9517 60.4821C37.6702 58.4362 37.6702 52.8683 37.955 50.5317Z" fill="#333333"/>
<path d="M131.004 41.7127C127.828 40.1167 122.924 40.2349 119.336 41.9853C115.938 43.6486 113.607 46.4186 112.298 50.3347C111.618 52.3724 111.404 54.0128 111.479 56.6563C111.522 58.3262 111.599 59.1899 111.771 59.9616C113.111 65.9614 117.212 70.0401 122.947 71.0778C124.209 71.306 127.075 71.311 128.349 71.0877C130.171 70.7675 132.278 69.9547 133.597 69.0565C135.214 67.9613 136.871 66.3128 136.871 65.8021C136.871 65.4902 136.316 64.7726 136.073 64.7726C135.967 64.7726 135.519 65.0074 135.075 65.2948C133.494 66.321 131.981 66.7413 129.878 66.7413C126.976 66.7413 125.131 66.0172 123.289 64.1454C122.471 63.3244 122.134 62.8679 121.71 62.0469C120.778 60.2408 120.275 58.1637 120.201 55.8156L120.168 54.8025L128.722 54.773L137.275 54.7418L137.301 54.1671C137.307 53.5473 137.276 52.9277 137.208 52.3117C136.681 47.0968 134.577 43.509 131.004 41.7127ZM126.565 52.177C125.458 52.2164 123.579 52.264 122.386 52.2821L120.219 52.3182V51.8486C120.246 51.342 120.301 50.8372 120.382 50.3364C121.104 45.6666 122.838 42.8637 125.015 42.8621C127.013 42.8621 128.246 45.6206 128.501 50.6746L128.575 52.1064L126.563 52.177H126.565Z" fill="#333333"/>
<path d="M160.137 57.5756C159.165 55.625 157.376 54.2917 153.627 52.7187C150.566 51.4363 149.029 50.548 148.091 49.5184C147.33 48.6827 147.109 48.0078 147.181 46.7583C147.25 45.6089 147.532 44.9193 148.252 44.1459C149.177 43.1607 150.448 42.8077 151.971 43.1295C154.469 43.6599 156.063 45.3954 157.451 49.062C157.942 50.3756 158.001 50.4117 158.887 50.0816L159.445 49.8731L159.425 48.3658C159.415 47.5366 159.373 45.7961 159.332 44.4973L159.258 42.1378L158.841 41.9604C156.549 40.99 152.197 40.3858 149.357 40.6468C146.132 40.9424 143.763 41.9703 141.94 43.8651C140.116 45.76 139.309 47.9569 139.455 50.5792C139.575 52.7482 140.215 54.3048 141.547 55.6693C142.783 56.9369 143.821 57.5378 146.795 58.702C151.596 60.5837 152.866 61.6986 152.851 64.0171C152.851 65.9743 151.809 67.4078 149.921 68.0761C149.247 68.3158 147.541 68.3125 146.631 68.0761C144.245 67.4455 142.418 65.3717 140.861 61.5279L140.462 60.5427L139.994 60.5657C139.723 60.5801 139.457 60.6389 139.206 60.7397L138.879 60.894L138.91 62.5738C138.926 63.4982 138.972 65.4456 139.011 66.902L139.085 69.5522L139.617 69.7821C140.709 70.2517 143.986 70.9725 146.045 71.1925C146.301 71.2204 147.705 71.2303 149.167 71.2139C151.704 71.1859 151.887 71.1679 153.162 70.8346C156.927 69.8494 159.368 67.7411 160.448 64.5442C160.776 63.559 160.826 63.2618 160.874 61.8021C160.947 59.853 160.769 58.8416 160.137 57.5756Z" fill="#333333"/>
<path d="M77.9601 40.543C76.6179 40.543 75.8927 40.6924 74.8042 41.1916C72.8235 42.1012 71.3356 43.5938 70.0064 45.996L69.5923 46.7464L69.6447 45.4131C69.6742 44.6791 69.7233 43.3097 69.7544 42.3688L69.81 40.6579H69.5317C69.1667 40.6579 57.715 42.9567 57.368 43.0979C57.1438 43.1898 57.1094 43.29 57.1094 43.8417C57.1094 44.3934 57.1372 44.487 57.368 44.5346L58.5384 44.7645C59.55 44.9582 59.8479 45.1159 60.2686 45.6709C61.0396 46.6938 61.1967 48.4983 61.1885 56.1385C61.1885 62.378 61.0526 65.4977 60.758 66.4681C60.3963 67.6618 59.753 68.2743 58.63 68.4812C58.2683 68.5485 57.7903 68.6454 57.5677 68.6914L57.1634 68.7767L57.129 69.578C57.1045 70.1412 57.1388 70.4089 57.2436 70.4762C57.3271 70.5287 61.2442 70.5599 65.9486 70.5435L74.503 70.5172L74.5357 69.6174C74.5554 69.1248 74.5357 68.7193 74.4784 68.7193C73.8139 68.7193 71.7776 68.4385 71.4567 68.3039C70.491 67.8999 70.0245 67.0313 69.8198 65.2678C69.5825 63.1989 69.4434 58.0514 69.5088 53.8331C69.5743 49.5722 69.5759 49.5558 69.8362 49.2701C70.455 48.6034 72.0247 48.0846 73.4374 48.0813C74.5668 48.0813 75.729 48.3703 76.9681 48.9663C77.5623 49.2536 78.114 49.4589 78.186 49.4343C78.3415 49.3752 81.1471 41.9354 81.1471 41.5856C81.1537 41.0635 79.5528 40.543 77.9601 40.543Z" fill="#333333"/>
<path d="M100.013 41.1636C99.3322 41.0224 98.7168 40.9994 97.3942 41.0388C95.4004 41.1094 94.0271 41.4083 92.5375 42.0996C92.0464 42.3278 91.6127 42.515 91.5799 42.515C91.5472 42.515 91.5521 39.4888 91.5914 35.7829C91.6454 30.5713 91.6307 29.0508 91.5226 29.0508C91.1461 29.0508 79.3409 31.3036 79.2116 31.407C79.115 31.4825 79.0741 31.7354 79.0953 32.1131C79.1346 32.7699 79.0561 32.7206 80.4949 33.0441C80.8897 33.1267 81.2699 33.2684 81.6227 33.4644C82.1023 33.8076 82.5017 34.5498 82.7783 35.6138C82.9977 36.4544 83.0272 37.0554 83.127 42.735C83.2301 48.5345 83.2105 54.4965 83.0517 65.4189L82.9846 69.9557L83.8325 70.1494C85.0553 70.4286 88.5598 71.0131 89.7073 71.1346C91.39 71.2988 95.3104 71.2824 96.5593 71.0936C101.979 70.2726 106.066 67.12 107.97 62.2844C108.535 60.7604 108.925 59.1765 109.131 57.5637C109.33 55.8445 109.217 52.4128 108.918 51.0319C107.761 45.7431 104.466 42.0881 100.013 41.1636ZM94.3348 68.8342C93.7259 68.9508 93.5442 68.9541 92.4426 68.867C91.9744 68.8309 91.8713 68.7784 91.7763 68.5288C91.629 68.138 91.449 54.5474 91.5243 49.119L91.5816 44.8811L92.346 44.6545C92.9367 44.493 93.5474 44.4167 94.1597 44.4279C95.1418 44.4279 95.2629 44.4574 96.0879 44.8663C98.0751 45.8515 99.437 48.298 100.07 52.022C100.305 53.3996 100.334 57.1581 100.123 58.8067C99.6023 62.8558 98.283 66.1249 96.5217 67.7078C95.9165 68.291 95.1537 68.6827 94.3283 68.8342H94.3348Z" fill="#333333"/>
<path d="M36.8275 100.135H35.2381V87.8412H30.9102V86.4258H41.1555V87.8412H36.8275V100.135Z" fill="#333333"/>
<path d="M47.3084 100.318C45.7948 100.318 44.5999 99.8554 43.7236 98.9293C42.8473 98.0033 42.4108 96.7187 42.4141 95.0756C42.4141 93.4183 42.8211 92.1047 43.6352 91.1349C44.4493 90.165 45.5405 89.6773 46.909 89.6719C48.1945 89.6719 49.2105 90.0955 49.9569 90.9428C50.7033 91.79 51.0771 92.9077 51.0782 94.2957V95.2809H44.0182C44.0488 96.485 44.3527 97.4007 44.93 98.0279C45.5073 98.6551 46.3186 98.9677 47.364 98.9655C48.491 98.9613 49.6052 98.7255 50.6378 98.2725V99.6485C50.1373 99.8705 49.6158 100.042 49.0811 100.159C48.4972 100.273 47.9032 100.326 47.3084 100.318ZM46.8877 90.969C46.0638 90.969 45.409 91.2378 44.9234 91.7752C44.4378 92.3127 44.1497 93.0565 44.0592 94.0067H49.4151C49.4151 93.0215 49.1968 92.27 48.7603 91.7523C48.3238 91.2345 47.6996 90.9734 46.8877 90.969Z" fill="#333333"/>
<path d="M57.8175 100.324C56.3345 100.324 55.1859 99.8657 54.3718 98.9494C53.5577 98.0332 53.1513 96.7355 53.1523 95.0563C53.1523 93.3377 53.5654 92.0094 54.3915 91.0712C55.2176 90.1331 56.3939 89.6641 57.9206 89.6641C58.4161 89.6662 58.9099 89.7212 59.3938 89.8283C59.7944 89.9041 60.1838 90.0304 60.5527 90.2043L60.0764 91.5179C59.7122 91.3741 59.3373 91.2594 58.9551 91.1747C58.6025 91.0911 58.2419 91.046 57.8797 91.04C55.7976 91.04 54.7565 92.3711 54.7565 95.0333C54.7565 96.2966 55.0108 97.2659 55.5193 97.9413C56.0278 98.6167 56.7802 98.9538 57.7766 98.9527C58.6798 98.9425 59.5723 98.7551 60.4038 98.401V99.7786C59.725 100.142 58.8629 100.324 57.8175 100.324Z" fill="#333333"/>
<path d="M69.8467 100.134V93.4852C69.8467 92.6478 69.6563 92.0228 69.2755 91.6101C68.8946 91.1974 68.2999 90.991 67.4913 90.991C66.4131 90.991 65.6263 91.285 65.1309 91.8728C64.6354 92.4606 64.3877 93.4234 64.3877 94.761V100.134H62.8359V85.543H64.3877V89.9648C64.3922 90.4039 64.3671 90.8427 64.3124 91.2784H64.4057C64.7244 90.7737 65.1782 90.3691 65.7152 90.1109C66.316 89.8181 66.9773 89.6718 67.6451 89.684C68.8968 89.684 69.8364 89.9829 70.4639 90.5805C71.0913 91.1782 71.4045 92.1267 71.4034 93.4261V100.13L69.8467 100.134Z" fill="#333333"/>
<path d="M81.6007 100.133V93.4843C81.6007 92.6469 81.4108 92.0219 81.031 91.6092C80.6512 91.1965 80.056 90.9901 79.2452 90.9901C78.1735 90.9901 77.3884 91.2808 76.8897 91.862C76.391 92.4433 76.1416 93.4033 76.1416 94.7421V100.133H74.5898V89.8555H75.8519L76.104 91.2627H76.1793C76.5038 90.7508 76.9672 90.3424 77.515 90.0854C78.114 89.8021 78.7695 89.6595 79.4318 89.6684C80.666 89.6684 81.5936 89.9667 82.2145 90.5632C82.8354 91.1598 83.147 92.1149 83.1491 93.4285V100.133H81.6007Z" fill="#333333"/>
<path d="M95.1807 94.989C95.1807 96.6638 94.76 97.9719 93.9187 98.9133C93.0773 99.8547 91.9151 100.325 90.4321 100.325C89.5735 100.338 88.7283 100.111 87.9915 99.6686C87.275 99.2261 86.7054 98.5804 86.3546 97.8132C85.9509 96.925 85.7528 95.9567 85.7751 94.9808C85.7751 93.306 86.1925 92.0011 87.0274 91.0663C87.8622 90.1315 89.0216 89.6641 90.5058 89.6641C91.9386 89.6641 93.0773 90.1424 93.9219 91.0991C94.7666 92.0559 95.1862 93.3525 95.1807 94.989ZM87.3744 94.989C87.3744 96.3026 87.6363 97.3031 88.1601 97.9905C88.6839 98.678 89.4538 99.0217 90.4697 99.0217C91.4846 99.0217 92.2556 98.6791 92.7827 97.9938C93.3098 97.3085 93.5733 96.3069 93.5733 94.989C93.5733 93.682 93.3098 92.6897 92.7827 92.0121C92.2556 91.3345 91.4781 90.9952 90.4501 90.9941C89.4352 90.9941 88.6713 91.3285 88.1585 91.9973C87.6456 92.6661 87.3847 93.6634 87.376 94.989H87.3744Z" fill="#333333"/>
<path d="M99.4541 100.134H97.9023V85.543H99.4541V100.134Z" fill="#333333"/>
<path d="M111.585 94.989C111.585 96.6638 111.165 97.9719 110.323 98.9133C109.482 99.8547 108.32 100.325 106.837 100.325C105.979 100.338 105.134 100.111 104.398 99.6686C103.681 99.2261 103.112 98.5804 102.761 97.8132C102.357 96.925 102.159 95.9567 102.181 94.9808C102.181 93.306 102.599 92.0011 103.434 91.0663C104.268 90.1315 105.427 89.6641 106.91 89.6641C108.344 89.6641 109.483 90.1424 110.327 91.0991C111.17 92.0559 111.59 93.3525 111.585 94.989ZM103.781 94.989C103.781 96.3026 104.043 97.3031 104.566 97.9905C105.09 98.678 105.859 99.0217 106.874 99.0217C107.891 99.0217 108.663 98.6791 109.189 97.9938C109.715 97.3085 109.978 96.3069 109.978 94.989C109.978 93.682 109.715 92.6897 109.189 92.0121C108.663 91.3345 107.885 90.9952 106.855 90.9941C105.838 90.9941 105.074 91.3285 104.563 91.9973C104.052 92.6661 103.792 93.6634 103.781 94.989Z" fill="#333333"/>
<path d="M122.691 89.8564V90.8416L120.792 91.0665C121.238 91.6571 121.475 92.3798 121.467 93.1206C121.467 94.1266 121.123 94.9295 120.437 95.5294C119.751 96.1293 118.81 96.4298 117.615 96.4309C117.326 96.4318 117.038 96.4065 116.754 96.3553C116.099 96.7056 115.769 97.1462 115.764 97.6771C115.757 97.8032 115.786 97.9286 115.847 98.0389C115.908 98.1493 115.999 98.2401 116.109 98.3011C116.34 98.4357 116.737 98.503 117.297 98.503H119.11C120.219 98.503 121.072 98.7373 121.666 99.2058C122.261 99.6743 122.562 100.356 122.568 101.25C122.568 102.387 122.113 103.255 121.203 103.853C120.293 104.45 118.963 104.747 117.212 104.743C115.873 104.743 114.841 104.492 114.114 103.992C113.766 103.763 113.483 103.448 113.292 103.077C113.101 102.706 113.009 102.291 113.025 101.874C113.015 101.277 113.228 100.698 113.623 100.252C114.07 99.769 114.66 99.4436 115.305 99.324C115.041 99.2026 114.815 99.0113 114.651 98.7707C114.471 98.5162 114.377 98.2106 114.384 97.8988C114.377 97.5468 114.482 97.2018 114.683 96.9136C114.94 96.5794 115.26 96.3003 115.626 96.0926C115.089 95.8657 114.636 95.4752 114.331 94.9761C113.997 94.4346 113.826 93.807 113.84 93.1699C113.84 92.0435 114.177 91.176 114.85 90.5674C115.524 89.9587 116.477 89.6539 117.71 89.6528C118.199 89.6465 118.687 89.7095 119.159 89.84L122.691 89.8564ZM114.521 101.859C114.511 102.114 114.571 102.367 114.695 102.591C114.818 102.814 115.001 102.999 115.222 103.125C115.688 103.413 116.358 103.557 117.232 103.557C118.534 103.557 119.498 103.362 120.124 102.971C120.751 102.58 121.064 102.05 121.064 101.381C121.064 100.824 120.893 100.441 120.55 100.232C120.208 100.015 119.568 99.9036 118.615 99.9036H116.754C116.05 99.9036 115.502 100.072 115.109 100.409C114.716 100.747 114.52 101.23 114.521 101.859ZM115.366 93.1485C115.366 93.8677 115.569 94.4112 115.975 94.779C116.381 95.1468 116.942 95.3313 117.658 95.3324C119.172 95.3324 119.93 94.5951 119.93 93.1206C119.93 91.575 119.166 90.8027 117.638 90.8038C116.909 90.8038 116.348 91.0008 115.955 91.3949C115.562 91.789 115.366 92.3735 115.366 93.1485Z" fill="#333333"/>
<path d="M123.168 89.8542H124.833L127.075 95.7161C127.567 97.0526 127.873 98.0181 127.992 98.6125H128.067C128.148 98.294 128.318 97.7467 128.576 96.9705C128.835 96.1944 129.681 93.8201 131.113 89.8477H132.778L128.375 101.55C127.938 102.707 127.429 103.528 126.846 104.013C126.24 104.506 125.477 104.765 124.697 104.74C124.225 104.739 123.754 104.684 123.294 104.576V103.328C123.671 103.407 124.055 103.445 124.44 103.442C125.505 103.442 126.266 102.84 126.722 101.635L127.291 100.174L123.168 89.8542Z" fill="#333333"/>
<path d="M38.4757 108.869C36.9753 108.869 35.7896 109.371 34.9188 110.375C34.048 111.379 33.6114 112.753 33.6093 114.496C33.6093 116.292 34.0283 117.678 34.8664 118.655C35.7045 119.633 36.8994 120.122 38.4512 120.122C39.5569 120.099 40.6544 119.926 41.7135 119.606V121.003C40.7663 121.36 39.5976 121.539 38.2073 121.539C36.195 121.539 34.6416 120.926 33.5471 119.7C32.4525 118.474 31.9069 116.733 31.9102 114.477C31.9102 113.065 32.1737 111.827 32.7008 110.764C33.1958 109.731 33.9907 108.873 34.981 108.301C35.974 107.726 37.1444 107.439 38.4921 107.438C39.9249 107.438 41.1772 107.7 42.2488 108.226L41.576 109.595C40.609 109.126 39.55 108.878 38.4757 108.869Z" fill="#333333"/>
<path d="M53.3061 116.203C53.3061 117.88 52.8854 119.189 52.0441 120.128C51.2027 121.067 50.0405 121.538 48.5575 121.54C47.7005 121.555 46.8561 121.331 46.1185 120.893C45.3988 120.451 44.8262 119.805 44.4734 119.036C44.0685 118.148 43.8698 117.18 43.8924 116.203C43.8924 114.529 44.3103 113.224 45.1462 112.289C45.9821 111.354 47.141 110.887 48.623 110.887C50.0569 110.887 51.1956 111.365 52.0392 112.322C52.8827 113.279 53.305 114.572 53.3061 116.203ZM45.5014 116.203C45.5014 117.517 45.7628 118.518 46.2855 119.205C46.8082 119.892 47.5781 120.236 48.5951 120.236C49.6111 120.236 50.3821 119.894 50.9081 119.21C51.4341 118.526 51.6976 117.524 51.6987 116.203C51.6987 114.899 51.4351 113.906 50.9081 113.227C50.381 112.547 49.604 112.207 48.5771 112.209C47.5612 112.209 46.7946 112.543 46.2773 113.212C45.76 113.881 45.5014 114.878 45.5014 116.203Z" fill="#333333"/>
<path d="M57.4878 111.078V117.746C57.4878 118.584 57.6776 119.209 58.0574 119.621C58.4371 120.034 59.0324 120.24 59.8432 120.24C60.9149 120.24 61.6984 119.946 62.1938 119.359C62.6892 118.771 62.937 117.811 62.937 116.48V111.078H64.4887V121.355H63.2087L62.9844 119.978H62.9009C62.5803 120.485 62.1205 120.889 61.5767 121.14C60.9718 121.418 60.3122 121.556 59.6468 121.544C58.4006 121.544 57.4676 121.247 56.8477 120.652C56.2279 120.058 55.918 119.108 55.918 117.802V111.078H57.4878Z" fill="#333333"/>
<path d="M74.7921 121.351V114.705C74.7921 113.866 74.6005 113.242 74.2208 112.828C73.841 112.414 73.2386 112.209 72.4366 112.209C71.3639 112.209 70.5782 112.5 70.0794 113.082C69.5807 113.665 69.3319 114.624 69.333 115.961V121.351H67.7812V111.074H69.0417L69.2937 112.481H69.369C69.6946 111.97 70.1584 111.562 70.7064 111.304C71.3053 111.021 71.9609 110.878 72.6232 110.887C73.8574 110.887 74.785 111.186 75.4059 111.784C76.0268 112.381 76.3384 113.336 76.3406 114.647V121.351H74.7921Z" fill="#333333"/>
<path d="M83.6257 121.54C82.1427 121.54 80.9969 121.082 80.1882 120.166C79.3796 119.249 78.9731 117.954 78.9688 116.279C78.9688 114.559 79.3812 113.231 80.2062 112.294C81.0312 111.357 82.2076 110.888 83.7354 110.887C84.2308 110.89 84.7246 110.945 85.2086 111.051C85.609 111.127 85.9984 111.254 86.3675 111.427L85.8895 112.741C85.5255 112.596 85.1505 112.482 84.7683 112.397C84.4157 112.314 84.0551 112.268 83.6928 112.263C81.6118 112.263 80.5713 113.594 80.5713 116.258C80.5713 117.521 80.825 118.49 81.3324 119.164C81.8399 119.838 82.5928 120.176 83.5913 120.177C84.4919 120.165 85.3816 119.977 86.2104 119.624V121.001C85.5283 121.36 84.6668 121.54 83.6257 121.54Z" fill="#333333"/>
<path d="M88.5187 108.291C88.5187 107.936 88.606 107.675 88.7806 107.508C88.9589 107.347 89.1904 107.258 89.4304 107.258C89.6705 107.258 89.902 107.347 90.0803 107.508C90.1769 107.612 90.2508 107.735 90.2974 107.869C90.3439 108.003 90.3619 108.145 90.3504 108.287C90.3617 108.429 90.3436 108.572 90.2971 108.706C90.2506 108.841 90.1768 108.965 90.0803 109.07C89.995 109.153 89.8941 109.219 89.7834 109.263C89.6728 109.307 89.5545 109.329 89.4354 109.328C89.3145 109.331 89.1942 109.31 89.0817 109.266C88.9692 109.222 88.8667 109.155 88.7806 109.07C88.687 108.964 88.6156 108.841 88.5706 108.707C88.5256 108.574 88.5079 108.432 88.5187 108.291ZM90.2014 121.353H88.6496V111.076H90.2014V121.353Z" fill="#333333"/>
<path d="M95.0401 121.352H93.4883V106.762H95.0401V121.352Z" fill="#333333"/>
<path d="M7.55639 83.7031H5.9375V123.94H7.55639V83.7031Z" fill="#333333"/>
</svg>
