<svg width="65" height="65" viewBox="0 0 65 65" fill="none" xmlns="http://www.w3.org/2000/svg">
<g clip-path="url(#clip0_6_6759)">
<path d="M58.7868 0H6.21324C2.78176 0 0 2.75141 0 6.14545V58.8545C0 62.2486 2.78176 65 6.21324 65H58.7868C62.2182 65 65 62.2486 65 58.8545V6.14545C65 2.75141 62.2182 0 58.7868 0Z" fill="white"/>
<path d="M20.3967 55.0925V57.3268C18.8907 58.1394 17.1519 58.5457 15.1804 58.5457C13.5786 58.5457 12.2198 58.2273 11.1039 57.5908C9.98813 56.9545 9.10506 56.0776 8.45473 54.9606C7.80442 53.8433 7.47925 52.6347 7.47925 51.3347C7.47925 49.2696 8.22197 47.5328 9.70746 46.1246C11.1998 44.7161 13.0378 44.012 15.2215 44.012C16.7275 44.012 18.4013 44.4013 20.2427 45.1801V47.3636C18.5655 46.4155 16.926 45.9416 15.3242 45.9416C13.6813 45.9416 12.3156 46.4562 11.2272 47.4856C10.1456 48.5078 9.60477 49.7908 9.60477 51.3347C9.60477 52.8919 10.1387 54.1716 11.2066 55.1738C12.2745 56.1757 13.6402 56.6768 15.3037 56.6768C17.0424 56.6768 18.7401 56.1488 20.3967 55.0925ZM22.3124 44.1949H24.3661V58.3831H22.3124V44.1949ZM30.6814 52.4315L29.1207 51.4971C28.1416 50.9081 27.4436 50.3293 27.0259 49.7606C26.6151 49.185 26.4098 48.5249 26.4098 47.7801C26.4098 46.6628 26.8 45.7556 27.5803 45.0581C28.3677 44.3606 29.3876 44.012 30.6403 44.012C31.8383 44.012 32.937 44.3438 33.9364 45.0073V47.3128C32.9029 46.3309 31.7905 45.8402 30.5992 45.8402C29.9284 45.8402 29.3773 45.9958 28.946 46.3073C28.5149 46.612 28.2991 47.0048 28.2991 47.4856C28.2991 47.912 28.4566 48.3114 28.7716 48.6839C29.0865 49.0562 29.5965 49.4457 30.3014 49.8518L31.8724 50.7658C33.625 51.7952 34.5011 53.1087 34.5011 54.7065C34.5011 55.8441 34.1145 56.7683 33.3409 57.4793C32.5743 58.1902 31.5747 58.5457 30.3425 58.5457C28.9255 58.5457 27.6352 58.1155 26.4715 57.2557V54.676C27.5803 56.0641 28.864 56.7581 30.322 56.7581C30.9655 56.7581 31.4994 56.582 31.9238 56.2301C32.3552 55.871 32.5707 55.4243 32.5707 54.8894C32.5707 54.0227 31.941 53.2034 30.6814 52.4315ZM39.6822 52.4315L38.1213 51.4971C37.1425 50.9081 36.4442 50.3293 36.0267 49.7606C35.6159 49.185 35.4106 48.5249 35.4106 47.7801C35.4106 46.6628 35.8009 45.7556 36.5811 45.0581C37.3683 44.3606 38.3884 44.012 39.6411 44.012C40.8391 44.012 41.9379 44.3438 42.9373 45.0073V47.3128C41.9035 46.3309 40.7911 45.8402 39.6 45.8402C38.9292 45.8402 38.3782 45.9958 37.9468 46.3073C37.5155 46.612 37.2999 47.0048 37.2999 47.4856C37.2999 47.912 37.4574 48.3114 37.7724 48.6839C38.0871 49.0562 38.5971 49.4457 39.3023 49.8518L40.8733 50.7658C42.6256 51.7952 43.5019 53.1087 43.5019 54.7065C43.5019 55.8441 43.1153 56.7683 42.3417 57.4793C41.5749 58.1902 40.5755 58.5457 39.3434 58.5457C37.9263 58.5457 36.6358 58.1155 35.4723 57.2557V54.676C36.5811 56.0641 37.8646 56.7581 39.3228 56.7581C39.9664 56.7581 40.5002 56.582 40.9246 56.2301C41.356 55.871 41.5715 55.4243 41.5715 54.8894C41.5715 54.0227 40.9418 53.2034 39.6822 52.4315ZM44.807 58.3831V44.1746H49.3558C50.7248 44.1746 51.8167 44.5402 52.6313 45.2713C53.446 46.0026 53.8532 46.9845 53.8532 48.2166C53.8532 49.0427 53.6443 49.774 53.2268 50.4106C52.8094 51.0469 52.2378 51.5106 51.512 51.8018C50.7865 52.0861 49.746 52.2284 48.3906 52.2284H46.8707V58.3831H44.807ZM48.9963 45.9823H46.8707V50.4205H49.1194C49.9546 50.4205 50.5982 50.2276 51.0501 49.8416C51.5017 49.449 51.7278 48.8905 51.7278 48.1658C51.7278 46.7103 50.8173 45.9823 48.9963 45.9823Z" fill="#101036"/>
</g>
<defs>
<clipPath id="clip0_6_6759">
<rect width="65" height="65" fill="white"/>
</clipPath>
</defs>
</svg>
