<svg width="72" height="75" viewBox="0 0 72 75" fill="none" xmlns="http://www.w3.org/2000/svg">
<g clip-path="url(#clip0_6_6762)">
<path d="M8.51941 32.6229V11.4292C12.1835 10.5461 22.6773 8.73584 35.3403 8.55923C48.0033 8.38261 58.7902 10.3989 62.601 11.4292V32.6229H8.51941Z" fill="white" stroke="#101036"/>
<path d="M35.9998 65.7297C12.2567 59.3716 8.51941 46.9644 8.51941 41.2245H63.0407C63.0407 47.8475 58.4239 59.9897 35.9998 65.7297Z" fill="white"/>
<path d="M2.80383 43.9208V6.61107C33.2302 -0.2769 59.4501 3.74107 68.757 6.61107C68.9768 16.7664 69.2846 38.4458 68.757 43.9208C68.0974 50.7648 66.9982 53.1932 58.864 60.4786C52.3566 66.3068 40.9101 70.7072 36.0002 72.1793C31.5301 70.8546 20.6112 66.6601 12.6968 60.4786C4.78243 54.2971 2.80383 46.8643 2.80383 43.9208Z" stroke="white" stroke-width="6"/>
<path d="M19.3939 13.2201H27.2312V15.1005H21.4979V19.2205H27.2312V21.1009H21.4979V27.9781H19.3939V13.2201ZM29.0831 13.2201H31.1871V27.9781H29.0831V13.2201ZM33.9017 27.9781V13.1989H38.562C39.9646 13.1989 41.0832 13.5793 41.9178 14.3399C42.7524 15.1005 43.1697 16.1217 43.1697 17.4034C43.1697 18.2627 42.9558 19.0233 42.5279 19.6853C42.1001 20.3473 41.5146 20.8297 40.7711 21.1326C40.0278 21.4284 38.9617 21.5763 37.5731 21.5763H36.0162V27.9781H33.9017ZM38.1938 15.0793H36.0162V19.6959H38.32C39.1756 19.6959 39.8349 19.4951 40.2978 19.0937C40.7606 18.6852 40.9921 18.1042 40.9921 17.3506C40.9921 15.8364 40.0593 15.0793 38.1938 15.0793ZM48.64 21.7875L47.0409 20.8156C46.0379 20.2029 45.3227 19.6008 44.8949 19.0092C44.4741 18.4105 44.2637 17.7239 44.2637 16.9492C44.2637 15.7871 44.6635 14.8434 45.4628 14.118C46.2696 13.3926 47.3143 13.0299 48.5978 13.0299C49.8254 13.0299 50.951 13.375 51.9746 14.0652V16.4632C50.9158 15.4421 49.7761 14.9315 48.556 14.9315C47.8683 14.9315 47.3038 15.0934 46.8623 15.4174C46.4205 15.7343 46.1993 16.1428 46.1993 16.6428C46.1993 17.0865 46.3607 17.502 46.6834 17.8894C47.0061 18.2768 47.5285 18.6817 48.2509 19.1042L49.8601 20.055C51.6558 21.1255 52.5532 22.4918 52.5532 24.1539C52.5532 25.3371 52.1571 26.2984 51.3647 27.0379C50.579 27.7774 49.5554 28.1471 48.2926 28.1471C46.8412 28.1471 45.5191 27.6999 44.3268 26.8055V24.1222C45.4628 25.5659 46.7779 26.2878 48.272 26.2878C48.9311 26.2878 49.478 26.1047 49.9129 25.7385C50.3548 25.3653 50.5755 24.9004 50.5755 24.344C50.5755 23.4426 49.9305 22.5904 48.64 21.7875Z" fill="#101036"/>
<path d="M22.4492 44.348H24.0809V55.793H22.4492V44.348ZM30.6836 44.2006H31.3525V50.6235H32.6252V52.0161H31.3525V55.793H29.7617V52.0161H24.9401V51.3119L30.6836 44.2006ZM29.7617 50.6235V47.3054L27.1265 50.6235H29.7617ZM36.6805 44.2006C37.7248 44.2006 38.5868 44.7522 39.2667 45.8554C39.952 46.953 40.2946 48.3487 40.2946 50.042C40.2946 51.7786 39.952 53.1906 39.2667 54.2772C38.5868 55.3643 37.703 55.9078 36.6152 55.9078C35.5111 55.9078 34.6246 55.3753 33.9557 54.3104C33.2867 53.2449 32.9522 51.8333 32.9522 50.0747C32.9522 48.3377 33.2975 46.9261 33.9883 45.8391C34.679 44.7467 35.5764 44.2006 36.6805 44.2006ZM36.6968 45.7574H36.6152C35.9898 45.7574 35.4921 46.145 35.1223 46.9204C34.7579 47.6904 34.5757 48.7364 34.5757 50.0584C34.5757 51.4126 34.7551 52.4749 35.1141 53.2449C35.4731 54.0154 35.968 54.4004 36.5989 54.4004C37.2298 54.4004 37.7275 54.0154 38.0919 53.2449C38.4563 52.4749 38.6385 51.4293 38.6385 50.1074C38.6385 48.7801 38.4617 47.7235 38.1082 46.9367C37.7601 46.1503 37.2897 45.7574 36.6968 45.7574ZM41.1271 51.2788H45.1899V52.8767H41.1271V51.2788ZM47.2966 54.2119H51.6367V55.793H44.425V55.6782L45.1103 54.8671C46.1815 53.5346 47.0328 52.4042 47.6637 51.4757C48.3004 50.5471 48.7137 49.8451 48.9041 49.37C49.0997 48.8949 49.1978 48.4251 49.1978 47.9611C49.1978 47.3164 49.0153 46.8003 48.6508 46.4126C48.2867 46.0192 47.8027 45.8227 47.199 45.8227C46.7421 45.8227 46.2906 45.9592 45.8447 46.2325C45.404 46.5 45.0069 46.8793 44.6534 47.3712V45.2902C45.54 44.5638 46.4537 44.2006 47.3946 44.2006C48.3901 44.2006 49.2083 44.5337 49.8503 45.2001C50.4975 45.8664 50.8211 46.7129 50.8211 47.7399C50.8211 48.1986 50.7393 48.69 50.5762 49.2146C50.4188 49.7334 50.1356 50.3339 49.728 51.0169C49.32 51.6938 48.6266 52.6197 47.6474 53.7942L47.2966 54.2119Z" fill="#101036"/>
</g>
<defs>
<clipPath id="clip0_6_6762">
<rect width="72" height="75" fill="white"/>
</clipPath>
</defs>
</svg>
