<svg width="40" height="40" viewBox="0 0 40 40" fill="none" xmlns="http://www.w3.org/2000/svg">
<g clip-path="url(#clip0_2108_7357)">
<path d="M16.0964 0C16.3672 0.0729167 16.6484 0.135417 16.9193 0.21875C20.4193 1.27083 21.6484 5.52083 19.2422 8.27083C18.9714 8.58333 18.6901 8.9375 18.8672 9.34375C19.0547 9.77083 19.513 9.8125 19.9401 9.82292C21.8672 9.83333 23.7943 9.84375 25.7214 9.84375C28.2943 9.85417 30.0755 11.6354 30.0755 14.2188C30.0755 16.3229 30.0859 18.4375 30.0651 20.5417C30.0651 20.8646 30.138 21.0938 30.4505 21.2292C30.7734 21.3646 31.0651 21.3125 31.3151 21.0625C31.888 20.5104 32.5443 20.1042 33.2943 19.8542C36.0964 18.9479 39.4505 20.6042 39.9297 23.7604C39.9401 23.8125 39.9714 23.8542 39.9922 23.8958C39.9922 24.3125 39.9922 24.7292 39.9922 25.1458C39.9714 25.2188 39.9297 25.2812 39.9193 25.3542C39.3984 28.1667 36.7005 30.0104 33.8984 29.4479C32.8984 29.25 32.0443 28.7813 31.3255 28.0729C31.0651 27.8229 30.7734 27.7604 30.4297 27.9062C30.1172 28.0417 30.0651 28.2917 30.0651 28.6042C30.0755 31.0208 30.0859 33.4479 30.0651 35.8646C30.0547 37.6771 28.8359 39.2708 27.1068 39.7917C26.8776 39.8646 26.638 39.9167 26.3984 39.9792C18.7943 39.9792 11.1901 39.9792 3.58594 39.9792C3.51302 39.9583 3.45052 39.9167 3.3776 39.9063C1.8151 39.5625 0.752604 38.6354 0.210937 37.125C0.127604 36.8854 0.0651042 36.6354 -0.0078125 36.3854C0.00260417 28.75 0.00260417 21.0938 0.00260417 13.4375C0.0234375 13.4063 0.0442708 13.375 0.0546875 13.3333C0.544271 11.0833 2.08594 9.83333 4.39844 9.83333C6.55469 9.83333 8.72135 9.83333 10.8776 9.83333C11.0651 9.83333 11.2734 9.8125 11.4505 9.76042C12.0026 9.60417 12.1484 9.28125 11.9297 8.75C11.8672 8.61458 11.7839 8.47917 11.6797 8.36458C9.1901 5.57292 10.3672 1.34375 13.9505 0.239583C14.2422 0.145833 14.5443 0.0833333 14.8464 0C15.263 0 15.6797 0 16.0964 0ZM1.36719 24.9167C1.36719 28.4583 1.36719 32 1.36719 35.5417C1.36719 35.8646 1.3776 36.1979 1.45052 36.5104C1.77344 37.8229 2.84635 38.625 4.30469 38.6354C11.4401 38.6354 18.5755 38.6354 25.7109 38.6354C25.9818 38.6354 26.263 38.625 26.5234 38.5625C27.8672 38.25 28.7005 37.1458 28.7109 35.6667C28.7214 33.1979 28.7214 30.7188 28.7109 28.25C28.7109 27.6979 28.9297 27.3021 29.3672 27C30.3984 26.2604 31.4193 26.3333 32.3776 27.1979C33.3151 28.0521 34.4193 28.4063 35.6589 28.1354C37.1589 27.8125 38.1589 26.875 38.5234 25.375C38.8776 23.9271 38.4401 22.6875 37.2526 21.7708C35.7943 20.6354 33.7005 20.75 32.3464 22.0208C31.8568 22.4792 31.3047 22.7396 30.6172 22.6875C29.4609 22.6042 28.7318 21.8438 28.7318 20.6979C28.7318 18.5208 28.7422 16.3542 28.7318 14.1771C28.7214 12.4271 27.5651 11.2708 25.8151 11.25C23.8255 11.2292 21.8359 11.2083 19.8359 11.1979C17.8776 11.1875 16.9193 9.57292 17.8568 7.86458C18.0859 7.44792 18.3568 7.04167 18.6172 6.63542C18.9818 6.04167 19.2109 5.41667 19.138 4.70833C18.9401 2.78125 17.4193 1.40625 15.4818 1.39583C13.4089 1.38542 11.7109 3.0625 11.7318 5.08333C11.7422 5.82292 12.1068 6.41667 12.4714 7.02083C12.7943 7.54167 13.1276 8.09375 13.3151 8.67708C13.5964 9.54167 13.2318 10.375 12.4297 10.8021C12.0234 11.0208 11.5234 11.1771 11.0651 11.1771C8.82552 11.2188 6.58594 11.1979 4.34635 11.2083C4.02344 11.2083 3.6901 11.2396 3.38802 11.3333C2.1276 11.6875 1.38802 12.7604 1.3776 14.1979C1.36719 17.75 1.36719 21.3333 1.36719 24.9167Z" fill="#014898"/>
<path d="M15.5235 35.5211C9.82562 35.5419 5.21104 31.469 4.51312 26.0523C3.75271 20.1044 8.04437 14.6357 14.0027 13.9794C14.3881 13.9378 14.784 13.9169 15.1694 13.9065C15.6069 13.8961 15.9194 14.1982 15.9194 14.5836C15.9194 14.9586 15.6381 15.2398 15.2006 15.2503C13.5027 15.2919 11.9194 15.7086 10.4402 16.5628C7.04437 18.5419 5.24229 22.4898 5.94021 26.4378C6.61729 30.2294 9.75271 33.344 13.5444 33.9898C18.8777 34.8961 23.7423 31.3961 24.5756 26.0419C25.1485 22.3961 23.3256 18.5523 20.1381 16.6357C19.9923 16.5523 19.8465 16.469 19.7006 16.3753C19.3152 16.1357 19.2006 15.7607 19.3985 15.4169C19.5965 15.0732 19.9819 14.9794 20.3777 15.1982C21.8673 16.0003 23.0965 17.1044 24.0756 18.4898C28.6277 24.969 24.7944 34.094 16.9819 35.3544C16.4298 35.469 15.836 35.4898 15.5235 35.5211Z" fill="#014898"/>
<path d="M12.6481 22.2402C12.6481 22.7819 12.6585 23.2715 12.6377 23.7611C12.6273 23.8652 12.4814 23.9798 12.3773 24.0423C11.6793 24.4069 10.9606 24.7507 10.1793 25.1465C10.721 25.4173 11.1793 25.7194 11.6793 25.8861C12.4814 26.1569 12.8252 26.6361 12.6585 27.4694C12.6273 27.6465 12.6585 27.8236 12.6585 28.0423C12.5023 27.9694 12.3877 27.9277 12.2731 27.8757C10.9398 27.1986 9.61685 26.5111 8.28351 25.8444C8.04393 25.7194 7.98143 25.5736 7.95018 25.3132C7.8981 24.8027 8.07518 24.5319 8.55435 24.3132C9.78351 23.7298 10.9918 23.084 12.2002 22.4694C12.3252 22.3861 12.471 22.334 12.6481 22.2402Z" fill="#014898"/>
<path d="M17.8682 28.0625C17.8682 27.5104 17.8578 27.0312 17.8786 26.5521C17.8891 26.4479 18.0141 26.3125 18.1286 26.2604C18.837 25.8958 19.5661 25.5417 20.3578 25.1458C19.6495 24.7917 19.0141 24.4479 18.3578 24.1562C17.9828 23.9896 17.8161 23.7917 17.8578 23.375C17.8995 23.0208 17.8682 22.6562 17.8682 22.25C18.0349 22.3229 18.1495 22.375 18.2641 22.4375C19.5661 23.1146 20.8682 23.7917 22.1807 24.4583C22.4307 24.5833 22.5245 24.75 22.4828 25C22.4307 25.2917 22.6286 25.625 22.2016 25.8333C20.7745 26.5417 19.3682 27.2917 17.8682 28.0625Z" fill="#014898"/>
<path d="M17.4479 21.3648C17.0833 22.3231 16.7396 23.2189 16.3854 24.1044C15.9271 25.2919 15.4479 26.4689 15.0104 27.6669C14.8958 27.9689 14.75 28.0627 14.4479 28.0419C14.0729 28.0106 13.6979 28.0314 13.2812 28.0314C13.3333 27.8752 13.375 27.7502 13.4167 27.6356C14.1771 25.6564 14.9479 23.6877 15.6979 21.7085C15.8021 21.4273 15.9479 21.3335 16.2396 21.3544C16.6146 21.3856 16.9896 21.3648 17.4479 21.3648Z" fill="#014898"/>
</g>
<defs>
<clipPath id="clip0_2108_7357">
<rect width="40" height="40" fill="white"/>
</clipPath>
</defs>
</svg>
