<svg width="44" height="37" viewBox="0 0 44 37" fill="none" xmlns="http://www.w3.org/2000/svg">
<g clip-path="url(#clip0_2108_7379)">
<path d="M0 18.2492C0.239618 17.853 0.581928 17.7132 1.03834 17.7248C1.95117 17.7481 2.864 17.7365 3.78824 17.7365C3.89093 16.9207 3.94799 16.1283 4.09632 15.3475C5.32864 8.78657 8.95713 4.10185 14.9476 1.46815C22.5697 -1.88807 31.5382 0.699012 36.4561 7.52799C36.536 7.64452 36.6387 7.76106 36.6957 7.88925C36.8555 8.25051 36.7756 8.57681 36.4561 8.82153C36.1366 9.0546 35.8057 9.01964 35.5205 8.75161C35.4178 8.65838 35.3379 8.53019 35.258 8.41366C31.6523 3.68232 26.9056 1.33996 21.0407 1.58468C13.3501 1.88767 6.78917 7.91255 5.55685 15.6622C5.45415 16.3264 5.38569 17.014 5.29441 17.7365C6.15019 17.7365 6.94891 17.7365 7.74764 17.7365C7.91879 17.7365 8.08995 17.7365 8.2611 17.7365C8.60341 17.7365 8.88867 17.8414 9.03701 18.1677C9.18534 18.494 9.10547 18.7853 8.88867 19.065C8.08995 20.1255 7.29122 21.1859 6.48109 22.2464C6.0589 22.7941 5.64813 23.3535 5.22595 23.9012C4.74671 24.5305 4.26748 24.5422 3.81106 23.9129C2.55592 22.2115 1.31219 20.51 0.0684622 18.8086C0.0570518 18.7853 0.0228207 18.7737 0 18.762C0 18.5989 0 18.4241 0 18.2492ZM4.52991 22.3513C5.31723 21.3141 6.04749 20.3352 6.84622 19.2864C5.283 19.2864 3.81106 19.2864 2.27066 19.2864C3.03516 20.3352 3.75401 21.3141 4.52991 22.3513Z" fill="#014898"/>
<path d="M43.8154 18.7736C43.5644 19.1699 43.2107 19.2747 42.7543 19.2631C41.8414 19.2398 40.9286 19.2514 40.0272 19.2514C39.9245 20.0788 39.8675 20.8829 39.7191 21.6637C38.5324 28.0149 35.0637 32.6414 29.3243 35.3333C21.5766 38.9692 12.4141 36.4754 7.37075 29.4949C7.27946 29.3667 7.17677 29.2385 7.10831 29.0987C6.94856 28.7491 7.07408 28.3529 7.39357 28.1431C7.71306 27.945 8.0896 28.0033 8.35204 28.3179C8.7514 28.8073 9.11653 29.3318 9.53871 29.8096C13.0645 33.7018 17.4347 35.6247 22.615 35.4266C30.317 35.1352 36.741 29.4017 38.2129 21.6404C38.3499 20.8829 38.4183 20.1138 38.521 19.2981C38.3271 19.2864 38.1787 19.2631 38.0304 19.2631C37.2317 19.2631 36.4329 19.2514 35.6342 19.2631C35.2691 19.2631 34.9496 19.1932 34.7784 18.8203C34.6187 18.4707 34.7442 18.1793 34.9496 17.888C36.1363 16.2914 37.3229 14.6833 38.5096 13.0751C38.966 12.4574 39.4567 12.4574 39.9359 13.0867C41.2367 14.7998 42.5261 16.5245 43.8154 18.2376C43.8154 18.424 43.8154 18.5988 43.8154 18.7736ZM41.5448 17.7248C40.7461 16.6644 39.993 15.6738 39.2171 14.6366C38.4526 15.6738 37.7223 16.6644 36.9464 17.7248C38.5096 17.7248 39.9816 17.7248 41.5448 17.7248Z" fill="#014898"/>
<path d="M21.5994 30.112C15.2438 29.8673 10.3146 24.5183 10.5428 18.0972C10.771 11.6528 16.0882 6.65345 22.4438 6.90983C28.6054 7.15455 33.5118 12.6317 33.2608 18.9946C33.0326 25.2875 27.7268 30.3334 21.5994 30.112ZM21.9189 8.41313C16.4647 8.40148 12.0375 12.9114 12.0375 18.4934C12.0261 24.0638 16.4305 28.5738 21.8961 28.5854C27.3502 28.5971 31.766 24.0988 31.7775 18.5168C31.7889 12.9464 27.3731 8.42479 21.9189 8.41313Z" fill="#014898"/>
<path d="M19.5106 21.5012C19.6247 21.3381 19.6932 21.1866 19.8073 21.07C22.0551 18.7743 24.303 16.4785 26.5508 14.1828C26.6649 14.0663 26.7676 13.9497 26.9045 13.8682C27.2126 13.6584 27.5435 13.6817 27.806 13.9381C28.0912 14.2061 28.1369 14.5441 27.9315 14.8937C27.863 15.0102 27.7489 15.1151 27.6576 15.22C25.1588 17.7721 22.6599 20.3242 20.161 22.8763C19.6475 23.4008 19.3052 23.4008 18.7804 22.8647C17.8675 21.9441 16.9661 21.0118 16.0533 20.0911C15.768 19.7998 15.6882 19.4619 15.9049 19.1006C16.0875 18.7859 16.3956 18.6811 16.7151 18.7859C16.8977 18.8442 17.0574 18.9841 17.1943 19.1239C17.936 19.8814 18.6777 20.6505 19.5106 21.5012Z" fill="#014898"/>
</g>
<defs>
<clipPath id="clip0_2108_7379">
<rect width="43.8158" height="37" fill="white"/>
</clipPath>
</defs>
</svg>
