<svg width="44" height="42" viewBox="0 0 44 42" fill="none" xmlns="http://www.w3.org/2000/svg">
<g id="Frame 1171276741">
<path id="Vector" d="M30.6209 41C30.4498 40.8086 30.2558 40.6396 30.1189 40.4369C29.0694 38.9054 28.0312 37.3851 27.0045 35.8423C26.7421 35.4595 26.4341 35.2568 25.9549 35.2342C24.9054 35.1892 23.9699 34.7725 23.1029 34.1982C21.8137 33.3311 20.8897 32.1486 20.1025 30.8423C19.7489 30.2455 19.4066 29.6486 18.9617 29.0518C18.9617 29.1869 18.9731 29.3333 18.9617 29.4685C18.9275 29.9977 18.9617 30.5495 18.8362 31.0563C18.5282 32.3288 16.9196 33.5113 15.0258 32.4752C14.3984 33.5788 13.4857 34.2095 12.1624 33.9279C10.8846 33.6577 10.28 32.7568 10.1431 31.4955C9.50425 31.777 8.86539 31.8784 8.20371 31.6644C7.09711 31.3153 6.42403 30.3468 6.42403 29.0631C6.42403 25.6171 6.42403 22.1712 6.42403 18.714C6.42403 18.5676 6.42403 18.4212 6.42403 18.286C5.91066 18.5225 5.44292 18.8041 4.94096 18.9617C3.78872 19.3108 2.71635 19.0968 1.73524 18.4099C1.09638 17.9595 0.868213 17.1599 1.31313 16.5518C2.80761 14.4797 4.25646 12.3514 6.2529 10.6959C6.88036 10.1779 7.53063 9.71622 8.20371 9.2545C8.95666 8.77027 9.31031 8.10586 9.2989 7.21622C9.2875 6.09009 9.31031 4.96396 9.31031 3.83784C9.31031 3.33108 9.53848 3.06081 9.94917 3.06081C10.3485 3.06081 10.588 3.34234 10.588 3.83784C10.588 5.04279 10.588 6.25901 10.5652 7.46396C10.5538 8.56757 10.0975 9.44594 9.20764 10.1104C8.77412 10.4369 8.3292 10.741 7.89569 11.045C6.05896 12.3401 4.73561 14.0856 3.41225 15.8423C3.07 16.3041 2.72776 16.777 2.36269 17.2725C2.95592 17.8131 3.65182 17.9932 4.38195 17.8131C4.81546 17.7005 5.23757 17.4414 5.60263 17.1824C5.91066 16.9685 6.15023 16.6532 6.41262 16.3716C6.65219 16.1126 6.91458 15.8874 7.30246 16.0225C7.72457 16.1802 7.71316 16.5405 7.71316 16.9009C7.71316 19.0968 7.71316 21.2928 7.71316 23.4887C7.71316 25.3018 7.71316 27.1149 7.71316 28.9392C7.71316 29.1306 7.72457 29.3333 7.75879 29.5248C7.89569 30.1329 8.47751 30.5608 9.07074 30.5045C9.69819 30.4482 10.1545 29.9527 10.1659 29.3108C10.1773 28.6351 10.1659 27.9595 10.1659 27.2838C10.1659 25.0428 10.1659 22.8131 10.1659 20.5721C10.1659 20.4369 10.1545 20.2905 10.1887 20.1554C10.2686 19.8288 10.4854 19.6374 10.8276 19.6486C11.1813 19.6599 11.398 19.8739 11.4437 20.2342C11.4551 20.3694 11.4551 20.5158 11.4551 20.6509C11.4551 24.1419 11.4551 27.6329 11.4551 31.1239C11.4551 31.2477 11.4551 31.3829 11.4551 31.5068C11.4893 32.2162 11.9912 32.723 12.6757 32.7342C13.3374 32.7455 13.8736 32.2275 13.9192 31.5405C13.9306 31.4167 13.9192 31.2928 13.9192 31.1577C13.9192 29.4122 13.9192 27.6667 13.9192 25.9212C13.9192 25.3581 14.1474 25.0541 14.5695 25.0653C14.9802 25.0766 15.197 25.3806 15.2084 25.9437C15.2084 27.3739 15.2084 28.8153 15.2084 30.2455C15.2084 31.0563 15.6989 31.6081 16.3948 31.6194C17.1135 31.6194 17.6611 31.045 17.6726 30.2568C17.684 29.0518 17.684 27.8356 17.6726 26.6306C17.6726 26.473 17.6155 26.3041 17.5471 26.1577C17.0451 25.1667 16.3264 24.3333 15.4365 23.6351C14.946 23.2523 14.5923 22.7568 14.444 22.1486C14.1816 21.045 14.6151 19.9302 15.5734 19.3108C16.5203 18.7027 17.741 18.7252 18.6537 19.4234C19.4522 20.0315 20.228 20.6734 21.0266 21.3041C21.1293 21.3829 21.2433 21.4617 21.4259 21.5968C21.4259 21.3604 21.4259 21.214 21.4259 21.0563C21.4259 18.9054 21.403 16.7432 21.4373 14.5923C21.4715 12.4977 20.5702 10.8986 18.859 9.72748C18.0262 9.15315 17.6611 8.45495 17.6726 7.46396C17.7182 4.81757 17.7182 5.41441 17.7296 2.76802C17.7296 2.63288 17.7296 2.48649 17.7296 2.31757C15.3681 2.31757 13.018 2.31757 10.6109 2.31757C10.6109 2.84685 10.6109 3.37613 10.6109 3.90541C10.6109 4.4009 10.3713 4.67117 9.96058 4.67117C9.5727 4.65991 9.33313 4.38964 9.33313 3.92793C9.33313 3.20721 9.33313 2.48649 9.34454 1.77703C9.35594 1.22523 9.58411 1 10.1203 1C12.824 1 15.5392 1 18.243 1C18.8134 1 19.0301 1.23649 19.0187 1.85586C19.0073 4.78378 18.9959 4.46847 18.9503 7.3964C18.9389 7.98198 19.1214 8.3536 19.612 8.69144C21.654 10.1216 22.7606 12.0473 22.7036 14.5698C22.6922 15.0428 22.7264 15.527 22.6922 16C22.6694 16.3604 22.7949 16.5405 23.1257 16.7095C24.9852 17.6104 26.8448 18.5338 28.6929 19.4797C29.4116 19.8513 30.0961 20.2793 30.7806 20.7072C33.0851 22.1486 34.0548 24.2207 33.7354 26.8896C33.7011 27.1374 33.6555 27.4077 33.7011 27.6441C33.7696 27.982 33.8608 28.3198 34.032 28.6126C34.3058 29.0856 34.6594 29.5135 34.9789 29.964C35.2412 30.3468 35.1842 30.7072 34.8648 30.9212C34.5568 31.1239 34.2031 31.045 33.9407 30.6959C33.5528 30.1779 33.1649 29.6486 32.8113 29.1081C32.3778 28.455 32.4006 27.7342 32.4348 26.991C32.469 26.3604 32.469 25.7297 32.4348 25.0991C32.3664 24.0968 31.91 23.2523 31.1343 22.6104C30.4612 22.0586 29.7539 21.5068 28.9895 21.0901C26.9931 20.009 24.951 19.0068 22.9203 17.982C22.8747 17.9595 22.8177 17.9482 22.7036 17.9144C22.7036 18.0946 22.7036 18.2523 22.7036 18.3986C22.7036 19.705 22.715 21.0113 22.6922 22.3288C22.6922 22.6667 22.8063 22.9032 23.0116 23.1622C23.4793 23.759 23.9129 24.3896 24.3122 25.0315C24.5631 25.4257 24.449 25.7973 24.1068 25.9775C23.7531 26.1689 23.3995 26.0225 23.1713 25.5833C22.5667 24.4009 21.6768 23.455 20.6729 22.6216C19.8173 21.9009 18.9275 21.2252 18.049 20.527C17.3417 19.964 16.5089 19.9865 15.9841 20.5833C15.4365 21.2027 15.5164 22.036 16.2579 22.6216C17.5014 23.6239 18.357 24.8851 19.0872 26.2815C19.9884 27.982 20.9353 29.6712 21.9506 31.3041C22.5096 32.205 23.3196 32.9482 24.3007 33.4099C24.894 33.6914 25.5556 33.8604 26.2059 33.9617C26.9589 34.0856 27.5407 34.3896 27.9742 35.009C28.9667 36.4842 29.9706 37.9595 30.9746 39.4234C31.0658 39.5586 31.2712 39.705 31.4309 39.705C34.3058 39.7162 37.1921 39.7162 40.0669 39.7162C40.1126 39.7162 40.1468 39.7049 40.2381 39.6824C40.1468 39.536 40.0669 39.4122 39.9871 39.2883C38.6181 37.3513 37.2605 35.4032 35.8915 33.4662C35.7888 33.3311 35.6291 33.1734 35.6405 33.0383C35.6519 32.8018 35.6976 32.464 35.8573 32.3514C36.017 32.2275 36.3478 32.2838 36.5874 32.3288C36.6901 32.3513 36.7814 32.5203 36.8612 32.6329C38.5382 35.009 40.2152 37.3964 41.8808 39.7725C42.2687 40.3243 42.2345 40.5608 41.7211 40.9775C38.0363 41 34.3286 41 30.6209 41Z" fill="#014898" stroke="#014898" stroke-width="0.1"/>
</g>
</svg>
