<svg width="39" height="48" viewBox="0 0 39 48" fill="none" xmlns="http://www.w3.org/2000/svg">
<g id="Frame 1171276742">
<g id="Group">
<path id="Vector" d="M14.6512 19.3C12.8325 19.3 11.1149 19.3 9.49834 19.3C8.18487 19.3 7.67969 18.8 7.67969 17.5C7.67969 15.5 7.67969 13.6 7.67969 11.6C7.67969 10.6 8.28591 10 9.29627 10C11.1149 10 12.8325 10 14.6512 10C14.6512 9.8 14.6512 9.6 14.6512 9.5C14.6512 7.9 14.6512 6.3 14.6512 4.7C14.6512 3.6 15.2574 3 16.3688 3C18.3895 3 20.4103 3 22.431 3C23.5424 3 24.0476 3.6 24.0476 4.6C24.0476 6.2 24.0476 7.8 24.0476 9.3C24.0476 9.5 24.0476 9.6 24.0476 9.9C24.2496 9.9 24.4517 9.9 24.5527 9.9C26.1693 9.9 27.7859 9.9 29.4025 9.9C30.5139 9.9 31.1201 10.5 31.1201 11.6C31.1201 13.6 31.1201 15.6 31.1201 17.6C31.1201 18.7 30.5139 19.2 29.5035 19.2C27.8869 19.2 26.2704 19.2 24.6538 19.2C24.4517 19.2 24.3507 19.2 24.0476 19.2C24.0476 19.4 24.0476 19.6 24.0476 19.7C24.0476 21.3 24.0476 22.9 24.0476 24.4C24.0476 25.5 23.4413 26.1 22.3299 26.1C20.3092 26.1 18.2885 26.1 16.2678 26.1C15.1564 26.1 14.5502 25.5 14.5502 24.4C14.5502 22.8 14.5502 21.2 14.5502 19.7C14.6512 19.7 14.6512 19.5 14.6512 19.3ZM9.19523 17.8C9.3973 17.8 9.59938 17.8 9.70041 17.8C11.317 17.8 12.9336 17.8 14.5502 17.8C15.6616 17.8 16.1667 18.3 16.1667 19.4C16.1667 21 16.1667 22.6 16.1667 24.2C16.1667 24.4 16.1667 24.5 16.1667 24.7C18.2885 24.7 20.4103 24.7 22.532 24.7C22.532 24.5 22.532 24.3 22.532 24.2C22.532 22.7 22.532 21.1 22.532 19.6C22.532 18.3 23.0372 17.8 24.2496 17.8C25.8662 17.8 27.3818 17.8 28.9983 17.8C29.2004 17.8 29.3014 17.8 29.5035 17.8C29.5035 15.7 29.5035 13.6 29.5035 11.5C29.3014 11.5 29.0994 11.5 28.9983 11.5C27.3818 11.5 25.7652 11.5 24.2496 11.5C23.1382 11.5 22.532 11 22.532 9.8C22.532 8.2 22.532 6.6 22.532 5C22.532 4.8 22.532 4.7 22.532 4.5C20.4103 4.5 18.2885 4.5 16.1667 4.5C16.1667 4.7 16.1667 4.9 16.1667 5C16.1667 6.5 16.1667 8.1 16.1667 9.6C16.1667 10.8 15.6616 11.3 14.3481 11.3C12.7315 11.3 11.216 11.3 9.59938 11.3C9.3973 11.3 9.29627 11.3 9.0942 11.3C9.19523 13.6 9.19523 15.7 9.19523 17.8Z" fill="#014898"/>
<path id="Vector_2" d="M10.0026 26.2984C10.9119 26.2984 11.8212 26.2984 12.6295 26.2984C13.5389 26.2984 13.943 26.6984 13.943 27.5984C13.943 28.6984 13.943 29.7984 13.943 30.8984C13.943 31.6984 13.5389 32.1984 12.6295 32.1984C11.7202 32.1984 10.9119 32.1984 9.90155 32.1984C9.90155 32.3984 9.90155 32.5984 9.90155 32.6984C9.90155 33.3984 9.90155 34.1984 9.90155 34.8984C9.90155 35.6984 9.39637 36.1984 8.58808 36.1984C7.47668 36.1984 6.26425 36.1984 5.15285 36.1984C4.4456 36.2984 3.94041 35.7984 3.94041 34.9984C3.94041 34.0984 3.94041 33.1984 3.94041 32.2984C3.73834 32.2984 3.53627 32.2984 3.43523 32.2984C2.62694 32.2984 1.81865 32.2984 1.1114 32.2984C0.505181 32.2984 0 31.8984 0 31.2984C0 29.9984 0 28.6984 0 27.4984C0 26.7984 0.505181 26.4984 1.1114 26.3984C2.02073 26.3984 2.93005 26.3984 3.94041 26.3984C3.94041 25.4984 3.94041 24.5984 3.94041 23.6984C3.94041 23.3984 4.04145 22.9984 4.24352 22.7984C4.4456 22.5984 4.84974 22.3984 5.25389 22.3984C6.36529 22.3984 7.47668 22.3984 8.68912 22.3984C9.59845 22.3984 10.0026 22.7984 10.0026 23.6984C10.0026 24.4984 10.0026 25.3984 10.0026 26.2984ZM12.4275 27.7984C11.5181 27.7984 10.6088 27.7984 9.69948 27.7984C8.89119 27.7984 8.48705 27.2984 8.48705 26.5984C8.48705 26.1984 8.48705 25.7984 8.48705 25.3984C8.48705 24.8984 8.48705 24.3984 8.48705 23.8984C7.47668 23.8984 6.46632 23.8984 5.45596 23.8984C5.45596 24.7984 5.45596 25.6984 5.45596 26.5984C5.45596 27.3984 5.05181 27.7984 4.24352 27.7984C3.94041 27.7984 3.53627 27.7984 3.23316 27.7984C2.62694 27.7984 2.02073 27.7984 1.41451 27.7984C1.41451 28.7984 1.41451 29.7984 1.41451 30.6984C1.51554 30.6984 1.51554 30.6984 1.51554 30.6984C2.32383 30.6984 3.13212 30.6984 3.94041 30.6984C4.95078 30.6984 5.35492 31.0984 5.35492 32.0984C5.35492 32.9984 5.35492 33.7984 5.35492 34.6984C6.36529 34.6984 7.37565 34.6984 8.38601 34.6984C8.38601 33.8984 8.38601 33.0984 8.38601 32.1984C8.38601 31.0984 8.79016 30.6984 9.90155 30.6984C10.7098 30.6984 11.5181 30.6984 12.3264 30.6984C12.4275 29.7984 12.4275 28.7984 12.4275 27.7984Z" fill="#014898"/>
<path id="Vector_3" d="M34.8581 28.2016C35.7674 28.2016 36.6767 28.2016 37.485 28.2016C38.3943 28.2016 38.8995 28.6016 38.8995 29.5016C38.8995 30.6016 38.8995 31.7016 38.8995 32.8016C38.8995 33.7016 38.4954 34.1016 37.586 34.1016C36.6767 34.1016 35.8684 34.1016 34.8581 34.1016C34.8581 34.8016 34.8581 35.5016 34.8581 36.2016C34.8581 36.4016 34.8581 36.6016 34.8581 36.9016C34.8581 37.6016 34.3529 38.1016 33.6456 38.1016C32.4332 38.1016 31.3218 38.1016 30.1094 38.1016C29.2 38.1016 28.7959 37.7016 28.7959 36.8016C28.7959 36.1016 28.7959 35.4016 28.7959 34.6016C28.7959 34.4016 28.7959 34.3016 28.7959 34.1016C28.0886 34.1016 27.4824 34.1016 26.8762 34.1016C26.5731 34.1016 26.27 34.1016 25.9669 34.1016C25.2596 34.1016 24.8555 33.6016 24.8555 32.9016C24.8555 31.7016 24.8555 30.5016 24.8555 29.3016C24.8555 28.6016 25.3606 28.1016 26.0679 28.1016C26.9772 28.1016 27.8866 28.1016 28.8969 28.1016C28.8969 27.8016 28.8969 27.6016 28.8969 27.4016C28.8969 26.7016 28.8969 26.0016 28.8969 25.3016C28.8969 24.6016 29.3011 24.1016 30.0083 24.1016C31.3218 24.1016 32.6353 24.1016 33.8477 24.1016C34.5549 24.1016 34.9591 24.6016 34.9591 25.3016C34.8581 26.3016 34.8581 27.2016 34.8581 28.2016ZM37.2829 29.7016C36.3736 29.7016 35.5653 29.7016 34.757 29.7016C33.6456 29.7016 33.2415 29.3016 33.2415 28.2016C33.2415 27.4016 33.2415 26.6016 33.2415 25.7016C32.2311 25.7016 31.2208 25.7016 30.2104 25.7016C30.2104 26.6016 30.2104 27.5016 30.2104 28.5016C30.2104 29.3016 29.7052 29.7016 28.998 29.7016C28.5938 29.7016 28.1897 29.7016 27.6845 29.7016C27.1793 29.7016 26.6741 29.7016 26.1689 29.7016C26.1689 30.7016 26.1689 31.7016 26.1689 32.7016C26.371 32.7016 26.5731 32.7016 26.6741 32.7016C27.4824 32.7016 28.2907 32.7016 28.998 32.7016C29.6042 32.7016 30.0083 33.1016 30.1094 33.7016C30.1094 33.9016 30.1094 34.1016 30.1094 34.4016C30.1094 35.2016 30.1094 35.9016 30.1094 36.7016C31.1197 36.7016 32.1301 36.7016 33.1404 36.7016C33.1404 35.8016 33.1404 34.9016 33.1404 34.1016C33.1404 33.2016 33.5446 32.8016 34.4539 32.8016C34.656 32.8016 34.8581 32.8016 35.0601 32.8016C35.7674 32.8016 36.4746 32.8016 37.1819 32.8016C37.2829 31.7016 37.2829 30.7016 37.2829 29.7016Z" fill="#014898"/>
<path id="Vector_4" d="M17.3787 44.9992C16.7725 44.9992 16.1663 44.9992 15.5601 44.9992C14.6508 44.9992 14.3477 44.5992 14.3477 43.7992C14.3477 42.9992 14.3477 42.0992 14.3477 41.2992C14.3477 40.4992 14.7518 40.0992 15.5601 40.0992C16.1663 40.0992 16.6715 40.0992 17.2777 40.0992C17.2777 40.0992 17.3787 40.0992 17.4798 40.0992C17.4798 39.4992 17.4798 38.8992 17.4798 38.3992C17.4798 37.5992 17.8839 37.1992 18.6922 37.1992C19.5005 37.1992 20.3088 37.1992 21.1171 37.1992C21.9254 37.1992 22.3295 37.5992 22.3295 38.3992C22.3295 38.9992 22.3295 39.4992 22.3295 40.0992C22.3295 40.0992 22.3295 40.1992 22.4306 40.1992C22.9357 40.1992 23.542 40.1992 24.1482 40.1992C25.0575 40.1992 25.4616 40.5992 25.4616 41.3992C25.4616 42.1992 25.4616 42.9992 25.4616 43.7992C25.4616 44.5992 25.0575 44.9992 24.2492 44.9992C23.643 44.9992 23.0368 44.9992 22.4306 44.9992C22.4306 45.5992 22.4306 46.1992 22.4306 46.7992C22.4306 47.5992 22.0264 47.9992 21.2181 47.9992C20.4098 47.9992 19.5005 47.9992 18.6922 47.9992C17.8839 47.9992 17.4798 47.5992 17.4798 46.7992C17.3787 46.1992 17.3787 45.5992 17.3787 44.9992ZM20.814 46.4992C20.814 45.8992 20.814 45.2992 20.814 44.6992C20.814 43.8992 21.2181 43.4992 22.0264 43.4992C22.6326 43.4992 23.2388 43.4992 23.8451 43.4992C23.8451 42.7992 23.8451 42.2992 23.8451 41.5992C23.2388 41.5992 22.7337 41.5992 22.1274 41.5992C21.1171 41.5992 20.7129 41.1992 20.7129 40.1992C20.7129 39.5992 20.7129 39.0992 20.7129 38.4992C20.1067 38.4992 19.6015 38.4992 19.0964 38.4992C18.9953 38.4992 18.9953 38.4992 18.7933 38.4992C18.7933 39.0992 18.7933 39.6992 18.7933 40.1992C18.7933 41.0992 18.3891 41.4992 17.5808 41.4992C16.9746 41.4992 16.4694 41.4992 15.7622 41.4992C15.7622 42.1992 15.7622 42.6992 15.7622 43.2992C15.8632 43.2992 15.8632 43.3992 15.8632 43.3992C16.3684 43.3992 16.9746 43.3992 17.4798 43.3992C18.3891 43.3992 18.7933 43.7992 18.7933 44.6992C18.7933 45.2992 18.7933 45.7992 18.7933 46.3992C19.6015 46.4992 20.1067 46.4992 20.814 46.4992Z" fill="#014898"/>
</g>
</g>
</svg>
