<svg width="40" height="40" viewBox="0 0 40 40" fill="none" xmlns="http://www.w3.org/2000/svg">
<g clip-path="url(#clip0_2002_1912)">
<path d="M0 36.9639C0.345528 35.9375 1.06707 35.531 2.13415 35.5818C2.94715 35.6225 3.75 35.592 4.61382 35.592C4.61382 35.3989 4.61382 35.2363 4.61382 35.0737C4.61382 31.6489 4.61382 28.2139 4.61382 24.7891C4.61382 24.6672 4.61382 24.5351 4.61382 24.4131C4.64431 24.0473 4.85772 23.8135 5.17276 23.8034C5.49797 23.7932 5.73171 24.0473 5.75203 24.4233C5.7622 24.5452 5.75203 24.6773 5.75203 24.7993C5.75203 28.2139 5.75203 31.6286 5.75203 35.0533C5.75203 35.216 5.75203 35.3786 5.75203 35.5716C6.85976 35.5716 7.93699 35.5716 9.06504 35.5716C9.06504 35.4395 9.06504 35.2871 9.06504 35.1448C9.06504 31.72 9.06504 28.2851 9.06504 24.8603C9.06504 24.1692 9.21748 24.0168 9.9187 24.0168C16.2805 24.0168 22.6423 24.0168 29.0142 24.0168C29.7256 24.0168 29.8781 24.1692 29.8781 24.8908C29.8781 28.2952 29.8781 31.6997 29.8781 35.1042C29.8781 35.2566 29.8781 35.409 29.8781 35.5818C31.0163 35.5818 32.124 35.5818 33.252 35.5818C33.252 30.8359 33.252 26.1204 33.252 21.3745C24.0955 21.3745 14.9594 21.3745 5.78252 21.3745C5.69106 21.8013 5.91463 22.4924 5.1626 22.4721C4.46138 22.4517 4.65447 21.8216 4.5935 21.344C4.17683 21.344 3.77033 21.344 3.37398 21.344C2.78455 21.344 2.54065 21.0493 2.68293 20.5005C3.49594 17.4009 4.31911 14.2912 5.13211 11.1916C5.23374 10.8155 5.47764 10.6631 5.86382 10.6733C7.34756 10.6834 8.8313 10.6733 10.3252 10.6733C10.4675 10.6733 10.5996 10.6733 10.7927 10.6733C10.7927 10.4802 10.7927 10.3176 10.7927 10.155C10.7927 7.16717 10.7927 4.18953 10.7927 1.20173C10.7927 0.266768 11.0671 0.00254065 11.9919 0.00254065C15.2033 0.00254065 18.4146 0.00254065 21.6362 0.00254065C21.7581 0.00254065 21.8902 -0.00762195 22.0122 0.0127033C22.3069 0.0736789 22.4898 0.246443 22.5 0.561484C22.5102 0.886687 22.3171 1.07978 22.0122 1.14075C21.8902 1.16108 21.7581 1.15091 21.6362 1.15091C18.5772 1.15091 15.5183 1.15091 12.4492 1.15091C12.2967 1.15091 12.1443 1.15091 11.9715 1.15091C11.9715 6.11026 11.9715 11.0391 11.9715 15.9985C17.0122 15.9985 22.0325 15.9985 27.0833 15.9985C27.0833 11.0595 27.0833 6.14075 27.0833 1.15091C26.9512 1.15091 26.8191 1.15091 26.687 1.15091C25.9756 1.15091 25.2642 1.16108 24.5528 1.15091C24.1667 1.14075 23.9329 0.907012 23.9431 0.571646C23.9533 0.246443 24.1768 0.0228659 24.5427 0.0127033C25.4776 0.00254065 26.4228 0.00254065 27.3577 0.0127033C27.876 0.0228659 28.2012 0.348069 28.2419 0.866362C28.252 1.00864 28.252 1.14075 28.252 1.28303C28.252 4.23018 28.252 7.17734 28.252 10.1245C28.252 10.2871 28.252 10.4497 28.252 10.6733C28.4146 10.6733 28.5468 10.6733 28.6789 10.6733C30.1626 10.6733 31.6463 10.6733 33.1402 10.6733C33.6382 10.6733 33.8008 10.7952 33.9228 11.2627C34.7256 14.3115 35.5386 17.3704 36.3415 20.4192C36.5041 21.0493 36.2907 21.3338 35.6301 21.3338C35.2541 21.3338 34.8679 21.3338 34.4614 21.3338C34.4614 26.0899 34.4614 30.8155 34.4614 35.592C35.3049 35.592 36.1382 35.592 36.9715 35.592C37.1951 35.592 37.4289 35.5818 37.6524 35.6326C38.4146 35.7851 38.9634 36.405 39.0346 37.157C39.1057 37.9294 38.6484 38.6306 37.9065 38.9253C37.8252 38.9558 37.7439 38.9964 37.6626 39.0269C35.5996 39.0269 33.5467 39.0269 31.4837 39.0269C31.2602 38.8135 31.0569 38.5798 31.1992 38.2342C31.3415 37.8887 31.6463 37.8786 31.9715 37.8786C33.6585 37.8887 35.3455 37.8786 37.0427 37.8786C37.622 37.8786 37.8963 37.6855 37.8963 37.2993C37.8963 36.9131 37.6118 36.7302 37.0325 36.7302C25.3659 36.7302 13.689 36.7302 2.02236 36.7302C1.91057 36.7302 1.78862 36.72 1.67683 36.7403C1.36179 36.7912 1.1687 36.9842 1.1687 37.3094C1.1687 37.6347 1.36179 37.8277 1.67683 37.8684C1.80894 37.8887 1.95122 37.8786 2.0935 37.8786C11.0976 37.8786 20.1016 37.8786 29.1057 37.8786C29.4309 37.8786 29.7256 37.9192 29.8577 38.2647C29.9898 38.6204 29.7764 38.8338 29.5122 39.0269C20.1321 39.0269 10.7622 39.0269 1.38211 39.0269C0.691057 38.8033 0.23374 38.346 0.0101626 37.655C0 37.4212 0 37.1875 0 36.9639ZM28.2419 11.8115C28.2419 12.0046 28.2419 12.157 28.2419 12.2993C28.2419 13.5696 28.2419 14.8399 28.2419 16.1103C28.2419 16.8216 27.9167 17.1367 27.2154 17.1367C22.0833 17.1367 16.9512 17.1367 11.8191 17.1367C11.128 17.1367 10.7927 16.8115 10.7927 16.1103C10.7825 14.8399 10.7927 13.5696 10.7927 12.2993C10.7927 12.1468 10.7927 11.9944 10.7927 11.8216C10.6504 11.8115 10.5386 11.8013 10.4268 11.8013C9.11585 11.8013 7.80488 11.8115 6.50407 11.7912C6.22968 11.7912 6.13821 11.8826 6.07724 12.1367C5.64024 13.844 5.18293 15.5513 4.73577 17.2485C4.48171 18.2139 4.22764 19.1794 3.96341 20.1651C14.3496 20.1651 24.7053 20.1651 35.061 20.1651C35.061 20.1143 35.0711 20.0737 35.061 20.0432C34.3598 17.3704 33.6484 14.6977 32.9472 12.0249C32.8862 11.8013 32.7642 11.8013 32.5813 11.8013C31.4736 11.8013 30.376 11.8013 29.2683 11.8013C28.9329 11.8115 28.6077 11.8115 28.2419 11.8115ZM24.9085 25.1753C21.2703 25.1753 17.6626 25.1753 14.0549 25.1753C14.0549 28.6611 14.0549 32.1164 14.0549 35.5716C17.6829 35.5716 21.2907 35.5716 24.9085 35.5716C24.9085 32.1062 24.9085 28.6509 24.9085 25.1753ZM10.2236 35.5716C11.128 35.5716 11.9817 35.5716 12.8557 35.5716C12.8557 32.096 12.8557 28.6408 12.8557 25.1753C11.9715 25.1753 11.0976 25.1753 10.2236 25.1753C10.2236 28.6509 10.2236 32.096 10.2236 35.5716ZM28.7094 35.592C28.7094 32.0859 28.7094 28.6306 28.7094 25.1651C27.8252 25.1651 26.9614 25.1651 26.0874 25.1651C26.0874 28.6407 26.0874 32.096 26.0874 35.5716C26.1789 35.5716 26.25 35.5818 26.3313 35.5818C27.1138 35.592 27.8963 35.592 28.7094 35.592Z" fill="#014898"/>
<path d="M17.4695 10.4294C16.9715 10.4294 16.5142 10.4294 16.0671 10.4294C15.4472 10.4192 15.1524 10.1347 15.1423 9.5249C15.1321 8.7627 15.1321 8.00051 15.1423 7.23831C15.1524 6.62856 15.4472 6.344 16.0772 6.33384C16.5041 6.32368 16.9411 6.32368 17.3679 6.32368C17.3882 6.32368 17.4085 6.30335 17.4797 6.27287C17.4797 5.83587 17.4797 5.38872 17.4797 4.9314C17.4898 4.29116 17.7744 4.00661 18.4146 3.99644C19.1667 3.98628 19.9085 3.98628 20.6606 3.99644C21.2805 4.00661 21.565 4.29116 21.5752 4.91108C21.5854 5.36839 21.5752 5.81555 21.5752 6.32368C22.063 6.32368 22.5102 6.32368 22.9675 6.32368C23.6077 6.33384 23.9024 6.60823 23.9126 7.24848C23.9228 8.00051 23.9228 8.74238 23.9126 9.49441C23.9024 10.1245 23.6077 10.409 22.9573 10.4192C22.5102 10.4192 22.0732 10.4192 21.5752 10.4192C21.5752 10.8765 21.5752 11.3237 21.5752 11.7607C21.5752 12.4721 21.2907 12.7566 20.5793 12.7566C19.8679 12.7668 19.1565 12.7668 18.4451 12.7566C17.7642 12.7464 17.4797 12.4619 17.4797 11.7708C17.4594 11.3542 17.4695 10.9172 17.4695 10.4294ZM20.376 11.5981C20.3963 11.5473 20.4065 11.5269 20.4167 11.5066C20.4167 11.0595 20.4167 10.6225 20.4268 10.1753C20.437 9.57571 20.7215 9.30132 21.3211 9.29116C21.7886 9.29116 22.2561 9.29116 22.7337 9.29116C22.7337 8.67124 22.7337 8.09197 22.7337 7.48221C22.2663 7.48221 21.8191 7.48221 21.3821 7.48221C20.7012 7.48221 20.437 7.21799 20.437 6.53709C20.437 6.08994 20.437 5.63262 20.437 5.18547C19.8069 5.18547 19.2276 5.18547 18.6687 5.18547C18.6484 5.24644 18.6382 5.26677 18.6382 5.29726C18.6382 5.72408 18.6382 6.16108 18.628 6.58791C18.6179 7.1875 18.3333 7.47205 17.7439 7.48221C17.2764 7.48221 16.8089 7.48221 16.3313 7.48221C16.3313 8.10213 16.3313 8.6814 16.3313 9.29116C16.6768 9.29116 16.9817 9.29116 17.2967 9.29116C18.5061 9.29116 18.6382 9.42327 18.6382 10.6123C18.6382 10.9375 18.6382 11.2627 18.6382 11.6082C19.2276 11.5981 19.8069 11.5981 20.376 11.5981Z" fill="#014898"/>
</g>
<defs>
<clipPath id="clip0_2002_1912">
<rect width="40" height="40" fill="white"/>
</clipPath>
</defs>
</svg>
