<svg width="36" height="43" viewBox="0 0 36 43" fill="none" xmlns="http://www.w3.org/2000/svg">
<g id="Frame" clip-path="url(#clip0_2198_2946)">
<g id="Group">
<path id="Vector" d="M16.4486 41.978C15.7817 41.9247 15.1148 41.8714 14.4478 41.8181C11.5759 41.5729 8.73613 41.1357 6.02548 40.1335C4.50881 39.5684 3.06743 38.8647 1.98102 37.6066C1.38941 36.9243 1.08823 36.1353 1.05596 35.229C1.01294 34.1628 0.96991 33.0966 1.22807 32.0518C1.66908 30.3032 2.73398 29.0131 4.25065 28.0749C5.87489 27.062 7.68199 26.5076 9.5106 26.0065C10.3389 25.7719 11.1886 25.6333 12.0169 25.4201C12.2105 25.3668 12.4471 25.2601 12.5439 25.1109C12.9204 24.4925 13.2539 23.8421 13.5873 23.1917C13.6841 22.9998 13.6411 22.8292 13.4475 22.6693C11.8448 21.3366 10.8014 19.6413 10.156 17.6902C10.0807 17.4556 9.98389 17.3277 9.71497 17.2531C9.06958 17.0611 8.66083 16.5814 8.40268 15.9843C7.94014 14.9288 7.90788 13.8412 8.2736 12.7537C8.33814 12.5618 8.34889 12.3379 8.31662 12.146C7.9509 10.1842 7.97241 8.24375 8.81142 6.38857C9.82254 4.16024 11.5866 2.71022 13.8562 1.88925C17.3736 0.59916 20.8695 0.716441 24.1718 2.5183C27.3987 4.27752 28.754 7.09226 28.4851 10.7066C28.4636 10.9945 28.4421 11.2931 28.3776 11.5809C28.2485 12.1353 28.2808 12.6578 28.4313 13.2122C28.6895 14.1611 28.5712 15.1207 28.1409 16.0163C27.8505 16.6133 27.431 17.0611 26.7641 17.2744C26.6242 17.317 26.4952 17.5089 26.4414 17.6582C25.9251 19.1296 25.2044 20.4943 24.1502 21.6671C23.8706 21.9763 23.5909 22.2855 23.2575 22.5307C22.9563 22.7546 22.881 22.9785 23.0316 23.309C23.1499 23.5649 23.2359 23.8315 23.3543 24.0873C23.7092 24.823 24.1825 25.3028 25.0968 25.484C27.4202 25.9318 29.6361 26.7528 31.7874 27.7444C34.0032 28.7573 35.1327 30.5165 35.4554 32.8301C35.5737 33.6937 35.5522 34.5893 35.5091 35.4636C35.4446 36.7857 34.6701 37.7346 33.6483 38.5022C32.1423 39.6537 30.389 40.2721 28.5712 40.7626C26.0542 41.4343 23.4941 41.7541 20.891 41.9034C20.6436 41.914 20.3855 41.9567 20.1381 41.978C18.9226 41.978 17.6856 41.978 16.4486 41.978ZM12.3396 10.2482C12.1459 10.8133 11.9201 11.4317 11.7157 12.05C11.4575 12.839 11.3177 12.9243 10.5325 12.6471C10.0054 12.4659 9.65043 12.5938 9.46757 13.1056C9.15563 13.9905 9.23093 14.8648 9.6827 15.6964C9.77951 15.8777 10.0377 16.0483 10.242 16.0589C10.9627 16.1229 11.0058 16.1229 11.1886 16.8159C11.5113 18.0207 12.0169 19.1509 12.7483 20.1638C15.502 23.9594 20.3855 24.2153 23.408 20.7075C24.4299 19.524 25.0538 18.1273 25.4625 16.6347C25.6131 16.0909 25.6884 16.0269 26.2478 16.0589C26.5382 16.0802 26.7426 15.9736 26.8824 15.7284C27.3557 14.9074 27.4633 14.0438 27.1406 13.1589C26.9254 12.5725 26.592 12.4445 26.0004 12.6578C25.355 12.8923 25.1936 12.8284 24.9247 12.1887C24.8279 11.9541 24.7526 11.7089 24.6773 11.4743C24.4945 10.9412 24.3331 10.4081 24.1395 9.88568C24.0749 9.73641 23.9351 9.57648 23.7845 9.49119C22.4184 8.74486 21.0093 8.65956 19.568 9.29927C19.0086 9.55516 18.4493 9.81105 17.8899 10.0776C16.8681 10.568 15.8032 10.9092 14.663 10.76C13.8993 10.6747 13.1571 10.4401 12.3396 10.2482ZM27.6138 27.4245C27.786 28.544 27.9473 29.6315 28.1302 30.7084C28.1409 30.7937 28.27 30.8896 28.3668 30.9216C29.5715 31.3694 30.1954 32.5422 29.8835 33.779C29.6146 34.8239 28.7218 35.4849 27.5923 35.4956C26.5382 35.4956 25.6669 34.7706 25.3872 33.6724C25.1183 32.6062 25.5486 31.604 26.5274 31.1135C26.7856 30.9856 26.9039 30.8683 26.8501 30.5804C26.635 29.4823 26.4414 28.3841 26.2155 27.2859C26.1832 27.1473 26.0219 26.9874 25.882 26.9341C25.4948 26.8061 25.0753 26.7315 24.6773 26.6249C24.4729 26.5716 24.3546 26.6142 24.2363 26.8168C24.0427 27.158 23.806 27.4991 23.5479 27.7977C22.3324 29.1944 20.8265 30.2393 19.2775 31.2308C19.0409 31.3907 18.9333 31.54 18.9333 31.8279C18.9441 34.6426 18.9441 37.4467 18.9441 40.2614C18.9441 40.4001 18.9548 40.5387 18.9656 40.7093C19.6325 40.6666 20.2564 40.6453 20.8695 40.6026C23.6339 40.4001 26.3768 40.0802 29.0552 39.3232C30.389 38.95 31.6906 38.4702 32.82 37.6386C33.5622 37.0949 34.1538 36.4232 34.2721 35.4743C34.3367 34.9518 34.3582 34.4081 34.3474 33.875C34.3152 31.9452 33.6268 30.3459 31.9487 29.2477C30.6042 28.3947 29.1198 27.915 27.6138 27.4245ZM9.72573 29.7915C9.85481 29.8341 9.9301 29.8661 10.0054 29.8874C11.2101 30.1113 11.9738 30.8576 12.3073 31.9771C12.5224 32.7128 12.587 33.4911 12.7376 34.2481C12.7698 34.4081 12.8021 34.5893 12.8882 34.7279C13.1678 35.1651 13.1248 35.6555 12.7483 35.986C12.4149 36.2846 11.9201 36.2952 11.5651 36.0074C11.1779 35.6982 11.1026 35.197 11.3715 34.7492C11.4253 34.6639 11.5006 34.5573 11.4898 34.472C11.3715 33.747 11.3069 33.0114 11.0918 32.3183C10.8121 31.4227 10.0807 31.0282 9.15563 31.1029C8.23057 31.1775 7.61745 31.7319 7.46686 32.6488C7.41307 32.99 7.38081 33.3419 7.43459 33.6831C7.5314 34.2801 7.42383 34.9198 7.9509 35.4209C8.23057 35.6875 8.12301 36.2419 7.86485 36.5298C7.58518 36.839 7.12265 36.9136 6.75693 36.7217C6.38045 36.5298 6.10078 36.0713 6.25137 35.7301C6.41272 35.3463 6.32666 35.0051 6.28364 34.6426C6.22986 34.2161 6.17607 33.8003 6.17607 33.3739C6.1438 31.7746 6.68163 30.5485 8.29511 29.9834C8.39192 29.9514 8.51024 29.8448 8.53175 29.7488C8.67159 29.0131 8.78991 28.2668 8.92975 27.4672C7.25173 28.0322 5.59522 28.544 4.19687 29.6422C3.30408 30.3459 2.6802 31.2521 2.49734 32.3716C2.3575 33.2353 2.36826 34.1095 2.33599 34.9838C2.29296 36.146 2.89533 36.9776 3.78812 37.6386C4.85302 38.4383 6.07926 38.8967 7.34854 39.2699C10.1022 40.0802 12.9419 40.4107 15.8032 40.624C16.4163 40.6666 17.0294 40.6986 17.6533 40.7306C17.6641 40.6346 17.6856 40.5813 17.6856 40.528C17.6856 37.5853 17.6856 34.6426 17.6748 31.6999C17.6748 31.572 17.5565 31.4121 17.4489 31.3374C16.9003 30.9536 16.3302 30.6018 15.7924 30.2073C14.4801 29.237 13.1678 28.2561 12.3503 26.7848C12.3181 26.7208 12.1782 26.6675 12.0922 26.6782C11.5866 26.7635 11.0918 26.8701 10.597 26.998C10.4894 27.03 10.3496 27.158 10.3173 27.2752C10.1022 28.0856 9.91935 28.9278 9.72573 29.7915ZM27.1406 11.3783C27.1621 11.1225 27.2051 10.8666 27.2159 10.6C27.4095 7.56138 26.1079 4.65068 23.0853 3.2753C20.0305 1.87859 16.8681 1.88925 13.7809 3.16868C11.4575 4.12825 10.0484 5.94077 9.55363 8.39301C9.34925 9.39523 9.34925 10.3975 9.49984 11.3677C9.89783 11.3464 10.2636 11.325 10.6185 11.3144C10.8767 10.6107 11.1133 9.89634 11.4037 9.19266C11.6619 8.55294 11.9416 8.46765 12.5547 8.83015C13.8132 9.57648 15.147 9.75774 16.5346 9.26729C17.3951 8.96876 18.2341 8.60625 19.0624 8.23308C20.9556 7.39079 22.8057 7.39079 24.602 8.51029C24.9355 8.71287 25.1398 8.96876 25.2582 9.33126C25.4841 10.0136 25.7315 10.6853 25.9573 11.3144C26.3661 11.3357 26.7211 11.357 27.1406 11.3783ZM14.8674 23.6395C14.5124 24.2793 14.2004 24.9296 13.8025 25.5267C13.3507 26.2197 13.3184 26.1984 13.8455 26.8488C13.91 26.9341 13.9853 27.0087 14.0606 27.094C15.2546 28.3521 16.6637 29.3543 18.1266 30.2819C18.2126 30.3352 18.3955 30.3352 18.4815 30.2819C19.9229 29.3756 21.3105 28.3947 22.483 27.1473C22.7304 26.8914 22.9348 26.5822 23.1284 26.2837C23.1822 26.2091 23.1822 26.0278 23.1284 25.9745C22.526 25.2815 22.0957 24.4925 21.8053 23.6076C19.4496 24.8017 17.1262 24.8017 14.8674 23.6395ZM27.6246 32.0624C27.0222 32.0731 26.5705 32.5209 26.5705 33.1393C26.5705 33.7683 27.033 34.2268 27.6569 34.2161C28.27 34.2055 28.711 33.7577 28.711 33.1393C28.711 32.5102 28.2485 32.0518 27.6246 32.0624Z" fill="#014898"/>
</g>
</g>
<defs>
<clipPath id="clip0_2198_2946">
<rect width="35.8333" height="43" fill="white"/>
</clipPath>
</defs>
</svg>
