<svg width="26" height="42" viewBox="0 0 26 42" fill="none" xmlns="http://www.w3.org/2000/svg">
<g id="Layer_1" clip-path="url(#clip0_2232_12050)">
<g id="Vector">
<path d="M4.70715 9.24493C5.19012 6.89909 5.66446 4.57913 6.14743 2.25916C6.31991 1.39672 6.81151 1 7.6912 1C10.4251 1 13.1504 1 15.8844 1C16.7986 1 17.2815 1.4226 17.4626 2.32816C17.9111 4.53601 18.3596 6.75248 18.8081 8.96033C18.8253 9.05519 18.8598 9.14144 18.8943 9.25356C20.1017 9.35705 21.0935 9.85727 21.8352 10.8318C22.5855 11.815 22.6114 12.9621 22.5683 14.1695C23.0771 14.1695 23.5429 14.1695 24.0086 14.1695C25.0435 14.1695 25.6127 14.7301 25.6127 15.7564C25.6127 16.6016 25.6127 17.4467 25.6127 18.2919C25.6127 19.2924 25.0521 19.8616 24.0431 19.8788C23.5774 19.8875 23.103 19.8788 22.6028 19.8788V22.1125C23.0858 22.1125 23.5515 22.1125 24.0172 22.1125C25.0607 22.1125 25.6127 22.6645 25.6127 23.6994C25.6127 24.5619 25.6127 25.4157 25.6127 26.2781C25.6127 27.2268 25.0263 27.796 24.0776 27.8047C23.5946 27.8047 23.1116 27.8047 22.5769 27.8047C22.5769 28.072 22.5683 28.3049 22.5769 28.5377C22.689 30.7542 21.197 32.5222 18.8771 32.7378C18.6873 33.652 18.489 34.5834 18.2992 35.5149C18.0146 36.912 17.7386 38.3092 17.4454 39.7063C17.2729 40.5515 16.7641 40.9827 15.9016 40.9827C13.1418 40.9827 10.382 40.9827 7.6222 40.9827C6.79426 40.9827 6.29404 40.5688 6.13018 39.7667C5.64721 37.4381 5.17287 35.1009 4.6899 32.7551C4.41392 32.7033 4.14656 32.6688 3.87921 32.6085C2.20607 32.1772 1.00728 30.6852 0.998656 28.9345C0.990031 23.6391 0.990031 18.3437 0.998656 13.0483C0.998656 11.194 2.34406 9.6589 4.18106 9.33118C4.34493 9.3053 4.50879 9.27081 4.69853 9.24493H4.70715ZM2.22332 20.9655C2.22332 23.5183 2.22332 26.0712 2.22332 28.6154C2.22332 30.4437 3.28412 31.5132 5.1125 31.5132C9.57994 31.5132 14.0388 31.5132 18.5062 31.5132C18.8081 31.5132 19.1185 31.4959 19.4118 31.4183C20.6364 31.1078 21.3868 30.0729 21.3868 28.6843C21.3868 23.5701 21.3868 18.4558 21.3868 13.3329C21.3868 11.539 20.3087 10.461 18.5148 10.461C14.0474 10.461 9.58856 10.461 5.12112 10.461C3.29275 10.461 2.23195 11.5218 2.22332 13.3502C2.22332 15.8857 2.22332 18.4213 2.22332 20.9655ZM5.95769 9.22768H17.6351C17.178 6.97671 16.7209 4.75162 16.2725 2.52652C16.2121 2.23329 16.0482 2.19879 15.7981 2.19879C13.1246 2.19879 10.451 2.19879 7.77744 2.19879C7.49283 2.19879 7.36347 2.28504 7.3031 2.57827C7.05299 3.8978 6.76838 5.20871 6.50103 6.51962C6.31991 7.40793 6.14743 8.30487 5.95769 9.21906V9.22768ZM5.98356 32.7464C5.98356 32.8499 5.98356 32.9103 5.99219 32.9621C6.43203 35.1354 6.8805 37.3001 7.31172 39.4735C7.37209 39.7753 7.56183 39.7926 7.79469 39.7926C10.451 39.7926 13.1159 39.7926 15.7723 39.7926C16.1172 39.7926 16.2294 39.6546 16.2897 39.3527C16.4363 38.5679 16.6002 37.7831 16.7641 36.9896C17.0487 35.5839 17.3333 34.1695 17.6265 32.7464H5.98356ZM22.6114 23.32V26.5886C23.1375 26.5886 23.6463 26.6059 24.1552 26.5714C24.2414 26.5714 24.388 26.3816 24.3967 26.2781C24.4139 25.3984 24.4053 24.5101 24.4053 23.6304C24.4053 23.3976 24.2846 23.32 24.0689 23.32C23.6032 23.32 23.1289 23.32 22.6114 23.32ZM22.6114 18.6628C23.1203 18.6628 23.6032 18.68 24.0862 18.6455C24.1983 18.6455 24.3794 18.4644 24.3794 18.3696C24.4053 17.4726 24.4053 16.5757 24.3794 15.6787C24.3794 15.5839 24.2156 15.4114 24.1207 15.4028C23.6291 15.3769 23.1289 15.3855 22.6114 15.3855V18.6628Z" fill="#014898"/>
<path d="M11.7792 14.9715C13.7024 13.3243 15.8671 13.6693 17.1349 14.5403C18.8598 15.7305 19.2738 17.3605 18.5493 20.2669C18.7218 20.2669 18.8771 20.2583 19.0323 20.2669C19.4118 20.3014 19.6446 20.5343 19.6446 20.8706C19.6446 21.2242 19.3859 21.5347 18.9978 21.4657C18.1612 21.3191 17.7731 21.7503 17.3592 22.4058C15.9879 24.5705 14.1854 26.3471 12.2449 28.003C11.9517 28.2531 11.6412 28.2617 11.3479 28.003C9.26946 26.2178 7.35484 24.2859 5.91457 21.9228C5.7507 21.6555 5.58684 21.5606 5.28499 21.5778C4.88826 21.6037 4.48292 21.5951 4.07757 21.5778C3.68085 21.5692 3.42211 21.3105 3.43074 20.9655C3.43074 20.6378 3.68947 20.4049 4.06032 20.379C4.22418 20.3704 4.39667 20.379 4.56054 20.379C4.7244 20.379 4.87964 20.379 5.09525 20.379C4.18969 17.9556 4.41392 15.8599 6.70801 14.3937C8.03617 13.5399 10.106 13.4968 11.7705 14.9715H11.7792ZM12.3484 21.8624C12.4001 21.8969 12.4432 21.9228 12.495 21.9573C12.909 21.5088 13.3316 21.0776 13.7369 20.6205C13.9784 20.3532 14.2544 20.2324 14.6166 20.2497C15.0737 20.2669 15.5308 20.2497 15.9879 20.2497C16.9366 20.2497 17.5086 19.7782 17.7041 18.8353C18.0146 17.3346 17.3764 15.9461 16.0827 15.3079C14.8063 14.6869 13.3747 15.0147 12.3829 16.1617C11.9775 16.6274 11.6326 16.6188 11.2186 16.1358C10.3993 15.1785 9.35571 14.7991 8.13104 15.1009C6.915 15.4114 6.14743 16.2221 5.88869 17.464C5.69033 18.4299 5.98356 19.3269 6.37166 20.1979C6.40616 20.2842 6.5959 20.3445 6.71664 20.3445C7.25998 20.3618 7.79469 20.3704 8.33803 20.3445C8.54501 20.3273 8.79512 20.2411 8.95036 20.0944C9.69206 19.4045 10.3993 18.68 11.1237 17.9815C11.5032 17.6192 11.9689 17.6537 12.1586 18.0591C12.2276 18.2057 12.2363 18.3782 12.2449 18.542C12.288 19.646 12.3225 20.7499 12.3656 21.8538L12.3484 21.8624ZM16.5657 21.483C15.962 21.483 15.4532 21.4571 14.9529 21.4916C14.7546 21.5002 14.5217 21.5951 14.3837 21.7244C13.6938 22.3713 13.0297 23.0354 12.3656 23.6994C12.1414 23.9237 11.9085 24.0703 11.5894 23.9495C11.2703 23.8288 11.2013 23.5442 11.1927 23.2337C11.1927 22.9319 11.1668 22.6214 11.1582 22.3195C11.1323 21.4916 11.0978 20.6723 11.0633 19.7495C10.5028 20.2928 10.0284 20.793 9.51095 21.2415C9.31258 21.414 9.01073 21.5347 8.752 21.5606C8.23453 21.6123 7.71707 21.5778 7.11336 21.5778C8.44152 23.5873 10.0543 25.226 11.805 26.787C13.5817 25.2087 15.2031 23.5356 16.5743 21.483H16.5657Z" fill="#014898"/>
<path d="M4.70715 9.24493C5.19012 6.89909 5.66446 4.57913 6.14743 2.25916C6.31991 1.39672 6.81151 1 7.6912 1C10.4251 1 13.1504 1 15.8844 1C16.7986 1 17.2815 1.4226 17.4626 2.32816C17.9111 4.53601 18.3596 6.75248 18.8081 8.96033C18.8253 9.05519 18.8598 9.14144 18.8943 9.25356C20.1017 9.35705 21.0935 9.85727 21.8352 10.8318C22.5855 11.815 22.6114 12.9621 22.5683 14.1695C23.0771 14.1695 23.5429 14.1695 24.0086 14.1695C25.0435 14.1695 25.6127 14.7301 25.6127 15.7564C25.6127 16.6016 25.6127 17.4467 25.6127 18.2919C25.6127 19.2924 25.0521 19.8616 24.0431 19.8788C23.5774 19.8875 23.103 19.8788 22.6028 19.8788V22.1125C23.0858 22.1125 23.5515 22.1125 24.0172 22.1125C25.0607 22.1125 25.6127 22.6645 25.6127 23.6994C25.6127 24.5619 25.6127 25.4157 25.6127 26.2781C25.6127 27.2268 25.0263 27.796 24.0776 27.8047C23.5946 27.8047 23.1116 27.8047 22.5769 27.8047C22.5769 28.072 22.5683 28.3049 22.5769 28.5377C22.689 30.7542 21.197 32.5222 18.8771 32.7378C18.6873 33.652 18.489 34.5834 18.2992 35.5149C18.0146 36.912 17.7386 38.3092 17.4454 39.7063C17.2729 40.5515 16.7641 40.9827 15.9016 40.9827C13.1418 40.9827 10.382 40.9827 7.6222 40.9827C6.79426 40.9827 6.29404 40.5688 6.13018 39.7667C5.64721 37.4381 5.17287 35.1009 4.6899 32.7551C4.41392 32.7033 4.14656 32.6688 3.87921 32.6085C2.20607 32.1772 1.00728 30.6852 0.998656 28.9345C0.990031 23.6391 0.990031 18.3437 0.998656 13.0483C0.998656 11.194 2.34406 9.6589 4.18106 9.33118C4.34493 9.3053 4.50879 9.27081 4.69853 9.24493H4.70715ZM2.22332 20.9655C2.22332 23.5183 2.22332 26.0712 2.22332 28.6154C2.22332 30.4437 3.28412 31.5132 5.1125 31.5132C9.57994 31.5132 14.0388 31.5132 18.5062 31.5132C18.8081 31.5132 19.1185 31.4959 19.4118 31.4183C20.6364 31.1078 21.3868 30.0729 21.3868 28.6843C21.3868 23.5701 21.3868 18.4558 21.3868 13.3329C21.3868 11.539 20.3087 10.461 18.5148 10.461C14.0474 10.461 9.58856 10.461 5.12112 10.461C3.29275 10.461 2.23195 11.5218 2.22332 13.3502C2.22332 15.8857 2.22332 18.4213 2.22332 20.9655ZM5.95769 9.22768H17.6351C17.178 6.97671 16.7209 4.75162 16.2725 2.52652C16.2121 2.23329 16.0482 2.19879 15.7981 2.19879C13.1246 2.19879 10.451 2.19879 7.77744 2.19879C7.49283 2.19879 7.36347 2.28504 7.3031 2.57827C7.05299 3.8978 6.76838 5.20871 6.50103 6.51962C6.31991 7.40793 6.14743 8.30487 5.95769 9.21906V9.22768ZM5.98356 32.7464C5.98356 32.8499 5.98356 32.9103 5.99219 32.9621C6.43203 35.1354 6.8805 37.3001 7.31172 39.4735C7.37209 39.7753 7.56183 39.7926 7.79469 39.7926C10.451 39.7926 13.1159 39.7926 15.7723 39.7926C16.1172 39.7926 16.2294 39.6546 16.2897 39.3527C16.4363 38.5679 16.6002 37.7831 16.7641 36.9896C17.0487 35.5839 17.3333 34.1695 17.6265 32.7464H5.98356ZM22.6114 23.32V26.5886C23.1375 26.5886 23.6463 26.6059 24.1552 26.5714C24.2414 26.5714 24.388 26.3816 24.3967 26.2781C24.4139 25.3984 24.4053 24.5101 24.4053 23.6304C24.4053 23.3976 24.2846 23.32 24.0689 23.32C23.6032 23.32 23.1289 23.32 22.6114 23.32ZM22.6114 18.6628C23.1203 18.6628 23.6032 18.68 24.0862 18.6455C24.1983 18.6455 24.3794 18.4644 24.3794 18.3696C24.4053 17.4726 24.4053 16.5757 24.3794 15.6787C24.3794 15.5839 24.2156 15.4114 24.1207 15.4028C23.6291 15.3769 23.1289 15.3855 22.6114 15.3855V18.6628Z" stroke="#014898" stroke-width="0.1"/>
<path d="M11.7792 14.9715C13.7024 13.3243 15.8671 13.6693 17.1349 14.5403C18.8598 15.7305 19.2738 17.3605 18.5493 20.2669C18.7218 20.2669 18.8771 20.2583 19.0323 20.2669C19.4118 20.3014 19.6446 20.5343 19.6446 20.8706C19.6446 21.2242 19.3859 21.5347 18.9978 21.4657C18.1612 21.3191 17.7731 21.7503 17.3592 22.4058C15.9879 24.5705 14.1854 26.3471 12.2449 28.003C11.9517 28.2531 11.6412 28.2617 11.3479 28.003C9.26946 26.2178 7.35484 24.2859 5.91457 21.9228C5.7507 21.6555 5.58684 21.5606 5.28499 21.5778C4.88826 21.6037 4.48292 21.5951 4.07757 21.5778C3.68085 21.5692 3.42211 21.3105 3.43074 20.9655C3.43074 20.6378 3.68947 20.4049 4.06032 20.379C4.22418 20.3704 4.39667 20.379 4.56054 20.379C4.7244 20.379 4.87964 20.379 5.09525 20.379C4.18969 17.9556 4.41392 15.8599 6.70801 14.3937C8.03617 13.5399 10.106 13.4968 11.7705 14.9715H11.7792ZM12.3484 21.8624C12.4001 21.8969 12.4432 21.9228 12.495 21.9573C12.909 21.5088 13.3316 21.0776 13.7369 20.6205C13.9784 20.3532 14.2544 20.2324 14.6166 20.2497C15.0737 20.2669 15.5308 20.2497 15.9879 20.2497C16.9366 20.2497 17.5086 19.7782 17.7041 18.8353C18.0146 17.3346 17.3764 15.9461 16.0827 15.3079C14.8063 14.6869 13.3747 15.0147 12.3829 16.1617C11.9775 16.6274 11.6326 16.6188 11.2186 16.1358C10.3993 15.1785 9.35571 14.7991 8.13104 15.1009C6.915 15.4114 6.14743 16.2221 5.88869 17.464C5.69033 18.4299 5.98356 19.3269 6.37166 20.1979C6.40616 20.2842 6.5959 20.3445 6.71664 20.3445C7.25998 20.3618 7.79469 20.3704 8.33803 20.3445C8.54501 20.3273 8.79512 20.2411 8.95036 20.0944C9.69206 19.4045 10.3993 18.68 11.1237 17.9815C11.5032 17.6192 11.9689 17.6537 12.1586 18.0591C12.2276 18.2057 12.2363 18.3782 12.2449 18.542C12.288 19.646 12.3225 20.7499 12.3656 21.8538L12.3484 21.8624ZM16.5657 21.483C15.962 21.483 15.4532 21.4571 14.9529 21.4916C14.7546 21.5002 14.5217 21.5951 14.3837 21.7244C13.6938 22.3713 13.0297 23.0354 12.3656 23.6994C12.1414 23.9237 11.9085 24.0703 11.5894 23.9495C11.2703 23.8288 11.2013 23.5442 11.1927 23.2337C11.1927 22.9319 11.1668 22.6214 11.1582 22.3195C11.1323 21.4916 11.0978 20.6723 11.0633 19.7495C10.5028 20.2928 10.0284 20.793 9.51095 21.2415C9.31258 21.414 9.01073 21.5347 8.752 21.5606C8.23453 21.6123 7.71707 21.5778 7.11336 21.5778C8.44152 23.5873 10.0543 25.226 11.805 26.787C13.5817 25.2087 15.2031 23.5356 16.5743 21.483H16.5657Z" stroke="#014898" stroke-width="0.1"/>
</g>
</g>
<defs>
<clipPath id="clip0_2232_12050">
<rect width="26" height="42" fill="white"/>
</clipPath>
</defs>
</svg>
