<svg width="42" height="40" viewBox="0 0 42 40" fill="none" xmlns="http://www.w3.org/2000/svg">
<g clip-path="url(#clip0_2232_12061)">
<path d="M13.9301 7.80334C11.8351 8.55993 10.0144 9.68861 8.4431 11.2142C6.2483 13.3475 4.81421 15.915 4.16574 18.9041C4.00363 19.6483 3.55469 20.0576 2.90623 20.0576C2.32012 20.0576 1.80883 19.6731 1.6966 19.0902C1.65919 18.8917 1.67166 18.6561 1.72154 18.4452C3.19305 12.2064 6.93418 7.90257 12.9075 5.53357C13.3564 5.35993 13.556 5.16148 13.6308 4.67776C13.9924 2.30877 15.9254 0.398691 18.2573 0.0514037C20.7514 -0.333092 23.1457 0.870008 24.2556 3.06536C25.6523 5.83125 24.5674 9.18009 21.8239 10.6064C19.0679 12.0328 15.7009 11.0033 14.2169 8.28706C14.1047 8.15063 14.0298 8.00179 13.9301 7.80334ZM22.3351 5.6204C22.3351 3.87156 20.9135 2.47001 19.1552 2.47001C17.4218 2.48241 16.0126 3.87156 16.0002 5.60799C15.9877 7.35683 17.4093 8.78319 19.1677 8.78319C20.9135 8.79559 22.3476 7.36923 22.3351 5.6204Z" fill="#014898"/>
<path d="M35.8281 23.8654C35.8531 23.3196 35.903 22.7863 35.903 22.2406C35.878 17.3909 33.9825 13.4095 30.2788 10.2716C30.0045 10.0359 29.7551 9.68861 29.6303 9.35373C29.4682 8.88241 29.7551 8.33667 30.204 8.08861C30.7028 7.81574 31.2266 7.82815 31.6381 8.21264C32.6482 9.16768 33.7331 10.0855 34.5936 11.177C37.6488 15.0343 38.821 19.4623 38.2599 24.3367C38.2225 24.6095 38.3347 24.7088 38.5342 24.8452C40.517 26.2468 41.365 28.1568 40.966 30.5382C40.5794 32.8948 38.8086 34.594 36.4641 35.0654C33.3839 35.6979 30.3037 33.5522 29.8049 30.4266C29.2936 27.2514 31.5757 24.2499 34.7432 23.9398C35.0924 23.915 35.4291 23.9026 35.8281 23.8654ZM35.4042 32.7088C37.15 32.7088 38.5841 31.27 38.5841 29.5336C38.5716 27.8095 37.15 26.3956 35.4291 26.3956C33.6708 26.3832 32.2367 27.8095 32.2367 29.546C32.2242 31.2824 33.6583 32.7088 35.4042 32.7088Z" fill="#014898"/>
<path d="M10.189 33.9739C12.284 35.6979 14.6284 36.777 17.2472 37.2731C19.7912 37.7444 22.2977 37.5584 24.7669 36.777C25.3031 36.6033 25.7895 36.6282 26.201 37.0375C26.8869 37.7196 26.5626 38.7987 25.5775 39.1212C23.7443 39.7165 21.8613 40.0142 19.9284 40.0018C15.6385 39.9522 11.8475 38.5506 8.55533 35.8219C8.31839 35.6235 8.14381 35.6111 7.85699 35.7351C5.72455 36.6406 3.26787 36.1568 1.64672 34.532C0.000622008 32.87 -0.460784 30.4266 0.486969 28.2809C1.40978 26.1723 3.52975 24.8328 5.83678 24.9072C10.1266 25.0313 12.7205 29.7072 10.5506 33.3785C10.4384 33.577 10.3261 33.7506 10.189 33.9739ZM5.64972 27.4002C3.89139 27.4002 2.46977 28.8266 2.48224 30.5754C2.49471 32.3119 3.94128 33.7382 5.68714 33.7134C7.40805 33.701 8.82968 32.2747 8.82968 30.5506C8.84215 28.8018 7.42052 27.4002 5.64972 27.4002Z" fill="#014898"/>
<path d="M13.9301 7.80334C11.8351 8.55993 10.0144 9.68861 8.4431 11.2142C6.2483 13.3475 4.81421 15.915 4.16574 18.9041C4.00363 19.6483 3.55469 20.0576 2.90623 20.0576C2.32012 20.0576 1.80883 19.6731 1.6966 19.0902C1.65919 18.8917 1.67166 18.6561 1.72154 18.4452C3.19305 12.2064 6.93418 7.90257 12.9075 5.53357C13.3564 5.35993 13.556 5.16148 13.6308 4.67776C13.9924 2.30877 15.9254 0.398691 18.2573 0.0514037C20.7514 -0.333092 23.1457 0.870008 24.2556 3.06536C25.6523 5.83125 24.5674 9.18009 21.8239 10.6064C19.0679 12.0328 15.7009 11.0033 14.2169 8.28706C14.1047 8.15063 14.0298 8.00179 13.9301 7.80334ZM22.3351 5.6204C22.3351 3.87156 20.9135 2.47001 19.1552 2.47001C17.4218 2.48241 16.0126 3.87156 16.0002 5.60799C15.9877 7.35683 17.4093 8.78319 19.1677 8.78319C20.9135 8.79559 22.3476 7.36923 22.3351 5.6204Z" stroke="white"/>
<path d="M35.8281 23.8654C35.8531 23.3196 35.903 22.7863 35.903 22.2406C35.878 17.3909 33.9825 13.4095 30.2788 10.2716C30.0045 10.0359 29.7551 9.68861 29.6303 9.35373C29.4682 8.88241 29.7551 8.33667 30.204 8.08861C30.7028 7.81574 31.2266 7.82815 31.6381 8.21264C32.6482 9.16768 33.7331 10.0855 34.5936 11.177C37.6488 15.0343 38.821 19.4623 38.2599 24.3367C38.2225 24.6095 38.3347 24.7088 38.5342 24.8452C40.517 26.2468 41.365 28.1568 40.966 30.5382C40.5794 32.8948 38.8086 34.594 36.4641 35.0654C33.3839 35.6979 30.3037 33.5522 29.8049 30.4266C29.2936 27.2514 31.5757 24.2499 34.7432 23.9398C35.0924 23.915 35.4291 23.9026 35.8281 23.8654ZM35.4042 32.7088C37.15 32.7088 38.5841 31.27 38.5841 29.5336C38.5716 27.8095 37.15 26.3956 35.4291 26.3956C33.6708 26.3832 32.2367 27.8095 32.2367 29.546C32.2242 31.2824 33.6583 32.7088 35.4042 32.7088Z" stroke="white"/>
<path d="M10.189 33.9739C12.284 35.6979 14.6284 36.777 17.2472 37.2731C19.7912 37.7444 22.2977 37.5584 24.7669 36.777C25.3031 36.6033 25.7895 36.6282 26.201 37.0375C26.8869 37.7196 26.5626 38.7987 25.5775 39.1212C23.7443 39.7165 21.8613 40.0142 19.9284 40.0018C15.6385 39.9522 11.8475 38.5506 8.55533 35.8219C8.31839 35.6235 8.14381 35.6111 7.85699 35.7351C5.72455 36.6406 3.26787 36.1568 1.64672 34.532C0.000622008 32.87 -0.460784 30.4266 0.486969 28.2809C1.40978 26.1723 3.52975 24.8328 5.83678 24.9072C10.1266 25.0313 12.7205 29.7072 10.5506 33.3785C10.4384 33.577 10.3261 33.7506 10.189 33.9739ZM5.64972 27.4002C3.89139 27.4002 2.46977 28.8266 2.48224 30.5754C2.49471 32.3119 3.94128 33.7382 5.68714 33.7134C7.40805 33.701 8.82968 32.2747 8.82968 30.5506C8.84215 28.8018 7.42052 27.4002 5.64972 27.4002Z" stroke="white"/>
</g>
<defs>
<clipPath id="clip0_2232_12061">
<rect width="41.0526" height="40" fill="white"/>
</clipPath>
</defs>
</svg>
