<svg width="45" height="40" viewBox="0 0 45 40" fill="none" xmlns="http://www.w3.org/2000/svg">
<g clip-path="url(#clip0_2232_13213)">
<path d="M6.47229 25.5873C7.68733 25.2894 8.8023 25.0183 9.91726 24.7434C11.3286 24.396 12.7438 24.0625 14.1487 23.6909C15.9014 23.2276 17.5603 23.4325 19.1718 24.2432C22.0497 25.6929 24.9429 27.1146 27.8195 28.5681C28.1467 28.7335 28.3853 28.7106 28.6933 28.5464C32.509 26.5126 36.3286 24.4863 40.1534 22.4703C42.2486 21.3656 44.6171 22.5632 44.8968 24.8809C45.0341 26.02 44.5824 26.9567 43.6946 27.6899C39.9199 30.8081 36.1452 33.9289 32.3717 37.0471C31.5852 37.6975 30.7923 38.3402 30.0109 38.9982C28.9781 39.8675 27.808 40.1692 26.4787 39.9083C21.2106 38.8748 15.9424 37.8464 10.673 36.818C9.29755 36.5495 7.91956 36.2873 6.47101 36.0073C6.47101 36.5113 6.47871 36.9669 6.46973 37.4226C6.4569 38.036 6.24263 38.2537 5.61907 38.2562C4.03452 38.2639 2.44996 38.2639 0.86541 38.2562C0.229023 38.2537 0.00192456 38.0182 0.00192456 37.3831C-0.00064152 33.1118 -0.00064152 28.8404 0.00192456 24.5691C0.00192456 23.9251 0.22389 23.6985 0.856429 23.6972C2.44098 23.6921 4.02554 23.6934 5.61009 23.6972C6.26444 23.6985 6.45946 23.8983 6.47229 24.5589C6.47743 24.872 6.47229 25.1864 6.47229 25.5873ZM29.6889 29.5277C29.8044 29.5863 29.8698 29.6066 29.9186 29.6461C31.2927 30.7686 31.616 32.3761 30.7461 33.7494C29.8852 35.1087 28.2686 35.5134 26.6519 34.7803C24.5452 33.8232 22.4359 32.8699 20.3278 31.9154C19.0487 31.3363 17.7669 30.761 16.4903 30.1743C16.0528 29.9732 15.9014 29.613 16.0656 29.2477C16.226 28.8913 16.6032 28.7806 17.0458 28.9613C17.1498 29.0033 17.2498 29.0517 17.3525 29.0975C20.6961 30.6134 24.0384 32.133 27.3846 33.6425C28.3212 34.0651 29.295 33.7329 29.712 32.8763C30.1315 32.0147 29.7967 31.0474 28.8767 30.5866C25.3663 28.8277 21.8521 27.0764 18.334 25.3327C17.1754 24.7587 15.9578 24.6238 14.694 24.9382C12.1202 25.5784 9.54902 26.2236 6.97011 26.8435C6.5929 26.9338 6.45562 27.0649 6.45946 27.4671C6.48128 29.6588 6.48384 31.8505 6.45946 34.0421C6.45433 34.5067 6.57879 34.69 7.05479 34.7765C9.46049 35.2156 11.8585 35.6942 14.2578 36.1626C18.3828 36.9669 22.5103 37.7649 26.6314 38.5884C27.6399 38.7895 28.479 38.5591 29.2514 37.8973C30.3407 36.9631 31.4608 36.0633 32.568 35.1482C35.9873 32.3227 39.4054 29.4959 42.8272 26.6742C43.3751 26.2224 43.6574 25.6585 43.5534 24.9598C43.3597 23.6578 42.0176 23.0049 40.8154 23.6323C38.6368 24.7702 36.4685 25.9284 34.2963 27.0802C32.7926 27.8782 31.2889 28.6775 29.6863 29.529L29.6889 29.5277ZM1.3658 25.054V36.8817H5.08276V25.054H1.3658Z" fill="#014898"/>
<path d="M26.0216 14.9843C26.0216 16.3487 26.0216 17.6329 26.0216 18.9171C26.0216 19.6476 25.8215 19.8513 25.085 19.8525C23.3413 19.8564 21.5977 19.8564 19.854 19.8525C19.1137 19.8513 18.9161 19.6489 18.9149 18.9196C18.9136 17.6354 18.9149 16.3499 18.9149 15.0072C18.725 14.9983 18.5582 14.9843 18.3901 14.9843C17.2379 14.9817 16.0858 14.9855 14.9349 14.9817C14.2176 14.9792 14.0149 14.7794 14.0136 14.0844C14.0111 12.3229 14.0111 10.5602 14.0136 8.7987C14.0136 8.15978 14.233 7.93577 14.8771 7.93195C16.2025 7.92432 17.5279 7.92941 18.9149 7.92941C18.9149 7.70922 18.9149 7.5234 18.9149 7.33885C18.9149 6.18065 18.9097 5.02117 18.9174 3.86297C18.9213 3.31951 19.1574 3.06878 19.7078 3.06623C21.5477 3.05605 23.3875 3.05605 25.2274 3.06623C25.7932 3.06878 26.0203 3.32333 26.0229 3.90752C26.028 5.22354 26.0242 6.53829 26.0242 7.9065C26.2179 7.91541 26.386 7.92941 26.5541 7.92941C27.7062 7.93195 28.8584 7.92686 30.0093 7.93195C30.715 7.9345 30.9241 8.14578 30.9254 8.84324C30.928 10.5895 30.928 12.3357 30.9254 14.0819C30.9254 14.7781 30.7214 14.9792 30.0067 14.9817C28.8712 14.9855 27.7345 14.9817 26.599 14.9817C26.4258 14.9817 26.2526 14.9817 26.0242 14.9817L26.0216 14.9843ZM29.5551 9.2658C29.3601 9.2658 29.1894 9.2658 29.0175 9.2658C27.8487 9.2658 26.6811 9.27089 25.5135 9.26325C24.9015 9.25943 24.6821 9.03288 24.6783 8.42324C24.6731 7.61377 24.6783 6.8043 24.6783 5.99356C24.6783 5.47555 24.6783 4.95754 24.6783 4.43571H20.2595C20.2595 5.79119 20.262 7.10849 20.2582 8.42578C20.2556 9.03161 20.0324 9.25562 19.4191 9.26325C18.7789 9.27216 18.1386 9.2658 17.4984 9.2658C16.7991 9.2658 16.0986 9.2658 15.3942 9.2658V13.6504C15.6226 13.6504 15.815 13.6504 16.0062 13.6504C17.143 13.6504 18.2785 13.6441 19.4152 13.653C20.0273 13.6581 20.2544 13.8922 20.2582 14.4955C20.2633 15.305 20.2595 16.1145 20.2595 16.9252C20.2595 17.4445 20.2595 17.9638 20.2595 18.4792H24.6783C24.6783 17.1378 24.6757 15.8383 24.6783 14.5375C24.6796 13.8757 24.899 13.6581 25.5738 13.6517C26.182 13.6453 26.7902 13.6504 27.3983 13.6504C28.1117 13.6504 28.8263 13.6504 29.5564 13.6504V9.2658H29.5551Z" fill="#014898"/>
<path d="M33.531 1.64314C33.7927 1.64314 34.0801 1.63168 34.365 1.64568C34.8166 1.66859 35.0886 1.92569 35.0912 2.30751C35.0937 2.69061 34.823 2.94898 34.3727 2.96934C34.075 2.98334 33.776 2.97189 33.4322 2.97189C33.4322 3.34226 33.4373 3.64008 33.4309 3.93791C33.4206 4.35664 33.1833 4.60228 32.7778 4.60992C32.3647 4.61883 32.1312 4.35664 32.0991 3.95445C32.076 3.65663 32.094 3.35499 32.094 2.97189C31.763 2.97189 31.4666 2.98334 31.1715 2.96934C30.716 2.94771 30.444 2.6957 30.4414 2.31515C30.4389 1.93714 30.716 1.66986 31.1625 1.64568C31.4473 1.63041 31.7347 1.64314 32.0901 1.64314C32.0901 1.33004 32.0812 1.05004 32.0927 0.771303C32.1107 0.29784 32.3762 0.00256183 32.7663 1.63267e-05C33.1589 -0.00252917 33.4181 0.292749 33.4335 0.766212C33.4425 1.01949 33.4437 1.27277 33.4514 1.52732C33.4514 1.54004 33.4681 1.55277 33.531 1.64314Z" fill="#014898"/>
<path d="M30.1702 21.7116C29.7955 21.7116 29.4927 21.7282 29.1938 21.7078C28.7883 21.6798 28.542 21.4558 28.524 21.0434C28.5086 20.6845 28.7948 20.4134 29.1963 20.3842C29.3554 20.3727 29.5158 20.3803 29.6749 20.3791C29.8161 20.3791 29.9572 20.3791 30.1676 20.3791C30.1676 20.066 30.1586 19.7872 30.1689 19.5085C30.1868 19.021 30.4306 18.75 30.8399 18.7461C31.2569 18.7423 31.4956 19.0058 31.5097 19.4971C31.5174 19.7643 31.5109 20.0329 31.5109 20.3803C31.8356 20.3803 32.1319 20.3727 32.427 20.3816C32.8825 20.3956 33.1558 20.6374 33.1673 21.0205C33.1802 21.4227 32.8953 21.6938 32.4245 21.7104C32.1409 21.7206 31.8561 21.7116 31.5097 21.7116C31.5097 22.0489 31.5135 22.3455 31.5097 22.642C31.5032 23.0493 31.3057 23.3051 30.8861 23.342C30.4973 23.3764 30.2074 23.1053 30.1753 22.6726C30.1535 22.3747 30.1715 22.0757 30.1715 21.7116H30.1702Z" fill="#014898"/>
<path d="M8.26683 9.77924C7.92041 9.77924 7.63557 9.79324 7.35202 9.7767C6.8773 9.7487 6.59888 9.47124 6.61812 9.07287C6.63609 8.68722 6.90168 8.46576 7.37127 8.44922C7.51497 8.44413 7.65867 8.44794 7.80237 8.44794C7.92811 8.44794 8.05385 8.44794 8.26298 8.44794C8.26298 8.14376 8.25657 7.86757 8.26426 7.59138C8.27838 7.08992 8.54653 6.78573 8.95711 6.79719C9.34972 6.80737 9.59478 7.1001 9.60504 7.57866C9.61017 7.84593 9.60504 8.11194 9.60504 8.45176C9.95531 8.45176 10.2684 8.4454 10.5814 8.45304C10.9728 8.46322 11.2204 8.66049 11.2499 9.05377C11.2807 9.47124 11.0433 9.71942 10.6417 9.76397C10.3158 9.80088 9.98225 9.7716 9.60247 9.7716C9.60247 10.1407 9.60889 10.4373 9.60119 10.7351C9.58964 11.15 9.35485 11.3995 8.95069 11.4096C8.53883 11.4211 8.30404 11.1602 8.2694 10.7593C8.24374 10.4614 8.26426 10.1611 8.26426 9.78179L8.26683 9.77924Z" fill="#014898"/>
</g>
<defs>
<clipPath id="clip0_2232_13213">
<rect width="44.9231" height="40" fill="white"/>
</clipPath>
</defs>
</svg>
