<svg width="632" height="55" viewBox="0 0 632 55" fill="none" xmlns="http://www.w3.org/2000/svg">
<path d="M399.236 0L400.048 2.42823H402.676L400.55 3.92897L401.362 6.3572L399.236 4.85647L397.111 6.3572L397.922 3.92897L395.797 2.42823H398.424L399.236 0Z" fill="#0057B8"/>
<path d="M399.236 48.3164L400.048 50.7446H402.676L400.55 52.2453L401.362 54.6736L399.236 53.1729L397.111 54.6736L397.922 52.2453L395.797 50.7446H398.424L399.236 48.3164Z" fill="#0057B8"/>
<path d="M411.668 3.23828L412.48 5.66652L415.107 5.66654L412.982 7.16726L413.793 9.5955L411.668 8.09478L409.542 9.5955L410.354 7.16724L408.229 5.66649L410.856 5.66651L411.668 3.23828Z" fill="#0057B8"/>
<path d="M386.787 45.0801L387.614 47.5033L390.242 47.4872L388.126 49.001L388.954 51.4242L386.818 49.9365L384.702 51.4502L385.499 49.017L383.363 47.5293L385.991 47.5132L386.787 45.0801Z" fill="#0057B8"/>
<path d="M424.253 14.6559L422.061 16.0636L422.761 18.5245L420.706 16.9337L418.514 18.3414L419.436 15.9505L417.381 14.3598L420.006 14.4729L420.928 12.082L421.628 14.5428L424.253 14.6559Z" fill="#0057B8"/>
<path d="M381.169 38.7258L379.016 40.1894L379.783 42.6313L377.685 41.0939L375.532 42.5576L376.389 40.1438L374.291 38.6064L376.918 38.652L377.774 36.2383L378.542 38.6802L381.169 38.7258Z" fill="#0057B8"/>
<path d="M422.876 42.6053L420.757 41.0947L418.624 42.5854L419.448 40.161L417.33 38.6504L419.958 38.6626L420.781 36.2383L421.581 38.6702L424.209 38.6826L422.076 40.1733L422.876 42.6053Z" fill="#0057B8"/>
<path d="M379.844 18.4305L377.712 16.9385L375.592 18.4479L376.394 16.0163L374.262 14.5243L376.889 14.5135L377.69 12.082L378.513 14.507L381.14 14.4962L379.021 16.0056L379.844 18.4305Z" fill="#0057B8"/>
<path d="M413.779 51.4464L411.661 49.9365L409.528 51.4278L410.351 49.0032L408.232 47.4932L410.86 47.5047L411.683 45.0801L412.484 47.5118L415.111 47.5233L412.979 49.0147L413.779 51.4464Z" fill="#0057B8"/>
<path d="M388.968 9.57254L386.824 8.09639L384.717 9.62154L385.499 7.1841L383.355 5.70797L385.983 5.67768L386.765 3.24023L387.606 5.65895L390.234 5.62865L388.126 7.1538L388.968 9.57254Z" fill="#0057B8"/>
<path d="M370.938 26.5908L373.565 26.5889L374.375 24.1602L375.189 26.5878L377.816 26.586L375.692 28.0883L376.505 30.5159L374.379 29.0166L372.254 30.5189L373.064 28.09L370.938 26.5908Z" fill="#0057B8"/>
<path d="M420.676 26.5482L423.303 26.5788L424.145 24.1602L424.927 26.5977L427.554 26.6282L425.41 28.1041L426.192 30.5416L424.085 29.0163L421.941 30.4922L422.783 28.0736L420.676 26.5482Z" fill="#0057B8"/>
<path d="M390.711 30.9091C390.384 31.2518 389.905 31.5277 389.274 31.7371C388.643 31.9464 387.951 32.0511 387.199 32.0511C386.042 32.0511 385.118 31.718 384.427 31.0519C383.735 30.3858 383.365 29.4589 383.317 28.2714L383.311 27.552C383.311 26.7336 383.464 26.02 383.772 25.4109C384.079 24.7981 384.518 24.328 385.088 24.0007C385.662 23.6695 386.325 23.5039 387.078 23.5039C388.178 23.5039 389.031 23.7418 389.638 24.2176C390.248 24.6896 390.604 25.3957 390.705 26.3359H388.655C388.582 25.8715 388.424 25.5403 388.182 25.3424C387.939 25.1445 387.595 25.0455 387.15 25.0455C386.617 25.0455 386.204 25.2587 385.913 25.685C385.622 26.1113 385.474 26.7203 385.47 27.512V28.0145C385.47 28.8442 385.62 29.4684 385.919 29.8872C386.222 30.3021 386.698 30.5095 387.345 30.5095C387.899 30.5095 388.311 30.3934 388.582 30.1612V28.8709H387.102V27.4949H390.711V30.9091Z" fill="#0057B8"/>
<path d="M391.949 31.9361V23.623H394.794C395.575 23.623 396.276 23.7906 396.899 24.1255C397.522 24.4567 398.007 24.9267 398.355 25.5358C398.707 26.141 398.885 26.8204 398.889 27.574V27.9566C398.889 28.7179 398.717 29.4011 398.373 30.0063C398.034 30.6077 397.552 31.0797 396.93 31.4223C396.311 31.761 395.619 31.9323 394.855 31.9361H391.949ZM394.078 25.1704V30.3946H394.819C395.429 30.3946 395.898 30.1909 396.226 29.7837C396.553 29.3726 396.717 28.7636 396.717 27.9566V27.5969C396.717 26.7938 396.553 26.1885 396.226 25.7813C395.898 25.374 395.421 25.1704 394.794 25.1704H394.078Z" fill="#0057B8"/>
<path d="M402.11 29.1156V31.9361H399.98V23.623H403.505C404.18 23.623 404.777 23.741 405.294 23.977C405.816 24.2092 406.219 24.5423 406.502 24.9762C406.789 25.4064 406.932 25.8954 406.932 26.4436C406.932 27.2543 406.623 27.9033 406.004 28.3905C405.39 28.874 404.544 29.1156 403.469 29.1156H402.11ZM402.11 27.5684H403.505C403.917 27.5684 404.231 27.4713 404.445 27.2772C404.664 27.083 404.773 26.809 404.773 26.455C404.773 26.0667 404.662 25.7565 404.439 25.5243C404.217 25.2921 403.913 25.1741 403.529 25.1704H402.11V27.5684Z" fill="#0057B8"/>
<path d="M411.354 29.0034H410.202V31.9381H408.072V23.625H411.548C412.596 23.625 413.415 23.8439 414.005 24.2816C414.595 24.7193 414.891 25.3378 414.891 26.1372C414.891 26.7157 414.765 27.1954 414.515 27.576C414.268 27.9566 413.88 28.265 413.35 28.501L415.194 31.8524V31.9381H412.913L411.354 29.0034ZM410.202 27.4561H411.548C411.953 27.4561 412.256 27.3571 412.458 27.1592C412.664 26.9575 412.768 26.6777 412.768 26.3199C412.768 25.9621 412.664 25.6824 412.458 25.4806C412.252 25.275 411.949 25.1723 411.548 25.1723H410.202V27.4561Z" fill="#0057B8"/>
<path fill-rule="evenodd" clip-rule="evenodd" d="M126.763 34.8818H132.628V19.6964H126.763V34.8818ZM126.15 14.9393C126.15 15.9616 126.491 16.7639 127.173 17.3467C127.856 17.9269 128.701 18.2187 129.704 18.2187C130.709 18.2187 131.552 17.9269 132.235 17.3467C132.916 16.7639 133.257 15.9616 133.257 14.9393C133.257 13.8952 132.916 13.0804 132.235 12.4983C131.552 11.9161 130.709 11.6244 129.704 11.6244C128.701 11.6244 127.856 11.9161 127.173 12.4983C126.491 13.0804 126.15 13.8952 126.15 14.9393ZM124.373 34.3962L124.365 30.5912C123.606 30.8704 122.893 31.0827 122.225 31.2285C121.558 31.377 120.874 31.45 120.176 31.45C119.498 31.45 118.865 31.3613 118.277 31.1845C117.687 31.0097 117.174 30.7489 116.735 30.4046C116.296 30.0596 115.947 29.6266 115.687 29.1049C115.43 28.5845 115.299 27.9794 115.299 27.2888C115.299 25.9549 115.713 24.9266 116.54 24.2078C117.37 23.4896 118.441 23.1296 119.757 23.1296C120.575 23.1296 121.344 23.236 122.061 23.4489C122.779 23.6611 123.427 23.9292 124.005 24.2518L124.014 20.1767C123.276 19.9126 123.256 19.8863 122.33 19.6846C121.408 19.4855 120.355 19.4539 119.218 19.4539C117.743 19.4539 116.391 19.6419 115.165 20.0144C113.938 20.3896 112.882 20.9218 111.994 21.6111C111.107 22.3003 110.419 23.1296 109.931 24.0968C109.442 25.0672 109.197 26.1369 109.197 27.3118C109.197 28.4998 109.427 29.5773 109.885 30.5478C110.343 31.5157 111.012 32.3357 111.889 33.0125C112.766 33.6873 113.838 34.209 115.105 34.575C116.372 34.9409 117.813 35.1249 119.428 35.1249C120.565 35.1249 121.582 35.0408 122.479 34.8706C123.377 34.7024 123.451 34.6637 124.373 34.3962ZM108.053 24.8905C108.053 23.1453 107.324 21.8417 105.865 20.9836C104.406 20.1255 102.398 19.6964 99.8422 19.6964H93.0046V34.8818H98.8411V30.3257H99.7562C100.995 30.3257 102.126 30.2134 103.147 29.9854C104.167 29.7593 105.04 29.4177 105.765 28.9617C106.49 28.507 107.052 27.9393 107.453 27.2559C107.854 26.5739 108.053 25.7848 108.053 24.8905ZM142 31.9809L97.0983 46L84 10.6302L131.139 8L142 31.9809ZM102.445 24.9562C102.445 25.675 102.189 26.2027 101.674 26.5404C101.158 26.8781 100.415 27.047 99.4419 27.047H98.7835V22.9758H99.4994C101.464 22.9758 102.445 23.6362 102.445 24.9562Z" fill="#0057B8"/>
<path d="M326.215 23.213C325.733 21.9483 324.744 20.8192 323.54 20.005C320.064 17.7978 314.766 17.6406 311.184 19.6361C309.231 20.632 307.947 22.6028 307.548 24.6324C306.823 27.9669 307.01 31.9344 309.579 34.4338C312.575 37.0598 316.934 37.6399 320.811 36.5612C320.995 36.5258 321.579 36.3788 321.982 36.1652L322.095 36.1166C323.299 35.6163 324.447 34.8016 325.305 33.6982C327.283 30.8053 327.419 26.4707 326.215 23.213ZM319.903 30.7009C319.766 31.3333 319.341 31.9884 318.67 32.226C317.602 32.6957 316.157 32.5655 315.168 32.016C314.338 31.4358 314.232 30.4645 314.125 29.5454C314.044 27.7336 313.913 25.8149 314.421 24.1585C314.818 23.1326 315.916 22.8686 316.908 22.7912C317.95 22.7912 318.965 22.9502 319.608 23.7907C320.009 24.3937 319.984 25.1826 320.064 25.8929C320.035 27.3898 320.17 29.1752 319.903 30.7009ZM288.209 32.3328C287.326 32.2788 286.337 32.3562 285.482 32.2512L285.508 23.0252L285.562 22.9484L288.209 22.9226C288.237 21.4251 288.263 19.8191 288.182 18.4542L278.101 18.426L276.441 18.4548C276.414 19.8466 276.414 21.4743 276.441 22.895C277.351 22.9232 278.205 22.895 279.088 22.9772V31.9122L279.063 32.2794L276.414 32.3334C276.359 33.7783 276.359 35.2248 276.414 36.6698H288.209L288.209 32.3328ZM317.895 38.6388C316.773 40.2437 315.355 41.7939 313.807 42.9998C313.751 43.082 313.591 43.0508 313.54 42.9752C312.869 42.5559 312.147 42.2127 311.504 41.7939C312.361 40.7698 313.191 39.7451 313.833 38.6106H313C312.336 39.5867 311.639 40.6109 310.757 41.4754C309.579 41.0032 308.51 40.5833 307.306 40.2653L307.173 40.1651C307.36 39.6341 307.707 39.1356 307.813 38.6094H307.091L306.369 40.0295C304.793 39.6881 303.054 39.5021 301.449 39.3984C301.368 39.1626 301.474 38.8206 301.368 38.6094H300.673C300.618 38.9256 300.753 39.1638 300.592 39.426C298.934 39.5021 297.33 39.6881 295.78 40.0067L295.055 38.6094C294.791 38.6094 294.493 38.559 294.308 38.6376L294.976 40.1885L294.896 40.2653C293.697 40.6121 292.519 41.0251 291.366 41.5024L291.26 41.4484C290.509 40.6336 289.787 39.7439 289.198 38.85C289.065 38.4006 288.53 38.6634 288.235 38.6106C288.875 39.7685 289.733 40.792 290.588 41.8449C289.866 42.2667 289.147 42.7371 288.394 43.082C286.758 41.8361 285.332 40.3365 284.17 38.64C283.848 38.5884 283.637 38.6118 283.313 38.64C285.239 41.6362 288.235 44.2633 291.365 45.8142C291.365 45.8142 291.365 45.7908 291.393 45.7908C291.416 45.7908 291.47 45.8394 291.416 45.867C293.53 46.8923 295.778 47.6278 298.157 47.9446C306.368 49.0209 314.205 45.5274 318.749 38.64C318.465 38.6108 318.179 38.6104 317.895 38.6388ZM306.745 41.0038L306.823 40.951C307.977 41.2138 309.071 41.5822 310.088 42.0801C309.231 43.0502 308.134 43.8932 307.119 44.6023C306.505 44.9689 305.887 45.3672 305.245 45.6804L304.097 45.1813L304.176 44.9995C305.141 43.7126 305.997 42.3969 306.745 41.0038ZM301.474 40.2149C303 40.2437 304.525 40.4009 305.94 40.741L305.968 40.8208C305.221 42.2385 304.283 43.6082 303.268 44.8933C302.811 44.9473 302.385 44.7655 301.931 44.7373L301.474 44.6833C301.421 43.1324 301.393 41.7657 301.474 40.2149ZM296.315 40.6876C297.705 40.4249 299.149 40.2149 300.646 40.2149L300.673 44.6611C300.111 44.7883 299.496 44.7883 298.96 44.9233C297.864 43.6322 296.955 42.2385 296.181 40.792L296.315 40.6876ZM292.006 42.1083C293.052 41.6074 294.147 41.2372 295.269 40.9504L295.378 40.978C296.151 42.4239 297.115 43.7894 298.077 45.1561C297.706 45.3678 297.249 45.4944 296.876 45.708C295.067 44.8145 293.421 43.6237 292.007 42.1851V42.1083H292.006ZM295.458 46.6019C293.211 46.0218 291.123 45.0235 289.198 43.6592V43.5776C289.84 43.187 290.484 42.7653 291.177 42.4731C292.703 43.9754 294.28 45.1057 295.991 46.1808C295.858 46.3386 295.645 46.4969 295.458 46.6019ZM305.379 46.9415C302.545 47.5498 299.388 47.5732 296.554 46.8911C296.5 46.7603 296.688 46.7321 296.768 46.6553C299.255 45.0505 303.131 45.0505 305.568 46.7831C305.647 46.9415 305.433 46.8911 305.379 46.9415ZM307.948 46.2084L306.691 46.6013C306.476 46.4963 306.29 46.3386 306.101 46.1802L306.155 46.0998C307.867 45.1051 309.418 43.8926 310.889 42.4473C311.612 42.7359 312.308 43.1324 312.951 43.577C311.452 44.7655 309.713 45.5502 307.948 46.2084ZM284.118 16.4293C284.779 15.5139 285.503 14.6449 286.284 13.8286C286.977 13.1716 287.621 12.5411 288.371 12.0659C289.067 12.5123 289.841 12.8843 290.51 13.303C289.681 14.3229 288.825 15.3524 288.21 16.4533C288.396 16.5355 288.745 16.5097 289.013 16.4533C289.681 15.4826 290.401 14.5107 291.26 13.6426C292.407 14.0644 293.532 14.5095 294.71 14.8263L294.814 14.9307L294.148 16.4533C294.443 16.5097 294.631 16.4821 294.923 16.4533C295.163 16.0094 295.349 15.5114 295.616 15.0621C297.17 15.4052 298.802 15.5882 300.46 15.6392C300.672 15.8258 300.513 16.2182 300.593 16.4533H301.315C301.393 16.1954 301.288 15.9026 301.393 15.6686C302.946 15.587 304.577 15.4292 306.079 15.0609L306.21 15.0885L306.932 16.4521C307.173 16.4521 307.494 16.5085 307.681 16.3981L307.011 14.8779L307.066 14.8251C308.294 14.5095 309.446 14.0368 310.623 13.5646C311.454 14.4315 312.228 15.4562 312.925 16.4515C313.218 16.4515 313.513 16.4803 313.727 16.3975C313.397 15.8108 313.011 15.2568 312.576 14.7429C312.223 14.2396 311.829 13.7662 311.398 13.3276V13.1914L313.27 12.1157L313.54 12.0107C315.169 13.2432 316.594 14.7235 317.763 16.3975C318.084 16.3975 318.353 16.5079 318.621 16.3753C315.033 11.0184 309.124 7.57171 302.735 7.07556L302.707 7.12655L302.652 7.07556C301.931 6.99816 301.045 6.96757 300.27 7.04496C299.977 7.02216 299.63 7.04496 299.281 7.07556C292.864 7.57171 286.954 10.8588 283.261 16.4545C283.529 16.4293 283.85 16.5361 284.118 16.4293ZM295.219 14.1201L295.112 14.1429C294.014 13.8568 292.943 13.5118 291.927 13.0666L291.978 12.9089C293.449 11.5164 295 10.3591 296.712 9.46755C297.115 9.62533 297.516 9.75552 297.917 9.94211L297.838 10.1473C296.82 11.412 296.02 12.7757 295.219 14.1201ZM300.539 14.8275C299.792 14.9325 299.123 14.8041 298.371 14.7459C297.653 14.6403 296.741 14.5641 296.02 14.3241C296.795 12.8855 297.706 11.49 298.802 10.2055L300.514 10.4389C300.593 11.8031 300.539 13.381 300.539 14.8275ZM301.367 14.8557C301.315 13.4584 301.342 11.9099 301.367 10.4641C301.904 10.3873 302.49 10.3057 303.026 10.2283C304.069 11.5404 305.088 12.8855 305.784 14.3241C304.338 14.674 302.855 14.8524 301.367 14.8557ZM309.902 13.0132C308.857 13.4578 307.786 13.879 306.637 14.1201C305.809 12.7271 304.9 11.3346 303.881 9.9889C304.256 9.78312 304.713 9.62533 305.113 9.41595C306.855 10.2823 308.537 11.5164 309.953 12.931L309.902 13.0132ZM306.476 8.51963C308.723 9.09918 310.836 10.0963 312.762 11.463L312.708 11.568L310.865 12.5915H310.728C309.313 11.1774 307.656 9.94211 305.968 8.96719C306.022 8.78301 306.291 8.65042 306.476 8.51963ZM305.408 8.25565V8.31145C303.079 9.9889 299.309 10.1473 296.85 8.59642C296.712 8.49143 296.448 8.44044 296.419 8.25625C299.256 7.60231 302.597 7.54951 305.408 8.25565ZM289.092 11.5164C290.778 10.2823 292.65 9.36256 294.629 8.73141C294.71 8.64922 294.762 8.57183 294.868 8.57183V8.62582C295.081 8.67742 295.243 8.43924 295.429 8.59522C295.591 8.73141 295.78 8.8352 295.912 8.96599C294.254 9.9889 292.622 11.2002 291.124 12.6689C290.402 12.4109 289.736 12.0143 289.091 11.568L289.092 11.5164ZM300.567 32.538C298.053 33.2225 295.323 32.7005 293.505 30.8053C293.292 30.5425 293.157 30.2294 292.942 29.9678L289.333 29.993C289.276 32.121 289.251 34.5658 289.333 36.6692L293.343 36.6434L293.397 35.3811C293.853 35.5911 294.308 35.8533 294.762 36.089C297.543 37.2469 301.124 37.5097 303.879 36.089C305.887 34.9881 306.957 32.8601 306.662 30.5689C306.369 28.3377 304.229 26.3129 302.064 25.7627L295.59 23.8951L295.111 23.6575C294.897 23.4751 294.763 23.24 294.815 22.9484C295.323 22.0833 296.501 22.346 297.384 22.3694C299.256 22.6328 301.181 23.2634 302.278 24.9726C303.454 24.9726 304.817 24.9954 306.1 24.945C306.154 22.7906 306.079 20.8996 306.047 18.7175C304.844 18.6899 303.372 18.6899 302.17 18.7451C302.116 19.0577 302.222 19.5029 302.088 19.8197L300.859 19.1621C297.915 17.9274 293.796 17.7984 291.123 19.7171C289.384 20.9763 288.85 23.2388 289.305 25.2354C289.651 27.1246 291.47 28.5189 293.209 29.174C295.589 30.014 298.075 30.6223 300.486 31.4358C300.725 31.5426 301.045 31.7808 300.994 32.0694C300.995 32.3028 300.753 32.4378 300.567 32.538Z" fill="#0057B8"/>
<g clip-path="url(#clip0_2108_1674)">
<path d="M471.715 21.8516H474.155V25.933H478.896V21.8516H481.337V32.7973H478.896V28.0666H474.155V32.7973H471.715V21.8516ZM483.398 21.8516H485.839V32.7973H483.398V21.8516ZM487.903 21.8516H492.017C492.591 21.8516 493.133 21.9031 493.644 22.0061C494.155 22.1092 494.599 22.2896 494.974 22.5473C495.36 22.7946 495.663 23.1348 495.882 23.5676C496.111 23.9902 496.226 24.5261 496.226 25.1755C496.226 25.8145 496.122 26.3505 495.913 26.7834C495.704 27.2162 495.418 27.5615 495.053 27.8192C494.687 28.0768 494.255 28.2624 493.754 28.3758C493.253 28.4788 492.711 28.5303 492.127 28.5303H490.343V32.7973H487.903V21.8516ZM490.343 26.4896H491.97C492.189 26.4896 492.398 26.469 492.596 26.4278C492.805 26.3865 492.987 26.3195 493.144 26.2268C493.311 26.1237 493.441 25.9897 493.535 25.8248C493.639 25.6496 493.691 25.4332 493.691 25.1755C493.691 24.8972 493.624 24.6756 493.488 24.5107C493.363 24.3355 493.196 24.2015 492.987 24.1087C492.789 24.016 492.565 23.9593 492.315 23.9387C492.064 23.9077 491.824 23.8923 491.595 23.8923H490.343V26.4896ZM499.369 21.8516H501.387L506.206 32.7973H503.452L502.498 30.4783H498.195L497.272 32.7973H494.581L499.369 21.8516ZM500.307 25.0363L498.962 28.4376H501.669L500.307 25.0363ZM511.434 21.8516H513.452L518.271 32.7973H515.518L514.563 30.4783H510.261L509.338 32.7973H506.647L511.434 21.8516ZM512.373 25.0363L511.028 28.4376H513.734L512.373 25.0363Z" fill="#0057B8"/>
<path d="M475.879 38.9516C475.636 39.2764 475.355 39.5094 475.036 39.6506C474.717 39.7918 474.371 39.8624 474 39.8624C473.614 39.8624 473.259 39.7989 472.935 39.6718C472.616 39.54 472.342 39.3587 472.114 39.1281C471.885 38.8927 471.706 38.6151 471.578 38.295C471.449 37.9702 471.385 37.6172 471.385 37.2359C471.385 36.8546 471.449 36.504 471.578 36.1839C471.706 35.8638 471.885 35.5884 472.114 35.3578C472.342 35.1224 472.616 34.9388 472.935 34.8071C473.259 34.6753 473.614 34.6094 474 34.6094C474.343 34.6094 474.662 34.6706 474.957 34.7929C475.257 34.9106 475.519 35.1107 475.743 35.3931L475.357 35.7108C475.2 35.4754 474.998 35.3037 474.75 35.1954C474.507 35.0871 474.257 35.033 474 35.033C473.671 35.033 473.373 35.0895 473.107 35.2024C472.845 35.3154 472.621 35.4707 472.435 35.6685C472.249 35.8661 472.106 36.0992 472.006 36.3675C471.906 36.6358 471.856 36.9252 471.856 37.2359C471.856 37.5465 471.906 37.836 472.006 38.1043C472.106 38.3726 472.249 38.6056 472.435 38.8033C472.621 39.001 472.845 39.1564 473.107 39.2693C473.373 39.3823 473.671 39.4388 474 39.4388C474.128 39.4388 474.262 39.4247 474.4 39.3964C474.538 39.3635 474.671 39.3164 474.8 39.2552C474.933 39.1893 475.06 39.1093 475.179 39.0152C475.298 38.9163 475.403 38.7986 475.493 38.6621L475.879 38.9516ZM477.202 37.2359C477.202 36.8546 477.266 36.504 477.394 36.1839C477.523 35.8638 477.702 35.5884 477.93 35.3578C478.159 35.1224 478.433 34.9388 478.752 34.8071C479.076 34.6753 479.431 34.6094 479.817 34.6094C480.202 34.6094 480.555 34.6753 480.874 34.8071C481.198 34.9388 481.474 35.1224 481.703 35.3578C481.932 35.5884 482.11 35.8638 482.239 36.1839C482.367 36.504 482.432 36.8546 482.432 37.2359C482.432 37.6172 482.367 37.9702 482.239 38.295C482.11 38.6151 481.932 38.8927 481.703 39.1281C481.474 39.3587 481.198 39.54 480.874 39.6718C480.555 39.7989 480.202 39.8624 479.817 39.8624C479.431 39.8624 479.076 39.7989 478.752 39.6718C478.433 39.54 478.159 39.3587 477.93 39.1281C477.702 38.8927 477.523 38.6151 477.394 38.295C477.266 37.9702 477.202 37.6172 477.202 37.2359ZM477.673 37.2359C477.673 37.5465 477.723 37.836 477.823 38.1043C477.923 38.3726 478.066 38.6056 478.252 38.8033C478.438 39.001 478.661 39.1564 478.924 39.2693C479.19 39.3823 479.488 39.4388 479.817 39.4388C480.145 39.4388 480.441 39.3823 480.703 39.2693C480.969 39.1564 481.196 39.001 481.381 38.8033C481.567 38.6056 481.71 38.3726 481.81 38.1043C481.91 37.836 481.96 37.5465 481.96 37.2359C481.96 36.9252 481.91 36.6358 481.81 36.3675C481.71 36.0992 481.567 35.8661 481.381 35.6685C481.196 35.4707 480.969 35.3154 480.703 35.2024C480.441 35.0895 480.145 35.033 479.817 35.033C479.488 35.033 479.19 35.0895 478.924 35.2024C478.661 35.3154 478.438 35.4707 478.252 35.6685C478.066 35.8661 477.923 36.0992 477.823 36.3675C477.723 36.6358 477.673 36.9252 477.673 37.2359ZM484.296 34.7365H485.004L486.847 38.9304L488.691 34.7365H489.362V39.7353H488.891V35.3295H488.876L486.947 39.7353H486.74L484.782 35.3295H484.768V39.7353H484.296V34.7365ZM491.482 34.7365H492.94C493.116 34.7365 493.299 34.7576 493.49 34.8C493.685 34.8377 493.861 34.9059 494.018 35.0048C494.18 35.1036 494.311 35.2401 494.411 35.4143C494.516 35.5837 494.569 35.7979 494.569 36.0568C494.569 36.2827 494.526 36.4781 494.44 36.6428C494.359 36.8076 494.247 36.944 494.104 37.0523C493.966 37.1558 493.804 37.2335 493.618 37.2853C493.437 37.3371 493.247 37.363 493.047 37.363H491.954V39.7353H491.482V34.7365ZM491.954 36.9394H493.025C493.159 36.9394 493.29 36.9252 493.418 36.897C493.547 36.864 493.661 36.8146 493.761 36.7487C493.861 36.6781 493.942 36.5863 494.004 36.4733C494.066 36.3604 494.097 36.2216 494.097 36.0568C494.097 35.8968 494.064 35.7602 493.997 35.6473C493.935 35.5343 493.852 35.4425 493.747 35.3719C493.647 35.2966 493.53 35.2425 493.397 35.2095C493.263 35.1766 493.13 35.1601 492.997 35.1601H491.954V36.9394ZM496.371 34.7365H496.842V39.3117H499.2V39.7353H496.371V34.7365ZM500.801 34.7365H501.272V39.7353H500.801V34.7365ZM504.993 34.7365H505.479L507.608 39.7353H507.079L506.529 38.4079H503.85L503.278 39.7353H502.785L504.993 34.7365ZM505.215 35.2448L504.036 37.9843H506.358L505.215 35.2448ZM509.191 34.7365H509.799L512.878 39.114H512.892V34.7365H513.364V39.7353H512.757L509.677 35.3578H509.663V39.7353H509.191V34.7365ZM516.589 35.1601H514.86V34.7365H518.789V35.1601H517.06V39.7353H516.589V35.1601Z" fill="#0057B8"/>
<path d="M486.081 41.6523H483.617C487.22 45.6694 492.579 47.5258 494.92 48.1347V46.5216C489.992 44.9391 486.974 42.6059 486.081 41.6523Z" fill="#0057B8"/>
<path d="M503.696 41.6211H506.16C502.557 45.6382 497.198 47.4946 494.857 48.1035V46.4904C499.785 44.9079 502.803 42.5747 503.696 41.6211Z" fill="#0057B8"/>
<path d="M478.844 10.3979V19.8931H494.935V17.7019H493.719V15.0542H490.916V12.6804H493.719V9.9414H494.858V8.90668C486.013 8.88234 480.497 9.89068 478.844 10.3979Z" fill="#0057B8"/>
<path d="M510.872 10.3679V19.8931H494.857V17.702H495.997V15.0243H498.799V12.7109H496.028V9.94144H494.857V8.9067C503.702 8.88235 509.219 9.86072 510.872 10.3679Z" fill="#0057B8"/>
<path d="M475.345 19.8602V19.9102H475.395H476.688H476.738V19.8602V8.69835C479.017 8.04723 485.752 6.76296 494.766 6.76296C503.782 6.76296 510.505 8.09174 512.833 8.76322L512.925 19.8606L512.925 19.9102H512.975H514.232H514.282L514.282 19.8605C514.293 18.0344 514.303 15.2525 514.286 12.8419C514.278 11.6366 514.262 10.5238 514.237 9.66959C514.224 9.24252 514.209 8.87968 514.19 8.60205C514.172 8.32678 514.151 8.12957 514.124 8.03812L514.126 8.03766L514.119 8.02647C513.989 7.807 513.742 7.63681 513.494 7.51348C513.246 7.38989 512.989 7.30964 512.826 7.2732C510.684 6.64243 504.081 5.39085 494.766 5.41519C483.12 5.44564 477.541 7.02881 476.396 7.39575C475.922 7.54756 475.649 7.8958 475.499 8.26458C475.351 8.63123 475.324 9.02162 475.345 9.27146V19.8602Z" fill="#0057B8" stroke="#0057B8" stroke-width="0.1"/>
<path d="M476.719 19.8898H478.289C478.289 19.4637 478.32 16.822 478.32 9.90757C484.233 8.54418 491.81 8.2439 494.858 8.26419V6.74252C485.767 6.71817 478.957 8.03087 476.719 8.69026V19.8898Z" fill="#0057B8"/>
<path d="M512.936 19.8933H511.396V9.9115C505.483 8.54806 497.906 8.24779 494.857 8.26808V6.74641C503.949 6.72206 510.698 8.09529 512.936 8.75468V19.8933Z" fill="#0057B8"/>
<path d="M494.827 49.5042C487.263 47.24 483.011 43.3465 481.83 41.6828H483.616C485.895 44.087 488.883 46.4 494.827 48.1043C501.233 46.2054 505.082 43.0016 506.16 41.6523H507.885C506.427 43.4377 501.775 47.5323 494.827 49.5042Z" fill="#0057B8" stroke="#0057B8" stroke-width="0.1"/>
<path d="M494.857 41.6836V45.9139C491.087 44.8426 487.927 42.6473 486.818 41.6836H494.857Z" fill="#0057B8"/>
<path d="M494.857 41.6836V45.9139C498.627 44.8426 501.787 42.6473 502.896 41.6836H494.857Z" fill="#0057B8"/>
</g>
<path d="M564.68 8.0293H570.484V17.8359H576.122H581.759V8.0293H587.564V34.3287H581.759V22.962H570.484V34.3287H564.68V8.0293ZM592.765 8.0293H598.57V28.9797H610.075V34.3287H592.765V8.0293ZM624.249 13.1555H611.225V8.0293H630.5V12.9326L619.97 34.3287H613.458L624.249 13.1555Z" fill="#0057B8"/>
<path d="M565.588 38.8063H566.426V45.8598H565.588V38.8063ZM568.14 42.3032C568.14 42.0907 568.134 41.8914 568.12 41.7054C568.107 41.5194 568.1 41.3501 568.1 41.1973H568.839C568.839 41.3236 568.842 41.4497 568.849 41.5759C568.856 41.7022 568.859 41.8317 568.859 41.9645H568.879C568.932 41.8516 569.005 41.742 569.098 41.6357C569.198 41.5294 569.315 41.4364 569.448 41.3567C569.581 41.2703 569.73 41.204 569.897 41.1575C570.063 41.1044 570.243 41.0778 570.436 41.0778C570.742 41.0778 571.004 41.1243 571.224 41.2173C571.45 41.3102 571.637 41.4397 571.783 41.6058C571.929 41.7719 572.036 41.9744 572.102 42.2135C572.175 42.4459 572.212 42.7017 572.212 42.9806V45.8598H571.434V43.0603C571.434 42.6685 571.347 42.3597 571.174 42.1338C571.001 41.908 570.732 41.7951 570.366 41.7951C570.113 41.7951 569.893 41.8382 569.707 41.9246C569.528 42.011 569.378 42.1338 569.258 42.2932C569.145 42.4526 569.058 42.6419 568.999 42.8611C568.945 43.0803 568.919 43.3226 568.919 43.5883V45.8598H568.14V42.3032ZM576.34 41.8549H574.963V44.1861C574.963 44.3388 574.966 44.4817 574.973 44.6145C574.98 44.7407 575.006 44.8536 575.053 44.9532C575.099 45.0462 575.169 45.1226 575.262 45.1824C575.356 45.2354 575.489 45.2621 575.662 45.2621C575.775 45.2621 575.891 45.2488 576.011 45.2222C576.131 45.1956 576.244 45.1557 576.35 45.1027L576.38 45.81C576.247 45.8698 576.097 45.9129 575.931 45.9395C575.771 45.9661 575.618 45.9794 575.472 45.9794C575.193 45.9794 574.97 45.9428 574.803 45.8698C574.637 45.7968 574.507 45.6937 574.414 45.5609C574.321 45.4281 574.258 45.2653 574.225 45.0728C574.198 44.8735 574.185 44.6543 574.185 44.4152V41.8549H573.167V41.1973H574.185V39.8723H574.963V41.1973H576.34V41.8549ZM581.565 45.013C581.286 45.3716 580.98 45.624 580.647 45.7701C580.314 45.9096 579.928 45.9794 579.489 45.9794C579.124 45.9794 578.794 45.9163 578.501 45.7901C578.209 45.6573 577.959 45.4812 577.753 45.2621C577.553 45.0429 577.397 44.7839 577.284 44.485C577.178 44.1861 577.124 43.8673 577.124 43.5286C577.124 43.1699 577.184 42.8412 577.304 42.5423C577.424 42.2367 577.59 41.9777 577.803 41.7652C578.016 41.546 578.269 41.3767 578.561 41.2571C578.854 41.1376 579.173 41.0778 579.519 41.0778C579.845 41.0778 580.145 41.1343 580.417 41.2472C580.69 41.3535 580.923 41.5129 581.116 41.7254C581.316 41.9313 581.469 42.1869 581.575 42.4925C581.682 42.7913 581.735 43.1333 581.735 43.5186V43.7677H577.962C577.976 43.9669 578.022 44.1595 578.102 44.3455C578.189 44.5248 578.299 44.6842 578.432 44.8237C578.565 44.9565 578.721 45.0628 578.901 45.1425C579.08 45.2222 579.277 45.2621 579.489 45.2621C579.829 45.2621 580.115 45.2023 580.348 45.0827C580.581 44.9632 580.79 44.7871 580.976 44.5547L581.565 45.013ZM580.897 43.1101C580.883 42.7116 580.754 42.3928 580.507 42.1537C580.261 41.9146 579.922 41.7951 579.489 41.7951C579.057 41.7951 578.708 41.9146 578.442 42.1537C578.175 42.3928 578.016 42.7116 577.962 43.1101H580.897ZM583.039 42.3032C583.039 42.0907 583.032 41.8914 583.019 41.7054C583.006 41.5194 582.999 41.3501 582.999 41.1973H583.737C583.737 41.3236 583.741 41.4497 583.747 41.5759C583.754 41.7022 583.757 41.8317 583.757 41.9645H583.777C583.831 41.8516 583.904 41.742 583.997 41.6357C584.097 41.5294 584.213 41.4364 584.346 41.3567C584.479 41.2703 584.629 41.204 584.795 41.1575C584.962 41.1044 585.141 41.0778 585.334 41.0778C585.387 41.0778 585.441 41.0811 585.494 41.0878C585.547 41.0944 585.6 41.1077 585.654 41.1276L585.604 41.9146C585.471 41.8748 585.331 41.8549 585.184 41.8549C584.705 41.8549 584.356 42.011 584.137 42.3231C583.924 42.6287 583.817 43.0504 583.817 43.5883V45.8598H583.039V42.3032ZM586.547 42.3032C586.547 42.0907 586.541 41.8914 586.527 41.7054C586.514 41.5194 586.507 41.3501 586.507 41.1973H587.246C587.246 41.3236 587.249 41.4497 587.256 41.5759C587.263 41.7022 587.266 41.8317 587.266 41.9645H587.286C587.339 41.8516 587.412 41.742 587.505 41.6357C587.605 41.5294 587.722 41.4364 587.855 41.3567C587.988 41.2703 588.137 41.204 588.304 41.1575C588.47 41.1044 588.65 41.0778 588.843 41.0778C589.149 41.0778 589.411 41.1243 589.631 41.2173C589.857 41.3102 590.044 41.4397 590.19 41.6058C590.336 41.7719 590.443 41.9744 590.509 42.2135C590.582 42.4459 590.619 42.7017 590.619 42.9806V45.8598H589.841V43.0603C589.841 42.6685 589.754 42.3597 589.581 42.1338C589.408 41.908 589.139 41.7951 588.773 41.7951C588.52 41.7951 588.3 41.8382 588.114 41.9246C587.934 42.011 587.785 42.1338 587.665 42.2932C587.552 42.4526 587.465 42.6419 587.406 42.8611C587.352 43.0803 587.326 43.3226 587.326 43.5883V45.8598H586.547V42.3032ZM592.133 41.7951C592.372 41.5493 592.655 41.37 592.981 41.2571C593.313 41.1376 593.649 41.0778 593.989 41.0778C594.681 41.0778 595.18 41.2405 595.486 41.566C595.792 41.8914 595.945 42.3862 595.945 43.0504V45.0528C595.945 45.1856 595.951 45.3251 595.965 45.4713C595.978 45.6107 595.995 45.7403 596.015 45.8598H595.266C595.24 45.7535 595.223 45.6374 595.216 45.5111C595.216 45.3783 595.216 45.2621 595.216 45.1624H595.196C595.043 45.4015 594.837 45.5975 594.578 45.7502C594.325 45.9029 594.019 45.9794 593.659 45.9794C593.42 45.9794 593.194 45.9495 592.981 45.8897C592.775 45.8299 592.592 45.7435 592.432 45.6307C592.279 45.5111 592.156 45.365 592.063 45.1923C591.969 45.0197 591.923 44.8204 591.923 44.5946C591.923 44.2093 592.023 43.9072 592.222 43.688C592.422 43.4688 592.668 43.3061 592.961 43.1998C593.26 43.0935 593.58 43.0272 593.919 43.0006C594.265 42.9739 594.581 42.9607 594.867 42.9607H595.166V42.8212C595.166 42.4825 595.063 42.2268 594.857 42.0541C594.657 41.8815 594.375 41.7951 594.009 41.7951C593.756 41.7951 593.506 41.8382 593.26 41.9246C593.021 42.0043 592.808 42.1305 592.622 42.3032L592.133 41.7951ZM594.388 43.6182C593.889 43.6182 593.493 43.688 593.2 43.8275C592.908 43.9669 592.761 44.1961 592.761 44.5149C592.761 44.8071 592.858 45.0163 593.051 45.1425C593.25 45.2621 593.496 45.3218 593.789 45.3218C594.015 45.3218 594.212 45.2853 594.378 45.2122C594.551 45.1325 594.694 45.0296 594.807 44.9034C594.92 44.7772 595.007 44.6311 595.067 44.4651C595.126 44.2924 595.16 44.1097 595.166 43.9171V43.6182H594.388ZM600.022 41.8549H598.645V44.1861C598.645 44.3388 598.648 44.4817 598.655 44.6145C598.661 44.7407 598.688 44.8536 598.735 44.9532C598.781 45.0462 598.851 45.1226 598.944 45.1824C599.037 45.2354 599.17 45.2621 599.343 45.2621C599.456 45.2621 599.573 45.2488 599.693 45.2222C599.812 45.1956 599.926 45.1557 600.032 45.1027L600.062 45.81C599.929 45.8698 599.779 45.9129 599.613 45.9395C599.453 45.9661 599.3 45.9794 599.154 45.9794C598.874 45.9794 598.651 45.9428 598.485 45.8698C598.319 45.7968 598.189 45.6937 598.096 45.5609C598.003 45.4281 597.94 45.2653 597.906 45.0728C597.88 44.8735 597.866 44.6543 597.866 44.4152V41.8549H596.849V41.1973H597.866V39.8723H598.645V41.1973H600.022V41.8549ZM601.155 41.1973H601.933V45.8598H601.155V41.1973ZM600.975 39.3742C600.975 39.2215 601.029 39.0886 601.135 38.9757C601.248 38.8628 601.385 38.8063 601.544 38.8063C601.704 38.8063 601.837 38.8628 601.943 38.9757C602.057 39.0886 602.113 39.2215 602.113 39.3742C602.113 39.5403 602.06 39.6763 601.953 39.7827C601.847 39.889 601.711 39.9421 601.544 39.9421C601.378 39.9421 601.242 39.889 601.135 39.7827C601.029 39.6763 600.975 39.5403 600.975 39.3742ZM603.313 43.5286C603.313 43.1632 603.376 42.8312 603.503 42.5323C603.629 42.2334 603.802 41.9777 604.022 41.7652C604.241 41.546 604.504 41.3767 604.81 41.2571C605.116 41.1376 605.449 41.0778 605.808 41.0778C606.167 41.0778 606.5 41.1376 606.806 41.2571C607.112 41.3767 607.375 41.546 607.594 41.7652C607.814 41.9777 607.987 42.2334 608.113 42.5323C608.24 42.8312 608.303 43.1632 608.303 43.5286C608.303 43.8939 608.24 44.226 608.113 44.5248C607.987 44.8237 607.814 45.0827 607.594 45.3019C607.375 45.5144 607.112 45.6805 606.806 45.8C606.5 45.9196 606.167 45.9794 605.808 45.9794C605.449 45.9794 605.116 45.9196 604.81 45.8C604.504 45.6805 604.241 45.5144 604.022 45.3019C603.802 45.0827 603.629 44.8237 603.503 44.5248C603.376 44.226 603.313 43.8939 603.313 43.5286ZM604.151 43.5286C604.151 43.7744 604.188 44.0035 604.261 44.216C604.341 44.4219 604.454 44.6045 604.6 44.7639C604.747 44.9166 604.92 45.0396 605.119 45.1325C605.326 45.2189 605.555 45.2621 605.808 45.2621C606.061 45.2621 606.287 45.2189 606.487 45.1325C606.693 45.0396 606.869 44.9166 607.015 44.7639C607.162 44.6045 607.272 44.4219 607.345 44.216C607.425 44.0035 607.465 43.7744 607.465 43.5286C607.465 43.2828 607.425 43.0571 607.345 42.8511C607.272 42.6386 607.162 42.4559 607.015 42.3032C606.869 42.1438 606.693 42.021 606.487 41.9346C606.287 41.8416 606.061 41.7951 605.808 41.7951C605.555 41.7951 605.326 41.8416 605.119 41.9346C604.92 42.021 604.747 42.1438 604.6 42.3032C604.454 42.4559 604.341 42.6386 604.261 42.8511C604.188 43.0571 604.151 43.2828 604.151 43.5286ZM609.707 42.3032C609.707 42.0907 609.701 41.8914 609.687 41.7054C609.674 41.5194 609.667 41.3501 609.667 41.1973H610.406C610.406 41.3236 610.409 41.4497 610.416 41.5759C610.423 41.7022 610.426 41.8317 610.426 41.9645H610.446C610.499 41.8516 610.572 41.742 610.665 41.6357C610.765 41.5294 610.882 41.4364 611.015 41.3567C611.148 41.2703 611.298 41.204 611.464 41.1575C611.63 41.1044 611.81 41.0778 612.003 41.0778C612.309 41.0778 612.572 41.1243 612.791 41.2173C613.017 41.3102 613.204 41.4397 613.35 41.6058C613.496 41.7719 613.603 41.9744 613.669 42.2135C613.743 42.4459 613.779 42.7017 613.779 42.9806V45.8598H613.001V43.0603C613.001 42.6685 612.914 42.3597 612.741 42.1338C612.568 41.908 612.299 41.7951 611.933 41.7951C611.68 41.7951 611.461 41.8382 611.274 41.9246C611.095 42.011 610.945 42.1338 610.825 42.2932C610.712 42.4526 610.626 42.6419 610.566 42.8611C610.512 43.0803 610.486 43.3226 610.486 43.5883V45.8598H609.707V42.3032ZM615.492 41.7951C615.732 41.5493 616.015 41.37 616.341 41.2571C616.673 41.1376 617.009 41.0778 617.349 41.0778C618.04 41.0778 618.539 41.2405 618.845 41.566C619.151 41.8914 619.305 42.3862 619.305 43.0504V45.0528C619.305 45.1856 619.311 45.3251 619.325 45.4713C619.338 45.6107 619.354 45.7403 619.374 45.8598H618.626C618.599 45.7535 618.583 45.6374 618.576 45.5111C618.576 45.3783 618.576 45.2621 618.576 45.1624H618.556C618.403 45.4015 618.197 45.5975 617.937 45.7502C617.684 45.9029 617.378 45.9794 617.019 45.9794C616.78 45.9794 616.553 45.9495 616.341 45.8897C616.134 45.8299 615.951 45.7435 615.792 45.6307C615.639 45.5111 615.516 45.365 615.422 45.1923C615.329 45.0197 615.283 44.8204 615.283 44.5946C615.283 44.2093 615.383 43.9072 615.582 43.688C615.782 43.4688 616.028 43.3061 616.321 43.1998C616.62 43.0935 616.939 43.0272 617.279 43.0006C617.625 42.9739 617.941 42.9607 618.227 42.9607H618.526V42.8212C618.526 42.4825 618.423 42.2268 618.217 42.0541C618.017 41.8815 617.734 41.7951 617.368 41.7951C617.116 41.7951 616.866 41.8382 616.62 41.9246C616.381 42.0043 616.168 42.1305 615.981 42.3032L615.492 41.7951ZM617.748 43.6182C617.249 43.6182 616.853 43.688 616.56 43.8275C616.267 43.9669 616.121 44.1961 616.121 44.5149C616.121 44.8071 616.217 45.0163 616.41 45.1425C616.61 45.2621 616.856 45.3218 617.149 45.3218C617.375 45.3218 617.571 45.2853 617.738 45.2122C617.911 45.1325 618.054 45.0296 618.167 44.9034C618.28 44.7772 618.366 44.6311 618.426 44.4651C618.486 44.2924 618.519 44.1097 618.526 43.9171V43.6182H617.748ZM620.997 38.3281H621.775V45.8598H620.997V38.3281Z" fill="#0057B8"/>
<g clip-path="url(#clip1_2108_1674)">
<path d="M37.0809 7H3.91912C1.75465 7 0 8.73551 0 10.8764V44.1236C0 46.2645 1.75465 48 3.91912 48H37.0809C39.2453 48 41 46.2645 41 44.1236V10.8764C41 8.73551 39.2453 7 37.0809 7Z" fill="#0057B8"/>
<path d="M12.8647 41.751V43.1603C11.9148 43.6729 10.818 43.9292 9.57447 43.9292C8.56407 43.9292 7.70696 43.7283 7.00313 43.3268C6.29932 42.9255 5.74231 42.3724 5.3321 41.6678C4.9219 40.963 4.7168 40.2007 4.7168 39.3807C4.7168 38.0781 5.18528 36.9826 6.12228 36.0943C7.0636 35.2059 8.22296 34.7617 9.60038 34.7617C10.5503 34.7617 11.6061 35.0073 12.7676 35.4985V36.8758C11.7097 36.2778 10.6755 35.9789 9.66515 35.9789C8.62885 35.9789 7.76742 36.3035 7.08087 36.9528C6.39863 37.5976 6.05751 38.4068 6.05751 39.3807C6.05751 40.3629 6.39432 41.1701 7.06791 41.8022C7.74151 42.4342 8.60293 42.7503 9.6522 42.7503C10.749 42.7503 11.8198 42.4172 12.8647 41.751ZM14.0731 34.8771H15.3685V43.8266H14.0731V34.8771ZM19.352 40.0725L18.3676 39.4831C17.75 39.1116 17.3097 38.7465 17.0462 38.3878C16.7871 38.0247 16.6576 37.6083 16.6576 37.1385C16.6576 36.4338 16.9038 35.8616 17.3959 35.4216C17.8926 34.9816 18.5359 34.7617 19.3261 34.7617C20.0817 34.7617 20.7748 34.971 21.4052 35.3895V36.8438C20.7532 36.2244 20.0516 35.9149 19.3002 35.9149C18.877 35.9149 18.5294 36.013 18.2574 36.2095C17.9854 36.4017 17.8493 36.6495 17.8493 36.9528C17.8493 37.2217 17.9487 37.4737 18.1473 37.7086C18.346 37.9435 18.6677 38.1892 19.1123 38.4453L20.1033 39.0218C21.2088 39.6711 21.7614 40.4996 21.7614 41.5075C21.7614 42.2251 21.5175 42.808 21.0295 43.2565C20.546 43.7049 19.9155 43.9292 19.1383 43.9292C18.2444 43.9292 17.4306 43.6578 16.6965 43.1154V41.4883C17.3959 42.3639 18.2057 42.8016 19.1253 42.8016C19.5312 42.8016 19.868 42.6905 20.1357 42.4685C20.4078 42.2421 20.5437 41.9603 20.5437 41.6229C20.5437 41.0762 20.1465 40.5594 19.352 40.0725ZM25.0294 40.0725L24.0448 39.4831C23.4274 39.1116 22.987 38.7465 22.7237 38.3878C22.4645 38.0247 22.3351 37.6083 22.3351 37.1385C22.3351 36.4338 22.5812 35.8616 23.0734 35.4216C23.5699 34.9816 24.2134 34.7617 25.0035 34.7617C25.7592 34.7617 26.4522 34.971 27.0826 35.3895V36.8438C26.4305 36.2244 25.7289 35.9149 24.9776 35.9149C24.5545 35.9149 24.2069 36.013 23.9348 36.2095C23.6627 36.4017 23.5268 36.6495 23.5268 36.9528C23.5268 37.2217 23.6261 37.4737 23.8248 37.7086C24.0233 37.9435 24.345 38.1892 24.7898 38.4453L25.7807 39.0218C26.8861 39.6711 27.4388 40.4996 27.4388 41.5075C27.4388 42.2251 27.1949 42.808 26.707 43.2565C26.2233 43.7049 25.5929 43.9292 24.8157 43.9292C23.9218 43.9292 23.1079 43.6578 22.3739 43.1154V41.4883C23.0734 42.3639 23.883 42.8016 24.8027 42.8016C25.2087 42.8016 25.5454 42.6905 25.8131 42.4685C26.0852 42.2421 26.2212 41.9603 26.2212 41.6229C26.2212 41.0762 25.824 40.5594 25.0294 40.0725ZM28.262 43.8266V34.8643H31.1312C31.9948 34.8643 32.6835 35.0949 33.1973 35.5561C33.7112 36.0174 33.9681 36.6367 33.9681 37.4139C33.9681 37.935 33.8363 38.3963 33.573 38.7978C33.3096 39.1991 32.9491 39.4916 32.4913 39.6753C32.0337 39.8547 31.3774 39.9444 30.5224 39.9444H29.5637V43.8266H28.262ZM30.9045 36.0045H29.5637V38.804H30.9821C31.509 38.804 31.9149 38.6824 32.1999 38.4389C32.4848 38.1913 32.6274 37.839 32.6274 37.3818C32.6274 36.4637 32.0531 36.0045 30.9045 36.0045Z" fill="white"/>
</g>
<g clip-path="url(#clip2_2108_1674)">
<path d="M192.443 24.0079V11.0091C194.784 10.4675 201.489 9.35719 209.579 9.24886C217.669 9.14054 224.561 10.3772 226.995 11.0091V24.0079H192.443Z" fill="#0057B8" stroke="white"/>
<path d="M210 44.315C194.831 40.4154 192.443 32.8057 192.443 29.2852H227.276C227.276 33.3473 224.327 40.7945 210 44.315Z" fill="#0057B8"/>
<path d="M188.791 30.9386V8.05529C208.23 3.83067 224.982 6.29503 230.928 8.05529C231.068 14.2839 231.265 27.5806 230.928 30.9386C230.506 35.1362 229.804 36.6257 224.607 41.094C220.45 44.6687 213.137 47.3676 210 48.2704C207.144 47.458 200.168 44.8853 195.112 41.094C190.055 37.3027 188.791 32.7439 188.791 30.9386Z" stroke="#0057B8" stroke-width="6"/>
<path d="M199.391 12.1088H204.398V13.2621H200.735V15.7891H204.398V16.9424H200.735V21.1604H199.391V12.1088ZM205.581 12.1088H206.925V21.1604H205.581V12.1088ZM208.659 21.1604V12.0959H211.637C212.533 12.0959 213.248 12.3291 213.781 12.7956C214.314 13.2621 214.581 13.8885 214.581 14.6746C214.581 15.2016 214.444 15.6681 214.171 16.0742C213.897 16.4802 213.523 16.7761 213.048 16.9618C212.573 17.1432 211.892 17.234 211.005 17.234H210.01V21.1604H208.659ZM211.402 13.2492H210.01V16.0806H211.482C212.029 16.0806 212.45 15.9575 212.746 15.7113C213.042 15.4608 213.189 15.1044 213.189 14.6422C213.189 13.7135 212.593 13.2492 211.402 13.2492ZM218.076 17.3635L217.054 16.7674C216.413 16.3916 215.956 16.0223 215.683 15.6595C215.414 15.2923 215.28 14.8712 215.28 14.396C215.28 13.6833 215.535 13.1045 216.046 12.6596C216.561 12.2147 217.229 11.9922 218.049 11.9922C218.833 11.9922 219.552 12.2039 220.206 12.6272V14.098C219.53 13.4716 218.801 13.1585 218.022 13.1585C217.583 13.1585 217.222 13.2578 216.94 13.4565C216.658 13.6509 216.516 13.9014 216.516 14.2081C216.516 14.4802 216.619 14.7351 216.826 14.9727C217.032 15.2103 217.365 15.4586 217.827 15.7178L218.855 16.3009C220.002 16.9575 220.576 17.7955 220.576 18.8149C220.576 19.5406 220.323 20.1302 219.816 20.5837C219.314 21.0373 218.66 21.2641 217.854 21.2641C216.926 21.2641 216.082 20.9898 215.32 20.4412V18.7955C216.046 19.681 216.886 20.1237 217.84 20.1237C218.262 20.1237 218.611 20.0114 218.889 19.7868C219.171 19.5579 219.312 19.2728 219.312 18.9315C219.312 18.3786 218.9 17.856 218.076 17.3635Z" fill="white"/>
<path d="M201.342 31.1998H202.384V38.2194H201.342V31.1998ZM206.603 31.1094H207.03V35.0488H207.843V35.9029H207.03V38.2194H206.014V35.9029H202.933V35.471L206.603 31.1094ZM206.014 35.0488V33.0137L204.33 35.0488H206.014ZM210.434 31.1094C211.101 31.1094 211.652 31.4477 212.086 32.1243C212.524 32.7976 212.743 33.6536 212.743 34.6921C212.743 35.7572 212.524 36.6233 212.086 37.2897C211.652 37.9565 211.087 38.2898 210.392 38.2898C209.687 38.2898 209.121 37.9632 208.693 37.31C208.266 36.6566 208.052 35.7908 208.052 34.7122C208.052 33.6468 208.273 32.781 208.714 32.1143C209.155 31.4444 209.729 31.1094 210.434 31.1094ZM210.444 32.0642H210.392C209.993 32.0642 209.675 32.302 209.438 32.7775C209.206 33.2498 209.089 33.8914 209.089 34.7022C209.089 35.5327 209.204 36.1843 209.433 36.6566C209.663 37.1291 209.979 37.3653 210.382 37.3653C210.785 37.3653 211.103 37.1291 211.336 36.6566C211.569 36.1843 211.685 35.543 211.685 34.7322C211.685 33.9182 211.572 33.2701 211.346 32.7875C211.124 32.3052 210.823 32.0642 210.444 32.0642ZM213.275 35.4507H215.871V36.4307H213.275V35.4507ZM217.216 37.2497H219.989V38.2194H215.382V38.149L215.82 37.6515C216.504 36.8342 217.048 36.141 217.451 35.5715C217.858 35.0019 218.122 34.5714 218.244 34.28C218.369 33.9886 218.431 33.7004 218.431 33.4158C218.431 33.0204 218.315 32.7039 218.082 32.4661C217.849 32.2248 217.54 32.1043 217.154 32.1043C216.862 32.1043 216.574 32.188 216.289 32.3556C216.007 32.5197 215.754 32.7523 215.528 33.054V31.7777C216.094 31.3321 216.678 31.1094 217.279 31.1094C217.915 31.1094 218.438 31.3137 218.848 31.7224C219.262 32.1311 219.468 32.6502 219.468 33.2801C219.468 33.5615 219.416 33.8629 219.312 34.1846C219.211 34.5028 219.03 34.8711 218.77 35.2901C218.509 35.7052 218.066 36.2731 217.441 36.9935L217.216 37.2497Z" fill="white"/>
</g>
<defs>
<clipPath id="clip0_2108_1674">
<rect width="48" height="45" fill="white" transform="translate(471 5)"/>
</clipPath>
<clipPath id="clip1_2108_1674">
<rect width="41" height="41" fill="white" transform="translate(0 7)"/>
</clipPath>
<clipPath id="clip2_2108_1674">
<rect width="50" height="50" fill="white" transform="translate(185 2)"/>
</clipPath>
</defs>
</svg>
