<svg width="314" height="105" viewBox="0 0 314 105" fill="none" xmlns="http://www.w3.org/2000/svg">
<path d="M108.465 55.1992L109.2 57.3965H111.577L109.654 58.7546L110.388 60.9519L108.465 59.5939L106.541 60.9519L107.276 58.7546L105.353 57.3965H107.73L108.465 55.1992Z" fill="#0057B8"/>
<path d="M108.465 98.9219L109.2 101.119H111.577L109.654 102.477L110.388 104.675L108.465 103.317L106.541 104.675L107.276 102.477L105.353 101.119H107.73L108.465 98.9219Z" fill="#0057B8"/>
<path d="M119.714 58.1289L120.449 60.3262L122.826 60.3263L120.903 61.6843L121.637 63.8816L119.714 62.5236L117.79 63.8816L118.525 61.6842L116.602 60.3262L118.979 60.3262L119.714 58.1289Z" fill="#0057B8"/>
<path d="M97.1995 95.9922L97.9484 98.185L100.326 98.1704L98.4113 99.5402L99.1602 101.733L97.228 100.387L95.3134 101.757L96.0338 99.5548L94.1016 98.2085L96.4791 98.194L97.1995 95.9922Z" fill="#0057B8"/>
<path d="M131.103 68.4619L129.12 69.7358L129.754 71.9626L127.894 70.5231L125.91 71.797L126.744 69.6334L124.885 68.1939L127.26 68.2963L128.094 66.1328L128.728 68.3595L131.103 68.4619Z" fill="#0057B8"/>
<path d="M92.1161 90.2432L90.168 91.5676L90.8622 93.7773L88.9639 92.3861L87.0158 93.7106L87.7908 91.5263L85.8926 90.1351L88.2698 90.1764L89.0448 87.9922L89.739 90.2019L92.1161 90.2432Z" fill="#0057B8"/>
<path d="M129.856 93.7537L127.939 92.3868L126.009 93.7358L126.755 91.5419L124.838 90.1749L127.215 90.186L127.961 87.9922L128.685 90.1929L131.062 90.204L129.132 91.553L129.856 93.7537Z" fill="#0057B8"/>
<path d="M90.9163 71.8776L88.987 70.5274L87.0693 71.8933L87.7945 69.693L85.8652 68.3429L88.2427 68.3331L88.9679 66.1328L89.7122 68.3272L92.0897 68.3174L90.1721 69.6833L90.9163 71.8776Z" fill="#0057B8"/>
<path d="M121.625 101.753L119.708 100.387L117.778 101.736L118.523 99.5423L116.605 98.1758L118.983 98.1863L119.728 95.9922L120.452 98.1927L122.83 98.2031L120.9 99.5527L121.625 101.753Z" fill="#0057B8"/>
<path d="M99.1726 63.8629L97.2326 62.5272L95.3258 63.9073L96.0337 61.7016L94.0938 60.3659L96.4711 60.3385L97.179 58.1328L97.9404 60.3215L100.318 60.2941L98.4111 61.6742L99.1726 63.8629Z" fill="#0057B8"/>
<path d="M82.8574 79.262L85.2349 79.2603L85.968 77.0625L86.7044 79.2593L89.0819 79.2577L87.1594 80.6171L87.8958 82.8139L85.9713 81.4571L84.0488 82.8166L84.7819 80.6187L82.8574 79.262Z" fill="#0057B8"/>
<path d="M127.865 79.2235L130.243 79.2511L131.004 77.0625L131.712 79.2682L134.089 79.2958L132.149 80.6314L132.857 82.8371L130.95 81.4568L129.01 82.7924L129.772 80.6038L127.865 79.2235Z" fill="#0057B8"/>
<path d="M100.751 83.1698C100.454 83.4798 100.021 83.7296 99.4498 83.919C98.8789 84.1084 98.2531 84.2031 97.5724 84.2031C96.5257 84.2031 95.6895 83.9018 95.0638 83.299C94.438 82.6962 94.1031 81.8575 94.0592 80.7829L94.0537 80.1319C94.0537 79.3913 94.1928 78.7455 94.4709 78.1944C94.749 77.6398 95.1461 77.2145 95.6621 76.9183C96.1817 76.6186 96.7819 76.4688 97.4626 76.4688C98.458 76.4688 99.2302 76.684 99.7791 77.1146C100.332 77.5417 100.654 78.1806 100.745 79.0314H98.8899C98.824 78.6112 98.6813 78.3115 98.4617 78.1324C98.2421 77.9533 97.931 77.8637 97.5285 77.8637C97.0454 77.8637 96.6722 78.0566 96.4086 78.4424C96.1452 78.8282 96.0116 79.3793 96.008 80.0957V80.5504C96.008 81.3013 96.1433 81.8661 96.4141 82.245C96.6886 82.6204 97.1186 82.8081 97.7041 82.8081C98.2055 82.8081 98.5788 82.7031 98.824 82.493V81.3254H97.4846V80.0802H100.751V83.1698Z" fill="#0057B8"/>
<path d="M101.871 84.1007V76.5781H104.446C105.152 76.5781 105.787 76.7297 106.35 77.0328C106.914 77.3325 107.353 77.7578 107.668 78.309C107.986 78.8566 108.147 79.4714 108.151 80.1534V80.4996C108.151 81.1885 107.995 81.8067 107.684 82.3543C107.377 82.8986 106.941 83.3257 106.378 83.6357C105.818 83.9422 105.192 84.0972 104.5 84.1007H101.871ZM103.798 77.9783V82.7057H104.468C105.02 82.7057 105.445 82.5214 105.741 82.1529C106.037 81.7809 106.186 81.2298 106.186 80.4996V80.1741C106.186 79.4473 106.037 78.8997 105.741 78.5311C105.445 78.1625 105.013 77.9783 104.446 77.9783H103.798Z" fill="#0057B8"/>
<path d="M111.065 81.5484V84.1007H109.139V76.5781H112.328C112.939 76.5781 113.479 76.6849 113.947 76.8984C114.419 77.1086 114.784 77.4099 115.04 77.8026C115.3 78.1919 115.429 78.6344 115.429 79.1304C115.429 79.8641 115.15 80.4514 114.59 80.8923C114.033 81.3297 113.269 81.5484 112.295 81.5484H111.065ZM111.065 80.1483H112.328C112.701 80.1483 112.985 80.0604 113.179 79.8848C113.376 79.7091 113.475 79.4611 113.475 79.1408C113.475 78.7894 113.375 78.5087 113.173 78.2986C112.972 78.0885 112.698 77.9817 112.35 77.9783H111.065V80.1483Z" fill="#0057B8"/>
<path d="M119.431 81.4451H118.388V84.1007H116.461V76.5781H119.606C120.554 76.5781 121.295 76.7762 121.83 77.1723C122.364 77.5684 122.631 78.1281 122.631 78.8514C122.631 79.375 122.518 79.809 122.291 80.1534C122.067 80.4978 121.716 80.7769 121.237 80.9904L122.905 84.0232V84.1007H120.841L119.431 81.4451ZM118.388 80.0449H119.606C119.972 80.0449 120.247 79.9554 120.43 79.7763C120.616 79.5937 120.71 79.3406 120.71 79.0168C120.71 78.693 120.616 78.4399 120.43 78.2573C120.243 78.0713 119.969 77.9783 119.606 77.9783H118.388V80.0449Z" fill="#0057B8"/>
<path d="M45.1022 76.2024C44.6662 75.058 43.771 74.0363 42.6814 73.2996C39.5358 71.3023 34.7421 71.16 31.501 72.9657C29.7333 73.8669 28.5715 75.6503 28.21 77.4869C27.5541 80.5043 27.7235 84.0945 30.0482 86.3562C32.7589 88.7325 36.7041 89.2574 40.2123 88.2813C40.379 88.2493 40.9072 88.1163 41.2715 87.923L41.3741 87.879C42.4637 87.4263 43.5028 86.689 44.2786 85.6906C46.0691 83.0728 46.1917 79.1504 45.1022 76.2024ZM39.3904 82.9783C39.2666 83.5505 38.8817 84.1434 38.2747 84.3584C37.3083 84.7834 36.0011 84.6656 35.1058 84.1683C34.355 83.6434 34.2584 82.7644 34.1617 81.9327C34.0884 80.2932 33.9701 78.557 34.4294 77.058C34.7893 76.1297 35.7823 75.8908 36.6802 75.8208C37.6232 75.8208 38.5413 75.9646 39.1238 76.7252C39.4864 77.2709 39.4642 77.9848 39.5358 78.6275C39.5103 79.9821 39.6319 81.5977 39.3904 82.9783ZM10.7108 84.455C9.91165 84.4061 9.01642 84.4762 8.24279 84.3812L8.26668 76.0325L8.31554 75.963L10.7108 75.9397C10.7358 74.5846 10.7597 73.1313 10.6858 71.8962L1.56354 71.8707L0.0613478 71.8967C0.0374604 73.1562 0.0374604 74.6291 0.0613478 75.9147C0.884921 75.9402 1.658 75.9147 2.45715 75.9891V84.0744L2.4338 84.4067L0.0374604 84.4555C-0.0124868 85.7631 -0.0124868 87.072 0.0374604 88.3796H10.7102L10.7108 84.455ZM37.5733 90.1614C36.5581 91.6136 35.2752 93.0165 33.8745 94.1077C33.8235 94.1821 33.6785 94.1538 33.6324 94.0854C33.0254 93.7059 32.3723 93.3954 31.7904 93.0165C32.5656 92.0897 33.3164 91.1625 33.8973 90.1359H33.1443C32.5428 91.0191 31.912 91.9459 31.1139 92.7282C30.0482 92.3009 29.0808 91.9209 27.9917 91.6332L27.8706 91.5425C28.04 91.062 28.3538 90.6109 28.4499 90.1348H27.7968L27.1437 91.4198C25.7175 91.1109 24.1437 90.9426 22.6914 90.8487C22.6181 90.6353 22.7142 90.3259 22.6181 90.1348H21.9889C21.939 90.4209 22.0617 90.6364 21.9162 90.8736C20.4156 90.9426 18.9639 91.1109 17.5616 91.3992L16.9058 90.1348C16.6664 90.1348 16.3971 90.0892 16.2299 90.1603L16.8336 91.5637L16.7614 91.6332C15.6767 91.947 14.6103 92.3207 13.567 92.7526L13.4709 92.7038C12.7917 91.9665 12.1381 91.1614 11.6049 90.3525C11.485 89.9458 11.0007 90.1836 10.7341 90.1359C11.3129 91.1836 12.0897 92.1098 12.8628 93.0626C12.2097 93.4443 11.5588 93.8699 10.878 94.1821C9.39763 93.0546 8.10715 91.6976 7.05548 90.1625C6.76448 90.1158 6.57284 90.1369 6.28022 90.1625C8.02292 92.8737 10.7341 95.251 13.5659 96.6544C13.5659 96.6544 13.5659 96.6332 13.5919 96.6332C13.6126 96.6332 13.6609 96.6772 13.6126 96.7022C15.5257 97.63 17.56 98.2956 19.712 98.5822C27.1426 99.5562 34.2345 96.3949 38.3464 90.1625C38.0894 90.136 37.8303 90.1356 37.5733 90.1614ZM27.4836 92.3015L27.5547 92.2537C28.5981 92.4915 29.5884 92.8248 30.5086 93.2754C29.7333 94.1533 28.7409 94.916 27.8223 95.5578C27.2664 95.8895 26.7078 96.2499 26.1263 96.5333L25.0878 96.0816L25.1589 95.9172C26.0319 94.7526 26.8066 93.5621 27.4836 92.3015ZM22.7142 91.5876C24.0948 91.6136 25.4748 91.7559 26.7555 92.0637L26.7811 92.1359C26.1046 93.4187 25.2555 94.6582 24.3375 95.8211C23.9238 95.8699 23.5383 95.7054 23.1274 95.6799L22.7137 95.631C22.6664 94.2277 22.6409 92.9909 22.7142 91.5876ZM18.0453 92.0154C19.3037 91.7776 20.61 91.5876 21.9645 91.5876L21.9895 95.611C21.4802 95.7261 20.9237 95.7261 20.4395 95.8482C19.4471 94.6799 18.6251 93.4187 17.9242 92.1098L18.0453 92.0154ZM14.1468 93.3009C15.093 92.8476 16.0838 92.5127 17.099 92.2531L17.1973 92.2781C17.8971 93.5865 18.7695 94.8221 19.6403 96.0588C19.3043 96.2505 18.8906 96.365 18.5529 96.5583C16.9163 95.7498 15.427 94.6722 14.1473 93.3704V93.3009H14.1468ZM17.2701 97.3672C15.2369 96.8422 13.3476 95.9389 11.6055 94.7043V94.6305C12.1864 94.2771 12.7695 93.8954 13.3965 93.631C14.7771 94.9904 16.2038 96.0132 17.7527 96.9861C17.6322 97.1289 17.4389 97.2722 17.2701 97.3672ZM26.2479 97.6745C23.6833 98.225 20.826 98.2462 18.2619 97.6289C18.2131 97.5105 18.383 97.485 18.4552 97.4155C20.706 95.9633 24.2137 95.9633 26.4184 97.5312C26.4901 97.6745 26.2968 97.6289 26.2479 97.6745ZM28.5721 97.0111L27.4347 97.3667C27.2403 97.2717 27.072 97.1289 26.901 96.9856L26.9499 96.9128C28.4993 96.0127 29.9022 94.9155 31.2339 93.6077C31.8875 93.8688 32.5173 94.2277 33.0998 94.6299C31.7431 95.7054 30.1693 96.4155 28.5721 97.0111ZM7.00824 70.0639C7.60687 69.2355 8.2617 68.4491 8.9681 67.7105C9.59514 67.116 10.1782 66.5454 10.8568 66.1154C11.4866 66.5193 12.1875 66.8559 12.7923 67.2349C12.0425 68.1578 11.2678 69.0894 10.7113 70.0856C10.8796 70.16 11.1956 70.1367 11.4383 70.0856C12.0425 69.2072 12.694 68.3277 13.4714 67.5422C14.5094 67.9238 15.5274 68.3266 16.5936 68.6133L16.6875 68.7078L16.0849 70.0856C16.352 70.1367 16.5214 70.1117 16.7858 70.0856C17.003 69.6839 17.1713 69.2333 17.4134 68.8266C18.8189 69.1372 20.2956 69.3028 21.7962 69.3489C21.9884 69.5178 21.844 69.8728 21.9167 70.0856H22.5698C22.6409 69.8522 22.5454 69.5872 22.6409 69.3755C24.0459 69.3017 25.5215 69.1589 26.8815 68.8256L26.9993 68.8505L27.6529 70.0845C27.8712 70.0845 28.1611 70.1356 28.3305 70.0357L27.7241 68.66L27.7746 68.6122C28.8859 68.3266 29.9282 67.8988 30.9928 67.4716C31.7453 68.2561 32.4451 69.1833 33.0765 70.084C33.3414 70.084 33.608 70.1101 33.8018 70.0351C33.5029 69.5042 33.1542 69.0028 32.7605 68.5378C32.4409 68.0824 32.0842 67.654 31.6943 67.2571V67.1339L33.3886 66.1605L33.6329 66.0655C35.1064 67.1808 36.3959 68.5203 37.4544 70.0351C37.7448 70.0351 37.9875 70.135 38.2302 70.015C34.9837 65.1675 29.6361 62.0486 23.8548 61.5996L23.8293 61.6458L23.7799 61.5996C23.1274 61.5296 22.3255 61.5019 21.6246 61.5719C21.3592 61.5513 21.0454 61.5719 20.7299 61.5996C14.9226 62.0486 9.57451 65.0231 6.23299 70.0867C6.47512 70.0639 6.76557 70.1605 7.00824 70.0639ZM17.0534 67.9743L16.9568 67.9949C15.9633 67.736 14.9942 67.4238 14.0746 67.021L14.1213 66.8782C15.4524 65.6181 16.8558 64.5709 18.4047 63.7641C18.7695 63.9069 19.1322 64.0247 19.4948 64.1936L19.4237 64.3792C18.5024 65.5237 17.7782 66.7577 17.0534 67.9743ZM21.8678 68.6144C21.1919 68.7094 20.5866 68.5932 19.9064 68.5405C19.256 68.445 18.4313 68.376 17.7782 68.1589C18.4802 66.857 19.3043 65.5942 20.2956 64.4319L21.845 64.6431C21.9167 65.8776 21.8678 67.3055 21.8678 68.6144ZM22.6176 68.6399C22.5698 67.3755 22.5948 65.9743 22.6176 64.6659C23.1035 64.5964 23.6333 64.5226 24.1187 64.4525C25.0622 65.6399 25.9841 66.857 26.6138 68.1589C25.3052 68.4755 23.9639 68.6369 22.6176 68.6399ZM30.3403 66.9727C29.3946 67.3749 28.4255 67.7561 27.3864 67.9743C26.6366 66.7137 25.8142 65.4536 24.8918 64.2359C25.2311 64.0497 25.6448 63.9069 26.0069 63.7175C27.5829 64.5014 29.1057 65.6181 30.387 66.8983L30.3403 66.9727ZM27.2403 62.9064C29.2735 63.4308 31.1856 64.3331 32.9283 65.5698L32.8799 65.6648L31.2116 66.591H31.0884C29.8077 65.3114 28.3077 64.1936 26.7811 63.3114C26.8294 63.1447 27.0726 63.0247 27.2403 62.9064ZM26.2734 62.6675V62.718C24.1665 64.2359 20.7549 64.3792 18.5296 62.9759C18.4047 62.8809 18.1658 62.8347 18.1398 62.668C20.7066 62.0763 23.73 62.0285 26.2734 62.6675ZM11.5094 65.6181C13.0355 64.5014 14.7288 63.6691 16.5203 63.098C16.5936 63.0236 16.6403 62.9536 16.7359 62.9536V63.0025C16.9291 63.0492 17.0752 62.8336 17.244 62.9748C17.39 63.098 17.5611 63.1919 17.6805 63.3103C16.181 64.2359 14.7038 65.332 13.3482 66.661C12.6945 66.4276 12.0919 66.0687 11.5089 65.6648L11.5094 65.6181ZM21.8928 84.6407C19.6181 85.2601 17.1479 84.7878 15.5029 83.0728C15.3102 82.835 15.1881 82.5516 14.9937 82.3149L11.7276 82.3377C11.6761 84.2633 11.6533 86.4756 11.7276 88.379L15.3564 88.3557L15.4047 87.2134C15.8178 87.4035 16.2299 87.6407 16.6403 87.8541C19.1572 88.9019 22.3972 89.1396 24.8907 87.8541C26.7072 86.8578 27.6757 84.9322 27.4086 82.8589C27.1437 80.8398 25.2067 79.0076 23.2479 78.5097L17.3895 76.8197L16.9563 76.6047C16.7625 76.4397 16.6408 76.2269 16.6881 75.963C17.1479 75.1802 18.2142 75.4179 19.0128 75.4391C20.7066 75.6775 22.4487 76.248 23.4417 77.7947C24.5052 77.7947 25.7392 77.8154 26.8999 77.7698C26.9494 75.8202 26.8809 74.109 26.8522 72.1345C25.7631 72.1095 24.4314 72.1095 23.344 72.1595C23.2951 72.4423 23.3907 72.8452 23.2696 73.1318L22.1572 72.5368C19.4938 71.4195 15.7662 71.3028 13.3471 73.039C11.7732 74.1785 11.2906 76.2258 11.7021 78.0325C12.0154 79.7421 13.6609 81.0038 15.2347 81.5966C17.3884 82.3567 19.6382 82.9072 21.8201 83.6434C22.0361 83.74 22.326 83.9555 22.2794 84.2167C22.2804 84.4278 22.0611 84.55 21.8928 84.6407Z" fill="#0057B8"/>
<g clip-path="url(#clip0_2135_249)">
<path d="M171.336 74.9727H173.544V78.666H177.834V74.9727H180.043V84.8776H177.834V80.5966H173.544V84.8776H171.336V74.9727ZM181.908 74.9727H184.117V84.8776H181.908V74.9727ZM185.984 74.9727H189.708C190.227 74.9727 190.718 75.0193 191.18 75.1125C191.643 75.2058 192.044 75.369 192.384 75.6022C192.733 75.826 193.006 76.1338 193.205 76.5255C193.412 76.908 193.516 77.3929 193.516 77.9805C193.516 78.5588 193.422 79.0437 193.233 79.4355C193.044 79.8272 192.785 80.1396 192.454 80.3728C192.124 80.6059 191.732 80.7738 191.279 80.8764C190.826 80.9696 190.335 81.0163 189.807 81.0163H188.193V84.8776H185.984V74.9727ZM188.193 79.1696H189.665C189.864 79.1696 190.052 79.151 190.232 79.1137C190.42 79.0764 190.586 79.0157 190.727 78.9318C190.878 78.8386 190.996 78.7173 191.081 78.5681C191.175 78.4095 191.223 78.2137 191.223 77.9805C191.223 77.7287 191.161 77.5281 191.039 77.3789C190.925 77.2204 190.774 77.0991 190.586 77.0152C190.406 76.9313 190.203 76.88 189.977 76.8613C189.75 76.8333 189.533 76.8193 189.326 76.8193H188.193V79.1696ZM196.36 74.9727H198.186L202.547 84.8776H200.055L199.192 82.779H195.298L194.463 84.8776H192.028L196.36 74.9727ZM197.209 77.8546L195.992 80.9324H198.441L197.209 77.8546ZM207.278 74.9727H209.104L213.465 84.8776H210.973L210.11 82.779H206.217L205.381 84.8776H202.946L207.278 74.9727ZM208.128 77.8546L206.91 80.9324H209.359L208.128 77.8546Z" fill="#0057B8"/>
<path d="M175.105 90.4449C174.885 90.7388 174.631 90.9497 174.342 91.0774C174.053 91.2052 173.741 91.2691 173.404 91.2691C173.055 91.2691 172.734 91.2116 172.441 91.0966C172.152 90.9774 171.904 90.8133 171.698 90.6046C171.491 90.3917 171.329 90.1404 171.213 89.8507C171.096 89.5568 171.038 89.2374 171.038 88.8924C171.038 88.5474 171.096 88.23 171.213 87.9404C171.329 87.6507 171.491 87.4016 171.698 87.1929C171.904 86.9799 172.152 86.8138 172.441 86.6945C172.734 86.5753 173.055 86.5156 173.404 86.5156C173.715 86.5156 174.004 86.571 174.271 86.6817C174.542 86.7882 174.779 86.9692 174.982 87.2248L174.633 87.5123C174.491 87.2993 174.308 87.1439 174.083 87.0459C173.864 86.9479 173.637 86.8989 173.404 86.8989C173.107 86.8989 172.838 86.9501 172.596 87.0523C172.359 87.1545 172.157 87.2951 171.989 87.474C171.82 87.6529 171.691 87.8637 171.601 88.1065C171.51 88.3493 171.465 88.6112 171.465 88.8924C171.465 89.1735 171.51 89.4354 171.601 89.6782C171.691 89.921 171.82 90.1318 171.989 90.3108C172.157 90.4896 172.359 90.6302 172.596 90.7324C172.838 90.8347 173.107 90.8858 173.404 90.8858C173.521 90.8858 173.642 90.873 173.767 90.8474C173.892 90.8176 174.012 90.775 174.129 90.7197C174.249 90.66 174.364 90.5876 174.471 90.5024C174.579 90.413 174.674 90.3065 174.756 90.183L175.105 90.4449ZM176.302 88.8924C176.302 88.5474 176.36 88.23 176.476 87.9404C176.593 87.6507 176.754 87.4016 176.961 87.1929C177.168 86.9799 177.416 86.8138 177.705 86.6945C177.998 86.5753 178.319 86.5156 178.668 86.5156C179.017 86.5156 179.336 86.5753 179.625 86.6945C179.918 86.8138 180.168 86.9799 180.375 87.1929C180.582 87.4016 180.744 87.6507 180.86 87.9404C180.976 88.23 181.035 88.5474 181.035 88.8924C181.035 89.2374 180.976 89.5568 180.86 89.8507C180.744 90.1404 180.582 90.3917 180.375 90.6046C180.168 90.8133 179.918 90.9774 179.625 91.0966C179.336 91.2116 179.017 91.2691 178.668 91.2691C178.319 91.2691 177.998 91.2116 177.705 91.0966C177.416 90.9774 177.168 90.8133 176.961 90.6046C176.754 90.3917 176.593 90.1404 176.476 89.8507C176.36 89.5568 176.302 89.2374 176.302 88.8924ZM176.728 88.8924C176.728 89.1735 176.774 89.4354 176.864 89.6782C176.955 89.921 177.084 90.1318 177.252 90.3108C177.42 90.4896 177.623 90.6302 177.86 90.7324C178.101 90.8347 178.371 90.8858 178.668 90.8858C178.966 90.8858 179.233 90.8347 179.47 90.7324C179.711 90.6302 179.916 90.4896 180.084 90.3108C180.252 90.1318 180.381 89.921 180.472 89.6782C180.563 89.4354 180.608 89.1735 180.608 88.8924C180.608 88.6112 180.563 88.3493 180.472 88.1065C180.381 87.8637 180.252 87.6529 180.084 87.474C179.916 87.2951 179.711 87.1545 179.47 87.0523C179.233 86.9501 178.966 86.8989 178.668 86.8989C178.371 86.8989 178.101 86.9501 177.86 87.0523C177.623 87.1545 177.42 87.2951 177.252 87.474C177.084 87.6529 176.955 87.8637 176.864 88.1065C176.774 88.3493 176.728 88.6112 176.728 88.8924ZM182.722 86.6306H183.362L185.03 90.4258L186.698 86.6306H187.306V91.1541H186.879V87.1673H186.866L185.121 91.1541H184.933L183.162 87.1673H183.149V91.1541H182.722V86.6306ZM189.224 86.6306H190.543C190.703 86.6306 190.869 86.6498 191.041 86.6881C191.218 86.7222 191.377 86.784 191.519 86.8734C191.666 86.9629 191.785 87.0864 191.875 87.244C191.97 87.3973 192.017 87.5911 192.017 87.8254C192.017 88.0299 191.978 88.2066 191.901 88.3557C191.828 88.5048 191.726 88.6283 191.597 88.7262C191.472 88.8199 191.325 88.8902 191.157 88.9371C190.994 88.984 190.821 89.0074 190.64 89.0074H189.651V91.1541H189.224V86.6306ZM189.651 88.624H190.621C190.741 88.624 190.86 88.6112 190.976 88.5857C191.093 88.5559 191.196 88.5112 191.287 88.4515C191.377 88.3876 191.45 88.3046 191.506 88.2023C191.563 88.1001 191.591 87.9745 191.591 87.8254C191.591 87.6806 191.56 87.557 191.5 87.4548C191.444 87.3526 191.369 87.2695 191.274 87.2056C191.183 87.1375 191.078 87.0885 190.957 87.0587C190.836 87.0289 190.716 87.014 190.595 87.014H189.651V88.624ZM193.648 86.6306H194.075V90.7708H196.208V91.1541H193.648V86.6306ZM197.657 86.6306H198.083V91.1541H197.657V86.6306ZM201.45 86.6306H201.89L203.817 91.1541H203.338L202.841 89.953H200.416L199.899 91.1541H199.453L201.45 86.6306ZM201.651 87.0906L200.584 89.5696H202.685L201.651 87.0906ZM205.249 86.6306H205.799L208.586 90.5919H208.599V86.6306H209.025V91.1541H208.476L205.689 87.1929H205.676V91.1541H205.249V86.6306ZM211.943 87.014H210.379V86.6306H213.935V87.014H212.37V91.1541H211.943V87.014Z" fill="#0057B8"/>
<path d="M184.336 92.8906H182.106C185.367 96.5257 190.216 98.2055 192.334 98.7565V97.2968C187.875 95.8648 185.144 93.7535 184.336 92.8906Z" fill="#0057B8"/>
<path d="M200.277 92.8594H202.506C199.246 96.4945 194.396 98.1743 192.278 98.7253V97.2656C196.737 95.8336 199.468 93.7223 200.277 92.8594Z" fill="#0057B8"/>
<path d="M177.787 64.6076V73.1999H192.349V71.217H191.248V68.8211H188.712V66.6731H191.248V64.1945H192.279V63.2582C184.275 63.2362 179.283 64.1486 177.787 64.6076Z" fill="#0057B8"/>
<path d="M206.77 64.5805V73.1999H192.278V71.2171H193.309V68.794H195.846V66.7006H193.337V64.1946H192.278V63.2582C200.282 63.2362 205.274 64.1215 206.77 64.5805Z" fill="#0057B8"/>
<path d="M174.617 73.1709V73.2209H174.667H175.837H175.887V73.1709V63.0741C177.952 62.4848 184.044 61.324 192.196 61.324C200.35 61.324 206.431 62.525 208.54 63.1328L208.623 73.1714L208.624 73.2209H208.673H209.811H209.861L209.861 73.1712C209.87 71.5188 209.88 69.0015 209.864 66.82C209.857 65.7293 209.843 64.7223 209.82 63.9493C209.808 63.5628 209.794 63.2344 209.778 62.9831C209.761 62.7341 209.742 62.5551 209.718 62.4718L209.719 62.4713L209.713 62.4601C209.594 62.2603 209.37 62.1058 209.145 61.9941C208.92 61.8821 208.687 61.8094 208.54 61.7763C206.6 61.2054 200.625 60.0728 192.196 60.0948C181.657 60.1224 176.608 61.5551 175.571 61.8873C175.141 62.0252 174.892 62.3416 174.757 62.6762C174.622 63.0087 174.598 63.3627 174.617 63.5894V73.1709Z" fill="#0057B8" stroke="#0057B8" stroke-width="0.1"/>
<path d="M175.864 73.1981H177.286C177.286 72.8125 177.313 70.4221 177.313 64.1652C182.664 62.9314 189.52 62.6597 192.279 62.678V61.3011C184.052 61.2791 177.889 62.4669 175.864 63.0636V73.1981Z" fill="#0057B8"/>
<path d="M208.637 73.1978H207.244V64.1652C201.893 62.9314 195.037 62.6597 192.278 62.678V61.3011C200.505 61.279 206.612 62.5217 208.637 63.1184V73.1978Z" fill="#0057B8"/>
<path d="M192.25 99.9958C185.405 97.9469 181.558 94.4236 180.489 92.9182H182.106C184.168 95.0938 186.871 97.1868 192.25 98.729C198.047 97.0107 201.53 94.1115 202.506 92.8906H204.066C202.747 94.5062 198.537 98.2114 192.25 99.9958Z" fill="#0057B8" stroke="#0057B8" stroke-width="0.1"/>
<path d="M192.278 92.918V96.746C188.867 95.7765 186.007 93.79 185.004 92.918H192.278Z" fill="#0057B8"/>
<path d="M192.278 92.918V96.746C195.689 95.7765 198.549 93.79 199.552 92.918H192.278Z" fill="#0057B8"/>
</g>
<g clip-path="url(#clip1_2135_249)">
<path d="M252.746 62.4609H257.999V71.3349H263.1H268.201V62.4609H273.454V86.2594H268.201V75.9736H257.999V86.2594H252.746V62.4609ZM278.161 62.4609H283.414V81.419H293.824V86.2594H278.161V62.4609ZM306.651 67.0996H294.866V62.4609H312.307V66.8979L302.778 86.2594H296.886L306.651 67.0996Z" fill="#0057B8"/>
<path d="M253.568 90.3155H254.327V96.6983H253.568V90.3155ZM255.878 93.4799C255.878 93.2876 255.872 93.1073 255.86 92.939C255.848 92.7706 255.842 92.6174 255.842 92.4792H256.51C256.51 92.5934 256.513 92.7075 256.519 92.8218C256.525 92.936 256.528 93.0532 256.528 93.1733H256.546C256.595 93.0712 256.661 92.972 256.745 92.8758C256.835 92.7796 256.941 92.6955 257.061 92.6234C257.181 92.5452 257.317 92.4852 257.467 92.4431C257.618 92.3951 257.781 92.371 257.955 92.371C258.232 92.371 258.47 92.4131 258.669 92.4972C258.873 92.5813 259.042 92.6985 259.174 92.8488C259.307 92.9991 259.403 93.1824 259.463 93.3987C259.529 93.609 259.563 93.8405 259.563 94.0929V96.6983H258.858V94.165C258.858 93.8105 258.78 93.531 258.623 93.3266C258.467 93.1222 258.223 93.0201 257.892 93.0201C257.663 93.0201 257.464 93.0591 257.296 93.1373C257.133 93.2155 256.998 93.3266 256.89 93.4708C256.787 93.6151 256.709 93.7864 256.655 93.9847C256.607 94.183 256.582 94.4024 256.582 94.6428V96.6983H255.878V93.4799ZM263.298 93.0742H262.052V95.1837C262.052 95.3219 262.055 95.4512 262.061 95.5714C262.067 95.6856 262.091 95.7877 262.133 95.8779C262.175 95.962 262.239 96.0311 262.323 96.0852C262.407 96.1333 262.528 96.1574 262.684 96.1574C262.786 96.1574 262.892 96.1454 263 96.1213C263.109 96.0972 263.211 96.0612 263.307 96.0131L263.334 96.6532C263.214 96.7073 263.078 96.7463 262.928 96.7704C262.783 96.7945 262.645 96.8065 262.513 96.8065C262.26 96.8065 262.058 96.7734 261.908 96.7073C261.757 96.6412 261.64 96.548 261.555 96.4278C261.471 96.3077 261.414 96.1603 261.384 95.9861C261.36 95.8058 261.348 95.6074 261.348 95.3911V93.0742H260.426V92.4792H261.348V91.2802H262.052V92.4792H263.298V93.0742ZM268.026 95.932C267.773 96.2565 267.497 96.4849 267.195 96.6171C266.894 96.7433 266.545 96.8065 266.148 96.8065C265.817 96.8065 265.519 96.7494 265.254 96.6352C264.989 96.515 264.763 96.3557 264.577 96.1574C264.396 95.959 264.255 95.7246 264.152 95.4542C264.056 95.1837 264.008 94.8952 264.008 94.5887C264.008 94.2642 264.062 93.9667 264.17 93.6962C264.279 93.4197 264.429 93.1853 264.622 92.993C264.814 92.7947 265.043 92.6415 265.308 92.5333C265.573 92.4251 265.862 92.371 266.175 92.371C266.47 92.371 266.741 92.4221 266.988 92.5243C267.235 92.6205 267.445 92.7647 267.62 92.957C267.8 93.1433 267.939 93.3746 268.035 93.6511C268.132 93.9216 268.18 94.2311 268.18 94.5797V94.8051H264.766C264.778 94.9854 264.82 95.1596 264.893 95.328C264.971 95.4902 265.07 95.6345 265.191 95.7607C265.311 95.8809 265.453 95.9771 265.615 96.0492C265.778 96.1213 265.955 96.1574 266.148 96.1574C266.455 96.1574 266.714 96.1033 266.925 95.9951C267.135 95.8869 267.325 95.7276 267.493 95.5173L268.026 95.932ZM267.421 94.2101C267.409 93.8495 267.292 93.561 267.069 93.3446C266.846 93.1283 266.539 93.0201 266.148 93.0201C265.757 93.0201 265.441 93.1283 265.2 93.3446C264.959 93.561 264.814 93.8495 264.766 94.2101H267.421ZM269.36 93.4799C269.36 93.2876 269.354 93.1073 269.342 92.939C269.33 92.7706 269.324 92.6174 269.324 92.4792H269.992C269.992 92.5934 269.995 92.7075 270.001 92.8218C270.007 92.936 270.01 93.0532 270.01 93.1733H270.028C270.076 93.0712 270.143 92.972 270.227 92.8758C270.317 92.7796 270.422 92.6955 270.543 92.6234C270.663 92.5452 270.799 92.4852 270.949 92.4431C271.1 92.3951 271.262 92.371 271.437 92.371C271.485 92.371 271.533 92.374 271.581 92.38C271.629 92.3861 271.678 92.398 271.726 92.4161L271.681 93.1283C271.56 93.0922 271.434 93.0742 271.301 93.0742C270.868 93.0742 270.552 93.2155 270.353 93.4979C270.161 93.7744 270.064 94.156 270.064 94.6428V96.6983H269.36V93.4799ZM272.535 93.4799C272.535 93.2876 272.529 93.1073 272.517 92.939C272.505 92.7706 272.498 92.6174 272.498 92.4792H273.167C273.167 92.5934 273.17 92.7075 273.176 92.8218C273.182 92.936 273.185 93.0532 273.185 93.1733H273.203C273.251 93.0712 273.317 92.972 273.402 92.8758C273.492 92.7796 273.597 92.6955 273.718 92.6234C273.838 92.5452 273.974 92.4852 274.124 92.4431C274.275 92.3951 274.437 92.371 274.612 92.371C274.889 92.371 275.126 92.4131 275.325 92.4972C275.53 92.5813 275.698 92.6985 275.831 92.8488C275.963 92.9991 276.06 93.1824 276.12 93.3987C276.186 93.609 276.219 93.8405 276.219 94.0929V96.6983H275.515V94.165C275.515 93.8105 275.437 93.531 275.28 93.3266C275.123 93.1222 274.88 93.0201 274.548 93.0201C274.32 93.0201 274.121 93.0591 273.952 93.1373C273.79 93.2155 273.654 93.3266 273.546 93.4708C273.444 93.6151 273.365 93.7864 273.311 93.9847C273.263 94.183 273.239 94.4024 273.239 94.6428V96.6983H272.535V93.4799ZM277.589 93.0201C277.806 92.7977 278.061 92.6354 278.356 92.5333C278.657 92.4251 278.961 92.371 279.268 92.371C279.895 92.371 280.346 92.5182 280.623 92.8127C280.9 93.1073 281.038 93.5549 281.038 94.156V95.968C281.038 96.0882 281.044 96.2144 281.057 96.3467C281.069 96.4729 281.084 96.5901 281.102 96.6983H280.424C280.4 96.6021 280.385 96.497 280.379 96.3827C280.379 96.2626 280.379 96.1574 280.379 96.0672H280.361C280.223 96.2836 280.036 96.4609 279.801 96.5991C279.572 96.7373 279.296 96.8065 278.97 96.8065C278.754 96.8065 278.549 96.7794 278.356 96.7253C278.17 96.6712 278.004 96.5931 277.86 96.4909C277.721 96.3827 277.61 96.2505 277.526 96.0943C277.441 95.938 277.399 95.7577 277.399 95.5533C277.399 95.2047 277.489 94.9313 277.67 94.733C277.851 94.5346 278.073 94.3874 278.338 94.2912C278.609 94.195 278.898 94.135 279.205 94.1109C279.518 94.0868 279.804 94.0749 280.063 94.0749H280.334V93.9486C280.334 93.6421 280.241 93.4107 280.054 93.2545C279.874 93.0983 279.618 93.0201 279.287 93.0201C279.058 93.0201 278.832 93.0591 278.609 93.1373C278.392 93.2094 278.2 93.3236 278.031 93.4799L277.589 93.0201ZM279.63 94.6699C279.178 94.6699 278.82 94.733 278.555 94.8592C278.29 94.9854 278.158 95.1927 278.158 95.4812C278.158 95.7456 278.245 95.9349 278.42 96.0492C278.6 96.1574 278.823 96.2115 279.088 96.2115C279.292 96.2115 279.47 96.1784 279.621 96.1123C279.777 96.0402 279.907 95.9471 280.009 95.8328C280.111 95.7186 280.19 95.5864 280.244 95.4362C280.298 95.2799 280.328 95.1146 280.334 94.9403V94.6699H279.63ZM284.728 93.0742H283.482V95.1837C283.482 95.3219 283.485 95.4512 283.491 95.5714C283.497 95.6856 283.521 95.7877 283.563 95.8779C283.605 95.962 283.668 96.0311 283.753 96.0852C283.837 96.1333 283.957 96.1574 284.114 96.1574C284.216 96.1574 284.322 96.1454 284.43 96.1213C284.538 96.0972 284.641 96.0612 284.737 96.0131L284.764 96.6532C284.644 96.7073 284.508 96.7463 284.358 96.7704C284.213 96.7945 284.075 96.8065 283.942 96.8065C283.689 96.8065 283.488 96.7734 283.337 96.7073C283.187 96.6412 283.069 96.548 282.985 96.4278C282.901 96.3077 282.844 96.1603 282.813 95.9861C282.789 95.8058 282.777 95.6074 282.777 95.3911V93.0742H281.856V92.4792H282.777V91.2802H283.482V92.4792H284.728V93.0742ZM285.753 92.4792H286.458V96.6983H285.753V92.4792ZM285.591 90.8294C285.591 90.6912 285.639 90.5709 285.735 90.4688C285.838 90.3667 285.961 90.3155 286.105 90.3155C286.25 90.3155 286.37 90.3667 286.467 90.4688C286.569 90.5709 286.62 90.6912 286.62 90.8294C286.62 90.9797 286.572 91.1028 286.476 91.199C286.379 91.2952 286.256 91.3433 286.105 91.3433C285.955 91.3433 285.832 91.2952 285.735 91.199C285.639 91.1028 285.591 90.9797 285.591 90.8294ZM287.706 94.5887C287.706 94.2581 287.763 93.9577 287.878 93.6872C287.992 93.4168 288.149 93.1853 288.347 92.993C288.546 92.7947 288.784 92.6415 289.061 92.5333C289.337 92.4251 289.639 92.371 289.964 92.371C290.289 92.371 290.59 92.4251 290.867 92.5333C291.144 92.6415 291.381 92.7947 291.58 92.993C291.779 93.1853 291.935 93.4168 292.05 93.6872C292.164 93.9577 292.221 94.2581 292.221 94.5887C292.221 94.9193 292.164 95.2198 292.05 95.4902C291.935 95.7607 291.779 95.9951 291.58 96.1934C291.381 96.3857 291.144 96.536 290.867 96.6442C290.59 96.7524 290.289 96.8065 289.964 96.8065C289.639 96.8065 289.337 96.7524 289.061 96.6442C288.784 96.536 288.546 96.3857 288.347 96.1934C288.149 95.9951 287.992 95.7607 287.878 95.4902C287.763 95.2198 287.706 94.9193 287.706 94.5887ZM288.465 94.5887C288.465 94.8111 288.498 95.0185 288.564 95.2108C288.636 95.3971 288.738 95.5624 288.871 95.7066C289.003 95.8448 289.16 95.9561 289.341 96.0402C289.527 96.1183 289.735 96.1574 289.964 96.1574C290.192 96.1574 290.397 96.1183 290.578 96.0402C290.764 95.9561 290.924 95.8448 291.056 95.7066C291.189 95.5624 291.288 95.3971 291.354 95.2108C291.427 95.0185 291.463 94.8111 291.463 94.5887C291.463 94.3663 291.427 94.162 291.354 93.9757C291.288 93.7834 291.189 93.618 291.056 93.4799C290.924 93.3356 290.764 93.2245 290.578 93.1463C290.397 93.0622 290.192 93.0201 289.964 93.0201C289.735 93.0201 289.527 93.0622 289.341 93.1463C289.16 93.2245 289.003 93.3356 288.871 93.4799C288.738 93.618 288.636 93.7834 288.564 93.9757C288.498 94.162 288.465 94.3663 288.465 94.5887ZM293.492 93.4799C293.492 93.2876 293.486 93.1073 293.474 92.939C293.462 92.7706 293.456 92.6174 293.456 92.4792H294.124C294.124 92.5934 294.128 92.7075 294.134 92.8218C294.14 92.936 294.143 93.0532 294.143 93.1733H294.161C294.209 93.0712 294.275 92.972 294.359 92.8758C294.45 92.7796 294.555 92.6955 294.675 92.6234C294.796 92.5452 294.931 92.4852 295.082 92.4431C295.232 92.3951 295.395 92.371 295.569 92.371C295.846 92.371 296.084 92.4131 296.283 92.4972C296.488 92.5813 296.656 92.6985 296.789 92.8488C296.921 92.9991 297.017 93.1824 297.077 93.3987C297.144 93.609 297.177 93.8405 297.177 94.0929V96.6983H296.472V94.165C296.472 93.8105 296.394 93.531 296.238 93.3266C296.081 93.1222 295.837 93.0201 295.506 93.0201C295.277 93.0201 295.079 93.0591 294.91 93.1373C294.748 93.2155 294.612 93.3266 294.504 93.4708C294.401 93.6151 294.323 93.7864 294.269 93.9847C294.221 94.183 294.197 94.4024 294.197 94.6428V96.6983H293.492V93.4799ZM298.727 93.0201C298.944 92.7977 299.2 92.6354 299.495 92.5333C299.796 92.4251 300.1 92.371 300.407 92.371C301.033 92.371 301.484 92.5182 301.761 92.8127C302.038 93.1073 302.177 93.5549 302.177 94.156V95.968C302.177 96.0882 302.183 96.2144 302.195 96.3467C302.207 96.4729 302.222 96.5901 302.24 96.6983H301.563C301.539 96.6021 301.524 96.497 301.518 96.3827C301.518 96.2626 301.518 96.1574 301.518 96.0672H301.5C301.361 96.2836 301.174 96.4609 300.94 96.5991C300.711 96.7373 300.434 96.8065 300.109 96.8065C299.892 96.8065 299.687 96.7794 299.495 96.7253C299.308 96.6712 299.143 96.5931 298.998 96.4909C298.859 96.3827 298.748 96.2505 298.664 96.0943C298.58 95.938 298.537 95.7577 298.537 95.5533C298.537 95.2047 298.628 94.9313 298.808 94.733C298.989 94.5346 299.212 94.3874 299.477 94.2912C299.748 94.195 300.037 94.135 300.344 94.1109C300.657 94.0868 300.943 94.0749 301.202 94.0749H301.472V93.9486C301.472 93.6421 301.379 93.4107 301.192 93.2545C301.012 93.0983 300.756 93.0201 300.425 93.0201C300.196 93.0201 299.97 93.0591 299.748 93.1373C299.531 93.2094 299.338 93.3236 299.17 93.4799L298.727 93.0201ZM300.768 94.6699C300.317 94.6699 299.958 94.733 299.693 94.8592C299.428 94.9854 299.296 95.1927 299.296 95.4812C299.296 95.7456 299.383 95.9349 299.558 96.0492C299.739 96.1574 299.961 96.2115 300.226 96.2115C300.431 96.2115 300.608 96.1784 300.759 96.1123C300.915 96.0402 301.045 95.9471 301.147 95.8328C301.25 95.7186 301.328 95.5864 301.382 95.4362C301.436 95.2799 301.466 95.1146 301.472 94.9403V94.6699H300.768ZM303.708 89.8828H304.412V96.6983H303.708V89.8828Z" fill="#0057B8"/>
</g>
<g clip-path="url(#clip2_2135_249)">
<path d="M92.3 40.686C92.2735 40.686 92.2558 40.686 92.2292 40.686C92.0345 40.6496 91.8397 40.6223 91.645 40.5768C90.1755 40.1948 89.0424 38.9487 88.7768 37.4115C88.7591 37.3115 88.7503 37.2023 88.7325 37.1023C88.7503 37.0204 88.7148 36.9477 88.7148 36.8658C88.7148 36.8385 88.7148 36.8021 88.7148 36.7748C88.7148 36.7021 88.7148 36.6384 88.7148 36.5656C88.7148 27.5245 88.7148 18.4743 88.7148 9.43319C88.7148 9.415 88.7148 9.39681 88.7148 9.37861C88.7148 9.29675 88.7503 9.22399 88.7325 9.14213C88.7237 9.11484 88.7237 9.07846 88.7325 9.05117C88.9273 7.36847 90.0693 6.01321 91.645 5.58571C91.8397 5.53114 92.0345 5.50385 92.2292 5.47656C92.2646 5.47656 92.3 5.47656 92.3443 5.47656C92.3709 5.47656 92.4063 5.47656 92.4328 5.47656C92.4682 5.47656 92.5125 5.47656 92.5479 5.47656C101.436 5.47656 110.323 5.47656 119.211 5.47656C119.247 5.47656 119.282 5.47656 119.317 5.47656C119.344 5.47656 119.379 5.47656 119.406 5.47656C119.441 5.47656 119.477 5.47656 119.521 5.47656C121.203 5.66757 122.54 6.88639 122.938 8.57819C123.009 8.88745 123.044 9.2058 123.044 9.52415C123.044 13.6809 123.044 17.8376 123.044 21.9852C123.044 22.2399 123.044 22.4855 123.044 22.7402C123.018 22.8039 122.965 22.813 122.911 22.8402C122.389 23.0949 121.893 23.386 121.415 23.7225C120.858 24.1136 120.327 24.5411 119.831 25.0141C119.53 25.2961 119.247 25.5871 118.972 25.8873C118.503 26.4057 118.051 26.9515 117.627 27.5154C116.989 28.3704 116.405 29.2618 115.892 30.2077C115.449 31.0264 115.077 31.8723 114.776 32.7545C114.493 33.5732 114.28 34.41 114.148 35.274C114.086 35.6925 114.041 36.1109 114.015 36.5293C113.997 36.8294 114.006 37.1296 113.997 37.4297C113.988 37.5662 114.024 37.7026 114.024 37.839C114.024 37.8845 114.015 37.9482 114.077 37.9664C114.139 37.9755 114.165 37.9209 114.183 37.8754C114.245 37.7481 114.316 37.6298 114.387 37.5116C114.856 36.6657 115.369 35.8562 115.918 35.0648C116.423 34.3281 116.954 33.6095 117.52 32.9183C117.874 32.4817 118.237 32.0542 118.627 31.654C118.795 31.4811 118.946 31.2992 119.114 31.1264C119.981 30.2714 120.884 29.471 121.893 28.7888C122.23 28.5614 122.557 28.334 122.903 28.1248C122.938 28.0975 122.982 28.0521 123.035 28.0885C123.035 28.1248 123.035 28.1612 123.035 28.1976C123.035 30.99 123.035 33.7915 123.035 36.5838C123.035 37.3842 122.858 38.1483 122.433 38.8305C121.787 39.8674 120.867 40.4859 119.68 40.686C119.609 40.6951 119.548 40.7042 119.477 40.7133C119.441 40.7133 119.406 40.7133 119.362 40.7133C119.326 40.7133 119.282 40.7133 119.247 40.7133C119.185 40.7133 119.123 40.7133 119.061 40.7133C110.244 40.7133 101.427 40.7133 92.601 40.7133C92.5656 40.7133 92.5302 40.7133 92.4948 40.7133C92.4594 40.7133 92.4151 40.7133 92.3797 40.7133C92.362 40.686 92.3266 40.686 92.3 40.686Z" fill="#0057B8"/>
<path d="M123.026 28.0536C122.991 28.0536 122.964 28.0808 122.938 28.099C121.946 28.7266 120.99 29.3997 120.114 30.1819C119.424 30.8004 118.777 31.4644 118.167 32.1648C117.06 33.4291 116.069 34.7935 115.166 36.2215C114.829 36.7581 114.502 37.3039 114.201 37.8678C114.192 37.886 114.183 37.9133 114.165 37.9315C114.139 37.9679 114.103 37.9951 114.059 37.9769C114.015 37.9588 113.997 37.9315 113.988 37.8769C113.979 37.7678 113.971 37.6586 113.971 37.5495C113.953 37.0037 113.971 36.4671 114.024 35.9213C114.192 34.3023 114.643 32.7651 115.307 31.2825C115.936 29.8818 116.732 28.5902 117.653 27.3805C118.22 26.6346 118.822 25.9252 119.477 25.2703C120.512 24.2425 121.663 23.3784 122.973 22.7417C122.991 22.7326 123.009 22.7235 123.026 22.7144C123.177 22.6507 123.319 22.587 123.469 22.5234C124.071 22.2687 124.682 22.0777 125.319 21.9412C125.602 21.8776 125.895 21.8412 126.187 21.8048C126.417 21.7775 126.647 21.823 126.868 21.9049C127.152 22.014 127.399 22.1868 127.63 22.396C128.099 22.8235 128.462 23.342 128.78 23.8877C128.993 24.2515 129.188 24.6245 129.347 25.0065C129.356 25.0247 129.356 25.0429 129.365 25.0611C129.365 25.0974 129.365 25.1429 129.365 25.1793C129.294 25.2339 129.205 25.2248 129.126 25.243C128.674 25.3339 128.24 25.4795 127.807 25.6432C127.258 25.8433 126.718 26.0707 126.196 26.3254C125.673 26.571 125.151 26.8347 124.638 27.1076C124.115 27.3896 123.593 27.6897 123.088 27.999C123.062 28.0263 123.044 28.0445 123.026 28.0536Z" fill="#F3F3F3"/>
<path d="M113.74 37.8128C113.74 37.8583 113.749 37.8947 113.749 37.9402C113.757 37.9947 113.74 38.0402 113.687 38.0675C113.634 38.0948 113.598 38.0584 113.572 38.022C113.43 37.8401 113.279 37.6582 113.138 37.4763C112.412 36.5121 111.783 35.4934 111.226 34.4201C110.482 33.0103 109.862 31.5459 109.34 30.036C109.26 29.7995 109.181 29.5539 109.11 29.3175C109.101 29.2811 109.083 29.2447 109.092 29.1992C109.101 29.1355 109.145 29.1082 109.207 29.1355C109.243 29.1537 109.269 29.1901 109.305 29.2174C109.809 29.7086 110.385 30.0815 111.049 30.2998C111.358 30.3998 111.677 30.4726 112.005 30.4999C112.757 30.5727 113.483 30.4817 114.2 30.2725C114.722 30.1179 115.227 29.9087 115.705 29.6358C115.749 29.6085 115.802 29.5812 115.855 29.6267C115.917 29.6722 115.926 29.6995 115.891 29.7631C115.847 29.8359 115.802 29.9087 115.758 29.9814C115.174 30.9092 114.758 31.9097 114.448 32.9648C114.297 33.4742 114.173 33.9926 114.076 34.5202C113.996 34.9477 113.926 35.3843 113.881 35.8118C113.819 36.3848 113.766 36.9578 113.766 37.54C113.749 37.6309 113.74 37.7219 113.74 37.8128Z" fill="#A1C4EC"/>
<path d="M100.762 10.8314C100.771 10.8677 100.806 10.8677 100.824 10.8768C101.037 10.9951 101.161 11.1861 101.205 11.4226C101.249 11.65 101.214 11.8683 101.116 12.0775C100.966 12.3958 100.691 12.5323 100.364 12.5777C100.24 12.5959 100.107 12.5959 99.9743 12.5959C99.576 12.5959 99.1776 12.5959 98.7793 12.5959C98.7527 12.5959 98.7262 12.5959 98.6996 12.5959C98.6642 12.5959 98.6465 12.5777 98.6465 12.5414C98.6465 12.5141 98.6465 12.4959 98.6465 12.4686C98.6465 11.4408 98.6465 10.4221 98.6465 9.39425C98.6465 9.36696 98.6465 9.34877 98.6465 9.32148C98.6465 9.276 98.6642 9.25781 98.7085 9.25781C98.7262 9.25781 98.7439 9.25781 98.7616 9.25781C99.2042 9.25781 99.6468 9.25781 100.089 9.25781C100.231 9.25781 100.373 9.26691 100.505 9.31239C100.992 9.44882 101.258 9.97637 101.072 10.4584C101.028 10.5858 100.948 10.6858 100.842 10.7677C100.815 10.795 100.789 10.8132 100.762 10.8314Z" fill="white"/>
<path d="M107.49 12.5809C107.278 12.5809 107.074 12.5809 106.862 12.5809C106.8 12.5809 106.782 12.5445 106.764 12.499C106.596 12.1534 106.428 11.8078 106.26 11.4621C106.251 11.4439 106.242 11.4349 106.242 11.4167C106.224 11.353 106.18 11.3257 106.118 11.3348C105.959 11.3439 105.808 11.3348 105.649 11.3348C105.552 11.3348 105.552 11.3348 105.552 11.4349C105.552 11.7623 105.552 12.0806 105.552 12.4081C105.552 12.4354 105.552 12.4627 105.552 12.49C105.552 12.5809 105.552 12.5809 105.463 12.5809C105.304 12.5809 105.144 12.5809 104.985 12.5809C104.923 12.5809 104.905 12.5627 104.905 12.499C104.905 12.4718 104.905 12.4536 104.905 12.4263C104.905 11.4167 104.905 10.3979 104.905 9.38832C104.905 9.2246 104.897 9.24279 105.047 9.24279C105.498 9.24279 105.941 9.24279 106.393 9.24279C106.525 9.24279 106.649 9.25188 106.773 9.28827C107.154 9.37922 107.402 9.66119 107.464 10.0523C107.517 10.3888 107.464 10.689 107.251 10.9528C107.163 11.0619 107.065 11.1438 106.941 11.2075C106.871 11.2438 106.871 11.2529 106.906 11.3257C107.083 11.6986 107.251 12.0625 107.428 12.4354C107.464 12.49 107.481 12.5263 107.49 12.5809Z" fill="white"/>
<path d="M104.622 15.3543C104.622 16.0547 104.622 16.7369 104.622 17.4099C104.622 17.5009 104.622 17.5009 104.534 17.5009C104.392 17.5009 104.242 17.5009 104.1 17.5009C104.021 17.5009 104.021 17.5009 104.021 17.4099C104.021 17.3917 104.021 17.3736 104.021 17.3554C104.021 16.3457 104.021 15.3361 104.021 14.3265C104.021 14.3174 104.021 14.2992 104.021 14.2901C104.021 14.1719 104.021 14.1719 104.136 14.1719C104.26 14.1719 104.383 14.1719 104.499 14.1719C104.569 14.1719 104.605 14.1901 104.649 14.2537C104.853 14.5721 105.065 14.8995 105.278 15.2179C105.463 15.4998 105.64 15.7727 105.826 16.0547C105.879 16.1274 105.924 16.2093 105.977 16.2912C105.986 16.2366 105.968 16.182 105.968 16.1274C105.968 15.518 105.968 14.9177 105.968 14.3083C105.968 14.2901 105.968 14.2719 105.968 14.2537C105.968 14.1992 105.986 14.181 106.039 14.181C106.198 14.181 106.358 14.181 106.517 14.181C106.561 14.181 106.579 14.1992 106.579 14.2446C106.579 14.2719 106.579 14.2992 106.579 14.3265C106.579 15.3361 106.579 16.3548 106.579 17.3645C106.579 17.51 106.588 17.51 106.446 17.51C106.34 17.51 106.225 17.51 106.119 17.51C106.048 17.51 106.012 17.4827 105.968 17.4281C105.72 17.0461 105.463 16.655 105.207 16.273C105.056 16.0456 104.906 15.8182 104.755 15.5908C104.72 15.518 104.676 15.4453 104.622 15.3543Z" fill="white"/>
<path d="M101.94 10.9132C101.94 10.413 101.94 9.9218 101.94 9.42154C101.94 9.39425 101.94 9.37606 101.94 9.34877C101.94 9.25781 101.94 9.25781 102.029 9.25781C102.711 9.25781 103.383 9.25781 104.065 9.25781C104.145 9.25781 104.154 9.25781 104.154 9.33967C104.154 9.47611 104.154 9.62164 104.154 9.75808C104.154 9.85813 104.154 9.85813 104.047 9.85813C103.605 9.85813 103.162 9.85813 102.719 9.85813C102.542 9.85813 102.56 9.83084 102.56 10.0219C102.56 10.1674 102.56 10.3129 102.56 10.4584C102.56 10.5494 102.56 10.5494 102.649 10.5494C102.897 10.5494 103.144 10.5494 103.392 10.5494C103.49 10.5494 103.49 10.5494 103.49 10.6404C103.49 10.7859 103.49 10.9314 103.49 11.077C103.49 11.1406 103.472 11.1588 103.41 11.1588C103.18 11.1588 102.95 11.1588 102.711 11.1588C102.684 11.1588 102.666 11.1588 102.64 11.1588C102.551 11.1588 102.551 11.1588 102.551 11.2498C102.551 11.4499 102.551 11.6591 102.551 11.8592C102.551 11.9501 102.551 11.9501 102.649 11.9501C103.127 11.9501 103.605 11.9501 104.092 11.9501C104.118 11.9501 104.145 11.9501 104.171 11.9501C104.216 11.9501 104.233 11.9683 104.233 12.0138C104.233 12.1775 104.233 12.3413 104.233 12.505C104.233 12.5414 104.216 12.5595 104.18 12.5595C104.154 12.5595 104.136 12.5595 104.109 12.5595C103.428 12.5595 102.737 12.5595 102.056 12.5595C102.047 12.5595 102.038 12.5595 102.029 12.5595C101.932 12.5595 101.932 12.5595 101.932 12.4595C101.94 11.9592 101.94 11.4317 101.94 10.9132Z" fill="white"/>
<path d="M101.055 15.8546C101.055 15.3544 101.055 14.845 101.055 14.3448C101.055 14.3175 101.055 14.2902 101.055 14.2629C101.055 14.2174 101.073 14.1992 101.117 14.1992C101.143 14.1992 101.161 14.1992 101.188 14.1992C101.834 14.1992 102.471 14.1992 103.117 14.1992C103.126 14.1992 103.144 14.1992 103.153 14.1992C103.25 14.1992 103.25 14.1992 103.25 14.3084C103.25 14.4357 103.25 14.563 103.25 14.6995C103.25 14.8177 103.25 14.8177 103.135 14.8177C102.693 14.8177 102.25 14.8177 101.807 14.8177C101.781 14.8177 101.754 14.8177 101.728 14.8177C101.683 14.8177 101.666 14.8359 101.666 14.8814C101.666 15.0724 101.666 15.2543 101.666 15.4453C101.666 15.509 101.71 15.509 101.754 15.509C101.984 15.509 102.215 15.509 102.436 15.509C102.622 15.509 102.595 15.4817 102.595 15.6818C102.595 15.791 102.595 15.891 102.595 16.0002C102.595 16.1184 102.595 16.1275 102.48 16.1275C102.259 16.1275 102.029 16.1275 101.807 16.1275C101.781 16.1275 101.763 16.1275 101.737 16.1275C101.683 16.1275 101.657 16.1366 101.657 16.2003C101.657 16.4186 101.657 16.6369 101.657 16.8552C101.657 16.9006 101.675 16.9279 101.719 16.9279C101.745 16.9279 101.772 16.9279 101.798 16.9279C102.259 16.9279 102.728 16.9279 103.188 16.9279C103.215 16.9279 103.241 16.9279 103.268 16.9279C103.312 16.9279 103.339 16.937 103.339 16.9916C103.339 17.1553 103.339 17.3099 103.339 17.4737C103.339 17.5191 103.321 17.5373 103.277 17.5373C103.25 17.5373 103.233 17.5373 103.206 17.5373C102.524 17.5373 101.843 17.5373 101.161 17.5373C101.152 17.5373 101.135 17.5373 101.126 17.5373C101.028 17.5373 101.028 17.5373 101.028 17.4373C101.028 17.41 101.028 17.3918 101.028 17.3645C101.055 16.8461 101.055 16.3549 101.055 15.8546Z" fill="white"/>
<path d="M92.2734 15.8546C92.2734 15.3544 92.2734 14.8541 92.2734 14.3538C92.2734 14.3266 92.2734 14.2993 92.2734 14.272C92.2734 14.2265 92.2911 14.1992 92.3354 14.1992C92.362 14.1992 92.3797 14.1992 92.4062 14.1992C93.0524 14.1992 93.6987 14.1992 94.3449 14.1992C94.3626 14.1992 94.3803 14.1992 94.398 14.1992C94.4423 14.1992 94.4688 14.2083 94.4688 14.2629C94.4688 14.4266 94.4688 14.5812 94.4688 14.745C94.4688 14.7904 94.4511 14.8086 94.4068 14.8086C94.3803 14.8086 94.3537 14.8086 94.3272 14.8086C93.8934 14.8086 93.4596 14.8086 93.0259 14.8086C92.9993 14.8086 92.9728 14.8086 92.9462 14.8086C92.9108 14.8086 92.8931 14.8268 92.8931 14.8632C92.8931 15.0542 92.8931 15.2452 92.8931 15.4362C92.8931 15.4908 92.9197 15.4908 92.9639 15.4908C93.0967 15.4908 93.2295 15.4908 93.3623 15.4908C93.4862 15.4908 93.6101 15.4908 93.7429 15.4908C93.8226 15.4908 93.8314 15.4999 93.8314 15.5727C93.8314 15.7182 93.8314 15.8728 93.8314 16.0184C93.8314 16.082 93.8049 16.1002 93.7518 16.1002C93.5128 16.1002 93.2738 16.1002 93.0347 16.1002C93.0082 16.1002 92.9816 16.1002 92.9551 16.1002C92.9197 16.1002 92.902 16.1184 92.902 16.1548C92.902 16.2003 92.902 16.2367 92.902 16.2821C92.902 16.4459 92.902 16.6096 92.902 16.7733C92.902 16.8915 92.902 16.8915 93.0259 16.8915C93.4862 16.8915 93.9465 16.8915 94.4068 16.8915C94.4334 16.8915 94.4511 16.8915 94.4777 16.8915C94.575 16.8915 94.575 16.8915 94.575 17.0007C94.575 17.1462 94.575 17.2918 94.575 17.4373C94.575 17.4828 94.5573 17.5101 94.5131 17.5101C94.4865 17.5101 94.4688 17.5101 94.4423 17.5101C93.7695 17.5101 93.0967 17.5101 92.4239 17.5101C92.3974 17.5101 92.3708 17.5101 92.3443 17.5101C92.3 17.5101 92.2823 17.4919 92.2823 17.4464C92.2823 17.4191 92.2823 17.3918 92.2823 17.3645C92.2734 16.8643 92.2734 16.3549 92.2734 15.8546Z" fill="white"/>
<path d="M114.555 17.5087C114.343 17.5087 114.148 17.5087 113.953 17.5087C113.9 17.5087 113.891 17.4723 113.882 17.4359C113.82 17.2631 113.758 17.0903 113.688 16.9175C113.652 16.8174 113.652 16.8174 113.555 16.8174C113.201 16.8174 112.855 16.8174 112.501 16.8174C112.404 16.8174 112.404 16.8174 112.369 16.9084C112.307 17.0812 112.245 17.2631 112.183 17.4359C112.165 17.4723 112.156 17.4996 112.103 17.4996C111.908 17.4996 111.713 17.4996 111.519 17.4996C111.51 17.4996 111.51 17.4905 111.492 17.4814C111.545 17.3268 111.607 17.1813 111.66 17.0266C111.997 16.1171 112.333 15.2075 112.67 14.2979C112.714 14.1797 112.714 14.1797 112.829 14.1797C112.962 14.1797 113.086 14.1797 113.218 14.1797C113.316 14.1797 113.316 14.1797 113.351 14.2706C113.696 15.2075 114.042 16.1353 114.387 17.0721C114.449 17.2267 114.502 17.3632 114.555 17.5087Z" fill="white"/>
<path d="M96.2836 17.5821C96.0623 17.5821 95.8587 17.5548 95.6728 17.4639C95.3718 17.3184 95.1505 17.091 95.0354 16.7635C95 16.6817 95.0089 16.6726 95.0885 16.6453C95.2213 16.5907 95.363 16.5452 95.4957 16.4906C95.5754 16.4634 95.5754 16.4634 95.6197 16.5452C95.6816 16.6453 95.7525 16.7362 95.8321 16.8181C96.0269 17 96.3544 17.0364 96.6023 16.9272C96.8059 16.8363 96.8767 16.5088 96.6731 16.336C96.5669 16.2451 96.4429 16.1905 96.3102 16.145C96.1066 16.0722 95.8941 16.0086 95.6993 15.9176C95.6108 15.8721 95.5311 15.8267 95.4515 15.7721C95.2567 15.6175 95.1594 15.4174 95.1416 15.1718C95.1062 14.6442 95.4249 14.3441 95.7879 14.2349C96.142 14.1258 96.4961 14.144 96.8236 14.335C97.036 14.4532 97.1865 14.6351 97.2662 14.8625C97.2928 14.9353 97.2928 14.9353 97.2219 14.9626C97.0892 15.008 96.9652 15.0535 96.8324 15.099C96.7793 15.1172 96.7528 15.1081 96.7262 15.0535C96.6377 14.8625 96.4783 14.7898 96.2836 14.7807C96.1862 14.7716 96.0888 14.7716 95.9915 14.8079C95.8498 14.8625 95.779 14.9626 95.7879 15.1081C95.7879 15.1718 95.8144 15.2172 95.8587 15.2627C95.9207 15.3264 95.9915 15.3628 96.0711 15.3992C96.2482 15.481 96.4341 15.5356 96.62 15.6084C96.797 15.672 96.9652 15.7539 97.1069 15.8812C97.3724 16.0995 97.4698 16.3815 97.4255 16.7271C97.3724 17.191 97.0538 17.5003 96.5757 17.5912C96.4695 17.573 96.3721 17.5912 96.2836 17.5821Z" fill="white"/>
<path d="M100.222 14.9272C100.063 14.9818 99.9125 15.0364 99.762 15.0909C99.7177 15.1091 99.6823 15.0909 99.6646 15.0455C99.6469 15 99.6115 14.9545 99.5761 14.9181C99.5053 14.8545 99.4256 14.7999 99.3282 14.7817C99.222 14.7635 99.1158 14.7544 99.0096 14.7635C98.921 14.7726 98.8502 14.809 98.7882 14.8726C98.6643 15 98.6732 15.1728 98.8148 15.2819C98.921 15.3638 99.0361 15.4002 99.1512 15.4457C99.284 15.4911 99.4168 15.5366 99.5495 15.5912C99.7354 15.664 99.9125 15.7549 100.063 15.8914C100.231 16.046 100.329 16.237 100.346 16.4735C100.373 16.8009 100.275 17.0829 100.036 17.3103C99.8948 17.4467 99.7177 17.5195 99.523 17.5559C99.1423 17.6377 98.7794 17.6104 98.443 17.3921C98.204 17.2375 98.0358 17.0192 97.9384 16.7464C97.9207 16.7009 97.9384 16.6736 97.9827 16.6554C98.1332 16.6008 98.2748 16.5462 98.4253 16.4917C98.4784 16.4735 98.505 16.4917 98.5315 16.5372C98.6023 16.6645 98.682 16.7736 98.7971 16.8555C99.0273 17.0192 99.2751 17.0283 99.5318 16.9192C99.7354 16.8282 99.762 16.4735 99.6115 16.3461C99.4876 16.2461 99.3548 16.1824 99.2043 16.1369C98.9741 16.0551 98.744 15.9823 98.5227 15.8641C98.2925 15.7367 98.1243 15.5639 98.0712 15.291C97.9738 14.8181 98.1951 14.4088 98.6378 14.245C99.045 14.0995 99.4433 14.1177 99.8063 14.3542C100.019 14.4906 100.152 14.6816 100.222 14.9272Z" fill="white"/>
<path d="M117.591 16.6795C117.759 16.6158 117.927 16.5521 118.087 16.4885C118.14 16.4703 118.166 16.4794 118.184 16.5249C118.237 16.6249 118.308 16.725 118.396 16.7977C118.618 16.9978 118.874 17.0251 119.14 16.9342C119.273 16.8887 119.352 16.7886 119.37 16.634C119.388 16.4794 119.326 16.3611 119.202 16.2793C119.096 16.2156 118.981 16.161 118.857 16.1247C118.635 16.0519 118.405 15.9791 118.202 15.8609C117.963 15.7335 117.786 15.5425 117.741 15.2606C117.679 14.9058 117.786 14.5784 118.095 14.3601C118.334 14.1873 118.609 14.1418 118.901 14.16C119.096 14.1691 119.282 14.2236 119.45 14.3328C119.645 14.451 119.777 14.6239 119.857 14.8422C119.884 14.924 119.884 14.924 119.813 14.9513C119.689 14.9968 119.556 15.0332 119.432 15.0786C119.379 15.0968 119.352 15.0877 119.317 15.0332C119.211 14.8331 119.034 14.7603 118.83 14.7512C118.75 14.7512 118.671 14.7421 118.591 14.7694C118.547 14.7876 118.503 14.8058 118.467 14.8422C118.326 14.9786 118.334 15.1696 118.494 15.2788C118.6 15.3515 118.706 15.397 118.821 15.4334C118.954 15.4789 119.078 15.5243 119.211 15.5698C119.352 15.6244 119.485 15.6972 119.618 15.779C120.131 16.1156 120.114 16.8159 119.786 17.1979C119.627 17.3799 119.432 17.4708 119.202 17.5254C118.812 17.6072 118.441 17.58 118.104 17.3617C117.856 17.2161 117.688 16.9887 117.591 16.6795Z" fill="white"/>
<path d="M94.7705 11.8068C94.558 12.3343 94.1685 12.6163 93.6551 12.6345C93.3452 12.6436 93.062 12.5708 92.8141 12.3889C92.5928 12.2161 92.4512 11.9887 92.3626 11.7249C92.2033 11.2519 92.2033 10.7699 92.3272 10.2787C92.3892 10.0513 92.4777 9.8512 92.6282 9.66929C92.9115 9.31455 93.2833 9.18721 93.7082 9.2145C93.9029 9.23269 94.08 9.27817 94.2482 9.37822C94.4518 9.49647 94.6023 9.66019 94.7085 9.86939C94.7439 9.95125 94.7439 9.95125 94.6642 9.98763C94.5226 10.0513 94.3898 10.115 94.2482 10.1877C94.2039 10.2059 94.1774 10.2059 94.1419 10.1605C94.0977 10.0877 94.0446 10.0149 93.9738 9.95125C93.7436 9.76934 93.2833 9.76934 93.0708 10.1423C92.9292 10.3969 92.8849 10.6789 92.8938 10.97C92.8938 11.1337 92.9203 11.2974 92.9734 11.452C93.0177 11.5976 93.0885 11.734 93.1947 11.8432C93.4249 12.0796 93.7702 12.0796 94.0092 11.8523C94.0711 11.7886 94.1242 11.7249 94.1685 11.6521C94.1862 11.6158 94.2128 11.5976 94.257 11.6158C94.4252 11.6703 94.5934 11.734 94.7705 11.8068Z" fill="white"/>
<path d="M95.1416 9.26691C95.3629 9.26691 95.5665 9.26691 95.779 9.26691C95.8232 9.26691 95.8409 9.2942 95.8675 9.33058C95.9472 9.46701 96.0268 9.59435 96.1065 9.73079C96.2658 9.99456 96.4163 10.2583 96.5757 10.5221C96.5934 10.5494 96.6022 10.5767 96.6376 10.5949C96.7527 10.4039 96.8678 10.2129 96.974 10.0219C97.1068 9.79446 97.2485 9.56707 97.3812 9.33967C97.4167 9.276 97.4609 9.25781 97.5229 9.25781C97.6822 9.26691 97.8504 9.25781 98.0098 9.25781C98.0363 9.25781 98.0717 9.25781 98.0983 9.26691C98.0983 9.31239 98.0717 9.33967 98.0629 9.36696C97.7088 9.96728 97.3635 10.5676 97.0094 11.1679C96.9652 11.2407 96.9475 11.3225 96.9475 11.4135C96.9475 11.7682 96.9475 12.123 96.9475 12.4777C96.9475 12.5777 96.9475 12.5777 96.8501 12.5777C96.7085 12.5777 96.5668 12.5777 96.4252 12.5777C96.319 12.5777 96.319 12.5777 96.319 12.4686C96.319 12.1139 96.319 11.7591 96.319 11.4044C96.319 11.3134 96.3013 11.2407 96.257 11.1588C95.9118 10.5676 95.5665 9.98547 95.2213 9.39425C95.177 9.35787 95.1505 9.33058 95.1416 9.26691Z" fill="white"/>
<path d="M108.119 16.1548C108.119 15.7637 108.119 15.3635 108.119 14.9724C108.119 14.9451 108.119 14.9269 108.119 14.8996C108.128 14.845 108.101 14.8086 108.039 14.8177C107.986 14.8177 107.924 14.8177 107.871 14.8177C107.676 14.8177 107.482 14.8177 107.287 14.8177C107.198 14.8177 107.198 14.8177 107.198 14.7268C107.198 14.5721 107.198 14.4175 107.198 14.272C107.198 14.2265 107.216 14.1992 107.269 14.1992C107.287 14.1992 107.304 14.1992 107.322 14.1992C108.057 14.1992 108.801 14.1992 109.535 14.1992C109.562 14.1992 109.58 14.1992 109.606 14.1992C109.641 14.1992 109.668 14.2083 109.668 14.2538C109.668 14.4175 109.668 14.5903 109.668 14.7541C109.668 14.7995 109.641 14.8086 109.606 14.8086C109.526 14.8086 109.438 14.8086 109.358 14.8086C109.199 14.8086 109.04 14.8086 108.88 14.8086C108.756 14.8086 108.747 14.8086 108.747 14.9451C108.747 15.127 108.747 15.3089 108.747 15.4999C108.747 16.1184 108.747 16.7369 108.747 17.3554C108.747 17.3827 108.747 17.4191 108.747 17.4464C108.747 17.4919 108.73 17.5101 108.685 17.5101C108.526 17.5101 108.358 17.5101 108.199 17.5101C108.137 17.5101 108.137 17.4737 108.137 17.4282C108.137 17.1917 108.137 16.9552 108.137 16.7096C108.119 16.5277 108.119 16.3367 108.119 16.1548Z" fill="white"/>
<path d="M115.148 15.8455C115.148 15.3453 115.148 14.845 115.148 14.3448C115.148 14.3175 115.148 14.2902 115.148 14.2629C115.148 14.2174 115.166 14.1992 115.21 14.1992C115.379 14.1992 115.556 14.1992 115.724 14.1992C115.759 14.1992 115.777 14.2174 115.777 14.2538C115.777 14.2811 115.777 14.3175 115.777 14.3448C115.777 15.1452 115.777 15.9365 115.777 16.7369C115.777 16.7642 115.777 16.8006 115.777 16.8279C115.777 16.8734 115.795 16.8915 115.839 16.8915C115.865 16.8915 115.892 16.8915 115.919 16.8915C116.335 16.8915 116.76 16.8915 117.176 16.8915C117.202 16.8915 117.229 16.8915 117.255 16.8915C117.317 16.8824 117.335 16.9188 117.335 16.9734C117.335 17.128 117.335 17.2827 117.335 17.4282C117.335 17.4828 117.317 17.5101 117.264 17.501C117.176 17.501 117.078 17.501 116.99 17.501C116.423 17.501 115.857 17.501 115.29 17.501C115.264 17.501 115.237 17.501 115.21 17.501C115.166 17.501 115.148 17.4828 115.148 17.4373C115.148 17.41 115.148 17.3827 115.148 17.3554C115.148 16.8643 115.148 16.3549 115.148 15.8455Z" fill="white"/>
<path d="M110.899 15.8546C110.899 16.3549 110.899 16.8643 110.899 17.3645C110.899 17.3918 110.899 17.4191 110.899 17.4464C110.899 17.4919 110.881 17.5101 110.837 17.5101C110.669 17.5101 110.5 17.5101 110.332 17.5101C110.297 17.5101 110.279 17.4919 110.279 17.4555C110.279 17.4282 110.279 17.41 110.279 17.3827C110.279 16.364 110.279 15.3453 110.279 14.3266C110.279 14.3084 110.279 14.2902 110.279 14.272C110.27 14.2174 110.297 14.1992 110.35 14.1992C110.509 14.1992 110.66 14.1992 110.819 14.1992C110.881 14.1992 110.899 14.2265 110.899 14.2811C110.899 14.4448 110.899 14.6085 110.899 14.7722C110.899 15.1361 110.899 15.4908 110.899 15.8546Z" fill="white"/>
<path d="M99.7533 11.9983C99.6294 11.9983 99.5054 11.9983 99.3815 11.9983C99.3018 11.9983 99.293 11.9983 99.293 11.9164C99.293 11.6981 99.293 11.4798 99.293 11.2615C99.293 11.1797 99.293 11.1797 99.3726 11.1797C99.6117 11.1797 99.8595 11.1797 100.099 11.1797C100.205 11.1797 100.311 11.1979 100.408 11.2525C100.55 11.3252 100.621 11.4798 100.594 11.6527C100.568 11.8255 100.47 11.9346 100.311 11.971C100.178 11.9983 100.037 11.9983 99.9038 11.9983C99.8507 11.9983 99.8064 11.9983 99.7533 11.9983Z" fill="#014898"/>
<path d="M99.7357 9.85938C99.8508 9.85938 99.9659 9.85938 100.081 9.85938C100.161 9.85938 100.231 9.86847 100.302 9.90485C100.417 9.95033 100.479 10.0413 100.488 10.1777C100.497 10.3233 100.462 10.4415 100.32 10.5052C100.249 10.5416 100.169 10.5597 100.09 10.5688C99.8419 10.5688 99.6029 10.5688 99.3551 10.5688C99.2931 10.5688 99.2754 10.5416 99.2754 10.487C99.2754 10.3051 99.2754 10.1232 99.2754 9.95033C99.2754 9.86847 99.2754 9.86847 99.3639 9.86847C99.4967 9.85938 99.6118 9.85938 99.7357 9.85938Z" fill="#014898"/>
<path d="M106.038 10.7235C105.897 10.7235 105.746 10.7235 105.604 10.7235C105.551 10.7235 105.516 10.7144 105.525 10.6507C105.525 10.4142 105.525 10.1777 105.525 9.93214C105.525 9.87757 105.551 9.85938 105.596 9.85938C105.87 9.85938 106.153 9.85938 106.428 9.85938C106.684 9.86847 106.826 10.0231 106.826 10.2869C106.826 10.3778 106.817 10.4688 106.773 10.5506C106.693 10.678 106.578 10.7326 106.437 10.7326C106.304 10.7235 106.171 10.7326 106.038 10.7235Z" fill="#014898"/>
<path d="M113.041 15.1094C113.183 15.4914 113.307 15.8643 113.44 16.2372C113.156 16.2372 112.891 16.2372 112.607 16.2372C112.749 15.8552 112.891 15.4914 113.041 15.1094Z" fill="#014898"/>
</g>
<path fill-rule="evenodd" clip-rule="evenodd" d="M206.103 29.7552H211.411V16.0138H206.103V29.7552ZM205.549 11.7091C205.549 12.6342 205.858 13.3602 206.475 13.8876C207.092 14.4126 207.857 14.6766 208.765 14.6766C209.674 14.6766 210.438 14.4126 211.055 13.8876C211.672 13.3602 211.98 12.6342 211.98 11.7091C211.98 10.7643 211.672 10.027 211.055 9.50019C210.438 8.97339 209.674 8.70939 208.765 8.70939C207.857 8.70939 207.092 8.97339 206.475 9.50019C205.858 10.027 205.549 10.7643 205.549 11.7091ZM203.941 29.3158L203.933 25.8726C203.247 26.1253 202.602 26.3173 201.997 26.4493C201.394 26.5837 200.775 26.6497 200.143 26.6497C199.529 26.6497 198.957 26.5694 198.424 26.4095C197.891 26.2513 197.427 26.0153 197.029 25.7037C196.632 25.3915 196.316 24.9997 196.081 24.5276C195.848 24.0567 195.73 23.5091 195.73 22.8842C195.73 21.6772 196.104 20.7467 196.853 20.0962C197.604 19.4463 198.573 19.1205 199.764 19.1205C200.504 19.1205 201.2 19.2168 201.849 19.4095C202.499 19.6015 203.085 19.8441 203.608 20.136L203.616 16.4485C202.949 16.2094 202.931 16.1857 202.092 16.0031C201.258 15.823 200.305 15.7944 199.276 15.7944C197.941 15.7944 196.718 15.9645 195.609 16.3016C194.498 16.6411 193.542 17.1227 192.739 17.7464C191.936 18.3701 191.314 19.1205 190.872 19.9957C190.429 20.8739 190.208 21.8419 190.208 22.905C190.208 23.98 190.416 24.9551 190.831 25.8333C191.246 26.7091 191.85 27.4512 192.644 28.0636C193.438 28.6742 194.408 29.1463 195.554 29.4775C196.701 29.8087 198.005 29.9752 199.466 29.9752C200.495 29.9752 201.415 29.8991 202.227 29.7451C203.04 29.5929 203.107 29.5578 203.941 29.3158ZM189.173 20.714C189.173 19.1348 188.513 17.9551 187.193 17.1786C185.872 16.4021 184.056 16.0138 181.743 16.0138H175.555V29.7552H180.837V25.6323H181.665C182.787 25.6323 183.809 25.5307 184.733 25.3244C185.657 25.1198 186.446 24.8106 187.102 24.398C187.758 23.9866 188.267 23.4728 188.63 22.8545C188.992 22.2373 189.173 21.5232 189.173 20.714ZM219.892 27.1301L179.26 39.8161L167.407 7.80979L210.063 5.42969L219.892 27.1301ZM184.098 20.7734C184.098 21.4239 183.867 21.9014 183.4 22.207C182.933 22.5126 182.261 22.6654 181.381 22.6654H180.785V18.9814H181.433C183.21 18.9814 184.098 19.5789 184.098 20.7734Z" fill="#0057B8"/>
<g clip-path="url(#clip3_2135_249)">
<path d="M39.8887 4.52344H9.88041C7.92177 4.52344 6.33398 6.09391 6.33398 8.03118V38.1168C6.33398 40.0541 7.92177 41.6245 9.88041 41.6245H39.8887C41.8473 41.6245 43.4351 40.0541 43.4351 38.1168V8.03118C43.4351 6.09391 41.8473 4.52344 39.8887 4.52344Z" fill="#0057B8"/>
<path d="M17.9747 35.9691V37.2445C17.1151 37.7083 16.1226 37.9402 14.9973 37.9402C14.083 37.9402 13.3074 37.7585 12.6705 37.3952C12.0336 37.032 11.5296 36.5314 11.1584 35.8938C10.7872 35.2561 10.6016 34.5663 10.6016 33.8243C10.6016 32.6455 11.0255 31.6542 11.8734 30.8504C12.7252 30.0464 13.7743 29.6445 15.0207 29.6445C15.8804 29.6445 16.8357 29.8667 17.8868 30.3113V31.5576C16.9295 31.0165 15.9937 30.746 15.0794 30.746C14.1416 30.746 13.3621 31.0397 12.7408 31.6272C12.1235 32.2107 11.8148 32.943 11.8148 33.8243C11.8148 34.7131 12.1196 35.4435 12.7291 36.0155C13.3386 36.5874 14.1181 36.8734 15.0676 36.8734C16.0601 36.8734 17.0291 36.572 17.9747 35.9691ZM19.0681 29.749H20.2404V37.8474H19.0681V29.749ZM23.845 34.4503L22.9542 33.917C22.3954 33.5808 21.9969 33.2504 21.7585 32.9258C21.524 32.5972 21.4069 32.2204 21.4069 31.7953C21.4069 31.1576 21.6296 30.6398 22.075 30.2417C22.5244 29.8435 23.1066 29.6445 23.8216 29.6445C24.5053 29.6445 25.1325 29.8339 25.703 30.2127V31.5286C25.113 30.9682 24.4781 30.6881 23.7981 30.6881C23.4152 30.6881 23.1007 30.7769 22.8545 30.9547C22.6084 31.1286 22.4852 31.3528 22.4852 31.6272C22.4852 31.8706 22.5751 32.0986 22.7549 32.3112C22.9347 32.5237 23.2258 32.746 23.6282 32.9778L24.5249 33.4995C25.5252 34.0871 26.0253 34.8368 26.0253 35.7488C26.0253 36.3981 25.8046 36.9257 25.363 37.3315C24.9255 37.7373 24.3549 37.9402 23.6516 37.9402C22.8428 37.9402 22.1063 37.6947 21.4421 37.2038V35.7314C22.075 36.5237 22.8077 36.9199 23.6399 36.9199C24.0072 36.9199 24.3119 36.8193 24.5542 36.6185C24.8004 36.4135 24.9234 36.1585 24.9234 35.8532C24.9234 35.3585 24.564 34.8909 23.845 34.4503ZM28.9826 34.4503L28.0916 33.917C27.5329 33.5808 27.1343 33.2504 26.8961 32.9258C26.6616 32.5972 26.5444 32.2204 26.5444 31.7953C26.5444 31.1576 26.7672 30.6398 27.2125 30.2417C27.6618 29.8435 28.2441 29.6445 28.9591 29.6445C29.6429 29.6445 30.2701 29.8339 30.8405 30.2127V31.5286C30.2504 30.9682 29.6155 30.6881 28.9357 30.6881C28.5528 30.6881 28.2382 30.7769 27.992 30.9547C27.7458 31.1286 27.6228 31.3528 27.6228 31.6272C27.6228 31.8706 27.7127 32.0986 27.8925 32.3112C28.0721 32.5237 28.3632 32.746 28.7657 32.9778L29.6624 33.4995C30.6626 34.0871 31.1628 34.8368 31.1628 35.7488C31.1628 36.3981 30.9421 36.9257 30.5006 37.3315C30.0629 37.7373 29.4924 37.9402 28.7892 37.9402C27.9803 37.9402 27.2437 37.6947 26.5796 37.2038V35.7314C27.2125 36.5237 27.9451 36.9199 28.7774 36.9199C29.1448 36.9199 29.4495 36.8193 29.6917 36.6185C29.9379 36.4135 30.061 36.1585 30.061 35.8532C30.061 35.3585 29.7015 34.8909 28.9826 34.4503ZM31.9077 37.8474V29.7373H34.5041C35.2855 29.7373 35.9088 29.9461 36.3737 30.3633C36.8387 30.7808 37.0712 31.3412 37.0712 32.0445C37.0712 32.516 36.9519 32.9334 36.7137 33.2968C36.4754 33.6599 36.1491 33.9246 35.7348 34.0909C35.3207 34.2532 34.7268 34.3344 33.9532 34.3344H33.0857V37.8474H31.9077ZM34.2989 30.7692H33.0857V33.3024H34.3692C34.8459 33.3024 35.2132 33.1923 35.4712 32.972C35.729 32.7479 35.858 32.4291 35.858 32.0155C35.858 31.1847 35.3383 30.7692 34.2989 30.7692Z" fill="white"/>
</g>
<path d="M265.538 19.9163V8.15359C267.656 7.66348 273.723 6.65875 281.044 6.56073C288.365 6.46271 294.601 7.58178 296.804 8.15359V19.9163H265.538Z" fill="#0057B8" stroke="white"/>
<path d="M281.425 38.292C267.699 34.7632 265.538 27.8771 265.538 24.6914H297.059C297.059 28.3672 294.39 35.1063 281.425 38.292Z" fill="#0057B8"/>
<path d="M262.233 26.1852V5.478C279.824 1.65512 294.983 3.88513 300.363 5.478C300.49 11.1143 300.668 23.1465 300.363 26.1852C299.982 29.9837 299.346 31.3315 294.644 35.3749C290.882 38.6096 284.264 41.0519 281.425 41.8689C278.841 41.1337 272.528 38.8057 267.953 35.3749C263.377 31.9441 262.233 27.8189 262.233 26.1852Z" stroke="#0057B8" stroke-width="6"/>
<path d="M271.825 9.14851H276.356V10.1922H273.042V12.4788H276.356V13.5224H273.042V17.3393H271.825V9.14851ZM277.427 9.14851H278.643V17.3393H277.427V9.14851ZM280.213 17.3393V9.13678H282.907C283.718 9.13678 284.365 9.34787 284.847 9.77C285.329 10.1922 285.571 10.7589 285.571 11.4703C285.571 11.9472 285.447 12.3693 285.2 12.7368C284.952 13.1042 284.614 13.3719 284.184 13.54C283.754 13.7042 283.138 13.7863 282.335 13.7863H281.435V17.3393H280.213ZM282.694 10.1804H281.435V12.7426H282.767C283.262 12.7426 283.643 12.6312 283.91 12.4084C284.178 12.1817 284.312 11.8592 284.312 11.441C284.312 10.6006 283.773 10.1804 282.694 10.1804ZM288.733 13.9035L287.809 13.3641C287.229 13.024 286.816 12.6899 286.568 12.3615C286.325 12.0293 286.203 11.6482 286.203 11.2182C286.203 10.5732 286.434 10.0495 286.897 9.64688C287.363 9.24428 287.967 9.04297 288.709 9.04297C289.419 9.04297 290.069 9.2345 290.661 9.61755V10.9485C290.049 10.3817 289.39 10.0984 288.685 10.0984C288.287 10.0984 287.961 10.1882 287.706 10.368C287.45 10.5439 287.322 10.7706 287.322 11.0482C287.322 11.2944 287.416 11.525 287.602 11.74C287.789 11.955 288.091 12.1798 288.508 12.4143L289.439 12.942C290.477 13.5361 290.996 14.2944 290.996 15.2169C290.996 15.8736 290.767 16.4071 290.309 16.8175C289.854 17.2279 289.263 17.4331 288.533 17.4331C287.693 17.4331 286.929 17.1849 286.24 16.6885V15.1993C286.896 16.0006 287.657 16.4012 288.521 16.4012C288.902 16.4012 289.218 16.2996 289.469 16.0963C289.725 15.8892 289.852 15.6312 289.852 15.3224C289.852 14.8221 289.479 14.3491 288.733 13.9035Z" fill="white"/>
<path d="M273.591 26.4217H274.534V32.7738H273.591V26.4217ZM278.351 26.3398H278.738V29.9046H279.474V30.6776H278.738V32.7738H277.818V30.6776H275.031V30.2867L278.351 26.3398ZM277.818 29.9046V28.0631L276.295 29.9046H277.818ZM281.818 26.3398C282.422 26.3398 282.92 26.646 283.314 27.2583C283.71 27.8675 283.908 28.6421 283.908 29.5819C283.908 30.5457 283.71 31.3294 283.314 31.9325C282.92 32.5358 282.41 32.8375 281.781 32.8375C281.142 32.8375 280.63 32.5419 280.243 31.9509C279.856 31.3595 279.663 30.5761 279.663 29.6C279.663 28.636 279.863 27.8525 280.262 27.2492C280.661 26.643 281.18 26.3398 281.818 26.3398ZM281.828 27.2039H281.781C281.419 27.2039 281.131 27.419 280.918 27.8494C280.707 28.2767 280.602 28.8573 280.602 29.591C280.602 30.3426 280.705 30.9322 280.913 31.3595C281.12 31.7872 281.406 32.0009 281.771 32.0009C282.136 32.0009 282.424 31.7872 282.634 31.3595C282.845 30.9322 282.95 30.3519 282.95 29.6182C282.95 28.8815 282.848 28.2951 282.644 27.8584C282.443 27.422 282.171 27.2039 281.828 27.2039ZM284.389 30.2683H286.738V31.1552H284.389V30.2683ZM287.956 31.8962H290.465V32.7738H286.296V32.71L286.692 32.2599C287.311 31.5203 287.803 30.893 288.168 30.3776C288.536 29.8623 288.775 29.4726 288.885 29.2089C288.998 28.9453 289.055 28.6845 289.055 28.427C289.055 28.0692 288.95 27.7827 288.739 27.5675C288.528 27.3492 288.248 27.2402 287.899 27.2402C287.635 27.2402 287.374 27.3159 287.117 27.4676C286.862 27.6161 286.632 27.8266 286.428 28.0996V26.9446C286.94 26.5414 287.469 26.3398 288.013 26.3398C288.588 26.3398 289.061 26.5248 289.432 26.8946C289.806 27.2644 289.994 27.7342 289.994 28.3042C289.994 28.5588 289.946 28.8315 289.852 29.1227C289.761 29.4106 289.597 29.7439 289.362 30.123C289.126 30.4987 288.725 31.0125 288.159 31.6644L287.956 31.8962Z" fill="white"/>
<defs>
<clipPath id="clip0_2135_249">
<rect width="43.4354" height="40.7207" fill="white" transform="translate(170.689 59.7227)"/>
</clipPath>
<clipPath id="clip1_2135_249">
<rect width="63.3433" height="34.3864" fill="white" transform="translate(250.321 62.4375)"/>
</clipPath>
<clipPath id="clip2_2135_249">
<rect width="40.7207" height="35.2913" fill="white" transform="translate(88.6797 5.42969)"/>
</clipPath>
<clipPath id="clip3_2135_249">
<rect width="37.1011" height="37.1011" fill="white" transform="translate(6.33398 4.52344)"/>
</clipPath>
</defs>
</svg>
