<svg width="76" height="71" viewBox="0 0 76 71" fill="none" xmlns="http://www.w3.org/2000/svg">
<g clip-path="url(#clip0_6_6743)">
<path d="M1.13354 26.5856H4.99789V33.0252H12.5036V26.5856H16.368V43.8556H12.5036V36.3914H4.99789V43.8556H1.13354V26.5856ZM19.6326 26.5856H23.4969V43.8556H19.6326V26.5856ZM26.7643 26.5856H33.2792C34.1874 26.5856 35.0462 26.6669 35.8554 26.8295C36.6646 26.9921 37.3665 27.2767 37.961 27.6833C38.572 28.0735 39.0509 28.6102 39.3977 29.2932C39.761 29.9599 39.9427 30.8055 39.9427 31.83C39.9427 32.8382 39.7775 33.6838 39.4473 34.3669C39.117 35.0498 38.6628 35.5946 38.0849 36.0011C37.5068 36.4076 36.8215 36.7004 36.0288 36.8793C35.2361 37.0418 34.3773 37.1232 33.4526 37.1232H30.6286V43.8556H26.7643V26.5856ZM30.6286 33.9034H33.2049C33.5517 33.9034 33.8819 33.8708 34.1957 33.8058C34.5259 33.7408 34.815 33.635 35.0627 33.4887C35.3269 33.3261 35.5334 33.1146 35.682 32.8545C35.8471 32.578 35.9297 32.2365 35.9297 31.83C35.9297 31.3909 35.8223 31.0412 35.6077 30.7811C35.4095 30.5046 35.1452 30.2932 34.815 30.1469C34.5012 30.0005 34.1462 29.9111 33.7498 29.8786C33.3535 29.8298 32.9736 29.8054 32.6103 29.8054H30.6286V33.9034ZM44.9188 26.5856H48.1143L55.7439 43.8556H51.3841L49.8731 40.1967H43.061L41.5994 43.8556H37.3388L44.9188 26.5856ZM46.4051 31.6105L44.2748 36.9768H48.5602L46.4051 31.6105ZM64.0227 26.5856H67.218L74.8479 43.8556H70.4879L68.977 40.1967H62.1649L60.7034 43.8556H56.4427L64.0227 26.5856ZM65.509 31.6105L63.3787 36.9768H67.6642L65.509 31.6105Z" fill="white"/>
<path d="M7.72573 53.5675C7.34105 54.08 6.8961 54.4476 6.39077 54.6704C5.88547 54.8931 5.33868 55.0046 4.7504 55.0046C4.1395 55.0046 3.57763 54.9043 3.06477 54.7037C2.55947 54.4959 2.1258 54.2099 1.76378 53.846C1.40177 53.4746 1.11895 53.0365 0.915313 52.5315C0.711678 52.019 0.609863 51.462 0.609863 50.8605C0.609863 50.2589 0.711678 49.7057 0.915313 49.2007C1.11895 48.6956 1.40177 48.2612 1.76378 47.8973C2.1258 47.5259 2.55947 47.2363 3.06477 47.0283C3.57763 46.8204 4.1395 46.7164 4.7504 46.7164C5.29342 46.7164 5.79873 46.813 6.26634 47.0061C6.7415 47.1917 7.15625 47.5073 7.51079 47.953L6.89986 48.4543C6.65095 48.0829 6.33044 47.8119 5.93826 47.641C5.55362 47.4702 5.15767 47.3848 4.7504 47.3848C4.23 47.3848 3.75863 47.474 3.33628 47.6522C2.92148 47.8304 2.567 48.0755 2.27287 48.3874C1.97873 48.6993 1.75247 49.067 1.59409 49.4903C1.43571 49.9136 1.35652 50.3703 1.35652 50.8605C1.35652 51.3506 1.43571 51.8074 1.59409 52.2307C1.75247 52.654 1.97873 53.0216 2.27287 53.3336C2.567 53.6455 2.92148 53.8906 3.33628 54.0688C3.75863 54.247 4.23 54.3361 4.7504 54.3361C4.95403 54.3361 5.16521 54.3139 5.38392 54.2693C5.60265 54.2174 5.81382 54.143 6.01745 54.0465C6.22862 53.9425 6.42849 53.8163 6.61704 53.6678C6.80561 53.5118 6.97151 53.3261 7.11481 53.1108L7.72573 53.5675ZM9.81976 50.8605C9.81976 50.2589 9.92161 49.7057 10.1252 49.2007C10.3288 48.6956 10.6117 48.2612 10.9737 47.8973C11.3357 47.5259 11.7693 47.2363 12.2747 47.0283C12.7875 46.8204 13.3494 46.7164 13.9603 46.7164C14.5712 46.7164 15.1292 46.8204 15.6346 47.0283C16.1474 47.2363 16.5849 47.5259 16.9469 47.8973C17.3089 48.2612 17.5918 48.6956 17.7954 49.2007C17.999 49.7057 18.1008 50.2589 18.1008 50.8605C18.1008 51.462 17.999 52.019 17.7954 52.5315C17.5918 53.0365 17.3089 53.4746 16.9469 53.846C16.5849 54.2099 16.1474 54.4959 15.6346 54.7037C15.1292 54.9043 14.5712 55.0046 13.9603 55.0046C13.3494 55.0046 12.7875 54.9043 12.2747 54.7037C11.7693 54.4959 11.3357 54.2099 10.9737 53.846C10.6117 53.4746 10.3288 53.0365 10.1252 52.5315C9.92161 52.019 9.81976 51.462 9.81976 50.8605ZM10.5664 50.8605C10.5664 51.3506 10.6456 51.8074 10.804 52.2307C10.9624 52.654 11.1886 53.0216 11.4828 53.3336C11.7769 53.6455 12.1313 53.8906 12.5462 54.0688C12.9685 54.247 13.4399 54.3361 13.9603 54.3361C14.4807 54.3361 14.9483 54.247 15.3631 54.0688C15.7854 53.8906 16.1437 53.6455 16.4379 53.3336C16.732 53.0216 16.9582 52.654 17.1166 52.2307C17.275 51.8074 17.3542 51.3506 17.3542 50.8605C17.3542 50.3703 17.275 49.9136 17.1166 49.4903C16.9582 49.067 16.732 48.6993 16.4379 48.3874C16.1437 48.0755 15.7854 47.8304 15.3631 47.6522C14.9483 47.474 14.4807 47.3848 13.9603 47.3848C13.4399 47.3848 12.9685 47.474 12.5462 47.6522C12.1313 47.8304 11.7769 48.0755 11.4828 48.3874C11.1886 48.6993 10.9624 49.067 10.804 49.4903C10.6456 49.9136 10.5664 50.3703 10.5664 50.8605ZM21.0533 46.917H22.1733L25.0921 53.5341L28.0108 46.917H29.0742V54.804H28.3276V47.8527H28.3049L25.2504 54.804H24.9223L21.8226 47.8527H21.8V54.804H21.0533V46.917ZM32.4305 46.917H34.7383C35.0173 46.917 35.3078 46.9503 35.6094 47.0172C35.9186 47.0767 36.1977 47.1843 36.4465 47.3403C36.7029 47.4962 36.9104 47.7116 37.0687 47.9864C37.2346 48.2537 37.3177 48.5917 37.3177 49.0001C37.3177 49.3566 37.2498 49.6648 37.114 49.9247C36.9857 50.1847 36.8085 50.4 36.5823 50.5708C36.3636 50.7342 36.1071 50.8568 35.813 50.9384C35.5264 51.0202 35.2247 51.061 34.908 51.061H33.1771V54.804H32.4305V46.917ZM33.1771 50.3926H34.874C35.0851 50.3926 35.2926 50.3703 35.4963 50.3258C35.6999 50.2738 35.8809 50.1958 36.0392 50.0918C36.1977 49.9804 36.3259 49.8356 36.4239 49.6574C36.5219 49.4792 36.571 49.2601 36.571 49.0001C36.571 48.7477 36.5182 48.5322 36.4126 48.354C36.3146 48.1758 36.1825 48.031 36.0166 47.9195C35.8583 47.8008 35.6735 47.7153 35.4623 47.6633C35.2512 47.6114 35.0399 47.5853 34.8288 47.5853H33.1771V50.3926ZM40.1709 46.917H40.9176V54.1356H44.6509V54.804H40.1709V46.917ZM47.1849 46.917H47.9316V54.804H47.1849V46.917ZM53.823 46.917H54.5923L57.9636 54.804H57.1264L56.2553 52.7097H52.0129L51.1079 54.804H50.3273L53.823 46.917ZM54.1737 47.719L52.3071 52.0413H55.9838L54.1737 47.719ZM60.4701 46.917H61.4317L66.3075 53.8237H66.3302V46.917H67.0766V54.804H66.1152L61.2394 47.8973H61.2168V54.804H60.4701V46.917ZM72.1829 47.5853H69.4449V46.917H75.6672V47.5853H72.9293V54.804H72.1829V47.5853Z" fill="white"/>
<path d="M23.8783 57.8285H19.9773C25.6825 64.1666 34.1672 67.0955 37.8732 68.0562V65.5111C30.0711 63.0143 25.2924 59.3331 23.8783 57.8285Z" fill="white"/>
<path d="M51.7701 57.7825H55.6711C49.9658 64.1206 41.4811 67.0495 37.7751 68.0102V65.4651C45.5772 62.9684 50.3559 59.287 51.7701 57.7825Z" fill="white"/>
<path d="M12.4185 8.5154V23.4967H37.897V20.0395H35.9708V15.862H31.5334V12.1167H35.9708V7.7951H37.775V6.16255C23.7704 6.12414 15.0353 7.71508 12.4185 8.5154Z" fill="white"/>
<path d="M63.1317 8.46807V23.4967H37.7751V20.0395H39.5793V15.8147H44.0168V12.1647H39.6281V7.79517H37.7751V6.16257C51.7798 6.12416 60.5149 7.66781 63.1317 8.46807Z" fill="white"/>
<path d="M6.90724 23.4478V23.4978H6.95724H9.00528H9.05528V23.4478V5.81512C12.6458 4.78884 23.3256 2.75436 37.629 2.75436C51.9338 2.75436 62.5942 4.85911 66.2641 5.91748L66.4093 23.4482L66.4097 23.4978H66.4593H68.4501H68.4998L68.5001 23.448C68.5163 20.567 68.5327 16.1779 68.5059 12.3746C68.4925 10.473 68.4684 8.71757 68.428 7.37012C68.4078 6.69643 68.3836 6.12434 68.3546 5.68681C68.3257 5.25165 68.2919 4.94386 68.2511 4.80316L68.2527 4.80269L68.246 4.79148C68.0436 4.45244 67.6592 4.18703 67.2684 3.99323C66.8771 3.79917 66.4717 3.67321 66.2161 3.61626C62.8282 2.6221 52.376 0.647246 37.6288 0.68566C19.192 0.733689 10.3608 3.23121 8.55122 3.80914C7.81172 4.04532 7.38381 4.58693 7.14987 5.16324C6.91679 5.7374 6.87453 6.34937 6.90724 6.73991V23.4478Z" fill="white" stroke="white" stroke-width="0.1"/>
<path d="M9.05396 23.4947H11.5408C11.5408 22.8224 11.5896 18.6545 11.5896 7.74501C20.952 5.59387 32.9477 5.1201 37.7752 5.15211V2.75126C23.3805 2.71284 12.5974 4.78398 9.05396 5.82435V23.4947Z" fill="white"/>
<path d="M66.399 23.4969H63.9607V7.74785C54.5983 5.59665 42.6026 5.12289 37.7751 5.15489V2.75404C52.1699 2.71563 62.8555 4.88227 66.399 5.92264V23.4969Z" fill="white"/>
<path d="M37.7268 70.2169C25.7507 66.6445 19.0182 60.5014 17.1489 57.8765H19.9772C23.5856 61.6698 28.3156 65.3192 37.7268 68.0082C47.8694 65.0122 53.9648 59.9573 55.6715 57.8285H58.4022C56.0941 60.6455 48.7277 67.1057 37.7268 70.2169Z" fill="white" stroke="white" stroke-width="0.1"/>
<path d="M37.7752 57.8773V64.5518C31.8066 62.8615 26.8036 59.3978 25.0481 57.8773H37.7752Z" fill="white"/>
<path d="M37.7751 57.8773V64.5518C43.7437 62.8615 48.7468 59.3978 50.5022 57.8773H37.7751Z" fill="white"/>
</g>
<defs>
<clipPath id="clip0_6_6743">
<rect width="76" height="71" fill="white"/>
</clipPath>
</defs>
</svg>
