<?xml version="1.0" standalone="no"?>
<!DOCTYPE svg PUBLIC "-//W3C//DTD SVG 20010904//EN"
 "http://www.w3.org/TR/2001/REC-SVG-20010904/DTD/svg10.dtd">
<svg version="1.0" xmlns="http://www.w3.org/2000/svg"
 width="700.000000pt" height="700.000000pt" viewBox="0 0 700.000000 700.000000"
 preserveAspectRatio="xMidYMid meet">
<metadata>
Created by potrace 1.14, written by Peter Selinger 2001-2017
</metadata>
<g transform="translate(0.000000,700.000000) scale(0.100000,-0.100000)"
fill="#000000" stroke="none">
<path d="M3278 6995 c-1 -1 -42 -5 -89 -9 -47 -4 -95 -8 -105 -10 -10 -2 -48
-7 -84 -12 -36 -4 -67 -8 -70 -9 -3 -1 -25 -5 -50 -9 -25 -4 -101 -21 -170
-38 -69 -16 -135 -31 -147 -34 -40 -8 -264 -84 -367 -126 -122 -48 -348 -158
-434 -210 -34 -21 -67 -38 -72 -38 -6 0 -10 -4 -10 -10 0 -5 -5 -10 -11 -10
-14 0 -210 -134 -319 -219 -484 -376 -872 -891 -1100 -1462 -66 -165 -142
-408 -165 -530 -3 -13 -12 -58 -20 -99 -8 -41 -17 -89 -19 -105 -3 -17 -7 -46
-11 -66 -6 -40 -10 -74 -22 -199 -15 -162 -8 -591 12 -711 2 -13 6 -46 9 -74
47 -408 239 -953 466 -1318 30 -48 60 -95 65 -105 24 -42 133 -191 208 -285
222 -276 490 -521 777 -711 177 -117 208 -135 360 -213 344 -176 730 -298
1099 -349 25 -3 57 -8 71 -10 163 -25 682 -25 842 1 13 2 46 7 73 10 71 10 87
13 115 18 14 3 43 8 65 12 325 59 741 212 1039 384 49 28 91 51 93 51 10 0
268 180 353 247 152 119 324 280 450 422 36 41 70 79 76 85 29 30 185 242 240
326 120 184 241 412 315 597 66 163 147 422 175 558 16 75 54 300 60 350 4 33
9 76 11 95 8 71 10 517 3 595 -17 172 -22 220 -25 225 -2 3 -6 30 -10 60 -3
30 -10 71 -15 90 -5 19 -12 51 -15 70 -3 19 -19 87 -35 150 -191 762 -663
1464 -1306 1942 -443 329 -997 563 -1524 643 -25 4 -54 9 -65 11 -10 2 -49 6
-85 10 -36 3 -78 8 -95 11 -33 5 -531 13 -537 8z m502 -409 c36 -4 79 -9 95
-11 17 -3 48 -7 70 -10 176 -23 499 -104 602 -151 17 -8 35 -14 40 -14 5 0 46
-16 92 -35 432 -183 794 -436 1106 -776 91 -100 113 -126 204 -248 236 -317
405 -670 506 -1056 40 -156 60 -252 70 -350 3 -27 8 -60 10 -71 18 -86 25
-443 12 -605 -46 -575 -248 -1122 -586 -1584 -78 -106 -83 -112 -186 -229
-388 -440 -896 -761 -1458 -921 -132 -38 -332 -81 -418 -90 -30 -3 -64 -8 -77
-11 -81 -17 -398 -23 -587 -12 -167 11 -359 41 -530 84 -1024 259 -1850 1024
-2180 2019 -66 199 -115 405 -130 550 -4 33 -8 67 -10 75 -18 66 -25 454 -12
615 36 433 171 875 380 1250 51 90 174 286 186 295 4 3 23 28 43 57 41 58 55
74 149 182 362 415 829 725 1354 900 168 56 261 79 440 110 128 23 180 29 290
37 44 3 81 7 82 8 5 5 380 -2 443 -8z"/>
<path d="M2575 5442 c-112 -33 -215 -112 -270 -207 -80 -135 -83 -301 -10
-445 125 -244 458 -318 679 -150 289 218 221 666 -119 792 -74 27 -206 32
-280 10z"/>
<path d="M4195 4989 c-60 -16 -126 -31 -145 -34 -19 -3 -71 -12 -115 -20 -84
-15 -117 -20 -200 -30 -78 -10 -167 -24 -170 -27 -1 -2 -16 -55 -33 -118 -32
-122 -103 -366 -149 -515 l-29 -90 -201 0 -202 0 -31 -64 c-18 -35 -38 -78
-46 -97 -14 -34 -14 -34 13 -35 16 0 44 -2 63 -4 65 -6 175 -15 250 -21 41 -3
76 -7 78 -9 2 -2 -36 -133 -83 -292 -48 -158 -88 -295 -91 -303 -11 -42 -136
-458 -159 -532 -78 -245 -204 -680 -211 -728 -3 -19 -7 -42 -10 -50 -4 -8 -8
-54 -9 -101 -6 -127 20 -211 85 -276 140 -142 513 -157 820 -34 96 39 240 116
278 151 9 8 37 31 62 51 107 87 219 217 289 337 l40 70 -23 58 c-13 33 -34 84
-48 114 l-25 55 -30 -65 c-17 -36 -58 -105 -90 -155 -157 -238 -368 -407 -525
-421 -105 -9 -152 26 -149 113 1 65 87 407 182 728 12 39 27 90 34 115 38 131
58 196 91 305 20 66 40 134 44 150 18 65 153 505 191 623 l31 92 69 2 c38 1
81 2 97 3 58 4 231 15 327 21 77 4 103 9 113 22 22 28 91 172 84 175 -4 2
-145 3 -314 2 -170 0 -308 3 -308 7 0 18 251 758 285 841 9 22 5 22 -130 -14z"/>
</g>
</svg>
