<?xml version="1.0" standalone="no"?>
<!DOCTYPE svg PUBLIC "-//W3C//DTD SVG 20010904//EN"
 "http://www.w3.org/TR/2001/REC-SVG-20010904/DTD/svg10.dtd">
<svg version="1.0" xmlns="http://www.w3.org/2000/svg"
 width="512.000000pt" height="512.000000pt" viewBox="0 0 512.000000 512.000000"
 preserveAspectRatio="xMidYMid meet">
<metadata>
Created by potrace 1.14, written by Peter Selinger 2001-2017
</metadata>
<g transform="translate(0.000000,512.000000) scale(0.100000,-0.100000)"
fill="#000000" stroke="none">
<path d="M2369 5116 c-2 -2 -33 -6 -69 -10 -180 -17 -406 -67 -589 -131 -711
-248 -1285 -811 -1550 -1522 -38 -102 -93 -287 -105 -350 -2 -15 -9 -53 -15
-83 -29 -159 -36 -244 -35 -470 0 -179 7 -295 20 -365 2 -11 9 -49 15 -85 29
-169 104 -411 180 -581 292 -651 834 -1147 1506 -1380 104 -36 261 -78 348
-93 17 -3 53 -10 80 -15 28 -5 57 -9 65 -9 8 -1 44 -4 80 -9 87 -10 426 -10
520 0 148 17 193 24 300 49 653 148 1220 542 1586 1103 60 92 70 108 133 230
125 238 217 528 256 805 4 25 8 59 11 75 9 58 12 461 4 530 -16 136 -20 161
-41 265 -115 574 -441 1110 -901 1480 -246 199 -579 377 -848 456 -142 41
-300 76 -415 90 -22 3 -51 8 -65 11 -28 5 -466 14 -471 9z m311 -310 c146 -6
187 -11 340 -42 297 -60 596 -190 846 -370 124 -90 160 -120 280 -239 366
-363 577 -792 651 -1322 10 -74 10 -469 0 -548 -10 -76 -34 -202 -54 -280 -8
-33 -16 -67 -18 -75 -15 -68 -110 -303 -163 -405 -114 -219 -230 -374 -422
-565 -375 -375 -851 -595 -1395 -646 -104 -9 -365 -4 -465 11 -403 57 -714
180 -1050 416 -161 113 -375 330 -506 514 -166 233 -306 542 -360 800 -24 110
-39 211 -50 320 -5 53 -5 332 1 370 2 17 6 56 10 87 38 382 215 805 473 1133
150 190 445 444 637 548 235 128 505 228 705 261 19 3 46 8 60 10 48 9 116 16
220 22 58 4 106 8 108 9 2 2 11 1 20 -1 9 -2 69 -5 132 -8z"/>
<path d="M1865 3857 c-141 -47 -231 -160 -239 -300 -13 -227 198 -399 419
-342 248 65 332 375 151 557 -58 58 -133 90 -220 95 -41 1 -88 -3 -111 -10z"/>
<path d="M3105 3539 c-68 -21 -216 -50 -396 -75 l-117 -17 -26 -101 c-15 -56
-50 -175 -77 -266 l-50 -165 -149 1 -149 1 -30 -66 c-16 -36 -26 -69 -23 -72
4 -4 49 -10 100 -13 114 -8 185 -16 191 -22 2 -2 -31 -122 -74 -266 -84 -284
-81 -273 -184 -613 -148 -489 -163 -558 -147 -668 19 -129 129 -197 324 -202
200 -5 361 46 538 171 81 57 195 181 246 266 l41 69 -23 57 c-12 31 -29 68
-37 80 -14 23 -15 23 -42 -35 -80 -167 -243 -337 -377 -392 -68 -27 -153 -15
-168 24 -15 39 2 132 59 330 8 28 48 167 89 310 41 143 95 328 121 410 25 83
67 218 92 300 25 83 49 153 52 157 7 8 34 10 271 23 105 6 174 13 175 18 0 1
15 30 33 64 17 34 29 64 24 66 -4 2 -105 4 -225 3 -121 -1 -221 2 -223 5 -3 5
144 452 190 578 22 59 24 56 -29 40z"/>
</g>
</svg>
