<svg width="56" height="56" viewBox="0 0 56 56" fill="none" xmlns="http://www.w3.org/2000/svg">
<g clip-path="url(#clip0_6_6978)">
<path d="M42.671 14.3395L45.1677 10.5042C45.4554 10.0622 45.3307 9.47078 44.8886 9.18271L40.772 6.50068C40.3282 6.21184 39.737 6.33945 39.4502 6.77958L36.7808 10.8773C35.0488 10.1732 33.2537 9.6853 31.4118 9.41672V5.34878H31.7828C32.3104 5.34878 32.7379 4.92107 32.7379 4.39364V0.955139C32.7379 0.427711 32.3104 0 31.7828 0H24.2171C23.6895 0 23.262 0.427711 23.262 0.955139V4.39364C23.262 4.92107 23.6895 5.34878 24.2171 5.34878H24.5881V9.41691C22.7456 9.68549 20.9504 10.1734 19.2189 10.8773L16.5496 6.77977C16.2627 6.33907 15.6709 6.21203 15.2279 6.50087L11.1113 9.1829C10.6694 9.47078 10.5445 10.0624 10.8322 10.5044L13.3291 14.3397C8.0021 18.6258 4.58557 25.2002 4.58557 32.5838C4.58557 45.4956 15.089 56 27.9999 56C40.9107 56 51.4141 45.4956 51.4141 32.5838C51.4145 25.3456 48.1132 18.7179 42.671 14.3395ZM40.5296 8.62281L43.046 10.2622L41.1336 13.1996C40.321 12.6481 39.404 12.1112 38.5413 11.675L40.5296 8.62281ZM25.1724 1.91028H30.8278V3.4385C28.6984 3.4385 27.1194 3.4385 25.1724 3.4385V1.91028ZM29.5017 5.34878V9.16934H26.4986V5.34878H29.5017ZM12.9543 10.2622L15.4705 8.62281L17.4587 11.675C16.546 12.1366 15.6163 12.6909 14.8667 13.1996L12.9543 10.2622ZM28.0002 54.0895C16.1429 54.0895 6.49623 44.4421 6.49623 32.5836C6.49604 20.6606 16.1745 11.0796 28.0002 11.0796C36.6912 11.0796 44.1887 16.2473 47.5712 23.6617C47.5712 23.6617 49.5042 27.3949 49.5042 32.5836C49.5042 44.4421 39.8573 54.0895 28.0002 54.0895Z" fill="#014898"/>
<path d="M28.9553 29.8185V24.7704C28.9553 24.243 28.5278 23.8153 28.0002 23.8153C27.4726 23.8153 27.0451 24.243 27.0451 24.7704V29.8185C25.8981 30.2159 25.0712 31.3042 25.0712 32.5846C25.0712 34.1998 26.3851 35.5137 28.0002 35.5137C29.6153 35.5137 30.9292 34.1998 30.9292 32.5846C30.9292 31.3042 30.1021 30.2159 28.9553 29.8185ZM28.0002 33.6034C27.4386 33.6034 26.9814 33.1463 26.9814 32.5846C26.9814 32.0228 27.4386 31.5659 28.0002 31.5659C28.5618 31.5659 29.0189 32.023 29.0189 32.5846C29.0189 33.1463 28.5618 33.6034 28.0002 33.6034Z" fill="#014898"/>
<path d="M41.2584 19.4675C41.2374 19.4415 41.219 19.4138 41.1948 19.3895C41.1705 19.3653 41.143 19.3471 41.117 19.3259C37.744 15.9883 33.1088 13.9238 28.0001 13.9238C22.8914 13.9238 18.2561 15.9885 14.8832 19.3261C14.8572 19.3471 14.8297 19.3654 14.8054 19.3897C14.7812 19.414 14.7628 19.4415 14.7418 19.4676C7.54292 26.7439 7.53681 38.4167 14.7407 45.7C14.7621 45.7267 14.781 45.7548 14.8056 45.7796C14.8303 45.8043 14.8583 45.823 14.8851 45.8446C22.1587 53.0408 33.8303 53.0526 41.1157 45.8446C41.1422 45.8232 41.1703 45.8045 41.1952 45.7796C41.22 45.7548 41.2387 45.7267 41.2601 45.7C44.5943 42.3289 46.6572 37.6978 46.6599 32.5934C46.6599 32.5905 46.6607 32.5876 46.6607 32.5848C46.6607 32.5817 46.6597 32.579 46.6597 32.5762C46.6574 27.4708 44.5939 22.8387 41.2584 19.4675ZM43.8556 33.5397H44.7217C44.5013 37.4399 42.9406 40.9869 40.4941 43.7274L39.887 43.1203C39.5143 42.7474 38.9091 42.7474 38.5364 43.1203C38.1634 43.4934 38.1634 44.0982 38.5364 44.4711L39.1435 45.0782C36.403 47.5254 32.8558 49.0865 28.9556 49.307V48.4397C28.9556 47.9123 28.5281 47.4846 28.0005 47.4846C27.4729 47.4846 27.0453 47.9123 27.0453 48.4397V49.307C23.1451 49.0865 19.5979 47.5254 16.8574 45.0782L17.4645 44.4711C17.8376 44.098 17.8376 43.4932 17.4645 43.1203C17.0918 42.7474 16.4867 42.7474 16.114 43.1203L15.5069 43.7274C13.0604 40.9867 11.4997 37.4397 11.2792 33.5397H12.1454C12.673 33.5397 13.1005 33.112 13.1005 32.5846C13.1005 32.0571 12.673 31.6294 12.1454 31.6294H11.2792C11.4995 27.7292 13.0602 24.182 15.5069 21.4413L16.114 22.0484C16.4868 22.4215 17.0918 22.4213 17.4645 22.0484C17.8376 21.6754 17.8376 21.0706 17.4645 20.6977L16.8574 20.0906C19.5979 17.6435 23.1451 16.0826 27.0455 15.8622V16.7293C27.0455 17.2567 27.473 17.6844 28.0007 17.6844C28.5283 17.6844 28.9558 17.2567 28.9558 16.7293V15.8622C32.856 16.0826 36.4032 17.6435 39.1439 20.0906L38.5368 20.6977C38.1637 21.0708 38.1637 21.6755 38.5368 22.0484C38.9097 22.4215 39.5147 22.4213 39.8874 22.0484L40.4947 21.4413C42.9413 24.182 44.5022 27.7292 44.7223 31.6294H43.8562C43.3286 31.6294 42.901 32.0571 42.901 32.5846C42.901 33.112 43.3278 33.5397 43.8556 33.5397Z" fill="#014898"/>
</g>
<defs>
<clipPath id="clip0_6_6978">
<rect width="56" height="56" fill="white"/>
</clipPath>
</defs>
</svg>
