<svg width="117" height="35" viewBox="0 0 117 35" fill="none" xmlns="http://www.w3.org/2000/svg">
<g clip-path="url(#clip0_6_7064)">
<path d="M43.9501 15.15V21.7H41.7001V15.15H40.2001V13.3H41.7001V12.5C41.7001 10.65 42.8501 9.20001 45.1501 9.20001C45.8501 9.20001 46.3501 9.35001 46.7501 9.50001L46.5001 11.35C46.1501 11.2 45.7501 11.15 45.4001 11.15C44.5001 11.15 43.8501 11.55 43.8501 12.65V13.35H46.2501V15.2H43.9501V15.15Z" fill="#606060"/>
<path d="M47.7001 18.6V13.3H49.9501V18.05C49.9501 19.2 50.7001 19.85 51.7001 19.85C52.7001 19.85 53.6001 19.25 53.6001 18.05V13.3H55.8501V21.7H53.7001L53.6501 20.75C53.2001 21.35 52.3001 21.9 51.0501 21.9C49.1001 21.9 47.7001 20.65 47.7001 18.6Z" fill="#606060"/>
<path d="M65.5 16.4V21.7H63.25V17C63.25 15.85 62.5 15.2 61.5 15.2C60.5 15.2 59.65 15.85 59.65 17V21.7H57.4V13.3H59.55L59.6 14.25C60.05 13.65 60.95 13.1 62.2 13.1C64.15 13.1 65.5 14.4 65.5 16.4Z" fill="#606060"/>
<path d="M71.2501 13.1C72.3001 13.1 73.2001 13.35 73.9001 13.65L73.7001 15.6C73.1001 15.35 72.3001 15.15 71.5001 15.15C69.9501 15.15 68.8001 15.95 68.8001 17.45C68.8001 18.9 69.9001 19.8 71.4501 19.8C72.3001 19.8 73.0501 19.6 73.7501 19.25L74.0001 21.25C73.1001 21.65 72.3001 21.85 71.2501 21.85C68.5001 21.85 66.5001 20.05 66.5001 17.45C66.5501 14.75 68.5501 13.1 71.2501 13.1Z" fill="#606060"/>
<path d="M78.6501 15.15V18.6C78.6501 19.5 79.1501 19.85 79.9001 19.85C80.3001 19.85 80.8501 19.8 81.3501 19.65L81.5501 21.5C81.0501 21.7 80.2001 21.85 79.5001 21.85C77.6501 21.85 76.4001 20.9 76.4001 18.9V15.1H75.0001V13.25H76.4501V10.55H78.6501V13.25H81.1001V15.1H78.6501V15.15Z" fill="#606060"/>
<path d="M82.8 10.6C82.8 9.84999 83.35 9.29999 84.1 9.29999C84.85 9.29999 85.4 9.84999 85.4 10.6C85.4 11.35 84.85 11.9 84.1 11.9C83.3 11.85 82.8 11.35 82.8 10.6ZM82.95 21.7V13.3H85.2V21.7H82.95Z" fill="#606060"/>
<path d="M90.8 13.1C93.4 13.1 95.3 15 95.3 17.5C95.3 20 93.4 21.9 90.8 21.9C88.2 21.9 86.3 20 86.3 17.5C86.3 15 88.25 13.1 90.8 13.1ZM90.8 19.85C92.1 19.85 93.05 18.85 93.05 17.5C93.05 16.15 92.1 15.15 90.8 15.15C89.5 15.15 88.55 16.15 88.55 17.5C88.55 18.85 89.5 19.85 90.8 19.85Z" fill="#606060"/>
<path d="M104.5 16.4V21.7H102.25V17C102.25 15.85 101.5 15.2 100.5 15.2C99.5 15.2 98.65 15.85 98.65 17V21.7H96.4V13.3H98.55L98.6 14.25C99.05 13.65 99.95 13.1 101.2 13.1C103.15 13.1 104.5 14.4 104.5 16.4Z" fill="#606060"/>
<path d="M111.05 20.6C110.55 21.35 109.5 21.9 108.35 21.9C106.75 21.9 105.55 20.95 105.55 19.4C105.55 17.65 107.05 16.8 109.35 16.8C110 16.8 110.6 16.9 111 17V16.6C111 15.5 110.3 15.1 109 15.1C108 15.1 106.85 15.4 106.25 15.75L106.05 13.85C106.65 13.5 107.95 13.1 109.3 13.1C111.85 13.1 113.25 14.15 113.25 16.4V21.65H111.1L111.05 20.6ZM110.95 18.65V18.3C110.6 18.2 110.1 18.1 109.5 18.1C108.5 18.1 107.8 18.45 107.8 19.15C107.8 19.8 108.35 20.15 109.1 20.15C110 20.15 110.9 19.6 110.95 18.65Z" fill="#606060"/>
<path d="M117 21.7H114.75V9.35004H117V21.7Z" fill="#606060"/>
<path d="M51.5501 27.9H50.3501V26.85H52.8501V29.4C52.2501 29.7 51.4501 29.95 50.7501 29.95C50.1501 29.95 49.6001 29.85 49.1501 29.6C48.2501 29.15 47.7001 28.3 47.7001 27.25C47.7001 25.45 49.2001 24.55 50.8001 24.55C51.4001 24.55 52.0001 24.65 52.5501 24.9L52.5001 26C52.0501 25.8 51.5001 25.65 50.9501 25.65C49.9501 25.65 49.0501 26.1 49.0501 27.2C49.0501 28.2 49.7501 28.75 50.7501 28.75C51.0001 28.75 51.4001 28.7 51.6001 28.6V27.9H51.5501Z" fill="#7B7B7A"/>
<path d="M53.6001 24.65H54.8501V27.95C54.8501 28.6 55.3001 28.9 55.9001 28.9C56.5001 28.9 56.9501 28.6 56.9501 27.95V24.65H58.2001V28C58.2001 29.4 57.1001 29.95 55.9001 29.95C54.6001 29.95 53.6001 29.3 53.6001 28V24.65Z" fill="#7B7B7A"/>
<path d="M60.3001 25.7H58.7501V24.6H63.1001V25.7H61.5501V29.85H60.3001V25.7Z" fill="#7B7B7A"/>
<path d="M68.3001 24.55C68.8501 24.55 69.4501 24.65 69.9501 24.9L69.8501 26C69.4501 25.8 68.9501 25.7 68.4501 25.7C67.4501 25.7 66.5501 26.15 66.5501 27.25C66.5501 28.25 67.3001 28.85 68.3501 28.85C68.9001 28.85 69.4501 28.75 69.9001 28.45L70.0501 29.5C69.4501 29.8 68.8501 29.95 68.1501 29.95C66.6001 29.95 65.2501 28.9 65.2501 27.25C65.2501 25.45 66.7001 24.55 68.3001 24.55Z" fill="#7B7B7A"/>
<path d="M74.6501 29.85H70.7501V24.65H72.0001V28.8H74.6501V29.85Z" fill="#7B7B7A"/>
<path d="M76.5001 29.85H75.2501V24.65H76.5001V29.85Z" fill="#7B7B7A"/>
<path d="M78.7001 29.85H77.4501V24.65H78.5501L81.2501 27.85V24.65H82.5001V29.9H81.4001L78.7501 26.75V29.85H78.7001Z" fill="#7B7B7A"/>
<path d="M84.7001 29.85H83.4501V24.65H84.7001V29.85Z" fill="#7B7B7A"/>
<path d="M88.45 24.55C89 24.55 89.6 24.65 90.1 24.9L90 26C89.6 25.8 89.1 25.7 88.6 25.7C87.6 25.7 86.7 26.15 86.7 27.25C86.7 28.25 87.45 28.85 88.5 28.85C89.05 28.85 89.6 28.75 90.05 28.45L90.2 29.5C89.6 29.8 89 29.95 88.3 29.95C86.75 29.95 85.4 28.9 85.4 27.25C85.45 25.45 86.9 24.55 88.45 24.55Z" fill="#7B7B7A"/>
<path d="M25.95 22.4H22.85V20.7H30.55C31.3 20.7 31.9 20.1 31.9 19.35V15.3C31.9 14.55 31.3 13.95 30.55 13.95H27.4V12.1H32.6C33.35 12.1 33.95 11.5 33.95 10.75V6.30002C33.95 5.55002 33.35 4.95002 32.6 4.95002H22.85V3.60002H26.2C26.95 3.60002 27.55 3.00002 27.55 2.25002C27.55 1.50002 26.95 0.900024 26.2 0.900024H21.5C20.75 0.900024 20.15 1.50002 20.15 2.25002V6.25002C20.15 7.00002 20.75 7.60002 21.5 7.60002H31.25V9.35003H26.05C25.3 9.35003 24.7 9.95002 24.7 10.7V15.25C24.7 16 25.3 16.6 26.05 16.6H29.2V18H21.5C20.75 18 20.15 18.6 20.15 19.35V23.75C20.15 24.5 20.75 25.1 21.5 25.1H24.6V26.8H21.5C20.75 26.8 20.15 27.4 20.15 28.15V32.65C20.15 33.4 20.75 34 21.5 34H25.85C26.6 34 27.2 33.4 27.2 32.65C27.2 31.9 26.6 31.3 25.85 31.3H22.85V29.5H25.95C26.7 29.5 27.3 28.9 27.3 28.15V23.75C27.3 23 26.7 22.4 25.95 22.4Z" fill="#606060"/>
<path d="M34.85 14.05C34.1 14.05 33.5 14.65 33.5 15.4V22.4H30.25C29.5 22.4 28.9 23 28.9 23.75V29.25C28.9 30 29.5 30.6 30.25 30.6C31 30.6 31.6 30 31.6 29.25V25.1H34.85C35.6 25.1 36.2 24.5 36.2 23.75V15.4C36.25 14.65 35.6 14.05 34.85 14.05Z" fill="#606060"/>
<path d="M21.5 16.9C22.25 16.9 22.85 16.3 22.85 15.55V10.1C22.85 9.35 22.25 8.75 21.5 8.75C20.75 8.75 20.15 9.35 20.15 10.1V15.55C20.1 16.3 20.7 16.9 21.5 16.9Z" fill="#606060"/>
<path d="M18.25 17.45C18.25 17.45 19.95 10.75 18 5.35001C18 5.35001 19.7 0.200012 13.7 0.200012C7.65004 0.200012 8.05004 4.10001 8.05004 4.10001C8.05004 4.10001 3.90004 3.80001 3.90004 8.45001C3.90004 8.45001 -0.149962 8.65001 3.77954e-05 16.35C0.150038 24.05 2.90004 21.7 2.85004 22.95C2.80004 24.2 2.20004 30.45 5.05004 30.45C7.90004 30.45 8.05004 30.5 8.05004 31.35C8.05004 32.2 8.70004 34.8 13.5 34.8C18.3 34.8 18.25 34.3 18.25 25.65C18.25 25.6 19.85 21.65 18.25 17.45ZM10.65 2.70001H15.2C15.6 2.70001 15.95 3.05001 15.95 3.45001C15.95 3.85001 15.6 4.20001 15.2 4.20001H10.65C10.25 4.20001 9.90004 3.85001 9.90004 3.45001C9.95004 3.05001 10.25 2.70001 10.65 2.70001ZM6.30004 6.70001C6.30004 6.30001 6.65004 5.95001 7.05004 5.95001C7.45004 5.95001 7.80004 6.30001 7.80004 6.70001V14.85H15V12.6H12.25C11.85 12.6 11.5 12.25 11.5 11.85C11.5 11.45 11.85 11.1 12.25 11.1H15V8.50001H10.65C10.25 8.50001 9.90004 8.15001 9.90004 7.75001C9.90004 7.35001 10.25 7.00001 10.65 7.00001H15.7C16.1 7.00001 16.45 7.35001 16.45 7.75001V15.6C16.45 16 16.1 16.35 15.7 16.35H7.00004C6.60004 16.35 6.25004 16 6.25004 15.6V6.70001H6.30004ZM3.30004 20.55C2.90004 20.55 2.55004 20.2 2.55004 19.8V11.9C2.55004 11.5 2.90004 11.15 3.30004 11.15C3.70004 11.15 4.00004 11.5 4.00004 11.9V19.1H7.70004C8.10004 19.1 8.45004 19.45 8.45004 19.85C8.45004 20.25 8.10004 20.6 7.70004 20.6H3.30004V20.55ZM15.55 32.4H10.95C10.55 32.4 10.2 32.05 10.2 31.65C10.2 31.25 10.55 30.9 10.95 30.9H15.55C15.95 30.9 16.3 31.25 16.3 31.65C16.25 32.05 15.95 32.4 15.55 32.4ZM16.65 23.95C16.65 24.35 16.3 24.7 15.9 24.7H6.75004V26.75H14.75C15.15 26.75 15.5 27.1 15.5 27.5C15.5 27.9 15.15 28.25 14.75 28.25H6.05004C5.65004 28.25 5.30004 27.9 5.30004 27.5V23.95C5.30004 23.55 5.65004 23.2 6.05004 23.2H15.2V20.55H11.5C11.1 20.55 10.75 20.2 10.75 19.8C10.75 19.4 11.1 19.05 11.5 19.05H15.95C16.35 19.05 16.7 19.4 16.7 19.8V23.95H16.65Z" fill="#7B7B7A"/>
</g>
<defs>
<clipPath id="clip0_6_7064">
<rect width="117" height="35" fill="white"/>
</clipPath>
</defs>
</svg>
