<svg width="69" height="49" viewBox="0 0 69 49" fill="none" xmlns="http://www.w3.org/2000/svg">
<g clip-path="url(#clip0_6_7092)">
<path d="M25.8331 37.0667H27.2295V33.72H27.2429L29.1361 37.0667H30.2102L32.1034 33.72H32.1168V37.0667H33.5132V32.4H31.2978L29.6732 35.4L28.0485 32.4H25.8331V37.0667ZM34.4934 37.0667H39.7164V35.9467H35.93V35.2H39.4344V34.2267H34.4934V33.48H39.6358V32.4H34.4934V37.0667ZM40.6428 37.0667H44.9797C45.6913 37.0667 46.2015 36.9467 46.4835 36.6933C46.7788 36.44 46.9265 36.0267 46.9265 35.44V34.0267C46.9265 33.44 46.7788 33.0267 46.4835 32.7733C46.1881 32.52 45.6913 32.4 44.9797 32.4H40.6294V37.0667H40.6428ZM42.0795 33.56H44.6306C44.9528 33.56 45.1676 33.6133 45.3019 33.7333C45.4362 33.8533 45.4899 34.0667 45.4899 34.4V35.0267C45.4899 35.3467 45.4227 35.5733 45.3019 35.6933C45.1676 35.8133 44.9528 35.8667 44.6306 35.8667H42.0795V33.56ZM47.8798 37.0667H49.3165V32.4H47.8798V37.0667ZM50.2698 35.4267C50.2698 35.76 50.3101 36.04 50.4041 36.2667C50.498 36.4933 50.6323 36.6533 50.8069 36.7867C50.9814 36.9067 51.1962 37 51.4379 37.0533C51.693 37.1067 51.9884 37.1333 52.3241 37.1333H54.6469C54.996 37.1333 55.2914 37.0933 55.5196 37.0267C55.7479 36.96 55.9224 36.8533 56.0567 36.7333C56.1776 36.6133 56.2715 36.4667 56.3118 36.2933C56.3655 36.1333 56.379 35.9333 56.379 35.72V35.28H54.9423C54.9423 35.4267 54.9289 35.5467 54.902 35.6267C54.8752 35.7067 54.8349 35.7733 54.7677 35.8133C54.7006 35.8533 54.6201 35.88 54.5261 35.8933C54.4187 35.9067 54.2844 35.9067 54.1098 35.9067H52.5658C52.2435 35.9067 52.0153 35.84 51.9079 35.7067C51.8004 35.5733 51.7467 35.3333 51.7467 34.9733V34.4667C51.7467 34.1467 51.8139 33.92 51.9347 33.76C52.0555 33.6133 52.2972 33.5333 52.6463 33.5333H54.2172C54.4455 33.5333 54.6066 33.56 54.7275 33.6267C54.8349 33.6933 54.902 33.8 54.902 33.96V34.0933H56.3387C56.3387 33.7333 56.3118 33.44 56.2581 33.2267C56.2044 33.0133 56.097 32.84 55.9359 32.7067C55.7748 32.5733 55.5465 32.48 55.2511 32.4133C54.9557 32.36 54.5529 32.32 54.0427 32.32H52.3509C52.0018 32.32 51.7064 32.3467 51.4648 32.4C51.2097 32.4533 51.0083 32.5333 50.8337 32.6667C50.6592 32.7867 50.5249 32.96 50.4309 33.1867C50.3369 33.4133 50.2966 33.68 50.2966 34.0267V35.4267H50.2698ZM56.8086 37.0667H58.4198L58.836 36.24H61.7631L62.2062 37.0667H63.8039L61.226 32.4H59.3463L56.8086 37.0667ZM60.2861 33.48L61.7631 36.24H58.836L60.2861 33.48ZM64.3142 37.0667H69.0001V35.8667H65.7642V32.4H64.3142V37.0667Z" fill="#616666"/>
<path d="M5.34388 19C5.34388 19 3.96092 34.0667 14.4472 45.0267C14.4472 45.0267 -3.20896 31.0533 5.34388 19Z" fill="#737474"/>
<path d="M2.02752 19.5467C2.02752 19.5467 -3.77283 29.1334 4.22951 39.5467C4.22951 39.5467 0.0940747 32.4267 2.02752 19.5467Z" fill="#737474"/>
<path d="M15.2797 11.88C15.2797 11.88 17.2131 11.0533 19.6971 11.3333C19.6971 11.3333 19.979 8.59998 18.5961 8.59998C18.5826 8.58665 18.7438 10.52 15.2797 11.88Z" fill="#616666"/>
<path d="M6.51205 10.7734C6.51205 10.7734 4.33692 5.08002 9.77475 3.37335C9.77475 3.37335 7.96214 7.08002 6.51205 10.7734Z" fill="#737474"/>
<path d="M15.9108 5.78667C15.9108 5.78667 10.9026 3.48 7.86816 0C7.86816 0.0266667 8.7409 7.04 15.9108 5.78667Z" fill="#737474"/>
<path d="M20.0999 36.2667C20.0999 36.2667 20.9324 34.6267 21.4829 33.8C21.7514 33.4 22.7047 33.5333 22.6376 34.2933C22.3556 42.36 20.3819 49.0133 20.3819 49.0133C23.5103 41.8933 24.5845 36.2533 24.6247 31.9067H19.4554C20.0059 34.36 20.0999 36.2667 20.0999 36.2667Z" fill="#616666"/>
<path d="M21.3218 20.4133C21.1606 20.1867 20.6504 19.68 20.6504 19.68V19.6933C17.1326 16.7467 9.50623 20.6133 9.50623 20.6133C12.6212 20.5333 14.6621 22.2933 16.2464 24.36H23.4566C22.7584 22.4267 21.8991 21.1467 21.3218 20.4133Z" fill="#616666"/>
<path d="M11.6948 29.4C12.7555 29.4 13.1583 29.24 13.1583 28.36V27.6C13.1583 26.72 12.7555 26.56 11.6948 26.56H10.6206C9.53305 26.56 9.1571 26.7066 9.1571 27.6266V28.3866C9.1571 29.24 9.57333 29.4133 10.634 29.4133H11.6948V29.4ZM8.05611 30.3733C7.61303 30.04 7.46533 29.5466 7.46533 28.76V27.28C7.46533 26.44 7.61303 25.9066 8.05611 25.5733C8.49919 25.24 9.17053 25.1866 10.1775 25.1866H12.1378C13.1314 25.1866 13.8296 25.24 14.2593 25.5733C14.6755 25.8933 14.85 26.4133 14.85 27.2133V28.7333C14.85 29.5333 14.6889 30.0533 14.2593 30.3733C13.8028 30.7066 13.118 30.76 12.1378 30.76H10.191C9.21081 30.76 8.52604 30.72 8.05611 30.3733Z" fill="#737474"/>
<path d="M17.1057 30.6933L15.3602 25.2667H17.0251L18.153 29.12L19.5494 25.2667H21.08L22.4093 29.12L23.6042 25.2667H25.2692L23.4431 30.6933H21.5634L20.3013 26.96L19.0123 30.6933H17.1057Z" fill="#737474"/>
<path d="M31.1098 29.3733V30.6933H25.8063V25.2667H27.4712V29.3733H31.1098Z" fill="#737474"/>
<path d="M33.3386 28.8933C33.3118 29.4266 33.4997 29.5067 34.1174 29.5067H36.2119C36.6147 29.5067 36.7893 29.3866 36.7893 29.0533C36.7893 28.6533 36.5208 28.6 35.9837 28.5866L33.3655 28.5067C32.0899 28.4667 31.6871 28.1333 31.6871 26.8933C31.6871 26.3066 31.7945 25.9066 32.0765 25.6266C32.4793 25.24 33.0701 25.2133 33.9563 25.2133H36.5073C37.8634 25.2133 38.3736 25.6933 38.2797 26.9733H36.6685C36.6819 26.6 36.4939 26.4133 36.118 26.4133H34.1979C33.6743 26.4133 33.4058 26.4533 33.4058 26.84C33.4058 27.1733 33.6072 27.2666 34.0637 27.2933L36.7893 27.3333C38.038 27.36 38.4945 27.8266 38.4945 29.0933C38.4945 29.7733 38.3736 30.1866 37.8769 30.4933C37.5412 30.7066 36.9773 30.76 36.1851 30.76H33.9697C32.2779 30.76 31.6737 30.5066 31.6737 29.32C31.6737 29.2666 31.6871 29.1066 31.7006 28.8933H33.3386Z" fill="#737474"/>
<path d="M41.3679 30.6933V26.6H39.0853V25.2667H45.3288V26.6H43.0328V30.6933H41.3679Z" fill="#737474"/>
<path d="M50.1758 29.4C51.2365 29.4 51.6393 29.24 51.6393 28.36V27.6C51.6393 26.72 51.2365 26.56 50.1758 26.56H49.1151C48.0276 26.56 47.6516 26.7066 47.6516 27.6266V28.3866C47.6516 29.24 48.0678 29.4133 49.1285 29.4133H50.1758V29.4ZM46.5372 30.3733C46.0941 30.04 45.9464 29.5466 45.9464 28.76V27.28C45.9464 26.44 46.0941 25.9066 46.5372 25.5733C46.9803 25.24 47.6516 25.1866 48.6586 25.1866H50.6189C51.6125 25.1866 52.3107 25.24 52.7403 25.5733C53.1566 25.8933 53.3311 26.4133 53.3311 27.2133V28.7333C53.3311 29.5333 53.17 30.0533 52.7403 30.3733C52.2838 30.7066 51.6125 30.76 50.6189 30.76H48.6586C47.6785 30.76 46.9937 30.72 46.5372 30.3733Z" fill="#737474"/>
<path d="M59.279 30.6933L56.0029 26.7467V30.6933H54.338V25.2667H56.8085L60.0578 29.24V25.2667H61.7227V30.6933H59.279Z" fill="#737474"/>
<path d="M64.4618 26.5867V27.4133H68.5167V28.5467H64.4618V29.3733H68.8255V30.6933H62.7969V25.2667H68.7583V26.5867H64.4618Z" fill="#737474"/>
</g>
<defs>
<clipPath id="clip0_6_7092">
<rect width="69" height="49" fill="white"/>
</clipPath>
</defs>
</svg>
