<svg width="38" height="38" viewBox="0 0 38 38" fill="none" xmlns="http://www.w3.org/2000/svg">
<g clip-path="url(#clip0_2108_7385)">
<path d="M10.3571 4.31639C10.3571 4.79112 10.0118 5.15796 9.53707 5.17954C9.05155 5.19033 8.65234 4.8127 8.65234 4.33797C8.65234 3.86324 9.05155 3.46403 9.52628 3.47482C9.97943 3.47482 10.3463 3.84166 10.3571 4.31639Z" fill="#014898"/>
<path d="M12.9688 5.17954C12.4725 5.19033 12.0949 4.8127 12.1057 4.32718C12.1057 3.86324 12.4725 3.48561 12.9473 3.47482C13.422 3.46403 13.8212 3.86324 13.8212 4.33797C13.8104 4.79112 13.4436 5.16875 12.9688 5.17954Z" fill="#014898"/>
<path d="M6.06165 5.17861C5.57613 5.1894 5.17692 4.79019 5.18771 4.31546C5.1985 3.85152 5.57613 3.47389 6.04007 3.4631C6.5148 3.45232 6.91401 3.85152 6.91401 4.32625C6.90322 4.79019 6.52559 5.16782 6.06165 5.17861Z" fill="#014898"/>
<path d="M19.0108 0C23.8552 0 28.6888 0 33.5332 0C35.54 0 37.1476 1.07893 37.7411 2.86996C37.9029 3.35548 37.9784 3.89495 37.9892 4.41283C38 14.134 38 23.8552 38 33.5764C38 36.155 36.155 37.9784 33.5764 37.9784C23.866 37.9892 14.1556 37.9892 4.4452 37.9784C1.83419 37.9892 0.0107893 36.155 0 33.5548C0 23.8444 0 14.134 0 4.42362C0 1.8234 1.84497 0 4.4452 0C8.68541 0 12.9148 0 17.155 0C17.77 0 18.3958 0 19.0108 0ZM36.2521 6.91596C36.0148 6.91596 35.8421 6.91596 35.6695 6.91596C31.5156 6.91596 27.3617 6.91596 23.2078 6.91596C20.7802 6.91596 18.8489 5.56729 18.0505 3.34469C17.8995 2.9347 17.7484 2.53549 17.6513 2.11471C17.5758 1.80182 17.4248 1.72629 17.1227 1.72629C12.904 1.73708 8.68541 1.72629 4.45599 1.73708C2.76207 1.73708 1.74787 2.76207 1.74787 4.45599C1.74787 14.1556 1.74787 23.8444 1.74787 33.544C1.74787 35.2164 2.78365 36.2413 4.4452 36.2413C14.1556 36.2413 23.866 36.2413 33.5656 36.2413C33.8245 36.2413 34.0835 36.2305 34.3316 36.1766C35.5508 35.8853 36.2629 34.9142 36.2629 33.544C36.2629 24.8154 36.2629 16.0977 36.2629 7.36911C36.2521 7.23964 36.2521 7.11016 36.2521 6.91596ZM36.2845 5.17887C36.2521 4.63941 36.2845 4.15389 36.1874 3.70074C35.9284 2.48154 34.925 1.74787 33.5764 1.74787C28.9801 1.74787 24.3839 1.74787 19.7876 1.74787C19.6581 1.74787 19.5287 1.74787 19.3453 1.74787C19.4316 2.0176 19.4963 2.2226 19.561 2.43839C20.1868 4.32652 21.3736 5.17887 23.3589 5.17887C27.4804 5.17887 31.6019 5.17887 35.7342 5.17887C35.8853 5.17887 36.0471 5.17887 36.2845 5.17887Z" fill="#014898"/>
<path d="M18.9568 31.0733C15.72 31.0733 12.4832 31.0733 9.24645 31.0733C7.72516 31.0733 6.91596 30.2748 6.91596 28.7643C6.91596 27.0812 6.89438 25.3981 6.92675 23.7041C7.04543 18.1369 11.3935 13.163 16.8961 12.2783C23.4776 11.2101 29.498 15.3208 30.8251 21.8268C30.9869 22.636 31.0301 23.4884 31.0517 24.3191C31.084 25.8189 31.0625 27.3078 31.0625 28.8075C31.0625 30.2641 30.2425 31.0733 28.7751 31.0733C25.506 31.0733 22.2368 31.0733 18.9568 31.0733ZM8.67462 25.862C15.5798 25.862 22.4526 25.862 29.3254 25.862C29.6491 21.406 28.268 17.7376 24.3731 15.364C20.845 13.2061 17.1442 13.2061 13.6053 15.364C9.73197 17.7376 8.34015 21.406 8.67462 25.862ZM29.3577 27.6638C22.431 27.6638 15.5474 27.6638 8.64225 27.6638C8.64225 28.0307 8.64225 28.3651 8.64225 28.6996C8.64225 29.3254 8.68541 29.3578 9.31119 29.3578C15.7632 29.3578 22.226 29.3578 28.678 29.3578C28.7751 29.3578 28.8614 29.3578 28.9585 29.3578C29.2175 29.347 29.3577 29.2067 29.3577 28.9478C29.3577 28.527 29.3577 28.117 29.3577 27.6638Z" fill="#014898"/>
<path d="M19.0863 19.8524C19.2805 19.8955 19.5718 19.9279 19.8416 20.025C20.0574 20.1113 20.176 20.0466 20.3271 19.8955C21.0715 19.1403 21.8268 18.385 22.5821 17.6405C23.0136 17.209 23.5315 17.1658 23.8984 17.5111C24.2868 17.8887 24.2544 18.3958 23.8012 18.8597C23.0568 19.6042 22.3231 20.3487 21.5679 21.0823C21.3952 21.255 21.3521 21.3952 21.4276 21.6326C21.9131 23.046 21.1147 24.5349 19.6797 24.9341C18.2879 25.3225 16.8206 24.4702 16.4861 23.0784C16.13 21.6326 17.0363 20.1868 18.4929 19.9063C18.6547 19.8847 18.8166 19.8739 19.0863 19.8524ZM18.9892 23.3049C19.4747 23.3049 19.8739 22.9165 19.8631 22.4418C19.8524 21.9886 19.4639 21.6002 19.0108 21.6002C18.5361 21.6002 18.1369 21.9994 18.1369 22.4742C18.1476 22.9273 18.5253 23.2942 18.9892 23.3049Z" fill="#014898"/>
<path d="M19.0108 0C23.8552 0 28.6888 0 33.5332 0C35.54 0 37.1476 1.07893 37.7411 2.86996C37.9029 3.35548 37.9784 3.89495 37.9892 4.41283C38 14.134 38 23.8552 38 33.5764C38 36.155 36.155 37.9784 33.5764 37.9784C23.866 37.9892 14.1556 37.9892 4.4452 37.9784C1.83419 37.9892 0.0107893 36.155 0 33.5548C0 23.8444 0 14.134 0 4.42362C0 1.8234 1.84497 0 4.4452 0C8.68541 0 12.9148 0 17.155 0C17.77 0 18.3958 0 19.0108 0ZM36.2521 6.91596C36.0148 6.91596 35.8421 6.91596 35.6695 6.91596C31.5156 6.91596 27.3617 6.91596 23.2078 6.91596C20.7802 6.91596 18.8489 5.56729 18.0505 3.34469C17.8995 2.9347 17.7484 2.53549 17.6513 2.11471C17.5758 1.80182 17.4248 1.72629 17.1227 1.72629C12.904 1.73708 8.68541 1.72629 4.45599 1.73708C2.76207 1.73708 1.74787 2.76207 1.74787 4.45599C1.74787 14.1556 1.74787 23.8444 1.74787 33.544C1.74787 35.2164 2.78365 36.2413 4.4452 36.2413C14.1556 36.2413 23.866 36.2413 33.5656 36.2413C33.8245 36.2413 34.0835 36.2305 34.3316 36.1766C35.5508 35.8853 36.2629 34.9142 36.2629 33.544C36.2629 24.8154 36.2629 16.0977 36.2629 7.36911C36.2521 7.23964 36.2521 7.11016 36.2521 6.91596ZM36.2845 5.17887C36.2521 4.63941 36.2845 4.15389 36.1874 3.70074C35.9284 2.48154 34.925 1.74787 33.5764 1.74787C28.9801 1.74787 24.3839 1.74787 19.7876 1.74787C19.6581 1.74787 19.5287 1.74787 19.3453 1.74787C19.4316 2.0176 19.4963 2.2226 19.561 2.43839C20.1868 4.32652 21.3736 5.17887 23.3589 5.17887C27.4804 5.17887 31.6019 5.17887 35.7342 5.17887C35.8853 5.17887 36.0471 5.17887 36.2845 5.17887Z" stroke="white" stroke-width="0.5"/>
<path d="M18.9568 31.0733C15.72 31.0733 12.4832 31.0733 9.24645 31.0733C7.72516 31.0733 6.91596 30.2748 6.91596 28.7643C6.91596 27.0812 6.89438 25.3981 6.92675 23.7041C7.04543 18.1369 11.3935 13.163 16.8961 12.2783C23.4776 11.2101 29.498 15.3208 30.8251 21.8268C30.9869 22.636 31.0301 23.4884 31.0517 24.3191C31.084 25.8189 31.0625 27.3078 31.0625 28.8075C31.0625 30.2641 30.2425 31.0733 28.7751 31.0733C25.506 31.0733 22.2368 31.0733 18.9568 31.0733ZM8.67462 25.862C15.5798 25.862 22.4526 25.862 29.3254 25.862C29.6491 21.406 28.268 17.7376 24.3731 15.364C20.845 13.2061 17.1442 13.2061 13.6053 15.364C9.73197 17.7376 8.34015 21.406 8.67462 25.862ZM29.3577 27.6638C22.431 27.6638 15.5474 27.6638 8.64225 27.6638C8.64225 28.0307 8.64225 28.3651 8.64225 28.6996C8.64225 29.3254 8.68541 29.3578 9.31119 29.3578C15.7632 29.3578 22.226 29.3578 28.678 29.3578C28.7751 29.3578 28.8614 29.3578 28.9585 29.3578C29.2175 29.347 29.3577 29.2067 29.3577 28.9478C29.3577 28.527 29.3577 28.117 29.3577 27.6638Z" stroke="white" stroke-width="0.5"/>
<path d="M19.0863 19.8524C19.2805 19.8955 19.5718 19.9279 19.8416 20.025C20.0574 20.1113 20.176 20.0466 20.3271 19.8955C21.0715 19.1403 21.8268 18.385 22.5821 17.6405C23.0136 17.209 23.5315 17.1658 23.8984 17.5111C24.2868 17.8887 24.2544 18.3958 23.8012 18.8597C23.0568 19.6042 22.3231 20.3487 21.5679 21.0823C21.3952 21.255 21.3521 21.3952 21.4276 21.6326C21.9131 23.046 21.1147 24.5349 19.6797 24.9341C18.2879 25.3225 16.8206 24.4702 16.4861 23.0784C16.13 21.6326 17.0363 20.1868 18.4929 19.9063C18.6547 19.8847 18.8166 19.8739 19.0863 19.8524ZM18.9892 23.3049C19.4747 23.3049 19.8739 22.9165 19.8631 22.4418C19.8524 21.9886 19.4639 21.6002 19.0108 21.6002C18.5361 21.6002 18.1369 21.9994 18.1369 22.4742C18.1476 22.9273 18.5253 23.2942 18.9892 23.3049Z" stroke="white" stroke-width="0.5"/>
</g>
<defs>
<clipPath id="clip0_2108_7385">
<rect width="38" height="38" fill="white"/>
</clipPath>
</defs>
</svg>
