<svg width="38" height="38" viewBox="0 0 38 38" fill="none" xmlns="http://www.w3.org/2000/svg">
<g clip-path="url(#clip0_2108_7364)">
<path d="M24.126 38C23.4531 37.8813 22.7604 37.7823 22.0974 37.6339C17.199 36.5354 13.2307 32.3396 12.3995 27.3917C12.3302 26.9859 12.2708 26.5901 12.251 26.1844C12.2312 25.8875 12.1224 25.7885 11.8354 25.7687C9.94531 25.6302 8.16406 25.0958 6.54115 24.126C2.74115 21.8698 0.573958 18.5448 0.0692708 14.1609C0.059375 14.062 0.0296875 13.9729 0 13.874C0 13.2307 0 12.5875 0 11.9443C0.0692708 11.4792 0.138542 11.024 0.217708 10.5589C1.02917 5.7 5.06667 1.425 9.87604 0.366146C10.5589 0.217708 11.2516 0.11875 11.9443 0C12.5875 0 13.2307 0 13.874 0C14.4578 0.0989583 15.0417 0.178125 15.6156 0.296875C20.6625 1.33594 24.7297 5.53177 25.6005 10.6182C25.6698 10.9943 25.7292 11.3802 25.749 11.7563C25.7589 12.0927 25.8677 12.2115 26.224 12.2411C28.5594 12.4193 30.6771 13.2109 32.5771 14.5766C34.9917 16.3182 36.6344 18.6339 37.4755 21.4937C37.5349 21.7115 37.5448 22.0281 37.426 22.1865C37.2875 22.3745 37.0005 22.513 36.763 22.5427C36.4365 22.5823 36.2187 22.3547 36.1099 22.0479C35.9219 21.5234 35.7734 20.9792 35.5359 20.4844C33.6063 16.3875 30.3406 14.1807 25.8875 13.6562C24.8484 20.7714 20.801 24.8286 13.6958 25.8875C13.7255 26.7781 13.9135 27.6885 14.2005 28.5792C15.8135 33.5073 20.4151 36.7036 25.5906 36.4958C30.3307 36.3078 34.5859 33.0224 35.9911 28.4802C36.0406 28.3318 36.0802 28.1734 36.1396 28.025C36.2979 27.649 36.674 27.4807 37.0599 27.5995C37.4062 27.7083 37.624 28.0745 37.5448 28.4505C37.4755 28.7771 37.3766 29.0938 37.2479 29.4005C35.3875 34.1406 31.9437 36.9609 26.9266 37.8318C26.6396 37.8812 26.3427 37.9208 26.0557 37.9703C25.4125 38 24.7693 38 24.126 38ZM24.3042 12.1125C23.8786 5.91771 18.5349 1.1776 12.3203 1.49427C6.07604 1.82083 1.23698 7.10521 1.50417 13.4188C1.78125 19.8708 7.10521 24.0865 12.1125 24.2745C13.1615 17.2089 17.2089 13.1615 24.3042 12.1125ZM13.7057 24.2745C19.5344 24.0568 24.1953 18.812 24.2547 13.7156C18.8615 13.9828 14.0422 18.5448 13.7057 24.2745Z" fill="#014898"/>
<path d="M38 25.314C37.9604 25.3734 37.9208 25.4327 37.8714 25.4921C37.6536 25.7791 37.3865 25.9077 37.0302 25.789C36.7036 25.6801 36.5156 25.4426 36.5156 25.0963C36.5156 24.7499 36.7036 24.5124 37.0302 24.3937C37.3766 24.2749 37.6536 24.4036 37.8714 24.6906C37.9109 24.7499 37.9505 24.8093 38 24.8687C38 25.0171 38 25.1656 38 25.314Z" fill="#014898"/>
<path d="M26.1444 25.3138C26.2829 25.4622 26.3621 25.5513 26.4413 25.6305C27.6387 26.8279 28.8361 28.0253 30.0335 29.2227C30.271 29.4602 30.4392 29.7372 30.271 30.0539C30.1621 30.2617 29.9444 30.4497 29.7267 30.5388C29.4199 30.6576 29.1626 30.4596 28.9449 30.2419C27.7772 29.0643 26.5996 27.8966 25.4319 26.7289C25.3428 26.6398 25.2439 26.5508 25.0757 26.3924C25.0757 26.8773 25.0757 27.293 25.0757 27.7086C25.0757 27.8669 25.0855 28.0352 25.0559 28.1935C24.9866 28.5695 24.6402 28.8268 24.284 28.7971C23.9178 28.7674 23.6111 28.4706 23.6012 28.0945C23.5913 26.9169 23.5913 25.7492 23.6012 24.5716C23.6012 24.156 23.9079 23.8492 24.3434 23.8492C25.4913 23.8393 26.6392 23.8393 27.797 23.8492C28.2423 23.8591 28.5491 24.1857 28.5392 24.6013C28.5293 25.0169 28.2126 25.3138 27.7574 25.3237C27.2428 25.3138 26.7382 25.3138 26.1444 25.3138Z" fill="#014898"/>
<path d="M11.4769 12.7851C11.3879 12.6862 11.2988 12.5872 11.2097 12.4982C10.0222 11.3107 8.83473 10.1232 7.64723 8.93566C7.41963 8.70806 7.2514 8.44087 7.39984 8.14399C7.50869 7.92629 7.7363 7.71847 7.9639 7.62941C8.27067 7.50076 8.51807 7.70858 8.74567 7.92628C9.91338 9.10389 11.091 10.2716 12.2587 11.4393C12.3478 11.5383 12.4071 11.6669 12.4863 11.7758C12.5358 11.7461 12.5853 11.7164 12.6248 11.6966C12.6248 11.2216 12.6248 10.7466 12.6248 10.2716C12.6248 9.70754 12.9217 9.35128 13.367 9.36118C13.8222 9.37108 14.0993 9.71743 14.0993 10.2914C14.0993 11.3305 14.0993 12.3695 14.0993 13.4086C14.0993 14.0419 13.8321 14.319 13.2087 14.3289C12.1498 14.3289 11.0811 14.3289 10.0222 14.3289C9.48786 14.3289 9.1415 14.0221 9.1514 13.5768C9.1613 13.1414 9.50765 12.8445 10.042 12.8445C10.4972 12.8445 10.9524 12.8445 11.4175 12.8346C11.4175 12.8346 11.4373 12.8148 11.4769 12.7851Z" fill="#014898"/>
</g>
<defs>
<clipPath id="clip0_2108_7364">
<rect width="38" height="38" fill="white"/>
</clipPath>
</defs>
</svg>
