<svg width="40" height="40" viewBox="0 0 40 40" fill="none" xmlns="http://www.w3.org/2000/svg">
<g clip-path="url(#clip0_2108_7391)">
<path d="M1 35.5788C1.17283 35.2981 1.30244 34.985 1.50767 34.7259C3.89483 31.768 6.30358 28.8208 8.70154 25.8736C8.79875 25.7441 8.89596 25.6254 9.02558 25.4634C8.58272 25.1396 8.13985 24.8265 7.70779 24.5026C7.14611 24.0924 7.1029 23.7577 7.52416 23.218C8.08584 22.4947 8.66913 21.7822 9.1552 21.1776C8.66913 19.9793 8.13985 18.8998 7.7942 17.7663C6.95168 15.0674 7.0813 12.3685 8.03184 9.71286C9.00398 7.0032 10.6998 4.83331 13.0978 3.23558C14.8908 2.03729 16.8567 1.32479 19.0063 1.09808C19.1359 1.08729 19.2655 1.04411 19.3951 1.01172C19.9892 1.01172 20.5833 1.01172 21.1774 1.01172C21.8255 1.11967 22.4844 1.18445 23.1217 1.32479C26.3297 2.02649 28.9329 3.69979 30.8988 6.33388C31.3417 6.93842 31.7197 7.58615 32.141 8.25547C32.3786 8.00717 32.6055 7.75888 32.8323 7.51058C33.0591 7.27308 33.3184 7.17592 33.6316 7.28388C33.9989 7.40263 34.3661 7.53217 34.7442 7.65092C35.1762 7.78047 35.3815 8.07195 35.4031 8.51456C35.4139 8.67649 35.4247 8.83842 35.4355 9.00036C35.4463 9.29183 35.5975 9.41058 35.8891 9.34581C35.9107 9.33501 35.9431 9.34581 35.9648 9.33501C36.7965 8.95717 37.3149 9.3566 37.7254 10.0367C37.8118 10.1879 37.909 10.339 38.0063 10.4793C38.2439 10.814 38.2547 11.1379 38.0387 11.4941C37.5418 12.3362 37.4554 12.3469 38.4275 12.7356C38.8272 12.8975 39.0108 13.1782 38.9892 13.6208C38.9676 13.9555 38.9676 14.3009 38.9892 14.6356C39.0216 15.1106 38.8164 15.4021 38.3843 15.564C37.5202 15.8986 37.5094 15.9418 38.0063 16.7191C38.2547 17.1077 38.2547 17.4748 37.9846 17.8418C37.7794 18.1225 37.5742 18.4032 37.369 18.6947C37.1205 19.0509 36.7965 19.1589 36.386 19.0509C36.3104 19.0293 36.2348 19.0077 36.1484 18.9862C35.5111 18.835 35.4463 18.8674 35.4247 19.5259C35.4139 20.1413 35.187 20.5623 34.5497 20.7026C34.5281 20.7134 34.4957 20.7242 34.4741 20.735C33.0483 21.2316 33.1347 21.1236 32.357 20.2492C32.2922 20.1737 32.2382 20.0765 32.1842 19.9901C31.6549 20.7782 31.2229 21.5447 30.6828 22.2248C28.436 25.0748 25.5088 26.7481 21.9011 27.1259C20.7993 27.2447 19.676 27.1259 18.5526 27.0827C18.3258 27.0719 18.1853 27.1043 18.0449 27.2879C17.4508 28.0543 16.8351 28.81 16.2302 29.5657C15.809 30.0839 15.4957 30.1271 14.9557 29.7384C14.556 29.4577 14.1671 29.1663 13.7459 28.864C13.2382 29.4793 12.7521 30.0839 12.2553 30.6884C10.1381 33.2901 8.02104 35.9026 5.90392 38.5043C5.41785 39.0981 5.12621 39.1305 4.52132 38.6447C3.51677 37.8458 2.51222 37.0577 1.51848 36.2373C1.32405 36.0754 1.17283 35.8379 1.0108 35.6327C1 35.6327 1 35.6004 1 35.5788ZM8.62592 14.139C8.61512 20.5947 13.8971 25.8629 20.3781 25.8736C26.859 25.8736 32.1194 20.6163 32.1194 14.1498C32.1194 7.68331 26.859 2.41513 20.3889 2.40433C13.9403 2.38274 8.63673 7.6941 8.62592 14.139ZM12.6117 28.0651C11.7908 27.4606 10.9807 26.8776 10.1489 26.2731C7.65378 29.339 5.18022 32.3833 2.69585 35.4384C3.49517 36.0754 4.27288 36.6907 5.0722 37.3384C7.59977 34.2401 10.0949 31.1634 12.6117 28.0651ZM36.3752 17.6151C36.4292 17.5719 36.5804 17.5072 36.602 17.41C36.6345 17.2697 36.6128 17.0754 36.5372 16.9458C35.9972 15.9634 36.2888 14.9702 37.2609 14.5384C37.4446 14.4629 37.6174 14.4197 37.6282 14.139C37.639 13.8259 37.4122 13.8259 37.2393 13.7072C36.9909 13.5344 36.6777 13.3833 36.548 13.1458C36.2132 12.5197 36.062 11.8611 36.5804 11.2242C36.6453 11.1379 36.6236 10.9219 36.5588 10.814C36.5048 10.7276 36.332 10.7168 36.2024 10.6952C36.1268 10.6844 36.0404 10.7168 35.9648 10.7384C35.1114 10.9327 34.2149 10.3066 34.0745 9.44297C34.0421 9.21626 34.2041 8.88161 33.8152 8.76286C33.4156 8.63331 33.3724 9.03274 33.1671 9.17308C32.7135 9.48615 32.7459 9.86399 32.9079 10.3606C33.6856 12.7788 33.6964 15.2077 33.0051 17.6475C32.7243 18.6407 32.7027 18.6407 33.4372 19.364C33.5236 19.4504 33.7288 19.5259 33.8368 19.4827C33.9449 19.4504 34.0205 19.2668 34.0637 19.1373C34.1717 18.8134 34.1717 18.4032 34.3769 18.1765C34.8414 17.6691 35.4031 17.2265 36.1916 17.5827C36.2132 17.6043 36.2564 17.6043 36.3752 17.6151ZM15.4093 28.389C15.8522 27.8384 16.2735 27.3094 16.7379 26.7373C14.0267 25.9168 11.834 24.4163 10.0733 22.2572C9.67368 22.7538 9.31723 23.2072 8.92837 23.6822C11.0995 25.2475 13.2274 26.8021 15.4093 28.389Z" fill="#014898"/>
<path d="M10.0085 14.1498C9.98693 8.47138 14.61 3.82933 20.3565 3.77536C26.0165 3.72138 30.7044 8.38501 30.7368 14.1066C30.7692 19.8174 26.1137 24.481 20.3889 24.4918C14.6856 24.4918 10.0409 19.8606 10.0085 14.1498ZM22.8624 22.7322C22.0631 22.0413 22.0631 22.0413 22.3872 21.0697C22.4088 21.0157 22.4412 20.9617 22.4304 20.9185C22.4088 20.7782 22.4088 20.5839 22.3223 20.5083C22.2251 20.4111 22.0199 20.368 21.8795 20.3896C21.6742 20.4111 21.469 20.5191 21.2638 20.5839C20.8641 20.7026 20.5401 20.6163 20.324 20.2492C20.054 19.8174 19.7516 19.3964 19.5247 18.943C19.0387 17.993 18.693 17.885 19.8596 16.9134C19.9676 16.8271 20.0432 16.6004 20 16.4816C19.9568 16.3413 19.784 16.2225 19.6327 16.1577C19.4383 16.0714 19.2115 16.0498 19.0063 16.0066C18.6066 15.9202 18.4014 15.6719 18.4014 15.2617C18.4014 14.7651 18.3906 14.2685 18.4014 13.7611C18.4122 12.6168 18.2177 12.3793 19.6652 12.1202C19.7948 12.0986 19.9676 11.9367 20 11.8072C20.0324 11.6776 19.9568 11.4833 19.8596 11.3646C19.7192 11.1918 19.5247 11.0515 19.3627 10.9004C19.0819 10.6413 19.0063 10.3282 19.1899 9.98274C19.4383 9.50774 19.6868 9.02194 19.9676 8.56854C20.6805 7.42422 20.7129 7.49979 21.8795 7.88842C21.8903 7.88842 21.9119 7.89922 21.9227 7.89922C22.0631 7.86683 22.2467 7.86683 22.3331 7.78047C22.4196 7.6941 22.452 7.51058 22.452 7.37024C22.4412 7.2191 22.3656 7.06797 22.3115 6.90604C22.0955 6.25831 22.1495 6.09638 22.6896 5.70774C22.7544 5.66456 22.8084 5.61058 22.884 5.5566C20.1728 4.6174 16.1006 5.28672 13.4866 8.39581C10.9807 11.3862 10.743 15.8447 12.9466 19.1373C15.0853 22.3651 19.2871 23.8981 22.8624 22.7322ZM29.365 14.1606C29.3542 12.5413 28.9545 11.0407 28.1444 9.63729C28.0148 9.42138 27.896 9.3782 27.6583 9.42138C25.4872 9.87479 23.8562 11.8396 23.8346 14.0418C23.813 16.3844 25.3684 18.3384 27.6259 18.8458C27.8852 18.8998 28.0148 18.8458 28.1336 18.6191C28.9437 17.2373 29.3434 15.7475 29.365 14.1606ZM23.6401 21.5663C23.9318 21.739 24.1478 21.8793 24.3746 21.9873C24.4611 22.0305 24.6123 22.0413 24.6987 21.9873C25.5736 21.5231 26.3405 20.9185 27.0102 20.1629C24.1046 19.0941 22.4196 17.0969 22.4952 13.9663C22.56 11.0083 24.245 9.1299 27.0966 8.10433C26.481 7.60774 25.9193 7.16513 25.3792 6.69013C24.8499 6.23672 24.3422 6.13956 23.7914 6.64695C23.759 6.66854 23.7374 6.70092 23.6941 6.73331C23.7806 6.9924 23.8454 7.25149 23.9426 7.49979C24.083 7.85604 23.9966 8.15831 23.7157 8.4066C23.6077 8.50376 23.4781 8.59013 23.3917 8.70888C22.884 9.42138 22.2683 9.65888 21.4474 9.22706C21.3826 9.19467 21.199 9.23785 21.1558 9.30263C20.9613 9.58331 20.7993 9.89638 20.6265 10.1879C20.8641 10.4038 21.0586 10.5873 21.2638 10.76C21.5554 11.0083 21.631 11.2998 21.5122 11.6668C21.4042 12.0123 21.3178 12.3685 21.2314 12.714C21.145 13.0702 20.9397 13.2754 20.5941 13.3617C19.784 13.5668 19.784 13.5776 19.7948 14.4089C19.7948 14.5168 19.8056 14.6248 19.8164 14.7867C20.7021 14.8083 21.145 15.1969 21.415 16.1146C21.7067 17.1077 21.3178 17.6043 20.6265 18.0901C20.8533 18.468 21.0478 18.8026 21.2638 19.1697C22.0415 18.7594 22.6356 18.7486 23.3485 19.4611C24.029 20.1629 24.0938 20.7566 23.6401 21.5663Z" fill="#014898"/>
<path d="M1 35.5788C1.17283 35.2981 1.30244 34.985 1.50767 34.7259C3.89483 31.768 6.30358 28.8208 8.70154 25.8736C8.79875 25.7441 8.89596 25.6254 9.02558 25.4634C8.58272 25.1396 8.13985 24.8265 7.70779 24.5026C7.14611 24.0924 7.1029 23.7577 7.52416 23.218C8.08584 22.4947 8.66913 21.7822 9.1552 21.1776C8.66913 19.9793 8.13985 18.8998 7.7942 17.7663C6.95168 15.0674 7.0813 12.3685 8.03184 9.71286C9.00398 7.0032 10.6998 4.83331 13.0978 3.23558C14.8908 2.03729 16.8567 1.32479 19.0063 1.09808C19.1359 1.08729 19.2655 1.04411 19.3951 1.01172C19.9892 1.01172 20.5833 1.01172 21.1774 1.01172C21.8255 1.11967 22.4844 1.18445 23.1217 1.32479C26.3297 2.02649 28.9329 3.69979 30.8988 6.33388C31.3417 6.93842 31.7197 7.58615 32.141 8.25547C32.3786 8.00717 32.6055 7.75888 32.8323 7.51058C33.0591 7.27308 33.3184 7.17592 33.6316 7.28388C33.9989 7.40263 34.3661 7.53217 34.7442 7.65092C35.1762 7.78047 35.3815 8.07195 35.4031 8.51456C35.4139 8.67649 35.4247 8.83842 35.4355 9.00036C35.4463 9.29183 35.5975 9.41058 35.8891 9.34581C35.9107 9.33501 35.9431 9.34581 35.9648 9.33501C36.7965 8.95717 37.3149 9.3566 37.7254 10.0367C37.8118 10.1879 37.909 10.339 38.0063 10.4793C38.2439 10.814 38.2547 11.1379 38.0387 11.4941C37.5418 12.3362 37.4554 12.3469 38.4275 12.7356C38.8272 12.8975 39.0108 13.1782 38.9892 13.6208C38.9676 13.9555 38.9676 14.3009 38.9892 14.6356C39.0216 15.1106 38.8164 15.4021 38.3843 15.564C37.5202 15.8986 37.5094 15.9418 38.0063 16.7191C38.2547 17.1077 38.2547 17.4748 37.9846 17.8418C37.7794 18.1225 37.5742 18.4032 37.369 18.6947C37.1205 19.0509 36.7965 19.1589 36.386 19.0509C36.3104 19.0293 36.2348 19.0077 36.1484 18.9862C35.5111 18.835 35.4463 18.8674 35.4247 19.5259C35.4139 20.1413 35.187 20.5623 34.5497 20.7026C34.5281 20.7134 34.4957 20.7242 34.4741 20.735C33.0483 21.2316 33.1347 21.1236 32.357 20.2492C32.2922 20.1737 32.2382 20.0765 32.1842 19.9901C31.6549 20.7782 31.2229 21.5447 30.6828 22.2248C28.436 25.0748 25.5088 26.7481 21.9011 27.1259C20.7993 27.2447 19.676 27.1259 18.5526 27.0827C18.3258 27.0719 18.1853 27.1043 18.0449 27.2879C17.4508 28.0543 16.8351 28.81 16.2302 29.5657C15.809 30.0839 15.4957 30.1271 14.9557 29.7384C14.556 29.4577 14.1671 29.1663 13.7459 28.864C13.2382 29.4793 12.7521 30.0839 12.2553 30.6884C10.1381 33.2901 8.02104 35.9026 5.90392 38.5043C5.41785 39.0981 5.12621 39.1305 4.52132 38.6447C3.51677 37.8458 2.51222 37.0577 1.51848 36.2373C1.32405 36.0754 1.17283 35.8379 1.0108 35.6327C1 35.6327 1 35.6004 1 35.5788ZM8.62592 14.139C8.61512 20.5947 13.8971 25.8629 20.3781 25.8736C26.859 25.8736 32.1194 20.6163 32.1194 14.1498C32.1194 7.68331 26.859 2.41513 20.3889 2.40433C13.9403 2.38274 8.63673 7.6941 8.62592 14.139ZM12.6117 28.0651C11.7908 27.4606 10.9807 26.8776 10.1489 26.2731C7.65378 29.339 5.18022 32.3833 2.69585 35.4384C3.49517 36.0754 4.27288 36.6907 5.0722 37.3384C7.59977 34.2401 10.0949 31.1634 12.6117 28.0651ZM36.3752 17.6151C36.4292 17.5719 36.5804 17.5072 36.602 17.41C36.6345 17.2697 36.6128 17.0754 36.5372 16.9458C35.9972 15.9634 36.2888 14.9702 37.2609 14.5384C37.4446 14.4629 37.6174 14.4197 37.6282 14.139C37.639 13.8259 37.4122 13.8259 37.2393 13.7072C36.9909 13.5344 36.6777 13.3833 36.548 13.1458C36.2132 12.5197 36.062 11.8611 36.5804 11.2242C36.6453 11.1379 36.6236 10.9219 36.5588 10.814C36.5048 10.7276 36.332 10.7168 36.2024 10.6952C36.1268 10.6844 36.0404 10.7168 35.9648 10.7384C35.1114 10.9327 34.2149 10.3066 34.0745 9.44297C34.0421 9.21626 34.2041 8.88161 33.8152 8.76286C33.4156 8.63331 33.3724 9.03274 33.1671 9.17308C32.7135 9.48615 32.7459 9.86399 32.9079 10.3606C33.6856 12.7788 33.6964 15.2077 33.0051 17.6475C32.7243 18.6407 32.7027 18.6407 33.4372 19.364C33.5236 19.4504 33.7288 19.5259 33.8368 19.4827C33.9449 19.4504 34.0205 19.2668 34.0637 19.1373C34.1717 18.8134 34.1717 18.4032 34.3769 18.1765C34.8414 17.6691 35.4031 17.2265 36.1916 17.5827C36.2132 17.6043 36.2564 17.6043 36.3752 17.6151ZM15.4093 28.389C15.8522 27.8384 16.2735 27.3094 16.7379 26.7373C14.0267 25.9168 11.834 24.4163 10.0733 22.2572C9.67368 22.7538 9.31723 23.2072 8.92837 23.6822C11.0995 25.2475 13.2274 26.8021 15.4093 28.389Z" stroke="white" stroke-width="0.2"/>
<path d="M10.0085 14.1498C9.98693 8.47138 14.61 3.82933 20.3565 3.77536C26.0165 3.72138 30.7044 8.38501 30.7368 14.1066C30.7692 19.8174 26.1137 24.481 20.3889 24.4918C14.6856 24.4918 10.0409 19.8606 10.0085 14.1498ZM22.8624 22.7322C22.0631 22.0413 22.0631 22.0413 22.3872 21.0697C22.4088 21.0157 22.4412 20.9617 22.4304 20.9185C22.4088 20.7782 22.4088 20.5839 22.3223 20.5083C22.2251 20.4111 22.0199 20.368 21.8795 20.3896C21.6742 20.4111 21.469 20.5191 21.2638 20.5839C20.8641 20.7026 20.5401 20.6163 20.324 20.2492C20.054 19.8174 19.7516 19.3964 19.5247 18.943C19.0387 17.993 18.693 17.885 19.8596 16.9134C19.9676 16.8271 20.0432 16.6004 20 16.4816C19.9568 16.3413 19.784 16.2225 19.6327 16.1577C19.4383 16.0714 19.2115 16.0498 19.0063 16.0066C18.6066 15.9202 18.4014 15.6719 18.4014 15.2617C18.4014 14.7651 18.3906 14.2685 18.4014 13.7611C18.4122 12.6168 18.2177 12.3793 19.6652 12.1202C19.7948 12.0986 19.9676 11.9367 20 11.8072C20.0324 11.6776 19.9568 11.4833 19.8596 11.3646C19.7192 11.1918 19.5247 11.0515 19.3627 10.9004C19.0819 10.6413 19.0063 10.3282 19.1899 9.98274C19.4383 9.50774 19.6868 9.02194 19.9676 8.56854C20.6805 7.42422 20.7129 7.49979 21.8795 7.88842C21.8903 7.88842 21.9119 7.89922 21.9227 7.89922C22.0631 7.86683 22.2467 7.86683 22.3331 7.78047C22.4196 7.6941 22.452 7.51058 22.452 7.37024C22.4412 7.2191 22.3656 7.06797 22.3115 6.90604C22.0955 6.25831 22.1495 6.09638 22.6896 5.70774C22.7544 5.66456 22.8084 5.61058 22.884 5.5566C20.1728 4.6174 16.1006 5.28672 13.4866 8.39581C10.9807 11.3862 10.743 15.8447 12.9466 19.1373C15.0853 22.3651 19.2871 23.8981 22.8624 22.7322ZM29.365 14.1606C29.3542 12.5413 28.9545 11.0407 28.1444 9.63729C28.0148 9.42138 27.896 9.3782 27.6583 9.42138C25.4872 9.87479 23.8562 11.8396 23.8346 14.0418C23.813 16.3844 25.3684 18.3384 27.6259 18.8458C27.8852 18.8998 28.0148 18.8458 28.1336 18.6191C28.9437 17.2373 29.3434 15.7475 29.365 14.1606ZM23.6401 21.5663C23.9318 21.739 24.1478 21.8793 24.3746 21.9873C24.4611 22.0305 24.6123 22.0413 24.6987 21.9873C25.5736 21.5231 26.3405 20.9185 27.0102 20.1629C24.1046 19.0941 22.4196 17.0969 22.4952 13.9663C22.56 11.0083 24.245 9.1299 27.0966 8.10433C26.481 7.60774 25.9193 7.16513 25.3792 6.69013C24.8499 6.23672 24.3422 6.13956 23.7914 6.64695C23.759 6.66854 23.7374 6.70092 23.6941 6.73331C23.7806 6.9924 23.8454 7.25149 23.9426 7.49979C24.083 7.85604 23.9966 8.15831 23.7157 8.4066C23.6077 8.50376 23.4781 8.59013 23.3917 8.70888C22.884 9.42138 22.2683 9.65888 21.4474 9.22706C21.3826 9.19467 21.199 9.23785 21.1558 9.30263C20.9613 9.58331 20.7993 9.89638 20.6265 10.1879C20.8641 10.4038 21.0586 10.5873 21.2638 10.76C21.5554 11.0083 21.631 11.2998 21.5122 11.6668C21.4042 12.0123 21.3178 12.3685 21.2314 12.714C21.145 13.0702 20.9397 13.2754 20.5941 13.3617C19.784 13.5668 19.784 13.5776 19.7948 14.4089C19.7948 14.5168 19.8056 14.6248 19.8164 14.7867C20.7021 14.8083 21.145 15.1969 21.415 16.1146C21.7067 17.1077 21.3178 17.6043 20.6265 18.0901C20.8533 18.468 21.0478 18.8026 21.2638 19.1697C22.0415 18.7594 22.6356 18.7486 23.3485 19.4611C24.029 20.1629 24.0938 20.7566 23.6401 21.5663Z" stroke="white" stroke-width="0.2"/>
</g>
<defs>
<clipPath id="clip0_2108_7391">
<rect width="40" height="40" fill="white"/>
</clipPath>
</defs>
</svg>
