<svg width="46" height="37" viewBox="0 0 46 37" fill="none" xmlns="http://www.w3.org/2000/svg">
<g id="Frame" clip-path="url(#clip0_2198_2930)">
<g id="Group">
<g id="Vector">
<path d="M0.00107304 19.8158C0.453596 19.1036 1.10006 18.8122 1.94046 18.9093C2.32833 18.9417 2.71621 18.9093 3.13641 18.9093C3.16873 18.7151 3.20105 18.5532 3.2657 18.3914C3.45964 17.7762 4.00913 17.323 4.65559 17.323C5.14044 17.2906 5.62528 17.323 6.0778 17.323C7.11214 17.323 7.7586 17.9381 7.79093 19.0065C7.79093 19.6863 7.79093 20.3662 7.79093 21.046C7.79093 21.2079 7.79093 21.3698 7.79093 21.564C8.53436 21.564 9.21314 21.564 10.0212 21.564C9.92425 21.4021 9.82728 21.2403 9.73031 21.1108C8.21112 18.7798 7.0475 16.287 6.498 13.5029C5.33437 7.31941 9.08385 1.55682 15.1606 0.326607C19.3302 -0.515119 22.8858 0.747471 25.7302 3.88776C25.8272 3.98488 25.8918 4.082 25.9888 4.17913C26.0211 4.2115 26.0534 4.2115 26.1181 4.24387C26.2151 4.14675 26.312 4.04963 26.409 3.95251C30.4494 -0.774112 37.5604 -1.25972 42.215 2.88416C42.2473 2.91654 42.3119 2.94891 42.3443 3.01366C42.6998 3.36977 42.7645 3.72589 42.4735 4.04963C42.1826 4.37337 41.8271 4.37337 41.4392 4.01725C40.4695 3.14315 39.4029 2.4633 38.1746 2.01006C34.3928 0.553226 30.1261 1.65395 27.4757 4.72949C27.411 4.79423 27.3464 4.85898 27.314 4.92373C26.5706 5.76546 25.6332 5.76546 24.9221 4.92373C23.6615 3.40215 22.11 2.36618 20.203 1.78344C14.3848 0.00286627 8.30809 4.04963 7.69396 10.1036C7.43537 12.7583 8.11416 15.2187 9.27779 17.5496C9.92425 18.8122 10.7323 20.0101 11.4434 21.2079C11.5727 21.4345 11.7667 21.4993 12.0252 21.4993C13.803 21.4993 15.5808 21.4993 17.3585 21.4993C17.908 21.4993 18.2313 21.7583 18.2313 22.1791C18.2313 22.6 17.908 22.859 17.3585 22.859C14.3202 22.859 11.3141 22.859 8.27577 22.859C8.11416 22.859 7.95254 22.859 7.7586 22.859C7.7586 23.7978 7.7586 24.7043 7.7586 25.6432C12.7364 25.6432 17.7141 25.6432 22.6918 25.6432C22.6918 24.7367 22.6918 23.8302 22.6918 22.859C22.0131 22.859 21.3343 22.859 20.6878 22.859C20.1706 22.859 19.8474 22.4705 19.9767 22.0173C20.0737 21.6611 20.3323 21.5316 20.6878 21.5316C21.3666 21.5316 22.0131 21.5316 22.7565 21.5316C22.7565 20.7223 22.7565 19.9453 22.7565 19.1683C22.7565 17.8734 23.3383 17.2906 24.6312 17.2906C24.9221 17.2906 25.2454 17.2906 25.5363 17.2906C26.6676 17.2906 27.1847 17.7115 27.411 18.9093C27.9282 18.9093 28.4777 18.9093 28.9948 18.9093C29.9969 18.9093 30.611 19.5568 30.611 20.5604C30.611 23.0856 30.611 25.6108 30.611 28.136C30.611 29.1072 29.9645 29.7547 28.9625 29.7547C28.4453 29.7547 27.9282 29.7547 27.411 29.7547C27.1201 31.0173 26.6676 31.3734 25.3747 31.3734C25.0191 31.3734 24.6959 31.3734 24.3403 31.3734C23.4353 31.341 22.7888 30.7259 22.7565 29.8194C22.7242 29.0748 22.7565 28.3626 22.7565 27.618C22.7565 27.4561 22.7565 27.2942 22.7565 27.1C20.6878 27.1 18.6515 27.1 16.5505 27.1C16.6474 27.1971 16.6798 27.2942 16.7767 27.3914C19.4919 30.0137 22.4009 32.3446 25.4716 34.4813C25.8595 34.7403 26.2474 34.7727 26.6353 34.5137C31.71 30.9525 36.4291 26.9705 40.1786 22.0173C42.021 19.5892 43.5079 16.9669 44.1867 13.9561C44.7685 11.3986 44.6069 8.93812 43.3463 6.57481C43.0877 6.0892 43.1847 5.70071 43.5725 5.50646C43.9604 5.31222 44.2836 5.47409 44.5422 5.9597C46.1261 8.90574 46.1907 12.0137 45.2857 15.1539C44.4129 18.1647 42.8291 20.787 40.922 23.2475C37.9806 27.0676 34.4574 30.2727 30.6756 33.2187C29.6413 34.028 28.5746 34.805 27.4757 35.5496C26.4736 36.2619 25.6332 36.2295 24.6312 35.5496C21.1727 33.0245 17.8757 30.3374 14.8373 27.2942C14.7081 27.1647 14.4818 27.0352 14.3202 27.0352C12.2515 27.0029 10.1505 27.0352 8.08183 27.0352C8.01719 27.0352 7.95254 27.0352 7.79093 27.0676C7.79093 27.5532 7.79093 28.0388 7.79093 28.4921C7.79093 29.0101 7.82325 29.528 7.7586 30.0137C7.66163 30.7906 7.0475 31.3086 6.27174 31.341C5.88387 31.341 5.52831 31.341 5.14044 31.341C3.84751 31.341 3.42732 31.0173 3.10408 29.7223C2.71621 29.7223 2.32833 29.6899 1.90813 29.7223C1.06773 29.787 0.421273 29.528 -0.03125 28.8158C0.00107304 25.805 0.00107304 22.8266 0.00107304 19.8158ZM6.43336 24.3482C6.43336 22.6324 6.43336 20.8842 6.43336 19.1683C6.43336 18.7475 6.30407 18.5856 5.88387 18.6503C5.62528 18.6827 5.33437 18.6827 5.07579 18.6503C4.62327 18.5856 4.46165 18.7475 4.49398 19.2331C4.5263 19.9453 4.49398 20.6575 4.49398 21.3374C4.49398 21.7259 4.23539 21.9525 3.87984 21.9849C3.49196 22.0173 3.2657 21.7906 3.20105 21.4021C3.16873 21.2079 3.16873 21.0137 3.16873 20.8194C3.20105 20.3986 3.07176 20.2043 2.61924 20.2367C2.36066 20.2691 2.06975 20.2691 1.81116 20.2367C1.39096 20.2043 1.22935 20.3338 1.22935 20.787C1.26167 22.859 1.22935 24.9309 1.22935 27.0029C1.22935 28.395 1.22935 28.3626 2.61924 28.395C3.03944 28.395 3.16873 28.2655 3.13641 27.8446C3.10408 26.7762 3.13641 25.6755 3.13641 24.6072C3.13641 24.2511 3.23338 23.9597 3.58893 23.7978C4.04145 23.636 4.46165 23.9597 4.46165 24.5101C4.46165 25.8698 4.46165 27.2295 4.46165 28.5892C4.46165 29.9813 4.46165 29.9489 5.85154 29.9813C6.30407 29.9813 6.40103 29.8194 6.40103 29.3986C6.43336 27.7151 6.43336 26.0316 6.43336 24.3482ZM24.1464 24.3158C24.1464 26.064 24.1464 27.7798 24.1464 29.528C24.1464 29.8842 24.2434 30.0137 24.5989 29.9813C24.8898 29.9489 25.1807 29.9813 25.4393 29.9813C26.0534 29.9813 26.0534 29.9813 26.0534 29.3986C26.0534 25.9993 26.0534 22.6324 26.0534 19.2331C26.0534 19.136 26.0858 19.0388 26.0534 18.9741C25.9565 18.8446 25.8595 18.6827 25.7302 18.6503C25.407 18.618 25.0514 18.6503 24.6959 18.618C24.2757 18.5856 24.1141 18.7475 24.1464 19.1683C24.1464 20.8842 24.1464 22.6 24.1464 24.3158ZM29.3181 24.3158C29.3181 23.118 29.3181 21.8878 29.3181 20.6899C29.3181 20.3986 29.2211 20.2367 28.8979 20.2691C28.51 20.3014 28.1544 20.2691 27.7666 20.2691C27.508 20.2691 27.3787 20.3662 27.3787 20.6252C27.3787 23.0856 27.3787 25.5784 27.3787 28.0388C27.3787 28.3302 27.508 28.395 27.7666 28.395C28.0898 28.395 28.413 28.3626 28.7039 28.395C29.1565 28.4273 29.3181 28.2978 29.2857 27.8122C29.2857 26.6468 29.3181 25.4813 29.3181 24.3158Z" fill="#014898"/>
<path d="M22.4979 10.6216C22.3363 11.1072 22.2393 11.4633 22.1424 11.787C21.5282 13.7619 20.9464 15.7691 20.3323 17.7439C20.2999 17.9057 20.2353 18.1 20.1383 18.1971C19.9444 18.3266 19.6535 18.4885 19.4919 18.4237C19.2656 18.359 19.0393 18.1 18.9424 17.8734C18.4898 16.4813 18.0697 15.0568 17.6495 13.6647C17.4555 13.0173 17.2292 12.3698 17.0676 11.6899C16.9707 11.3662 16.8414 11.2691 16.5181 11.2691C14.7404 11.3014 12.9626 11.2691 11.1848 11.2691C11.0232 11.2691 10.8616 11.2691 10.7 11.2367C10.3444 11.1719 10.1182 10.9129 10.1828 10.6216C10.2152 10.395 10.4414 10.1683 10.6354 9.97409C10.7323 9.87697 10.9586 9.90934 11.1202 9.90934C13.1565 9.90934 15.1606 9.90934 17.1969 9.90934C17.8757 9.90934 18.005 10.0065 18.1989 10.6863C18.6838 12.2403 19.1363 13.7619 19.6535 15.4453C19.7504 15.1539 19.8151 14.9921 19.8474 14.8626C20.5262 12.6611 21.1727 10.4921 21.8514 8.29064C21.9161 8.03164 22.1424 7.77265 22.3686 7.64315C22.7242 7.44891 23.0797 7.7079 23.2413 8.16114C23.5322 9.03524 23.7908 9.94172 24.0494 10.8158C24.1464 11.1396 24.2757 11.2691 24.6312 11.2691C26.3443 11.2367 28.0575 11.2691 29.7383 11.2691C29.8999 11.2691 30.0615 11.2691 30.2231 11.3014C30.5787 11.3662 30.7726 11.6252 30.7403 11.9813C30.7403 12.3374 30.514 12.564 30.1585 12.5964C30.0292 12.5964 29.9322 12.5964 29.8029 12.5964C27.8635 12.5964 25.9241 12.5964 23.9524 12.5964C23.209 12.5964 23.1444 12.5316 22.9181 11.8194C22.7565 11.4957 22.6272 11.1396 22.4979 10.6216Z" fill="#014898"/>
</g>
</g>
</g>
<defs>
<clipPath id="clip0_2198_2930">
<rect width="46" height="37" fill="white"/>
</clipPath>
</defs>
</svg>
