<svg width="40" height="40" viewBox="0 0 40 40" fill="none" xmlns="http://www.w3.org/2000/svg">
<g id="Group">
<g id="Vector">
<path d="M19.1897 39.0074C19.1143 38.948 19.0314 38.8961 18.956 38.8293C18.7223 38.6215 18.6243 38.3691 18.7148 38.0648C18.8128 37.7457 19.0389 37.5676 19.3631 37.5305C19.4837 37.5156 19.6118 37.523 19.74 37.523C22.7176 37.523 25.6952 37.523 28.6727 37.523C29.7809 37.523 30.3311 36.9812 30.3311 35.8754C30.3311 32.8102 30.3311 29.7375 30.3311 26.6723C30.3311 26.5684 30.3311 26.457 30.3311 26.3531C30.3085 26.3457 30.2859 26.3383 30.2633 26.3309C30.0975 26.65 29.9392 26.984 29.7582 27.2957C29.6301 27.5035 29.4944 27.7188 29.3135 27.882C27.8059 29.2031 26.2907 30.5242 24.7604 31.823C24.572 31.9863 24.2704 32.1051 24.0217 32.1051C20.5767 32.1273 17.1393 32.1199 13.6944 32.1199C13.031 32.1199 12.6541 31.6598 12.8576 31.1254C12.9858 30.7988 13.2496 30.6504 13.5888 30.6355C13.8753 30.6207 14.1693 30.6281 14.4557 30.6281C17.3052 30.6281 20.1621 30.6281 23.0116 30.6207C23.1473 30.6207 23.2829 30.6207 23.4488 30.6207C23.5845 28.973 23.7126 27.3625 23.8558 25.6852C23.6825 25.6852 23.5242 25.6852 23.3659 25.6852C20.1998 25.6852 17.0338 25.6926 13.8677 25.6852C13.6793 25.6852 13.4908 25.6777 13.3099 25.6258C12.9858 25.5367 12.7822 25.1953 12.8124 24.8762C12.8426 24.5273 13.1139 24.2527 13.4682 24.2156C13.6039 24.2008 13.7471 24.2082 13.8828 24.2082C17.2222 24.2082 20.5692 24.2008 23.9086 24.2082C24.1724 24.2082 24.3006 24.1266 24.4212 23.8965C26.3434 20.0965 28.2808 16.2965 30.2105 12.4965C30.2708 12.3777 30.3462 12.2441 30.3462 12.118C30.3538 10.834 30.3538 9.55 30.3538 8.22148C30.203 8.21406 30.0673 8.20664 29.9392 8.20664C29.1476 8.20664 28.3561 8.21406 27.5646 8.19922C26.0721 8.16953 24.8961 7.02656 24.8584 5.55703C24.8358 4.68125 24.8509 3.79805 24.8509 2.92227C24.8509 2.78867 24.8509 2.65508 24.8509 2.48438C24.6775 2.48438 24.5418 2.48438 24.4061 2.48438C17.6745 2.48438 10.9354 2.48438 4.20379 2.48438C3.10322 2.48438 2.55293 3.01875 2.55293 4.09492C2.55293 14.6934 2.55293 25.2992 2.55293 35.8977C2.55293 36.9738 3.10322 37.5156 4.19626 37.5156C7.23415 37.5156 10.2796 37.5156 13.3175 37.5156C13.7773 37.5156 14.0637 37.7012 14.1693 38.0426C14.2748 38.3988 14.1467 38.6586 13.7547 38.9406C13.7396 38.9555 13.7321 38.9777 13.717 39C10.3248 39 6.93262 39 3.54043 39C1.64081 38.5547 0.992527 37.2113 1.00006 35.4895C1.03776 25.9449 1.02268 16.4078 1.02268 6.86328C1.02268 5.84648 1.01514 4.83711 1.03022 3.82031C1.04529 2.64766 1.79911 1.61602 2.91476 1.20039C3.11076 1.12617 3.31429 1.0668 3.51782 1C10.958 1 18.3907 1 25.8308 1C26.0419 1.19297 26.2605 1.37109 26.4565 1.57148C28.0094 3.17461 29.5321 4.8 31.1076 6.37344C31.6503 6.91523 31.9669 7.46445 31.8539 8.23633C31.8162 8.51094 31.8463 8.79297 31.8463 9.075C32.3137 8.32539 32.6755 7.56836 33.0901 6.83359C33.6178 5.89102 34.447 5.35664 35.5476 5.29727C37.7563 5.17852 39.9273 7.37539 38.6005 9.92852C36.618 13.7582 34.7184 17.625 32.7132 21.4398C32.0875 22.6273 31.8011 23.8 31.8237 25.1434C31.8916 28.7504 31.8463 32.3648 31.8463 35.9719C31.8463 37.4785 30.9719 38.5621 29.5019 38.9258C29.4567 38.9406 29.4115 38.9703 29.3738 38.9852C25.9741 39.0074 22.5819 39.0074 19.1897 39.0074ZM28.6275 26.1824C28.7029 26.0488 28.7632 25.9449 28.816 25.841C30.8588 21.8332 32.8941 17.8254 34.9294 13.8176C35.7134 12.2813 36.4974 10.7523 37.2663 9.20859C37.6583 8.42187 37.5301 7.73906 36.9044 7.2418C35.9546 6.46992 34.8239 6.69258 34.2736 7.78359C31.4393 13.35 28.6124 18.9164 25.7856 24.4828C25.7479 24.557 25.7178 24.6387 25.6725 24.7352C26.6676 25.2176 27.64 25.6926 28.6275 26.1824ZM26.3434 3.62734C26.3434 4.36211 26.3208 4.99297 26.351 5.62383C26.3736 6.09141 26.645 6.45508 27.0897 6.61094C27.7908 6.85586 28.522 6.69258 29.321 6.72227C28.3034 5.66836 27.3536 4.68125 26.3434 3.62734ZM25.0469 29.5C25.077 29.5074 25.1072 29.5223 25.1373 29.5297C25.959 28.8172 26.7807 28.0973 27.64 27.3551C26.8259 26.9543 26.0947 26.598 25.3183 26.2121C25.2203 27.3477 25.1373 28.4238 25.0469 29.5Z" fill="#014898"/>
<path d="M16.1744 39.0074C16.1066 38.9555 16.0387 38.9035 15.9784 38.8516C15.6241 38.5695 15.5789 38.0945 15.8729 37.7754C16.1744 37.4414 16.6946 37.4414 17.0036 37.7754C17.2976 38.0945 17.2524 38.5695 16.9056 38.8516C16.8378 38.9035 16.7775 38.9555 16.7096 39.0074C16.5212 39.0074 16.3478 39.0074 16.1744 39.0074Z" fill="#014898"/>
<path d="M14.0562 7.21953C14.0562 6.89297 14.0487 6.6332 14.0562 6.37344C14.0713 5.47539 14.7422 4.8 15.6468 4.77773C16.1895 4.76289 16.7247 4.76289 17.2675 4.77773C18.1193 4.8 18.7826 5.45312 18.8128 6.2918C18.8279 6.57383 18.8128 6.85586 18.8128 7.21211C19.0842 7.21211 19.3254 7.21211 19.5742 7.21211C20.6521 7.22695 21.2929 7.87266 21.3004 8.94141C21.3004 9.40898 21.3079 9.88398 21.3004 10.3516C21.2778 11.2051 20.6144 11.8656 19.7475 11.9102C19.4611 11.925 19.1746 11.9102 18.8279 11.9102C18.8279 12.1996 18.8354 12.4668 18.8279 12.734C18.8053 13.6691 18.1344 14.3371 17.1846 14.3594C16.7096 14.3668 16.2272 14.3668 15.7523 14.3594C14.7573 14.3445 14.0788 13.6691 14.0637 12.6969C14.0637 12.452 14.0637 12.207 14.0637 11.9102C13.7622 11.9102 13.4908 11.9176 13.2195 11.9102C12.2772 11.8879 11.5988 11.2051 11.5837 10.2773C11.5761 9.80977 11.5761 9.33477 11.5837 8.86719C11.5988 7.90234 12.2546 7.24922 13.2345 7.21953C13.4908 7.21211 13.7547 7.21953 14.0562 7.21953ZM18.7902 10.4332C19.0163 10.4332 19.2425 10.4184 19.4686 10.4332C19.7098 10.448 19.8078 10.3664 19.8003 10.1215C19.7852 9.75039 19.7852 9.3793 19.8003 9.0082C19.8154 8.75586 19.7023 8.68906 19.4686 8.69648C19.0766 8.71133 18.6922 8.70391 18.3002 8.69648C17.5841 8.69648 17.3202 8.43672 17.3127 7.73906C17.3127 7.33086 17.3052 6.92266 17.3127 6.51445C17.3202 6.32891 17.2524 6.24726 17.0489 6.25469C16.6493 6.26211 16.2423 6.26953 15.8428 6.25469C15.6015 6.24726 15.5488 6.35117 15.5488 6.56641C15.5638 6.98945 15.5563 7.40508 15.5488 7.82812C15.5412 8.40703 15.2623 8.68906 14.6668 8.69648C14.2296 8.70391 13.7848 8.70391 13.3476 8.69648C13.1441 8.69648 13.0536 8.76328 13.0612 8.97852C13.0762 9.36445 13.0762 9.74297 13.0612 10.1289C13.0536 10.3516 13.129 10.4406 13.3627 10.4332C13.815 10.4184 14.2673 10.4258 14.7196 10.4332C15.2397 10.4406 15.5337 10.7301 15.5488 11.2422C15.5563 11.6727 15.5638 12.1105 15.5488 12.541C15.5412 12.7934 15.6166 12.9047 15.888 12.8898C16.2498 12.875 16.6192 12.875 16.981 12.8898C17.2222 12.8973 17.3202 12.823 17.3127 12.5781C17.2976 12.1328 17.2976 11.6875 17.3127 11.2422C17.3278 10.7301 17.6218 10.4555 18.1494 10.4406C18.368 10.4258 18.5791 10.4332 18.7902 10.4332Z" fill="#014898"/>
<path d="M18.8128 17.7809C20.5466 17.7809 22.2804 17.7809 24.0141 17.7809C24.3534 17.7809 24.6323 17.8773 24.7981 18.1816C25.0393 18.627 24.7604 19.1762 24.2478 19.2504C24.1272 19.2652 23.9991 19.2578 23.8709 19.2578C20.5164 19.2578 17.1619 19.2578 13.8074 19.2578C13.717 19.2578 13.6341 19.2578 13.5436 19.2578C13.1139 19.2281 12.7973 18.9164 12.7973 18.523C12.7973 18.1297 13.1139 17.8031 13.5361 17.7809C13.8753 17.766 14.2145 17.7734 14.5537 17.7734C15.9709 17.7809 17.3881 17.7809 18.8128 17.7809Z" fill="#014898"/>
<path d="M7.46783 31.4074C8.1915 30.4055 8.89255 29.448 9.58606 28.4758C9.78205 28.2086 10.0082 28.0156 10.3625 28.0527C10.958 28.1121 11.2294 28.743 10.8676 29.2551C10.3173 30.0418 9.7519 30.8062 9.18654 31.5855C8.87747 32.0086 8.57594 32.4316 8.26688 32.8547C7.89751 33.3445 7.45275 33.3891 6.98539 32.9883C6.62355 32.6766 6.26926 32.3723 5.91496 32.0531C5.55313 31.7266 5.50036 31.2887 5.77928 30.9695C6.07327 30.6281 6.51048 30.6133 6.91 30.9398C7.09092 31.0809 7.25676 31.2293 7.46783 31.4074Z" fill="#014898"/>
<path d="M7.46783 19.7922C8.20657 18.768 8.93024 17.7734 9.64637 16.7789C9.84236 16.5117 10.1213 16.3484 10.4228 16.4598C10.6489 16.5488 10.8902 16.7566 10.9882 16.9719C11.0635 17.1426 10.9957 17.4469 10.8751 17.6176C10.0082 18.857 9.11869 20.0816 8.22165 21.2988C7.92012 21.707 7.47537 21.7516 7.07584 21.425C6.66124 21.0836 6.26172 20.7273 5.86973 20.3637C5.54559 20.0668 5.53052 19.6363 5.79435 19.332C6.06573 19.0129 6.51802 18.9832 6.87231 19.2652C7.06077 19.4285 7.24168 19.5992 7.46783 19.7922Z" fill="#014898"/>
<path d="M7.46783 25.5961C8.1538 24.6461 8.8247 23.7184 9.4956 22.798C9.91774 22.2191 10.3248 22.0855 10.7394 22.3824C11.1389 22.6793 11.1389 23.0875 10.7319 23.6516C9.93282 24.7574 9.12623 25.8633 8.32718 26.9691C7.90504 27.548 7.48291 27.5926 6.94769 27.125C6.60848 26.8281 6.26926 26.5387 5.93004 26.2344C5.55313 25.893 5.5079 25.4477 5.80189 25.1211C6.08834 24.8094 6.53309 24.802 6.91 25.1137C7.09092 25.2695 7.27184 25.4254 7.46783 25.5961Z" fill="#014898"/>
<path d="M19.1897 39.0074C19.1143 38.948 19.0314 38.8961 18.956 38.8293C18.7223 38.6215 18.6243 38.3691 18.7148 38.0648C18.8128 37.7457 19.0389 37.5676 19.3631 37.5305C19.4837 37.5156 19.6118 37.523 19.74 37.523C22.7176 37.523 25.6952 37.523 28.6727 37.523C29.7809 37.523 30.3311 36.9812 30.3311 35.8754C30.3311 32.8102 30.3311 29.7375 30.3311 26.6723C30.3311 26.5684 30.3311 26.457 30.3311 26.3531C30.3085 26.3457 30.2859 26.3383 30.2633 26.3309C30.0975 26.65 29.9392 26.984 29.7582 27.2957C29.6301 27.5035 29.4944 27.7188 29.3135 27.882C27.8059 29.2031 26.2907 30.5242 24.7604 31.823C24.572 31.9863 24.2704 32.1051 24.0217 32.1051C20.5767 32.1273 17.1393 32.1199 13.6944 32.1199C13.031 32.1199 12.6541 31.6598 12.8576 31.1254C12.9858 30.7988 13.2496 30.6504 13.5888 30.6355C13.8753 30.6207 14.1693 30.6281 14.4557 30.6281C17.3052 30.6281 20.1621 30.6281 23.0116 30.6207C23.1473 30.6207 23.2829 30.6207 23.4488 30.6207C23.5845 28.973 23.7126 27.3625 23.8558 25.6852C23.6825 25.6852 23.5242 25.6852 23.3659 25.6852C20.1998 25.6852 17.0338 25.6926 13.8677 25.6852C13.6793 25.6852 13.4908 25.6777 13.3099 25.6258C12.9858 25.5367 12.7822 25.1953 12.8124 24.8762C12.8426 24.5273 13.1139 24.2527 13.4682 24.2156C13.6039 24.2008 13.7471 24.2082 13.8828 24.2082C17.2222 24.2082 20.5692 24.2008 23.9086 24.2082C24.1724 24.2082 24.3006 24.1266 24.4212 23.8965C26.3434 20.0965 28.2808 16.2965 30.2105 12.4965C30.2708 12.3777 30.3462 12.2441 30.3462 12.118C30.3538 10.834 30.3538 9.55 30.3538 8.22148C30.203 8.21406 30.0673 8.20664 29.9392 8.20664C29.1476 8.20664 28.3561 8.21406 27.5646 8.19922C26.0721 8.16953 24.8961 7.02656 24.8584 5.55703C24.8358 4.68125 24.8509 3.79805 24.8509 2.92227C24.8509 2.78867 24.8509 2.65508 24.8509 2.48438C24.6775 2.48438 24.5418 2.48438 24.4061 2.48438C17.6745 2.48438 10.9354 2.48438 4.20379 2.48438C3.10322 2.48438 2.55293 3.01875 2.55293 4.09492C2.55293 14.6934 2.55293 25.2992 2.55293 35.8977C2.55293 36.9738 3.10322 37.5156 4.19626 37.5156C7.23415 37.5156 10.2796 37.5156 13.3175 37.5156C13.7773 37.5156 14.0637 37.7012 14.1693 38.0426C14.2748 38.3988 14.1467 38.6586 13.7547 38.9406C13.7396 38.9555 13.7321 38.9777 13.717 39C10.3248 39 6.93262 39 3.54043 39C1.64081 38.5547 0.992527 37.2113 1.00006 35.4895C1.03776 25.9449 1.02268 16.4078 1.02268 6.86328C1.02268 5.84648 1.01514 4.83711 1.03022 3.82031C1.04529 2.64766 1.79911 1.61602 2.91476 1.20039C3.11076 1.12617 3.31429 1.0668 3.51782 1C10.958 1 18.3907 1 25.8308 1C26.0419 1.19297 26.2605 1.37109 26.4565 1.57148C28.0094 3.17461 29.5321 4.8 31.1076 6.37344C31.6503 6.91523 31.9669 7.46445 31.8539 8.23633C31.8162 8.51094 31.8463 8.79297 31.8463 9.075C32.3137 8.32539 32.6755 7.56836 33.0901 6.83359C33.6178 5.89102 34.447 5.35664 35.5476 5.29727C37.7563 5.17852 39.9273 7.37539 38.6005 9.92852C36.618 13.7582 34.7184 17.625 32.7132 21.4398C32.0875 22.6273 31.8011 23.8 31.8237 25.1434C31.8916 28.7504 31.8463 32.3648 31.8463 35.9719C31.8463 37.4785 30.9719 38.5621 29.5019 38.9258C29.4567 38.9406 29.4115 38.9703 29.3738 38.9852C25.9741 39.0074 22.5819 39.0074 19.1897 39.0074ZM28.6275 26.1824C28.7029 26.0488 28.7632 25.9449 28.816 25.841C30.8588 21.8332 32.8941 17.8254 34.9294 13.8176C35.7134 12.2813 36.4974 10.7523 37.2663 9.20859C37.6583 8.42187 37.5301 7.73906 36.9044 7.2418C35.9546 6.46992 34.8239 6.69258 34.2736 7.78359C31.4393 13.35 28.6124 18.9164 25.7856 24.4828C25.7479 24.557 25.7178 24.6387 25.6725 24.7352C26.6676 25.2176 27.64 25.6926 28.6275 26.1824ZM26.3434 3.62734C26.3434 4.36211 26.3208 4.99297 26.351 5.62383C26.3736 6.09141 26.645 6.45508 27.0897 6.61094C27.7908 6.85586 28.522 6.69258 29.321 6.72227C28.3034 5.66836 27.3536 4.68125 26.3434 3.62734ZM25.0469 29.5C25.077 29.5074 25.1072 29.5223 25.1373 29.5297C25.959 28.8172 26.7807 28.0973 27.64 27.3551C26.8259 26.9543 26.0947 26.598 25.3183 26.2121C25.2203 27.3477 25.1373 28.4238 25.0469 29.5Z" stroke="#F2F8FF" stroke-width="0.2"/>
<path d="M16.1744 39.0074C16.1066 38.9555 16.0387 38.9035 15.9784 38.8516C15.6241 38.5695 15.5789 38.0945 15.8729 37.7754C16.1744 37.4414 16.6946 37.4414 17.0036 37.7754C17.2976 38.0945 17.2524 38.5695 16.9056 38.8516C16.8378 38.9035 16.7775 38.9555 16.7096 39.0074C16.5212 39.0074 16.3478 39.0074 16.1744 39.0074Z" stroke="#F2F8FF" stroke-width="0.2"/>
<path d="M14.0562 7.21953C14.0562 6.89297 14.0487 6.6332 14.0562 6.37344C14.0713 5.47539 14.7422 4.8 15.6468 4.77773C16.1895 4.76289 16.7247 4.76289 17.2675 4.77773C18.1193 4.8 18.7826 5.45312 18.8128 6.2918C18.8279 6.57383 18.8128 6.85586 18.8128 7.21211C19.0842 7.21211 19.3254 7.21211 19.5742 7.21211C20.6521 7.22695 21.2929 7.87266 21.3004 8.94141C21.3004 9.40898 21.3079 9.88398 21.3004 10.3516C21.2778 11.2051 20.6144 11.8656 19.7475 11.9102C19.4611 11.925 19.1746 11.9102 18.8279 11.9102C18.8279 12.1996 18.8354 12.4668 18.8279 12.734C18.8053 13.6691 18.1344 14.3371 17.1846 14.3594C16.7096 14.3668 16.2272 14.3668 15.7523 14.3594C14.7573 14.3445 14.0788 13.6691 14.0637 12.6969C14.0637 12.452 14.0637 12.207 14.0637 11.9102C13.7622 11.9102 13.4908 11.9176 13.2195 11.9102C12.2772 11.8879 11.5988 11.2051 11.5837 10.2773C11.5761 9.80977 11.5761 9.33477 11.5837 8.86719C11.5988 7.90234 12.2546 7.24922 13.2345 7.21953C13.4908 7.21211 13.7547 7.21953 14.0562 7.21953ZM18.7902 10.4332C19.0163 10.4332 19.2425 10.4184 19.4686 10.4332C19.7098 10.448 19.8078 10.3664 19.8003 10.1215C19.7852 9.75039 19.7852 9.3793 19.8003 9.0082C19.8154 8.75586 19.7023 8.68906 19.4686 8.69648C19.0766 8.71133 18.6922 8.70391 18.3002 8.69648C17.5841 8.69648 17.3202 8.43672 17.3127 7.73906C17.3127 7.33086 17.3052 6.92266 17.3127 6.51445C17.3202 6.32891 17.2524 6.24726 17.0489 6.25469C16.6493 6.26211 16.2423 6.26953 15.8428 6.25469C15.6015 6.24726 15.5488 6.35117 15.5488 6.56641C15.5638 6.98945 15.5563 7.40508 15.5488 7.82812C15.5412 8.40703 15.2623 8.68906 14.6668 8.69648C14.2296 8.70391 13.7848 8.70391 13.3476 8.69648C13.1441 8.69648 13.0536 8.76328 13.0612 8.97852C13.0762 9.36445 13.0762 9.74297 13.0612 10.1289C13.0536 10.3516 13.129 10.4406 13.3627 10.4332C13.815 10.4184 14.2673 10.4258 14.7196 10.4332C15.2397 10.4406 15.5337 10.7301 15.5488 11.2422C15.5563 11.6727 15.5638 12.1105 15.5488 12.541C15.5412 12.7934 15.6166 12.9047 15.888 12.8898C16.2498 12.875 16.6192 12.875 16.981 12.8898C17.2222 12.8973 17.3202 12.823 17.3127 12.5781C17.2976 12.1328 17.2976 11.6875 17.3127 11.2422C17.3278 10.7301 17.6218 10.4555 18.1494 10.4406C18.368 10.4258 18.5791 10.4332 18.7902 10.4332Z" stroke="#F2F8FF" stroke-width="0.2"/>
<path d="M18.8128 17.7809C20.5466 17.7809 22.2804 17.7809 24.0141 17.7809C24.3534 17.7809 24.6323 17.8773 24.7981 18.1816C25.0393 18.627 24.7604 19.1762 24.2478 19.2504C24.1272 19.2652 23.9991 19.2578 23.8709 19.2578C20.5164 19.2578 17.1619 19.2578 13.8074 19.2578C13.717 19.2578 13.6341 19.2578 13.5436 19.2578C13.1139 19.2281 12.7973 18.9164 12.7973 18.523C12.7973 18.1297 13.1139 17.8031 13.5361 17.7809C13.8753 17.766 14.2145 17.7734 14.5537 17.7734C15.9709 17.7809 17.3881 17.7809 18.8128 17.7809Z" stroke="#F2F8FF" stroke-width="0.2"/>
<path d="M7.46783 31.4074C8.1915 30.4055 8.89255 29.448 9.58606 28.4758C9.78205 28.2086 10.0082 28.0156 10.3625 28.0527C10.958 28.1121 11.2294 28.743 10.8676 29.2551C10.3173 30.0418 9.7519 30.8062 9.18654 31.5855C8.87747 32.0086 8.57594 32.4316 8.26688 32.8547C7.89751 33.3445 7.45275 33.3891 6.98539 32.9883C6.62355 32.6766 6.26926 32.3723 5.91496 32.0531C5.55313 31.7266 5.50036 31.2887 5.77928 30.9695C6.07327 30.6281 6.51048 30.6133 6.91 30.9398C7.09092 31.0809 7.25676 31.2293 7.46783 31.4074Z" stroke="#F2F8FF" stroke-width="0.2"/>
<path d="M7.46783 19.7922C8.20657 18.768 8.93024 17.7734 9.64637 16.7789C9.84236 16.5117 10.1213 16.3484 10.4228 16.4598C10.6489 16.5488 10.8902 16.7566 10.9882 16.9719C11.0635 17.1426 10.9957 17.4469 10.8751 17.6176C10.0082 18.857 9.11869 20.0816 8.22165 21.2988C7.92012 21.707 7.47537 21.7516 7.07584 21.425C6.66124 21.0836 6.26172 20.7273 5.86973 20.3637C5.54559 20.0668 5.53052 19.6363 5.79435 19.332C6.06573 19.0129 6.51802 18.9832 6.87231 19.2652C7.06077 19.4285 7.24168 19.5992 7.46783 19.7922Z" stroke="#F2F8FF" stroke-width="0.2"/>
<path d="M7.46783 25.5961C8.1538 24.6461 8.8247 23.7184 9.4956 22.798C9.91774 22.2191 10.3248 22.0855 10.7394 22.3824C11.1389 22.6793 11.1389 23.0875 10.7319 23.6516C9.93282 24.7574 9.12623 25.8633 8.32718 26.9691C7.90504 27.548 7.48291 27.5926 6.94769 27.125C6.60848 26.8281 6.26926 26.5387 5.93004 26.2344C5.55313 25.893 5.5079 25.4477 5.80189 25.1211C6.08834 24.8094 6.53309 24.802 6.91 25.1137C7.09092 25.2695 7.27184 25.4254 7.46783 25.5961Z" stroke="#F2F8FF" stroke-width="0.2"/>
</g>
</g>
</svg>
