<svg width="37" height="45" viewBox="0 0 37 45" fill="none" xmlns="http://www.w3.org/2000/svg">
<g id="Frame" clip-path="url(#clip0_2198_2949)">
<g id="Group">
<path id="Vector" d="M13.3991 18.7382C13.1746 18.5987 12.9922 18.501 12.8238 18.3894C11.8417 17.7475 11.4909 16.5754 12.0802 15.5568C13.9322 12.3196 15.8123 9.08241 17.7064 5.87311C18.3097 4.84055 19.5163 4.54753 20.5967 5.09171C20.765 5.17544 20.9334 5.27311 21.1438 5.38474C21.2421 5.23125 21.3403 5.09171 21.4244 4.95218C22.14 3.71032 22.8556 2.48241 23.5851 1.24055C24.3287 -0.0292163 25.5213 -0.336193 26.8121 0.389389C28.3695 1.26846 28.6782 2.37078 27.7802 3.90567C27.0226 5.20334 26.279 6.50102 25.4792 7.85451C26.6859 8.4545 27.3453 9.36148 26.9945 10.6731C28.1029 11.1475 29.2254 11.5243 30.2356 12.0964C37.8541 16.3243 39.215 26.6778 32.9575 32.7196C32.7189 32.9568 32.6488 33.1522 32.7189 33.4871C33.0276 34.8685 33.2942 36.2499 33.5467 37.6313C33.6029 37.9103 33.7151 38.0219 33.9957 38.0917C35.2444 38.3708 36.0722 39.4033 36.1003 40.6871C36.1143 41.2313 36.1143 41.7754 36.1003 42.3057C36.0722 43.7987 34.9217 44.9429 33.4205 44.9708C32.4103 44.9847 31.386 44.9708 30.3759 44.9708C21.2701 44.9708 12.1784 44.9708 3.07266 44.9708C1.06631 44.9987 0 43.9382 0 41.9568C0 41.608 0 41.2592 0 40.9103C0 39.1243 1.1084 38.0219 2.93236 38.008C5.9489 38.008 8.96544 38.008 11.982 38.008C14.0024 38.008 16.0087 38.008 18.0992 38.008C18.3658 36.6824 18.6324 35.3847 18.899 34.0173C14.5636 34.0173 10.2703 34.0173 5.9489 34.0173C5.9489 32.6938 5.9489 31.4221 5.9489 30.086C5.9489 29.7296 6.23785 29.4406 6.5943 29.4406C11.3506 29.4406 16.0929 29.4406 20.8492 29.4266C21.1719 29.4266 21.5367 29.301 21.8033 29.1196C23.4729 28.0033 25.2828 27.5987 27.2611 27.9894C27.5978 28.0592 27.8083 27.9754 28.0468 27.7522C31.2177 24.6964 30.1373 19.3801 26.0264 17.7894C25.6757 17.6499 25.4372 17.6638 25.1565 17.9429C24.5111 18.5847 23.6833 18.8219 22.7854 18.7103C22.4487 18.6685 22.2803 18.7801 22.126 19.0592C21.8734 19.5475 21.5788 20.0359 21.2982 20.5103C20.5405 21.7801 19.376 22.101 18.0852 21.3894C17.973 21.3336 17.8748 21.2778 17.7204 21.194C17.4258 21.6964 17.1311 22.1987 16.8505 22.6871C16.4717 23.3289 16.1069 23.9987 15.7141 24.6266C15.1669 25.4778 14.1707 25.8545 13.2447 25.5196C12.7677 25.3382 12.2906 25.0731 11.8838 24.7382C11.084 24.0964 10.9437 23.0219 11.4629 22.0871C12.0802 20.9847 12.7396 19.8964 13.3991 18.7382ZM18.0712 39.6406C15.0266 39.6406 11.9679 39.6406 8.92335 39.6406C6.90297 39.6406 4.89662 39.6406 2.87624 39.6406C2.02038 39.6406 1.62753 40.0312 1.6135 40.8964C1.6135 41.1894 1.6135 41.4824 1.6135 41.7894C1.6135 43.0871 1.92217 43.394 3.227 43.394C13.1184 43.394 23.0099 43.394 32.9013 43.394C33.0557 43.394 33.224 43.394 33.3784 43.394C34.0799 43.3522 34.4587 42.9754 34.5008 42.2638C34.5148 41.901 34.5008 41.5382 34.5008 41.1615C34.5008 39.9615 34.1921 39.6406 32.9715 39.6406C27.9907 39.6406 23.0379 39.6406 18.0712 39.6406ZM31.9613 37.9801C31.6526 36.4452 31.4001 34.9661 31.0353 33.515C30.5442 31.5196 29.2534 30.194 27.2751 29.6499C25.3249 29.1057 23.543 29.5661 22.0979 30.9894C21.6349 31.4499 21.1579 32.008 20.9895 32.608C20.4844 34.3522 20.1196 36.1382 19.6847 37.9661C23.8377 37.9801 27.8644 37.9801 31.9613 37.9801ZM20.9614 17.8871C20.2319 17.0917 19.9372 16.1847 20.1337 15.1661C20.4283 13.6312 21.8173 12.6266 23.4027 12.7522C23.6553 12.7661 23.8938 12.8917 24.0762 12.5429C24.455 11.8173 24.89 11.1196 25.2968 10.408C25.5213 10.0312 25.4512 9.73823 25.0724 9.52892C23.3466 8.53823 21.6209 7.54753 19.8811 6.54288C19.5023 6.33358 19.2217 6.40334 18.9972 6.78009C17.1732 9.91962 15.3493 13.0592 13.5394 16.1847C13.3149 16.5754 13.3991 16.8685 13.7919 17.1057C15.5036 18.0824 17.2153 19.0731 18.927 20.0638C19.3059 20.2871 19.6005 20.2033 19.811 19.8266C20.2038 19.1987 20.5686 18.5568 20.9614 17.8871ZM32.0174 31.394C32.1156 31.2824 32.2138 31.1847 32.298 31.0871C37.9102 24.9475 35.2023 15.0266 27.233 12.5708C26.1106 12.2219 26.1246 12.2359 25.5213 13.2406C25.353 13.5196 25.3951 13.6871 25.5354 13.9801C25.8019 14.5243 26.0124 15.1243 26.1246 15.7243C26.1808 16.0452 26.2369 16.1987 26.5456 16.3103C31.4983 18.208 33.0837 24.2638 29.7164 28.3243C29.6042 28.4638 29.4779 28.6033 29.3797 28.7289C29.8848 29.1475 30.3759 29.4964 30.8108 29.9289C31.2457 30.3615 31.5965 30.8638 32.0174 31.394ZM7.57643 32.3568C7.67464 32.3708 7.73076 32.3987 7.80091 32.3987C11.533 32.3987 15.2651 32.3987 18.9832 32.3987C19.1094 32.3987 19.2918 32.3429 19.3339 32.2592C19.5303 31.8964 19.6987 31.5057 19.8811 31.115C15.7421 31.115 11.6593 31.115 7.57643 31.115C7.57643 31.5615 7.57643 31.9522 7.57643 32.3568ZM22.5469 6.19404C23.08 6.50102 23.5571 6.76613 24.0622 7.05916C24.904 5.59404 25.7458 4.17078 26.5456 2.71962C26.6297 2.56613 26.4894 2.20334 26.3491 2.00799C26.2369 1.84055 25.9703 1.70102 25.7739 1.68706C25.5494 1.65916 25.1846 1.71497 25.1004 1.86846C24.2305 3.27776 23.4168 4.71497 22.5469 6.19404ZM14.8161 19.5336C14.1567 20.6638 13.5113 21.7661 12.8799 22.8685C12.6274 23.315 12.894 23.5661 13.2728 23.7754C13.6516 23.9847 14.0444 24.2638 14.3531 23.7475C15.0266 22.6592 15.6439 21.5429 16.3174 20.3987C15.7983 20.1057 15.3212 19.8266 14.8161 19.5336ZM24.5392 15.7522C24.5392 14.9708 23.9499 14.3568 23.1642 14.3289C22.3645 14.315 21.7051 14.9429 21.7051 15.7243C21.691 16.4917 22.3645 17.1615 23.1362 17.1475C23.9078 17.1475 24.5252 16.5196 24.5392 15.7522Z" fill="#014898" stroke="#F2F8FF" stroke-width="0.2"/>
</g>
</g>
<defs>
<clipPath id="clip0_2198_2949">
<rect width="36.9" height="45" fill="white"/>
</clipPath>
</defs>
</svg>
