<svg width="44" height="42" viewBox="0 0 44 42" fill="none" xmlns="http://www.w3.org/2000/svg">
<path d="M30.617 41C30.4459 40.8086 30.2519 40.6396 30.115 40.4369C29.0655 38.9054 28.0273 37.3851 27.0006 35.8423C26.7382 35.4595 26.4302 35.2568 25.951 35.2342C24.9015 35.1892 23.966 34.7725 23.099 34.1982C21.8098 33.3311 20.8858 32.1486 20.0986 30.8423C19.7449 30.2455 19.4027 29.6486 18.9578 29.0518C18.9578 29.1869 18.9692 29.3333 18.9578 29.4685C18.9236 29.9977 18.9578 30.5495 18.8323 31.0563C18.5243 32.3288 16.9157 33.5113 15.0219 32.4752C14.3945 33.5788 13.4818 34.2095 12.1585 33.9279C10.8807 33.6577 10.2761 32.7568 10.1392 31.4955C9.50035 31.777 8.86148 31.8784 8.19981 31.6644C7.09321 31.3153 6.42012 30.3468 6.42012 29.0631C6.42012 25.6171 6.42012 22.1712 6.42012 18.714C6.42012 18.5676 6.42012 18.4212 6.42012 18.286C5.90675 18.5225 5.43901 18.8041 4.93705 18.9617C3.78482 19.3108 2.71244 19.0968 1.73133 18.4099C1.09247 17.9595 0.864307 17.1599 1.30923 16.5518C2.80371 14.4797 4.25255 12.3514 6.249 10.6959C6.87645 10.1779 7.52672 9.71622 8.19981 9.2545C8.95275 8.77027 9.30641 8.10586 9.295 7.21622C9.28359 6.09009 9.30641 4.96396 9.30641 3.83784C9.30641 3.33108 9.53457 3.06081 9.94527 3.06081C10.3446 3.06081 10.5841 3.34234 10.5841 3.83784C10.5841 5.04279 10.5841 6.25901 10.5613 7.46396C10.5499 8.56757 10.0936 9.44594 9.20373 10.1104C8.77022 10.4369 8.3253 10.741 7.89178 11.045C6.05506 12.3401 4.7317 14.0856 3.40834 15.8423C3.0661 16.3041 2.72385 16.777 2.35879 17.2725C2.95201 17.8131 3.64792 17.9932 4.37805 17.8131C4.81156 17.7005 5.23366 17.4414 5.59873 17.1824C5.90675 16.9685 6.14632 16.6532 6.40871 16.3716C6.64829 16.1126 6.91068 15.8874 7.29856 16.0225C7.72066 16.1802 7.70925 16.5405 7.70925 16.9009C7.70925 19.0968 7.70925 21.2928 7.70925 23.4887C7.70925 25.3018 7.70925 27.1149 7.70925 28.9392C7.70925 29.1306 7.72066 29.3333 7.75488 29.5248C7.89178 30.1329 8.4736 30.5608 9.06683 30.5045C9.69429 30.4482 10.1506 29.9527 10.162 29.3108C10.1734 28.6351 10.162 27.9595 10.162 27.2838C10.162 25.0428 10.162 22.8131 10.162 20.5721C10.162 20.4369 10.1506 20.2905 10.1848 20.1554C10.2647 19.8288 10.4815 19.6374 10.8237 19.6486C11.1774 19.6599 11.3941 19.8739 11.4397 20.2342C11.4512 20.3694 11.4512 20.5158 11.4512 20.6509C11.4512 24.1419 11.4512 27.6329 11.4512 31.1239C11.4512 31.2477 11.4512 31.3829 11.4512 31.5068C11.4854 32.2162 11.9873 32.723 12.6718 32.7342C13.3335 32.7455 13.8697 32.2275 13.9153 31.5405C13.9267 31.4167 13.9153 31.2928 13.9153 31.1577C13.9153 29.4122 13.9153 27.6667 13.9153 25.9212C13.9153 25.3581 14.1435 25.0541 14.5656 25.0653C14.9763 25.0766 15.1931 25.3806 15.2045 25.9437C15.2045 27.3739 15.2045 28.8153 15.2045 30.2455C15.2045 31.0563 15.695 31.6081 16.3909 31.6194C17.1096 31.6194 17.6572 31.045 17.6686 30.2568C17.6801 29.0518 17.6801 27.8356 17.6686 26.6306C17.6686 26.473 17.6116 26.3041 17.5432 26.1577C17.0412 25.1667 16.3225 24.3333 15.4326 23.6351C14.9421 23.2523 14.5884 22.7568 14.4401 22.1486C14.1777 21.045 14.6112 19.9302 15.5695 19.3108C16.5164 18.7027 17.7371 18.7252 18.6498 19.4234C19.4483 20.0315 20.2241 20.6734 21.0227 21.3041C21.1253 21.3829 21.2394 21.4617 21.422 21.5968C21.422 21.3604 21.422 21.214 21.422 21.0563C21.422 18.9054 21.3991 16.7432 21.4334 14.5923C21.4676 12.4977 20.5663 10.8986 18.8551 9.72748C18.0223 9.15315 17.6572 8.45495 17.6686 7.46396C17.7143 4.81757 17.7143 5.41441 17.7257 2.76802C17.7257 2.63288 17.7257 2.48649 17.7257 2.31757C15.3642 2.31757 13.0141 2.31757 10.6069 2.31757C10.6069 2.84685 10.6069 3.37613 10.6069 3.90541C10.6069 4.4009 10.3674 4.67117 9.95668 4.67117C9.5688 4.65991 9.32922 4.38964 9.32922 3.92793C9.32922 3.20721 9.32922 2.48649 9.34063 1.77703C9.35204 1.22523 9.5802 1 10.1164 1C12.8201 1 15.5353 1 18.2391 1C18.8095 1 19.0262 1.23649 19.0148 1.85586C19.0034 4.78378 18.992 4.46847 18.9464 7.3964C18.935 7.98198 19.1175 8.3536 19.608 8.69144C21.6501 10.1216 22.7567 12.0473 22.6997 14.5698C22.6883 15.0428 22.7225 15.527 22.6883 16C22.6655 16.3604 22.7909 16.5405 23.1218 16.7095C24.9813 17.6104 26.8409 18.5338 28.689 19.4797C29.4077 19.8513 30.0922 20.2793 30.7767 20.7072C33.0812 22.1486 34.0509 24.2207 33.7315 26.8896C33.6972 27.1374 33.6516 27.4077 33.6972 27.6441C33.7657 27.982 33.8569 28.3198 34.0281 28.6126C34.3019 29.0856 34.6555 29.5135 34.9749 29.964C35.2373 30.3468 35.1803 30.7072 34.8609 30.9212C34.5528 31.1239 34.1992 31.045 33.9368 30.6959C33.5489 30.1779 33.161 29.6486 32.8074 29.1081C32.3739 28.455 32.3967 27.7342 32.4309 26.991C32.4651 26.3604 32.4651 25.7297 32.4309 25.0991C32.3625 24.0968 31.9061 23.2523 31.1304 22.6104C30.4573 22.0586 29.75 21.5068 28.9856 21.0901C26.9892 20.009 24.9471 19.0068 22.9164 17.982C22.8708 17.9595 22.8138 17.9482 22.6997 17.9144C22.6997 18.0946 22.6997 18.2523 22.6997 18.3986C22.6997 19.705 22.7111 21.0113 22.6883 22.3288C22.6883 22.6667 22.8024 22.9032 23.0077 23.1622C23.4754 23.759 23.909 24.3896 24.3082 25.0315C24.5592 25.4257 24.4451 25.7973 24.1029 25.9775C23.7492 26.1689 23.3956 26.0225 23.1674 25.5833C22.5628 24.4009 21.6729 23.455 20.669 22.6216C19.8134 21.9009 18.9236 21.2252 18.0451 20.527C17.3378 19.964 16.505 19.9865 15.9802 20.5833C15.4326 21.2027 15.5125 22.036 16.254 22.6216C17.4975 23.6239 18.3531 24.8851 19.0833 26.2815C19.9845 27.982 20.9314 29.6712 21.9467 31.3041C22.5057 32.205 23.3157 32.9482 24.2968 33.4099C24.8901 33.6914 25.5517 33.8604 26.202 33.9617C26.955 34.0856 27.5368 34.3896 27.9703 35.009C28.9628 36.4842 29.9667 37.9595 30.9707 39.4234C31.0619 39.5586 31.2673 39.705 31.427 39.705C34.3019 39.7162 37.1881 39.7162 40.063 39.7162C40.1087 39.7162 40.1429 39.7049 40.2341 39.6824C40.1429 39.536 40.063 39.4122 39.9832 39.2883C38.6142 37.3513 37.2566 35.4032 35.8876 33.4662C35.7849 33.3311 35.6252 33.1734 35.6366 33.0383C35.648 32.8018 35.6937 32.464 35.8534 32.3514C36.0131 32.2275 36.3439 32.2838 36.5835 32.3288C36.6862 32.3513 36.7775 32.5203 36.8573 32.6329C38.5343 35.009 40.2113 37.3964 41.8769 39.7725C42.2648 40.3243 42.2306 40.5608 41.7172 40.9775C38.0324 41 34.3247 41 30.617 41Z" fill="#014898" stroke="#014898" stroke-width="0.1"/>
</svg>
