<svg width="255" height="57" viewBox="0 0 255 57" fill="none" xmlns="http://www.w3.org/2000/svg">
<g clip-path="url(#clip0_2079_434)">
<path d="M26.5947 27.288H0.835938V0.960327H26.5947V27.288ZM55.0373 27.288H29.2786V0.960327H55.0373V27.288ZM26.5947 56.3675H0.835938V30.0399H26.5947V56.3675ZM55.0373 56.3675H29.2786V30.0399H55.0373V56.3675ZM255 26.9641V22.4007H249.454V15.3053L249.268 15.3642L244.059 16.9921L243.956 17.025V22.4007H235.735V19.4046C235.735 18.0104 236.04 16.9453 236.641 16.2318C237.239 15.5287 238.093 15.1719 239.183 15.1719C239.966 15.1719 240.776 15.359 241.592 15.7313L241.797 15.8248V11.0189L241.701 10.9826C240.94 10.702 239.905 10.5617 238.62 10.5617C237.004 10.5617 235.533 10.9219 234.252 11.6355C232.969 12.349 231.961 13.3673 231.253 14.6628C230.55 15.9582 230.192 17.4528 230.192 19.1084V22.3989H226.331V26.9641H230.192V46.1929H235.735V26.9641H243.956V39.1841C243.956 44.2168 246.279 46.7661 250.859 46.7661C251.651 46.7614 252.439 46.6726 253.213 46.5011C254.036 46.3193 254.597 46.1375 254.927 45.9452L255 45.9002V41.2935L254.775 41.4459C254.431 41.6702 254.055 41.8379 253.66 41.9429C253.219 42.0693 252.85 42.1334 252.565 42.1334C251.493 42.1334 250.698 41.839 250.205 41.2554C249.707 40.6665 249.454 39.6378 249.454 38.1986V26.9641H255ZM213.951 42.1351C211.94 42.1351 210.354 41.4528 209.235 40.1089C208.11 38.758 207.541 36.8357 207.541 34.3886C207.541 31.867 208.11 29.8927 209.235 28.5176C210.354 27.1529 211.926 26.4601 213.907 26.4601C215.829 26.4601 217.359 27.1217 218.455 28.4275C219.556 29.7403 220.115 31.7007 220.115 34.2517C220.115 36.8357 219.59 38.8204 218.553 40.147C217.523 41.4649 215.976 42.1351 213.951 42.1351ZM214.198 21.8274C210.359 21.8274 207.311 22.9774 205.137 25.2444C202.964 27.5131 201.863 30.6495 201.863 34.5721C201.863 38.2956 202.937 41.2935 205.059 43.4773C207.18 45.6595 210.066 46.7678 213.636 46.7678C217.357 46.7678 220.346 45.6006 222.518 43.3024C224.692 41.006 225.792 37.899 225.792 34.0664C225.792 30.2841 224.76 27.2654 222.721 25.0954C220.681 22.9272 217.814 21.8274 214.198 21.8274ZM192.925 21.8274C190.314 21.8274 188.155 22.5098 186.505 23.8554C184.844 25.2097 184.002 26.9849 184.002 29.1341C184.002 30.2512 184.185 31.2435 184.543 32.0852C184.902 32.9286 185.459 33.6733 186.198 34.2968C186.933 34.915 188.065 35.5645 189.568 36.2243C190.831 36.7543 191.773 37.2028 192.371 37.5579C192.955 37.9042 193.369 38.2541 193.604 38.5935C193.831 38.926 193.947 39.3798 193.947 39.9426C193.947 41.5394 192.776 42.3187 190.366 42.3187C189.472 42.3187 188.452 42.1282 187.335 41.7507C186.226 41.3806 185.18 40.8385 184.232 40.1435L184.002 39.9738V45.4291L184.087 45.469C184.871 45.8396 185.859 46.1513 187.025 46.3972C188.056 46.6277 189.107 46.7519 190.163 46.7678C192.998 46.7678 195.278 46.082 196.944 44.7277C198.62 43.3648 199.469 41.5463 199.469 39.3243C199.469 37.7189 199.011 36.3456 198.11 35.2354C197.215 34.1357 195.663 33.126 193.496 32.2324C191.771 31.5241 190.665 30.937 190.209 30.485C189.768 30.0503 189.546 29.4337 189.546 28.6527C189.546 27.9599 189.821 27.4057 190.387 26.9572C190.958 26.5069 191.751 26.2766 192.745 26.2766C193.669 26.2766 194.614 26.4255 195.555 26.7182C196.424 26.9774 197.251 27.3692 198.007 27.8803L198.234 28.0396V22.8631L198.145 22.825C197.512 22.5461 196.673 22.3072 195.656 22.1149C194.756 21.9345 193.842 21.8377 192.925 21.8257V21.8274ZM169.552 42.1351C167.541 42.1351 165.953 41.4528 164.835 40.1089C163.711 38.758 163.14 36.8357 163.14 34.3886C163.14 31.867 163.711 29.8927 164.836 28.5176C165.955 27.1529 167.525 26.4601 169.508 26.4601C171.428 26.4601 172.958 27.1217 174.054 28.4275C175.157 29.7403 175.715 31.7007 175.715 34.2517C175.715 36.8357 175.189 38.8204 174.152 40.147C173.124 41.4649 171.577 42.1351 169.552 42.1351ZM169.799 21.8274C165.96 21.8274 162.91 22.9774 160.738 25.2444C158.565 27.5131 157.462 30.6495 157.462 34.5721C157.462 38.2991 158.538 41.2935 160.66 43.4773C162.781 45.6595 165.667 46.7678 169.237 46.7678C172.958 46.7678 175.947 45.6006 178.119 43.3024C180.291 41.006 181.393 37.899 181.393 34.0664C181.393 30.2841 180.359 27.2654 178.321 25.0954C176.282 22.9272 173.415 21.8274 169.799 21.8274ZM149.048 26.5208V22.3989H143.575V46.1929H149.049V34.0214C149.049 31.9518 149.509 30.2529 150.415 28.9679C151.31 27.7001 152.501 27.0559 153.956 27.0559C154.45 27.0559 155.004 27.139 155.603 27.3035C156.196 27.4681 156.627 27.6447 156.879 27.8318L157.11 28.0015V22.3608L157.022 22.3227C156.512 22.1011 155.79 21.9902 154.877 21.9902C153.539 21.9763 152.24 22.4518 151.215 23.3307C150.29 24.1135 149.62 25.1855 149.109 26.5225H149.049L149.048 26.5208ZM133.767 21.8274C131.254 21.8274 129.014 22.3782 127.108 23.464C125.227 24.5214 123.698 26.1285 122.716 28.0794C121.717 30.0485 121.208 32.3502 121.208 34.9168C121.208 37.1647 121.7 39.2291 122.674 41.0458C123.612 42.8308 125.035 44.3011 126.771 45.2802C128.515 46.2673 130.528 46.7678 132.757 46.7678C135.36 46.7678 137.581 46.2362 139.362 45.1867L139.435 45.1451V40.0188L139.205 40.1885C138.385 40.7957 137.482 41.2759 136.526 41.6139C135.558 41.9602 134.676 42.1334 133.901 42.1334C131.753 42.1334 130.029 41.4476 128.777 40.0933C127.523 38.7355 126.886 36.8305 126.886 34.4336C126.886 32.0228 127.549 30.0693 128.857 28.6267C130.162 27.1892 131.888 26.4619 133.991 26.4619C135.792 26.4619 137.546 27.0836 139.205 28.315L139.435 28.4847V23.0813L139.361 23.0397C138.737 22.6812 137.885 22.3868 136.827 22.1634C135.821 21.9454 134.796 21.8328 133.767 21.8274ZM117.436 22.4007H111.962V46.1929H117.436V22.4007ZM114.754 12.2659C113.854 12.2659 113.068 12.5776 112.421 13.2011C111.774 13.8245 111.445 14.6073 111.445 15.5339C111.445 16.4448 111.769 17.2138 112.411 17.8217C113.05 18.4278 113.839 18.7326 114.754 18.7326C115.624 18.7499 116.468 18.4243 117.109 17.8234C117.758 17.2155 118.089 16.4448 118.089 15.5339C118.089 14.6402 117.767 13.8644 117.135 13.2253C116.504 12.588 115.703 12.2659 114.754 12.2659ZM101.092 20.6463V46.1911H106.68V12.9932H98.9468L89.1157 37.6531L79.5761 12.9915H71.5275V46.1911H76.7769V20.6428H76.9582L87.0316 46.1929H90.9965L100.912 20.6463H101.092Z" fill="white"/>
</g>
<defs>
<clipPath id="clip0_2079_434">
<rect width="254.164" height="55.4193" fill="white" transform="translate(0.835938 0.955444)"/>
</clipPath>
</defs>
</svg>
