<svg width="102" height="100" viewBox="0 0 102 100" fill="none" xmlns="http://www.w3.org/2000/svg">
<path d="M1.51663 37.2891H6.70362V46.32H16.7756V37.2891H21.9626V61.5107H16.7756V51.0416H6.70362V61.5107H1.51562V37.2891H1.51663ZM26.3446 37.2891H31.5306V61.5107H26.3456L26.3446 37.2891ZM35.9166 37.2891H44.6596C45.8796 37.2891 47.0316 37.4025 48.1176 37.6313C49.2036 37.8592 50.1456 38.2581 50.9436 38.8282C51.7636 39.3757 52.4066 40.1282 52.8716 41.086C53.3596 42.0221 53.6026 43.2076 53.6026 44.6447C53.6026 46.0581 53.3816 47.2447 52.9386 48.2014C52.4946 49.1602 51.8856 49.9241 51.1096 50.4942C50.3336 51.0643 49.4146 51.4757 48.3496 51.7262C47.2116 51.9617 46.0533 52.0764 44.8926 52.0684H41.1026V61.5107H35.9166V37.2891ZM41.1026 47.552H44.5606C45.0073 47.5538 45.453 47.5082 45.8906 47.4159C46.3002 47.3373 46.6936 47.1866 47.0536 46.9705C47.4086 46.7427 47.6856 46.4458 47.8846 46.0808C48.1066 45.6932 48.2176 45.2148 48.2176 44.6447C48.2176 44.0282 48.0726 43.5385 47.7846 43.1736C47.5151 42.7827 47.1472 42.4751 46.7206 42.2839C46.3006 42.0777 45.8236 41.954 45.2906 41.9076C44.7606 41.8385 44.2506 41.8045 43.7626 41.8045H41.1026V47.552ZM60.2816 37.2891H64.5706L74.8106 61.5107H68.9586L66.9306 56.3788H57.7876L55.8266 61.5107H50.1086L60.2816 37.2891ZM62.2766 44.3365L59.4166 51.8623H65.1686L62.2766 44.3365ZM85.9206 37.2891H90.2096L100.45 61.5107H94.5976L92.5706 56.3788H83.4276L81.4656 61.5107H75.7476L85.9206 37.2891ZM87.9156 44.3365L85.0566 51.8623H90.8086L87.9156 44.3365Z" fill="#44579E"/>
<path d="M10.3677 75.1321C9.85071 75.8506 9.25371 76.3661 8.57571 76.6785C7.88238 76.9944 7.1317 77.1543 6.37371 77.1475C5.60045 77.1567 4.83264 77.0132 4.11171 76.7248C3.45703 76.4496 2.86312 76.0408 2.36571 75.5228C1.87287 74.991 1.48591 74.3647 1.22671 73.6795C0.94815 72.9316 0.809047 72.1362 0.816706 71.3352C0.816706 70.4919 0.953706 69.7166 1.22671 69.0073C1.48362 68.3255 1.87097 67.7038 2.36571 67.1795C2.85961 66.6531 3.45416 66.2381 4.11171 65.9609C4.83054 65.6635 5.59918 65.515 6.37371 65.5238C7.10371 65.5238 7.78071 65.6589 8.40871 65.93C9.04671 66.1898 9.60271 66.6331 10.0787 67.2578L9.25871 67.9609C8.946 67.4591 8.49753 67.0627 7.96871 66.8207C7.46823 66.5841 6.9243 66.461 6.37371 66.4599C5.67571 66.4599 5.04371 66.5857 4.47671 66.8362C3.93644 67.0739 3.45011 67.425 3.04871 67.8671C2.6483 68.3148 2.33888 68.8406 2.13871 69.4135C1.92203 70.0293 1.81366 70.6801 1.81871 71.3352C1.81871 72.0228 1.92571 72.664 2.13871 73.2578C2.35071 73.8506 2.65471 74.3661 3.04871 74.8042C3.44371 75.2413 3.91871 75.5857 4.47671 75.8352C5.04271 76.0857 5.67571 76.2104 6.37371 76.2104C6.64771 76.2104 6.93071 76.1795 7.22371 76.1166C7.51771 76.0444 7.80171 75.9393 8.07371 75.8042C8.35771 75.6578 8.62671 75.4815 8.87971 75.2723C9.13271 75.0537 9.35471 74.7939 9.54771 74.4919L10.3677 75.1321ZM13.1777 71.3352C13.1777 70.4919 13.3147 69.7166 13.5877 69.0073C13.8446 68.3255 14.232 67.7038 14.7267 67.1795C15.2206 66.6531 15.8151 66.2381 16.4727 65.9609C17.1915 65.6635 17.9602 65.5149 18.7347 65.5238C19.5547 65.5238 20.3037 65.6692 20.9817 65.9609C21.6451 66.2353 22.2451 66.6505 22.7427 67.1795C23.2378 67.7038 23.6255 68.3254 23.8827 69.0073C24.1557 69.7156 24.2927 70.4919 24.2927 71.3352C24.2927 72.1795 24.1557 72.9609 23.8827 73.6795C23.6232 74.3648 23.2359 74.9911 22.7427 75.5228C22.2419 76.0436 21.6429 76.453 20.9827 76.7259C20.3027 77.0073 19.5547 77.1486 18.7347 77.1486C17.9615 77.1572 17.1938 77.0138 16.4727 76.7259C15.8179 76.4504 15.224 76.0412 14.7267 75.5228C14.2335 74.9911 13.8462 74.3648 13.5867 73.6795C13.3085 72.9315 13.1698 72.1362 13.1777 71.3352ZM14.1797 71.3352C14.1797 72.0228 14.2857 72.664 14.4987 73.2578C14.7117 73.8506 15.0147 74.3661 15.4097 74.8042C15.8047 75.2413 16.2797 75.5857 16.8367 75.8352C17.4037 76.0857 18.0367 76.2104 18.7347 76.2104C19.4327 76.2104 20.0607 76.0857 20.6177 75.8352C21.1635 75.6001 21.6549 75.2488 22.0597 74.8042C22.4547 74.3661 22.7587 73.8506 22.9707 73.2578C23.1872 72.6416 23.2952 71.9905 23.2897 71.3352C23.2897 70.6486 23.1837 70.0073 22.9707 69.4135C22.7706 68.8406 22.4612 68.3148 22.0607 67.8671C21.6556 67.4224 21.1638 67.0711 20.6177 66.8362C20.0607 66.5857 19.4337 66.4609 18.7347 66.4609C18.0367 66.4609 17.4037 66.5857 16.8367 66.8362C16.2968 67.074 15.8108 67.4251 15.4097 67.8671C15.0089 68.3147 14.6991 68.8405 14.4987 69.4135C14.2823 70.0294 14.1743 70.6801 14.1797 71.3352ZM28.2547 65.8053H29.7577L33.6747 75.0857L37.5917 65.8053H39.0187V76.8671H38.0167V67.1166H37.9867L33.8867 76.8661H33.4467L29.2867 67.1166H29.2567V76.8661H28.2547V65.8053ZM43.5237 65.8053H46.6207C46.9957 65.8053 47.3857 65.8516 47.7907 65.9455C48.2047 66.0279 48.5797 66.1795 48.9137 66.3991C49.2577 66.6176 49.5367 66.9197 49.7487 67.3042C49.9717 67.6795 50.0827 68.1537 50.0827 68.7269C50.0827 69.2259 49.9917 69.6589 49.8097 70.0228C49.6377 70.3877 49.3997 70.6898 49.0957 70.93C48.7862 71.1671 48.4361 71.342 48.0637 71.4455C47.6787 71.5589 47.2737 71.6166 46.8487 71.6166H44.5257V76.8661H43.5237V65.8053ZM44.5257 70.6795H46.8027C47.0867 70.6795 47.3647 70.6486 47.6387 70.5857C47.8975 70.5192 48.1436 70.4084 48.3667 70.2578C48.5823 70.0986 48.7593 69.89 48.8837 69.6486C49.0147 69.398 49.0807 69.0919 49.0807 68.7269C49.0807 68.3723 49.0107 68.0702 48.8677 67.8197C48.7409 67.5757 48.5587 67.367 48.3367 67.2114C48.1153 67.04 47.862 66.9172 47.5927 66.8506C47.3147 66.7789 47.0293 66.7425 46.7427 66.7424H44.5257V70.6795ZM53.9117 65.8053H54.9147V75.929H59.9247V76.8671H53.9117V65.8053ZM63.3257 65.8053H64.3277V76.8671H63.3257V65.8053ZM72.2357 65.8053H73.2667L77.7917 76.8671H76.6687L75.4997 73.929H69.8067L68.5917 76.8671H67.5437L72.2357 65.8053ZM72.7057 66.929L70.2007 72.9908H75.1347L72.7057 66.929ZM81.1557 65.8053H82.4457L88.9897 75.4919H89.0207V65.8042H90.0227V76.8661H88.7327L82.1887 67.1795H82.1587V76.8661H81.1557V65.8053ZM96.8757 66.7424H93.2007V65.8042H101.552V66.7424H97.8777V76.8661H96.8757V66.7424Z" fill="#44579E"/>
<path d="M32.0417 81.1094H26.8047C34.4617 89.998 45.8497 94.1063 50.8227 95.4537V91.8846C40.3527 88.3826 33.9397 83.2197 32.0417 81.1094Z" fill="#44579E"/>
<path d="M69.5012 80.9297H74.5012C66.8442 89.8194 55.6732 94.0379 50.6992 95.3854V91.8153C61.1712 88.3132 67.6032 83.04 69.5012 80.9297Z" fill="#44579E"/>
<path d="M16.6651 11.9484V32.9587H50.8601V28.1102H48.2751V22.2525H42.3181V16.9999H48.2741V10.9381H50.6951V8.64942C31.8991 8.59478 20.1771 10.8267 16.6651 11.9484Z" fill="#44579E"/>
<path d="M84.7312 11.8824V32.9608H50.6992V28.1113H53.1212V22.1865H59.0762V17.0669H53.1862V10.9391H50.6992V8.64941C69.4952 8.59581 81.2192 10.7608 84.7312 11.8824Z" fill="#44579E"/>
<path d="M9.28407 32.9934V33.0449H12.1331V8.14803C16.9411 6.70782 31.2841 3.84906 50.4991 3.84906C69.7151 3.84906 84.0321 6.80576 88.9471 8.2903L89.1421 32.8913V32.9418H91.9141V32.8903C91.9361 28.8491 91.9581 22.6944 91.9221 17.3604C91.9041 14.6934 91.8721 12.2315 91.8171 10.3418C91.7973 9.55439 91.7647 8.76733 91.7191 7.98102C91.6801 7.37071 91.6351 6.94184 91.5811 6.74597L91.5761 6.73463C91.3061 6.26349 90.7951 5.89339 90.2711 5.62122C89.8221 5.39103 89.349 5.21462 88.8611 5.09545C84.3171 3.70061 70.2921 0.931534 50.5001 0.985142C25.7571 1.05215 13.9071 4.55525 11.4801 5.36452C10.4931 5.69442 9.92207 6.44906 9.61007 7.25318C9.34614 7.95404 9.23518 8.70622 9.28507 9.45628V32.9934H9.28407Z" fill="#44579E" stroke="#44579E" stroke-width="0.1"/>
<path d="M12 32.9554H15.489C15.489 32.0131 15.555 26.1667 15.555 10.8667C28.12 7.84917 44.219 7.18525 50.698 7.22855L50.5 3.09453C31.18 3.04092 16.756 5.75948 12 7.21824V32.9554Z" fill="#44579E"/>
<path d="M91.4961 32.9561H85.8381V10.8685C73.2731 7.85095 57.1731 7.186 50.6941 7.23136L49.4961 2.57878C68.8161 2.52517 84.3551 5.7726 89.1111 7.23136L91.4961 32.9561Z" fill="#44579E"/>
<path d="M50.6293 98.4812C34.5563 93.4709 25.6223 84.8555 23.1133 81.174H28.6783C33.5213 86.4936 37.9983 90.5606 50.6293 94.3318C64.2423 90.1297 71.7053 83.9153 73.9963 80.9297H78.4963C75.3983 84.8802 65.3933 94.1183 50.6293 98.4812Z" fill="#44579E" stroke="#44579E" stroke-width="0.1"/>
<path d="M50.6933 81.1797V90.5405C42.6833 88.1694 35.9683 83.3127 33.6133 81.1797H50.6933Z" fill="#44579E"/>
<path d="M50.6992 81.1797V90.5405C58.7092 88.1694 65.4242 83.3127 67.7802 81.1797H50.7012H50.6992Z" fill="#44579E"/>
</svg>
