<svg width="169" height="101" viewBox="0 0 169 101" fill="none" xmlns="http://www.w3.org/2000/svg">
<mask id="mask0_2277_27707" style="mask-type:luminance" maskUnits="userSpaceOnUse" x="0" y="0" width="169" height="101">
<path d="M169 0V100.138H0V0H169Z" fill="white"/>
</mask>
<g mask="url(#mask0_2277_27707)">
<path d="M0.34375 0.078125H15.1698V25.9213H43.9629V0.078125H58.7865V69.3835H43.9629V39.4287H15.1674V69.3835H0.34495L0.34375 0.078125ZM72.0708 0.078125H86.8957V55.2878H116.278V69.3835H72.0708V0.078125ZM152.476 13.5867H119.216V0.078125H168.442V12.9997L141.548 69.3822H124.918L152.476 13.588V13.5867Z" fill="#ED2730"/>
<path d="M2.66016 81.1744H4.80062V99.7614H2.66016V81.1744ZM9.17873 90.389C9.17873 89.8291 9.16193 89.3037 9.12714 88.8142C9.09354 88.3233 9.07674 87.8769 9.07674 87.4749H10.9628C10.9628 87.8079 10.9712 88.1408 10.988 88.4726C11.0048 88.8055 11.0132 89.1459 11.0132 89.4961H11.0648C11.2114 89.1821 11.4 88.8907 11.6251 88.6304C11.888 88.3439 12.1884 88.0965 12.5178 87.8954C12.8712 87.6608 13.2577 87.4836 13.6636 87.3701C14.1093 87.2269 14.5741 87.1562 15.041 87.1604C15.8221 87.1604 16.4928 87.2825 17.0543 87.5267C17.6314 87.7721 18.1077 88.1137 18.4821 88.5502C18.854 88.9893 19.1264 89.522 19.2979 90.1534C19.4905 90.8087 19.5848 91.4902 19.5775 92.1747V99.7614H17.5894V92.3843C17.5894 91.3521 17.3686 90.5382 16.9271 89.9425C16.4844 89.3469 15.7969 89.0497 14.8622 89.0497C14.2167 89.0497 13.6552 89.1632 13.1801 89.3913C12.7265 89.6145 12.3328 89.9481 12.0331 90.3631C11.7451 90.7824 11.5232 91.2818 11.3708 91.859C11.2293 92.4872 11.1608 93.1305 11.1668 93.7754V99.7614H9.17873V90.389ZM30.1202 89.2075H26.6024V95.3502C26.6024 95.7534 26.6096 96.1296 26.6264 96.4798C26.6444 96.8128 26.7128 97.1087 26.8303 97.3727C26.9503 97.6168 27.1279 97.8191 27.3667 97.9769C27.6042 98.1163 27.9438 98.1866 28.3865 98.1866C28.9956 98.1828 29.5961 98.0391 30.1442 97.766L30.221 99.6294C29.8815 99.7873 29.4987 99.9007 29.074 99.971C28.6661 100.041 28.2749 100.076 27.9018 100.076C27.1879 100.076 26.618 99.9797 26.1944 99.7873C25.7957 99.6163 25.4513 99.3345 25.1998 98.9734C24.9477 98.5867 24.7822 98.1474 24.7151 97.6871C24.6446 97.1125 24.6109 96.5337 24.6143 95.9545V89.2088H22.0143V87.4761H24.6143V83.9849H26.6012V87.4749H30.119V89.2088L30.1202 89.2075ZM43.4645 97.5293C42.7506 98.4751 41.9696 99.1399 41.1189 99.5246C40.2694 99.8921 39.2832 100.076 38.1626 100.076C37.2279 100.076 36.3868 99.9106 35.6394 99.5776C34.9194 99.2478 34.2699 98.7751 33.7281 98.1866C33.2064 97.5883 32.8001 96.8936 32.5306 96.1394C32.255 95.3291 32.117 94.476 32.1227 93.6175C32.1227 92.6729 32.2751 91.8059 32.581 91.0191C32.8626 90.2531 33.2966 89.5559 33.8552 88.972C34.4 88.3936 35.0455 87.9484 35.7917 87.6327C36.5695 87.3114 37.4012 87.1505 38.2393 87.1592C39.072 87.1592 39.8363 87.3084 40.5334 87.6056C41.216 87.8762 41.8271 88.3079 42.3175 88.8659C42.8262 89.4086 43.2174 90.0819 43.4897 90.8884C43.7609 91.6752 43.8977 92.5767 43.8977 93.5916V94.2477H34.2632C34.298 94.773 34.4155 95.2811 34.6195 95.7707C34.8415 96.243 35.121 96.6636 35.4606 97.0311C35.8013 97.3813 36.1997 97.66 36.6592 97.8709C37.1175 98.0805 37.619 98.1866 38.1626 98.1866C39.0288 98.1866 39.7595 98.0287 40.3546 97.7143C40.9497 97.3986 41.4848 96.9349 41.96 96.322L43.4645 97.5293ZM41.756 92.515C41.7224 91.4656 41.3912 90.6257 40.7625 89.9956C40.1338 89.3654 39.2676 89.0497 38.1626 89.0497C37.0587 89.0497 36.1661 89.3654 35.487 89.9956C34.8067 90.6245 34.4 91.4656 34.2632 92.515H41.756ZM47.2271 90.389C47.2271 89.8291 47.2103 89.3037 47.1767 88.8142C47.1431 88.3233 47.1251 87.8769 47.1251 87.4749H49.0112C49.0112 87.8079 49.0196 88.1408 49.0376 88.4726C49.0544 88.8055 49.0616 89.1459 49.0616 89.4961H49.1132C49.25 89.1989 49.4372 88.9104 49.6747 88.6304C49.9291 88.3492 50.2267 88.1051 50.5662 87.8954C50.9058 87.6673 51.2885 87.4922 51.7132 87.3701C52.2896 87.185 52.8966 87.1221 53.4973 87.1851C53.6369 87.2039 53.7738 87.2395 53.9053 87.2911L53.7781 89.3654C53.4304 89.259 53.0694 89.2058 52.7067 89.2075C51.4829 89.2075 50.5914 89.6194 50.0311 90.4408C49.4876 91.246 49.2152 92.3584 49.2152 93.7754V99.7614H47.2271V90.389ZM56.1873 90.389C56.1873 89.8291 56.1705 89.3037 56.1369 88.8142C56.1033 88.3233 56.0853 87.8769 56.0853 87.4749H57.9714C57.9714 87.8079 57.981 88.1408 57.9978 88.4726C58.0146 88.8055 58.0218 89.1459 58.0218 89.4961H58.0734C58.2102 89.1989 58.3974 88.9104 58.6349 88.6304C58.8893 88.3492 59.1868 88.1051 59.5264 87.8954C59.8805 87.6614 60.2673 87.4842 60.6734 87.3701C61.1187 87.2267 61.583 87.1559 62.0496 87.1604C62.8307 87.1604 63.5014 87.2825 64.0629 87.5267C64.6412 87.7721 65.1163 88.1137 65.4906 88.5502C65.8638 88.9893 66.1361 89.522 66.3065 90.1534C66.4993 90.8086 66.5936 91.4902 66.5861 92.1747V99.7614H64.598V92.3843C64.598 91.3521 64.3772 90.5382 63.9357 89.9425C63.4942 89.3469 62.8055 89.0497 61.872 89.0497C61.2253 89.0497 60.665 89.1632 60.1887 89.3913C59.7352 89.6145 59.3414 89.9481 59.0417 90.3631C58.7537 90.7824 58.533 91.2818 58.3794 91.859C58.2438 92.4361 58.1754 93.0749 58.1754 93.7754V99.7614H56.1873V90.389ZM70.4519 89.0497C71.0549 88.4075 71.7975 87.9214 72.6187 87.6315C73.4433 87.3211 74.3142 87.1613 75.1923 87.1592C76.9596 87.1592 78.2338 87.5883 79.0149 88.4467C79.7972 89.3037 80.1883 90.6072 80.1883 92.3584V97.6353C80.1883 97.9843 80.2051 98.3518 80.2387 98.7378C80.2723 99.1053 80.3155 99.4469 80.3659 99.7614H78.4546C78.3836 99.4601 78.341 99.1524 78.3274 98.8426V97.9239H78.2758C77.8847 98.5528 77.3592 99.0708 76.6957 99.4728C76.0502 99.8748 75.2679 100.077 74.3513 100.077C73.7659 100.081 73.1829 100.001 72.6187 99.8403C72.1172 99.6952 71.643 99.4642 71.2161 99.1571C70.8268 98.8442 70.5056 98.451 70.2731 98.0028C70.0355 97.5465 69.9168 97.0224 69.9168 96.4268C69.9168 95.4118 70.1711 94.6152 70.681 94.038C71.1971 93.4562 71.845 93.0143 72.5671 92.7518C73.3568 92.4662 74.1799 92.2896 75.0148 92.2265C75.8198 92.1598 76.6271 92.1248 77.4348 92.1216H78.2002V91.7541C78.2002 90.8613 77.9363 90.188 77.4096 89.7317C76.8996 89.2778 76.1774 89.0497 75.2439 89.0497C74.5972 89.0497 73.9601 89.1632 73.3314 89.3913C72.7195 89.6009 72.176 89.9339 71.6997 90.389L70.4519 89.0497ZM76.211 93.8543C74.938 93.8543 73.9265 94.038 73.179 94.4055C72.4316 94.773 72.0572 95.3773 72.0572 96.2171C72.0572 96.9867 72.3032 97.5379 72.7963 97.8709C73.3062 98.1866 73.9349 98.3432 74.6824 98.3432C75.2595 98.3432 75.7622 98.247 76.187 98.0546C76.6285 97.845 76.9932 97.5737 77.2824 97.2407C77.5703 96.9077 77.7923 96.5242 77.9447 96.0864C78.0983 95.6301 78.1822 95.1492 78.2002 94.6423V93.8543H76.2122H76.211ZM90.6003 89.2075H87.0848V95.3502C87.0848 95.7534 87.0932 96.1296 87.11 96.4798C87.1268 96.8128 87.194 97.1087 87.314 97.3727C87.4328 97.6168 87.6116 97.8191 87.8491 97.9769C88.0867 98.1163 88.4262 98.1866 88.869 98.1866C89.1569 98.1866 89.4545 98.1508 89.7604 98.0805C90.061 98.0126 90.3524 97.907 90.6279 97.766L90.7035 99.6294C90.3375 99.7948 89.9518 99.9096 89.5565 99.971C89.1485 100.041 88.7586 100.076 88.3842 100.076C87.6704 100.076 87.1004 99.9797 86.6769 99.7873C86.2781 99.6164 85.9336 99.3346 85.6823 98.9734C85.4305 98.5867 85.2654 98.1474 85.1987 97.6871C85.1278 97.1125 85.0937 96.5337 85.0968 95.9545V89.2088H82.4968V87.4761H85.0968V83.9849H87.0848V87.4749H90.6015V89.2088L90.6003 89.2075ZM93.4942 87.4749H95.4823V99.7614H93.4942V87.4749ZM93.0359 82.6703C93.0359 82.2683 93.1715 81.918 93.4438 81.6196C93.7318 81.3236 94.0797 81.1744 94.4877 81.1744C94.8956 81.1744 95.2364 81.3224 95.5075 81.6196C95.7967 81.918 95.9406 82.2683 95.9406 82.6703C95.9406 83.1081 95.8051 83.467 95.5327 83.7469C95.2616 84.0268 94.9136 84.1662 94.4889 84.1662C94.0629 84.1662 93.715 84.0268 93.4426 83.7469C93.1715 83.467 93.0359 83.1081 93.0359 82.6703ZM99.005 93.6175C99.005 92.6556 99.1669 91.78 99.4897 90.992C99.7939 90.2329 100.245 89.5453 100.815 88.9708C101.388 88.3854 102.074 87.9296 102.829 87.6327C103.642 87.3114 104.506 87.1508 105.377 87.1592C106.295 87.1592 107.144 87.317 107.926 87.6327C108.68 87.9295 109.366 88.3853 109.939 88.9708C110.5 89.5307 110.942 90.204 111.265 90.9932C111.587 91.78 111.749 92.6556 111.749 93.6175C111.749 94.5807 111.587 95.455 111.265 96.2443C110.956 97.0087 110.506 97.7041 109.939 98.2914C109.36 98.863 108.675 99.3093 107.926 99.6035C107.113 99.9244 106.248 100.085 105.377 100.076C104.506 100.085 103.642 99.9244 102.829 99.6035C102.079 99.3093 101.394 98.8631 100.815 98.2914C100.248 97.7042 99.7979 97.0088 99.4897 96.2443C99.1657 95.455 99.005 94.5807 99.005 93.6175ZM101.147 93.6175C101.147 94.2662 101.24 94.8692 101.427 95.4303C101.631 95.973 101.919 96.4539 102.294 96.8732C102.667 97.2752 103.11 97.6008 103.618 97.845C104.146 98.0719 104.732 98.1866 105.377 98.1866C106.023 98.1866 106.601 98.0719 107.111 97.845C107.618 97.6137 108.076 97.2837 108.461 96.8732C108.835 96.4539 109.115 95.973 109.302 95.4303C109.506 94.8692 109.608 94.2662 109.608 93.6175C109.608 92.9701 109.506 92.3757 109.302 91.8331C109.127 91.2946 108.841 90.8017 108.462 90.389C108.086 89.9675 107.625 89.6358 107.111 89.4172C106.566 89.1647 105.974 89.0392 105.377 89.0497C104.732 89.0497 104.145 89.173 103.618 89.4172C103.115 89.6407 102.663 89.972 102.294 90.389C101.912 90.8041 101.617 91.2952 101.427 91.8318C101.24 92.3744 101.147 92.9701 101.147 93.6175ZM115.336 90.389C115.336 89.8291 115.319 89.3037 115.285 88.8142C115.252 88.3233 115.234 87.8769 115.234 87.4749H117.12C117.12 87.8079 117.129 88.1408 117.146 88.4726C117.163 88.8055 117.171 89.1459 117.171 89.4961H117.222C117.358 89.1989 117.544 88.9104 117.783 88.6304C118.038 88.3492 118.335 88.1051 118.675 87.8954C119.029 87.661 119.415 87.4838 119.822 87.3701C120.267 87.2267 120.731 87.1559 121.198 87.1604C121.98 87.1604 122.651 87.2825 123.211 87.5267C123.789 87.7721 124.265 88.1137 124.639 88.5502C125.012 88.9893 125.284 89.522 125.455 90.1534C125.648 90.8086 125.742 91.4902 125.734 92.1747V99.7614H123.746V92.3843C123.746 91.3521 123.525 90.5382 123.084 89.9425C122.642 89.3469 121.954 89.0497 121.019 89.0497C120.374 89.0497 119.813 89.1632 119.337 89.3913C118.884 89.6147 118.49 89.9482 118.19 90.3631C117.902 90.7824 117.681 91.2818 117.528 91.859C117.392 92.4361 117.324 93.0749 117.324 93.7754V99.7614H115.336V90.389ZM130.11 89.0497C130.713 88.4076 131.456 87.9215 132.277 87.6315C133.101 87.321 133.972 87.1611 134.851 87.1592C136.618 87.1592 137.892 87.5883 138.673 88.4467C139.455 89.3037 139.847 90.6072 139.847 92.3584V97.6353C139.847 97.9843 139.862 98.3518 139.897 98.7378C139.931 99.1053 139.974 99.4469 140.024 99.7614H138.113C138.042 99.4601 137.999 99.1524 137.986 98.8426V97.9239H137.934C137.543 98.5528 137.017 99.0708 136.354 99.4728C135.708 99.8748 134.927 100.077 134.009 100.077C133.398 100.077 132.82 99.9982 132.277 99.8403C131.775 99.6953 131.301 99.4643 130.874 99.1571C130.485 98.8443 130.164 98.4511 129.931 98.0028C129.694 97.5465 129.575 97.0224 129.575 96.4268C129.575 95.4118 129.829 94.6152 130.339 94.038C130.855 93.4563 131.503 93.0145 132.225 92.7518C133.015 92.4663 133.837 92.2897 134.672 92.2265C135.477 92.1598 136.285 92.1248 137.093 92.1216H137.858V91.7541C137.858 90.8613 137.594 90.188 137.068 89.7317C136.558 89.2778 135.836 89.0497 134.901 89.0497C134.255 89.0497 133.618 89.1632 132.99 89.3913C132.378 89.6009 131.834 89.9339 131.359 90.389L130.11 89.0497ZM135.87 93.8543C134.596 93.8543 133.585 94.038 132.837 94.4055C132.09 94.773 131.715 95.3773 131.715 96.2171C131.715 96.9867 131.961 97.5379 132.454 97.8709C132.964 98.1866 133.593 98.3432 134.341 98.3432C134.918 98.3432 135.419 98.247 135.844 98.0546C136.287 97.845 136.651 97.5737 136.941 97.2407C137.23 96.9077 137.451 96.5242 137.603 96.0864C137.756 95.6301 137.84 95.1492 137.858 94.6423V93.8543H135.87ZM144.167 79.9141H146.155V99.7614H144.167V79.9141Z" fill="#080808"/>
</g>
</svg>
