<svg width="127" height="100" viewBox="0 0 127 100" fill="none" xmlns="http://www.w3.org/2000/svg">
<g clip-path="url(#clip0_2277_27669)">
<path d="M124.573 39.4123C123.372 36.3384 120.905 33.5929 117.902 31.6147C109.234 26.2489 96.0241 25.8664 87.0934 30.7176C82.2211 33.1381 79.0204 37.9284 78.0237 42.8631C76.2167 50.9688 76.6833 60.6137 83.0893 66.6893C90.5592 73.0729 101.431 74.4823 111.099 71.8609C111.558 71.7741 113.014 71.4175 114.017 70.8984L114.3 70.7799C117.303 69.5634 120.167 67.583 122.305 64.9007C127.238 57.8681 127.576 47.3307 124.573 39.4123ZM108.834 57.6142C108.492 59.1523 107.432 60.7446 105.759 61.3223C103.097 62.4643 99.4933 62.1472 97.0265 60.8111C94.958 59.4006 94.6917 57.0399 94.4255 54.8055C94.2229 50.4012 93.8965 45.7373 95.1628 41.711C96.1549 39.2171 98.8902 38.575 101.365 38.3866C103.964 38.3866 106.493 38.7736 108.099 40.8161C109.099 42.2831 109.036 44.2003 109.234 45.928C109.165 49.5661 109.499 53.9062 108.834 57.6142ZM29.8013 61.5819C27.5996 61.4499 25.1316 61.6383 23.0005 61.3833L23.0654 38.9553L23.2008 38.7691L29.8013 38.7059C29.8708 35.0667 29.9356 31.1622 29.7319 27.8446L4.59388 27.7757L0.454377 27.8457C0.38855 31.4433 0.38855 35.0417 0.454377 38.6393C2.72323 38.707 4.85433 38.6393 7.05605 38.8391V60.5595L6.99238 61.451L0.388395 61.583C0.250743 65.0957 0.250743 68.6123 0.388395 72.125H29.8002L29.8013 61.5819ZM103.826 76.9108C101.028 80.8118 97.4942 84.5809 93.6337 87.5126C93.4925 87.7123 93.0931 87.6367 92.9669 87.4528C91.2942 86.4326 89.4942 85.5987 87.8898 84.5809C90.0267 82.0915 92.0953 79.5999 93.6962 76.8419H91.6218C89.9642 79.2151 88.2255 81.7056 86.0261 83.8067C83.0893 82.6591 80.4234 81.6379 77.4218 80.8649L77.0884 80.6211C77.5549 79.3302 78.4196 78.1182 78.6859 76.8397H76.8858L75.0858 80.2916C71.1558 79.4622 66.8184 79.0097 62.8155 78.7569C62.614 78.1837 62.8791 77.3531 62.614 76.8386H60.88C60.7422 77.6082 61.0814 78.187 60.6797 78.8246C56.5449 79.0097 52.5443 79.4622 48.6803 80.2352L46.8721 76.8386C46.2123 76.8386 45.4715 76.7167 45.0107 76.9085L46.6742 80.6775L46.4751 80.8649C43.4859 81.7079 40.5469 82.7119 37.6717 83.8722L37.4078 83.7413C35.536 81.7609 33.7348 79.5976 32.2646 77.4242C31.9347 76.3319 30.6 76.9706 29.865 76.8419C31.4601 79.6574 33.6016 82.1457 35.7316 84.705C33.9316 85.7296 32.1385 86.8739 30.262 87.7123C26.1824 84.6832 22.6262 81.0374 19.7281 76.913C18.9259 76.7889 18.398 76.8453 17.5923 76.913C22.394 84.1972 29.865 90.5831 37.6694 94.3532C37.6694 94.3532 37.6694 94.2968 37.7411 94.2968C37.7979 94.2968 37.931 94.4153 37.7979 94.4819C43.0695 96.9746 48.6756 98.7621 54.6059 99.5328C75.0835 102.149 94.6257 93.657 105.956 76.9142C105.248 76.843 104.534 76.8419 103.826 76.9108ZM76.0211 82.6602L76.2179 82.5316C79.0933 83.1703 81.8217 84.0663 84.358 85.2771C82.2211 87.6356 79.4869 89.6837 76.9553 91.408C75.4238 92.2995 73.8842 93.2677 72.2821 94.0283L69.4194 92.8152L69.6162 92.3728C72.0217 89.2447 74.1551 86.0467 76.0211 82.6602ZM62.8791 80.7419C66.6841 80.8118 70.4867 81.1944 74.015 82.0215L74.0857 82.2156C72.2219 85.6619 69.8825 88.9908 67.352 92.1155C66.213 92.2464 65.1503 91.8041 64.0182 91.7352L62.878 91.6043C62.7472 87.8353 62.6766 84.512 62.8791 80.7419ZM50.0126 81.8918C53.4807 81.2531 57.0808 80.7419 60.8128 80.7419L60.8823 91.5502C59.4782 91.8594 57.9455 91.8594 56.6108 92.1877C53.8755 89.0495 51.6101 85.6619 49.6793 82.1445L50.0126 81.8918ZM39.2703 85.3448C41.8772 84.1272 44.6067 83.2278 47.4058 82.5305L47.6755 82.5982C49.604 86.1122 52.0083 89.4309 54.408 92.7542C53.4819 93.2688 52.3428 93.5769 51.4122 94.096C46.9019 91.9237 42.7979 89.0285 39.2715 85.531L39.2703 85.3448ZM47.8769 96.2682C42.2742 94.8577 37.0674 92.4315 32.267 89.115V88.9164C33.8679 87.9673 35.4735 86.9416 37.2017 86.2318C41.0067 89.8835 44.9378 92.6312 49.2058 95.2447C48.8747 95.6284 48.3423 96.0132 47.8769 96.2682ZM72.6167 97.0943C65.5497 98.5725 57.6758 98.6289 50.6099 96.9713C50.4757 96.653 50.9433 96.5853 51.1424 96.398C57.3447 92.4969 67.0117 92.4969 73.0867 96.7095C73.2834 97.0931 72.751 96.9724 72.6167 97.0943ZM79.0216 95.3113L75.8868 96.2671C75.352 96.0121 74.8879 95.6284 74.4167 95.2436L74.551 95.0484C78.8213 92.6301 82.6865 89.6826 86.3571 86.1686C88.1583 86.8705 89.8935 87.8342 91.4991 88.9152C87.7601 91.8041 83.4227 93.71 79.0216 95.3113ZM19.5984 22.9211C21.2478 20.6959 23.0521 18.5837 24.9985 16.5995C26.7268 15.0028 28.3335 13.4703 30.2042 12.3148C31.9394 13.3993 33.8702 14.3043 35.5371 15.3221C33.4708 17.8013 31.3351 20.3043 29.8025 22.9798C30.2655 23.1795 31.1372 23.1175 31.8051 22.9798C33.472 20.6213 35.2662 18.2584 37.4078 16.147C40.2693 17.1728 43.0741 18.255 46.012 19.0246L46.2713 19.2785L44.6102 22.9798C45.3464 23.1175 45.8141 23.0498 46.5422 22.9798C47.1407 21.901 47.6037 20.6902 48.2716 19.5978C52.1449 20.4329 56.2138 20.8775 60.3498 21.0016C60.8788 21.4541 60.4806 22.4088 60.6809 22.9798H62.4809C62.6777 22.3535 62.4138 21.6415 62.6777 21.0727C66.5487 20.8741 70.6152 20.4904 74.3623 19.5945L74.6864 19.6622L76.4888 22.9776C77.0907 22.9776 77.8895 23.1141 78.356 22.8467L76.6844 19.151L76.8233 19.0223C79.8863 18.255 82.7582 17.1062 85.6927 15.9575C87.7659 18.0654 89.6944 20.5559 91.4343 22.9764C92.1636 22.9764 92.8986 23.0453 93.4334 22.8444C92.6093 21.4182 91.648 20.0716 90.5626 18.8226C89.6823 17.5987 88.7 16.4475 87.6258 15.3808V15.0502L92.2944 12.4356L92.9681 12.1805C97.0285 15.1767 100.582 18.775 103.499 22.8444C104.3 22.8444 104.969 23.113 105.637 22.7902C96.6885 9.7679 81.9526 1.39028 66.022 0.183961L65.9525 0.30809L65.8159 0.183961C64.0182 -0.00449086 61.8084 -0.0789687 59.8775 0.109483C59.1448 0.0530602 58.2801 0.109483 57.4119 0.183961C41.4072 1.39028 26.6701 9.38084 17.4615 22.9832C18.1294 22.9223 18.9293 23.1807 19.5984 22.9211ZM47.2796 17.3082L47.0134 17.3646C44.2757 16.6684 41.6051 15.8299 39.0712 14.7466L39.1985 14.363C42.8681 10.9787 46.7344 8.1655 51.0035 5.99887C52.0083 6.38255 53.0085 6.69851 54.0074 7.15215L53.8107 7.65093C51.2732 10.7248 49.2764 14.0402 47.2796 17.3082ZM60.5466 19.028C58.6841 19.283 57.016 18.9716 55.1407 18.8294C53.3488 18.5732 51.0776 18.3881 49.2764 17.8047C51.2107 14.3065 53.4819 10.9144 56.2138 7.79198L60.4841 8.35959C60.6809 11.6761 60.5466 15.5117 60.5466 19.028ZM62.6129 19.0957C62.4809 15.699 62.5504 11.9357 62.6129 8.42053C63.9522 8.23433 65.4119 8.03686 66.7489 7.84728C69.35 11.0374 71.8897 14.3065 73.6249 17.8047C70.019 18.6552 66.3229 19.0878 62.6129 19.0957ZM83.8938 14.618C81.2881 15.6979 78.6176 16.7225 75.7537 17.3082C73.6886 13.9229 71.4221 10.5375 68.88 7.26499C69.8153 6.76509 70.9544 6.38142 71.9522 5.87249C76.2955 7.9793 80.4917 10.9787 84.0223 14.4182L83.8938 14.618ZM75.3509 3.69457C80.9536 5.10288 86.224 7.5268 91.0257 10.849L90.8925 11.104L86.2958 13.5922H85.9555C82.4272 10.1561 78.2923 7.15215 74.0857 4.7824C74.2188 4.33441 74.8879 4.01167 75.3509 3.69457ZM72.6873 3.05136V3.1879C66.8809 7.26725 57.4802 7.65092 51.3473 3.8819C51.0035 3.62687 50.3449 3.50274 50.2731 3.05474C57.3459 1.46475 65.6782 1.33724 72.6873 3.05361V3.05136ZM32.0019 10.9799C36.2074 7.98043 40.8736 5.74384 45.8106 4.20915C46.012 4.01054 46.1405 3.82209 46.4045 3.82209V3.95299C46.937 4.07825 47.3398 3.49935 47.8051 3.87851C48.2068 4.21028 48.6791 4.46192 49.0079 4.78127C44.8753 7.26725 40.8041 10.2114 37.0686 13.7818C35.2674 13.1544 33.6074 12.1907 32.0007 11.1051L32.0019 10.981V10.9799ZM60.6161 62.0818C54.3466 63.7451 47.54 62.4767 43.007 57.8693C42.4756 57.2306 42.1388 56.47 41.604 55.8335L32.6038 55.8945C32.4614 61.0673 32.3978 67.0109 32.6038 72.1239L42.603 72.0618L42.7361 68.9924C43.8752 69.5036 45.0107 70.1412 46.1417 70.7144C53.0767 73.5288 62.0052 74.1675 68.8765 70.7144C73.8831 68.0378 76.5513 62.8649 75.8151 57.2949C75.0858 51.8716 69.747 46.9492 64.3493 45.612L48.2057 41.0711L47.0122 40.4945C46.4774 40.051 46.1429 39.4789 46.2725 38.7702C47.5401 36.6668 50.478 37.3055 52.6785 37.3631C57.3471 38.0029 62.1475 39.5353 64.8841 43.6914C67.815 43.6914 71.216 43.7467 74.4132 43.6237C74.5498 38.3866 74.3612 33.7892 74.2824 28.4855C71.2808 28.4178 67.6113 28.4178 64.6143 28.5532C64.4801 29.3127 64.7428 30.3949 64.4094 31.1645L61.3442 29.5655C54.0051 26.5638 43.7328 26.2501 37.0663 30.914C32.7288 33.9754 31.3988 39.4744 32.5332 44.329C33.3956 48.9218 37.931 52.3105 42.2684 53.9028C48.2033 55.9453 54.4022 57.4235 60.4146 59.4017C61.0108 59.6613 61.8095 60.2402 61.681 60.9409C61.6833 61.5085 61.0791 61.838 60.6161 62.0818Z" fill="#0870B8"/>
</g>
<defs>
<clipPath id="clip0_2277_27669">
<rect width="126.786" height="100" fill="white"/>
</clipPath>
</defs>
</svg>
