<svg width="221" height="69" viewBox="0 0 221 69" fill="none" xmlns="http://www.w3.org/2000/svg">
<circle cx="34.5" cy="34.5" r="34.5" fill="#F2F8FF"/>
<path d="M37 42C41.4183 42 45 38.4183 45 34C45 29.5817 41.4183 26 37 26C32.5817 26 29 29.5817 29 34C29 38.4183 32.5817 42 37 42Z" fill="#E62415"/>
<path d="M46.007 43.5977C43.6712 45.6858 40.5762 46.8459 37.1893 46.8459C35.4686 46.8943 33.7562 46.5924 32.1575 45.9587C30.5587 45.3251 29.1074 44.3731 27.893 43.1615C26.6786 41.9498 25.7267 40.504 25.0959 38.9132C24.4652 37.3224 24.1689 35.6202 24.2254 33.9114C24.2254 26.4291 29.5394 21.2089 37.1893 21.2089C40.5178 21.2089 43.6712 22.311 46.0654 24.399L47.7005 25.7911L54.9416 18.5988L53.1313 16.9748C48.7463 13.09 43.065 10.9609 37.1893 11.0005C23.7583 11.0005 14.0062 20.6289 14.0062 33.8534C13.9348 36.9021 14.4848 39.9337 15.6231 42.7659C16.7614 45.5981 18.4645 48.1725 20.63 50.3343C22.7956 52.496 25.3788 54.2006 28.2245 55.3454C31.0702 56.4903 34.1195 57.0518 37.1893 56.9962C43.3208 56.9962 49.0436 54.8502 53.2481 50.964L55 49.34L47.6421 42.1477L46.007 43.5977Z" fill="#17313B"/>
<path d="M89.882 25.452L90.89 24.156C91.634 25.068 92.564 25.524 93.68 25.524C94.448 25.524 95.102 25.284 95.642 24.804C96.182 24.324 96.452 23.706 96.452 22.95C96.452 22.194 96.176 21.57 95.624 21.078C95.084 20.586 94.4 20.34 93.572 20.34C92.78 20.34 92.066 20.55 91.43 20.97L90.386 20.592L91.016 14.292H97.442V15.84H92.564L92.276 18.522L92.168 19.17H92.204C92.684 18.918 93.236 18.792 93.86 18.792C95.18 18.792 96.248 19.194 97.064 19.998C97.88 20.79 98.288 21.774 98.288 22.95C98.288 24.162 97.856 25.176 96.992 25.992C96.14 26.808 95.072 27.216 93.788 27.216C93.032 27.216 92.306 27.066 91.61 26.766C90.926 26.454 90.35 26.016 89.882 25.452ZM104.525 20.556C104.525 18.72 105.143 17.184 106.379 15.948C107.615 14.7 109.175 14.076 111.059 14.076C112.931 14.076 114.485 14.7 115.721 15.948C116.957 17.184 117.575 18.72 117.575 20.556C117.575 22.44 116.957 24.024 115.721 25.308C114.485 26.58 112.931 27.216 111.059 27.216C109.187 27.216 107.627 26.58 106.379 25.308C105.143 24.024 104.525 22.44 104.525 20.556ZM106.361 20.556C106.361 21.984 106.805 23.178 107.693 24.138C108.581 25.098 109.703 25.578 111.059 25.578C112.403 25.578 113.519 25.098 114.407 24.138C115.295 23.178 115.739 21.984 115.739 20.556C115.739 19.176 115.295 18.024 114.407 17.1C113.519 16.164 112.403 15.696 111.059 15.696C109.703 15.696 108.581 16.164 107.693 17.1C106.805 18.024 106.361 19.176 106.361 20.556ZM120.135 27V14.292H121.899L127.569 22.536L128.613 24.39H128.649C128.577 23.634 128.541 23.016 128.541 22.536V14.292H130.305V27H128.559L122.889 18.756L121.845 16.902H121.809C121.881 17.658 121.917 18.276 121.917 18.756V27H120.135ZM137.396 20.574C137.396 18.714 138.002 17.166 139.214 15.93C140.438 14.694 141.986 14.076 143.858 14.076C145.79 14.076 147.338 14.634 148.502 15.75L147.602 17.082C147.134 16.662 146.564 16.326 145.892 16.074C145.232 15.822 144.578 15.696 143.93 15.696C142.49 15.696 141.344 16.158 140.492 17.082C139.652 18.006 139.232 19.164 139.232 20.556C139.232 21.96 139.664 23.148 140.528 24.12C141.392 25.092 142.538 25.578 143.966 25.578C144.674 25.578 145.37 25.434 146.054 25.146C146.75 24.846 147.356 24.438 147.872 23.922L148.826 25.2C147.482 26.544 145.844 27.216 143.912 27.216C141.98 27.216 140.408 26.586 139.196 25.326C137.996 24.054 137.396 22.47 137.396 20.574ZM151.072 27V14.292H152.854V25.452H158.56V27H151.072ZM160.016 22.5V14.292H161.798V22.482C161.798 23.454 162.086 24.216 162.662 24.768C163.25 25.308 164.036 25.578 165.02 25.578C166.004 25.578 166.784 25.308 167.36 24.768C167.936 24.216 168.224 23.448 168.224 22.464V14.292H170.006V22.5C170.006 23.916 169.55 25.056 168.638 25.92C167.726 26.784 166.526 27.216 165.038 27.216C163.538 27.216 162.326 26.784 161.402 25.92C160.478 25.056 160.016 23.916 160.016 22.5ZM176.191 27V15.84H171.817V14.292H182.329V15.84H177.955V27H176.191ZM182.976 20.574C182.976 18.714 183.582 17.166 184.794 15.93C186.018 14.694 187.566 14.076 189.438 14.076C191.37 14.076 192.918 14.634 194.082 15.75L193.182 17.082C192.714 16.662 192.144 16.326 191.472 16.074C190.812 15.822 190.158 15.696 189.51 15.696C188.07 15.696 186.924 16.158 186.072 17.082C185.232 18.006 184.812 19.164 184.812 20.556C184.812 21.96 185.244 23.148 186.108 24.12C186.972 25.092 188.118 25.578 189.546 25.578C190.254 25.578 190.95 25.434 191.634 25.146C192.33 24.846 192.936 24.438 193.452 23.922L194.406 25.2C193.062 26.544 191.424 27.216 189.492 27.216C187.56 27.216 185.988 26.586 184.776 25.326C183.576 24.054 182.976 22.47 182.976 20.574ZM196.653 27V14.292H198.435V19.872H205.041V14.292H206.805V27H205.041V21.42H198.435V27H196.653Z" fill="#080808"/>
<path d="M99.0487 39.9457C99.2299 39.5661 99.7701 39.5661 99.9513 39.9457L102.407 45.0927C102.48 45.2454 102.625 45.351 102.793 45.3731L108.447 46.1184C108.864 46.1733 109.031 46.6872 108.726 46.9767L104.59 50.9031C104.467 51.0196 104.412 51.1903 104.443 51.3567L105.481 56.9644C105.558 57.3779 105.12 57.6955 104.751 57.4948L99.7385 54.7744C99.5898 54.6937 99.4102 54.6937 99.2615 54.7744L94.2492 57.4948C93.8796 57.6955 93.4425 57.3779 93.519 56.9644L94.5574 51.3567C94.5882 51.1903 94.5328 51.0196 94.41 50.9031L90.2739 46.9767C89.9688 46.6872 90.1358 46.1733 90.5528 46.1184L96.2068 45.3731C96.3746 45.351 96.5198 45.2454 96.5927 45.0927L99.0487 39.9457Z" fill="#0057B8"/>
<path d="M145.049 39.9457C145.23 39.5661 145.77 39.5661 145.951 39.9457L148.407 45.0927C148.48 45.2454 148.625 45.351 148.793 45.3731L154.447 46.1184C154.864 46.1733 155.031 46.6872 154.726 46.9767L150.59 50.9031C150.467 51.0196 150.412 51.1903 150.443 51.3567L151.481 56.9644C151.558 57.3779 151.12 57.6955 150.751 57.4948L145.739 54.7744C145.59 54.6937 145.41 54.6937 145.261 54.7744L140.249 57.4948C139.88 57.6955 139.442 57.3779 139.519 56.9644L140.557 51.3567C140.588 51.1903 140.533 51.0196 140.41 50.9031L136.274 46.9767C135.969 46.6872 136.136 46.1733 136.553 46.1184L142.207 45.3731C142.375 45.351 142.52 45.2454 142.593 45.0927L145.049 39.9457Z" fill="#0057B8"/>
<path d="M122.049 39.9457C122.23 39.5661 122.77 39.5661 122.951 39.9457L125.407 45.0927C125.48 45.2454 125.625 45.351 125.793 45.3731L131.447 46.1184C131.864 46.1733 132.031 46.6872 131.726 46.9767L127.59 50.9031C127.467 51.0196 127.412 51.1903 127.443 51.3567L128.481 56.9644C128.558 57.3779 128.12 57.6955 127.751 57.4948L122.739 54.7744C122.59 54.6937 122.41 54.6937 122.261 54.7744L117.249 57.4948C116.88 57.6955 116.442 57.3779 116.519 56.9644L117.557 51.3567C117.588 51.1903 117.533 51.0196 117.41 50.9031L113.274 46.9767C112.969 46.6872 113.136 46.1733 113.553 46.1184L119.207 45.3731C119.375 45.351 119.52 45.2454 119.593 45.0927L122.049 39.9457Z" fill="#0057B8"/>
<path d="M168.049 39.9457C168.23 39.5661 168.77 39.5661 168.951 39.9457L171.407 45.0927C171.48 45.2454 171.625 45.351 171.793 45.3731L177.447 46.1184C177.864 46.1733 178.031 46.6872 177.726 46.9767L173.59 50.9031C173.467 51.0196 173.412 51.1903 173.443 51.3567L174.481 56.9644C174.558 57.3779 174.12 57.6955 173.751 57.4948L168.739 54.7744C168.59 54.6937 168.41 54.6937 168.261 54.7744L163.249 57.4948C162.88 57.6955 162.442 57.3779 162.519 56.9644L163.557 51.3567C163.588 51.1903 163.533 51.0196 163.41 50.9031L159.274 46.9767C158.969 46.6872 159.136 46.1733 159.553 46.1184L165.207 45.3731C165.375 45.351 165.52 45.2454 165.593 45.0927L168.049 39.9457Z" fill="#0057B8"/>
<path d="M191.049 39.9457C191.23 39.5661 191.77 39.5661 191.951 39.9457L194.407 45.0927C194.48 45.2454 194.625 45.351 194.793 45.3731L200.447 46.1184C200.864 46.1733 201.031 46.6872 200.726 46.9767L196.59 50.9031C196.467 51.0196 196.412 51.1903 196.443 51.3567L197.481 56.9644C197.558 57.3779 197.12 57.6955 196.751 57.4948L191.739 54.7744C191.59 54.6937 191.41 54.6937 191.261 54.7744L186.249 57.4948C185.88 57.6955 185.442 57.3779 185.519 56.9644L186.557 51.3567C186.588 51.1903 186.533 51.0196 186.41 50.9031L182.274 46.9767C181.969 46.6872 182.136 46.1733 182.553 46.1184L188.207 45.3731C188.375 45.351 188.52 45.2454 188.593 45.0927L191.049 39.9457Z" fill="#0057B8"/>
</svg>
