<svg width="133" height="47" viewBox="0 0 133 47" fill="none" xmlns="http://www.w3.org/2000/svg">
<path fill-rule="evenodd" clip-rule="evenodd" d="M13.0234 46.0878H19.1388V25.3169H13.0234V46.0896V46.0878ZM40.8782 25.3169H35.0718V36.2732H35.0444L27.4975 25.3169H21.6618V46.0896H27.4682V34.9394H27.4956L35.0425 46.0896H40.8782V25.3169ZM50.7214 24.8711C45.5585 24.8711 42.6699 27.8467 42.6699 31.4891C42.6699 35.5211 46.2331 36.9672 48.4763 37.7736C50.1875 38.3862 51.619 38.8301 51.619 39.8323C51.619 40.6115 50.7488 41.3055 48.8694 41.3055C46.6536 41.3055 44.3518 40.3324 42.8381 39.1092V44.7269C44.3811 45.7562 46.8784 46.5336 49.5988 46.5336C54.8733 46.5336 57.8752 43.6142 57.8752 39.6655C57.8752 35.2439 54.0597 33.9373 51.2552 32.9642C49.6007 32.3807 48.6737 32.0472 48.6737 31.3242C48.6737 30.6011 49.5147 30.101 51.1711 30.101C52.9938 30.101 55.2389 30.7407 56.557 31.6576V26.3172C55.0415 25.4546 52.9938 24.8711 50.7214 24.8711ZM59.303 46.0878H65.4184V25.3169H59.303V46.0896V46.0878ZM74.0586 40.6097H75.2378C78.4079 40.6097 80.4556 38.8301 80.4556 35.715C80.4556 32.5999 78.4079 30.7932 75.2378 30.7932H74.0586V40.6097ZM86.6276 35.715C86.6276 41.9724 81.8578 46.0878 75.0129 46.0878H67.9432V25.3169H75.0129C81.8578 25.3169 86.6276 29.4595 86.6276 35.7168V35.715ZM88.2858 46.0878H102.762V40.693H94.4012V38.1071H101.919V33.2124H94.4012V30.7099H102.762V25.3169H88.2858V46.0896V46.0878ZM112.387 35.1315C113.93 35.1315 115.137 34.4085 115.137 32.9624C115.137 31.5163 113.93 30.7932 112.36 30.7932H111.069V35.1315H112.387ZM122.402 46.0878H115.192L111.208 39.6637H111.067V46.0878H104.952V25.3169H112.415C117.662 25.3169 121.307 27.6256 121.307 32.5474C121.307 34.4936 120.437 37.3297 116.958 38.7758L122.4 46.0896L122.402 46.0878Z" fill="white"/>
<path fill-rule="evenodd" clip-rule="evenodd" d="M0 1.05909H8.95835C13.9411 1.05909 16.5465 3.60762 16.5465 6.73733C16.5465 8.89781 15.3149 10.3652 13.6072 11.1413V11.1973C15.7911 11.9734 17.0227 13.6898 17.0227 15.8774C17.0227 19.0071 14.587 21.7488 9.32325 21.7488H0V1.05909ZM8.6792 9.25699C10.1625 9.25699 10.8358 8.50975 10.8358 7.67769C10.8358 6.84563 10.1644 6.07132 8.6792 6.07132H6.04825V9.25699H8.6792ZM8.76313 16.7347C10.3304 16.7347 11.0876 15.9875 11.0876 15.0183C11.0876 14.049 10.303 13.3018 8.79232 13.3018H6.04825V16.7365H8.76313V16.7347ZM18.309 13.3289V1.05909H24.412V13.2729C24.412 15.5724 25.5596 16.7907 27.5191 16.7907C29.4786 16.7907 30.7102 15.5724 30.7102 13.2458V1.05909H36.8424V13.3289C36.8424 18.536 33.3156 22.2758 27.5191 22.2758C21.7226 22.2758 18.3071 18.536 18.3071 13.3289H18.309ZM52.3817 2.0554V7.37266C51.0662 6.45938 48.8257 5.82225 47.0067 5.82225C45.3555 5.82225 44.5144 6.34928 44.5144 7.04056C44.5144 7.73184 45.4376 8.09282 47.0906 8.674C49.8913 9.64324 53.6972 10.9446 53.6972 15.3486C53.6972 19.2814 50.7013 22.1892 45.4376 22.1892C42.7228 22.1892 40.2305 21.413 38.6906 20.3897V14.7944C40.2031 16.0128 42.4983 16.982 44.7096 16.982C46.5852 16.982 47.4537 16.2889 47.4537 15.5146C47.4537 14.5183 46.0251 14.0743 44.3174 13.4642C42.0769 12.661 38.5227 11.2207 38.5227 7.2048C38.5227 3.57694 41.4073 0.613281 46.5579 0.613281C48.8257 0.613281 50.8692 1.19446 52.3817 2.0536V2.0554ZM55.2644 1.05909H61.3674V21.7488H55.2644V1.05909ZM83.0664 21.7488H77.2425L69.7109 10.6432H69.6836V21.7488H63.8889V1.05909H69.7128L77.2443 11.9716H77.2717V1.05909H83.0664V21.7488ZM85.586 1.05909H100.032V6.4323H91.689V8.92488H99.1914V13.7999H91.689V16.3755H100.032V21.7488H85.586V1.05909ZM115.347 2.0554V7.37266C114.032 6.45938 111.791 5.82225 109.972 5.82225C108.321 5.82225 107.48 6.34928 107.48 7.04056C107.48 7.73184 108.403 8.09282 110.056 8.674C112.857 9.64324 116.663 10.9446 116.663 15.3486C116.663 19.2814 113.667 22.1892 108.403 22.1892C105.688 22.1892 103.196 21.413 101.656 20.3897V14.7944C103.169 16.0128 105.464 16.982 107.675 16.982C109.551 16.982 110.419 16.2889 110.419 15.5146C110.419 14.5183 108.991 14.0743 107.283 13.4642C105.043 12.661 101.488 11.2207 101.488 7.2048C101.488 3.57694 104.373 0.613281 109.524 0.613281C111.791 0.613281 113.835 1.19446 115.347 2.0536V2.0554ZM131.502 2.0554V7.37266C130.186 6.45938 127.946 5.82225 126.127 5.82225C124.475 5.82225 123.634 6.34928 123.634 7.04056C123.634 7.73184 124.558 8.09282 126.211 8.674C129.011 9.64324 132.817 10.9446 132.817 15.3486C132.817 19.2814 129.821 22.1892 124.558 22.1892C121.843 22.1892 119.35 21.413 117.811 20.3897V14.7944C119.323 16.0128 121.618 16.982 123.83 16.982C125.705 16.982 126.574 16.2889 126.574 15.5146C126.574 14.5183 125.145 14.0743 123.437 13.4642C121.197 12.661 117.643 11.2207 117.643 7.2048C117.643 3.57694 120.527 0.613281 125.678 0.613281C127.946 0.613281 129.989 1.19446 131.502 2.0536V2.0554Z" fill="white"/>
</svg>
