<svg width="220" height="62" viewBox="0 0 220 62" fill="none" xmlns="http://www.w3.org/2000/svg">
<path d="M82.476 21.354V20.486L87.054 14.116H88.622V20.192H89.966V21.354H88.622V24H87.264V21.354H82.476ZM84.002 20.192H87.264V16.58L87.32 15.586H87.292C87.1427 15.9033 86.9793 16.1787 86.802 16.412L84.002 20.164V20.192ZM91.0349 25.414L91.9029 22.53H93.3309L92.1129 25.414H91.0349ZM95.1294 21.186C95.1294 20.8407 95.19 20.5093 95.3114 20.192C95.4327 19.8653 95.5914 19.59 95.7874 19.366C95.9834 19.142 96.1514 18.9693 96.2914 18.848C96.4314 18.7173 96.5714 18.6053 96.7114 18.512C95.974 17.9987 95.6054 17.35 95.6054 16.566C95.6054 15.838 95.8714 15.222 96.4034 14.718C96.9354 14.2047 97.696 13.948 98.6854 13.948C99.6094 13.948 100.356 14.1907 100.925 14.676C101.504 15.152 101.793 15.7867 101.793 16.58C101.793 17.1213 101.658 17.6253 101.387 18.092C101.126 18.5493 100.865 18.9087 100.603 19.17C101.499 19.7113 101.947 20.4113 101.947 21.27C101.947 22.0633 101.635 22.7447 101.009 23.314C100.384 23.8833 99.5674 24.168 98.5594 24.168C97.5794 24.168 96.7627 23.888 96.1094 23.328C95.456 22.7587 95.1294 22.0447 95.1294 21.186ZM99.5394 18.638C100.137 18.0033 100.435 17.3547 100.435 16.692C100.435 16.2253 100.272 15.8613 99.9454 15.6C99.6187 15.3293 99.1894 15.194 98.6574 15.194C98.1347 15.194 97.724 15.3247 97.4254 15.586C97.1267 15.8473 96.9774 16.174 96.9774 16.566C96.9774 16.706 96.996 16.8367 97.0334 16.958C97.08 17.0793 97.1314 17.1867 97.1874 17.28C97.2527 17.3733 97.346 17.4713 97.4674 17.574C97.5887 17.6673 97.696 17.7467 97.7894 17.812C97.8827 17.8773 98.0134 17.952 98.1814 18.036C98.3587 18.12 98.4987 18.19 98.6014 18.246C98.7134 18.2927 98.872 18.358 99.0774 18.442C99.2827 18.526 99.4367 18.5913 99.5394 18.638ZM96.5434 21.074C96.5434 21.606 96.744 22.0493 97.1454 22.404C97.5467 22.7493 98.0134 22.922 98.5454 22.922C99.0867 22.922 99.5534 22.768 99.9454 22.46C100.337 22.1427 100.533 21.7367 100.533 21.242C100.533 21.0273 100.482 20.836 100.379 20.668C100.286 20.4907 100.127 20.3273 99.9034 20.178C99.6794 20.0287 99.4787 19.9073 99.3014 19.814C99.124 19.7207 98.858 19.5993 98.5034 19.45C98.158 19.3007 97.906 19.1887 97.7474 19.114C96.9447 19.674 96.5434 20.3273 96.5434 21.074ZM106.981 18.988C106.981 17.56 107.462 16.3653 108.423 15.404C109.384 14.4333 110.598 13.948 112.063 13.948C113.519 13.948 114.728 14.4333 115.689 15.404C116.65 16.3653 117.131 17.56 117.131 18.988C117.131 20.4533 116.65 21.6853 115.689 22.684C114.728 23.6733 113.519 24.168 112.063 24.168C110.607 24.168 109.394 23.6733 108.423 22.684C107.462 21.6853 106.981 20.4533 106.981 18.988ZM108.409 18.988C108.409 20.0987 108.754 21.0273 109.445 21.774C110.136 22.5207 111.008 22.894 112.063 22.894C113.108 22.894 113.976 22.5207 114.667 21.774C115.358 21.0273 115.703 20.0987 115.703 18.988C115.703 17.9147 115.358 17.0187 114.667 16.3C113.976 15.572 113.108 15.208 112.063 15.208C111.008 15.208 110.136 15.572 109.445 16.3C108.754 17.0187 108.409 17.9147 108.409 18.988ZM119.122 24V14.116H120.494L124.904 20.528L125.716 21.97H125.744C125.688 21.382 125.66 20.9013 125.66 20.528V14.116H127.032V24H125.674L121.264 17.588L120.452 16.146H120.424C120.48 16.734 120.508 17.2147 120.508 17.588V24H119.122ZM133.15 24V14.116H136.44C137.961 14.116 139.174 14.5547 140.08 15.432C140.985 16.3 141.438 17.504 141.438 19.044C141.438 20.5933 140.985 21.8067 140.08 22.684C139.174 23.5613 137.961 24 136.44 24H133.15ZM134.536 22.796H136.342C137.471 22.796 138.362 22.474 139.016 21.83C139.678 21.1767 140.01 20.248 140.01 19.044C140.01 17.8587 139.678 16.944 139.016 16.3C138.353 15.6467 137.462 15.32 136.342 15.32H134.536V22.796ZM143.472 24V14.116H149.226V15.32H144.858V18.414H148.4V19.618H144.858V22.796H149.464V24H143.472ZM150.646 22.866L151.43 21.816C151.748 22.124 152.13 22.3807 152.578 22.586C153.026 22.782 153.474 22.88 153.922 22.88C154.445 22.88 154.865 22.754 155.182 22.502C155.5 22.2407 155.658 21.8953 155.658 21.466C155.658 21.0647 155.495 20.724 155.168 20.444C154.842 20.1547 154.44 19.912 153.964 19.716C153.498 19.52 153.031 19.31 152.564 19.086C152.098 18.862 151.701 18.5493 151.374 18.148C151.048 17.7467 150.884 17.2613 150.884 16.692C150.884 15.8707 151.188 15.208 151.794 14.704C152.41 14.2 153.185 13.948 154.118 13.948C155.248 13.948 156.167 14.284 156.876 14.956L156.246 16.09C155.966 15.8287 155.626 15.6187 155.224 15.46C154.832 15.3013 154.445 15.222 154.062 15.222C153.549 15.222 153.124 15.3527 152.788 15.614C152.452 15.866 152.284 16.202 152.284 16.622C152.284 16.9487 152.401 17.238 152.634 17.49C152.868 17.742 153.162 17.9427 153.516 18.092C153.871 18.232 154.254 18.4 154.664 18.596C155.075 18.7827 155.458 18.9787 155.812 19.184C156.167 19.3893 156.461 19.6787 156.694 20.052C156.928 20.4253 157.044 20.8593 157.044 21.354C157.044 22.1567 156.764 22.8287 156.204 23.37C155.644 23.902 154.874 24.168 153.894 24.168C152.616 24.168 151.533 23.734 150.646 22.866ZM159.003 24V14.116H160.389V24H159.003ZM162.407 19.044C162.407 17.6067 162.888 16.398 163.849 15.418C164.81 14.438 166.01 13.948 167.447 13.948C168.894 13.948 170.093 14.3493 171.045 15.152L170.345 16.174C170.009 15.894 169.58 15.6653 169.057 15.488C168.544 15.3013 168.04 15.208 167.545 15.208C166.425 15.208 165.524 15.572 164.843 16.3C164.171 17.028 163.835 17.9333 163.835 19.016C163.835 20.1453 164.18 21.074 164.871 21.802C165.562 22.53 166.425 22.894 167.461 22.894C168.534 22.894 169.468 22.4833 170.261 21.662V20.234H168.665V19.03H171.535V24H170.317V23.384L170.331 22.964H170.303C169.958 23.328 169.514 23.622 168.973 23.846C168.432 24.0607 167.862 24.168 167.265 24.168C165.912 24.168 164.764 23.6873 163.821 22.726C162.878 21.7553 162.407 20.528 162.407 19.044ZM173.673 24V14.116H175.045L179.455 20.528L180.267 21.97H180.295C180.239 21.382 180.211 20.9013 180.211 20.528V14.116H181.583V24H180.225L175.815 17.588L175.003 16.146H174.975C175.031 16.734 175.059 17.2147 175.059 17.588V24H173.673ZM184.2 24V14.116H187.336C188.167 14.116 188.778 14.2047 189.17 14.382C189.656 14.5967 190.038 14.928 190.318 15.376C190.598 15.824 190.738 16.356 190.738 16.972C190.738 17.6067 190.575 18.176 190.248 18.68C189.931 19.1747 189.506 19.5107 188.974 19.688V19.716C189.049 19.8093 189.142 19.9587 189.254 20.164L191.354 24H189.786L187.7 20.066H185.586V24H184.2ZM185.586 18.862H187.574C188.116 18.862 188.545 18.6987 188.862 18.372C189.18 18.036 189.338 17.5927 189.338 17.042C189.338 16.2673 189.03 15.7493 188.414 15.488C188.162 15.376 187.766 15.32 187.224 15.32H185.586V18.862ZM192.879 20.5V14.116H194.265V20.486C194.265 21.242 194.489 21.8347 194.937 22.264C195.395 22.684 196.006 22.894 196.771 22.894C197.537 22.894 198.143 22.684 198.591 22.264C199.039 21.8347 199.263 21.2373 199.263 20.472V14.116H200.649V20.5C200.649 21.6013 200.295 22.488 199.585 23.16C198.876 23.832 197.943 24.168 196.785 24.168C195.619 24.168 194.676 23.832 193.957 23.16C193.239 22.488 192.879 21.6013 192.879 20.5ZM202.422 22.866L203.206 21.816C203.523 22.124 203.906 22.3807 204.354 22.586C204.802 22.782 205.25 22.88 205.698 22.88C206.22 22.88 206.64 22.754 206.958 22.502C207.275 22.2407 207.434 21.8953 207.434 21.466C207.434 21.0647 207.27 20.724 206.944 20.444C206.617 20.1547 206.216 19.912 205.74 19.716C205.273 19.52 204.806 19.31 204.34 19.086C203.873 18.862 203.476 18.5493 203.15 18.148C202.823 17.7467 202.66 17.2613 202.66 16.692C202.66 15.8707 202.963 15.208 203.57 14.704C204.186 14.2 204.96 13.948 205.894 13.948C207.023 13.948 207.942 14.284 208.652 14.956L208.022 16.09C207.742 15.8287 207.401 15.6187 207 15.46C206.608 15.3013 206.22 15.222 205.838 15.222C205.324 15.222 204.9 15.3527 204.564 15.614C204.228 15.866 204.06 16.202 204.06 16.622C204.06 16.9487 204.176 17.238 204.41 17.49C204.643 17.742 204.937 17.9427 205.292 18.092C205.646 18.232 206.029 18.4 206.44 18.596C206.85 18.7827 207.233 18.9787 207.588 19.184C207.942 19.3893 208.236 19.6787 208.47 20.052C208.703 20.4253 208.82 20.8593 208.82 21.354C208.82 22.1567 208.54 22.8287 207.98 23.37C207.42 23.902 206.65 24.168 205.67 24.168C204.391 24.168 203.308 23.734 202.422 22.866ZM210.779 24V14.116H212.165V18.456H217.303V14.116H218.675V24H217.303V19.66H212.165V24H210.779Z" fill="#080808"/>
<path d="M90.1903 35.9457C90.3715 35.5661 90.9117 35.5661 91.0929 35.9457L93.0136 39.971C93.0865 40.1237 93.2317 40.2293 93.3995 40.2514L97.8214 40.8343C98.2383 40.8892 98.4053 41.4031 98.1003 41.6926L94.8655 44.7633C94.7428 44.8798 94.6873 45.0505 94.7181 45.2169L95.5302 49.6025C95.6068 50.016 95.1697 50.3336 94.8001 50.133L90.8801 48.0054C90.7313 47.9247 90.5518 47.9247 90.4031 48.0054L86.4831 50.133C86.1135 50.3336 85.6764 50.016 85.753 49.6025L86.565 45.2169C86.5959 45.0505 86.5404 44.8798 86.4176 44.7633L83.1829 41.6926C82.8779 41.4031 83.0448 40.8892 83.4618 40.8343L87.8836 40.2514C88.0514 40.2293 88.1967 40.1237 88.2696 39.971L90.1903 35.9457Z" fill="#0057B8"/>
<path d="M128.05 35.9457C128.231 35.5661 128.771 35.5661 128.952 35.9457L130.873 39.971C130.946 40.1237 131.091 40.2293 131.259 40.2514L135.681 40.8343C136.098 40.8892 136.265 41.4031 135.96 41.6926L132.725 44.7633C132.602 44.8798 132.547 45.0505 132.578 45.2169L133.39 49.6025C133.466 50.016 133.029 50.3336 132.659 50.133L128.739 48.0054C128.591 47.9247 128.411 47.9247 128.262 48.0054L124.343 50.133C123.973 50.3336 123.536 50.016 123.612 49.6025L124.424 45.2169C124.455 45.0505 124.4 44.8798 124.277 44.7633L121.042 41.6926C120.737 41.4031 120.904 40.8892 121.321 40.8343L125.743 40.2514C125.911 40.2293 126.056 40.1237 126.129 39.971L128.05 35.9457Z" fill="#0057B8"/>
<path d="M109.118 35.9457C109.299 35.5661 109.839 35.5661 110.021 35.9457L111.941 39.971C112.014 40.1237 112.159 40.2293 112.327 40.2514L116.749 40.8343C117.166 40.8892 117.333 41.4031 117.028 41.6926L113.793 44.7633C113.671 44.8798 113.615 45.0505 113.646 45.2169L114.458 49.6025C114.535 50.016 114.097 50.3336 113.728 50.133L109.808 48.0054C109.659 47.9247 109.48 47.9247 109.331 48.0054L105.411 50.133C105.041 50.3336 104.604 50.016 104.681 49.6025L105.493 45.2169C105.524 45.0505 105.468 44.8798 105.345 44.7633L102.111 41.6926C101.806 41.4031 101.973 40.8892 102.39 40.8343L106.811 40.2514C106.979 40.2293 107.124 40.1237 107.197 39.971L109.118 35.9457Z" fill="#0057B8"/>
<path d="M146.977 35.9457C147.159 35.5661 147.699 35.5661 147.88 35.9457L149.801 39.971C149.874 40.1237 150.019 40.2293 150.187 40.2514L154.609 40.8343C155.025 40.8892 155.192 41.4031 154.887 41.6926L151.653 44.7633C151.53 44.8798 151.474 45.0505 151.505 45.2169L152.317 49.6025C152.394 50.016 151.957 50.3336 151.587 50.133L147.667 48.0054C147.518 47.9247 147.339 47.9247 147.19 48.0054L143.27 50.133C142.901 50.3336 142.464 50.016 142.54 49.6025L143.352 45.2169C143.383 45.0505 143.328 44.8798 143.205 44.7633L139.97 41.6926C139.665 41.4031 139.832 40.8892 140.249 40.8343L144.671 40.2514C144.839 40.2293 144.984 40.1237 145.057 39.971L146.977 35.9457Z" fill="#0057B8"/>
<path d="M165.905 35.9457C166.086 35.5661 166.627 35.5661 166.808 35.9457L168.728 39.971C168.801 40.1237 168.947 40.2293 169.114 40.2514L173.536 40.8343C173.953 40.8892 174.12 41.4031 173.815 41.6926L170.58 44.7633C170.458 44.8798 170.402 45.0505 170.433 45.2169L171.245 49.6025C171.322 50.016 170.885 50.3336 170.515 50.133L166.595 48.0054C166.446 47.9247 166.267 47.9247 166.118 48.0054L162.198 50.133C161.828 50.3336 161.391 50.016 161.468 49.6025L162.28 45.2169C162.311 45.0505 162.255 44.8798 162.132 44.7633L158.898 41.6926C158.593 41.4031 158.76 40.8892 159.177 40.8343L163.598 40.2514C163.766 40.2293 163.912 40.1237 163.984 39.971L165.905 35.9457Z" fill="#0057B8"/>
<circle cx="31" cy="31" r="31" fill="white"/>
<path d="M30.9158 36.706C30.831 36.622 30.831 36.706 30.9158 36.706L30.4915 36.4542L30.4067 36.3702L20.3941 29.3191C20.3941 29.3191 20.3092 29.3191 20.3092 29.2352L20.1395 29.0673L20.0547 28.9833H19.885L17 26.9688L22.6851 27.8082C22.9397 27.8082 23.0245 27.8921 23.2791 27.976C23.3639 27.976 23.5336 28.06 23.5336 28.06C23.7882 28.1439 23.8731 28.2279 24.0428 28.3118C24.2125 28.3958 24.2973 28.4797 24.467 28.5636C24.5519 28.6476 24.7216 28.7315 24.7216 28.8155C24.8064 28.8994 24.8913 28.8994 24.9761 28.9833C25.1458 29.0673 25.2307 29.1512 25.2307 29.2352C25.4853 29.487 25.655 29.7388 25.9095 29.9067L30.4067 36.2023L30.4915 36.2863L30.9158 36.706Z" fill="#2AD2FF"/>
<path d="M30.9169 46.4432L30.4926 45.7717L30.4078 45.6877L17.0859 26.9688L19.9709 28.9833L20.48 29.3191L30.4926 36.3702H30.5775L30.9169 36.622C30.9169 36.622 31.0017 36.622 31.0017 36.706L31.426 36.3702L44.9176 26.9688L31.3412 45.7717L31.2563 45.8556L30.9169 46.4432Z" fill="url(#paint0_linear_5761_1636)"/>
<path d="M30.9141 33.5183L30.4898 32.8467L30.405 32.7628L27.0957 28.2299L30.405 28.9015H30.4898L30.9141 28.9854L31.3383 28.9015L34.5627 28.146L31.3383 32.8467V32.9307L30.9141 33.5183Z" fill="#2AD2FF"/>
<path d="M44.9996 26.8867L40.757 27.4743L39.1448 27.7261C37.872 27.894 36.684 28.5656 35.9204 29.6568L31.4232 36.0364L31.3383 36.1203L30.9141 36.7079L31.4232 36.2042L31.508 36.1203L30.9141 36.7079L42.3692 28.6495L44.9996 26.8867Z" fill="#2AD2FF"/>
<path d="M33.0382 13.6241C33.0382 17.3175 26.5894 19.2482 26.5894 23.1934C26.5046 24.1168 26.7591 25.0401 27.1834 25.8796C27.1834 25.8796 24.7227 23.5292 24.7227 21.0109C24.7227 18.4927 27.0985 14.7153 27.0985 14.7153C27.0985 16.3942 27.7773 16.8978 28.4562 16.9818H28.541C29.3047 16.9818 29.729 16.3942 29.729 15.5547C29.729 14.7153 28.7956 13.8759 28.7956 12.1971C28.7956 10.6022 30.832 8 30.832 8C32.2745 9.67883 33.0382 11.6095 33.0382 13.6241Z" fill="#2AF4FF"/>
<path d="M31.2572 27.0548C29.2207 27.0548 27.6934 25.4599 27.6934 23.5293V23.4453C27.6934 19.1643 33.7179 18.7446 33.7179 12.9526C33.8876 13.2045 35.4998 15.3869 35.4998 17.7373C35.4998 20.6753 32.6997 21.4307 32.6997 22.8577C32.6997 23.4453 32.9542 23.865 33.8027 23.865C33.8876 23.865 33.9724 23.865 34.0573 23.7811C35.6695 23.1096 36.7726 21.5986 36.8574 19.8358C36.8574 19.9198 37.706 27.0548 31.2572 27.0548Z" fill="#2AF4FF"/>
<path d="M33.8859 23.865C33.9707 23.865 34.0556 23.865 34.1404 23.7811C33.2919 24.0329 30.1523 24.7884 30.1523 22.6059C30.1523 19.9198 34.8192 19.3322 34.8192 17.0658C34.8192 15.6388 34.4798 14.2118 33.7161 12.9526C33.8859 13.2045 35.4981 15.3869 35.4981 17.7373C35.4981 20.6753 32.6979 21.4307 32.6979 22.8577C32.7828 23.4453 33.1222 23.865 33.8859 23.865Z" fill="#2AD2FF"/>
<path d="M31.3401 15.135C31.3401 17.2336 28.6248 17.0657 28.4551 16.9818H28.7096C29.4733 16.9818 29.8976 16.3942 29.8976 15.5547C29.8976 14.7153 28.9642 13.8759 28.9642 12.1971C28.9642 10.6022 31.0007 8 31.0007 8C30.3218 9.09124 29.9824 10.2664 29.8976 11.4416C29.8976 13.3723 31.3401 13.5401 31.3401 15.135Z" fill="#2AD2FF"/>
<path d="M29.6441 51.8175L27.7773 50.5584H30.0684L30.832 48.292L31.5109 50.5584H33.8019L31.9351 51.8175L32.6139 54L30.7472 52.657L28.7956 54L29.6441 51.8175Z" fill="#2AD2FF"/>
<path d="M39.4019 51.8175L37.5352 50.5584H39.8262L40.5898 48.292L41.2687 50.5584H43.5597L41.6929 51.8175L42.3717 54L40.505 52.657L38.5534 54L39.4019 51.8175Z" fill="#2AD2FF"/>
<path d="M19.9703 51.8175L18.1035 50.5584H20.3945L21.1582 48.292L21.837 50.5584H24.128L22.2613 51.8175L22.9401 54L21.0734 52.657L19.2066 54L19.9703 51.8175Z" fill="#2AD2FF"/>
<defs>
<linearGradient id="paint0_linear_5761_1636" x1="17.0011" y1="46.4785" x2="17.0011" y2="36.1755" gradientUnits="userSpaceOnUse">
<stop offset="0.73" stop-color="#2AF4FF"/>
<stop offset="0.884" stop-color="#2AF4FF"/>
</linearGradient>
</defs>
</svg>
