<svg width="239" height="37" viewBox="0 0 239 37" fill="none" xmlns="http://www.w3.org/2000/svg">
<path d="M11.6139 3.0689H14.3765C17.5519 3.0689 18.0717 3.13769 19.1956 3.70588C20.8256 4.52505 22.0167 6.1481 23.0561 8.96486C23.4789 10.1114 23.4726 10.1114 24.4126 9.81587L25.0342 9.62095L24.9771 5.46907C24.946 3.1861 24.8937 1.15538 24.8627 0.957916L24.8067 0.597383L12.6918 0.571904C6.02886 0.55789 0.447595 0.571904 0.28845 0.599932L0 0.652163L0.0261096 1.3898L0.0509761 2.12743L0.973519 2.24081C2.16959 2.38732 2.8845 2.73129 3.30847 3.36573C4.26459 4.79386 4.43865 6.73922 4.43617 15.9781C4.43617 25.8208 4.23475 28.2083 3.30972 29.4529C2.83353 30.0899 2.44685 30.3027 1.36765 30.5091C-0.0397862 30.7766 0.00745962 30.7422 0.00745962 31.4875C0.00745962 31.9028 0.043516 32.1245 0.116872 32.1576C0.274774 32.2226 15.7703 32.2277 15.9356 32.1576C16.1482 32.0735 16.1358 30.9015 15.9207 30.7881C15.5394 30.6802 15.1508 30.601 14.7582 30.5511C14.2941 30.4891 13.8364 30.3847 13.3906 30.239C12.376 29.7867 11.8115 28.5344 11.5989 26.2705C11.4597 24.6513 11.3353 21.6575 11.3353 19.4446V17.4151L12.279 17.4444C14.2882 17.5069 15.3276 17.6152 15.7479 17.805C16.6568 18.2177 17.3928 19.3669 17.7745 20.9734L17.9784 21.8269L18.6958 21.8537L19.412 21.8792V11.0695L18.6958 11.0949L17.9796 11.1217L17.7695 11.9753C17.3642 13.6314 16.7015 14.6506 15.728 15.108C15.3326 15.2952 15.0516 15.3475 14.1042 15.4048C13.4739 15.4443 12.5936 15.4774 12.1472 15.48H11.3353V12.8046C11.3353 10.1216 11.4746 4.42313 11.5641 3.53772L11.6139 3.0689Z" fill="white"/>
<path d="M43.305 18.9503C42.8449 14.9577 41.1913 12.0352 38.4672 10.3905C35.4372 8.56357 30.832 8.45783 27.5608 10.1357C25.1985 11.351 23.2676 13.6913 22.411 16.3781C21.5295 19.1592 21.5295 22.8041 22.4122 25.6323C22.9792 27.4464 23.7475 28.7701 24.9337 29.974C26.356 31.4174 28.2173 32.3398 30.3471 32.6583C31.1092 32.7717 33.5138 32.7742 34.3021 32.6583C34.7853 32.5802 35.2635 32.473 35.7344 32.3372C39.5949 31.1907 42.2283 28.1535 43.1334 23.8016C43.3547 22.7442 43.4455 20.1695 43.305 18.9503ZM28.7507 16.6712C29.2206 12.7218 30.4093 10.7204 32.2829 10.7179C33.1271 10.7179 33.5946 10.9281 34.2561 11.6096C35.8276 13.2314 36.5736 16.3285 36.5612 21.1976C36.5513 25.0819 36.1745 27.5293 35.3303 29.1829C34.9213 29.9842 34.1541 30.7218 33.5325 30.9117C31.1329 31.6416 29.4146 29.2988 28.7482 24.3914C28.5343 22.8041 28.5343 18.484 28.7507 16.6712Z" fill="white"/>
<path d="M99.431 9.82825C97.019 8.58994 93.294 8.68167 90.5686 10.0397C87.9875 11.3303 86.217 13.4795 85.2224 16.5179C84.7064 18.0989 84.5435 19.3716 84.6007 21.4227C84.633 22.7183 84.6915 23.3884 84.822 23.9872C85.8403 28.6423 88.9548 31.8069 93.3114 32.612C94.27 32.7891 96.4471 32.7929 97.4144 32.6197C98.7982 32.3713 100.398 31.7406 101.4 31.0438C102.629 30.194 103.887 28.915 103.887 28.5187C103.887 28.2767 103.466 27.72 103.282 27.72C103.201 27.72 102.86 27.9021 102.523 28.1251C101.322 28.9213 100.173 29.2475 98.5756 29.2475C96.3712 29.2475 94.97 28.6856 93.5713 27.2333C92.9496 26.5963 92.6935 26.2422 92.3715 25.6052C91.6636 24.2038 91.2815 22.5922 91.2251 20.7704L91.2003 19.9844L97.6978 19.9615L104.194 19.9372L104.214 19.4914C104.219 19.0105 104.195 18.5297 104.143 18.0518C103.743 14.0056 102.145 11.222 99.431 9.82825ZM96.0591 17.9473C95.2187 17.9779 93.7913 18.0148 92.885 18.0288L91.2388 18.0569V17.6925C91.2599 17.2994 91.3014 16.9078 91.3631 16.5192C91.9114 12.896 93.2281 10.7213 94.8817 10.72C96.3998 10.72 97.336 12.8603 97.53 16.7816L97.5859 17.8925L96.0579 17.9473H96.0591Z" fill="white"/>
<path d="M121.561 22.1351C120.823 20.6216 119.464 19.5871 116.616 18.3667C114.291 17.3717 113.124 16.6825 112.411 15.8837C111.833 15.2352 111.665 14.7116 111.72 13.7421C111.772 12.8503 111.986 12.3153 112.533 11.7152C113.236 10.9508 114.202 10.6769 115.358 10.9266C117.255 11.3381 118.466 12.6847 119.521 15.5295C119.894 16.5487 119.939 16.5767 120.611 16.3207L121.035 16.1589L121.02 14.9893C121.013 14.346 120.98 12.9956 120.949 11.9879L120.893 10.1572L120.576 10.0196C118.836 9.26665 115.53 8.79782 113.373 9.00039C110.923 9.2297 109.124 10.0272 107.739 11.4974C106.354 12.9675 105.741 14.6721 105.852 16.7067C105.942 18.3896 106.429 19.5973 107.441 20.656C108.379 21.6395 109.168 22.1058 111.427 23.009C115.073 24.469 116.038 25.334 116.027 27.1329C116.027 28.6515 115.235 29.7637 113.801 30.2822C113.289 30.4682 111.994 30.4656 111.302 30.2822C109.49 29.793 108.102 28.1839 106.92 25.2015L106.616 24.4372L106.261 24.455C106.056 24.4662 105.854 24.5118 105.663 24.59L105.414 24.7098L105.438 26.0131C105.45 26.7303 105.485 28.2412 105.515 29.3713L105.571 31.4275L105.975 31.6058C106.804 31.9702 109.293 32.5295 110.857 32.7002C111.051 32.7218 112.118 32.7295 113.228 32.7167C115.155 32.6951 115.295 32.6811 116.263 32.4224C119.123 31.6581 120.977 30.0223 121.797 27.5418C122.046 26.7775 122.084 26.5469 122.121 25.4143C122.176 23.9021 122.041 23.1173 121.561 22.1351Z" fill="white"/>
<path d="M59.1421 8.91797C58.1226 8.91797 57.5718 9.0339 56.745 9.42119C55.2406 10.127 54.1104 11.285 53.1008 13.1488L52.7862 13.7311L52.826 12.6966C52.8484 12.1271 52.8857 11.0646 52.9093 10.3346L52.9516 9.00715H52.7402C52.463 9.00715 43.7647 10.7907 43.5011 10.9003C43.3308 10.9716 43.3047 11.0493 43.3047 11.4774C43.3047 11.9054 43.3258 11.9781 43.5011 12.015L44.3901 12.1934C45.1585 12.3437 45.3848 12.466 45.7043 12.8966C46.2899 13.6903 46.4093 15.0904 46.403 21.0182C46.403 25.8593 46.2998 28.2799 46.076 29.0328C45.8013 29.959 45.3126 30.4342 44.4597 30.5947C44.185 30.6469 43.8219 30.7221 43.6528 30.7577L43.3457 30.824L43.3196 31.4457C43.301 31.8827 43.3271 32.0903 43.4066 32.1426C43.47 32.1833 46.4453 32.2075 50.0186 32.1948L56.5162 32.1744L56.5411 31.4763C56.556 31.0941 56.5411 30.7794 56.4976 30.7794C55.9928 30.7794 54.4461 30.5616 54.2024 30.4571C53.4688 30.1437 53.1145 29.4697 52.9591 28.1015C52.7788 26.4963 52.6731 22.5024 52.7228 19.2295C52.7726 15.9236 52.7738 15.9108 52.9715 15.6892C53.4415 15.1719 54.6338 14.7693 55.7068 14.7668C56.5647 14.7668 57.4474 14.991 58.3886 15.4535C58.84 15.6764 59.259 15.8357 59.3137 15.8165C59.4318 15.7707 61.5628 9.9983 61.5628 9.72694C61.5678 9.32182 60.3518 8.91797 59.1421 8.91797Z" fill="white"/>
<path d="M75.8887 9.39812C75.3714 9.28856 74.9039 9.27072 73.8993 9.3013C72.385 9.35608 71.3418 9.58794 70.2104 10.1243C69.8374 10.3014 69.5079 10.4466 69.4831 10.4466C69.4582 10.4466 69.4619 8.09867 69.4918 5.2233C69.5328 1.1797 69.5216 0 69.4396 0C69.1536 0 60.1868 1.7479 60.0885 1.82816C60.0152 1.88676 59.9841 2.08295 60.0003 2.37596C60.0301 2.88555 59.9704 2.84734 61.0633 3.09831C61.3632 3.16243 61.652 3.27237 61.92 3.42445C62.2842 3.69071 62.5876 4.26655 62.7977 5.09208C62.9643 5.74436 62.9867 6.21063 63.0626 10.6173C63.1409 15.117 63.126 19.7428 63.0054 28.2173L62.9544 31.7373L63.5984 31.8876C64.5272 32.1042 67.1891 32.5577 68.0607 32.652C69.3388 32.7794 72.3166 32.7667 73.2652 32.6202C77.3819 31.9832 80.4864 29.5371 81.9324 25.7853C82.3618 24.6029 82.6576 23.374 82.8139 22.1226C82.9656 20.7887 82.8798 18.1261 82.6523 17.0547C81.7733 12.9512 79.2705 10.1154 75.8887 9.39812ZM71.5756 30.8672C71.1131 30.9576 70.9751 30.9602 70.1383 30.8926C69.7827 30.8646 69.7044 30.8238 69.6323 30.6302C69.5204 30.327 69.3836 19.7823 69.4408 15.5705L69.4843 12.2824L70.0649 12.1066C70.5137 11.9813 70.9775 11.9221 71.4425 11.9308C72.1885 11.9308 72.2805 11.9537 72.9072 12.2709C74.4166 13.0353 75.451 14.9335 75.9322 17.8229C76.11 18.8918 76.1323 21.8079 75.972 23.087C75.5766 26.2286 74.5745 28.7651 73.2366 29.9932C72.777 30.4457 72.1976 30.7496 71.5706 30.8672H71.5756Z" fill="white"/>
<path d="M165.897 18.531H164.69V8.9927H161.402V7.89453H169.184V8.9927H165.897V18.531Z" fill="white"/>
<path d="M173.858 18.6745C172.709 18.6745 171.801 18.3153 171.135 17.5967C170.47 16.8782 170.138 15.8815 170.141 14.6067C170.141 13.3209 170.45 12.3017 171.068 11.5492C171.687 10.7967 172.515 10.4183 173.555 10.4141C174.531 10.4141 175.303 10.7427 175.87 11.4001C176.437 12.0575 176.721 12.9246 176.722 14.0016V14.766H171.359C171.382 15.7002 171.613 16.4107 172.052 16.8973C172.49 17.384 173.106 17.6265 173.9 17.6248C174.756 17.6216 175.603 17.4386 176.387 17.0871V18.1547C176.007 18.327 175.611 18.4597 175.205 18.5509C174.761 18.6391 174.31 18.6806 173.858 18.6745ZM173.539 11.4205C172.913 11.4205 172.416 11.629 172.047 12.046C171.678 12.463 171.459 13.0402 171.39 13.7774H175.458C175.458 13.013 175.293 12.4299 174.961 12.0282C174.629 11.6265 174.155 11.4239 173.539 11.4205Z" fill="white"/>
<path d="M181.84 18.6769C180.714 18.6769 179.841 18.3215 179.223 17.6106C178.605 16.8997 178.296 15.8928 178.297 14.59C178.297 13.2566 178.611 12.2259 179.238 11.498C179.866 10.7702 180.759 10.4063 181.919 10.4062C182.295 10.4079 182.67 10.4506 183.038 10.5336C183.342 10.5925 183.638 10.6905 183.918 10.8254L183.556 11.8446C183.279 11.733 182.995 11.644 182.704 11.5783C182.437 11.5135 182.163 11.4784 181.888 11.4738C180.306 11.4738 179.515 12.5066 179.515 14.5722C179.515 15.5523 179.708 16.3043 180.095 16.8284C180.481 17.3524 181.052 17.614 181.809 17.6131C182.495 17.6052 183.173 17.4598 183.805 17.1851V18.2539C183.289 18.5359 182.634 18.6769 181.84 18.6769Z" fill="white"/>
<path d="M190.977 18.5315V13.3732C190.977 12.7234 190.833 12.2385 190.544 11.9183C190.254 11.5981 189.803 11.438 189.188 11.438C188.369 11.438 187.772 11.666 187.395 12.1221C187.019 12.5782 186.831 13.3252 186.831 14.363V18.5315H185.652V7.21094H186.831V10.6418C186.834 10.9824 186.815 11.3229 186.774 11.6609H186.845C187.087 11.2694 187.431 10.9555 187.839 10.7551C188.296 10.5279 188.798 10.4144 189.305 10.4239C190.256 10.4239 190.97 10.6558 191.446 11.1195C191.923 11.5832 192.161 12.3192 192.16 13.3273V18.5289L190.977 18.5315Z" fill="white"/>
<path d="M199.903 18.5295V13.3712C199.903 12.7214 199.759 12.2365 199.471 11.9163C199.182 11.5961 198.73 11.436 198.114 11.436C197.3 11.436 196.704 11.6615 196.325 12.1125C195.946 12.5635 195.757 13.3083 195.757 14.347V18.5295H194.578V10.5557H195.537L195.728 11.6475H195.785C196.032 11.2503 196.384 10.9334 196.8 10.734C197.255 10.5143 197.753 10.4036 198.256 10.4105C199.193 10.4105 199.898 10.6419 200.37 11.1048C200.841 11.5677 201.078 12.3087 201.079 13.3279V18.5295H199.903Z" fill="white"/>
<path d="M210.145 14.5378C210.145 15.8372 209.826 16.8521 209.187 17.5826C208.548 18.313 207.665 18.6782 206.539 18.6782C205.886 18.6883 205.244 18.5118 204.685 18.1686C204.141 17.8252 203.708 17.3242 203.441 16.729C203.135 16.0398 202.984 15.2886 203.001 14.5314C203.001 13.2319 203.318 12.2195 203.952 11.4942C204.587 10.7689 205.467 10.4062 206.594 10.4062C207.683 10.4062 208.548 10.7774 209.189 11.5197C209.831 12.262 210.15 13.268 210.145 14.5378ZM204.216 14.5378C204.216 15.5569 204.415 16.3332 204.813 16.8666C205.211 17.3999 205.795 17.6666 206.567 17.6666C207.338 17.6666 207.924 17.4008 208.324 16.8691C208.724 16.3375 208.924 15.5603 208.924 14.5378C208.924 13.5237 208.724 12.7538 208.324 12.228C207.924 11.7023 207.333 11.439 206.552 11.4382C205.781 11.4382 205.201 11.6976 204.812 12.2166C204.422 12.7355 204.224 13.5092 204.217 14.5378H204.216Z" fill="white"/>
<path d="M213.179 18.5315H212V7.21094H213.179V18.5315Z" fill="white"/>
<path d="M222.144 14.5378C222.144 15.8372 221.825 16.8521 221.186 17.5826C220.546 18.313 219.664 18.6782 218.537 18.6782C217.886 18.6881 217.244 18.5117 216.685 18.1686C216.141 17.8252 215.708 17.3242 215.441 16.729C215.135 16.0398 214.984 15.2886 215.001 14.5314C215.001 13.2319 215.318 12.2195 215.952 11.4942C216.587 10.7689 217.467 10.4062 218.593 10.4062C219.682 10.4062 220.547 10.7774 221.188 11.5197C221.829 12.262 222.147 13.268 222.144 14.5378ZM216.216 14.5378C216.216 15.5569 216.415 16.3332 216.813 16.8666C217.211 17.3999 217.795 17.6666 218.566 17.6666C219.338 17.6666 219.924 17.4008 220.324 16.8691C220.723 16.3375 220.923 15.5603 220.923 14.5378C220.923 13.5237 220.723 12.7538 220.324 12.228C219.924 11.7023 219.333 11.439 218.551 11.4382C217.778 11.4382 217.198 11.6976 216.81 12.2166C216.422 12.7355 216.224 13.5092 216.216 14.5378Z" fill="white"/>
<path d="M230.578 10.5568V11.3211L229.135 11.4957C229.474 11.9539 229.654 12.5146 229.648 13.0894C229.648 13.8699 229.387 14.4929 228.865 14.9583C228.344 15.4238 227.63 15.6569 226.722 15.6577C226.503 15.6585 226.284 15.6389 226.068 15.5991C225.571 15.8709 225.32 16.2128 225.316 16.6247C225.311 16.7225 225.333 16.8198 225.379 16.9054C225.425 16.991 225.494 17.0615 225.578 17.1088C225.754 17.2133 226.055 17.2655 226.481 17.2655H227.857C228.7 17.2655 229.347 17.4473 229.799 17.8108C230.251 18.1743 230.479 18.703 230.484 19.3969C230.484 20.2793 230.139 20.9524 229.447 21.4161C228.756 21.8798 227.746 22.11 226.416 22.1066C225.399 22.1066 224.615 21.9125 224.063 21.5244C223.798 21.3467 223.583 21.1021 223.438 20.8141C223.293 20.5261 223.224 20.2047 223.236 19.881C223.228 19.418 223.39 18.9687 223.69 18.6223C224.029 18.2477 224.477 17.9953 224.968 17.9025C224.767 17.8083 224.595 17.6599 224.47 17.4732C224.334 17.2757 224.263 17.0386 224.268 16.7967C224.262 16.5236 224.342 16.2559 224.495 16.0323C224.69 15.773 224.933 15.5564 225.211 15.3953C224.803 15.2193 224.459 14.9162 224.228 14.529C223.973 14.1089 223.844 13.6219 223.855 13.1276C223.855 12.2537 224.111 11.5806 224.622 11.1084C225.133 10.6362 225.857 10.3996 226.794 10.3988C227.166 10.3939 227.536 10.4428 227.894 10.544L230.578 10.5568ZM224.372 19.8695C224.364 20.0675 224.41 20.2638 224.504 20.4371C224.598 20.6103 224.736 20.7538 224.904 20.8518C225.258 21.0751 225.767 21.1868 226.431 21.1868C227.42 21.1868 228.152 21.0352 228.628 20.732C229.104 20.4288 229.342 20.0177 229.342 19.4988C229.342 19.0665 229.212 18.7692 228.951 18.607C228.691 18.4388 228.205 18.3522 227.482 18.3522H226.068C225.533 18.3522 225.117 18.483 224.818 18.7446C224.52 19.0062 224.371 19.3812 224.372 19.8695ZM225.014 13.1111C225.014 13.6691 225.168 14.0908 225.476 14.3761C225.785 14.6615 226.211 14.8046 226.754 14.8055C227.905 14.8055 228.48 14.2334 228.48 13.0894C228.48 11.8902 227.9 11.291 226.739 11.2918C226.186 11.2918 225.76 11.4447 225.461 11.7505C225.163 12.0562 225.014 12.5098 225.014 13.1111Z" fill="white"/>
<path d="M230.938 10.5559H232.202L233.905 15.104C234.279 16.141 234.511 16.8901 234.602 17.3513H234.659C234.72 17.1041 234.849 16.6795 235.045 16.0773C235.242 15.4751 235.884 13.633 236.973 10.5508H238.237L234.892 19.6304C234.561 20.5281 234.174 21.1651 233.731 21.5414C233.271 21.9242 232.691 22.1246 232.099 22.1057C231.74 22.1049 231.383 22.0621 231.033 21.9783V21.0101C231.319 21.0713 231.611 21.1008 231.904 21.098C232.713 21.098 233.29 20.6309 233.637 19.6967L234.069 18.5628L230.938 10.5559Z" fill="white"/>
<path d="M167.151 25.3062C166.011 25.3062 165.111 25.6956 164.449 26.4745C163.788 27.2533 163.456 28.3192 163.455 29.6721C163.455 31.065 163.773 32.1407 164.41 32.8991C165.046 33.6576 165.954 34.0368 167.132 34.0368C167.972 34.0191 168.806 33.8845 169.61 33.6367V34.7209C168.891 34.9978 168.003 35.1362 166.947 35.1362C165.419 35.1362 164.239 34.6606 163.407 33.7094C162.576 32.7581 162.162 31.4073 162.164 29.6568C162.164 28.5612 162.364 27.6011 162.765 26.7764C163.141 25.975 163.744 25.3088 164.497 24.8654C165.251 24.4195 166.14 24.1962 167.163 24.1953C168.252 24.1953 169.203 24.3991 170.017 24.8068L169.506 25.8693C168.771 25.505 167.967 25.3127 167.151 25.3062Z" fill="white"/>
<path d="M178.413 30.9962C178.413 32.2974 178.094 33.3123 177.455 34.041C176.816 34.7697 175.933 35.135 174.806 35.1367C174.156 35.1484 173.514 34.9746 172.954 34.6347C172.407 34.292 171.972 33.7904 171.704 33.1938C171.397 32.505 171.246 31.7536 171.263 30.9962C171.263 29.6968 171.58 28.6844 172.215 27.9591C172.85 27.2337 173.731 26.8711 174.856 26.8711C175.945 26.8711 176.81 27.2422 177.451 27.9845C178.092 28.7269 178.413 29.7307 178.413 30.9962ZM172.485 30.9962C172.485 32.0154 172.684 32.7917 173.081 33.3251C173.478 33.8584 174.063 34.1251 174.835 34.1251C175.607 34.1251 176.192 33.8597 176.592 33.3289C176.991 32.7981 177.192 32.0205 177.192 30.9962C177.192 29.9838 176.992 29.2139 176.592 28.6865C176.192 28.1591 175.601 27.8958 174.821 27.8966C174.05 27.8966 173.467 28.1561 173.075 28.675C172.682 29.194 172.485 29.9677 172.485 30.9962Z" fill="white"/>
<path d="M181.591 27.0195V32.1931C181.591 32.8429 181.735 33.3278 182.023 33.648C182.312 33.9682 182.764 34.1283 183.38 34.1283C184.194 34.1283 184.789 33.9003 185.165 33.4442C185.542 32.9881 185.73 32.2437 185.73 31.2109V27.0195H186.908V34.9933H185.936L185.766 33.9245H185.702C185.459 34.3181 185.11 34.6313 184.697 34.8265C184.237 35.0423 183.736 35.1495 183.231 35.1399C182.284 35.1399 181.575 34.9093 181.105 34.4481C180.634 33.9869 180.398 33.2497 180.398 32.2365V27.0195H181.591Z" fill="white"/>
<path d="M194.731 34.9905V29.8334C194.731 29.1824 194.586 28.6983 194.297 28.3773C194.009 28.0562 193.551 27.897 192.942 27.897C192.127 27.897 191.531 28.1229 191.152 28.5747C190.773 29.0266 190.584 29.771 190.585 30.808V34.9905H189.406V27.0167H190.364L190.555 28.1085H190.612C190.86 27.7115 191.212 27.3947 191.628 27.195C192.083 26.975 192.581 26.8643 193.084 26.8714C194.021 26.8714 194.726 27.1033 195.198 27.567C195.669 28.0307 195.906 28.7713 195.908 29.7888V34.9905H194.731Z" fill="white"/>
<path d="M201.443 35.1367C200.317 35.1367 199.447 34.7812 198.833 34.0703C198.218 33.3595 197.91 32.3543 197.906 31.0548C197.906 29.7206 198.22 28.6899 198.846 27.9629C199.473 27.2359 200.366 26.8719 201.527 26.8711C201.903 26.8734 202.278 26.9161 202.646 26.9985C202.95 27.0577 203.246 27.1557 203.526 27.2902L203.163 28.3094C202.886 28.1975 202.602 28.1085 202.311 28.0432C202.044 27.9782 201.77 27.9431 201.494 27.9387C199.914 27.9387 199.123 28.9719 199.123 31.0383C199.123 32.0184 199.316 32.77 199.702 33.2932C200.087 33.8164 200.659 34.0784 201.417 34.0793C202.101 34.0702 202.777 33.9243 203.407 33.6499V34.7188C202.889 34.9974 202.234 35.1367 201.443 35.1367Z" fill="white"/>
<path d="M205.162 24.8606C205.162 24.5845 205.229 24.382 205.361 24.2529C205.497 24.1278 205.673 24.0586 205.855 24.0586C206.037 24.0586 206.213 24.1278 206.349 24.2529C206.422 24.3333 206.478 24.4286 206.513 24.5326C206.549 24.6366 206.563 24.747 206.554 24.8567C206.562 24.9671 206.549 25.078 206.513 25.1826C206.478 25.2872 206.422 25.3831 206.349 25.4644C206.284 25.5292 206.207 25.5801 206.123 25.6145C206.039 25.6488 205.949 25.6658 205.859 25.6644C205.767 25.6672 205.676 25.6509 205.59 25.6166C205.505 25.5822 205.427 25.5304 205.361 25.4644C205.29 25.3827 205.236 25.287 205.202 25.1833C205.168 25.0795 205.154 24.9697 205.162 24.8606ZM206.441 34.995H205.262V27.0212H206.441V34.995Z" fill="white"/>
<path d="M210.179 34.9924H209V23.6719H210.179V34.9924Z" fill="white"/>
<path d="M143.663 5.78125H142.434V37H143.663V5.78125Z" fill="white"/>
</svg>
