<svg width="125" height="27" viewBox="0 0 125 27" fill="none" xmlns="http://www.w3.org/2000/svg">
<g clip-path="url(#clip0_7005_2607)">
<path d="M98.2935 0.371094V14.6911L93.6738 0.371094H89.1133V26.6322H93.6738V13.7648L97.8016 26.6322H102.858V0.371094H98.2935Z" fill="white"/>
<path d="M5.38064 0.375H1.19738H0.816406V26.6361H5.38064V15.3762H9.61199V10.9285H5.38064V4.82274H11.9459V0.375H5.38064Z" fill="white"/>
<path d="M16.3984 6.17421V20.8258C16.3984 24.2355 19.2354 27 22.7344 27C26.2334 27 29.0703 24.2355 29.0703 20.8258V6.1706C29.0703 2.76091 26.2334 0 22.7381 0C19.2391 0 16.4021 2.76452 16.4021 6.17421M20.9664 20.8258V6.17421C20.9664 5.21906 21.7579 4.44774 22.7381 4.44774H22.7418C23.7182 4.44774 24.5098 5.21906 24.5098 6.1706V20.8258C24.5098 21.7809 23.7182 22.5523 22.7381 22.5523C21.7579 22.5523 20.9664 21.7809 20.9664 20.8258Z" fill="white"/>
<path d="M52.6992 0.371094V4.81883H56.7419V26.6322H61.3062V4.81883H65.3489V0.371094H52.6992Z" fill="white"/>
<path d="M78.7209 0.371094V20.8256C78.7209 21.7808 77.9294 22.5521 76.9492 22.5521C75.969 22.5521 75.1775 21.7808 75.1775 20.8256V0.371094H70.6133V20.8256C70.6133 24.2353 73.4502 26.9998 76.9492 26.9998C80.4482 26.9998 83.2851 24.2353 83.2851 20.8256V0.371094H78.7209Z" fill="white"/>
<path d="M108.824 0.371094V26.6322H119.95V22.1845H113.388V15.3723H117.62V10.9246H113.388V4.81883H119.95V0.371094H108.824Z" fill="white"/>
<path d="M48.357 26.6322H43.6411L40.2679 14.1648C40.2679 14.1648 43.1714 13.6566 43.1714 10.647V6.5417C43.1714 5.59016 42.3798 4.81883 41.4034 4.81883H39.6502V26.6322H35.0859V0.371094H41.4034C44.8062 0.371094 47.5766 2.98783 47.7245 6.27137H47.7393V10.5641H47.7245C47.7245 13.1556 46.8553 15.0263 45.2612 16.2157L48.3607 26.6322H48.357Z" fill="white"/>
<path d="M121.672 1.3028C121.761 1.11177 121.88 0.94237 122.028 0.801801C122.175 0.661233 122.353 0.549498 122.549 0.466599C122.749 0.387304 122.96 0.347656 123.182 0.347656C123.403 0.347656 123.618 0.387304 123.814 0.466599C124.014 0.545894 124.184 0.657628 124.332 0.801801C124.48 0.94237 124.598 1.11177 124.683 1.3028C124.768 1.49744 124.813 1.70288 124.813 1.92635C124.813 2.14982 124.768 2.36608 124.683 2.56071C124.594 2.75535 124.476 2.92475 124.332 3.06532C124.184 3.20949 124.01 3.31762 123.814 3.40052C123.618 3.47981 123.407 3.51946 123.182 3.51946C122.956 3.51946 122.745 3.47981 122.549 3.40052C122.349 3.32122 122.175 3.20949 122.028 3.06532C121.876 2.92114 121.761 2.75535 121.672 2.56071C121.584 2.36608 121.543 2.15342 121.543 1.92635C121.543 1.69928 121.587 1.49383 121.672 1.3028ZM121.939 2.4706C122.009 2.6364 122.101 2.78058 122.224 2.90312C122.346 3.02567 122.486 3.11938 122.653 3.19147C122.815 3.25995 122.997 3.29599 123.185 3.29599C123.374 3.29599 123.551 3.25995 123.714 3.19147C123.877 3.12299 124.017 3.02567 124.139 2.90312C124.262 2.78058 124.354 2.6364 124.424 2.4706C124.491 2.3048 124.528 2.12459 124.528 1.92996C124.528 1.73532 124.495 1.56231 124.424 1.40012C124.358 1.23432 124.262 1.09375 124.139 0.971205C124.017 0.852262 123.877 0.754945 123.714 0.686463C123.551 0.617981 123.374 0.581937 123.185 0.581937C122.997 0.581937 122.815 0.617981 122.653 0.686463C122.49 0.754945 122.346 0.852262 122.224 0.971205C122.101 1.09015 122.009 1.23432 121.939 1.40012C121.872 1.56592 121.835 1.74253 121.835 1.92996C121.835 2.11738 121.868 2.3048 121.939 2.4706ZM123.285 1.00725C123.511 1.00725 123.681 1.0505 123.788 1.14061C123.899 1.22711 123.951 1.36047 123.951 1.54069C123.951 1.70649 123.903 1.82903 123.807 1.90833C123.71 1.98762 123.592 2.03088 123.448 2.04529L123.992 2.86708H123.673L123.156 2.06692H122.841V2.86708H122.545V1.00725H123.281H123.285ZM123.156 1.83264C123.222 1.83264 123.285 1.83264 123.344 1.82543C123.403 1.82183 123.459 1.81101 123.503 1.78939C123.551 1.76776 123.585 1.73893 123.614 1.69928C123.64 1.65963 123.655 1.60196 123.655 1.52627C123.655 1.465 123.644 1.41454 123.618 1.37849C123.592 1.34245 123.562 1.31362 123.522 1.29199C123.481 1.27036 123.437 1.25955 123.385 1.25234C123.333 1.24513 123.285 1.24153 123.233 1.24153H122.841V1.83264H123.152H123.156Z" fill="white"/>
</g>
<defs>
<clipPath id="clip0_7005_2607">
<rect width="124" height="27" fill="white" transform="translate(0.816406)"/>
</clipPath>
</defs>
</svg>
