<svg width="156" height="34" viewBox="0 0 156 34" fill="none" xmlns="http://www.w3.org/2000/svg">
<g clip-path="url(#clip0_5109_1284)">
<path d="M122.627 0.467773V18.5003L116.816 0.467773H111.078V33.5373H116.816V17.3339L122.009 33.5373H128.37V0.467773H122.627Z" fill="#A5A5A5"/>
<path d="M5.7421 0.467773H0.479284H0V33.5373H5.7421V19.3582H11.0654V13.7573H5.7421V6.06863H14.0016V0.467773H5.7421Z" fill="#A5A5A5"/>
<path d="M19.6055 7.77493V26.2251C19.6055 30.5188 23.1745 34 27.5765 34C31.9784 34 35.5475 30.5188 35.5475 26.2251V7.77039C35.5475 3.47671 31.9784 0 27.5811 0C23.1792 0 19.6101 3.48124 19.6101 7.77493M25.3522 26.2251V7.77493C25.3522 6.57215 26.348 5.60085 27.5811 5.60085H27.5858C28.8142 5.60085 29.81 6.57215 29.81 7.77039V26.2251C29.81 27.4278 28.8142 28.3991 27.5811 28.3991C26.348 28.3991 25.3522 27.4278 25.3522 26.2251Z" fill="#A5A5A5"/>
<path d="M65.2695 0.467773V6.06863H70.3555V33.5373H76.0976V6.06863H81.1836V0.467773H65.2695Z" fill="#A5A5A5"/>
<path d="M98.0085 0.467773V26.2253C98.0085 27.4281 97.0127 28.3994 95.7796 28.3994C94.5465 28.3994 93.5507 27.4281 93.5507 26.2253V0.467773H87.8086V26.2253C87.8086 30.519 91.3776 34.0003 95.7796 34.0003C100.182 34.0003 103.751 30.519 103.751 26.2253V0.467773H98.0085Z" fill="#A5A5A5"/>
<path d="M135.883 0.467773V33.5373H149.88V27.9365H141.625V19.3582H146.948V13.7573H141.625V6.06863H149.88V0.467773H135.883Z" fill="#A5A5A5"/>
<path d="M59.8091 33.5373H53.8762L49.6325 17.8377C49.6325 17.8377 53.2853 17.1977 53.2853 13.4078V8.23816C53.2853 7.03993 52.2895 6.06863 51.061 6.06863H48.8554V33.5373H43.1133V0.467773H51.061C55.342 0.467773 58.8273 3.76293 59.0134 7.89776H59.032V13.3034H59.0134C59.0134 16.5668 57.9199 18.9225 55.9144 20.4203L59.8138 33.5373H59.8091Z" fill="#A5A5A5"/>
<path d="M152.042 1.64321C152.153 1.40265 152.302 1.18933 152.488 1.01232C152.675 0.835304 152.898 0.694601 153.145 0.590209C153.396 0.490356 153.661 0.44043 153.94 0.44043C154.219 0.44043 154.489 0.490356 154.736 0.590209C154.987 0.690063 155.201 0.830765 155.387 1.01232C155.574 1.18933 155.722 1.40265 155.83 1.64321C155.937 1.8883 155.992 2.14701 155.992 2.42842C155.992 2.70982 155.937 2.98215 155.83 3.22724C155.718 3.47233 155.569 3.68566 155.387 3.86267C155.201 4.04422 154.983 4.18038 154.736 4.28478C154.489 4.38463 154.224 4.43456 153.94 4.43456C153.656 4.43456 153.391 4.38463 153.145 4.28478C152.893 4.18492 152.675 4.04422 152.488 3.86267C152.298 3.68112 152.153 3.47233 152.042 3.22724C151.93 2.98215 151.879 2.71436 151.879 2.42842C151.879 2.14247 151.935 1.88376 152.042 1.64321ZM152.377 3.11377C152.465 3.32255 152.582 3.50411 152.735 3.65842C152.889 3.81274 153.065 3.93075 153.275 4.02153C153.48 4.10776 153.708 4.15315 153.945 4.15315C154.182 4.15315 154.406 4.10776 154.61 4.02153C154.815 3.93529 154.992 3.81274 155.145 3.65842C155.299 3.50411 155.415 3.32255 155.504 3.11377C155.588 2.90499 155.634 2.67805 155.634 2.43295C155.634 2.18786 155.592 1.97 155.504 1.76575C155.42 1.55697 155.299 1.37996 155.145 1.22564C154.992 1.07586 154.815 0.953312 154.61 0.867075C154.406 0.780838 154.182 0.73545 153.945 0.73545C153.708 0.73545 153.48 0.780838 153.275 0.867075C153.07 0.953312 152.889 1.07586 152.735 1.22564C152.582 1.37542 152.465 1.55697 152.377 1.76575C152.293 1.97454 152.247 2.19694 152.247 2.43295C152.247 2.66897 152.288 2.90499 152.377 3.11377ZM154.071 1.27103C154.354 1.27103 154.568 1.32549 154.703 1.43896C154.843 1.54789 154.908 1.71583 154.908 1.94277C154.908 2.15155 154.848 2.30587 154.727 2.40572C154.606 2.50557 154.457 2.56004 154.275 2.57819L154.959 3.61304H154.559L153.908 2.60543H153.512V3.61304H153.14V1.27103H154.066H154.071ZM153.908 2.31041C153.991 2.31041 154.071 2.31041 154.145 2.30133C154.219 2.29679 154.289 2.28317 154.345 2.25594C154.406 2.22871 154.447 2.1924 154.485 2.14247C154.517 2.09255 154.536 2.01992 154.536 1.92461C154.536 1.84745 154.522 1.78391 154.489 1.73852C154.457 1.69313 154.42 1.65682 154.368 1.62959C154.317 1.60236 154.261 1.58874 154.196 1.57966C154.131 1.57059 154.071 1.56605 154.005 1.56605H153.512V2.31041H153.903H153.908Z" fill="#A5A5A5"/>
</g>
<defs>
<clipPath id="clip0_5109_1284">
<rect width="156" height="34" fill="white"/>
</clipPath>
</defs>
</svg>
