<svg width="143" height="21" viewBox="0 0 143 21" fill="none" xmlns="http://www.w3.org/2000/svg">
<g clip-path="url(#clip0_3505_1436)">
<path d="M8.70464 7.39964C8.70464 7.39964 7.49011 7.29941 7.49011 8.29977V12.8997H15.2836V14.3C15.2836 14.3 15.2836 14.9997 14.5754 14.9997H7.49011V21H15.9928C15.9928 21 21.1553 20.2001 21.1553 14.9997V7.39964H8.70464ZM21.0548 0H5.66782C0.101453 1.30009 0 5.79982 0 5.79982V21H5.87073V7.20014C5.87073 6.00027 7.08526 5.79982 7.08526 5.79982H21.0539L21.0548 0ZM41.299 16.6005C40.8941 16.9002 40.5907 17.1007 40.3878 17.2009C39.6796 17.7011 38.8699 18.0008 38.2622 18.3005C37.2496 18.7005 36.4408 18.901 35.6302 18.901C32.9982 18.901 30.7711 18.101 28.9498 16.5012C27.1285 14.9014 26.3178 12.8014 26.3178 10.4017C26.3178 8.00196 27.1275 6.00123 28.7469 4.20191C30.3662 2.50186 32.29 1.60173 34.6176 1.60173C35.5287 1.60173 36.5413 1.80218 37.6544 2.10191C39.0718 2.50186 40.1849 3.20155 40.9946 4.00241L39.4767 5.70245C38.8689 5.10205 37.9588 4.60282 36.9462 4.30214C36.152 4.10424 35.3362 4.00357 34.5171 4.00241C32.8977 4.00241 31.5817 4.60282 30.4687 5.90195C29.3556 7.20109 28.8483 8.69973 28.8483 10.5C28.8483 12.3003 29.4561 13.6996 30.6706 14.8995C31.8851 16.0994 33.5055 16.5995 35.3268 16.5995C36.1878 16.6021 37.0312 16.3592 37.7559 15.8999C38.4651 15.3997 38.7685 15.1 38.7685 15.1V11.4001H33.606L34.4157 9.19991H41.298V16.5995L41.299 16.6005ZM56.7865 12.2C56.8058 13.0566 56.6447 13.9078 56.3136 14.6996C55.9824 15.4915 55.4884 16.2067 54.8627 16.8C53.5477 18.1001 52.0288 18.6995 50.2065 18.6995C48.4857 18.6995 46.9678 18.0991 45.6518 16.8C45.0261 16.2067 44.5321 15.4915 44.2009 14.6996C43.8698 13.9078 43.7087 13.0566 43.728 12.2C43.728 10.3998 44.3348 8.90018 45.5503 7.60009C46.7658 6.3 48.2828 5.60032 50.1051 5.60032C52.0288 5.60032 53.6482 6.20073 54.9632 7.49986C56.1787 8.69973 56.7865 10.2995 56.7865 12.2ZM54.3574 12.2C54.3574 11.0002 53.9525 9.99982 53.1429 9.19991C52.3332 8.4 51.3206 8.00004 50.106 8.00004C48.993 8.00004 47.9804 8.4 47.2712 9.30014C46.4615 10.2003 46.0566 11.1004 46.0566 12.2C46.0566 13.3999 46.4615 14.3 47.2712 15.2002C48.0809 16.0001 49.0934 16.4 50.2065 16.4C51.3196 16.4 52.2308 16.0001 53.0414 15.2002C53.9516 14.3 54.4588 13.3999 54.3574 12.2ZM72.1735 12.2C72.1927 13.0566 72.0317 13.9078 71.7006 14.6996C71.3694 15.4915 70.8754 16.2067 70.2497 16.8C68.9337 18.1001 67.4148 18.6995 65.5935 18.6995C63.8727 18.6995 62.3538 18.0991 61.0388 16.8C60.4131 16.2067 59.9191 15.4915 59.5879 14.6996C59.2568 13.9078 59.0957 13.0566 59.115 12.2C59.0859 10.4897 59.7403 8.83694 60.9364 7.60009C62.1519 6.3 63.6698 5.60032 65.4911 5.60032C67.4148 5.60032 69.0342 6.20073 70.3502 7.49986C71.4633 8.69973 72.1735 10.2995 72.1735 12.2ZM69.7444 12.2C69.7444 11.0002 69.3395 9.99982 68.5289 9.19991C67.7182 8.4 66.7076 8.00004 65.4921 8.00004C64.379 8.00004 63.3664 8.4 62.6582 9.30014C61.8485 10.2003 61.4427 11.1004 61.4427 12.2C61.4427 13.3999 61.8475 14.3 62.6582 15.2002C63.4678 16.0001 64.4795 16.4 65.5935 16.4C66.7076 16.4 67.6177 16.0001 68.4274 15.2002C69.3386 14.3 69.7444 13.3999 69.7444 12.2ZM86.3449 18.3998L84.1188 18.6995V16.5995L83.6115 17.0997C83.2076 17.4997 82.7013 17.7994 82.195 18.1001C81.4252 18.4188 80.6006 18.5886 79.766 18.6003C78.0452 18.6003 76.5263 17.9999 75.4132 16.7007C74.1986 15.4006 73.5919 13.901 73.5919 12.201C73.5919 10.4007 74.1986 8.80091 75.4132 7.60105C76.6277 6.40118 78.0452 5.7015 79.766 5.7015C80.6355 5.69254 81.4974 5.86289 82.2965 6.20168C82.8028 6.40214 83.2076 6.70186 83.6115 7.10182C83.713 7.30227 83.8144 7.40155 84.0164 7.602V1.99977L86.3449 1.70005V18.3998ZM84.2193 12.3995C84.2193 11.1997 83.8144 10.1 82.9033 9.19991C81.9921 8.29977 81.081 7.89982 79.9679 7.89982C78.7534 7.89982 77.7418 8.29977 77.0326 9.09968C76.3233 9.89959 75.9195 10.9 75.9195 11.9996C75.9195 13.2997 76.3243 14.2991 77.0326 15.1C77.7408 15.9008 78.7534 16.2998 79.8674 16.2998C80.9815 16.2998 81.9931 15.8999 82.9043 15.2002C83.8154 14.4003 84.2202 13.5001 84.2202 12.4005L84.2193 12.3995ZM98.7956 4.29927H92.2166V8.69877H97.3791V10.9992H92.2166V18.2996L89.6861 18.6995V1.99977H98.3908L98.7956 4.29927ZM104.059 2.99918L102.439 4.99895L100.921 2.99918L102.541 0.999409L104.059 2.99918ZM103.552 18.3989L101.225 18.6986V6.3L103.552 5.90005V18.3989ZM114.282 5.79886L113.168 8.29882H112.764C112.561 8.29882 112.258 8.29882 112.055 8.39904C111.853 8.39904 111.549 8.49927 111.347 8.5995C110.84 8.79995 110.436 9.29918 110.031 9.99982C109.626 10.7997 109.424 11.6999 109.424 12.4998V18.2996L107.095 18.6995V6.3L109.323 5.90005V8.50023C109.626 8.10027 109.929 7.60009 110.234 7.09991C110.638 6.59973 111.144 6.3 111.65 6.09955C111.955 5.99932 112.46 5.89909 113.168 5.79982H114.282V5.79886ZM131.793 18.3989L129.465 18.6986V10.1984C129.465 9.39845 129.262 8.79805 128.959 8.49832C128.655 8.09836 128.048 7.99814 127.441 7.99814C126.631 7.99814 126.024 8.29786 125.517 8.9985C125.213 9.49868 125.112 9.99886 125.112 10.4981V18.3979L122.785 18.7979V10.2976C122.785 9.59795 122.582 8.99755 122.279 8.59759C121.975 8.19764 121.469 7.99718 120.861 7.99718H120.658C119.848 7.99718 119.241 8.29691 118.837 8.99755C118.533 9.49773 118.432 10.1974 118.432 10.9973V18.397L116.003 18.7969V6.3L118.229 5.90005V7.49986C118.432 7.09991 118.735 6.80018 118.938 6.59973C119.231 6.31252 119.579 6.08518 119.961 5.93073C120.343 5.77628 120.752 5.69773 121.164 5.69959C122.076 5.69959 122.785 5.79982 123.291 6.09955C123.695 6.3 124.101 6.79923 124.506 7.59914C125.315 6.29905 126.429 5.69959 127.947 5.69959C129.365 5.69959 130.478 6.09955 131.186 7.09991C131.793 7.79959 132.097 8.99945 132.097 10.3998V18.3998L131.793 18.3989ZM142.624 14.5988C142.624 15.6985 142.219 16.6988 141.41 17.3985C140.6 18.0982 139.587 18.4981 138.373 18.4981C137.462 18.4981 136.652 18.2977 135.842 17.8977C135.133 17.4978 134.526 16.9976 134.121 16.3981L135.741 14.8985C135.842 15.099 135.944 15.1983 136.045 15.2985C136.652 15.8989 137.361 16.1986 138.271 16.1986C138.879 16.1986 139.385 15.9982 139.689 15.6985C139.992 15.3987 140.195 14.9988 140.195 14.3984C140.195 13.798 139.79 13.2987 138.981 13.0983L136.349 12.2984C135.639 11.8984 135.033 11.4985 134.728 11.0985C134.323 10.5983 134.121 9.89864 134.121 8.9985C134.121 7.89886 134.526 6.99873 135.336 6.29809C136.146 5.59745 137.057 5.19845 138.171 5.19845C138.981 5.19845 139.79 5.39891 140.499 5.79886C141.209 6.19882 141.714 6.59877 142.017 6.99873L140.701 8.799C140.487 8.57466 140.25 8.37339 139.993 8.19859C139.386 7.79864 138.88 7.59818 138.374 7.59818C137.867 7.59818 137.463 7.69841 137.158 7.89791C136.965 8.03317 136.809 8.21344 136.703 8.42274C136.597 8.63204 136.545 8.8639 136.551 9.09777C136.551 9.59795 136.753 9.99791 137.058 10.1974C137.362 10.3969 138.07 10.5974 139.082 10.7978C140.094 10.9983 140.904 11.4975 141.511 12.0979C142.321 12.7976 142.624 13.5985 142.624 14.5988Z" fill="white"/>
</g>
<defs>
<clipPath id="clip0_3505_1436">
<rect width="143" height="21" fill="white"/>
</clipPath>
</defs>
</svg>
