<svg width="935" height="58" viewBox="0 0 935 58" fill="none" xmlns="http://www.w3.org/2000/svg">
<g opacity="0.8">
<g clip-path="url(#clip0_3505_1405)">
<path d="M58.9996 34.7204C60.448 34.7204 61.6222 33.5295 61.6222 32.0604C61.6222 30.5913 60.448 29.4004 58.9996 29.4004C57.5511 29.4004 56.377 30.5913 56.377 32.0604C56.377 33.5295 57.5511 34.7204 58.9996 34.7204Z" fill="#EBEBEB"/>
<path d="M20.8233 17H24.2938V39.7H20.8233V17ZM36.9337 32.7C36.9337 36.22 34.0942 36.5 33.2265 36.5C31.0574 36.5 30.7419 34.44 30.7419 33.2V24.42H27.2517V33.18C27.2319 35.36 27.8432 37.16 29.0264 38.36C30.1009 39.3315 31.4698 39.9025 32.9073 39.9789C34.3448 40.0552 35.765 39.6323 36.9337 38.78V39.7H40.424V24.42H36.9337V32.7ZM47.9566 19.28H44.4664V24.42H42.0409V27.76H44.4664V39.7H47.9566V27.76H50.8159V24.42H47.9566V19.28ZM62.1149 35.36C61.3261 36.08 60.281 36.48 59.1373 36.48C58.5563 36.4967 57.978 36.3926 57.4382 36.1741C56.8983 35.9556 56.4082 35.6274 55.9981 35.2096C55.5881 34.7918 55.2666 34.2932 55.0536 33.7447C54.8406 33.1962 54.7406 32.6092 54.7597 32.02C54.7597 29.44 56.5541 27.64 59.1373 27.64C60.2613 27.64 61.3261 28.02 62.1346 28.74L62.6867 29.22L65.1319 26.74L64.5206 26.18C63.0398 24.8405 61.1214 24.1063 59.1373 24.12C54.6019 24.12 51.3089 27.44 51.3089 32C51.2848 33.0512 51.4705 34.0966 51.8549 35.0732C52.2392 36.0498 52.8143 36.9374 53.5456 37.6829C54.2768 38.4283 55.1492 39.016 56.1101 39.4108C57.071 39.8055 58.1007 39.9992 59.1373 39.98C61.2078 39.98 63.1403 39.24 64.56 37.9L65.1516 37.34L62.667 34.86L62.1149 35.36ZM78.2253 25.76C77.1508 24.7885 75.7819 24.2175 74.3444 24.1411C72.9069 24.0648 71.4867 24.4877 70.318 25.34V17H66.8277V39.7H70.318V31.44C70.318 27.92 73.1575 27.64 74.0251 27.64C76.1942 27.64 76.5097 29.7 76.5097 30.94V39.72H80V30.94C80.1053 29.0435 79.4674 27.1816 78.2253 25.76ZM15.6766 34.26C14.9976 34.9675 14.1848 35.5287 13.2869 35.9102C12.3891 36.2916 11.4245 36.4854 10.4511 36.48C6.40868 36.48 3.47054 33.26 3.47054 28.84C3.47054 24.4 6.40868 21.18 10.4511 21.18C12.4033 21.18 14.2568 21.96 15.6569 23.38L16.209 23.94L18.6345 21.48L18.102 20.92C17.1015 19.8879 15.9073 19.0694 14.5899 18.513C13.2724 17.9565 11.8584 17.6733 10.4314 17.68C4.49593 17.68 0 22.48 0 28.86C0 35.2 4.49593 40 10.4314 40C13.3695 40 16.0907 38.84 18.102 36.74L18.6345 36.18L16.2287 33.68L15.6766 34.26Z" fill="white"/>
</g>
<g clip-path="url(#clip1_3505_1405)">
<path d="M181.061 25.2715H187.011C191.801 25.2715 195.139 28.6954 195.139 33.1084V33.1845C195.139 37.5976 191.874 41.0215 187.011 41.0215H181.061V25.2715ZM187.011 37.8258C189.769 37.8258 191.583 35.9237 191.583 33.1845V33.1084C191.583 30.3693 189.769 28.391 187.011 28.391H184.471V37.8258H187.011Z" fill="white"/>
<path d="M198.042 25.2715H209.581V28.315H201.453V31.5106H208.637V34.5541H201.453V37.8258H209.726V40.8693H198.115L198.042 25.2715Z" fill="white"/>
<path d="M211.613 38.6625L213.645 36.2278C215.024 37.3691 216.476 38.1299 218.217 38.1299C219.596 38.1299 220.394 37.5212 220.394 36.6843V36.6082C220.394 35.6951 219.814 35.2386 217.346 34.6299C214.298 33.793 212.266 32.956 212.266 29.8364V29.7604C212.266 26.9451 214.444 25.043 217.637 25.043C219.814 25.043 221.773 25.7278 223.297 27.0212L221.555 29.6843C220.249 28.6951 218.87 28.1625 217.564 28.1625C216.258 28.1625 215.605 28.7712 215.605 29.5321V29.456C215.605 30.4451 216.258 30.8256 218.87 31.5104C221.991 32.3473 223.66 33.4886 223.66 36.1517V36.2278C223.66 39.3473 221.338 41.0973 218.072 41.0973C215.75 41.0973 213.428 40.2604 211.613 38.6625Z" fill="white"/>
<path d="M226.708 25.2715H230.046V40.9454H226.708V25.2715Z" fill="white"/>
<path d="M233.239 33.1081C233.239 28.619 236.578 24.9668 241.222 24.9668C243.98 24.9668 245.576 25.7277 247.173 27.1733L245.068 29.8364C243.907 28.8472 242.891 28.2385 241.077 28.2385C238.609 28.2385 236.723 30.4451 236.723 33.1081V33.1842C236.723 36.0755 238.609 38.2059 241.367 38.2059C242.601 38.2059 243.689 37.9016 244.56 37.2168V35.0103H241.149V32.0429H247.753V38.8146C246.157 40.1842 244.052 41.3255 241.222 41.3255C236.432 41.0972 233.239 37.7494 233.239 33.1081Z" fill="white"/>
<path d="M250.946 25.2715H254.067L261.179 34.8584V25.2715H264.444V40.9454H261.614L254.212 30.978V40.9454H250.946V25.2715Z" fill="white"/>
<path d="M268.145 25.2725H275.112C277.071 25.2725 278.523 25.8812 279.539 26.8703C280.41 27.7833 280.845 29.0007 280.845 30.4464V30.5225C280.845 33.0333 279.539 34.6312 277.579 35.392L281.28 40.9464H277.362L274.096 35.9246H274.023H271.411V40.9464H268V25.2725H268.145ZM274.894 32.8051C276.563 32.8051 277.434 31.892 277.434 30.5985V30.5225C277.434 29.0768 276.491 28.3159 274.822 28.3159H271.483V32.8051H274.894Z" fill="white"/>
<path d="M283.675 34.1745V25.1962H287.013V34.0223C287.013 36.6092 288.247 37.8266 290.279 37.8266C292.311 37.8266 293.544 36.5332 293.544 34.0223V25.1201H296.883V33.9462C296.883 38.6636 294.27 41.0223 290.206 41.0223C286.142 41.0223 283.675 38.7397 283.675 34.1745Z" fill="white"/>
<path d="M299.278 38.6635L301.31 36.2287C302.689 37.37 304.141 38.1309 305.882 38.1309C307.261 38.1309 308.059 37.5222 308.059 36.6853V36.6092C308.059 35.6961 307.479 35.2396 305.011 34.6309C301.963 33.7939 299.931 32.957 299.931 29.8374V29.7613C299.931 26.9461 302.109 25.0439 305.302 25.0439C307.479 25.0439 309.438 25.7287 310.962 27.0222L309.221 29.6852C307.914 28.6961 306.535 28.1635 305.229 28.1635C303.923 28.1635 303.27 28.7722 303.27 29.5331V29.457C303.27 30.4461 303.923 30.8266 306.535 31.5113C309.656 32.3483 311.325 33.4896 311.325 36.1526V36.2287C311.325 39.3483 309.003 41.0983 305.737 41.0983C303.487 41.0983 301.093 40.2613 299.278 38.6635Z" fill="white"/>
<path d="M314.228 25.2725H317.566V31.5116H323.734V25.2725H327.073V40.9464H323.734V34.7072H317.566V40.9464H314.228V25.2725Z" fill="white"/>
<path d="M161.902 34.0976C161.829 34.0215 161.829 34.0976 161.902 34.0976L161.539 33.8693L161.466 33.7932L152.903 27.4019C152.903 27.4019 152.83 27.4019 152.83 27.3258L152.685 27.1737L152.613 27.0976H152.467L150 25.2715L154.862 26.0324C155.08 26.0324 155.153 26.1084 155.37 26.1845C155.443 26.1845 155.588 26.2606 155.588 26.2606C155.806 26.3367 155.878 26.4128 156.023 26.4889C156.169 26.565 156.241 26.641 156.386 26.7171C156.459 26.7932 156.604 26.8693 156.604 26.9454C156.677 27.0215 156.749 27.0215 156.822 27.0976C156.967 27.1737 157.039 27.2497 157.039 27.3258C157.257 27.5541 157.402 27.7824 157.62 27.9345L161.466 33.641L161.539 33.7171L161.902 34.0976Z" fill="white"/>
<path d="M161.901 42.9237L161.538 42.315L161.466 42.2389L150.072 25.2715L152.54 27.0976L152.975 27.4019L161.538 33.7932H161.611L161.901 34.0215C161.901 34.0215 161.974 34.0215 161.974 34.0976L162.337 33.7932L173.875 25.2715L162.264 42.315L162.192 42.3911L161.901 42.9237Z" fill="white"/>
<path d="M161.902 31.2065L161.539 30.5978L161.466 30.5217L158.636 26.413L161.466 27.0217H161.539L161.902 27.0978L162.265 27.0217L165.022 26.3369L162.265 30.5978V30.6739L161.902 31.2065Z" fill="white"/>
<path d="M173.948 25.1953L170.32 25.7279L168.941 25.9562C167.852 26.1084 166.836 26.7171 166.183 27.7062L162.337 33.4888L162.264 33.5649L161.902 34.0975L162.337 33.641L162.41 33.5649L161.902 34.0975L171.699 26.7931L173.948 25.1953Z" fill="white"/>
<path d="M163.715 13.174C163.715 16.5218 158.2 18.2718 158.2 21.8479C158.128 22.6849 158.345 23.5218 158.708 24.2827C158.708 24.2827 156.604 22.1523 156.604 19.8696C156.604 17.587 158.635 14.1631 158.635 14.1631C158.635 15.6849 159.216 16.1414 159.797 16.2175H159.869C160.522 16.2175 160.885 15.6849 160.885 14.924C160.885 14.1631 160.087 13.4023 160.087 11.8805C160.087 10.4349 161.829 8.07617 161.829 8.07617C163.062 9.59791 163.715 11.3479 163.715 13.174Z" fill="white"/>
<path d="M162.192 25.348C160.45 25.348 159.144 23.9024 159.144 22.1524V22.0763C159.144 18.1959 164.296 17.8154 164.296 12.5654C164.441 12.7937 165.82 14.772 165.82 16.9024C165.82 19.5654 163.425 20.2502 163.425 21.5437C163.425 22.0763 163.643 22.4567 164.369 22.4567C164.441 22.4567 164.514 22.4567 164.586 22.3806C165.965 21.772 166.909 20.4024 166.981 18.8046C166.981 18.8806 167.707 25.348 162.192 25.348Z" fill="white"/>
<path d="M164.441 22.4567C164.514 22.4567 164.586 22.4567 164.659 22.3806C163.933 22.6089 161.248 23.2937 161.248 21.3154C161.248 18.8806 165.239 18.348 165.239 16.2937C165.239 15.0002 164.949 13.7067 164.296 12.5654C164.441 12.7937 165.82 14.772 165.82 16.9024C165.82 19.5654 163.425 20.2502 163.425 21.5437C163.498 22.0763 163.788 22.4567 164.441 22.4567Z" fill="white"/>
<path d="M162.264 14.5436C162.264 16.4457 159.942 16.2936 159.797 16.2175H160.015C160.668 16.2175 161.031 15.6849 161.031 14.924C161.031 14.1631 160.232 13.4023 160.232 11.8805C160.232 10.4349 161.974 8.07617 161.974 8.07617C161.393 9.0653 161.103 10.1305 161.031 11.1957C161.031 12.9457 162.264 13.0979 162.264 14.5436Z" fill="white"/>
<path d="M160.813 47.7933L159.217 46.652H161.176L161.829 44.5977L162.41 46.652H164.369L162.773 47.7933L163.353 49.7716L161.757 48.5542L160.088 49.7716L160.813 47.7933Z" fill="white"/>
<path d="M169.159 47.7933L167.562 46.652H169.522L170.175 44.5977L170.756 46.652H172.715L171.118 47.7933L171.699 49.7716L170.102 48.5542L168.433 49.7716L169.159 47.7933Z" fill="white"/>
<path d="M152.54 47.7933L150.943 46.652H152.903L153.556 44.5977L154.136 46.652H156.096L154.499 47.7933L155.08 49.7716L153.483 48.5542L151.887 49.7716L152.54 47.7933Z" fill="white"/>
</g>
<g clip-path="url(#clip2_3505_1405)">
<path d="M405.705 25.3996C405.705 25.3996 404.49 25.2994 404.49 26.2998V30.8997H412.284V32.3C412.284 32.3 412.284 32.9997 411.575 32.9997H404.49V39H412.993C412.993 39 418.155 38.2001 418.155 32.9997V25.3996H405.705ZM418.055 18H402.668C397.101 19.3001 397 23.7998 397 23.7998V39H402.871V25.2001C402.871 24.0003 404.085 23.7998 404.085 23.7998H418.054L418.055 18ZM438.299 34.6005C437.894 34.9002 437.591 35.1007 437.388 35.2009C436.68 35.7011 435.87 36.0008 435.262 36.3005C434.25 36.7005 433.441 36.901 432.63 36.901C429.998 36.901 427.771 36.101 425.95 34.5012C424.128 32.9014 423.318 30.8014 423.318 28.4017C423.318 26.002 424.127 24.0012 425.747 22.2019C427.366 20.5019 429.29 19.6017 431.618 19.6017C432.529 19.6017 433.541 19.8022 434.654 20.1019C436.072 20.5019 437.185 21.2015 437.995 22.0024L436.477 23.7025C435.869 23.102 434.959 22.6028 433.946 22.3021C433.152 22.1042 432.336 22.0036 431.517 22.0024C429.898 22.0024 428.582 22.6028 427.469 23.902C426.356 25.2011 425.848 26.6997 425.848 28.5C425.848 30.3003 426.456 31.6996 427.671 32.8995C428.885 34.0994 430.505 34.5995 432.327 34.5995C433.188 34.6021 434.031 34.3592 434.756 33.8999C435.465 33.3997 435.768 33.1 435.768 33.1V29.4001H430.606L431.416 27.1999H438.298V34.5995L438.299 34.6005ZM453.786 30.2C453.806 31.0566 453.645 31.9078 453.314 32.6996C452.982 33.4915 452.488 34.2067 451.863 34.8C450.548 36.1001 449.029 36.6995 447.207 36.6995C445.486 36.6995 443.968 36.0991 442.652 34.8C442.026 34.2067 441.532 33.4915 441.201 32.6996C440.87 31.9078 440.709 31.0566 440.728 30.2C440.728 28.3998 441.335 26.9002 442.55 25.6001C443.766 24.3 445.283 23.6003 447.105 23.6003C449.029 23.6003 450.648 24.2007 451.963 25.4999C453.179 26.6997 453.786 28.2995 453.786 30.2ZM451.357 30.2C451.357 29.0002 450.953 27.9998 450.143 27.1999C449.333 26.4 448.321 26 447.106 26C445.993 26 444.98 26.4 444.271 27.3001C443.461 28.2003 443.057 29.1004 443.057 30.2C443.057 31.3999 443.461 32.3 444.271 33.2002C445.081 34.0001 446.093 34.4 447.207 34.4C448.32 34.4 449.231 34.0001 450.041 33.2002C450.952 32.3 451.459 31.3999 451.357 30.2ZM469.173 30.2C469.193 31.0566 469.032 31.9078 468.701 32.6996C468.369 33.4915 467.875 34.2067 467.25 34.8C465.934 36.1001 464.415 36.6995 462.594 36.6995C460.873 36.6995 459.354 36.0991 458.039 34.8C457.413 34.2067 456.919 33.4915 456.588 32.6996C456.257 31.9078 456.096 31.0566 456.115 30.2C456.086 28.4897 456.74 26.8369 457.936 25.6001C459.152 24.3 460.67 23.6003 462.491 23.6003C464.415 23.6003 466.034 24.2007 467.35 25.4999C468.463 26.6997 469.173 28.2995 469.173 30.2ZM466.744 30.2C466.744 29.0002 466.34 27.9998 465.529 27.1999C464.718 26.4 463.708 26 462.492 26C461.379 26 460.366 26.4 459.658 27.3001C458.848 28.2003 458.443 29.1004 458.443 30.2C458.443 31.3999 458.847 32.3 459.658 33.2002C460.468 34.0001 461.479 34.4 462.594 34.4C463.708 34.4 464.618 34.0001 465.427 33.2002C466.339 32.3 466.744 31.3999 466.744 30.2ZM483.345 36.3998L481.119 36.6995V34.5995L480.612 35.0997C480.208 35.4997 479.701 35.7994 479.195 36.1001C478.425 36.4188 477.601 36.5886 476.766 36.6003C475.045 36.6003 473.526 35.9999 472.413 34.7007C471.199 33.4006 470.592 31.901 470.592 30.201C470.592 28.4007 471.199 26.8009 472.413 25.601C473.628 24.4012 475.045 23.7015 476.766 23.7015C477.636 23.6925 478.497 23.8629 479.297 24.2017C479.803 24.4021 480.208 24.7019 480.612 25.1018C480.713 25.3023 480.814 25.4015 481.016 25.602V19.9998L483.345 19.7V36.3998ZM481.219 30.3995C481.219 29.1997 480.814 28.1 479.903 27.1999C478.992 26.2998 478.081 25.8998 476.968 25.8998C475.753 25.8998 474.742 26.2998 474.033 27.0997C473.323 27.8996 472.919 28.9 472.919 29.9996C472.919 31.2997 473.324 32.2991 474.033 33.1C474.741 33.9008 475.753 34.2998 476.867 34.2998C477.981 34.2998 478.993 33.8999 479.904 33.2002C480.815 32.4003 481.22 31.5001 481.22 30.4005L481.219 30.3995ZM495.796 22.2993H489.217V26.6988H494.379V28.9992H489.217V36.2996L486.686 36.6995V19.9998H495.391L495.796 22.2993ZM501.059 20.9992L499.439 22.999L497.921 20.9992L499.541 18.9994L501.059 20.9992ZM500.552 36.3989L498.225 36.6986V24.3L500.552 23.9V36.3989ZM511.282 23.7989L510.168 26.2988H509.764C509.561 26.2988 509.258 26.2988 509.055 26.399C508.853 26.399 508.549 26.4993 508.347 26.5995C507.84 26.8 507.436 27.2992 507.031 27.9998C506.626 28.7997 506.424 29.6999 506.424 30.4998V36.2996L504.095 36.6995V24.3L506.323 23.9V26.5002C506.626 26.1003 506.929 25.6001 507.234 25.0999C507.638 24.5997 508.144 24.3 508.65 24.0995C508.955 23.9993 509.46 23.8991 510.168 23.7998H511.282V23.7989ZM528.793 36.3989L526.465 36.6986V28.1984C526.465 27.3985 526.262 26.798 525.959 26.4983C525.655 26.0984 525.048 25.9981 524.441 25.9981C523.631 25.9981 523.024 26.2979 522.517 26.9985C522.213 27.4987 522.112 27.9989 522.112 28.4981V36.3979L519.785 36.7979V28.2976C519.785 27.598 519.582 26.9975 519.279 26.5976C518.975 26.1976 518.469 25.9972 517.861 25.9972H517.658C516.848 25.9972 516.241 26.2969 515.837 26.9975C515.533 27.4977 515.432 28.1974 515.432 28.9973V36.397L513.003 36.7969V24.3L515.229 23.9V25.4999C515.432 25.0999 515.735 24.8002 515.938 24.5997C516.231 24.3125 516.579 24.0852 516.961 23.9307C517.343 23.7763 517.752 23.6977 518.164 23.6996C519.076 23.6996 519.785 23.7998 520.291 24.0995C520.695 24.3 521.101 24.7992 521.506 25.5991C522.315 24.299 523.429 23.6996 524.947 23.6996C526.365 23.6996 527.478 24.0995 528.186 25.0999C528.793 25.7996 529.097 26.9995 529.097 28.3998V36.3998L528.793 36.3989ZM539.624 32.5988C539.624 33.6985 539.219 34.6988 538.41 35.3985C537.6 36.0982 536.587 36.4981 535.373 36.4981C534.462 36.4981 533.652 36.2977 532.842 35.8977C532.133 35.4978 531.526 34.9976 531.121 34.3981L532.741 32.8985C532.842 33.099 532.944 33.1983 533.045 33.2985C533.652 33.8989 534.361 34.1986 535.271 34.1986C535.879 34.1986 536.385 33.9982 536.689 33.6985C536.992 33.3987 537.195 32.9988 537.195 32.3984C537.195 31.798 536.79 31.2987 535.981 31.0983L533.349 30.2984C532.639 29.8984 532.033 29.4985 531.728 29.0985C531.323 28.5983 531.121 27.8986 531.121 26.9985C531.121 25.8989 531.526 24.9987 532.336 24.2981C533.146 23.5975 534.057 23.1985 535.171 23.1985C535.981 23.1985 536.79 23.3989 537.499 23.7989C538.209 24.1988 538.714 24.5988 539.017 24.9987L537.701 26.799C537.487 26.5747 537.25 26.3734 536.993 26.1986C536.386 25.7986 535.88 25.5982 535.374 25.5982C534.867 25.5982 534.463 25.6984 534.158 25.8979C533.965 26.0332 533.809 26.2134 533.703 26.4227C533.597 26.632 533.545 26.8639 533.551 27.0978C533.551 27.598 533.753 27.9979 534.058 28.1974C534.362 28.3969 535.07 28.5974 536.082 28.7978C537.094 28.9983 537.904 29.4975 538.511 30.0979C539.321 30.7976 539.624 31.5985 539.624 32.5988Z" fill="white"/>
</g>
<g clip-path="url(#clip3_3505_1405)">
<path fill-rule="evenodd" clip-rule="evenodd" d="M675.574 27.7883H674.168L670.364 36.4938H671.921L672.81 34.4074H676.896L677.773 36.4938H679.393L675.574 27.7883ZM676.338 33.0593H673.364L674.833 29.6028L676.338 33.0593ZM722.261 29.2575H725V27.8507H717.991V29.2575H720.73V36.4938H722.261V29.2575ZM712.165 30.1208C712.165 29.9782 712.198 29.8376 712.262 29.7101C712.325 29.5826 712.418 29.4716 712.532 29.3861C712.832 29.1687 713.198 29.0622 713.567 29.0849C713.969 29.0862 714.366 29.1635 714.738 29.3126C715.155 29.4823 715.549 29.7045 715.91 29.9738L716.725 28.8241C716.297 28.4796 715.816 28.2067 715.3 28.016C714.751 27.823 714.172 27.7285 713.589 27.7368C713.188 27.7331 712.789 27.7939 712.407 27.9168C712.066 28.0247 711.75 28.1995 711.478 28.4311C711.223 28.6518 711.017 28.9232 710.872 29.2282C710.723 29.5514 710.647 29.9041 710.652 30.2603C710.642 30.6117 710.707 30.9611 710.843 31.2852C710.968 31.5709 711.159 31.8227 711.401 32.0198C711.673 32.2324 711.978 32.3987 712.304 32.512C712.708 32.6598 713.12 32.7825 713.538 32.8793L714.522 33.1622C714.732 33.2326 714.932 33.3302 715.117 33.4524C715.245 33.5359 715.347 33.6527 715.414 33.7903C715.469 33.9228 715.497 34.0654 715.495 34.209C715.499 34.3673 715.464 34.524 715.391 34.6647C715.318 34.8054 715.211 34.9254 715.08 35.0135C714.752 35.2242 714.368 35.3281 713.978 35.311C713.474 35.3214 712.973 35.2224 712.51 35.0208C712.046 34.7977 711.617 34.5081 711.236 34.1613L710.322 35.2632C710.814 35.7162 711.388 36.0703 712.014 36.3064C712.626 36.5328 713.274 36.6473 713.927 36.6444C714.349 36.649 714.77 36.5908 715.175 36.4717C715.529 36.3689 715.859 36.1966 716.145 35.9648C716.413 35.7433 716.629 35.4647 716.776 35.1494C716.932 34.8034 717.01 34.427 717.004 34.0474C717.011 33.7236 716.95 33.4019 716.824 33.1034C716.702 32.8328 716.523 32.5921 716.299 32.3981C716.039 32.1786 715.743 32.0047 715.425 31.8839C715.032 31.7356 714.63 31.6129 714.221 31.5166L713.2 31.2337C712.977 31.1638 712.765 31.0637 712.569 30.9362C712.435 30.8507 712.326 30.7317 712.253 30.5909C712.188 30.4431 712.157 30.2822 712.165 30.1208ZM709.015 27.8507H702.619V36.4938H709.077V35.1237H704.128V32.8132H708.46V31.4431H704.128V29.2208H709.015V27.8507ZM700.941 27.8507H694.523V36.4938H696.028V32.9748H700.386V31.6047H696.028V29.2208H700.941V27.8507Z" fill="white"/>
<path d="M690.697 27.8506H692.203V36.4973H690.697V27.8506Z" fill="white"/>
<path fill-rule="evenodd" clip-rule="evenodd" d="M686.883 33.8269L682.264 27.8506H680.858V36.4937H682.363V30.3447L687.117 36.4937H688.388V27.8506H686.883V33.8269ZM667.376 30.2933V36.4937H668.885V27.8506H667.265L664.637 31.9352L662.008 27.8506H660.389V36.4937H661.894V30.319L664.6 34.3705H664.648L667.376 30.2933Z" fill="white"/>
<path fill-rule="evenodd" clip-rule="evenodd" d="M654.811 27.8503H648.415V36.4934H654.87V35.1232H649.921V32.8128H654.253V31.4427H649.921V29.2204H654.811V27.8503ZM644.685 32.8495V36.4934H646.194V27.8503H644.685V31.4427H640.54V27.8503H639.035V36.4934H640.54V32.8495H644.685ZM634.687 29.2571H637.426V27.8503H630.417V29.2571H633.156V36.4934H634.687V29.2571ZM667.39 38.936V56.5675H618.65V51.66H661.637V38.936H660.19V50.2165H618.65V7.79088H660.186V25.4223H661.633V7.79088H667.386V25.4223H668.833V6.34364H661.637V0H610V51.66H617.2V58H668.836V38.936H667.39ZM617.2 50.2091H611.447V1.45092H660.186V6.34364H617.2V50.2091Z" fill="white"/>
</g>
<g clip-path="url(#clip4_3505_1405)">
<path d="M831.786 23.9698H845.959V26.5668H840.387V41.1688H837.321V26.5668H831.773V23.9688H831.785L831.786 23.9698ZM845.354 28.7148H847.974V31.1187H848.023C848.11 30.7787 848.27 30.4508 848.505 30.1348C849.008 29.4575 849.688 28.9324 850.47 28.6178C850.868 28.4603 851.291 28.3779 851.718 28.3748C852.038 28.3748 852.274 28.3867 852.398 28.3997C852.521 28.4117 852.644 28.4358 852.78 28.4478V31.0938C852.58 31.0586 852.378 31.0303 852.175 31.0088C851.974 30.985 851.772 30.9729 851.569 30.9727C851.099 30.9727 850.655 31.0698 850.235 31.2528C849.815 31.4338 849.456 31.7127 849.148 32.0658C848.82 32.4604 848.568 32.9133 848.406 33.4007C848.221 33.9347 848.134 34.5407 848.134 35.2337V41.1567H845.342V28.7148H845.354ZM865.619 41.1698H862.876V39.4338H862.826C862.48 40.0658 861.974 40.5638 861.294 40.9398C860.614 41.3158 859.922 41.5098 859.218 41.5098C857.55 41.5098 856.338 41.1097 855.598 40.2957C854.856 39.4827 854.485 38.2568 854.485 36.6178V28.7157H857.278V36.3507C857.278 37.4438 857.488 38.2207 857.921 38.6698C858.341 39.1188 858.946 39.3498 859.712 39.3498C860.305 39.3498 860.787 39.2648 861.182 39.0818C861.578 38.8998 861.899 38.6697 862.134 38.3657C862.381 38.0747 862.554 37.7108 862.666 37.2978C862.776 36.8848 862.826 36.4358 862.826 35.9508V28.7278H865.619V41.1698ZM870.376 37.1768C870.463 37.9768 870.771 38.5368 871.303 38.8638C871.846 39.1798 872.489 39.3498 873.243 39.3498C873.503 39.3498 873.799 39.3247 874.133 39.2887C874.466 39.2517 874.787 39.1667 875.072 39.0588C875.368 38.9488 875.602 38.7788 875.8 38.5608C875.986 38.3408 876.072 38.0628 876.06 37.7108C876.059 37.5474 876.023 37.3862 875.955 37.2377C875.887 37.0891 875.788 36.9566 875.665 36.8488C875.417 36.6188 875.109 36.4487 874.725 36.3027C874.298 36.1545 873.86 36.0369 873.415 35.9508C872.921 35.8538 872.427 35.7438 871.921 35.6348C871.412 35.5245 870.908 35.3866 870.413 35.2218C869.949 35.073 869.512 34.852 869.116 34.5667C868.731 34.298 868.417 33.9397 868.201 33.5228C867.967 33.0978 867.855 32.5757 867.855 31.9447C867.855 31.2648 868.028 30.7068 868.362 30.2448C868.699 29.7866 869.134 29.4094 869.635 29.1408C870.174 28.856 870.753 28.6554 871.352 28.5457C871.982 28.4367 872.588 28.3757 873.156 28.3757C873.811 28.3757 874.441 28.4488 875.035 28.5828C875.611 28.7059 876.159 28.9318 876.653 29.2498C877.135 29.5538 877.53 29.9538 877.852 30.4398C878.173 30.9248 878.371 31.5198 878.457 32.2118H875.541C875.405 31.5568 875.108 31.1077 874.627 30.8888C874.145 30.6588 873.589 30.5487 872.971 30.5487C872.773 30.5487 872.538 30.5607 872.267 30.5977C872.006 30.6325 871.749 30.6935 871.5 30.7798C871.273 30.8635 871.066 30.9959 870.895 31.1677C870.812 31.2574 870.748 31.3625 870.705 31.4772C870.663 31.5918 870.644 31.7136 870.648 31.8358C870.648 32.1758 870.771 32.4427 871.006 32.6488C871.241 32.8548 871.55 33.0247 871.933 33.1707C872.316 33.3047 872.749 33.4258 873.243 33.5228C873.737 33.6198 874.243 33.7288 874.763 33.8388C875.269 33.9478 875.763 34.0938 876.258 34.2507C876.752 34.4087 877.184 34.6277 877.568 34.9067C877.951 35.1858 878.26 35.5257 878.494 35.9387C878.729 36.3507 878.853 36.8727 878.853 37.4797C878.853 38.2197 878.68 38.8397 878.333 39.3617C877.988 39.8717 877.543 40.2957 876.999 40.6117C876.43 40.9398 875.813 41.1773 875.17 41.3158C874.517 41.4595 873.85 41.5326 873.18 41.5338C872.431 41.5422 871.684 41.4524 870.957 41.2668C870.277 41.0848 869.684 40.8177 869.19 40.4667C868.702 40.112 868.301 39.6511 868.016 39.1187C867.732 38.5847 867.583 37.9408 867.559 37.2008H870.376V37.1768ZM879.594 28.7167H881.707V24.9768H884.5V28.7167H887.02V30.7668H884.501V37.4198C884.501 37.7098 884.513 37.9538 884.538 38.1718C884.562 38.3788 884.624 38.5607 884.711 38.7057C884.806 38.8581 884.949 38.9738 885.118 39.0338C885.304 39.1068 885.538 39.1437 885.86 39.1437C886.057 39.1437 886.255 39.1438 886.453 39.1308C886.651 39.1188 886.848 39.0947 887.046 39.0457V41.1698C886.737 41.2068 886.428 41.2308 886.144 41.2668C885.845 41.3015 885.544 41.3179 885.242 41.3158C884.501 41.3158 883.908 41.2428 883.462 41.1098C883.018 40.9757 882.659 40.7698 882.412 40.5028C882.152 40.2358 881.992 39.9078 881.893 39.5068C881.797 39.0558 881.744 38.5968 881.733 38.1357V30.7898H879.62V28.7138H879.595L879.594 28.7167ZM888.997 28.7167H891.642V30.4028H891.692C892.086 29.6747 892.63 29.1648 893.334 28.8498C894.054 28.5298 894.834 28.3682 895.621 28.3757C896.621 28.3757 897.486 28.5458 898.228 28.8978C898.969 29.2378 899.587 29.7118 900.081 30.3178C900.575 30.9248 900.934 31.6287 901.181 32.4307C901.433 33.265 901.558 34.1324 901.552 35.0037C901.552 35.8407 901.441 36.6537 901.218 37.4317C901.014 38.1822 900.674 38.8893 900.217 39.5187C899.768 40.1256 899.185 40.6202 898.512 40.9638C897.82 41.3278 897.017 41.5098 896.078 41.5098C895.668 41.5093 895.258 41.4725 894.854 41.3997C894.451 41.3271 894.058 41.2094 893.681 41.0487C893.307 40.8926 892.957 40.6839 892.642 40.4288C892.332 40.1807 892.061 39.8863 891.839 39.5557H891.789V45.7708H888.997V28.7148V28.7167ZM898.759 34.9548C898.76 34.4012 898.685 33.8502 898.537 33.3167C898.401 32.8113 898.174 32.3345 897.869 31.9088C897.58 31.5037 897.205 31.1677 896.77 30.9247C896.304 30.6726 895.781 30.5432 895.25 30.5487C894.076 30.5487 893.186 30.9487 892.593 31.7507C892 32.5517 891.703 33.6208 891.703 34.9548C891.703 35.5857 891.778 36.1687 891.938 36.7027C892.098 37.2367 892.321 37.6987 892.642 38.0868C892.952 38.4757 893.322 38.7787 893.755 38.9967C894.187 39.2277 894.694 39.3368 895.262 39.3368C895.905 39.3368 896.436 39.2037 896.881 38.9487C897.312 38.7008 897.683 38.3611 897.968 37.9538C898.252 37.5408 898.463 37.0788 898.586 36.5578C898.7 36.031 898.758 35.4937 898.759 34.9548ZM903.689 23.9698H906.482V26.5677H903.689V23.9698ZM903.689 28.7157H906.482V41.1698H903.689V28.7157ZM908.978 23.9698H911.771V41.1698H908.978V23.9698ZM920.334 41.5098C919.32 41.5098 918.418 41.3398 917.628 41.0128C916.871 40.7021 916.186 40.2392 915.614 39.6528C915.059 39.0545 914.634 38.3476 914.365 37.5767C914.072 36.7259 913.925 35.8309 913.933 34.9307C913.933 33.9837 914.081 33.1108 914.365 32.3088C914.634 31.5383 915.059 30.8318 915.614 30.2337C916.157 29.6507 916.837 29.2018 917.628 28.8738C918.418 28.5458 919.32 28.3757 920.334 28.3757C921.347 28.3757 922.249 28.5458 923.04 28.8738C923.831 29.2018 924.498 29.6637 925.054 30.2337C925.61 30.8316 926.035 31.5382 926.302 32.3088C926.586 33.1097 926.734 33.9837 926.734 34.9307C926.734 35.8907 926.586 36.7758 926.302 37.5767C926.035 38.3477 925.61 39.0547 925.054 39.6528C924.51 40.2358 923.831 40.6848 923.04 41.0128C922.249 41.3398 921.347 41.5098 920.334 41.5098ZM920.334 39.3368C920.952 39.3368 921.495 39.2037 921.952 38.9487C922.398 38.7008 922.782 38.3564 923.077 37.9408C923.373 37.5288 923.583 37.0548 923.732 36.5328C923.868 36.0108 923.942 35.4767 923.942 34.9307C923.942 34.3967 923.868 33.8748 923.732 33.3407C923.605 32.8342 923.383 32.3564 923.077 31.9328C922.782 31.5211 922.397 31.181 921.952 30.9377C921.495 30.6827 920.952 30.5487 920.334 30.5487C919.716 30.5487 919.172 30.6827 918.715 30.9377C918.274 31.1847 917.89 31.5241 917.591 31.9328C917.29 32.359 917.068 32.8359 916.936 33.3407C916.8 33.8598 916.729 34.394 916.725 34.9307C916.725 35.4767 916.8 36.0108 916.936 36.5328C917.072 37.0548 917.294 37.5288 917.591 37.9408C917.887 38.3538 918.258 38.6937 918.715 38.9487C919.172 39.2157 919.716 39.3368 920.334 39.3368ZM927.55 28.7167H929.663V24.9768H932.456V28.7167H934.976V30.7668H932.456V37.4198C932.456 37.7098 932.468 37.9538 932.492 38.1718C932.517 38.3788 932.579 38.5607 932.666 38.7057C932.761 38.8583 932.904 38.974 933.073 39.0338C933.259 39.1068 933.493 39.1437 933.815 39.1437C934.012 39.1437 934.21 39.1438 934.408 39.1308C934.606 39.1188 934.803 39.0947 935.001 39.0457V41.1698C934.692 41.2068 934.383 41.2308 934.099 41.2668C933.8 41.3015 933.499 41.3179 933.197 41.3158C932.456 41.3158 931.862 41.2428 931.417 41.1098C930.973 40.9757 930.614 40.7698 930.367 40.5028C930.108 40.2358 929.947 39.9078 929.848 39.5068C929.752 39.0558 929.699 38.5967 929.688 38.1357V30.7898H927.575V28.7138H927.55V28.7167Z" fill="white"/>
<path d="M828.523 23.969H815.722L811.768 12L807.8 23.97L795 23.957L805.367 31.361L801.401 43.317L811.768 35.925L822.123 43.317L818.169 31.361L828.523 23.969Z" fill="white"/>
<path d="M819.058 34.0693L818.168 31.3623L811.768 35.9263L819.058 34.0693Z" fill="#F0F0F0"/>
</g>
</g>
<defs>
<clipPath id="clip0_3505_1405">
<rect width="80" height="23" fill="white" transform="translate(0 17)"/>
</clipPath>
<clipPath id="clip1_3505_1405">
<rect width="177" height="42" fill="white" transform="translate(150 8)"/>
</clipPath>
<clipPath id="clip2_3505_1405">
<rect width="143" height="21" fill="white" transform="translate(397 18)"/>
</clipPath>
<clipPath id="clip3_3505_1405">
<rect width="115" height="58" fill="white" transform="translate(610)"/>
</clipPath>
<clipPath id="clip4_3505_1405">
<rect width="140" height="34" fill="white" transform="translate(795 12)"/>
</clipPath>
</defs>
</svg>
