<svg width="339" height="84" viewBox="0 0 339 84" fill="none" xmlns="http://www.w3.org/2000/svg">
<g clip-path="url(#clip0_7158_1227)">
<path d="M262.824 19.5276H259.009V29.9365H256.258V19.5276H252.461V16.7109H262.824V19.5276Z" fill="white"/>
<path d="M263.802 24.1881H267.268C267.244 23.7654 267.088 23.3985 266.797 23.0876C266.519 22.7767 266.095 22.6212 265.526 22.6212C265.015 22.6212 264.609 22.7829 264.307 23.1062C264.005 23.4296 263.837 23.7902 263.802 24.1881ZM267.459 26.5945L269.671 27.266C269.45 28.1241 268.992 28.8329 268.295 29.3926C267.598 29.9397 266.728 30.2133 265.683 30.2133C264.429 30.2133 263.361 29.7656 262.478 28.8703C261.607 27.9748 261.172 26.7748 261.172 25.27C261.172 23.8275 261.596 22.6523 262.443 21.7445C263.302 20.8367 264.318 20.3828 265.491 20.3828C266.838 20.3828 267.895 20.8056 268.661 21.6512C269.439 22.4844 269.828 23.6472 269.828 25.1395C269.828 25.612 269.81 25.9043 269.776 26.0162H263.75C263.773 26.5261 263.976 26.9551 264.359 27.3034C264.742 27.6391 265.195 27.807 265.718 27.807C266.612 27.807 267.192 27.4028 267.459 26.5945Z" fill="white"/>
<path d="M274.643 22.9943C274.074 22.9943 273.598 23.1995 273.215 23.6099C272.843 24.0203 272.657 24.5861 272.657 25.3074C272.657 26.0162 272.849 26.5758 273.232 26.9862C273.627 27.3966 274.109 27.6018 274.678 27.6018C275.154 27.6018 275.543 27.4712 275.844 27.2101C276.158 26.9365 276.367 26.6069 276.471 26.2214L278.805 26.9862C278.596 27.8692 278.126 28.6277 277.394 29.262C276.675 29.8962 275.769 30.2133 274.678 30.2133C273.377 30.2133 272.274 29.7532 271.368 28.8329C270.474 27.9002 270.027 26.7251 270.027 25.3074C270.027 23.8772 270.463 22.7021 271.334 21.7818C272.216 20.8491 273.302 20.3828 274.59 20.3828C275.717 20.3828 276.64 20.6937 277.36 21.3155C278.079 21.9373 278.544 22.7021 278.753 23.6099L276.384 24.3747C276.28 23.9767 276.082 23.6472 275.792 23.386C275.502 23.1249 275.119 22.9943 274.643 22.9943Z" fill="white"/>
<path d="M282.194 24.4891V29.936H279.547V16.4307H282.194V21.262C282.717 20.7024 283.454 20.4226 284.406 20.4226C285.486 20.4226 286.299 20.7708 286.844 21.4672C287.402 22.1511 287.681 23.0341 287.681 24.116V29.936H285.033V24.601C285.033 24.116 284.911 23.7305 284.667 23.4445C284.435 23.146 284.087 22.9968 283.622 22.9968C283.216 22.9968 282.879 23.1398 282.612 23.4258C282.357 23.6994 282.217 24.0538 282.194 24.4891Z" fill="white"/>
<path d="M293.009 27.6018C293.554 27.6018 294.012 27.4028 294.384 27.0049C294.767 26.6069 294.959 26.0349 294.959 25.2887C294.959 24.5426 294.767 23.9767 294.384 23.5913C294.012 23.1933 293.554 22.9943 293.009 22.9943C292.474 22.9943 292.016 23.1933 291.632 23.5913C291.249 23.9892 291.057 24.555 291.057 25.2887C291.057 26.0224 291.249 26.5945 291.632 27.0049C292.016 27.4028 292.474 27.6018 293.009 27.6018ZM293.009 20.3828C294.32 20.3828 295.411 20.8429 296.282 21.7632C297.165 22.6834 297.606 23.8586 297.606 25.2887C297.606 26.7188 297.165 27.9002 296.282 28.8329C295.411 29.7532 294.32 30.2133 293.009 30.2133C291.708 30.2133 290.616 29.747 289.734 28.8143C288.851 27.8816 288.41 26.7064 288.41 25.2887C288.41 23.871 288.851 22.7021 289.734 21.7818C290.616 20.8491 291.708 20.3828 293.009 20.3828Z" fill="white"/>
<path d="M301.089 33.4794H298.441V20.6642H301.001V21.6156C301.199 21.2923 301.524 21.0186 301.977 20.7948C302.441 20.5586 302.963 20.4404 303.544 20.4404C304.775 20.4404 305.75 20.8943 306.47 21.8021C307.202 22.6975 307.567 23.854 307.567 25.2717C307.567 26.6894 307.178 27.8584 306.4 28.7786C305.634 29.6864 304.647 30.1403 303.44 30.1403C302.348 30.1403 301.564 29.8294 301.089 29.2077V33.4794ZM304.398 27.0065C304.781 26.5961 304.972 26.0241 304.972 25.2903C304.972 24.5566 304.781 23.9908 304.398 23.5929C304.026 23.1949 303.562 22.996 303.004 22.996C302.459 22.996 301.994 23.1949 301.611 23.5929C301.239 23.9908 301.054 24.5566 301.054 25.2903C301.054 26.0241 301.239 26.5961 301.611 27.0065C301.994 27.4045 302.459 27.6034 303.004 27.6034C303.562 27.6034 304.026 27.4045 304.398 27.0065Z" fill="white"/>
<path d="M310.403 24.1881H313.869C313.847 23.7654 313.69 23.3985 313.399 23.0876C313.121 22.7767 312.697 22.6212 312.128 22.6212C311.617 22.6212 311.21 22.7829 310.909 23.1062C310.607 23.4296 310.439 23.7902 310.403 24.1881ZM314.061 26.5945L316.273 27.266C316.052 28.1241 315.594 28.8329 314.897 29.3926C314.2 29.9397 313.329 30.2133 312.284 30.2133C311.031 30.2133 309.962 29.7656 309.08 28.8703C308.209 27.9748 307.773 26.7748 307.773 25.27C307.773 23.8275 308.198 22.6523 309.045 21.7445C309.904 20.8367 310.92 20.3828 312.093 20.3828C313.44 20.3828 314.496 20.8056 315.263 21.6512C316.041 22.4844 316.43 23.6472 316.43 25.1395C316.43 25.612 316.413 25.9043 316.377 26.0162H310.351C310.375 26.5261 310.578 26.9551 310.961 27.3034C311.344 27.6391 311.797 27.807 312.319 27.807C313.213 27.807 313.794 27.4028 314.061 26.5945Z" fill="white"/>
<path d="M325.78 16.4307V28.2758C325.78 28.8354 325.803 29.3888 325.85 29.936H323.307C323.261 29.6375 323.237 29.3391 323.237 29.0406C323.029 29.3639 322.715 29.6313 322.297 29.8427C321.891 30.0417 321.432 30.1411 320.921 30.1411C319.69 30.1411 318.668 29.6873 317.856 28.7794C317.043 27.8592 316.637 26.6902 316.637 25.2725C316.637 23.8797 317.031 22.7294 317.821 21.8216C318.611 20.9013 319.615 20.4412 320.834 20.4412C322.019 20.4412 322.796 20.7583 323.168 21.3926V16.4307H325.78ZM319.859 23.5937C319.487 23.9916 319.301 24.5574 319.301 25.2912C319.301 26.0249 319.487 26.5969 319.859 27.0073C320.242 27.4053 320.706 27.6042 321.252 27.6042C321.798 27.6042 322.256 27.4053 322.628 27.0073C323.011 26.5969 323.203 26.0249 323.203 25.2912C323.203 24.5574 323.011 23.9916 322.628 23.5937C322.256 23.1957 321.798 22.9968 321.252 22.9968C320.706 22.9968 320.242 23.1957 319.859 23.5937Z" fill="white"/>
<path d="M329.94 29.9354H327.293V20.6645H329.94V29.9354ZM327.519 19.0043C327.217 18.681 327.066 18.2892 327.066 17.8291C327.066 17.369 327.217 16.9773 327.519 16.6539C327.821 16.3306 328.181 16.1689 328.599 16.1689C329.029 16.1689 329.394 16.3306 329.696 16.6539C330.01 16.9773 330.167 17.369 330.167 17.8291C330.167 18.2892 330.01 18.681 329.696 19.0043C329.394 19.3276 329.029 19.4893 328.599 19.4893C328.181 19.4893 327.821 19.3276 327.519 19.0043Z" fill="white"/>
<path d="M330.863 27.3779C330.863 26.5945 331.101 25.9664 331.577 25.4939C332.053 25.0089 332.669 24.7042 333.423 24.5799L335.461 24.2441C335.879 24.1819 336.088 23.9705 336.088 23.6099C336.088 23.3239 335.972 23.0876 335.74 22.901C335.519 22.7021 335.212 22.6026 334.817 22.6026C334.375 22.6026 334.021 22.7394 333.754 23.013C333.499 23.2741 333.36 23.5913 333.336 23.9643L331.037 23.4607C331.095 22.6896 331.45 21.987 332.1 21.3528C332.761 20.7061 333.673 20.3828 334.834 20.3828C336.146 20.3828 337.11 20.7186 337.725 21.3901C338.352 22.0616 338.666 22.9197 338.666 23.9643V28.4971C338.666 29.0816 338.7 29.5604 338.77 29.9335H336.384C336.326 29.6848 336.297 29.3366 336.297 28.8889C335.798 29.7594 334.985 30.1946 333.859 30.1946C332.942 30.1946 332.21 29.9211 331.665 29.3739C331.13 28.8143 330.863 28.1489 330.863 27.3779ZM334.503 28.1427C334.956 28.1427 335.334 27.9998 335.635 27.7137C335.937 27.4277 336.088 26.9551 336.088 26.296V25.8856L334.451 26.1655C333.801 26.2773 333.475 26.6193 333.475 27.1914C333.475 27.4525 333.557 27.6764 333.719 27.8629C333.893 28.0495 334.155 28.1427 334.503 28.1427Z" fill="white"/>
<path d="M239.942 24.451C239.942 24.612 239.982 24.7702 240.057 24.9096C240.132 25.0489 240.24 25.1647 240.371 25.2452L243.067 26.9122C243.197 26.9926 243.345 27.0349 243.495 27.0348C243.645 27.0347 243.793 26.9923 243.923 26.9118C244.053 26.8313 244.161 26.7157 244.236 26.5763C244.311 26.437 244.35 26.2789 244.35 26.1181V17.3318C244.35 17.1711 244.311 17.0131 244.236 16.8739C244.161 16.7346 244.053 16.619 243.923 16.5386L236.818 12.1479C236.688 12.0676 236.541 12.0254 236.391 12.0254C236.241 12.0254 236.093 12.0677 235.963 12.1481C235.833 12.2285 235.725 12.344 235.65 12.4832C235.575 12.6224 235.535 12.7803 235.535 12.9411V16.2762C235.535 16.437 235.575 16.5951 235.65 16.7344C235.725 16.8738 235.833 16.9896 235.963 17.0703L239.514 19.2642C239.644 19.3445 239.752 19.46 239.827 19.5993C239.902 19.7386 239.942 19.8966 239.941 20.0574L239.942 24.451Z" fill="white"/>
<path d="M234.678 23.3111V27.7047C234.677 27.8656 234.717 28.0237 234.792 28.1631C234.867 28.3025 234.975 28.4183 235.105 28.4988L237.801 30.1659C237.931 30.2462 238.079 30.2885 238.229 30.2884C238.379 30.2883 238.527 30.2459 238.657 30.1654C238.787 30.085 238.895 29.9692 238.97 29.8299C239.045 29.6906 239.085 29.5326 239.085 29.3717V20.5854C239.085 20.4244 239.045 20.2663 238.97 20.1269C238.895 19.9875 238.786 19.8717 238.656 19.7913L231.553 15.3986C231.423 15.318 231.275 15.2755 231.125 15.2754C230.975 15.2753 230.827 15.3176 230.697 15.398C230.567 15.4784 230.459 15.5941 230.384 15.7335C230.309 15.8728 230.269 16.0309 230.27 16.1918V19.5269C230.269 19.6877 230.309 19.8457 230.384 19.985C230.459 20.1242 230.567 20.2399 230.697 20.3201L234.25 22.5169C234.38 22.5975 234.488 22.7133 234.563 22.8527C234.638 22.9921 234.678 23.1501 234.678 23.3111Z" fill="white"/>
<path d="M233.388 23.0503L226.283 18.6606C226.153 18.5803 226.006 18.538 225.855 18.5381C225.705 18.5382 225.558 18.5805 225.428 18.661C225.298 18.7415 225.19 18.8572 225.115 18.9966C225.04 19.1359 225 19.2939 225 19.4547V28.242C225 28.4028 225.039 28.5607 225.114 28.7C225.19 28.8392 225.297 28.9548 225.427 29.0352L229.835 31.7569L232.532 33.424C232.662 33.5046 232.809 33.5471 232.96 33.5472C233.11 33.5473 233.257 33.5051 233.388 33.4246C233.518 33.3442 233.626 33.2285 233.701 33.0891C233.776 32.9498 233.815 32.7916 233.815 32.6308V23.8445C233.815 23.6837 233.776 23.5256 233.7 23.3862C233.625 23.2469 233.518 23.131 233.388 23.0503Z" fill="white"/>
</g>
<g clip-path="url(#clip1_7158_1227)">
<path d="M7.54952 1.979H9.33422C11.3856 1.979 11.7213 2.02287 12.4474 2.38518C13.5004 2.90751 14.2699 3.94244 14.9413 5.73854C15.2144 6.46965 15.2104 6.46965 15.8176 6.28119L16.2192 6.1569L16.1823 3.50946C16.1622 2.05374 16.1285 0.758859 16.1084 0.632946L16.0722 0.403053L8.24589 0.386806C3.94157 0.377871 0.336025 0.386806 0.233216 0.404678L0.046875 0.437983L0.063742 0.908332L0.079806 1.37868L0.675777 1.45098C1.44845 1.5444 1.91029 1.76373 2.18418 2.16828C2.80184 3.07892 2.91428 4.31937 2.91268 10.2105C2.91268 16.4867 2.78256 18.009 2.18498 18.8027C1.87736 19.2089 1.62756 19.3445 0.93039 19.4761C0.0211728 19.6467 0.051694 19.6248 0.051694 20.1C0.051694 20.3648 0.0749867 20.5062 0.122375 20.5273C0.224381 20.5687 10.2346 20.572 10.3414 20.5273C10.4788 20.4737 10.4707 19.7263 10.3318 19.654C10.0854 19.5852 9.83444 19.5347 9.5808 19.5029C9.28101 19.4634 8.98532 19.3968 8.69729 19.3039C8.04188 19.0155 7.67723 18.217 7.53988 16.7734C7.44993 15.741 7.36961 13.8319 7.36961 12.4209V11.1268L7.97923 11.1455C9.2772 11.1853 9.94867 11.2544 10.2201 11.3754C10.8073 11.6386 11.2828 12.3713 11.5294 13.3957L11.6611 13.94L12.1245 13.957L12.5872 13.9733V7.08054L12.1245 7.09678L11.6619 7.11384L11.5261 7.65811C11.2643 8.71416 10.8362 9.36404 10.2073 9.65567C9.95188 9.77508 9.77036 9.80839 9.15832 9.84495C8.7511 9.87013 8.18244 9.89125 7.89409 9.89288H7.36961V8.18695C7.36961 6.47615 7.45956 2.84253 7.5174 2.27795L7.54952 1.979Z" fill="white"/>
<path d="M28.0224 12.1062C27.7252 9.56031 26.6569 7.69679 24.8971 6.64805C22.9397 5.48315 19.9647 5.41572 17.8515 6.48558C16.3254 7.26056 15.0781 8.75284 14.5247 10.4661C13.9552 12.2394 13.9552 14.5635 14.5255 16.367C14.8917 17.5237 15.3881 18.3678 16.1543 19.1354C17.0732 20.0558 18.2756 20.644 19.6515 20.847C20.1438 20.9193 21.6972 20.921 22.2064 20.847C22.5185 20.7972 22.8275 20.7289 23.1317 20.6423C25.6256 19.9112 27.3268 17.9746 27.9115 15.1996C28.0545 14.5254 28.1131 12.8836 28.0224 12.1062ZM18.6201 10.6529C18.9238 8.13464 19.6916 6.85845 20.902 6.85682C21.4474 6.85682 21.7494 6.99086 22.1767 7.42546C23.1919 8.45958 23.6739 10.4344 23.6658 13.5392C23.6594 16.016 23.416 17.5765 22.8707 18.631C22.6064 19.1419 22.1108 19.6123 21.7092 19.7333C20.1591 20.1988 19.0491 18.7049 18.6185 15.5757C18.4804 14.5635 18.4804 11.8089 18.6201 10.6529Z" fill="white"/>
<path d="M64.2789 6.2899C62.7207 5.5003 60.3144 5.55879 58.5538 6.42475C56.8863 7.24766 55.7426 8.61808 55.1 10.5555C54.7667 11.5637 54.6615 12.3752 54.6984 13.6831C54.7193 14.5092 54.7571 14.9365 54.8414 15.3183C55.4992 18.2866 57.5112 20.3045 60.3256 20.8179C60.9449 20.9308 62.3513 20.9332 62.9762 20.8228C63.8701 20.6644 64.9038 20.2622 65.5512 19.8179C66.3448 19.2761 67.1576 18.4605 67.1576 18.2078C67.1576 18.0535 66.8853 17.6985 66.7664 17.6985C66.7142 17.6985 66.4942 17.8146 66.2765 17.9568C65.5006 18.4645 64.7585 18.6725 63.7263 18.6725C62.3023 18.6725 61.3971 18.3142 60.4935 17.3882C60.0919 16.982 59.9264 16.7562 59.7184 16.35C59.2611 15.4564 59.0143 14.4288 58.9779 13.2671L58.9618 12.7659L63.1593 12.7513L67.356 12.7359L67.3688 12.4515C67.3717 12.1449 67.3565 11.8384 67.3231 11.5336C67.0644 8.95358 66.0323 7.17861 64.2789 6.2899ZM62.1007 11.467C61.5577 11.4865 60.6356 11.51 60.0501 11.519L58.9867 11.5368V11.3045C59.0004 11.0539 59.0272 10.8041 59.067 10.5563C59.4212 8.24603 60.2718 6.85936 61.3401 6.85854C62.3208 6.85854 62.9256 8.22329 63.0509 10.7237L63.087 11.4321L62.0999 11.467H62.1007Z" fill="white"/>
<path d="M78.5756 14.1374C78.0985 13.1723 77.2206 12.5127 75.3813 11.7344C73.8793 11.1 73.1251 10.6605 72.6649 10.1512C72.2914 9.73769 72.183 9.40382 72.2183 8.78562C72.2521 8.21698 72.3902 7.87579 72.7436 7.49318C73.1974 7.00577 73.8215 6.83112 74.5685 6.99034C75.7942 7.25272 76.5765 8.11137 77.2576 9.92534C77.4985 10.5752 77.5275 10.5931 77.962 10.4298L78.2359 10.3266L78.2262 9.58091C78.2214 9.17067 78.2005 8.30959 78.1805 7.66702L78.1443 6.49968L77.9395 6.41195C76.815 5.93185 74.6793 5.63291 73.2858 5.76207C71.7035 5.90829 70.5413 6.41682 69.6465 7.35427C68.7517 8.29171 68.3558 9.37863 68.4273 10.676C68.4859 11.7491 68.7999 12.5192 69.4537 13.1942C70.0602 13.8214 70.5694 14.1187 72.0288 14.6946C74.3846 15.6256 75.0078 16.1772 75.0006 17.3242C75.0006 18.2925 74.489 19.0017 73.5629 19.3323C73.232 19.4509 72.395 19.4493 71.9485 19.3323C70.7774 19.0204 69.881 17.9944 69.1172 16.0927L68.9212 15.6053L68.6915 15.6166C68.5589 15.6238 68.4284 15.6528 68.3052 15.7027L68.1445 15.7791L68.1598 16.6101C68.1678 17.0675 68.1903 18.0309 68.2096 18.7515L68.2457 20.0626L68.5068 20.1763C69.0425 20.4087 70.6505 20.7653 71.6609 20.8741C71.7862 20.8879 72.4754 20.8928 73.1926 20.8847C74.4376 20.8709 74.5275 20.862 75.1532 20.697C77.0006 20.2096 78.1981 19.1666 78.7282 17.5849C78.8889 17.0975 78.9138 16.9505 78.9371 16.2283C78.9732 15.2641 78.8857 14.7637 78.5756 14.1374Z" fill="white"/>
<path d="M38.2506 5.70996C37.592 5.70996 37.2362 5.78389 36.7021 6.03084C35.7302 6.48088 35.0001 7.2193 34.3479 8.40776L34.1447 8.779L34.1704 8.11938C34.1849 7.75626 34.209 7.07876 34.2242 6.61329L34.2515 5.76683H34.115C33.9359 5.76683 28.3167 6.90411 28.1464 6.97397C28.0364 7.01946 28.0195 7.06902 28.0195 7.34196C28.0195 7.61491 28.0332 7.66122 28.1464 7.68477L28.7207 7.7985C29.2171 7.89436 29.3633 7.97234 29.5697 8.24692C29.948 8.75301 30.0251 9.64578 30.0211 13.4256C30.0211 16.5125 29.9544 18.056 29.8099 18.5361C29.6323 19.1267 29.3167 19.4297 28.7657 19.532C28.5882 19.5653 28.3537 19.6133 28.2444 19.636L28.046 19.6782L28.0292 20.0747C28.0171 20.3533 28.034 20.4857 28.0854 20.519C28.1264 20.545 30.0484 20.5605 32.3568 20.5523L36.5543 20.5393L36.5703 20.0942C36.58 19.8505 36.5703 19.6498 36.5422 19.6498C36.2161 19.6498 35.217 19.5109 35.0595 19.4443C34.5857 19.2445 34.3567 18.8147 34.2563 17.9423C34.1399 16.9187 34.0716 14.372 34.1037 12.2851C34.1359 10.1771 34.1367 10.1689 34.2644 10.0276C34.568 9.69777 35.3382 9.44107 36.0314 9.43944C36.5856 9.43944 37.1559 9.58241 37.7639 9.87729C38.0555 10.0195 38.3261 10.121 38.3615 10.1088C38.4378 10.0796 39.8145 6.39883 39.8145 6.2258C39.8177 5.96748 39.0321 5.70996 38.2506 5.70996Z" fill="white"/>
<path d="M49.0753 6.01709C48.7412 5.94723 48.4392 5.93585 47.7902 5.95535C46.8119 5.99028 46.138 6.13813 45.4071 6.48013C45.1662 6.59304 44.9533 6.68565 44.9373 6.68565C44.9212 6.68565 44.9236 5.1885 44.9429 3.35503C44.9694 0.776646 44.9622 0.0244141 44.9092 0.0244141C44.7244 0.0244141 38.9318 1.13895 38.8683 1.19013C38.8209 1.2275 38.8008 1.3526 38.8113 1.53944C38.8306 1.86438 38.792 1.84001 39.498 2.00004C39.6918 2.04093 39.8783 2.11103 40.0514 2.208C40.2868 2.37778 40.4827 2.74496 40.6185 3.27136C40.7261 3.68728 40.7406 3.9846 40.7896 6.7945C40.8402 9.66371 40.8305 12.6133 40.7526 18.0171L40.7197 20.2616L41.1357 20.3574C41.7357 20.4955 43.4554 20.7847 44.0184 20.8448C44.8441 20.9261 46.7677 20.9179 47.3806 20.8245C50.04 20.4184 52.0455 18.8587 52.9797 16.4663C53.257 15.7123 53.4481 14.9287 53.5491 14.1308C53.6471 13.2803 53.5917 11.5825 53.4447 10.8993C52.8768 8.28272 51.26 6.47444 49.0753 6.01709ZM46.289 19.7067C45.9903 19.7644 45.9011 19.766 45.3605 19.723C45.1308 19.7051 45.0802 19.6791 45.0336 19.5556C44.9614 19.3623 44.873 12.6385 44.91 9.9529L44.9381 7.85624L45.3132 7.74414C45.603 7.66423 45.9027 7.62648 46.2031 7.63203C46.685 7.63203 46.7444 7.64665 47.1493 7.84893C48.1243 8.33634 48.7926 9.54673 49.1034 11.3891C49.2183 12.0707 49.2327 13.9301 49.1291 14.7457C48.8737 16.749 48.2263 18.3664 47.3621 19.1495C47.0652 19.438 46.6909 19.6318 46.2858 19.7067H46.289Z" fill="white"/>
<path d="M18.0715 35.1934H17.2916V29.1114H15.168V28.4111H20.1952V29.1114H18.0715V35.1934Z" fill="white"/>
<path d="M23.2141 35.2848C22.4714 35.2848 21.885 35.0557 21.4551 34.5976C21.0251 34.1394 20.8109 33.5039 20.8125 32.691C20.8125 31.8711 21.0122 31.2212 21.4117 30.7414C21.8112 30.2616 22.3466 30.0203 23.0181 30.0176C23.6489 30.0176 24.1474 30.2272 24.5136 30.6463C24.8799 31.0655 25.0633 31.6184 25.0638 32.3051V32.7926H21.5996C21.6146 33.3883 21.7638 33.8413 22.047 34.1516C22.3303 34.4619 22.7284 34.6165 23.2414 34.6155C23.7944 34.6134 24.3411 34.4967 24.8478 34.2726V34.9534C24.6021 35.0632 24.3462 35.1479 24.0839 35.206C23.7974 35.2623 23.5059 35.2887 23.2141 35.2848ZM23.0076 30.6593C22.6034 30.6593 22.2821 30.7923 22.0438 31.0582C21.8055 31.3241 21.6642 31.6921 21.6197 32.1622H24.2478C24.2478 31.6748 24.1407 31.303 23.9265 31.0468C23.7123 30.7907 23.406 30.6615 23.0076 30.6593Z" fill="white"/>
<path d="M28.3672 35.286C27.6395 35.286 27.076 35.0593 26.6765 34.606C26.277 34.1527 26.0776 33.5107 26.0781 32.68C26.0781 31.8297 26.2808 31.1725 26.6861 30.7084C27.0915 30.2443 27.6687 30.0122 28.4178 30.0122C28.661 30.0133 28.9033 30.0405 29.1407 30.0934C29.3373 30.131 29.5283 30.1935 29.7094 30.2795L29.4756 30.9293C29.2969 30.8582 29.113 30.8015 28.9255 30.7596C28.7524 30.7182 28.5755 30.6959 28.3978 30.693C27.3761 30.693 26.8653 31.3515 26.8653 32.6686C26.8653 33.2935 26.99 33.7731 27.2395 34.1072C27.4891 34.4414 27.8583 34.6082 28.3472 34.6076C28.7904 34.6026 29.2283 34.5099 29.6363 34.3347V35.0163C29.3032 35.1961 28.8802 35.286 28.3672 35.286Z" fill="white"/>
<path d="M34.276 35.1921V31.9029C34.276 31.4887 34.1826 31.1794 33.9957 30.9753C33.8088 30.7711 33.517 30.669 33.1202 30.669C32.5912 30.669 32.2051 30.8144 31.962 31.1052C31.7189 31.396 31.5974 31.8724 31.5974 32.5341V35.1921H30.8359V27.9736H31.5974V30.1613C31.5996 30.3785 31.5872 30.5956 31.5604 30.8112H31.6062C31.7626 30.5615 31.9852 30.3613 32.2488 30.2336C32.5435 30.0887 32.868 30.0163 33.1957 30.0224C33.8099 30.0224 34.2709 30.1702 34.5788 30.4659C34.8867 30.7616 35.0404 31.2309 35.0399 31.8737V35.1905L34.276 35.1921Z" fill="white"/>
<path d="M40.0416 35.1919V31.9027C40.0416 31.4884 39.9485 31.1792 39.7621 30.975C39.5758 30.7709 39.2837 30.6688 38.8858 30.6688C38.36 30.6688 37.9748 30.8126 37.7301 31.1001C37.4853 31.3877 37.363 31.8627 37.363 32.525V35.1919H36.6016V30.1074H37.2208L37.3445 30.8036H37.3815C37.5407 30.5504 37.7681 30.3483 38.0369 30.2212C38.3308 30.081 38.6525 30.0105 38.9774 30.0148C39.583 30.0148 40.0382 30.1624 40.3428 30.4576C40.6475 30.7527 40.8004 31.2252 40.8015 31.8751V35.1919H40.0416Z" fill="white"/>
<path d="M46.7019 32.6466C46.7019 33.4752 46.4955 34.1224 46.0827 34.5881C45.6698 35.0539 45.0996 35.2868 44.3719 35.2868C43.9506 35.2932 43.5358 35.1807 43.1743 34.9618C42.8227 34.7429 42.5432 34.4234 42.3711 34.0439C42.173 33.6044 42.0758 33.1254 42.0868 32.6426C42.0868 31.814 42.2916 31.1684 42.7012 30.7059C43.1108 30.2435 43.6798 30.0122 44.408 30.0122C45.1111 30.0122 45.6698 30.2489 46.0843 30.7222C46.4987 31.1955 46.7046 31.837 46.7019 32.6466ZM42.8715 32.6466C42.8715 33.2965 43 33.7915 43.257 34.1316C43.514 34.4717 43.8918 34.6418 44.3903 34.6418C44.8883 34.6418 45.2666 34.4723 45.5253 34.1332C45.7839 33.7942 45.9132 33.2987 45.9132 32.6466C45.9132 32 45.7839 31.5091 45.5253 31.1739C45.2666 30.8386 44.8851 30.6707 44.3807 30.6702C43.8827 30.6702 43.5079 30.8357 43.2562 31.1665C43.0046 31.4974 42.8766 31.9908 42.8723 32.6466H42.8715Z" fill="white"/>
<path d="M48.8005 35.1921H48.0391V27.9736H48.8005V35.1921Z" fill="white"/>
<path d="M54.7558 32.6466C54.7558 33.4752 54.5494 34.1224 54.1365 34.5881C53.7237 35.0539 53.1534 35.2868 52.4257 35.2868C52.0047 35.2931 51.5903 35.1806 51.229 34.9618C50.8774 34.7429 50.5979 34.4234 50.4258 34.0439C50.2277 33.6044 50.1305 33.1254 50.1415 32.6426C50.1415 31.814 50.3463 31.1684 50.7559 30.7059C51.1655 30.2435 51.7342 30.0122 52.4619 30.0122C53.1655 30.0122 53.7242 30.2489 54.1382 30.7222C54.5521 31.1955 54.758 31.837 54.7558 32.6466ZM50.9262 32.6466C50.9262 33.2965 51.0547 33.7915 51.3117 34.1316C51.5687 34.4717 51.9462 34.6418 52.4442 34.6418C52.9433 34.6418 53.3218 34.4723 53.5799 34.1332C53.838 33.7942 53.9671 33.2987 53.9671 32.6466C53.9671 32 53.838 31.5091 53.5799 31.1739C53.3218 30.8386 52.9401 30.6707 52.4346 30.6702C51.9355 30.6702 51.5607 30.8357 51.3101 31.1665C51.0595 31.4974 50.9315 31.9908 50.9262 32.6466Z" fill="white"/>
<path d="M60.2047 30.1078V30.5952L59.273 30.7065C59.4918 30.9987 59.6082 31.3562 59.6039 31.7227C59.6039 32.2204 59.4355 32.6177 59.0987 32.9144C58.7619 33.2112 58.3003 33.3599 57.714 33.3604C57.5723 33.3609 57.4309 33.3484 57.2915 33.323C56.9702 33.4963 56.8082 33.7143 56.8056 33.977C56.8023 34.0393 56.8164 34.1014 56.8464 34.156C56.8764 34.2106 56.9209 34.2555 56.975 34.2857C57.0885 34.3523 57.2829 34.3856 57.5581 34.3856H58.4473C58.9919 34.3856 59.41 34.5015 59.7019 34.7333C59.9937 34.9651 60.1412 35.3022 60.1444 35.7446C60.1444 36.3073 59.9211 36.7365 59.4746 37.0322C59.028 37.3279 58.3753 37.4747 57.5164 37.4725C56.8594 37.4725 56.3526 37.3488 55.9959 37.1013C55.8251 36.988 55.6862 36.832 55.5926 36.6483C55.499 36.4647 55.454 36.2598 55.4618 36.0533C55.4566 35.7581 55.5612 35.4717 55.755 35.2507C55.9742 35.0119 56.2638 34.851 56.5807 34.7918C56.451 34.7317 56.3399 34.6371 56.2594 34.518C56.1712 34.3921 56.1253 34.2409 56.1285 34.0867C56.1251 33.9125 56.1765 33.7418 56.2754 33.5992C56.4013 33.4339 56.5586 33.2958 56.7381 33.1931C56.4743 33.0808 56.2521 32.8876 56.1028 32.6407C55.9384 32.3728 55.8547 32.0623 55.8618 31.7471C55.8618 31.1898 56.027 30.7606 56.3574 30.4595C56.6878 30.1584 57.1555 30.0076 57.7606 30.007C58.0006 30.0039 58.2399 30.0351 58.4714 30.0997L60.2047 30.1078ZM56.1959 36.046C56.1909 36.1723 56.2204 36.2975 56.281 36.4079C56.3416 36.5184 56.4311 36.6099 56.5397 36.6723C56.7683 36.8148 57.0971 36.886 57.526 36.886C58.1648 36.886 58.6379 36.7893 58.9453 36.596C59.2526 36.4026 59.4063 36.1405 59.4063 35.8096C59.4063 35.534 59.3222 35.3444 59.1541 35.241C58.9862 35.1338 58.6722 35.0785 58.2047 35.0785H57.2915C56.9461 35.0785 56.677 35.1619 56.4843 35.3287C56.2915 35.4955 56.1954 35.7346 56.1959 36.046ZM56.6104 31.7365C56.6104 32.0923 56.71 32.3612 56.9092 32.5432C57.1084 32.7252 57.3836 32.8164 57.7349 32.817C58.4781 32.817 58.8497 32.4522 58.8497 31.7227C58.8497 30.958 58.4749 30.576 57.7252 30.5765C57.3675 30.5765 57.0923 30.674 56.8995 30.869C56.7068 31.0639 56.6104 31.3531 56.6104 31.7365Z" fill="white"/>
<path d="M60.4375 30.1073H61.2544L62.3547 33.0073C62.5962 33.6686 62.7462 34.1462 62.8045 34.4403H62.8415C62.8811 34.2827 62.9644 34.0119 63.0913 33.628C63.2182 33.244 63.6331 32.0693 64.3362 30.104H65.1531L62.9925 35.8936C62.7783 36.466 62.5282 36.8722 62.2423 37.1121C61.9449 37.3562 61.5705 37.484 61.1877 37.472C60.9559 37.4714 60.725 37.4442 60.4993 37.3907V36.7734C60.6842 36.8124 60.8727 36.8312 61.0616 36.8294C61.5842 36.8294 61.9574 36.5316 62.1812 35.9358L62.4607 35.2128L60.4375 30.1073Z" fill="white"/>
<path d="M18.8779 39.514C18.1416 39.514 17.5598 39.7623 17.1325 40.259C16.7052 40.7556 16.491 41.4352 16.49 42.2979C16.49 43.1861 16.6956 43.872 17.1068 44.3556C17.5181 44.8392 18.1044 45.081 18.8658 45.081C19.4084 45.0698 19.9469 44.984 20.4666 44.826V45.5173C20.0018 45.6938 19.4283 45.7821 18.7461 45.7821C17.7588 45.7821 16.9965 45.4788 16.4595 44.8723C15.9224 44.2657 15.6547 43.4044 15.6563 42.2882C15.6563 41.5896 15.7856 40.9773 16.0442 40.4515C16.2871 39.9405 16.6771 39.5157 17.1631 39.233C17.6503 38.9486 18.2246 38.8062 18.8859 38.8057C19.589 38.8057 20.2034 38.9356 20.7292 39.1956L20.3991 39.8731C19.9246 39.6408 19.405 39.5181 18.8779 39.514Z" fill="white"/>
<path d="M26.1552 43.1426C26.1552 43.9723 25.9488 44.6194 25.5359 45.0841C25.1231 45.5488 24.5528 45.7816 23.8251 45.7827C23.4046 45.7902 22.9903 45.6794 22.6284 45.4626C22.2752 45.2441 21.9942 44.9243 21.8211 44.5439C21.6224 44.1046 21.5249 43.6255 21.536 43.1426C21.536 42.314 21.7411 41.6684 22.1513 41.2059C22.5614 40.7435 23.1301 40.5122 23.8572 40.5122C24.5608 40.5122 25.1196 40.7489 25.5335 41.2222C25.9474 41.6955 26.1546 42.3357 26.1552 43.1426ZM22.3255 43.1426C22.3255 43.7925 22.4538 44.2875 22.7103 44.6276C22.9668 44.9677 23.3445 45.1377 23.8436 45.1377C24.3421 45.1377 24.7204 44.9685 24.9785 44.63C25.2366 44.2915 25.3659 43.7957 25.3664 43.1426C25.3664 42.497 25.2371 42.0061 24.9785 41.6698C24.7199 41.3335 24.3386 41.1656 23.8347 41.1661C23.3362 41.1661 22.9601 41.3316 22.7063 41.6625C22.4525 41.9934 22.3255 42.4867 22.3255 43.1426Z" fill="white"/>
<path d="M28.2117 40.6064V43.9054C28.2117 44.3197 28.3048 44.6289 28.4912 44.8331C28.6775 45.0372 28.9696 45.1393 29.3675 45.1393C29.8933 45.1393 30.2778 44.9939 30.5209 44.7031C30.764 44.4123 30.8855 43.9376 30.8855 43.2791V40.6064H31.6469V45.6909H31.0188L30.9088 45.0094H30.8678C30.7105 45.2603 30.4849 45.46 30.2181 45.5845C29.9212 45.7222 29.5976 45.7905 29.2711 45.7843C28.6596 45.7843 28.2018 45.6373 27.8976 45.3432C27.5935 45.0492 27.4414 44.5791 27.4414 43.933V40.6064H28.2117Z" fill="white"/>
<path d="M36.6979 45.6895V42.4011C36.6979 41.986 36.6039 41.6773 36.4176 41.4726C36.2312 41.2679 35.9357 41.1664 35.5421 41.1664C35.0157 41.1664 34.6302 41.3104 34.3855 41.5985C34.1408 41.8866 34.0187 42.3613 34.0192 43.0226V45.6895H33.2578V40.605H33.8763L34 41.3012H34.0369C34.1966 41.0481 34.4242 40.8461 34.6931 40.7187C34.987 40.5784 35.3087 40.5079 35.6337 40.5124C36.2393 40.5124 36.6944 40.6603 36.9991 40.956C37.3038 41.2517 37.4567 41.7239 37.4577 42.3727V45.6895H36.6979Z" fill="white"/>
<path d="M41.0312 45.7827C40.3035 45.7827 39.7413 45.5561 39.3445 45.1028C38.9477 44.6495 38.7482 44.0085 38.7461 43.18C38.7461 42.3292 38.9485 41.672 39.3533 41.2084C39.7581 40.7448 40.3353 40.5127 41.085 40.5122C41.3281 40.5137 41.5704 40.5409 41.8079 40.5934C42.0044 40.6312 42.1954 40.6937 42.3765 40.7795L42.142 41.4293C41.9634 41.358 41.7794 41.3012 41.5918 41.2596C41.4188 41.2181 41.2419 41.1958 41.0641 41.193C40.043 41.193 39.5324 41.8518 39.5324 43.1694C39.5324 43.7944 39.6569 44.2736 39.9059 44.6072C40.1549 44.9408 40.5244 45.1079 41.0143 45.1085C41.4562 45.1027 41.8928 45.0097 42.2994 44.8347V45.5163C41.9648 45.6939 41.542 45.7827 41.0312 45.7827Z" fill="white"/>
<path d="M43.4312 39.2282C43.4312 39.0522 43.474 38.923 43.5597 38.8407C43.6472 38.7609 43.7608 38.7168 43.8786 38.7168C43.9964 38.7168 44.11 38.7609 44.1974 38.8407C44.2448 38.892 44.2811 38.9527 44.304 39.019C44.3268 39.0853 44.3356 39.1558 44.33 39.2257C44.3355 39.2961 44.3266 39.3668 44.3038 39.4335C44.281 39.5002 44.2448 39.5614 44.1974 39.6132C44.1556 39.6545 44.1061 39.687 44.0518 39.7089C43.9975 39.7308 43.9394 39.7416 43.881 39.7408C43.8217 39.7425 43.7627 39.7322 43.7074 39.7102C43.6522 39.6883 43.602 39.6553 43.5597 39.6132C43.5138 39.5611 43.4787 39.5001 43.4566 39.4339C43.4346 39.3678 43.4259 39.2978 43.4312 39.2282ZM44.2569 45.6904H43.4954V40.6059H44.2569V45.6904Z" fill="white"/>
<path d="M46.6364 45.6892H45.875V38.4707H46.6364V45.6892Z" fill="white"/>
<path d="M3.70842 27.064H2.91406V46.9705H3.70842V27.064Z" fill="white"/>
</g>
<path fill-rule="evenodd" clip-rule="evenodd" d="M117.742 38.3841H121.686V24.9638H117.742V38.3853V38.3841ZM135.707 24.9638H131.962V32.0428H131.944L127.077 24.9638H123.313V38.3853H127.058V31.181H127.076L131.943 38.3853H135.707V24.9638ZM142.055 24.6758C138.725 24.6758 136.862 26.5983 136.862 28.9517C136.862 31.5569 139.16 32.4912 140.607 33.0123C141.71 33.408 142.634 33.6949 142.634 34.3423C142.634 34.8458 142.072 35.2943 140.86 35.2943C139.431 35.2943 137.947 34.6655 136.971 33.8752V37.5048C137.966 38.1699 139.576 38.6722 141.331 38.6722C144.732 38.6722 146.668 36.7859 146.668 34.2346C146.668 31.3777 144.208 30.5336 142.399 29.9048C141.332 29.5278 140.734 29.3124 140.734 28.8452C140.734 28.378 141.277 28.0549 142.345 28.0549C143.52 28.0549 144.968 28.4682 145.818 29.0606V25.6101C144.841 25.0528 143.52 24.6758 142.055 24.6758ZM147.589 38.3841H151.533V24.9638H147.589V38.3853V38.3841ZM157.106 34.8446H157.866C159.911 34.8446 161.231 33.6949 161.231 31.6822C161.231 29.6695 159.911 28.5021 157.866 28.5021H157.106V34.8446ZM165.212 31.6822C165.212 35.7251 162.136 38.3841 157.721 38.3841H153.162V24.9638H157.721C162.136 24.9638 165.212 27.6404 165.212 31.6833V31.6822ZM166.281 38.3841H175.617V34.8985H170.225V33.2277H175.074V30.0652H170.225V28.4483H175.617V24.9638H166.281V38.3853V38.3841ZM181.825 31.3052C182.82 31.3052 183.598 30.838 183.598 29.9036C183.598 28.9693 182.82 28.5021 181.807 28.5021H180.975V31.3052H181.825ZM188.284 38.3841H183.634L181.064 34.2335H180.974V38.3841H177.03V24.9638H181.843C185.227 24.9638 187.578 26.4555 187.578 29.6355C187.578 30.893 187.016 32.7254 184.773 33.6597L188.283 38.3853L188.284 38.3841Z" fill="white"/>
<path fill-rule="evenodd" clip-rule="evenodd" d="M109.344 9.28804H115.121C118.335 9.28804 120.015 10.9347 120.015 12.9568C120.015 14.3527 119.221 15.3008 118.119 15.8023V15.8384C119.528 16.3399 120.322 17.4489 120.322 18.8623C120.322 20.8844 118.751 22.6559 115.357 22.6559H109.344V9.28804ZM114.941 14.5848C115.898 14.5848 116.332 14.102 116.332 13.5644C116.332 13.0268 115.899 12.5265 114.941 12.5265H113.244V14.5848H114.941ZM114.995 19.4162C116.006 19.4162 116.494 18.9334 116.494 18.3072C116.494 17.681 115.988 17.1982 115.014 17.1982H113.244V19.4174H114.995V19.4162ZM121.152 17.2157V9.28804H125.088V17.1795C125.088 18.6652 125.828 19.4524 127.092 19.4524C128.355 19.4524 129.15 18.6652 129.15 17.162V9.28804H133.105V17.2157C133.105 20.5801 130.83 22.9964 127.092 22.9964C123.353 22.9964 121.151 20.5801 121.151 17.2157H121.152ZM143.126 9.93177V13.3673C142.278 12.7772 140.833 12.3656 139.66 12.3656C138.595 12.3656 138.052 12.7061 138.052 13.1527C138.052 13.5994 138.648 13.8326 139.714 14.2081C141.52 14.8344 143.975 15.6752 143.975 18.5206C143.975 21.0617 142.043 22.9404 138.648 22.9404C136.897 22.9404 135.29 22.439 134.297 21.7777V18.1626C135.272 18.9498 136.752 19.576 138.178 19.576C139.388 19.576 139.948 19.1282 139.948 18.6279C139.948 17.9842 139.027 17.6973 137.925 17.3031C136.48 16.7842 134.188 15.8536 134.188 13.2589C134.188 10.9149 136.049 9 139.37 9C140.833 9 142.151 9.37551 143.126 9.9306V9.93177ZM144.985 9.28804H148.922V22.6559H144.985V9.28804ZM162.916 22.6559H159.16L154.302 15.4804H154.285V22.6559H150.548V9.28804H154.304L159.161 16.3387H159.179V9.28804H162.916V22.6559ZM164.541 9.28804H173.858V12.7597H168.477V14.3702H173.315V17.52H168.477V19.1842H173.858V22.6559H164.541V9.28804ZM183.735 9.93177V13.3673C182.886 12.7772 181.442 12.3656 180.268 12.3656C179.203 12.3656 178.661 12.7061 178.661 13.1527C178.661 13.5994 179.256 13.8326 180.322 14.2081C182.129 14.8344 184.583 15.6752 184.583 18.5206C184.583 21.0617 182.651 22.9404 179.256 22.9404C177.506 22.9404 175.898 22.439 174.905 21.7777V18.1626C175.881 18.9498 177.361 19.576 178.787 19.576C179.997 19.576 180.557 19.1282 180.557 18.6279C180.557 17.9842 179.635 17.6973 178.534 17.3031C177.089 16.7842 174.797 15.8536 174.797 13.2589C174.797 10.9149 176.657 9 179.979 9C181.442 9 182.759 9.37551 183.735 9.9306V9.93177ZM194.153 9.93177V13.3673C193.305 12.7772 191.86 12.3656 190.687 12.3656C189.622 12.3656 189.079 12.7061 189.079 13.1527C189.079 13.5994 189.675 13.8326 190.741 14.2081C192.547 14.8344 195.002 15.6752 195.002 18.5206C195.002 21.0617 193.069 22.9404 189.675 22.9404C187.924 22.9404 186.317 22.439 185.323 21.7777V18.1626C186.299 18.9498 187.779 19.576 189.205 19.576C190.415 19.576 190.975 19.1282 190.975 18.6279C190.975 17.9842 190.054 17.6973 188.952 17.3031C187.507 16.7842 185.215 15.8536 185.215 13.2589C185.215 10.9149 187.075 9 190.397 9C191.86 9 193.178 9.37551 194.153 9.9306V9.93177Z" fill="white"/>
<g clip-path="url(#clip2_7158_1227)">
<path d="M27.0039 76.0217H29.2044V65.0747H27.0039V62.2651H35.5071L39.2289 71.9663L43.0866 62.2651H51.6712V65.0747H49.4707V76.0217H51.7256V78.8313H42.9779V76.0217H45.2056V65.0747H44.7981L39.5006 78.8313H37.6532L32.3557 65.0747H31.9482V76.0217H34.1759V78.8313H27.0039V76.0217ZM64.7656 76.2602C63.5431 78.1157 61.5327 79.0964 58.9791 79.0964C54.8769 79.0964 52.2961 76.8434 52.2961 73.2651C52.2961 69.6602 54.9584 67.0361 58.6802 67.0361C62.2391 67.0361 65.0644 69.6867 64.7656 73.8482H56.1266C56.1537 75.1735 56.8872 76.7373 59.0334 76.7373C60.0386 76.7373 60.6906 76.4193 61.7772 75.3855L64.7656 76.2602ZM61.0437 71.7807C60.8536 70.3229 59.9299 69.4482 58.5444 69.4482C57.1589 69.4482 56.3439 70.2169 56.1266 71.7807H61.0437ZM79.8159 78.8313H74.1652V77.453C73.0242 78.5398 72.0191 78.9904 70.7422 78.9904C67.8354 78.9904 65.6349 76.4193 65.6349 73C65.6349 69.6337 67.8626 67.0361 70.7694 67.0361C72.1006 67.0361 73.2959 67.5928 74.1652 68.5735V64.9157H72.3451V62.2651H77.9957V76.1542H79.8159V78.8313ZM71.8289 70.0578C70.4162 70.0578 69.5197 71.1976 69.5197 73.0795C69.5197 74.9349 70.4162 76.1542 71.8561 76.1542C73.0242 76.1542 74.2196 75.253 74.2196 73C74.2196 71.2771 73.3231 70.0578 71.8289 70.0578ZM97.1211 62.2651V68.0964H94.2414C93.9426 67.3277 93.4264 66.4265 92.9374 66.0554C91.7421 65.1542 91.1172 64.9687 90.0034 64.9687C86.9607 64.9687 84.9504 67.2217 84.9504 70.588C84.9504 73.7952 86.9064 76.0217 89.7317 76.0217C92.0681 76.0217 93.8339 74.4313 94.4587 71.7012L97.8002 73.2651C96.5506 77.7181 92.7472 79.0434 89.4057 79.0434C82.1522 79.0434 80.2234 74.1398 80.2234 70.5349C80.2234 65.4988 83.8366 62 89.1341 62C91.1987 62 92.8287 62.4771 94.2414 63.5639V62.2651H97.1211ZM98.9141 67.3012H104.456V76.1807H106.168V78.8313H98.8869V76.1807H100.598V69.9518H98.8869V67.3012H98.9141ZM104.673 63.988C104.673 65.1012 103.75 66.0024 102.609 66.0024C101.468 66.0024 100.571 65.1012 100.571 63.988C100.571 62.8747 101.441 62 102.582 62C103.723 62 104.673 62.8747 104.673 63.988ZM106.195 67.3012H107.689V65.4988L111.519 62.8747V67.3012H113.638V69.9518H111.519V74.9614C111.519 75.9687 111.682 76.1542 112.497 76.1542C112.905 76.1542 113.122 76.1012 113.638 75.9422V78.4337C112.688 78.8313 111.737 79.0169 110.813 79.0169C109.319 79.0169 107.689 78.3012 107.689 76.2602V69.9518H106.195V67.3012ZM117.387 81.3229H119.642L120.43 79.2819L116.138 69.9518H114.426V67.3012H121.272V69.9518H120.131L122.114 75.1205L124.206 69.9518H122.902V67.3012H128.906V69.9518H127.195L121.517 84H117.387V81.3229ZM133.47 64.3325H131.052V62.2651H136.839L144.174 75.147H144.228V64.3325H141.865V62.2651H148.846V64.3325H146.347V78.9904H143.685L135.643 64.8627H135.589V76.7639H138.034V78.8313H131.052V76.7639H133.47V64.3325ZM150.639 73.6361C150.993 75.8892 152.487 77.1614 154.687 77.1614C156.209 77.1614 157.648 76.4988 158.518 75.2795L160.555 76.1542C159.278 78.0892 157.159 79.1494 154.633 79.1494C150.802 79.1494 148.059 76.6048 148.059 73.053C148.059 69.3157 151.183 66.9566 154.253 66.9566C157.513 66.9566 160.555 69.3952 160.555 73.6096H150.639V73.6361ZM158.192 71.9663C157.811 70.1373 156.154 68.7855 154.307 68.7855C152.46 68.7855 151.047 70.0313 150.721 71.9663H158.192ZM161.941 69.3157H160.501V67.3277H165.472V69.3157H163.951L166.179 76.2602H166.233L168.461 69.3157H167.157V67.3277H172.889V69.3157H171.612L173.84 76.2602H173.894L176.149 69.3157H174.492V67.3277H179.816V69.3157H178.132L174.954 79.0169H172.78L170.118 70.6675H170.064L167.32 79.0169H165.119L161.941 69.3157ZM180.305 74.8819H182.37V75.253C182.56 76.3928 183.647 77.1084 185.195 77.1084C186.662 77.1084 187.613 76.5518 187.613 75.6771C187.613 73.5301 183.457 74.9084 181.229 72.7084C180.686 72.1783 180.305 71.3566 180.305 70.5084C180.305 68.5205 182.044 67.1157 184.462 67.1157C185.549 67.1157 186.554 67.3542 187.342 67.7783V67.3277H189.379V71.1181H187.342V70.4024C186.662 69.4217 185.793 68.9976 184.598 68.9976C183.348 68.9976 182.533 69.5542 182.533 70.4024C182.533 72.3373 187.07 71.1976 189.026 73.106C189.732 73.7952 190.031 74.6964 190.031 75.4916C190.031 77.5855 188.211 78.9904 185.521 78.9904C184.245 78.9904 183.267 78.7253 182.424 78.1687V78.8048H180.36V74.8819H180.305Z" fill="white"/>
</g>
<g clip-path="url(#clip3_7158_1227)">
<path d="M293.108 63.2627V73.3397L289.643 63.2627H286.223V81.7427H289.643V72.6879L292.739 81.7427H296.531V63.2627H293.108Z" fill="white"/>
<path d="M223.423 63.2627H220.286H220V81.7427H223.423V73.8191H226.597V70.6892H223.423V66.3926H228.347V63.2627H223.423Z" fill="white"/>
<path d="M231.688 67.3448V77.6552C231.688 80.0546 233.815 82 236.439 82C239.064 82 241.191 80.0546 241.191 77.6552V67.3423C241.191 64.9429 239.064 63 236.442 63C233.818 63 231.69 64.9454 231.69 67.3448M235.113 77.6552V67.3448C235.113 66.6727 235.707 66.1299 236.442 66.1299H236.445C237.177 66.1299 237.771 66.6727 237.771 67.3423V77.6552C237.771 78.3273 237.177 78.8701 236.442 78.8701C235.707 78.8701 235.113 78.3273 235.113 77.6552Z" fill="white"/>
<path d="M258.914 63.2627V66.3926H261.946V81.7427H265.369V66.3926H268.401V63.2627H258.914Z" fill="white"/>
<path d="M278.432 63.2627V77.6566C278.432 78.3288 277.839 78.8716 277.104 78.8716C276.368 78.8716 275.775 78.3288 275.775 77.6566V63.2627H272.352V77.6566C272.352 80.056 274.479 82.0014 277.104 82.0014C279.728 82.0014 281.855 80.056 281.855 77.6566V63.2627H278.432Z" fill="white"/>
<path d="M301.008 63.2627V81.7427H309.352V78.6128H304.431V73.8191H307.605V70.6892H304.431V66.3926H309.352V63.2627H301.008Z" fill="white"/>
<path d="M255.656 81.7398H252.12L249.59 72.9665C249.59 72.9665 251.767 72.6089 251.767 70.491V67.602C251.767 66.9324 251.174 66.3897 250.441 66.3897H249.126V81.7398H245.703V63.2598H250.441C252.993 63.2598 255.071 65.1012 255.182 67.4118H255.193V70.4326H255.182C255.182 72.2563 254.53 73.5727 253.335 74.4097L255.659 81.7398H255.656Z" fill="white"/>
<path d="M310.64 63.9173C310.707 63.7828 310.795 63.6636 310.906 63.5647C311.017 63.4658 311.15 63.3872 311.298 63.3288C311.447 63.273 311.605 63.2451 311.772 63.2451C311.938 63.2451 312.099 63.273 312.246 63.3288C312.396 63.3846 312.524 63.4632 312.635 63.5647C312.746 63.6636 312.834 63.7828 312.898 63.9173C312.962 64.0542 312.995 64.1988 312.995 64.3561C312.995 64.5133 312.962 64.6655 312.898 64.8025C312.832 64.9394 312.743 65.0586 312.635 65.1575C312.524 65.259 312.393 65.3351 312.246 65.3934C312.099 65.4492 311.941 65.4771 311.772 65.4771C311.603 65.4771 311.445 65.4492 311.298 65.3934C311.148 65.3376 311.017 65.259 310.906 65.1575C310.793 65.0561 310.707 64.9394 310.64 64.8025C310.573 64.6655 310.543 64.5158 310.543 64.3561C310.543 64.1963 310.576 64.0517 310.64 63.9173ZM310.84 64.739C310.892 64.8557 310.962 64.9572 311.053 65.0434C311.145 65.1296 311.25 65.1956 311.375 65.2463C311.497 65.2945 311.633 65.3199 311.775 65.3199C311.916 65.3199 312.049 65.2945 312.171 65.2463C312.293 65.1981 312.399 65.1296 312.49 65.0434C312.582 64.9572 312.651 64.8557 312.704 64.739C312.754 64.6224 312.782 64.4956 312.782 64.3586C312.782 64.2216 312.757 64.0999 312.704 63.9857C312.654 63.8691 312.582 63.7701 312.49 63.6839C312.399 63.6002 312.293 63.5317 312.171 63.4835C312.049 63.4353 311.916 63.41 311.775 63.41C311.633 63.41 311.497 63.4353 311.375 63.4835C311.253 63.5317 311.145 63.6002 311.053 63.6839C310.962 63.7676 310.892 63.8691 310.84 63.9857C310.79 64.1024 310.762 64.2267 310.762 64.3586C310.762 64.4905 310.787 64.6224 310.84 64.739ZM311.85 63.7093C312.019 63.7093 312.146 63.7397 312.227 63.8031C312.31 63.864 312.349 63.9578 312.349 64.0847C312.349 64.2013 312.313 64.2876 312.241 64.3434C312.169 64.3992 312.08 64.4296 311.972 64.4398L312.379 65.018H312.141L311.752 64.455H311.517V65.018H311.295V63.7093H311.847H311.85ZM311.752 64.2901C311.802 64.2901 311.85 64.2901 311.894 64.285C311.938 64.2825 311.98 64.2749 312.013 64.2597C312.049 64.2444 312.074 64.2242 312.096 64.1963C312.116 64.1684 312.127 64.1278 312.127 64.0745C312.127 64.0314 312.119 63.9959 312.099 63.9705C312.08 63.9452 312.058 63.9249 312.027 63.9096C311.997 63.8944 311.963 63.8868 311.924 63.8817C311.886 63.8767 311.85 63.8741 311.811 63.8741H311.517V64.2901H311.75H311.752Z" fill="white"/>
</g>
<defs>
<clipPath id="clip0_7158_1227">
<rect width="114" height="22" fill="white" transform="translate(225 12)"/>
</clipPath>
<clipPath id="clip1_7158_1227">
<rect width="79" height="47" fill="white"/>
</clipPath>
<clipPath id="clip2_7158_1227">
<rect width="163" height="22" fill="white" transform="translate(27 62)"/>
</clipPath>
<clipPath id="clip3_7158_1227">
<rect width="93" height="19" fill="white" transform="translate(220 63)"/>
</clipPath>
</defs>
</svg>
