<svg width="573" height="41" viewBox="0 0 573 41" fill="none" xmlns="http://www.w3.org/2000/svg">
<g clip-path="url(#clip0_5659_1901)">
<path d="M228.514 16.8429H225.235V26.3054H222.869V16.8429H219.605V14.2822H228.514V16.8429Z" fill="white"/>
<path d="M229.355 21.0805H232.334C232.314 20.6961 232.179 20.3626 231.93 20.08C231.69 19.7973 231.326 19.656 230.837 19.656C230.398 19.656 230.048 19.803 229.789 20.0969C229.529 20.3909 229.384 20.7187 229.355 21.0805ZM232.499 23.2681L234.4 23.8786C234.21 24.6586 233.816 25.303 233.217 25.8118C232.618 26.3092 231.87 26.5579 230.971 26.5579C229.894 26.5579 228.975 26.1509 228.217 25.337C227.468 24.5229 227.094 23.432 227.094 22.064C227.094 20.7527 227.458 19.6843 228.187 18.859C228.925 18.0337 229.799 17.6211 230.807 17.6211C231.965 17.6211 232.873 18.0055 233.532 18.7742C234.2 19.5316 234.535 20.5887 234.535 21.9454C234.535 22.3749 234.52 22.6406 234.49 22.7424H229.31C229.33 23.2059 229.504 23.5959 229.834 23.9125C230.163 24.2177 230.552 24.3704 231.001 24.3704C231.77 24.3704 232.269 24.0029 232.499 23.2681Z" fill="white"/>
<path d="M238.675 19.9952C238.186 19.9952 237.776 20.1817 237.447 20.5548C237.127 20.9279 236.968 21.4423 236.968 22.0979C236.968 22.7424 237.133 23.2511 237.462 23.6242C237.801 23.9972 238.215 24.1838 238.705 24.1838C239.114 24.1838 239.448 24.0651 239.708 23.8277C239.977 23.579 240.157 23.2794 240.247 22.9289L242.253 23.6242C242.073 24.4269 241.669 25.1165 241.04 25.6931C240.421 26.2696 239.643 26.5579 238.705 26.5579C237.587 26.5579 236.638 26.1396 235.86 25.303C235.091 24.4551 234.707 23.3868 234.707 22.0979C234.707 20.7978 235.081 19.7295 235.83 18.8929C236.589 18.045 237.522 17.6211 238.63 17.6211C239.598 17.6211 240.391 17.9037 241.01 18.469C241.629 19.0342 242.028 19.7295 242.208 20.5548L240.172 21.2501C240.082 20.8883 239.912 20.5887 239.663 20.3513C239.413 20.1139 239.084 19.9952 238.675 19.9952Z" fill="white"/>
<path d="M245.166 21.3541V26.3059H242.891V14.0283H245.166V18.4204C245.615 17.9117 246.249 17.6573 247.068 17.6573C247.996 17.6573 248.695 17.9739 249.164 18.607C249.643 19.2288 249.883 20.0314 249.883 21.015V26.3059H247.607V21.4559C247.607 21.015 247.502 20.6645 247.292 20.4045C247.093 20.1331 246.793 19.9975 246.394 19.9975C246.045 19.9975 245.755 20.1275 245.526 20.3875C245.306 20.6363 245.186 20.9584 245.166 21.3541Z" fill="white"/>
<path d="M254.465 24.1838C254.933 24.1838 255.328 24.0029 255.647 23.6411C255.976 23.2794 256.141 22.7593 256.141 22.081C256.141 21.4027 255.976 20.8883 255.647 20.5379C255.328 20.1761 254.933 19.9952 254.465 19.9952C254.005 19.9952 253.611 20.1761 253.282 20.5379C252.952 20.8996 252.787 21.414 252.787 22.081C252.787 22.748 252.952 23.2681 253.282 23.6411C253.611 24.0029 254.005 24.1838 254.465 24.1838ZM254.465 17.6211C255.592 17.6211 256.53 18.0393 257.279 18.876C258.038 19.7126 258.417 20.7809 258.417 22.081C258.417 23.3811 258.038 24.4551 257.279 25.303C256.53 26.1396 255.592 26.5579 254.465 26.5579C253.347 26.5579 252.408 26.134 251.65 25.2861C250.891 24.4381 250.512 23.3698 250.512 22.081C250.512 20.7922 250.891 19.7295 251.65 18.8929C252.408 18.045 253.347 17.6211 254.465 17.6211Z" fill="white"/>
<path d="M261.409 29.5264H259.133V17.8763H261.333V18.7412C261.503 18.4473 261.783 18.1985 262.172 17.995C262.571 17.7802 263.02 17.6729 263.519 17.6729C264.577 17.6729 265.416 18.0855 266.034 18.9108C266.664 19.7247 266.978 20.7761 266.978 22.0649C266.978 23.3537 266.644 24.4164 265.975 25.253C265.316 26.0783 264.468 26.4909 263.43 26.4909C262.491 26.4909 261.818 26.2083 261.409 25.6431V29.5264ZM264.253 23.642C264.583 23.2689 264.747 22.7489 264.747 22.0819C264.747 21.4148 264.583 20.9005 264.253 20.5387C263.933 20.1769 263.534 19.9961 263.055 19.9961C262.586 19.9961 262.187 20.1769 261.858 20.5387C261.538 20.9005 261.378 21.4148 261.378 22.0819C261.378 22.7489 261.538 23.2689 261.858 23.642C262.187 24.0038 262.586 24.1847 263.055 24.1847C263.534 24.1847 263.933 24.0038 264.253 23.642Z" fill="white"/>
<path d="M269.417 21.0805H272.397C272.377 20.6961 272.242 20.3626 271.992 20.08C271.753 19.7973 271.389 19.656 270.9 19.656C270.461 19.656 270.111 19.803 269.852 20.0969C269.592 20.3909 269.447 20.7187 269.417 21.0805ZM272.562 23.2681L274.463 23.8786C274.273 24.6586 273.879 25.303 273.28 25.8118C272.681 26.3092 271.933 26.5579 271.034 26.5579C269.956 26.5579 269.038 26.1509 268.28 25.337C267.531 24.5229 267.156 23.432 267.156 22.064C267.156 20.7527 267.521 19.6843 268.249 18.859C268.988 18.0337 269.862 17.6211 270.87 17.6211C272.027 17.6211 272.936 18.0055 273.594 18.7742C274.263 19.5316 274.598 20.5887 274.598 21.9454C274.598 22.3749 274.583 22.6406 274.553 22.7424H269.372C269.392 23.2059 269.567 23.5959 269.897 23.9125C270.226 24.2177 270.615 24.3704 271.064 24.3704C271.833 24.3704 272.332 24.0029 272.562 23.2681Z" fill="white"/>
<path d="M282.638 14.0283V24.7966C282.638 25.3054 282.657 25.8084 282.698 26.3059H280.511C280.472 26.0345 280.452 25.7632 280.452 25.4919C280.272 25.7858 280.002 26.0289 279.643 26.2211C279.294 26.402 278.9 26.4924 278.46 26.4924C277.402 26.4924 276.524 26.0798 275.826 25.2545C275.127 24.4179 274.777 23.3552 274.777 22.0664C274.777 20.8002 275.117 19.7545 275.795 18.9292C276.474 18.0925 277.338 17.6743 278.385 17.6743C279.404 17.6743 280.072 17.9626 280.392 18.5391V14.0283H282.638ZM277.547 20.5402C277.228 20.9019 277.068 21.4163 277.068 22.0833C277.068 22.7503 277.228 23.2704 277.547 23.6435C277.876 24.0052 278.276 24.1861 278.745 24.1861C279.214 24.1861 279.608 24.0052 279.928 23.6435C280.257 23.2704 280.422 22.7503 280.422 22.0833C280.422 21.4163 280.257 20.9019 279.928 20.5402C279.608 20.1784 279.214 19.9975 278.745 19.9975C278.276 19.9975 277.876 20.1784 277.547 20.5402Z" fill="white"/>
<path d="M286.213 26.305H283.937V17.8769H286.213V26.305ZM284.132 16.3676C283.872 16.0737 283.742 15.7176 283.742 15.2993C283.742 14.881 283.872 14.5249 284.132 14.2309C284.391 13.937 284.7 13.79 285.06 13.79C285.429 13.79 285.743 13.937 286.003 14.2309C286.272 14.5249 286.407 14.881 286.407 15.2993C286.407 15.7176 286.272 16.0737 286.003 16.3676C285.743 16.6616 285.429 16.8085 285.06 16.8085C284.7 16.8085 284.391 16.6616 284.132 16.3676Z" fill="white"/>
<path d="M287.004 23.9803C287.004 23.2681 287.209 22.6971 287.618 22.2675C288.027 21.8266 288.556 21.5497 289.204 21.4366L290.956 21.1313C291.316 21.0748 291.496 20.8826 291.496 20.5548C291.496 20.2948 291.396 20.08 291.196 19.9104C291.006 19.7295 290.742 19.639 290.402 19.639C290.023 19.639 289.719 19.7635 289.489 20.0122C289.27 20.2495 289.15 20.5379 289.13 20.877L287.154 20.4191C287.203 19.7182 287.508 19.0795 288.067 18.5029C288.636 17.915 289.419 17.6211 290.417 17.6211C291.545 17.6211 292.374 17.9263 292.903 18.5368C293.442 19.1473 293.711 19.9274 293.711 20.877V24.9978C293.711 25.5291 293.741 25.9644 293.801 26.3036H291.75C291.7 26.0774 291.675 25.7609 291.675 25.3539C291.246 26.1453 290.547 26.5409 289.579 26.5409C288.791 26.5409 288.162 26.2922 287.693 25.7948C287.234 25.2861 287.004 24.6812 287.004 23.9803ZM290.133 24.6756C290.522 24.6756 290.847 24.5456 291.106 24.2856C291.366 24.0255 291.496 23.5959 291.496 22.9967V22.6236L290.088 22.878C289.529 22.9797 289.249 23.2907 289.249 23.8107C289.249 24.0481 289.319 24.2516 289.459 24.4212C289.609 24.5908 289.834 24.6756 290.133 24.6756Z" fill="white"/>
<path d="M208.843 21.3195C208.843 21.4658 208.877 21.6096 208.942 21.7363C209.007 21.863 209.1 21.9683 209.211 22.0414L211.529 23.5569C211.641 23.63 211.768 23.6684 211.897 23.6683C212.026 23.6683 212.153 23.6297 212.265 23.5566C212.377 23.4834 212.47 23.3782 212.534 23.2515C212.599 23.1249 212.633 22.9812 212.633 22.835V14.8474C212.633 14.7013 212.599 14.5577 212.534 14.4311C212.47 14.3046 212.377 14.1995 212.265 14.1264L206.158 10.1348C206.046 10.0618 205.919 10.0234 205.79 10.0234C205.661 10.0235 205.534 10.0619 205.423 10.135C205.311 10.2081 205.218 10.3131 205.153 10.4397C205.089 10.5662 205.055 10.7097 205.055 10.8559V13.8878C205.055 14.034 205.089 14.1777 205.153 14.3044C205.218 14.4311 205.31 14.5364 205.422 14.6098L208.475 16.6042C208.587 16.6771 208.68 16.7822 208.744 16.9088C208.809 17.0355 208.843 17.1791 208.842 17.3253L208.843 21.3195Z" fill="white"/>
<path d="M204.321 20.2827V24.2769C204.321 24.4232 204.354 24.5669 204.419 24.6936C204.483 24.8204 204.576 24.9256 204.688 24.9988L207.006 26.5143C207.118 26.5874 207.245 26.6258 207.374 26.6257C207.503 26.6256 207.63 26.5871 207.742 26.5139C207.853 26.4408 207.946 26.3356 208.011 26.2089C208.075 26.0823 208.109 25.9386 208.109 25.7924V17.8048C208.109 17.6585 208.075 17.5147 208.01 17.388C207.946 17.2613 207.853 17.156 207.741 17.0829L201.634 13.0896C201.523 13.0163 201.396 12.9776 201.267 12.9775C201.138 12.9774 201.011 13.0159 200.899 13.089C200.787 13.1621 200.694 13.2673 200.63 13.394C200.565 13.5207 200.531 13.6644 200.531 13.8106V16.8426C200.531 16.9887 200.565 17.1324 200.629 17.259C200.694 17.3856 200.787 17.4907 200.899 17.5636L203.953 19.5607C204.065 19.634 204.158 19.7393 204.222 19.866C204.287 19.9927 204.321 20.1364 204.321 20.2827Z" fill="white"/>
<path d="M203.21 20.0454L197.103 16.0548C196.991 15.9817 196.864 15.9433 196.735 15.9434C196.606 15.9434 196.479 15.982 196.368 16.0551C196.256 16.1283 196.163 16.2335 196.098 16.3602C196.034 16.4868 196 16.6305 196 16.7767V24.7651C196 24.9113 196.034 25.0549 196.098 25.1814C196.163 25.308 196.256 25.4131 196.367 25.4862L200.157 27.9605L202.475 29.476C202.587 29.5493 202.713 29.5879 202.842 29.588C202.972 29.5881 203.098 29.5497 203.21 29.4766C203.322 29.4035 203.415 29.2983 203.48 29.1716C203.544 29.0449 203.578 28.9011 203.578 28.7549V20.7674C203.578 20.6212 203.544 20.4774 203.479 20.3508C203.415 20.2241 203.322 20.1188 203.21 20.0454Z" fill="white"/>
</g>
<g clip-path="url(#clip1_5659_1901)">
<path d="M6.59201 1.72598H8.1508C9.94249 1.72598 10.2357 1.76425 10.8699 2.0803C11.7896 2.53596 12.4617 3.43877 13.0481 5.00557C13.2867 5.64335 13.2832 5.64335 13.8135 5.47895L14.1643 5.37052L14.132 3.06106C14.1145 1.79117 14.085 0.661599 14.0675 0.55176L14.0359 0.351215L7.20023 0.337042C3.44076 0.329247 0.291611 0.337042 0.201816 0.352633L0.0390625 0.381686L0.0537945 0.79199L0.067825 1.20229L0.588356 1.26536C1.26322 1.34686 1.6666 1.53819 1.90582 1.89109C2.44529 2.68548 2.54351 3.76758 2.5421 8.90665C2.5421 14.3816 2.42846 15.7096 1.90652 16.402C1.63784 16.7563 1.41966 16.8746 0.81074 16.9894C0.0166137 17.1382 0.0432715 17.1191 0.0432715 17.5337C0.0432715 17.7647 0.0636158 17.888 0.105006 17.9064C0.194099 17.9425 8.93721 17.9454 9.03051 17.9064C9.15047 17.8596 9.14345 17.2077 9.02209 17.1446C8.80692 17.0846 8.58769 17.0405 8.36617 17.0128C8.10432 16.9783 7.84606 16.9202 7.59449 16.8392C7.02204 16.5876 6.70355 15.891 6.58359 14.6318C6.50502 13.7311 6.43487 12.0658 6.43487 10.8349V9.706L6.96732 9.72229C8.10099 9.75702 8.68746 9.81725 8.92458 9.92284C9.43739 10.1524 9.8527 10.7916 10.0681 11.6852L10.1831 12.16L10.5879 12.1749L10.992 12.1891V6.17625L10.5879 6.19042L10.1838 6.20531L10.0653 6.6801C9.83656 7.60133 9.46265 8.16824 8.91335 8.42265C8.69027 8.52682 8.53172 8.55587 7.99716 8.58776C7.64149 8.60973 7.14481 8.62815 6.89296 8.62957H6.43487V7.14142C6.43487 5.64902 6.51344 2.47927 6.56395 1.98676L6.59201 1.72598Z" fill="white"/>
<path d="M24.4746 10.5613C24.215 8.34043 23.282 6.7148 21.7449 5.79994C20.0353 4.78375 17.4369 4.72493 15.5912 5.65822C14.2583 6.33426 13.1688 7.63604 12.6854 9.13056C12.1881 10.6775 12.1881 12.705 12.6862 14.2781C13.006 15.2872 13.4396 16.0235 14.1088 16.6932C14.9114 17.4961 15.9616 18.0091 17.1633 18.1863C17.5933 18.2494 18.9501 18.2508 19.3948 18.1863C19.6675 18.1428 19.9373 18.0832 20.203 18.0077C22.3812 17.3699 23.8671 15.6805 24.3778 13.2598C24.5026 12.6716 24.5539 11.2395 24.4746 10.5613ZM16.2625 9.29355C16.5277 7.09676 17.1984 5.98348 18.2556 5.98207C18.7319 5.98207 18.9957 6.09899 19.3689 6.47812C20.2556 7.38022 20.6765 9.10293 20.6695 11.8114C20.6639 13.972 20.4513 15.3333 19.975 16.2531C19.7442 16.6989 19.3114 17.1092 18.9606 17.2148C17.6066 17.6208 16.6371 16.3176 16.2611 13.5879C16.1405 12.705 16.1405 10.3019 16.2625 9.29355Z" fill="white"/>
<path d="M56.1435 5.48656C54.7825 4.79776 52.6807 4.84878 51.143 5.6042C49.6866 6.32205 48.6876 7.51753 48.1264 9.20764C47.8353 10.0871 47.7434 10.795 47.7757 11.9359C47.7939 12.6566 47.8269 13.0293 47.9005 13.3624C48.4751 15.9518 50.2324 17.7121 52.6905 18.1599C53.2314 18.2584 54.4598 18.2605 55.0056 18.1642C55.7864 18.026 56.6892 17.6752 57.2547 17.2876C57.9478 16.8149 58.6577 16.1034 58.6577 15.883C58.6577 15.7484 58.4199 15.4387 58.3161 15.4387C58.2705 15.4387 58.0783 15.5401 57.8882 15.6641C57.2105 16.107 56.5623 16.2884 55.6608 16.2884C54.417 16.2884 53.6264 15.9759 52.8372 15.168C52.4864 14.8137 52.3419 14.6167 52.1602 14.2624C51.7608 13.4829 51.5452 12.5864 51.5134 11.5731L51.4994 11.1359L55.1655 11.1231L58.831 11.1096L58.8422 10.8616C58.8448 10.5941 58.8314 10.3267 58.8022 10.0608C58.5763 7.8102 57.6749 6.26182 56.1435 5.48656ZM54.2409 10.0027C53.7667 10.0197 52.9613 10.0403 52.4499 10.0481L51.5211 10.0637V9.86101C51.533 9.64235 51.5565 9.4245 51.5913 9.20835C51.9006 7.19297 52.6435 5.98332 53.5766 5.98261C54.4331 5.98261 54.9614 7.17313 55.0708 9.35433L55.1024 9.97227L54.2402 10.0027H54.2409Z" fill="white"/>
<path d="M68.6302 12.3324C68.2135 11.4905 67.4468 10.9151 65.8403 10.2362C64.5284 9.68278 63.8697 9.2994 63.4677 8.85508C63.1415 8.49438 63.0468 8.20313 63.0777 7.66385C63.1071 7.1678 63.2278 6.87017 63.5365 6.5364C63.9328 6.11122 64.4779 5.95886 65.1303 6.09775C66.2009 6.32665 66.8841 7.07568 67.479 8.65808C67.6895 9.22499 67.7147 9.24058 68.0943 9.09815L68.3335 9.00815L68.3251 8.35762C68.3209 7.99975 68.3026 7.24859 68.2851 6.68805L68.2535 5.66974L68.0746 5.5932C67.0925 5.17439 65.2271 4.91361 64.01 5.02629C62.628 5.15384 61.6129 5.59745 60.8314 6.41523C60.0499 7.233 59.704 8.18116 59.7665 9.31287C59.8177 10.249 60.092 10.9208 60.663 11.5097C61.1927 12.0567 61.6374 12.3161 62.9121 12.8185C64.9697 13.6306 65.5141 14.1118 65.5077 15.1124C65.5077 15.9571 65.0609 16.5757 64.252 16.8642C63.963 16.9676 63.232 16.9662 62.842 16.8642C61.8191 16.592 61.0362 15.697 60.3691 14.0381L60.1979 13.6129L59.9973 13.6228C59.8815 13.629 59.7675 13.6544 59.6598 13.6979L59.5195 13.7646L59.5329 14.4895C59.5399 14.8885 59.5595 15.7289 59.5764 16.3575L59.6079 17.5012L59.8359 17.6004C60.3038 17.8031 61.7083 18.1142 62.5908 18.2092C62.7002 18.2212 63.3022 18.2255 63.9286 18.2184C65.016 18.2063 65.0946 18.1985 65.641 18.0547C67.2545 17.6295 68.3005 16.7196 68.7635 15.3399C68.9038 14.9147 68.9256 14.7864 68.9459 14.1564C68.9775 13.3153 68.901 12.8788 68.6302 12.3324Z" fill="white"/>
<path d="M33.4087 4.98145C32.8334 4.98145 32.5227 5.04593 32.0561 5.26136C31.2073 5.65395 30.5696 6.2981 30 7.33484L29.8225 7.65869L29.8449 7.08328C29.8576 6.76651 29.8786 6.17551 29.8919 5.76945L29.9158 5.03105H29.7965C29.6401 5.03105 24.7322 6.02315 24.5835 6.08409C24.4874 6.12378 24.4727 6.167 24.4727 6.40511C24.4727 6.64321 24.4846 6.6836 24.5835 6.70415L25.0851 6.80336C25.5186 6.88698 25.6463 6.95501 25.8266 7.19454C26.157 7.63602 26.2244 8.41482 26.2209 11.7121C26.2209 14.405 26.1626 15.7514 26.0364 16.1702C25.8813 16.6854 25.6056 16.9497 25.1244 17.039C24.9693 17.068 24.7645 17.1099 24.6691 17.1297L24.4958 17.1665L24.4811 17.5124C24.4706 17.7554 24.4853 17.8709 24.5302 17.9C24.566 17.9227 26.2447 17.9361 28.2609 17.929L31.9271 17.9177L31.9411 17.5294C31.9495 17.3168 31.9411 17.1417 31.9165 17.1417C31.6317 17.1417 30.759 17.0206 30.6215 16.9625C30.2076 16.7881 30.0077 16.4133 29.92 15.6522C29.8183 14.7593 29.7586 12.5377 29.7867 10.7172C29.8148 8.87827 29.8155 8.87118 29.927 8.74788C30.1922 8.46017 30.865 8.23624 31.4704 8.23482C31.9544 8.23482 32.4525 8.35954 32.9836 8.61678C33.2382 8.74079 33.4746 8.82937 33.5055 8.81874C33.5721 8.79323 34.7746 5.58237 34.7746 5.43143C34.7774 5.20609 34.0913 4.98145 33.4087 4.98145Z" fill="white"/>
<path d="M42.8617 5.24914C42.5698 5.18819 42.3061 5.17827 41.7392 5.19528C40.8848 5.22575 40.2962 5.35472 39.6578 5.65306C39.4474 5.75156 39.2614 5.83235 39.2474 5.83235C39.2334 5.83235 39.2355 4.52632 39.2523 2.92692C39.2755 0.677687 39.2692 0.0214844 39.2229 0.0214844C39.0615 0.0214844 34.0021 0.993742 33.9467 1.03839C33.9053 1.07098 33.8878 1.18011 33.8969 1.3431C33.9137 1.62656 33.8801 1.6053 34.4967 1.7449C34.6659 1.78057 34.8288 1.84172 34.98 1.92631C35.1856 2.07442 35.3568 2.39473 35.4753 2.85393C35.5693 3.21675 35.5819 3.47611 35.6247 5.92731C35.6689 8.43023 35.6605 11.0033 35.5925 15.7172L35.5637 17.6752L35.9271 17.7588C36.4511 17.8793 37.9531 18.1315 38.4449 18.184C39.166 18.2548 40.8462 18.2478 41.3815 18.1663C43.7042 17.8119 45.4559 16.4513 46.2718 14.3644C46.5141 13.7067 46.6809 13.0231 46.7692 12.3271C46.8548 11.5851 46.8063 10.104 46.678 9.50807C46.182 7.22554 44.7698 5.6481 42.8617 5.24914ZM40.4281 17.1912C40.1671 17.2415 40.0892 17.2429 39.6171 17.2053C39.4165 17.1898 39.3723 17.1671 39.3316 17.0594C39.2685 16.8907 39.1913 11.0253 39.2236 8.68251L39.2481 6.8535L39.5757 6.75571C39.8289 6.686 40.0906 6.65308 40.353 6.65792C40.7739 6.65792 40.8258 6.67067 41.1794 6.84712C42.0311 7.27231 42.6147 8.32819 42.8862 9.93539C42.9865 10.5299 42.9992 12.152 42.9087 12.8635C42.6856 14.611 42.1202 16.0219 41.3653 16.705C41.106 16.9567 40.779 17.1258 40.4253 17.1912H40.4281Z" fill="white"/>
<path d="M15.7821 30.7006H15.1009V25.395H13.2461V24.7842H17.6369V25.395H15.7821V30.7006Z" fill="white"/>
<path d="M20.2773 30.7804C19.6286 30.7804 19.1165 30.5805 18.7409 30.1809C18.3654 29.7812 18.1783 29.2268 18.1797 28.5177C18.1797 27.8024 18.3541 27.2355 18.703 26.8169C19.0519 26.3984 19.5196 26.1879 20.1061 26.1855C20.657 26.1855 21.0924 26.3684 21.4123 26.734C21.7322 27.0997 21.8924 27.582 21.8929 28.1811V28.6063H18.8672C18.8803 29.1259 19.0105 29.5211 19.2579 29.7918C19.5053 30.0625 19.8531 30.1974 20.3011 30.1965C20.7841 30.1947 21.2616 30.0929 21.7042 29.8974V30.4913C21.4896 30.5871 21.2661 30.6609 21.037 30.7116C20.7867 30.7607 20.5322 30.7837 20.2773 30.7804ZM20.097 26.7454C19.7439 26.7454 19.4633 26.8614 19.2551 27.0933C19.047 27.3253 18.9235 27.6463 18.8847 28.0564H21.1801C21.1801 27.6312 21.0866 27.3069 20.8995 27.0834C20.7124 26.8599 20.4449 26.7473 20.097 26.7454Z" fill="white"/>
<path d="M24.7767 30.7812C24.1411 30.7812 23.6489 30.5835 23.3 30.188C22.9511 29.7926 22.7769 29.2326 22.7773 28.5078C22.7773 27.7661 22.9544 27.1928 23.3084 26.788C23.6624 26.3831 24.1666 26.1807 24.8209 26.1807C25.0332 26.1816 25.2449 26.2053 25.4523 26.2515C25.6239 26.2842 25.7908 26.3388 25.9489 26.4138L25.7448 26.9807C25.5887 26.9187 25.428 26.8692 25.2642 26.8326C25.1131 26.7966 24.9586 26.7771 24.8033 26.7745C23.911 26.7745 23.4648 27.349 23.4648 28.4979C23.4648 29.0431 23.5738 29.4614 23.7917 29.7529C24.0097 30.0444 24.3322 30.1899 24.7592 30.1895C25.1463 30.185 25.5288 30.1041 25.8851 29.9514V30.5459C25.5942 30.7027 25.2247 30.7812 24.7767 30.7812Z" fill="white"/>
<path d="M29.9382 30.6993V27.83C29.9382 27.4686 29.8566 27.1989 29.6934 27.0208C29.5302 26.8427 29.2753 26.7536 28.9287 26.7536C28.4667 26.7536 28.1295 26.8805 27.9171 27.1342C27.7048 27.3879 27.5986 27.8034 27.5986 28.3807V30.6993H26.9336V24.4023H27.5986V26.3107C27.6006 26.5002 27.5898 26.6896 27.5664 26.8776H27.6064C27.7429 26.6598 27.9374 26.4852 28.1676 26.3738C28.425 26.2474 28.7085 26.1843 28.9947 26.1895C29.5311 26.1895 29.9338 26.3185 30.2027 26.5765C30.4716 26.8344 30.6058 27.2438 30.6054 27.8045V30.6979L29.9382 30.6993Z" fill="white"/>
<path d="M34.9734 30.6994V27.8302C34.9734 27.4687 34.892 27.199 34.7292 27.0209C34.5665 26.8428 34.3114 26.7537 33.9639 26.7537C33.5046 26.7537 33.1681 26.8792 32.9544 27.13C32.7407 27.3809 32.6338 27.7952 32.6338 28.373V30.6994H31.9688V26.2641H32.5096L32.6177 26.8714H32.6499C32.789 26.6504 32.9876 26.4742 33.2224 26.3633C33.4791 26.241 33.7601 26.1795 34.0439 26.1833C34.5728 26.1833 34.9703 26.312 35.2365 26.5695C35.5026 26.827 35.6361 27.2391 35.637 27.8061V30.6994H34.9734Z" fill="white"/>
<path d="M40.7895 28.4788C40.7895 29.2016 40.6092 29.7662 40.2486 30.1724C39.888 30.5787 39.39 30.7819 38.7544 30.7819C38.3864 30.7875 38.0242 30.6893 37.7084 30.4984C37.4013 30.3074 37.1572 30.0288 37.0069 29.6977C36.8339 29.3143 36.749 28.8964 36.7585 28.4752C36.7585 27.7524 36.9374 27.1893 37.2952 26.7858C37.653 26.3824 38.1499 26.1807 38.7859 26.1807C39.4 26.1807 39.888 26.3871 40.25 26.8C40.612 27.2129 40.7918 27.7725 40.7895 28.4788ZM37.4439 28.4788C37.4439 29.0457 37.5562 29.4775 37.7807 29.7742C38.0051 30.0709 38.3351 30.2192 38.7705 30.2192C39.2055 30.2192 39.5359 30.0713 39.7618 29.7756C39.9877 29.4799 40.1006 29.0476 40.1006 28.4788C40.1006 27.9147 39.9877 27.4865 39.7618 27.194C39.5359 26.9016 39.2027 26.7551 38.7621 26.7547C38.3272 26.7547 37.9998 26.899 37.78 27.1876C37.5602 27.4763 37.4484 27.9067 37.4446 28.4788H37.4439Z" fill="white"/>
<path d="M42.6221 30.6993H41.957V24.4023H42.6221V30.6993Z" fill="white"/>
<path d="M47.824 28.4788C47.824 29.2016 47.6437 29.7662 47.2831 30.1724C46.9225 30.5787 46.4244 30.7819 45.7888 30.7819C45.4211 30.7874 45.0591 30.6892 44.7436 30.4984C44.4365 30.3074 44.1924 30.0288 44.042 29.6977C43.869 29.3143 43.7841 28.8964 43.7937 28.4752C43.7937 27.7524 43.9726 27.1893 44.3304 26.7858C44.6881 26.3824 45.1848 26.1807 45.8204 26.1807C46.4349 26.1807 46.923 26.3871 47.2845 26.8C47.646 27.2129 47.8258 27.7725 47.824 28.4788ZM44.4791 28.4788C44.4791 29.0457 44.5913 29.4775 44.8158 29.7742C45.0403 30.0709 45.37 30.2192 45.805 30.2192C46.2408 30.2192 46.5715 30.0713 46.7969 29.7756C47.0223 29.4799 47.1351 29.0476 47.1351 28.4788C47.1351 27.9147 47.0223 27.4865 46.7969 27.194C46.5715 26.9016 46.238 26.7551 45.7965 26.7547C45.3607 26.7547 45.0333 26.899 44.8144 27.1876C44.5955 27.4763 44.4838 27.9067 44.4791 28.4788Z" fill="white"/>
<path d="M52.5847 26.2638V26.689L51.7709 26.7861C51.962 27.041 52.0637 27.3529 52.0599 27.6726C52.0599 28.1068 51.9128 28.4533 51.6187 28.7122C51.3245 28.9711 50.9214 29.1008 50.4092 29.1012C50.2855 29.1017 50.162 29.0908 50.0402 29.0686C49.7596 29.2198 49.6182 29.41 49.6158 29.6391C49.6129 29.6935 49.6253 29.7476 49.6515 29.7952C49.6777 29.8429 49.7166 29.8821 49.7638 29.9084C49.863 29.9665 50.0328 29.9955 50.2731 29.9955H51.0497C51.5254 29.9955 51.8906 30.0967 52.1455 30.2988C52.4004 30.501 52.5293 30.7951 52.5321 31.1811C52.5321 31.672 52.337 32.0464 51.947 32.3043C51.5569 32.5623 50.9868 32.6903 50.2367 32.6884C49.6628 32.6884 49.2202 32.5804 48.9087 32.3645C48.7595 32.2657 48.6382 32.1296 48.5564 31.9694C48.4747 31.8093 48.4353 31.6305 48.4422 31.4504C48.4376 31.1928 48.529 30.943 48.6982 30.7503C48.8897 30.5419 49.1426 30.4015 49.4194 30.3499C49.3061 30.2975 49.2091 30.2149 49.1388 30.1111C49.0618 30.0012 49.0217 29.8693 49.0244 29.7348C49.0215 29.5829 49.0664 29.434 49.1528 29.3096C49.2627 29.1654 49.4001 29.0449 49.5569 28.9553C49.3265 28.8573 49.1324 28.6888 49.002 28.4734C48.8584 28.2397 48.7853 27.9688 48.7915 27.6939C48.7915 27.2078 48.9358 26.8334 49.2244 26.5707C49.5129 26.308 49.9215 26.1764 50.4499 26.176C50.6596 26.1732 50.8686 26.2004 51.0708 26.2568L52.5847 26.2638ZM49.0834 31.444C49.079 31.5541 49.1047 31.6634 49.1577 31.7597C49.2106 31.8561 49.2888 31.9359 49.3836 31.9904C49.5833 32.1146 49.8705 32.1768 50.2451 32.1768C50.803 32.1768 51.2162 32.0924 51.4847 31.9238C51.7531 31.7551 51.8874 31.5265 51.8874 31.2378C51.8874 30.9973 51.8139 30.832 51.6671 30.7418C51.5205 30.6482 51.2462 30.6 50.8379 30.6H50.0402C49.7386 30.6 49.5036 30.6728 49.3352 30.8183C49.1668 30.9638 49.0829 31.1724 49.0834 31.444ZM49.4453 27.6847C49.4453 27.9951 49.5323 28.2296 49.7063 28.3883C49.8803 28.5471 50.1207 28.6267 50.4275 28.6272C51.0766 28.6272 51.4012 28.309 51.4012 27.6726C51.4012 27.0055 51.0738 26.6723 50.4191 26.6727C50.1067 26.6727 49.8663 26.7578 49.6979 26.9278C49.5295 27.0979 49.4453 27.3502 49.4453 27.6847Z" fill="white"/>
<path d="M52.7891 26.2636H53.5025L54.4636 28.7934C54.6745 29.3703 54.8055 29.7869 54.8565 30.0435H54.8887C54.9233 29.906 54.9961 29.6698 55.1069 29.3348C55.2177 28.9999 55.5802 27.9752 56.1943 26.2607H56.9077L55.0206 31.3112C54.8335 31.8106 54.6151 32.1649 54.3654 32.3742C54.1056 32.5872 53.7787 32.6986 53.4443 32.6881C53.2419 32.6876 53.0402 32.6639 52.8431 32.6173V32.0787C53.0046 32.1127 53.1692 32.1291 53.3341 32.1276C53.7906 32.1276 54.1166 31.8678 54.3121 31.3481L54.5562 30.7174L52.7891 26.2636Z" fill="white"/>
<path d="M16.4896 34.4695C15.8465 34.4695 15.3384 34.6861 14.9652 35.1193C14.592 35.5525 14.4049 36.1454 14.404 36.898C14.404 37.6728 14.5836 38.2711 14.9427 38.693C15.3019 39.1149 15.814 39.3258 16.4791 39.3258C16.953 39.316 17.4233 39.2411 17.8772 39.1033V39.7064C17.4713 39.8604 16.9704 39.9374 16.3746 39.9374C15.5121 39.9374 14.8464 39.6728 14.3773 39.1437C13.9082 38.6146 13.6744 37.8632 13.6758 36.8895C13.6758 36.2801 13.7887 35.746 14.0146 35.2873C14.2268 34.8415 14.5674 34.471 14.9918 34.2243C15.4174 33.9763 15.919 33.852 16.4966 33.8516C17.1107 33.8516 17.6474 33.9649 18.1066 34.1917L17.8183 34.7827C17.4039 34.5801 16.95 34.4731 16.4896 34.4695Z" fill="white"/>
<path d="M22.8438 37.6349C22.8438 38.3587 22.6635 38.9232 22.3029 39.3286C21.9423 39.7339 21.4443 39.9371 20.8087 39.938C20.4414 39.9445 20.0795 39.8479 19.7634 39.6588C19.4549 39.4681 19.2095 39.1892 19.0584 38.8573C18.8848 38.4742 18.7997 38.0562 18.8093 37.6349C18.8093 36.9121 18.9885 36.349 19.3467 35.9455C19.7049 35.5421 20.2016 35.3403 20.8367 35.3403C21.4513 35.3403 21.9393 35.5468 22.3008 35.9597C22.6623 36.3726 22.8433 36.931 22.8438 37.6349ZM19.4989 37.6349C19.4989 38.2018 19.6109 38.6336 19.835 38.9303C20.059 39.227 20.3889 39.3753 20.8248 39.3753C21.2602 39.3753 21.5906 39.2277 21.8161 38.9324C22.0415 38.6372 22.1544 38.2047 22.1549 37.6349C22.1549 37.0718 22.042 36.6435 21.8161 36.3501C21.5902 36.0568 21.2572 35.9103 20.8171 35.9108C20.3817 35.9108 20.0531 36.0551 19.8315 36.3438C19.6098 36.6324 19.4989 37.0628 19.4989 37.6349Z" fill="white"/>
<path d="M24.6415 35.4229V38.3006C24.6415 38.6621 24.7229 38.9318 24.8856 39.1099C25.0484 39.288 25.3035 39.3771 25.651 39.3771C26.1103 39.3771 26.4461 39.2502 26.6584 38.9965C26.8707 38.7428 26.9769 38.3288 26.9769 37.7543V35.4229H27.6419V39.8582H27.0933L26.9972 39.2637H26.9615C26.824 39.4826 26.627 39.6568 26.3939 39.7654C26.1347 39.8855 25.852 39.9451 25.5668 39.9397C25.0327 39.9397 24.6329 39.8115 24.3672 39.5549C24.1016 39.2984 23.9688 38.8883 23.9688 38.3247V35.4229H24.6415Z" fill="white"/>
<path d="M32.0515 39.8567V36.9881C32.0515 36.626 31.9694 36.3567 31.8067 36.1781C31.6439 35.9995 31.3858 35.911 31.042 35.911C30.5823 35.911 30.2455 36.0366 30.0318 36.288C29.8181 36.5393 29.7115 36.9534 29.7119 37.5302V39.8567H29.0469V35.4213H29.5871L29.6951 36.0286H29.7274C29.8669 35.8078 30.0656 35.6316 30.3005 35.5205C30.5572 35.3981 30.8382 35.3365 31.122 35.3405C31.6509 35.3405 32.0485 35.4695 32.3146 35.7274C32.5807 35.9854 32.7142 36.3973 32.7152 36.9633V39.8567H32.0515Z" fill="white"/>
<path d="M35.8357 39.938C35.2001 39.938 34.709 39.7403 34.3625 39.3449C34.0159 38.9494 33.8417 38.3903 33.8398 37.6675C33.8398 36.9253 34.0166 36.352 34.3702 35.9476C34.7238 35.5432 35.2279 35.3408 35.8827 35.3403C36.095 35.3416 36.3066 35.3654 36.5141 35.4112C36.6857 35.4441 36.8525 35.4987 37.0107 35.5735L36.8059 36.1404C36.6499 36.0782 36.4892 36.0286 36.3253 35.9923C36.1742 35.9561 36.0197 35.9367 35.8644 35.9342C34.9726 35.9342 34.5266 36.5089 34.5266 37.6583C34.5266 38.2035 34.6354 38.6216 34.8528 38.9126C35.0703 39.2036 35.393 39.3494 35.8209 39.3498C36.2069 39.3448 36.5882 39.2637 36.9434 39.111V39.7056C36.6511 39.8605 36.2819 39.938 35.8357 39.938Z" fill="white"/>
<path d="M37.9349 34.2205C37.9349 34.067 37.9723 33.9543 38.0472 33.8825C38.1236 33.8129 38.2228 33.7744 38.3257 33.7744C38.4285 33.7744 38.5277 33.8129 38.6042 33.8825C38.6456 33.9272 38.6773 33.9802 38.6972 34.0381C38.7171 34.0959 38.7249 34.1573 38.7199 34.2184C38.7248 34.2797 38.717 34.3415 38.6971 34.3996C38.6772 34.4578 38.6455 34.5112 38.6042 34.5564C38.5676 34.5924 38.5244 34.6208 38.4769 34.6399C38.4295 34.6589 38.3788 34.6684 38.3278 34.6677C38.276 34.6692 38.2244 34.6602 38.1762 34.641C38.128 34.6219 38.0841 34.5931 38.0472 34.5564C38.007 34.5109 37.9764 34.4577 37.9571 34.4C37.9379 34.3423 37.9303 34.2812 37.9349 34.2205ZM38.6561 39.8577H37.991V35.4224H38.6561V39.8577Z" fill="white"/>
<path d="M40.7315 39.8566H40.0664V33.5596H40.7315V39.8566Z" fill="white"/>
<path d="M3.24068 23.6089H2.54688V40.9742H3.24068V23.6089Z" fill="white"/>
</g>
<path fill-rule="evenodd" clip-rule="evenodd" d="M102.383 33.4419H105.812V21.7729H102.383V33.4429V33.4419ZM118.003 21.7729H114.747V27.9281H114.731L110.499 21.7729H107.227V33.4429H110.483V27.1788H110.498L114.73 33.4429H118.003V21.7729ZM123.523 21.5225C120.627 21.5225 119.008 23.1941 119.008 25.2404C119.008 27.5056 121.006 28.318 122.264 28.771C123.223 29.1151 124.026 29.3645 124.026 29.9275C124.026 30.3653 123.538 30.7552 122.484 30.7552C121.241 30.7552 119.951 30.2085 119.102 29.5213V32.6773C119.967 33.2556 121.368 33.6923 122.893 33.6923C125.851 33.6923 127.534 32.0522 127.534 29.8339C127.534 27.3498 125.395 26.6158 123.822 26.0691C122.894 25.7413 122.374 25.554 122.374 25.1478C122.374 24.7416 122.846 24.4606 123.775 24.4606C124.797 24.4606 126.056 24.8199 126.795 25.3351V22.3349C125.945 21.8503 124.797 21.5225 123.523 21.5225ZM128.335 33.4419H131.764V21.7729H128.335V33.4429V33.4419ZM136.609 30.3643H137.271C139.048 30.3643 140.197 29.3645 140.197 27.6145C140.197 25.8645 139.048 24.8495 137.271 24.8495H136.609V30.3643ZM143.658 27.6145C143.658 31.1299 140.983 33.4419 137.144 33.4419H133.18V21.7729H137.144C140.983 21.7729 143.658 24.1002 143.658 27.6155V27.6145ZM144.587 33.4419H152.705V30.4111H148.017V28.9583H152.232V26.2086H148.017V24.8026H152.705V21.7729H144.587V33.4429V33.4419ZM158.103 27.2867C158.968 27.2867 159.645 26.8805 159.645 26.0681C159.645 25.2557 158.968 24.8495 158.087 24.8495H157.364V27.2867H158.103ZM163.719 33.4419H159.675L157.441 29.8329H157.363V33.4419H153.933V21.7729H158.118C161.06 21.7729 163.105 23.0699 163.105 25.8349C163.105 26.9283 162.617 28.5216 160.666 29.334L163.718 33.4429L163.719 33.4419Z" fill="white"/>
<path fill-rule="evenodd" clip-rule="evenodd" d="M95.0781 8.14303H100.102C102.896 8.14303 104.357 9.57478 104.357 11.333C104.357 12.5468 103.666 13.3711 102.709 13.8071V13.8386C103.933 14.2746 104.624 15.2389 104.624 16.4678C104.624 18.2261 103.258 19.7663 100.306 19.7663H95.0781V8.14303ZM99.9451 12.7485C100.777 12.7485 101.154 12.3288 101.154 11.8613C101.154 11.3939 100.778 10.9589 99.9451 10.9589H98.4698V12.7485H99.9451ZM99.9922 16.9495C100.871 16.9495 101.296 16.5297 101.296 15.9852C101.296 15.4407 100.856 15.0209 100.009 15.0209H98.4698V16.9505H99.9922V16.9495ZM105.345 15.0361V8.14303H108.768V15.0047C108.768 16.2965 109.411 16.9809 110.51 16.9809C111.609 16.9809 112.299 16.2965 112.299 14.9895V8.14303H115.738V15.0361C115.738 17.9614 113.76 20.0624 110.51 20.0624C107.259 20.0624 105.344 17.9614 105.344 15.0361H105.345ZM124.452 8.70275V11.6899C123.714 11.1769 122.458 10.8189 121.438 10.8189C120.512 10.8189 120.04 11.115 120.04 11.5034C120.04 11.8917 120.558 12.0945 121.485 12.421C123.055 12.9655 125.19 13.6966 125.19 16.1707C125.19 18.3802 123.51 20.0137 120.558 20.0137C119.036 20.0137 117.638 19.5777 116.775 19.0028V15.8595C117.623 16.5439 118.91 17.0884 120.15 17.0884C121.202 17.0884 121.689 16.699 121.689 16.264C121.689 15.7043 120.887 15.4549 119.93 15.1121C118.673 14.6609 116.68 13.8518 116.68 11.5956C116.68 9.55754 118.298 7.89258 121.186 7.89258C122.458 7.89258 123.604 8.21908 124.452 8.70174V8.70275ZM126.069 8.14303H129.491V19.7663H126.069V8.14303ZM141.659 19.7663H138.393L134.17 13.5273H134.154V19.7663H130.905V8.14303H134.171L138.394 14.2736H138.41V8.14303H141.659V19.7663ZM143.072 8.14303H151.173V11.1617H146.494V12.562H150.701V15.3007H146.494V16.7477H151.173V19.7663H143.072V8.14303ZM159.761 8.70275V11.6899C159.023 11.1769 157.767 10.8189 156.747 10.8189C155.821 10.8189 155.349 11.115 155.349 11.5034C155.349 11.8917 155.867 12.0945 156.794 12.421C158.365 12.9655 160.499 13.6966 160.499 16.1707C160.499 18.3802 158.819 20.0137 155.867 20.0137C154.345 20.0137 152.947 19.5777 152.084 19.0028V15.8595C152.932 16.5439 154.219 17.0884 155.459 17.0884C156.511 17.0884 156.998 16.699 156.998 16.264C156.998 15.7043 156.197 15.4549 155.239 15.1121C153.983 14.6609 151.989 13.8518 151.989 11.5956C151.989 9.55754 153.607 7.89258 156.495 7.89258C157.767 7.89258 158.913 8.21908 159.761 8.70174V8.70275ZM168.82 8.70275V11.6899C168.082 11.1769 166.826 10.8189 165.806 10.8189C164.88 10.8189 164.408 11.115 164.408 11.5034C164.408 11.8917 164.926 12.0945 165.853 12.421C167.423 12.9655 169.558 13.6966 169.558 16.1707C169.558 18.3802 167.878 20.0137 164.926 20.0137C163.403 20.0137 162.006 19.5777 161.142 19.0028V15.8595C161.991 16.5439 163.278 17.0884 164.518 17.0884C165.569 17.0884 166.056 16.699 166.056 16.264C166.056 15.7043 165.255 15.4549 164.298 15.1121C163.041 14.6609 161.048 13.8518 161.048 11.5956C161.048 9.55754 162.666 7.89258 165.554 7.89258C166.826 7.89258 167.972 8.21908 168.82 8.70174V8.70275Z" fill="white"/>
<g clip-path="url(#clip2_5659_1901)">
<path d="M324.004 26.1096H325.921V16.6554H324.004V14.2289H331.412L334.654 22.6072L338.015 14.2289H345.493V16.6554H343.576V26.1096H345.541V28.5361H337.92V26.1096H339.861V16.6554H339.506L334.891 28.5361H333.281L328.666 16.6554H328.311V26.1096H330.252V28.5361H324.004V26.1096ZM356.901 26.3157C355.836 27.9181 354.084 28.7651 351.86 28.7651C348.286 28.7651 346.038 26.8193 346.038 23.7289C346.038 20.6157 348.357 18.3494 351.599 18.3494C354.7 18.3494 357.161 20.6386 356.901 24.2325H349.375C349.398 25.3771 350.037 26.7277 351.907 26.7277C352.783 26.7277 353.351 26.453 354.297 25.5602L356.901 26.3157ZM353.658 22.447C353.493 21.188 352.688 20.4325 351.481 20.4325C350.274 20.4325 349.564 21.0964 349.375 22.447H353.658ZM370.012 28.5361H365.089V27.3458C364.095 28.2843 363.22 28.6735 362.107 28.6735C359.575 28.6735 357.658 26.453 357.658 23.5C357.658 20.5928 359.599 18.3494 362.131 18.3494C363.291 18.3494 364.332 18.8301 365.089 19.6771V16.5181H363.504V14.2289H368.426V26.2241H370.012V28.5361ZM363.054 20.959C361.823 20.959 361.042 21.9434 361.042 23.5687C361.042 25.1711 361.823 26.2241 363.078 26.2241C364.095 26.2241 365.137 25.4458 365.137 23.5C365.137 22.012 364.356 20.959 363.054 20.959ZM385.088 14.2289V19.2651H382.579C382.319 18.6012 381.869 17.8229 381.443 17.5024C380.402 16.7241 379.857 16.5639 378.887 16.5639C376.236 16.5639 374.485 18.5096 374.485 21.4169C374.485 24.1867 376.189 26.1096 378.65 26.1096C380.686 26.1096 382.224 24.7361 382.768 22.3783L385.679 23.7289C384.591 27.5747 381.277 28.7193 378.366 28.7193C372.047 28.7193 370.367 24.4843 370.367 21.3711C370.367 17.0217 373.515 14 378.13 14C379.928 14 381.348 14.412 382.579 15.3506V14.2289H385.088ZM386.65 18.5783H391.478V26.247H392.969V28.5361H386.626V26.247H388.117V20.8675H386.626V18.5783H386.65ZM391.667 15.7169C391.667 16.6783 390.862 17.4566 389.868 17.4566C388.874 17.4566 388.093 16.6783 388.093 15.7169C388.093 14.7554 388.851 14 389.845 14C390.839 14 391.667 14.7554 391.667 15.7169ZM392.992 18.5783H394.294V17.0217L397.631 14.7554V18.5783H399.477V20.8675H397.631V25.194C397.631 26.0639 397.773 26.2241 398.483 26.2241C398.838 26.2241 399.027 26.1783 399.477 26.041V28.1928C398.649 28.5361 397.82 28.6964 397.016 28.6964C395.714 28.6964 394.294 28.0783 394.294 26.3157V20.8675H392.992V18.5783ZM402.743 30.688H404.707L405.394 28.9253L401.654 20.8675H400.163V18.5783H406.127V20.8675H405.133L406.861 25.3313L408.683 20.8675H407.547V18.5783H412.778V20.8675H411.287L406.34 33H402.743V30.688ZM416.754 16.0145H414.647V14.2289H419.688L426.078 25.3542H426.126V16.0145H424.067V14.2289H430.149V16.0145H427.972V28.6735H425.652L418.647 16.4723H418.6V26.7506H420.73V28.5361H414.647V26.7506H416.754V16.0145ZM431.711 24.0494C432.019 25.9952 433.32 27.094 435.237 27.094C436.563 27.094 437.817 26.5217 438.574 25.4687L440.349 26.2241C439.237 27.8952 437.391 28.8108 435.19 28.8108C431.853 28.8108 429.463 26.6133 429.463 23.5458C429.463 20.3181 432.184 18.2807 434.859 18.2807C437.699 18.2807 440.349 20.3867 440.349 24.0265H431.711V24.0494ZM438.29 22.6072C437.959 21.0277 436.515 19.8602 434.906 19.8602C433.297 19.8602 432.066 20.9361 431.782 22.6072H438.29ZM441.556 20.3181H440.302V18.6012H444.633V20.3181H443.308L445.248 26.3157H445.296L447.236 20.3181H446.1V18.6012H451.094V20.3181H449.982L451.922 26.3157H451.97L453.934 20.3181H452.49V18.6012H457.129V20.3181H455.662L452.893 28.6964H450.999L448.68 21.4855H448.633L446.242 28.6964H444.325L441.556 20.3181ZM457.555 25.1253H459.354V25.4458C459.519 26.4301 460.466 27.0482 461.815 27.0482C463.093 27.0482 463.921 26.5675 463.921 25.812C463.921 23.9578 460.3 25.1482 458.36 23.2482C457.886 22.7904 457.555 22.0807 457.555 21.3482C457.555 19.6313 459.07 18.4181 461.176 18.4181C462.123 18.4181 462.998 18.6241 463.685 18.9904V18.6012H465.46V21.8747H463.685V21.2566C463.093 20.4096 462.336 20.0434 461.294 20.0434C460.206 20.0434 459.496 20.5241 459.496 21.2566C459.496 22.9277 463.448 21.9434 465.152 23.5916C465.767 24.1867 466.028 24.9651 466.028 25.6518C466.028 27.4602 464.442 28.6735 462.099 28.6735C460.987 28.6735 460.135 28.4446 459.401 27.9639V28.5133H457.602V25.1253H457.555Z" fill="white"/>
</g>
<g clip-path="url(#clip3_5659_1901)">
<path d="M555.676 15.2207V23.7066L552.659 15.2207H549.68V30.7828H552.659V23.1577L555.355 30.7828H558.658V15.2207H555.676Z" fill="white"/>
<path d="M494.981 15.2207H492.249H492V30.7828H494.981V24.1103H497.746V21.4746H494.981V17.8564H499.27V15.2207H494.981Z" fill="white"/>
<path d="M502.18 18.6588V27.3412C502.18 29.3618 504.033 31 506.318 31C508.604 31 510.457 29.3618 510.457 27.3412V18.6567C510.457 16.6361 508.604 15 506.321 15C504.035 15 502.182 16.6382 502.182 18.6588M505.164 27.3412V18.6588C505.164 18.0928 505.681 17.6357 506.321 17.6357H506.323C506.961 17.6357 507.478 18.0928 507.478 18.6567V27.3412C507.478 27.9072 506.961 28.3643 506.321 28.3643C505.681 28.3643 505.164 27.9072 505.164 27.3412Z" fill="white"/>
<path d="M525.895 15.2207V17.8564H528.535V30.7828H531.517V17.8564H534.158V15.2207H525.895Z" fill="white"/>
<path d="M542.894 15.2207V27.3419C542.894 27.9079 542.377 28.365 541.736 28.365C541.096 28.365 540.579 27.9079 540.579 27.3419V15.2207H537.598V27.3419C537.598 29.3625 539.451 31.0007 541.736 31.0007C544.022 31.0007 545.875 29.3625 545.875 27.3419V15.2207H542.894Z" fill="white"/>
<path d="M562.555 15.2207V30.7828H569.822V28.1471H565.536V24.1103H568.3V21.4746H565.536V17.8564H569.822V15.2207H562.555Z" fill="white"/>
<path d="M523.056 30.7809H519.975L517.772 23.3928C517.772 23.3928 519.668 23.0917 519.668 21.3082V18.8754C519.668 18.3115 519.151 17.8544 518.513 17.8544H517.368V30.7809H514.387V15.2188H518.513C520.736 15.2188 522.546 16.7694 522.643 18.7152H522.652V21.2591H522.643C522.643 22.7948 522.075 23.9033 521.033 24.6082L523.058 30.7809H523.056Z" fill="white"/>
<path d="M570.944 15.7721C571.002 15.6589 571.079 15.5585 571.176 15.4752C571.273 15.3919 571.388 15.3257 571.517 15.2765C571.647 15.2295 571.785 15.2061 571.93 15.2061C572.075 15.2061 572.215 15.2295 572.343 15.2765C572.473 15.3235 572.584 15.3897 572.681 15.4752C572.778 15.5585 572.855 15.6589 572.911 15.7721C572.966 15.8874 572.995 16.0092 572.995 16.1416C572.995 16.274 572.966 16.4022 572.911 16.5175C572.853 16.6328 572.775 16.7332 572.681 16.8165C572.584 16.902 572.471 16.966 572.343 17.0152C572.215 17.0621 572.077 17.0856 571.93 17.0856C571.782 17.0856 571.645 17.0621 571.517 17.0152C571.386 16.9682 571.273 16.902 571.176 16.8165C571.077 16.7311 571.002 16.6328 570.944 16.5175C570.886 16.4022 570.859 16.2761 570.859 16.1416C570.859 16.007 570.888 15.8853 570.944 15.7721ZM571.118 16.4641C571.164 16.5623 571.224 16.6478 571.304 16.7204C571.384 16.793 571.475 16.8486 571.584 16.8913C571.691 16.9319 571.809 16.9532 571.932 16.9532C572.055 16.9532 572.171 16.9319 572.278 16.8913C572.384 16.8507 572.476 16.793 572.555 16.7204C572.635 16.6478 572.696 16.5623 572.742 16.4641C572.785 16.3658 572.809 16.2591 572.809 16.1437C572.809 16.0284 572.787 15.9259 572.742 15.8297C572.698 15.7315 572.635 15.6482 572.555 15.5756C572.476 15.5051 572.384 15.4474 572.278 15.4068C572.171 15.3662 572.055 15.3449 571.932 15.3449C571.809 15.3449 571.691 15.3662 571.584 15.4068C571.478 15.4474 571.384 15.5051 571.304 15.5756C571.224 15.646 571.164 15.7315 571.118 15.8297C571.074 15.928 571.05 16.0326 571.05 16.1437C571.05 16.2548 571.072 16.3658 571.118 16.4641ZM571.997 15.5969C572.145 15.5969 572.256 15.6226 572.326 15.676C572.398 15.7272 572.432 15.8062 572.432 15.913C572.432 16.0113 572.401 16.0839 572.338 16.1309C572.275 16.1779 572.198 16.2035 572.104 16.2121L572.459 16.699H572.251L571.913 16.2249H571.707V16.699H571.514V15.5969H571.995H571.997ZM571.913 16.086C571.956 16.086 571.997 16.086 572.036 16.0818C572.075 16.0796 572.111 16.0732 572.14 16.0604C572.171 16.0476 572.193 16.0305 572.212 16.007C572.229 15.9835 572.239 15.9493 572.239 15.9045C572.239 15.8682 572.232 15.8383 572.215 15.8169C572.198 15.7956 572.179 15.7785 572.152 15.7657C572.125 15.7528 572.096 15.7464 572.063 15.7422C572.029 15.7379 571.997 15.7358 571.964 15.7358H571.707V16.086H571.91H571.913Z" fill="white"/>
</g>
<defs>
<clipPath id="clip0_5659_1901">
<rect width="98" height="20" fill="white" transform="translate(196 10)"/>
</clipPath>
<clipPath id="clip1_5659_1901">
<rect width="69" height="41" fill="white"/>
</clipPath>
<clipPath id="clip2_5659_1901">
<rect width="142" height="19" fill="white" transform="translate(324 14)"/>
</clipPath>
<clipPath id="clip3_5659_1901">
<rect width="81" height="16" fill="white" transform="translate(492 15)"/>
</clipPath>
</defs>
</svg>
