<svg width="1031" height="76" viewBox="0 0 1031 76" fill="none" xmlns="http://www.w3.org/2000/svg">
<g clip-path="url(#clip0_5659_1055)">
<path d="M435.341 32.0019H428.248V49.9808H423.131V32.0019H416.07V27.1367H435.341V32.0019Z" fill="white"/>
<path d="M437.16 40.0523H443.605C443.562 39.3221 443.271 38.6884 442.731 38.1514C442.213 37.6143 441.425 37.3458 440.367 37.3458C439.417 37.3458 438.661 37.6251 438.099 38.1835C437.538 38.742 437.225 39.365 437.16 40.0523ZM443.962 44.2087L448.075 45.3687C447.665 46.8508 446.812 48.0752 445.516 49.0418C444.221 49.9869 442.601 50.4594 440.658 50.4594C438.326 50.4594 436.34 49.6862 434.699 48.1396C433.079 46.593 432.27 44.5202 432.27 41.9211C432.27 39.4294 433.058 37.3996 434.634 35.8315C436.232 34.2635 438.121 33.4795 440.302 33.4795C442.807 33.4795 444.771 34.2098 446.196 35.6704C447.643 37.1095 448.367 39.1179 448.367 41.6956C448.367 42.5118 448.334 43.0166 448.269 43.2099H437.063C437.106 44.0906 437.484 44.8317 438.197 45.4332C438.909 46.0131 439.751 46.3031 440.723 46.3031C442.386 46.3031 443.465 45.605 443.962 44.2087Z" fill="white"/>
<path d="M457.321 37.9903C456.263 37.9903 455.378 38.3446 454.665 39.0536C453.974 39.7624 453.629 40.7397 453.629 41.9855C453.629 43.2099 453.985 44.1765 454.698 44.8853C455.432 45.5942 456.328 45.9486 457.386 45.9486C458.271 45.9486 458.995 45.7231 459.556 45.272C460.139 44.7995 460.528 44.2303 460.722 43.5644L465.062 44.8853C464.673 46.4105 463.799 47.7207 462.439 48.8162C461.1 49.9117 459.416 50.4594 457.386 50.4594C454.968 50.4594 452.916 49.6646 451.232 48.0752C449.57 46.4641 448.738 44.4343 448.738 41.9855C448.738 39.5153 449.548 37.4855 451.167 35.896C452.808 34.285 454.827 33.4795 457.224 33.4795C459.319 33.4795 461.035 34.0165 462.374 35.0905C463.712 36.1645 464.576 37.4855 464.965 39.0536L460.56 40.3745C460.366 39.6871 459.999 39.1179 459.459 38.6669C458.919 38.2158 458.206 37.9903 457.321 37.9903Z" fill="white"/>
<path d="M471.364 40.5724V49.9807H466.441V26.6533H471.364V34.9983C472.336 34.0317 473.707 33.5485 475.478 33.5485C477.486 33.5485 478.997 34.1499 480.012 35.3528C481.049 36.5341 481.567 38.0593 481.567 39.928V49.9807H476.644V40.7657C476.644 39.928 476.417 39.2621 475.964 38.7681C475.532 38.2525 474.884 37.9948 474.02 37.9948C473.264 37.9948 472.638 38.2418 472.142 38.7359C471.667 39.2084 471.408 39.8205 471.364 40.5724Z" fill="white"/>
<path d="M491.469 45.9486C492.483 45.9486 493.336 45.605 494.027 44.9176C494.739 44.2303 495.097 43.2421 495.097 41.9533C495.097 40.6646 494.739 39.6871 494.027 39.0214C493.336 38.3339 492.483 37.9903 491.469 37.9903C490.476 37.9903 489.623 38.3339 488.91 39.0214C488.198 39.7086 487.841 40.686 487.841 41.9533C487.841 43.2206 488.198 44.2087 488.91 44.9176C489.623 45.605 490.476 45.9486 491.469 45.9486ZM491.469 33.4795C493.908 33.4795 495.938 34.2742 497.557 35.8637C499.199 37.4533 500.019 39.4831 500.019 41.9533C500.019 44.4235 499.199 46.4641 497.557 48.0752C495.938 49.6646 493.908 50.4594 491.469 50.4594C489.051 50.4594 487.02 49.6539 485.38 48.043C483.739 46.4319 482.918 44.4021 482.918 41.9533C482.918 39.5046 483.739 37.4855 485.38 35.896C487.02 34.285 489.051 33.4795 491.469 33.4795Z" fill="white"/>
<path d="M506.497 56.0999H501.574V33.9647H506.335V35.6079C506.702 35.0495 507.306 34.5768 508.149 34.1903C509.012 33.7822 509.984 33.5781 511.063 33.5781C513.352 33.5781 515.166 34.3621 516.504 35.9301C517.865 37.4767 518.545 39.4743 518.545 41.923C518.545 44.3718 517.822 46.3909 516.375 47.9805C514.95 49.5485 513.115 50.3325 510.87 50.3325C508.839 50.3325 507.382 49.7955 506.497 48.7215V56.0999ZM512.651 44.9195C513.364 44.2107 513.72 43.2226 513.72 41.9552C513.72 40.6879 513.364 39.7106 512.651 39.0233C511.959 38.3359 511.096 37.9923 510.059 37.9923C509.045 37.9923 508.181 38.3359 507.469 39.0233C506.778 39.7106 506.432 40.6879 506.432 41.9552C506.432 43.2226 506.778 44.2107 507.469 44.9195C508.181 45.6069 509.045 45.9506 510.059 45.9506C511.096 45.9506 511.959 45.6069 512.651 44.9195Z" fill="white"/>
<path d="M523.821 40.0523H530.266C530.223 39.3221 529.932 38.6884 529.391 38.1514C528.874 37.6143 528.085 37.3458 527.028 37.3458C526.078 37.3458 525.321 37.6251 524.76 38.1835C524.198 38.742 523.886 39.365 523.821 40.0523ZM530.623 44.2087L534.736 45.3687C534.326 46.8508 533.473 48.0752 532.177 49.0418C530.882 49.9869 529.262 50.4594 527.318 50.4594C524.987 50.4594 523 49.6862 521.36 48.1396C519.74 46.593 518.93 44.5202 518.93 41.9211C518.93 39.4294 519.718 37.3996 521.294 35.8315C522.892 34.2635 524.782 33.4795 526.963 33.4795C529.467 33.4795 531.432 34.2098 532.857 35.6704C534.304 37.1095 535.027 39.1179 535.027 41.6956C535.027 42.5118 534.995 43.0166 534.93 43.2099H523.723C523.767 44.0906 524.144 44.8317 524.858 45.4332C525.57 46.0131 526.412 46.3031 527.384 46.3031C529.046 46.3031 530.126 45.605 530.623 44.2087Z" fill="white"/>
<path d="M552.41 26.6533V47.1131C552.41 48.0797 552.453 49.0355 552.54 49.9807H547.81C547.724 49.4651 547.681 48.9496 547.681 48.434C547.293 48.9926 546.709 49.4544 545.932 49.8196C545.177 50.1632 544.324 50.335 543.374 50.335C541.085 50.335 539.185 49.5511 537.674 47.983C536.162 46.3935 535.406 44.3744 535.406 41.9256C535.406 39.5198 536.14 37.533 537.608 35.9649C539.077 34.3754 540.945 33.5807 543.211 33.5807C545.415 33.5807 546.86 34.1284 547.552 35.2239V26.6533H552.41ZM541.398 39.0259C540.707 39.7132 540.361 40.6905 540.361 41.9578C540.361 43.2251 540.707 44.2133 541.398 44.9221C542.11 45.6095 542.974 45.9531 543.988 45.9531C545.004 45.9531 545.856 45.6095 546.548 44.9221C547.26 44.2133 547.617 43.2251 547.617 41.9578C547.617 40.6905 547.26 39.7132 546.548 39.0259C545.856 38.3385 545.004 37.9948 543.988 37.9948C542.974 37.9948 542.11 38.3385 541.398 39.0259Z" fill="white"/>
<path d="M560.149 49.9796H555.226V33.9662H560.149V49.9796ZM555.647 31.0986C555.085 30.5402 554.805 29.8635 554.805 29.0687C554.805 28.274 555.085 27.5974 555.647 27.0389C556.208 26.4804 556.878 26.2012 557.655 26.2012C558.454 26.2012 559.134 26.4804 559.696 27.0389C560.278 27.5974 560.57 28.274 560.57 29.0687C560.57 29.8635 560.278 30.5402 559.696 31.0986C559.134 31.6571 558.454 31.9363 557.655 31.9363C556.878 31.9363 556.208 31.6571 555.647 31.0986Z" fill="white"/>
<path d="M561.871 45.5619C561.871 44.2087 562.314 43.1239 563.199 42.3078C564.084 41.47 565.228 40.9438 566.632 40.729L570.421 40.149C571.198 40.0416 571.588 39.6764 571.588 39.0536C571.588 38.5595 571.371 38.1514 570.94 37.8292C570.529 37.4855 569.958 37.3136 569.223 37.3136C568.402 37.3136 567.744 37.55 567.247 38.0225C566.772 38.4735 566.514 39.0214 566.47 39.6657L562.195 38.7958C562.303 37.464 562.962 36.2504 564.171 35.1549C565.401 34.0379 567.096 33.4795 569.255 33.4795C571.695 33.4795 573.488 34.0594 574.632 35.2194C575.797 36.3792 576.381 37.8614 576.381 39.6657V47.4951C576.381 48.5047 576.445 49.3317 576.575 49.9762H572.138C572.031 49.5466 571.976 48.9451 571.976 48.1719C571.047 49.6755 569.536 50.4272 567.442 50.4272C565.736 50.4272 564.375 49.9547 563.361 49.0096C562.368 48.043 561.871 46.8937 561.871 45.5619ZM568.64 46.883C569.483 46.883 570.184 46.636 570.745 46.142C571.307 45.6479 571.588 44.8317 571.588 43.6932V42.9843L568.543 43.4677C567.334 43.6609 566.729 44.2517 566.729 45.2398C566.729 45.6908 566.88 46.0775 567.182 46.3996C567.506 46.7219 567.992 46.883 568.64 46.883Z" fill="white"/>
<path d="M392.782 40.5054C392.782 40.7835 392.855 41.0566 392.995 41.2975C393.135 41.5382 393.336 41.7381 393.578 41.8772L398.592 44.7566C398.834 44.8954 399.109 44.9684 399.388 44.9683C399.667 44.9682 399.942 44.8948 400.184 44.7559C400.425 44.6169 400.626 44.4171 400.766 44.1763C400.905 43.9357 400.979 43.6627 400.979 43.3849V28.2086C400.979 27.931 400.906 27.6581 400.766 27.4176C400.627 27.1771 400.426 26.9774 400.184 26.8386L386.972 19.2546C386.73 19.1159 386.456 19.0429 386.177 19.043C385.898 19.043 385.624 19.1161 385.382 19.2549C385.14 19.3937 384.939 19.5934 384.8 19.8338C384.66 20.0742 384.586 20.347 384.586 20.6247V26.3852C384.586 26.6631 384.66 26.9361 384.799 27.1768C384.939 27.4175 385.139 27.6176 385.381 27.757L391.985 31.5464C392.227 31.685 392.428 31.8846 392.567 32.1252C392.707 32.3658 392.78 32.6388 392.78 32.9165L392.782 40.5054Z" fill="white"/>
<path d="M382.994 38.537V46.126C382.994 46.4039 383.067 46.677 383.207 46.9178C383.347 47.1586 383.547 47.3586 383.789 47.4977L388.803 50.3771C389.045 50.5159 389.32 50.5889 389.599 50.5888C389.878 50.5886 390.153 50.5154 390.395 50.3763C390.636 50.2374 390.837 50.0375 390.977 49.7969C391.116 49.5563 391.19 49.2832 391.19 49.0054V33.8291C391.19 33.551 391.116 33.2779 390.976 33.0372C390.836 32.7963 390.635 32.5964 390.393 32.4574L377.183 24.8701C376.942 24.7308 376.667 24.6574 376.388 24.6572C376.108 24.657 375.834 24.7301 375.592 24.869C375.35 25.0079 375.149 25.2077 375.01 25.4484C374.87 25.6892 374.797 25.9622 374.797 26.2401V32.0008C374.796 32.2785 374.87 32.5514 375.009 32.792C375.149 33.0325 375.35 33.2322 375.592 33.3708L382.199 37.1653C382.441 37.3045 382.642 37.5046 382.781 37.7453C382.921 37.986 382.994 38.2591 382.994 38.537Z" fill="white"/>
<path d="M380.598 38.0869L367.386 30.5046C367.145 30.3658 366.87 30.2929 366.591 30.293C366.311 30.2931 366.037 30.3663 365.795 30.5053C365.553 30.6444 365.353 30.8442 365.213 31.0849C365.073 31.3255 365 31.5984 365 31.8763V47.0543C365 47.332 365.073 47.6048 365.213 47.8453C365.352 48.0858 365.553 48.2855 365.795 48.4243L373.992 53.1255L379.007 56.0049C379.248 56.1442 379.523 56.2176 379.802 56.2178C380.081 56.218 380.356 56.145 380.598 56.0061C380.84 55.8672 381.041 55.6673 381.18 55.4266C381.32 55.1859 381.393 54.9127 381.393 54.6349V39.4586C381.393 39.1808 381.319 38.9077 381.18 38.667C381.04 38.4263 380.84 38.2262 380.598 38.0869Z" fill="white"/>
</g>
<g clip-path="url(#clip1_5659_1055)">
<path d="M627.004 42.7578H630.041V27.3325H627.004V23.3735H638.741L643.879 37.0434L649.204 23.3735H661.054V27.3325H658.016V42.7578H661.129V46.7169H649.054V42.7578H652.129V27.3325H651.566L644.254 46.7169H641.704L634.391 27.3325H633.829V42.7578H636.904V46.7169H627.004V42.7578ZM679.129 43.094C677.441 45.7084 674.666 47.0904 671.141 47.0904C665.479 47.0904 661.916 43.9157 661.916 38.8735C661.916 33.794 665.591 30.0964 670.729 30.0964C675.641 30.0964 679.541 33.8313 679.129 39.6952H667.204C667.241 41.5627 668.254 43.7663 671.216 43.7663C672.604 43.7663 673.504 43.3181 675.004 41.8614L679.129 43.094ZM673.991 36.7819C673.729 34.7277 672.454 33.4952 670.541 33.4952C668.629 33.4952 667.504 34.5783 667.204 36.7819H673.991ZM699.904 46.7169H692.104V44.7747C690.529 46.306 689.141 46.941 687.379 46.941C683.366 46.941 680.329 43.3181 680.329 38.5C680.329 33.7566 683.404 30.0964 687.416 30.0964C689.254 30.0964 690.904 30.8807 692.104 32.2627V27.1084H689.591V23.3735H697.391V42.9446H699.904V46.7169ZM688.879 34.3542C686.929 34.3542 685.691 35.9602 685.691 38.612C685.691 41.2265 686.929 42.9446 688.916 42.9446C690.529 42.9446 692.179 41.6747 692.179 38.5C692.179 36.0723 690.941 34.3542 688.879 34.3542ZM723.791 23.3735V31.5904H719.816C719.404 30.5072 718.691 29.2373 718.016 28.7145C716.366 27.4446 715.504 27.1831 713.966 27.1831C709.766 27.1831 706.991 30.3578 706.991 35.1012C706.991 39.6205 709.691 42.7578 713.591 42.7578C716.816 42.7578 719.254 40.5169 720.116 36.6699L724.729 38.8735C723.004 45.1482 717.754 47.0157 713.141 47.0157C703.129 47.0157 700.466 40.106 700.466 35.0265C700.466 27.9301 705.454 23 712.766 23C715.616 23 717.866 23.6723 719.816 25.2036V23.3735H723.791ZM726.266 30.4699H733.916V42.9819H736.279V46.7169H726.229V42.9819H728.591V34.2048H726.229V30.4699H726.266ZM734.216 25.8012C734.216 27.3699 732.941 28.6398 731.366 28.6398C729.791 28.6398 728.554 27.3699 728.554 25.8012C728.554 24.2325 729.754 23 731.329 23C732.904 23 734.216 24.2325 734.216 25.8012ZM736.316 30.4699H738.379V27.9301L743.666 24.2325V30.4699H746.591V34.2048H743.666V41.2639C743.666 42.6831 743.891 42.9446 745.016 42.9446C745.579 42.9446 745.879 42.8699 746.591 42.6458V46.1566C745.279 46.7169 743.966 46.9783 742.691 46.9783C740.629 46.9783 738.379 45.9699 738.379 43.094V34.2048H736.316V30.4699ZM751.766 50.2277H754.879L755.966 47.3518L750.041 34.2048H747.679V30.4699H757.129V34.2048H755.554L758.291 41.488L761.179 34.2048H759.379V30.4699H767.666V34.2048H765.304L757.466 54H751.766V50.2277ZM773.966 26.2867H770.629V23.3735H778.616L788.741 41.5253H788.816V26.2867H785.554V23.3735H795.191V26.2867H791.741V46.941H788.066L776.966 27.0337H776.891V43.8036H780.266V46.7169H770.629V43.8036H773.966V26.2867ZM797.666 39.3964C798.154 42.5711 800.216 44.3639 803.254 44.3639C805.354 44.3639 807.341 43.4301 808.541 41.712L811.354 42.9446C809.591 45.6711 806.666 47.1651 803.179 47.1651C797.891 47.1651 794.104 43.5795 794.104 38.5747C794.104 33.3084 798.416 29.9843 802.654 29.9843C807.154 29.9843 811.354 33.4205 811.354 39.359H797.666V39.3964ZM808.091 37.0434C807.566 34.4663 805.279 32.5614 802.729 32.5614C800.179 32.5614 798.229 34.3169 797.779 37.0434H808.091ZM813.266 33.3084H811.279V30.5072H818.141V33.3084H816.041L819.116 43.094H819.191L822.266 33.3084H820.466V30.5072H828.379V33.3084H826.616L829.691 43.094H829.766L832.879 33.3084H830.591V30.5072H837.941V33.3084H835.616L831.229 46.9783H828.229L824.554 35.2133H824.479L820.691 46.9783H817.654L813.266 33.3084ZM838.616 41.1518H841.466V41.6747C841.729 43.2807 843.229 44.2892 845.366 44.2892C847.391 44.2892 848.704 43.5048 848.704 42.2723C848.704 39.247 842.966 41.1892 839.891 38.0892C839.141 37.3422 838.616 36.1843 838.616 34.9892C838.616 32.188 841.016 30.2084 844.354 30.2084C845.854 30.2084 847.241 30.5446 848.329 31.1422V30.5072H851.141V35.8482H848.329V34.8398C847.391 33.4578 846.191 32.8602 844.541 32.8602C842.816 32.8602 841.691 33.6446 841.691 34.8398C841.691 37.5663 847.954 35.9602 850.654 38.6494C851.629 39.6205 852.041 40.8904 852.041 42.0108C852.041 44.9614 849.529 46.941 845.816 46.941C844.054 46.941 842.704 46.5675 841.541 45.7831V46.6795H838.691V41.1518H838.616Z" fill="white"/>
</g>
<g clip-path="url(#clip2_5659_1055)">
<path d="M1003.41 24.3867V39.2371L998.6 24.3867H993.855V51.6205H998.6V38.2765L1002.89 51.6205H1008.15V24.3867H1003.41Z" fill="white"/>
<path d="M906.748 24.3867H902.396H902V51.6205H906.748V39.9435H911.15V35.3311H906.748V28.9992H913.578V24.3867H906.748Z" fill="white"/>
<path d="M918.211 30.4029V45.5971C918.211 49.1331 921.162 52 924.802 52C928.442 52 931.394 49.1331 931.394 45.5971V30.3991C931.394 26.8632 928.442 24 924.806 24C921.166 24 918.215 26.8669 918.215 30.4029M922.963 45.5971V30.4029C922.963 29.4124 923.787 28.6125 924.806 28.6125H924.81C925.826 28.6125 926.649 29.4124 926.649 30.3991V45.5971C926.649 46.5876 925.826 47.3875 924.806 47.3875C923.787 47.3875 922.963 46.5876 922.963 45.5971Z" fill="white"/>
<path d="M955.977 24.3867V28.9992H960.182V51.6205H964.931V28.9992H969.136V24.3867H955.977Z" fill="white"/>
<path d="M983.048 24.3867V45.5988C983.048 46.5894 982.224 47.3893 981.205 47.3893C980.185 47.3893 979.362 46.5894 979.362 45.5988V24.3867H974.613V45.5988C974.613 49.1348 977.565 52.0017 981.205 52.0017C984.845 52.0017 987.796 49.1348 987.796 45.5988V24.3867H983.048Z" fill="white"/>
<path d="M1014.36 24.3867V51.6205H1025.94V47.008H1019.11V39.9435H1023.51V35.3311H1019.11V28.9992H1025.94V24.3867H1014.36Z" fill="white"/>
<path d="M951.459 51.6166H946.552L943.043 38.6874C943.043 38.6874 946.064 38.1604 946.064 35.0393V30.782C946.064 29.7952 945.24 28.9953 944.225 28.9953H942.401V51.6166H937.652V24.3828H944.225C947.765 24.3828 950.647 27.0965 950.801 30.5016H950.816V34.9534H950.801C950.801 37.6409 949.896 39.5808 948.238 40.8143L951.462 51.6166H951.459Z" fill="white"/>
<path d="M1027.73 25.3518C1027.82 25.1537 1027.94 24.9781 1028.1 24.8323C1028.25 24.6865 1028.44 24.5706 1028.64 24.4847C1028.85 24.4024 1029.07 24.3613 1029.3 24.3613C1029.53 24.3613 1029.75 24.4024 1029.96 24.4847C1030.16 24.5669 1030.34 24.6828 1030.5 24.8323C1030.65 24.9781 1030.77 25.1537 1030.86 25.3518C1030.95 25.5537 1031 25.7667 1031 25.9985C1031 26.2302 1030.95 26.4545 1030.86 26.6563C1030.77 26.8582 1030.65 27.0339 1030.5 27.1796C1030.34 27.3292 1030.16 27.4413 1029.96 27.5273C1029.75 27.6095 1029.53 27.6506 1029.3 27.6506C1029.06 27.6506 1028.84 27.6095 1028.64 27.5273C1028.43 27.445 1028.25 27.3292 1028.1 27.1796C1027.94 27.0301 1027.82 26.8582 1027.73 26.6563C1027.64 26.4545 1027.59 26.234 1027.59 25.9985C1027.59 25.763 1027.64 25.55 1027.73 25.3518ZM1028.01 26.5629C1028.08 26.7348 1028.17 26.8844 1028.3 27.0114C1028.43 27.1385 1028.57 27.2357 1028.75 27.3105C1028.92 27.3815 1029.11 27.4189 1029.3 27.4189C1029.5 27.4189 1029.68 27.3815 1029.85 27.3105C1030.02 27.2394 1030.17 27.1385 1030.29 27.0114C1030.42 26.8844 1030.52 26.7348 1030.59 26.5629C1030.66 26.391 1030.7 26.2041 1030.7 26.0022C1030.7 25.8004 1030.66 25.621 1030.59 25.4528C1030.52 25.2808 1030.42 25.1351 1030.29 25.008C1030.17 24.8846 1030.02 24.7837 1029.85 24.7127C1029.68 24.6417 1029.5 24.6043 1029.3 24.6043C1029.11 24.6043 1028.92 24.6417 1028.75 24.7127C1028.58 24.7837 1028.43 24.8846 1028.3 25.008C1028.17 25.1313 1028.08 25.2808 1028.01 25.4528C1027.94 25.6247 1027.9 25.8079 1027.9 26.0022C1027.9 26.1966 1027.93 26.391 1028.01 26.5629ZM1029.41 25.0453C1029.64 25.0453 1029.82 25.0902 1029.93 25.1836C1030.04 25.2734 1030.1 25.4117 1030.1 25.5985C1030.1 25.7705 1030.05 25.8976 1029.95 25.9798C1029.85 26.062 1029.73 26.1069 1029.58 26.1218L1030.14 26.9741H1029.81L1029.27 26.1443H1028.94V26.9741H1028.64V25.0453H1029.4H1029.41ZM1029.27 25.9013C1029.34 25.9013 1029.41 25.9013 1029.47 25.8938C1029.53 25.8901 1029.59 25.8789 1029.63 25.8565C1029.68 25.834 1029.72 25.8041 1029.75 25.763C1029.78 25.7219 1029.79 25.6621 1029.79 25.5836C1029.79 25.5201 1029.78 25.4677 1029.75 25.4303C1029.73 25.393 1029.69 25.3631 1029.65 25.3406C1029.61 25.3182 1029.56 25.307 1029.51 25.2995C1029.46 25.292 1029.41 25.2883 1029.35 25.2883H1028.94V25.9013H1029.27H1029.27Z" fill="white"/>
</g>
<g clip-path="url(#clip3_5659_1055)">
<path d="M12.1393 3.2004H15.0084C18.3062 3.2004 18.8459 3.27133 20.0132 3.85719C21.7059 4.70182 22.9429 6.37532 24.0224 9.27965C24.4614 10.4619 24.4549 10.4619 25.4311 10.1571L26.0767 9.95614L26.0173 5.67519C25.985 3.32125 25.9308 1.2274 25.8985 1.0238L25.8404 0.652057L13.2588 0.625786C6.33922 0.611336 0.542962 0.625786 0.377686 0.654685L0.078125 0.70854L0.10524 1.4691L0.131065 2.22967L1.08914 2.34657C2.33129 2.49764 3.07374 2.85231 3.51404 3.50647C4.50699 4.97899 4.68776 6.98483 4.68517 16.5109C4.68517 26.6596 4.476 29.1213 3.51533 30.4046C3.0208 31.0614 2.61923 31.2808 1.49846 31.4936C0.0368062 31.7695 0.085872 31.734 0.085872 32.5024C0.085872 32.9307 0.123317 33.1592 0.199499 33.1934C0.363483 33.2604 16.4559 33.2656 16.6276 33.1934C16.8484 33.1067 16.8355 31.8982 16.6121 31.7813C16.2161 31.67 15.8126 31.5884 15.4048 31.537C14.9229 31.4731 14.4475 31.3653 13.9845 31.2151C12.9309 30.7488 12.3446 29.4576 12.1238 27.1233C11.9792 25.4538 11.8501 22.3668 11.8501 20.0852V17.9926L12.8301 18.0228C14.9167 18.0872 15.9962 18.1989 16.4326 18.3946C17.3765 18.8202 18.1409 20.005 18.5373 21.6615L18.7491 22.5416L19.4941 22.5691L20.2378 22.5954V11.4497L19.4941 11.476L18.7504 11.5035L18.5321 12.3836C18.1112 14.0913 17.423 15.1422 16.412 15.6137C16.0014 15.8068 15.7095 15.8607 14.7256 15.9198C14.071 15.9605 13.1568 15.9947 12.6933 15.9973H11.8501V13.2388C11.8501 10.4724 11.9947 4.59674 12.0877 3.6838L12.1393 3.2004Z" fill="white"/>
<path d="M45.0532 19.5758C44.5755 15.459 42.8582 12.4457 40.0291 10.7498C36.8824 8.86616 32.0998 8.75713 28.7026 10.4871C26.2493 11.7403 24.2441 14.1533 23.3544 16.9237C22.4389 19.7912 22.4389 23.5494 23.3557 26.4655C23.9445 28.336 24.7425 29.7009 25.9743 30.9422C27.4514 32.4305 29.3844 33.3815 31.5962 33.7099C32.3877 33.8268 34.8849 33.8294 35.7036 33.7099C36.2054 33.6294 36.702 33.5188 37.191 33.3789C41.2003 32.1967 43.935 29.0651 44.8751 24.5779C45.1049 23.4876 45.1991 20.8329 45.0532 19.5758ZM29.9383 17.2258C30.4264 13.1537 31.6608 11.09 33.6066 11.0874C34.4834 11.0874 34.9689 11.3042 35.6558 12.0069C37.2879 13.6791 38.0626 16.8724 38.0497 21.8929C38.0394 25.898 37.6481 28.4214 36.7714 30.1265C36.3466 30.9527 35.5499 31.7133 34.9043 31.909C32.4123 32.6617 30.6278 30.246 29.9357 25.1861C29.7136 23.5494 29.7136 19.095 29.9383 17.2258Z" fill="white"/>
<path d="M103.339 10.1717C100.834 8.89493 96.9652 8.98951 94.1349 10.3898C91.4543 11.7204 89.6156 13.9365 88.5827 17.0693C88.0468 18.6995 87.8777 20.0118 87.9371 22.1266C87.9706 23.4625 88.0313 24.1535 88.1669 24.7709C89.2244 29.5707 92.4589 32.8336 96.9833 33.6638C97.9788 33.8464 100.24 33.8503 101.244 33.6717C102.681 33.4155 104.343 32.7653 105.384 32.0468C106.66 31.1706 107.966 29.8518 107.966 29.4433C107.966 29.1937 107.529 28.6197 107.338 28.6197C107.254 28.6197 106.9 28.8075 106.55 29.0374C105.303 29.8584 104.11 30.1946 102.45 30.1946C100.161 30.1946 98.7058 29.6154 97.2532 28.1179C96.6076 27.4611 96.3416 27.0959 96.0072 26.4391C95.272 24.9942 94.8752 23.3325 94.8167 21.4541L94.7908 20.6436L101.539 20.62L108.285 20.595L108.306 20.1352C108.311 19.6394 108.286 19.1437 108.232 18.6509C107.817 14.479 106.157 11.6088 103.339 10.1717ZM99.8369 18.5432C98.964 18.5747 97.4817 18.6128 96.5404 18.6272L94.8309 18.6561V18.2805C94.8528 17.8752 94.8959 17.4713 94.96 17.0707C95.5294 13.3348 96.8968 11.0926 98.6141 11.0912C100.191 11.0912 101.163 13.2981 101.364 17.3413L101.422 18.4867L99.8356 18.5432H99.8369Z" fill="white"/>
<path d="M126.32 22.8603C125.553 21.2998 124.141 20.2331 121.185 18.9747C118.77 17.9488 117.558 17.2382 116.818 16.4146C116.217 15.7459 116.043 15.2061 116.1 14.2064C116.154 13.2869 116.376 12.7352 116.944 12.1165C117.674 11.3284 118.677 11.046 119.878 11.3034C121.848 11.7277 123.106 13.1162 124.201 16.0494C124.588 17.1002 124.635 17.1291 125.333 16.8651L125.774 16.6983L125.758 15.4924C125.75 14.8291 125.717 13.4367 125.684 12.3976L125.626 10.51L125.297 10.3681C123.489 9.59182 120.056 9.10843 117.816 9.31728C115.272 9.55373 113.404 10.376 111.965 11.8919C110.527 13.4078 109.89 15.1653 110.005 17.2631C110.1 18.9984 110.604 20.2436 111.655 21.3352C112.63 22.3493 113.449 22.8301 115.795 23.7614C119.582 25.2668 120.584 26.1587 120.573 28.0135C120.573 29.5793 119.75 30.726 118.261 31.2606C117.729 31.4524 116.384 31.4498 115.666 31.2606C113.783 30.7562 112.342 29.0972 111.114 26.0221L110.799 25.2339L110.43 25.2523C110.217 25.2638 110.007 25.3109 109.809 25.3916L109.551 25.515L109.575 26.8588C109.588 27.5984 109.624 29.1563 109.655 30.3214L109.713 32.4416L110.133 32.6255C110.994 33.0011 113.579 33.5778 115.204 33.7538C115.405 33.7761 116.513 33.784 117.666 33.7709C119.667 33.7486 119.812 33.7341 120.818 33.4675C123.788 32.6793 125.713 30.9927 126.565 28.4351C126.823 27.647 126.863 27.4092 126.901 26.2415C126.959 24.6822 126.818 23.8731 126.32 22.8603Z" fill="white"/>
<path d="M61.4982 9.2334C60.4395 9.2334 59.8674 9.35294 59.0088 9.75226C57.4464 10.48 56.2727 11.674 55.2242 13.5958L54.8976 14.1961L54.9389 13.1295C54.9621 12.5423 55.0009 11.4468 55.0254 10.6941L55.0693 9.32535H54.8498C54.5619 9.32535 45.5285 11.1644 45.2548 11.2773C45.0779 11.3509 45.0508 11.431 45.0508 11.8724C45.0508 12.3137 45.0727 12.3886 45.2548 12.4267L46.178 12.6106C46.976 12.7656 47.211 12.8917 47.5428 13.3357C48.151 14.1541 48.2749 15.5977 48.2685 21.7098C48.2685 26.7014 48.1613 29.1972 47.9289 29.9735C47.6435 30.9285 47.1361 31.4185 46.2503 31.584C45.965 31.6378 45.5879 31.7153 45.4123 31.7521L45.0934 31.8204L45.0663 32.4614C45.0469 32.912 45.074 33.1261 45.1567 33.18C45.2225 33.222 48.3124 33.247 52.0233 33.2338L58.7712 33.2128L58.797 32.493C58.8125 32.0989 58.797 31.7744 58.7518 31.7744C58.2276 31.7744 56.6213 31.5498 56.3683 31.4421C55.6064 31.119 55.2385 30.4241 55.0771 29.0133C54.8898 27.3582 54.7801 23.2401 54.8317 19.8655C54.8834 16.4568 54.8847 16.4436 55.09 16.2151C55.578 15.6818 56.8163 15.2667 57.9306 15.264C58.8216 15.264 59.7383 15.4952 60.7158 15.9721C61.1845 16.2019 61.6196 16.3661 61.6764 16.3464C61.7991 16.2991 64.0122 10.3473 64.0122 10.0675C64.0174 9.6498 62.7546 9.2334 61.4982 9.2334Z" fill="white"/>
<path d="M78.8915 9.72934C78.3543 9.61637 77.8688 9.59799 76.8255 9.62951C75.2528 9.686 74.1695 9.92507 72.9945 10.4781C72.6071 10.6607 72.265 10.8104 72.2391 10.8104C72.2133 10.8104 72.2172 8.38949 72.2482 5.42474C72.2908 1.25544 72.2792 0.0390625 72.1939 0.0390625C71.897 0.0390625 62.5847 1.8413 62.4827 1.92405C62.4065 1.98448 62.3743 2.18677 62.3911 2.48889C62.422 3.01432 62.3601 2.97492 63.495 3.23369C63.8065 3.29981 64.1064 3.41316 64.3847 3.56997C64.763 3.84451 65.0781 4.43824 65.2963 5.28944C65.4693 5.962 65.4925 6.44277 65.5713 10.9864C65.6527 15.626 65.6372 20.3956 65.5119 29.1336L65.459 32.763L66.1278 32.918C67.0924 33.1413 69.8568 33.6089 70.762 33.7061C72.0894 33.8375 75.1818 33.8243 76.167 33.6733C80.4422 33.0165 83.6664 30.4944 85.168 26.6259C85.614 25.4068 85.9211 24.1397 86.0835 22.8494C86.241 21.4741 86.1519 18.7287 85.9157 17.624C85.0028 13.3929 82.4036 10.4689 78.8915 9.72934ZM74.4122 31.8658C73.9319 31.9591 73.7886 31.9617 72.9196 31.8921C72.5503 31.8632 72.469 31.8211 72.3941 31.6215C72.2779 31.3088 72.1358 20.4363 72.1952 16.0936L72.2404 12.7033L72.8434 12.522C73.3094 12.3928 73.7912 12.3318 74.2741 12.3407C75.0488 12.3407 75.1444 12.3644 75.7951 12.6915C77.3627 13.4796 78.437 15.4368 78.9367 18.416C79.1213 19.5181 79.1445 22.5249 78.978 23.8438C78.5674 27.0831 77.5266 29.6984 76.1373 30.9647C75.6599 31.4312 75.0582 31.7446 74.4071 31.8658H74.4122Z" fill="white"/>
<path d="M29.0505 56.9085H27.7968V47.0737H24.3828V45.9414H32.4645V47.0737H29.0505V56.9085Z" fill="white"/>
<path d="M37.3178 57.0563C36.1238 57.0563 35.1812 56.6859 34.49 55.945C33.7988 55.2042 33.4545 54.1765 33.457 52.8621C33.457 51.5362 33.7781 50.4854 34.4203 49.7095C35.0625 48.9336 35.9233 48.5434 37.0027 48.5391C38.0168 48.5391 38.8182 48.878 39.407 49.5558C39.9957 50.2336 40.2906 51.1277 40.2914 52.2381V53.0263H34.7224C34.7465 53.9895 34.9863 54.7221 35.4416 55.2239C35.897 55.7257 36.537 55.9757 37.3617 55.9739C38.2507 55.9706 39.1296 55.7819 39.9441 55.4196V56.5204C39.5492 56.698 39.1379 56.8348 38.7162 56.9289C38.2555 57.0198 37.787 57.0625 37.3178 57.0563ZM36.9859 49.5768C36.336 49.5768 35.8195 49.7918 35.4365 50.2218C35.0534 50.6517 34.8262 51.2468 34.7547 52.0069H38.9796C38.9796 51.2188 38.8074 50.6176 38.4631 50.2034C38.1188 49.7892 37.6264 49.5803 36.9859 49.5768Z" fill="white"/>
<path d="M45.6057 57.058C44.4359 57.058 43.5299 56.6916 42.8877 55.9586C42.2456 55.2256 41.9249 54.1874 41.9258 52.8441C41.9258 51.4692 42.2516 50.4065 42.9032 49.656C43.5549 48.9055 44.4828 48.5303 45.6871 48.5303C46.0779 48.532 46.4675 48.576 46.8492 48.6616C47.1651 48.7223 47.4723 48.8234 47.7634 48.9624L47.3876 50.0133C47.1003 49.8983 46.8046 49.8065 46.5031 49.7388C46.225 49.6719 45.9406 49.6358 45.6548 49.6311C44.0124 49.6311 43.1912 50.6959 43.1912 52.8257C43.1912 53.8363 43.3917 54.6117 43.7929 55.152C44.194 55.6924 44.7875 55.9621 45.5735 55.9612C46.2859 55.953 46.99 55.8031 47.6459 55.5198V56.6219C47.1104 56.9127 46.4304 57.058 45.6057 57.058Z" fill="white"/>
<path d="M55.0967 56.9068V51.5882C55.0967 50.9182 54.9465 50.4182 54.646 50.0881C54.3456 49.7579 53.8765 49.5928 53.2386 49.5928C52.3881 49.5928 51.7675 49.828 51.3767 50.2982C50.9859 50.7685 50.7905 51.5387 50.7905 52.6088V56.9068H49.5664V45.2344H50.7905V48.7718C50.794 49.1231 50.7742 49.4742 50.7311 49.8227H50.8047C51.0561 49.419 51.414 49.0953 51.8376 48.8888C52.3115 48.6545 52.8332 48.5374 53.36 48.5472C54.3473 48.5472 55.0885 48.7863 55.5835 49.2644C56.0784 49.7426 56.3255 50.5014 56.3246 51.5409V56.9042L55.0967 56.9068Z" fill="white"/>
<path d="M64.3662 56.9069V51.5882C64.3662 50.9183 64.2164 50.4183 63.9169 50.0881C63.6173 49.758 63.1477 49.5929 62.5081 49.5929C61.6628 49.5929 61.0435 49.8254 60.6501 50.2904C60.2567 50.7554 60.06 51.5234 60.06 52.5944V56.9069H58.8359V48.6852H59.8315L60.0303 49.8109H60.0897C60.3457 49.4014 60.7112 49.0747 61.1433 48.8691C61.6159 48.6425 62.133 48.5284 62.6553 48.5355C63.6289 48.5355 64.3606 48.7741 64.8504 49.2514C65.3402 49.7286 65.586 50.4927 65.5877 51.5436V56.9069H64.3662Z" fill="white"/>
<path d="M75.0808 52.7902C75.0808 54.1301 74.749 55.1765 74.0853 55.9297C73.4216 56.6828 72.5048 57.0593 71.335 57.0593C70.6577 57.0698 69.991 56.8878 69.4098 56.5339C68.8446 56.1799 68.3953 55.6633 68.1186 55.0496C67.8002 54.339 67.6439 53.5644 67.6615 52.7836C67.6615 51.4438 67.9908 50.3999 68.6493 49.6521C69.3078 48.9042 70.2224 48.5303 71.3931 48.5303C72.5233 48.5303 73.4216 48.913 74.0879 49.6783C74.7541 50.4437 75.0851 51.481 75.0808 52.7902ZM68.923 52.7902C68.923 53.8411 69.1296 54.6415 69.5428 55.1914C69.956 55.7414 70.5633 56.0164 71.3647 56.0164C72.1652 56.0164 72.7734 55.7423 73.1892 55.1941C73.605 54.6459 73.8128 53.8446 73.8128 52.7902C73.8128 51.7446 73.605 50.9508 73.1892 50.4087C72.7734 49.8666 72.1601 49.5951 71.3492 49.5943C70.5487 49.5943 69.9461 49.8618 69.5415 50.3969C69.1369 50.9319 68.9312 51.7297 68.9243 52.7902H68.923Z" fill="white"/>
<path d="M78.4506 56.9068H77.2266V45.2344H78.4506V56.9068Z" fill="white"/>
<path d="M88.0209 52.7902C88.0209 54.1301 87.6891 55.1765 87.0254 55.9297C86.3617 56.6828 85.4449 57.0593 84.2751 57.0593C83.5983 57.0696 82.932 56.8876 82.3512 56.5339C81.786 56.1799 81.3367 55.6633 81.06 55.0496C80.7416 54.339 80.5853 53.5644 80.6029 52.7836C80.6029 51.4438 80.9322 50.3999 81.5907 49.6521C82.2492 48.9042 83.1634 48.5303 84.3332 48.5303C85.4643 48.5303 86.3626 48.913 87.028 49.6783C87.6934 50.4437 88.0244 51.481 88.0209 52.7902ZM81.8644 52.7902C81.8644 53.8411 82.071 54.6415 82.4842 55.1914C82.8974 55.7414 83.5043 56.0164 84.3048 56.0164C85.1071 56.0164 85.7157 55.7423 86.1306 55.1941C86.5455 54.6459 86.7529 53.8446 86.7529 52.7902C86.7529 51.7446 86.5455 50.9508 86.1306 50.4087C85.7157 49.8666 85.1019 49.5951 84.2893 49.5943C83.487 49.5943 82.8845 49.8618 82.4816 50.3969C82.0788 50.9319 81.873 51.7297 81.8644 52.7902Z" fill="white"/>
<path d="M96.7823 48.6847V49.4729L95.2845 49.6528C95.6362 50.1253 95.8234 50.7035 95.8164 51.2961C95.8164 52.1009 95.5457 52.7432 95.0043 53.2231C94.4628 53.703 93.7208 53.9434 92.7782 53.9443C92.5505 53.9451 92.3232 53.9248 92.099 53.8839C91.5825 54.1641 91.3222 54.5166 91.3178 54.9413C91.3126 55.0421 91.3353 55.1425 91.3835 55.2307C91.4317 55.319 91.5034 55.3917 91.5903 55.4405C91.7728 55.5482 92.0853 55.602 92.5277 55.602H93.9571C94.8325 55.602 95.5048 55.7894 95.974 56.1642C96.4431 56.5391 96.6803 57.0842 96.6854 57.7996C96.6854 58.7095 96.3265 59.4035 95.6085 59.8817C94.8906 60.3598 93.8413 60.5971 92.4606 60.5936C91.4044 60.5936 90.5896 60.3935 90.0163 59.9933C89.7417 59.8101 89.5184 59.5578 89.3679 59.2609C89.2175 58.964 89.1451 58.6326 89.1577 58.2988C89.1493 57.8214 89.3175 57.3582 89.6289 57.001C89.9814 56.6148 90.4469 56.3545 90.9563 56.2588C90.7478 56.1617 90.5693 56.0087 90.4398 55.8161C90.2981 55.6126 90.2243 55.3681 90.2294 55.1186C90.2239 54.8371 90.3067 54.561 90.4657 54.3305C90.6679 54.0632 90.9208 53.8398 91.2094 53.6737C90.7853 53.4922 90.4281 53.1797 90.188 52.7805C89.9238 52.3473 89.7892 51.8452 89.8007 51.3355C89.8007 50.4344 90.0662 49.7404 90.5974 49.2535C91.1285 48.7666 91.8804 48.5227 92.8531 48.5218C93.239 48.5168 93.6237 48.5672 93.9958 48.6716L96.7823 48.6847ZM90.3378 58.287C90.3298 58.4911 90.3771 58.6936 90.4746 58.8722C90.572 59.0508 90.7159 59.1987 90.8905 59.2998C91.258 59.5301 91.7866 59.6452 92.4761 59.6452C93.503 59.6452 94.2635 59.4889 94.7576 59.1763C95.2517 58.8637 95.4988 58.4398 95.4988 57.9047C95.4988 57.459 95.3636 57.1525 95.0934 56.9852C94.8235 56.8118 94.3186 56.7225 93.5671 56.7225H92.099C91.5438 56.7225 91.1113 56.8574 90.8014 57.1271C90.4915 57.3968 90.337 57.7834 90.3378 58.287ZM91.0041 51.3184C91.0041 51.8938 91.1642 52.3286 91.4844 52.6228C91.8046 52.9171 92.2471 53.0646 92.8118 53.0655C94.0066 53.0655 94.604 52.4757 94.604 51.2961C94.604 50.0596 94.0014 49.4418 92.7963 49.4426C92.2213 49.4426 91.7788 49.6003 91.4689 49.9155C91.159 50.2308 91.0041 50.6984 91.0041 51.3184Z" fill="white"/>
<path d="M97.1562 48.684H98.4694L100.238 53.3734C100.627 54.4427 100.868 55.2151 100.961 55.6906H101.021C101.085 55.4358 101.218 54.9979 101.422 54.377C101.626 53.7561 102.294 51.8567 103.424 48.6787H104.737L101.264 58.0406C100.919 58.9662 100.517 59.623 100.058 60.011C99.5795 60.4057 98.9777 60.6123 98.3622 60.5929C97.9897 60.592 97.6184 60.5479 97.2557 60.4615V59.4632C97.5529 59.5263 97.8559 59.5567 98.1595 59.5538C98.9997 59.5538 99.5997 59.0722 99.9595 58.1089L100.409 56.9398L97.1562 48.684Z" fill="white"/>
<path d="M30.3509 63.8954C29.1673 63.8954 28.2321 64.297 27.5451 65.1C26.8582 65.903 26.5139 67.0021 26.5122 68.3971C26.5122 69.8333 26.8427 70.9424 27.5038 71.7244C28.1649 72.5064 29.1075 72.8974 30.3316 72.8974C31.2038 72.8792 32.0695 72.7404 32.905 72.4849V73.6028C32.1578 73.8883 31.2359 74.031 30.1392 74.031C28.5519 74.031 27.3265 73.5406 26.4631 72.5598C25.5997 71.579 25.1693 70.1862 25.1719 68.3813C25.1719 67.2516 25.3798 66.2616 25.7955 65.4113C26.186 64.585 26.813 63.8981 27.5942 63.4409C28.3775 62.9812 29.3008 62.7509 30.3639 62.75C31.4941 62.75 32.4819 62.9602 33.3272 63.3805L32.7965 64.476C32.0337 64.1004 31.1984 63.9021 30.3509 63.8954Z" fill="white"/>
<path d="M42.0482 69.7622C42.0482 71.1038 41.7164 72.1503 41.0527 72.9016C40.389 73.653 39.4723 74.0295 38.3024 74.0313C37.6264 74.0434 36.9603 73.8642 36.3785 73.5137C35.8107 73.1603 35.3591 72.6432 35.0808 72.0281C34.7614 71.3178 34.6047 70.543 34.6225 69.7622C34.6225 68.4223 34.9521 67.3784 35.6115 66.6306C36.2709 65.8827 37.1851 65.5088 38.3541 65.5088C39.4852 65.5088 40.3834 65.8915 41.0488 66.6569C41.7142 67.4222 42.0474 68.4573 42.0482 69.7622ZM35.8917 69.7622C35.8917 70.813 36.0979 71.6134 36.5102 72.1634C36.9225 72.7133 37.5298 72.9883 38.3321 72.9883C39.1335 72.9883 39.7417 72.7147 40.1566 72.1673C40.5715 71.62 40.7794 70.8183 40.7803 69.7622C40.7803 68.7183 40.5724 67.9245 40.1566 67.3806C39.7408 66.8368 39.1279 66.5653 38.3179 66.5662C37.5165 66.5662 36.9118 66.8338 36.5038 67.3688C36.0957 67.9039 35.8917 68.7017 35.8917 69.7622Z" fill="white"/>
<path d="M45.3477 65.6621V70.9966C45.3477 71.6665 45.4974 72.1665 45.797 72.4967C46.0966 72.8268 46.5661 72.9919 47.2057 72.9919C48.051 72.9919 48.6691 72.7568 49.0599 72.2865C49.4507 71.8162 49.6461 71.0487 49.6461 69.9838V65.6621H50.8702V73.8838H49.8604L49.6835 72.7817H49.6177C49.3648 73.1876 49.002 73.5105 48.5731 73.7117C48.0959 73.9343 47.5756 74.0448 47.0508 74.0349C46.0677 74.0349 45.3317 73.7971 44.8428 73.3216C44.3538 72.8461 44.1094 72.086 44.1094 71.0412V65.6621H45.3477Z" fill="white"/>
<path d="M58.9951 73.8806V68.5632C58.9951 67.892 58.844 67.3928 58.5445 67.0618C58.2449 66.7308 57.7697 66.5666 57.1371 66.5666C56.2909 66.5666 55.6711 66.7995 55.2777 67.2654C54.8843 67.7313 54.6881 68.4988 54.6889 69.5681V73.8806H53.4648V65.6589H54.4591L54.6579 66.7846H54.7173C54.9741 66.3753 55.34 66.0486 55.7722 65.8428C56.2447 65.6159 56.7619 65.5018 57.2843 65.5091C58.2578 65.5091 58.9895 65.7482 59.4793 66.2263C59.9691 66.7045 60.2149 67.4681 60.2166 68.5172V73.8806H58.9951Z" fill="white"/>
<path d="M65.9665 74.0313C64.7966 74.0313 63.8928 73.6648 63.2549 72.9318C62.6171 72.1989 62.2964 71.1624 62.293 69.8226C62.293 68.4468 62.6184 67.3841 63.2691 66.6345C63.9199 65.8849 64.8478 65.5097 66.053 65.5088C66.4438 65.5112 66.8333 65.5552 67.2151 65.6401C67.5309 65.7012 67.8381 65.8023 68.1293 65.941L67.7522 66.9918C67.4651 66.8765 67.1693 66.7847 66.8677 66.7173C66.5896 66.6503 66.3052 66.6142 66.0194 66.6096C64.3778 66.6096 63.5571 67.6749 63.5571 69.8055C63.5571 70.8161 63.7572 71.5911 64.1575 72.1306C64.5578 72.67 65.1517 72.9402 65.9394 72.941C66.6498 72.9317 67.3515 72.7813 68.0053 72.4984V73.6004C67.4673 73.8877 66.7877 74.0313 65.9665 74.0313Z" fill="white"/>
<path d="M69.8266 63.4324C69.8266 63.1478 69.8955 62.9389 70.0332 62.8058C70.1739 62.6768 70.3565 62.6055 70.5458 62.6055C70.7352 62.6055 70.9178 62.6768 71.0585 62.8058C71.1347 62.8887 71.193 62.987 71.2297 63.0942C71.2664 63.2014 71.2806 63.3153 71.2715 63.4284C71.2805 63.5422 71.2661 63.6566 71.2295 63.7644C71.1928 63.8722 71.1346 63.9712 71.0585 64.055C70.9912 64.1217 70.9116 64.1743 70.8243 64.2097C70.737 64.2451 70.6437 64.2626 70.5497 64.2612C70.4544 64.2641 70.3595 64.2473 70.2707 64.2119C70.182 64.1764 70.1012 64.1231 70.0332 64.055C69.9594 63.9707 69.9031 63.8721 69.8676 63.7651C69.8321 63.6581 69.8181 63.5449 69.8266 63.4324ZM71.154 73.8819H69.9299V65.6602H71.154V73.8819Z" fill="white"/>
<path d="M74.9702 73.8815H73.7461V62.209H74.9702V73.8815Z" fill="white"/>
<path d="M5.9606 43.7627H4.68359V75.952H5.9606V43.7627Z" fill="white"/>
</g>
<path fill-rule="evenodd" clip-rule="evenodd" d="M190.102 61.9357H196.453V40.3223H190.102V61.9376V61.9357ZM219.033 40.3223H213.002V51.7229H212.974L205.135 40.3223H199.074V61.9376H205.105V50.3351H205.133L212.972 61.9376H219.033V40.3223ZM229.257 39.8584C223.894 39.8584 220.894 42.9546 220.894 46.7448C220.894 50.9404 224.595 52.4452 226.925 53.2843C228.702 53.9216 230.189 54.3836 230.189 55.4264C230.189 56.2372 229.285 56.9594 227.333 56.9594C225.032 56.9594 222.641 55.9468 221.069 54.674V60.5195C222.671 61.5906 225.265 62.3995 228.091 62.3995C233.569 62.3995 236.687 59.3617 236.687 55.2529C236.687 50.6519 232.724 49.2923 229.811 48.2797C228.093 47.6726 227.13 47.3256 227.13 46.5732C227.13 45.8208 228.004 45.3004 229.724 45.3004C231.617 45.3004 233.949 45.966 235.318 46.9202V41.3632C233.744 40.4656 231.617 39.8584 229.257 39.8584ZM238.17 61.9357H244.522V40.3223H238.17V61.9376V61.9357ZM253.496 56.2353H254.721C258.014 56.2353 260.141 54.3836 260.141 51.1422C260.141 47.9007 258.014 46.0207 254.721 46.0207H253.496V56.2353ZM266.551 51.1422C266.551 57.6533 261.597 61.9357 254.488 61.9357H247.145V40.3223H254.488C261.597 40.3223 266.551 44.6329 266.551 51.1441V51.1422ZM268.274 61.9357H283.309V56.3221H274.625V53.6312H282.434V48.5381H274.625V45.934H283.309V40.3223H268.274V61.9376V61.9357ZM293.307 50.535C294.909 50.535 296.163 49.7826 296.163 48.2779C296.163 46.7731 294.909 46.0207 293.278 46.0207H291.938V50.535H293.307ZM303.709 61.9357H296.22L292.082 55.251H291.936V61.9357H285.584V40.3223H293.335C298.785 40.3223 302.571 42.7246 302.571 47.846C302.571 49.8712 301.668 52.8223 298.054 54.327L303.707 61.9376L303.709 61.9357Z" fill="white"/>
<path fill-rule="evenodd" clip-rule="evenodd" d="M176.578 15.0772H185.883C191.058 15.0772 193.764 17.7291 193.764 20.9857C193.764 23.2338 192.485 24.7607 190.711 25.5683V25.6265C192.98 26.4341 194.259 28.2202 194.259 30.4965C194.259 33.7532 191.729 36.606 186.262 36.606H176.578V15.0772ZM185.593 23.6076C187.134 23.6076 187.833 22.83 187.833 21.9642C187.833 21.0984 187.135 20.2927 185.593 20.2927H182.86V23.6076H185.593ZM185.68 31.3886C187.308 31.3886 188.094 30.6111 188.094 29.6025C188.094 28.594 187.279 27.8164 185.71 27.8164H182.86V31.3905H185.68V31.3886ZM195.595 27.8446V15.0772H201.934V27.7864C201.934 30.1791 203.126 31.4468 205.161 31.4468C207.196 31.4468 208.476 30.1791 208.476 27.7582V15.0772H214.845V27.8446C214.845 33.263 211.182 37.1544 205.161 37.1544C199.141 37.1544 195.593 33.263 195.593 27.8446H195.595ZM230.985 16.1139V21.6468C229.619 20.6965 227.291 20.0335 225.402 20.0335C223.687 20.0335 222.813 20.5819 222.813 21.3012C222.813 22.0206 223.772 22.3962 225.489 23.0009C228.398 24.0095 232.351 25.3636 232.351 29.9462C232.351 34.0386 229.24 37.0643 223.772 37.0643C220.953 37.0643 218.364 36.2567 216.764 35.1918V29.3696C218.335 30.6374 220.719 31.6459 223.016 31.6459C224.964 31.6459 225.866 30.9247 225.866 30.119C225.866 29.0823 224.383 28.6203 222.609 27.9855C220.282 27.1497 216.59 25.651 216.59 21.4722C216.59 17.6971 219.586 14.6133 224.936 14.6133C227.291 14.6133 229.414 15.218 230.985 16.112V16.1139ZM233.979 15.0772H240.318V36.606H233.979V15.0772ZM262.856 36.606H256.807L248.984 25.05H248.956V36.606H242.937V15.0772H248.986L256.809 26.4323H256.837V15.0772H262.856V36.606ZM265.473 15.0772H280.478V20.6683H271.812V23.262H279.604V28.3348H271.812V31.0149H280.478V36.606H265.473V15.0772ZM296.385 16.1139V21.6468C295.019 20.6965 292.691 20.0335 290.802 20.0335C289.087 20.0335 288.213 20.5819 288.213 21.3012C288.213 22.0206 289.172 22.3962 290.889 23.0009C293.798 24.0095 297.751 25.3636 297.751 29.9462C297.751 34.0386 294.64 37.0643 289.172 37.0643C286.352 37.0643 283.764 36.2567 282.164 35.1918V29.3696C283.735 30.6374 286.119 31.6459 288.416 31.6459C290.364 31.6459 291.266 30.9247 291.266 30.119C291.266 29.0823 289.782 28.6203 288.009 27.9855C285.682 27.1497 281.99 25.651 281.99 21.4722C281.99 17.6971 284.986 14.6133 290.336 14.6133C292.691 14.6133 294.814 15.218 296.385 16.112V16.1139ZM313.164 16.1139V21.6468C311.797 20.6965 309.47 20.0335 307.581 20.0335C305.866 20.0335 304.992 20.5819 304.992 21.3012C304.992 22.0206 305.951 22.3962 307.668 23.0009C310.577 24.0095 314.53 25.3636 314.53 29.9462C314.53 34.0386 311.418 37.0643 305.951 37.0643C303.131 37.0643 300.543 36.2567 298.943 35.1918V29.3696C300.514 30.6374 302.898 31.6459 305.195 31.6459C307.143 31.6459 308.045 30.9247 308.045 30.119C308.045 29.0823 306.561 28.6203 304.787 27.9855C302.46 27.1497 298.769 25.651 298.769 21.4722C298.769 17.6971 301.765 14.6133 307.115 14.6133C309.47 14.6133 311.593 15.218 313.164 16.112V16.1139Z" fill="white"/>
<defs>
<clipPath id="clip0_5659_1055">
<rect width="212" height="38" fill="white" transform="translate(365 19)"/>
</clipPath>
<clipPath id="clip1_5659_1055">
<rect width="225" height="31" fill="white" transform="translate(627 23)"/>
</clipPath>
<clipPath id="clip2_5659_1055">
<rect width="129" height="28" fill="white" transform="translate(902 24)"/>
</clipPath>
<clipPath id="clip3_5659_1055">
<rect width="127" height="76" fill="white"/>
</clipPath>
</defs>
</svg>
