<svg width="115" height="58" viewBox="0 0 115 58" fill="none" xmlns="http://www.w3.org/2000/svg">
<g clip-path="url(#clip0_3505_1438)">
<path fill-rule="evenodd" clip-rule="evenodd" d="M65.5742 27.7883H64.168L60.3643 36.4938H61.921L62.8095 34.4074H66.8959L67.7734 36.4938H69.3926L65.5742 27.7883ZM66.3379 33.0593H63.3639L64.8325 29.6028L66.3379 33.0593ZM112.261 29.2575H115V27.8507H107.991V29.2575H110.73V36.4938H112.261V29.2575ZM102.165 30.1208C102.165 29.9782 102.198 29.8376 102.262 29.7101C102.325 29.5826 102.418 29.4716 102.532 29.3861C102.832 29.1687 103.198 29.0622 103.567 29.0849C103.969 29.0862 104.366 29.1635 104.738 29.3126C105.155 29.4823 105.549 29.7045 105.91 29.9738L106.725 28.8241C106.297 28.4796 105.816 28.2067 105.3 28.016C104.751 27.823 104.172 27.7285 103.589 27.7368C103.188 27.7331 102.789 27.7939 102.407 27.9168C102.066 28.0247 101.75 28.1995 101.478 28.4311C101.223 28.6518 101.017 28.9232 100.872 29.2282C100.723 29.5514 100.647 29.9041 100.652 30.2603C100.642 30.6117 100.707 30.9611 100.843 31.2852C100.968 31.5709 101.159 31.8227 101.401 32.0198C101.673 32.2324 101.978 32.3987 102.304 32.512C102.708 32.6598 103.12 32.7825 103.538 32.8793L104.522 33.1622C104.732 33.2326 104.932 33.3302 105.117 33.4524C105.245 33.5359 105.347 33.6527 105.414 33.7903C105.469 33.9228 105.497 34.0654 105.495 34.209C105.499 34.3673 105.464 34.524 105.391 34.6647C105.318 34.8054 105.211 34.9254 105.08 35.0135C104.752 35.2242 104.368 35.3281 103.978 35.311C103.474 35.3214 102.973 35.2224 102.51 35.0208C102.046 34.7977 101.617 34.5081 101.236 34.1613L100.322 35.2632C100.814 35.7162 101.388 36.0703 102.014 36.3064C102.626 36.5328 103.274 36.6473 103.927 36.6444C104.349 36.649 104.77 36.5908 105.175 36.4717C105.529 36.3689 105.859 36.1966 106.145 35.9648C106.413 35.7433 106.629 35.4647 106.776 35.1494C106.932 34.8034 107.01 34.427 107.004 34.0474C107.011 33.7236 106.95 33.4019 106.824 33.1034C106.702 32.8328 106.523 32.5921 106.299 32.3981C106.039 32.1786 105.743 32.0047 105.425 31.8839C105.032 31.7356 104.63 31.6129 104.221 31.5166L103.2 31.2337C102.977 31.1638 102.765 31.0637 102.569 30.9362C102.435 30.8507 102.326 30.7317 102.253 30.5909C102.188 30.4431 102.157 30.2822 102.165 30.1208ZM99.0146 27.8507H92.6187V36.4938H99.077V35.1237H94.1277V32.8132H98.4602V31.4431H94.1277V29.2208H99.0146V27.8507ZM90.9408 27.8507H84.523V36.4938H86.0283V32.9748H90.3864V31.6047H86.0283V29.2208H90.9408V27.8507Z" fill="white"/>
<path d="M80.6973 27.8506H82.2026V36.4973H80.6973V27.8506Z" fill="white"/>
<path fill-rule="evenodd" clip-rule="evenodd" d="M76.8825 33.8269L72.2637 27.8506H70.8575V36.4937H72.3628V30.3447L77.1175 36.4937H78.3878V27.8506H76.8825V33.8269ZM57.3756 30.2933V36.4937H58.8846V27.8506H57.2655L54.6366 31.9352L52.0078 27.8506H50.3887V36.4937H51.894V30.319L54.5999 34.3705H54.6477L57.3756 30.2933Z" fill="white"/>
<path fill-rule="evenodd" clip-rule="evenodd" d="M44.8112 27.8503H38.4153V36.4934H44.8699V35.1232H39.9207V32.8128H44.2531V31.4427H39.9207V29.2204H44.8112V27.8503ZM34.685 32.8495V36.4934H36.194V27.8503H34.685V31.4427H30.5399V27.8503H29.0345V36.4934H30.5399V32.8495H34.685ZM24.6874 29.2571H27.4264V27.8503H20.4174V29.2571H23.1564V36.4934H24.6874V29.2571ZM57.3899 38.936V56.5675H8.65015V51.66H51.6366V38.936H50.19V50.2165H8.65015V7.79088H50.1863V25.4223H51.6329V7.79088H57.3862V25.4223H58.8328V6.34364H51.6366V0H0V51.66H7.19989V58H58.8364V38.936H57.3899ZM7.19989 50.2091H1.44659V1.45092H50.1863V6.34364H7.19989V50.2091Z" fill="white"/>
</g>
<defs>
<clipPath id="clip0_3505_1438">
<rect width="115" height="58" fill="white"/>
</clipPath>
</defs>
</svg>
