<svg width="273" height="38" viewBox="0 0 273 38" fill="none" xmlns="http://www.w3.org/2000/svg">
<g clip-path="url(#clip0_5109_1280)">
<path d="M0 24.2193H3.6855V5.31084H0V0.457831H14.2415L20.475 17.2145L26.936 0.457831H41.314V5.31084H37.6285V24.2193H41.405V29.0723H26.754V24.2193H30.485V5.31084H29.8025L20.93 29.0723H17.836L8.9635 5.31084H8.281V24.2193H12.012V29.0723H0V24.2193ZM63.245 24.6313C61.1975 27.8361 57.8305 29.5301 53.5535 29.5301C46.683 29.5301 42.3605 25.6386 42.3605 19.4578C42.3605 13.2313 46.8195 8.6988 53.053 8.6988C59.0135 8.6988 63.7455 13.2771 63.245 20.4651H48.776C48.8215 22.7542 50.05 25.4554 53.6445 25.4554C55.328 25.4554 56.42 24.906 58.24 23.1205L63.245 24.6313ZM57.0115 16.894C56.693 14.3759 55.146 12.8651 52.8255 12.8651C50.505 12.8651 49.14 14.1928 48.776 16.894H57.0115ZM88.452 29.0723H78.988V26.6916C77.077 28.5687 75.3935 29.347 73.255 29.347C68.3865 29.347 64.701 24.906 64.701 19C64.701 13.1855 68.432 8.6988 73.3005 8.6988C75.53 8.6988 77.532 9.66024 78.988 11.3542V5.03614H75.9395V0.457831H85.4035V24.4482H88.452V29.0723ZM75.075 13.9181C72.709 13.9181 71.2075 15.8867 71.2075 19.1373C71.2075 22.3422 72.709 24.4482 75.1205 24.4482C77.077 24.4482 79.079 22.8916 79.079 19C79.079 16.0241 77.5775 13.9181 75.075 13.9181ZM117.436 0.457831V10.5301H112.613C112.112 9.20241 111.248 7.64578 110.429 7.00482C108.426 5.44819 107.38 5.12771 105.515 5.12771C100.419 5.12771 97.0515 9.01928 97.0515 14.8337C97.0515 20.3735 100.327 24.2193 105.06 24.2193C108.973 24.2193 111.93 21.4723 112.977 16.7566L118.573 19.4578C116.48 27.1494 110.11 29.4386 104.514 29.4386C92.365 29.4386 89.1345 20.9687 89.1345 14.7422C89.1345 6.04337 95.186 0 104.059 0C107.517 0 110.247 0.824096 112.613 2.7012V0.457831H117.436ZM120.439 9.15663H129.721V24.494H132.587V29.0723H120.393V24.494H123.259V13.7349H120.393V9.15663H120.439ZM130.085 3.43373C130.085 5.35663 128.537 6.91325 126.626 6.91325C124.715 6.91325 123.214 5.35663 123.214 3.43373C123.214 1.51084 124.67 0 126.581 0C128.492 0 130.085 1.51084 130.085 3.43373ZM132.633 9.15663H135.135V6.04337L141.551 1.51084V9.15663H145.1V13.7349H141.551V22.388C141.551 24.1277 141.824 24.4482 143.189 24.4482C143.871 24.4482 144.235 24.3566 145.1 24.0819V28.3855C143.507 29.0723 141.915 29.3928 140.368 29.3928C137.865 29.3928 135.135 28.1566 135.135 24.6313V13.7349H132.633V9.15663ZM151.379 33.3759H155.155L156.475 29.8506L149.286 13.7349H146.419V9.15663H157.885V13.7349H155.974L159.296 22.6627L162.799 13.7349H160.615V9.15663H170.671V13.7349H167.804L158.294 38H151.379V33.3759ZM178.314 4.02892H174.265V0.457831H183.956L196.242 22.7084H196.333V4.02892H192.374V0.457831H204.068V4.02892H199.882V29.347H195.423L181.954 4.94458H181.864V25.5012H185.959V29.0723H174.265V25.5012H178.314V4.02892ZM207.071 20.0988C207.662 23.9904 210.165 26.188 213.85 26.188C216.398 26.188 218.81 25.0434 220.266 22.9373L223.678 24.4482C221.54 27.7904 217.99 29.6217 213.759 29.6217C207.344 29.6217 202.748 25.2265 202.748 19.0916C202.748 12.6361 207.98 8.56145 213.122 8.56145C218.582 8.56145 223.678 12.7735 223.678 20.053H207.071V20.0988ZM219.719 17.2145C219.083 14.0554 216.307 11.7205 213.213 11.7205C210.119 11.7205 207.753 13.8723 207.207 17.2145H219.719ZM225.999 12.6361H223.587V9.20241H231.914V12.6361H229.366L233.096 24.6313H233.188L236.919 12.6361H234.735V9.20241H244.335V12.6361H242.197L245.928 24.6313H246.019L249.795 12.6361H247.02V9.20241H255.938V12.6361H253.117L247.793 29.3928H244.153L239.694 14.9711H239.603L235.008 29.3928H231.322L225.999 12.6361ZM256.757 22.2506H260.215V22.8916C260.533 24.8602 262.353 26.0964 264.947 26.0964C267.404 26.0964 268.996 25.1349 268.996 23.6241C268.996 19.9157 262.035 22.2964 258.304 18.4964C257.394 17.5807 256.757 16.1614 256.757 14.6964C256.757 11.2626 259.668 8.83614 263.718 8.83614C265.538 8.83614 267.222 9.24819 268.541 9.98072V9.20241H271.954V15.7494H268.541V14.5133C267.404 12.8193 265.948 12.0867 263.945 12.0867C261.853 12.0867 260.488 13.0482 260.488 14.5133C260.488 17.8554 268.086 15.8867 271.362 19.1831C272.545 20.3735 273.046 21.9301 273.046 23.3036C273.046 26.9205 269.997 29.347 265.492 29.347C263.354 29.347 261.716 28.8892 260.306 27.9277V29.0265H256.848V22.2506H256.757Z" fill="#A5A5A5"/>
</g>
<defs>
<clipPath id="clip0_5109_1280">
<rect width="273" height="38" fill="white"/>
</clipPath>
</defs>
</svg>
