<svg width="219" height="30" viewBox="0 0 219 30" fill="none" xmlns="http://www.w3.org/2000/svg">
<g clip-path="url(#clip0_7005_2603)">
<path d="M0.820312 19.1205H3.76331V4.19277H0.820312V0.361446H12.1926L17.1703 13.5904L22.3296 0.361446H33.811V4.19277H30.868V19.1205H33.8836V22.9518H22.1843V19.1205H25.1636V4.19277H24.6186L17.5336 22.9518H15.063L7.97798 4.19277H7.43298V19.1205H10.4123V22.9518H0.820312V19.1205ZM51.3236 19.4458C49.6886 21.9759 47 23.3133 43.5846 23.3133C38.0983 23.3133 34.6466 20.241 34.6466 15.3614C34.6466 10.4458 38.2073 6.86747 43.185 6.86747C47.9446 6.86747 51.7233 10.4819 51.3236 16.1566H39.7696C39.806 17.9639 40.787 20.0964 43.6573 20.0964C45.0016 20.0964 45.8736 19.6627 47.327 18.253L51.3236 19.4458ZM46.346 13.3373C46.0916 11.3494 44.8563 10.1566 43.0033 10.1566C41.1503 10.1566 40.0603 11.2048 39.7696 13.3373H46.346ZM71.4523 22.9518H63.895V21.0723C62.369 22.5542 61.0246 23.1687 59.317 23.1687C55.4293 23.1687 52.4863 19.6627 52.4863 15C52.4863 10.4096 55.4656 6.86747 59.3533 6.86747C61.1337 6.86747 62.7323 7.62651 63.895 8.96385V3.9759H61.4606V0.361446H69.018V19.3012H71.4523V22.9518ZM60.7703 10.988C58.881 10.988 57.682 12.5422 57.682 15.1084C57.682 17.6386 58.881 19.3012 60.8066 19.3012C62.369 19.3012 63.9676 18.0723 63.9676 15C63.9676 12.6506 62.7686 10.988 60.7703 10.988ZM94.5966 0.361446V8.31325H90.7453C90.3456 7.26506 89.6553 6.03614 89.0013 5.53012C87.4026 4.3012 86.567 4.04819 85.0773 4.04819C81.008 4.04819 78.3193 7.12048 78.3193 11.7108C78.3193 16.0843 80.9353 19.1205 84.714 19.1205C87.8386 19.1205 90.2003 16.9518 91.036 13.2289L95.505 15.3614C93.8336 21.4337 88.747 23.241 84.278 23.241C74.577 23.241 71.9973 16.5542 71.9973 11.6386C71.9973 4.77108 76.8296 0 83.9146 0C86.676 0 88.856 0.650602 90.7453 2.13253V0.361446H94.5966ZM96.9947 7.22892H104.407V19.3373H106.696V22.9518H96.9583V19.3373H99.2473V10.8434H96.9583V7.22892H96.9947ZM104.697 2.71084C104.697 4.22892 103.462 5.45783 101.936 5.45783C100.41 5.45783 99.211 4.22892 99.211 2.71084C99.211 1.19277 100.374 0 101.9 0C103.426 0 104.697 1.19277 104.697 2.71084ZM106.732 7.22892H108.73V4.77108L113.853 1.19277V7.22892H116.687V10.8434H113.853V17.6747C113.853 19.0482 114.071 19.3012 115.161 19.3012C115.706 19.3012 115.997 19.2289 116.687 19.012V22.4096C115.416 22.9518 114.144 23.2048 112.909 23.2048C110.91 23.2048 108.73 22.2289 108.73 19.4458V10.8434H106.732V7.22892ZM121.701 26.3494H124.717L125.771 23.5663L120.03 10.8434H117.741V7.22892H126.897V10.8434H125.371L128.023 17.8916L130.821 10.8434H129.077V7.22892H137.107V10.8434H134.818L127.224 30H121.701V26.3494ZM143.211 3.18072H139.977V0.361446H147.716L157.526 17.9277H157.599V3.18072H154.438V0.361446H163.775V3.18072H160.433V23.1687H156.872L146.117 3.90361H146.045V20.1325H149.315V22.9518H139.977V20.1325H143.211V3.18072ZM166.173 15.8675C166.646 18.9398 168.644 20.6747 171.587 20.6747C173.622 20.6747 175.547 19.7711 176.71 18.1084L179.435 19.3012C177.727 21.9398 174.893 23.3855 171.514 23.3855C166.391 23.3855 162.722 19.9157 162.722 15.0723C162.722 9.9759 166.9 6.75904 171.006 6.75904C175.366 6.75904 179.435 10.0843 179.435 15.8313H166.173V15.8675ZM176.274 13.5904C175.765 11.0964 173.549 9.25301 171.078 9.25301C168.608 9.25301 166.718 10.9518 166.282 13.5904H176.274ZM181.288 9.9759H179.362V7.26506H186.011V9.9759H183.977L186.956 19.4458H187.029L190.008 9.9759H188.264V7.26506H195.93V9.9759H194.223L197.202 19.4458H197.275L200.29 9.9759H198.074V7.26506H205.195V9.9759H202.943L198.692 23.2048H195.785L192.224 11.8193H192.152L188.482 23.2048H185.539L181.288 9.9759ZM205.849 17.5663H208.611V18.0723C208.865 19.6265 210.318 20.6024 212.389 20.6024C214.351 20.6024 215.623 19.8434 215.623 18.6506C215.623 15.7229 210.064 17.6024 207.085 14.6024C206.358 13.8795 205.849 12.759 205.849 11.6024C205.849 8.89157 208.175 6.9759 211.408 6.9759C212.862 6.9759 214.206 7.3012 215.26 7.87952V7.26506H217.985V12.4337H215.26V11.4578C214.351 10.1205 213.189 9.54217 211.59 9.54217C209.919 9.54217 208.829 10.3012 208.829 11.4578C208.829 14.0964 214.896 12.5422 217.512 15.1446C218.457 16.0843 218.857 17.3133 218.857 18.3976C218.857 21.253 216.422 23.1687 212.825 23.1687C211.118 23.1687 209.81 22.8072 208.683 22.0482V22.9157H205.922V17.5663H205.849Z" fill="white"/>
</g>
<defs>
<clipPath id="clip0_7005_2603">
<rect width="218" height="30" fill="white" transform="translate(0.816406)"/>
</clipPath>
</defs>
</svg>
