<svg width="19" height="19" viewBox="0 0 19 19" fill="none" xmlns="http://www.w3.org/2000/svg">
<path d="M9.04874 0.945682C9.22986 0.566121 9.77014 0.566122 9.95126 0.945683L12.4073 6.09269C12.4802 6.24544 12.6254 6.35095 12.7932 6.37307L18.4473 7.11838C18.8642 7.17334 19.0312 7.68718 18.7261 7.97673L14.59 11.9031C14.4672 12.0196 14.4118 12.1903 14.4426 12.3567L15.481 17.9644C15.5575 18.3779 15.1204 18.6955 14.7508 18.4948L9.73851 15.7744C9.58975 15.6937 9.41025 15.6937 9.26149 15.7744L4.24919 18.4948C3.87956 18.6955 3.44247 18.3779 3.51904 17.9644L4.5574 12.3567C4.58822 12.1903 4.53275 12.0196 4.41 11.9031L0.273858 7.97672C-0.0311579 7.68718 0.135799 7.17334 0.552751 7.11838L6.2068 6.37307C6.3746 6.35095 6.51982 6.24544 6.59271 6.09269L9.04874 0.945682Z" fill="#0057B8"/>
</svg>
