<svg width="205" height="37" viewBox="0 0 205 37" fill="none" xmlns="http://www.w3.org/2000/svg">
<g clip-path="url(#clip0_7005_2589)">
<path d="M68.5047 12.659H61.6793V30.1648H56.7551V12.659H49.9609V7.92188H68.5047V12.659Z" fill="white"/>
<path d="M70.253 20.4975H76.455C76.4135 19.7865 76.133 19.1695 75.6135 18.6466C75.1149 18.1237 74.3565 17.8622 73.3385 17.8622C72.4242 17.8622 71.697 18.1342 71.1568 18.6779C70.6166 19.2217 70.3153 19.8283 70.253 20.4975ZM76.7979 24.5446L80.7559 25.674C80.3612 27.1171 79.5405 28.3092 78.2938 29.2504C77.0471 30.1706 75.4889 30.6307 73.6189 30.6307C71.375 30.6307 69.4635 29.8778 67.8844 28.372C66.3261 26.8661 65.5469 24.8478 65.5469 22.3171C65.5469 19.891 66.3053 17.9146 67.8221 16.3878C69.3595 14.861 71.1776 14.0977 73.2761 14.0977C75.6862 14.0977 77.577 14.8088 78.9483 16.2309C80.3403 17.6322 81.0364 19.5877 81.0364 22.0976C81.0364 22.8923 81.0053 23.3838 80.9429 23.572H70.1595C70.201 24.4295 70.5647 25.1511 71.2503 25.7367C71.9359 26.3014 72.7462 26.5838 73.6812 26.5838C75.2811 26.5838 76.32 25.904 76.7979 24.5446Z" fill="white"/>
<path d="M89.6536 18.4898C88.6355 18.4898 87.7836 18.8348 87.098 19.5251C86.433 20.2152 86.1006 21.1668 86.1006 22.3798C86.1006 23.572 86.4435 24.5132 87.1291 25.2034C87.8356 25.8935 88.6979 26.2387 89.7159 26.2387C90.5677 26.2387 91.2638 26.019 91.8041 25.5799C92.365 25.1198 92.7391 24.5655 92.926 23.9172L97.1023 25.2034C96.7282 26.6883 95.8868 27.9641 94.5779 29.0308C93.2896 30.0975 91.6689 30.6307 89.7159 30.6307C87.3888 30.6307 85.415 29.8569 83.7944 28.3092C82.1945 26.7406 81.3945 24.7642 81.3945 22.3798C81.3945 19.9746 82.1738 17.9983 83.7321 16.4505C85.3111 14.8819 87.2538 14.0977 89.5601 14.0977C91.5755 14.0977 93.2273 14.6205 94.5155 15.6662C95.8036 16.712 96.6347 17.9983 97.0088 19.5251L92.7702 20.8113C92.5832 20.1419 92.23 19.5877 91.7106 19.1485C91.1911 18.7093 90.5054 18.4898 89.6536 18.4898Z" fill="white"/>
<path d="M103.167 21.002V30.1627H98.4297V7.44922H103.167V15.5746C104.102 14.6334 105.421 14.1629 107.125 14.1629C109.057 14.1629 110.512 14.7485 111.488 15.9197C112.486 17.07 112.985 18.555 112.985 20.3746V30.1627H108.247V21.1903C108.247 20.3746 108.029 19.7262 107.593 19.2452C107.177 18.7431 106.554 18.4922 105.723 18.4922C104.995 18.4922 104.393 18.7327 103.915 19.2138C103.458 19.6739 103.208 20.2699 103.167 21.002Z" fill="white"/>
<path d="M122.514 26.2387C123.49 26.2387 124.31 25.904 124.975 25.2347C125.661 24.5655 126.004 23.6034 126.004 22.3485C126.004 21.0936 125.661 20.1419 124.975 19.4937C124.31 18.8244 123.49 18.4898 122.514 18.4898C121.558 18.4898 120.737 18.8244 120.051 19.4937C119.366 20.1629 119.022 21.1145 119.022 22.3485C119.022 23.5824 119.366 24.5446 120.051 25.2347C120.737 25.904 121.558 26.2387 122.514 26.2387ZM122.514 14.0977C124.861 14.0977 126.814 14.8714 128.372 16.4192C129.952 17.9669 130.741 19.9433 130.741 22.3485C130.741 24.7537 129.952 26.7406 128.372 28.3092C126.814 29.8569 124.861 30.6307 122.514 30.6307C120.187 30.6307 118.233 29.8465 116.654 28.2779C115.075 26.7092 114.285 24.7328 114.285 22.3485C114.285 19.9642 115.075 17.9983 116.654 16.4505C118.233 14.8819 120.187 14.0977 122.514 14.0977Z" fill="white"/>
<path d="M136.975 36.1244H132.238V14.5717H136.819V16.1717C137.173 15.628 137.754 15.1678 138.565 14.7913C139.395 14.394 140.33 14.1953 141.369 14.1953C143.572 14.1953 145.318 14.9587 146.605 16.4854C147.915 17.9913 148.569 19.9364 148.569 22.3206C148.569 24.705 147.873 26.6709 146.481 28.2186C145.109 29.7454 143.344 30.5088 141.183 30.5088C139.229 30.5088 137.827 29.9859 136.975 28.9402V36.1244ZM142.897 25.2383C143.583 24.5481 143.925 23.586 143.925 22.352C143.925 21.118 143.583 20.1664 142.897 19.4972C142.231 18.8279 141.401 18.4933 140.403 18.4933C139.427 18.4933 138.596 18.8279 137.911 19.4972C137.245 20.1664 136.913 21.118 136.913 22.352C136.913 23.586 137.245 24.5481 137.911 25.2383C138.596 25.9076 139.427 26.2422 140.403 26.2422C141.401 26.2422 142.231 25.9076 142.897 25.2383Z" fill="white"/>
<path d="M153.644 20.4975H159.846C159.805 19.7865 159.524 19.1695 159.004 18.6466C158.507 18.1237 157.748 17.8622 156.73 17.8622C155.816 17.8622 155.088 18.1342 154.548 18.6779C154.007 19.2217 153.707 19.8283 153.644 20.4975ZM160.19 24.5446L164.147 25.674C163.753 27.1171 162.932 28.3092 161.685 29.2504C160.438 30.1706 158.88 30.6307 157.01 30.6307C154.766 30.6307 152.854 29.8778 151.276 28.372C149.717 26.8661 148.938 24.8478 148.938 22.3171C148.938 19.891 149.696 17.9146 151.213 16.3878C152.751 14.861 154.569 14.0977 156.667 14.0977C159.077 14.0977 160.968 14.8088 162.339 16.2309C163.732 17.6322 164.428 19.5877 164.428 22.0976C164.428 22.8923 164.397 23.3838 164.334 23.572H153.55C153.592 24.4295 153.956 25.1511 154.642 25.7367C155.327 26.3014 156.137 26.5838 157.073 26.5838C158.672 26.5838 159.711 25.904 160.19 24.5446Z" fill="white"/>
<path d="M181.156 7.44922V27.3706C181.156 28.3117 181.196 29.2424 181.28 30.1627H176.729C176.646 29.6607 176.604 29.1588 176.604 28.6568C176.231 29.2006 175.669 29.6503 174.922 30.0058C174.195 30.3404 173.374 30.5077 172.46 30.5077C170.257 30.5077 168.429 29.7444 166.975 28.2176C165.52 26.6699 164.793 24.7039 164.793 22.3196C164.793 19.9771 165.499 18.0426 166.912 16.5158C168.325 14.968 170.123 14.1943 172.303 14.1943C174.424 14.1943 175.815 14.7276 176.48 15.7942V7.44922H181.156ZM170.559 19.4962C169.894 20.1654 169.561 21.117 169.561 22.351C169.561 23.5849 169.894 24.5471 170.559 25.2372C171.244 25.9065 172.075 26.2411 173.051 26.2411C174.028 26.2411 174.849 25.9065 175.514 25.2372C176.199 24.5471 176.543 23.5849 176.543 22.351C176.543 21.117 176.199 20.1654 175.514 19.4962C174.849 18.8269 174.028 18.4922 173.051 18.4922C172.075 18.4922 171.244 18.8269 170.559 19.4962Z" fill="white"/>
<path d="M188.6 30.1605H183.862V14.5685H188.6V30.1605ZM184.268 11.7764C183.727 11.2327 183.457 10.5738 183.457 9.79989C183.457 9.02613 183.727 8.36727 184.268 7.82349C184.807 7.27971 185.452 7.00781 186.2 7.00781C186.968 7.00781 187.623 7.27971 188.163 7.82349C188.724 8.36727 189.005 9.02613 189.005 9.79989C189.005 10.5738 188.724 11.2327 188.163 11.7764C187.623 12.3202 186.968 12.592 186.2 12.592C185.452 12.592 184.807 12.3202 184.268 11.7764Z" fill="white"/>
<path d="M190.258 25.8621C190.258 24.5446 190.684 23.4883 191.535 22.6936C192.387 21.8779 193.488 21.3655 194.839 21.1564L198.485 20.5916C199.233 20.4871 199.608 20.1315 199.608 19.5251C199.608 19.044 199.4 18.6466 198.984 18.3329C198.589 17.9983 198.039 17.8309 197.332 17.8309C196.542 17.8309 195.909 18.061 195.431 18.5211C194.974 18.9603 194.725 19.4937 194.683 20.1211L190.57 19.274C190.673 17.9773 191.307 16.7957 192.471 15.729C193.655 14.6414 195.286 14.0977 197.363 14.0977C199.711 14.0977 201.436 14.6623 202.537 15.7917C203.659 16.9211 204.22 18.3642 204.22 20.1211V27.7445C204.22 28.7275 204.282 29.5327 204.407 30.1602H200.137C200.034 29.7419 199.981 29.1563 199.981 28.4034C199.088 29.8674 197.634 30.5994 195.618 30.5994C193.977 30.5994 192.668 30.1393 191.692 29.219C190.736 28.2779 190.258 27.1589 190.258 25.8621ZM196.772 27.1484C197.582 27.1484 198.257 26.908 198.797 26.4269C199.338 25.9458 199.608 25.1511 199.608 24.0425V23.3524L196.678 23.823C195.515 24.0112 194.932 24.5864 194.932 25.5485C194.932 25.9876 195.078 26.3642 195.368 26.6778C195.68 26.9916 196.148 27.1484 196.772 27.1484Z" fill="white"/>
<path d="M27.5504 20.9406C27.5506 21.2114 27.6215 21.4773 27.756 21.7118C27.8906 21.9462 28.084 22.1409 28.317 22.2763L33.142 25.0799C33.3748 25.2151 33.639 25.2862 33.9077 25.286C34.1765 25.2859 34.4405 25.2145 34.6731 25.0793C34.9058 24.9439 35.0991 24.7493 35.2334 24.5149C35.3677 24.2807 35.4384 24.0148 35.4384 23.7443V8.96737C35.4384 8.69707 35.3678 8.43139 35.2336 8.19723C35.0993 7.96306 34.9061 7.7686 34.6735 7.63341L21.9604 0.249042C21.7277 0.113981 21.4638 0.0429133 21.1951 0.0429688C20.9266 0.0430242 20.6627 0.114203 20.43 0.249353C20.1974 0.384514 20.0041 0.578879 19.8697 0.812969C19.7352 1.04706 19.6643 1.31264 19.6641 1.58304V7.19202C19.6642 7.46257 19.7349 7.72835 19.8691 7.96275C20.0034 8.19714 20.1964 8.39193 20.429 8.52765L26.7839 12.2174C27.0167 12.3523 27.21 12.5467 27.3443 12.781C27.4787 13.0152 27.5492 13.281 27.5488 13.5514L27.5504 20.9406Z" fill="white"/>
<path d="M18.1302 19.0223V26.4116C18.1301 26.6822 18.2007 26.9481 18.3349 27.1826C18.4692 27.417 18.6624 27.6117 18.8951 27.7472L23.7202 30.5509C23.953 30.686 24.2171 30.7571 24.4859 30.757C24.7546 30.7568 25.0186 30.6855 25.2513 30.5501C25.4841 30.4148 25.6773 30.2202 25.8116 29.9859C25.9459 29.7516 26.0166 29.4858 26.0166 29.2152V14.4383C26.0165 14.1676 25.9456 13.9016 25.811 13.6672C25.6765 13.4327 25.483 13.238 25.25 13.1027L12.5386 5.71507C12.3059 5.57949 12.0419 5.508 11.7731 5.50781C11.5043 5.50761 11.2402 5.57872 11.0074 5.71397C10.7746 5.84922 10.5812 6.04383 10.4469 6.27821C10.3126 6.5126 10.242 6.77848 10.2422 7.04907V12.6581C10.2418 12.9285 10.3123 13.1943 10.4466 13.4285C10.5809 13.6627 10.7743 13.8571 11.0071 13.9921L17.3652 17.6867C17.5979 17.8223 17.7911 18.0171 17.9253 18.2515C18.0596 18.4858 18.1302 18.7517 18.1302 19.0223Z" fill="white"/>
<path d="M15.8259 18.5849L3.11282 11.2022C2.87998 11.0671 2.61592 10.996 2.34717 10.9961C2.0784 10.9962 1.81441 11.0675 1.58171 11.2029C1.349 11.3382 1.15577 11.5328 1.02144 11.7672C0.887106 12.0015 0.816392 12.2672 0.816406 12.5377V27.3163C0.816348 27.5867 0.88701 27.8524 1.02129 28.0865C1.15556 28.3207 1.34872 28.5152 1.58133 28.6503L9.46937 33.2278L14.2945 36.0314C14.5271 36.167 14.7911 36.2385 15.0598 36.2387C15.3287 36.2389 15.5928 36.1678 15.8256 36.0325C16.0585 35.8973 16.2518 35.7027 16.3862 35.4683C16.5204 35.234 16.591 34.968 16.5908 34.6975V19.9205C16.5907 19.65 16.52 19.3842 16.3857 19.1498C16.2514 18.9154 16.0584 18.7206 15.8259 18.5849Z" fill="white"/>
</g>
<defs>
<clipPath id="clip0_7005_2589">
<rect width="204" height="37" fill="white" transform="translate(0.816406)"/>
</clipPath>
</defs>
</svg>
