<svg width="56" height="47" viewBox="0 0 56 47" fill="none" xmlns="http://www.w3.org/2000/svg">
<g clip-path="url(#clip0_2010_551)">
<path d="M4.4637 31.1698C1.89561 30.7161 0.4794 29.2056 0.500226 26.9937C0.519451 24.8799 1.99494 23.3468 4.42205 22.972C4.43486 22.8159 4.4605 22.6454 4.4605 22.4733C4.4653 21.5097 4.45729 20.5461 4.4637 19.5825C4.47491 17.8242 5.81102 16.8236 7.49798 17.3191C9.22179 17.8242 10.9408 18.347 12.6614 18.8634C12.8697 18.9262 13.0779 18.9873 13.259 19.0404C13.613 17.4848 13.9623 15.9485 14.3243 14.3575C13.6563 14.1452 12.9401 13.9055 12.2176 13.6899C11.7851 13.5612 11.3589 13.3489 11.3974 12.8743C11.4246 12.5317 11.6505 12.1086 11.9228 11.8947C13.5633 10.6142 15.2375 9.3787 16.9084 8.1368C17.663 7.57537 18.2686 7.76359 18.5666 8.65158C19.2346 10.6447 19.885 12.6443 20.5531 14.6374C20.6925 15.0541 20.7293 15.4933 20.3528 15.7265C20.0693 15.9019 19.6255 15.9775 19.3051 15.8954C18.2638 15.6284 17.2465 15.2697 16.0545 14.8932C15.7037 16.4665 15.3625 17.9915 15.0116 19.5664C16.6473 20.0619 18.1628 20.4818 19.6511 20.9821C21.0129 21.4389 22.3858 21.6464 23.8245 21.5934C25.3416 21.537 26.8636 21.5596 28.3823 21.595C30.6156 21.6464 32.4227 23.239 32.8056 25.4397C33.1853 27.6227 31.9981 29.7638 29.9491 30.581C29.712 30.6759 29.4653 30.7499 29.2042 30.84V40.1542C30.6044 40.3489 32.0142 40.6545 33.4368 40.7221C43.0907 41.1838 51.5368 34.4917 53.3839 24.9732C55.3977 14.5956 48.3022 4.27277 37.8729 2.44371C36.7947 2.25388 35.6925 2.19115 34.5983 2.1075C33.8469 2.04958 33.4544 1.7552 33.4736 1.1616C33.4897 0.592125 33.8838 0.288086 34.6015 0.288086C44.1785 0.296129 52.8296 7.2472 54.9619 16.6499C57.6374 28.4495 50.0613 39.9933 38.1869 42.2133C35.316 42.7506 32.4627 42.6686 29.6207 42.0155C29.5054 41.9881 29.3884 41.9704 29.2298 41.9398C29.1785 42.223 29.1321 42.49 29.0808 42.7587C28.6707 44.9239 26.7114 46.4377 24.523 46.2784C22.3362 46.1192 20.5931 44.3319 20.5307 42.1329C20.4906 40.7092 20.5371 39.2823 20.4986 37.8586C20.4906 37.5803 20.3272 37.2602 20.1398 37.043C19.2106 35.9701 18.2269 34.9437 17.3105 33.8595C17.0446 33.5458 16.8492 33.4702 16.4631 33.5892C13.5425 34.4804 10.5931 35.288 7.69504 36.2484C5.93598 36.8307 4.29068 35.6821 4.44928 33.7967C4.52298 32.9232 4.4621 32.0401 4.4621 31.1714L4.4637 31.1698ZM20.3256 23.1119C20.2054 23.0556 20.1382 23.0122 20.0645 22.9913C15.7085 21.6818 11.3525 20.3708 6.99494 19.0693C6.43422 18.902 6.26921 19.0597 6.26761 19.7128C6.26601 24.4262 6.26601 29.1412 6.26761 33.8547C6.26761 34.5898 6.42621 34.7073 7.13432 34.4965C9.7729 33.7083 12.4099 32.9168 15.0468 32.1253C16.8203 31.5929 18.5938 31.0588 20.3256 30.5376V23.1119ZM22.3442 30.9349C22.3442 34.77 22.3073 38.5391 22.3682 42.3066C22.3842 43.3297 23.0972 44.0263 24.0728 44.3464C25.7405 44.8934 27.3602 43.6611 27.3682 41.8321C27.3826 38.3622 27.373 34.8922 27.3714 31.4223C27.3714 31.2679 27.349 31.1151 27.333 30.9349H22.3442ZM22.1439 23.4144V29.0608C24.3516 29.0608 26.5239 29.1284 28.6899 29.0351C30.0292 28.9772 31.085 27.6194 31.0866 26.2408C31.0866 24.8364 30.0052 23.4868 28.6354 23.4337C26.4871 23.3516 24.3339 23.4112 22.1439 23.4112V23.4144ZM4.44768 24.8734C3.20449 24.8783 2.27049 25.8917 2.30734 27.1465C2.34258 28.3256 3.33906 29.3021 4.44768 29.2265V24.8734ZM14.2202 12.4159C15.6204 12.855 16.9164 13.262 18.3375 13.7076C17.9289 12.4738 17.5621 11.3702 17.176 10.2039C16.1731 10.9536 15.2375 11.655 14.2202 12.4159ZM20.4698 34.8842V32.4004C19.9059 32.5693 19.4028 32.7189 18.794 32.9023C19.358 33.5699 19.8626 34.1667 20.4698 34.8842Z" fill="#014898"/>
<path d="M35.0622 20.7284C35.3537 20.7284 35.5684 20.7284 35.7831 20.7284C37.8193 20.7284 39.8555 20.7251 41.8933 20.73C42.5582 20.7316 42.9539 21.0614 42.9699 21.5938C42.9875 22.152 42.5742 22.5285 41.8901 22.5317C39.3749 22.5397 36.8581 22.5397 34.3429 22.5317C33.5803 22.5285 33.2615 22.1922 33.2599 21.4153C33.2551 17.807 33.2567 14.1988 33.2599 10.5905C33.2599 9.92451 33.5899 9.53521 34.1314 9.51912C34.7049 9.50143 35.0574 9.89716 35.059 10.5921C35.0638 13.7194 35.0606 16.8466 35.0606 19.9739C35.0606 20.1927 35.0606 20.4131 35.0606 20.73L35.0622 20.7284Z" fill="#014898"/>
</g>
<defs>
<clipPath id="clip0_2010_551">
<rect width="55" height="46" fill="white" transform="translate(0.5 0.288086)"/>
</clipPath>
</defs>
</svg>
