<svg width="465" height="316" viewBox="0 0 465 316" fill="none" xmlns="http://www.w3.org/2000/svg">
<path d="M129.397 16.2069C129.083 14.8221 129.172 13.387 129.839 11.9269C131.845 7.53501 133.645 9.46058 138.297 7.87951C150.116 3.86182 160.477 5.81933 172.584 6.9692C178.741 7.55326 185.864 8.29931 191.927 6.63839C195.926 5.54327 201.382 0.412214 205.322 1.05559C218.031 3.13403 205.898 7.8818 203.514 10.6333C196.218 19.0542 198.19 28.0227 188.549 34.1599C181.994 38.3305 178.381 36.8886 171.517 38.0909C169.424 54.2826 156.388 50.6072 156.188 37.119C156.036 26.8318 168.999 16.0678 150.284 11.3702C149.188 17.261 144.629 20.3775 139.289 22.0088C142.231 27.4912 148.348 29.9004 147.006 37.4567C145.445 46.2495 140.934 44.7027 134.93 43.8608C127.761 42.857 125.216 40.5914 117.178 42.9072C106.892 45.8708 99.8716 59.1331 113.313 64.9509C128.735 71.6265 119.901 52.3251 129.145 47.3013C138.561 42.1816 148.797 63.8033 149.39 71.2774C150.178 81.2224 145.561 78.0397 139.967 81.5989C135.349 84.5374 132.466 88.7331 127.165 91.3225C122.866 93.4215 119.796 93.0428 116.482 96.3601C115.226 97.6172 115.918 102.137 114.482 103.866C110.858 108.231 109.789 105.429 106.847 107.854C101.737 112.073 101.846 110.085 99.933 116.738C98.4155 122.015 102.138 126.9 95.483 128.077C92.2069 111.085 66.401 125.027 72.8713 141.319C77.3895 140.466 82.0784 137.817 86.6035 139.45C86.219 142.521 84.9427 146.172 83.2956 149.119C93.5765 149.398 86.8469 156.356 90.1799 160.584C93.4855 164.777 98.568 163.821 103.605 164.503C103.603 169.687 99.0821 174.04 97.2029 178.927C93.9382 187.412 92.2866 199.85 95.2009 208.636C98.0629 217.265 105.652 218.607 110.947 224.853C117.403 232.476 115.397 237.057 115.374 247.746C115.344 261.674 115.328 274.74 114.969 288.055C114.684 298.5 119.053 306.054 127.973 311.052C132.45 313.562 140.249 317.447 142.188 311.315C136.632 309.503 131.281 305.324 129.55 300.179C125.905 289.346 129.807 285.945 134.509 277.309C135.895 274.765 135.28 271.04 137.28 268.635C139.125 266.417 142.404 266.915 144.178 264.763C149.657 258.133 149.843 247.889 152.569 239.594C155.979 238.992 159.587 238.446 163.059 238.275C164.251 232.496 163.184 226.932 164.97 221.109C167.816 211.831 175.158 207.195 167.042 198.096C161.728 192.139 153.287 190.939 147.595 185.014C140.554 177.688 139.121 176.007 130.876 171.295C123.609 167.143 118.384 160.214 108.719 162.156C103.705 163.164 101.373 168.708 97.6716 169.429C91.3151 170.666 92.5141 166.805 89.0401 163.814C86.9356 162.003 85.1111 159.826 82.7063 158.168C81.2116 157.137 77.8855 158.667 75.9426 157.442C73.076 155.638 71.0717 151.577 68.2575 149.514C65.0679 147.178 61.5552 148.061 58.5498 143.904C52.9373 136.142 58.3747 126.104 48.4327 119.517C45.7663 125.511 54.3546 132.419 51.5017 139.519C42.3651 137.967 44.5856 130.135 42.1422 123.916C38.9275 115.737 35.1873 109.527 37.8332 99.3306C39.3916 93.3234 45.1407 89.381 46.6104 83.4993C48.7557 74.9004 42.2627 75.4229 40.5678 70.2051C38.8638 64.9646 44.87 61.0792 38.816 55.1405C35.0827 51.481 28.4282 51.5814 23.9122 53.2217C16.3909 55.955 8.15973 78.925 1.70996 67.3076C8.61929 59.7924 5.76865 51.9373 13.9907 45.1339C18.4407 41.4516 24.9746 33.8725 30.0616 31.2625C41.1753 25.5633 58.9229 27.9452 70.1094 29.6768C75.499 30.5118 80.6269 30.6396 85.9915 28.9011C88.0504 28.2349 90.5484 28.4882 92.5732 27.5642C94.5957 26.6424 92.3321 23.3548 94.5889 22.5563C96.9891 21.7099 100.568 24.1602 102.376 23.3366C104.376 22.4263 105.855 20.357 106.51 20.0216C114.152 16.1316 108.223 15.0434 117.201 19.1204C117.201 19.1204 127.509 19.7044 129.409 16.1932" stroke="#D5D5D5" stroke-width="1.5" stroke-linecap="round" stroke-linejoin="round"/>
<path d="M215.84 52.357C213.378 55.3115 211.886 59.2471 212.245 63.4587C229.897 63.7006 212.912 77.3347 221.309 81.5577C223.456 90.4943 212.693 85.8971 210.229 91.2746C208.835 94.3181 212.252 105.605 214.859 106.738C224.296 110.85 223.34 98.4864 226.073 93.9553C229.256 88.676 236.529 87.5717 241.903 86.1595C240.679 89.5931 239.75 93.0336 240.979 96.3555C243.215 94.9295 246.464 93.0884 249.124 91.7583C250.218 95.5387 248.163 99.545 246.678 102.75C252.429 105.919 267.144 91.6967 273.619 104.081C277.35 111.219 270.762 113.423 266.264 114.003C263.522 114.356 260.144 111.646 256.811 112.237C253.367 112.848 256.957 117.211 252.675 117.338C238.14 117.772 246.018 96.5745 228.127 102.719C225.163 103.736 224.294 106.456 221.211 107.656C215.102 110.033 212.691 107.083 208.402 114.263C205.534 119.065 204.091 124.97 200.39 130.126C193.262 140.048 192.786 151.878 196.329 163.878C202.146 183.59 228.773 171.257 238.601 184.083C239.509 185.267 241.941 192.906 242.676 194.667C244.746 199.631 246.393 201.324 246.717 207.236C246.908 210.713 247.513 216.795 247.306 219.841C246.817 227.021 240.663 236.571 242.967 243.835C244.482 248.613 249.337 249.356 252.106 252.804C254.641 255.957 255.935 264.197 258.863 265.979C264.002 269.107 268.468 265.169 270.93 260.8C272.165 258.606 270.948 255.982 271.942 254.081C273.908 250.321 277.91 248.651 279.753 245.419C283.097 239.546 279.982 235.362 282 230.34C284.391 224.395 292.042 224.119 294.135 216.93C298.929 200.476 278.494 200.095 294.327 187.576C300.33 182.828 310.766 174.464 308.473 165.078C306.933 158.768 303.515 158.688 298.096 155.432C285.388 147.794 282.098 142.284 276.499 128.707C282.662 126.168 287.058 140.726 291.114 145.118C295.337 149.69 298.308 152.033 303.745 155.022C309.553 150.073 322.071 143.121 317.987 135.588C314.042 128.31 303.07 130.525 299.07 122.825C303.468 115.406 312.575 127.546 318.767 129.156C321.839 129.955 328.541 128.746 331.046 130.359C334.026 132.277 334.279 137.767 336.9 140.461C337.643 140.466 338.146 140.11 338.406 139.393C345.779 148.469 342.207 164.045 350.402 172.961C354.299 171.279 351.653 170.739 355.969 173.385C355.507 169.142 350.395 160.705 351.253 157.006C352.126 153.237 354.631 153.73 356.015 150.821C358.326 145.959 362.437 135.513 369.251 135.939C376.815 136.414 379.58 151.321 381.586 156.801C384.036 163.49 388.464 171.437 378.553 174.478C378.815 180.088 384.082 180.054 386.782 184.003C389.537 188.032 389.378 193.955 392.777 198.114C396.881 203.138 396.165 200.437 401.627 203.829C404.855 205.835 407.861 206.816 409.46 210.76C413.548 208.137 418.795 206.202 423.39 207.63C422.603 201.945 419.832 204.224 415.887 203.2C407.449 201.012 405.47 204.947 399.138 197.603C395.778 193.706 393.407 183.921 392.356 178.886C391.221 173.447 386.255 163.908 386.994 158.87C392.454 157.303 394.574 162.881 398.017 166.253C409.785 155.523 394.713 149.989 395.259 139.576C395.666 131.812 399.491 134.03 405.121 130.06C411.048 125.882 413.048 128.846 413.614 117.439C413.83 113.081 413.475 111.279 412.345 107.231C411.116 102.833 404.926 101.087 411.428 96.3349C416.039 98.5662 416.363 102.896 418.817 106.583C422.489 102.182 419.577 98.3746 421.195 93.8732C421.645 92.6184 427.121 88.0098 427.112 88.0691C428.043 81.8064 425.422 79.0504 424.255 73.1254C424.234 71.0082 424.641 68.9594 425.476 66.9791C424.762 64.0953 422.944 62.2495 420.028 61.4419C419.852 58.0174 415.384 57.5953 420.103 54.4241C426.887 49.8634 430.652 57.1892 433.435 61.4351C435.682 64.8641 436.458 68.4483 439.313 71.7976C442.082 75.0441 445.376 72.9885 446.725 78.1287C448.768 66.3129 442.178 62.2518 439.402 52.4278C444.614 52.2544 457.197 46.521 456.001 39.583C454.445 30.5643 443.404 35.9554 437.088 35.6178C428.102 35.1364 422.323 29.0517 414.106 27.4364C408.762 26.3869 404.371 29.0083 398.512 27.539C396.49 27.0325 395.478 24.0141 393.116 23.3753C387.18 21.7737 386.168 23.6993 381.748 24.3951C380.06 24.6598 377.632 27.6349 375.082 28.0638C369.385 29.022 363.873 22.8939 358.499 22.9464C347.497 23.0491 349.31 27.6485 338.44 18.8831C333.517 14.9133 327.583 7.33877 320.683 10.6766C327.442 21.4885 293.007 31.6822 286.17 30.854C286.152 25.8393 291.669 23.3525 293.478 18.9036C281.115 6.85053 280.39 35.4923 269.246 38.1662C262.731 29.7931 253.062 28.892 243.811 33.9021C241.397 35.2094 233.303 41.2804 232.607 43.7421C230.905 49.7539 236.806 49.1561 237.334 53.4727C238.201 60.5795 230.805 65.106 225.147 62.7058C225.147 62.7058 215.865 56.0142 215.855 52.3593L215.84 52.357Z" stroke="#D5D5D5" stroke-width="1.5" stroke-linecap="round" stroke-linejoin="round"/>
<path d="M420.437 223.804C421.056 231.611 409.947 231.764 408.134 239.571C402.715 240.938 401.279 245.047 400.822 250.036C400.742 250.919 401.846 264.296 401.689 264.111C405.891 269.078 421.216 254.853 429.285 259.327C432.75 261.248 430.673 263.34 432.57 265.493C432.771 265.722 437.284 271.423 437.25 271.352C438.108 273.086 440.296 285.274 443.791 284.761C449.469 283.925 444.351 279.486 445.615 277.207C448.628 271.777 448.785 274.704 454.19 270.456C458.795 266.837 462.082 258.847 463.463 252.863C465.82 242.644 460.924 239.14 458.824 229.973C457.239 223.051 458.708 215.709 456.993 208.931C465.279 210.416 464.259 197.252 460.148 193.161C456.875 189.903 440.374 184.884 435.491 187.175C436.09 191.336 440.517 193.428 442.926 196.618C444.064 198.121 442.016 201.217 443.707 203.097C444.485 203.964 448.35 203.2 448.978 204.153C453.58 211.16 445.181 215.618 448.396 224.728C440.965 222.175 446.721 216.175 442.769 211.769C436.395 204.664 436.545 212.182 432.209 214.933C429.369 216.736 424.116 216.533 421.825 218.141C415.787 222.385 421.384 225.465 420.44 223.802L420.437 223.804Z" stroke="#D5D5D5" stroke-width="1.5" stroke-linecap="round" stroke-linejoin="round"/>
<path d="M251.185 73.5321C249.079 73.5321 247.649 72.4791 247.649 69.6061V68.1501C247.649 66.6811 247.649 65.2121 247.61 63.7431H249.222C249.196 65.1991 249.196 66.6551 249.196 68.1501V69.4111C249.196 71.8161 250.08 72.6871 251.601 72.6871C253.265 72.6871 254.11 71.7121 254.097 69.2811L254.071 63.7431H254.656L254.617 69.4501C254.591 72.2321 253.395 73.5321 251.185 73.5321ZM246.427 64.1591V63.7431H250.574V64.1591L248.637 64.3151H248.312L246.427 64.1591ZM252.537 64.1591V63.7431H255.943V64.1591L254.513 64.3281H254.175L252.537 64.1591ZM258.024 73.2981C258.063 71.8421 258.063 70.3601 258.063 68.8521V68.2021C258.063 66.7071 258.063 65.2251 258.024 63.7431H259.584C259.558 65.1991 259.558 66.6941 259.558 68.2021V69.3851C259.558 70.4511 259.558 71.8291 259.584 73.2981H258.024ZM256.763 73.2981V72.8951L258.674 72.7131H258.986L260.78 72.8951V73.2981H256.763ZM256.763 64.1591V63.7431H260.858V64.1591L258.986 64.3151H258.674L256.763 64.1591ZM262.145 73.2981V72.8951L263.926 72.7131H264.186L265.902 72.8951V73.2981H262.145ZM262.184 64.1591V63.7431H265.486V64.1591L264.069 64.3151L263.757 64.3411L262.184 64.1591ZM258.778 70.8021L258.739 70.0091H258.921L259.194 69.6581L264.017 63.7431H264.667L258.778 70.8021ZM263.497 73.2981L260.728 68.1761L261.703 67.0191L265.174 73.2981H263.497ZM272.634 73.5061C270.775 73.5061 269.696 72.3231 269.696 70.9321C269.696 69.6971 270.437 68.7351 272.244 67.9681V67.9031L272.361 68.1631C271.373 68.8521 270.983 69.6451 270.983 70.4771C270.983 71.7121 271.88 72.6741 273.232 72.6741C274.142 72.6741 274.857 72.3491 275.455 71.6991L275.806 71.9071H275.676C275.065 72.7651 274.09 73.5061 272.634 73.5061ZM276.248 71.4261L275.91 71.2311H276.001C276.768 70.0871 277.119 69.0081 277.327 67.3831H278.055C277.652 69.1641 277.275 70.1261 276.248 71.4261ZM277.509 67.7601L276.079 67.5911V67.2271H279.017V67.5911L277.743 67.7601H277.509ZM277.847 73.4671C277.119 73.4671 276.612 73.3241 276.131 72.8561C275.156 71.8551 274.363 70.9191 273.583 70.0221C272.751 69.0341 272.361 68.5401 271.737 67.8381C271.1 67.0581 270.84 66.3951 270.84 65.6801C270.84 64.3671 271.854 63.5611 273.258 63.5611C274.714 63.5611 275.494 64.3281 275.494 65.3811C275.494 66.4601 274.675 67.1751 273.167 67.8771V67.9551L273.011 67.6431C273.895 66.9281 274.441 66.2521 274.441 65.3421C274.441 64.5101 273.986 64.0161 273.245 64.0161C272.53 64.0161 271.958 64.5491 271.958 65.3291C271.958 65.8231 272.088 66.2521 272.608 66.9281C273.115 67.5521 273.518 68.0071 274.493 69.0601C275.78 70.4771 276.638 71.3741 278.224 73.0121L277.522 72.7781L279.017 72.9471L278.991 73.3111C278.523 73.4151 278.198 73.4671 277.847 73.4671ZM283.41 73.2981V72.8951L285.321 72.7131H285.49V73.2981H283.41ZM284.671 73.2981C284.71 71.8421 284.71 70.3601 284.71 68.8521V68.2021C284.71 66.7071 284.71 65.2251 284.671 63.7431H286.296C286.257 65.1991 286.257 66.6941 286.257 68.3061V68.6441C286.257 70.3341 286.257 71.8291 286.296 73.2981H284.671ZM285.49 73.2981V72.8301H290.417L289.637 73.2331L290.183 70.8151H290.807L290.755 73.2981H285.49ZM285.49 68.6701V68.2151H288.649V68.6701H285.49ZM288.532 69.9831L288.35 68.5401V68.2671L288.532 66.8501H289.065V69.9831H288.532ZM283.41 64.1591V63.7431H285.49V64.3151H285.321L283.41 64.1591ZM289.936 66.1741L289.39 63.8081L290.17 64.2241H285.49V63.7431H290.508L290.56 66.1741H289.936ZM294.519 73.5061C293.258 73.5061 292.517 72.8171 292.543 70.8671L292.569 66.9151L292.92 67.1751L291.568 66.9541V66.6161L293.921 66.3431L294.077 66.4861L294.012 68.2931V70.9581C294.012 72.2061 294.454 72.6351 295.208 72.6351C295.975 72.6351 296.69 72.1411 297.249 71.3741L297.626 71.9591H297.132C296.469 72.8691 295.611 73.5061 294.519 73.5061ZM297.041 73.4541L296.976 71.8551V71.8291L297.015 67.0971L296.027 66.9671V66.6421L298.354 66.3431L298.497 66.4861L298.445 68.2931V72.8431L299.368 72.9341V73.3111L297.041 73.4541ZM300.33 73.2981V72.9211L301.747 72.7781H302.631L304.074 72.9211V73.2981H300.33ZM301.318 73.2981C301.357 72.6611 301.37 71.1791 301.37 70.2821V69.3851C301.37 68.5141 301.357 67.9421 301.318 67.3051L300.252 67.2271V66.9021L302.566 66.2781L302.735 66.3821L302.826 68.2281V70.2821C302.826 71.1791 302.839 72.6611 302.865 73.2981H301.318ZM302.826 69.1511L302.449 68.4101H302.761C303.138 67.0581 304.074 66.2521 304.958 66.2521C305.504 66.2521 305.946 66.4731 306.076 67.0061C306.063 67.5131 305.829 67.8511 305.296 67.8511C304.893 67.8511 304.633 67.6301 304.321 67.2531L304.022 66.9281L304.555 66.9931C303.736 67.3181 303.216 67.9551 302.826 69.1511ZM309.857 73.5061C307.933 73.5061 306.451 72.1801 306.451 69.8661C306.451 67.5391 308.037 66.2521 309.857 66.2521C311.677 66.2521 313.276 67.5261 313.276 69.8661C313.276 72.2061 311.768 73.5061 309.857 73.5061ZM309.857 73.0771C311.001 73.0771 311.69 71.9981 311.69 69.8791C311.69 67.7601 311.001 66.6811 309.857 66.6811C308.7 66.6811 308.011 67.7601 308.011 69.8791C308.011 71.9981 308.7 73.0771 309.857 73.0771ZM314.257 76.6781V76.3141L315.687 76.1711H316.493L317.936 76.3141V76.6781H314.257ZM315.271 76.6781C315.297 75.6771 315.31 74.4681 315.31 73.5581V69.4111C315.31 68.5401 315.297 67.9421 315.271 67.3051L314.179 67.2271V66.9021L316.48 66.2781L316.649 66.3951L316.753 67.4611L316.766 67.5261V72.3101L316.753 72.4531V73.5451C316.753 74.4551 316.766 75.6771 316.792 76.6781H315.271ZM318.742 73.5061C317.923 73.5061 317.143 73.1811 316.506 72.2581H316.35L316.558 71.9981C317.104 72.5961 317.598 72.7781 318.248 72.7781C319.327 72.7781 320.159 71.9981 320.159 69.8401C320.159 67.8121 319.431 66.9541 318.313 66.9541C317.728 66.9541 317.182 67.1491 316.493 67.9551L316.324 67.6821H316.441C317.104 66.6681 318.014 66.2521 318.963 66.2521C320.549 66.2521 321.732 67.5911 321.732 69.8271C321.732 72.1021 320.432 73.5061 318.742 73.5061ZM326.387 73.5061C324.359 73.5061 322.916 72.2581 322.916 69.8791C322.916 67.6041 324.502 66.2521 326.296 66.2521C328.103 66.2521 329.13 67.4741 329.13 69.0471C329.13 69.3591 329.104 69.6061 329.039 69.8271H323.566V69.3981H327.076C327.583 69.3981 327.739 69.1511 327.739 68.5141C327.739 67.3831 327.167 66.6811 326.244 66.6811C325.256 66.6811 324.45 67.6951 324.45 69.7101C324.45 71.8421 325.464 72.7521 326.855 72.7521C327.765 72.7521 328.402 72.4011 328.896 71.7901L329.117 71.9591C328.558 72.9341 327.622 73.5061 326.387 73.5061Z" fill="#080808"/>
<path d="M74.1846 103.532C72.0786 103.532 70.6486 102.479 70.6486 99.6061V98.1501C70.6486 96.6811 70.6486 95.2121 70.6096 93.7431H72.2216C72.1956 95.1991 72.1956 96.6551 72.1956 98.1501V99.4111C72.1956 101.816 73.0796 102.687 74.6006 102.687C76.2646 102.687 77.1096 101.712 77.0966 99.2811L77.0706 93.7431H77.6556L77.6166 99.4501C77.5906 102.232 76.3946 103.532 74.1846 103.532ZM69.4266 94.1591V93.7431H73.5736V94.1591L71.6366 94.3151H71.3116L69.4266 94.1591ZM75.5366 94.1591V93.7431H78.9426V94.1591L77.5126 94.3281H77.1746L75.5366 94.1591ZM82.6998 103.532C81.6338 103.532 80.5418 103.22 79.8528 102.778L79.9308 100.711H80.5548L81.1008 103.038L80.3858 102.726L80.2818 102.271C81.1268 102.869 81.6728 103.025 82.5698 103.025C83.9348 103.025 84.7798 102.401 84.7798 101.244C84.7798 100.321 84.3638 99.8401 83.0898 99.2941L82.5048 99.0471C80.8798 98.3451 80.0348 97.5131 80.0348 96.0961C80.0348 94.4191 81.4128 93.5091 83.2588 93.5091C84.2598 93.5091 85.0528 93.7821 85.7158 94.2371L85.6378 96.1871H85.0008L84.4808 93.9641L85.2218 94.3021L85.2998 94.7701C84.5978 94.2111 84.1428 94.0161 83.4018 94.0161C82.2188 94.0161 81.3868 94.5881 81.3868 95.6671C81.3868 96.6161 81.9588 97.1361 82.9468 97.5521L83.5708 97.8251C85.5338 98.6701 86.1838 99.4111 86.1838 100.789C86.1838 102.453 84.8578 103.532 82.6998 103.532ZM86.6453 103.298V102.895L87.9323 102.726H88.1663L89.5833 102.895V103.298H86.6453ZM87.5683 103.298L90.7793 93.6781H91.7413L95.0043 103.298H93.4183L90.6233 94.6661H90.8963L90.8443 94.8481L88.1663 103.298H87.5683ZM88.9983 100.126L89.0633 99.6971H93.1193L93.1843 100.126H88.9983ZM91.8713 103.298V102.882L93.6133 102.726H94.1593L95.9143 102.882V103.298H91.8713Z" fill="#080808"/>
<path d="M337.442 131.298V130.895L338.95 130.713H339.223L340.757 130.895V131.298H337.442ZM337.533 122.159V121.743H339.418V122.315H339.275L337.533 122.159ZM338.781 131.298L338.82 121.743H339.262L339.353 126.475V131.298H338.781ZM342.642 131.298L339.041 122.237H338.95V121.743H340.419L343.552 129.686H343.24L343.318 129.491L346.347 121.743H346.945V122.237H346.685L346.529 122.627L343.175 131.298H342.642ZM345.112 131.298V130.895L347.01 130.713H347.322L349.246 130.895V131.298H345.112ZM346.36 131.298C346.399 129.829 346.386 128.334 346.399 127.06L346.451 121.743H347.972C347.933 123.212 347.933 124.707 347.933 126.202V126.852C347.933 128.36 347.933 129.842 347.972 131.298H346.36ZM347.153 122.315V121.743H349.22V122.159L347.322 122.315H347.153ZM350.393 131.298V130.921L351.797 130.791H352.434L353.825 130.921V131.298H350.393ZM351.381 131.298C351.407 130.661 351.433 129.179 351.433 128.282V127.411C351.433 126.54 351.407 125.916 351.381 125.279L350.302 125.214V124.889L352.759 124.278L352.928 124.382L352.889 126.306V128.282C352.889 129.179 352.902 130.661 352.928 131.298H351.381ZM352.07 122.783C351.589 122.783 351.186 122.432 351.186 121.925C351.186 121.431 351.589 121.067 352.07 121.067C352.564 121.067 352.967 121.431 352.967 121.925C352.967 122.432 352.564 122.783 352.07 122.783ZM357.8 131.506C356.11 131.506 354.875 130.128 354.875 127.944C354.875 125.656 356.266 124.252 357.982 124.252C358.801 124.252 359.503 124.629 360.114 125.5H360.231L360.036 125.773C359.503 125.188 359.009 124.954 358.463 124.954C357.358 124.954 356.435 125.747 356.435 127.905C356.435 129.933 357.267 130.778 358.385 130.778C358.996 130.778 359.49 130.544 360.01 129.946L360.218 130.245H360.088C359.503 131.064 358.723 131.506 357.8 131.506ZM359.932 131.441L359.828 130.206V125.5L359.88 125.37V121.613L358.749 121.535V121.184L361.141 120.729L361.323 120.846L361.284 122.861V130.856L362.363 130.921V131.298L359.932 131.441ZM366.205 131.506C364.515 131.506 363.28 130.128 363.28 127.944C363.28 125.656 364.671 124.252 366.387 124.252C367.206 124.252 367.908 124.629 368.519 125.5H368.636L368.441 125.773C367.908 125.188 367.414 124.954 366.868 124.954C365.763 124.954 364.84 125.747 364.84 127.905C364.84 129.933 365.672 130.778 366.79 130.778C367.401 130.778 367.895 130.544 368.415 129.946L368.623 130.245H368.493C367.908 131.064 367.128 131.506 366.205 131.506ZM368.337 131.441L368.233 130.206V125.5L368.285 125.37V121.613L367.154 121.535V121.184L369.546 120.729L369.728 120.846L369.689 122.861V130.856L370.768 130.921V131.298L368.337 131.441ZM371.554 131.298V130.921L373.036 130.791H373.686L375.207 130.921V131.298H371.554ZM372.62 131.298C372.646 130.44 372.659 129.244 372.659 128.282V121.6L371.593 121.535V121.184L373.972 120.729L374.167 120.846L374.128 122.9V128.282C374.128 129.244 374.141 130.44 374.167 131.298H372.62ZM379.649 131.506C377.621 131.506 376.178 130.258 376.178 127.879C376.178 125.604 377.764 124.252 379.558 124.252C381.365 124.252 382.392 125.474 382.392 127.047C382.392 127.359 382.366 127.606 382.301 127.827H376.828V127.398H380.338C380.845 127.398 381.001 127.151 381.001 126.514C381.001 125.383 380.429 124.681 379.506 124.681C378.518 124.681 377.712 125.695 377.712 127.71C377.712 129.842 378.726 130.752 380.117 130.752C381.027 130.752 381.664 130.401 382.158 129.79L382.379 129.959C381.82 130.934 380.884 131.506 379.649 131.506ZM386.831 131.298V130.895L388.742 130.713H388.911V131.298H386.831ZM388.092 131.298C388.131 129.842 388.131 128.36 388.131 126.852V126.202C388.131 124.707 388.131 123.225 388.092 121.743H389.717C389.678 123.199 389.678 124.694 389.678 126.306V126.644C389.678 128.334 389.678 129.829 389.717 131.298H388.092ZM388.911 131.298V130.83H393.838L393.058 131.233L393.604 128.815H394.228L394.176 131.298H388.911ZM388.911 126.67V126.215H392.07V126.67H388.911ZM391.953 127.983L391.771 126.54V126.267L391.953 124.85H392.486V127.983H391.953ZM386.831 122.159V121.743H388.911V122.315H388.742L386.831 122.159ZM393.357 124.174L392.811 121.808L393.591 122.224H388.911V121.743H393.929L393.981 124.174H393.357ZM397.22 131.506C396.167 131.506 395.387 130.869 395.387 129.79C395.387 128.711 396.024 128.048 397.896 127.515C398.585 127.307 399.495 127.086 400.184 126.917V127.242C399.495 127.424 398.741 127.632 398.234 127.814C397.233 128.204 396.778 128.776 396.778 129.582C396.778 130.375 397.22 130.778 397.896 130.778C398.377 130.778 398.858 130.518 399.794 129.543L399.963 130.206H399.56C398.78 131.064 398.247 131.506 397.22 131.506ZM400.795 131.493C399.95 131.493 399.534 130.947 399.443 130.05V126.475C399.443 125.058 399.04 124.668 398.039 124.668C397.571 124.668 397.103 124.785 396.505 125.058L397.207 124.733L397.038 125.734C396.986 126.371 396.674 126.605 396.284 126.605C395.92 126.605 395.673 126.41 395.582 126.059C395.79 124.941 396.817 124.252 398.494 124.252C400.132 124.252 400.873 124.967 400.873 126.683V129.998C400.873 130.687 401.042 130.895 401.354 130.895C401.562 130.895 401.718 130.804 401.939 130.518L402.16 130.7C401.861 131.246 401.432 131.493 400.795 131.493ZM405.192 131.506C404.295 131.506 403.593 131.311 402.865 130.934L402.904 129.309H403.58L403.931 131.051L403.372 130.999V130.531C403.905 130.882 404.386 131.051 405.114 131.051C406.193 131.051 406.765 130.609 406.765 129.881C406.765 129.283 406.466 128.906 405.413 128.581L404.711 128.334C403.619 127.97 402.943 127.359 402.943 126.332C402.943 125.136 403.892 124.252 405.582 124.252C406.401 124.252 406.999 124.447 407.701 124.824L407.636 126.306H407.025L406.609 124.668L407.103 124.798V125.214C406.57 124.85 406.167 124.694 405.608 124.694C404.685 124.694 404.178 125.149 404.178 125.825C404.178 126.384 404.503 126.748 405.478 127.06L406.18 127.294C407.519 127.736 408.052 128.373 408.052 129.348C408.052 130.635 407.038 131.506 405.192 131.506ZM410.708 124.954V124.447H413.204V124.954H410.708ZM411.722 131.506C410.539 131.506 409.954 130.934 409.954 129.673C409.954 129.218 409.967 128.906 409.967 128.399V124.954H408.771V124.551L410.253 124.421L410.006 124.59L410.513 122.393H411.475L411.436 124.655V129.725C411.436 130.492 411.748 130.817 412.307 130.817C412.671 130.817 412.905 130.7 413.256 130.466L413.451 130.687C413.087 131.22 412.515 131.506 411.722 131.506Z" fill="#080808"/>
<circle cx="51.5" cy="97.7981" r="6.5" fill="white" stroke="#012D61" stroke-width="5"/>
<circle cx="228.5" cy="67.7981" r="6.5" fill="white" stroke="#012D61" stroke-width="5"/>
<circle cx="320.5" cy="125.798" r="6.5" fill="white" stroke="#012D61" stroke-width="5"/>
</svg>
