<svg width="278" height="33" viewBox="0 0 278 33" fill="none" xmlns="http://www.w3.org/2000/svg">
<mask id="mask0_2108_4724" style="mask-type:luminance" maskUnits="userSpaceOnUse" x="-47" y="0" width="326" height="33">
<path d="M278.5 0H-46.5V33H278.5V0Z" fill="white"/>
</mask>
<g mask="url(#mask0_2108_4724)">
<path d="M99.0312 14.7673C99.0312 8.80311 103.654 4.21875 109.668 4.21875C112.792 4.21875 115.332 5.48279 117.181 7.54797L115.332 9.26598C113.941 7.54797 111.975 6.74682 109.668 6.74682C105.386 6.74682 101.805 9.84459 101.805 14.7761C101.805 19.7076 105.386 22.8054 109.668 22.8054C112.208 22.8054 114.408 21.6571 115.916 19.8234L117.765 21.6571C116.032 23.7223 113.142 25.2089 109.668 25.2089C103.654 25.3157 99.0312 20.847 99.0312 14.7673ZM119.73 24.8617V4.67273H122.387V24.8617H119.73ZM138.697 17.9806C138.697 22.2267 135.69 25.3246 131.525 25.3246C127.36 25.3246 124.353 22.111 124.353 17.9806C124.353 13.7346 127.36 10.6368 131.525 10.6368C135.69 10.6368 138.697 13.7346 138.697 17.9806ZM136.04 17.9806C136.04 14.7673 133.841 12.9335 131.534 12.9335C129.218 12.9335 127.028 14.7673 127.028 17.9806C127.028 21.1941 129.227 23.028 131.534 23.028C133.841 22.9121 136.04 21.0695 136.04 17.9806ZM150.492 24.8617V22.9123H150.375C149.567 24.1763 147.835 25.3246 145.977 25.3246C142.395 25.3246 140.654 22.9123 140.654 19.4762V10.9929H143.311V19.0222C143.311 21.8885 144.81 22.9211 146.785 22.9211C149.101 22.9211 150.483 20.7403 150.483 18.6751V11.1087H153.14V24.9862H150.483V24.8617H150.492ZM155.124 17.9806C155.124 13.7346 158.247 10.6368 161.712 10.6368C163.911 10.6368 165.644 11.7852 166.452 13.0492H166.568L166.452 11.0998V4.67273H169.109V24.8617H166.676V22.9123H166.559C165.751 24.1763 164.019 25.3246 161.82 25.3246C158.238 25.3157 155.124 22.2178 155.124 17.9806ZM166.685 17.9806C166.685 14.7673 164.603 12.9335 162.287 12.9335C159.971 12.9335 157.888 14.7673 157.888 17.9806C157.888 21.0784 159.971 23.028 162.287 23.028C164.486 22.9121 166.685 21.0695 166.685 17.9806ZM176.281 24.8617V4.67273H183.219C186.576 4.67273 189.583 7.19191 189.583 10.6368C189.583 14.0817 186.576 16.601 183.219 16.601H178.938V24.746H176.281V24.8617ZM183.336 14.1886C185.652 14.1886 186.917 12.2392 186.917 10.6368C186.917 9.03455 185.643 7.08508 183.336 7.08508H178.938V14.1975H183.336V14.1886ZM191.432 24.8617V4.67273H194.089V24.8617H191.432ZM196.289 20.7313C196.289 17.6335 199.179 15.9156 202.419 15.9156C204.268 15.9156 205.66 16.4853 206.234 16.7167V16.3695C206.234 14.3044 204.502 13.0403 202.653 13.0403C201.154 13.0403 199.762 13.7257 199.296 14.9897L196.863 13.9571C197.33 12.6931 199.062 10.628 202.527 10.628C205.992 10.628 208.774 12.6932 208.774 16.5921V24.9685H206.234V23.0191H206.118C205.31 24.1674 203.918 25.4314 201.495 25.4314C198.721 25.3157 196.289 23.5977 196.289 20.7313ZM206.234 18.8976C206.234 18.8976 205.076 17.9806 202.877 17.9806C200.103 17.9806 199.062 19.4672 199.062 20.7313C199.062 22.2178 200.561 22.9123 201.953 22.9123C204.035 22.9123 206.234 21.1853 206.234 18.8976ZM212.482 20.7313V13.5032H210.049V11.0909H212.482V6.84474H215.139V11.0909H218.612V13.5032H215.139V20.6156C215.139 22.2179 215.83 22.9123 216.988 22.9123C217.454 22.9123 217.796 22.9123 218.146 22.6807L219.07 24.8617C218.496 25.0931 217.796 25.2089 216.988 25.2089C214.097 25.0843 212.482 23.482 212.482 20.7313ZM229.483 4.90418L228.558 7.08508C228.208 6.96936 227.867 6.85365 227.4 6.85365C226.126 6.85365 225.084 7.65479 225.084 9.26598V10.9841H228.666V13.3964H225.084V24.8617H222.427V13.3964H219.887V10.9841H222.544V9.26598C222.544 6.39965 224.51 4.56592 227.517 4.56592C228.325 4.55702 228.899 4.67274 229.483 4.90418ZM243.818 17.9806C243.818 22.2267 240.811 25.3246 236.646 25.3246C232.481 25.3246 229.474 22.111 229.474 17.9806C229.474 13.7346 232.481 10.6368 236.646 10.6368C240.811 10.6368 243.818 13.7346 243.818 17.9806ZM241.161 17.9806C241.161 14.7673 238.961 12.9335 236.655 12.9335C234.339 12.9335 232.149 14.7673 232.149 17.9806C232.149 21.1941 234.348 23.028 236.655 23.028C238.961 22.9121 241.161 21.0695 241.161 17.9806ZM245.9 24.8617V11.0998H248.44V13.3964H248.557C249.132 11.7941 251.097 10.7615 252.605 10.7615C253.413 10.7615 253.997 10.8772 254.571 11.1087L253.53 13.521C253.18 13.4053 252.722 13.2896 252.139 13.2896C250.289 13.2896 248.557 14.7761 248.557 17.3042V24.8706H245.9V24.8617ZM255.962 11.0909H258.503V13.0403H258.619C259.427 11.6606 261.276 10.628 262.901 10.628C265.1 10.628 266.599 11.6605 267.299 13.2628C268.341 11.6605 269.956 10.628 272.156 10.628C275.629 10.628 277.128 13.0403 277.128 16.4764V24.9596H274.471V16.9303C274.471 14.0639 273.313 13.1471 271.348 13.1471C269.265 13.1471 267.766 15.3281 267.766 17.3932V25.0753H265.109V17.0461C265.109 14.1797 263.951 13.2628 261.985 13.2628C259.903 13.2628 258.404 15.4438 258.404 17.509V25.1911H255.747V11.082H255.962V11.0909Z" fill="white"/>
<path d="M0.371094 13.7714C0.371094 7.37997 5.77479 2.19922 12.2197 2.19922C15.7743 2.19922 18.3056 3.58789 20.2175 5.39492L17.9465 7.62033C16.5911 6.33849 14.742 5.35041 12.2107 5.35041C7.52509 5.35041 3.85389 9.09799 3.85389 13.7446C3.85389 18.4002 7.52509 22.1389 12.2107 22.1389C15.2537 22.1389 16.9861 20.9283 18.0991 19.8245C19.0147 18.9165 19.6071 17.6169 19.8315 15.8543H12.2107V12.7032H22.9463C23.054 13.2729 23.1258 13.9405 23.1258 14.6882C23.1258 17.065 22.4795 20.0025 20.3701 22.0766C18.3056 24.1952 15.6755 25.3168 12.2107 25.3168C5.77479 25.3168 0.371094 20.136 0.371094 13.7714ZM31.7789 10.4421C27.6229 10.4421 24.2478 13.5755 24.2478 17.8928C24.2478 22.1923 27.6229 25.3435 31.7789 25.3435C35.9349 25.3435 39.3099 22.1923 39.3099 17.8928C39.3189 13.5666 35.9349 10.4421 31.7789 10.4421ZM31.7789 22.3881C29.5079 22.3881 27.5331 20.5366 27.5331 17.8661C27.5331 15.1778 29.4899 13.3441 31.7789 13.3441C34.0499 13.3441 36.0246 15.1778 36.0246 17.8661C36.0246 20.5366 34.0499 22.3881 31.7789 22.3881ZM48.2323 10.4421C44.0763 10.4421 40.7012 13.5755 40.7012 17.8928C40.7012 22.1923 44.0763 25.3435 48.2323 25.3435C52.3883 25.3435 55.763 22.1923 55.763 17.8928C55.763 13.5666 52.3883 10.4421 48.2323 10.4421ZM48.2323 22.3881C45.9613 22.3881 43.9865 20.5366 43.9865 17.8661C43.9865 15.1778 45.9433 13.3441 48.2323 13.3441C50.5212 13.3441 52.478 15.1778 52.478 17.8661C52.478 20.5366 50.4943 22.3881 48.2323 22.3881ZM68.411 10.8783V12.0889H68.303C67.567 11.2077 66.149 10.4154 64.345 10.4154C60.593 10.4154 57.146 13.6734 57.146 17.8839C57.146 22.0499 60.593 25.3168 64.345 25.3168C66.149 25.3168 67.567 24.5245 68.303 23.6166H68.411V24.6937C68.411 27.5333 66.876 29.0555 64.407 29.0555C62.388 29.0555 61.14 27.6223 60.628 26.4117L57.765 27.6045C58.591 29.5896 60.79 32.0108 64.434 32.0108C68.303 32.0108 71.57 29.7587 71.57 24.2486V10.8694H68.411V10.8783ZM64.632 22.3881C62.361 22.3881 60.449 20.4921 60.449 17.8928C60.449 15.2668 62.361 13.353 64.632 13.353C66.876 13.353 68.635 15.2668 68.635 17.8928C68.653 20.5099 66.876 22.3881 64.632 22.3881Z" fill="white"/>
<path d="M77.117 2.99219H73.832V24.8813H77.117V2.99219Z" fill="white"/>
<path d="M86.1727 22.3874C84.4847 22.3874 83.3097 21.613 82.5287 20.1353L92.5727 16.0138L92.2407 15.1771C91.6207 13.5036 89.7097 10.4414 85.8137 10.4414C81.9447 10.4414 78.7227 13.4591 78.7227 17.8921C78.7227 22.058 81.8997 25.3428 86.1727 25.3428C89.6197 25.3428 91.5947 23.2509 92.4377 22.0402L89.8797 20.34C89.0177 21.5685 87.8597 22.3874 86.1727 22.3874ZM85.9217 13.3077C87.2317 13.3077 88.3447 13.9487 88.7037 14.8922L81.9897 17.6517C81.8997 14.7765 84.2337 13.3077 85.9217 13.3077Z" fill="white"/>
</g>
</svg>
