<svg width="47" height="47" viewBox="0 0 47 47" fill="none" xmlns="http://www.w3.org/2000/svg">
<g clip-path="url(#clip0_2010_529)">
<mask id="path-1-inside-1_2010_529" fill="white">
<path d="M11.1555 4.66446C12.1482 4.67223 12.9416 4.95197 13.6444 5.48556C14.4288 6.08132 15.2274 6.66023 15.982 7.29225C16.4259 7.66395 16.7599 7.31556 17.1417 7.23656C17.4795 7.16533 17.473 6.90631 17.5054 6.6434C17.6258 5.65004 17.7487 4.65669 17.895 3.66592C18.1823 1.73749 19.7924 0.328401 21.7456 0.301204C22.9247 0.284367 24.1038 0.283072 25.2829 0.301204C27.249 0.332286 28.863 1.7867 29.1193 3.73456C29.25 4.72662 29.3768 5.71998 29.5076 6.71204C29.5788 7.25728 30.5133 7.65618 30.9482 7.32463C31.7183 6.73794 32.4845 6.14348 33.2572 5.55938C35.0058 4.23836 37.0974 4.37564 38.6571 5.91813C39.4156 6.668 40.1689 7.42176 40.9131 8.18459C42.3731 9.68045 42.5219 11.7552 41.2859 13.435C40.6918 14.2406 40.0679 15.0241 39.4622 15.8219C39.092 16.3076 39.4402 17.1727 40.0368 17.2556C41.0283 17.3929 42.0184 17.5289 43.0099 17.6623C45.0251 17.9342 46.4541 19.522 46.489 21.5593C46.5084 22.7067 46.5084 23.8542 46.489 25.0004C46.4566 27.0428 45.051 28.6203 43.0215 28.9078C42.0146 29.0502 41.0063 29.1759 39.998 29.3054C39.4026 29.3818 39.0454 30.1977 39.4078 30.6756C39.9941 31.4475 40.5869 32.2129 41.1732 32.9848C42.553 34.8019 42.4158 36.8753 40.8083 38.4981C40.0912 39.2208 39.378 39.9461 38.6532 40.661C37.0949 42.2009 35.0045 42.3381 33.2546 41.0158C32.456 40.4123 31.6665 39.7958 30.8679 39.1923C30.411 38.8465 29.5891 39.1962 29.5179 39.7557C29.3859 40.7969 29.2604 41.8382 29.1128 42.8769C28.8371 44.8299 27.2257 46.2481 25.2441 46.2753C24.0818 46.2908 22.9182 46.2921 21.7559 46.2753C19.7381 46.2468 18.1241 44.7781 17.8781 42.7772C17.7539 41.7683 17.618 40.7594 17.4886 39.7505C17.42 39.2117 16.6058 38.8556 16.1748 39.1794C15.3749 39.7816 14.5815 40.3916 13.7816 40.9925C11.9761 42.3485 9.90645 42.206 8.30926 40.6143C7.57668 39.8852 6.84539 39.1534 6.12187 38.4152C4.60752 36.8727 4.4755 34.7798 5.78276 33.0509C6.37685 32.2647 6.98518 31.4902 7.58445 30.708C7.93909 30.243 7.59351 29.3857 7.02271 29.3093C5.99891 29.172 4.9751 29.0399 3.9513 28.9013C1.99688 28.641 0.556309 27.0428 0.518773 25.0664C0.495476 23.8711 0.494181 22.6744 0.520068 21.4803C0.56278 19.4949 2.05513 17.8941 4.02766 17.6623C5.0217 17.5457 6.01185 17.4045 7.0033 17.2672C7.5262 17.1947 7.90155 16.3037 7.58574 15.8879C6.99942 15.1161 6.40662 14.3493 5.82159 13.5775C4.45608 11.7785 4.5894 9.70247 6.17235 8.10299C6.92305 7.34535 7.67505 6.5903 8.43093 5.83913C9.2127 5.06206 10.1588 4.67482 11.1555 4.66575V4.66446ZM42.6747 21.5813C41.7868 21.4349 40.9442 21.2964 40.1028 21.1552C39.6421 21.0775 39.1735 21.0244 38.7218 20.9091C37.1816 20.518 36.3649 19.4288 35.7967 18.0081C35.1391 16.362 35.2945 14.8998 36.405 13.5205C37.0405 12.7317 37.6411 11.9158 38.2701 11.0947C37.4495 10.2205 36.6574 9.3761 35.8523 8.51873C34.8635 9.22975 33.9121 9.92393 32.9505 10.6026C31.7856 11.425 30.5288 11.6115 29.1866 11.0934C28.8708 10.9717 28.5627 10.8292 28.2495 10.7023C26.7235 10.0845 25.9262 8.92798 25.7295 7.31815C25.6039 6.29501 25.4641 5.27316 25.3231 4.18267H21.7831C21.6446 5.04134 21.5359 5.90777 21.3573 6.75866C21.1994 7.50983 21.0518 8.28561 20.7386 8.97849C20.2726 10.0094 19.2941 10.4614 18.2975 10.9095C16.5942 11.6736 15.0824 11.4755 13.6496 10.306C12.8911 9.68692 12.0977 9.11189 11.3069 8.50837C10.4319 9.33854 9.59193 10.1324 8.74286 10.938C9.46897 11.9456 10.1666 12.9144 10.8642 13.8831C11.501 14.7664 11.756 15.7597 11.5554 16.8178C11.4389 17.4278 11.1775 18.0145 10.9393 18.5947C10.3853 19.943 9.36801 20.7408 7.9365 20.9752C6.77938 21.1643 5.6132 21.3067 4.39007 21.479V24.9849C4.42243 24.9952 4.46644 25.0172 4.51174 25.025C5.49801 25.1882 6.48169 25.3889 7.47313 25.5042C9.33048 25.7205 10.4954 26.7061 11.2021 28.4389C11.9023 30.1589 11.7457 31.6638 10.5756 33.0949C9.94398 33.8668 9.35766 34.6736 8.73509 35.4831C9.5531 36.3547 10.3452 37.1991 11.1555 38.063C12.0214 37.44 12.8575 36.8352 13.6962 36.2355C13.9978 36.0206 14.2955 35.7926 14.6191 35.6139C15.9406 34.8873 17.2271 35.1023 18.5667 35.6631C20.2364 36.3625 21.1049 37.5605 21.2835 39.3322C21.3844 40.3385 21.5436 41.3383 21.6847 42.4016H25.2208C25.3593 41.5416 25.4991 40.6674 25.6389 39.7919C25.7838 38.8841 25.8887 37.9697 26.4362 37.1797C27.2516 36.0024 28.5019 35.5711 29.7846 35.2228C30.191 35.1127 30.6505 35.1425 31.0776 35.1826C31.8373 35.2551 32.4858 35.6126 33.0838 36.0762C33.9458 36.7458 34.8169 37.4024 35.6931 38.0707C36.5732 37.2354 37.412 36.4415 38.2572 35.6398C37.5259 34.6257 36.8101 33.6699 36.1371 32.683C35.8769 32.3023 35.6698 31.871 35.5184 31.4345C35.1327 30.3207 35.4757 29.2924 35.8924 28.2486C36.5707 26.5481 37.8028 25.6842 39.5955 25.5094C40.5856 25.4135 41.5693 25.2491 42.6747 25.0988V21.58V21.5813Z"/>
<path d="M25.4174 17.2686C25.4174 18.2374 25.4329 19.2074 25.4096 20.1762C25.4018 20.5051 25.5144 20.645 25.8134 20.7758C28.3011 21.8676 29.6834 24.577 29.1036 27.1815C28.5108 29.8455 26.1474 31.7377 23.4409 31.7131C20.7902 31.6898 18.4255 29.7458 17.8961 27.1556C17.3564 24.5135 18.6973 21.8831 21.172 20.7875C21.4904 20.6463 21.5952 20.4896 21.5927 20.1503C21.5771 18.2115 21.5745 16.2727 21.5888 14.3339C21.6004 12.8691 22.9129 11.9237 24.1994 12.4469C25.0226 12.7823 25.4057 13.439 25.4161 14.3119C25.4277 15.2975 25.4186 16.2831 25.4186 17.2686H25.4174ZM23.4914 27.8795C24.5463 27.8847 25.407 27.0377 25.4135 25.9887C25.4199 24.95 24.5515 24.0758 23.5095 24.0706C22.4676 24.0654 21.5965 24.9267 21.5875 25.9705C21.5797 27.0157 22.4365 27.8757 23.4901 27.8808L23.4914 27.8795Z"/>
</mask>
<path d="M11.1555 4.66446C12.1482 4.67223 12.9416 4.95197 13.6444 5.48556C14.4288 6.08132 15.2274 6.66023 15.982 7.29225C16.4259 7.66395 16.7599 7.31556 17.1417 7.23656C17.4795 7.16533 17.473 6.90631 17.5054 6.6434C17.6258 5.65004 17.7487 4.65669 17.895 3.66592C18.1823 1.73749 19.7924 0.328401 21.7456 0.301204C22.9247 0.284367 24.1038 0.283072 25.2829 0.301204C27.249 0.332286 28.863 1.7867 29.1193 3.73456C29.25 4.72662 29.3768 5.71998 29.5076 6.71204C29.5788 7.25728 30.5133 7.65618 30.9482 7.32463C31.7183 6.73794 32.4845 6.14348 33.2572 5.55938C35.0058 4.23836 37.0974 4.37564 38.6571 5.91813C39.4156 6.668 40.1689 7.42176 40.9131 8.18459C42.3731 9.68045 42.5219 11.7552 41.2859 13.435C40.6918 14.2406 40.0679 15.0241 39.4622 15.8219C39.092 16.3076 39.4402 17.1727 40.0368 17.2556C41.0283 17.3929 42.0184 17.5289 43.0099 17.6623C45.0251 17.9342 46.4541 19.522 46.489 21.5593C46.5084 22.7067 46.5084 23.8542 46.489 25.0004C46.4566 27.0428 45.051 28.6203 43.0215 28.9078C42.0146 29.0502 41.0063 29.1759 39.998 29.3054C39.4026 29.3818 39.0454 30.1977 39.4078 30.6756C39.9941 31.4475 40.5869 32.2129 41.1732 32.9848C42.553 34.8019 42.4158 36.8753 40.8083 38.4981C40.0912 39.2208 39.378 39.9461 38.6532 40.661C37.0949 42.2009 35.0045 42.3381 33.2546 41.0158C32.456 40.4123 31.6665 39.7958 30.8679 39.1923C30.411 38.8465 29.5891 39.1962 29.5179 39.7557C29.3859 40.7969 29.2604 41.8382 29.1128 42.8769C28.8371 44.8299 27.2257 46.2481 25.2441 46.2753C24.0818 46.2908 22.9182 46.2921 21.7559 46.2753C19.7381 46.2468 18.1241 44.7781 17.8781 42.7772C17.7539 41.7683 17.618 40.7594 17.4886 39.7505C17.42 39.2117 16.6058 38.8556 16.1748 39.1794C15.3749 39.7816 14.5815 40.3916 13.7816 40.9925C11.9761 42.3485 9.90645 42.206 8.30926 40.6143C7.57668 39.8852 6.84539 39.1534 6.12187 38.4152C4.60752 36.8727 4.4755 34.7798 5.78276 33.0509C6.37685 32.2647 6.98518 31.4902 7.58445 30.708C7.93909 30.243 7.59351 29.3857 7.02271 29.3093C5.99891 29.172 4.9751 29.0399 3.9513 28.9013C1.99688 28.641 0.556309 27.0428 0.518773 25.0664C0.495476 23.8711 0.494181 22.6744 0.520068 21.4803C0.56278 19.4949 2.05513 17.8941 4.02766 17.6623C5.0217 17.5457 6.01185 17.4045 7.0033 17.2672C7.5262 17.1947 7.90155 16.3037 7.58574 15.8879C6.99942 15.1161 6.40662 14.3493 5.82159 13.5775C4.45608 11.7785 4.5894 9.70247 6.17235 8.10299C6.92305 7.34535 7.67505 6.5903 8.43093 5.83913C9.2127 5.06206 10.1588 4.67482 11.1555 4.66575V4.66446ZM42.6747 21.5813C41.7868 21.4349 40.9442 21.2964 40.1028 21.1552C39.6421 21.0775 39.1735 21.0244 38.7218 20.9091C37.1816 20.518 36.3649 19.4288 35.7967 18.0081C35.1391 16.362 35.2945 14.8998 36.405 13.5205C37.0405 12.7317 37.6411 11.9158 38.2701 11.0947C37.4495 10.2205 36.6574 9.3761 35.8523 8.51873C34.8635 9.22975 33.9121 9.92393 32.9505 10.6026C31.7856 11.425 30.5288 11.6115 29.1866 11.0934C28.8708 10.9717 28.5627 10.8292 28.2495 10.7023C26.7235 10.0845 25.9262 8.92798 25.7295 7.31815C25.6039 6.29501 25.4641 5.27316 25.3231 4.18267H21.7831C21.6446 5.04134 21.5359 5.90777 21.3573 6.75866C21.1994 7.50983 21.0518 8.28561 20.7386 8.97849C20.2726 10.0094 19.2941 10.4614 18.2975 10.9095C16.5942 11.6736 15.0824 11.4755 13.6496 10.306C12.8911 9.68692 12.0977 9.11189 11.3069 8.50837C10.4319 9.33854 9.59193 10.1324 8.74286 10.938C9.46897 11.9456 10.1666 12.9144 10.8642 13.8831C11.501 14.7664 11.756 15.7597 11.5554 16.8178C11.4389 17.4278 11.1775 18.0145 10.9393 18.5947C10.3853 19.943 9.36801 20.7408 7.9365 20.9752C6.77938 21.1643 5.6132 21.3067 4.39007 21.479V24.9849C4.42243 24.9952 4.46644 25.0172 4.51174 25.025C5.49801 25.1882 6.48169 25.3889 7.47313 25.5042C9.33048 25.7205 10.4954 26.7061 11.2021 28.4389C11.9023 30.1589 11.7457 31.6638 10.5756 33.0949C9.94398 33.8668 9.35766 34.6736 8.73509 35.4831C9.5531 36.3547 10.3452 37.1991 11.1555 38.063C12.0214 37.44 12.8575 36.8352 13.6962 36.2355C13.9978 36.0206 14.2955 35.7926 14.6191 35.6139C15.9406 34.8873 17.2271 35.1023 18.5667 35.6631C20.2364 36.3625 21.1049 37.5605 21.2835 39.3322C21.3844 40.3385 21.5436 41.3383 21.6847 42.4016H25.2208C25.3593 41.5416 25.4991 40.6674 25.6389 39.7919C25.7838 38.8841 25.8887 37.9697 26.4362 37.1797C27.2516 36.0024 28.5019 35.5711 29.7846 35.2228C30.191 35.1127 30.6505 35.1425 31.0776 35.1826C31.8373 35.2551 32.4858 35.6126 33.0838 36.0762C33.9458 36.7458 34.8169 37.4024 35.6931 38.0707C36.5732 37.2354 37.412 36.4415 38.2572 35.6398C37.5259 34.6257 36.8101 33.6699 36.1371 32.683C35.8769 32.3023 35.6698 31.871 35.5184 31.4345C35.1327 30.3207 35.4757 29.2924 35.8924 28.2486C36.5707 26.5481 37.8028 25.6842 39.5955 25.5094C40.5856 25.4135 41.5693 25.2491 42.6747 25.0988V21.58V21.5813Z" fill="#014898"/>
<path d="M25.4174 17.2686C25.4174 18.2374 25.4329 19.2074 25.4096 20.1762C25.4018 20.5051 25.5144 20.645 25.8134 20.7758C28.3011 21.8676 29.6834 24.577 29.1036 27.1815C28.5108 29.8455 26.1474 31.7377 23.4409 31.7131C20.7902 31.6898 18.4255 29.7458 17.8961 27.1556C17.3564 24.5135 18.6973 21.8831 21.172 20.7875C21.4904 20.6463 21.5952 20.4896 21.5927 20.1503C21.5771 18.2115 21.5745 16.2727 21.5888 14.3339C21.6004 12.8691 22.9129 11.9237 24.1994 12.4469C25.0226 12.7823 25.4057 13.439 25.4161 14.3119C25.4277 15.2975 25.4186 16.2831 25.4186 17.2686H25.4174ZM23.4914 27.8795C24.5463 27.8847 25.407 27.0377 25.4135 25.9887C25.4199 24.95 24.5515 24.0758 23.5095 24.0706C22.4676 24.0654 21.5965 24.9267 21.5875 25.9705C21.5797 27.0157 22.4365 27.8757 23.4901 27.8808L23.4914 27.8795Z" fill="#014898"/>
<path d="M11.1555 4.66446C12.1482 4.67223 12.9416 4.95197 13.6444 5.48556C14.4288 6.08132 15.2274 6.66023 15.982 7.29225C16.4259 7.66395 16.7599 7.31556 17.1417 7.23656C17.4795 7.16533 17.473 6.90631 17.5054 6.6434C17.6258 5.65004 17.7487 4.65669 17.895 3.66592C18.1823 1.73749 19.7924 0.328401 21.7456 0.301204C22.9247 0.284367 24.1038 0.283072 25.2829 0.301204C27.249 0.332286 28.863 1.7867 29.1193 3.73456C29.25 4.72662 29.3768 5.71998 29.5076 6.71204C29.5788 7.25728 30.5133 7.65618 30.9482 7.32463C31.7183 6.73794 32.4845 6.14348 33.2572 5.55938C35.0058 4.23836 37.0974 4.37564 38.6571 5.91813C39.4156 6.668 40.1689 7.42176 40.9131 8.18459C42.3731 9.68045 42.5219 11.7552 41.2859 13.435C40.6918 14.2406 40.0679 15.0241 39.4622 15.8219C39.092 16.3076 39.4402 17.1727 40.0368 17.2556C41.0283 17.3929 42.0184 17.5289 43.0099 17.6623C45.0251 17.9342 46.4541 19.522 46.489 21.5593C46.5084 22.7067 46.5084 23.8542 46.489 25.0004C46.4566 27.0428 45.051 28.6203 43.0215 28.9078C42.0146 29.0502 41.0063 29.1759 39.998 29.3054C39.4026 29.3818 39.0454 30.1977 39.4078 30.6756C39.9941 31.4475 40.5869 32.2129 41.1732 32.9848C42.553 34.8019 42.4158 36.8753 40.8083 38.4981C40.0912 39.2208 39.378 39.9461 38.6532 40.661C37.0949 42.2009 35.0045 42.3381 33.2546 41.0158C32.456 40.4123 31.6665 39.7958 30.8679 39.1923C30.411 38.8465 29.5891 39.1962 29.5179 39.7557C29.3859 40.7969 29.2604 41.8382 29.1128 42.8769C28.8371 44.8299 27.2257 46.2481 25.2441 46.2753C24.0818 46.2908 22.9182 46.2921 21.7559 46.2753C19.7381 46.2468 18.1241 44.7781 17.8781 42.7772C17.7539 41.7683 17.618 40.7594 17.4886 39.7505C17.42 39.2117 16.6058 38.8556 16.1748 39.1794C15.3749 39.7816 14.5815 40.3916 13.7816 40.9925C11.9761 42.3485 9.90645 42.206 8.30926 40.6143C7.57668 39.8852 6.84539 39.1534 6.12187 38.4152C4.60752 36.8727 4.4755 34.7798 5.78276 33.0509C6.37685 32.2647 6.98518 31.4902 7.58445 30.708C7.93909 30.243 7.59351 29.3857 7.02271 29.3093C5.99891 29.172 4.9751 29.0399 3.9513 28.9013C1.99688 28.641 0.556309 27.0428 0.518773 25.0664C0.495476 23.8711 0.494181 22.6744 0.520068 21.4803C0.56278 19.4949 2.05513 17.8941 4.02766 17.6623C5.0217 17.5457 6.01185 17.4045 7.0033 17.2672C7.5262 17.1947 7.90155 16.3037 7.58574 15.8879C6.99942 15.1161 6.40662 14.3493 5.82159 13.5775C4.45608 11.7785 4.5894 9.70247 6.17235 8.10299C6.92305 7.34535 7.67505 6.5903 8.43093 5.83913C9.2127 5.06206 10.1588 4.67482 11.1555 4.66575V4.66446ZM42.6747 21.5813C41.7868 21.4349 40.9442 21.2964 40.1028 21.1552C39.6421 21.0775 39.1735 21.0244 38.7218 20.9091C37.1816 20.518 36.3649 19.4288 35.7967 18.0081C35.1391 16.362 35.2945 14.8998 36.405 13.5205C37.0405 12.7317 37.6411 11.9158 38.2701 11.0947C37.4495 10.2205 36.6574 9.3761 35.8523 8.51873C34.8635 9.22975 33.9121 9.92393 32.9505 10.6026C31.7856 11.425 30.5288 11.6115 29.1866 11.0934C28.8708 10.9717 28.5627 10.8292 28.2495 10.7023C26.7235 10.0845 25.9262 8.92798 25.7295 7.31815C25.6039 6.29501 25.4641 5.27316 25.3231 4.18267H21.7831C21.6446 5.04134 21.5359 5.90777 21.3573 6.75866C21.1994 7.50983 21.0518 8.28561 20.7386 8.97849C20.2726 10.0094 19.2941 10.4614 18.2975 10.9095C16.5942 11.6736 15.0824 11.4755 13.6496 10.306C12.8911 9.68692 12.0977 9.11189 11.3069 8.50837C10.4319 9.33854 9.59193 10.1324 8.74286 10.938C9.46897 11.9456 10.1666 12.9144 10.8642 13.8831C11.501 14.7664 11.756 15.7597 11.5554 16.8178C11.4389 17.4278 11.1775 18.0145 10.9393 18.5947C10.3853 19.943 9.36801 20.7408 7.9365 20.9752C6.77938 21.1643 5.6132 21.3067 4.39007 21.479V24.9849C4.42243 24.9952 4.46644 25.0172 4.51174 25.025C5.49801 25.1882 6.48169 25.3889 7.47313 25.5042C9.33048 25.7205 10.4954 26.7061 11.2021 28.4389C11.9023 30.1589 11.7457 31.6638 10.5756 33.0949C9.94398 33.8668 9.35766 34.6736 8.73509 35.4831C9.5531 36.3547 10.3452 37.1991 11.1555 38.063C12.0214 37.44 12.8575 36.8352 13.6962 36.2355C13.9978 36.0206 14.2955 35.7926 14.6191 35.6139C15.9406 34.8873 17.2271 35.1023 18.5667 35.6631C20.2364 36.3625 21.1049 37.5605 21.2835 39.3322C21.3844 40.3385 21.5436 41.3383 21.6847 42.4016H25.2208C25.3593 41.5416 25.4991 40.6674 25.6389 39.7919C25.7838 38.8841 25.8887 37.9697 26.4362 37.1797C27.2516 36.0024 28.5019 35.5711 29.7846 35.2228C30.191 35.1127 30.6505 35.1425 31.0776 35.1826C31.8373 35.2551 32.4858 35.6126 33.0838 36.0762C33.9458 36.7458 34.8169 37.4024 35.6931 38.0707C36.5732 37.2354 37.412 36.4415 38.2572 35.6398C37.5259 34.6257 36.8101 33.6699 36.1371 32.683C35.8769 32.3023 35.6698 31.871 35.5184 31.4345C35.1327 30.3207 35.4757 29.2924 35.8924 28.2486C36.5707 26.5481 37.8028 25.6842 39.5955 25.5094C40.5856 25.4135 41.5693 25.2491 42.6747 25.0988V21.58V21.5813Z" stroke="white" stroke-width="2" mask="url(#path-1-inside-1_2010_529)"/>
<path d="M25.4174 17.2686C25.4174 18.2374 25.4329 19.2074 25.4096 20.1762C25.4018 20.5051 25.5144 20.645 25.8134 20.7758C28.3011 21.8676 29.6834 24.577 29.1036 27.1815C28.5108 29.8455 26.1474 31.7377 23.4409 31.7131C20.7902 31.6898 18.4255 29.7458 17.8961 27.1556C17.3564 24.5135 18.6973 21.8831 21.172 20.7875C21.4904 20.6463 21.5952 20.4896 21.5927 20.1503C21.5771 18.2115 21.5745 16.2727 21.5888 14.3339C21.6004 12.8691 22.9129 11.9237 24.1994 12.4469C25.0226 12.7823 25.4057 13.439 25.4161 14.3119C25.4277 15.2975 25.4186 16.2831 25.4186 17.2686H25.4174ZM23.4914 27.8795C24.5463 27.8847 25.407 27.0377 25.4135 25.9887C25.4199 24.95 24.5515 24.0758 23.5095 24.0706C22.4676 24.0654 21.5965 24.9267 21.5875 25.9705C21.5797 27.0157 22.4365 27.8757 23.4901 27.8808L23.4914 27.8795Z" stroke="white" stroke-width="2" mask="url(#path-1-inside-1_2010_529)"/>
</g>
<defs>
<clipPath id="clip0_2010_529">
<rect width="46" height="46" fill="white" transform="translate(0.5 0.288086)"/>
</clipPath>
</defs>
</svg>
