<svg width="44" height="44" viewBox="0 0 44 44" fill="none" xmlns="http://www.w3.org/2000/svg">
<g clip-path="url(#clip0_2010_533)">
<path d="M18.7192 18.845L15.3284 20.5054L18.7192 22.166V23.7305L13.9629 21.1914V19.8192L18.7192 17.2803V18.845Z" fill="#014898"/>
<path d="M31.7366 19.8192V21.1914L26.9805 23.7305V22.166L30.3713 20.5054L26.9805 18.845V17.2803L31.7366 19.8192Z" fill="#014898"/>
<path d="M20.4404 23.8153L24.1716 17.2939H25.231L21.4995 23.8153H20.4404Z" fill="#014898" stroke="#014898" stroke-width="0.3"/>
<path d="M22.8988 40.773C20.6136 40.771 18.345 40.3848 16.1878 39.6305C16.1259 39.6089 16.0695 39.574 16.0227 39.5281C15.9758 39.4823 15.9396 39.4266 15.9167 39.3652C15.8939 39.3038 15.8848 39.238 15.8902 39.1727C15.8957 39.1074 15.9155 39.044 15.9482 38.9872L17.2758 36.686L15.7531 35.8042C15.6702 35.7563 15.6049 35.683 15.567 35.5951C15.529 35.5072 15.5204 35.4094 15.5425 35.3163C15.5606 35.2393 15.5717 35.1627 15.5834 35.0859L15.6058 34.9437C15.6174 34.8761 15.6445 34.812 15.6849 34.7566C15.7253 34.7011 15.778 34.6557 15.8388 34.624C15.8996 34.5923 15.967 34.5751 16.0356 34.5736C16.1042 34.5722 16.1722 34.5867 16.2343 34.6159C19.1105 35.9583 22.3278 36.3918 25.4567 35.8584C28.5857 35.3251 31.4777 33.8503 33.7468 31.6309C35.7162 29.6948 37.1342 27.269 37.8549 24.603C38.5756 21.9371 38.573 19.1272 37.8473 16.4626C37.1217 13.798 35.6991 11.3748 33.7261 9.44247C31.7531 7.5101 29.3009 6.13832 26.6217 5.46826C23.9426 4.7982 21.1333 4.85407 18.4829 5.63012C15.8325 6.40616 13.4367 7.87436 11.5421 9.88364C9.64748 11.8929 8.32241 14.3707 7.70325 17.0621C7.08409 19.7534 7.19319 22.5612 8.01932 25.1964C8.033 25.2394 8.03991 25.2842 8.03981 25.3293V27.5004C8.03979 27.5964 8.0088 27.6897 7.95145 27.7667C7.8941 27.8436 7.81346 27.8999 7.72152 27.9273C6.81178 28.1986 5.9773 28.677 5.28361 29.3251C5.23229 29.3726 5.17049 29.4074 5.10321 29.4266C5.03594 29.4458 4.96508 29.4489 4.89639 29.4356C4.82771 29.4223 4.76312 29.393 4.70788 29.35C4.65265 29.3071 4.60831 29.2517 4.57847 29.1885C3.12199 26.1083 2.4678 22.7099 2.6767 19.3092C2.88561 15.9085 3.95083 12.6157 5.77336 9.73701C7.59589 6.85829 10.1166 4.48702 13.1012 2.84358C16.0858 1.20014 19.4374 0.337875 22.8445 0.336914C22.9031 0.336914 22.9616 0.337158 23.0202 0.337645C27.0174 0.371378 30.9149 1.58969 34.2197 3.83851C37.5246 6.08733 40.0883 9.26566 41.5868 12.9716C43.0852 16.6775 43.4511 20.7445 42.6381 24.6583C41.8251 28.5722 39.8698 32.1571 37.0194 34.9596C33.2612 38.6804 28.1874 40.7693 22.8988 40.773ZM16.9923 38.9596C21.1048 40.268 25.537 40.1617 29.5821 38.6579C33.6272 37.154 37.0523 34.3391 39.3114 30.662C41.5704 26.9849 42.5333 22.6573 42.0465 18.3692C41.5596 14.0812 39.6512 10.0796 36.6253 7.00244C34.8508 5.1877 32.734 3.74297 30.3974 2.75188C28.0608 1.7608 25.5508 1.24305 23.0127 1.22862C22.957 1.22813 22.9005 1.22789 22.845 1.22789C19.6374 1.22862 16.4804 2.02797 13.659 3.5538C10.8375 5.07963 8.44038 7.28393 6.6838 9.9678C4.92722 12.6517 3.8665 15.7307 3.59735 18.927C3.3282 22.1233 3.85909 25.3363 5.14212 28.2761C5.74603 27.8017 6.42407 27.4302 7.14894 27.1765V25.3968C6.07049 21.9022 6.18869 18.1478 7.48483 14.7281C8.78097 11.3083 11.181 8.41871 14.3047 6.51689C17.4284 4.61507 21.0974 3.80975 24.7305 4.22845C28.3636 4.64716 31.7532 6.26596 34.3624 8.8285C36.9716 11.391 38.6514 14.7508 39.1356 18.3758C39.6199 22.0007 38.881 25.6836 37.0359 28.8412C35.1908 31.9988 32.345 34.4505 28.9492 35.8082C25.5534 37.1659 21.8017 37.3519 18.2883 36.3368C18.3181 36.4015 18.332 36.4724 18.3288 36.5435C18.3255 36.6147 18.3053 36.684 18.2698 36.7458L16.9923 38.9596Z" fill="#014898" stroke="#014898" stroke-width="0.6"/>
<path d="M9.49898 37.2327C8.8362 37.2331 8.1882 37.0369 7.63694 36.6689C7.08568 36.3009 6.65594 35.7777 6.40205 35.1655C6.14817 34.5533 6.08157 33.8795 6.21065 33.2294C6.33974 32.5793 6.65872 31.9821 7.12726 31.5133C7.59579 31.0445 8.19283 30.7252 8.84285 30.5958C9.49288 30.4663 10.1667 30.5326 10.7791 30.7861C11.3914 31.0397 11.9149 31.4691 12.2831 32.0202C12.6514 32.5713 12.848 33.2192 12.848 33.8819C12.8475 34.7702 12.4946 35.6219 11.8667 36.2502C11.2388 36.8784 10.3872 37.2318 9.49898 37.2327ZM9.49898 31.507C9.02918 31.5067 8.56983 31.6457 8.17904 31.9064C7.78824 32.1672 7.48356 32.538 7.30354 32.9719C7.12351 33.4059 7.07623 33.8835 7.16768 34.3443C7.25912 34.8051 7.48518 35.2284 7.81726 35.5607C8.14935 35.8931 8.57253 36.1194 9.03328 36.2112C9.49403 36.303 9.97165 36.256 10.4057 36.0763C10.8398 35.8966 11.2108 35.5922 11.4718 35.2016C11.7329 34.811 11.8722 34.3517 11.8722 33.8819C11.8721 33.2524 11.622 32.6487 11.177 32.2034C10.7321 31.7581 10.1285 31.5076 9.49898 31.507Z" fill="#014898" stroke="#014898" stroke-width="0.5"/>
<path d="M11.4085 42.9581H7.59455C7.46515 42.9581 7.34106 42.9067 7.24956 42.8152C7.15806 42.7238 7.10666 42.5997 7.10666 42.4703V40.6202C6.2898 40.3265 5.53399 39.8849 4.87703 39.3175L3.26701 40.248C3.2115 40.2801 3.15023 40.3009 3.08669 40.3092C3.02314 40.3176 2.95858 40.3133 2.89668 40.2967C2.83478 40.2801 2.77676 40.2515 2.72594 40.2124C2.67511 40.1734 2.63247 40.1247 2.60046 40.0692L0.694102 36.7652C0.629564 36.6533 0.612084 36.5203 0.645497 36.3954C0.678911 36.2706 0.760488 36.1641 0.872326 36.0994L2.48234 35.1675C2.31975 34.3149 2.31668 33.4396 2.47327 32.5859L0.873009 31.6618C0.76097 31.5971 0.679204 31.4906 0.64569 31.3657C0.612177 31.2407 0.629661 31.1076 0.694297 30.9955L2.60046 27.6894C2.63249 27.6338 2.67514 27.5852 2.72597 27.5462C2.77681 27.5072 2.83483 27.4785 2.89673 27.4619C2.95862 27.4454 3.02318 27.4411 3.08672 27.4495C3.15025 27.4578 3.21152 27.4786 3.26701 27.5107L4.87264 28.4381C5.5333 27.8763 6.29019 27.4388 7.10671 27.1467V25.2935C7.10671 25.1642 7.15811 25.0401 7.24961 24.9486C7.34111 24.8571 7.4652 24.8057 7.5946 24.8057H11.4086C11.538 24.8057 11.6621 24.8571 11.7536 24.9486C11.8451 25.0401 11.8965 25.1642 11.8965 25.2935V27.1457C12.711 27.4391 13.4648 27.8793 14.1205 28.4446L15.7338 27.5107C15.7893 27.4786 15.8506 27.4578 15.9142 27.4494C15.9778 27.441 16.0424 27.4452 16.1043 27.4618C16.1663 27.4784 16.2243 27.507 16.2752 27.5461C16.3261 27.5851 16.3688 27.6338 16.4008 27.6894L18.3066 30.9952C18.3712 31.1073 18.3886 31.2403 18.3551 31.3652C18.3216 31.4901 18.2399 31.5966 18.1279 31.6613L16.5142 32.5938C16.6756 33.4457 16.6795 34.3199 16.5256 35.1731L18.1284 36.101C18.2402 36.1657 18.3218 36.2722 18.3552 36.397C18.3886 36.5219 18.3711 36.6549 18.3066 36.7668L16.4008 40.0711C16.3687 40.1266 16.3261 40.1752 16.2753 40.2143C16.2244 40.2533 16.1664 40.2819 16.1045 40.2985C16.0426 40.3151 15.978 40.3193 15.9145 40.311C15.851 40.3026 15.7897 40.2818 15.7342 40.2498L14.1286 39.3223C13.4683 39.8841 12.7121 40.3223 11.8964 40.6159V42.4703C11.8964 42.5343 11.8838 42.5978 11.8593 42.657C11.8348 42.7162 11.7988 42.7699 11.7535 42.8152C11.7082 42.8606 11.6544 42.8965 11.5952 42.921C11.536 42.9455 11.4726 42.9581 11.4085 42.9581ZM8.08243 41.9824H10.9207V40.2634C10.9207 40.1586 10.9544 40.0566 11.0169 39.9724C11.0793 39.8883 11.1672 39.8265 11.2675 39.7962C12.1882 39.517 13.0317 39.0283 13.7317 38.3683C13.8081 38.2962 13.9056 38.2507 14.0099 38.2385C14.1142 38.2263 14.2196 38.2481 14.3106 38.3006L15.7995 39.1607L17.2179 36.7018L15.7318 35.8413C15.6412 35.7889 15.5698 35.7086 15.5283 35.6125C15.4868 35.5164 15.4773 35.4094 15.5013 35.3075C15.7198 34.3708 15.7156 33.3959 15.4889 32.4612C15.4647 32.3591 15.4742 32.2519 15.5158 32.1556C15.5574 32.0593 15.629 31.979 15.7199 31.9266L17.2177 31.0606L15.7994 28.6005L14.3023 29.4672C14.2114 29.5197 14.106 29.5415 14.0018 29.5294C13.8975 29.5173 13.7999 29.4719 13.7235 29.4C13.0284 28.7364 12.1873 28.2453 11.2678 27.9661C11.1674 27.9359 11.0794 27.8742 11.0168 27.79C10.9542 27.7059 10.9205 27.6038 10.9205 27.4989V25.7814H8.08243V27.5003C8.08243 27.6054 8.04849 27.7077 7.98565 27.792C7.92281 27.8762 7.83444 27.938 7.73369 27.9679C6.81145 28.2419 5.967 28.7299 5.26919 29.3922C5.19291 29.4642 5.0954 29.5097 4.99118 29.5218C4.88697 29.534 4.78161 29.5122 4.6908 29.4596L3.20188 28.5998L1.78301 31.0602L3.26716 31.9171C3.35806 31.9696 3.42959 32.0501 3.4711 32.1465C3.51261 32.243 3.52188 32.3502 3.49754 32.4523C3.2759 33.3884 3.2795 34.3637 3.50803 35.2982C3.53246 35.4003 3.52326 35.5077 3.4818 35.6042C3.44033 35.7007 3.36882 35.7813 3.27789 35.8339L1.78282 36.6994L3.20168 39.1584L4.69534 38.295C4.78617 38.2425 4.89152 38.2207 4.99574 38.2329C5.09995 38.245 5.19746 38.2905 5.27378 38.3625C5.96984 39.028 6.81289 39.5202 7.73462 39.7992C7.83515 39.8293 7.92329 39.8911 7.98595 39.9753C8.04861 40.0595 8.08244 40.1616 8.08243 40.2666V41.9824Z" fill="#014898" stroke="#014898" stroke-width="0.5"/>
</g>
<defs>
<clipPath id="clip0_2010_533">
<rect width="43" height="43" fill="white" transform="translate(0.5 0.288086)"/>
</clipPath>
</defs>
</svg>
