<svg width="44" height="44" viewBox="0 0 44 44" fill="none" xmlns="http://www.w3.org/2000/svg">
<g clip-path="url(#clip0_2010_540)">
<path d="M42.6493 15.8176V40.3396C42.6493 40.8959 42.4284 41.4294 42.035 41.8228C41.6416 42.2162 41.1081 42.4372 40.5518 42.4372H19.3301C19.0602 42.4372 18.8014 42.3299 18.6106 42.1391C18.4197 41.9483 18.3125 41.6894 18.3125 41.4195V28.4251C18.3125 28.2295 18.3902 28.042 18.5285 27.9037C18.6668 27.7654 18.8544 27.6877 19.05 27.6877H23.4749C23.6686 27.6877 23.8604 27.6495 24.0393 27.5754C24.2183 27.5013 24.3809 27.3926 24.5178 27.2557C24.6548 27.1187 24.7634 26.9561 24.8376 26.7771C24.9117 26.5982 24.9498 26.4064 24.9498 26.2127V21.0502C24.9498 20.659 24.7944 20.2839 24.5178 20.0073C24.2412 19.7307 23.866 19.5753 23.4749 19.5753H19.05C18.8544 19.5753 18.6668 19.4976 18.5285 19.3593C18.3902 19.221 18.3125 19.0334 18.3125 18.8378V15.1504C18.3125 14.9548 18.3902 14.7672 18.5285 14.6289C18.6668 14.4906 18.8544 14.4129 19.05 14.4129H23.4749C23.866 14.4129 24.2412 14.2575 24.5178 13.9809C24.7944 13.7043 24.9498 13.3291 24.9498 12.9379V7.03809H33.7484" stroke="#014898" stroke-width="1.7146" stroke-linecap="round" stroke-linejoin="round"/>
<path d="M16.0998 4.82617H19.7873C19.8841 4.82616 19.98 4.84523 20.0695 4.88229C20.159 4.91934 20.2403 4.97366 20.3087 5.04213C20.3772 5.1106 20.4315 5.19189 20.4686 5.28136C20.5057 5.37083 20.5248 5.46673 20.5248 5.56357L20.5253 9.25098C20.5253 9.34784 20.5062 9.44375 20.4692 9.53323C20.4321 9.62272 20.3778 9.70403 20.3093 9.77252C20.2408 9.84102 20.1595 9.89535 20.07 9.93242C19.9806 9.96949 19.8846 9.98858 19.7878 9.98858H16.0998C15.9042 9.98857 15.7166 9.91086 15.5783 9.77256C15.44 9.63425 15.3623 9.44667 15.3623 9.25108V5.56357C15.3623 5.36799 15.44 5.18044 15.5783 5.04215C15.7166 4.90386 15.9042 4.82617 16.0998 4.82617Z" stroke="#014898" stroke-width="1.7146" stroke-linecap="round" stroke-linejoin="round"/>
<path d="M8.72559 18.8382V15.1508C8.72559 14.9552 8.80328 14.7677 8.94158 14.6294C9.07987 14.4911 9.26745 14.4133 9.46304 14.4133H13.1505C13.3461 14.4134 13.5336 14.4911 13.6719 14.6294C13.8102 14.7677 13.8879 14.9552 13.8879 15.1507L13.8884 18.8381C13.8884 18.935 13.8693 19.0309 13.8323 19.1204C13.7952 19.2099 13.7409 19.2912 13.6724 19.3597C13.6039 19.4281 13.5226 19.4825 13.4332 19.5195C13.3437 19.5566 13.2478 19.5757 13.1509 19.5757H9.46288C9.26732 19.5756 9.07979 19.4979 8.94152 19.3596C8.80326 19.2213 8.72559 19.0338 8.72559 18.8382Z" stroke="#014898" stroke-width="1.7146" stroke-linecap="round" stroke-linejoin="round"/>
<path d="M1.35059 28.4258V24.7384C1.35059 24.5428 1.42828 24.3553 1.56658 24.217C1.70488 24.0787 1.89245 24.001 2.08804 24.001H5.77539C5.97096 24.001 6.15852 24.0787 6.29683 24.2169C6.43513 24.3552 6.51285 24.5427 6.51289 24.7383L6.51342 28.4257C6.51342 28.5226 6.49435 28.6185 6.45729 28.708C6.42024 28.7975 6.36591 28.8788 6.29743 28.9473C6.22895 29.0158 6.14764 29.0701 6.05816 29.1072C5.96868 29.1442 5.87277 29.1633 5.77592 29.1633H2.08788C1.89232 29.1633 1.70478 29.0856 1.56652 28.9473C1.42826 28.809 1.35059 28.6214 1.35059 28.4258Z" stroke="#014898" stroke-width="1.7146" stroke-linecap="round" stroke-linejoin="round"/>
<path d="M6.51295 1.13867H10.2005C10.396 1.13867 10.5836 1.21635 10.7219 1.35463C10.8602 1.49291 10.9379 1.68045 10.9379 1.87602L10.9384 5.56342C10.9385 5.75899 10.8608 5.94656 10.7226 6.08489C10.5843 6.22321 10.3968 6.30096 10.2012 6.30103H6.51321C6.41633 6.30107 6.32039 6.28203 6.23087 6.24498C6.14135 6.20793 6.06001 6.15361 5.99149 6.08512C5.92298 6.01662 5.86862 5.9353 5.83154 5.8458C5.79447 5.75629 5.77538 5.66036 5.77539 5.56348V1.87612C5.7754 1.77927 5.79448 1.68337 5.83155 1.5939C5.86862 1.50442 5.92295 1.42312 5.99144 1.35464C6.05993 1.28617 6.14123 1.23185 6.23071 1.19479C6.32019 1.15773 6.4161 1.13866 6.51295 1.13867Z" stroke="#014898" stroke-width="1.7146" stroke-linecap="round" stroke-linejoin="round"/>
<path d="M34.3242 7.17773L35.0068 7.85068L42.4881 15.23H35.6617C35.3113 15.2335 34.9739 15.0981 34.7232 14.8533C34.4726 14.6085 34.3292 14.2743 34.3245 13.924L34.3242 7.17773Z" stroke="#014898" stroke-width="1.7146" stroke-linecap="round" stroke-linejoin="round"/>
</g>
<defs>
<clipPath id="clip0_2010_540">
<rect width="43" height="43" fill="white" transform="translate(0.5 0.288086)"/>
</clipPath>
</defs>
</svg>
