<svg width="45" height="45" viewBox="0 0 45 45" fill="none" xmlns="http://www.w3.org/2000/svg">
<g id="Frame" clip-path="url(#clip0_2108_899)">
<g id="Group">
<path id="Vector" d="M45.0005 22.9453C44.9536 23.0625 44.895 23.1797 44.8481 23.2969C44.4848 24.1758 43.8169 24.6797 42.8677 24.7266C41.9536 24.7734 41.2505 24.375 40.7934 23.5781C40.6645 23.3438 40.5473 23.2383 40.2661 23.2383C34.7348 23.25 29.1919 23.25 23.6606 23.25C23.5434 23.25 23.4262 23.2617 23.2856 23.2734C23.2856 24 23.2856 24.7148 23.2856 25.4883C23.4497 25.4883 23.6137 25.4883 23.7895 25.4883C27.5044 25.4883 31.2309 25.4883 34.9458 25.4883C36.5981 25.4883 37.5005 26.3906 37.5005 28.043C37.5005 29.1211 37.5122 30.2109 37.5005 31.2891C37.5005 31.5234 37.5591 31.6406 37.7817 31.7695C38.7544 32.2852 39.188 33.293 38.9302 34.3242C38.6841 35.2969 37.7348 36.0234 36.727 36.0117C35.7192 36 34.8169 35.2852 34.5708 34.3125C34.313 33.293 34.77 32.2969 35.7309 31.7461C35.8598 31.6758 36.0005 31.4766 36.0005 31.3359C36.0239 30.1992 36.0239 29.0508 36.0122 27.9141C36.0122 27.2813 35.7309 27 35.0864 27C31.2544 27 27.4106 27 23.5786 27C23.4966 27 23.4028 27.0117 23.2973 27.0234C23.2973 27.7617 23.2973 28.4883 23.2973 29.2617C23.4731 29.2617 23.6372 29.2617 23.7895 29.2617C26.2387 29.2617 28.6762 29.2617 31.1255 29.2617C31.2661 29.2617 31.4184 29.25 31.5591 29.2734C31.9575 29.3086 32.2387 29.6133 32.2505 29.9883C32.2622 30.3398 32.0044 30.668 31.6294 30.7383C31.4887 30.7617 31.3364 30.7617 31.1958 30.7617C28.7231 30.7617 26.2505 30.7617 23.7661 30.7617C23.6137 30.7617 23.4497 30.7617 23.2739 30.7617C23.2739 31.2773 23.2739 31.7344 23.2739 32.2617C23.438 32.2617 23.602 32.2617 23.7544 32.2617C25.0552 32.2617 26.3559 32.25 27.6684 32.2617C29.0395 32.2734 29.977 33.1992 29.9887 34.582C30.0005 35.9766 30.0005 37.3594 29.9887 38.7539C29.9887 39.0234 30.0708 39.1641 30.3169 39.293C31.2544 39.7852 31.6997 40.8281 31.4302 41.8242C31.1606 42.832 30.27 43.5234 29.227 43.5117C28.2309 43.5 27.3403 42.8203 27.0825 41.8711C26.8012 40.8398 27.2348 39.7969 28.1841 39.293C28.4302 39.1641 28.5005 39.0117 28.5005 38.7539C28.4887 37.4063 28.5005 36.0586 28.4887 34.7109C28.4887 34.0078 28.2427 33.75 27.5395 33.75C26.145 33.75 24.7622 33.7383 23.3677 33.7617C23.2153 33.7617 23.0278 33.8438 22.9341 33.9492C22.5825 34.3477 22.1606 34.5117 21.645 34.4648C18.938 34.2656 16.5356 33.3047 14.5434 31.4648C10.9927 28.1719 9.69187 24.0938 10.9341 19.4297C12.1762 14.7539 15.3403 11.8945 20.0395 10.7578C20.5903 10.6289 21.1645 10.5938 21.7387 10.5352C22.2075 10.4883 22.5825 10.6875 22.9106 11.0273C23.0278 11.1445 23.2153 11.2383 23.3794 11.2383C24.7856 11.25 26.1919 11.25 27.5981 11.25C28.2192 11.25 28.4887 10.9922 28.5005 10.3828C28.5122 8.98828 28.5005 7.60547 28.5122 6.21094C28.5122 5.97656 28.4536 5.84766 28.2309 5.73047C27.2583 5.21484 26.8247 4.21875 27.0825 3.17578C27.3286 2.20313 28.2309 1.5 29.2387 1.5C30.27 1.5 31.1723 2.19141 31.4302 3.1875C31.688 4.19531 31.2309 5.19141 30.2817 5.75391C30.1411 5.83594 30.0122 6.05859 30.0122 6.21094C29.9887 7.58203 30.0005 8.96484 30.0005 10.3359C29.9887 11.8359 29.0747 12.7383 27.5864 12.7383C26.1684 12.7383 24.7505 12.7383 23.2973 12.7383C23.2973 13.2422 23.2973 13.7109 23.2973 14.2383C23.4731 14.2383 23.6255 14.2383 23.7895 14.2383C26.2622 14.2383 28.7348 14.2383 31.2192 14.2383C31.4067 14.2383 31.6059 14.25 31.7817 14.3086C32.1216 14.4258 32.2973 14.707 32.2622 15.0586C32.227 15.4336 32.0044 15.668 31.6177 15.7266C31.477 15.75 31.3247 15.7383 31.1841 15.7383C28.7348 15.7383 26.2973 15.7383 23.8481 15.7383C23.6841 15.7383 23.5317 15.7383 23.3325 15.7383C23.3325 16.4883 23.3325 17.2031 23.3325 18C23.4848 18 23.6372 18 23.7895 18C27.5278 18 31.2544 18 34.9927 18C35.8012 18 36.0356 17.7656 36.0473 16.957C36.0473 15.8789 36.0356 14.7891 36.0473 13.7109C36.0473 13.4766 35.977 13.3594 35.7661 13.2422C34.77 12.7031 34.3247 11.6484 34.6411 10.6055C34.9458 9.59766 35.9302 8.90625 36.938 9C38.063 9.10547 38.8833 9.90234 39.0239 11.0273C39.1294 11.8828 38.6723 12.7734 37.852 13.207C37.6059 13.3359 37.5356 13.4883 37.5356 13.7578C37.5473 14.8594 37.5473 15.9492 37.5356 17.0508C37.5239 18.5742 36.5981 19.5 35.063 19.5C31.3247 19.5 27.5981 19.5 23.8598 19.5C23.6841 19.5 23.52 19.5 23.3208 19.5C23.3208 20.25 23.3208 20.9648 23.3208 21.7148C23.4848 21.7266 23.6372 21.7383 23.7895 21.7383C29.2622 21.7383 34.7466 21.7383 40.2192 21.7383C40.4536 21.7383 40.6528 21.7617 40.7934 21.4805C41.2387 20.6133 41.977 20.1914 42.9497 20.2617C43.9575 20.332 44.6137 20.9063 44.9419 21.8555C44.9653 21.9258 45.0005 21.9844 45.0356 22.043C45.0005 22.3594 45.0005 22.6523 45.0005 22.9453ZM21.727 12.0469C18.4106 12.2344 14.7661 14.2266 13.0434 17.9766C11.2622 21.8555 11.6723 25.582 14.2622 28.9688C16.1137 31.4063 18.6567 32.6836 21.7153 32.9648C21.727 25.957 21.727 19.0195 21.727 12.0469ZM29.2505 4.48828C29.6723 4.48828 30.0005 4.17187 29.9887 3.73828C29.9887 3.33984 29.6723 3.01172 29.2739 3C28.8755 2.98828 28.5122 3.32812 28.5005 3.73828C28.4887 4.13672 28.8286 4.48828 29.2505 4.48828ZM29.2505 40.5117C28.8403 40.5117 28.4887 40.8633 28.5005 41.2617C28.5122 41.6484 28.8403 41.9883 29.227 42C29.6372 42.0117 29.977 41.6719 29.9887 41.2617C29.9887 40.8281 29.6723 40.5117 29.2505 40.5117ZM43.5005 22.5352C43.5239 22.125 43.1841 21.7734 42.7739 21.7617C42.3637 21.75 42.0356 22.043 42.0122 22.4414C41.9887 22.8633 42.2934 23.2148 42.7153 23.2383C43.1255 23.2617 43.477 22.9453 43.5005 22.5352ZM37.5005 11.2617C37.5005 10.8516 37.1606 10.5117 36.7505 10.5117C36.3403 10.5117 36.0356 10.8164 36.0122 11.2266C36.0005 11.6484 36.3169 11.9883 36.727 12C37.1489 12 37.4887 11.6719 37.5005 11.2617ZM36.0122 33.7148C35.9887 34.1367 36.3052 34.4766 36.727 34.4883C37.1372 34.5 37.4887 34.1719 37.5005 33.7617C37.5122 33.375 37.1958 33.0352 36.7973 33.0117C36.3755 32.9883 36.0356 33.293 36.0122 33.7148Z" fill="#014898"/>
<path id="Vector_2" d="M22.1484 0C23.0273 0.398438 23.2852 1.08984 23.2617 2.01563C23.2148 3.73828 23.25 5.47266 23.25 7.19531C23.25 8.40234 22.7461 8.94141 21.5508 9.03516C15.4102 9.51563 10.5234 13.8164 9.25781 19.8516C7.76953 26.9297 12.4453 34.1484 19.5352 35.6719C20.2734 35.8359 21.0352 35.8945 21.7852 36C22.6992 36.1172 23.2266 36.6563 23.2383 37.5703C23.25 39.5273 23.25 41.4961 23.2383 43.4531C23.2383 44.2617 22.7695 44.7422 22.0547 45.0117C21.7031 45.0117 21.3516 45.0117 21 45.0117C20.8828 44.9883 20.7773 44.9414 20.6602 44.9414C19.3945 44.8242 18.7266 44.2031 18.5273 42.9492C18.4336 42.3281 18.3047 41.707 18.2227 41.0859C18.1875 40.8516 18.0937 40.7461 17.8594 40.6875C16.1133 40.2539 14.4727 39.5742 12.9375 38.6367C12.7266 38.5078 12.5859 38.5195 12.3984 38.6602C11.8242 39.0938 11.2383 39.5156 10.6523 39.9141C9.84375 40.4648 8.82422 40.4414 8.13281 39.8086C7.16016 38.9063 6.21094 37.9688 5.30859 36.9961C4.54687 36.1758 4.54687 35.1914 5.19141 34.2656C5.57812 33.7148 5.98828 33.1758 6.35156 32.6133C6.43359 32.4844 6.45703 32.2383 6.39844 32.1211C5.47266 30.5508 4.78125 28.875 4.3125 27.1172C4.27734 26.9883 4.11328 26.8359 3.98438 26.8125C3.32813 26.6719 2.66016 26.5781 1.99219 26.4727C0.890625 26.2969 0.1875 25.5469 0.09375 24.4336C0.0820313 24.2344 0.0351563 24.0352 0 23.8359C0 22.957 0 22.0781 0 21.1992C0.0351563 21.0234 0.0703125 20.8594 0.0820312 20.6836C0.175781 19.4648 0.855469 18.7383 2.07422 18.5508C2.68359 18.457 3.28125 18.3398 3.89063 18.2578C4.16016 18.2227 4.27734 18.1172 4.34766 17.8359C4.78125 16.1133 5.44922 14.4727 6.375 12.9609C6.51563 12.7266 6.48047 12.5742 6.33984 12.375C5.94141 11.8359 5.54297 11.2852 5.16797 10.7344C4.54687 9.85547 4.54688 8.85938 5.27344 8.07422C6.17578 7.10156 7.11328 6.15234 8.09766 5.25C8.85937 4.54688 9.86719 4.54688 10.7227 5.13281C11.2969 5.53125 11.8594 5.96484 12.4453 6.33984C12.5625 6.42188 12.8086 6.43359 12.9258 6.36328C14.4844 5.44922 16.1367 4.75781 17.8828 4.30078C18.0234 4.26563 18.1875 4.07813 18.2109 3.94922C18.3516 3.28125 18.4453 2.60156 18.5625 1.92188C18.7383 0.867188 19.4883 0.175781 20.5547 0.0820313C20.6836 0.0703125 20.8008 0.0234375 20.9297 0C21.3281 0 21.7383 0 22.1484 0ZM21.7148 1.5C21.3398 1.53516 21.0234 1.57031 20.707 1.58203C20.3086 1.60547 20.0977 1.79297 20.0391 2.19141C19.8984 3.05859 19.7344 3.92578 19.6172 4.79297C19.5469 5.28516 19.3125 5.54297 18.832 5.64844C16.8047 6.08203 14.9297 6.86719 13.1953 7.99219C12.7969 8.25 12.4453 8.23828 12.0703 7.95703C11.3672 7.42969 10.6406 6.9375 9.9375 6.41016C9.60938 6.16406 9.29297 6.15234 8.98828 6.44531C8.16797 7.25391 7.33594 8.0625 6.53906 8.89453C6.12891 9.31641 6.15234 9.50391 6.48047 9.97266C6.97266 10.6641 7.46484 11.3555 7.96875 12.0469C8.25 12.4219 8.28516 12.7734 8.01563 13.1719C6.87891 14.918 6.09375 16.8164 5.66016 18.8555C5.56641 19.3008 5.32031 19.5469 4.875 19.6055C3.99609 19.7461 3.11719 19.8984 2.23828 20.0391C1.83984 20.0977 1.62891 20.3203 1.61719 20.707C1.60547 21.9023 1.60547 23.1094 1.61719 24.3047C1.61719 24.7148 1.85156 24.9258 2.27344 24.9844C3.14062 25.1133 4.00781 25.2773 4.875 25.4063C5.32031 25.4766 5.57813 25.6992 5.67188 26.1563C6.10547 28.1953 6.89063 30.0938 8.02734 31.8398C8.28516 32.2383 8.26172 32.5898 7.98047 32.9648C7.46484 33.6563 6.97266 34.3711 6.46875 35.0625C6.19922 35.4258 6.1875 35.7539 6.51562 36.082C7.33594 36.9023 8.15625 37.7109 8.96484 38.5313C9.29297 38.8594 9.62109 38.8477 9.98437 38.5781C10.6758 38.0625 11.3906 37.582 12.082 37.0547C12.457 36.7734 12.8086 36.75 13.207 37.0078C14.9531 38.1445 16.8516 38.9297 18.8906 39.3633C19.3359 39.457 19.5703 39.7148 19.6406 40.1602C19.7695 41.0391 19.9102 41.9297 20.0859 42.7969C20.1328 43.0195 20.3437 43.3008 20.5312 43.3594C20.9062 43.4766 21.3281 43.4531 21.7383 43.4883C21.75 43.3711 21.7734 43.3125 21.7734 43.2539C21.7852 41.4375 21.7734 39.6211 21.7969 37.8047C21.7969 37.5 21.6445 37.4648 21.3984 37.4297C20.5195 37.3008 19.6172 37.2188 18.7617 36.9961C10.9219 34.9219 6.10547 27.1992 7.89844 19.3125C9.26953 13.2656 13.125 9.45703 19.1367 7.88672C19.9805 7.66406 20.8594 7.58203 21.75 7.42969C21.7148 5.49609 21.7148 3.52734 21.7148 1.5Z" fill="#014898"/>
</g>
</g>
<defs>
<clipPath id="clip0_2108_899">
<rect width="45" height="45" fill="white"/>
</clipPath>
</defs>
</svg>
