<svg width="50" height="47" viewBox="0 0 50 47" fill="none" xmlns="http://www.w3.org/2000/svg">
<g id="Layer_1" clip-path="url(#clip0_2108_922)">
<path id="Vector" d="M43.706 31.5866C42.7742 30.8353 42.0188 30.8353 41.7111 31.5499C41.2253 32.6768 42.3576 33.0457 42.9022 33.6585C43.2894 34.0942 43.9325 34.0925 44.3595 33.6952C45.433 32.7018 46.484 31.6834 47.5126 30.645C47.9206 30.2326 47.8653 29.6683 47.478 29.2944C47.0908 28.9204 46.5428 28.8987 46.0726 29.2526C45.9032 29.3795 45.7528 29.5331 45.6041 29.6817C44.9766 30.3077 44.3525 30.9372 43.706 31.5866ZM44.681 41.0043C44.681 41.0043 44.681 41.001 44.681 40.9993C44.3577 40.9993 44.0345 40.9993 43.7112 40.9993C43.668 40.9993 43.6248 40.9993 43.5815 41.0043C43.0093 41.0677 42.6117 41.4718 42.61 41.991C42.6065 42.5085 43.0007 42.956 43.5694 42.9827C44.3007 43.0177 45.0354 43.0161 45.7666 42.9827C46.3388 42.9576 46.7364 42.5202 46.7399 42.0027C46.7433 41.4851 46.3475 41.0561 45.7787 41.0093C45.4157 40.9793 45.0458 41.0043 44.6793 41.0043H44.681Z" fill="white"/>
<g id="Vector_2">
<path d="M38.6416 9.02701H3.071V9.69314C3.071 17.65 3.071 25.6053 3.071 33.5621C3.071 34.7091 3.37352 35.0013 4.55942 35.0013C15.6266 35.0013 16.6921 35.0013 27.7593 35.0013C28.819 35.0013 29.31 35.3168 29.3152 35.9963C29.3186 36.6758 28.819 37.0013 27.7697 37.0013C16.6817 37.0013 15.5938 37.0013 4.50583 37.0013C2.22739 36.9997 1 35.8076 1 33.5939C1 23.8673 1 14.1407 1 4.41415C1 2.16866 2.21874 1 4.55942 1C18.7539 1 22.9483 1 37.1428 1C39.5128 1 40.7126 2.16532 40.7126 4.46757C40.7126 7.46769 40.7126 10.4661 40.7126 13.4662C40.7126 13.6332 40.7195 13.8001 40.7091 13.9654C40.6676 14.5882 40.2268 15.0139 39.6459 14.9955C39.0876 14.9788 38.6606 14.5681 38.6502 13.9688C38.6295 12.8235 38.6433 11.6782 38.6433 10.5329C38.6433 10.0554 38.6433 9.57628 38.6433 9.02868L38.6416 9.02701ZM3.07445 6.96015H38.588C38.6122 6.88169 38.6329 6.84329 38.6329 6.80489C38.6381 6.03525 38.6416 5.26393 38.6416 4.49429C38.6416 3.26887 38.3615 3.00007 37.0823 3.00007C22.9345 3.00007 18.7884 3.00007 4.64067 3.00007C4.46779 3.00007 4.29492 2.99173 4.12378 3.00341C3.5049 3.04515 3.09866 3.39742 3.0831 3.98509C3.05717 4.96008 3.07618 5.93674 3.07618 6.96015H3.07445Z" fill="#014898"/>
<path d="M30.3558 31.0011C30.3558 27.1078 30.3558 23.2128 30.3558 19.3195C30.3558 17.2093 31.6161 16.0022 33.8185 16.0022C37.7219 16.0022 41.6253 16.0022 45.5287 16.0022C47.7311 16.0022 48.9948 17.2093 48.9965 19.3179C48.9965 27.1061 48.9965 34.8944 48.9965 42.6827C48.9965 44.7913 47.7311 46.0017 45.5322 46.0017C41.6288 46.0017 37.7253 46.0017 33.8219 46.0017C31.6022 46.0017 30.3558 44.7863 30.3558 42.6226C30.3558 38.7493 30.3558 34.876 30.3558 31.0028V31.0011ZM46.9273 30.9994C46.9273 27.1245 46.9273 23.2496 46.9273 19.3763C46.9273 18.3145 46.6023 18.0023 45.5028 18.0023C41.6201 18.0023 37.7357 18.0023 33.853 18.0023C32.7536 18.0023 32.4303 18.3145 32.4303 19.378C32.4303 27.1278 32.4303 34.876 32.4303 42.6259C32.4303 43.6877 32.7553 44.0016 33.8548 44.0016C37.7374 44.0016 41.6219 44.0016 45.5045 44.0016C46.6023 44.0016 46.929 43.6861 46.929 42.6242C46.929 38.7493 46.929 34.8744 46.929 31.0011L46.9273 30.9994Z" fill="#014898"/>
<path d="M24.6096 5.99351C24.4367 5.99351 24.2639 6.00853 24.0927 5.99184C23.5188 5.93674 23.1212 5.53272 23.1125 5.0135C23.1039 4.49596 23.4963 4.06021 24.0633 4.01347C24.4488 3.98175 24.8395 3.98342 25.2268 4.0118C25.8007 4.05354 26.2 4.46924 26.2087 4.98679C26.2173 5.50267 25.8214 5.93007 25.2561 5.99017C25.0435 6.01354 24.8257 5.99351 24.6096 5.99518V5.99351Z" fill="#014898"/>
<path d="M29.7992 5.99184C29.6056 5.99184 29.4068 6.01688 29.2183 5.98683C28.66 5.89834 28.3315 5.57446 28.2952 5.02352C28.2624 4.50931 28.6704 4.06689 29.2322 4.01347C29.5745 3.98175 29.9219 3.99176 30.2659 4.00345C30.9315 4.02515 31.3723 4.41415 31.3862 4.97511C31.4017 5.55943 30.9453 5.9718 30.2504 5.99852C30.1 6.00352 29.9479 5.99852 29.7975 5.99852C29.7975 5.99518 29.7975 5.99351 29.7975 5.99017L29.7992 5.99184Z" fill="#014898"/>
<path d="M34.9732 5.99184C34.7796 5.99184 34.5808 6.01688 34.3924 5.98683C33.8357 5.89668 33.5056 5.57112 33.4727 5.02018C33.4416 4.50597 33.8496 4.06522 34.4131 4.01347C34.7554 3.98175 35.1029 3.99176 35.4469 4.00345C36.1107 4.02515 36.5515 4.41749 36.5636 4.97844C36.5775 5.56444 36.1228 5.9718 35.4244 5.99852C35.274 6.00352 35.1219 5.99852 34.9715 5.99852C34.9715 5.99518 34.9715 5.99351 34.9715 5.99017L34.9732 5.99184Z" fill="#014898"/>
<path d="M38.7073 31.5871C39.3538 30.9377 39.9779 30.3083 40.6054 29.6822C40.7558 29.5336 40.9045 29.38 41.0739 29.2531C41.5441 28.8992 42.0921 28.9209 42.4793 29.2949C42.8665 29.6705 42.9219 30.2331 42.5139 30.6455C41.4853 31.6839 40.4342 32.7007 39.3607 33.6957C38.932 34.093 38.2889 34.093 37.9034 33.659C37.3589 33.0463 36.2266 32.6773 36.7123 31.5504C37.02 30.8358 37.7755 30.8375 38.7073 31.5871Z" fill="#014898"/>
<path d="M39.684 41.0065C40.0505 41.0065 40.4187 40.9814 40.7834 41.0115C41.3522 41.0582 41.7481 41.4873 41.7446 42.0049C41.7411 42.5241 41.3435 42.9598 40.7713 42.9849C40.0401 43.0182 39.3037 43.0182 38.5741 42.9849C38.0054 42.9581 37.6113 42.5124 37.6147 41.9932C37.6182 41.474 38.0158 41.0699 38.5862 41.0065C38.6295 41.0015 38.6727 41.0015 38.7159 41.0015C39.0392 41.0015 39.3624 41.0015 39.6857 41.0015V41.0065H39.684Z" fill="#014898"/>
<path d="M38.6416 9.02701H3.071V9.69314C3.071 17.65 3.071 25.6053 3.071 33.5621C3.071 34.7091 3.37352 35.0013 4.55942 35.0013C15.6266 35.0013 16.6921 35.0013 27.7593 35.0013C28.819 35.0013 29.31 35.3168 29.3152 35.9963C29.3186 36.6758 28.819 37.0013 27.7697 37.0013C16.6817 37.0013 15.5938 37.0013 4.50583 37.0013C2.22739 36.9997 1 35.8076 1 33.5939C1 23.8673 1 14.1407 1 4.41415C1 2.16866 2.21874 1 4.55942 1C18.7539 1 22.9483 1 37.1428 1C39.5128 1 40.7126 2.16532 40.7126 4.46757C40.7126 7.46769 40.7126 10.4661 40.7126 13.4662C40.7126 13.6332 40.7195 13.8001 40.7091 13.9654C40.6676 14.5882 40.2268 15.0139 39.6459 14.9955C39.0876 14.9788 38.6606 14.5681 38.6502 13.9688C38.6295 12.8235 38.6433 11.6782 38.6433 10.5329C38.6433 10.0554 38.6433 9.57628 38.6433 9.02868L38.6416 9.02701ZM3.07445 6.96015H38.588C38.6122 6.88169 38.6329 6.84329 38.6329 6.80489C38.6381 6.03525 38.6416 5.26393 38.6416 4.49429C38.6416 3.26887 38.3615 3.00007 37.0823 3.00007C22.9345 3.00007 18.7884 3.00007 4.64067 3.00007C4.46779 3.00007 4.29492 2.99173 4.12378 3.00341C3.5049 3.04515 3.09866 3.39742 3.0831 3.98509C3.05717 4.96008 3.07618 5.93674 3.07618 6.96015H3.07445Z" stroke="white" stroke-width="0.3"/>
<path d="M30.3558 31.0011C30.3558 27.1078 30.3558 23.2128 30.3558 19.3195C30.3558 17.2093 31.6161 16.0022 33.8185 16.0022C37.7219 16.0022 41.6253 16.0022 45.5287 16.0022C47.7311 16.0022 48.9948 17.2093 48.9965 19.3179C48.9965 27.1061 48.9965 34.8944 48.9965 42.6827C48.9965 44.7913 47.7311 46.0017 45.5322 46.0017C41.6288 46.0017 37.7253 46.0017 33.8219 46.0017C31.6022 46.0017 30.3558 44.7863 30.3558 42.6226C30.3558 38.7493 30.3558 34.876 30.3558 31.0028V31.0011ZM46.9273 30.9994C46.9273 27.1245 46.9273 23.2496 46.9273 19.3763C46.9273 18.3145 46.6023 18.0023 45.5028 18.0023C41.6201 18.0023 37.7357 18.0023 33.853 18.0023C32.7536 18.0023 32.4303 18.3145 32.4303 19.378C32.4303 27.1278 32.4303 34.876 32.4303 42.6259C32.4303 43.6877 32.7553 44.0016 33.8548 44.0016C37.7374 44.0016 41.6219 44.0016 45.5045 44.0016C46.6023 44.0016 46.929 43.6861 46.929 42.6242C46.929 38.7493 46.929 34.8744 46.929 31.0011L46.9273 30.9994Z" stroke="white" stroke-width="0.3"/>
<path d="M24.6096 5.99351C24.4367 5.99351 24.2639 6.00853 24.0927 5.99184C23.5188 5.93674 23.1212 5.53272 23.1125 5.0135C23.1039 4.49596 23.4963 4.06021 24.0633 4.01347C24.4488 3.98175 24.8395 3.98342 25.2268 4.0118C25.8007 4.05354 26.2 4.46924 26.2087 4.98679C26.2173 5.50267 25.8214 5.93007 25.2561 5.99017C25.0435 6.01354 24.8257 5.99351 24.6096 5.99518V5.99351Z" stroke="white" stroke-width="0.3"/>
<path d="M29.7992 5.99184C29.6056 5.99184 29.4068 6.01688 29.2183 5.98683C28.66 5.89834 28.3315 5.57446 28.2952 5.02352C28.2624 4.50931 28.6704 4.06689 29.2322 4.01347C29.5745 3.98175 29.9219 3.99176 30.2659 4.00345C30.9315 4.02515 31.3723 4.41415 31.3862 4.97511C31.4017 5.55943 30.9453 5.9718 30.2504 5.99852C30.1 6.00352 29.9479 5.99852 29.7975 5.99852C29.7975 5.99518 29.7975 5.99351 29.7975 5.99017L29.7992 5.99184Z" stroke="white" stroke-width="0.3"/>
<path d="M34.9732 5.99184C34.7796 5.99184 34.5808 6.01688 34.3924 5.98683C33.8357 5.89668 33.5056 5.57112 33.4727 5.02018C33.4416 4.50597 33.8496 4.06522 34.4131 4.01347C34.7554 3.98175 35.1029 3.99176 35.4469 4.00345C36.1107 4.02515 36.5515 4.41749 36.5636 4.97844C36.5775 5.56444 36.1228 5.9718 35.4244 5.99852C35.274 6.00352 35.1219 5.99852 34.9715 5.99852C34.9715 5.99518 34.9715 5.99351 34.9715 5.99017L34.9732 5.99184Z" stroke="white" stroke-width="0.3"/>
<path d="M38.7073 31.5871C39.3538 30.9377 39.9779 30.3083 40.6054 29.6822C40.7558 29.5336 40.9045 29.38 41.0739 29.2531C41.5441 28.8992 42.0921 28.9209 42.4793 29.2949C42.8665 29.6705 42.9219 30.2331 42.5139 30.6455C41.4853 31.6839 40.4342 32.7007 39.3607 33.6957C38.932 34.093 38.2889 34.093 37.9034 33.659C37.3589 33.0463 36.2266 32.6773 36.7123 31.5504C37.02 30.8358 37.7755 30.8375 38.7073 31.5871Z" stroke="white" stroke-width="0.3"/>
<path d="M39.684 41.0065C40.0505 41.0065 40.4187 40.9814 40.7834 41.0115C41.3522 41.0582 41.7481 41.4873 41.7446 42.0049C41.7411 42.5241 41.3435 42.9598 40.7713 42.9849C40.0401 43.0182 39.3037 43.0182 38.5741 42.9849C38.0054 42.9581 37.6113 42.5124 37.6147 41.9932C37.6182 41.474 38.0158 41.0699 38.5862 41.0065C38.6295 41.0015 38.6727 41.0015 38.7159 41.0015C39.0392 41.0015 39.3624 41.0015 39.6857 41.0015V41.0065H39.684Z" stroke="white" stroke-width="0.3"/>
</g>
</g>
<defs>
<clipPath id="clip0_2108_922">
<rect width="50" height="47" fill="white"/>
</clipPath>
</defs>
</svg>
