<svg width="57" height="41" viewBox="0 0 57 41" fill="none" xmlns="http://www.w3.org/2000/svg">
<g clip-path="url(#clip0_2128_3587)">
<path d="M48.372 27.3132C47.5328 27.7188 46.7439 28.1075 45.9718 28.4793C46.6264 31.8256 43.3031 34.8507 40.0469 33.4987C39.258 36.0337 37.0593 37.2844 34.357 36.3887C33.4506 39.5997 29.6406 40.7151 27.1397 38.0956C27.0893 38.2139 27.039 38.3322 26.9886 38.4336C25.7969 41.2052 22.4904 41.8812 20.342 39.7349C16.5655 35.9492 12.8057 32.1467 9.02925 28.361C8.81105 28.1413 8.57607 27.9385 8.22359 27.6174C8.12288 27.7695 8.07253 27.9216 7.98861 28.023C6.56193 29.6793 4.34638 30.1356 2.44974 29.1553C0.569882 28.192 -0.420401 26.0626 0.133486 23.967C1.94621 17.0717 3.77571 10.1933 5.63879 3.31487C6.20946 1.23614 8.19002 -0.132779 10.2377 0.0193237C12.4365 0.171426 14.1317 1.72625 14.4506 3.94018C14.501 4.31199 14.652 4.43029 14.9877 4.49789C16.8844 4.92039 18.781 5.3598 20.6944 5.79921C20.8455 5.83301 21.0469 5.84991 21.1812 5.79921C23.6653 4.70069 26.1494 3.58528 28.6167 2.46986C28.902 2.33466 29.2209 2.26706 29.4895 2.09805C31.0001 1.20234 32.4603 1.33754 34.0381 2.03045C36.3208 3.02757 38.6706 3.88948 41.0036 4.75139C41.3729 4.88659 41.8428 4.76829 42.2625 4.70069C42.3632 4.68379 42.4974 4.43029 42.5142 4.27819C42.8499 2.03045 44.5116 0.374229 46.6264 0.239027C48.8923 0.0869246 50.8057 1.43894 51.41 3.70358C53.2227 10.4806 55.0354 17.2576 56.8314 24.0515C57.4356 26.3499 56.3614 28.5976 54.2801 29.5103C52.1821 30.4229 49.8658 29.6624 48.5902 27.6512C48.5398 27.5498 48.4727 27.4653 48.372 27.3132ZM9.06281 25.7077C9.58313 26.164 10.0699 26.5358 10.4895 26.9583C14.1821 30.6764 17.8747 34.3944 21.5672 38.1125C21.7351 38.2815 21.8861 38.4505 22.0876 38.5857C22.8932 39.1772 24.0513 39.0589 24.7227 38.3322C25.4277 37.5886 25.4612 36.4732 24.7898 35.6788C24.5045 35.3408 24.1688 35.0535 23.9003 34.6986C23.5478 34.2592 23.5814 33.786 23.9842 33.3804C24.3702 32.9917 24.8402 32.9579 25.2934 33.2959C25.4444 33.3973 25.5787 33.5494 25.713 33.6846C26.804 34.7662 27.8614 35.8816 28.9692 36.9464C29.7916 37.7407 31.0337 37.7238 31.8057 36.9464C32.561 36.1859 32.5778 35.0028 31.8393 34.1409C31.5875 33.8536 31.319 33.5832 31.0504 33.3128C30.3623 32.603 29.6406 31.927 28.9692 31.2003C28.5496 30.7609 28.5831 30.1694 28.9692 29.7807C29.3552 29.392 29.9259 29.392 30.3791 29.7807C30.5133 29.8821 30.6141 30.0173 30.7315 30.1356C32.0407 31.4538 33.3331 32.772 34.6591 34.0733C35.2633 34.6817 36.0186 34.8338 36.8075 34.5127C37.5796 34.2085 37.9992 33.6001 38.0663 32.772C38.1167 32.0622 37.7978 31.5214 37.311 31.0313C36.1194 29.8483 34.9109 28.6652 33.7695 27.4315C33.5345 27.178 33.4003 26.6541 33.4842 26.3161C33.5513 26.0457 33.9877 25.6908 34.2898 25.6739C34.6255 25.657 35.0451 25.8936 35.3137 26.164C36.9921 27.8202 38.637 29.5103 40.3155 31.1665C41.0036 31.8594 41.8764 31.9946 42.6821 31.589C43.5716 31.1327 44.2262 30.1525 44.0416 29.2906C43.9241 28.7666 43.6388 28.2427 43.3031 27.7864C40.349 23.7473 37.3614 19.7081 34.3738 15.6859C34.1724 15.4154 33.8535 15.1957 33.5513 15.0605C31.319 14.1648 29.0531 13.3198 26.8208 12.4241C26.3844 12.2551 26.1158 12.3227 25.7969 12.6607C24.3702 14.131 22.9436 15.5844 21.4833 17.0041C20.1406 18.3223 18.311 18.5927 16.7333 17.7477C14.3331 16.4633 13.8632 13.286 15.7934 11.2918C16.9683 10.075 18.1936 8.87505 19.486 7.57373C17.6732 7.16813 15.978 6.77942 14.2492 6.37382C12.4701 12.8973 10.758 19.3025 9.06281 25.7077ZM44.9983 26.7048C45.955 26.2485 46.8614 25.7922 47.8013 25.3359C46.1397 19.0997 44.4948 12.9142 42.8163 6.61042C41.5407 7.40473 40.433 6.71182 39.3252 6.28932C37.0089 5.4105 34.7095 4.49789 32.41 3.60218C31.9568 3.41627 31.554 3.41627 31.084 3.61908C28.4321 4.75139 25.7466 5.86681 23.0946 6.99913C22.91 7.08363 22.7086 7.16813 22.5575 7.32023C20.728 9.14546 18.8817 10.9707 17.0858 12.8466C15.9948 13.9958 16.6494 15.8887 18.2103 16.1929C18.9824 16.345 19.6035 16.0408 20.1406 15.4999C21.7686 13.8606 23.4135 12.2213 25.0248 10.5651C25.4948 10.075 25.9648 9.97357 26.6026 10.2271C29.2881 11.2918 32.0072 12.3058 34.6927 13.3705C35.0787 13.5226 35.448 13.8268 35.6997 14.1648C37.7139 16.8689 39.7112 19.5729 41.7086 22.2938C42.7996 23.7304 43.8906 25.2007 44.9983 26.7048ZM4.56458 27.6343C5.75628 27.6174 6.67942 26.8738 7.01511 25.5725C8.81105 18.8631 10.5902 12.1368 12.3694 5.4274C12.7722 3.87258 12.0504 2.52056 10.6406 2.13185C9.21387 1.74315 7.93826 2.55436 7.51864 4.10918C6.86405 6.54282 6.20946 8.99335 5.55486 11.427C4.41352 15.6859 3.28896 19.9278 2.1644 24.1867C1.67766 26.0626 2.78543 27.6512 4.56458 27.6343ZM46.895 2.26706C46.811 2.28396 46.6096 2.28396 46.4082 2.35156C44.9983 2.72336 44.243 4.05848 44.6291 5.5626C45.5354 9.02715 46.4586 12.4917 47.3817 15.9394C48.2713 19.2856 49.1441 22.615 50.0504 25.9443C50.4533 27.3977 51.7792 28.1582 53.1556 27.7695C54.4983 27.3808 55.2536 26.0626 54.8844 24.643C54.2633 22.2093 53.6087 19.7926 52.9542 17.3759C51.796 12.9987 50.6211 8.62155 49.4462 4.24439C49.1273 2.99377 48.2042 2.26706 46.895 2.26706Z" fill="#014898" stroke="white" stroke-width="0.4"/>
</g>
<defs>
<clipPath id="clip0_2128_3587">
<rect width="57" height="41" fill="white"/>
</clipPath>
</defs>
</svg>
