<svg width="46" height="46" viewBox="0 0 46 46" fill="none" xmlns="http://www.w3.org/2000/svg">
<path fill-rule="evenodd" clip-rule="evenodd" d="M22.7169 0.308594H22.9509C23.3963 0.363854 23.7712 0.763238 23.7712 1.21788C23.7737 3.152 23.7712 5.08613 23.7712 7.02025C23.7762 7.51006 23.3459 7.94712 22.8553 7.94712C22.3596 7.97726 21.8966 7.55025 21.8915 7.05541C21.889 5.09869 21.889 3.14196 21.8915 1.18523C21.9066 0.743143 22.279 0.351295 22.7169 0.308594Z" fill="#B2B2B2"/>
<path fill-rule="evenodd" clip-rule="evenodd" d="M10.0826 3.16211C10.4928 3.06917 10.9507 3.28519 11.1294 3.66699C11.9623 5.40267 12.7926 7.13836 13.6255 8.87405C13.7664 9.16291 13.7438 9.52461 13.5677 9.79338C13.3689 10.1074 12.9738 10.2757 12.609 10.2078C12.3246 10.1576 12.068 9.97172 11.9396 9.713C11.1042 7.97229 10.2713 6.23158 9.43595 4.49087C9.29252 4.20452 9.31517 3.84784 9.48879 3.57907C9.61712 3.36306 9.84107 3.21737 10.0826 3.16211Z" fill="#B2B2B2"/>
<path fill-rule="evenodd" clip-rule="evenodd" d="M34.7188 3.16311C35.1592 3.05008 35.6498 3.31131 35.8084 3.7333C35.9015 3.97192 35.8939 4.24823 35.7832 4.48183C34.983 6.14969 34.1829 7.81756 33.3827 9.48543C33.2921 9.67381 33.2066 9.87476 33.038 10.0054C32.6958 10.2968 32.1422 10.2842 31.8126 9.98026C31.5056 9.714 31.41 9.24178 31.5886 8.87756C32.424 7.13434 33.2594 5.39112 34.0923 3.6479C34.2156 3.40425 34.4521 3.22339 34.7188 3.16311Z" fill="#B2B2B2"/>
<path fill-rule="evenodd" clip-rule="evenodd" d="M21.6023 10.6384C23.3008 10.5254 25.0144 10.646 26.6751 11.0177C30.2633 11.809 33.5747 13.7757 36.0079 16.5237C36.5439 17.1089 37.0169 17.752 37.4673 18.4076C39.2891 21.1103 40.3283 24.328 40.4265 27.5833C40.5397 30.7558 39.7672 33.9559 38.2096 36.724C37.5202 37.9548 36.6797 39.1027 35.716 40.135C35.2983 40.6098 34.8227 41.0293 34.3497 41.4513C32.0171 43.4733 29.1435 44.8699 26.1064 45.4401C22.7095 46.0831 19.1238 45.7063 15.9458 44.3449C13.9806 43.511 12.1714 42.3128 10.6314 40.8333C10.0099 40.228 9.41354 39.595 8.89267 38.9017C7.49112 37.0932 6.44435 35.0084 5.84045 32.803C5.0428 29.8917 5.0126 26.777 5.75741 23.8533C6.4821 20.9747 7.96669 18.2971 10.0023 16.1369C10.3748 15.7124 10.8025 15.3381 11.2227 14.9588C13.5125 12.9493 16.3307 11.5427 19.3226 10.9449C20.0775 10.7942 20.8399 10.6912 21.6023 10.6384ZM16.6654 13.2734C16.3484 13.4115 16.0238 13.5371 15.7243 13.7079C18.0594 13.6602 20.3693 14.2505 22.5031 15.1623C23.097 14.0872 23.7663 13.0372 24.6193 12.1455C21.9319 11.8517 19.1641 12.2309 16.6654 13.2734ZM26.6977 12.5173C26.6977 12.5399 26.7028 12.5826 26.7053 12.6027C26.4914 12.5675 26.275 12.6404 26.0938 12.7534C25.7466 12.9694 25.4799 13.2809 25.2308 13.5999C24.7728 14.2002 24.3954 14.8558 24.0456 15.524C23.9953 15.6219 23.9349 15.7174 23.9022 15.8204C24.1437 15.9359 24.3752 16.0665 24.6092 16.1921C25.7063 16.8025 26.7556 17.4933 27.7546 18.2543C28.0414 18.4704 28.3182 18.6964 28.6 18.92C29.5461 19.7112 30.447 20.5577 31.2874 21.4595C32.0649 21.1857 32.9909 21.4092 33.5495 22.0171C33.8817 22.3688 34.0855 22.836 34.1232 23.3182C34.1383 23.597 34.1157 23.8834 34.0175 24.1497L34.0251 24.1572C33.9546 24.3079 33.8993 24.4712 33.8011 24.6118C34.1962 25.1896 34.5636 25.7849 34.9083 26.3927C35.0291 26.5912 35.1197 26.8097 35.253 27.0006C35.6204 26.1642 35.9349 25.3051 36.1639 24.4234C36.2469 24.107 36.3199 23.7879 36.3778 23.4664C36.6143 22.1728 36.6772 20.8089 36.2746 19.5429C36.1564 19.1938 36.0205 18.8396 35.784 18.5533C35.487 18.1689 35.1926 17.7746 34.8454 17.433C34.8253 17.3903 34.7976 17.3526 34.7649 17.3199C33.7483 16.2122 32.5833 15.2301 31.2949 14.4514C30.291 13.8184 29.2065 13.3135 28.0867 12.9242C27.6313 12.771 27.1683 12.6328 26.6977 12.5173ZM13.5553 15.4938C12.8382 15.7274 12.1638 16.0967 11.6002 16.6016C11.3787 16.8251 11.1472 17.0386 10.951 17.2848C10.8226 17.3878 10.7245 17.5259 10.6113 17.6465C9.70543 18.6939 8.9279 19.8594 8.324 21.1078C7.13884 23.4991 6.58023 26.1968 6.70353 28.8619C6.72114 29.3894 6.76392 29.9219 6.85199 30.4443C6.83437 30.6352 6.9778 30.7834 7.10613 30.9015C7.42318 31.1577 7.81823 31.2883 8.20322 31.4039C8.55046 31.5018 8.90526 31.5722 9.26005 31.6299C10.2414 31.7882 11.2378 31.8434 12.2318 31.8736L12.2494 31.856L12.2519 31.8309C12.2594 31.8384 12.2796 31.8535 12.2871 31.8635C12.5362 31.8836 12.7878 31.8811 13.0395 31.8811C14.4914 31.8761 15.9432 31.8108 17.3876 31.6777C17.6719 30.0651 18.0166 28.4625 18.3765 26.865C17.9562 26.5937 17.6165 26.1968 17.4052 25.7447C17.3297 25.5714 17.2693 25.393 17.2265 25.2097C17.0353 24.3556 17.292 23.4162 17.9059 22.7933C18.3689 22.3034 19.0257 21.9995 19.7 21.9719C20.1957 20.4145 20.7543 18.8773 21.4161 17.3827C21.5545 17.0738 21.6954 16.7648 21.8439 16.4584C20.6109 15.9158 19.315 15.5064 17.9839 15.2803C16.5195 15.0367 14.977 15.0216 13.5553 15.4938ZM23.2681 17.1391C22.5082 18.8471 21.859 20.6004 21.2702 22.3763C21.9068 22.7857 22.3647 23.4639 22.4805 24.215C22.5056 24.3858 22.5157 24.5591 22.5132 24.7349C22.4855 25.4382 22.171 26.1265 21.6476 26.6012C21.162 27.0433 20.5077 27.307 19.8485 27.2995C19.5088 28.7036 19.1993 30.1153 18.9426 31.537C19.5012 31.4767 20.0598 31.4089 20.6184 31.3386C20.6939 30.801 21.0034 30.3012 21.4539 29.9947C21.9168 29.6732 22.5258 29.5702 23.0718 29.7184C23.6254 29.8616 24.101 30.2635 24.34 30.7809C24.9036 30.683 25.4673 30.585 26.0284 30.472C26.0309 30.4594 26.0385 30.4343 26.041 30.4242L26.0284 30.4745C26.2549 30.4293 26.4839 30.3815 26.7128 30.3363C29.2593 29.8164 31.7881 29.1809 34.239 28.3093C33.7584 27.3472 33.2123 26.4204 32.6059 25.5312C32.0247 25.702 31.3729 25.6191 30.8596 25.2951C30.4042 25.0112 30.067 24.5541 29.9286 24.0391C29.8758 23.8382 29.8531 23.6297 29.8607 23.4212C29.8632 23.0771 29.9664 22.738 30.1274 22.4366C29.599 21.8714 29.0479 21.3263 28.4742 20.8064C28.2176 20.5753 27.9584 20.3467 27.6917 20.1257C26.3253 18.9803 24.8508 17.9605 23.2681 17.1391ZM37.8473 23.7252C37.7894 24.0869 37.7114 24.446 37.6309 24.8052L37.6259 24.8027C37.4246 25.6316 37.1453 26.4405 36.8181 27.2292C37.1578 27.076 37.4824 26.8876 37.797 26.6916C38.0989 26.4932 38.4059 26.2872 38.6324 26.0009C38.7305 25.8778 38.8135 25.717 38.7657 25.5563C38.6726 24.9911 38.5493 24.431 38.3958 23.8784C38.2776 23.4514 38.1442 23.0269 37.9857 22.6124C37.9429 22.9816 37.9127 23.3559 37.8473 23.7252ZM36.1991 29.093C36.959 30.9969 37.4371 33.0391 37.4095 35.0963C38.5292 32.7703 39.0677 30.168 38.967 27.5909C38.1241 28.2239 37.1629 28.6735 36.1991 29.093ZM33.6024 30.0324C31.2044 30.806 28.746 31.3888 26.2775 31.8937C26.036 31.9414 25.7944 31.9891 25.5503 32.0368C25.1729 32.1072 24.7954 32.18 24.418 32.2403C24.2695 32.6598 23.9802 33.0315 23.6002 33.2677C23.1297 33.5666 22.5308 33.6419 21.9974 33.4837C21.5696 33.3606 21.1997 33.0793 20.9405 32.7201C20.1907 32.8105 19.4408 32.8884 18.6885 32.9562C18.4645 34.3578 18.2708 35.7619 18.15 37.1761C18.1299 37.4197 18.1097 37.6609 18.0972 37.902C18.0443 38.7133 18.0066 39.5272 18.0317 40.341C18.9451 40.1953 19.851 39.9818 20.7367 39.7105C21.0613 39.6101 21.3859 39.5046 21.7055 39.3915C22.0678 39.2584 22.4276 39.1303 22.7799 38.9746C23.175 38.8188 23.5625 38.643 23.9475 38.4596C25.188 37.8694 26.3757 37.1686 27.5004 36.3798C27.4476 36.194 27.3897 36.0106 27.3746 35.8172C27.2714 34.9606 27.6967 34.0714 28.4289 33.6143C29.1259 33.1571 30.0746 33.132 30.8018 33.5389C31.841 32.4614 32.7846 31.2883 33.6024 30.0324ZM35.1197 30.4192C34.166 31.9263 33.0186 33.3053 31.768 34.5738C32.0574 35.1741 32.0674 35.9001 31.7932 36.5079C31.5717 37.0003 31.1742 37.4147 30.6835 37.6458C29.9538 38.0075 29.0353 37.9397 28.366 37.475C26.8764 38.5501 25.2836 39.4845 23.6027 40.2305C22.9913 40.5018 22.3673 40.7454 21.7357 40.9665C20.5681 41.3658 19.3704 41.6748 18.15 41.8506C18.2129 42.2651 18.301 42.6795 18.467 43.0664C18.5903 43.3427 18.764 43.6165 19.0332 43.7722C19.0332 43.7898 19.0332 43.8249 19.0307 43.8425C19.5415 43.9681 20.0598 44.0661 20.5807 44.1364C23.1272 44.4956 25.7592 44.2394 28.1823 43.3803C28.8064 43.1543 29.4304 42.9106 30.0142 42.5941C30.2532 42.5012 30.4721 42.3605 30.6986 42.2425C31.8838 41.5768 32.9934 40.768 33.9697 39.8211C34.3195 39.497 34.6667 39.1579 34.9234 38.756C35.3939 38.0603 35.6858 37.2565 35.8393 36.4301C36.1564 34.6768 35.8871 32.8708 35.3814 31.1803C35.2983 30.9266 35.2354 30.6604 35.1197 30.4192ZM7.28478 32.5442C7.42066 33.0039 7.56409 33.4636 7.74526 33.9082C8.15289 34.9983 8.69892 36.0407 9.33805 37.0153C9.56703 37.3469 9.78595 37.691 10.0527 37.9949L10.0426 37.9774C10.2942 38.3491 10.5987 38.6782 10.8956 39.0148C11.0516 39.173 11.185 39.3539 11.3712 39.4744C12.043 39.9416 12.8331 40.2104 13.6283 40.3636C14.592 40.5495 15.5759 40.5721 16.5497 40.5093C16.4792 39.2408 16.5572 37.9749 16.6629 36.7114C16.688 36.4778 16.7208 36.2442 16.7283 36.0081L16.7434 36.0232C16.8365 35.0385 16.9875 34.0589 17.141 33.0818C16.1169 33.1521 15.0902 33.2049 14.0636 33.23C13.8195 33.225 13.5729 33.245 13.3288 33.2375C11.8996 33.245 10.4653 33.1923 9.04868 32.9713C8.65866 32.9059 8.27367 32.8306 7.8912 32.7276C7.68738 32.6774 7.48608 32.6171 7.28478 32.5442ZM14.431 41.926C15.2513 42.4409 16.132 42.8629 17.0328 43.2171C16.8843 42.8202 16.7887 42.4058 16.7107 41.9913C15.9483 42.0365 15.1833 42.0164 14.431 41.926Z" fill="#B2B2B2"/>
<path fill-rule="evenodd" clip-rule="evenodd" d="M0.540995 11.5119C0.825332 11.3788 1.17258 11.4014 1.43678 11.5697C2.96164 12.5142 4.48398 13.4611 6.00883 14.4056C6.21516 14.5412 6.45924 14.6467 6.60267 14.8577C6.83165 15.1692 6.8392 15.6263 6.61525 15.9403C6.35607 16.3347 5.78237 16.4703 5.37725 16.2242C3.78446 15.2395 2.19418 14.2524 0.603901 13.2677C0.457958 13.1773 0.299435 13.0894 0.196268 12.9487C0.0880688 12.8156 0.0251626 12.6523 0 12.484V12.2504C0.0402602 11.9339 0.249108 11.6426 0.540995 11.5119Z" fill="#B2B2B2"/>
<path fill-rule="evenodd" clip-rule="evenodd" d="M44.3092 11.47C44.6162 11.3745 44.9635 11.4524 45.2025 11.6634C45.5321 11.9422 45.6152 12.4546 45.4038 12.8264C45.283 13.0726 45.0314 13.2007 44.8075 13.3363C43.2625 14.2933 41.715 15.2528 40.1675 16.2098C39.9083 16.3756 39.5636 16.3932 39.2843 16.2676C38.9395 16.1144 38.7131 15.7376 38.7382 15.3634C38.7533 15.0519 38.932 14.7505 39.2063 14.5947C40.7814 13.6176 42.3591 12.6405 43.9343 11.6659C44.0526 11.5906 44.1708 11.5077 44.3092 11.47Z" fill="#B2B2B2"/>
<path fill-rule="evenodd" clip-rule="evenodd" d="M26.6973 12.5195C27.1679 12.6326 27.6309 12.7707 28.0888 12.929C28.2499 13.4313 28.3556 13.9488 28.4361 14.4712C29.3872 14.3683 30.3459 14.3532 31.2971 14.4562C32.5854 15.2373 33.7479 16.217 34.767 17.3247C34.8022 17.3573 34.8274 17.395 34.8475 17.4377C34.0901 16.7319 33.144 16.2471 32.1551 15.9582C30.9926 15.6141 29.7672 15.5086 28.5594 15.5513C28.6525 16.6741 28.6449 17.7994 28.6022 18.9222C28.3229 18.6987 28.0435 18.4726 27.7567 18.2566C27.7844 17.3749 27.7642 16.4933 27.7064 15.6141C26.6596 15.7046 25.6229 15.913 24.6114 16.1944C24.3774 16.0688 24.1433 15.9382 23.9043 15.8226C23.937 15.7171 23.9949 15.6242 24.0477 15.5262C25.1977 15.1067 26.3878 14.7827 27.5957 14.5868C27.5202 14.1146 27.4346 13.6348 27.2459 13.1927C27.1352 12.9491 26.9817 12.6778 26.7049 12.6049C26.7024 12.5848 26.6999 12.5421 26.6973 12.5195Z" fill="#CBCBCB"/>
<path fill-rule="evenodd" clip-rule="evenodd" d="M15.8095 20.4171C17.6489 18.8572 19.6694 17.5059 21.846 16.4609C21.6975 16.7674 21.5566 17.0763 21.4182 17.3853C19.521 18.267 17.747 19.4124 16.1542 20.7713C16.3781 21.1305 16.4109 21.6027 16.2247 21.9845C16.0083 22.4492 15.4824 22.7456 14.9716 22.6853C14.7501 22.6702 14.5513 22.5697 14.3626 22.4643C13.4568 23.4188 12.6314 24.4486 11.9042 25.5438C11.6274 25.9708 11.3507 26.4003 11.1141 26.8474C13.1196 26.1843 15.1678 25.6669 17.2286 25.2122C17.2689 25.3956 17.3318 25.5739 17.4073 25.7472C15.7793 26.1441 14.1689 26.6113 12.5887 27.1715C11.9923 27.3875 11.396 27.6085 10.8147 27.8597C11.411 29.2764 12.1634 30.6252 13.0416 31.8837C12.79 31.8862 12.5383 31.8887 12.2892 31.8661C12.2817 31.8586 12.2615 31.8435 12.254 31.8334C11.5117 30.786 10.8424 29.6883 10.2636 28.5429C9.83335 29.5376 9.48359 30.57 9.26216 31.6325C8.90737 31.5722 8.55258 31.5044 8.20533 31.4064C8.48464 30.4193 8.86459 29.4623 9.315 28.5429C8.93002 28.7313 8.55509 28.9398 8.19275 29.1633C7.80776 29.4095 7.42277 29.6657 7.11076 30.0048C6.99501 30.1304 6.89688 30.2786 6.85158 30.4469C6.761 29.9244 6.72074 29.3944 6.70312 28.8644C7.62408 28.2164 8.66078 27.7567 9.70502 27.3523C8.87717 25.3805 8.2934 23.2655 8.3236 21.1104C8.9275 19.862 9.70502 18.6965 10.6109 17.649C10.7241 17.5285 10.8197 17.3903 10.9506 17.2873C10.7845 17.5159 10.6209 17.747 10.4851 17.9932C9.82077 19.1637 9.56411 20.5226 9.54398 21.8564C9.52637 23.4866 9.84593 25.1092 10.3668 26.654C11.401 24.9937 12.639 23.4615 14.0204 22.0774C13.887 21.8338 13.8191 21.5499 13.8619 21.2736C13.9122 20.8567 14.194 20.4799 14.5765 20.3066C14.9665 20.1257 15.4522 20.1659 15.8095 20.4171Z" fill="#CBCBCB"/>
<path fill-rule="evenodd" clip-rule="evenodd" d="M27.6887 20.1289C27.9554 20.3499 28.2146 20.5785 28.4713 20.8096C28.3832 21.729 28.2725 22.6433 28.1366 23.5551C28.7103 23.5048 29.2815 23.4646 29.8577 23.427C29.8502 23.6354 29.8728 23.8414 29.9257 24.0449C29.3042 24.0675 28.6826 24.0826 28.0636 24.1303C28.0058 24.2659 28.0083 24.4267 27.9731 24.5749C27.89 25.0697 27.7994 25.5645 27.7038 26.0594C27.9227 26.1774 28.1089 26.3583 28.2247 26.5793C28.4511 26.9963 28.4109 27.5414 28.119 27.9181C27.9051 28.212 27.5554 28.3879 27.1955 28.4155C27.042 29.0585 26.8835 29.7016 26.7099 30.3421C26.4809 30.3873 26.2519 30.435 26.0255 30.4802L26.0381 30.43C26.2343 29.7216 26.4155 29.0083 26.5715 28.2899C26.2066 28.1116 25.9374 27.7473 25.8846 27.3429C25.8091 26.8657 26.0456 26.3633 26.4557 26.1121C26.6269 26.0016 26.8256 25.9463 27.0269 25.9212C27.1226 25.3435 27.2106 24.7633 27.2886 24.183C26.8307 24.2182 26.3727 24.2584 25.9148 24.3061C25.8644 24.5221 25.7537 24.7306 25.5776 24.8713C25.3033 25.1074 24.8957 25.1652 24.5635 25.022C24.332 24.929 24.1509 24.7407 24.0452 24.5196C23.5319 24.5874 23.0211 24.6603 22.5103 24.7407C22.5128 24.5673 22.5027 24.3915 22.4775 24.2207C22.9732 24.1453 23.4715 24.0826 23.9672 24.0097C24.0125 23.5073 24.4931 23.0954 24.9988 23.1356C25.3863 23.1481 25.7386 23.4194 25.877 23.7811C26.3727 23.7284 26.8659 23.6756 27.3616 23.6279C27.5075 22.4624 27.6107 21.2969 27.6887 20.1289Z" fill="#CBCBCB"/>
<path fill-rule="evenodd" clip-rule="evenodd" d="M34.1262 23.3242C34.8786 23.3318 35.6334 23.3845 36.3833 23.4699C36.3229 23.7914 36.2499 24.1104 36.1694 24.4269C35.6536 24.3315 35.1327 24.2586 34.6093 24.2009C34.4156 24.1883 34.2243 24.1456 34.0281 24.1607L34.0205 24.1531C34.1186 23.8894 34.1413 23.603 34.1262 23.3242Z" fill="#CBCBCB"/>
<path fill-rule="evenodd" clip-rule="evenodd" d="M37.8473 23.7227C38.0335 23.7679 38.2172 23.8156 38.3958 23.8759C38.5493 24.4285 38.6726 24.9886 38.7657 25.5538C38.6877 25.3629 38.5216 25.2348 38.353 25.1293C38.1266 24.9911 37.88 24.8907 37.6309 24.8027C37.7114 24.4436 37.7894 24.0844 37.8473 23.7227Z" fill="#CBCBCB"/>
<path fill-rule="evenodd" clip-rule="evenodd" d="M25.5532 32.0338C25.7948 31.9861 26.0363 31.9384 26.2804 31.8906C25.6287 34.1211 24.8688 36.324 23.9478 38.4616C23.5628 38.645 23.1778 38.8208 22.7803 38.9765C23.8698 36.7335 24.7883 34.4075 25.5532 32.0338Z" fill="#CBCBCB"/>
<path fill-rule="evenodd" clip-rule="evenodd" d="M7.89065 32.7344C8.27312 32.8374 8.66062 32.9127 9.04813 32.978C8.9198 34.249 9.00032 35.5602 9.43815 36.7684C9.59164 37.1954 9.79797 37.5998 10.0395 37.9816L10.0496 37.9992C9.78287 37.6928 9.56396 37.3511 9.33498 37.0196C8.69333 36.045 8.14982 35.0026 7.74219 33.9124C7.76987 33.5156 7.82522 33.1237 7.89065 32.7344Z" fill="#CBCBCB"/>
<path fill-rule="evenodd" clip-rule="evenodd" d="M13.3291 33.2427C13.5732 33.2503 13.8198 33.2302 14.0639 33.2352C14.2199 33.4261 14.3834 33.6145 14.5419 33.8054C14.7659 33.6999 15.0125 33.627 15.2616 33.6547C15.7346 33.6823 16.1674 34.0088 16.3335 34.4534C16.4719 34.8126 16.4266 35.2296 16.2304 35.5561C16.3964 35.7094 16.5625 35.8601 16.7311 36.0133C16.7235 36.2494 16.6908 36.483 16.6657 36.7166C16.3864 36.4654 16.1096 36.2142 15.8378 35.9555C15.4478 36.2017 14.9219 36.2117 14.5294 35.9731C14.1242 35.7395 13.8776 35.2648 13.9204 34.8026C13.933 34.5815 14.016 34.3756 14.1318 34.1897C13.86 33.8782 13.5908 33.5617 13.3291 33.2427Z" fill="#CBCBCB"/>
<path fill-rule="evenodd" clip-rule="evenodd" d="M18.0967 37.9017C18.1118 37.6606 18.1319 37.4194 18.1495 37.1758C19.2667 38.0172 20.4544 38.7658 21.705 39.3912C21.3854 39.5043 21.0608 39.6123 20.7362 39.7102C19.8178 39.1627 18.9421 38.5548 18.0967 37.9017Z" fill="#CBCBCB"/>
<path fill-rule="evenodd" clip-rule="evenodd" d="M30.4566 41.247C31.7223 41.0838 32.9855 40.6492 33.9718 39.8203C32.998 40.7673 31.8884 41.5761 30.7007 42.2417C30.4742 42.3598 30.2553 42.5005 30.0163 42.5934C27.5126 42.6235 25.0617 41.8901 22.8147 40.8326C22.1907 42.0056 21.5012 43.1636 20.5803 44.1332C20.0594 44.0628 19.5411 43.9649 19.0303 43.8393C19.0328 43.8217 19.0328 43.7865 19.0328 43.7689C19.1561 43.8267 19.297 43.8292 19.4253 43.779C19.7046 43.6735 19.9286 43.4675 20.1349 43.2565C20.774 42.5708 21.2672 41.767 21.7353 40.9607C22.3668 40.7422 22.9884 40.4985 23.6023 40.2247C24.2163 40.4558 24.8378 40.6618 25.4719 40.8251C27.0924 41.2521 28.7883 41.4606 30.4566 41.247Z" fill="#CBCBCB"/>
</svg>
