<svg width="63" height="44" viewBox="0 0 63 44" fill="none" xmlns="http://www.w3.org/2000/svg">
<g clip-path="url(#clip0_2171_4288)">
<path d="M26.2168 4.79847C28.2487 2.68625 31.0774 1.37619 34.2058 1.37619C38.3645 1.37619 41.9928 3.68988 43.9251 7.12463C45.6042 6.37613 47.4628 5.95973 49.4182 5.95973C56.919 5.95973 63 12.0798 63 19.6289C63 27.1789 56.919 33.299 49.4182 33.299C48.5198 33.2995 47.6236 33.2104 46.743 33.033C45.0415 36.0612 41.799 38.1073 38.0774 38.1073C36.5194 38.1073 35.0458 37.7483 33.7338 37.1098C32.0089 41.1579 27.9902 43.9963 23.3064 43.9963C18.4289 43.9963 14.2719 40.917 12.6763 36.5985C11.979 36.7463 11.2566 36.8233 10.5153 36.8233C4.70797 36.8233 0 32.0777 0 26.2227C0 22.2991 2.11526 18.8732 5.25807 17.0403C4.61104 15.5549 4.25114 13.9154 4.25114 12.1917C4.25114 5.45832 9.73 0 16.4877 0C20.4553 0 23.9813 1.88213 26.2168 4.79847Z" fill="#E0E0E0"/>
<path d="M9.12458 22.8182C9.0851 22.9212 9.13896 22.9427 9.15151 22.9606C9.26994 23.0465 9.39027 23.1084 9.51141 23.1773C10.154 23.5175 10.7607 23.6168 11.3952 23.6168C12.6875 23.6168 13.4897 22.931 13.4897 21.8269V21.8055C13.4897 20.7847 12.5843 20.414 11.7344 20.1463L11.624 20.1105C10.9832 19.9027 10.4304 19.7237 10.4304 19.3028V19.2805C10.4304 18.9205 10.7535 18.6555 11.2543 18.6555C11.8107 18.6555 12.4712 18.8399 12.8966 19.0745C12.8966 19.0745 13.0213 19.1551 13.0671 19.0342C13.0922 18.9697 13.3076 18.3913 13.3301 18.3287C13.3543 18.2606 13.3112 18.2104 13.2673 18.1836C12.7817 17.889 12.1104 17.6875 11.4159 17.6875L11.2866 17.6884C10.1038 17.6884 9.2782 18.4011 9.2782 19.4228V19.4443C9.2782 20.5214 10.1891 20.8706 11.0426 21.1142L11.1799 21.1563C11.8018 21.347 12.3376 21.5108 12.3376 21.9478V21.9693C12.3376 22.3687 11.9894 22.6659 11.4276 22.6659C11.2095 22.6659 10.514 22.6615 9.76284 22.1877C9.67216 22.1349 9.61925 22.0964 9.54925 22.0543C9.51248 22.0311 9.42003 21.9907 9.37967 22.1125L9.12458 22.8182ZM28.0434 22.8182C28.0039 22.9212 28.0578 22.9427 28.0703 22.9606C28.1887 23.0465 28.3091 23.1084 28.4301 23.1773C29.0727 23.5175 29.6795 23.6168 30.3139 23.6168C31.6062 23.6168 32.4085 22.931 32.4085 21.8269V21.8055C32.4085 20.7847 31.503 20.414 30.6531 20.1463L30.5428 20.1105C29.902 19.9027 29.3491 19.7237 29.3491 19.3028V19.2805C29.3491 18.9205 29.6722 18.6555 30.173 18.6555C30.7294 18.6555 31.3899 18.8399 31.8153 19.0745C31.8153 19.0745 31.94 19.1551 31.9858 19.0342C32.0109 18.9697 32.2263 18.3913 32.2487 18.3287C32.273 18.2606 32.2299 18.2104 32.1859 18.1836C31.7004 17.889 31.0291 17.6875 30.3345 17.6875L30.2052 17.6884C29.0224 17.6884 28.1968 18.4011 28.1968 19.4228V19.4443C28.1968 20.5214 29.1077 20.8706 29.9612 21.1142L30.0985 21.1563C30.7204 21.347 31.2571 21.5108 31.2571 21.9478V21.9693C31.2571 22.3687 30.908 22.6659 30.3462 22.6659C30.1282 22.6659 29.4327 22.6615 28.6815 22.1877C28.5908 22.1349 28.537 22.0982 28.4689 22.0543C28.4455 22.0391 28.336 21.997 28.2983 22.1125L28.0434 22.8182ZM40.9587 20.6556C40.9587 21.2797 40.8421 21.7713 40.6123 22.1187C40.3853 22.4626 40.0416 22.63 39.5624 22.63C39.0823 22.63 38.7404 22.4634 38.5169 22.1187C38.2907 21.7722 38.1759 21.2797 38.1759 20.6556C38.1759 20.0325 38.2907 19.5418 38.5169 19.1979C38.7404 18.8577 39.0823 18.692 39.5624 18.692C40.0416 18.692 40.3853 18.8577 40.6133 19.1979C40.8421 19.5417 40.9587 20.0324 40.9587 20.6556ZM42.0375 19.4988C41.9316 19.1415 41.7665 18.8263 41.5466 18.564C41.3267 18.3007 41.0486 18.0894 40.7182 17.9354C40.3889 17.7823 39.9994 17.7044 39.5624 17.7044C39.1244 17.7044 38.735 17.7823 38.4056 17.9354C38.0753 18.0894 37.7971 18.3008 37.5764 18.564C37.3574 18.8272 37.1922 19.1424 37.0855 19.4988C36.9805 19.8542 36.9275 20.2428 36.9275 20.6556C36.9275 21.0684 36.9805 21.4579 37.0855 21.8125C37.1922 22.1689 37.3565 22.4841 37.5773 22.7473C37.7971 23.0105 38.0763 23.2209 38.4056 23.3704C38.7358 23.52 39.1244 23.5961 39.5625 23.5961C39.9995 23.5961 40.3881 23.52 40.7183 23.3704C41.0477 23.2209 41.3267 23.0105 41.5467 22.7473C41.7665 22.4849 41.9316 22.1697 42.0376 21.8125C42.1435 21.457 42.1964 21.0675 42.1964 20.6556C42.1964 20.2438 42.1434 19.8542 42.0375 19.4988ZM50.8958 22.4633C50.8599 22.3586 50.7585 22.3979 50.7585 22.3979C50.6015 22.458 50.4345 22.5135 50.2568 22.5412C50.0764 22.5689 49.8781 22.5833 49.6654 22.5833C49.1431 22.5833 48.7285 22.4284 48.4315 22.1222C48.1335 21.8159 47.9666 21.3208 47.9683 20.651C47.9702 20.0413 48.1173 19.5828 48.3821 19.2336C48.6451 18.8863 49.0453 18.708 49.5793 18.708C50.0244 18.708 50.3637 18.759 50.719 18.871C50.719 18.871 50.8042 18.9076 50.8446 18.7967C50.9388 18.5352 51.0088 18.348 51.1093 18.0606C51.1381 17.9791 51.0681 17.9442 51.0429 17.9343C50.9029 17.8797 50.5726 17.7911 50.3232 17.7535C50.0898 17.7177 49.817 17.6989 49.5137 17.6989C49.0604 17.6989 48.6566 17.7759 48.3111 17.9299C47.9665 18.083 47.674 18.2943 47.4425 18.5576C47.2109 18.8209 47.035 19.136 46.9174 19.4924C46.8008 19.8478 46.7416 20.2382 46.7416 20.651C46.7416 21.5437 46.983 22.2654 47.4595 22.7937C47.9369 23.3238 48.654 23.5933 49.5892 23.5933C50.142 23.5933 50.7092 23.4814 51.1166 23.3211C51.1166 23.3211 51.1947 23.2835 51.1606 23.1931L50.8958 22.4633ZM52.7832 20.0578C52.8343 19.7113 52.9304 19.4229 53.0785 19.1982C53.302 18.8571 53.6429 18.6699 54.1222 18.6699C54.6015 18.6699 54.9183 18.8579 55.1453 19.1982C55.2961 19.4229 55.3616 19.7238 55.3876 20.0578H52.7832ZM56.4151 19.2957C56.3236 18.951 56.0965 18.6027 55.9476 18.4433C55.7124 18.1908 55.4827 18.0144 55.2548 17.9159C54.9568 17.7887 54.5996 17.7046 54.2084 17.7046C53.7525 17.7046 53.3387 17.7807 53.0031 17.9383C52.6666 18.0959 52.3839 18.3109 52.1622 18.5786C51.9405 18.8454 51.7736 19.1632 51.6677 19.5241C51.5609 19.8832 51.5071 20.2745 51.5071 20.6872C51.5071 21.1071 51.5627 21.4984 51.6731 21.8503C51.7844 22.2049 51.9621 22.5174 52.2026 22.7761C52.4422 23.0367 52.7509 23.2409 53.1207 23.3832C53.4877 23.5247 53.9338 23.5981 54.4462 23.5971C55.5007 23.5936 56.0562 23.359 56.285 23.2327C56.3255 23.2104 56.364 23.171 56.3155 23.0582L56.0768 22.391C56.041 22.2917 55.9395 22.3284 55.9395 22.3284C55.6783 22.4251 55.3069 22.5988 54.4408 22.597C53.8745 22.5961 53.4544 22.4296 53.1915 22.169C52.9214 21.9022 52.7894 21.51 52.7661 20.9566L56.4178 20.9602C56.4178 20.9602 56.5138 20.9585 56.5237 20.8653C56.5273 20.826 56.6494 20.1168 56.4151 19.2957ZM23.5387 20.0578C23.5907 19.7113 23.6858 19.4229 23.8339 19.1982C24.0573 18.8571 24.3984 18.6699 24.8776 18.6699C25.3568 18.6699 25.6737 18.8579 25.9016 19.1982C26.0514 19.4229 26.1169 19.7238 26.143 20.0578H23.5387ZM27.1696 19.2957C27.0781 18.951 26.852 18.6027 26.703 18.4433C26.4679 18.1908 26.2381 18.0144 26.0102 17.9159C25.7122 17.7887 25.3551 17.7046 24.9638 17.7046C24.5088 17.7046 24.0942 17.7807 23.7586 17.9383C23.422 18.0959 23.1393 18.3109 22.9177 18.5786C22.696 18.8454 22.5291 19.1632 22.4232 19.5241C22.3173 19.8832 22.2626 20.2745 22.2626 20.6872C22.2626 21.1071 22.3182 21.4984 22.4286 21.8503C22.5399 22.2049 22.7176 22.5174 22.9581 22.7761C23.1977 23.0367 23.5064 23.2409 23.8762 23.3832C24.2433 23.5247 24.6892 23.5981 25.2017 23.5971C26.2562 23.5936 26.8117 23.359 27.0405 23.2327C27.081 23.2104 27.1195 23.171 27.0711 23.0582L26.8333 22.391C26.7964 22.2917 26.6951 22.3284 26.6951 22.3284C26.4339 22.4251 26.0633 22.5988 25.1954 22.597C24.6301 22.5961 24.2101 22.4296 23.9471 22.169C23.677 21.9022 23.5451 21.51 23.5217 20.9566L27.1734 20.9602C27.1734 20.9602 27.2693 20.9585 27.2792 20.8653C27.2827 20.826 27.4047 20.1168 27.1696 19.2957ZM15.6456 22.4434C15.5029 22.3296 15.4832 22.301 15.4347 22.2276C15.3629 22.1156 15.3261 21.9563 15.3261 21.7539C15.3261 21.4333 15.432 21.2032 15.6519 21.0483C15.6493 21.0493 15.966 20.7752 16.7109 20.7851C17.2341 20.7922 17.7016 20.8692 17.7016 20.8692V22.5257H17.7025C17.7025 22.5257 17.2385 22.6251 16.7162 22.6564C15.9732 22.7012 15.6429 22.4425 15.6456 22.4434ZM17.0985 19.8834C16.9505 19.8727 16.7584 19.8664 16.5286 19.8664C16.2155 19.8664 15.913 19.9057 15.6294 19.9819C15.344 20.058 15.0874 20.1771 14.8666 20.3346C14.6462 20.4916 14.465 20.6972 14.3371 20.9354C14.2079 21.1754 14.1424 21.4584 14.1424 21.7754C14.1424 22.0977 14.198 22.3779 14.3093 22.6072C14.4206 22.8373 14.5812 23.0289 14.7858 23.1767C14.9886 23.3244 15.2391 23.4327 15.5298 23.4981C15.8161 23.5635 16.1409 23.5966 16.4963 23.5966C16.8706 23.5966 17.2439 23.5662 17.6056 23.5043C17.9636 23.4434 18.4034 23.3548 18.5254 23.3271C18.611 23.3065 18.6962 23.2847 18.7812 23.2617C18.8719 23.2394 18.8647 23.1426 18.8647 23.1426L18.8628 19.8109C18.8628 19.0802 18.6672 18.5384 18.2822 18.2027C17.899 17.8678 17.3345 17.6985 16.6049 17.6985C16.3312 17.6985 15.8906 17.7362 15.6267 17.789C15.6267 17.789 14.8289 17.943 14.5004 18.1991C14.5004 18.1991 14.4286 18.2439 14.4681 18.3442L14.7266 19.0373C14.7589 19.1268 14.846 19.0963 14.846 19.0963C14.846 19.0963 14.8738 19.0856 14.9061 19.0668C15.6089 18.6854 16.4973 18.697 16.4973 18.697C16.8922 18.697 17.1955 18.7758 17.4001 18.9324C17.5993 19.0846 17.7007 19.3147 17.7007 19.8V19.9541C17.3866 19.9093 17.0985 19.8834 17.0985 19.8834ZM46.5508 18.0061C46.5786 17.9237 46.5203 17.8843 46.496 17.8754C46.4341 17.8512 46.1236 17.7858 45.884 17.7706C45.4254 17.7429 45.1706 17.8199 44.9426 17.9219C44.7164 18.024 44.4652 18.1887 44.3251 18.3759V17.9327C44.3251 17.8709 44.2812 17.8216 44.2201 17.8216H43.2841C43.2231 17.8216 43.1791 17.8708 43.1791 17.9327V23.3669C43.1791 23.4278 43.2294 23.4779 43.2904 23.4779H44.2498C44.2791 23.4777 44.3073 23.466 44.3279 23.4451C44.3486 23.4243 44.3602 23.3962 44.3601 23.3669V20.652C44.3601 20.2876 44.4005 19.9241 44.4813 19.6958C44.5603 19.4701 44.668 19.2893 44.8008 19.1594C44.9345 19.0305 45.0862 18.9401 45.2522 18.889C45.4218 18.8371 45.6093 18.8201 45.7422 18.8201C45.9334 18.8201 46.1434 18.8693 46.1434 18.8693C46.2133 18.8773 46.2528 18.8343 46.2761 18.7708C46.339 18.6042 46.5167 18.1055 46.5508 18.0061Z" fill="white"/>
<path d="M37.5461 15.4869C37.4294 15.4511 37.3235 15.4268 37.1853 15.4009C37.0452 15.3759 36.8784 15.3633 36.6891 15.3633C36.0285 15.3633 35.5079 15.5495 35.1427 15.9166C34.7793 16.282 34.5324 16.838 34.4086 17.5696L34.3637 17.8158H33.5345C33.5345 17.8158 33.434 17.8122 33.4124 17.9215L33.277 18.6799C33.2671 18.7515 33.2985 18.7971 33.3954 18.7971H34.2022L33.3837 23.3565C33.32 23.7237 33.2464 24.0254 33.1647 24.2546C33.0848 24.4803 33.0068 24.6495 32.9099 24.773C32.8165 24.8913 32.7286 24.979 32.576 25.03C32.4503 25.0721 32.305 25.0918 32.1461 25.0918C32.0581 25.0918 31.9407 25.0774 31.8536 25.0595C31.7674 25.0425 31.7216 25.0237 31.6561 24.9959C31.6561 24.9959 31.5619 24.9602 31.5242 25.0542C31.4946 25.1321 31.2792 25.7221 31.2531 25.7947C31.228 25.8672 31.2639 25.9236 31.3097 25.9406C31.4174 25.9782 31.4972 26.0033 31.6435 26.0382C31.8464 26.0857 32.0177 26.0883 32.1783 26.0883C32.514 26.0883 32.8209 26.0409 33.0749 25.9496C33.3298 25.8573 33.5523 25.697 33.7498 25.4804C33.9625 25.2458 34.0962 25.0004 34.2237 24.6647C34.3502 24.3334 34.4588 23.9215 34.5449 23.4416L35.3679 18.7971H36.5704C36.5704 18.7971 36.6718 18.8007 36.6925 18.6906L36.8289 17.9331C36.8379 17.8606 36.8074 17.8158 36.7095 17.8158H35.5419C35.5482 17.7899 35.6012 17.3797 35.7349 16.9939C35.7924 16.8301 35.9 16.6966 35.9907 16.6053C36.0805 16.5157 36.1837 16.4522 36.2968 16.4154C36.4125 16.3778 36.5445 16.3599 36.689 16.3599C36.7985 16.3599 36.907 16.3725 36.9887 16.3894C37.1017 16.4137 37.1457 16.4262 37.1754 16.4352C37.2948 16.471 37.3109 16.4361 37.3343 16.3788L37.6134 15.6141C37.6421 15.5316 37.5712 15.4967 37.5461 15.4869ZM21.2329 23.3664C21.2329 23.4273 21.189 23.4766 21.1279 23.4766H20.1596C20.0986 23.4766 20.0555 23.4273 20.0555 23.3664V15.5907C20.0555 15.5299 20.0986 15.4806 20.1596 15.4806H21.1279C21.189 15.4806 21.2329 15.5299 21.2329 15.5907V23.3664Z" fill="white"/>
</g>
<defs>
<clipPath id="clip0_2171_4288">
<rect width="63" height="44" fill="white"/>
</clipPath>
</defs>
</svg>
