<svg width="41" height="40" viewBox="0 0 41 40" fill="none" xmlns="http://www.w3.org/2000/svg">
<g clip-path="url(#clip0_2010_394)">
<path d="M25.3672 29.0284C25.3672 29.2598 25.3672 29.4263 25.3672 29.5929C25.3672 32.2982 25.3693 35.0046 25.3672 37.7098C25.3661 39.1631 24.5547 39.997 23.148 39.9993C21.4264 40.0015 19.7058 40.0015 17.9842 39.9993C16.5743 39.9981 15.7781 39.172 15.777 37.7098C15.7749 35.018 15.777 32.3261 15.777 29.6343C15.777 29.4711 15.777 29.3078 15.777 29.0954C15.0308 29.0954 14.3291 29.0954 13.6285 29.0954C12.8236 29.0954 12.6868 28.9512 12.6868 28.1195C12.6868 24.103 12.6911 20.0864 12.6846 16.0699C12.6813 14.5563 13.0941 13.2092 14.1368 12.1126C14.8983 11.3133 15.8226 10.8595 16.9251 10.8572C19.3105 10.8516 21.6958 10.8315 24.0811 10.8628C26.1232 10.8896 27.81 12.4279 28.2967 14.6603C28.3998 15.132 28.452 15.6261 28.4531 16.1101C28.465 20.0987 28.4607 24.0873 28.4596 28.0759C28.4596 28.8607 28.2934 29.0284 27.5254 29.0284C26.8238 29.0284 26.1221 29.0284 25.3682 29.0284H25.3672ZM13.8805 27.688H15.7053V27.2006C15.7053 25.3595 15.7053 23.5195 15.7053 21.6783C15.7053 21.5397 15.6977 21.3955 15.7281 21.2625C15.8053 20.9293 16.0388 20.7739 16.356 20.784C16.6525 20.793 16.8817 20.9383 16.9371 21.2636C16.9675 21.4402 16.9708 21.6235 16.9708 21.8046C16.9719 27.0061 16.9719 32.2076 16.9729 37.4091C16.9729 37.5902 16.9719 37.7724 16.9881 37.9524C17.0218 38.3168 17.2228 38.5829 17.5704 38.5985C18.322 38.6332 19.0769 38.6086 19.8644 38.6086C19.8644 38.4197 19.8644 38.2554 19.8644 38.0899C19.8644 35.1197 19.8644 32.1495 19.8644 29.1793C19.8644 29.0261 19.8557 28.8696 19.8818 28.721C19.9448 28.3722 20.1534 28.1888 20.5064 28.1922C20.9387 28.1967 21.1375 28.4493 21.1375 29.0239C21.1396 32.05 21.1375 35.0761 21.1375 38.1022C21.1375 38.2654 21.1375 38.4298 21.1375 38.6421C21.3395 38.6421 21.4981 38.6421 21.6578 38.6421C24.2907 38.6489 24.0268 38.8378 24.0289 36.2253C24.0322 31.4285 24.0289 26.6305 24.0311 21.8337C24.0311 21.6526 24.0311 21.4693 24.0572 21.2915C24.1082 20.9472 24.3407 20.7874 24.6568 20.784C24.9946 20.7795 25.2238 20.9595 25.2835 21.315C25.3063 21.4514 25.2965 21.5934 25.2965 21.732C25.2965 23.5731 25.2965 25.4132 25.2965 27.2543C25.2965 27.4019 25.2965 27.5494 25.2965 27.6847H27.054C27.0595 27.555 27.0682 27.4589 27.0682 27.3627C27.0682 23.5552 27.0703 19.7489 27.066 15.9413C27.066 15.6775 27.0388 15.4115 27.0041 15.1499C26.7749 13.3713 25.4747 12.088 23.8465 12.0757C21.5698 12.0578 19.2931 12.069 17.0164 12.0724C16.0877 12.0735 15.3415 12.477 14.7603 13.2081C14.0934 14.0477 13.8729 15.0292 13.8751 16.0945C13.8838 19.8036 13.8783 23.5139 13.8783 27.223C13.8783 27.3728 13.8783 27.5215 13.8783 27.688H13.8805Z" fill="#014898"/>
<path d="M30.3792 9.84186C32.6744 12.5203 33.9365 15.6325 34.0756 19.2756C34.7566 19.2756 35.4279 19.2835 36.0981 19.2634C36.1676 19.2611 36.2523 19.0957 36.2947 18.9906C36.7498 17.8682 37.8197 17.2322 38.932 17.4323C40.0888 17.6402 40.9524 18.6239 40.998 19.7854C41.0479 21.0318 40.2919 22.086 39.1319 22.3901C37.9783 22.6919 36.7846 22.0726 36.3219 20.8966C36.2208 20.6383 36.0992 20.5724 35.8494 20.5791C35.2433 20.597 34.6361 20.5847 34.0115 20.5847C33.7584 23.9674 32.6309 26.932 30.3912 29.369C32.2008 31.2303 33.9985 33.0804 35.8179 34.9517C36.4164 34.5973 37.1007 34.5124 37.8089 34.7192C39.0243 35.0747 39.7478 36.3144 39.5164 37.6167C39.2894 38.8945 38.1782 39.7597 36.8889 39.6624C35.6647 39.5708 34.6697 38.4931 34.6491 37.221C34.6447 36.9594 34.635 36.6721 34.7273 36.4385C34.8805 36.0517 34.7664 35.8259 34.4938 35.5498C32.7178 33.7488 30.9603 31.9289 29.1985 30.1135C28.7151 29.6149 28.713 29.3589 29.1822 28.8503C34.0224 23.5985 34.018 15.6213 29.1746 10.365C28.7075 9.85862 28.7119 9.60487 29.2007 9.1007C30.8669 7.38475 32.5332 5.66769 34.2048 3.95621C34.3634 3.793 34.4232 3.67115 34.3232 3.4241C33.7769 2.08153 34.5057 0.548915 35.8722 0.116295C37.2582 -0.323032 38.6702 0.522085 38.9896 1.98204C39.3013 3.4051 38.3563 4.82593 36.9725 5.03162C36.387 5.11881 35.8461 4.99696 35.3638 4.71414C33.6997 6.42561 32.0531 8.12032 30.3803 9.84186H30.3792ZM37.0235 38.4272C37.6829 38.4328 38.2184 37.8962 38.2281 37.2221C38.2379 36.548 37.7122 35.9902 37.0572 35.9801C36.3762 35.969 35.8407 36.5134 35.8428 37.2154C35.845 37.923 36.3305 38.4216 37.0235 38.4283V38.4272ZM38.5323 18.71C37.9175 18.7156 37.3309 19.3584 37.3494 20.009C37.3668 20.6596 37.8925 21.1682 38.5475 21.1693C39.2068 21.1693 39.7521 20.5959 39.7434 19.9084C39.7358 19.2455 39.1884 18.7044 38.5323 18.71ZM37.7861 2.59799C37.785 1.92838 37.2506 1.37838 36.5945 1.37056C35.9341 1.36161 35.3997 1.87249 35.3899 2.52086C35.3801 3.20276 35.9308 3.76841 36.6032 3.76617C37.2723 3.76394 37.7871 3.25419 37.7861 2.59799Z" fill="#014898"/>
<path d="M10.6476 29.5358C8.42199 26.9971 7.24345 24.0213 6.99471 20.5882C6.30606 20.5882 5.62066 20.5782 4.93526 20.6017C4.85488 20.6039 4.75278 20.7716 4.70824 20.8822C4.20207 22.1555 2.88016 22.7782 1.63319 22.3221C0.410119 21.8749 -0.269847 20.4943 0.0994633 19.2077C0.466602 17.9288 1.77874 17.1564 3.042 17.4828C3.8371 17.6885 4.37043 18.2139 4.67566 18.9796C4.76907 19.2133 4.88529 19.2949 5.12317 19.2881C5.7043 19.2736 6.28542 19.2837 6.92519 19.2837C7.10985 15.6863 8.27426 12.5049 10.6085 9.86106C8.9488 8.15294 7.30319 6.45824 5.62392 4.72888C5.02867 5.07542 4.33785 5.17267 3.61769 4.93457C2.31098 4.50083 1.63971 3.0923 2.09483 1.74525C2.53909 0.429507 3.93921 -0.253518 5.22962 0.21711C6.51787 0.685502 7.20218 2.14881 6.696 3.43437C6.57652 3.7362 6.6569 3.87817 6.84481 4.07044C8.49802 5.7618 10.1447 7.45986 11.7925 9.1568C12.2911 9.66991 12.2954 9.98515 11.8196 10.5061C6.99797 15.7791 6.98059 23.6546 11.7795 28.931C12.3074 29.5112 12.3052 29.7336 11.7653 30.2892C9.99264 32.1136 8.2243 33.9436 6.44074 35.7556C6.19743 36.0027 6.14312 36.1994 6.24197 36.546C6.65256 37.9735 5.89981 39.353 4.55292 39.7174C3.1919 40.0852 1.83305 39.2691 1.5224 37.864C1.30407 36.8724 1.56259 36.0016 2.32728 35.342C3.08762 34.687 3.96636 34.5461 4.87552 34.9463C5.19052 35.0849 5.34367 35.0246 5.55983 34.7999C7.15221 33.1443 8.75654 31.5021 10.3565 29.8544C10.4499 29.7582 10.5379 29.6554 10.6465 29.5358H10.6476ZM3.93052 38.4263C4.60614 38.4207 5.10688 37.9031 5.10905 37.2089C5.11123 36.5002 4.59745 35.9781 3.89902 35.9803C3.23317 35.9826 2.69116 36.5561 2.70745 37.2413C2.72266 37.9065 3.26576 38.4319 3.93052 38.4263ZM2.44784 21.1673C3.05829 21.1729 3.65354 20.5424 3.65571 19.8885C3.65788 19.2434 3.14193 18.7259 2.47934 18.7091C1.81241 18.6923 1.26605 19.2434 1.25953 19.9399C1.25302 20.5938 1.80372 21.1617 2.44676 21.1673H2.44784ZM4.41279 1.36741C3.76976 1.3607 3.22774 1.91629 3.21905 2.59149C3.21036 3.2175 3.76107 3.75967 4.40845 3.76526C5.0743 3.77085 5.60436 3.26557 5.61197 2.61832C5.62066 1.91182 5.10471 1.37412 4.41171 1.36741H4.41279Z" fill="#014898"/>
<path d="M20.5081 10.1277C17.874 10.1288 15.7049 7.86618 15.707 5.12067C15.7103 2.3528 17.8556 0.132685 20.5178 0.141628C23.1432 0.150572 25.295 2.39416 25.2982 5.12402C25.3015 7.89637 23.166 10.1254 20.5081 10.1277ZM24.0274 5.18774C24.0241 3.12413 22.4687 1.50097 20.4961 1.50321C18.5268 1.50544 16.9757 3.13643 16.9779 5.20004C16.9801 7.27147 18.5268 8.88904 20.5016 8.88904C22.4524 8.88904 24.0306 7.23123 24.0274 5.18774Z" fill="#014898"/>
</g>
<defs>
<clipPath id="clip0_2010_394">
<rect width="41" height="40" fill="white"/>
</clipPath>
</defs>
</svg>
