<svg width="43" height="42" viewBox="0 0 43 42" fill="none" xmlns="http://www.w3.org/2000/svg">
<path d="M1 18.7487C1 18.4197 1 18.0907 1 17.7617C1.35627 16.5994 2.05802 15.8537 3.29957 15.7221C3.38594 15.7111 3.4939 15.5576 3.52629 15.4479C3.72062 14.8777 3.83938 14.2855 4.08769 13.7372C4.6275 12.531 5.22128 11.3466 5.79348 10.1623C5.93383 9.8772 6.18214 9.74561 6.50602 9.85527C6.78672 9.95396 6.97025 10.1623 6.93786 10.4694C6.91627 10.6448 6.80831 10.8312 6.71115 10.9848C5.89064 12.3774 5.26447 13.8579 4.78944 15.4041C4.67068 15.7988 4.6059 16.1169 5.04854 16.3471C5.21049 16.4349 5.30765 16.6651 5.4588 16.7967C5.56676 16.8845 5.7287 16.9941 5.84746 16.9722C8.19021 16.4897 10.5654 16.2484 12.9621 16.1826C13.0917 16.1826 13.2644 16.073 13.34 15.9633C13.9553 15.0203 14.8082 14.6474 15.9094 14.768C16.0498 14.779 16.2549 14.7022 16.3305 14.5926C17.4965 13.0244 18.8028 11.5769 20.2603 10.2829C20.4222 10.1404 20.4114 10.0198 20.3682 9.82237C20.2819 9.41663 20.2171 8.98895 20.2387 8.57224C20.2495 8.32003 20.1955 8.1994 19.9904 8.10071C19.0619 7.62917 18.155 7.11377 17.205 6.69706C16.1901 6.24745 15.1213 5.89654 14.0849 5.50177C13.6746 6.22552 13.1456 6.66416 12.4223 6.83962C11.7097 7.01507 11.0404 6.87251 10.425 6.46677C10.2955 6.5874 10.1767 6.67513 10.0687 6.78479C9.6153 7.25632 9.16186 7.72786 8.70843 8.18843C8.41693 8.49548 8.09305 8.51741 7.82315 8.2652C7.54245 8.01298 7.53165 7.67303 7.82315 7.36598C8.31977 6.82865 8.82718 6.30228 9.35619 5.78688C9.55052 5.60046 9.6261 5.4579 9.52893 5.16182C9.17266 4.06522 9.58291 2.95765 10.533 2.33259C11.4722 1.70753 12.5842 1.77333 13.4479 2.54095C13.6638 2.73833 13.815 2.67254 14.0093 2.57384C17.4317 0.928945 21.0268 0.314849 24.7946 0.720591C27.0294 0.961843 29.1563 1.56497 31.1859 2.55191C31.3047 2.60674 31.5098 2.59578 31.607 2.52998C32.5894 1.83912 33.5611 1.78429 34.468 2.37646C35.3856 2.97959 35.7635 3.96653 35.526 5.12892C35.5044 5.26051 35.5584 5.44694 35.6555 5.54563C35.9362 5.84171 36.2493 6.1049 36.53 6.40098C36.7028 6.5874 36.8539 6.60933 37.0914 6.5216C38.117 6.18166 39.1427 6.5216 39.7904 7.38792C40.4166 8.2323 40.4814 9.35083 39.8984 10.2281C39.7473 10.4584 39.7473 10.6119 39.8768 10.8422C41.0104 12.838 41.7553 14.9874 42.1332 17.2683C42.2628 18.0359 42.3383 18.8035 42.4463 19.5821C42.4463 20.4375 42.4463 21.2818 42.4463 22.1372C42.3923 22.521 42.3491 22.8938 42.2951 23.2776C41.7014 28.1904 39.5853 32.3246 36.0442 35.7021C35.8391 35.8995 35.7959 36.053 35.8715 36.3272C36.1845 37.3799 35.7959 38.4546 34.8998 39.0687C33.9929 39.6937 32.8701 39.6718 32.0064 38.959C31.8121 38.7945 31.6718 38.8055 31.4774 38.9152C29.5665 39.9021 27.5369 40.5381 25.41 40.8342C21.3723 41.3935 17.5073 40.7903 13.8474 38.9481C13.5775 38.8165 13.4155 38.8165 13.1672 38.9919C12.3251 39.5841 11.2779 39.5512 10.4358 38.9481C9.59371 38.3449 9.20505 37.347 9.45336 36.3601C9.51814 36.0969 9.47495 35.9434 9.28062 35.7569C7.74757 34.3423 6.47363 32.7194 5.4588 30.899C3.76381 27.8505 2.85693 24.5716 2.81375 21.0625C2.81375 20.92 2.75977 20.6897 2.6734 20.6568C1.79891 20.3168 1.2807 19.6479 1 18.7487ZM17.9067 17.696C17.3561 19.3189 16.3953 19.9001 14.7435 19.6918C14.7219 19.7247 14.6895 19.7466 14.6787 19.7795C12.5087 24.3194 11.6774 29.1116 12.1092 34.134C12.12 34.2436 12.2711 34.4081 12.3899 34.441C12.9405 34.5946 13.4155 34.8687 13.761 35.3293C13.8906 35.4938 13.9877 35.5376 14.1929 35.4609C20.541 33.0374 25.8311 29.1445 30.0955 23.793C30.2251 23.6395 30.2683 23.5189 30.1495 23.3325C29.858 22.8609 29.7609 22.3346 29.8364 21.7972C29.8796 21.5121 29.7932 21.4025 29.5449 21.2709C26.9539 19.9769 24.2656 19.0009 21.4478 18.3649C20.2819 18.1127 19.0943 17.9262 17.9067 17.696ZM14.2252 37.7199C14.2576 37.7418 14.2792 37.7637 14.3008 37.7747C19.8284 40.4833 25.3668 40.4833 30.9052 37.8295C31.1104 37.7308 31.1536 37.6102 31.132 37.3909C30.9916 36.053 31.6502 35.0003 32.8809 34.6055C33.1076 34.5397 33.1832 34.4301 33.1832 34.2107C33.2156 33.2567 33.2588 32.2917 33.302 31.3376C33.3236 30.8551 33.5395 30.592 33.9282 30.6029C34.306 30.6139 34.5327 30.8661 34.5219 31.3267C34.5003 32.2149 34.5219 33.1141 34.414 33.9914C34.3492 34.5178 34.4896 34.781 34.943 34.9345C34.9646 34.9455 34.997 34.9455 35.0186 34.9455C35.0402 34.9345 35.0725 34.9345 35.0941 34.9126C36.9511 33.2128 38.3977 31.2061 39.4774 28.9142C39.5961 28.651 39.4774 28.5413 39.3262 28.3988C37.7824 26.8416 36.1306 25.416 34.3384 24.1549C34.1873 24.0453 34.0685 23.815 33.7878 24.0124C33.4963 24.2098 33.6259 24.4181 33.669 24.6484C33.8526 25.5695 34.0469 26.4907 34.2089 27.4228C34.2844 27.8505 34.0685 28.1136 33.7014 28.1685C33.3236 28.2233 33.0861 27.993 32.9997 27.4996C32.8162 26.5236 32.6218 25.5476 32.4491 24.6155C32.1036 24.5607 31.8229 24.5716 31.607 24.462C31.2831 24.2975 31.132 24.451 30.9484 24.6813C26.7379 29.945 21.5234 33.8489 15.3049 36.3162C14.6355 36.5794 14.1713 36.8426 14.2252 37.6321C14.2144 37.665 14.2144 37.676 14.2252 37.7199ZM12.8757 17.4766C12.8002 17.4766 12.649 17.4657 12.5087 17.4766C10.5222 17.7069 8.54649 17.9372 6.56 18.1565C6.11736 18.2004 5.86905 18.2991 5.80427 18.8474C5.75029 19.2641 5.448 19.7027 5.1565 20.0317C4.8866 20.3278 4.47635 20.5032 4.02291 20.7884C4.3252 26.2604 6.30089 31.0635 10.1875 34.9455C10.8677 34.781 10.9216 34.3752 10.8784 33.8379C10.6517 31.2828 10.8029 28.7497 11.2887 26.2275C11.7421 23.8369 12.4979 21.545 13.5343 19.3518C13.5991 19.2202 13.653 19.0228 13.5991 18.9132C13.3939 18.4416 13.1456 17.992 12.8757 17.4766ZM34.7595 6.39001C33.3344 7.31115 32.1576 7.1028 31.0888 5.81978C31.024 5.74302 30.8297 5.72109 30.7217 5.75398C28.8216 6.32421 27.0186 7.14667 25.2913 8.14457C25.0753 8.2652 25.0537 8.40775 25.0645 8.63804C25.0753 9.01088 25.0645 9.40566 24.9566 9.76754C24.8702 10.0746 24.9242 10.2281 25.1401 10.4255C27.7636 12.7832 29.8688 15.5576 31.445 18.7377C31.715 19.2751 31.9309 19.7356 32.6542 19.6369C32.8593 19.604 32.9781 19.604 33.0861 19.4066C34.5435 16.8845 35.6987 14.2307 36.5624 11.4344C36.638 11.1822 36.6164 11.0506 36.4005 10.897C35.9146 10.5461 35.6123 10.0417 35.472 9.44952C35.2993 8.72577 35.4612 8.06781 35.8391 7.43178C35.4828 7.0699 35.1265 6.74092 34.7595 6.39001ZM40.0927 27.3899C40.1359 27.2693 40.1791 27.1706 40.2115 27.0719C40.7621 25.5037 41.086 23.8808 41.1939 22.2249C41.4423 18.4416 40.7081 14.8777 38.8836 11.555C38.8188 11.4344 38.6137 11.2808 38.5597 11.3028C38.3006 11.4344 37.9011 11.1931 37.7716 11.6427C36.8971 14.6035 35.6663 17.4108 34.1333 20.0756C34.0793 20.1743 34.0901 20.3936 34.1657 20.4923C34.6299 21.1064 34.8026 21.7972 34.6731 22.5429C34.6191 22.8171 34.7163 22.9158 34.9106 23.0693C35.9038 23.8259 36.8971 24.5716 37.8579 25.3721C38.6137 25.9972 39.337 26.699 40.0927 27.3899ZM17.2374 15.4918C17.3885 15.733 17.5612 15.9304 17.6584 16.1717C17.7556 16.4239 17.9067 16.5116 18.1658 16.5445C18.792 16.6213 19.4182 16.72 20.0443 16.8296C23.5747 17.4657 26.9539 18.6061 30.1711 20.2181C30.2899 20.2839 30.4842 20.251 30.6245 20.1962C30.6677 20.1743 30.6893 19.933 30.6353 19.8234C29.0699 16.5226 26.9323 13.6605 24.2332 11.2479C24.1469 11.1712 23.931 11.1493 23.823 11.1931C23.0349 11.5769 22.2683 11.5769 21.491 11.1931C21.3939 11.1493 21.2103 11.1383 21.1456 11.1931C19.6665 12.4761 18.371 13.9127 17.2374 15.4918ZM30.7649 3.72527C30.5814 3.63755 30.4086 3.54982 30.2251 3.46209C28.1522 2.51901 25.9714 1.99265 23.7042 1.87202C20.5086 1.69656 17.4533 2.29969 14.5707 3.72527C14.452 3.79107 14.3332 3.95556 14.3008 4.09812C14.2468 4.3284 14.4304 4.3942 14.6247 4.47096C15.931 4.96443 17.259 5.44694 18.5437 5.99524C19.3534 6.34615 20.1199 6.80672 20.908 7.21246C22.1388 6.24745 23.0673 6.24745 24.4492 7.22343C24.5895 7.1357 24.7515 7.05894 24.9026 6.97121C26.5436 6.01717 28.2602 5.22762 30.0739 4.67932C30.549 4.51483 30.8405 4.31744 30.7649 3.72527ZM2.20917 18.2443C2.20917 18.9351 2.75977 19.5053 3.43992 19.5053C4.14167 19.5053 4.65988 18.979 4.67068 18.2662C4.68148 17.5424 4.14167 16.9832 3.42913 16.9832C2.77056 16.9722 2.20917 17.5534 2.20917 18.2443ZM15.456 18.5184C16.1685 18.5184 16.7083 17.9591 16.6976 17.2354C16.6868 16.5665 16.1362 16.0182 15.4776 16.0072C14.7974 15.9962 14.2252 16.5555 14.2144 17.2354C14.2037 17.9482 14.7543 18.5184 15.456 18.5184ZM31.0348 22.0933C31.0456 22.7842 31.607 23.3544 32.2764 23.3434C32.9889 23.3325 33.5071 22.7732 33.4963 22.0385C33.4855 21.3257 32.9457 20.7993 32.244 20.8103C31.5638 20.8213 31.024 21.4025 31.0348 22.0933ZM11.8717 3.20987C11.1699 3.20987 10.6409 3.73624 10.6301 4.44903C10.6193 5.15085 11.1915 5.74302 11.8717 5.74302C12.5303 5.73205 13.0809 5.17279 13.0917 4.51483C13.1024 3.76914 12.5842 3.20987 11.8717 3.20987ZM23.877 8.98895C23.877 8.28713 23.348 7.73883 22.657 7.72786C21.9877 7.7169 21.4155 8.27616 21.4047 8.96702C21.3939 9.64691 21.9445 10.25 22.6138 10.261C23.3156 10.272 23.877 9.70174 23.877 8.98895ZM34.7703 37.029C34.781 36.2943 34.252 35.746 33.5395 35.746C32.8377 35.746 32.3195 36.2723 32.3087 36.9851C32.2979 37.687 32.8377 38.2462 33.5179 38.2462C34.2089 38.2682 34.7703 37.7199 34.7703 37.029ZM33.1616 3.19891C32.4815 3.19891 31.9309 3.75817 31.9309 4.44903C31.9309 5.16182 32.4491 5.69915 33.14 5.72109C33.8526 5.73205 34.3924 5.19472 34.3924 4.46C34.4032 3.76914 33.8418 3.19891 33.1616 3.19891ZM10.6301 36.9084C10.6409 37.5992 11.1915 38.1585 11.8717 38.1585C12.541 38.1585 13.1024 37.5883 13.1024 36.8974C13.1024 36.2066 12.5087 35.6034 11.8393 35.6254C11.1591 35.6363 10.6193 36.2175 10.6301 36.9084ZM39.0779 8.90122C39.0779 8.1994 38.5489 7.64013 37.8687 7.64013C37.167 7.64013 36.638 8.15554 36.6272 8.86833C36.6164 9.60305 37.1346 10.1513 37.8579 10.1623C38.5273 10.1513 39.0779 9.59208 39.0779 8.90122Z" fill="#014898" stroke="#014898" stroke-width="0.2"/>
</svg>
