<svg width="41" height="41" viewBox="0 0 41 41" fill="none" xmlns="http://www.w3.org/2000/svg">
<g clip-path="url(#clip0_2048_441)">
<path d="M12.4955 31.8492C12.1542 31.6987 11.846 31.6019 11.6037 31.4298C10.5468 30.6661 9.63302 29.7627 8.84032 28.7301C8.35589 28.1063 8.39993 27.4825 8.95042 26.9124C9.25869 26.6005 9.74311 26.3316 9.80917 25.9767C9.87523 25.6325 9.48989 25.2131 9.32474 24.8259C9.13758 24.3956 8.95042 23.9546 8.82931 23.5029C8.74123 23.2018 8.59811 23.1265 8.31186 23.148C7.98157 23.1695 7.65128 23.1587 7.32099 23.148C6.5393 23.1157 6.07689 22.707 5.9668 21.9434C5.76862 20.6634 5.77963 19.3728 5.9668 18.0929C6.07689 17.3615 6.5393 16.9528 7.29897 16.9097C7.6733 16.8882 8.03661 16.899 8.41094 16.9097C8.62013 16.9205 8.71921 16.856 8.79628 16.6516C9.10455 15.8665 9.45686 15.0921 9.77614 14.3069C9.82018 14.1993 9.78715 13.995 9.71008 13.9089C9.46787 13.6293 9.19263 13.3927 8.9284 13.1345C8.41094 12.5968 8.35589 11.9729 8.79628 11.3814C9.611 10.3166 10.5578 9.39159 11.6478 8.59568C12.2313 8.17621 12.8809 8.21923 13.4093 8.69248C13.6956 8.95061 13.9488 9.24102 14.2351 9.47764C14.3231 9.55293 14.5323 9.58519 14.6424 9.54217C15.4461 9.23026 16.2388 8.88608 17.0425 8.58492C17.2517 8.50964 17.3178 8.40208 17.3068 8.20848C17.2957 7.87506 17.2957 7.54163 17.3068 7.19745C17.3288 6.38003 17.7361 5.9283 18.5619 5.80999C19.861 5.62714 21.1711 5.62714 22.4703 5.80999C23.252 5.91754 23.6703 6.36928 23.7034 7.13292C23.7144 7.4771 23.7144 7.83203 23.7034 8.17621C23.6924 8.39132 23.7584 8.49888 23.9896 8.58492C24.7823 8.87533 25.564 9.20875 26.3457 9.54217C26.5439 9.62822 26.654 9.62822 26.8081 9.46688C27.0723 9.18724 27.3476 8.9291 27.6228 8.67097C28.1182 8.21924 28.7678 8.1547 29.3183 8.55266C30.4523 9.35933 31.4322 10.3166 32.2579 11.4244C32.6652 11.9622 32.5992 12.586 32.1368 13.0808C31.8615 13.3712 31.5643 13.6185 31.3 13.9197C31.223 14.0057 31.201 14.1886 31.245 14.2854C31.5643 15.0813 31.9056 15.8772 32.2579 16.6624C32.3019 16.7699 32.4781 16.8775 32.5992 16.8882C32.9515 16.9205 33.3148 16.8882 33.6671 16.899C34.4708 16.9205 34.9442 17.3292 35.0653 18.1036C35.2525 19.3835 35.2525 20.6742 35.0653 21.9649C34.9552 22.6962 34.5039 23.105 33.7332 23.148C33.3588 23.1695 32.9955 23.1587 32.6212 23.148C32.423 23.148 32.3129 23.191 32.2359 23.4061C31.9276 24.1913 31.5753 24.9657 31.256 25.7508C31.212 25.8584 31.245 26.0627 31.3221 26.1488C31.5753 26.4392 31.8615 26.6866 32.1258 26.9555C32.6102 27.461 32.6652 28.0955 32.2469 28.6441C31.4211 29.7304 30.4523 30.6876 29.3403 31.4836C28.7788 31.8923 28.1293 31.8277 27.6118 31.3545C27.3366 31.0964 27.0723 30.806 26.7861 30.5693C26.698 30.494 26.4888 30.4618 26.3787 30.5048C25.575 30.8167 24.7823 31.1609 23.9786 31.462C23.7694 31.5373 23.7034 31.6449 23.7144 31.8385C23.7254 32.1719 23.7254 32.5053 23.7144 32.8495C23.6924 33.6669 23.285 34.1187 22.4593 34.237C21.1601 34.4198 19.85 34.4198 18.5508 34.237C17.7802 34.1294 17.3508 33.6777 17.3178 32.914C17.3068 32.5699 17.3068 32.2149 17.3178 31.8708C17.3288 31.6556 17.2627 31.5588 17.0315 31.4728C16.2388 31.1824 15.4571 30.849 14.6754 30.5156C14.4773 30.4295 14.3562 30.4403 14.213 30.5908C13.9488 30.8705 13.6956 31.1501 13.3873 31.376C13.1451 31.5696 12.8148 31.6879 12.4955 31.8492ZM31.289 27.9235C30.7716 27.4287 30.3312 27.02 29.9018 26.6113C29.6046 26.3316 29.5495 26.0197 29.7697 25.6755C30.4083 24.6753 30.8597 23.5997 31.1349 22.4596C31.234 22.0617 31.4762 21.8681 31.9056 21.8788C32.423 21.8896 32.9515 21.9003 33.4689 21.8681C33.579 21.8573 33.7772 21.7067 33.7772 21.6207C33.7992 20.5774 33.7992 19.5341 33.7772 18.4801C33.7772 18.3833 33.5901 18.2327 33.4689 18.2219C32.9735 18.1897 32.4781 18.2112 31.9826 18.2112C31.4211 18.2112 31.234 18.0821 31.1019 17.5658C30.8376 16.4688 30.3972 15.447 29.8027 14.4897C29.5165 14.0165 29.5385 13.8121 29.9459 13.4249C30.3642 13.0162 30.7826 12.6183 31.201 12.2203C30.4083 11.2093 29.5385 10.3596 28.5256 9.61746C28.0742 10.0692 27.6448 10.4887 27.2155 10.9081C26.9512 11.1663 26.654 11.2523 26.3237 11.048C25.2667 10.4026 24.1217 9.95088 22.9107 9.66048C22.5584 9.57444 22.3822 9.34857 22.3822 8.99364C22.3822 8.71399 22.3822 8.43435 22.3822 8.14395C22.3822 7.10065 22.3822 7.06839 21.3143 7.02537C20.4335 6.9931 19.5417 7.04688 18.6279 7.05763C18.6279 7.73523 18.6279 8.29452 18.6279 8.85381C18.6279 9.39159 18.4848 9.57444 17.9453 9.70351C16.8223 9.96164 15.7764 10.3919 14.7965 10.9834C14.3341 11.2523 14.114 11.2308 13.7396 10.8544C13.3213 10.4456 12.9139 10.0262 12.4295 9.54217C11.5157 10.4349 10.6569 11.2738 9.74311 12.1665C10.2716 12.6613 10.712 13.0808 11.1634 13.5002C11.4386 13.7584 11.4936 14.0595 11.2845 14.3714C10.6349 15.3932 10.1725 16.4903 9.88624 17.6626C9.79816 18.0283 9.55595 18.2004 9.17061 18.2004C8.65316 18.2004 8.12469 18.2112 7.60724 18.2004C7.36502 18.1897 7.24392 18.2649 7.24392 18.5123C7.24392 19.5341 7.24392 20.5559 7.24392 21.5669C7.24392 21.8035 7.36502 21.8896 7.60724 21.8788C8.09166 21.8573 8.56508 21.8681 9.0495 21.8788C9.62201 21.8788 9.79816 22.0079 9.94129 22.5672C10.2055 23.632 10.6349 24.6322 11.2074 25.568C11.5267 26.0843 11.5047 26.2671 11.0643 26.6973C10.6569 27.0953 10.2385 27.4825 9.76513 27.9342C10.6789 28.8269 11.5377 29.6766 12.4515 30.5586C12.9029 30.1068 13.2772 29.7196 13.6626 29.3324C14.158 28.8377 14.3011 28.8592 14.9177 29.1603C15.7214 29.5583 16.5471 29.9455 17.3948 30.2252C18.6609 30.6446 18.6499 30.4295 18.6389 31.9138C18.6279 33.0001 18.6389 33.0324 19.7509 33.0754C20.6207 33.1076 21.5014 33.0539 22.3932 33.0324C22.3932 32.3655 22.3932 31.7955 22.3932 31.2362C22.3932 30.7092 22.5253 30.5263 23.0428 30.408C24.1768 30.1391 25.2337 29.7089 26.2246 29.1173C26.687 28.8484 26.8962 28.8699 27.2815 29.2464C27.6999 29.6551 28.1072 30.0746 28.5917 30.5586C29.4945 29.6659 30.3642 28.8269 31.289 27.9235Z" fill="#014898"/>
<path d="M2.28922 10.8756C1.88187 11.0907 1.56259 11.2628 1.24331 11.4241C0.835948 11.6285 0.472628 11.5317 0.285464 11.1983C0.0982998 10.8648 0.219406 10.5099 0.626764 10.2948C1.66167 9.73551 2.69658 9.17622 3.73149 8.63844C4.29298 8.34804 4.7664 8.62768 4.7664 9.25151C4.75539 10.3808 4.72236 11.5102 4.68933 12.6395C4.67832 13.1235 4.41409 13.4032 4.01774 13.3924C3.61038 13.3817 3.36817 13.0697 3.36817 12.575C3.36817 12.3384 3.36817 12.091 3.36817 11.7898C3.30211 11.8866 3.23605 11.9404 3.20303 12.0049C1.63965 15.2639 1.04513 18.6734 1.49653 22.2442C2.11307 27.1273 4.37005 31.1714 8.20141 34.355C11.0749 36.7428 14.3999 38.1518 18.1431 38.6035C22.8333 39.1628 27.1491 38.1518 31.1125 35.6349C31.3768 35.4629 31.652 35.3445 31.9603 35.4951C32.4557 35.7317 32.4447 36.3556 31.9052 36.6567C30.6721 37.3343 29.4611 38.0765 28.1509 38.582C17.3615 42.7767 5.38294 37.614 1.32037 26.9875C-0.694396 21.7172 -0.386126 16.4793 2.05802 11.3704C2.12408 11.2305 2.19014 11.1015 2.28922 10.8756Z" fill="#014898"/>
<path d="M37.6089 28.3215C38.5338 26.6759 39.1283 24.9335 39.4145 23.1051C40.2733 17.609 38.9741 12.6291 35.407 8.29465C32.1922 4.40113 27.9975 2.11019 22.9 1.47561C18.1989 0.894809 13.8611 1.92734 9.89761 4.45491C9.45723 4.73455 9.07189 4.70228 8.84068 4.37962C8.59847 4.03544 8.71958 3.6805 9.18198 3.37935C13.2446 0.776497 17.6925 -0.299061 22.5257 0.120407C31.3665 0.905564 38.831 7.47722 40.5816 16.0172C41.4844 20.4162 40.9449 24.6431 38.9741 28.698C38.9411 28.7733 38.8971 28.8378 38.864 28.9131C38.853 28.9346 38.853 28.9669 38.831 29.0744C39.1173 28.9239 39.3595 28.7948 39.5907 28.6765C40.0861 28.4076 40.4494 28.4506 40.6696 28.8055C40.8898 29.1712 40.7467 29.5154 40.2623 29.7843C39.3154 30.3113 38.3796 30.8383 37.4218 31.3546C36.7172 31.7418 36.2548 31.4837 36.2548 30.7093C36.2548 29.623 36.2658 28.5367 36.2768 27.4396C36.2768 26.9663 36.53 26.6759 36.9263 26.6759C37.3227 26.6759 37.5869 26.9663 37.5869 27.4396C37.6089 27.7407 37.6089 28.0311 37.6089 28.3215Z" fill="#014898"/>
<path d="M20.5002 27.6652C16.1513 27.6437 12.6723 24.2019 12.7053 19.9642C12.7383 15.7803 16.2835 12.3708 20.5772 12.4031C24.849 12.4353 28.3611 15.8879 28.339 20.0288C28.306 24.2772 24.8049 27.6867 20.5002 27.6652ZM14.0265 20.0073C13.9824 23.4813 16.911 26.353 20.5222 26.3853C24.0453 26.4068 26.9848 23.5566 27.0179 20.0933C27.0509 16.6085 24.1444 13.726 20.5882 13.7045C16.9881 13.6615 14.0705 16.4794 14.0265 20.0073Z" fill="#014898"/>
<path d="M19.862 24.0296C18.8161 23.6317 18.1885 22.9326 18.1225 21.8247C18.1005 21.3192 18.3427 21.0181 18.761 21.0073C19.1464 20.9966 19.3996 21.2762 19.4436 21.7602C19.4877 22.341 19.873 22.739 20.4125 22.7927C21.018 22.8465 21.5465 22.4378 21.6015 21.8678C21.6676 21.2655 21.2382 20.7599 20.6217 20.6847C20.3354 20.6524 20.0382 20.6416 19.7739 20.5556C18.8491 20.2759 18.1885 19.437 18.1335 18.5335C18.0674 17.5225 18.5739 16.6513 19.4657 16.2211C19.5868 16.1673 19.7189 16.1135 19.84 16.0598C19.9281 15.2423 20.1042 14.9842 20.5556 14.9949C20.996 15.0057 21.1611 15.2853 21.2052 15.9307C21.6456 16.2749 22.0749 16.533 22.4162 16.8879C22.8016 17.2859 22.9557 17.8129 22.9337 18.3722C22.9227 18.7917 22.6695 19.0606 22.2951 19.0606C21.9208 19.0713 21.6566 18.8132 21.6235 18.3937C21.5575 17.7054 21.2162 17.3074 20.6327 17.2644C20.0382 17.2214 19.5317 17.6301 19.4767 18.1786C19.4106 18.7809 19.829 19.2972 20.4455 19.3725C20.7428 19.4155 21.051 19.4262 21.3373 19.5123C22.2621 19.8027 22.9117 20.6416 22.9557 21.5559C23.0108 22.5991 22.4823 23.4703 21.5245 23.8791C21.3043 23.9759 21.2162 24.0619 21.2162 24.3093C21.2272 24.7825 20.952 25.0622 20.5556 25.0622C20.1593 25.0514 19.9171 24.7718 19.906 24.2878C19.851 24.2232 19.862 24.1372 19.862 24.0296Z" fill="#014898"/>
</g>
<defs>
<clipPath id="clip0_2048_441">
<rect width="41" height="40" fill="white" transform="translate(0 0.0341797)"/>
</clipPath>
</defs>
</svg>
