<svg width="46" height="40" viewBox="0 0 46 40" fill="none" xmlns="http://www.w3.org/2000/svg">
<path d="M38.3429 25.3144C37.6953 25.631 37.0865 25.9344 36.4907 26.2247C36.9959 28.8367 34.4313 31.1981 31.9186 30.1428C31.3098 32.1216 29.6131 33.0978 27.5277 32.3986C26.8283 34.9051 23.8881 35.7758 21.9583 33.731C21.9194 33.8234 21.8805 33.9157 21.8417 33.9949C20.9221 36.1584 18.3705 36.6861 16.7126 35.0107C13.7983 32.0556 10.897 29.0874 7.98273 26.1323C7.81435 25.9608 7.63302 25.8025 7.36102 25.5519C7.28331 25.6706 7.24445 25.7893 7.17969 25.8685C6.07875 27.1613 4.36904 27.5175 2.90544 26.7524C1.45478 26.0004 0.690594 24.3382 1.11802 22.7024C2.51687 17.3199 3.92867 11.9507 5.36637 6.58147C5.80675 4.95882 7.33512 3.89026 8.9153 4.00899C10.612 4.12772 11.9202 5.3414 12.1663 7.06958C12.2052 7.35981 12.3217 7.45215 12.5808 7.50492C14.0444 7.83473 15.508 8.17772 16.9846 8.52072C17.1011 8.54711 17.2566 8.5603 17.3602 8.52072C19.2771 7.66323 21.1941 6.79254 23.0981 5.92186C23.3182 5.81632 23.5643 5.76355 23.7716 5.63163C24.9373 4.93244 26.0641 5.03798 27.2816 5.57886C29.0432 6.3572 30.8565 7.03 32.6568 7.70281C32.9418 7.80834 33.3045 7.716 33.6283 7.66323C33.706 7.65004 33.8096 7.45215 33.8225 7.33342C34.0816 5.57886 35.3639 4.28602 36.9959 4.18048C38.7444 4.06175 40.221 5.11713 40.6873 6.88489C42.0861 12.175 43.485 17.465 44.8708 22.7683C45.3371 24.5625 44.5082 26.317 42.9021 27.0294C41.2831 27.7418 39.4956 27.1481 38.5113 25.5783C38.4724 25.4991 38.4206 25.4331 38.3429 25.3144ZM8.00864 24.0611C8.41016 24.4173 8.78577 24.7076 9.10958 25.0374C11.9591 27.9397 14.8086 30.8419 17.6581 33.7442C17.7876 33.8762 17.9042 34.0081 18.0596 34.1136C18.6813 34.5753 19.575 34.483 20.0931 33.9157C20.6371 33.3353 20.663 32.4646 20.1449 31.8446C19.9247 31.5807 19.6657 31.3564 19.4585 31.0794C19.1865 30.7364 19.2124 30.367 19.5232 30.0504C19.8211 29.747 20.1838 29.7206 20.5335 29.9845C20.6501 30.0636 20.7537 30.1823 20.8573 30.2879C21.6992 31.1322 22.5152 32.0029 23.3701 32.834C24.0047 33.454 24.9632 33.4408 25.559 32.834C26.1418 32.2403 26.1548 31.3169 25.5849 30.6441C25.3906 30.4198 25.1834 30.2087 24.9761 29.9976C24.4451 29.4436 23.8881 28.9159 23.3701 28.3486C23.0462 28.0056 23.0721 27.5439 23.3701 27.2405C23.668 26.9371 24.1083 26.9371 24.458 27.2405C24.5617 27.3196 24.6394 27.4252 24.73 27.5175C25.7403 28.5465 26.7376 29.5755 27.7609 30.5913C28.2272 31.0662 28.81 31.1849 29.4188 30.9343C30.0146 30.6968 30.3384 30.2219 30.3902 29.5755C30.429 29.0214 30.183 28.5993 29.8073 28.2167C28.8877 27.2932 27.9552 26.3698 27.0744 25.4068C26.8931 25.2089 26.7895 24.7999 26.8542 24.5361C26.906 24.325 27.2428 24.048 27.4759 24.0348C27.735 24.0216 28.0588 24.2063 28.266 24.4173C29.5612 25.7102 30.8306 27.0294 32.1258 28.3222C32.6568 28.8631 33.3304 28.9687 33.9521 28.652C34.6385 28.2958 35.1437 27.5307 35.0012 26.8579C34.9105 26.4489 34.6903 26.04 34.4313 25.6838C32.1517 22.5309 29.8462 19.3779 27.5407 16.2382C27.3853 16.0271 27.1392 15.8556 26.906 15.7501C25.1834 15.0509 23.4348 14.3913 21.7122 13.6921C21.3754 13.5601 21.1682 13.6129 20.9221 13.8768C19.8211 15.0245 18.7202 16.159 17.5933 17.2672C16.5571 18.2962 15.1453 18.5072 13.9278 17.8476C12.0757 16.845 11.713 14.3649 13.2025 12.8082C14.1092 11.8584 15.0547 10.9217 16.052 9.9059C14.6532 9.58929 13.345 9.28587 12.0109 8.96926C10.638 14.0615 9.31682 19.0613 8.00864 24.0611ZM35.7395 24.8395C36.4778 24.4833 37.1772 24.1271 37.9025 23.7709C36.6202 18.903 35.3509 14.0746 34.0557 9.15395C33.0713 9.77398 32.2165 9.2331 31.3616 8.9033C29.5742 8.2173 27.7997 7.50492 26.0253 6.80573C25.6756 6.66062 25.3647 6.66062 25.002 6.81893C22.9556 7.70281 20.8832 8.57349 18.8368 9.45737C18.6943 9.52333 18.5388 9.58929 18.4223 9.70802C17.0105 11.1328 15.5857 12.5575 14.1998 14.0219C13.3579 14.9189 13.8631 16.3965 15.0676 16.6339C15.6634 16.7527 16.1427 16.5152 16.5571 16.0931C17.8135 14.8134 19.0828 13.5338 20.3263 12.2409C20.6889 11.8584 21.0516 11.7792 21.5438 11.9771C23.6161 12.8082 25.7144 13.5997 27.7868 14.4308C28.0847 14.5496 28.3696 14.787 28.5639 15.0509C30.1182 17.1616 31.6595 19.2724 33.2008 21.3963C34.0427 22.5177 34.8846 23.6654 35.7395 24.8395ZM4.53742 25.5651C5.45704 25.5519 6.16941 24.9714 6.42846 23.9556C7.81435 18.7183 9.18729 13.4678 10.5602 8.23049C10.8711 7.01681 10.3141 5.96143 9.22615 5.65801C8.12521 5.35459 7.14083 5.98782 6.81703 7.2015C6.31189 9.10118 5.80675 11.014 5.30161 12.9137C4.42085 16.2382 3.55305 19.5494 2.68525 22.8738C2.30963 24.3382 3.16448 25.5783 4.53742 25.5651ZM37.2031 5.76355C37.1383 5.77674 36.9829 5.77674 36.8275 5.82951C35.7395 6.11974 35.1566 7.16192 35.4545 8.33603C36.154 11.0404 36.8663 13.7448 37.5787 16.436C38.2652 19.0481 38.9387 21.647 39.6381 24.2458C39.949 25.3804 40.9722 25.974 42.0343 25.6706C43.0705 25.3672 43.6533 24.3382 43.3684 23.23C42.8891 21.3304 42.384 19.4439 41.8789 17.5574C40.9852 14.1406 40.0785 10.7238 39.1718 7.30704C38.9257 6.33082 38.2134 5.76355 37.2031 5.76355Z" fill="#014898" stroke="white" stroke-width="0.2"/>
</svg>
