<svg width="47" height="47" viewBox="0 0 47 47" fill="none" xmlns="http://www.w3.org/2000/svg">
<g clip-path="url(#clip0_2171_5567)">
<path d="M20.388 39.8611V28.3519C20.388 27.9552 20.0666 27.6338 19.67 27.6338H14.8827C14.4861 27.6338 14.1646 27.9552 14.1646 28.3519C14.1646 28.7485 14.4861 29.07 14.8827 29.07H18.9519V39.8611C17.5813 40.1863 16.5583 41.4197 16.5583 42.8883C16.5583 44.6041 17.9541 46 19.67 46C21.3858 46 22.7817 44.6041 22.7817 42.8883C22.7817 41.4197 21.7586 40.1863 20.388 39.8611ZM19.67 44.5638C18.7461 44.5638 17.9944 43.8121 17.9944 42.8883C17.9944 41.9645 18.7461 41.2128 19.67 41.2128C20.5938 41.2128 21.3455 41.9645 21.3455 42.8883C21.3455 43.8121 20.5938 44.5638 19.67 44.5638Z" fill="#014898"/>
<path d="M28.0482 39.8611V28.3519C28.0482 27.9552 27.7268 27.6338 27.3301 27.6338H22.543C22.1463 27.6338 21.8249 27.9552 21.8249 28.3519C21.8249 28.7485 22.1463 29.07 22.543 29.07H26.612V39.8611C25.2415 40.1863 24.2184 41.4197 24.2184 42.8883C24.2184 44.6041 25.6143 46 27.3301 46C29.046 46 30.4418 44.6041 30.4418 42.8883C30.4418 41.4197 29.4188 40.1863 28.0482 39.8611ZM27.3301 44.5638C26.4063 44.5638 25.6546 43.8121 25.6546 42.8883C25.6546 41.9645 26.4063 41.2128 27.3301 41.2128C28.254 41.2128 29.0057 41.9645 29.0057 42.8883C29.0057 43.8121 28.254 44.5638 27.3301 44.5638Z" fill="#014898"/>
<path d="M40.2547 34.9894C38.7861 34.9894 37.5527 36.0124 37.2276 37.383H35.7069V28.3519C35.7069 27.9552 35.3854 27.6338 34.9888 27.6338H30.2015C29.8049 27.6338 29.4835 27.9552 29.4835 28.3519C29.4835 28.7485 29.8049 29.07 30.2015 29.07H34.2707V38.1011C34.2707 38.4977 34.5921 38.8192 34.9888 38.8192H37.2276C37.5527 40.1897 38.7861 41.2128 40.2547 41.2128C41.9706 41.2128 43.3664 39.8169 43.3664 38.1011C43.3664 36.3852 41.9706 34.9894 40.2547 34.9894ZM40.2547 39.7766C39.3309 39.7766 38.5792 39.0249 38.5792 38.1011C38.5792 37.1772 39.3309 36.4255 40.2547 36.4255C41.1786 36.4255 41.9303 37.1772 41.9303 38.1011C41.9303 39.0249 41.1786 39.7766 40.2547 39.7766Z" fill="#014898"/>
<path d="M44.2901 16.4682C43.3223 15.2666 42.0078 14.3764 40.5452 13.9222C40.3806 10.523 38.9702 7.35141 36.5393 4.94076C33.9766 2.3995 30.5776 1 26.9684 1C22.229 1 17.8434 3.47136 15.377 7.49024C14.7773 7.30115 14.1539 7.20569 13.5163 7.20569C10.583 7.20569 8.0605 9.27627 7.45223 12.0987C3.68506 13.076 1 16.5095 1 20.4458C1 25.2012 4.86866 29.0699 9.62401 29.0699H11.2926V37.383H9.77184C9.44669 36.0124 8.21331 34.9894 6.74468 34.9894C5.02884 34.9894 3.63298 36.3852 3.63298 38.1011C3.63298 39.8169 5.02884 41.2128 6.74468 41.2128C8.21331 41.2128 9.44669 40.1897 9.77184 38.8191H12.0106C12.4073 38.8191 12.7287 38.4977 12.7287 38.1011V28.3519C12.7287 27.9552 12.4073 27.6338 12.0106 27.6338H9.62401C5.66066 27.6338 2.43617 24.4093 2.43617 20.4458C2.43617 17.0256 4.86761 14.0608 8.21752 13.3964C8.5196 13.3366 8.74996 13.0907 8.78988 12.7853C9.09904 10.4232 11.1309 8.64196 13.5163 8.64196C14.1726 8.64196 14.809 8.77341 15.4079 9.0326C15.7474 9.17956 16.1427 9.04456 16.3215 8.72104C18.4647 4.84434 22.5444 2.43617 26.9684 2.43617C33.6116 2.43617 39.0648 7.83981 39.1248 14.482C39.1277 14.8139 39.3577 15.1003 39.681 15.1751C42.556 15.8404 44.5639 18.3683 44.5639 21.3222C44.5639 24.8024 41.7327 27.6338 38.2524 27.6338H37.8617C37.465 27.6338 37.1436 27.9552 37.1436 28.3519C37.1436 28.7485 37.465 29.0699 37.8617 29.0699H38.2523C42.5244 29.0699 46 25.5943 46 21.3222C46 19.561 45.3927 17.8371 44.2901 16.4682ZM6.74468 39.7766C5.82084 39.7766 5.06915 39.0249 5.06915 38.1011C5.06915 37.1772 5.82084 36.4255 6.74468 36.4255C7.66852 36.4255 8.42021 37.1772 8.42021 38.1011C8.42021 39.0249 7.66852 39.7766 6.74468 39.7766Z" fill="#014898"/>
<path d="M20.388 39.8611V28.3519C20.388 27.9552 20.0666 27.6338 19.67 27.6338H14.8827C14.4861 27.6338 14.1646 27.9552 14.1646 28.3519C14.1646 28.7485 14.4861 29.07 14.8827 29.07H18.9519V39.8611C17.5813 40.1863 16.5583 41.4197 16.5583 42.8883C16.5583 44.6041 17.9541 46 19.67 46C21.3858 46 22.7817 44.6041 22.7817 42.8883C22.7817 41.4197 21.7586 40.1863 20.388 39.8611ZM19.67 44.5638C18.7461 44.5638 17.9944 43.8121 17.9944 42.8883C17.9944 41.9645 18.7461 41.2128 19.67 41.2128C20.5938 41.2128 21.3455 41.9645 21.3455 42.8883C21.3455 43.8121 20.5938 44.5638 19.67 44.5638Z" stroke="#014898" stroke-width="0.3"/>
<path d="M28.0482 39.8611V28.3519C28.0482 27.9552 27.7268 27.6338 27.3301 27.6338H22.543C22.1463 27.6338 21.8249 27.9552 21.8249 28.3519C21.8249 28.7485 22.1463 29.07 22.543 29.07H26.612V39.8611C25.2415 40.1863 24.2184 41.4197 24.2184 42.8883C24.2184 44.6041 25.6143 46 27.3301 46C29.046 46 30.4418 44.6041 30.4418 42.8883C30.4418 41.4197 29.4188 40.1863 28.0482 39.8611ZM27.3301 44.5638C26.4063 44.5638 25.6546 43.8121 25.6546 42.8883C25.6546 41.9645 26.4063 41.2128 27.3301 41.2128C28.254 41.2128 29.0057 41.9645 29.0057 42.8883C29.0057 43.8121 28.254 44.5638 27.3301 44.5638Z" stroke="#014898" stroke-width="0.3"/>
<path d="M40.2547 34.9894C38.7861 34.9894 37.5527 36.0124 37.2276 37.383H35.7069V28.3519C35.7069 27.9552 35.3854 27.6338 34.9888 27.6338H30.2015C29.8049 27.6338 29.4835 27.9552 29.4835 28.3519C29.4835 28.7485 29.8049 29.07 30.2015 29.07H34.2707V38.1011C34.2707 38.4977 34.5921 38.8192 34.9888 38.8192H37.2276C37.5527 40.1897 38.7861 41.2128 40.2547 41.2128C41.9706 41.2128 43.3664 39.8169 43.3664 38.1011C43.3664 36.3852 41.9706 34.9894 40.2547 34.9894ZM40.2547 39.7766C39.3309 39.7766 38.5792 39.0249 38.5792 38.1011C38.5792 37.1772 39.3309 36.4255 40.2547 36.4255C41.1786 36.4255 41.9303 37.1772 41.9303 38.1011C41.9303 39.0249 41.1786 39.7766 40.2547 39.7766Z" stroke="#014898" stroke-width="0.3"/>
<path d="M44.2901 16.4682C43.3223 15.2666 42.0078 14.3764 40.5452 13.9222C40.3806 10.523 38.9702 7.35141 36.5393 4.94076C33.9766 2.3995 30.5776 1 26.9684 1C22.229 1 17.8434 3.47136 15.377 7.49024C14.7773 7.30115 14.1539 7.20569 13.5163 7.20569C10.583 7.20569 8.0605 9.27627 7.45223 12.0987C3.68506 13.076 1 16.5095 1 20.4458C1 25.2012 4.86866 29.0699 9.62401 29.0699H11.2926V37.383H9.77184C9.44669 36.0124 8.21331 34.9894 6.74468 34.9894C5.02884 34.9894 3.63298 36.3852 3.63298 38.1011C3.63298 39.8169 5.02884 41.2128 6.74468 41.2128C8.21331 41.2128 9.44669 40.1897 9.77184 38.8191H12.0106C12.4073 38.8191 12.7287 38.4977 12.7287 38.1011V28.3519C12.7287 27.9552 12.4073 27.6338 12.0106 27.6338H9.62401C5.66066 27.6338 2.43617 24.4093 2.43617 20.4458C2.43617 17.0256 4.86761 14.0608 8.21752 13.3964C8.5196 13.3366 8.74996 13.0907 8.78988 12.7853C9.09904 10.4232 11.1309 8.64196 13.5163 8.64196C14.1726 8.64196 14.809 8.77341 15.4079 9.0326C15.7474 9.17956 16.1427 9.04456 16.3215 8.72104C18.4647 4.84434 22.5444 2.43617 26.9684 2.43617C33.6116 2.43617 39.0648 7.83981 39.1248 14.482C39.1277 14.8139 39.3577 15.1003 39.681 15.1751C42.556 15.8404 44.5639 18.3683 44.5639 21.3222C44.5639 24.8024 41.7327 27.6338 38.2524 27.6338H37.8617C37.465 27.6338 37.1436 27.9552 37.1436 28.3519C37.1436 28.7485 37.465 29.0699 37.8617 29.0699H38.2523C42.5244 29.0699 46 25.5943 46 21.3222C46 19.561 45.3927 17.8371 44.2901 16.4682ZM6.74468 39.7766C5.82084 39.7766 5.06915 39.0249 5.06915 38.1011C5.06915 37.1772 5.82084 36.4255 6.74468 36.4255C7.66852 36.4255 8.42021 37.1772 8.42021 38.1011C8.42021 39.0249 7.66852 39.7766 6.74468 39.7766Z" stroke="#014898" stroke-width="0.3"/>
</g>
<defs>
<clipPath id="clip0_2171_5567">
<rect width="47" height="47" fill="white"/>
</clipPath>
</defs>
</svg>
