<svg width="40" height="40" viewBox="0 0 40 40" fill="none" xmlns="http://www.w3.org/2000/svg">
<g clip-path="url(#clip0_2055_5747)">
<path d="M23.0515 0C23.4439 0.126042 23.8571 0.209375 24.2254 0.386458C25.7373 1.11563 26.6222 2.32708 26.643 4.0125C26.689 7.7875 26.6639 11.5635 26.6608 15.3396C26.6608 15.8688 26.3008 16.2385 25.8323 16.2354C25.3481 16.2313 25.0069 15.8531 25.0059 15.2927C25.0028 11.6469 25.0059 8.00208 25.0038 4.35625C25.0038 3.05104 24.3224 2.07708 23.1715 1.76771C22.8992 1.69479 22.607 1.66563 22.3232 1.66458C16.336 1.65938 10.3478 1.65833 4.36054 1.66146C2.75782 1.66146 1.67474 2.70313 1.6737 4.27292C1.66639 10.4177 1.67057 16.5635 1.67057 22.7083C1.67057 22.7604 1.67578 22.8115 1.68309 22.9208C1.78534 22.8427 1.86673 22.7948 1.93142 22.7302C2.55018 22.1156 3.19919 21.5271 3.77517 20.875C4.96781 19.524 6.73226 19.5521 7.89047 20.8594C8.5447 21.5969 9.2751 22.2667 9.98881 22.9865C10.1172 22.8667 10.2215 22.775 10.3206 22.676C12.8979 20.099 15.4752 17.5208 18.0525 14.9438C19.2879 13.7083 20.7226 13.7094 21.9612 14.9438C22.3118 15.2927 22.6634 15.6406 23.0098 15.9948C23.4147 16.4094 23.446 16.8854 23.1006 17.2417C22.7479 17.6052 22.2502 17.5781 21.8255 17.1625C21.4718 16.8167 21.1264 16.4625 20.7758 16.1135C20.2071 15.5469 19.8086 15.5438 19.2461 16.1063C16.4383 18.9135 13.6314 21.7219 10.8236 24.5292C10.186 25.1667 9.82812 25.1635 9.18537 24.5208C8.31097 23.6458 7.43866 22.7698 6.56218 21.8969C6.06029 21.3979 5.61892 21.4031 5.11285 21.9073C4.04333 22.974 2.97068 24.0365 1.91682 25.1177C1.78117 25.2573 1.68517 25.4958 1.681 25.6917C1.65909 26.7979 1.66535 27.9052 1.67161 29.0115C1.67996 30.6052 2.72339 31.6552 4.31462 31.6573C8.18054 31.6625 12.0465 31.6594 15.9124 31.6594C16.6762 31.6594 17.0685 31.951 17.0612 32.5115C17.0539 33.0573 16.6699 33.3385 15.927 33.3385C12.0746 33.3385 8.22124 33.3427 4.36888 33.3375C2.26115 33.3344 0.616698 32.0979 0.14298 30.1479C0.0490708 29.7615 0.0177678 29.35 0.0167244 28.95C0.00942035 20.7625 0.0282021 12.5729 2.94503e-05 4.38333C-0.00831801 1.91979 1.75926 0.291667 3.50909 0.059375C3.54248 0.0552083 3.5717 0.0208333 3.603 0C10.0859 0 16.5687 0 23.0515 0Z" fill="#014898"/>
<path d="M38.9064 40C38.6654 39.7875 38.4119 39.5865 38.1844 39.3594C36.59 37.7698 35.0019 36.176 33.3856 34.5563C30.7906 36.599 27.9045 37.2552 24.7356 36.3031C22.5318 35.6406 20.8269 34.276 19.6228 32.3125C17.2416 28.4292 18.114 23.3531 21.6428 20.4698C25.1989 17.5646 30.3315 17.726 33.6788 20.8375C37.0564 23.9771 37.7253 29.3385 34.5574 33.3521C34.6471 33.449 34.739 33.5531 34.8371 33.651C36.3552 35.1698 37.8755 36.6865 39.3895 38.2094C39.6066 38.4281 39.7975 38.6729 40.001 38.9052V39.374C39.7923 39.5823 39.5847 39.7906 39.376 39.999H38.9075L38.9064 40ZM34.9362 27.5656C34.9393 23.4167 31.5982 20.0677 27.4548 20.0646C23.3165 20.0615 19.9483 23.4177 19.9431 27.5479C19.9379 31.6688 23.3186 35.0594 27.437 35.0625C31.5669 35.0667 34.9341 31.7 34.9362 27.5656Z" fill="#014898"/>
<path d="M8.35377 8.3427C10.1965 8.34791 11.6656 9.82395 11.6646 11.6698C11.6646 13.5083 10.1808 14.9969 8.34751 14.999C6.50376 15.001 5.00017 13.4896 5.00957 11.6437C5.01896 9.81249 6.51315 8.33645 8.35272 8.3427H8.35377ZM8.34751 10.001C7.43346 9.99791 6.67697 10.7479 6.67175 11.6594C6.66654 12.5635 7.42824 13.3323 8.33499 13.3375C9.24069 13.3427 10.0034 12.5823 10.0066 11.6729C10.0097 10.7552 9.26364 10.0042 8.34751 10.0021V10.001Z" fill="#014898"/>
</g>
<defs>
<clipPath id="clip0_2055_5747">
<rect width="40" height="40" fill="white"/>
</clipPath>
</defs>
</svg>
