<svg width="43" height="40" viewBox="0 0 43 40" fill="none" xmlns="http://www.w3.org/2000/svg">
<path d="M41.8986 38.5471V10.1836H33.3768V38.5471H31.2464V16.0018H22.7246V38.5471H20.5942V21.8199H12.0725V38.5471H9.94203V28.3654H1.42029V38.5471H0.710145C0.318145 38.5471 0 38.8722 0 39.2744C0 39.6766 0.318145 40.0017 0.710145 40.0017H1.42029H9.94203H12.0725H20.5942H22.7246H31.2464H33.3768H41.8986C42.2906 40.0017 42.6087 39.6766 42.6087 39.2744C42.6087 38.8722 42.2906 38.5471 41.8986 38.5471ZM2.84058 38.5471V29.8199H8.52174V38.5471H2.84058ZM13.4928 38.5471V23.2745H19.1739V38.5471H13.4928ZM24.1449 38.5471V17.4563H29.8261V38.5471H24.1449ZM34.7971 38.5471V11.6381H40.4783V38.5471H34.7971Z" fill="#014898"/>
<path d="M5.70321 18.4219C5.82323 18.4219 5.94608 18.3906 6.05757 18.3244L31.8138 3.09538L30.2018 6.72446C30.0392 7.09028 30.1968 7.52155 30.554 7.68737C30.6492 7.73246 30.7493 7.75282 30.848 7.75282C31.1179 7.75282 31.3757 7.59428 31.495 7.32664L34.0245 1.63211C34.0323 1.61393 34.0309 1.5943 34.0373 1.57539C34.0508 1.53684 34.0614 1.49975 34.0685 1.45902C34.0721 1.43866 34.0834 1.42193 34.0849 1.40084C34.0856 1.39212 34.082 1.38484 34.0827 1.37612C34.0842 1.34848 34.0813 1.32302 34.0799 1.29539C34.0778 1.25539 34.0714 1.21757 34.0629 1.17757C34.0572 1.14993 34.0558 1.12157 34.0465 1.09466C34.038 1.06848 34.0231 1.04666 34.0117 1.02121C34.0025 1.00448 34.0025 0.984844 33.9925 0.967389C33.9826 0.949935 33.9656 0.939753 33.9542 0.923026C33.9393 0.90048 33.9279 0.87648 33.9102 0.856117C33.8917 0.834299 33.8683 0.819026 33.847 0.79939C33.8179 0.772481 33.7887 0.747754 33.7561 0.725935C33.7341 0.71139 33.7142 0.69539 33.69 0.683026C33.6822 0.67939 33.678 0.672117 33.6701 0.668481C33.6524 0.660481 33.6332 0.661936 33.6155 0.65539C33.5764 0.640845 33.5381 0.630663 33.4976 0.62339C33.4791 0.619754 33.4642 0.608845 33.445 0.60739L27.3648 0.00375598C26.9706 -0.0369712 26.6269 0.258301 26.5893 0.656845C26.5509 1.05684 26.8371 1.41248 27.227 1.45102L31.1015 1.83575L5.34743 17.0648C5.00727 17.2655 4.89152 17.7106 5.08752 18.0582C5.21889 18.2917 5.4575 18.4219 5.70321 18.4219Z" fill="#014898"/>
</svg>
