<svg width="39" height="47" viewBox="0 0 39 47" fill="none" xmlns="http://www.w3.org/2000/svg">
<g id="Vector">
<path d="M17.2327 22.4169C20.7313 22.4169 24.2417 22.4169 27.7403 22.4169C27.8817 22.4169 28.0348 22.4052 28.1762 22.4286C28.506 22.4871 28.7063 22.6861 28.7298 23.0137C28.7652 23.3648 28.5767 23.5989 28.2351 23.7042C28.0937 23.7393 27.9406 23.7276 27.7992 23.7276C20.7313 23.7276 13.6752 23.7276 6.60722 23.7276C6.47764 23.7276 6.33629 23.7393 6.20671 23.7042C5.86509 23.6106 5.66483 23.3882 5.68839 23.0371C5.71195 22.6978 5.91221 22.4754 6.26561 22.4169C6.40697 22.3935 6.5601 22.4052 6.70146 22.4052C10.2354 22.4169 13.7341 22.4169 17.2327 22.4169Z" fill="#014898"/>
<path d="M28.5659 45.9532C27.7766 45.6489 27.2583 45.1457 27.2112 44.2562C27.1994 44.1392 27.0463 43.9988 26.9167 43.9168C26.7871 43.8232 26.6104 43.8115 26.4691 43.7296C26.0803 43.4838 25.7741 43.5306 25.3971 43.8232C25.1497 44.0105 24.7728 44.1041 24.4547 44.1041C23.2296 44.1275 21.8985 42.5241 22.193 41.3889C22.2401 41.19 22.3343 41.0027 22.4521 40.8389C22.9116 40.1601 22.511 39.177 21.71 39.0366C20.9914 38.9079 20.4378 38.3929 20.3435 37.679C20.2846 37.2226 20.2846 36.7428 20.3318 36.2863C20.4142 35.4671 21.015 34.8937 21.8396 34.8234C22.1459 34.8 22.3226 34.6713 22.4168 34.3904C22.4639 34.2266 22.5346 34.0627 22.6171 33.9106C22.782 33.618 22.7349 33.3839 22.511 33.1148C21.9574 32.436 22.0163 31.5582 22.6171 30.9146C22.782 30.7273 22.9704 30.5635 23.1471 30.3879C23.9364 29.6038 24.7257 29.557 25.6327 30.189C25.7741 30.2826 26.0097 30.2943 26.1864 30.2709C26.3866 30.2475 26.5633 30.107 26.7636 30.0485C27.0816 29.9549 27.223 29.7676 27.2583 29.4166C27.329 28.6324 27.9298 28.0356 28.719 27.9536C29.1549 27.9068 29.6025 27.9068 30.0384 27.9536C30.8159 28.0239 31.4166 28.5973 31.4991 29.3697C31.5462 29.7676 31.7111 29.99 32.0881 30.0719C32.4297 30.1421 32.7006 30.5167 33.1129 30.2358C34.1496 29.5219 34.821 29.5921 35.7163 30.4815C35.8812 30.6454 36.0579 30.8092 36.211 30.9848C36.7411 31.6051 36.7882 32.4594 36.2817 33.0797C36.0226 33.3956 35.999 33.6531 36.1875 33.9925C36.2582 34.1095 36.3053 34.2266 36.3406 34.3553C36.4231 34.683 36.6233 34.8117 36.9767 34.8468C37.8013 34.9171 38.4257 35.5958 38.4728 36.4385C38.4963 36.7896 38.4963 37.1407 38.4728 37.4918C38.4257 38.311 37.8484 38.943 37.0238 39.0717C36.2699 39.2004 35.8459 40.2069 36.2935 40.8272C36.7883 41.506 36.7411 42.3486 36.1875 42.9689C35.9637 43.2146 35.7163 43.4604 35.4689 43.6828C34.821 44.2796 33.9375 44.3381 33.2543 43.7881C32.9598 43.554 32.7242 43.5423 32.4179 43.7062C32.2412 43.7998 32.0292 43.8466 31.8525 43.9519C31.7347 44.0339 31.5698 44.1743 31.5698 44.2913C31.5109 45.1574 31.0161 45.6606 30.2622 46C29.685 45.9532 29.1195 45.9532 28.5659 45.9532ZM32.9009 42.1379C33.1954 42.2784 33.5841 42.4071 33.9257 42.6295C34.2202 42.8167 34.4205 42.8401 34.6561 42.5827C34.7621 42.4656 34.8799 42.3486 34.9977 42.2433C35.3393 41.9624 35.3864 41.6815 35.0448 41.3655C34.126 40.4995 35.2804 37.9131 36.3288 37.796C36.3524 37.796 36.3877 37.7843 36.4113 37.7843C37.1416 37.6439 37.1416 37.6439 37.1416 36.93C37.1416 36.8247 37.1416 36.7194 37.1416 36.6257C37.1534 36.2863 37.0121 36.1225 36.6587 36.0991C36.0932 36.064 35.622 35.8065 35.3511 35.315C35.1037 34.8585 34.9153 34.3553 34.7503 33.8638C34.5972 33.3839 34.7386 32.9392 35.0095 32.5413C35.3864 32.003 35.3864 32.003 34.9152 31.5348C34.8563 31.4763 34.7857 31.4178 34.7268 31.3476C34.4676 31.0316 34.2202 30.9848 33.8668 31.2774C33.3485 31.7104 32.7478 31.7689 32.1234 31.5114C31.8878 31.4178 31.664 31.3125 31.4284 31.2305C30.7098 30.9731 30.274 30.4932 30.2033 29.7208C30.168 29.3463 29.9795 29.2059 29.6261 29.2293C29.4612 29.241 29.2962 29.241 29.1431 29.2293C28.7426 29.2059 28.5777 29.358 28.5188 29.7676C28.3421 31.0667 26.3395 32.0732 25.1497 31.4646C25.0555 31.4178 24.9613 31.371 24.8906 31.3008C24.5725 30.9731 24.2898 31.0082 24.0071 31.3476C23.9128 31.4646 23.8068 31.5582 23.7008 31.6636C23.4063 31.9093 23.3945 32.1434 23.6537 32.4477C24.1013 32.9743 24.172 33.5712 23.9011 34.2149C23.7833 34.484 23.6772 34.7532 23.5594 35.0224C23.3003 35.6661 22.8055 36.0406 22.1223 36.0991C21.7218 36.1342 21.5686 36.3097 21.5922 36.6842C21.604 36.8481 21.604 37.0119 21.5922 37.1641C21.5569 37.5737 21.7571 37.7258 22.1459 37.7843C23.5123 37.9482 24.5018 40.0782 23.7833 41.2368C23.7597 41.2719 23.7361 41.307 23.7126 41.3421C23.3474 41.8571 23.3474 41.8571 23.7715 42.2784C23.8539 42.3603 23.9482 42.4422 24.0189 42.5241C24.278 42.8284 24.5018 42.8518 24.8435 42.5827C25.9272 41.7283 28.13 42.5241 28.4717 43.8466C28.4834 43.87 28.4834 43.9051 28.4952 43.9285C28.6484 44.6073 28.6484 44.6073 29.3316 44.6073C29.4376 44.6073 29.5436 44.5956 29.6379 44.6073C29.9795 44.6307 30.1091 44.4669 30.2033 44.1392C30.3093 43.753 30.4389 43.32 30.6981 43.0625C31.2753 42.5358 32.041 42.372 32.9009 42.1379Z" fill="#014898"/>
<path d="M23.1815 2.32246C22.9695 2.32246 22.8281 2.32246 22.675 2.32246C16.4788 2.32246 10.2825 2.32246 4.07455 2.32246C2.88478 2.32246 2.33113 2.87251 2.33113 4.06624C2.33113 15.7695 2.33113 27.4727 2.33113 39.1759C2.33113 40.4047 2.873 40.9431 4.09811 40.9548C9.05744 40.9548 14.0168 40.9548 18.9879 40.9548C19.1292 40.9548 19.2824 40.9431 19.4237 40.9665C19.7889 41.0367 20.0127 41.2473 20.0009 41.6335C19.9892 42.008 19.7654 42.2187 19.4002 42.2655C19.2824 42.2772 19.1646 42.2772 19.0468 42.2772C14.0403 42.2772 9.03388 42.2772 4.02743 42.2772C2.17799 42.2655 1 41.1069 1 39.2812C1 27.5195 1 15.7577 1 3.99602C1 2.18202 2.17799 1.0117 4.00387 1.0117C10.5299 1.0117 17.0442 1.0117 23.5703 1C23.959 1 24.2417 1.11703 24.5009 1.38621C27.5165 4.39393 30.5322 7.38995 33.5596 10.386C33.8305 10.6551 33.9483 10.9243 33.9483 11.3105C33.9366 16.7057 33.9366 22.1009 33.9366 27.5078C33.9366 27.6131 33.9483 27.7184 33.9248 27.8121C33.8777 28.1632 33.6774 28.3738 33.3122 28.3972C32.9353 28.4206 32.6997 28.2217 32.6172 27.8589C32.5819 27.7067 32.6054 27.5429 32.6054 27.379C32.6054 22.3467 32.6054 17.3143 32.6054 12.2819C32.6054 12.1063 32.6054 11.9308 32.6054 11.7084C32.4169 11.7084 32.2638 11.7084 32.0989 11.7084C29.9667 11.7084 27.8346 11.7084 25.6906 11.7084C24.0768 11.7084 23.158 10.7722 23.1462 9.16884C23.1462 7.06226 23.1462 4.95568 23.1462 2.84911C23.1815 2.69697 23.1815 2.53312 23.1815 2.32246ZM24.5009 3.36405C24.5009 5.34189 24.5009 7.29633 24.5009 9.25076C24.5009 10.0349 24.866 10.386 25.6789 10.386C27.5519 10.386 29.4131 10.386 31.2861 10.386C31.3921 10.386 31.4981 10.3626 31.557 10.3626C29.2128 8.03363 26.8804 5.71639 24.5009 3.36405Z" fill="#014898"/>
<path d="M17.2568 17.4772C20.7436 17.4772 24.2305 17.4772 27.7291 17.4772C27.894 17.4772 28.0943 17.4304 28.2003 17.5006C28.4124 17.6411 28.6479 17.84 28.7186 18.0624C28.8246 18.3667 28.6244 18.6358 28.2946 18.7295C28.1296 18.7763 27.9412 18.788 27.7762 18.788C20.7437 18.788 13.6993 18.788 6.66669 18.788C6.50177 18.788 6.33685 18.7763 6.18372 18.7412C5.85388 18.6592 5.68896 18.4135 5.71252 18.0858C5.73608 17.7698 5.91278 17.5357 6.25439 17.4889C6.41931 17.4655 6.57245 17.4772 6.73737 17.4772C10.2478 17.4772 13.7464 17.4772 17.2568 17.4772Z" fill="#014898"/>
<path d="M15.8898 28.6664C12.8388 28.6664 9.79957 28.6664 6.74858 28.6664C6.60722 28.6664 6.45408 28.6781 6.31273 28.6547C5.94755 28.6196 5.74729 28.3972 5.72373 28.0578C5.70017 27.7301 5.86509 27.4961 6.18315 27.4024C6.33629 27.3556 6.5012 27.3556 6.66612 27.3556C12.8388 27.3556 18.9997 27.3556 25.1723 27.3556C25.349 27.3556 25.5257 27.3673 25.6906 27.4141C26.0087 27.5195 26.15 27.7652 26.1029 28.1046C26.0676 28.4206 25.8791 28.6079 25.5611 28.6547C25.4197 28.6781 25.2666 28.6664 25.1252 28.6664C22.0389 28.6664 18.9643 28.6664 15.8898 28.6664Z" fill="#014898"/>
<path d="M12.3558 32.3178C14.2524 32.3178 16.1489 32.3178 18.0573 32.3178C18.1868 32.3178 18.3282 32.3178 18.4578 32.3295C18.7994 32.3763 18.9879 32.5753 19.0232 32.903C19.0586 33.2306 18.9054 33.4764 18.5756 33.57C18.4224 33.6168 18.2575 33.6285 18.0926 33.6285C14.2759 33.6285 10.471 33.6285 6.65434 33.6285C6.47764 33.6285 6.25383 33.652 6.14781 33.5583C5.95933 33.3945 5.75907 33.1487 5.73551 32.9147C5.70017 32.6104 5.93577 32.3763 6.27739 32.3295C6.41875 32.3061 6.57188 32.3178 6.71324 32.3178C8.58624 32.3178 10.471 32.3178 12.3558 32.3178Z" fill="#014898"/>
<path d="M11.6383 11.7065C9.97733 11.7065 8.31636 11.7065 6.64362 11.7065C6.46692 11.7065 6.2431 11.7299 6.13708 11.6363C5.94861 11.4724 5.74835 11.2267 5.72479 10.9926C5.68945 10.6883 5.92505 10.4542 6.25488 10.3957C6.34912 10.3723 6.45514 10.384 6.56116 10.384C9.96555 10.384 13.3582 10.384 16.7625 10.384C16.8214 10.384 16.8803 10.384 16.9392 10.384C17.3398 10.4074 17.5871 10.6415 17.6107 10.9926C17.6342 11.3671 17.3869 11.6597 16.9746 11.6831C16.633 11.7065 16.3031 11.6948 15.9615 11.6948C14.5244 11.7065 13.0872 11.7065 11.6383 11.7065Z" fill="#014898"/>
<path d="M11.6953 6.95783C13.3916 6.95783 15.0761 6.94613 16.7724 6.96954C17.008 6.96954 17.2907 7.03976 17.4557 7.18019C17.7973 7.47277 17.6441 8.05793 17.1965 8.21008C17.0198 8.26859 16.8195 8.26859 16.6311 8.26859C13.3209 8.26859 10.0108 8.26859 6.70062 8.26859C6.62994 8.26859 6.54748 8.26859 6.4768 8.26859C6.00561 8.24519 5.69933 7.98772 5.69933 7.60151C5.69933 7.2153 5.99383 6.95783 6.4768 6.95783C8.22022 6.94613 9.95187 6.95783 11.6953 6.95783Z" fill="#014898"/>
<path d="M29.3199 32.3755C31.7701 32.317 33.8787 34.3299 33.9494 36.7759C34.0201 39.2804 32.0175 41.4104 29.5201 41.4572C26.9403 41.5157 24.8553 39.5378 24.7964 36.9748C24.7375 34.5172 26.7754 32.434 29.3199 32.3755ZM29.3788 40.1581C31.1693 40.1581 32.63 38.6952 32.63 36.9163C32.6183 35.1608 31.1693 33.7213 29.3906 33.6979C27.6118 33.6862 26.1275 35.1491 26.1158 36.928C26.1158 38.6952 27.5882 40.1581 29.3788 40.1581Z" fill="#014898"/>
<path d="M17.2327 22.4169C20.7313 22.4169 24.2417 22.4169 27.7403 22.4169C27.8817 22.4169 28.0348 22.4052 28.1762 22.4286C28.506 22.4871 28.7063 22.6861 28.7298 23.0137C28.7652 23.3648 28.5767 23.5989 28.2351 23.7042C28.0937 23.7393 27.9406 23.7276 27.7992 23.7276C20.7313 23.7276 13.6752 23.7276 6.60722 23.7276C6.47764 23.7276 6.33629 23.7393 6.20671 23.7042C5.86509 23.6106 5.66483 23.3882 5.68839 23.0371C5.71195 22.6978 5.91221 22.4754 6.26561 22.4169C6.40697 22.3935 6.5601 22.4052 6.70146 22.4052C10.2354 22.4169 13.7341 22.4169 17.2327 22.4169Z" stroke="#014898" stroke-width="0.2"/>
<path d="M28.5659 45.9532C27.7766 45.6489 27.2583 45.1457 27.2112 44.2562C27.1994 44.1392 27.0463 43.9988 26.9167 43.9168C26.7871 43.8232 26.6104 43.8115 26.4691 43.7296C26.0803 43.4838 25.7741 43.5306 25.3971 43.8232C25.1497 44.0105 24.7728 44.1041 24.4547 44.1041C23.2296 44.1275 21.8985 42.5241 22.193 41.3889C22.2401 41.19 22.3343 41.0027 22.4521 40.8389C22.9116 40.1601 22.511 39.177 21.71 39.0366C20.9914 38.9079 20.4378 38.3929 20.3435 37.679C20.2846 37.2226 20.2846 36.7428 20.3318 36.2863C20.4142 35.4671 21.015 34.8937 21.8396 34.8234C22.1459 34.8 22.3226 34.6713 22.4168 34.3904C22.4639 34.2266 22.5346 34.0627 22.6171 33.9106C22.782 33.618 22.7349 33.3839 22.511 33.1148C21.9574 32.436 22.0163 31.5582 22.6171 30.9146C22.782 30.7273 22.9704 30.5635 23.1471 30.3879C23.9364 29.6038 24.7257 29.557 25.6327 30.189C25.7741 30.2826 26.0097 30.2943 26.1864 30.2709C26.3866 30.2475 26.5633 30.107 26.7636 30.0485C27.0816 29.9549 27.223 29.7676 27.2583 29.4166C27.329 28.6324 27.9298 28.0356 28.719 27.9536C29.1549 27.9068 29.6025 27.9068 30.0384 27.9536C30.8159 28.0239 31.4166 28.5973 31.4991 29.3697C31.5462 29.7676 31.7111 29.99 32.0881 30.0719C32.4297 30.1421 32.7006 30.5167 33.1129 30.2358C34.1496 29.5219 34.821 29.5921 35.7163 30.4815C35.8812 30.6454 36.0579 30.8092 36.211 30.9848C36.7411 31.6051 36.7882 32.4594 36.2817 33.0797C36.0226 33.3956 35.999 33.6531 36.1875 33.9925C36.2582 34.1095 36.3053 34.2266 36.3406 34.3553C36.4231 34.683 36.6233 34.8117 36.9767 34.8468C37.8013 34.9171 38.4257 35.5958 38.4728 36.4385C38.4963 36.7896 38.4963 37.1407 38.4728 37.4918C38.4257 38.311 37.8484 38.943 37.0238 39.0717C36.2699 39.2004 35.8459 40.2069 36.2935 40.8272C36.7883 41.506 36.7411 42.3486 36.1875 42.9689C35.9637 43.2146 35.7163 43.4604 35.4689 43.6828C34.821 44.2796 33.9375 44.3381 33.2543 43.7881C32.9598 43.554 32.7242 43.5423 32.4179 43.7062C32.2412 43.7998 32.0292 43.8466 31.8525 43.9519C31.7347 44.0339 31.5698 44.1743 31.5698 44.2913C31.5109 45.1574 31.0161 45.6606 30.2622 46C29.685 45.9532 29.1195 45.9532 28.5659 45.9532ZM32.9009 42.1379C33.1954 42.2784 33.5841 42.4071 33.9257 42.6295C34.2202 42.8167 34.4205 42.8401 34.6561 42.5827C34.7621 42.4656 34.8799 42.3486 34.9977 42.2433C35.3393 41.9624 35.3864 41.6815 35.0448 41.3655C34.126 40.4995 35.2804 37.9131 36.3288 37.796C36.3524 37.796 36.3877 37.7843 36.4113 37.7843C37.1416 37.6439 37.1416 37.6439 37.1416 36.93C37.1416 36.8247 37.1416 36.7194 37.1416 36.6257C37.1534 36.2863 37.0121 36.1225 36.6587 36.0991C36.0932 36.064 35.622 35.8065 35.3511 35.315C35.1037 34.8585 34.9153 34.3553 34.7503 33.8638C34.5972 33.3839 34.7386 32.9392 35.0095 32.5413C35.3864 32.003 35.3864 32.003 34.9152 31.5348C34.8563 31.4763 34.7857 31.4178 34.7268 31.3476C34.4676 31.0316 34.2202 30.9848 33.8668 31.2774C33.3485 31.7104 32.7478 31.7689 32.1234 31.5114C31.8878 31.4178 31.664 31.3125 31.4284 31.2305C30.7098 30.9731 30.274 30.4932 30.2033 29.7208C30.168 29.3463 29.9795 29.2059 29.6261 29.2293C29.4612 29.241 29.2962 29.241 29.1431 29.2293C28.7426 29.2059 28.5777 29.358 28.5188 29.7676C28.3421 31.0667 26.3395 32.0732 25.1497 31.4646C25.0555 31.4178 24.9613 31.371 24.8906 31.3008C24.5725 30.9731 24.2898 31.0082 24.0071 31.3476C23.9128 31.4646 23.8068 31.5582 23.7008 31.6636C23.4063 31.9093 23.3945 32.1434 23.6537 32.4477C24.1013 32.9743 24.172 33.5712 23.9011 34.2149C23.7833 34.484 23.6772 34.7532 23.5594 35.0224C23.3003 35.6661 22.8055 36.0406 22.1223 36.0991C21.7218 36.1342 21.5686 36.3097 21.5922 36.6842C21.604 36.8481 21.604 37.0119 21.5922 37.1641C21.5569 37.5737 21.7571 37.7258 22.1459 37.7843C23.5123 37.9482 24.5018 40.0782 23.7833 41.2368C23.7597 41.2719 23.7361 41.307 23.7126 41.3421C23.3474 41.8571 23.3474 41.8571 23.7715 42.2784C23.8539 42.3603 23.9482 42.4422 24.0189 42.5241C24.278 42.8284 24.5018 42.8518 24.8435 42.5827C25.9272 41.7283 28.13 42.5241 28.4717 43.8466C28.4834 43.87 28.4834 43.9051 28.4952 43.9285C28.6484 44.6073 28.6484 44.6073 29.3316 44.6073C29.4376 44.6073 29.5436 44.5956 29.6379 44.6073C29.9795 44.6307 30.1091 44.4669 30.2033 44.1392C30.3093 43.753 30.4389 43.32 30.6981 43.0625C31.2753 42.5358 32.041 42.372 32.9009 42.1379Z" stroke="#014898" stroke-width="0.2"/>
<path d="M23.1815 2.32246C22.9695 2.32246 22.8281 2.32246 22.675 2.32246C16.4788 2.32246 10.2825 2.32246 4.07455 2.32246C2.88478 2.32246 2.33113 2.87251 2.33113 4.06624C2.33113 15.7695 2.33113 27.4727 2.33113 39.1759C2.33113 40.4047 2.873 40.9431 4.09811 40.9548C9.05744 40.9548 14.0168 40.9548 18.9879 40.9548C19.1292 40.9548 19.2824 40.9431 19.4237 40.9665C19.7889 41.0367 20.0127 41.2473 20.0009 41.6335C19.9892 42.008 19.7654 42.2187 19.4002 42.2655C19.2824 42.2772 19.1646 42.2772 19.0468 42.2772C14.0403 42.2772 9.03388 42.2772 4.02743 42.2772C2.17799 42.2655 1 41.1069 1 39.2812C1 27.5195 1 15.7577 1 3.99602C1 2.18202 2.17799 1.0117 4.00387 1.0117C10.5299 1.0117 17.0442 1.0117 23.5703 1C23.959 1 24.2417 1.11703 24.5009 1.38621C27.5165 4.39393 30.5322 7.38995 33.5596 10.386C33.8305 10.6551 33.9483 10.9243 33.9483 11.3105C33.9366 16.7057 33.9366 22.1009 33.9366 27.5078C33.9366 27.6131 33.9483 27.7184 33.9248 27.8121C33.8777 28.1632 33.6774 28.3738 33.3122 28.3972C32.9353 28.4206 32.6997 28.2217 32.6172 27.8589C32.5819 27.7067 32.6054 27.5429 32.6054 27.379C32.6054 22.3467 32.6054 17.3143 32.6054 12.2819C32.6054 12.1063 32.6054 11.9308 32.6054 11.7084C32.4169 11.7084 32.2638 11.7084 32.0989 11.7084C29.9667 11.7084 27.8346 11.7084 25.6906 11.7084C24.0768 11.7084 23.158 10.7722 23.1462 9.16884C23.1462 7.06226 23.1462 4.95568 23.1462 2.84911C23.1815 2.69697 23.1815 2.53312 23.1815 2.32246ZM24.5009 3.36405C24.5009 5.34189 24.5009 7.29633 24.5009 9.25076C24.5009 10.0349 24.866 10.386 25.6789 10.386C27.5519 10.386 29.4131 10.386 31.2861 10.386C31.3921 10.386 31.4981 10.3626 31.557 10.3626C29.2128 8.03363 26.8804 5.71639 24.5009 3.36405Z" stroke="#014898" stroke-width="0.2"/>
<path d="M17.2568 17.4772C20.7436 17.4772 24.2305 17.4772 27.7291 17.4772C27.894 17.4772 28.0943 17.4304 28.2003 17.5006C28.4124 17.6411 28.6479 17.84 28.7186 18.0624C28.8246 18.3667 28.6244 18.6358 28.2946 18.7295C28.1296 18.7763 27.9412 18.788 27.7762 18.788C20.7437 18.788 13.6993 18.788 6.66669 18.788C6.50177 18.788 6.33685 18.7763 6.18372 18.7412C5.85388 18.6592 5.68896 18.4135 5.71252 18.0858C5.73608 17.7698 5.91278 17.5357 6.25439 17.4889C6.41931 17.4655 6.57245 17.4772 6.73737 17.4772C10.2478 17.4772 13.7464 17.4772 17.2568 17.4772Z" stroke="#014898" stroke-width="0.2"/>
<path d="M15.8898 28.6664C12.8388 28.6664 9.79957 28.6664 6.74858 28.6664C6.60722 28.6664 6.45408 28.6781 6.31273 28.6547C5.94755 28.6196 5.74729 28.3972 5.72373 28.0578C5.70017 27.7301 5.86509 27.4961 6.18315 27.4024C6.33629 27.3556 6.5012 27.3556 6.66612 27.3556C12.8388 27.3556 18.9997 27.3556 25.1723 27.3556C25.349 27.3556 25.5257 27.3673 25.6906 27.4141C26.0087 27.5195 26.15 27.7652 26.1029 28.1046C26.0676 28.4206 25.8791 28.6079 25.5611 28.6547C25.4197 28.6781 25.2666 28.6664 25.1252 28.6664C22.0389 28.6664 18.9643 28.6664 15.8898 28.6664Z" stroke="#014898" stroke-width="0.2"/>
<path d="M12.3558 32.3178C14.2524 32.3178 16.1489 32.3178 18.0573 32.3178C18.1868 32.3178 18.3282 32.3178 18.4578 32.3295C18.7994 32.3763 18.9879 32.5753 19.0232 32.903C19.0586 33.2306 18.9054 33.4764 18.5756 33.57C18.4224 33.6168 18.2575 33.6285 18.0926 33.6285C14.2759 33.6285 10.471 33.6285 6.65434 33.6285C6.47764 33.6285 6.25383 33.652 6.14781 33.5583C5.95933 33.3945 5.75907 33.1487 5.73551 32.9147C5.70017 32.6104 5.93577 32.3763 6.27739 32.3295C6.41875 32.3061 6.57188 32.3178 6.71324 32.3178C8.58624 32.3178 10.471 32.3178 12.3558 32.3178Z" stroke="#014898" stroke-width="0.2"/>
<path d="M11.6383 11.7065C9.97733 11.7065 8.31636 11.7065 6.64362 11.7065C6.46692 11.7065 6.2431 11.7299 6.13708 11.6363C5.94861 11.4724 5.74835 11.2267 5.72479 10.9926C5.68945 10.6883 5.92505 10.4542 6.25488 10.3957C6.34912 10.3723 6.45514 10.384 6.56116 10.384C9.96555 10.384 13.3582 10.384 16.7625 10.384C16.8214 10.384 16.8803 10.384 16.9392 10.384C17.3398 10.4074 17.5871 10.6415 17.6107 10.9926C17.6342 11.3671 17.3869 11.6597 16.9746 11.6831C16.633 11.7065 16.3031 11.6948 15.9615 11.6948C14.5244 11.7065 13.0872 11.7065 11.6383 11.7065Z" stroke="#014898" stroke-width="0.2"/>
<path d="M11.6953 6.95783C13.3916 6.95783 15.0761 6.94613 16.7724 6.96954C17.008 6.96954 17.2907 7.03976 17.4557 7.18019C17.7973 7.47277 17.6441 8.05793 17.1965 8.21008C17.0198 8.26859 16.8195 8.26859 16.6311 8.26859C13.3209 8.26859 10.0108 8.26859 6.70062 8.26859C6.62994 8.26859 6.54748 8.26859 6.4768 8.26859C6.00561 8.24519 5.69933 7.98772 5.69933 7.60151C5.69933 7.2153 5.99383 6.95783 6.4768 6.95783C8.22022 6.94613 9.95187 6.95783 11.6953 6.95783Z" stroke="#014898" stroke-width="0.2"/>
<path d="M29.3199 32.3755C31.7701 32.317 33.8787 34.3299 33.9494 36.7759C34.0201 39.2804 32.0175 41.4104 29.5201 41.4572C26.9403 41.5157 24.8553 39.5378 24.7964 36.9748C24.7375 34.5172 26.7754 32.434 29.3199 32.3755ZM29.3788 40.1581C31.1693 40.1581 32.63 38.6952 32.63 36.9163C32.6183 35.1608 31.1693 33.7213 29.3906 33.6979C27.6118 33.6862 26.1275 35.1491 26.1158 36.928C26.1158 38.6952 27.5882 40.1581 29.3788 40.1581Z" stroke="#014898" stroke-width="0.2"/>
</g>
</svg>
