<svg width="46" height="46" viewBox="0 0 46 46" fill="none" xmlns="http://www.w3.org/2000/svg">
<g id="Frame" clip-path="url(#clip0_2198_3703)">
<g id="Group">
<g id="Vector">
<path d="M6.9712 22.9979C6.9712 20.1333 6.98293 17.2805 6.95947 14.416C6.95947 13.9464 7.12374 13.6646 7.52268 13.4298C12.4743 10.577 17.4259 7.72422 22.3658 4.85967C22.7882 4.61313 23.1167 4.61313 23.5391 4.85967C28.5025 7.7477 33.4776 10.6122 38.4526 13.4768C38.8164 13.6881 38.9572 13.9581 38.9572 14.369C38.9572 20.1333 38.9454 25.8977 38.9572 31.662C38.9572 32.0729 38.8164 32.3429 38.4526 32.5542C33.4541 35.4305 28.4556 38.3185 23.457 41.2183C23.105 41.4179 22.8234 41.4061 22.4831 41.2066C17.4846 38.3185 12.486 35.4305 7.48748 32.566C7.112 32.3429 6.95947 32.0729 6.9712 31.6385C6.98293 28.7387 6.9712 25.8742 6.9712 22.9979ZM23.6095 39.6804C23.7503 39.6099 23.8325 39.5747 23.9029 39.5278C28.4204 36.9215 32.9261 34.3035 37.4435 31.7089C37.7017 31.5563 37.7603 31.3802 37.7603 31.1102C37.7486 25.9798 37.7603 20.8377 37.7603 15.7074C37.7603 15.5665 37.7486 15.4256 37.7369 15.2378C37.5609 15.32 37.4318 15.3787 37.3145 15.4491C32.8557 18.0319 28.3851 20.6147 23.9146 23.174C23.6565 23.3266 23.5978 23.5027 23.5978 23.7727C23.6095 28.9266 23.5978 34.0687 23.5978 39.2225C23.6095 39.3399 23.6095 39.469 23.6095 39.6804ZM22.354 39.6804C22.3658 39.563 22.3775 39.516 22.3775 39.4691C22.3775 34.1978 22.3775 28.9383 22.3658 23.6671C22.3658 23.5027 22.225 23.2797 22.0842 23.1975C20.7817 22.4226 19.4793 21.683 18.1651 20.9317C18.0713 20.873 17.9656 20.8495 17.8131 20.7908C17.8131 21.6595 17.8131 22.4813 17.8131 23.3031C17.8131 24.0075 17.3907 24.2658 16.7805 23.9371C15.5485 23.2914 14.3165 22.634 13.0844 22C12.7442 21.8239 12.5916 21.5891 12.6034 21.2017C12.6151 20.1803 12.6034 19.1472 12.6151 18.1258C12.6151 17.8441 12.5447 17.6797 12.2866 17.5388C11.0428 16.8462 9.82248 16.1183 8.59045 15.4139C8.49658 15.3552 8.39097 15.32 8.2619 15.2613C8.25017 15.3904 8.23843 15.4843 8.23843 15.5665C8.23843 20.779 8.23843 25.9798 8.2267 31.1924C8.2267 31.4741 8.35577 31.6033 8.57871 31.7324C11.8876 33.6343 15.1965 35.5479 18.5171 37.4615C19.7726 38.1777 21.0281 38.9173 22.354 39.6804ZM18.4585 19.6755C19.9017 20.509 21.2745 21.2956 22.6357 22.0939C22.8938 22.2465 23.0933 22.2348 23.3514 22.0939C27.4465 19.7225 31.5415 17.351 35.6366 14.9912C36.1176 14.7212 36.587 14.4395 37.115 14.1342C36.9273 14.0168 36.7982 13.9347 36.6691 13.8525C35.3549 13.0894 34.029 12.338 32.7149 11.5632C32.4098 11.3871 32.2103 11.4106 31.9287 11.5867C28.6316 13.5825 25.3344 15.5665 22.0255 17.5506C20.8521 18.2315 19.6905 18.9359 18.4585 19.6755ZM8.86032 14.1225C10.2566 14.9325 11.5825 15.6839 12.885 16.4705C13.1431 16.6231 13.3426 16.6114 13.6007 16.4705C16.98 14.5569 20.3593 12.655 23.7386 10.7531C24.9824 10.0487 26.2379 9.34433 27.5286 8.61646C27.3643 8.5108 27.247 8.44036 27.1179 8.36992C25.8624 7.64204 24.6069 6.9259 23.3514 6.18628C23.0698 6.02192 22.8703 6.03366 22.6004 6.18628C19.0217 8.26426 15.4312 10.3422 11.8407 12.4085C10.8785 12.9602 9.90462 13.512 8.86032 14.1225ZM16.5811 22.4461C16.5811 21.5539 16.5928 20.7438 16.5811 19.9455C16.5693 19.5346 16.7453 19.2646 17.0974 19.0533C21.5679 16.3766 26.0384 13.6881 30.5089 10.9997C30.6849 10.894 30.861 10.7766 31.0722 10.6357C30.3447 10.2131 29.6876 9.81393 28.9953 9.44999C28.878 9.37955 28.6433 9.39129 28.526 9.46173C23.7034 12.1619 18.8926 14.8738 14.0935 17.5975C13.9762 17.668 13.8471 17.8558 13.8471 17.9849C13.8237 18.8889 13.8237 19.8046 13.8471 20.7086C13.8471 20.826 13.9175 21.0021 14.0231 21.0608C14.8328 21.5304 15.6658 21.953 16.5811 22.4461Z" fill="#014898"/>
<path d="M10.5148 41.0657C10.7377 41.8875 10.9489 42.6388 11.1484 43.4019C11.1836 43.5311 11.2305 43.6602 11.2423 43.7894C11.2657 44.1063 11.1249 44.3294 10.8198 44.4351C10.503 44.529 10.2801 44.3998 10.1276 44.1298C10.0806 44.0594 10.0689 43.9655 10.0454 43.8833C9.69341 42.6036 9.32967 41.3122 8.98939 40.0326C8.86032 39.563 9.00112 39.2929 9.47047 39.1638C10.7612 38.7999 12.0636 38.4359 13.366 38.0837C13.8119 37.9663 14.1287 38.1307 14.2109 38.4829C14.293 38.8468 14.117 39.1051 13.6594 39.2342C12.8263 39.4691 11.9932 39.7038 11.078 39.9621C11.5708 40.2791 11.9815 40.5609 12.4156 40.8191C23.5978 47.4053 37.9129 42.3923 42.3834 30.1945C44.871 23.3971 43.9205 16.9283 39.8255 10.941C39.7433 10.8236 39.6495 10.7062 39.5673 10.5888C39.3327 10.2366 39.3679 9.89611 39.6377 9.68479C39.9311 9.46173 40.2714 9.53217 40.5412 9.89611C41.6207 11.3519 42.5594 12.8898 43.2048 14.5921C46.5606 23.491 45.0352 31.4976 38.523 38.4242C35.0733 42.0871 30.6967 44.1416 25.6864 44.752C20.242 45.4095 15.2434 44.1768 10.679 41.1361C10.6556 41.1244 10.6321 41.1126 10.5148 41.0657Z" fill="#014898"/>
<path d="M34.8035 4.46042C34.6157 3.75603 34.428 3.06337 34.2403 2.37071C34.2051 2.25331 34.1699 2.14765 34.1581 2.03025C34.1112 1.67805 34.2403 1.40804 34.604 1.3376C34.956 1.26716 35.2024 1.43152 35.308 1.77197C35.6131 2.82857 35.8947 3.88517 36.1881 4.94176C36.2702 5.22352 36.3523 5.50528 36.4227 5.78704C36.5283 6.17446 36.3875 6.4797 36.0003 6.58536C34.6392 6.97277 33.2664 7.36019 31.8935 7.72413C31.5415 7.81805 31.2716 7.64195 31.1778 7.30149C31.0722 6.92581 31.2716 6.66753 31.6237 6.56187C32.3981 6.33882 33.1725 6.1275 33.9469 5.91618C34.0995 5.86922 34.2403 5.834 34.4632 5.76356C34.2872 5.63442 34.1816 5.55224 34.0643 5.4818C29.8167 2.81683 25.1819 1.78371 20.2068 2.47637C11.3948 3.68559 4.43674 10.166 2.70015 18.8536C1.52679 24.7353 2.71189 30.1827 6.17332 35.1017C6.24372 35.2074 6.32586 35.313 6.40799 35.4187C6.64267 35.7591 6.60747 36.1113 6.33759 36.3109C6.05598 36.5222 5.69224 36.4635 5.45757 36.1231C4.88262 35.2778 4.2842 34.4325 3.79139 33.5403C-3.34269 20.5676 4.20206 4.37824 18.7283 1.5137C24.2784 0.42188 29.4999 1.37282 34.3693 4.27258C34.4749 4.33128 34.5688 4.38998 34.6744 4.44868C34.6979 4.44868 34.7213 4.44868 34.8035 4.46042Z" fill="#014898"/>
<path d="M6.9712 22.9979C6.9712 20.1333 6.98293 17.2805 6.95947 14.416C6.95947 13.9464 7.12374 13.6646 7.52268 13.4298C12.4743 10.577 17.4259 7.72422 22.3658 4.85967C22.7882 4.61313 23.1167 4.61313 23.5391 4.85967C28.5025 7.7477 33.4776 10.6122 38.4526 13.4768C38.8164 13.6881 38.9572 13.9581 38.9572 14.369C38.9572 20.1333 38.9454 25.8977 38.9572 31.662C38.9572 32.0729 38.8164 32.3429 38.4526 32.5542C33.4541 35.4305 28.4556 38.3185 23.457 41.2183C23.105 41.4179 22.8234 41.4061 22.4831 41.2066C17.4846 38.3185 12.486 35.4305 7.48748 32.566C7.112 32.3429 6.95947 32.0729 6.9712 31.6385C6.98293 28.7387 6.9712 25.8742 6.9712 22.9979ZM23.6095 39.6804C23.7503 39.6099 23.8325 39.5747 23.9029 39.5278C28.4204 36.9215 32.9261 34.3035 37.4435 31.7089C37.7017 31.5563 37.7603 31.3802 37.7603 31.1102C37.7486 25.9798 37.7603 20.8377 37.7603 15.7074C37.7603 15.5665 37.7486 15.4256 37.7369 15.2378C37.5609 15.32 37.4318 15.3787 37.3145 15.4491C32.8557 18.0319 28.3851 20.6147 23.9146 23.174C23.6565 23.3266 23.5978 23.5027 23.5978 23.7727C23.6095 28.9266 23.5978 34.0687 23.5978 39.2225C23.6095 39.3399 23.6095 39.469 23.6095 39.6804ZM22.354 39.6804C22.3658 39.563 22.3775 39.516 22.3775 39.4691C22.3775 34.1978 22.3775 28.9383 22.3658 23.6671C22.3658 23.5027 22.225 23.2797 22.0842 23.1975C20.7817 22.4226 19.4793 21.683 18.1651 20.9317C18.0713 20.873 17.9656 20.8495 17.8131 20.7908C17.8131 21.6595 17.8131 22.4813 17.8131 23.3031C17.8131 24.0075 17.3907 24.2658 16.7805 23.9371C15.5485 23.2914 14.3165 22.634 13.0844 22C12.7442 21.8239 12.5916 21.5891 12.6034 21.2017C12.6151 20.1803 12.6034 19.1472 12.6151 18.1258C12.6151 17.8441 12.5447 17.6797 12.2866 17.5388C11.0428 16.8462 9.82248 16.1183 8.59045 15.4139C8.49658 15.3552 8.39097 15.32 8.2619 15.2613C8.25017 15.3904 8.23843 15.4843 8.23843 15.5665C8.23843 20.779 8.23843 25.9798 8.2267 31.1924C8.2267 31.4741 8.35577 31.6033 8.57871 31.7324C11.8876 33.6343 15.1965 35.5479 18.5171 37.4615C19.7726 38.1777 21.0281 38.9173 22.354 39.6804ZM18.4585 19.6755C19.9017 20.509 21.2745 21.2956 22.6357 22.0939C22.8938 22.2465 23.0933 22.2348 23.3514 22.0939C27.4465 19.7225 31.5415 17.351 35.6366 14.9912C36.1176 14.7212 36.587 14.4395 37.115 14.1342C36.9273 14.0168 36.7982 13.9347 36.6691 13.8525C35.3549 13.0894 34.029 12.338 32.7149 11.5632C32.4098 11.3871 32.2103 11.4106 31.9287 11.5867C28.6316 13.5825 25.3344 15.5665 22.0255 17.5506C20.8521 18.2315 19.6905 18.9359 18.4585 19.6755ZM8.86032 14.1225C10.2566 14.9325 11.5825 15.6839 12.885 16.4705C13.1431 16.6231 13.3426 16.6114 13.6007 16.4705C16.98 14.5569 20.3593 12.655 23.7386 10.7531C24.9824 10.0487 26.2379 9.34433 27.5286 8.61646C27.3643 8.5108 27.247 8.44036 27.1179 8.36992C25.8624 7.64204 24.6069 6.9259 23.3514 6.18628C23.0698 6.02192 22.8703 6.03366 22.6004 6.18628C19.0217 8.26426 15.4312 10.3422 11.8407 12.4085C10.8785 12.9602 9.90462 13.512 8.86032 14.1225ZM16.5811 22.4461C16.5811 21.5539 16.5928 20.7438 16.5811 19.9455C16.5693 19.5346 16.7453 19.2646 17.0974 19.0533C21.5679 16.3766 26.0384 13.6881 30.5089 10.9997C30.6849 10.894 30.861 10.7766 31.0722 10.6357C30.3447 10.2131 29.6876 9.81393 28.9953 9.44999C28.878 9.37955 28.6433 9.39129 28.526 9.46173C23.7034 12.1619 18.8926 14.8738 14.0935 17.5975C13.9762 17.668 13.8471 17.8558 13.8471 17.9849C13.8237 18.8889 13.8237 19.8046 13.8471 20.7086C13.8471 20.826 13.9175 21.0021 14.0231 21.0608C14.8328 21.5304 15.6658 21.953 16.5811 22.4461Z" stroke="#014898" stroke-width="0.2"/>
<path d="M10.5148 41.0657C10.7377 41.8875 10.9489 42.6388 11.1484 43.4019C11.1836 43.5311 11.2305 43.6602 11.2423 43.7894C11.2657 44.1063 11.1249 44.3294 10.8198 44.4351C10.503 44.529 10.2801 44.3998 10.1276 44.1298C10.0806 44.0594 10.0689 43.9655 10.0454 43.8833C9.69341 42.6036 9.32967 41.3122 8.98939 40.0326C8.86032 39.563 9.00112 39.2929 9.47047 39.1638C10.7612 38.7999 12.0636 38.4359 13.366 38.0837C13.8119 37.9663 14.1287 38.1307 14.2109 38.4829C14.293 38.8468 14.117 39.1051 13.6594 39.2342C12.8263 39.4691 11.9932 39.7038 11.078 39.9621C11.5708 40.2791 11.9815 40.5609 12.4156 40.8191C23.5978 47.4053 37.9129 42.3923 42.3834 30.1945C44.871 23.3971 43.9205 16.9283 39.8255 10.941C39.7433 10.8236 39.6495 10.7062 39.5673 10.5888C39.3327 10.2366 39.3679 9.89611 39.6377 9.68479C39.9311 9.46173 40.2714 9.53217 40.5412 9.89611C41.6207 11.3519 42.5594 12.8898 43.2048 14.5921C46.5606 23.491 45.0352 31.4976 38.523 38.4242C35.0733 42.0871 30.6967 44.1416 25.6864 44.752C20.242 45.4095 15.2434 44.1768 10.679 41.1361C10.6556 41.1244 10.6321 41.1126 10.5148 41.0657Z" stroke="#014898" stroke-width="0.2"/>
<path d="M34.8035 4.46042C34.6157 3.75603 34.428 3.06337 34.2403 2.37071C34.2051 2.25331 34.1699 2.14765 34.1581 2.03025C34.1112 1.67805 34.2403 1.40804 34.604 1.3376C34.956 1.26716 35.2024 1.43152 35.308 1.77197C35.6131 2.82857 35.8947 3.88517 36.1881 4.94176C36.2702 5.22352 36.3523 5.50528 36.4227 5.78704C36.5283 6.17446 36.3875 6.4797 36.0003 6.58536C34.6392 6.97277 33.2664 7.36019 31.8935 7.72413C31.5415 7.81805 31.2716 7.64195 31.1778 7.30149C31.0722 6.92581 31.2716 6.66753 31.6237 6.56187C32.3981 6.33882 33.1725 6.1275 33.9469 5.91618C34.0995 5.86922 34.2403 5.834 34.4632 5.76356C34.2872 5.63442 34.1816 5.55224 34.0643 5.4818C29.8167 2.81683 25.1819 1.78371 20.2068 2.47637C11.3948 3.68559 4.43674 10.166 2.70015 18.8536C1.52679 24.7353 2.71189 30.1827 6.17332 35.1017C6.24372 35.2074 6.32586 35.313 6.40799 35.4187C6.64267 35.7591 6.60747 36.1113 6.33759 36.3109C6.05598 36.5222 5.69224 36.4635 5.45757 36.1231C4.88262 35.2778 4.2842 34.4325 3.79139 33.5403C-3.34269 20.5676 4.20206 4.37824 18.7283 1.5137C24.2784 0.42188 29.4999 1.37282 34.3693 4.27258C34.4749 4.33128 34.5688 4.38998 34.6744 4.44868C34.6979 4.44868 34.7213 4.44868 34.8035 4.46042Z" stroke="#014898" stroke-width="0.2"/>
</g>
</g>
</g>
<defs>
<clipPath id="clip0_2198_3703">
<rect width="46" height="46" fill="white"/>
</clipPath>
</defs>
</svg>
