<svg width="45" height="45" viewBox="0 0 45 45" fill="none" xmlns="http://www.w3.org/2000/svg">
<g id="Frame" clip-path="url(#clip0_2198_3353)">
<g id="Group">
<path id="Vector" d="M35.0345 44.9992C34.6344 44.9172 34.2343 44.847 33.8342 44.7533C32.6809 44.5073 31.6336 44.0271 30.6804 43.3477C30.4333 43.172 30.2332 43.1486 29.9626 43.254C21.3721 46.2759 12.0991 44.0505 5.93277 37.386C1.56693 32.6658 -0.386525 27.032 0.084186 20.6369C0.778485 10.8803 7.68617 2.83368 17.2769 0.619986C23.5844 -0.832382 29.4683 0.280319 34.8933 3.81754C35.4228 4.16892 35.564 4.68428 35.2816 5.12936C34.9874 5.56272 34.4579 5.64471 33.9283 5.28162C31.0805 3.37246 27.9503 2.22462 24.5376 1.88495C19.9717 1.42816 15.6883 2.34175 11.7814 4.71941C6.59177 7.88183 3.33209 12.438 2.15532 18.3646C0.0488826 28.906 6.47409 39.1897 16.9356 42.0828C20.7837 43.1486 24.6318 43.0549 28.4563 41.9071C28.5505 41.8719 28.6564 41.8485 28.7505 41.8134C28.774 41.8017 28.7976 41.7782 28.8446 41.7314C26.8794 39.2366 26.291 36.4373 27.1148 33.2866C26.903 33.2866 26.7382 33.2866 26.5735 33.2866C23.0314 33.2866 19.4893 33.2866 15.9354 33.2866C14.7468 33.2866 14.535 33.0874 14.535 31.9162C14.535 31.7756 14.535 31.6351 14.535 31.4477C14.335 31.4477 14.1702 31.4477 14.0172 31.4477C12.1462 31.4477 10.2869 31.4477 8.41578 31.4477C7.53319 31.4477 7.239 31.1431 7.22723 30.253C7.20369 28.8006 7.22723 27.36 7.69794 25.9544C8.39224 23.9164 9.61609 22.2884 11.393 21.0586C11.4872 20.9883 11.5813 20.9297 11.7108 20.836C10.3575 19.0791 9.87498 17.1114 10.4751 14.9446C10.9105 13.3399 11.8755 12.0867 13.2759 11.1965C16.0884 9.40447 20.2306 9.96668 22.3724 13.3633C24.8436 9.49817 29.4683 9.60359 31.9513 11.501C34.6579 13.5742 35.5523 17.6502 33.0457 20.8477C33.1752 20.9414 33.3046 21.0234 33.4223 21.1171C35.3522 22.4875 36.6231 24.3147 37.2351 26.5986C37.2704 26.7392 37.3998 26.95 37.5057 26.9734C39.1179 27.278 40.5418 27.969 41.8716 29.0817C42.0952 28.2501 42.3541 27.5005 42.507 26.7275C43.6721 21.1054 42.7306 15.8581 39.5886 11.0208C39.5298 10.9271 39.4592 10.8217 39.4003 10.728C39.1297 10.2595 39.2121 9.75585 39.6239 9.48646C40.0358 9.20536 40.5536 9.29906 40.8596 9.75585C41.3185 10.4703 41.7892 11.1848 42.1775 11.9344C45.2019 17.8142 45.5784 23.8579 43.3543 30.0773C43.2484 30.3818 43.2484 30.5927 43.4367 30.8738C47.2142 36.4724 43.7662 44.0505 37.035 44.9289C36.9527 44.9407 36.8703 44.9758 36.7879 45.0109C36.2113 44.9992 35.6229 44.9992 35.0345 44.9992ZM43.2366 35.9102C43.2366 31.8693 39.9299 28.5898 35.8347 28.5898C31.8454 28.5781 28.5151 31.9045 28.5151 35.8985C28.5034 39.9394 31.8337 43.2423 35.8936 43.2423C39.9417 43.2306 43.2366 39.9394 43.2366 35.9102ZM16.312 31.5297C16.5473 31.5297 16.7238 31.5297 16.9003 31.5297C20.3718 31.5297 23.8316 31.5297 27.3031 31.5297C27.9856 31.5297 28.4916 30.9792 28.3975 30.2998C28.1268 28.4141 27.1854 26.9383 25.5614 25.9193C25.4438 25.8373 25.1966 25.8373 25.0672 25.9076C23.2785 26.8446 21.5015 26.8446 19.7128 25.9076C19.5834 25.8373 19.3363 25.8256 19.2186 25.9076C17.1828 27.2194 16.2649 29.0934 16.312 31.5297ZM21.3956 15.8699C21.0897 13.5039 18.6184 11.6533 16.1943 11.993C13.523 12.3561 11.6401 14.7923 12.0285 17.3222C12.4757 20.2387 15.1469 21.6091 16.9121 21.3748C17.0769 18.4583 18.5596 16.6195 21.3956 15.8699ZM23.3726 15.8699C26.2204 16.6429 27.7032 18.4935 27.8444 21.3865C30.2332 21.5622 32.5397 19.5711 32.7398 17.1934C32.9516 14.4995 31.0688 12.2038 28.4563 11.9695C25.9851 11.7587 23.5609 13.621 23.3726 15.8699ZM9.0277 29.6556C9.11007 29.6674 9.16891 29.6908 9.21599 29.6908C10.9341 29.6908 12.6522 29.6908 14.3703 29.7025C14.6174 29.7025 14.688 29.5971 14.7351 29.3745C15.1823 27.4302 16.2296 25.8607 17.8535 24.6895C17.9359 24.6309 17.9948 24.5606 18.0418 24.5138C17.8182 24.1156 17.6299 23.729 17.3946 23.3777C17.324 23.2722 17.1592 23.1668 17.0416 23.1668C15.7236 23.2137 14.4997 22.9092 13.3818 22.2298C13.17 22.101 13.017 22.1244 12.8287 22.2415C11.8873 22.8037 11.0871 23.5299 10.4398 24.4201C9.33366 25.9896 8.89825 27.7465 9.0277 29.6556ZM22.3959 17.5799C20.3601 17.5682 18.7126 19.208 18.7126 21.2225C18.7126 23.2137 20.3601 24.8535 22.3606 24.8652C24.3847 24.8769 26.0439 23.2371 26.0321 21.2108C26.0321 19.208 24.42 17.5916 22.3959 17.5799ZM35.4346 26.7158C34.8344 24.7832 33.6577 23.2605 31.869 22.2181C31.7513 22.1478 31.5277 22.1595 31.41 22.2298C30.2685 22.8974 29.0329 23.2137 27.7032 23.1668C27.5973 23.1668 27.4325 23.2254 27.3854 23.3074C27.1501 23.7056 26.9383 24.1156 26.7029 24.5489C28.3033 25.6382 29.3742 27.1257 29.9037 28.8826C30.7863 28.4024 31.6101 27.8519 32.5162 27.4888C33.4341 27.1374 34.4343 26.9852 35.4346 26.7158Z" fill="#014898"/>
<path id="Vector_2" d="M37.5742 8.03449C37.0917 8.03449 36.7151 7.65968 36.7034 7.17946C36.6916 6.69924 37.1035 6.27759 37.586 6.2893C38.0567 6.2893 38.445 6.68753 38.4568 7.15604C38.4685 7.64797 38.0802 8.03449 37.5742 8.03449Z" fill="#014898"/>
<path id="Vector_3" d="M40.8686 34.9248C40.8686 36.0492 40.5391 36.8573 39.8683 37.5132C38.7739 38.5908 37.656 39.6567 36.538 40.7108C36.1026 41.1207 35.6437 41.1325 35.2083 40.7225C34.055 39.6332 32.9018 38.544 31.7956 37.4195C30.7601 36.3771 30.5718 34.7373 31.2896 33.4372C32.1369 31.9029 33.9491 31.411 35.4907 32.3245C35.7614 32.4885 35.9379 32.5119 36.2203 32.3363C37.2323 31.7389 38.2914 31.6686 39.3152 32.266C40.3979 32.8985 40.845 33.9058 40.8686 34.9248ZM35.879 38.9305C36.8322 38.0052 37.7737 37.1267 38.6798 36.2131C38.8563 36.0375 38.9857 35.7681 39.0446 35.5338C39.3388 34.4562 38.5503 33.449 37.5736 33.6949C37.2323 33.7769 36.9264 34.0229 36.6439 34.2454C36.0909 34.6671 35.6319 34.6788 35.0906 34.2454C34.9847 34.1634 34.8906 34.0697 34.7846 33.9877C33.8785 33.2967 32.8194 33.7183 32.6429 34.831C32.5605 35.3698 32.6782 35.8618 33.0665 36.2483C33.9962 37.1267 34.9259 38.0052 35.879 38.9305Z" fill="#014898"/>
</g>
</g>
<defs>
<clipPath id="clip0_2198_3353">
<rect width="45" height="45" fill="white"/>
</clipPath>
</defs>
</svg>
