<svg width="41" height="45" viewBox="0 0 41 45" fill="none" xmlns="http://www.w3.org/2000/svg">
<g id="Frame" clip-path="url(#clip0_2198_3369)">
<g id="Group">
<g id="Vector">
<path d="M0.957031 22.0029C0.957031 16.0053 0.957031 10.0076 0.957031 3.998C0.957031 2.4537 1.74767 1.36431 3.12529 1.04108C3.43675 0.969255 3.78415 0.957284 4.10759 0.957284C11.4749 0.957284 18.8421 0.957284 26.2094 0.945312C26.9162 0.945312 27.4553 1.14883 27.9584 1.67556C29.5876 3.35155 31.2407 5.0036 32.9059 6.6317C33.3491 7.06267 33.5288 7.52955 33.5288 8.14009C33.5168 14.1377 33.5288 20.1354 33.5168 26.145C33.5168 26.552 33.6366 26.7555 33.996 26.971C37.6257 29.0181 39.4825 32.0828 39.2309 36.2967C38.9674 40.5704 35.3257 44.3654 31.085 44.916C28.6292 45.2393 26.4011 44.7006 24.3287 43.3598C24.1011 43.2041 23.7776 43.1084 23.5021 43.1084C16.9854 43.0964 10.4806 43.0964 3.96384 43.0964C2.43049 43.0964 1.31641 42.2464 1.01693 40.8458C0.957031 40.5345 0.957031 40.1993 0.957031 39.8761C0.957031 33.9144 0.957031 27.9646 0.957031 22.0029ZM25.862 2.96847C25.6464 2.96847 25.5026 2.96847 25.3589 2.96847C18.2791 2.96847 11.1993 2.96847 4.11957 2.96847C3.14925 2.96847 2.87372 3.24381 2.87372 4.22546C2.87372 16.1489 2.87372 28.0724 2.87372 39.9958C2.87372 41.0014 3.14925 41.2768 4.15551 41.2768C9.9535 41.2768 15.7395 41.2768 21.5375 41.2768C21.6812 41.2768 21.813 41.2648 22.0047 41.2528C19.6927 37.6734 19.3573 34.0221 21.6573 30.4187C23.9573 26.8154 27.3954 25.5105 31.6121 26.0971C31.6121 20.303 31.6121 14.5208 31.6121 8.70274C30.7017 8.70274 29.8272 8.70274 28.9407 8.70274C27.06 8.70274 25.886 7.52955 25.886 5.65005C25.862 4.78811 25.862 3.90223 25.862 2.96847ZM22.0286 35.758C22.2563 40.1514 25.8141 43.4196 30.1386 43.1802C34.3194 42.9527 37.5538 39.3374 37.3622 35.0995C37.1705 30.9934 33.5048 27.6653 29.4199 27.8689C25.1073 28.0843 21.9448 31.6039 22.0286 35.758ZM30.0787 6.78733C29.3121 6.02116 28.5334 5.25499 27.7907 4.52474C27.7907 4.93177 27.7667 5.42259 27.8027 5.91342C27.8386 6.42819 28.1022 6.73944 28.6053 6.78733C29.0964 6.82324 29.6235 6.78733 30.0787 6.78733Z" fill="#014898"/>
<path d="M17.213 19.2495C14.3858 19.2495 11.5587 19.2495 8.73161 19.2495C7.95295 19.2495 7.54565 18.7826 7.67743 18.1002C7.76128 17.6573 8.03681 17.4298 8.46806 17.358C8.57587 17.346 8.67171 17.346 8.77952 17.346C14.4218 17.346 20.064 17.346 25.6943 17.346C26.449 17.346 26.8563 17.7291 26.8084 18.3756C26.7725 18.9143 26.437 19.2375 25.862 19.2495C24.9396 19.2615 24.0052 19.2615 23.0828 19.2615C21.1422 19.2495 19.1776 19.2495 17.213 19.2495Z" fill="#014898"/>
<path d="M15.2963 24.05C13.128 24.05 10.9598 24.05 8.7915 24.05C8.00087 24.05 7.56961 23.6071 7.67743 22.9367C7.7493 22.5057 7.97691 22.2304 8.42014 22.1585C8.59983 22.1346 8.77952 22.1226 8.95921 22.1226C13.2119 22.1226 17.4645 22.1226 21.7052 22.1226C21.9088 22.1226 22.1245 22.1346 22.3281 22.1825C22.7474 22.2782 22.987 22.6254 22.987 23.0803C22.987 23.5352 22.7594 23.8824 22.3401 23.9901C22.1365 24.038 21.9208 24.05 21.7172 24.05C19.5849 24.05 17.4406 24.05 15.2963 24.05Z" fill="#014898"/>
<path d="M12.9723 12.5575C14.3978 12.5575 15.8114 12.5455 17.2369 12.5575C17.9796 12.5695 18.3989 13.2159 18.1234 13.8983C17.9317 14.3532 17.5484 14.461 17.0932 14.461C14.4457 14.461 11.7983 14.461 9.15088 14.461C8.95921 14.461 8.76754 14.4729 8.5639 14.461C8.00087 14.425 7.64149 14.0539 7.64149 13.5032C7.64149 12.9526 8.00087 12.5695 8.5639 12.5695C10.0493 12.5455 11.5108 12.5575 12.9723 12.5575Z" fill="#014898"/>
<path d="M29.4199 36.7636C29.7912 36.0213 30.1626 35.3031 30.522 34.5848C30.9053 33.8186 31.2767 33.0524 31.66 32.2982C31.9116 31.8074 32.4387 31.6039 32.9059 31.7835C33.3611 31.963 33.6126 32.5616 33.4569 33.0644C33.421 33.1722 33.3731 33.2919 33.3132 33.3876C32.4387 35.1355 31.5642 36.8952 30.6897 38.6431C30.2704 39.4811 29.5636 39.6008 28.8928 38.9423C28.0183 38.0684 27.1438 37.1826 26.2573 36.3086C25.9938 36.0453 25.8141 35.746 25.886 35.3509C26.0417 34.5967 26.9162 34.3453 27.4912 34.8841C28.0303 35.3869 28.5334 35.9136 29.0485 36.4284C29.1683 36.5361 29.2761 36.6319 29.4199 36.7636Z" fill="#014898"/>
<path d="M0.957031 22.0029C0.957031 16.0053 0.957031 10.0076 0.957031 3.998C0.957031 2.4537 1.74767 1.36431 3.12529 1.04108C3.43675 0.969255 3.78415 0.957284 4.10759 0.957284C11.4749 0.957284 18.8421 0.957284 26.2094 0.945312C26.9162 0.945312 27.4553 1.14883 27.9584 1.67556C29.5876 3.35155 31.2407 5.0036 32.9059 6.6317C33.3491 7.06267 33.5288 7.52955 33.5288 8.14009C33.5168 14.1377 33.5288 20.1354 33.5168 26.145C33.5168 26.552 33.6366 26.7555 33.996 26.971C37.6257 29.0181 39.4825 32.0828 39.2309 36.2967C38.9674 40.5704 35.3257 44.3654 31.085 44.916C28.6292 45.2393 26.4011 44.7006 24.3287 43.3598C24.1011 43.2041 23.7776 43.1084 23.5021 43.1084C16.9854 43.0964 10.4806 43.0964 3.96384 43.0964C2.43049 43.0964 1.31641 42.2464 1.01693 40.8458C0.957031 40.5345 0.957031 40.1993 0.957031 39.8761C0.957031 33.9144 0.957031 27.9646 0.957031 22.0029ZM25.862 2.96847C25.6464 2.96847 25.5026 2.96847 25.3589 2.96847C18.2791 2.96847 11.1993 2.96847 4.11957 2.96847C3.14925 2.96847 2.87372 3.24381 2.87372 4.22546C2.87372 16.1489 2.87372 28.0724 2.87372 39.9958C2.87372 41.0014 3.14925 41.2768 4.15551 41.2768C9.9535 41.2768 15.7395 41.2768 21.5375 41.2768C21.6812 41.2768 21.813 41.2648 22.0047 41.2528C19.6927 37.6734 19.3573 34.0221 21.6573 30.4187C23.9573 26.8154 27.3954 25.5105 31.6121 26.0971C31.6121 20.303 31.6121 14.5208 31.6121 8.70274C30.7017 8.70274 29.8272 8.70274 28.9407 8.70274C27.06 8.70274 25.886 7.52955 25.886 5.65005C25.862 4.78811 25.862 3.90223 25.862 2.96847ZM22.0286 35.758C22.2563 40.1514 25.8141 43.4196 30.1386 43.1802C34.3194 42.9527 37.5538 39.3374 37.3622 35.0995C37.1705 30.9934 33.5048 27.6653 29.4199 27.8689C25.1073 28.0843 21.9448 31.6039 22.0286 35.758ZM30.0787 6.78733C29.3121 6.02116 28.5334 5.25499 27.7907 4.52474C27.7907 4.93177 27.7667 5.42259 27.8027 5.91342C27.8386 6.42819 28.1022 6.73944 28.6053 6.78733C29.0964 6.82324 29.6235 6.78733 30.0787 6.78733Z" stroke="#F2F8FF" stroke-width="0.2"/>
<path d="M17.213 19.2495C14.3858 19.2495 11.5587 19.2495 8.73161 19.2495C7.95295 19.2495 7.54565 18.7826 7.67743 18.1002C7.76128 17.6573 8.03681 17.4298 8.46806 17.358C8.57587 17.346 8.67171 17.346 8.77952 17.346C14.4218 17.346 20.064 17.346 25.6943 17.346C26.449 17.346 26.8563 17.7291 26.8084 18.3756C26.7725 18.9143 26.437 19.2375 25.862 19.2495C24.9396 19.2615 24.0052 19.2615 23.0828 19.2615C21.1422 19.2495 19.1776 19.2495 17.213 19.2495Z" stroke="#F2F8FF" stroke-width="0.2"/>
<path d="M15.2963 24.05C13.128 24.05 10.9598 24.05 8.7915 24.05C8.00087 24.05 7.56961 23.6071 7.67743 22.9367C7.7493 22.5057 7.97691 22.2304 8.42014 22.1585C8.59983 22.1346 8.77952 22.1226 8.95921 22.1226C13.2119 22.1226 17.4645 22.1226 21.7052 22.1226C21.9088 22.1226 22.1245 22.1346 22.3281 22.1825C22.7474 22.2782 22.987 22.6254 22.987 23.0803C22.987 23.5352 22.7594 23.8824 22.3401 23.9901C22.1365 24.038 21.9208 24.05 21.7172 24.05C19.5849 24.05 17.4406 24.05 15.2963 24.05Z" stroke="#F2F8FF" stroke-width="0.2"/>
<path d="M12.9723 12.5575C14.3978 12.5575 15.8114 12.5455 17.2369 12.5575C17.9796 12.5695 18.3989 13.2159 18.1234 13.8983C17.9317 14.3532 17.5484 14.461 17.0932 14.461C14.4457 14.461 11.7983 14.461 9.15088 14.461C8.95921 14.461 8.76754 14.4729 8.5639 14.461C8.00087 14.425 7.64149 14.0539 7.64149 13.5032C7.64149 12.9526 8.00087 12.5695 8.5639 12.5695C10.0493 12.5455 11.5108 12.5575 12.9723 12.5575Z" stroke="#F2F8FF" stroke-width="0.2"/>
<path d="M29.4199 36.7636C29.7912 36.0213 30.1626 35.3031 30.522 34.5848C30.9053 33.8186 31.2767 33.0524 31.66 32.2982C31.9116 31.8074 32.4387 31.6039 32.9059 31.7835C33.3611 31.963 33.6126 32.5616 33.4569 33.0644C33.421 33.1722 33.3731 33.2919 33.3132 33.3876C32.4387 35.1355 31.5642 36.8952 30.6897 38.6431C30.2704 39.4811 29.5636 39.6008 28.8928 38.9423C28.0183 38.0684 27.1438 37.1826 26.2573 36.3086C25.9938 36.0453 25.8141 35.746 25.886 35.3509C26.0417 34.5967 26.9162 34.3453 27.4912 34.8841C28.0303 35.3869 28.5334 35.9136 29.0485 36.4284C29.1683 36.5361 29.2761 36.6319 29.4199 36.7636Z" stroke="#F2F8FF" stroke-width="0.2"/>
</g>
</g>
</g>
<defs>
<clipPath id="clip0_2198_3369">
<rect width="40.2128" height="45" fill="white"/>
</clipPath>
</defs>
</svg>
