<svg width="43" height="40" viewBox="0 0 43 40" fill="none" xmlns="http://www.w3.org/2000/svg">
<g clip-path="url(#clip0_2232_12129)">
<path d="M0 3.54822C0.233911 2.80346 0.463663 2.06387 1.00322 1.45856C1.78604 0.57952 2.76222 0.109527 3.92762 0.00829776C4.06485 -0.00409766 4.20415 0.0010671 4.34242 0.0010671C14.124 0.0010671 23.9046 -0.000998804 33.6862 0.003133C35.4453 0.003133 36.7884 0.754088 37.5712 2.33244C37.8259 2.84581 37.9975 3.45939 38.0016 4.02751C38.0349 9.30692 38.0235 14.5863 38.0214 19.8658C38.0214 20.47 37.6846 20.8274 37.1668 20.813C36.6606 20.7985 36.3643 20.439 36.3643 19.8131C36.3622 14.7124 36.3643 9.61164 36.3632 4.51093C36.3632 2.62166 35.3829 1.65172 33.4721 1.65172C23.7882 1.65172 14.1033 1.65379 4.41935 1.64862C3.31633 1.64862 2.43267 2.02772 1.94094 3.04208C1.76732 3.40051 1.67376 3.83332 1.67272 4.23204C1.65817 12.5225 1.65817 20.813 1.6644 29.1034C1.66544 30.6539 2.74143 31.6806 4.33618 31.6817C9.85647 31.6848 15.3768 31.6827 20.896 31.6827C21.6736 31.6827 22.0905 31.9802 22.077 32.5246C22.0635 33.0555 21.6622 33.3323 20.9033 33.3323C15.4246 33.3323 9.94588 33.3044 4.46821 33.3468C2.34846 33.3633 0.455346 32.0401 0.0644554 29.8864C0.0582178 29.8503 0.0228713 29.8193 0.0010396 29.7852C0.0010396 21.0402 0.0010396 12.2953 0.0010396 3.54925L0 3.54822Z" fill="#014898"/>
<path d="M19.0335 7.95745C24.1993 8.00704 28.3546 12.1688 28.3109 17.2499C28.2673 22.3465 24.034 26.5093 18.9722 26.4349C13.7856 26.3584 9.65316 22.2019 9.71554 17.1259C9.77896 12.0407 13.9779 7.90891 19.0335 7.95745ZM19.0231 24.7853C23.2366 24.7698 26.6507 21.3734 26.6496 17.1982C26.6486 13.0261 23.2335 9.6267 19.0221 9.60708C14.8241 9.58745 11.3612 13.0354 11.3747 17.2189C11.3883 21.3951 14.8304 24.8008 19.0231 24.7842V24.7853Z" fill="#014898"/>
<path d="M29.2281 31.6834C30.6939 31.6834 32.1587 31.6792 33.6245 31.6875C33.8792 31.6885 34.0289 31.6441 34.1651 31.3817C34.6205 30.5006 35.3815 30.0368 36.3764 30.043C37.3713 30.0492 38.1208 30.5234 38.5751 31.4055C38.6895 31.6265 38.8122 31.6906 39.045 31.6875C39.8601 31.6751 40.6762 31.6792 41.4923 31.6844C42.1004 31.6875 42.4861 32.0025 42.4986 32.4911C42.5111 32.9931 42.1129 33.3289 41.485 33.3319C40.6554 33.3361 39.8258 33.3216 38.9972 33.3443C38.8621 33.3485 38.6728 33.4683 38.6074 33.5881C38.1198 34.4734 37.3817 34.9681 36.3691 34.9723C35.3565 34.9754 34.5945 34.494 34.1412 33.5923C34.0217 33.3536 33.8772 33.3299 33.6588 33.3309C30.7552 33.335 27.8527 33.334 24.9491 33.3319C24.7838 33.3319 24.6143 33.333 24.4552 33.2989C24.0529 33.2121 23.8065 32.8981 23.8086 32.5046C23.8107 32.111 24.0592 31.8011 24.4625 31.7154C24.6091 31.6844 24.764 31.6844 24.9158 31.6844C26.3536 31.6823 27.7913 31.6834 29.2291 31.6834H29.2281ZM36.3722 31.6896C35.9397 31.6823 35.5447 32.0645 35.5374 32.4973C35.5301 32.927 35.9148 33.3196 36.3493 33.3268C36.7818 33.334 37.1769 32.9518 37.1841 32.519C37.1914 32.0893 36.8068 31.6968 36.3722 31.6896Z" fill="#014898"/>
<path d="M37.0594 28.3018C35.579 28.3018 34.0986 28.3059 32.6192 28.2966C32.3843 28.2956 32.2585 28.3596 32.1441 28.5806C31.6888 29.4628 30.9424 29.94 29.9454 29.9421C28.9318 29.9441 28.1749 29.4659 27.7144 28.5652C27.6104 28.3617 27.4971 28.2925 27.2726 28.2966C26.443 28.31 25.6123 28.3059 24.7827 28.3007C24.1652 28.2966 23.8055 27.9846 23.8086 27.4733C23.8117 26.9672 24.1746 26.6583 24.7942 26.6532C25.5967 26.647 26.3993 26.6428 27.2008 26.6563C27.4618 26.6604 27.6073 26.6005 27.7404 26.3443C28.1916 25.4797 28.9411 25.019 29.9173 25.0118C30.8956 25.0046 31.6545 25.457 32.1109 26.3164C32.2647 26.6056 32.4311 26.6573 32.719 26.6563C35.5551 26.648 38.3901 26.6511 41.2261 26.6511C41.3228 26.6511 41.4195 26.649 41.5162 26.6511C42.115 26.6645 42.5038 26.9961 42.4976 27.4868C42.4924 27.9774 42.1067 28.2987 41.4995 28.2997C40.0191 28.3038 38.5398 28.3007 37.0594 28.3007V28.3018ZM30.7469 27.4878C30.7511 27.0405 30.3872 26.6656 29.9423 26.6594C29.5025 26.6532 29.1262 27.025 29.121 27.4702C29.1168 27.9185 29.4786 28.2914 29.9236 28.2966C30.3685 28.3018 30.7407 27.9351 30.7459 27.4878H30.7469Z" fill="#014898"/>
<path d="M37.0275 38.3624C35.5751 38.3624 34.1228 38.3686 32.6705 38.3572C32.4064 38.3552 32.2619 38.4192 32.1299 38.6702C31.6662 39.5482 30.9053 40.011 29.9104 40.0017C28.9342 39.9924 28.1898 39.5265 27.7365 38.6619C27.6149 38.4306 27.4902 38.3521 27.2344 38.3572C26.4048 38.3738 25.5742 38.3696 24.7446 38.3603C24.2123 38.3541 23.8775 38.0866 23.8214 37.6548C23.7507 37.1146 24.1062 36.7252 24.7113 36.7159C25.5409 36.7035 26.3715 36.7035 27.2011 36.7179C27.4642 36.7221 27.6076 36.658 27.7407 36.4039C28.194 35.5424 28.9352 35.0776 29.9155 35.0704C30.9136 35.0642 31.6683 35.528 32.1309 36.4049C32.263 36.656 32.4085 36.7179 32.6715 36.7169C35.5492 36.7086 38.4257 36.7117 41.3034 36.7117C41.4551 36.7117 41.609 36.7055 41.7587 36.7252C42.1735 36.7809 42.476 37.1022 42.4989 37.4937C42.5207 37.88 42.2463 38.2343 41.8367 38.3242C41.6901 38.3562 41.5352 38.3593 41.3844 38.3593C39.9321 38.3614 38.4798 38.3603 37.0275 38.3603V38.3624ZM29.9509 36.7179C29.507 36.7086 29.1306 37.0733 29.1234 37.5195C29.1161 37.9657 29.4789 38.3448 29.9207 38.3552C30.3615 38.3655 30.74 37.9978 30.7483 37.5505C30.7566 37.1012 30.399 36.7283 29.9509 36.719V36.7179Z" fill="#014898"/>
<path d="M3.98407 18.8542C3.98407 17.562 3.97575 16.2698 3.98718 14.9776C3.99342 14.2969 4.53921 13.8847 5.111 14.1151C5.52892 14.2834 5.64639 14.6326 5.64535 15.0509C5.64119 16.3018 5.64431 17.5527 5.64431 18.8036C5.64431 20.1093 5.64223 21.416 5.64535 22.7216C5.64535 23.0852 5.56842 23.4054 5.23159 23.6079C4.65565 23.9539 3.99966 23.5438 3.98822 22.8135C3.97367 21.8932 3.98407 20.9718 3.98407 20.0504C3.98407 19.6517 3.98407 19.253 3.98407 18.8542Z" fill="#014898"/>
<path d="M4.81039 12.2998C4.36648 12.2967 3.98806 11.9207 3.99222 11.4848C3.99638 11.0541 4.38935 10.6688 4.82078 10.6719C5.25326 10.675 5.64207 11.0665 5.63999 11.4952C5.63687 11.9321 5.25534 12.3029 4.81039 12.3009V12.2998Z" fill="#014898"/>
<path d="M37.2063 22.3488C37.6533 22.356 38.0255 22.733 38.0151 23.17C38.0058 23.6038 37.6107 23.9819 37.1772 23.9726C36.7416 23.9633 36.358 23.5687 36.3674 23.141C36.3767 22.701 36.7572 22.3415 37.2063 22.3477V22.3488Z" fill="#014898"/>
<path d="M15.6886 17.1195C15.6886 16.2126 15.6917 15.3057 15.6876 14.3998C15.6834 13.6374 15.9724 13.0249 16.6565 12.6582C17.3239 12.3008 17.9892 12.3886 18.6192 12.7894C20.0497 13.6994 21.4886 14.5991 22.9097 15.5246C24.179 16.352 24.177 17.8901 22.9076 18.7185C21.4865 19.6441 20.0508 20.5469 18.6182 21.4548C17.9903 21.8525 17.3208 21.9444 16.6534 21.5839C15.9724 21.2152 15.6824 20.6026 15.6876 19.8403C15.6928 18.9334 15.6886 18.0264 15.6886 17.1206V17.1195ZM17.3489 17.1102C17.3489 18.0037 17.3457 18.8972 17.3499 19.7907C17.352 20.1833 17.4497 20.237 17.7896 20.0221C19.1765 19.1441 20.5591 18.2578 21.946 17.3798C22.2142 17.2094 22.2724 17.0699 21.9636 16.8757C20.5643 15.9915 19.1713 15.097 17.772 14.2118C17.4414 14.0021 17.3509 14.0609 17.3499 14.4721C17.3457 15.3521 17.3489 16.2312 17.3489 17.1113V17.1102Z" fill="#014898"/>
</g>
<defs>
<clipPath id="clip0_2232_12129">
<rect width="42.5" height="40" fill="white"/>
</clipPath>
</defs>
</svg>
