<svg width="47" height="42" viewBox="0 0 47 42" fill="none" xmlns="http://www.w3.org/2000/svg">
<g id="Frame 1171276828">
<g id="Vector">
<path d="M24.6894 36.0325C24.6894 36.4442 24.6934 36.912 24.6894 37.3798C24.6671 39.4984 23.1995 40.9682 21.0666 40.9851C19.4097 40.9981 17.7515 41.0099 16.0946 40.9799C14.2693 40.9473 12.861 39.6808 12.6361 37.9257C12.4152 36.2058 13.4435 34.6188 15.1175 34.1445C15.5054 34.035 15.9249 33.992 16.3299 33.9907C18.8903 33.9764 21.4506 34.0038 24.0109 33.9751C31.3933 33.8943 37.7973 28.47 39.0624 21.2463C40.4997 13.0389 35.3646 5.32401 27.1919 3.40994C18.455 1.36557 9.60898 7.26153 8.21376 16.0566C7.84293 18.3902 7.97969 20.6861 8.68848 22.9467C8.99882 23.9383 8.5846 24.5012 7.54311 24.5051C6.42668 24.5103 5.31156 24.5129 4.19512 24.5051C2.28969 24.4921 1.02071 23.2412 1.00888 21.3506C0.997041 19.4482 0.997041 17.5459 1.00888 15.6436C1.02071 13.7542 2.28969 12.5203 4.20827 12.5112C5.04461 12.5073 5.88227 12.4969 6.71861 12.5177C7.01711 12.5255 7.13809 12.4135 7.24592 12.1516C9.40647 6.88106 13.2344 3.38258 18.7219 1.73431C27.3733 -0.86512 36.7282 3.64447 40.0578 11.9809C40.2222 12.3913 40.4116 12.5464 40.8652 12.5242C41.7003 12.4812 42.5392 12.5021 43.3756 12.5164C45.0272 12.5464 46.3251 13.7725 46.3567 15.409C46.3961 17.4729 46.3961 19.5381 46.3567 21.6021C46.3251 23.2334 45.0377 24.4543 43.3716 24.4986C42.4695 24.5233 41.5661 24.5168 40.664 24.4986C40.3734 24.4934 40.2419 24.5885 40.1315 24.8569C37.8999 30.2668 33.9418 33.7823 28.2636 35.3563C27.1208 35.6729 25.9242 35.8045 24.6907 36.0325H24.6894ZM6.48454 14.5165C5.5956 14.5165 4.79345 14.4943 3.9913 14.5243C3.39692 14.5465 3.02346 14.9439 3.01951 15.5406C3.00768 17.5238 3.01031 19.5069 3.01951 21.4887C3.02214 21.9578 3.26805 22.3878 3.72304 22.4268C4.62381 22.5037 5.53642 22.449 6.48059 22.449C5.90199 19.7987 5.91514 17.1876 6.48454 14.5152V14.5165ZM41.0059 22.4894C41.6713 22.4894 42.3893 22.4894 43.1073 22.4894C43.2546 22.4894 43.4045 22.492 43.5491 22.4672C44.0094 22.3904 44.3539 22.0086 44.3579 21.5004C44.371 19.5017 44.371 17.5016 44.3579 15.5028C44.3539 14.9895 44.0265 14.5777 43.5439 14.553C42.6826 14.5074 41.8186 14.5399 41.0033 14.5399C41.1125 15.8703 41.3044 17.1746 41.3044 18.4801C41.3044 19.8 41.1164 21.1213 41.0059 22.4907V22.4894ZM22.6656 36.009C20.3775 36.009 18.1499 35.9869 15.9223 36.0208C15.153 36.0325 14.6086 36.7309 14.6231 37.5218C14.6375 38.2997 15.2135 38.9459 15.9999 38.9577C17.7528 38.985 19.507 38.9811 21.2612 38.9616C22.0029 38.9525 22.5736 38.4404 22.6551 37.7003C22.7143 37.1596 22.6669 36.6058 22.6669 36.0077L22.6656 36.009Z" fill="#014898"/>
<path d="M14.1587 26.6824C13.972 26.4466 13.8629 26.3072 13.7537 26.1691C7.81123 18.6744 12.3375 7.50918 21.8646 6.15669C28.8013 5.17295 35.2132 9.92489 36.1758 16.7642C37.1436 23.6413 32.2926 29.9542 25.327 30.8715C24.7274 30.9497 24.1172 30.9796 23.5123 30.9823C19.804 30.9927 16.0957 30.9875 12.3887 30.9875C12.2901 30.9875 12.1915 30.9875 12.0929 30.9836C11.655 30.9692 11.346 30.7647 11.1816 30.362C11.0172 29.9581 11.0974 29.5933 11.4038 29.2858C12.1652 28.5235 12.9305 27.7639 13.7011 27.0108C13.8287 26.8857 13.9944 26.7997 14.1587 26.685V26.6824ZM14.5598 28.8688C14.5848 28.9066 14.6111 28.9457 14.6361 28.9835C14.7439 28.9887 14.8504 28.9978 14.9583 28.9978C17.8789 28.9978 20.7995 29.0187 23.7201 28.9939C29.443 28.9444 33.9876 24.5873 34.2598 18.9206C34.5886 12.0683 28.0793 6.71176 21.3334 8.28314C13.3329 10.1464 10.3965 19.7128 15.9997 25.6596C16.6586 26.3593 16.6586 26.8727 15.9734 27.5424C15.5119 27.9945 15.0319 28.4284 14.5611 28.8701L14.5598 28.8688Z" fill="#014898"/>
<path d="M24.6894 36.0325C24.6894 36.4442 24.6934 36.912 24.6894 37.3798C24.6671 39.4984 23.1995 40.9682 21.0666 40.9851C19.4097 40.9981 17.7515 41.0099 16.0946 40.9799C14.2693 40.9473 12.861 39.6808 12.6361 37.9257C12.4152 36.2058 13.4435 34.6188 15.1175 34.1445C15.5054 34.035 15.9249 33.992 16.3299 33.9907C18.8903 33.9764 21.4506 34.0038 24.0109 33.9751C31.3933 33.8943 37.7973 28.47 39.0624 21.2463C40.4997 13.0389 35.3646 5.32401 27.1919 3.40994C18.455 1.36557 9.60898 7.26153 8.21376 16.0566C7.84293 18.3902 7.97969 20.6861 8.68848 22.9467C8.99882 23.9383 8.5846 24.5012 7.54311 24.5051C6.42668 24.5103 5.31156 24.5129 4.19512 24.5051C2.28969 24.4921 1.02071 23.2412 1.00888 21.3506C0.997041 19.4482 0.997041 17.5459 1.00888 15.6436C1.02071 13.7542 2.28969 12.5203 4.20827 12.5112C5.04461 12.5073 5.88227 12.4969 6.71861 12.5177C7.01711 12.5255 7.13809 12.4135 7.24592 12.1516C9.40647 6.88106 13.2344 3.38258 18.7219 1.73431C27.3733 -0.86512 36.7282 3.64447 40.0578 11.9809C40.2222 12.3913 40.4116 12.5464 40.8652 12.5242C41.7003 12.4812 42.5392 12.5021 43.3756 12.5164C45.0272 12.5464 46.3251 13.7725 46.3567 15.409C46.3961 17.4729 46.3961 19.5381 46.3567 21.6021C46.3251 23.2334 45.0377 24.4543 43.3716 24.4986C42.4695 24.5233 41.5661 24.5168 40.664 24.4986C40.3734 24.4934 40.2419 24.5885 40.1315 24.8569C37.8999 30.2668 33.9418 33.7823 28.2636 35.3563C27.1208 35.6729 25.9242 35.8045 24.6907 36.0325H24.6894ZM6.48454 14.5165C5.5956 14.5165 4.79345 14.4943 3.9913 14.5243C3.39692 14.5465 3.02346 14.9439 3.01951 15.5406C3.00768 17.5238 3.01031 19.5069 3.01951 21.4887C3.02214 21.9578 3.26805 22.3878 3.72304 22.4268C4.62381 22.5037 5.53642 22.449 6.48059 22.449C5.90199 19.7987 5.91514 17.1876 6.48454 14.5152V14.5165ZM41.0059 22.4894C41.6713 22.4894 42.3893 22.4894 43.1073 22.4894C43.2546 22.4894 43.4045 22.492 43.5491 22.4672C44.0094 22.3904 44.3539 22.0086 44.3579 21.5004C44.371 19.5017 44.371 17.5016 44.3579 15.5028C44.3539 14.9895 44.0265 14.5777 43.5439 14.553C42.6826 14.5074 41.8186 14.5399 41.0033 14.5399C41.1125 15.8703 41.3044 17.1746 41.3044 18.4801C41.3044 19.8 41.1164 21.1213 41.0059 22.4907V22.4894ZM22.6656 36.009C20.3775 36.009 18.1499 35.9869 15.9223 36.0208C15.153 36.0325 14.6086 36.7309 14.6231 37.5218C14.6375 38.2997 15.2135 38.9459 15.9999 38.9577C17.7528 38.985 19.507 38.9811 21.2612 38.9616C22.0029 38.9525 22.5736 38.4404 22.6551 37.7003C22.7143 37.1596 22.6669 36.6058 22.6669 36.0077L22.6656 36.009Z" stroke="white" stroke-width="0.5"/>
<path d="M14.1587 26.6824C13.972 26.4466 13.8629 26.3072 13.7537 26.1691C7.81123 18.6744 12.3375 7.50918 21.8646 6.15669C28.8013 5.17295 35.2132 9.92489 36.1758 16.7642C37.1436 23.6413 32.2926 29.9542 25.327 30.8715C24.7274 30.9497 24.1172 30.9796 23.5123 30.9823C19.804 30.9927 16.0957 30.9875 12.3887 30.9875C12.2901 30.9875 12.1915 30.9875 12.0929 30.9836C11.655 30.9692 11.346 30.7647 11.1816 30.362C11.0172 29.9581 11.0974 29.5933 11.4038 29.2858C12.1652 28.5235 12.9305 27.7639 13.7011 27.0108C13.8287 26.8857 13.9944 26.7997 14.1587 26.685V26.6824ZM14.5598 28.8688C14.5848 28.9066 14.6111 28.9457 14.6361 28.9835C14.7439 28.9887 14.8504 28.9978 14.9583 28.9978C17.8789 28.9978 20.7995 29.0187 23.7201 28.9939C29.443 28.9444 33.9876 24.5873 34.2598 18.9206C34.5886 12.0683 28.0793 6.71176 21.3334 8.28314C13.3329 10.1464 10.3965 19.7128 15.9997 25.6596C16.6586 26.3593 16.6586 26.8727 15.9734 27.5424C15.5119 27.9945 15.0319 28.4284 14.5611 28.8701L14.5598 28.8688Z" stroke="white" stroke-width="0.5"/>
</g>
<g id="Vector_2">
<path d="M18.9798 17.0003C19.5176 16.9899 19.9897 17.4447 19.9989 17.9828C20.0081 18.5248 19.561 18.9848 19.014 18.9965C18.4669 19.0082 18.0093 18.5652 18.0001 18.0167C17.9922 17.4694 18.4341 17.0108 18.9785 17.0003H18.9798Z" fill="#014898"/>
<path d="M30.0758 17.9997C30.0758 18.5483 29.626 18.9978 29.079 18.9965C28.5333 18.9965 28.077 18.5418 28.077 17.9997C28.077 17.4629 28.5411 17.0016 29.079 17.0016C29.6247 17.0016 30.0744 17.4525 30.0744 17.9997H30.0758Z" fill="#014898"/>
<path d="M23.0444 17.9294C23.076 17.3938 23.5744 16.9599 24.1083 17.0029C24.658 17.0472 25.0643 17.5176 25.0314 18.0688C24.9985 18.6108 24.5107 19.0343 23.9676 18.9913C23.4153 18.9483 23.0116 18.4831 23.0444 17.9294Z" fill="#014898"/>
<path d="M18.9798 17.0003C19.5176 16.9899 19.9897 17.4447 19.9989 17.9828C20.0081 18.5248 19.561 18.9848 19.014 18.9965C18.4669 19.0082 18.0093 18.5652 18.0001 18.0167C17.9922 17.4694 18.4341 17.0108 18.9785 17.0003H18.9798Z" stroke="white"/>
<path d="M30.0758 17.9997C30.0758 18.5483 29.626 18.9978 29.079 18.9965C28.5333 18.9965 28.077 18.5418 28.077 17.9997C28.077 17.4629 28.5411 17.0016 29.079 17.0016C29.6247 17.0016 30.0744 17.4525 30.0744 17.9997H30.0758Z" stroke="white"/>
<path d="M23.0444 17.9294C23.076 17.3938 23.5744 16.9599 24.1083 17.0029C24.658 17.0472 25.0643 17.5176 25.0314 18.0688C24.9985 18.6108 24.5107 19.0343 23.9676 18.9913C23.4153 18.9483 23.0116 18.4831 23.0444 17.9294Z" stroke="white"/>
</g>
</g>
</svg>
