<svg width="41" height="40" viewBox="0 0 41 40" fill="none" xmlns="http://www.w3.org/2000/svg">
<g clip-path="url(#clip0_2232_13669)">
<path d="M25.1114 28.5992C25.1114 28.8196 25.1114 28.9782 25.1114 29.1368C25.1114 31.7133 25.1135 34.2908 25.1114 36.8673C25.1103 38.2513 24.3376 39.0455 22.9979 39.0477C21.3583 39.0498 19.7197 39.0498 18.08 39.0477C16.7372 39.0466 15.979 38.2598 15.9779 36.8673C15.9759 34.3036 15.9779 31.7399 15.9779 29.1762C15.9779 29.0208 15.9779 28.8654 15.9779 28.6631C15.2672 28.6631 14.599 28.6631 13.9317 28.6631C13.1652 28.6631 13.0348 28.5257 13.0348 27.7336C13.0348 23.9084 13.039 20.0831 13.0328 16.2578C13.0297 14.8163 13.4228 13.5334 14.4159 12.4889C15.141 11.7277 16.0214 11.2955 17.0714 11.2933C19.3431 11.288 21.6148 11.2689 23.8866 11.2987C25.8314 11.3242 27.4379 12.7892 27.9014 14.9153C27.9997 15.3646 28.0493 15.8351 28.0504 16.2961C28.0617 20.0948 28.0576 23.8934 28.0566 27.6921C28.0566 28.4395 27.8983 28.5992 27.1669 28.5992C26.4986 28.5992 25.8304 28.5992 25.1124 28.5992H25.1114ZM15.9097 27.3227V26.8585C15.9097 25.105 15.9097 23.3526 15.9097 21.5991C15.9097 21.4671 15.9024 21.3298 15.9314 21.2031C16.0048 20.8858 16.2272 20.7378 16.5293 20.7474C16.8117 20.7559 17.03 20.8943 17.0828 21.2042C17.1117 21.3724 17.1148 21.547 17.1148 21.7194C17.1159 26.6732 17.1159 31.6271 17.1169 36.5809C17.1169 36.7533 17.1159 36.9269 17.1314 37.0983C17.1634 37.4454 17.3548 37.6987 17.6859 37.7136C18.4017 37.7467 19.1207 37.7232 19.8707 37.7232C19.8707 37.5433 19.8707 37.3868 19.8707 37.2292C19.8707 34.4005 19.8707 31.5717 19.8707 28.7429C19.8707 28.5971 19.8624 28.448 19.8872 28.3064C19.9472 27.9742 20.1459 27.7996 20.4821 27.8028C20.8938 27.8071 21.0831 28.0477 21.0831 28.5949C21.0852 31.4769 21.0831 34.3589 21.0831 37.2409C21.0831 37.3964 21.0831 37.5529 21.0831 37.7552C21.2755 37.7552 21.4266 37.7552 21.5786 37.7552C24.0862 37.7616 23.8348 37.9415 23.8369 35.4534C23.84 30.885 23.8369 26.3155 23.839 21.7471C23.839 21.5746 23.839 21.4 23.8638 21.2308C23.9124 20.9029 24.1338 20.7506 24.4348 20.7474C24.7566 20.7432 24.9748 20.9146 25.0317 21.2531C25.0535 21.383 25.0441 21.5182 25.0441 21.6502C25.0441 23.4037 25.0441 25.1561 25.0441 26.9096C25.0441 27.0501 25.0441 27.1907 25.0441 27.3195H26.7179C26.7231 27.196 26.7314 27.1044 26.7314 27.0129C26.7314 23.3867 26.7335 19.7616 26.7293 16.1354C26.7293 15.8841 26.7035 15.6307 26.6704 15.3816C26.4521 13.6877 25.2138 12.4655 23.6631 12.4538C21.4948 12.4368 19.3266 12.4474 17.1583 12.4506C16.2738 12.4517 15.5631 12.836 15.0097 13.5323C14.3745 14.3318 14.1645 15.2666 14.1665 16.2812C14.1748 19.8137 14.1697 23.3473 14.1697 26.8798C14.1697 27.0225 14.1697 27.164 14.1697 27.3227H15.9097Z" fill="#014898"/>
<path d="M29.8848 10.3263C32.0706 12.8772 33.2727 15.8412 33.4051 19.3109C34.0537 19.3109 34.6931 19.3183 35.3313 19.2992C35.3975 19.297 35.4782 19.1395 35.5186 19.0394C35.952 17.9705 36.971 17.3647 38.0303 17.5553C39.132 17.7533 39.9544 18.6902 39.9979 19.7964C40.0455 20.9834 39.3255 21.9874 38.2206 22.277C37.122 22.5644 35.9851 21.9746 35.5444 20.8546C35.4482 20.6087 35.3324 20.5459 35.0944 20.5523C34.5172 20.5693 33.9389 20.5576 33.3441 20.5576C33.1031 23.7792 32.0293 26.6027 29.8962 28.9236C31.6196 30.6962 33.3317 32.4582 35.0644 34.2404C35.6344 33.903 36.2862 33.822 36.9606 34.019C38.1182 34.3576 38.8072 35.5382 38.5868 36.7786C38.3706 37.9955 37.3124 38.8195 36.0844 38.7269C34.9186 38.6396 33.971 37.6132 33.9513 36.4017C33.9472 36.1525 33.9379 35.8789 34.0258 35.6564C34.1717 35.2881 34.0631 35.073 33.8034 34.81C32.112 33.0949 30.4382 31.3616 28.7603 29.6326C28.2999 29.1578 28.2979 28.914 28.7448 28.4296C33.3544 23.4279 33.3503 15.8306 28.7375 10.8246C28.2927 10.3423 28.2968 10.1006 28.7624 9.62046C30.3493 7.98622 31.9362 6.35092 33.5282 4.72095C33.6793 4.56551 33.7362 4.44946 33.641 4.21418C33.1206 2.93553 33.8148 1.4759 35.1162 1.06388C36.4362 0.645475 37.781 1.45035 38.0851 2.84078C38.382 4.19608 37.482 5.54924 36.1641 5.74514C35.6065 5.82818 35.0913 5.71214 34.632 5.44278C33.0472 7.07276 31.4789 8.68676 29.8858 10.3263H29.8848ZM36.2127 37.5504C36.8406 37.5558 37.3506 37.0447 37.36 36.4027C37.3693 35.7608 36.8686 35.2295 36.2448 35.2199C35.5962 35.2093 35.0862 35.7278 35.0882 36.3964C35.0903 37.0703 35.5527 37.5451 36.2127 37.5515V37.5504ZM37.6496 18.7722C37.0641 18.7775 36.5055 19.3897 36.5231 20.0093C36.5396 20.6289 37.0403 21.1133 37.6641 21.1144C38.292 21.1144 38.8113 20.5682 38.8031 19.9135C38.7958 19.2821 38.2744 18.7668 37.6496 18.7722ZM36.9389 3.4274C36.9379 2.78968 36.4289 2.26587 35.8041 2.25842C35.1751 2.2499 34.6662 2.73644 34.6568 3.35394C34.6475 4.00338 35.172 4.54209 35.8124 4.53996C36.4496 4.53783 36.94 4.05235 36.9389 3.4274Z" fill="#014898"/>
<path d="M11.0947 29.0824C8.97499 26.6646 7.85258 23.8305 7.61568 20.561C6.95982 20.561 6.30706 20.5514 5.6543 20.5738C5.57775 20.5759 5.48051 20.7356 5.4381 20.841C4.95603 22.0536 3.69706 22.6466 2.50947 22.2122C1.34464 21.7864 0.697058 20.4715 1.04878 19.2461C1.39844 18.0282 2.64809 17.2925 3.8512 17.6034C4.60844 17.7993 5.11637 18.2997 5.40706 19.0289C5.49603 19.2515 5.60672 19.3292 5.83327 19.3228C6.38672 19.3089 6.94017 19.3185 7.54948 19.3185C7.72534 15.8925 8.83431 12.8625 11.0574 10.3446C9.47672 8.71783 7.90948 7.10383 6.31017 5.45682C5.74327 5.78686 5.08534 5.87948 4.39947 5.65271C3.15499 5.23963 2.51568 3.89817 2.94913 2.61527C3.37223 1.36218 4.70568 0.71168 5.93465 1.1599C7.16155 1.60598 7.81327 2.99961 7.3312 4.22395C7.21741 4.51141 7.29396 4.64662 7.47293 4.82974C9.04741 6.44055 10.6157 8.05775 12.185 9.67389C12.6598 10.1626 12.664 10.4628 12.2109 10.9589C7.61879 15.9809 7.60224 23.4813 12.1726 28.5064C12.6753 29.059 12.6733 29.2709 12.1591 29.8C10.4709 31.5375 8.78672 33.2803 7.0881 35.0061C6.85637 35.2414 6.80465 35.4288 6.89879 35.7588C7.28982 37.1184 6.57292 38.4322 5.29016 38.7792C3.99396 39.1295 2.69982 38.3523 2.40396 37.014C2.19602 36.0697 2.44223 35.2403 3.17051 34.6122C3.89465 33.9883 4.73154 33.8542 5.59741 34.2353C5.89741 34.3673 6.04327 34.3098 6.24913 34.0958C7.76568 32.5191 9.29362 30.9551 10.8174 29.3858C10.9064 29.2943 10.9902 29.1963 11.0936 29.0824H11.0947ZM4.69741 37.5496C5.34085 37.5442 5.81775 37.0513 5.81982 36.3902C5.82189 35.7152 5.33258 35.218 4.66741 35.2201C4.03327 35.2222 3.51706 35.7684 3.53258 36.421C3.54706 37.0545 4.0643 37.5549 4.69741 37.5496ZM3.28534 21.1125C3.86672 21.1178 4.43361 20.5173 4.43568 19.8945C4.43775 19.2802 3.94637 18.7873 3.31534 18.7713C2.68016 18.7553 2.15982 19.2802 2.15361 19.9435C2.1474 20.5663 2.67189 21.1071 3.2843 21.1125H3.28534ZM5.15672 2.25542C4.5443 2.24903 4.02809 2.77816 4.01982 3.42121C4.01154 4.01741 4.53603 4.53377 5.15258 4.53909C5.78672 4.54441 6.29154 4.06319 6.29879 3.44676C6.30706 2.7739 5.81568 2.26181 5.15568 2.25542H5.15672Z" fill="#014898"/>
<path d="M20.4846 10.5976C17.976 10.5986 15.9101 8.4438 15.9122 5.82902C15.9153 3.19295 17.9584 1.07856 20.4939 1.08708C22.9943 1.0956 25.0436 3.23234 25.0467 5.83222C25.0498 8.47254 23.016 10.5955 20.4846 10.5976ZM23.8363 5.8929C23.8332 3.92756 22.3519 2.38169 20.4732 2.38382C18.5977 2.38595 17.1205 3.93927 17.1225 5.90461C17.1246 7.8774 18.5977 9.41795 20.4784 9.41795C22.3363 9.41795 23.8394 7.83908 23.8363 5.8929Z" fill="#014898"/>
<path d="M25.1114 28.5992C25.1114 28.8196 25.1114 28.9782 25.1114 29.1368C25.1114 31.7133 25.1135 34.2908 25.1114 36.8673C25.1103 38.2513 24.3376 39.0455 22.9979 39.0477C21.3583 39.0498 19.7197 39.0498 18.08 39.0477C16.7372 39.0466 15.979 38.2598 15.9779 36.8673C15.9759 34.3036 15.9779 31.7399 15.9779 29.1762C15.9779 29.0208 15.9779 28.8654 15.9779 28.6631C15.2672 28.6631 14.599 28.6631 13.9317 28.6631C13.1652 28.6631 13.0348 28.5257 13.0348 27.7336C13.0348 23.9084 13.039 20.0831 13.0328 16.2578C13.0297 14.8163 13.4228 13.5334 14.4159 12.4889C15.141 11.7277 16.0214 11.2955 17.0714 11.2933C19.3431 11.288 21.6148 11.2689 23.8866 11.2987C25.8314 11.3242 27.4379 12.7892 27.9014 14.9153C27.9997 15.3646 28.0493 15.8351 28.0504 16.2961C28.0617 20.0948 28.0576 23.8934 28.0566 27.6921C28.0566 28.4395 27.8983 28.5992 27.1669 28.5992C26.4986 28.5992 25.8304 28.5992 25.1124 28.5992H25.1114ZM15.9097 27.3227V26.8585C15.9097 25.105 15.9097 23.3526 15.9097 21.5991C15.9097 21.4671 15.9024 21.3298 15.9314 21.2031C16.0048 20.8858 16.2272 20.7378 16.5293 20.7474C16.8117 20.7559 17.03 20.8943 17.0828 21.2042C17.1117 21.3724 17.1148 21.547 17.1148 21.7194C17.1159 26.6732 17.1159 31.6271 17.1169 36.5809C17.1169 36.7533 17.1159 36.9269 17.1314 37.0983C17.1634 37.4454 17.3548 37.6987 17.6859 37.7136C18.4017 37.7467 19.1207 37.7232 19.8707 37.7232C19.8707 37.5433 19.8707 37.3868 19.8707 37.2292C19.8707 34.4005 19.8707 31.5717 19.8707 28.7429C19.8707 28.5971 19.8624 28.448 19.8872 28.3064C19.9472 27.9742 20.1459 27.7996 20.4821 27.8028C20.8938 27.8071 21.0831 28.0477 21.0831 28.5949C21.0852 31.4769 21.0831 34.3589 21.0831 37.2409C21.0831 37.3964 21.0831 37.5529 21.0831 37.7552C21.2755 37.7552 21.4266 37.7552 21.5786 37.7552C24.0862 37.7616 23.8348 37.9415 23.8369 35.4534C23.84 30.885 23.8369 26.3155 23.839 21.7471C23.839 21.5746 23.839 21.4 23.8638 21.2308C23.9124 20.9029 24.1338 20.7506 24.4348 20.7474C24.7566 20.7432 24.9748 20.9146 25.0317 21.2531C25.0535 21.383 25.0441 21.5182 25.0441 21.6502C25.0441 23.4037 25.0441 25.1561 25.0441 26.9096C25.0441 27.0501 25.0441 27.1907 25.0441 27.3195H26.7179C26.7231 27.196 26.7314 27.1044 26.7314 27.0129C26.7314 23.3867 26.7335 19.7616 26.7293 16.1354C26.7293 15.8841 26.7035 15.6307 26.6704 15.3816C26.4521 13.6877 25.2138 12.4655 23.6631 12.4538C21.4948 12.4368 19.3266 12.4474 17.1583 12.4506C16.2738 12.4517 15.5631 12.836 15.0097 13.5323C14.3745 14.3318 14.1645 15.2666 14.1665 16.2812C14.1748 19.8137 14.1697 23.3473 14.1697 26.8798C14.1697 27.0225 14.1697 27.164 14.1697 27.3227H15.9097Z" stroke="#014898" stroke-width="0.2"/>
<path d="M29.8848 10.3263C32.0706 12.8772 33.2727 15.8412 33.4051 19.3109C34.0537 19.3109 34.6931 19.3183 35.3313 19.2992C35.3975 19.297 35.4782 19.1395 35.5186 19.0394C35.952 17.9705 36.971 17.3647 38.0303 17.5553C39.132 17.7533 39.9544 18.6902 39.9979 19.7964C40.0455 20.9834 39.3255 21.9874 38.2206 22.277C37.122 22.5644 35.9851 21.9746 35.5444 20.8546C35.4482 20.6087 35.3324 20.5459 35.0944 20.5523C34.5172 20.5693 33.9389 20.5576 33.3441 20.5576C33.1031 23.7792 32.0293 26.6027 29.8962 28.9236C31.6196 30.6962 33.3317 32.4582 35.0644 34.2404C35.6344 33.903 36.2862 33.822 36.9606 34.019C38.1182 34.3576 38.8072 35.5382 38.5868 36.7786C38.3706 37.9955 37.3124 38.8195 36.0844 38.7269C34.9186 38.6396 33.971 37.6132 33.9513 36.4017C33.9472 36.1525 33.9379 35.8789 34.0258 35.6564C34.1717 35.2881 34.0631 35.073 33.8034 34.81C32.112 33.0949 30.4382 31.3616 28.7603 29.6326C28.2999 29.1578 28.2979 28.914 28.7448 28.4296C33.3544 23.4279 33.3503 15.8306 28.7375 10.8246C28.2927 10.3423 28.2968 10.1006 28.7624 9.62046C30.3493 7.98622 31.9362 6.35092 33.5282 4.72095C33.6793 4.56551 33.7362 4.44946 33.641 4.21418C33.1206 2.93553 33.8148 1.4759 35.1162 1.06388C36.4362 0.645475 37.781 1.45035 38.0851 2.84078C38.382 4.19608 37.482 5.54924 36.1641 5.74514C35.6065 5.82818 35.0913 5.71214 34.632 5.44278C33.0472 7.07276 31.4789 8.68676 29.8858 10.3263H29.8848ZM36.2127 37.5504C36.8406 37.5558 37.3506 37.0447 37.36 36.4027C37.3693 35.7608 36.8686 35.2295 36.2448 35.2199C35.5962 35.2093 35.0862 35.7278 35.0882 36.3964C35.0903 37.0703 35.5527 37.5451 36.2127 37.5515V37.5504ZM37.6496 18.7722C37.0641 18.7775 36.5055 19.3897 36.5231 20.0093C36.5396 20.6289 37.0403 21.1133 37.6641 21.1144C38.292 21.1144 38.8113 20.5682 38.8031 19.9135C38.7958 19.2821 38.2744 18.7668 37.6496 18.7722ZM36.9389 3.4274C36.9379 2.78968 36.4289 2.26587 35.8041 2.25842C35.1751 2.2499 34.6662 2.73644 34.6568 3.35394C34.6475 4.00338 35.172 4.54209 35.8124 4.53996C36.4496 4.53783 36.94 4.05235 36.9389 3.4274Z" stroke="#014898" stroke-width="0.2"/>
<path d="M11.0947 29.0824C8.97499 26.6646 7.85258 23.8305 7.61568 20.561C6.95982 20.561 6.30706 20.5514 5.6543 20.5738C5.57775 20.5759 5.48051 20.7356 5.4381 20.841C4.95603 22.0536 3.69706 22.6466 2.50947 22.2122C1.34464 21.7864 0.697058 20.4715 1.04878 19.2461C1.39844 18.0282 2.64809 17.2925 3.8512 17.6034C4.60844 17.7993 5.11637 18.2997 5.40706 19.0289C5.49603 19.2515 5.60672 19.3292 5.83327 19.3228C6.38672 19.3089 6.94017 19.3185 7.54948 19.3185C7.72534 15.8925 8.83431 12.8625 11.0574 10.3446C9.47672 8.71783 7.90948 7.10383 6.31017 5.45682C5.74327 5.78686 5.08534 5.87948 4.39947 5.65271C3.15499 5.23963 2.51568 3.89817 2.94913 2.61527C3.37223 1.36218 4.70568 0.71168 5.93465 1.1599C7.16155 1.60598 7.81327 2.99961 7.3312 4.22395C7.21741 4.51141 7.29396 4.64662 7.47293 4.82974C9.04741 6.44055 10.6157 8.05775 12.185 9.67389C12.6598 10.1626 12.664 10.4628 12.2109 10.9589C7.61879 15.9809 7.60224 23.4813 12.1726 28.5064C12.6753 29.059 12.6733 29.2709 12.1591 29.8C10.4709 31.5375 8.78672 33.2803 7.0881 35.0061C6.85637 35.2414 6.80465 35.4288 6.89879 35.7588C7.28982 37.1184 6.57292 38.4322 5.29016 38.7792C3.99396 39.1295 2.69982 38.3523 2.40396 37.014C2.19602 36.0697 2.44223 35.2403 3.17051 34.6122C3.89465 33.9883 4.73154 33.8542 5.59741 34.2353C5.89741 34.3673 6.04327 34.3098 6.24913 34.0958C7.76568 32.5191 9.29362 30.9551 10.8174 29.3858C10.9064 29.2943 10.9902 29.1963 11.0936 29.0824H11.0947ZM4.69741 37.5496C5.34085 37.5442 5.81775 37.0513 5.81982 36.3902C5.82189 35.7152 5.33258 35.218 4.66741 35.2201C4.03327 35.2222 3.51706 35.7684 3.53258 36.421C3.54706 37.0545 4.0643 37.5549 4.69741 37.5496ZM3.28534 21.1125C3.86672 21.1178 4.43361 20.5173 4.43568 19.8945C4.43775 19.2802 3.94637 18.7873 3.31534 18.7713C2.68016 18.7553 2.15982 19.2802 2.15361 19.9435C2.1474 20.5663 2.67189 21.1071 3.2843 21.1125H3.28534ZM5.15672 2.25542C4.5443 2.24903 4.02809 2.77816 4.01982 3.42121C4.01154 4.01741 4.53603 4.53377 5.15258 4.53909C5.78672 4.54441 6.29154 4.06319 6.29879 3.44676C6.30706 2.7739 5.81568 2.26181 5.15568 2.25542H5.15672Z" stroke="#014898" stroke-width="0.2"/>
<path d="M20.4846 10.5976C17.976 10.5986 15.9101 8.4438 15.9122 5.82902C15.9153 3.19295 17.9584 1.07856 20.4939 1.08708C22.9943 1.0956 25.0436 3.23234 25.0467 5.83222C25.0498 8.47254 23.016 10.5955 20.4846 10.5976ZM23.8363 5.8929C23.8332 3.92756 22.3519 2.38169 20.4732 2.38382C18.5977 2.38595 17.1205 3.93927 17.1225 5.90461C17.1246 7.8774 18.5977 9.41795 20.4784 9.41795C22.3363 9.41795 23.8394 7.83908 23.8363 5.8929Z" stroke="#014898" stroke-width="0.2"/>
</g>
<defs>
<clipPath id="clip0_2232_13669">
<rect width="40.9524" height="40" fill="white"/>
</clipPath>
</defs>
</svg>
