<svg width="148" height="67" viewBox="0 0 148 67" fill="none" xmlns="http://www.w3.org/2000/svg">
<path d="M24.9066 0C24.9066 0 31.7443 11.0377 30.6104 21.9034C29.4078 32.8379 22.0547 37.7894 18.4125 46.145C14.8047 54.535 16.9007 63.2344 19.9244 65.5039C15.9386 62.6499 5.4587 57.3202 6.21463 43.2222C6.59259 38.8553 9.27269 31.0155 15.7324 23.4163C22.2265 15.8172 26.4185 12.7569 24.9066 0Z" fill="white"/>
<path d="M10.1732 59.9995C10.1732 59.9995 0.414922 53.1569 0.036959 42.7381C-0.341004 38.1649 2.1673 31.1847 8.14599 25.855C15.018 19.7344 16.9079 18.4966 18.3166 16.9492C14.3652 21.66 5.74077 30.8065 4.332 38.6807C2.95758 46.5549 5.74077 54.6698 10.1732 59.9995Z" fill="white"/>
<path d="M22.2396 66.2218C22.2396 66.2218 16.1578 57.3161 20.5903 47.6882C22.1022 44.7654 27.428 38.4042 29.9707 32.5931C32.5133 26.7476 33.0287 23.2059 32.8913 19.1484C36.8084 24.6157 43.165 40.8799 35.9494 53.4305C38.2171 52.0207 41.5157 48.8573 42.7871 45.4188C42.1686 52.399 39.0074 65.4654 22.2396 66.2218Z" fill="white"/>
<path d="M22.8872 64.8119C22.8872 64.8119 19.0045 57.866 23.4026 50.9546C26.9417 45.3842 30.6526 44.2151 32.783 38.1289C33.1609 44.4902 32.9204 52.8458 27.4571 59.9635C29.7249 59.5853 31.1337 58.8288 33.0235 57.5566C31.7521 60.273 29.3469 63.6771 22.8872 64.8119Z" fill="white"/>
<path d="M16.4957 61.5785C16.4957 61.5785 5.50041 49.0967 13.2315 36.271C18.5573 26.987 25.4294 26.4368 26.9412 12.9922C26.9412 22.6888 27.972 27.434 19.6569 38.231C14.1936 45.3143 12.9566 54.839 16.4957 61.5785Z" fill="white"/>
<path d="M30.1375 1.23438C30.1375 1.23438 33.2299 10.2089 23.987 23.1378C17.2524 32.4906 3.9893 46.4166 18.077 63.4373C12.3732 57.523 6.84121 47.2418 12.9917 35.0695C18.6268 23.963 32.2335 16.8109 30.1375 1.23438Z" fill="white"/>
<g clip-path="url(#clip0_7663_15229)">
<path d="M130.572 47.8936H128.082V19.0402C132.558 19.1691 136.98 18.5604 141.283 19.8666C144.509 20.8441 146.195 23.2256 146.223 26.5935C146.25 29.9524 144.578 32.3295 141.397 33.4136C140.56 33.698 139.697 33.9068 138.688 34.2C141.542 38.8031 144.3 43.2595 147.122 47.8092C145.209 48.2535 144.028 48.0091 143.087 46.2763C141.183 42.7752 138.906 39.4651 136.939 35.995C136.153 34.6088 135.262 34.0445 133.612 34.1156C130.05 34.2756 130.609 33.7779 130.577 37.1636C130.545 40.6869 130.568 44.2058 130.568 47.898L130.572 47.8936ZM130.672 32.0274C133.731 31.8496 136.63 31.903 139.443 31.4586C142.028 31.0543 143.546 28.9883 143.573 26.6779C143.601 24.3853 142.106 22.297 139.493 21.8794C136.634 21.4217 133.69 21.4928 130.672 21.324V32.0274Z" fill="white"/>
<path d="M108.546 19.1602V47.8669H105.979V34.3155C105.356 34.2444 104.92 34.1556 104.484 34.1556C99.9487 34.1467 95.4136 34.1822 90.8739 34.1245C89.6152 34.1067 89.188 34.5199 89.2107 35.7462C89.2744 39.1674 89.2335 42.5841 89.2335 46.0053C89.2335 46.6006 89.2335 47.1916 89.2335 47.8847H86.6523V19.1646H89.2107V31.7696H105.897V19.1602H108.546Z" fill="white"/>
<path d="M63.1532 47.8718V46.1612C63.1532 37.7283 63.1896 29.2953 63.1214 20.8623C63.1078 19.3916 63.544 18.9784 65.0391 19.0051C69.7378 19.094 74.4456 19.0362 79.1443 19.0406C79.6987 19.0406 80.2577 19.0895 80.8848 19.1162V21.4799H66.0206V31.819H79.7305V34.0938H65.9888V47.8718H63.1532Z" fill="white"/>
<path d="M119.571 47.9023H117.021C116.985 47.338 116.926 46.8537 116.926 46.3649C116.921 37.8209 116.926 29.2768 116.917 20.7328C116.912 19.8086 116.817 19 118.248 19C119.557 19 119.703 19.5865 119.698 20.6262C119.671 29.2235 119.684 37.8253 119.68 46.4271C119.68 46.907 119.612 47.3913 119.571 47.9023Z" fill="white"/>
</g>
<defs>
<clipPath id="clip0_7663_15229">
<rect width="84" height="29" fill="white" transform="translate(63.1211 19)"/>
</clipPath>
</defs>
</svg>
