<svg width="42" height="42" viewBox="0 0 42 42" fill="none" xmlns="http://www.w3.org/2000/svg">
<g id="Frame" clip-path="url(#clip0_2198_2935)">
<g id="Group">
<g id="Vector">
<path d="M-1 38.888C-0.645833 37.8359 0.09375 37.4193 1.1875 37.4714C2.02083 37.513 2.84375 37.4818 3.72917 37.4818C3.72917 37.2838 3.72917 37.1172 3.72917 36.9505C3.72917 33.4401 3.72917 29.9193 3.72917 26.4089C3.72917 26.2839 3.72917 26.1484 3.72917 26.0234C3.76042 25.6484 3.97917 25.4089 4.30208 25.3984C4.63542 25.388 4.875 25.6484 4.89583 26.0339C4.90625 26.1589 4.89583 26.2943 4.89583 26.4193C4.89583 29.9193 4.89583 33.4193 4.89583 36.9297C4.89583 37.0964 4.89583 37.263 4.89583 37.4609C6.03125 37.4609 7.13542 37.4609 8.29167 37.4609C8.29167 37.3255 8.29167 37.1693 8.29167 37.0234C8.29167 33.513 8.29167 29.9922 8.29167 26.4818C8.29167 25.7734 8.44792 25.6172 9.16667 25.6172C15.6875 25.6172 22.2083 25.6172 28.7396 25.6172C29.4688 25.6172 29.625 25.7734 29.625 26.513C29.625 30.0026 29.625 33.4922 29.625 36.9818C29.625 37.138 29.625 37.2943 29.625 37.4714C30.7917 37.4714 31.9271 37.4714 33.0833 37.4714C33.0833 32.6068 33.0833 27.7734 33.0833 22.9089C23.6979 22.9089 14.3333 22.9089 4.92708 22.9089C4.83333 23.3464 5.0625 24.0547 4.29167 24.0339C3.57292 24.013 3.77083 23.3672 3.70833 22.8776C3.28125 22.8776 2.86458 22.8776 2.45833 22.8776C1.85417 22.8776 1.60417 22.5755 1.75 22.013C2.58333 18.8359 3.42708 15.6484 4.26042 12.4714C4.36458 12.0859 4.61458 11.9297 5.01042 11.9401C6.53125 11.9505 8.05208 11.9401 9.58333 11.9401C9.72917 11.9401 9.86458 11.9401 10.0625 11.9401C10.0625 11.7422 10.0625 11.5755 10.0625 11.4089C10.0625 8.34635 10.0625 5.29427 10.0625 2.23177C10.0625 1.27344 10.3438 1.0026 11.2917 1.0026C14.5833 1.0026 17.875 1.0026 21.1771 1.0026C21.3021 1.0026 21.4375 0.992187 21.5625 1.01302C21.8646 1.07552 22.0521 1.2526 22.0625 1.57552C22.0729 1.90885 21.875 2.10677 21.5625 2.16927C21.4375 2.1901 21.3021 2.17969 21.1771 2.17969C18.0417 2.17969 14.9062 2.17969 11.7604 2.17969C11.6042 2.17969 11.4479 2.17969 11.2708 2.17969C11.2708 7.26302 11.2708 12.3151 11.2708 17.3984C16.4375 17.3984 21.5833 17.3984 26.7604 17.3984C26.7604 12.3359 26.7604 7.29427 26.7604 2.17969C26.625 2.17969 26.4896 2.17969 26.3542 2.17969C25.625 2.17969 24.8958 2.1901 24.1667 2.17969C23.7708 2.16927 23.5313 1.92969 23.5417 1.58594C23.5521 1.2526 23.7813 1.02344 24.1563 1.01302C25.1146 1.0026 26.0833 1.0026 27.0417 1.01302C27.5729 1.02344 27.9063 1.35677 27.9479 1.88802C27.9583 2.03385 27.9583 2.16927 27.9583 2.3151C27.9583 5.33594 27.9583 8.35677 27.9583 11.3776C27.9583 11.5443 27.9583 11.7109 27.9583 11.9401C28.125 11.9401 28.2604 11.9401 28.3958 11.9401C29.9167 11.9401 31.4375 11.9401 32.9688 11.9401C33.4792 11.9401 33.6458 12.0651 33.7708 12.5443C34.5938 15.6693 35.4271 18.8047 36.25 21.9297C36.4167 22.5755 36.1979 22.8672 35.5208 22.8672C35.1354 22.8672 34.7396 22.8672 34.3229 22.8672C34.3229 27.7422 34.3229 32.5859 34.3229 37.4818C35.1875 37.4818 36.0417 37.4818 36.8958 37.4818C37.125 37.4818 37.3646 37.4714 37.5938 37.5234C38.375 37.6797 38.9375 38.3151 39.0104 39.0859C39.0833 39.8776 38.6146 40.5964 37.8542 40.8984C37.7708 40.9297 37.6875 40.9714 37.6042 41.0026C35.4896 41.0026 33.3854 41.0026 31.2708 41.0026C31.0417 40.7839 30.8333 40.5443 30.9792 40.1901C31.125 39.8359 31.4375 39.8255 31.7708 39.8255C33.5 39.8359 35.2292 39.8255 36.9688 39.8255C37.5625 39.8255 37.8438 39.6276 37.8438 39.2318C37.8438 38.8359 37.5521 38.6484 36.9583 38.6484C25 38.6484 13.0313 38.6484 1.07292 38.6484C0.958333 38.6484 0.833333 38.638 0.71875 38.6589C0.395833 38.7109 0.197917 38.9089 0.197917 39.2422C0.197917 39.5755 0.395833 39.7734 0.71875 39.8151C0.854167 39.8359 1 39.8255 1.14583 39.8255C10.375 39.8255 19.6042 39.8255 28.8333 39.8255C29.1667 39.8255 29.4688 39.8672 29.6042 40.2214C29.7396 40.5859 29.5208 40.8047 29.25 41.0026C19.6354 41.0026 10.0313 41.0026 0.416667 41.0026C-0.291667 40.7734 -0.760417 40.3047 -0.989583 39.5964C-1 39.3568 -1 39.1172 -1 38.888ZM27.9479 13.1068C27.9479 13.3047 27.9479 13.4609 27.9479 13.6068C27.9479 14.9089 27.9479 16.2109 27.9479 17.513C27.9479 18.2422 27.6146 18.5651 26.8958 18.5651C21.6354 18.5651 16.375 18.5651 11.1146 18.5651C10.4063 18.5651 10.0625 18.2318 10.0625 17.513C10.0521 16.2109 10.0625 14.9089 10.0625 13.6068C10.0625 13.4505 10.0625 13.2943 10.0625 13.1172C9.91667 13.1068 9.80208 13.0964 9.6875 13.0964C8.34375 13.0964 7 13.1068 5.66667 13.0859C5.38542 13.0859 5.29167 13.1797 5.22917 13.4401C4.78125 15.1901 4.3125 16.9401 3.85417 18.6797C3.59375 19.6693 3.33333 20.6589 3.0625 21.6693C13.7083 21.6693 24.3229 21.6693 34.9375 21.6693C34.9375 21.6172 34.9479 21.5755 34.9375 21.5443C34.2188 18.8047 33.4896 16.0651 32.7708 13.3255C32.7083 13.0964 32.5833 13.0964 32.3958 13.0964C31.2604 13.0964 30.1354 13.0964 29 13.0964C28.6563 13.1068 28.3229 13.1068 27.9479 13.1068ZM24.5313 26.8047C20.8021 26.8047 17.1042 26.8047 13.4063 26.8047C13.4063 30.3776 13.4063 33.9193 13.4063 37.4609C17.125 37.4609 20.8229 37.4609 24.5313 37.4609C24.5313 33.9089 24.5313 30.3672 24.5313 26.8047ZM9.47917 37.4609C10.4062 37.4609 11.2813 37.4609 12.1771 37.4609C12.1771 33.8984 12.1771 30.3568 12.1771 26.8047C11.2708 26.8047 10.375 26.8047 9.47917 26.8047C9.47917 30.3672 9.47917 33.8984 9.47917 37.4609ZM28.4271 37.4818C28.4271 33.888 28.4271 30.3464 28.4271 26.7943C27.5208 26.7943 26.6354 26.7943 25.7396 26.7943C25.7396 30.3568 25.7396 33.8984 25.7396 37.4609C25.8333 37.4609 25.9063 37.4714 25.9896 37.4714C26.7917 37.4818 27.5938 37.4818 28.4271 37.4818Z" fill="#014898"/>
<path d="M16.9062 11.6901C16.3958 11.6901 15.9271 11.6901 15.4688 11.6901C14.8333 11.6797 14.5313 11.388 14.5208 10.763C14.5104 9.98177 14.5104 9.20052 14.5208 8.41927C14.5313 7.79427 14.8333 7.5026 15.4792 7.49219C15.9167 7.48177 16.3646 7.48177 16.8021 7.48177C16.8229 7.48177 16.8438 7.46094 16.9167 7.42969C16.9167 6.98177 16.9167 6.52344 16.9167 6.05469C16.9271 5.39844 17.2188 5.10677 17.875 5.09635C18.6458 5.08594 19.4062 5.08594 20.1771 5.09635C20.8125 5.10677 21.1042 5.39844 21.1146 6.03385C21.125 6.5026 21.1146 6.96094 21.1146 7.48177C21.6146 7.48177 22.0729 7.48177 22.5417 7.48177C23.1979 7.49219 23.5 7.77344 23.5104 8.42969C23.5208 9.20052 23.5208 9.96094 23.5104 10.7318C23.5 11.3776 23.1979 11.6693 22.5312 11.6797C22.0729 11.6797 21.625 11.6797 21.1146 11.6797C21.1146 12.1484 21.1146 12.6068 21.1146 13.0547C21.1146 13.7839 20.8229 14.0755 20.0938 14.0755C19.3646 14.0859 18.6354 14.0859 17.9062 14.0755C17.2083 14.0651 16.9167 13.7734 16.9167 13.0651C16.8958 12.638 16.9062 12.1901 16.9062 11.6901ZM19.8854 12.888C19.9062 12.8359 19.9167 12.8151 19.9271 12.7943C19.9271 12.3359 19.9271 11.888 19.9375 11.4297C19.9479 10.8151 20.2396 10.5339 20.8542 10.5234C21.3333 10.5234 21.8125 10.5234 22.3021 10.5234C22.3021 9.88802 22.3021 9.29427 22.3021 8.66927C21.8229 8.66927 21.3646 8.66927 20.9167 8.66927C20.2188 8.66927 19.9479 8.39844 19.9479 7.70052C19.9479 7.24219 19.9479 6.77344 19.9479 6.3151C19.3021 6.3151 18.7083 6.3151 18.1354 6.3151C18.1146 6.3776 18.1042 6.39844 18.1042 6.42969C18.1042 6.86719 18.1042 7.3151 18.0938 7.7526C18.0833 8.36719 17.7917 8.65885 17.1875 8.66927C16.7083 8.66927 16.2292 8.66927 15.7396 8.66927C15.7396 9.30469 15.7396 9.89844 15.7396 10.5234C16.0938 10.5234 16.4062 10.5234 16.7292 10.5234C17.9688 10.5234 18.1042 10.6589 18.1042 11.8776C18.1042 12.2109 18.1042 12.5443 18.1042 12.8984C18.7083 12.888 19.3021 12.888 19.8854 12.888Z" fill="#014898"/>
<path d="M-1 38.888C-0.645833 37.8359 0.09375 37.4193 1.1875 37.4714C2.02083 37.513 2.84375 37.4818 3.72917 37.4818C3.72917 37.2838 3.72917 37.1172 3.72917 36.9505C3.72917 33.4401 3.72917 29.9193 3.72917 26.4089C3.72917 26.2839 3.72917 26.1484 3.72917 26.0234C3.76042 25.6484 3.97917 25.4089 4.30208 25.3984C4.63542 25.388 4.875 25.6484 4.89583 26.0339C4.90625 26.1589 4.89583 26.2943 4.89583 26.4193C4.89583 29.9193 4.89583 33.4193 4.89583 36.9297C4.89583 37.0964 4.89583 37.263 4.89583 37.4609C6.03125 37.4609 7.13542 37.4609 8.29167 37.4609C8.29167 37.3255 8.29167 37.1693 8.29167 37.0234C8.29167 33.513 8.29167 29.9922 8.29167 26.4818C8.29167 25.7734 8.44792 25.6172 9.16667 25.6172C15.6875 25.6172 22.2083 25.6172 28.7396 25.6172C29.4688 25.6172 29.625 25.7734 29.625 26.513C29.625 30.0026 29.625 33.4922 29.625 36.9818C29.625 37.138 29.625 37.2943 29.625 37.4714C30.7917 37.4714 31.9271 37.4714 33.0833 37.4714C33.0833 32.6068 33.0833 27.7734 33.0833 22.9089C23.6979 22.9089 14.3333 22.9089 4.92708 22.9089C4.83333 23.3464 5.0625 24.0547 4.29167 24.0339C3.57292 24.013 3.77083 23.3672 3.70833 22.8776C3.28125 22.8776 2.86458 22.8776 2.45833 22.8776C1.85417 22.8776 1.60417 22.5755 1.75 22.013C2.58333 18.8359 3.42708 15.6484 4.26042 12.4714C4.36458 12.0859 4.61458 11.9297 5.01042 11.9401C6.53125 11.9505 8.05208 11.9401 9.58333 11.9401C9.72917 11.9401 9.86458 11.9401 10.0625 11.9401C10.0625 11.7422 10.0625 11.5755 10.0625 11.4089C10.0625 8.34635 10.0625 5.29427 10.0625 2.23177C10.0625 1.27344 10.3438 1.0026 11.2917 1.0026C14.5833 1.0026 17.875 1.0026 21.1771 1.0026C21.3021 1.0026 21.4375 0.992187 21.5625 1.01302C21.8646 1.07552 22.0521 1.2526 22.0625 1.57552C22.0729 1.90885 21.875 2.10677 21.5625 2.16927C21.4375 2.1901 21.3021 2.17969 21.1771 2.17969C18.0417 2.17969 14.9062 2.17969 11.7604 2.17969C11.6042 2.17969 11.4479 2.17969 11.2708 2.17969C11.2708 7.26302 11.2708 12.3151 11.2708 17.3984C16.4375 17.3984 21.5833 17.3984 26.7604 17.3984C26.7604 12.3359 26.7604 7.29427 26.7604 2.17969C26.625 2.17969 26.4896 2.17969 26.3542 2.17969C25.625 2.17969 24.8958 2.1901 24.1667 2.17969C23.7708 2.16927 23.5313 1.92969 23.5417 1.58594C23.5521 1.2526 23.7813 1.02344 24.1563 1.01302C25.1146 1.0026 26.0833 1.0026 27.0417 1.01302C27.5729 1.02344 27.9063 1.35677 27.9479 1.88802C27.9583 2.03385 27.9583 2.16927 27.9583 2.3151C27.9583 5.33594 27.9583 8.35677 27.9583 11.3776C27.9583 11.5443 27.9583 11.7109 27.9583 11.9401C28.125 11.9401 28.2604 11.9401 28.3958 11.9401C29.9167 11.9401 31.4375 11.9401 32.9688 11.9401C33.4792 11.9401 33.6458 12.0651 33.7708 12.5443C34.5938 15.6693 35.4271 18.8047 36.25 21.9297C36.4167 22.5755 36.1979 22.8672 35.5208 22.8672C35.1354 22.8672 34.7396 22.8672 34.3229 22.8672C34.3229 27.7422 34.3229 32.5859 34.3229 37.4818C35.1875 37.4818 36.0417 37.4818 36.8958 37.4818C37.125 37.4818 37.3646 37.4714 37.5938 37.5234C38.375 37.6797 38.9375 38.3151 39.0104 39.0859C39.0833 39.8776 38.6146 40.5964 37.8542 40.8984C37.7708 40.9297 37.6875 40.9714 37.6042 41.0026C35.4896 41.0026 33.3854 41.0026 31.2708 41.0026C31.0417 40.7839 30.8333 40.5443 30.9792 40.1901C31.125 39.8359 31.4375 39.8255 31.7708 39.8255C33.5 39.8359 35.2292 39.8255 36.9688 39.8255C37.5625 39.8255 37.8438 39.6276 37.8438 39.2318C37.8438 38.8359 37.5521 38.6484 36.9583 38.6484C25 38.6484 13.0313 38.6484 1.07292 38.6484C0.958333 38.6484 0.833333 38.638 0.71875 38.6589C0.395833 38.7109 0.197917 38.9089 0.197917 39.2422C0.197917 39.5755 0.395833 39.7734 0.71875 39.8151C0.854167 39.8359 1 39.8255 1.14583 39.8255C10.375 39.8255 19.6042 39.8255 28.8333 39.8255C29.1667 39.8255 29.4688 39.8672 29.6042 40.2214C29.7396 40.5859 29.5208 40.8047 29.25 41.0026C19.6354 41.0026 10.0313 41.0026 0.416667 41.0026C-0.291667 40.7734 -0.760417 40.3047 -0.989583 39.5964C-1 39.3568 -1 39.1172 -1 38.888ZM27.9479 13.1068C27.9479 13.3047 27.9479 13.4609 27.9479 13.6068C27.9479 14.9089 27.9479 16.2109 27.9479 17.513C27.9479 18.2422 27.6146 18.5651 26.8958 18.5651C21.6354 18.5651 16.375 18.5651 11.1146 18.5651C10.4063 18.5651 10.0625 18.2318 10.0625 17.513C10.0521 16.2109 10.0625 14.9089 10.0625 13.6068C10.0625 13.4505 10.0625 13.2943 10.0625 13.1172C9.91667 13.1068 9.80208 13.0964 9.6875 13.0964C8.34375 13.0964 7 13.1068 5.66667 13.0859C5.38542 13.0859 5.29167 13.1797 5.22917 13.4401C4.78125 15.1901 4.3125 16.9401 3.85417 18.6797C3.59375 19.6693 3.33333 20.6589 3.0625 21.6693C13.7083 21.6693 24.3229 21.6693 34.9375 21.6693C34.9375 21.6172 34.9479 21.5755 34.9375 21.5443C34.2188 18.8047 33.4896 16.0651 32.7708 13.3255C32.7083 13.0964 32.5833 13.0964 32.3958 13.0964C31.2604 13.0964 30.1354 13.0964 29 13.0964C28.6563 13.1068 28.3229 13.1068 27.9479 13.1068ZM24.5313 26.8047C20.8021 26.8047 17.1042 26.8047 13.4063 26.8047C13.4063 30.3776 13.4063 33.9193 13.4063 37.4609C17.125 37.4609 20.8229 37.4609 24.5313 37.4609C24.5313 33.9089 24.5313 30.3672 24.5313 26.8047ZM9.47917 37.4609C10.4062 37.4609 11.2813 37.4609 12.1771 37.4609C12.1771 33.8984 12.1771 30.3568 12.1771 26.8047C11.2708 26.8047 10.375 26.8047 9.47917 26.8047C9.47917 30.3672 9.47917 33.8984 9.47917 37.4609ZM28.4271 37.4818C28.4271 33.888 28.4271 30.3464 28.4271 26.7943C27.5208 26.7943 26.6354 26.7943 25.7396 26.7943C25.7396 30.3568 25.7396 33.8984 25.7396 37.4609C25.8333 37.4609 25.9063 37.4714 25.9896 37.4714C26.7917 37.4818 27.5938 37.4818 28.4271 37.4818Z" stroke="#014898"/>
<path d="M16.9062 11.6901C16.3958 11.6901 15.9271 11.6901 15.4688 11.6901C14.8333 11.6797 14.5313 11.388 14.5208 10.763C14.5104 9.98177 14.5104 9.20052 14.5208 8.41927C14.5313 7.79427 14.8333 7.5026 15.4792 7.49219C15.9167 7.48177 16.3646 7.48177 16.8021 7.48177C16.8229 7.48177 16.8438 7.46094 16.9167 7.42969C16.9167 6.98177 16.9167 6.52344 16.9167 6.05469C16.9271 5.39844 17.2188 5.10677 17.875 5.09635C18.6458 5.08594 19.4062 5.08594 20.1771 5.09635C20.8125 5.10677 21.1042 5.39844 21.1146 6.03385C21.125 6.5026 21.1146 6.96094 21.1146 7.48177C21.6146 7.48177 22.0729 7.48177 22.5417 7.48177C23.1979 7.49219 23.5 7.77344 23.5104 8.42969C23.5208 9.20052 23.5208 9.96094 23.5104 10.7318C23.5 11.3776 23.1979 11.6693 22.5312 11.6797C22.0729 11.6797 21.625 11.6797 21.1146 11.6797C21.1146 12.1484 21.1146 12.6068 21.1146 13.0547C21.1146 13.7839 20.8229 14.0755 20.0938 14.0755C19.3646 14.0859 18.6354 14.0859 17.9062 14.0755C17.2083 14.0651 16.9167 13.7734 16.9167 13.0651C16.8958 12.638 16.9062 12.1901 16.9062 11.6901ZM19.8854 12.888C19.9062 12.8359 19.9167 12.8151 19.9271 12.7943C19.9271 12.3359 19.9271 11.888 19.9375 11.4297C19.9479 10.8151 20.2396 10.5339 20.8542 10.5234C21.3333 10.5234 21.8125 10.5234 22.3021 10.5234C22.3021 9.88802 22.3021 9.29427 22.3021 8.66927C21.8229 8.66927 21.3646 8.66927 20.9167 8.66927C20.2188 8.66927 19.9479 8.39844 19.9479 7.70052C19.9479 7.24219 19.9479 6.77344 19.9479 6.3151C19.3021 6.3151 18.7083 6.3151 18.1354 6.3151C18.1146 6.3776 18.1042 6.39844 18.1042 6.42969C18.1042 6.86719 18.1042 7.3151 18.0938 7.7526C18.0833 8.36719 17.7917 8.65885 17.1875 8.66927C16.7083 8.66927 16.2292 8.66927 15.7396 8.66927C15.7396 9.30469 15.7396 9.89844 15.7396 10.5234C16.0938 10.5234 16.4062 10.5234 16.7292 10.5234C17.9688 10.5234 18.1042 10.6589 18.1042 11.8776C18.1042 12.2109 18.1042 12.5443 18.1042 12.8984C18.7083 12.888 19.3021 12.888 19.8854 12.888Z" stroke="#014898"/>
</g>
</g>
</g>
<defs>
<clipPath id="clip0_2198_2935">
<rect width="42" height="42" fill="white"/>
</clipPath>
</defs>
</svg>
