<svg width="38" height="38" viewBox="0 0 38 38" fill="none" xmlns="http://www.w3.org/2000/svg">
<g id="Frame" clip-path="url(#clip0_2198_2925)">
<g id="Group">
<g id="Vector">
<path d="M0 33.7639C0.173403 33.0327 0.619296 32.4998 1.1395 31.9916C3.97588 29.1782 6.78748 26.3399 9.62386 23.5265C9.80965 23.3406 9.87158 23.1919 9.80965 22.9192C9.6734 22.1632 9.87158 21.4939 10.4166 20.9486C10.8129 20.5519 11.1969 20.1553 11.6056 19.7711C11.7666 19.6224 11.7914 19.4985 11.7047 19.3001C9.54954 13.9955 10.2432 9.08749 13.9342 4.71241C16.2999 1.89897 19.4087 0.362118 23.075 0.0646625C29.5156 -0.468279 35.2999 3.38625 37.3188 9.50889C39.8455 17.156 35.1141 25.4228 27.2119 27.1703C24.3136 27.8024 21.4896 27.5298 18.7647 26.3399C18.6656 26.2904 18.5665 26.2532 18.4302 26.1912C17.9967 26.625 17.5632 27.0588 17.1297 27.505C16.5228 28.1371 15.792 28.3478 14.9374 28.1866C14.8136 28.1619 14.6154 28.261 14.5163 28.3726C11.6923 31.186 8.85593 34.0118 6.04433 36.85C5.52412 37.3706 4.97914 37.8416 4.23598 38.0151C3.96349 38.0151 3.691 38.0151 3.41851 38.0151C1.83312 37.3086 0.693611 36.1684 0 34.5819C0 34.3093 0 34.0366 0 33.7639ZM24.2392 25.9805C31.002 25.9805 36.4889 20.5024 36.5013 13.7476C36.5137 7.0053 31.0267 1.48997 24.2764 1.46518C17.5137 1.45279 12.002 6.94333 12.002 13.7228C12.002 20.49 17.4765 25.9805 24.2392 25.9805ZM10.7386 24.4437C10.6395 24.5552 10.5652 24.6667 10.4661 24.7659C8.55867 26.687 6.63885 28.5956 4.71904 30.5167C3.76532 31.4711 2.8116 32.4254 1.85789 33.3797C1.33768 33.9003 1.35007 34.4208 1.85789 34.929C2.21708 35.3008 2.58866 35.6602 2.96023 36.032C3.61669 36.6765 4.07497 36.6765 4.73142 36.032C7.5678 33.1938 10.4166 30.3432 13.2529 27.505C13.352 27.4058 13.4883 27.3686 13.6121 27.3067C12.5965 26.3028 11.6923 25.398 10.7386 24.4437ZM12.5717 20.9609C12.163 21.3576 11.7666 21.717 11.4074 22.1012C11.1721 22.3615 11.1969 22.7457 11.457 23.006C12.6336 24.1958 13.8103 25.3732 14.9993 26.5506C15.2471 26.7985 15.631 26.8357 15.8787 26.6126C16.2751 26.2532 16.6343 25.8442 17.043 25.4352C15.2099 24.2701 13.7236 22.7953 12.5717 20.9609Z" fill="#014898"/>
<path d="M24.2269 23.8983C18.616 23.8859 14.0704 19.3125 14.0952 13.6981C14.1076 8.10837 18.6904 3.54738 24.2764 3.57216C29.8625 3.58456 34.4205 8.15794 34.4205 13.7476C34.4081 19.3373 29.8377 23.8983 24.2269 23.8983ZM24.2269 22.411C29.0202 22.4234 32.9218 18.5317 32.9342 13.7476C32.9465 8.97595 29.0326 5.05944 24.2516 5.04705C19.4831 5.04705 15.5815 8.93877 15.5815 13.6981C15.5691 18.4945 19.4459 22.3986 24.2269 22.411Z" fill="#014898"/>
<path d="M24.9948 14.1442C24.9948 14.7516 25.0072 15.3465 24.9948 15.9414C24.9824 16.3256 24.7718 16.623 24.4498 16.685C24.1154 16.7594 23.8181 16.685 23.6447 16.3752C23.558 16.2264 23.5209 16.0281 23.5209 15.8422C23.5085 15.0986 23.5085 14.3549 23.5209 13.6113C23.5209 13.0164 23.7314 12.7809 24.3259 12.7313C25.0567 12.657 25.5893 12.2975 25.8123 11.5911C26.0352 10.9342 25.8618 10.3393 25.354 9.86832C24.8585 9.42213 24.2888 9.31059 23.6695 9.55847C23.0502 9.79395 22.7034 10.2649 22.6291 10.9218C22.6043 11.1201 22.5671 11.3184 22.4804 11.4795C22.307 11.777 22.0098 11.8761 21.6754 11.777C21.3286 11.6778 21.1551 11.43 21.1428 11.0581C21.0932 9.60804 22.2699 8.19513 23.7314 7.98443C25.3787 7.73655 26.9022 8.72807 27.2986 10.3021C27.6949 11.8885 26.8403 13.4626 25.2673 14.0327C25.1806 14.0699 25.1063 14.0947 24.9948 14.1442Z" fill="#014898"/>
<path d="M24.2516 19.5108C23.8553 19.5108 23.5209 19.1886 23.5209 18.792C23.5085 18.3706 23.8429 18.036 24.2516 18.036C24.6604 18.036 25.0072 18.383 24.9948 18.792C24.9824 19.1762 24.648 19.5108 24.2516 19.5108Z" fill="#014898"/>
<path d="M0 33.7639C0.173403 33.0327 0.619296 32.4998 1.1395 31.9916C3.97588 29.1782 6.78748 26.3399 9.62386 23.5265C9.80965 23.3406 9.87158 23.1919 9.80965 22.9192C9.6734 22.1632 9.87158 21.4939 10.4166 20.9486C10.8129 20.5519 11.1969 20.1553 11.6056 19.7711C11.7666 19.6224 11.7914 19.4985 11.7047 19.3001C9.54954 13.9955 10.2432 9.08749 13.9342 4.71241C16.2999 1.89897 19.4087 0.362118 23.075 0.0646625C29.5156 -0.468279 35.2999 3.38625 37.3188 9.50889C39.8455 17.156 35.1141 25.4228 27.2119 27.1703C24.3136 27.8024 21.4896 27.5298 18.7647 26.3399C18.6656 26.2904 18.5665 26.2532 18.4302 26.1912C17.9967 26.625 17.5632 27.0588 17.1297 27.505C16.5228 28.1371 15.792 28.3478 14.9374 28.1866C14.8136 28.1619 14.6154 28.261 14.5163 28.3726C11.6923 31.186 8.85593 34.0118 6.04433 36.85C5.52412 37.3706 4.97914 37.8416 4.23598 38.0151C3.96349 38.0151 3.691 38.0151 3.41851 38.0151C1.83312 37.3086 0.693611 36.1684 0 34.5819C0 34.3093 0 34.0366 0 33.7639ZM24.2392 25.9805C31.002 25.9805 36.4889 20.5024 36.5013 13.7476C36.5137 7.0053 31.0267 1.48997 24.2764 1.46518C17.5137 1.45279 12.002 6.94333 12.002 13.7228C12.002 20.49 17.4765 25.9805 24.2392 25.9805ZM10.7386 24.4437C10.6395 24.5552 10.5652 24.6667 10.4661 24.7659C8.55867 26.687 6.63885 28.5956 4.71904 30.5167C3.76532 31.4711 2.8116 32.4254 1.85789 33.3797C1.33768 33.9003 1.35007 34.4208 1.85789 34.929C2.21708 35.3008 2.58866 35.6602 2.96023 36.032C3.61669 36.6765 4.07497 36.6765 4.73142 36.032C7.5678 33.1938 10.4166 30.3432 13.2529 27.505C13.352 27.4058 13.4883 27.3686 13.6121 27.3067C12.5965 26.3028 11.6923 25.398 10.7386 24.4437ZM12.5717 20.9609C12.163 21.3576 11.7666 21.717 11.4074 22.1012C11.1721 22.3615 11.1969 22.7457 11.457 23.006C12.6336 24.1958 13.8103 25.3732 14.9993 26.5506C15.2471 26.7985 15.631 26.8357 15.8787 26.6126C16.2751 26.2532 16.6343 25.8442 17.043 25.4352C15.2099 24.2701 13.7236 22.7953 12.5717 20.9609Z" stroke="#F2F8FF" stroke-width="0.1"/>
<path d="M24.2269 23.8983C18.616 23.8859 14.0704 19.3125 14.0952 13.6981C14.1076 8.10837 18.6904 3.54738 24.2764 3.57216C29.8625 3.58456 34.4205 8.15794 34.4205 13.7476C34.4081 19.3373 29.8377 23.8983 24.2269 23.8983ZM24.2269 22.411C29.0202 22.4234 32.9218 18.5317 32.9342 13.7476C32.9465 8.97595 29.0326 5.05944 24.2516 5.04705C19.4831 5.04705 15.5815 8.93877 15.5815 13.6981C15.5691 18.4945 19.4459 22.3986 24.2269 22.411Z" stroke="#F2F8FF" stroke-width="0.1"/>
<path d="M24.9948 14.1442C24.9948 14.7516 25.0072 15.3465 24.9948 15.9414C24.9824 16.3256 24.7718 16.623 24.4498 16.685C24.1154 16.7594 23.8181 16.685 23.6447 16.3752C23.558 16.2264 23.5209 16.0281 23.5209 15.8422C23.5085 15.0986 23.5085 14.3549 23.5209 13.6113C23.5209 13.0164 23.7314 12.7809 24.3259 12.7313C25.0567 12.657 25.5893 12.2975 25.8123 11.5911C26.0352 10.9342 25.8618 10.3393 25.354 9.86832C24.8585 9.42213 24.2888 9.31059 23.6695 9.55847C23.0502 9.79395 22.7034 10.2649 22.6291 10.9218C22.6043 11.1201 22.5671 11.3184 22.4804 11.4795C22.307 11.777 22.0098 11.8761 21.6754 11.777C21.3286 11.6778 21.1551 11.43 21.1428 11.0581C21.0932 9.60804 22.2699 8.19513 23.7314 7.98443C25.3787 7.73655 26.9022 8.72807 27.2986 10.3021C27.6949 11.8885 26.8403 13.4626 25.2673 14.0327C25.1806 14.0699 25.1063 14.0947 24.9948 14.1442Z" stroke="#F2F8FF" stroke-width="0.1"/>
<path d="M24.2516 19.5108C23.8553 19.5108 23.5209 19.1886 23.5209 18.792C23.5085 18.3706 23.8429 18.036 24.2516 18.036C24.6604 18.036 25.0072 18.383 24.9948 18.792C24.9824 19.1762 24.648 19.5108 24.2516 19.5108Z" stroke="#F2F8FF" stroke-width="0.1"/>
</g>
</g>
</g>
<defs>
<clipPath id="clip0_2198_2925">
<rect width="38" height="38" fill="white"/>
</clipPath>
</defs>
</svg>
