<svg width="35" height="40" viewBox="0 0 35 40" fill="none" xmlns="http://www.w3.org/2000/svg">
<path d="M22.0235 33.1724C22.0235 34.2046 22.0235 35.1749 22.0235 36.1968C22.3434 36.1968 22.653 36.1864 22.9626 36.1968C24.17 36.2174 25.1608 37.1361 25.2846 38.3231C25.3362 38.8495 25.1504 39.0663 24.6138 39.0663C20.0627 39.0663 15.5117 39.0663 10.9503 39.0663C10.424 39.0663 10.2279 38.8289 10.3001 38.3128C10.4549 37.0948 11.4353 36.2174 12.6737 36.1968C12.9523 36.1968 13.2413 36.1968 13.5509 36.1968C13.5509 35.1852 13.5509 34.2046 13.5509 33.1724C13.3858 33.1724 13.2413 33.1724 13.0865 33.1724C10.1969 33.1724 7.30737 33.1724 4.4178 33.1724C2.32287 33.1724 0.929688 31.7893 0.929688 29.7043C0.929688 23.1911 0.929688 16.678 0.929688 10.1545C0.929688 8.05918 2.30223 6.68636 4.39717 6.68636C4.8822 6.68636 5.37755 6.68636 5.86259 6.68636C6.25474 6.68636 6.47146 6.86183 6.47146 7.18181C6.48178 7.50179 6.24442 7.69791 5.84195 7.69791C5.32595 7.70823 4.80996 7.69791 4.29397 7.69791C2.90078 7.70823 1.96167 8.62689 1.96167 10.0307C1.95136 12.2499 1.96167 14.4691 1.96167 16.6883C1.96167 20.2184 1.96167 23.7588 1.96167 27.2889C1.96167 27.4231 1.96167 27.5676 1.96167 27.7225C12.5086 27.7225 23.0245 27.7225 33.5714 27.7225C33.5818 27.5883 33.5921 27.4541 33.5921 27.3199C33.5921 21.6016 33.5921 15.8935 33.5921 10.1752C33.5921 8.5856 32.6943 7.69791 31.0844 7.69791C30.62 7.69791 30.1556 7.69791 29.6912 7.69791C29.2887 7.69791 29.0617 7.49147 29.072 7.17149C29.0823 6.86183 29.2887 6.69668 29.6912 6.68636C30.2072 6.68636 30.7232 6.68636 31.2392 6.68636C33.1999 6.69668 34.5931 8.07982 34.6241 10.041C34.6344 10.4952 34.6241 10.939 34.6241 11.3932C34.6241 17.4831 34.6241 23.573 34.6241 29.663C34.6241 31.3661 33.6953 32.6563 32.1783 33.0486C31.848 33.1312 31.4868 33.1621 31.1463 33.1621C28.267 33.1724 25.3981 33.1621 22.5189 33.1621C22.3641 33.1724 22.2196 33.1724 22.0235 33.1724ZM1.94104 28.7959C1.96168 29.3636 1.93072 29.9004 2.02359 30.4165C2.22999 31.5106 3.17942 32.1712 4.42812 32.1712C11.2186 32.1712 18.0194 32.1712 24.8099 32.1712C26.9358 32.1712 29.0617 32.1712 31.1876 32.1712C31.9409 32.1712 32.5704 31.9235 33.0658 31.3455C33.7056 30.592 33.5818 29.6939 33.5611 28.7959C23.0349 28.7959 12.5292 28.7959 1.94104 28.7959ZM14.6242 33.1931C14.6242 34.215 14.6242 35.1955 14.6242 36.1761C16.7501 36.1761 18.845 36.1761 20.9399 36.1761C20.9399 35.1646 20.9399 34.184 20.9399 33.1931C18.8243 33.1931 16.7397 33.1931 14.6242 33.1931ZM11.4147 38.0444C15.6768 38.0444 19.8873 38.0444 24.1288 38.0444C23.8501 37.456 23.3961 37.2393 22.8181 37.229C22.1061 37.2186 21.4043 37.229 20.6922 37.229C18.0607 37.229 15.4394 37.229 12.8079 37.229C12.2093 37.2186 11.7243 37.4251 11.4147 38.0444Z" fill="#014898"/>
<path d="M27.7614 13.6433C27.7614 16.3477 27.751 19.0624 27.7717 21.7667C27.7717 22.5718 27.493 23.2221 26.9358 23.7692C26.0999 24.5949 25.0472 25.0697 23.9533 25.4207C21.4869 26.2051 18.9482 26.3806 16.3889 26.2464C14.6964 26.1535 13.0143 25.9368 11.425 25.3381C10.5891 25.0181 9.78414 24.5949 9.04111 24.0995C8.18456 23.5421 7.7924 22.6957 7.80272 21.6325C7.83368 16.2754 7.82336 10.9287 7.80272 5.57159C7.80272 4.61165 8.1536 3.8788 8.85535 3.2698C9.82542 2.43373 10.9812 1.9486 12.199 1.64926C16.3682 0.627388 20.5271 0.606745 24.6035 2.07246C25.3878 2.35115 26.1102 2.8466 26.7913 3.35238C27.4827 3.86847 27.7923 4.62198 27.782 5.51998C27.751 8.22433 27.7614 10.9287 27.7614 13.6433ZM17.7924 8.4927C19.3403 8.50302 20.878 8.35851 22.395 8.00757C23.6953 7.69791 24.9647 7.30568 26.0173 6.44896C26.9771 5.66449 26.9667 4.82841 26.0276 4.03363C25.9554 3.97169 25.8935 3.90976 25.8109 3.86847C25.0266 3.49689 24.2629 3.02208 23.4373 2.77435C19.8254 1.70087 16.1721 1.71119 12.5292 2.64016C11.456 2.89821 10.4137 3.30077 9.54678 4.0233C8.57671 4.82841 8.56639 5.69546 9.57774 6.44896C10.1453 6.87216 10.8058 7.21278 11.4663 7.47083C13.489 8.27594 15.6252 8.4927 17.7924 8.4927ZM8.81407 12.7763C8.81407 13.9736 8.82439 15.0678 8.80375 16.1619C8.79343 16.6883 8.95855 17.1528 9.37134 17.4625C9.87702 17.834 10.393 18.2056 10.9606 18.4637C12.7975 19.2894 14.7583 19.5681 16.7501 19.6507C19.2268 19.7539 21.6726 19.5681 24.0152 18.6908C24.748 18.4121 25.4394 17.9786 26.0999 17.5347C26.5746 17.2251 26.7707 16.7193 26.75 16.1206C26.7191 15.3981 26.7397 14.6755 26.7397 13.953C26.7397 13.5814 26.7397 13.2201 26.7397 12.8898C26.0173 13.2614 25.3465 13.6743 24.6344 13.9633C22.7253 14.7478 20.7129 15.0058 18.6696 15.0781C16.4301 15.1607 14.2114 14.9749 12.0545 14.3556C10.8987 14.0356 9.82542 13.5711 8.81407 12.7763ZM8.81407 7.20246C8.81407 8.38948 8.82439 9.49393 8.81407 10.5984C8.80375 11.0938 8.95855 11.5377 9.34039 11.837C9.8151 12.2086 10.3105 12.5595 10.8574 12.8176C12.457 13.5814 14.1907 13.8807 15.9451 14.0149C18.5044 14.2007 21.0431 14.0665 23.5199 13.2924C24.459 13.0034 25.3568 12.6215 26.1205 11.9609C26.5539 11.5893 26.781 11.1248 26.7603 10.5364C26.7397 9.56618 26.75 8.60624 26.75 7.63598C26.75 7.51212 26.7397 7.39858 26.7294 7.21278C25.6458 8.05918 24.459 8.54431 23.2103 8.87461C20.5581 9.5765 17.8543 9.6694 15.1505 9.38039C12.9111 9.14298 10.7336 8.65785 8.81407 7.20246ZM26.7294 18.4327C26.6571 18.474 26.6055 18.4843 26.5746 18.5153C25.6871 19.2069 24.6757 19.6507 23.6025 19.95C20.3517 20.8687 17.07 20.9306 13.7573 20.3732C12.0132 20.0739 10.3517 19.5578 8.91727 18.474C8.90695 18.4637 8.86567 18.4843 8.82439 18.4843C8.82439 19.5578 8.84503 20.6416 8.81407 21.7254C8.80375 22.3241 8.99983 22.8195 9.46422 23.1395C10.1144 23.573 10.7955 23.9859 11.5076 24.2749C13.1794 24.9459 14.9441 25.1729 16.7294 25.2555C19.0617 25.3587 21.363 25.1626 23.6025 24.4504C24.4796 24.1717 25.3156 23.8104 26.0379 23.2118C26.3785 22.9228 26.7191 22.5925 26.7294 22.128C26.75 20.91 26.7294 19.6817 26.7294 18.4327Z" fill="#014898"/>
<path d="M17.8233 29.952C18.5973 29.952 19.3713 29.952 20.1453 29.952C20.4652 29.952 20.7129 30.0552 20.7542 30.4062C20.8058 30.7468 20.5684 30.9739 20.1453 30.9739C19.4848 30.9842 18.8347 30.9739 18.1742 30.9739C17.2764 30.9739 16.3682 30.9739 15.4704 30.9739C15.1711 30.9739 14.9028 30.9016 14.8306 30.5507C14.7583 30.1997 14.9957 29.952 15.4291 29.9417C16.2237 29.9417 17.0184 29.952 17.8233 29.952Z" fill="#014898"/>
<path d="M20.0627 17.8547C19.5261 17.8753 19.2887 17.7102 19.2681 17.4005C19.2475 17.1012 19.4642 16.8844 19.8357 16.8431C21.0328 16.7193 22.2093 16.5128 23.3238 16.0484C23.8811 15.811 24.3868 15.4394 24.8924 15.1091C25.1298 14.9646 25.3465 14.9026 25.5632 15.0884C25.8006 15.2845 25.8522 15.5735 25.6458 15.7697C25.2949 16.1 24.9234 16.4303 24.5003 16.6573C23.458 17.2147 22.3228 17.4934 21.1566 17.6895C20.7542 17.7618 20.3311 17.8134 20.0627 17.8547Z" fill="#014898"/>
<path d="M19.877 12.3531C19.5158 12.3325 19.2991 12.1776 19.2784 11.868C19.2578 11.548 19.4539 11.3932 19.7635 11.3312C20.847 11.1145 21.941 10.9184 23.0039 10.6397C23.7057 10.4539 24.3868 10.1545 24.9131 9.59715C25.0988 9.39071 25.3568 9.39071 25.5735 9.56618C25.8109 9.7623 25.8522 10.041 25.6458 10.2474C25.3672 10.5364 25.0472 10.8255 24.7067 11.0216C23.685 11.6099 22.5498 11.9093 21.394 12.126C20.878 12.2086 20.3517 12.2808 19.877 12.3531Z" fill="#014898"/>
<path d="M20.0421 23.4182C19.5467 23.4389 19.2887 23.2634 19.2887 22.9537C19.2784 22.6131 19.4848 22.4686 19.8047 22.3963C20.9606 22.1589 22.1267 21.9525 23.2619 21.6119C23.8501 21.4364 24.3764 21.0029 24.9131 20.6623C25.1504 20.5178 25.3671 20.4661 25.5839 20.6416C25.8109 20.8171 25.8728 21.0855 25.6871 21.2919C25.4291 21.5809 25.1298 21.8699 24.7996 22.066C23.7779 22.675 22.6427 22.9744 21.4869 23.1911C20.9606 23.284 20.4446 23.3563 20.0421 23.4182Z" fill="#014898"/>
</svg>
