<svg width="45" height="40" viewBox="0 0 45 40" fill="none" xmlns="http://www.w3.org/2000/svg">
<path d="M44.9537 26.4297C44.6367 27.2058 44.1529 27.7862 43.188 27.8806C43.188 28.0693 43.1941 28.2545 43.1871 28.4389C43.1432 29.5538 42.3943 30.2999 41.2836 30.3255C40.7155 30.3379 40.1466 30.3282 39.5083 30.3282C39.5083 30.5257 39.5083 30.6951 39.5083 30.8635C39.5083 33.4064 39.5092 35.9483 39.5083 38.4912C39.5083 39.5161 39.028 39.9915 37.9972 39.9968C37.7338 39.9985 37.4705 39.9994 37.207 39.9968C36.2421 39.9853 35.7496 39.494 35.7478 38.5212C35.7434 35.9783 35.7461 33.4364 35.7461 30.8935V30.3537H9.20672C9.20672 30.5487 9.20672 30.7207 9.20672 30.8926C9.20672 33.4055 9.2076 35.9183 9.20672 38.4321C9.20672 39.5214 8.73787 39.9932 7.65968 39.9977C7.38135 39.9985 7.10391 40.0029 6.82558 39.9968C5.94319 39.9747 5.448 39.472 5.44712 38.5811C5.44273 36.0092 5.44536 33.4372 5.44536 30.8653C5.44536 30.7065 5.44536 30.5469 5.44536 30.3299C4.91944 30.3299 4.42688 30.3299 3.93432 30.3299C2.48562 30.3273 1.79727 29.6437 1.76215 28.1769C1.76039 28.0914 1.74898 28.0058 1.7402 27.8876C0.827077 27.7977 0.317836 27.2261 0 26.4297C0 25.7532 0 25.0775 0 24.401C0.135212 24.1364 0.270424 23.8718 0.406514 23.6081C0.271302 23.3435 0.135212 23.078 0 22.8134C0 22.1369 0 21.4613 0 20.7848C0.021072 20.7663 0.0544361 20.7513 0.0614601 20.7283C0.371394 19.7564 1.06238 19.3251 2.04925 19.3251C5.19425 19.3233 8.34013 19.3162 11.4851 19.3286C12.7863 19.3339 13.5168 20.0951 13.5238 21.3934C13.5265 21.8891 13.5238 22.3848 13.5238 22.9457C13.6635 22.9457 13.8338 22.9457 14.0041 22.9457C16.1403 22.9457 18.2765 22.9625 20.4118 22.9378C21.3398 22.9272 21.5497 23.153 21.5848 23.5993C21.6225 24.0756 21.2617 24.274 20.432 24.274C14.3904 24.274 8.34803 24.274 2.30651 24.274C1.40217 24.274 1.31788 24.3578 1.31788 25.2487C1.31788 26.1307 1.75395 26.5717 2.6261 26.5717C15.9384 26.5717 29.2515 26.5717 42.5637 26.5717C42.7393 26.5717 42.9158 26.5778 43.0897 26.5593C43.4277 26.5232 43.6244 26.3318 43.634 25.9834C43.6437 25.6165 43.6419 25.2487 43.6349 24.8809C43.6279 24.4884 43.4128 24.2926 43.0291 24.2776C42.8833 24.2714 42.7367 24.274 42.5901 24.274C36.5485 24.274 30.5061 24.274 24.4646 24.2723C24.2609 24.2723 24.052 24.2705 23.8553 24.2264C23.526 24.1532 23.3144 23.8956 23.3856 23.5887C23.4382 23.362 23.6621 23.1345 23.8693 22.9995C24.0186 22.9025 24.2662 22.9466 24.4699 22.9466C30.4974 22.9448 36.5248 22.9607 42.5514 22.9307C43.706 22.9254 44.534 23.2818 44.9545 24.401L44.9537 26.4297ZM41.8394 27.9361H3.10373C3.03613 28.8561 3.16695 29.0051 4.00983 29.0051C16.3256 29.0051 28.6413 29.0051 40.957 29.0051C41.7911 29.0051 41.9342 28.8358 41.8394 27.9361ZM6.80626 20.6472C5.43131 20.6472 4.05636 20.6472 2.68229 20.6472C1.30822 20.6472 1.317 20.6472 1.31788 21.9984C1.31788 22.8425 1.42675 22.9501 2.2907 22.9501C5.27415 22.9501 8.2576 22.9501 11.241 22.9501C11.3578 22.9501 11.4755 22.9528 11.5922 22.9457C11.9909 22.921 12.213 22.7235 12.2077 22.3036C12.2042 22.054 12.2077 21.8044 12.2077 21.5539C12.2077 20.7672 12.0857 20.6472 11.2823 20.6463C9.79059 20.6454 8.29887 20.6463 6.80714 20.6463L6.80626 20.6472ZM7.87567 30.3687H6.78519V38.6314H7.87567V30.3687ZM37.0912 30.352V38.6473H38.1685V30.352H37.0912Z" fill="#014898"/>
<path d="M34.1779 3.54569C34.9163 2.48816 35.631 1.48531 36.322 0.465706C36.5442 0.137598 36.8181 -0.000877827 37.2018 4.18517e-06C39.2502 0.00529626 41.2994 4.07335e-06 43.3478 0.00353212C43.8711 0.00353212 44.1643 0.243439 44.1722 0.651811C44.1793 1.07606 43.8781 1.32302 43.3285 1.3239C41.4697 1.32655 39.6119 1.33361 37.7532 1.31685C37.4353 1.3142 37.2545 1.4174 37.0806 1.67671C36.495 2.55166 35.883 3.40898 35.2596 4.30422C36.0375 4.85283 36.7795 5.39792 37.5442 5.90948C39.1966 7.01376 40.259 8.50436 40.6111 10.4871C40.64 10.6512 40.7735 10.8267 40.9078 10.9361C41.8201 11.6778 41.9834 12.6842 41.3257 13.6632C41.1537 13.919 40.9798 14.1748 40.784 14.4112C40.1817 15.1424 39.2414 15.317 38.4161 14.8434C38.1974 14.7181 38.035 14.682 37.7839 14.8072C36.7083 15.3461 35.6468 15.2482 34.674 14.562C33.6986 13.8741 33.2762 12.9012 33.3693 11.6999C33.3807 11.5508 33.3421 11.3347 33.2437 11.258C33.1489 11.1839 32.9224 11.1998 32.7933 11.2606C31.7072 11.7731 30.6554 11.7166 29.6712 11.0428C28.701 10.3786 28.2558 9.43136 28.3401 8.24329C28.3506 8.08894 28.3779 7.89754 28.3041 7.78288C28.1698 7.57208 27.9757 7.58883 27.7378 7.70791C26.0055 8.57581 23.9431 7.67968 23.4154 5.81775C23.3065 5.43408 23.3583 5.0063 23.3039 4.60322C23.2802 4.4277 23.2249 4.20896 23.1028 4.10136C22.3232 3.4081 22.1634 2.45464 22.7174 1.56646C22.8728 1.31773 23.0423 1.07694 23.217 0.842325C23.879 -0.0493886 24.8509 -0.231965 25.8167 0.321938C25.9765 0.413668 26.2031 0.464824 26.383 0.435718C28.2743 0.12525 29.9767 0.56361 31.5255 1.67847C32.3921 2.30206 33.271 2.90712 34.1779 3.54569ZM24.6788 1.24717C24.4637 1.48884 24.2302 1.71199 24.0449 1.96954C23.5401 2.66985 23.5708 2.81186 24.2706 3.3049C28.9986 6.63185 33.7267 9.9588 38.4547 13.2857C39.4653 13.9967 39.5373 13.9834 40.2142 12.9515C40.5092 12.5016 40.4758 12.2582 40.0377 11.9495C35.1077 8.4779 30.1751 5.00807 25.2416 1.54176C25.102 1.44386 24.9379 1.38123 24.6788 1.24717ZM38.8577 9.50015C38.8919 9.47193 38.9262 9.44459 38.9604 9.41636C38.6926 9.00887 38.4837 8.54141 38.1448 8.20712C37.5749 7.64616 36.9507 7.12842 36.2992 6.66449C34.2482 5.20564 32.1831 3.76531 30.1023 2.35057C29.4499 1.90691 28.6878 1.71816 27.8634 1.76579C31.5281 4.34391 35.1929 6.92203 38.8577 9.50015ZM24.6955 5.22063C24.6499 6.16703 25.9318 6.98907 26.6833 6.62038C26.016 6.15027 25.3681 5.69427 24.6955 5.22063ZM31.7538 10.1837C31.0408 9.68361 30.3867 9.22497 29.6852 8.7328C29.8626 9.80533 30.7248 10.4077 31.7538 10.1837ZM34.7443 12.2891C34.7706 13.2699 35.9752 14.0602 36.7698 13.7144C36.1008 13.2443 35.4493 12.7848 34.7443 12.2891Z" fill="#014898"/>
<path d="M24.4532 13.0511C24.2767 12.8835 24.0054 12.7424 23.9501 12.5413C23.8939 12.3367 23.9721 11.9592 24.1257 11.8542C24.8553 11.3506 25.6218 10.8973 26.3945 10.4615C26.6807 10.3001 27.0196 10.4113 27.1381 10.7059C27.2251 10.9228 27.2277 11.3577 27.0969 11.4503C26.3251 11.9927 25.5042 12.4646 24.6973 12.955C24.6525 12.9823 24.584 12.9718 24.5261 12.9779L24.4532 13.0511Z" fill="#014898"/>
<path d="M27.0819 15.4758C26.5139 15.4634 26.1671 14.9766 26.412 14.5814C26.887 13.8141 27.4182 13.0794 27.9599 12.357C28.1584 12.0933 28.4823 12.0994 28.751 12.2864C29.0337 12.4831 29.161 12.7901 28.967 13.0891C28.4824 13.8344 27.9661 14.5594 27.4402 15.2756C27.3506 15.3982 27.1504 15.4396 27.0828 15.4749L27.0819 15.4758Z" fill="#014898"/>
<path d="M31.2832 14.0654C31.1348 14.7905 30.9785 15.654 30.7748 16.5042C30.6949 16.8385 30.4096 16.9946 30.0584 16.9276C29.6896 16.857 29.4727 16.5951 29.5298 16.2378C29.6668 15.3876 29.8433 14.5435 30.0347 13.7038C30.1119 13.3634 30.3894 13.1949 30.7335 13.2487C31.0979 13.3052 31.2832 13.5504 31.2832 14.0654Z" fill="#014898"/>
</svg>
