<svg width="44" height="44" viewBox="0 0 44 44" fill="none" xmlns="http://www.w3.org/2000/svg">
<g clip-path="url(#clip0_2010_531)">
<path d="M0.5 10.3433V0.749277C0.736197 0.41552 1.04507 0.288086 1.4569 0.288086C4.32761 0.300223 7.19831 0.288086 10.069 0.294154C10.7655 0.294154 11.0017 0.536886 11.0077 1.22867C11.0077 2.26635 11.0077 3.30403 11.0077 4.34171C11.0077 4.48735 11.0077 4.63299 11.0077 4.77256H32.9983C32.9983 3.56497 32.9983 2.38772 32.9983 1.21047C32.9983 0.555091 33.2345 0.294154 33.8644 0.294154C36.7896 0.288086 39.7148 0.288086 42.64 0.294154C43.2456 0.294154 43.5 0.567228 43.5 1.18013C43.5 4.08078 43.5 6.98749 43.5 9.88814C43.5 10.5253 43.2517 10.7863 42.6158 10.7923C41.5801 10.8045 40.5445 10.7923 39.5089 10.7923C39.3575 10.7923 39.2121 10.7923 39.0425 10.7923V32.7778C39.2121 32.7778 39.3635 32.7778 39.5149 32.7778C40.5506 32.7778 41.5862 32.7717 42.6218 32.7778C43.2396 32.7778 43.5 33.0448 43.5 33.6456C43.5 36.5644 43.5 39.4772 43.5 42.396C43.5 42.9907 43.2517 43.2759 42.6763 43.2759C39.7208 43.282 36.7714 43.282 33.8159 43.2759C33.2527 43.2759 32.9983 43.0029 32.9983 42.4385C32.9983 41.3705 32.9983 40.3085 32.9983 39.2405C32.9983 39.0888 32.9983 38.9432 32.9983 38.7915H11.0017C11.0017 39.9687 11.0017 41.1156 11.0017 42.2625C11.0017 43.0696 10.7897 43.282 9.98423 43.282C7.17408 43.282 4.35789 43.282 1.54775 43.2881C1.11169 43.2881 0.760423 43.1849 0.506056 42.8269V33.2329C0.760423 32.8688 1.11169 32.7535 1.54775 32.7717C2.3169 32.796 3.08606 32.7778 3.85521 32.7778C4.07324 32.7778 4.29127 32.7778 4.50324 32.7778V10.7984C3.50394 10.7984 2.52282 10.7802 1.54775 10.8045C1.11169 10.8166 0.760423 10.7013 0.506056 10.3372L0.5 10.3433ZM5.9931 32.7778C6.17479 32.7778 6.3262 32.7778 6.47761 32.7778C7.66465 32.7778 8.85775 32.7778 10.0448 32.7778C10.7715 32.7778 11.0017 33.0144 11.0017 33.7305C11.0017 34.2767 11.0017 34.8228 11.0017 35.3689C11.0017 35.994 11.0017 36.619 11.0017 37.2623H32.9741C32.9801 37.1045 32.9923 36.9649 32.9923 36.8314C32.9923 35.7816 32.9923 34.7257 32.9923 33.6759C32.9923 33.0387 33.2345 32.7839 33.8765 32.7778C34.9424 32.7717 36.0023 32.7778 37.0682 32.7778C37.2135 32.7778 37.3649 32.7778 37.5224 32.7778V10.7984C37.3528 10.7984 37.2014 10.7984 37.05 10.7984C35.9841 10.7984 34.9242 10.8045 33.8583 10.7984C33.2406 10.7984 32.9983 10.5375 32.9923 9.92455C32.9923 8.91721 32.9923 7.90381 32.9923 6.89647C32.9923 6.70835 32.9923 6.51417 32.9923 6.31998H11.0017C11.0017 7.50937 11.0017 8.66841 11.0017 9.82746C11.0017 10.5739 10.7776 10.7984 10.0206 10.8045C8.83352 10.8045 7.64042 10.8045 6.45338 10.8045C6.30197 10.8045 6.15662 10.8166 5.9931 10.8287V32.7778ZM1.98986 1.77482V9.30558H9.52394V1.77482H1.98986ZM34.47 9.30558H42.0101V1.79303H34.47V9.30558ZM9.53 34.2706H1.98986V41.7831H9.53V34.2706ZM34.4639 41.7831H42.0041V34.2706H34.4639V41.7831Z" fill="#014898"/>
</g>
<defs>
<clipPath id="clip0_2010_531">
<rect width="43" height="43" fill="white" transform="translate(0.5 0.288086)"/>
</clipPath>
</defs>
</svg>
