<svg width="43" height="45" viewBox="0 0 43 45" fill="none" xmlns="http://www.w3.org/2000/svg">
<g id="Layer_1" clip-path="url(#clip0_2108_926)">
<path id="Vector" d="M5.43427 22.0535V21.4792C5.43427 16.6767 5.43427 11.8729 5.43427 7.07043C5.43427 6.28731 5.53711 6.15578 6.30957 5.93255C8.37233 5.33646 10.4326 4.73313 12.4979 4.14548C12.7623 4.07067 12.8553 3.95242 12.8504 3.6773C12.8333 2.74455 12.8406 1.81059 12.8455 0.876639C12.8492 0.257622 13.1075 0.00180999 13.7404 0.00180999C18.8257 -0.00060333 23.9122 -0.00060333 28.9975 0.00180999C29.6525 0.00180999 29.9034 0.257622 29.9046 0.910426C29.9083 1.93367 29.9046 2.95572 29.9046 4.02723C30.7824 4.28304 31.654 4.53765 32.5256 4.78984C33.871 5.1808 35.2176 5.56814 36.5618 5.96151C37.1727 6.14009 37.3147 6.33195 37.3147 6.96786C37.3147 11.8005 37.3147 16.6344 37.3147 21.4671C37.3147 21.6445 37.3147 21.8219 37.3147 22.0511C37.5167 22.0511 37.6795 22.0511 37.8423 22.0511C39.1865 22.0511 40.5306 22.0475 41.8748 22.0535C42.4795 22.0559 42.7391 22.3118 42.7427 22.9079C42.7489 24.1121 42.7354 25.3163 42.7501 26.5218C42.755 26.9779 42.5628 27.253 42.1331 27.4099C41.2749 27.7236 40.418 28.0374 39.5758 28.3897C39.3885 28.4681 39.2122 28.6805 39.1289 28.8724C38.5634 30.1671 38.0382 31.4788 37.464 32.7699C37.3477 33.0329 37.3281 33.2248 37.4481 33.4794C37.8276 34.2843 38.1692 35.1048 38.5511 35.9072C38.7568 36.3404 38.6772 36.6722 38.3393 37.0004C37.1004 38.2071 35.8689 39.4198 34.6472 40.6421C34.3093 40.98 33.9653 41.0416 33.5331 40.8461C32.7019 40.4696 31.867 40.0991 31.0199 39.7601C30.8411 39.6889 30.5804 39.7094 30.3943 39.783C29.0526 40.3115 27.717 40.8557 26.39 41.4192C26.1966 41.5013 25.986 41.6823 25.9064 41.8693C25.5563 42.685 25.2429 43.5176 24.9332 44.3502C24.763 44.8063 24.4631 45.0054 23.9636 45.0018C22.2375 44.9873 20.5114 44.9873 18.7865 45.0018C18.2858 45.0066 17.9896 44.8051 17.8194 44.3478C17.5109 43.5152 17.1963 42.6838 16.8462 41.8669C16.7654 41.6799 16.5573 41.4977 16.3626 41.4156C15.0356 40.8533 13.7 40.3103 12.3583 39.783C12.1734 39.7106 11.9127 39.6913 11.734 39.7625C10.8868 40.1016 10.0519 40.472 9.2207 40.8473C8.79101 41.0416 8.44456 40.9885 8.10668 40.6494C6.88494 39.427 5.65463 38.2119 4.41452 37.0077C4.05706 36.6614 4.00075 36.3199 4.21498 35.8746C4.60795 35.0601 4.97643 34.2336 5.32287 33.3998C5.3902 33.2369 5.36572 32.9955 5.29594 32.8254C4.75362 31.5053 4.17703 30.1985 3.64573 28.8736C3.53923 28.6057 3.41191 28.4585 3.14626 28.362C2.30279 28.0555 1.47034 27.7164 0.62565 27.4123C0.194734 27.2555 -0.00480885 26.9912 8.79196e-05 26.5327C0.013554 25.3284 8.79195e-05 24.1242 0.00620888 22.9187C0.00865726 22.3021 0.268186 22.0559 0.909662 22.0535C2.23791 22.0499 3.56738 22.0523 4.89563 22.0523C5.05967 22.0523 5.22249 22.0523 5.43305 22.0523L5.43427 22.0535ZM1.47646 23.5245C1.47646 24.3619 1.46545 25.1595 1.48993 25.9559C1.4936 26.0693 1.64907 26.2298 1.77149 26.2781C2.57579 26.6026 3.3862 26.9116 4.20274 27.2048C4.59693 27.3472 4.82463 27.5873 4.92624 27.9951C5.32532 29.5976 5.9619 31.1071 6.83353 32.5153C7.04531 32.858 7.05755 33.1802 6.88861 33.5397C6.51891 34.3313 6.1541 35.1265 5.815 35.9313C5.76358 36.0544 5.80031 36.2909 5.8909 36.3826C6.81639 37.3214 7.76636 38.2385 8.69797 39.1724C8.86446 39.339 8.99912 39.3631 9.21091 39.2666C10.0005 38.9082 10.8036 38.5788 11.5895 38.2143C11.9715 38.037 12.3044 38.0454 12.668 38.2626C14.0991 39.1169 15.6269 39.7492 17.2563 40.1329C17.6688 40.2307 17.9088 40.4672 18.052 40.8557C18.3483 41.6606 18.6813 42.4533 18.9775 43.2582C19.0595 43.4826 19.1734 43.5514 19.4072 43.5502C20.7208 43.5405 22.0343 43.5405 23.3466 43.5502C23.578 43.5514 23.6955 43.4875 23.7788 43.2606C24.0812 42.4413 24.4227 41.6364 24.7239 40.8171C24.8634 40.437 25.1107 40.2271 25.5 40.1353C27.1441 39.748 28.6853 39.1073 30.1299 38.2445C30.4457 38.0563 30.7408 38.0297 31.0799 38.183C31.8842 38.5462 32.7031 38.8768 33.5038 39.246C33.7523 39.3607 33.8992 39.3341 34.0902 39.1423C34.9863 38.2385 35.8922 37.3419 36.8128 36.4611C37.0294 36.2547 37.0368 36.0942 36.9156 35.842C36.5532 35.0806 36.2227 34.3036 35.8665 33.5385C35.7 33.1789 35.7147 32.858 35.9252 32.5141C36.7907 31.1023 37.431 29.594 37.8276 27.9915C37.9292 27.58 38.163 27.346 38.5548 27.2048C39.3566 26.9164 40.1524 26.6099 40.9444 26.2974C41.068 26.2491 41.2529 26.132 41.2566 26.0416C41.2811 25.2053 41.2713 24.3691 41.2713 23.5293H31.856C31.9111 26.4072 30.9954 28.9134 29.0061 30.9913C27.0045 33.0812 24.5219 34.1744 21.6009 34.2408C18.9775 34.3011 16.6369 33.4963 14.639 31.8203C12.0633 29.6603 10.8587 26.8669 10.8942 23.5257H1.47646V23.5245ZM16.9196 22.0342V21.449C16.9196 19.417 16.9196 17.3838 16.9196 15.3517C16.9196 14.4829 17.1278 14.2766 17.9884 14.2754C20.2482 14.2754 22.5081 14.2754 24.7692 14.2754C25.6114 14.2754 25.8293 14.4866 25.8305 15.3143C25.833 17.3765 25.8305 19.4387 25.8305 21.5021V22.0258H28.405V1.48359H14.3513V22.0342H16.9184H16.9196ZM12.3742 23.5208C12.335 26.8271 13.6339 29.4395 16.3785 31.2966C19.3778 33.325 23.3748 33.325 26.3741 31.2966C29.1199 29.4395 30.4188 26.8283 30.3796 23.522H12.373L12.3742 23.5208ZM35.8199 22.0366C35.8322 21.9305 35.8432 21.8725 35.8432 21.8146C35.8432 17.0749 35.8407 12.3351 35.853 7.59533C35.853 7.29004 35.7024 7.21764 35.4686 7.15128C33.8894 6.69757 32.3102 6.23904 30.731 5.78413C30.4727 5.70932 30.2107 5.64657 29.9389 5.57658V22.0379H35.8175L35.8199 22.0366ZM6.93758 7.25987V22.0222H12.8259V5.55486C10.8403 6.12923 8.88894 6.69516 6.93758 7.25987ZM24.3113 22.0258V15.7548H18.4181V22.0258H24.3113Z" fill="#014898"/>
<path id="Vector_2" d="M21.3741 9.77989C20.1989 9.77989 19.0237 9.78351 17.8484 9.77869C17.1788 9.77627 16.9254 9.53856 16.9205 8.88938C16.9119 7.61032 16.9119 6.33126 16.9205 5.0534C16.9242 4.40422 17.1849 4.15806 17.8472 4.15806C20.1977 4.15565 22.5481 4.15565 24.8973 4.15806C25.5596 4.15806 25.8204 4.40301 25.8253 5.0534C25.8338 6.33246 25.8338 7.61152 25.8253 8.88938C25.8204 9.53977 25.5682 9.77748 24.8985 9.77989C23.7233 9.78472 22.5481 9.7811 21.3729 9.7811L21.3741 9.77989ZM18.425 8.28967H24.322V5.62777H18.425V8.28967Z" fill="#014898"/>
</g>
<defs>
<clipPath id="clip0_2108_926">
<rect width="42.75" height="45" fill="white"/>
</clipPath>
</defs>
</svg>
