<svg width="45" height="45" viewBox="0 0 45 45" fill="none" xmlns="http://www.w3.org/2000/svg">
<g clip-path="url(#clip0_2108_7232)">
<path d="M0 40.9483C0.204662 40.6159 0.358158 40.2452 0.601194 39.9384C3.42808 36.4355 6.28056 32.9455 9.12024 29.4554C9.23536 29.302 9.35048 29.1614 9.50398 28.9696C8.97954 28.5861 8.45509 28.2154 7.94343 27.8319C7.27828 27.3461 7.22712 26.9498 7.72598 26.3105C8.39113 25.454 9.08187 24.6103 9.65748 23.8944C9.08187 22.4753 8.45509 21.1969 8.04576 19.8546C7.04804 16.6586 7.20154 13.4625 8.32718 10.3176C9.4784 7.10884 11.4866 4.53924 14.3263 2.64719C16.4497 1.22816 18.7777 0.38441 21.3232 0.115945C21.4767 0.103161 21.6302 0.0520241 21.7837 0.0136719C22.4872 0.0136719 23.1907 0.0136719 23.8943 0.0136719C24.6617 0.141513 25.442 0.218217 26.1967 0.384411C29.9957 1.21538 33.0785 3.19691 35.4065 6.31623C35.9309 7.03214 36.3786 7.79918 36.8775 8.5918C37.1589 8.29776 37.4275 8.00373 37.6961 7.70969C37.9648 7.42844 38.2717 7.31339 38.6427 7.44123C39.0776 7.58185 39.5125 7.73526 39.9602 7.87589C40.4719 8.0293 40.7149 8.37447 40.7405 8.89861C40.7533 9.09038 40.7661 9.28214 40.7789 9.4739C40.7916 9.81907 40.9707 9.95969 41.3161 9.88299C41.3417 9.87021 41.3801 9.88299 41.4056 9.87021C42.3906 9.42276 43.0046 9.89577 43.4906 10.7012C43.593 10.8801 43.7081 11.0591 43.8232 11.2253C44.1046 11.6216 44.1174 12.0051 43.8616 12.427C43.2732 13.4242 43.1708 13.437 44.3221 13.8972C44.7953 14.089 45.0128 14.4213 44.9872 14.9455C44.9616 15.3418 44.9616 15.7509 44.9872 16.1472C45.0256 16.7097 44.7826 17.0549 44.2709 17.2466C43.2476 17.6429 43.2348 17.6941 43.8232 18.6145C44.1174 19.0748 44.1174 19.5094 43.7976 19.9441C43.5546 20.2765 43.3115 20.6088 43.0685 20.954C42.7743 21.3759 42.3906 21.5037 41.9045 21.3759C41.815 21.3503 41.7254 21.3248 41.6231 21.2992C40.8684 21.1202 40.7916 21.1586 40.7661 21.9384C40.7533 22.6671 40.4847 23.1657 39.73 23.3319C39.7044 23.3446 39.666 23.3574 39.6404 23.3702C37.952 23.9583 38.0543 23.8304 37.1333 22.7949C37.0566 22.7054 36.9926 22.5904 36.9287 22.4881C36.3019 23.4213 35.7902 24.329 35.1507 25.1344C32.4901 28.5094 29.0236 30.4909 24.7513 30.9384C23.4466 31.079 22.1163 30.9384 20.786 30.8873C20.5173 30.8745 20.3511 30.9128 20.1848 31.1301C19.4812 32.0378 18.7521 32.9327 18.0358 33.8276C17.537 34.4412 17.166 34.4924 16.5264 34.0321C16.0532 33.6998 15.5927 33.3546 15.0938 32.9966C14.4926 33.7253 13.917 34.4412 13.3286 35.1571C10.8215 38.2381 8.31438 41.3319 5.80728 44.4128C5.23167 45.1159 4.8863 45.1543 4.16998 44.579C2.98039 43.633 1.79079 42.6997 0.613985 41.7282C0.383741 41.5364 0.204662 41.2551 0.0127914 41.0122C0 41.0122 0 40.9739 0 40.9483ZM9.0307 15.5591C9.01791 23.204 15.2729 29.4426 22.9477 29.4554C30.6225 29.4554 36.8519 23.2296 36.8519 15.5719C36.8519 7.91424 30.6225 1.6756 22.9605 1.66282C15.324 1.63725 9.04349 7.92702 9.0307 15.5591ZM13.7507 32.0506C12.7786 31.3347 11.8192 30.6444 10.8343 29.9284C7.87948 33.5591 4.95026 37.1642 2.00824 40.7821C2.9548 41.5364 3.87578 42.2651 4.82234 43.0321C7.81552 39.3631 10.7703 35.7196 13.7507 32.0506ZM41.8917 19.6756C41.9557 19.6245 42.1347 19.5478 42.1603 19.4327C42.1987 19.2665 42.1731 19.0364 42.0836 18.883C41.444 17.7196 41.7894 16.5435 42.9406 16.0321C43.158 15.9426 43.3627 15.8915 43.3755 15.5591C43.3883 15.1884 43.1197 15.1884 42.915 15.0478C42.6208 14.8432 42.2499 14.6642 42.0964 14.383C41.6998 13.6415 41.5208 12.8617 42.1347 12.1074C42.2115 12.0051 42.1859 11.7495 42.1092 11.6216C42.0452 11.5194 41.8405 11.5066 41.687 11.481C41.5975 11.4682 41.4952 11.5066 41.4056 11.5321C40.3951 11.7623 39.3334 11.0208 39.1671 9.99805C39.1288 9.72958 39.3206 9.33327 38.8601 9.19265C38.3869 9.03924 38.3357 9.51225 38.0927 9.67844C37.5554 10.0492 37.5938 10.4966 37.7857 11.0847C38.7067 13.9483 38.7194 16.8247 37.9008 19.714C37.5682 20.8901 37.5426 20.8901 38.4125 21.7466C38.5148 21.8489 38.7578 21.9384 38.8857 21.8872C39.0136 21.8489 39.1032 21.6316 39.1544 21.4782C39.2823 21.0946 39.2823 20.6088 39.5253 20.3404C40.0753 19.7395 40.7405 19.2154 41.6742 19.6373C41.6998 19.6628 41.751 19.6628 41.8917 19.6756ZM17.0637 32.4341C17.5881 31.7821 18.087 31.1557 18.637 30.4782C15.4264 29.5066 12.8297 27.7296 10.7447 25.1728C10.2715 25.7608 9.84935 26.2978 9.38886 26.8603C11.9599 28.714 14.4798 30.5549 17.0637 32.4341Z" fill="#014898"/>
<path d="M10.6681 15.5712C10.6425 8.84679 16.1172 3.34963 22.9222 3.28571C29.6249 3.22179 35.1763 8.74451 35.2147 15.5201C35.253 22.2829 29.74 27.8056 22.9606 27.8184C16.2067 27.8184 10.7064 22.334 10.6681 15.5712ZM25.8898 25.7346C24.9432 24.9164 24.9432 24.9164 25.327 23.7658C25.3525 23.7019 25.3909 23.638 25.3781 23.5868C25.3525 23.4206 25.3525 23.1905 25.2502 23.101C25.1351 22.986 24.892 22.9349 24.7258 22.9604C24.4827 22.986 24.2397 23.1138 23.9967 23.1905C23.5234 23.3312 23.1396 23.2289 22.8838 22.7942C22.564 22.2829 22.2059 21.7843 21.9372 21.2474C21.3616 20.1224 20.9523 19.9945 22.3338 18.8439C22.4617 18.7417 22.5512 18.4732 22.5001 18.3326C22.4489 18.1664 22.2442 18.0258 22.0652 17.9491C21.8349 17.8468 21.5663 17.8212 21.3233 17.7701C20.85 17.6678 20.6069 17.3738 20.6069 16.888C20.6069 16.2999 20.5942 15.7118 20.6069 15.111C20.6197 13.7559 20.3895 13.4746 22.1035 13.1678C22.257 13.1422 22.4617 12.9505 22.5001 12.7971C22.5384 12.6437 22.4489 12.4135 22.3338 12.2729C22.1675 12.0684 21.9372 11.9022 21.7454 11.7232C21.4128 11.4164 21.3233 11.0456 21.5407 10.6366C21.8349 10.0741 22.1291 9.49877 22.4617 8.96184C23.3059 7.60673 23.3443 7.69622 24.7258 8.15644C24.7386 8.15644 24.7641 8.16923 24.7769 8.16923C24.9432 8.13088 25.1607 8.13088 25.263 8.0286C25.3653 7.92633 25.4037 7.709 25.4037 7.54281C25.3909 7.36383 25.3014 7.18485 25.2374 6.99309C24.9816 6.22605 25.0455 6.03428 25.6851 5.57406C25.7619 5.52292 25.8258 5.459 25.9154 5.39508C22.7047 4.28286 17.8824 5.07548 14.7869 8.7573C11.8193 12.2985 11.5379 17.5783 14.1473 21.4775C16.68 25.2999 21.6558 27.1152 25.8898 25.7346ZM33.5902 15.584C33.5774 13.6664 33.1041 11.8894 32.1448 10.2275C31.9913 9.97178 31.8505 9.92065 31.5691 9.97178C28.9981 10.5087 27.0666 12.8354 27.041 15.4434C27.0154 18.2175 28.8574 20.5314 31.5308 21.1323C31.8378 21.1962 31.9913 21.1323 32.132 20.8638C33.0913 19.2275 33.5646 17.4633 33.5902 15.584ZM26.8108 24.3539C27.1561 24.5584 27.4119 24.7246 27.6806 24.8525C27.7829 24.9036 27.962 24.9164 28.0643 24.8525C29.1004 24.3027 30.0086 23.5868 30.8017 22.692C27.3608 21.4263 25.3653 19.0613 25.4549 15.3539C25.5316 11.851 27.5271 9.62661 30.904 8.41213C30.1749 7.82406 29.5097 7.29991 28.8702 6.73741C28.2434 6.20048 27.6422 6.08542 26.9898 6.68627C26.9515 6.71184 26.9259 6.75019 26.8747 6.78855C26.977 7.09536 27.0538 7.40218 27.1689 7.69622C27.3352 8.11809 27.2329 8.47605 26.9003 8.77008C26.7724 8.88514 26.6189 8.98741 26.5166 9.12804C25.9154 9.97179 25.1863 10.253 24.2141 9.74167C24.1374 9.70332 23.9199 9.75446 23.8687 9.83116C23.6385 10.1635 23.4466 10.5343 23.242 10.8795C23.5234 11.1351 23.7536 11.3525 23.9967 11.557C24.342 11.851 24.4316 12.1962 24.2909 12.6309C24.1629 13.04 24.0606 13.4618 23.9583 13.8709C23.8559 14.2928 23.6129 14.5357 23.2036 14.638C22.2442 14.8809 22.2442 14.8937 22.257 15.878C22.257 16.0059 22.2698 16.1337 22.2826 16.3255C23.3315 16.351 23.8559 16.8113 24.1757 17.8979C24.5211 19.0741 24.0606 19.6621 23.242 20.2374C23.5106 20.6849 23.7408 21.0812 23.9967 21.5158C24.9176 21.03 25.6212 21.0172 26.4654 21.861C27.2712 22.692 27.348 23.3951 26.8108 24.3539Z" fill="#014898"/>
</g>
<defs>
<clipPath id="clip0_2108_7232">
<rect width="45" height="45" fill="white"/>
</clipPath>
</defs>
</svg>
