<svg width="154" height="62" viewBox="0 0 154 62" fill="none" xmlns="http://www.w3.org/2000/svg">
<path fill-rule="evenodd" clip-rule="evenodd" d="M17.1522 43.1121H36.7457V35.7354H10.0756L9.79411 35.7338V61.9965H16.9456V43.2216L17.1522 43.1121Z" fill="#2E3192"/>
<path fill-rule="evenodd" clip-rule="evenodd" d="M9.79576 9.95487L63.3375 9.94828L63.4511 9.89802C75.0081 10.006 84.3418 19.3856 84.3418 30.9395C84.3418 42.51 74.9785 51.8995 63.3927 51.9785L63.2083 51.9703L50.1095 51.9571V25.3937H57.5038V44.7321L58.1212 44.7156H63.2223L63.5063 44.7123C70.9895 44.5607 77.0084 38.4636 77.0084 30.9642C77.0084 23.4245 70.9286 17.3018 63.3918 17.2112H17.1251L16.9465 17.2153V25.2445L16.9522 25.3887L36.6938 25.3953L36.7136 32.7719L9.87561 32.767L9.79411 32.7621L9.79576 9.95487ZM117.032 0.289356L149.38 54.8681L154 47.208L125.333 0.289356H117.032ZM83.838 62L117.006 6.68634L144.365 51.9983H106.657V44.9307H131.136L117.006 21.3358L93.8492 62H83.838Z" fill="#2E3192"/>
<path fill-rule="evenodd" clip-rule="evenodd" d="M149.381 54.8679L106.659 54.8564V61.9998L145.181 61.985L145.239 61.8161L149.381 54.8679ZM39.6421 54.6356L39.6725 25.3919H47.0669V54.6356L47.0652 54.6932H63.2253L63.3948 54.6982C76.487 54.6067 87.0719 43.992 87.0719 30.9105C87.0719 17.8521 76.5167 7.24811 63.4525 7.12534L63.2253 7.13111L7.15317 7.12946L7.15152 61.9957H0L0.00246927 0.00412053L63.5109 0C78.5466 0.135948 91.0288 10.5908 93.7271 24.8406L108.735 0.288377H117.034L91.2971 43.44L88.8005 47.6627C83.2648 55.7825 74.0752 61.8301 63.5109 61.9257L63.2253 61.9273H39.6421V54.6356Z" fill="#2E3192"/>
</svg>
