<svg width="53" height="47" viewBox="0 0 53 47" fill="none" xmlns="http://www.w3.org/2000/svg">
<path d="M51.9749 30.1751C52.4593 30.1751 52.8524 29.7716 52.8524 29.2744V4.68852C52.8524 2.20629 50.8852 0.185181 48.4652 0.185181H20.3872C17.9672 0.185181 16 2.20629 16 4.6886V31.3115C16 33.7938 17.9672 35.8149 20.3872 35.8149H48.4651C50.8852 35.8149 52.8523 33.7938 52.8523 31.3115V25.9075C52.8523 25.4103 52.4592 25.0068 51.9748 25.0068C51.4905 25.0068 51.0974 25.4103 51.0974 25.9075V31.3115C51.0974 32.8013 49.9164 34.0135 48.4651 34.0135H20.3872C18.9359 34.0135 17.7548 32.8013 17.7548 31.3115V9.19194H51.0975V17.2332V29.2745C51.0975 29.7716 51.4906 30.1751 51.9749 30.1751ZM17.7548 7.39062V4.6886C17.7548 3.19886 18.9359 1.98658 20.3872 1.98658H48.4651C49.9165 1.98658 51.0975 3.19886 51.0975 4.6886V7.39062H17.7548Z" fill="#014898"/>
<path d="M20.3871 5.58924C20.8717 5.58924 21.2646 5.18599 21.2646 4.68854C21.2646 4.1911 20.8717 3.78784 20.3871 3.78784C19.9025 3.78784 19.5096 4.1911 19.5096 4.68854C19.5096 5.18599 19.9025 5.58924 20.3871 5.58924Z" fill="#014898"/>
<path d="M23.897 5.58924C24.3816 5.58924 24.7745 5.18599 24.7745 4.68854C24.7745 4.1911 24.3816 3.78784 23.897 3.78784C23.4124 3.78784 23.0195 4.1911 23.0195 4.68854C23.0195 5.18599 23.4124 5.58924 23.897 5.58924Z" fill="#014898"/>
<path d="M27.4068 5.58924C27.8914 5.58924 28.2842 5.18599 28.2842 4.68854C28.2842 4.1911 27.8914 3.78784 27.4068 3.78784C26.9222 3.78784 26.5293 4.1911 26.5293 4.68854C26.5293 5.18599 26.9222 5.58924 27.4068 5.58924Z" fill="#014898"/>
<rect width="37" height="40" transform="translate(0 7)" fill="white"/>
<path d="M35.9749 34.9529C36.4593 34.9529 36.8524 34.5493 36.8524 34.0522V11.6885C36.8524 9.20629 34.8852 7.18518 32.4652 7.18518H4.38716C1.96724 7.18518 0 9.20629 0 11.6886V38.3115C0 40.7938 1.96724 42.8149 4.38716 42.8149H32.4651C34.8852 42.8149 36.8523 40.7938 36.8523 38.3115V32.9075C36.8523 32.4103 36.4592 32.0068 35.9748 32.0068C35.4905 32.0068 35.0974 32.4103 35.0974 32.9075V38.3115C35.0974 39.8013 33.9164 41.0135 32.4651 41.0135H4.38716C2.93585 41.0135 1.75485 39.8013 1.75485 38.3115V16.1919H35.0975V34.0522C35.0975 34.5494 35.4906 34.9529 35.9749 34.9529ZM1.75485 14.3906V11.6886C1.75485 10.1989 2.93585 8.98658 4.38716 8.98658H32.4651C33.9165 8.98658 35.0975 10.1989 35.0975 11.6886V14.3906H1.75485Z" fill="#014898"/>
<path d="M4.38711 12.5892C4.87172 12.5892 5.26457 12.186 5.26457 11.6885C5.26457 11.1911 4.87172 10.7878 4.38711 10.7878C3.9025 10.7878 3.50964 11.1911 3.50964 11.6885C3.50964 12.186 3.9025 12.5892 4.38711 12.5892Z" fill="#014898"/>
<path d="M7.897 12.5892C8.38161 12.5892 8.77446 12.186 8.77446 11.6885C8.77446 11.1911 8.38161 10.7878 7.897 10.7878C7.41239 10.7878 7.01953 11.1911 7.01953 11.6885C7.01953 12.186 7.41239 12.5892 7.897 12.5892Z" fill="#014898"/>
<path d="M11.4068 12.5892C11.8914 12.5892 12.2842 12.186 12.2842 11.6885C12.2842 11.1911 11.8914 10.7878 11.4068 10.7878C10.9222 10.7878 10.5293 11.1911 10.5293 11.6885C10.5293 12.186 10.9222 12.5892 11.4068 12.5892Z" fill="#014898"/>
</svg>
