<svg width="49" height="46" viewBox="0 0 49 46" fill="none" xmlns="http://www.w3.org/2000/svg">
<path d="M48.1833 44.3273V11.7092H38.3833V44.3273H35.9333V18.4001H26.1333V44.3273H23.6833V25.091H13.8833V44.3273H11.4333V32.6183H1.63333V44.3273H0.816667C0.365867 44.3273 0 44.7012 0 45.1637C0 45.6262 0.365867 46 0.816667 46H1.63333H11.4333H13.8833H23.6833H26.1333H35.9333H38.3833H48.1833C48.6341 46 49 45.6262 49 45.1637C49 44.7012 48.6341 44.3273 48.1833 44.3273ZM3.26667 44.3273V34.291H9.8V44.3273H3.26667ZM15.5167 44.3273V26.7637H22.05V44.3273H15.5167ZM27.7667 44.3273V20.0728H34.3V44.3273H27.7667ZM40.0167 44.3273V13.382H46.55V44.3273H40.0167Z" fill="#014898"/>
<path d="M6.55779 21.1852C6.69581 21.1852 6.83709 21.1492 6.96531 21.0731L36.585 3.55969L34.7312 7.73313C34.5441 8.15382 34.7254 8.64978 35.1362 8.84047C35.2457 8.89233 35.3608 8.91574 35.4743 8.91574C35.7847 8.91574 36.0811 8.73342 36.2183 8.42564L39.1273 1.87693C39.1363 1.85602 39.1346 1.83344 39.142 1.8117C39.1575 1.76737 39.1697 1.72471 39.1779 1.67788C39.182 1.65446 39.1951 1.63522 39.1967 1.61097C39.1975 1.60093 39.1934 1.59257 39.1942 1.58253C39.1959 1.55075 39.1926 1.52148 39.191 1.4897C39.1885 1.4437 39.1812 1.40021 39.1714 1.35421C39.1648 1.32242 39.1632 1.28981 39.1526 1.25886C39.1428 1.22875 39.1256 1.20366 39.1126 1.17439C39.102 1.15515 39.102 1.13257 39.0905 1.1125C39.0791 1.09242 39.0595 1.08072 39.0464 1.06148C39.0293 1.03555 39.0162 1.00795 38.9958 0.984534C38.9746 0.959444 38.9476 0.94188 38.9231 0.919298C38.8896 0.888353 38.8561 0.859917 38.8186 0.834826C38.7933 0.818098 38.7704 0.799699 38.7426 0.78548C38.7336 0.781299 38.7287 0.772935 38.7198 0.768753C38.6993 0.759553 38.6773 0.761226 38.6569 0.753699C38.612 0.736972 38.5679 0.725263 38.5213 0.716899C38.5001 0.712717 38.4829 0.700172 38.4609 0.698499L31.4686 0.00431938C31.0153 -0.0425168 30.6201 0.297046 30.5768 0.755372C30.5327 1.21537 30.8618 1.62435 31.3101 1.66868L35.7659 2.11111L6.14864 19.6245C5.75746 19.8553 5.62434 20.3672 5.84974 20.767C6.00082 21.0355 6.27522 21.1852 6.55779 21.1852Z" fill="#014898"/>
</svg>
