<svg width="51" height="51" viewBox="0 0 51 51" fill="none" xmlns="http://www.w3.org/2000/svg">
<g clip-path="url(#clip0_6_6928)">
<path d="M21.9734 44.0426V30.9988C21.9734 30.5492 21.6091 30.1849 21.1595 30.1849H15.734C15.2844 30.1849 14.9202 30.5492 14.9202 30.9988C14.9202 31.4483 15.2844 31.8126 15.734 31.8126H20.3457V44.0426C18.7924 44.4111 17.6329 45.809 17.6329 47.4734C17.6329 49.418 19.2149 51 21.1595 51C23.1041 51 24.6861 49.418 24.6861 47.4734C24.6861 45.809 23.5267 44.4111 21.9734 44.0426ZM21.1595 49.3723C20.1125 49.3723 19.2606 48.5204 19.2606 47.4734C19.2606 46.4264 20.1125 45.5745 21.1595 45.5745C22.2065 45.5745 23.0585 46.4264 23.0585 47.4734C23.0585 48.5204 22.2065 49.3723 21.1595 49.3723Z" fill="#014898"/>
<path d="M30.6543 44.0426V30.9988C30.6543 30.5492 30.29 30.1849 29.8404 30.1849H24.415C23.9655 30.1849 23.6012 30.5492 23.6012 30.9988C23.6012 31.4483 23.9655 31.8126 24.415 31.8126H29.0266V44.0426C27.4733 44.4111 26.3139 45.809 26.3139 47.4734C26.3139 49.418 27.8958 51 29.8404 51C31.7851 51 33.367 49.418 33.367 47.4734C33.367 45.809 32.2076 44.4111 30.6543 44.0426ZM29.8404 49.3723C28.7934 49.3723 27.9415 48.5204 27.9415 47.4734C27.9415 46.4264 28.7934 45.5745 29.8404 45.5745C30.8875 45.5745 31.7394 46.4264 31.7394 47.4734C31.7394 48.5204 30.8875 49.3723 29.8404 49.3723Z" fill="#014898"/>
<path d="M44.4893 38.5213C42.8249 38.5213 41.427 39.6807 41.0585 41.234H39.3351V30.9988C39.3351 30.5492 38.9708 30.1849 38.5212 30.1849H33.0957C32.6461 30.1849 32.2819 30.5492 32.2819 30.9988C32.2819 31.4483 32.6461 31.8126 33.0957 31.8126H37.7074V42.0479C37.7074 42.4974 38.0717 42.8617 38.5212 42.8617H41.0585C41.427 44.415 42.8249 45.5745 44.4893 45.5745C46.4339 45.5745 48.0159 43.9925 48.0159 42.0479C48.0159 40.1032 46.4339 38.5213 44.4893 38.5213ZM44.4893 43.9468C43.4423 43.9468 42.5904 43.0949 42.5904 42.0479C42.5904 41.0008 43.4423 40.1489 44.4893 40.1489C45.5363 40.1489 46.3882 41.0008 46.3882 42.0479C46.3882 43.0949 45.5363 43.9468 44.4893 43.9468Z" fill="#014898"/>
<path d="M49.0621 17.5307C47.9653 16.1688 46.4755 15.1599 44.8179 14.6451C44.6313 10.7927 43.0329 7.19827 40.2778 4.46619C37.3734 1.5861 33.5213 0 29.4309 0C24.0595 0 19.0892 2.80088 16.294 7.35561C15.6142 7.1413 14.9077 7.03312 14.1852 7.03312C10.8607 7.03312 8.0019 9.37977 7.31253 12.5786C3.04307 13.6861 0 17.5774 0 22.0386C0 27.428 4.38448 31.8126 9.77388 31.8126H11.6649V41.234H9.94142C9.57292 39.6807 8.17508 38.5213 6.51064 38.5213C4.56602 38.5213 2.98404 40.1033 2.98404 42.0479C2.98404 43.9925 4.56602 45.5745 6.51064 45.5745C8.17508 45.5745 9.57292 44.415 9.94142 42.8617H12.4787C12.9283 42.8617 13.2926 42.4974 13.2926 42.0479V30.9988C13.2926 30.5492 12.9283 30.1849 12.4787 30.1849H9.77388C5.28208 30.1849 1.62766 26.5305 1.62766 22.0386C1.62766 18.1623 4.38329 14.8023 8.17986 14.0493C8.52221 13.9815 8.78329 13.7028 8.82853 13.3567C9.17892 10.6796 11.4817 8.66088 14.1852 8.66088C14.9289 8.66088 15.6502 8.80987 16.3289 9.10361C16.7137 9.27017 17.1617 9.11717 17.3644 8.75051C19.7933 4.35692 24.417 1.62766 29.4309 1.62766C36.9598 1.62766 43.1401 7.75178 43.2081 15.2796C43.2114 15.6557 43.4721 15.9804 43.8384 16.0651C47.0968 16.8191 49.3724 19.684 49.3724 23.0318C49.3724 26.9761 46.1637 30.1849 42.2194 30.1849H41.7766C41.327 30.1849 40.9628 30.5492 40.9628 30.9988C40.9628 31.4483 41.327 31.8126 41.7766 31.8126H42.2193C47.061 31.8126 51 27.8736 51 23.0318C51 21.0358 50.3117 19.082 49.0621 17.5307ZM6.51064 43.9468C5.46362 43.9468 4.6117 43.0949 4.6117 42.0479C4.6117 41.0009 5.46362 40.1489 6.51064 40.1489C7.55766 40.1489 8.40957 41.0009 8.40957 42.0479C8.40957 43.0949 7.55766 43.9468 6.51064 43.9468Z" fill="#014898"/>
</g>
<defs>
<clipPath id="clip0_6_6928">
<rect width="51" height="51" fill="white"/>
</clipPath>
</defs>
</svg>
