<svg width="104" height="40" viewBox="0 0 104 40" fill="none" xmlns="http://www.w3.org/2000/svg">
<path fill-rule="evenodd" clip-rule="evenodd" d="M90.8415 36.4291C97.7309 36.4291 103.316 30.8442 103.316 23.9548C103.316 17.0654 97.7309 11.4805 90.8415 11.4805C83.9521 11.4805 78.3672 17.0654 78.3672 23.9548C78.3672 30.8442 83.9521 36.4291 90.8415 36.4291ZM90.8415 31.3072C94.9021 31.3072 98.1939 28.0154 98.1939 23.9548C98.1939 19.8942 94.9021 16.6024 90.8415 16.6024C86.7809 16.6024 83.4891 19.8942 83.4891 23.9548C83.4891 28.0154 86.7809 31.3072 90.8415 31.3072Z" fill="#CBCBCB"/>
<path fill-rule="evenodd" clip-rule="evenodd" d="M64.4041 36.4291C71.2934 36.4291 76.8784 30.8442 76.8784 23.9548C76.8784 17.0654 71.2934 11.4805 64.4041 11.4805C57.5147 11.4805 51.9297 17.0654 51.9297 23.9548C51.9297 30.8442 57.5147 36.4291 64.4041 36.4291ZM64.4041 31.3072C68.4647 31.3072 71.7565 28.0154 71.7565 23.9548C71.7565 19.8942 68.4647 16.6024 64.4041 16.6024C60.3434 16.6024 57.0516 19.8942 57.0516 23.9548C57.0516 28.0154 60.3434 31.3072 64.4041 31.3072Z" fill="#CBCBCB"/>
<path fill-rule="evenodd" clip-rule="evenodd" d="M50.796 23.8587C50.7963 23.8914 50.7964 23.9242 50.7964 23.957C50.7964 30.8464 45.2115 36.4314 38.3221 36.4314C31.4327 36.4314 25.8477 30.8464 25.8477 23.957C25.8477 17.0676 31.4327 11.4827 38.3221 11.4827C41.1465 11.4827 43.7516 12.4213 45.8426 14.0037V6.05324C45.8426 4.68412 46.9519 3.57422 48.3209 3.57422C49.6897 3.57422 50.7993 4.68515 50.7993 6.05324V23.7309C50.7993 23.7738 50.7982 23.8163 50.796 23.8587ZM38.3221 31.3095C42.3827 31.3095 45.6745 28.0176 45.6745 23.957C45.6745 19.8964 42.3827 16.6046 38.3221 16.6046C34.2614 16.6046 30.9696 19.8964 30.9696 23.957C30.9696 28.0176 34.2614 31.3095 38.3221 31.3095Z" fill="#CBCBCB"/>
<path fill-rule="evenodd" clip-rule="evenodd" d="M12.4743 36.4018C19.3637 36.4018 24.9487 30.8169 24.9487 23.9275C24.9487 17.0381 19.3637 11.4531 12.4743 11.4531C5.58495 11.4531 0 17.0381 0 23.9275C0 30.8169 5.58495 36.4018 12.4743 36.4018ZM12.3599 31.3299C16.4206 31.3299 19.7124 28.0381 19.7124 23.9775C19.7124 19.9168 16.4206 16.625 12.3599 16.625C8.2993 16.625 5.00751 19.9168 5.00751 23.9775C5.00751 28.0381 8.2993 31.3299 12.3599 31.3299Z" fill="#B2B2B2"/>
</svg>
