<svg width="166" height="40" viewBox="0 0 166 40" fill="none" xmlns="http://www.w3.org/2000/svg">
<path fill-rule="evenodd" clip-rule="evenodd" d="M72.5171 11.1926L72.4175 11.1453C72.4073 11.1393 71.2387 10.6132 70.3252 11.5746L70.2086 11.6975L72.0798 12.6147L72.5171 11.1926ZM81.0825 21.4679C81.0825 21.4679 80.267 22.9278 79.9016 23.4674C79.5346 24.0112 78.3868 24.3489 77.3945 23.8749C76.9407 23.6592 72.695 21.1828 71.0704 21.3246C62.8469 22.0415 60.6067 18.6534 60.3425 18.3455C60.0772 18.0377 59.5829 18.1809 59.9361 18.7866C61.7401 21.8801 67.0788 23.3145 67.0788 23.3145C68.4748 26.6787 68.6421 29.0357 68.6421 29.0357C67.2594 27.9581 65.7669 27.0499 64.1833 26.2957C59.951 23.4557 53.3254 19.9387 44.2056 17.734C44.7297 10.4997 48.3799 0.0417726 65.45 2.51483C65.45 2.51483 68.8749 3.07624 71.1583 4.65499C71.1583 4.65499 70.6097 5.23024 69.8885 5.95037C69.1673 6.66891 69.9652 7.13017 69.9652 7.13017L73.5706 9.96436C73.6127 11.4637 73.6745 11.8841 74.8026 13.2411C75.9308 14.5956 80.3171 19.1898 80.8907 19.8044C81.5555 20.515 81.0825 21.4679 81.0825 21.4679ZM41.7692 7.36667C40.8664 11.0856 40.9357 14.3623 41.3996 17.1172C40.5426 16.9467 39.6728 16.7832 38.7763 16.6372C20.0944 13.597 14.4596 22.8048 16.6403 30.2709C10.4643 32.5921 4.66008 35.2494 0 37.8588C7.33235 20.2731 23.2669 4.79507 36.7155 2.76091C41.1066 2.18193 42.3418 5.0305 41.7692 7.36667Z" fill="#C4C4C4"/>
<path fill-rule="evenodd" clip-rule="evenodd" d="M44.3593 23.437C51.6378 22.8618 58.5073 23.592 64.1847 26.2936C59.9529 23.4535 53.3274 19.9365 44.2069 17.7319C44.0248 20.2524 44.2197 22.3808 44.3593 23.437ZM43.3089 23.5286C35.1536 24.3068 25.5107 26.9381 16.6422 30.2687C14.4615 22.8026 20.0969 13.5949 38.7782 16.6352C39.6747 16.7811 40.5445 16.9447 41.401 17.1151C41.8441 19.749 42.6463 21.9126 43.3089 23.5286Z" fill="#E0E0E0"/>
<path fill-rule="evenodd" clip-rule="evenodd" d="M152.556 20.7494L155.086 14.5745L157.616 20.7494H152.556ZM153.208 9.5431L145.049 28.7183H149.319L151.059 24.4491H159.112L160.851 28.7183H165.231L157.072 9.5431H153.208ZM100.366 16.3098C100.366 17.952 99.1349 19.2122 97.0256 19.2122H93.6833V13.351H96.9425C99.0529 13.351 100.366 14.3646 100.366 16.255V16.3098ZM97.2994 9.5431H89.4648V28.7183H93.6833V22.9657H96.8871C101.188 22.9657 104.641 20.6636 104.641 16.2262V16.1713C104.641 12.2543 101.875 9.5431 97.2994 9.5431ZM127.593 11.6844C125.582 13.6487 124.563 16.1351 124.563 19.0753C124.563 22.0182 125.563 24.4859 127.539 26.4146C129.512 28.3411 131.992 29.3164 134.911 29.3164C138.368 29.3164 141.069 28.2703 142.946 26.2063L143.043 26.0977V17.2963H134.703V20.8586H139.053V24.4534C137.926 25.124 136.521 25.4643 134.872 25.4643C133.163 25.4643 131.689 24.879 130.49 23.7221C129.294 22.5705 128.688 21.0093 128.688 19.0913C128.688 17.1716 129.313 15.6041 130.544 14.4328C131.78 13.2567 133.332 12.6602 135.158 12.6602C136.118 12.6602 136.969 12.7784 137.685 13.0117C138.357 13.2301 139.038 13.6269 139.712 14.1835L142.045 11.2385C140.814 10.1541 138.599 8.72656 134.911 8.72656C132.066 8.72656 129.604 9.72207 127.593 11.6844ZM111.919 21.0503H120.178V17.2963H111.919V13.294H122.192V9.5431H107.727V28.7183H122.328V24.9658H111.919V21.0503Z" fill="#C4C4C4"/>
</svg>
