<svg width="139" height="45" viewBox="0 0 139 45" fill="none" xmlns="http://www.w3.org/2000/svg">
<circle cx="22.0942" cy="22.0942" r="21.2104" stroke="white" stroke-width="1.76754"/>
<path d="M26.3441 29.7848L26.9538 31.2256C25.4675 34.1072 22.6473 35.6238 20.0938 35.6238C16.7781 35.6238 16.5876 33.8039 17.3879 31.1498C18.3788 27.8511 19.8651 22.96 20.5893 20.4576L17.9215 20.2301L18.4931 19.0168H21.0466C21.6183 17.2348 22.0756 15.6044 22.3805 14.429C23.9812 14.2394 26.1154 13.8982 27.2206 13.519C26.9157 14.3153 26.0011 16.9694 25.3532 19.0168H29.3549L28.7451 20.2301L24.9339 20.4576C24.2479 22.5429 21.9613 30.0881 21.3896 32.5906C21.199 33.4247 21.3134 33.8797 22.0756 33.8797C23.6382 33.8797 25.6199 31.6427 26.3441 29.7848Z" fill="white"/>
<path d="M19.8105 13.6625C19.8105 14.4276 19.505 15.1614 18.9612 15.7024C18.4174 16.2434 17.6798 16.5473 16.9108 16.5473C16.1417 16.5473 15.4041 16.2434 14.8603 15.7024C14.3165 15.1614 14.011 14.4276 14.011 13.6625C14.011 12.8973 14.3165 12.1636 14.8603 11.6225C15.4041 11.0815 16.1417 10.7776 16.9108 10.7776C17.6798 10.7776 18.4174 11.0815 18.9612 11.6225C19.505 12.1636 19.8105 12.8973 19.8105 13.6625Z" fill="white"/>
<path d="M57.1219 28.0187V16.4792H58.8618V28.0187H57.1219ZM65.2421 28.0187V18.0123H61.1659V16.4792H71.0583V18.0123H66.982V28.0187H65.2421ZM77.6341 28.0187V16.4792H79.9705L83.5994 23.8645L87.2282 16.4792H89.548V28.0187H87.9076V18.5893L83.5828 27.1945L79.258 18.5893V28.0187H77.6341ZM96.5792 28.1671C95.7507 28.1671 94.9992 27.9746 94.3256 27.5901C93.6628 27.2056 93.1326 26.6835 92.7349 26.0241C92.348 25.3647 92.1549 24.6282 92.1549 23.8151C92.1549 23.0127 92.3426 22.2873 92.7183 21.639C93.0802 20.9935 93.6058 20.4535 94.2428 20.073C94.8832 19.6773 95.5957 19.4795 96.3803 19.4795C97.1645 19.4795 97.8605 19.6773 98.4682 20.073C99.0755 20.4575 99.556 20.985 99.9098 21.6555C100.274 22.3149 100.457 23.0621 100.457 23.8975V24.3591H93.812C93.8927 24.8029 94.0678 25.2244 94.3256 25.5954C94.5859 25.9539 94.9262 26.2473 95.3198 26.4527C95.7299 26.6619 96.1847 26.7693 96.6454 26.7659C97.0539 26.7659 97.4462 26.7053 97.8219 26.5845C98.2084 26.4527 98.5286 26.266 98.783 26.0241L99.8435 27.0626C99.3464 27.4364 98.8327 27.7167 98.3025 27.9034C97.783 28.0793 97.2088 28.1671 96.5792 28.1671ZM93.8285 23.1227H98.8161C98.7499 22.683 98.5949 22.2984 98.3522 21.9687C98.1298 21.6367 97.828 21.3648 97.474 21.1775C97.1319 20.9798 96.7427 20.8773 96.3472 20.8807C95.9432 20.8769 95.5445 20.9732 95.1873 21.161C94.8303 21.3506 94.5236 21.6218 94.2925 21.9523C94.0605 22.282 93.9056 22.6722 93.8285 23.1227ZM106.773 28.1506C105.989 28.1506 105.271 27.9582 104.619 27.5737C103.978 27.2001 103.447 26.6658 103.078 26.0241C102.702 25.3647 102.515 24.6282 102.515 23.8151C102.515 23.0019 102.702 22.2708 103.078 21.6226C103.456 20.9825 103.992 20.4491 104.636 20.073C105.287 19.6885 106.011 19.496 106.806 19.496C107.27 19.496 107.718 19.5673 108.148 19.7103C108.579 19.8533 108.977 20.0618 109.341 20.3367V16.4792L110.999 16.166V28.0187H109.358V27.211C108.64 27.8374 107.778 28.1506 106.773 28.1506ZM106.989 26.7164C107.474 26.7164 107.916 26.6286 108.314 26.4527C108.712 26.2846 109.064 26.0246 109.341 25.6944V21.9193C109.065 21.6114 108.723 21.3699 108.314 21.1939C107.916 21.0073 107.474 20.9137 106.989 20.9137C106.458 20.9137 105.978 21.0402 105.547 21.2929C105.119 21.5431 104.764 21.9013 104.52 22.3314C104.265 22.76 104.138 23.2492 104.138 23.7986C104.138 24.3479 104.265 24.8425 104.52 25.2822C104.767 25.7148 105.12 26.0778 105.547 26.3373C105.978 26.5899 106.458 26.7164 106.989 26.7164ZM113.789 28.0187V19.6279H115.446V28.0187H113.789ZM114.617 18.2761C114.342 18.2761 114.104 18.1772 113.905 17.9794C113.706 17.7704 113.607 17.5289 113.607 17.254C113.607 16.9684 113.706 16.7319 113.905 16.5452C114.104 16.3474 114.342 16.2484 114.617 16.2484C114.905 16.2484 115.148 16.3474 115.347 16.5452C115.545 16.7319 115.645 16.9684 115.645 17.254C115.645 17.5289 115.545 17.7704 115.347 17.9794C115.148 18.1772 114.905 18.2761 114.617 18.2761ZM122.186 28.1671C121.38 28.1671 120.645 27.9746 119.982 27.5901C119.329 27.2145 118.786 26.6744 118.408 26.0241C118.033 25.3647 117.845 24.6282 117.845 23.8151C117.845 23.0019 118.038 22.2708 118.425 21.6226C118.799 20.9755 119.336 20.436 119.982 20.0565C120.645 19.6608 121.38 19.463 122.186 19.463C122.827 19.463 123.44 19.5838 124.026 19.8257C124.605 20.0561 125.13 20.4042 125.567 20.8478L124.539 21.9852C124.219 21.6337 123.86 21.3699 123.462 21.1939C123.071 21.0195 122.648 20.9296 122.219 20.9302C121.729 20.9255 121.247 21.0568 120.827 21.3093C120.419 21.562 120.093 21.9082 119.85 22.3479C119.607 22.7876 119.485 23.2764 119.485 23.8151C119.485 24.3537 119.607 24.8425 119.85 25.2822C120.085 25.713 120.427 26.0764 120.844 26.3373C121.264 26.5899 121.733 26.7164 122.253 26.7164C122.683 26.7164 123.087 26.634 123.462 26.4692C123.838 26.2932 124.191 26.0405 124.523 25.7108L125.533 26.7659C125.097 27.2133 124.572 27.5668 123.992 27.8044C123.421 28.0457 122.807 28.169 122.186 28.1671ZM130.364 28.1671C129.756 28.1671 129.22 28.0628 128.756 27.8539C128.292 27.6342 127.928 27.3317 127.663 26.9472C127.398 26.5627 127.265 26.1176 127.265 25.6119C127.265 24.8207 127.569 24.1996 128.176 23.7491C128.784 23.2875 129.618 23.0568 130.678 23.0568C131.507 23.0568 132.275 23.2162 132.982 23.5348V22.6446C132.982 22.04 132.805 21.5896 132.451 21.2929C132.109 20.9961 131.601 20.8478 130.927 20.8478C130.54 20.8478 130.137 20.9083 129.717 21.0291C129.297 21.1391 128.828 21.3147 128.309 21.5566L127.696 20.3202C128.336 20.0235 128.933 19.8092 129.485 19.6773C130.032 19.5352 130.594 19.4632 131.159 19.463C132.253 19.463 133.098 19.7214 133.694 20.2378C134.301 20.7542 134.606 21.4907 134.606 22.4468V28.0187H132.982V27.2934C132.621 27.5822 132.211 27.8054 131.772 27.9528C131.341 28.0958 130.871 28.1671 130.364 28.1671ZM128.856 25.579C128.856 25.9857 129.027 26.3154 129.369 26.5681C129.723 26.81 130.181 26.9307 130.745 26.9307C131.186 26.9307 131.59 26.8702 131.954 26.7494C132.334 26.6152 132.683 26.4079 132.982 26.1395V24.7217C132.668 24.5376 132.327 24.404 131.971 24.3261C131.628 24.2383 131.242 24.1942 130.811 24.1942C130.203 24.1942 129.723 24.3207 129.369 24.5734C129.027 24.8153 128.856 25.1504 128.856 25.579ZM137.343 28.0187V16.4792L139 16.166V28.0187H137.343Z" fill="white"/>
</svg>
