<svg width="158" height="50" viewBox="0 0 158 50" fill="none" xmlns="http://www.w3.org/2000/svg">
<circle cx="25" cy="25" r="23.5" stroke="black" stroke-width="3"/>
<path d="M29.8088 33.7024L30.4988 35.3327C28.817 38.5932 25.6258 40.3093 22.7365 40.3093C18.9848 40.3093 18.7691 38.25 19.6747 35.2469C20.796 31.5144 22.4778 25.98 23.2971 23.1485L20.2785 22.891L20.9253 21.5182H23.8146C24.4615 19.5018 24.979 17.657 25.3239 16.327C27.1351 16.1125 29.5501 15.7264 30.8007 15.2974C30.4557 16.1983 29.4207 19.2015 28.6876 21.5182H33.2156L32.5256 22.891L28.2132 23.1485C27.437 25.5081 24.8496 34.0456 24.2027 36.8772C23.9871 37.821 24.1165 38.3358 24.979 38.3358C26.747 38.3358 28.9895 35.8046 29.8088 33.7024Z" fill="black"/>
<path d="M22.4159 15.4596C22.4159 16.3254 22.0702 17.1556 21.4549 17.7678C20.8396 18.38 20.005 18.7239 19.1348 18.7239C18.2646 18.7239 17.43 18.38 16.8147 17.7678C16.1993 17.1556 15.8536 16.3254 15.8536 15.4596C15.8536 14.5939 16.1993 13.7636 16.8147 13.1514C17.43 12.5392 18.2646 12.1953 19.1348 12.1953C20.005 12.1953 20.8396 12.5392 21.4549 13.1514C22.0702 13.7636 22.4159 14.5939 22.4159 15.4596Z" fill="black"/>
<path d="M64.6342 31.7041V18.6469H66.6028V31.7041H64.6342ZM73.8223 31.7041V20.3816H69.21V18.6469H80.4034V20.3816H75.791V31.7041H73.8223ZM87.8441 31.7041V18.6469H90.4877L94.5939 27.0035L98.7 18.6469H101.325V31.7041H99.4687V21.0345L94.5751 30.7714L89.6815 21.0345V31.7041H87.8441ZM109.281 31.872C108.343 31.872 107.493 31.6542 106.731 31.2191C105.981 30.784 105.381 30.1932 104.931 29.447C104.493 28.7009 104.275 27.8676 104.275 26.9475C104.275 26.0396 104.487 25.2188 104.912 24.4853C105.322 23.7549 105.916 23.1439 106.637 22.7133C107.362 22.2656 108.168 22.0418 109.056 22.0418C109.943 22.0418 110.731 22.2656 111.418 22.7133C112.105 23.1484 112.649 23.7453 113.049 24.504C113.462 25.2501 113.668 26.0955 113.668 27.0408V27.5631H106.15C106.241 28.0653 106.439 28.5422 106.731 28.9621C107.025 29.3677 107.41 29.6997 107.856 29.932C108.32 30.1687 108.834 30.2903 109.356 30.2864C109.818 30.2864 110.262 30.2179 110.687 30.0813C111.124 29.932 111.487 29.7208 111.774 29.447L112.974 30.6222C112.412 31.0452 111.831 31.3623 111.231 31.5735C110.643 31.7726 109.993 31.872 109.281 31.872ZM106.168 26.1641H111.812C111.737 25.6665 111.562 25.2314 111.287 24.8584C111.035 24.4827 110.694 24.175 110.293 23.963C109.906 23.7394 109.466 23.6234 109.018 23.6273C108.561 23.6229 108.11 23.7319 107.706 23.9444C107.302 24.1589 106.955 24.4658 106.693 24.8397C106.431 25.2128 106.256 25.6544 106.168 26.1641ZM120.815 31.8533C119.928 31.8533 119.115 31.6355 118.378 31.2004C117.653 30.7777 117.051 30.1731 116.634 29.447C116.209 28.7009 115.997 27.8676 115.997 26.9475C115.997 26.0275 116.209 25.2002 116.634 24.4667C117.062 23.7424 117.669 23.1389 118.397 22.7133C119.134 22.2782 119.953 22.0604 120.853 22.0604C121.378 22.0604 121.884 22.1411 122.372 22.3029C122.859 22.4647 123.309 22.7007 123.722 23.0117V18.6469L125.597 18.2925V31.7041H123.74V30.7901C122.928 31.4989 121.953 31.8533 120.815 31.8533ZM121.059 30.2305C121.609 30.2305 122.109 30.1311 122.559 29.932C123.01 29.7418 123.408 29.4477 123.722 29.074V24.8024C123.409 24.4541 123.021 24.1808 122.559 23.9817C122.109 23.7704 121.609 23.6646 121.059 23.6646C120.459 23.6646 119.915 23.8077 119.428 24.0936C118.943 24.3767 118.542 24.7821 118.265 25.2687C117.978 25.7537 117.834 26.3073 117.834 26.9289C117.834 27.5505 117.978 28.1101 118.265 28.6077C118.545 29.0971 118.945 29.5079 119.428 29.8015C119.915 30.0873 120.459 30.2305 121.059 30.2305ZM128.754 31.7041V22.2096H130.629V31.7041H128.754ZM129.691 20.6801C129.379 20.6801 129.11 20.5682 128.885 20.3443C128.66 20.1079 128.548 19.8346 128.548 19.5236C128.548 19.2004 128.66 18.9327 128.885 18.7215C129.11 18.4977 129.379 18.3857 129.691 18.3857C130.017 18.3857 130.291 18.4977 130.516 18.7215C130.741 18.9327 130.854 19.2004 130.854 19.5236C130.854 19.8346 130.741 20.1079 130.516 20.3443C130.291 20.5682 130.017 20.6801 129.691 20.6801ZM138.256 31.872C137.343 31.872 136.512 31.6542 135.762 31.2191C135.022 30.794 134.408 30.1829 133.981 29.447C133.556 28.7009 133.343 27.8676 133.343 26.9475C133.343 26.0275 133.562 25.2002 134 24.4667C134.423 23.7345 135.031 23.124 135.762 22.6946C136.512 22.2469 137.343 22.0231 138.256 22.0231C138.981 22.0231 139.675 22.1597 140.337 22.4335C140.993 22.6942 141.586 23.0881 142.081 23.59L140.918 24.877C140.556 24.4793 140.149 24.1808 139.699 23.9817C139.257 23.7843 138.778 23.6826 138.293 23.6832C137.738 23.6779 137.193 23.8265 136.718 24.1123C136.256 24.3981 135.887 24.7898 135.612 25.2874C135.337 25.785 135.2 26.338 135.2 26.9475C135.2 27.557 135.337 28.1101 135.612 28.6077C135.878 29.0951 136.265 29.5062 136.737 29.8015C137.212 30.0873 137.743 30.2305 138.331 30.2305C138.818 30.2305 139.275 30.1372 139.699 29.9507C140.125 29.7516 140.524 29.4657 140.899 29.0926L142.043 30.2864C141.549 30.7927 140.955 31.1926 140.299 31.4616C139.653 31.7345 138.958 31.8741 138.256 31.872ZM147.509 31.872C146.821 31.872 146.215 31.754 145.69 31.5175C145.165 31.269 144.752 30.9267 144.452 30.4916C144.152 30.0565 144.002 29.5529 144.002 28.9807C144.002 28.0854 144.346 27.3826 145.034 26.8729C145.721 26.3506 146.665 26.0895 147.865 26.0895C148.802 26.0895 149.671 26.27 150.471 26.6304V25.6232C150.471 24.9391 150.271 24.4294 149.871 24.0936C149.483 23.7578 148.908 23.59 148.146 23.59C147.708 23.59 147.252 23.6585 146.777 23.7952C146.302 23.9197 145.771 24.1183 145.184 24.392L144.49 22.9931C145.215 22.6573 145.889 22.4148 146.515 22.2656C147.133 22.1048 147.769 22.0233 148.408 22.0231C149.646 22.0231 150.602 22.3155 151.277 22.8998C151.964 23.4841 152.308 24.3174 152.308 25.3993V31.7041H150.471V30.8833C150.062 31.2101 149.599 31.4627 149.102 31.6295C148.615 31.7913 148.083 31.872 147.509 31.872ZM145.802 28.9434C145.802 29.4037 145.996 29.7767 146.384 30.0626C146.783 30.3363 147.302 30.473 147.94 30.473C148.439 30.473 148.896 30.4044 149.308 30.2678C149.738 30.1159 150.133 29.8814 150.471 29.5776V27.9734C150.116 27.7651 149.73 27.614 149.327 27.5258C148.94 27.4264 148.502 27.3765 148.015 27.3765C147.327 27.3765 146.783 27.5197 146.384 27.8056C145.996 28.0793 145.802 28.4584 145.802 28.9434ZM155.406 31.7041V18.6469L157.281 18.2925V31.7041H155.406Z" fill="black"/>
</svg>
