<svg width="465" height="316" viewBox="0 0 465 316" fill="none" xmlns="http://www.w3.org/2000/svg">
<path d="M129.398 16.2069C129.084 14.8221 129.173 13.387 129.84 11.9269C131.846 7.53501 133.646 9.46058 138.298 7.87951C150.117 3.86182 160.478 5.81933 172.585 6.9692C178.742 7.55326 185.865 8.29931 191.928 6.63839C195.927 5.54327 201.383 0.412214 205.323 1.05559C218.032 3.13403 205.899 7.8818 203.515 10.6333C196.219 19.0542 198.191 28.0227 188.549 34.1599C181.995 38.3305 178.382 36.8886 171.518 38.0909C169.425 54.2826 156.389 50.6072 156.189 37.119C156.037 26.8318 169 16.0678 150.285 11.3702C149.189 17.261 144.63 20.3775 139.29 22.0088C142.232 27.4912 148.349 29.9004 147.007 37.4567C145.446 46.2495 140.935 44.7027 134.931 43.8608C127.762 42.857 125.217 40.5914 117.179 42.9072C106.893 45.8708 99.8726 59.1331 113.314 64.9509C128.736 71.6265 119.902 52.3251 129.146 47.3013C138.562 42.1816 148.798 63.8033 149.391 71.2774C150.178 81.2224 145.562 78.0397 139.968 81.5989C135.35 84.5374 132.467 88.7331 127.166 91.3225C122.866 93.4215 119.797 93.0428 116.483 96.3601C115.227 97.6172 115.918 102.137 114.483 103.866C110.859 108.231 109.79 105.429 106.848 107.854C101.738 112.073 101.847 110.085 99.934 116.738C98.4165 122.015 102.139 126.9 95.484 128.077C92.2079 111.085 66.402 125.027 72.8723 141.319C77.3905 140.466 82.0794 137.817 86.6045 139.45C86.22 142.521 84.9437 146.172 83.2965 149.119C93.5775 149.398 86.8479 156.356 90.1808 160.584C93.4865 164.777 98.569 163.821 103.606 164.503C103.604 169.687 99.0831 174.04 97.2039 178.927C93.9392 187.412 92.2875 199.85 95.2019 208.636C98.0639 217.265 105.653 218.607 110.948 224.853C117.404 232.476 115.398 237.057 115.375 247.746C115.345 261.674 115.329 274.74 114.97 288.055C114.685 298.5 119.054 306.054 127.974 311.052C132.451 313.562 140.25 317.447 142.189 311.315C136.633 309.503 131.282 305.324 129.551 300.179C125.906 289.346 129.808 285.945 134.51 277.309C135.896 274.765 135.281 271.04 137.281 268.635C139.126 266.417 142.405 266.915 144.179 264.763C149.658 258.133 149.844 247.889 152.57 239.594C155.98 238.992 159.588 238.446 163.06 238.275C164.252 232.496 163.185 226.932 164.971 221.109C167.817 211.831 175.159 207.195 167.043 198.096C161.729 192.139 153.288 190.939 147.596 185.014C140.555 177.688 139.122 176.007 130.877 171.295C123.61 167.143 118.385 160.214 108.72 162.156C103.706 163.164 101.374 168.708 97.6726 169.429C91.3161 170.666 92.515 166.805 89.041 163.814C86.9366 162.003 85.112 159.826 82.7073 158.168C81.2126 157.137 77.8865 158.667 75.9436 157.442C73.077 155.638 71.0727 151.577 68.2585 149.514C65.0688 147.178 61.5562 148.061 58.5508 143.904C52.9383 136.142 58.3756 126.104 48.4337 119.517C45.7673 125.511 54.3556 132.419 51.5027 139.519C42.3661 137.967 44.5865 130.135 42.1431 123.916C38.9285 115.737 35.1883 109.527 37.8342 99.3306C39.3926 93.3234 45.1417 89.381 46.6113 83.4993C48.7567 74.9004 42.2637 75.4229 40.5688 70.2051C38.8648 64.9646 44.8709 61.0792 38.817 55.1405C35.0837 51.481 28.4291 51.5814 23.9132 53.2217C16.3918 55.955 8.16071 78.925 1.71094 67.3076C8.62027 59.7924 5.76963 51.9373 13.9917 45.1339C18.4417 41.4516 24.9756 33.8725 30.0626 31.2625C41.1762 25.5633 58.9239 27.9452 70.1103 29.6768C75.4999 30.5118 80.6279 30.6396 85.9925 28.9011C88.0514 28.2349 90.5494 28.4882 92.5742 27.5642C94.5967 26.6424 92.333 23.3548 94.5899 22.5563C96.9901 21.7099 100.569 24.1602 102.377 23.3366C104.377 22.4263 105.856 20.357 106.511 20.0216C114.153 16.1316 108.224 15.0434 117.202 19.1204C117.202 19.1204 127.51 19.7044 129.41 16.1932" stroke="#D5D5D5" stroke-width="1.5" stroke-linecap="round" stroke-linejoin="round"/>
<path d="M215.841 52.3558C213.38 55.3103 211.887 59.2459 212.247 63.4575C229.899 63.6993 212.914 77.3335 221.311 81.5565C223.458 90.4931 212.695 85.8959 210.231 91.2734C208.837 94.3169 212.254 105.603 214.861 106.737C224.298 110.849 223.342 98.4851 226.075 93.9541C229.257 88.6748 236.531 87.5705 241.904 86.1583C240.681 89.5919 239.752 93.0324 240.981 96.3542C243.217 94.9283 246.466 93.0871 249.125 91.757C250.22 95.5375 248.165 99.5437 246.68 102.749C252.431 105.918 267.146 91.6954 273.621 104.079C277.352 111.218 270.763 113.422 266.266 114.002C263.524 114.355 260.146 111.645 256.813 112.236C253.368 112.847 256.958 117.209 252.677 117.337C238.142 117.771 246.02 96.5733 228.129 102.717C225.165 103.735 224.296 106.454 221.213 107.654C215.104 110.032 212.693 107.082 208.404 114.262C205.536 119.064 204.093 124.969 200.392 130.125C193.264 140.047 192.788 151.876 196.331 163.877C202.148 183.589 228.775 171.255 238.603 184.082C239.511 185.266 241.943 192.904 242.678 194.666C244.748 199.63 246.395 201.323 246.718 207.234C246.91 210.711 247.515 216.794 247.308 219.84C246.819 227.019 240.665 236.57 242.969 243.834C244.484 248.611 249.339 249.355 252.108 252.802C254.642 255.955 255.937 264.196 258.865 265.978C264.004 269.106 268.47 265.168 270.932 260.799C272.167 258.604 270.95 255.981 271.944 254.08C273.91 250.32 277.912 248.65 279.754 245.417C283.099 239.545 279.984 235.361 282.002 230.339C284.393 224.393 292.044 224.117 294.137 216.928C298.931 200.474 278.496 200.093 294.328 187.575C300.332 182.827 310.768 174.463 308.475 165.077C306.935 158.767 303.517 158.687 298.098 155.431C285.39 147.793 282.1 142.283 276.501 128.706C282.664 126.166 287.06 140.725 291.116 145.116C295.339 149.689 298.31 152.032 303.747 155.02C309.555 150.072 322.073 143.12 317.989 135.587C314.044 128.309 303.072 130.524 299.072 122.824C303.47 115.405 312.577 127.544 318.769 129.155C321.841 129.954 328.543 128.744 331.048 130.357C334.028 132.276 334.281 137.765 336.901 140.46C337.645 140.464 338.148 140.109 338.408 139.392C345.781 148.468 342.209 164.044 350.404 172.96C354.301 171.278 351.655 170.737 355.971 173.384C355.509 169.14 350.397 160.704 351.255 157.005C352.128 153.236 354.633 153.729 356.016 150.82C358.328 145.958 362.439 135.511 369.253 135.938C376.817 136.413 379.581 151.32 381.588 156.8C384.038 163.489 388.466 171.436 378.555 174.477C378.817 180.087 384.084 180.053 386.784 184.002C389.539 188.031 389.38 193.954 392.779 198.113C396.883 203.137 396.167 200.436 401.629 203.828C404.857 205.834 407.863 206.815 409.462 210.759C413.55 208.136 418.797 206.201 423.392 207.629C422.605 201.944 419.834 204.223 415.889 203.198C407.451 201.011 405.472 204.946 399.14 197.602C395.78 193.705 393.409 183.92 392.358 178.885C391.223 173.446 386.256 163.907 386.996 158.869C392.456 157.302 394.576 162.88 398.018 166.252C409.787 155.522 394.715 149.987 395.261 139.575C395.668 131.811 399.493 134.028 405.123 130.059C411.05 125.881 413.05 128.845 413.616 117.437C413.832 113.08 413.477 111.277 412.347 107.23C411.118 102.831 404.928 101.086 411.43 96.3337C416.041 98.565 416.364 102.895 418.819 106.582C422.491 102.181 419.579 98.3733 421.197 93.872C421.647 92.6172 427.123 88.0086 427.114 88.0679C428.045 81.8052 425.424 79.0492 424.257 73.1242C424.236 71.0069 424.643 68.9582 425.478 66.9778C424.764 64.094 422.946 62.2483 420.03 61.4407C419.854 58.0162 415.386 57.5941 420.105 54.4228C426.889 49.8621 430.654 57.188 433.436 61.4338C435.684 64.8629 436.46 68.4471 439.315 71.7963C442.084 75.0429 445.378 72.9873 446.727 78.1275C448.77 66.3116 442.179 62.2506 439.404 52.4265C444.616 52.2531 457.199 46.5198 456.003 39.5818C454.447 30.5631 443.406 35.9542 437.09 35.6165C428.104 35.1352 422.325 29.0504 414.108 27.4351C408.764 26.3857 404.373 29.0071 398.514 27.5378C396.492 27.0313 395.48 24.0129 393.118 23.3741C387.182 21.7725 386.17 23.6981 381.75 24.3939C380.061 24.6586 377.634 27.6336 375.084 28.0626C369.387 29.0208 363.875 22.8927 358.501 22.9452C347.499 23.0479 349.312 27.6473 338.442 18.8819C333.518 14.9121 327.585 7.33755 320.685 10.6754C327.444 21.4873 293.009 31.681 286.172 30.8528C286.154 25.8381 291.671 23.3513 293.48 18.9024C281.117 6.84931 280.392 35.4911 269.248 38.165C262.733 29.7919 253.064 28.8907 243.813 33.9009C241.399 35.2082 233.305 41.2792 232.609 43.7409C230.907 49.7526 236.808 49.1549 237.336 53.4715C238.203 60.5783 230.807 65.1047 225.149 62.7046C225.149 62.7046 215.867 56.013 215.857 52.3581L215.841 52.3558Z" stroke="#D5D5D5" stroke-width="1.5" stroke-linecap="round" stroke-linejoin="round"/>
<path d="M420.44 223.803C421.059 231.61 409.95 231.763 408.136 239.57C402.717 240.937 401.282 245.046 400.824 250.035C400.745 250.918 401.848 264.294 401.691 264.11C405.893 269.076 421.218 254.851 429.288 259.325C432.752 261.246 430.675 263.338 432.573 265.492C432.773 265.72 437.287 271.422 437.253 271.351C438.11 273.085 440.299 285.273 443.793 284.759C449.472 283.924 444.353 279.485 445.618 277.205C448.63 271.775 448.787 274.703 454.193 270.454C458.797 266.836 462.085 258.846 463.466 252.862C465.823 242.643 460.927 239.139 458.827 229.972C457.241 223.05 458.711 215.708 456.995 208.93C465.281 210.415 464.262 197.251 460.151 193.16C456.877 189.902 440.376 184.883 435.494 187.173C436.092 191.335 440.52 193.427 442.929 196.616C444.066 198.12 442.019 201.216 443.709 203.096C444.487 203.963 448.352 203.199 448.98 204.152C453.583 211.159 445.183 215.617 448.398 224.727C440.968 222.174 446.724 216.173 442.772 211.768C436.397 204.663 436.547 212.181 432.211 214.932C429.372 216.735 424.119 216.532 421.828 218.14C415.79 222.384 421.386 225.464 420.442 223.8L420.44 223.803Z" stroke="#D5D5D5" stroke-width="1.5" stroke-linecap="round" stroke-linejoin="round"/>
<path d="M252.537 72.4769C251.565 72.4769 250.731 72.3449 250.035 72.0809C249.339 71.8049 248.805 71.3669 248.433 70.7669C248.061 70.1669 247.875 69.3749 247.875 68.3909V61.4429C247.875 61.0949 247.809 60.8369 247.677 60.6689C247.557 60.5009 247.395 60.3929 247.191 60.3449C246.999 60.2849 246.789 60.2549 246.561 60.2549H246.165V59.4449H251.673V60.2549H251.295C251.055 60.2549 250.833 60.2849 250.629 60.3449C250.425 60.4049 250.263 60.5249 250.143 60.7049C250.035 60.8729 249.981 61.1429 249.981 61.5149V68.5169C249.981 69.2009 250.101 69.7529 250.341 70.1729C250.593 70.5809 250.941 70.8809 251.385 71.0729C251.829 71.2529 252.333 71.3429 252.897 71.3429C253.545 71.3429 254.085 71.2289 254.517 71.0009C254.949 70.7729 255.267 70.4549 255.471 70.0469C255.687 69.6269 255.795 69.1349 255.795 68.5709V61.4429C255.795 61.0949 255.735 60.8369 255.615 60.6689C255.495 60.5009 255.333 60.3929 255.129 60.3449C254.937 60.2849 254.721 60.2549 254.481 60.2549H254.103V59.4449H258.675V60.2549H258.297C258.057 60.2549 257.835 60.2849 257.631 60.3449C257.427 60.4049 257.265 60.5249 257.145 60.7049C257.025 60.8729 256.965 61.1429 256.965 61.5149V68.6069C256.965 69.4109 256.797 70.1009 256.461 70.6769C256.137 71.2529 255.645 71.6969 254.985 72.0089C254.337 72.3209 253.521 72.4769 252.537 72.4769ZM259.568 72.2969V71.4869H259.946C260.186 71.4869 260.402 71.4629 260.594 71.4149C260.798 71.3549 260.96 71.2409 261.08 71.0729C261.212 70.9049 261.278 70.6529 261.278 70.3169V61.4429C261.278 61.0949 261.212 60.8369 261.08 60.6689C260.96 60.5009 260.798 60.3929 260.594 60.3449C260.402 60.2849 260.186 60.2549 259.946 60.2549H259.568V59.4449H265.076V60.2549H264.698C264.458 60.2549 264.236 60.2849 264.032 60.3449C263.828 60.4049 263.666 60.5249 263.546 60.7049C263.426 60.8729 263.366 61.1429 263.366 61.5149V66.3569L266.84 62.4149C267.104 62.1269 267.302 61.8749 267.434 61.6589C267.578 61.4429 267.68 61.2569 267.74 61.1009C267.812 60.9329 267.848 60.7889 267.848 60.6689C267.848 60.5489 267.812 60.4589 267.74 60.3989C267.68 60.3389 267.584 60.2969 267.452 60.2729C267.32 60.2489 267.146 60.2369 266.93 60.2369V59.4449H271.142V60.2369C270.854 60.2369 270.578 60.3089 270.314 60.4529C270.062 60.5849 269.804 60.7769 269.54 61.0289C269.276 61.2689 268.994 61.5569 268.694 61.8929L266.138 64.7369L269.81 70.0469C269.99 70.2869 270.158 70.4969 270.314 70.6769C270.482 70.8569 270.644 71.0129 270.8 71.1449C270.968 71.2649 271.136 71.3549 271.304 71.4149C271.472 71.4629 271.646 71.4869 271.826 71.4869H271.862V72.2969H271.448C270.824 72.2969 270.308 72.2729 269.9 72.2249C269.504 72.1649 269.174 72.0749 268.91 71.9549C268.646 71.8229 268.418 71.6549 268.226 71.4509C268.034 71.2469 267.83 70.9829 267.614 70.6589L264.698 66.3029L263.366 67.5809V70.2269C263.366 70.5869 263.426 70.8569 263.546 71.0369C263.666 71.2169 263.828 71.3369 264.032 71.3969C264.236 71.4569 264.458 71.4869 264.698 71.4869H265.076V72.2969H259.568ZM281.433 72.4769C280.473 72.4769 279.669 72.3209 279.021 72.0089C278.373 71.6969 277.887 71.2589 277.563 70.6949C277.239 70.1189 277.077 69.4469 277.077 68.6789C277.077 67.9949 277.203 67.4249 277.455 66.9689C277.707 66.5129 278.055 66.1349 278.499 65.8349C278.943 65.5349 279.447 65.2649 280.011 65.0249C279.711 64.6649 279.453 64.3229 279.237 63.9989C279.033 63.6749 278.877 63.3449 278.769 63.0089C278.673 62.6609 278.625 62.2949 278.625 61.9109C278.625 61.3829 278.745 60.9209 278.985 60.5249C279.237 60.1289 279.621 59.8229 280.137 59.6069C280.653 59.3789 281.307 59.2649 282.099 59.2649C282.867 59.2649 283.491 59.3849 283.971 59.6249C284.451 59.8529 284.799 60.1589 285.015 60.5429C285.243 60.9269 285.357 61.3529 285.357 61.8209C285.357 62.3249 285.255 62.7629 285.051 63.1349C284.847 63.5069 284.529 63.8429 284.097 64.1429C283.665 64.4429 283.095 64.7429 282.387 65.0429L285.501 68.3369C285.645 67.8329 285.741 67.3289 285.789 66.8249C285.837 66.3089 285.861 65.8409 285.861 65.4209V64.7009H289.281V65.5109H289.083C288.819 65.5109 288.561 65.5409 288.309 65.6009C288.069 65.6489 287.853 65.7569 287.661 65.9249C287.469 66.0929 287.319 66.3629 287.211 66.7349C287.103 67.1069 286.983 67.5089 286.851 67.9409C286.719 68.3609 286.551 68.7929 286.347 69.2369L288.057 71.0369C288.177 71.1569 288.303 71.2529 288.435 71.3249C288.579 71.3849 288.747 71.4269 288.939 71.4509C289.143 71.4749 289.389 71.4869 289.677 71.4869H289.839V72.2969H286.779L285.357 70.7849C285.057 71.0969 284.721 71.3849 284.349 71.6489C283.977 71.9009 283.551 72.1049 283.071 72.2609C282.591 72.4049 282.045 72.4769 281.433 72.4769ZM281.685 71.4149C282.369 71.4149 282.951 71.2889 283.431 71.0369C283.923 70.7729 284.331 70.4429 284.655 70.0469L280.713 65.8169C280.365 66.0329 280.065 66.2789 279.813 66.5549C279.573 66.8309 279.393 67.1489 279.273 67.5089C279.153 67.8569 279.093 68.2709 279.093 68.7509C279.093 69.1709 279.153 69.5429 279.273 69.8669C279.393 70.1909 279.567 70.4669 279.795 70.6949C280.023 70.9229 280.299 71.1029 280.623 71.2349C280.947 71.3549 281.301 71.4149 281.685 71.4149ZM281.739 64.3229C282.387 64.0229 282.855 63.6869 283.143 63.3149C283.443 62.9309 283.593 62.4389 283.593 61.8389C283.593 61.5269 283.545 61.2509 283.449 61.0109C283.353 60.7589 283.191 60.5609 282.963 60.4169C282.735 60.2729 282.429 60.2009 282.045 60.2009C281.553 60.2009 281.175 60.3569 280.911 60.6689C280.647 60.9689 280.515 61.3649 280.515 61.8569C280.515 62.1449 280.557 62.4209 280.641 62.6849C280.725 62.9369 280.857 63.1949 281.037 63.4589C281.217 63.7229 281.451 64.0109 281.739 64.3229ZM295.321 72.2969V71.4869H295.699C295.939 71.4869 296.155 71.4629 296.347 71.4149C296.551 71.3549 296.713 71.2409 296.833 71.0729C296.965 70.9049 297.031 70.6529 297.031 70.3169V61.5149C297.031 61.1429 296.971 60.8729 296.851 60.7049C296.731 60.5249 296.569 60.4049 296.365 60.3449C296.173 60.2849 295.951 60.2549 295.699 60.2549H295.321V59.4449H304.645L304.735 62.6309H303.709L303.619 61.8389C303.595 61.5749 303.529 61.3349 303.421 61.1189C303.313 60.9029 303.157 60.7289 302.953 60.5969C302.749 60.4649 302.485 60.3989 302.161 60.3989H299.137V65.1149H303.457V66.0509H299.137V71.3429H302.647C302.983 71.3429 303.259 71.2769 303.475 71.1449C303.691 71.0129 303.853 70.8389 303.961 70.6229C304.081 70.4069 304.159 70.1669 304.195 69.9029L304.321 69.1109H305.347L305.221 72.2969H295.321ZM310.889 72.4769C309.941 72.4769 309.209 72.1949 308.693 71.6309C308.189 71.0669 307.937 70.1669 307.937 68.9309V64.7009C307.937 64.3409 307.871 64.0769 307.739 63.9089C307.619 63.7289 307.451 63.6089 307.235 63.5489C307.031 63.4889 306.797 63.4589 306.533 63.4589H306.479V62.6489H309.917V68.7329C309.917 69.2489 309.965 69.6929 310.061 70.0649C310.169 70.4369 310.349 70.7249 310.601 70.9289C310.865 71.1209 311.219 71.2169 311.663 71.2169C312.143 71.2169 312.539 71.0969 312.851 70.8569C313.163 70.6169 313.391 70.2809 313.535 69.8489C313.679 69.4169 313.751 68.9189 313.751 68.3549V64.7189C313.751 64.3469 313.685 64.0709 313.553 63.8909C313.433 63.7109 313.265 63.5969 313.049 63.5489C312.833 63.4889 312.593 63.4589 312.329 63.4589H312.275V62.6489H315.731V70.2989C315.731 70.6469 315.791 70.9109 315.911 71.0909C316.043 71.2589 316.217 71.3669 316.433 71.4149C316.649 71.4629 316.883 71.4869 317.135 71.4869H317.207V72.2969H314.147L313.877 70.8929H313.787C313.607 71.2169 313.403 71.4869 313.175 71.7029C312.959 71.9069 312.731 72.0689 312.491 72.1889C312.251 72.2969 311.993 72.3689 311.717 72.4049C311.453 72.4529 311.177 72.4769 310.889 72.4769ZM318.153 72.2969V71.4869H318.207C318.483 71.4869 318.729 71.4569 318.945 71.3969C319.173 71.3369 319.347 71.2169 319.467 71.0369C319.599 70.8449 319.665 70.5629 319.665 70.1909V64.6829C319.665 64.3229 319.599 64.0589 319.467 63.8909C319.335 63.7109 319.161 63.5969 318.945 63.5489C318.741 63.4889 318.507 63.4589 318.243 63.4589H318.189V62.6489H321.195L321.537 64.3229H321.627C321.783 63.9629 321.951 63.6449 322.131 63.3689C322.323 63.0809 322.569 62.8589 322.869 62.7029C323.181 62.5349 323.595 62.4509 324.111 62.4509C324.783 62.4509 325.281 62.5709 325.605 62.8109C325.929 63.0509 326.091 63.3869 326.091 63.8189C326.091 64.2389 325.941 64.5809 325.641 64.8449C325.353 65.0969 324.891 65.2229 324.255 65.2229C324.255 64.8869 324.225 64.6169 324.165 64.4129C324.105 64.1969 324.009 64.0409 323.877 63.9449C323.745 63.8369 323.559 63.7829 323.319 63.7829C322.995 63.7829 322.719 63.9089 322.491 64.1609C322.275 64.4129 322.107 64.7309 321.987 65.1149C321.867 65.4989 321.777 65.8949 321.717 66.3029C321.669 66.7109 321.645 67.0709 321.645 67.3829V70.2809C321.645 70.6289 321.711 70.8929 321.843 71.0729C321.975 71.2409 322.143 71.3549 322.347 71.4149C322.563 71.4629 322.803 71.4869 323.067 71.4869H323.589V72.2969H318.153ZM331.623 72.4769C330.291 72.4769 329.241 72.0629 328.473 71.2349C327.705 70.4069 327.321 69.1469 327.321 67.4549C327.321 65.7629 327.687 64.5089 328.419 63.6929C329.151 62.8649 330.237 62.4509 331.677 62.4509C333.009 62.4509 334.059 62.8649 334.827 63.6929C335.595 64.5089 335.979 65.7629 335.979 67.4549C335.979 69.1469 335.607 70.4069 334.863 71.2349C334.131 72.0629 333.051 72.4769 331.623 72.4769ZM331.659 71.4869C332.223 71.4869 332.673 71.3369 333.009 71.0369C333.345 70.7369 333.585 70.2869 333.729 69.6869C333.873 69.0749 333.945 68.3309 333.945 67.4549C333.945 66.5669 333.867 65.8289 333.711 65.2409C333.567 64.6529 333.327 64.2089 332.991 63.9089C332.655 63.6089 332.205 63.4589 331.641 63.4589C331.077 63.4589 330.627 63.6089 330.291 63.9089C329.955 64.2089 329.715 64.6529 329.571 65.2409C329.427 65.8289 329.355 66.5669 329.355 67.4549C329.355 68.3309 329.427 69.0749 329.571 69.6869C329.727 70.2869 329.973 70.7369 330.309 71.0369C330.645 71.3369 331.095 71.4869 331.659 71.4869ZM337.238 76.6169V75.8069H337.4C337.652 75.8069 337.88 75.7769 338.084 75.7169C338.3 75.6569 338.474 75.5369 338.606 75.3569C338.75 75.1769 338.822 74.9069 338.822 74.5469V64.7009C338.822 64.3289 338.756 64.0589 338.624 63.8909C338.492 63.7109 338.318 63.5969 338.102 63.5489C337.898 63.4889 337.67 63.4589 337.418 63.4589H337.202V62.6489H340.46L340.676 64.2149H340.748C341.024 63.6869 341.378 63.2669 341.81 62.9549C342.242 62.6309 342.806 62.4689 343.502 62.4689C344.702 62.4689 345.614 62.8709 346.238 63.6749C346.874 64.4669 347.192 65.7329 347.192 67.4729C347.192 69.2129 346.874 70.4849 346.238 71.2889C345.614 72.0929 344.714 72.4949 343.538 72.4949C342.842 72.4949 342.272 72.3509 341.828 72.0629C341.396 71.7749 341.048 71.4029 340.784 70.9469H340.712C340.736 71.1509 340.748 71.3849 340.748 71.6489C340.76 71.9129 340.772 72.1649 340.784 72.4049C340.796 72.6449 340.802 72.8489 340.802 73.0169V74.6189C340.802 74.9549 340.868 75.2069 341 75.3749C341.144 75.5549 341.324 75.6689 341.54 75.7169C341.756 75.7769 341.984 75.8069 342.224 75.8069H342.368V76.6169H337.238ZM343.088 71.2889C343.58 71.2889 343.976 71.1449 344.276 70.8569C344.588 70.5569 344.81 70.1249 344.942 69.5609C345.086 68.9969 345.158 68.2949 345.158 67.4549C345.158 66.6149 345.086 65.9189 344.942 65.3669C344.81 64.8029 344.588 64.3829 344.276 64.1069C343.976 63.8189 343.58 63.6749 343.088 63.6749C342.5 63.6749 342.038 63.8129 341.702 64.0889C341.378 64.3649 341.144 64.7849 341 65.3489C340.868 65.9129 340.802 66.6209 340.802 67.4729C340.802 68.3009 340.868 68.9969 341 69.5609C341.144 70.1249 341.384 70.5569 341.72 70.8569C342.056 71.1449 342.512 71.2889 343.088 71.2889ZM353.402 72.4769C352.034 72.4769 350.972 72.0449 350.216 71.1809C349.472 70.3169 349.1 69.1049 349.1 67.5449C349.1 65.8529 349.46 64.5809 350.18 63.7289C350.9 62.8769 351.914 62.4509 353.222 62.4509C354.422 62.4509 355.364 62.8169 356.048 63.5489C356.744 64.2689 357.092 65.3429 357.092 66.7709V67.6169H351.134C351.158 68.4689 351.266 69.1709 351.458 69.7229C351.662 70.2629 351.95 70.6589 352.322 70.9109C352.706 71.1629 353.174 71.2889 353.726 71.2889C354.146 71.2889 354.518 71.2289 354.842 71.1089C355.178 70.9769 355.466 70.8149 355.706 70.6229C355.958 70.4189 356.156 70.2029 356.3 69.9749C356.408 70.0229 356.498 70.1069 356.57 70.2269C356.642 70.3469 356.678 70.4909 356.678 70.6589C356.678 70.9229 356.558 71.1989 356.318 71.4869C356.09 71.7629 355.73 71.9969 355.238 72.1889C354.758 72.3809 354.146 72.4769 353.402 72.4769ZM355.022 66.5909C355.022 65.9669 354.962 65.4209 354.842 64.9529C354.722 64.4849 354.53 64.1249 354.266 63.8729C354.002 63.6089 353.648 63.4769 353.204 63.4769C352.796 63.4769 352.442 63.5969 352.142 63.8369C351.854 64.0769 351.626 64.4309 351.458 64.8989C351.302 65.3549 351.206 65.9189 351.17 66.5909H355.022Z" fill="#080808"/>
<path d="M75.5365 103.477C74.5645 103.477 73.7305 103.345 73.0345 103.081C72.3385 102.805 71.8045 102.367 71.4325 101.767C71.0605 101.167 70.8745 100.375 70.8745 99.3909V92.4429C70.8745 92.0949 70.8085 91.8369 70.6765 91.6689C70.5565 91.5009 70.3945 91.3929 70.1905 91.3449C69.9985 91.2849 69.7885 91.2549 69.5605 91.2549H69.1645V90.4449H74.6725V91.2549H74.2945C74.0545 91.2549 73.8325 91.2849 73.6285 91.3449C73.4245 91.4049 73.2625 91.5249 73.1425 91.7049C73.0345 91.8729 72.9805 92.1429 72.9805 92.5149V99.5169C72.9805 100.201 73.1005 100.753 73.3405 101.173C73.5925 101.581 73.9405 101.881 74.3845 102.073C74.8285 102.253 75.3325 102.343 75.8965 102.343C76.5445 102.343 77.0845 102.229 77.5165 102.001C77.9485 101.773 78.2665 101.455 78.4705 101.047C78.6865 100.627 78.7945 100.135 78.7945 99.5709V92.4429C78.7945 92.0949 78.7345 91.8369 78.6145 91.6689C78.4945 91.5009 78.3325 91.3929 78.1285 91.3449C77.9365 91.2849 77.7205 91.2549 77.4805 91.2549H77.1025V90.4449H81.6745V91.2549H81.2965C81.0565 91.2549 80.8345 91.2849 80.6305 91.3449C80.4265 91.4049 80.2645 91.5249 80.1445 91.7049C80.0245 91.8729 79.9645 92.1429 79.9645 92.5149V99.6069C79.9645 100.411 79.7965 101.101 79.4605 101.677C79.1365 102.253 78.6445 102.697 77.9845 103.009C77.3365 103.321 76.5205 103.477 75.5365 103.477ZM86.4735 103.477C85.8255 103.477 85.2615 103.417 84.7815 103.297C84.3135 103.165 83.9235 102.985 83.6115 102.757C83.2995 102.517 83.0715 102.241 82.9275 101.929C82.7835 101.617 82.7115 101.287 82.7115 100.939C82.7115 100.651 82.7715 100.411 82.8915 100.219C83.0235 100.015 83.2035 99.8649 83.4315 99.7689C83.6595 99.6609 83.9175 99.6069 84.2055 99.6069C84.2295 100.159 84.3315 100.657 84.5115 101.101C84.6915 101.545 84.9555 101.899 85.3035 102.163C85.6635 102.415 86.1135 102.541 86.6535 102.541C87.4335 102.541 88.0395 102.349 88.4715 101.965C88.9155 101.581 89.1375 101.047 89.1375 100.363C89.1375 99.9309 89.0415 99.5649 88.8495 99.2649C88.6575 98.9529 88.3575 98.6709 87.9495 98.4189C87.5415 98.1549 86.9835 97.8789 86.2755 97.5909C85.7115 97.3629 85.2135 97.1169 84.7815 96.8529C84.3615 96.5769 84.0135 96.2829 83.7375 95.9709C83.4735 95.6589 83.2755 95.3109 83.1435 94.9269C83.0235 94.5309 82.9635 94.0989 82.9635 93.6309C82.9635 92.9229 83.1375 92.3229 83.4855 91.8309C83.8335 91.3269 84.3135 90.9429 84.9255 90.6789C85.5495 90.4029 86.2515 90.2649 87.0315 90.2649C87.7995 90.2649 88.4415 90.3609 88.9575 90.5529C89.4735 90.7449 89.8635 90.9969 90.1275 91.3089C90.3915 91.6089 90.5235 91.9389 90.5235 92.2989C90.5235 92.6949 90.3795 93.0069 90.0915 93.2349C89.8035 93.4509 89.4015 93.5589 88.8855 93.5589C88.8855 93.1989 88.8195 92.8389 88.6875 92.4789C88.5675 92.1189 88.3635 91.8189 88.0755 91.5789C87.7875 91.3389 87.3915 91.2189 86.8875 91.2189C86.4675 91.2189 86.1015 91.2969 85.7895 91.4529C85.4775 91.6089 85.2375 91.8309 85.0695 92.1189C84.9015 92.4069 84.8175 92.7549 84.8175 93.1629C84.8175 93.6069 84.9015 93.9909 85.0695 94.3149C85.2375 94.6269 85.5255 94.9149 85.9335 95.1789C86.3535 95.4429 86.9235 95.7249 87.6435 96.0249C88.3875 96.3249 89.0115 96.6489 89.5155 96.9969C90.0195 97.3449 90.3975 97.7409 90.6495 98.1849C90.9015 98.6289 91.0275 99.1569 91.0275 99.7689C91.0275 100.537 90.8415 101.197 90.4695 101.749C90.0975 102.301 89.5695 102.727 88.8855 103.027C88.2015 103.327 87.3975 103.477 86.4735 103.477ZM91.6059 103.297V102.487H91.9119C92.1519 102.487 92.3439 102.451 92.4879 102.379C92.6439 102.307 92.7819 102.175 92.9019 101.983C93.0339 101.779 93.1659 101.485 93.2979 101.101L97.2759 90.4449H98.9679L102.946 101.443C103.054 101.719 103.162 101.935 103.27 102.091C103.39 102.235 103.528 102.337 103.684 102.397C103.852 102.457 104.044 102.487 104.26 102.487H104.512V103.297H99.2919V102.487H99.7779C100.09 102.487 100.336 102.421 100.516 102.289C100.696 102.157 100.786 101.947 100.786 101.659C100.786 101.587 100.78 101.515 100.768 101.443C100.756 101.371 100.738 101.293 100.714 101.209C100.69 101.125 100.666 101.047 100.642 100.975L99.9399 99.0129H95.2959L94.6659 100.813C94.6299 100.909 94.5999 101.011 94.5759 101.119C94.5519 101.215 94.5279 101.311 94.5039 101.407C94.4919 101.491 94.4859 101.575 94.4859 101.659C94.4859 101.935 94.5819 102.145 94.7739 102.289C94.9659 102.421 95.2299 102.487 95.5659 102.487H96.0879V103.297H91.6059ZM95.6559 98.0589H99.5979L98.5359 94.9629C98.4279 94.6269 98.3139 94.2969 98.1939 93.9729C98.0859 93.6489 97.9899 93.3369 97.9059 93.0369C97.8219 92.7249 97.7439 92.4249 97.6719 92.1369C97.6239 92.3529 97.5699 92.5689 97.5099 92.7849C97.4499 92.9889 97.3839 93.1989 97.3119 93.4149C97.2519 93.6309 97.1799 93.8589 97.0959 94.0989C97.0239 94.3269 96.9339 94.5669 96.8259 94.8189L95.6559 98.0589Z" fill="#080808"/>
<path d="M339.63 130.297V129.487H340.008C340.248 129.487 340.464 129.463 340.656 129.415C340.86 129.355 341.022 129.241 341.142 129.073C341.274 128.905 341.34 128.653 341.34 128.317V119.443C341.34 119.095 341.274 118.837 341.142 118.669C341.022 118.501 340.86 118.393 340.656 118.345C340.464 118.285 340.248 118.255 340.008 118.255H339.63V117.445H344.04L347.55 127.291L351.024 117.445H355.326V118.255H354.948C354.708 118.255 354.486 118.285 354.282 118.345C354.078 118.405 353.916 118.525 353.796 118.705C353.676 118.873 353.616 119.143 353.616 119.515V128.227C353.616 128.587 353.676 128.857 353.796 129.037C353.916 129.217 354.078 129.337 354.282 129.397C354.486 129.457 354.708 129.487 354.948 129.487H355.326V130.297H350.268V129.487H350.358C350.61 129.487 350.826 129.463 351.006 129.415C351.198 129.355 351.342 129.247 351.438 129.091C351.534 128.935 351.588 128.701 351.6 128.389V118.921L347.622 130.297H346.578L342.51 118.939V128.227C342.51 128.587 342.558 128.857 342.654 129.037C342.762 129.217 342.912 129.337 343.104 129.397C343.308 129.457 343.542 129.487 343.806 129.487H343.878V130.297H339.63ZM356.341 130.297V129.487H356.575C356.815 129.487 357.043 129.463 357.259 129.415C357.475 129.355 357.649 129.241 357.781 129.073C357.925 128.893 357.997 128.635 357.997 128.299V122.647C357.997 122.299 357.925 122.041 357.781 121.873C357.649 121.705 357.475 121.597 357.259 121.549C357.043 121.489 356.815 121.459 356.575 121.459H356.485V120.649H359.977V128.227C359.977 128.587 360.043 128.857 360.175 129.037C360.307 129.217 360.481 129.337 360.697 129.397C360.925 129.457 361.159 129.487 361.399 129.487H361.633V130.297H356.341ZM358.915 118.903C358.579 118.903 358.297 118.813 358.069 118.633C357.853 118.453 357.745 118.153 357.745 117.733C357.745 117.301 357.859 117.001 358.087 116.833C358.315 116.653 358.591 116.563 358.915 116.563C359.227 116.563 359.497 116.653 359.725 116.833C359.965 117.001 360.085 117.301 360.085 117.733C360.085 118.153 359.965 118.453 359.725 118.633C359.497 118.813 359.227 118.903 358.915 118.903ZM366.513 130.477C365.721 130.477 365.049 130.303 364.497 129.955C363.957 129.607 363.543 129.067 363.255 128.335C362.979 127.591 362.841 126.643 362.841 125.491C362.841 124.327 362.979 123.379 363.255 122.647C363.543 121.903 363.957 121.351 364.497 120.991C365.049 120.631 365.715 120.451 366.495 120.451C367.179 120.451 367.737 120.595 368.169 120.883C368.613 121.171 368.967 121.543 369.231 121.999H369.339C369.315 121.795 369.291 121.573 369.267 121.333C369.255 121.093 369.243 120.853 369.231 120.613C369.231 120.373 369.231 120.157 369.231 119.965V118.615C369.231 118.267 369.159 118.009 369.015 117.841C368.883 117.673 368.703 117.565 368.475 117.517C368.259 117.457 368.019 117.427 367.755 117.427H367.611V116.617H371.211V128.245C371.211 128.605 371.277 128.875 371.409 129.055C371.553 129.235 371.733 129.355 371.949 129.415C372.177 129.463 372.423 129.487 372.687 129.487H372.813V130.297H369.645L369.357 128.731H369.267C369.003 129.271 368.655 129.697 368.223 130.009C367.791 130.321 367.221 130.477 366.513 130.477ZM366.945 129.271C367.809 129.271 368.403 128.959 368.727 128.335C369.063 127.711 369.231 126.757 369.231 125.473C369.231 124.657 369.159 123.967 369.015 123.403C368.871 122.827 368.631 122.395 368.295 122.107C367.971 121.807 367.515 121.657 366.927 121.657C366.435 121.657 366.039 121.807 365.739 122.107C365.439 122.407 365.217 122.839 365.073 123.403C364.929 123.967 364.857 124.669 364.857 125.509C364.857 126.349 364.929 127.051 365.073 127.615C365.217 128.167 365.439 128.581 365.739 128.857C366.051 129.133 366.453 129.271 366.945 129.271ZM377.745 130.477C376.953 130.477 376.281 130.303 375.729 129.955C375.189 129.607 374.775 129.067 374.487 128.335C374.211 127.591 374.073 126.643 374.073 125.491C374.073 124.327 374.211 123.379 374.487 122.647C374.775 121.903 375.189 121.351 375.729 120.991C376.281 120.631 376.947 120.451 377.727 120.451C378.411 120.451 378.969 120.595 379.401 120.883C379.845 121.171 380.199 121.543 380.463 121.999H380.571C380.547 121.795 380.523 121.573 380.499 121.333C380.487 121.093 380.475 120.853 380.463 120.613C380.463 120.373 380.463 120.157 380.463 119.965V118.615C380.463 118.267 380.391 118.009 380.247 117.841C380.115 117.673 379.935 117.565 379.707 117.517C379.491 117.457 379.251 117.427 378.987 117.427H378.843V116.617H382.443V128.245C382.443 128.605 382.509 128.875 382.641 129.055C382.785 129.235 382.965 129.355 383.181 129.415C383.409 129.463 383.655 129.487 383.919 129.487H384.045V130.297H380.877L380.589 128.731H380.499C380.235 129.271 379.887 129.697 379.455 130.009C379.023 130.321 378.453 130.477 377.745 130.477ZM378.177 129.271C379.041 129.271 379.635 128.959 379.959 128.335C380.295 127.711 380.463 126.757 380.463 125.473C380.463 124.657 380.391 123.967 380.247 123.403C380.103 122.827 379.863 122.395 379.527 122.107C379.203 121.807 378.747 121.657 378.159 121.657C377.667 121.657 377.271 121.807 376.971 122.107C376.671 122.407 376.449 122.839 376.305 123.403C376.161 123.967 376.089 124.669 376.089 125.509C376.089 126.349 376.161 127.051 376.305 127.615C376.449 128.167 376.671 128.581 376.971 128.857C377.283 129.133 377.685 129.271 378.177 129.271ZM384.604 130.297V129.487H384.838C385.09 129.487 385.324 129.457 385.54 129.397C385.756 129.337 385.93 129.217 386.062 129.037C386.194 128.857 386.26 128.587 386.26 128.227V118.615C386.26 118.267 386.188 118.009 386.044 117.841C385.912 117.673 385.738 117.565 385.522 117.517C385.306 117.457 385.078 117.427 384.838 117.427H384.604V116.617H388.24V128.227C388.24 128.587 388.306 128.857 388.438 129.037C388.57 129.217 388.744 129.337 388.96 129.397C389.188 129.457 389.422 129.487 389.662 129.487H389.878V130.297H384.604ZM395.408 130.477C394.04 130.477 392.978 130.045 392.222 129.181C391.478 128.317 391.106 127.105 391.106 125.545C391.106 123.853 391.466 122.581 392.186 121.729C392.906 120.877 393.92 120.451 395.228 120.451C396.428 120.451 397.37 120.817 398.054 121.549C398.75 122.269 399.098 123.343 399.098 124.771V125.617H393.14C393.164 126.469 393.272 127.171 393.464 127.723C393.668 128.263 393.956 128.659 394.328 128.911C394.712 129.163 395.18 129.289 395.732 129.289C396.152 129.289 396.524 129.229 396.848 129.109C397.184 128.977 397.472 128.815 397.712 128.623C397.964 128.419 398.162 128.203 398.306 127.975C398.414 128.023 398.504 128.107 398.576 128.227C398.648 128.347 398.684 128.491 398.684 128.659C398.684 128.923 398.564 129.199 398.324 129.487C398.096 129.763 397.736 129.997 397.244 130.189C396.764 130.381 396.152 130.477 395.408 130.477ZM397.028 124.591C397.028 123.967 396.968 123.421 396.848 122.953C396.728 122.485 396.536 122.125 396.272 121.873C396.008 121.609 395.654 121.477 395.21 121.477C394.802 121.477 394.448 121.597 394.148 121.837C393.86 122.077 393.632 122.431 393.464 122.899C393.308 123.355 393.212 123.919 393.176 124.591H397.028ZM405.267 130.297V129.487H405.645C405.885 129.487 406.101 129.463 406.293 129.415C406.497 129.355 406.659 129.241 406.779 129.073C406.911 128.905 406.977 128.653 406.977 128.317V119.515C406.977 119.143 406.917 118.873 406.797 118.705C406.677 118.525 406.515 118.405 406.311 118.345C406.119 118.285 405.897 118.255 405.645 118.255H405.267V117.445H414.591L414.681 120.631H413.655L413.565 119.839C413.541 119.575 413.475 119.335 413.367 119.119C413.259 118.903 413.103 118.729 412.899 118.597C412.695 118.465 412.431 118.399 412.107 118.399H409.083V123.115H413.403V124.051H409.083V129.343H412.593C412.929 129.343 413.205 129.277 413.421 129.145C413.637 129.013 413.799 128.839 413.907 128.623C414.027 128.407 414.105 128.167 414.141 127.903L414.267 127.111H415.293L415.167 130.297H405.267ZM419.664 130.477C419.136 130.477 418.656 130.375 418.224 130.171C417.804 129.955 417.474 129.637 417.234 129.217C416.994 128.785 416.874 128.239 416.874 127.579C416.874 126.619 417.21 125.911 417.882 125.455C418.554 124.987 419.58 124.729 420.96 124.681L422.436 124.627V123.583C422.436 123.151 422.4 122.773 422.328 122.449C422.268 122.125 422.13 121.873 421.914 121.693C421.698 121.501 421.368 121.405 420.924 121.405C420.504 121.405 420.18 121.489 419.952 121.657C419.736 121.825 419.586 122.059 419.502 122.359C419.43 122.647 419.394 122.983 419.394 123.367C418.818 123.367 418.38 123.283 418.08 123.115C417.78 122.935 417.63 122.635 417.63 122.215C417.63 121.783 417.78 121.441 418.08 121.189C418.392 120.937 418.8 120.751 419.304 120.631C419.82 120.511 420.384 120.451 420.996 120.451C422.136 120.451 422.988 120.685 423.552 121.153C424.128 121.621 424.416 122.419 424.416 123.547V128.191C424.416 128.527 424.452 128.791 424.524 128.983C424.596 129.163 424.716 129.295 424.884 129.379C425.052 129.451 425.268 129.487 425.532 129.487H425.586V130.297H422.904L422.598 128.839H422.436C422.184 129.163 421.938 129.451 421.698 129.703C421.458 129.943 421.182 130.135 420.87 130.279C420.558 130.411 420.156 130.477 419.664 130.477ZM420.24 129.307C420.696 129.307 421.086 129.211 421.41 129.019C421.734 128.815 421.986 128.527 422.166 128.155C422.346 127.783 422.436 127.351 422.436 126.859V125.437L421.374 125.491C420.75 125.515 420.258 125.617 419.898 125.797C419.538 125.965 419.28 126.205 419.124 126.517C418.98 126.829 418.908 127.213 418.908 127.669C418.908 128.029 418.956 128.335 419.052 128.587C419.148 128.827 419.292 129.007 419.484 129.127C419.688 129.247 419.94 129.307 420.24 129.307ZM430.199 130.477C429.527 130.477 428.957 130.399 428.489 130.243C428.021 130.087 427.661 129.865 427.409 129.577C427.169 129.277 427.049 128.923 427.049 128.515C427.049 128.167 427.121 127.903 427.265 127.723C427.421 127.543 427.595 127.417 427.787 127.345C427.991 127.273 428.171 127.237 428.327 127.237C428.327 127.681 428.393 128.083 428.525 128.443C428.657 128.791 428.867 129.067 429.155 129.271C429.443 129.463 429.815 129.559 430.271 129.559C430.907 129.559 431.387 129.415 431.711 129.127C432.035 128.839 432.197 128.473 432.197 128.029C432.197 127.741 432.131 127.501 431.999 127.309C431.879 127.117 431.657 126.931 431.333 126.751C431.021 126.559 430.571 126.349 429.983 126.121C429.359 125.857 428.837 125.593 428.417 125.329C428.009 125.065 427.703 124.759 427.499 124.411C427.295 124.063 427.193 123.625 427.193 123.097C427.193 122.245 427.511 121.597 428.147 121.153C428.795 120.697 429.647 120.469 430.703 120.469C431.327 120.469 431.843 120.547 432.251 120.703C432.671 120.859 432.977 121.063 433.169 121.315C433.373 121.567 433.475 121.837 433.475 122.125C433.475 122.473 433.355 122.749 433.115 122.953C432.875 123.157 432.515 123.259 432.035 123.259C432.035 122.659 431.903 122.191 431.639 121.855C431.387 121.519 430.997 121.351 430.469 121.351C430.109 121.351 429.803 121.411 429.551 121.531C429.311 121.639 429.131 121.795 429.011 121.999C428.891 122.191 428.831 122.425 428.831 122.701C428.831 122.989 428.903 123.235 429.047 123.439C429.203 123.643 429.449 123.835 429.785 124.015C430.121 124.183 430.571 124.375 431.135 124.591C431.747 124.831 432.251 125.083 432.647 125.347C433.043 125.611 433.337 125.923 433.529 126.283C433.733 126.631 433.835 127.057 433.835 127.561C433.835 128.509 433.505 129.235 432.845 129.739C432.197 130.231 431.315 130.477 430.199 130.477ZM438.945 130.477C438.057 130.477 437.397 130.273 436.965 129.865C436.533 129.445 436.317 128.713 436.317 127.669V121.729H434.967V120.955C435.219 120.955 435.483 120.901 435.759 120.793C436.035 120.685 436.269 120.529 436.461 120.325C436.665 120.121 436.833 119.869 436.965 119.569C437.097 119.257 437.205 118.879 437.289 118.435H438.297V120.649H440.637V121.729H438.297V127.669C438.297 128.257 438.411 128.689 438.639 128.965C438.879 129.241 439.209 129.379 439.629 129.379C439.845 129.379 440.043 129.367 440.223 129.343C440.415 129.319 440.607 129.289 440.799 129.253V130.153C440.643 130.225 440.391 130.297 440.043 130.369C439.695 130.441 439.329 130.477 438.945 130.477Z" fill="#080808"/>
<circle cx="51.5" cy="96.2969" r="6.5" fill="white" stroke="#012D61" stroke-width="5"/>
<circle cx="228.5" cy="66.2969" r="6.5" fill="white" stroke="#012D61" stroke-width="5"/>
<circle cx="320.5" cy="124.297" r="6.5" fill="white" stroke="#012D61" stroke-width="5"/>
</svg>
