<svg width="38" height="40" viewBox="0 0 38 40" fill="none" xmlns="http://www.w3.org/2000/svg">
<g clip-path="url(#clip0_2010_391)">
<path d="M4.83047 19.6022V19.0916C4.83047 14.8227 4.83047 10.5527 4.83047 6.28385C4.83047 5.58774 4.92187 5.47083 5.60851 5.2724C7.44208 4.74254 9.27347 4.20625 11.1092 3.6839C11.3443 3.6174 11.427 3.51228 11.4226 3.26773C11.4074 2.43862 11.4139 1.60844 11.4183 0.778258C11.4215 0.228021 11.6511 0.000632319 12.2137 0.000632319C16.734 -0.00151286 21.2553 -0.00151286 25.7756 0.000632319C26.3577 0.000632319 26.5808 0.228021 26.5819 0.808291C26.5852 1.71784 26.5819 2.62633 26.5819 3.57878C27.3621 3.80617 28.1369 4.03249 28.9117 4.25666C30.1076 4.60418 31.3046 4.94848 32.4994 5.29814C33.0424 5.45688 33.1686 5.62743 33.1686 6.19268C33.1686 10.4884 33.1686 14.7852 33.1686 19.0809C33.1686 19.2386 33.1686 19.3962 33.1686 19.6C33.3481 19.6 33.4929 19.6 33.6376 19.6C34.8324 19.6 36.0272 19.5968 37.222 19.6022C37.7596 19.6043 37.9903 19.8317 37.9935 20.3616C37.999 21.432 37.987 22.5024 38.0001 23.574C38.0044 23.9794 37.8336 24.2239 37.4516 24.3634C36.6888 24.6423 35.9271 24.9211 35.1785 25.2343C35.012 25.304 34.8553 25.4928 34.7813 25.6634C34.2785 26.8142 33.8117 27.9801 33.3014 29.1278C33.198 29.3616 33.1806 29.5322 33.2872 29.7585C33.6245 30.4739 33.9281 31.2033 34.2677 31.9165C34.4505 32.3016 34.3797 32.5966 34.0794 32.8883C32.9782 33.9609 31.8835 35.0388 30.7975 36.1254C30.4971 36.4257 30.1914 36.4804 29.8072 36.3066C29.0684 35.972 28.3262 35.6427 27.5732 35.3413C27.4144 35.278 27.1826 35.2963 27.0172 35.3617C25.8245 35.8315 24.6373 36.3152 23.4578 36.8161C23.2858 36.8891 23.0987 37.0499 23.0279 37.2162C22.7167 37.9413 22.4382 38.6814 22.1628 39.4214C22.0116 39.8269 21.745 40.0039 21.301 40.0006C19.7667 39.9878 18.2324 39.9878 16.6991 40.0006C16.2541 40.0049 15.9907 39.8258 15.8395 39.4193C15.5653 38.6792 15.2856 37.9402 14.9744 37.2141C14.9026 37.0478 14.7176 36.8858 14.5446 36.8129C13.365 36.3131 12.1778 35.8304 10.9852 35.3617C10.8208 35.2973 10.5891 35.2802 10.4302 35.3435C9.67718 35.6449 8.93505 35.9741 8.19618 36.3077C7.81423 36.4804 7.50628 36.4332 7.20594 36.1318C6.11995 35.0453 5.02634 33.9652 3.92402 32.8947C3.60627 32.5869 3.55622 32.2834 3.74665 31.8876C4.09595 31.1636 4.42349 30.4289 4.73144 29.6877C4.79129 29.5429 4.76953 29.3284 4.7075 29.1772C4.22544 28.0037 3.71292 26.8421 3.24065 25.6644C3.14598 25.4263 3.03281 25.2955 2.79668 25.2097C2.04693 24.9372 1.30697 24.6358 0.556133 24.3655C0.173097 24.2261 -0.00427453 23.9912 7.81508e-05 23.5836C0.012048 22.5132 7.81506e-05 21.4427 0.005519 20.3712C0.00769534 19.8231 0.238387 19.6043 0.808589 19.6022C1.98925 19.5989 3.17101 19.6011 4.35167 19.6011C4.49749 19.6011 4.64221 19.6011 4.82938 19.6011L4.83047 19.6022ZM1.31241 20.9097C1.31241 21.654 1.30262 22.363 1.32438 23.0709C1.32765 23.1717 1.46584 23.3144 1.57466 23.3573C2.28959 23.6458 3.00996 23.9204 3.73577 24.181C4.08616 24.3076 4.28856 24.5211 4.37888 24.8836C4.73362 26.308 5.29947 27.6498 6.07425 28.9015C6.2625 29.2061 6.27338 29.4925 6.12321 29.8121C5.79459 30.5157 5.47031 31.2226 5.16889 31.938C5.12318 32.0474 5.15583 32.2576 5.23635 32.3391C6.05901 33.1736 6.90343 33.9888 7.73153 34.819C7.87952 34.967 7.99922 34.9884 8.18747 34.9026C8.88934 34.5841 9.60318 34.2913 10.3018 33.9673C10.6413 33.8097 10.9373 33.8172 11.2605 34.0102C12.5325 34.7696 13.8906 35.3317 15.3389 35.6727C15.7056 35.7596 15.9189 35.9698 16.0462 36.3152C16.3096 37.0306 16.6056 37.7353 16.8689 38.4507C16.9418 38.6502 17.043 38.7114 17.2508 38.7103C18.4185 38.7017 19.5861 38.7017 20.7526 38.7103C20.9582 38.7114 21.0627 38.6545 21.1367 38.4529C21.4055 37.7246 21.7091 37.0092 21.9768 36.2809C22.1008 35.943 22.3206 35.7564 22.6667 35.6749C24.1281 35.3306 25.4981 34.761 26.7821 33.9941C27.0629 33.8268 27.3251 33.8032 27.6265 33.9394C28.3415 34.2623 29.0695 34.5562 29.7811 34.8844C30.002 34.9863 30.1326 34.9627 30.3024 34.7921C31.0989 33.9888 31.9041 33.1918 32.7225 32.4089C32.9151 32.2254 32.9216 32.0828 32.8139 31.8586C32.4918 31.1818 32.198 30.4911 31.8813 29.8111C31.7333 29.4914 31.7464 29.2061 31.9335 28.9004C32.7029 27.6455 33.272 26.3048 33.6245 24.8804C33.7149 24.5146 33.9227 24.3065 34.2709 24.181C34.9837 23.9247 35.691 23.6523 36.395 23.3745C36.5049 23.3316 36.6692 23.2275 36.6725 23.1471C36.6943 22.4038 36.6856 21.6605 36.6856 20.9139H28.3165C28.3654 23.4721 27.5515 25.6998 25.7832 27.5468C24.004 29.4045 21.7972 30.3763 19.2008 30.4353C16.8689 30.4889 14.7883 29.7735 13.0124 28.2837C10.7229 26.3638 9.65215 23.8807 9.68371 20.9107H1.31241V20.9097ZM15.0397 19.585V19.0648C15.0397 17.2586 15.0397 15.4513 15.0397 13.645C15.0397 12.8728 15.2247 12.6893 15.9897 12.6883C17.9984 12.6883 20.0072 12.6883 22.017 12.6883C22.7657 12.6883 22.9594 12.876 22.9605 13.6118C22.9627 15.4448 22.9605 17.2779 22.9605 19.112V19.5775H25.2489V1.31777H12.7567V19.585H15.0386H15.0397ZM10.9993 20.9064C10.9645 23.8453 12.119 26.1675 14.5587 27.8182C17.2247 29.6212 20.7776 29.6212 23.4436 27.8182C25.8844 26.1675 27.0389 23.8464 27.0041 20.9075H10.9982L10.9993 20.9064ZM31.8399 19.5872C31.8508 19.4928 31.8606 19.4413 31.8606 19.3898C31.8606 15.1767 31.8584 10.9635 31.8693 6.75042C31.8693 6.47906 31.7355 6.4147 31.5276 6.35571C30.1239 5.95242 28.7202 5.54484 27.3164 5.14047C27.0868 5.07397 26.8539 5.0182 26.6124 4.95599V19.5882H31.8378L31.8399 19.5872ZM6.16674 6.45225V19.5743H11.4008V4.93668C9.63583 5.44723 7.90128 5.95027 6.16674 6.45225ZM21.6101 19.5775V14.0033H16.3716V19.5775H21.6101Z" fill="#014898"/>
<path d="M19.0006 8.69337C17.956 8.69337 16.9113 8.69659 15.8667 8.6923C15.2714 8.69016 15.0462 8.47886 15.0418 7.9018C15.0342 6.76486 15.0342 5.62792 15.0418 4.49205C15.0451 3.915 15.2769 3.69619 15.8656 3.69619C17.9549 3.69404 20.0442 3.69404 22.1324 3.69619C22.7211 3.69619 22.9528 3.91392 22.9572 4.49205C22.9648 5.62899 22.9648 6.76593 22.9572 7.9018C22.9528 8.47993 22.7287 8.69123 22.1335 8.69337C21.0888 8.69766 20.0442 8.69445 18.9995 8.69445L19.0006 8.69337ZM16.3792 7.36873H21.6209V5.0026H16.3792V7.36873Z" fill="#014898"/>
</g>
<defs>
<clipPath id="clip0_2010_391">
<rect width="38" height="40" fill="white"/>
</clipPath>
</defs>
</svg>
