<svg width="40" height="40" viewBox="0 0 40 40" fill="none" xmlns="http://www.w3.org/2000/svg">
<g clip-path="url(#clip0_2010_408)">
<mask id="path-1-inside-1_2010_408" fill="white">
<path d="M18.8262 40.0001C17.9404 39.8707 17.0463 39.7788 16.1688 39.6066C13.0231 38.9909 10.2301 37.5988 7.69993 35.7058C9.59466 33.8107 11.4852 31.9187 13.4342 29.9693C13.6439 30.1916 13.8734 30.4514 14.1197 30.6935C14.6539 31.2184 15.3842 31.2435 15.8569 30.7634C16.3295 30.2834 16.293 29.5623 15.763 29.0248C15.5272 28.7859 15.283 28.5563 15.0629 28.3434C16.7354 26.6747 18.3724 25.0405 20.0417 23.375C20.1002 23.4303 20.2024 23.5231 20.3005 23.6202C21.276 24.5959 22.2547 25.5685 23.2229 26.5505C23.3805 26.7102 23.5025 26.7426 23.7269 26.6643C25.1176 26.1822 26.3884 26.4201 27.436 27.4595C28.4856 28.4999 28.7245 29.772 28.255 31.1642C28.1747 31.4021 28.2028 31.5315 28.3729 31.7006C29.6948 33.0102 31.0084 34.3283 32.3992 35.7183C31.287 36.3997 30.2342 37.1115 29.122 37.7126C26.7484 38.9961 24.2047 39.7392 21.5066 39.9364C21.419 39.9427 21.3334 39.9781 21.2468 40.0011H18.8252L18.8262 40.0001ZM20.0146 26.6152C19.4199 27.209 18.8617 27.7527 18.3254 28.3173C18.2597 28.3862 18.2712 28.5782 18.3119 28.6899C18.5414 29.3181 18.6019 29.9609 18.4694 30.61C18.026 32.7807 15.8683 33.9766 13.7754 33.2315C13.6627 33.1918 13.4697 33.1762 13.4018 33.2409C12.7111 33.9056 12.0382 34.5892 11.3266 35.2998C14.2981 36.981 17.4375 37.796 20.8096 37.6353C23.6037 37.5028 26.209 36.7097 28.6859 35.2831C27.4245 34.0308 26.2069 32.8234 24.9403 31.5659C25.2251 31.303 25.5047 31.0692 25.7572 30.8083C26.2476 30.3022 26.2591 29.5925 25.8042 29.1271C25.3367 28.6492 24.6127 28.6586 24.0952 29.1636C23.8364 29.4162 23.5996 29.6896 23.3419 29.9661C22.2119 28.8287 21.131 27.7413 20.0136 26.6163L20.0146 26.6152Z"/>
<path d="M0 18.7509C0.0918149 18.083 0.166936 17.412 0.279618 16.7473C0.795034 13.7073 2.00532 10.9575 3.76754 8.4394C3.94595 8.18477 4.12437 7.9291 4.28296 7.7016C6.1829 9.60194 8.07345 11.4929 10.0329 13.4527C9.81585 13.652 9.55188 13.8754 9.30774 14.1216C8.77667 14.657 8.75059 15.3791 9.23366 15.8571C9.71464 16.334 10.4335 16.3017 10.9708 15.7694C11.2098 15.5336 11.433 15.281 11.6375 15.0629C13.3152 16.7431 14.9491 18.3794 16.6175 20.0502C16.5715 20.0992 16.4808 20.2025 16.3837 20.2985C15.4176 21.2659 14.4556 22.2364 13.4811 23.1944C13.3027 23.3697 13.2547 23.5044 13.3434 23.7621C13.8192 25.1553 13.5636 26.4253 12.516 27.4637C11.4789 28.4905 10.2155 28.7285 8.84136 28.2589C8.57843 28.1691 8.44801 28.2286 8.27586 28.4029C6.97689 29.7167 5.66853 31.0222 4.33199 32.3632C4.06698 31.9844 3.81345 31.6306 3.5693 31.2706C1.57233 28.3309 0.343263 25.1135 0.0667745 21.5529C0.0584277 21.4517 0.0229537 21.3515 0 21.2513C0 20.4175 0 19.5847 0 18.7509ZM4.69925 11.3343C3.02676 14.273 2.21712 17.3891 2.36006 20.7316C2.48109 23.5545 3.27404 26.1874 4.71699 28.6888C5.97006 27.4303 7.18034 26.2145 8.43967 24.9497C8.69633 25.2273 8.93109 25.507 9.19192 25.7595C9.69482 26.25 10.4053 26.2625 10.8728 25.8075C11.3548 25.339 11.3464 24.621 10.8394 24.0992C10.5879 23.8404 10.3135 23.6025 10.0287 23.3343C10.6182 22.7478 11.1628 22.2083 11.7064 21.6677C12.2573 21.1198 12.8092 20.5719 13.381 20.0042C12.8343 19.4584 12.3105 18.9534 11.8097 18.4274C11.6375 18.2469 11.4988 18.2302 11.2724 18.3199C10.6526 18.5662 10.0037 18.6059 9.35469 18.466C7.20747 18.0048 6.02431 15.8477 6.76926 13.7814C6.80995 13.6687 6.82769 13.4746 6.763 13.4068C6.09734 12.7159 5.41186 12.0428 4.7003 11.3332L4.69925 11.3343Z"/>
<path d="M28.3249 24.9716C26.6347 23.281 25.006 21.652 23.345 19.9886C23.4264 19.902 23.5171 19.7997 23.6131 19.7026C24.5887 18.7259 25.5621 17.748 26.5429 16.7775C26.6994 16.6231 26.7421 16.5031 26.6618 16.2745C26.1766 14.8845 26.4124 13.6113 27.4527 12.5636C28.5054 11.5023 29.7887 11.2633 31.1931 11.7538C31.4268 11.8352 31.5426 11.7767 31.6939 11.6244C33.0043 10.3032 34.3221 8.98728 35.6388 7.66925C40.8983 14.275 41.9563 24.0846 35.715 32.2745C33.8296 30.3888 31.9391 28.4978 30.0078 26.5662C30.1998 26.3742 30.445 26.1321 30.685 25.8847C31.2108 25.3442 31.2432 24.6231 30.7663 24.1451C30.2895 23.6682 29.5634 23.6985 29.0281 24.2276C28.7892 24.4644 28.5649 24.7159 28.3249 24.9695V24.9716ZM35.2934 28.6732C36.8282 25.9797 37.6389 23.1287 37.6493 20.0616C37.6598 16.9528 36.8491 14.0611 35.2924 11.3301C34.0456 12.5792 32.8332 13.794 31.5666 15.0629C31.3151 14.7885 31.0887 14.5203 30.8404 14.2761C30.2989 13.7439 29.5801 13.724 29.1032 14.2145C28.6327 14.6987 28.6567 15.3937 29.1763 15.9228C29.4225 16.1733 29.6875 16.4039 29.9723 16.669C28.8382 17.8002 27.7448 18.8907 26.6263 20.0074C27.196 20.5761 27.7396 21.1313 28.304 21.6666C28.3739 21.7334 28.5638 21.7293 28.6734 21.6886C29.314 21.4527 29.9692 21.3932 30.6317 21.5331C32.779 21.9849 33.9684 24.1441 33.2318 26.2114C33.189 26.3314 33.1817 26.5391 33.2537 26.6152C33.9089 27.3009 34.586 27.9667 35.2914 28.6732H35.2934Z"/>
<path d="M7.65194 4.34131C15.4228 -1.61747 25.0989 -1.2637 32.2907 4.30791C30.4022 6.19782 28.5117 8.09189 26.5742 10.0319C26.3425 9.79187 26.1005 9.52471 25.8417 9.2753C25.3242 8.77648 24.5949 8.76813 24.1327 9.244C23.6809 9.70838 23.6966 10.4232 24.1818 10.9262C24.4249 11.1788 24.6878 11.4125 24.8964 11.6119C23.2292 13.2784 21.589 14.92 19.8383 16.67C19.8237 16.6408 19.7872 16.4832 19.6901 16.3841C18.7219 15.4021 17.7401 14.4326 16.7719 13.4506C16.6143 13.291 16.4912 13.2607 16.2669 13.3379C14.8761 13.819 13.6053 13.5811 12.5588 12.5417C11.5113 11.5012 11.2671 10.2302 11.7398 8.83805C11.8201 8.60116 11.794 8.47071 11.6229 8.30165C10.301 6.99302 8.98743 5.67499 7.65298 4.34131H7.65194ZM15.0576 8.38305C14.7624 8.67212 14.5172 8.90379 14.2814 9.14486C13.7472 9.69064 13.7149 10.4003 14.199 10.8824C14.6831 11.3656 15.3926 11.3353 15.9382 10.8031C16.1855 10.562 16.4223 10.3095 16.7218 10.0016C17.8517 11.1339 18.941 12.2265 20.0553 13.3431C20.5759 12.813 21.1122 12.2818 21.6255 11.7308C21.7027 11.6473 21.7299 11.448 21.6881 11.3364C21.4576 10.7081 21.3929 10.0653 21.5191 9.41618C21.9396 7.24869 24.1087 6.02667 26.1954 6.7603C26.3133 6.80204 26.5105 6.83857 26.5742 6.777C27.2722 6.10494 27.9503 5.41305 28.641 4.72012C23.3335 1.51428 16.4641 1.61446 11.383 4.71073C12.5943 5.92127 13.8067 7.13181 15.0576 8.38305Z"/>
</mask>
<path d="M18.8262 40.0001C17.9404 39.8707 17.0463 39.7788 16.1688 39.6066C13.0231 38.9909 10.2301 37.5988 7.69993 35.7058C9.59466 33.8107 11.4852 31.9187 13.4342 29.9693C13.6439 30.1916 13.8734 30.4514 14.1197 30.6935C14.6539 31.2184 15.3842 31.2435 15.8569 30.7634C16.3295 30.2834 16.293 29.5623 15.763 29.0248C15.5272 28.7859 15.283 28.5563 15.0629 28.3434C16.7354 26.6747 18.3724 25.0405 20.0417 23.375C20.1002 23.4303 20.2024 23.5231 20.3005 23.6202C21.276 24.5959 22.2547 25.5685 23.2229 26.5505C23.3805 26.7102 23.5025 26.7426 23.7269 26.6643C25.1176 26.1822 26.3884 26.4201 27.436 27.4595C28.4856 28.4999 28.7245 29.772 28.255 31.1642C28.1747 31.4021 28.2028 31.5315 28.3729 31.7006C29.6948 33.0102 31.0084 34.3283 32.3992 35.7183C31.287 36.3997 30.2342 37.1115 29.122 37.7126C26.7484 38.9961 24.2047 39.7392 21.5066 39.9364C21.419 39.9427 21.3334 39.9781 21.2468 40.0011H18.8252L18.8262 40.0001ZM20.0146 26.6152C19.4199 27.209 18.8617 27.7527 18.3254 28.3173C18.2597 28.3862 18.2712 28.5782 18.3119 28.6899C18.5414 29.3181 18.6019 29.9609 18.4694 30.61C18.026 32.7807 15.8683 33.9766 13.7754 33.2315C13.6627 33.1918 13.4697 33.1762 13.4018 33.2409C12.7111 33.9056 12.0382 34.5892 11.3266 35.2998C14.2981 36.981 17.4375 37.796 20.8096 37.6353C23.6037 37.5028 26.209 36.7097 28.6859 35.2831C27.4245 34.0308 26.2069 32.8234 24.9403 31.5659C25.2251 31.303 25.5047 31.0692 25.7572 30.8083C26.2476 30.3022 26.2591 29.5925 25.8042 29.1271C25.3367 28.6492 24.6127 28.6586 24.0952 29.1636C23.8364 29.4162 23.5996 29.6896 23.3419 29.9661C22.2119 28.8287 21.131 27.7413 20.0136 26.6163L20.0146 26.6152Z" fill="#0057B8"/>
<path d="M0 18.7509C0.0918149 18.083 0.166936 17.412 0.279618 16.7473C0.795034 13.7073 2.00532 10.9575 3.76754 8.4394C3.94595 8.18477 4.12437 7.9291 4.28296 7.7016C6.1829 9.60194 8.07345 11.4929 10.0329 13.4527C9.81585 13.652 9.55188 13.8754 9.30774 14.1216C8.77667 14.657 8.75059 15.3791 9.23366 15.8571C9.71464 16.334 10.4335 16.3017 10.9708 15.7694C11.2098 15.5336 11.433 15.281 11.6375 15.0629C13.3152 16.7431 14.9491 18.3794 16.6175 20.0502C16.5715 20.0992 16.4808 20.2025 16.3837 20.2985C15.4176 21.2659 14.4556 22.2364 13.4811 23.1944C13.3027 23.3697 13.2547 23.5044 13.3434 23.7621C13.8192 25.1553 13.5636 26.4253 12.516 27.4637C11.4789 28.4905 10.2155 28.7285 8.84136 28.2589C8.57843 28.1691 8.44801 28.2286 8.27586 28.4029C6.97689 29.7167 5.66853 31.0222 4.33199 32.3632C4.06698 31.9844 3.81345 31.6306 3.5693 31.2706C1.57233 28.3309 0.343263 25.1135 0.0667745 21.5529C0.0584277 21.4517 0.0229537 21.3515 0 21.2513C0 20.4175 0 19.5847 0 18.7509ZM4.69925 11.3343C3.02676 14.273 2.21712 17.3891 2.36006 20.7316C2.48109 23.5545 3.27404 26.1874 4.71699 28.6888C5.97006 27.4303 7.18034 26.2145 8.43967 24.9497C8.69633 25.2273 8.93109 25.507 9.19192 25.7595C9.69482 26.25 10.4053 26.2625 10.8728 25.8075C11.3548 25.339 11.3464 24.621 10.8394 24.0992C10.5879 23.8404 10.3135 23.6025 10.0287 23.3343C10.6182 22.7478 11.1628 22.2083 11.7064 21.6677C12.2573 21.1198 12.8092 20.5719 13.381 20.0042C12.8343 19.4584 12.3105 18.9534 11.8097 18.4274C11.6375 18.2469 11.4988 18.2302 11.2724 18.3199C10.6526 18.5662 10.0037 18.6059 9.35469 18.466C7.20747 18.0048 6.02431 15.8477 6.76926 13.7814C6.80995 13.6687 6.82769 13.4746 6.763 13.4068C6.09734 12.7159 5.41186 12.0428 4.7003 11.3332L4.69925 11.3343Z" fill="#0057B8"/>
<path d="M28.3249 24.9716C26.6347 23.281 25.006 21.652 23.345 19.9886C23.4264 19.902 23.5171 19.7997 23.6131 19.7026C24.5887 18.7259 25.5621 17.748 26.5429 16.7775C26.6994 16.6231 26.7421 16.5031 26.6618 16.2745C26.1766 14.8845 26.4124 13.6113 27.4527 12.5636C28.5054 11.5023 29.7887 11.2633 31.1931 11.7538C31.4268 11.8352 31.5426 11.7767 31.6939 11.6244C33.0043 10.3032 34.3221 8.98728 35.6388 7.66925C40.8983 14.275 41.9563 24.0846 35.715 32.2745C33.8296 30.3888 31.9391 28.4978 30.0078 26.5662C30.1998 26.3742 30.445 26.1321 30.685 25.8847C31.2108 25.3442 31.2432 24.6231 30.7663 24.1451C30.2895 23.6682 29.5634 23.6985 29.0281 24.2276C28.7892 24.4644 28.5649 24.7159 28.3249 24.9695V24.9716ZM35.2934 28.6732C36.8282 25.9797 37.6389 23.1287 37.6493 20.0616C37.6598 16.9528 36.8491 14.0611 35.2924 11.3301C34.0456 12.5792 32.8332 13.794 31.5666 15.0629C31.3151 14.7885 31.0887 14.5203 30.8404 14.2761C30.2989 13.7439 29.5801 13.724 29.1032 14.2145C28.6327 14.6987 28.6567 15.3937 29.1763 15.9228C29.4225 16.1733 29.6875 16.4039 29.9723 16.669C28.8382 17.8002 27.7448 18.8907 26.6263 20.0074C27.196 20.5761 27.7396 21.1313 28.304 21.6666C28.3739 21.7334 28.5638 21.7293 28.6734 21.6886C29.314 21.4527 29.9692 21.3932 30.6317 21.5331C32.779 21.9849 33.9684 24.1441 33.2318 26.2114C33.189 26.3314 33.1817 26.5391 33.2537 26.6152C33.9089 27.3009 34.586 27.9667 35.2914 28.6732H35.2934Z" fill="#0057B8"/>
<path d="M7.65194 4.34131C15.4228 -1.61747 25.0989 -1.2637 32.2907 4.30791C30.4022 6.19782 28.5117 8.09189 26.5742 10.0319C26.3425 9.79187 26.1005 9.52471 25.8417 9.2753C25.3242 8.77648 24.5949 8.76813 24.1327 9.244C23.6809 9.70838 23.6966 10.4232 24.1818 10.9262C24.4249 11.1788 24.6878 11.4125 24.8964 11.6119C23.2292 13.2784 21.589 14.92 19.8383 16.67C19.8237 16.6408 19.7872 16.4832 19.6901 16.3841C18.7219 15.4021 17.7401 14.4326 16.7719 13.4506C16.6143 13.291 16.4912 13.2607 16.2669 13.3379C14.8761 13.819 13.6053 13.5811 12.5588 12.5417C11.5113 11.5012 11.2671 10.2302 11.7398 8.83805C11.8201 8.60116 11.794 8.47071 11.6229 8.30165C10.301 6.99302 8.98743 5.67499 7.65298 4.34131H7.65194ZM15.0576 8.38305C14.7624 8.67212 14.5172 8.90379 14.2814 9.14486C13.7472 9.69064 13.7149 10.4003 14.199 10.8824C14.6831 11.3656 15.3926 11.3353 15.9382 10.8031C16.1855 10.562 16.4223 10.3095 16.7218 10.0016C17.8517 11.1339 18.941 12.2265 20.0553 13.3431C20.5759 12.813 21.1122 12.2818 21.6255 11.7308C21.7027 11.6473 21.7299 11.448 21.6881 11.3364C21.4576 10.7081 21.3929 10.0653 21.5191 9.41618C21.9396 7.24869 24.1087 6.02667 26.1954 6.7603C26.3133 6.80204 26.5105 6.83857 26.5742 6.777C27.2722 6.10494 27.9503 5.41305 28.641 4.72012C23.3335 1.51428 16.4641 1.61446 11.383 4.71073C12.5943 5.92127 13.8067 7.13181 15.0576 8.38305Z" fill="#0057B8"/>
<path d="M18.8262 40.0001C17.9404 39.8707 17.0463 39.7788 16.1688 39.6066C13.0231 38.9909 10.2301 37.5988 7.69993 35.7058C9.59466 33.8107 11.4852 31.9187 13.4342 29.9693C13.6439 30.1916 13.8734 30.4514 14.1197 30.6935C14.6539 31.2184 15.3842 31.2435 15.8569 30.7634C16.3295 30.2834 16.293 29.5623 15.763 29.0248C15.5272 28.7859 15.283 28.5563 15.0629 28.3434C16.7354 26.6747 18.3724 25.0405 20.0417 23.375C20.1002 23.4303 20.2024 23.5231 20.3005 23.6202C21.276 24.5959 22.2547 25.5685 23.2229 26.5505C23.3805 26.7102 23.5025 26.7426 23.7269 26.6643C25.1176 26.1822 26.3884 26.4201 27.436 27.4595C28.4856 28.4999 28.7245 29.772 28.255 31.1642C28.1747 31.4021 28.2028 31.5315 28.3729 31.7006C29.6948 33.0102 31.0084 34.3283 32.3992 35.7183C31.287 36.3997 30.2342 37.1115 29.122 37.7126C26.7484 38.9961 24.2047 39.7392 21.5066 39.9364C21.419 39.9427 21.3334 39.9781 21.2468 40.0011H18.8252L18.8262 40.0001ZM20.0146 26.6152C19.4199 27.209 18.8617 27.7527 18.3254 28.3173C18.2597 28.3862 18.2712 28.5782 18.3119 28.6899C18.5414 29.3181 18.6019 29.9609 18.4694 30.61C18.026 32.7807 15.8683 33.9766 13.7754 33.2315C13.6627 33.1918 13.4697 33.1762 13.4018 33.2409C12.7111 33.9056 12.0382 34.5892 11.3266 35.2998C14.2981 36.981 17.4375 37.796 20.8096 37.6353C23.6037 37.5028 26.209 36.7097 28.6859 35.2831C27.4245 34.0308 26.2069 32.8234 24.9403 31.5659C25.2251 31.303 25.5047 31.0692 25.7572 30.8083C26.2476 30.3022 26.2591 29.5925 25.8042 29.1271C25.3367 28.6492 24.6127 28.6586 24.0952 29.1636C23.8364 29.4162 23.5996 29.6896 23.3419 29.9661C22.2119 28.8287 21.131 27.7413 20.0136 26.6163L20.0146 26.6152Z" stroke="white" stroke-width="0.8" mask="url(#path-1-inside-1_2010_408)"/>
<path d="M0 18.7509C0.0918149 18.083 0.166936 17.412 0.279618 16.7473C0.795034 13.7073 2.00532 10.9575 3.76754 8.4394C3.94595 8.18477 4.12437 7.9291 4.28296 7.7016C6.1829 9.60194 8.07345 11.4929 10.0329 13.4527C9.81585 13.652 9.55188 13.8754 9.30774 14.1216C8.77667 14.657 8.75059 15.3791 9.23366 15.8571C9.71464 16.334 10.4335 16.3017 10.9708 15.7694C11.2098 15.5336 11.433 15.281 11.6375 15.0629C13.3152 16.7431 14.9491 18.3794 16.6175 20.0502C16.5715 20.0992 16.4808 20.2025 16.3837 20.2985C15.4176 21.2659 14.4556 22.2364 13.4811 23.1944C13.3027 23.3697 13.2547 23.5044 13.3434 23.7621C13.8192 25.1553 13.5636 26.4253 12.516 27.4637C11.4789 28.4905 10.2155 28.7285 8.84136 28.2589C8.57843 28.1691 8.44801 28.2286 8.27586 28.4029C6.97689 29.7167 5.66853 31.0222 4.33199 32.3632C4.06698 31.9844 3.81345 31.6306 3.5693 31.2706C1.57233 28.3309 0.343263 25.1135 0.0667745 21.5529C0.0584277 21.4517 0.0229537 21.3515 0 21.2513C0 20.4175 0 19.5847 0 18.7509ZM4.69925 11.3343C3.02676 14.273 2.21712 17.3891 2.36006 20.7316C2.48109 23.5545 3.27404 26.1874 4.71699 28.6888C5.97006 27.4303 7.18034 26.2145 8.43967 24.9497C8.69633 25.2273 8.93109 25.507 9.19192 25.7595C9.69482 26.25 10.4053 26.2625 10.8728 25.8075C11.3548 25.339 11.3464 24.621 10.8394 24.0992C10.5879 23.8404 10.3135 23.6025 10.0287 23.3343C10.6182 22.7478 11.1628 22.2083 11.7064 21.6677C12.2573 21.1198 12.8092 20.5719 13.381 20.0042C12.8343 19.4584 12.3105 18.9534 11.8097 18.4274C11.6375 18.2469 11.4988 18.2302 11.2724 18.3199C10.6526 18.5662 10.0037 18.6059 9.35469 18.466C7.20747 18.0048 6.02431 15.8477 6.76926 13.7814C6.80995 13.6687 6.82769 13.4746 6.763 13.4068C6.09734 12.7159 5.41186 12.0428 4.7003 11.3332L4.69925 11.3343Z" stroke="white" stroke-width="0.8" mask="url(#path-1-inside-1_2010_408)"/>
<path d="M28.3249 24.9716C26.6347 23.281 25.006 21.652 23.345 19.9886C23.4264 19.902 23.5171 19.7997 23.6131 19.7026C24.5887 18.7259 25.5621 17.748 26.5429 16.7775C26.6994 16.6231 26.7421 16.5031 26.6618 16.2745C26.1766 14.8845 26.4124 13.6113 27.4527 12.5636C28.5054 11.5023 29.7887 11.2633 31.1931 11.7538C31.4268 11.8352 31.5426 11.7767 31.6939 11.6244C33.0043 10.3032 34.3221 8.98728 35.6388 7.66925C40.8983 14.275 41.9563 24.0846 35.715 32.2745C33.8296 30.3888 31.9391 28.4978 30.0078 26.5662C30.1998 26.3742 30.445 26.1321 30.685 25.8847C31.2108 25.3442 31.2432 24.6231 30.7663 24.1451C30.2895 23.6682 29.5634 23.6985 29.0281 24.2276C28.7892 24.4644 28.5649 24.7159 28.3249 24.9695V24.9716ZM35.2934 28.6732C36.8282 25.9797 37.6389 23.1287 37.6493 20.0616C37.6598 16.9528 36.8491 14.0611 35.2924 11.3301C34.0456 12.5792 32.8332 13.794 31.5666 15.0629C31.3151 14.7885 31.0887 14.5203 30.8404 14.2761C30.2989 13.7439 29.5801 13.724 29.1032 14.2145C28.6327 14.6987 28.6567 15.3937 29.1763 15.9228C29.4225 16.1733 29.6875 16.4039 29.9723 16.669C28.8382 17.8002 27.7448 18.8907 26.6263 20.0074C27.196 20.5761 27.7396 21.1313 28.304 21.6666C28.3739 21.7334 28.5638 21.7293 28.6734 21.6886C29.314 21.4527 29.9692 21.3932 30.6317 21.5331C32.779 21.9849 33.9684 24.1441 33.2318 26.2114C33.189 26.3314 33.1817 26.5391 33.2537 26.6152C33.9089 27.3009 34.586 27.9667 35.2914 28.6732H35.2934Z" stroke="white" stroke-width="0.8" mask="url(#path-1-inside-1_2010_408)"/>
<path d="M7.65194 4.34131C15.4228 -1.61747 25.0989 -1.2637 32.2907 4.30791C30.4022 6.19782 28.5117 8.09189 26.5742 10.0319C26.3425 9.79187 26.1005 9.52471 25.8417 9.2753C25.3242 8.77648 24.5949 8.76813 24.1327 9.244C23.6809 9.70838 23.6966 10.4232 24.1818 10.9262C24.4249 11.1788 24.6878 11.4125 24.8964 11.6119C23.2292 13.2784 21.589 14.92 19.8383 16.67C19.8237 16.6408 19.7872 16.4832 19.6901 16.3841C18.7219 15.4021 17.7401 14.4326 16.7719 13.4506C16.6143 13.291 16.4912 13.2607 16.2669 13.3379C14.8761 13.819 13.6053 13.5811 12.5588 12.5417C11.5113 11.5012 11.2671 10.2302 11.7398 8.83805C11.8201 8.60116 11.794 8.47071 11.6229 8.30165C10.301 6.99302 8.98743 5.67499 7.65298 4.34131H7.65194ZM15.0576 8.38305C14.7624 8.67212 14.5172 8.90379 14.2814 9.14486C13.7472 9.69064 13.7149 10.4003 14.199 10.8824C14.6831 11.3656 15.3926 11.3353 15.9382 10.8031C16.1855 10.562 16.4223 10.3095 16.7218 10.0016C17.8517 11.1339 18.941 12.2265 20.0553 13.3431C20.5759 12.813 21.1122 12.2818 21.6255 11.7308C21.7027 11.6473 21.7299 11.448 21.6881 11.3364C21.4576 10.7081 21.3929 10.0653 21.5191 9.41618C21.9396 7.24869 24.1087 6.02667 26.1954 6.7603C26.3133 6.80204 26.5105 6.83857 26.5742 6.777C27.2722 6.10494 27.9503 5.41305 28.641 4.72012C23.3335 1.51428 16.4641 1.61446 11.383 4.71073C12.5943 5.92127 13.8067 7.13181 15.0576 8.38305Z" stroke="white" stroke-width="0.8" mask="url(#path-1-inside-1_2010_408)"/>
</g>
<defs>
<clipPath id="clip0_2010_408">
<rect width="40" height="40" fill="white"/>
</clipPath>
</defs>
</svg>
