<svg width="40" height="40" viewBox="0 0 40 40" fill="none" xmlns="http://www.w3.org/2000/svg">
<g clip-path="url(#clip0_2070_4104)">
<path d="M39.0476 30.7145C38.8568 31.0246 38.5786 31.1042 38.2288 31.0962C37.2669 31.0803 36.297 31.0962 35.2715 31.0962C35.3669 32.2969 35.1681 33.3862 34.2937 34.2609C33.4192 35.1435 32.338 35.3661 31.0899 35.2468C31.0899 35.4218 31.0899 35.557 31.0899 35.6842C31.0899 36.5747 31.0899 37.4732 31.0899 38.3638C31.0899 38.7852 30.8673 39.0476 30.5255 39.0476C30.1836 39.0476 29.9531 38.8011 29.9451 38.3717C29.9372 37.4812 29.9451 36.5827 29.9451 35.6921C29.9451 35.5569 29.9372 35.4297 29.9292 35.2786H26.9163C26.9083 35.4059 26.8924 35.541 26.8924 35.6683C26.8924 36.5509 26.8924 37.4255 26.8924 38.3081C26.8924 38.7852 26.6619 39.0556 26.2962 39.0397C25.9385 39.0238 25.7477 38.7693 25.7397 38.3002C25.7397 37.4176 25.7397 36.5429 25.7397 35.6603C25.7397 35.541 25.7318 35.4218 25.7238 35.2786H22.695C22.695 35.6444 22.695 35.9943 22.695 36.3521C22.695 37.0121 22.695 37.6641 22.695 38.324C22.695 38.7773 22.4803 39.0397 22.1146 39.0397C21.7569 39.0397 21.5422 38.7773 21.5422 38.324C21.5422 37.4573 21.5422 36.5906 21.5422 35.7239C21.5422 35.5888 21.5422 35.4536 21.5422 35.2946H18.5213C18.5213 35.4377 18.5054 35.5649 18.5054 35.7001C18.5054 36.5827 18.5054 37.4573 18.5054 38.3399C18.5054 38.7852 18.2749 39.0556 17.9171 39.0476C17.5594 39.0476 17.3527 38.7773 17.3527 38.324C17.3527 37.3222 17.3527 36.3203 17.3527 35.2946H14.3239C14.3239 35.4218 14.308 35.549 14.308 35.6842C14.308 36.5747 14.308 37.4732 14.308 38.3638C14.308 38.7852 14.0854 39.0476 13.7435 39.0556C13.4017 39.0556 13.1632 38.8091 13.1632 38.3877C13.1552 37.4971 13.1632 36.5986 13.1632 35.708C13.1632 35.5729 13.1552 35.4456 13.1473 35.2946H10.1105C10.1105 35.6206 10.1105 35.9307 10.1105 36.2328C10.1105 36.9405 10.1105 37.6482 10.1105 38.3559C10.1105 38.8011 9.87199 39.0635 9.51426 39.0556C9.17242 39.0476 8.95777 38.7932 8.95777 38.3638C8.95777 37.4812 8.95777 36.6065 8.95777 35.7239C8.95777 35.5888 8.95777 35.4536 8.95777 35.2707C7.74146 35.3741 6.65234 35.1673 5.77787 34.2927C4.9034 33.418 4.68875 32.3287 4.7921 31.1042C3.98917 31.1042 3.23395 31.1042 2.48667 31.1042C2.20048 31.1042 1.91429 31.1042 1.62809 31.1042C1.23856 31.0883 0.992114 30.8577 1.00006 30.5158C1.00006 30.1897 1.24651 29.9671 1.62014 29.9592C2.56617 29.9512 3.50424 29.9592 4.45026 29.9592C4.54566 29.9592 4.64105 29.9433 4.7603 29.9353V26.9217C4.62515 26.9217 4.49001 26.9058 4.35486 26.9058C3.47244 26.9058 2.59797 26.9058 1.71554 26.9058C1.26241 26.9058 1.00006 26.6832 1.00801 26.3254C1.00801 25.9675 1.27036 25.7529 1.72349 25.7529C2.72516 25.7529 3.72683 25.7529 4.75235 25.7529V22.7234C4.62515 22.7234 4.49796 22.7075 4.37076 22.7075C3.50424 22.7075 2.63771 22.7075 1.76324 22.7075C1.27036 22.7075 1.00801 22.5087 1.00006 22.1429C0.992114 21.7692 1.27036 21.5545 1.77914 21.5545C2.62181 21.5545 3.46449 21.5545 4.30716 21.5545C4.44231 21.5545 4.57745 21.5545 4.7444 21.5545V18.5409C4.6172 18.5409 4.49001 18.5171 4.35486 18.5171C3.51219 18.5171 2.66951 18.5171 1.82684 18.5171C1.69169 18.5171 1.5486 18.5171 1.4214 18.4773C1.11931 18.3898 0.968265 18.1672 1.00801 17.8571C1.05571 17.5311 1.27036 17.3562 1.60425 17.3562C2.51052 17.3562 3.41679 17.3562 4.32306 17.3562C4.45821 17.3562 4.59335 17.3562 4.75235 17.3562V14.3267C4.6331 14.3267 4.49796 14.3108 4.37076 14.3108C3.45654 14.3108 2.53437 14.3108 1.62014 14.3108C1.25446 14.3108 1.00801 14.0722 1.00006 13.7542C0.992114 13.4361 1.23061 13.1976 1.58835 13.1737C1.68374 13.1737 1.78709 13.1737 1.88249 13.1737C2.70131 13.1737 3.52014 13.1737 4.33896 13.1737C4.47411 13.1737 4.6013 13.1658 4.75235 13.1578V10.1124C4.55361 10.1124 4.37076 10.1124 4.18792 10.1124C3.36909 10.1124 2.55027 10.1124 1.73144 10.1124C1.25446 10.1124 0.984164 9.88978 0.992114 9.52401C1.00006 9.1662 1.26241 8.96741 1.72349 8.95946C2.60592 8.95946 3.48039 8.95946 4.36281 8.95946C4.48206 8.95946 4.60925 8.95946 4.78415 8.95946C4.68875 7.75085 4.8875 6.65355 5.76197 5.7789C6.63644 4.90424 7.72556 4.6975 8.94982 4.79292C8.94982 4.08524 8.94982 3.41733 8.94982 2.74941C8.94982 2.4234 8.96572 2.10534 8.94982 1.77933C8.92597 1.43742 9.03727 1.17503 9.33141 0.992143H9.70505C10.0151 1.15117 10.1184 1.41357 10.1184 1.75548C10.1025 2.62218 10.1184 3.48889 10.1184 4.35559C10.1184 4.49077 10.1343 4.61799 10.1343 4.74521H13.1711C13.1711 4.58618 13.1711 4.45101 13.1711 4.31584C13.1711 3.45708 13.1791 2.60628 13.1711 1.74753C13.1711 1.40562 13.2665 1.14322 13.5845 0.984192H13.9582C14.2444 1.16707 14.3636 1.42152 14.3398 1.77138C14.3159 2.08944 14.3398 2.41545 14.3398 2.74145C14.3398 3.40937 14.3398 4.06934 14.3398 4.74521H17.3925C17.3925 3.75128 17.4004 2.78121 17.3925 1.81909C17.3925 1.46923 17.464 1.19093 17.7741 1.00009H18.1477C18.4577 1.15912 18.569 1.42152 18.5611 1.76343C18.5531 2.63014 18.5611 3.49684 18.5611 4.36354C18.5611 4.49077 18.577 4.62594 18.5849 4.76111H21.6058C21.6058 4.60209 21.6058 4.46691 21.6058 4.33174C21.6058 3.48889 21.6138 2.64604 21.6058 1.81114C21.6058 1.46128 21.6933 1.18298 22.0192 1.016H22.3929C22.695 1.20683 22.7904 1.48513 22.7665 1.84294C22.7427 2.24052 22.7665 2.63809 22.7665 3.03566V4.76907H25.8192C25.8192 3.75924 25.8272 2.78121 25.8192 1.80319C25.8192 1.46128 25.9067 1.19888 26.2008 1.016H26.5744C26.8845 1.17503 26.9878 1.43742 26.9878 1.77933C26.9719 2.64604 26.9878 3.51274 26.9878 4.37945C26.9878 4.51462 27.0037 4.64184 27.0037 4.76907H30.0405C30.0405 4.61004 30.0405 4.47486 30.0405 4.33969C30.0405 3.48094 30.0485 2.63014 30.0405 1.77138C30.0405 1.42947 30.1359 1.16707 30.4539 1.00805H30.8276C31.1137 1.19093 31.233 1.44537 31.2091 1.79524C31.1853 2.10534 31.2091 2.41545 31.2091 2.72555C31.2091 3.40142 31.2091 4.07729 31.2091 4.81677C32.4334 4.6975 33.5146 4.91219 34.397 5.78685C35.2794 6.66945 35.4861 7.7747 35.3907 8.97537C36.4242 8.97537 37.3861 8.98332 38.348 8.97537C38.6978 8.97537 38.9761 9.04693 39.1669 9.35703V9.73075C39.0079 10.0409 38.7455 10.1442 38.4037 10.1363C37.5372 10.1204 36.6706 10.1363 35.8041 10.1363C35.6769 10.1363 35.5418 10.1522 35.4146 10.1601V13.1976C35.5736 13.1976 35.7087 13.1976 35.8359 13.1976C36.6865 13.1976 37.5451 13.2055 38.3957 13.1976C38.7376 13.1976 38.9999 13.293 39.1589 13.6031V13.9768C38.9681 14.279 38.6899 14.3744 38.3401 14.3585C37.871 14.3346 37.402 14.3585 36.933 14.3585C36.4321 14.3585 35.9313 14.3585 35.4225 14.3585V17.4039C36.4162 17.4039 37.3782 17.4118 38.348 17.4039C38.6978 17.4039 38.9761 17.4754 39.1669 17.7855V18.1593C39.0079 18.4773 38.7455 18.5807 38.4037 18.5727C37.9346 18.5648 37.4656 18.5727 36.9886 18.5727C36.4719 18.5727 35.9551 18.5727 35.4146 18.5727V21.6102C35.5736 21.6102 35.7008 21.6102 35.8359 21.6102C36.6945 21.6102 37.5451 21.6102 38.4037 21.6102C38.7455 21.6102 39.0079 21.7135 39.1669 22.0236V22.3974C38.9761 22.6995 38.6978 22.7949 38.348 22.7711C37.9028 22.7472 37.4577 22.7711 37.0125 22.7711H35.4305V25.8165C36.4242 25.8165 37.3861 25.8244 38.356 25.8165C38.7058 25.8165 38.984 25.888 39.1748 26.1981V26.5718C39.0158 26.882 38.7535 26.9853 38.4116 26.9774C37.5451 26.9615 36.6786 26.9774 35.8121 26.9774C35.6849 26.9774 35.5497 26.9933 35.4225 27.0012V30.0387C35.5815 30.0387 35.7167 30.0387 35.8439 30.0387C36.6945 30.0387 37.5531 30.0466 38.4037 30.0387C38.7455 30.0387 39.0079 30.1341 39.1669 30.4442V30.8179L39.0476 30.7145ZM34.1267 20.0278C34.1267 16.1237 34.1267 12.2195 34.1267 8.30745C34.1267 6.81258 33.1727 5.87431 31.6782 5.87431C29.8815 5.87431 28.0849 5.88226 26.2882 5.88226C20.2862 5.88226 14.2841 5.88226 8.28204 5.87431C6.83519 5.87431 5.88122 6.82848 5.87327 8.27564C5.87327 9.19005 5.87327 10.1124 5.87327 11.0268C5.87327 14.7242 5.88122 18.4137 5.88122 22.1111C5.88122 25.2996 5.88122 28.4802 5.87327 31.6687C5.87327 33.1795 6.81929 34.1177 8.33769 34.1257C8.87032 34.1257 9.40296 34.1257 9.93559 34.1257C17.154 34.1257 24.3644 34.1257 31.5828 34.1257C33.2045 34.1257 34.1188 33.2113 34.1188 31.5892C34.1188 27.7328 34.1188 23.8763 34.1188 20.0199L34.1267 20.0278Z" fill="#014898" stroke="#014898" stroke-width="0.2"/>
<path d="M19.9934 29.5238C17.0727 29.5238 14.1453 29.5238 11.2246 29.5238C10.602 29.5238 10.4762 29.398 10.4762 28.782C10.4762 22.9273 10.4762 17.0727 10.4762 11.218C10.4762 10.602 10.602 10.4762 11.2246 10.4762C17.0793 10.4762 22.934 10.4762 28.7887 10.4762C29.3914 10.4762 29.5238 10.6087 29.5238 11.1981C29.5238 17.066 29.5238 22.9274 29.5238 28.7953C29.5238 29.3914 29.3914 29.5238 28.7887 29.5238C25.8547 29.5238 22.9207 29.5238 19.9868 29.5238H19.9934ZM11.463 11.463V28.5304H28.537V11.463H11.463Z" fill="#014898" stroke="#014898" stroke-width="0.25"/>
</g>
<defs>
<clipPath id="clip0_2070_4104">
<rect width="40" height="40" fill="white"/>
</clipPath>
</defs>
</svg>
