<svg width="40" height="40" viewBox="0 0 40 40" fill="none" xmlns="http://www.w3.org/2000/svg">
<g clip-path="url(#clip0_2051_5493)">
<path d="M20.0172 6.71843C20.4809 6.71843 20.934 6.71843 21.3977 6.71843C22.2723 6.72897 22.8203 7.2771 22.8414 8.152C22.8519 8.77393 22.8519 9.3853 22.8414 10.0072C22.8309 10.334 22.9468 10.5132 23.2629 10.6186C23.6318 10.7451 24.0006 10.9032 24.3589 11.0719C24.654 11.2194 24.8753 11.1667 25.0966 10.9348C25.5286 10.4816 25.9607 10.0494 26.4033 9.61721C27.0356 9.00583 27.8048 9.00583 28.4266 9.62775C29.08 10.2707 29.7333 10.9243 30.3867 11.5884C31.0084 12.2103 31.0084 12.9903 30.3867 13.6123C29.9441 14.0655 29.5015 14.5082 29.0483 14.951C28.8376 15.1512 28.806 15.3621 28.9219 15.6256C29.0905 15.9945 29.2591 16.3635 29.3856 16.7535C29.4909 17.0802 29.6806 17.1751 30.0073 17.1751C30.608 17.1646 31.2192 17.1646 31.8199 17.1751C32.7367 17.1857 33.2847 17.7338 33.2847 18.6614C33.2847 19.5679 33.2847 20.4745 33.2847 21.3915C33.2741 22.2664 32.7261 22.8146 31.8515 22.8251C31.2297 22.8356 30.6185 22.8356 29.9968 22.8251C29.6701 22.8146 29.4909 22.9305 29.3856 23.2467C29.2696 23.6051 29.1221 23.9635 28.943 24.3008C28.7744 24.6276 28.8376 24.8595 29.101 25.102C29.5436 25.5131 29.9652 25.9558 30.3867 26.388C30.9979 27.0204 30.9979 27.7899 30.3761 28.4118C29.7333 29.0654 29.08 29.7189 28.4161 30.3725C27.7838 30.9944 27.0145 30.9839 26.3927 30.3725C25.9396 29.9297 25.497 29.487 25.0544 29.0338C24.8542 28.8229 24.6434 28.7913 24.38 28.9178C24.0006 29.097 23.6107 29.2551 23.2102 29.4027C22.9468 29.4976 22.8309 29.6557 22.8309 29.9297C22.8414 30.5517 22.8414 31.163 22.8309 31.785C22.8203 32.7547 22.2829 33.2923 21.3028 33.2923C20.4176 33.2923 19.543 33.2923 18.6578 33.2923C17.741 33.2923 17.193 32.7442 17.1824 31.8166C17.1719 31.2158 17.1719 30.6044 17.1824 30.0035C17.193 29.6768 17.0771 29.4976 16.7609 29.3922C16.4026 29.2762 16.0443 29.1286 15.7071 28.9494C15.3804 28.7808 15.1486 28.844 14.9062 29.1075C14.5058 29.5397 14.0737 29.9508 13.6522 30.3725C12.9988 31.0155 12.2401 31.0155 11.5972 30.383C10.9439 29.74 10.2905 29.0865 9.63716 28.4224C9.01541 27.8005 9.02595 27.0204 9.63716 26.3985C10.0798 25.9452 10.5224 25.5025 10.9755 25.0598C11.1863 24.8595 11.2179 24.6487 11.0914 24.3852C10.9123 24.0057 10.7542 23.6157 10.6067 23.2151C10.5118 22.9516 10.3537 22.8356 10.0798 22.8356C9.44747 22.8462 8.81519 22.8462 8.1829 22.8356C7.26608 22.8251 6.7181 22.277 6.7181 21.3494C6.7181 20.4534 6.7181 19.5574 6.7181 18.6614C6.7181 17.7443 7.26608 17.1962 8.19344 17.1857C8.79411 17.1857 9.40532 17.1751 10.006 17.1857C10.3327 17.1962 10.5118 17.0802 10.6172 16.764C10.7331 16.4162 10.8701 16.0683 11.0387 15.7415C11.2073 15.4148 11.1863 15.1618 10.9017 14.8983C10.4591 14.4872 10.0376 14.055 9.61608 13.6123C9.00487 12.9798 9.00487 12.2103 9.62662 11.5884C10.2694 10.9348 10.9228 10.2813 11.5867 9.62775C12.219 9.00583 12.9883 9.01637 13.61 9.62775C14.0632 10.0705 14.5058 10.5132 14.9484 10.9665C15.1486 11.1773 15.3593 11.2089 15.6228 11.0824C16.0022 10.9032 16.3921 10.7451 16.7925 10.5975C17.056 10.5027 17.1719 10.3445 17.1719 10.0705C17.1614 9.44855 17.1614 8.83717 17.1719 8.21525C17.1824 7.24548 17.7199 6.70788 18.6999 6.70788C19.1531 6.71843 19.5851 6.71843 20.0172 6.71843ZM7.68761 20.0001C7.68761 20.4218 7.68761 20.8434 7.68761 21.265C7.68761 21.771 7.80353 21.887 8.3199 21.887C8.92057 21.887 9.53178 21.887 10.1324 21.887C10.849 21.8975 11.2389 22.1821 11.5024 22.8567C11.6499 23.2362 11.808 23.6157 11.9661 23.9846C12.2611 24.6592 12.1874 25.1547 11.6815 25.6817C11.2495 26.1244 10.8069 26.5566 10.3748 26.9993C10.0481 27.3261 10.0481 27.4737 10.3643 27.7899C10.986 28.4224 11.6078 29.0443 12.2401 29.6662C12.5457 29.9719 12.7037 29.9719 13.0094 29.6662C13.473 29.213 13.9156 28.7492 14.3793 28.2959C14.8535 27.8426 15.3804 27.7478 15.9706 28.0113C16.371 28.1799 16.7609 28.3591 17.1719 28.5173C17.8463 28.7808 18.1309 29.1708 18.1309 29.8981C18.1414 30.5306 18.1309 31.163 18.1309 31.7955C18.1309 32.2066 18.2679 32.3331 18.6788 32.3436C19.543 32.3436 20.4176 32.3436 21.2818 32.3436C21.7665 32.3436 21.8824 32.2277 21.8824 31.7323C21.8824 31.1103 21.8719 30.499 21.8824 29.877C21.893 29.1813 22.1775 28.7913 22.8309 28.5383C23.2208 28.3802 23.6107 28.2221 24.0006 28.0534C24.654 27.7688 25.1598 27.8426 25.6656 28.3381C26.1082 28.7702 26.5403 29.213 26.9829 29.6451C27.3306 29.9825 27.4676 29.993 27.8048 29.6557C28.4266 29.0443 29.0378 28.4329 29.649 27.811C29.9757 27.4842 29.9757 27.3472 29.649 27.0204C29.1959 26.5566 28.7322 26.1139 28.2791 25.6501C27.8365 25.1968 27.7522 24.6698 28.0051 24.09C28.1842 23.6684 28.3634 23.2467 28.532 22.8146C28.7744 22.2137 29.1853 21.9186 29.8282 21.908C30.471 21.8975 31.1138 21.908 31.7672 21.908C32.1992 21.908 32.3257 21.771 32.3257 21.3388C32.3257 20.485 32.3257 19.6312 32.3257 18.7668C32.3257 18.2608 32.2098 18.1554 31.6934 18.1449C31.0611 18.1449 30.4288 18.1449 29.7965 18.1344C29.1748 18.1238 28.7638 17.8076 28.532 17.2384C28.3739 16.8378 28.2158 16.4267 28.0367 16.0367C27.7416 15.3621 27.8154 14.8666 28.3212 14.3396C28.7533 13.8969 29.1959 13.4647 29.6279 13.022C29.9546 12.6952 29.9546 12.5476 29.6385 12.2314C29.0167 11.5989 28.395 10.977 27.7627 10.3551C27.4571 10.0494 27.299 10.0494 26.9934 10.3551C26.5403 10.7978 26.0977 11.2511 25.6551 11.6938C25.1492 12.1892 24.6329 12.2735 23.9901 11.9889C23.6107 11.8203 23.2208 11.6516 22.8309 11.504C22.167 11.2405 21.8824 10.8505 21.8719 10.1232C21.8614 9.50125 21.8719 8.88988 21.8719 8.26796C21.8719 7.80415 21.7454 7.6882 21.2818 7.6882C20.4282 7.6882 19.5746 7.6882 18.7105 7.6882C18.2362 7.6882 18.1098 7.81469 18.1098 8.29958C18.1098 8.93204 18.1098 9.5645 18.1098 10.197C18.0993 10.84 17.7831 11.2616 17.193 11.4935C16.7925 11.6516 16.3921 11.8203 15.9916 11.9889C15.3488 12.2735 14.8324 12.1998 14.3266 11.7043C13.884 11.2721 13.452 10.8294 13.0094 10.3972C12.6616 10.0599 12.5246 10.0494 12.1874 10.3867C11.5656 10.9981 10.9544 11.6095 10.3432 12.2314C10.0165 12.5582 10.0165 12.6952 10.3432 13.022C10.7753 13.4647 11.2179 13.8969 11.6499 14.3396C12.1663 14.8666 12.2401 15.3726 11.945 16.0367C11.7869 16.3951 11.6289 16.764 11.4919 17.133C11.2179 17.8603 10.8174 18.1449 10.0271 18.1554C9.40532 18.1554 8.79411 18.1554 8.17236 18.1554C7.81407 18.1554 7.63492 18.3241 7.64546 18.6825C7.69815 19.1041 7.68761 19.5468 7.68761 20.0001Z" fill="#014898"/>
<path d="M8.07752 5.01078C7.17124 5.01078 6.2755 5.01078 5.36923 5.01078C5.25331 5.01078 5.09524 5.03186 5.02147 4.96862C4.88447 4.85267 4.70533 4.68401 4.70533 4.53644C4.70533 4.38886 4.88447 4.2202 5.02147 4.10425C5.09524 4.04101 5.25331 4.06209 5.36923 4.06209C6.70757 4.08317 8.05644 4.09371 9.39478 4.11479C9.97438 4.12534 10.1324 4.29399 10.0481 4.86321C9.869 6.20192 9.66877 7.55117 9.47909 8.88988C9.43693 9.20611 9.31048 9.45909 8.94164 9.43801C8.63604 9.42747 8.4885 9.17448 8.55173 8.75284C8.66765 7.87794 8.79411 7.00303 8.92057 6.12813C8.94164 6.00164 8.95218 5.8646 8.97326 5.64324C8.78357 5.79082 8.64658 5.88569 8.52012 5.9911C4.63156 9.29043 2.40802 13.4752 1.9865 18.5771C1.24883 27.4632 7.27662 35.643 15.9706 37.6142C19.3638 38.3836 22.7149 38.2044 26.0028 37.0555C26.1187 37.0133 26.2241 36.9817 26.34 36.9395C26.6246 36.8341 26.8564 36.9395 26.9513 37.2031C27.0566 37.4877 26.9407 37.7301 26.6457 37.825C26.1609 37.9936 25.6761 38.1623 25.1809 38.2993C15.1591 41.1138 4.89501 35.5165 1.79681 25.5868C-0.468882 18.3241 1.92327 10.3129 7.81407 5.36918C7.90891 5.29539 7.99321 5.2216 8.08806 5.13727C8.08806 5.09511 8.07752 5.05295 8.07752 5.01078Z" fill="#014898"/>
<path d="M33.3373 33.6402C34.2331 33.6402 35.0867 33.6402 35.9297 33.6402C36.0983 33.6402 36.2775 33.6191 36.4461 33.6296C36.7306 33.6613 36.9203 33.8299 36.9098 34.1251C36.8992 34.3886 36.7306 34.5573 36.4461 34.5678C35.7611 34.5889 35.0761 34.61 34.3912 34.631C33.6324 34.6521 32.8631 34.6837 32.1044 34.6943C31.6829 34.7048 31.4826 34.494 31.5248 34.0934C31.6618 32.6915 31.8093 31.2895 31.9463 29.8876C31.9885 29.5081 32.1992 29.3078 32.4838 29.35C32.7683 29.3922 32.9264 29.6346 32.8842 30.0141C32.7894 30.9838 32.684 31.9536 32.5786 32.9866C32.7051 32.8812 32.7788 32.8285 32.8421 32.7653C35.74 29.8243 37.4577 26.3036 37.9741 22.2032C39.1438 12.8217 32.8315 4.09371 23.5475 2.24903C20.7338 1.67982 17.9412 1.79577 15.1802 2.55472C15.1275 2.56526 15.0854 2.58635 15.0327 2.59689C14.6217 2.7023 14.3793 2.60743 14.2845 2.31228C14.2002 2.02767 14.3688 1.77469 14.7692 1.67982C15.4858 1.50062 16.2024 1.31088 16.919 1.19493C22.1564 0.414897 26.9829 1.47954 31.2613 4.64184C35.6452 7.87794 38.2586 12.2419 38.9015 17.6811C39.6181 23.7843 37.7423 29.0548 33.4849 33.4715C33.4322 33.5137 33.39 33.5664 33.3373 33.6402Z" fill="#014898"/>
<path d="M20.0172 26.4301C16.4553 26.4301 13.5889 23.5524 13.5889 20.0001C13.5889 16.4372 16.4658 13.5701 20.0172 13.5701C23.5791 13.5701 26.4454 16.4478 26.4454 20.0001C26.4454 23.563 23.5685 26.4301 20.0172 26.4301ZM14.5795 20.4745C14.6533 22.9727 17.0981 25.4077 19.543 25.4393C19.543 25.102 19.543 24.7647 19.543 24.4168C19.543 24.1006 19.6694 23.8687 20.0172 23.8687C20.3649 23.8687 20.4914 24.1006 20.4914 24.4168C20.4914 24.7541 20.4914 25.0914 20.4914 25.4393C22.9679 25.376 25.3811 22.9621 25.4548 20.4745C25.1176 20.4745 24.7804 20.4745 24.4327 20.4745C24.1165 20.4745 23.8847 20.348 23.8741 20.0001C23.8741 19.6523 24.0954 19.5258 24.4221 19.5258C24.7593 19.5258 25.0966 19.5258 25.4443 19.5258C25.2862 16.6691 22.6728 14.582 20.4809 14.5926C20.4809 14.8983 20.4809 15.1934 20.4809 15.4991C20.4809 15.8259 20.3544 16.0472 20.0067 16.0472C19.6589 16.0472 19.5324 15.8153 19.5324 15.4886C19.5324 15.1829 19.5324 14.8666 19.5324 14.5504C16.7504 14.7507 14.6744 17.1435 14.5795 19.5258C14.9167 19.5258 15.2645 19.5258 15.6017 19.5258C15.9284 19.5258 16.1497 19.6628 16.1497 20.0107C16.1497 20.3585 15.9073 20.4745 15.5912 20.4745C15.2645 20.4745 14.9378 20.4745 14.5795 20.4745Z" fill="#014898"/>
<path d="M20.4914 19.5258C20.8708 19.5258 21.1975 19.5258 21.5241 19.5258C21.8403 19.5258 22.0405 19.6839 22.0405 20.0001C22.0405 20.3058 21.8403 20.4745 21.5241 20.4745C21.0394 20.4745 20.5546 20.485 20.0593 20.4745C19.701 20.4745 19.5324 20.2742 19.5324 19.9263C19.5324 19.1674 19.5219 18.3979 19.5324 17.6389C19.5324 17.2911 19.7432 17.0697 20.0172 17.0908C20.3333 17.1224 20.4703 17.3227 20.4703 17.6284C20.4914 18.2398 20.4914 18.8617 20.4914 19.5258Z" fill="#014898"/>
<path d="M20.0172 6.71843C20.4809 6.71843 20.934 6.71843 21.3977 6.71843C22.2723 6.72897 22.8203 7.2771 22.8414 8.152C22.8519 8.77393 22.8519 9.3853 22.8414 10.0072C22.8309 10.334 22.9468 10.5132 23.2629 10.6186C23.6318 10.7451 24.0006 10.9032 24.3589 11.0719C24.654 11.2194 24.8753 11.1667 25.0966 10.9348C25.5286 10.4816 25.9607 10.0494 26.4033 9.61721C27.0356 9.00583 27.8048 9.00583 28.4266 9.62775C29.08 10.2707 29.7333 10.9243 30.3867 11.5884C31.0084 12.2103 31.0084 12.9903 30.3867 13.6123C29.9441 14.0655 29.5015 14.5082 29.0483 14.951C28.8376 15.1512 28.806 15.3621 28.9219 15.6256C29.0905 15.9945 29.2591 16.3635 29.3856 16.7535C29.4909 17.0802 29.6806 17.1751 30.0073 17.1751C30.608 17.1646 31.2192 17.1646 31.8199 17.1751C32.7367 17.1857 33.2847 17.7338 33.2847 18.6614C33.2847 19.5679 33.2847 20.4745 33.2847 21.3915C33.2741 22.2664 32.7261 22.8146 31.8515 22.8251C31.2297 22.8356 30.6185 22.8356 29.9968 22.8251C29.6701 22.8146 29.4909 22.9305 29.3856 23.2467C29.2696 23.6051 29.1221 23.9635 28.943 24.3008C28.7744 24.6276 28.8376 24.8595 29.101 25.102C29.5436 25.5131 29.9652 25.9558 30.3867 26.388C30.9979 27.0204 30.9979 27.7899 30.3761 28.4118C29.7333 29.0654 29.08 29.7189 28.4161 30.3725C27.7838 30.9944 27.0145 30.9839 26.3927 30.3725C25.9396 29.9297 25.497 29.487 25.0544 29.0338C24.8542 28.8229 24.6434 28.7913 24.38 28.9178C24.0006 29.097 23.6107 29.2551 23.2102 29.4027C22.9468 29.4976 22.8309 29.6557 22.8309 29.9297C22.8414 30.5517 22.8414 31.163 22.8309 31.785C22.8203 32.7547 22.2829 33.2923 21.3028 33.2923C20.4176 33.2923 19.543 33.2923 18.6578 33.2923C17.741 33.2923 17.193 32.7442 17.1824 31.8166C17.1719 31.2158 17.1719 30.6044 17.1824 30.0035C17.193 29.6768 17.0771 29.4976 16.7609 29.3922C16.4026 29.2762 16.0443 29.1286 15.7071 28.9494C15.3804 28.7808 15.1486 28.844 14.9062 29.1075C14.5058 29.5397 14.0737 29.9508 13.6522 30.3725C12.9988 31.0155 12.2401 31.0155 11.5972 30.383C10.9439 29.74 10.2905 29.0865 9.63716 28.4224C9.01541 27.8005 9.02595 27.0204 9.63716 26.3985C10.0798 25.9452 10.5224 25.5025 10.9755 25.0598C11.1863 24.8595 11.2179 24.6487 11.0914 24.3852C10.9123 24.0057 10.7542 23.6157 10.6067 23.2151C10.5118 22.9516 10.3537 22.8356 10.0798 22.8356C9.44747 22.8462 8.81519 22.8462 8.1829 22.8356C7.26608 22.8251 6.7181 22.277 6.7181 21.3494C6.7181 20.4534 6.7181 19.5574 6.7181 18.6614C6.7181 17.7443 7.26608 17.1962 8.19344 17.1857C8.79411 17.1857 9.40532 17.1751 10.006 17.1857C10.3327 17.1962 10.5118 17.0802 10.6172 16.764C10.7331 16.4162 10.8701 16.0683 11.0387 15.7415C11.2073 15.4148 11.1863 15.1618 10.9017 14.8983C10.4591 14.4872 10.0376 14.055 9.61608 13.6123C9.00487 12.9798 9.00487 12.2103 9.62662 11.5884C10.2694 10.9348 10.9228 10.2813 11.5867 9.62775C12.219 9.00583 12.9883 9.01637 13.61 9.62775C14.0632 10.0705 14.5058 10.5132 14.9484 10.9665C15.1486 11.1773 15.3593 11.2089 15.6228 11.0824C16.0022 10.9032 16.3921 10.7451 16.7925 10.5975C17.056 10.5027 17.1719 10.3445 17.1719 10.0705C17.1614 9.44855 17.1614 8.83717 17.1719 8.21525C17.1824 7.24548 17.7199 6.70788 18.6999 6.70788C19.1531 6.71843 19.5851 6.71843 20.0172 6.71843ZM7.68761 20.0001C7.68761 20.4218 7.68761 20.8434 7.68761 21.265C7.68761 21.771 7.80353 21.887 8.3199 21.887C8.92057 21.887 9.53178 21.887 10.1324 21.887C10.849 21.8975 11.2389 22.1821 11.5024 22.8567C11.6499 23.2362 11.808 23.6157 11.9661 23.9846C12.2611 24.6592 12.1874 25.1547 11.6815 25.6817C11.2495 26.1244 10.8069 26.5566 10.3748 26.9993C10.0481 27.3261 10.0481 27.4737 10.3643 27.7899C10.986 28.4224 11.6078 29.0443 12.2401 29.6662C12.5457 29.9719 12.7037 29.9719 13.0094 29.6662C13.473 29.213 13.9156 28.7492 14.3793 28.2959C14.8535 27.8426 15.3804 27.7478 15.9706 28.0113C16.371 28.1799 16.7609 28.3591 17.1719 28.5173C17.8463 28.7808 18.1309 29.1708 18.1309 29.8981C18.1414 30.5306 18.1309 31.163 18.1309 31.7955C18.1309 32.2066 18.2679 32.3331 18.6788 32.3436C19.543 32.3436 20.4176 32.3436 21.2818 32.3436C21.7665 32.3436 21.8824 32.2277 21.8824 31.7323C21.8824 31.1103 21.8719 30.499 21.8824 29.877C21.893 29.1813 22.1775 28.7913 22.8309 28.5383C23.2208 28.3802 23.6107 28.2221 24.0006 28.0534C24.654 27.7688 25.1598 27.8426 25.6656 28.3381C26.1082 28.7702 26.5403 29.213 26.9829 29.6451C27.3306 29.9825 27.4676 29.993 27.8048 29.6557C28.4266 29.0443 29.0378 28.4329 29.649 27.811C29.9757 27.4842 29.9757 27.3472 29.649 27.0204C29.1959 26.5566 28.7322 26.1139 28.2791 25.6501C27.8365 25.1968 27.7522 24.6698 28.0051 24.09C28.1842 23.6684 28.3634 23.2467 28.532 22.8146C28.7744 22.2137 29.1853 21.9186 29.8282 21.908C30.471 21.8975 31.1138 21.908 31.7672 21.908C32.1992 21.908 32.3257 21.771 32.3257 21.3388C32.3257 20.485 32.3257 19.6312 32.3257 18.7668C32.3257 18.2608 32.2098 18.1554 31.6934 18.1449C31.0611 18.1449 30.4288 18.1449 29.7965 18.1344C29.1748 18.1238 28.7638 17.8076 28.532 17.2384C28.3739 16.8378 28.2158 16.4267 28.0367 16.0367C27.7416 15.3621 27.8154 14.8666 28.3212 14.3396C28.7533 13.8969 29.1959 13.4647 29.6279 13.022C29.9546 12.6952 29.9546 12.5476 29.6385 12.2314C29.0167 11.5989 28.395 10.977 27.7627 10.3551C27.4571 10.0494 27.299 10.0494 26.9934 10.3551C26.5403 10.7978 26.0977 11.2511 25.6551 11.6938C25.1492 12.1892 24.6329 12.2735 23.9901 11.9889C23.6107 11.8203 23.2208 11.6516 22.8309 11.504C22.167 11.2405 21.8824 10.8505 21.8719 10.1232C21.8614 9.50125 21.8719 8.88988 21.8719 8.26796C21.8719 7.80415 21.7454 7.6882 21.2818 7.6882C20.4282 7.6882 19.5746 7.6882 18.7105 7.6882C18.2362 7.6882 18.1098 7.81469 18.1098 8.29958C18.1098 8.93204 18.1098 9.5645 18.1098 10.197C18.0993 10.84 17.7831 11.2616 17.193 11.4935C16.7925 11.6516 16.3921 11.8203 15.9916 11.9889C15.3488 12.2735 14.8324 12.1998 14.3266 11.7043C13.884 11.2721 13.452 10.8294 13.0094 10.3972C12.6616 10.0599 12.5246 10.0494 12.1874 10.3867C11.5656 10.9981 10.9544 11.6095 10.3432 12.2314C10.0165 12.5582 10.0165 12.6952 10.3432 13.022C10.7753 13.4647 11.2179 13.8969 11.6499 14.3396C12.1663 14.8666 12.2401 15.3726 11.945 16.0367C11.7869 16.3951 11.6289 16.764 11.4919 17.133C11.2179 17.8603 10.8174 18.1449 10.0271 18.1554C9.40532 18.1554 8.79411 18.1554 8.17236 18.1554C7.81407 18.1554 7.63492 18.3241 7.64546 18.6825C7.69815 19.1041 7.68761 19.5468 7.68761 20.0001Z" stroke="#014898" stroke-width="0.4"/>
<path d="M8.07752 5.01078C7.17124 5.01078 6.2755 5.01078 5.36923 5.01078C5.25331 5.01078 5.09524 5.03186 5.02147 4.96862C4.88447 4.85267 4.70533 4.68401 4.70533 4.53644C4.70533 4.38886 4.88447 4.2202 5.02147 4.10425C5.09524 4.04101 5.25331 4.06209 5.36923 4.06209C6.70757 4.08317 8.05644 4.09371 9.39478 4.11479C9.97438 4.12534 10.1324 4.29399 10.0481 4.86321C9.869 6.20192 9.66877 7.55117 9.47909 8.88988C9.43693 9.20611 9.31048 9.45909 8.94164 9.43801C8.63604 9.42747 8.4885 9.17448 8.55173 8.75284C8.66765 7.87794 8.79411 7.00303 8.92057 6.12813C8.94164 6.00164 8.95218 5.8646 8.97326 5.64324C8.78357 5.79082 8.64658 5.88569 8.52012 5.9911C4.63156 9.29043 2.40802 13.4752 1.9865 18.5771C1.24883 27.4632 7.27662 35.643 15.9706 37.6142C19.3638 38.3836 22.7149 38.2044 26.0028 37.0555C26.1187 37.0133 26.2241 36.9817 26.34 36.9395C26.6246 36.8341 26.8564 36.9395 26.9513 37.2031C27.0566 37.4877 26.9407 37.7301 26.6457 37.825C26.1609 37.9936 25.6761 38.1623 25.1809 38.2993C15.1591 41.1138 4.89501 35.5165 1.79681 25.5868C-0.468882 18.3241 1.92327 10.3129 7.81407 5.36918C7.90891 5.29539 7.99321 5.2216 8.08806 5.13727C8.08806 5.09511 8.07752 5.05295 8.07752 5.01078Z" stroke="#014898" stroke-width="0.4"/>
<path d="M33.3373 33.6402C34.2331 33.6402 35.0867 33.6402 35.9297 33.6402C36.0983 33.6402 36.2775 33.6191 36.4461 33.6296C36.7306 33.6613 36.9203 33.8299 36.9098 34.1251C36.8992 34.3886 36.7306 34.5573 36.4461 34.5678C35.7611 34.5889 35.0761 34.61 34.3912 34.631C33.6324 34.6521 32.8631 34.6837 32.1044 34.6943C31.6829 34.7048 31.4826 34.494 31.5248 34.0934C31.6618 32.6915 31.8093 31.2895 31.9463 29.8876C31.9885 29.5081 32.1992 29.3078 32.4838 29.35C32.7683 29.3922 32.9264 29.6346 32.8842 30.0141C32.7894 30.9838 32.684 31.9536 32.5786 32.9866C32.7051 32.8812 32.7788 32.8285 32.8421 32.7653C35.74 29.8243 37.4577 26.3036 37.9741 22.2032C39.1438 12.8217 32.8315 4.09371 23.5475 2.24903C20.7338 1.67982 17.9412 1.79577 15.1802 2.55472C15.1275 2.56526 15.0854 2.58635 15.0327 2.59689C14.6217 2.7023 14.3793 2.60743 14.2845 2.31228C14.2002 2.02767 14.3688 1.77469 14.7692 1.67982C15.4858 1.50062 16.2024 1.31088 16.919 1.19493C22.1564 0.414897 26.9829 1.47954 31.2613 4.64184C35.6452 7.87794 38.2586 12.2419 38.9015 17.6811C39.6181 23.7843 37.7423 29.0548 33.4849 33.4715C33.4322 33.5137 33.39 33.5664 33.3373 33.6402Z" stroke="#014898" stroke-width="0.4"/>
<path d="M20.0172 26.4301C16.4553 26.4301 13.5889 23.5524 13.5889 20.0001C13.5889 16.4372 16.4658 13.5701 20.0172 13.5701C23.5791 13.5701 26.4454 16.4478 26.4454 20.0001C26.4454 23.563 23.5685 26.4301 20.0172 26.4301ZM14.5795 20.4745C14.6533 22.9727 17.0981 25.4077 19.543 25.4393C19.543 25.102 19.543 24.7647 19.543 24.4168C19.543 24.1006 19.6694 23.8687 20.0172 23.8687C20.3649 23.8687 20.4914 24.1006 20.4914 24.4168C20.4914 24.7541 20.4914 25.0914 20.4914 25.4393C22.9679 25.376 25.3811 22.9621 25.4548 20.4745C25.1176 20.4745 24.7804 20.4745 24.4327 20.4745C24.1165 20.4745 23.8847 20.348 23.8741 20.0001C23.8741 19.6523 24.0954 19.5258 24.4221 19.5258C24.7593 19.5258 25.0966 19.5258 25.4443 19.5258C25.2862 16.6691 22.6728 14.582 20.4809 14.5926C20.4809 14.8983 20.4809 15.1934 20.4809 15.4991C20.4809 15.8259 20.3544 16.0472 20.0067 16.0472C19.6589 16.0472 19.5324 15.8153 19.5324 15.4886C19.5324 15.1829 19.5324 14.8666 19.5324 14.5504C16.7504 14.7507 14.6744 17.1435 14.5795 19.5258C14.9167 19.5258 15.2645 19.5258 15.6017 19.5258C15.9284 19.5258 16.1497 19.6628 16.1497 20.0107C16.1497 20.3585 15.9073 20.4745 15.5912 20.4745C15.2645 20.4745 14.9378 20.4745 14.5795 20.4745Z" stroke="#014898" stroke-width="0.4"/>
<path d="M20.4914 19.5258C20.8708 19.5258 21.1975 19.5258 21.5241 19.5258C21.8403 19.5258 22.0405 19.6839 22.0405 20.0001C22.0405 20.3058 21.8403 20.4745 21.5241 20.4745C21.0394 20.4745 20.5546 20.485 20.0593 20.4745C19.701 20.4745 19.5324 20.2742 19.5324 19.9263C19.5324 19.1674 19.5219 18.3979 19.5324 17.6389C19.5324 17.2911 19.7432 17.0697 20.0172 17.0908C20.3333 17.1224 20.4703 17.3227 20.4703 17.6284C20.4914 18.2398 20.4914 18.8617 20.4914 19.5258Z" stroke="#014898" stroke-width="0.4"/>
</g>
<defs>
<clipPath id="clip0_2051_5493">
<rect width="40" height="40" fill="white"/>
</clipPath>
</defs>
</svg>
