<svg width="43" height="43" viewBox="0 0 43 43" fill="none" xmlns="http://www.w3.org/2000/svg">
<g clip-path="url(#clip0_2128_2821)">
<path d="M0 10.0552V0.461191C0.236197 0.127434 0.54507 0 0.956901 0C3.82761 0.0121366 6.69831 0 9.56901 0.0060683C10.2655 0.0060683 10.5017 0.2488 10.5077 0.940587C10.5077 1.97827 10.5077 3.01595 10.5077 4.05363C10.5077 4.19927 10.5077 4.34491 10.5077 4.48448H32.4983C32.4983 3.27688 32.4983 2.09963 32.4983 0.922382C32.4983 0.267005 32.7345 0.0060683 33.3644 0.0060683C36.2896 0 39.2148 0 42.14 0.0060683C42.7456 0.0060683 43 0.279142 43 0.892041C43 3.79269 43 6.69941 43 9.60006C43 10.2372 42.7517 10.4982 42.1158 10.5042C41.0801 10.5164 40.0445 10.5042 39.0089 10.5042C38.8575 10.5042 38.7121 10.5042 38.5425 10.5042V32.4897C38.7121 32.4897 38.8635 32.4897 39.0149 32.4897C40.0506 32.4897 41.0862 32.4836 42.1218 32.4897C42.7396 32.4897 43 32.7567 43 33.3575C43 36.2763 43 39.1891 43 42.108C43 42.7027 42.7517 42.9879 42.1763 42.9879C39.2208 42.9939 36.2714 42.9939 33.3159 42.9879C32.7527 42.9879 32.4983 42.7148 32.4983 42.1504C32.4983 41.0824 32.4983 40.0205 32.4983 38.9524C32.4983 38.8007 32.4983 38.6551 32.4983 38.5034H10.5017C10.5017 39.6806 10.5017 40.8275 10.5017 41.9745C10.5017 42.7815 10.2897 42.9939 9.48423 42.9939C6.67408 42.9939 3.85789 42.9939 1.04775 43C0.61169 43 0.260423 42.8968 0.00605634 42.5388V32.9448C0.260423 32.5807 0.61169 32.4654 1.04775 32.4836C1.8169 32.5079 2.58606 32.4897 3.35521 32.4897C3.57324 32.4897 3.79127 32.4897 4.00324 32.4897V10.5103C3.00394 10.5103 2.02282 10.4921 1.04775 10.5164C0.61169 10.5285 0.260423 10.4132 0.00605634 10.0491L0 10.0552ZM5.4931 32.4897C5.67479 32.4897 5.8262 32.4897 5.97761 32.4897C7.16465 32.4897 8.35775 32.4897 9.54479 32.4897C10.2715 32.4897 10.5017 32.7264 10.5017 33.4424C10.5017 33.9886 10.5017 34.5347 10.5017 35.0809C10.5017 35.7059 10.5017 36.3309 10.5017 36.9742H32.4741C32.4801 36.8164 32.4923 36.6768 32.4923 36.5433C32.4923 35.4935 32.4923 34.4376 32.4923 33.3878C32.4923 32.7506 32.7345 32.4958 33.3765 32.4897C34.4424 32.4836 35.5023 32.4897 36.5682 32.4897C36.7135 32.4897 36.8649 32.4897 37.0224 32.4897V10.5103C36.8528 10.5103 36.7014 10.5103 36.55 10.5103C35.4841 10.5103 34.4242 10.5164 33.3583 10.5103C32.7406 10.5103 32.4983 10.2494 32.4923 9.63647C32.4923 8.62913 32.4923 7.61572 32.4923 6.60838C32.4923 6.42027 32.4923 6.22608 32.4923 6.03189H10.5017C10.5017 7.22128 10.5017 8.38033 10.5017 9.53937C10.5017 10.2858 10.2776 10.5103 9.52056 10.5164C8.33352 10.5164 7.14042 10.5164 5.95338 10.5164C5.80197 10.5164 5.65662 10.5285 5.4931 10.5406V32.4897ZM1.48986 1.48673V9.0175H9.02394V1.48673H1.48986ZM33.97 9.0175H41.5101V1.50494H33.97V9.0175ZM9.03 33.9825H1.48986V41.4951H9.03V33.9825ZM33.9639 41.4951H41.5041V33.9825H33.9639V41.4951Z" fill="#014898"/>
</g>
<defs>
<clipPath id="clip0_2128_2821">
<rect width="43" height="43" fill="white"/>
</clipPath>
</defs>
</svg>
