<svg width="44" height="37" viewBox="0 0 44 37" fill="none" xmlns="http://www.w3.org/2000/svg">
<g clip-path="url(#clip0_2171_4386)">
<path d="M0 18.2512C0.239618 17.855 0.581928 17.7151 1.03834 17.7268C1.95117 17.7501 2.864 17.7384 3.78824 17.7384C3.89093 16.9227 3.94799 16.1303 4.09632 15.3495C5.32864 8.78852 8.95713 4.1038 14.9476 1.4701C22.5697 -1.88612 31.5382 0.700965 36.4561 7.52994C36.536 7.64648 36.6387 7.76301 36.6957 7.8912C36.8555 8.25246 36.7756 8.57876 36.4561 8.82348C36.1366 9.05655 35.8057 9.02159 35.5205 8.75356C35.4178 8.66033 35.3379 8.53215 35.258 8.41561C31.6523 3.68427 26.9056 1.34191 21.0407 1.58663C13.3501 1.88963 6.78917 7.91451 5.55685 15.6641C5.45415 16.3284 5.38569 17.0159 5.29441 17.7384C6.15019 17.7384 6.94891 17.7384 7.74764 17.7384C7.91879 17.7384 8.08995 17.7384 8.2611 17.7384C8.60341 17.7384 8.88867 17.8433 9.03701 18.1696C9.18534 18.4959 9.10547 18.7873 8.88867 19.0669C8.08995 20.1274 7.29122 21.1879 6.48109 22.2484C6.0589 22.7961 5.64813 23.3555 5.22595 23.9032C4.74671 24.5325 4.26748 24.5441 3.81106 23.9148C2.55592 22.2134 1.31219 20.512 0.0684622 18.8106C0.0570518 18.7873 0.0228207 18.7756 0 18.764C0 18.6008 0 18.426 0 18.2512ZM4.52991 22.3532C5.31723 21.3161 6.04749 20.3372 6.84622 19.2884C5.283 19.2884 3.81106 19.2884 2.27066 19.2884C3.03516 20.3372 3.75401 21.3161 4.52991 22.3532Z" fill="#014898"/>
<path d="M43.8154 18.7776C43.5644 19.1738 43.2107 19.2787 42.7543 19.267C41.8414 19.2437 40.9286 19.2553 40.0272 19.2553C39.9245 20.0827 39.8675 20.8868 39.7191 21.6676C38.5324 28.0188 35.0637 32.6453 29.3243 35.3372C21.5766 38.9731 12.4141 36.4793 7.37075 29.4988C7.27946 29.3706 7.17677 29.2424 7.10831 29.1026C6.94856 28.753 7.07408 28.3568 7.39357 28.147C7.71306 27.9489 8.0896 28.0072 8.35204 28.3218C8.7514 28.8113 9.11653 29.3357 9.53871 29.8135C13.0645 33.7057 17.4347 35.6286 22.615 35.4305C30.317 35.1391 36.741 29.4056 38.2129 21.6443C38.3499 20.8868 38.4183 20.1177 38.521 19.302C38.3271 19.2903 38.1787 19.267 38.0304 19.267C37.2317 19.267 36.4329 19.2553 35.6342 19.267C35.2691 19.267 34.9496 19.1971 34.7784 18.8242C34.6187 18.4746 34.7442 18.1832 34.9496 17.8919C36.1363 16.2953 37.3229 14.6872 38.5096 13.079C38.966 12.4613 39.4567 12.4613 39.9359 13.0906C41.2367 14.8037 42.5261 16.5284 43.8154 18.2415C43.8154 18.4279 43.8154 18.6027 43.8154 18.7776ZM41.5448 17.7287C40.7461 16.6683 39.993 15.6777 39.2171 14.6405C38.4526 15.6777 37.7223 16.6683 36.9464 17.7287C38.5096 17.7287 39.9816 17.7287 41.5448 17.7287Z" fill="#014898"/>
<path d="M21.5994 30.114C15.2438 29.8693 10.3146 24.5203 10.5428 18.0992C10.771 11.6548 16.0882 6.6554 22.4438 6.91178C28.6054 7.1565 33.5118 12.6337 33.2608 18.9965C33.0326 25.2894 27.7268 30.3354 21.5994 30.114ZM21.9189 8.41509C16.4647 8.40343 12.0375 12.9134 12.0375 18.4954C12.0261 24.0658 16.4305 28.5757 21.8961 28.5874C27.3502 28.599 31.766 24.1008 31.7775 18.5187C31.7889 12.9483 27.3731 8.42674 21.9189 8.41509Z" fill="#014898"/>
<path d="M19.5126 21.5012C19.6267 21.3381 19.6951 21.1866 19.8092 21.07C22.0571 18.7743 24.3049 16.4785 26.5528 14.1828C26.6669 14.0663 26.7696 13.9497 26.9065 13.8682C27.2146 13.6584 27.5455 13.6817 27.8079 13.9381C28.0932 14.2061 28.1388 14.5441 27.9334 14.8937C27.865 15.0102 27.7509 15.1151 27.6596 15.22C25.1607 17.7721 22.6618 20.3242 20.163 22.8763C19.6495 23.4008 19.3072 23.4008 18.7823 22.8647C17.8695 21.9441 16.9681 21.0118 16.0552 20.0911C15.77 19.7998 15.6901 19.4619 15.9069 19.1006C16.0895 18.7859 16.3975 18.6811 16.717 18.7859C16.8996 18.8442 17.0593 18.9841 17.1963 19.1239C17.9379 19.8814 18.6796 20.6505 19.5126 21.5012Z" fill="#014898"/>
</g>
<defs>
<clipPath id="clip0_2171_4386">
<rect width="43.8158" height="37" fill="white"/>
</clipPath>
</defs>
</svg>
