<svg width="47" height="47" viewBox="0 0 47 47" fill="none" xmlns="http://www.w3.org/2000/svg">
<g clip-path="url(#clip0_2171_4539)">
<path d="M46.0695 16.9752V43.7782C46.0695 44.3863 45.8279 44.9694 45.398 45.3994C44.968 45.8294 44.3849 46.0709 43.7768 46.0709H20.581C20.286 46.0709 20.0031 45.9537 19.7945 45.7451C19.5859 45.5365 19.4687 45.2536 19.4688 44.9586V30.7554C19.4688 30.5417 19.5537 30.3366 19.7049 30.1855C19.856 30.0343 20.0611 29.9494 20.2749 29.9494H25.1113C25.323 29.9494 25.5327 29.9077 25.7283 29.8267C25.9239 29.7457 26.1016 29.6269 26.2513 29.4772C26.401 29.3275 26.5198 29.1497 26.6008 28.9541C26.6818 28.7585 26.7235 28.5489 26.7235 28.3372V22.6945C26.7235 22.2669 26.5536 21.8569 26.2513 21.5545C25.949 21.2522 25.5389 21.0823 25.1113 21.0823H20.2749C20.0611 21.0823 19.856 20.9974 19.7049 20.8462C19.5537 20.6951 19.4688 20.4901 19.4688 20.2763V16.2459C19.4687 16.0321 19.5537 15.827 19.7049 15.6759C19.856 15.5247 20.0611 15.4398 20.2749 15.4398H25.1113C25.5389 15.4398 25.949 15.2699 26.2513 14.9676C26.5536 14.6652 26.7235 14.2552 26.7235 13.8276V7.37891H36.3406" stroke="#014898" stroke-width="1.7146" stroke-linecap="round" stroke-linejoin="round"/>
<path d="M17.0521 4.96094H21.0827C21.1885 4.96093 21.2933 4.98177 21.3911 5.02227C21.4889 5.06277 21.5778 5.12214 21.6527 5.19698C21.7275 5.27183 21.7869 5.36068 21.8274 5.45847C21.8679 5.55626 21.8888 5.66108 21.8888 5.76693L21.8894 9.79735C21.8894 9.90322 21.8685 10.0081 21.828 10.1059C21.7875 10.2037 21.7281 10.2925 21.6533 10.3674C21.5784 10.4423 21.4896 10.5017 21.3918 10.5422C21.2939 10.5827 21.1891 10.6036 21.0833 10.6036H17.0521C16.8384 10.6036 16.6333 10.5186 16.4822 10.3675C16.331 10.2163 16.2461 10.0113 16.2461 9.79747V5.76693C16.2461 5.55316 16.331 5.34816 16.4822 5.197C16.6334 5.04585 16.8384 4.96094 17.0521 4.96094Z" stroke="#014898" stroke-width="1.7146" stroke-linecap="round" stroke-linejoin="round"/>
<path d="M8.99023 20.274V16.2436C8.99023 16.0298 9.07516 15.8248 9.22632 15.6736C9.37748 15.5225 9.5825 15.4375 9.79628 15.4375H13.8268C14.0406 15.4376 14.2455 15.5225 14.3967 15.6736C14.5478 15.8248 14.6327 16.0298 14.6328 16.2435L14.6333 20.2739C14.6333 20.3798 14.6124 20.4846 14.5719 20.5824C14.5314 20.6802 14.4721 20.7691 14.3972 20.844C14.3224 20.9188 14.2335 20.9782 14.1357 21.0187C14.0379 21.0592 13.9331 21.0801 13.8272 21.0801H9.79611C9.58236 21.08 9.37739 20.9951 9.22626 20.8439C9.07513 20.6928 8.99023 20.4878 8.99023 20.274Z" stroke="#014898" stroke-width="1.7146" stroke-linecap="round" stroke-linejoin="round"/>
<path d="M0.931641 30.7544V26.724C0.931641 26.5102 1.01656 26.3052 1.16773 26.1541C1.31889 26.0029 1.52391 25.918 1.73769 25.918H5.76806C5.98182 25.918 6.18683 26.0029 6.338 26.154C6.48917 26.3051 6.57412 26.5101 6.57416 26.7239L6.57474 30.7543C6.57474 30.8602 6.5539 30.965 6.51339 31.0628C6.47289 31.1606 6.41351 31.2495 6.33866 31.3244C6.2638 31.3993 6.17494 31.4586 6.07713 31.4992C5.97932 31.5397 5.8745 31.5605 5.76863 31.5605H1.73752C1.52377 31.5605 1.31879 31.4755 1.16766 31.3244C1.01654 31.1732 0.931641 30.9682 0.931641 30.7544Z" stroke="#014898" stroke-width="1.7146" stroke-linecap="round" stroke-linejoin="round"/>
<path d="M6.57179 0.929688H10.6023C10.8161 0.929687 11.0211 1.01459 11.1722 1.16573C11.3234 1.31687 11.4083 1.52187 11.4084 1.73562L11.4089 5.76605C11.409 5.9798 11.3241 6.18483 11.173 6.33602C11.0219 6.48721 10.8169 6.57219 10.6032 6.57227H6.57208C6.46618 6.57231 6.36132 6.55149 6.26347 6.511C6.16563 6.47051 6.07672 6.41113 6.00183 6.33627C5.92694 6.2614 5.86753 6.17251 5.827 6.07468C5.78647 5.97685 5.76562 5.872 5.76563 5.7661V1.73574C5.76563 1.62988 5.78649 1.52506 5.82701 1.42726C5.86753 1.32946 5.92691 1.2406 6.00177 1.16575C6.07663 1.0909 6.1655 1.03153 6.2633 0.991027C6.36111 0.950523 6.46593 0.92968 6.57179 0.929688Z" stroke="#014898" stroke-width="1.7146" stroke-linecap="round" stroke-linejoin="round"/>
<path d="M36.9707 7.53125L37.7168 8.2668L45.8941 16.3326H38.4326C38.0496 16.3364 37.6808 16.1884 37.4068 15.9208C37.1329 15.6532 36.9761 15.288 36.971 14.905L36.9707 7.53125Z" stroke="#014898" stroke-width="1.7146" stroke-linecap="round" stroke-linejoin="round"/>
</g>
<defs>
<clipPath id="clip0_2171_4539">
<rect width="47" height="47" fill="white"/>
</clipPath>
</defs>
</svg>
