<svg width="40" height="40" viewBox="0 0 40 40" fill="none" xmlns="http://www.w3.org/2000/svg">
<g clip-path="url(#clip0_2171_5019)">
<path d="M31.1396 39.9993C30.784 39.9264 30.4283 39.864 30.0727 39.7807C29.0476 39.562 28.1166 39.1352 27.2693 38.5313C27.0497 38.3751 26.8718 38.3543 26.6312 38.448C18.9953 41.1341 10.7526 39.156 5.27141 33.232C1.39065 29.0363 -0.345748 24.0285 0.0726618 18.3439C0.689817 9.67135 6.82998 2.51882 15.3551 0.551099C20.9618 -0.739895 26.1919 0.249173 31.0141 3.39337C31.4848 3.70571 31.6103 4.1638 31.3593 4.55943C31.0978 4.94464 30.6271 5.01752 30.1563 4.69477C27.625 2.99774 24.8425 1.97744 21.8091 1.67551C17.7505 1.26947 13.943 2.08155 10.4702 4.19503C5.85718 7.00607 2.95969 11.056 1.91367 16.3241C0.0412811 25.6943 5.75258 34.8353 15.0517 37.4069C18.4722 38.3543 21.8927 38.271 25.2923 37.2507C25.376 37.2195 25.4702 37.1987 25.5538 37.1674C25.5748 37.157 25.5957 37.1362 25.6375 37.0946C23.8907 34.877 23.3676 32.3887 24.0999 29.5881C23.9116 29.5881 23.7651 29.5881 23.6187 29.5881C20.4702 29.5881 17.3216 29.5881 14.1626 29.5881C13.1061 29.5881 12.9178 29.4111 12.9178 28.3699C12.9178 28.245 12.9178 28.1201 12.9178 27.9535C12.74 27.9535 12.5936 27.9535 12.4576 27.9535C10.7944 27.9535 9.1417 27.9535 7.47852 27.9535C6.694 27.9535 6.43249 27.6828 6.42203 26.8915C6.40111 25.6006 6.42203 24.32 6.84044 23.0706C7.4576 21.2591 8.54547 19.8119 10.125 18.7187C10.2086 18.6563 10.2923 18.6042 10.4074 18.5209C9.20446 16.9592 8.77559 15.2101 9.30906 13.284C9.69609 11.8577 10.5538 10.7437 11.7986 9.95245C14.2986 8.35953 17.9806 8.85927 19.8844 11.8785C22.081 8.44282 26.1919 8.53652 28.399 10.2231C30.8049 12.0659 31.5999 15.689 29.3718 18.5313C29.4869 18.6146 29.602 18.6875 29.7066 18.7708C31.422 19.9889 32.5517 21.613 33.0957 23.6432C33.1271 23.7682 33.2421 23.9556 33.3363 23.9764C34.7693 24.2471 36.035 24.8614 37.217 25.8504C37.4158 25.1112 37.6459 24.4449 37.7819 23.7578C38.8174 18.7604 37.9806 14.0961 35.1877 9.79628C35.1354 9.71299 35.0727 9.61929 35.0204 9.536C34.7798 9.11955 34.853 8.67187 35.2191 8.43241C35.5852 8.18254 36.0455 8.26583 36.3174 8.67187C36.7254 9.30696 37.1438 9.94204 37.489 10.6084C40.1773 15.8348 40.512 21.207 38.535 26.7354C38.4409 27.0061 38.4409 27.1935 38.6082 27.4433C41.966 32.4199 38.9011 39.156 32.9179 39.9368C32.8446 39.9472 32.7714 39.9785 32.6982 40.0097C32.1856 39.9993 31.6626 39.9993 31.1396 39.9993ZM38.4304 31.9202C38.4304 28.3283 35.4911 25.4131 31.8509 25.4131C28.3049 25.4027 25.3446 28.3595 25.3446 31.9098C25.3342 35.5016 28.2944 38.4376 31.9032 38.4376C35.5015 38.4272 38.4304 35.5016 38.4304 31.9202ZM14.4973 28.0264C14.7066 28.0264 14.8635 28.0264 15.0204 28.0264C18.1061 28.0264 21.1814 28.0264 24.2672 28.0264C24.8739 28.0264 25.3237 27.537 25.24 26.9332C24.9994 25.257 24.1626 23.9452 22.7191 23.0394C22.6145 22.9665 22.3948 22.9665 22.2798 23.029C20.6898 23.8619 19.1103 23.8619 17.5204 23.029C17.4053 22.9665 17.1856 22.9561 17.081 23.029C15.2714 24.195 14.4555 25.8608 14.4973 28.0264ZM19.0162 14.1065C18.7442 12.0035 16.5476 10.3585 14.3927 10.6604C12.0183 10.9832 10.3446 13.1487 10.6898 15.3975C11.0873 17.9899 13.4618 19.208 15.0308 18.9998C15.1773 16.4074 16.4953 14.7729 19.0162 14.1065ZM20.7735 14.1065C23.3049 14.7937 24.6229 16.4387 24.7484 19.0102C26.8718 19.1664 28.922 17.3965 29.0999 15.283C29.2881 12.8884 27.6145 10.8478 25.2923 10.6396C23.0957 10.4522 20.9409 12.1076 20.7735 14.1065ZM8.02245 26.3606C8.09567 26.371 8.14798 26.3918 8.18982 26.3918C9.71701 26.3918 11.2442 26.3918 12.7714 26.4022C12.9911 26.4022 13.0538 26.3085 13.0957 26.1107C13.4932 24.3824 14.4241 22.9873 15.8676 21.9462C15.9409 21.8941 15.9932 21.8317 16.035 21.79C15.8363 21.4361 15.6689 21.0925 15.4597 20.7801C15.3969 20.6864 15.2505 20.5927 15.1459 20.5927C13.9743 20.6344 12.8865 20.3637 11.8927 19.7598C11.7045 19.6453 11.5685 19.6661 11.4011 19.7703C10.5643 20.27 9.853 20.9155 9.27768 21.7067C8.29442 23.1019 7.90739 24.6635 8.02245 26.3606ZM19.9053 15.6266C18.0957 15.6162 16.6312 17.0737 16.6312 18.8645C16.6312 20.6344 18.0957 22.092 19.8739 22.1024C21.6731 22.1128 23.148 20.6552 23.1375 18.8541C23.1375 17.0737 21.7045 15.637 19.9053 15.6266ZM31.4953 23.7474C30.9618 22.0295 29.9158 20.676 28.3258 19.7494C28.2212 19.687 28.0225 19.6974 27.9179 19.7598C26.9032 20.3533 25.8049 20.6344 24.6229 20.5927C24.5287 20.5927 24.3823 20.6448 24.3404 20.7177C24.1312 21.0717 23.943 21.4361 23.7337 21.8213C25.1563 22.7895 26.1082 24.1117 26.5789 25.6734C27.3635 25.2466 28.0957 24.7572 28.9011 24.4345C29.717 24.1222 30.6061 23.9868 31.4953 23.7474Z" fill="#014898"/>
<path d="M33.3993 7.14133C32.9704 7.14133 32.6357 6.80817 32.6252 6.38131C32.6148 5.95445 32.9809 5.57964 33.4097 5.59006C33.8281 5.59006 34.1733 5.94404 34.1838 6.36049C34.1943 6.79776 33.8491 7.14133 33.3993 7.14133Z" fill="#014898"/>
<path d="M36.3287 31.0442C36.3287 32.0437 36.0358 32.7621 35.4396 33.3451C34.4668 34.3029 33.4731 35.2504 32.4793 36.1874C32.0923 36.5518 31.6844 36.5622 31.2973 36.1978C30.2722 35.2295 29.2471 34.2613 28.2639 33.2618C27.3434 32.3352 27.176 30.8776 27.8141 29.722C28.5672 28.3581 30.1781 27.9209 31.5484 28.7329C31.789 28.8787 31.9459 28.8995 32.1969 28.7433C33.0965 28.2124 34.0379 28.1499 34.948 28.6809C35.9103 29.2431 36.3078 30.1384 36.3287 31.0442ZM31.8936 34.6049C32.7408 33.7824 33.5777 33.0015 34.3831 32.1895C34.54 32.0333 34.6551 31.7938 34.7074 31.5856C34.9689 30.6278 34.268 29.7324 33.3998 29.951C33.0965 30.0239 32.8245 30.2426 32.5735 30.4404C32.0819 30.8152 31.6739 30.8256 31.1927 30.4404C31.0986 30.3675 31.0149 30.2842 30.9208 30.2113C30.1153 29.5971 29.1739 29.9719 29.017 30.9609C28.9438 31.4398 29.0484 31.8771 29.3936 32.2207C30.2199 33.0015 31.0463 33.7824 31.8936 34.6049Z" fill="#014898"/>
</g>
<defs>
<clipPath id="clip0_2171_5019">
<rect width="40" height="40" fill="white"/>
</clipPath>
</defs>
</svg>
