<svg width="42" height="42" viewBox="0 0 42 42" fill="none" xmlns="http://www.w3.org/2000/svg">
<g clip-path="url(#clip0_2171_5024)">
<path d="M0.998698 19.7523C1.10286 19.0023 1.17578 18.2523 1.3112 17.5128C2.13411 12.9503 4.30078 9.12733 7.75911 6.044C10.7695 3.3565 14.3008 1.72108 18.3008 1.18983C23.3841 0.523167 28.0925 1.6065 32.3112 4.53358C36.957 7.76275 39.8529 12.2003 40.7174 17.794C41.7695 24.5648 39.8008 30.4294 34.957 35.2836C31.9987 38.2523 28.3841 40.0336 24.2487 40.7315C23.582 40.8461 22.9154 40.9086 22.2487 40.9919C21.4154 40.9919 20.582 40.9919 19.7487 40.9919C19.2591 40.9294 18.7695 40.8773 18.2799 40.8148C14.2695 40.2419 10.7383 38.6273 7.71745 35.9294C4.27995 32.8461 2.1237 29.0336 1.30078 24.4815C1.16536 23.7419 1.09245 22.9919 0.988281 22.2523C0.998698 21.419 0.998698 20.5857 0.998698 19.7523ZM20.9883 2.25233C10.6654 2.26275 2.25911 10.669 2.2487 20.9919C2.23828 31.3253 10.6549 39.7523 20.9883 39.7523C31.3216 39.7523 39.7487 31.3357 39.7487 21.0023C39.7487 10.669 31.3216 2.25233 20.9883 2.25233Z" fill="#014898"/>
<path d="M16.1029 13.0232C16.1029 12.2627 16.1029 11.5544 16.1029 10.8565C16.1029 10.2002 16.3112 9.99192 16.9674 9.99192C19.6445 9.99192 22.332 9.99192 25.0091 9.99192C25.6862 9.99192 25.8841 10.1898 25.8841 10.8877C25.8841 11.5857 25.8841 12.2836 25.8841 13.0232C26.0716 13.0232 26.2174 13.0232 26.3529 13.0232C27.8008 13.0232 29.2383 13.0127 30.6862 13.0232C32.1862 13.0336 33.1758 14.0232 33.1758 15.5336C33.1758 20.1794 33.1758 24.8252 33.1758 29.4815C33.1758 31.0023 32.1758 32.0128 30.6654 32.0128C24.2174 32.0128 17.7799 32.0128 11.332 32.0128C9.8112 32.0128 8.8112 31.0023 8.8112 29.4919C8.8112 24.8461 8.8112 20.2003 8.8112 15.544C8.8112 14.0232 9.80078 13.0336 11.3216 13.0232C12.7487 13.0127 14.1862 13.0232 15.6133 13.0232C15.7695 13.0232 15.9049 13.0232 16.1029 13.0232ZM10.0612 19.0961C10.0612 19.2836 10.0612 19.4086 10.0612 19.5336C10.0612 22.8252 10.0612 26.1169 10.0612 29.4086C10.0612 30.3357 10.4883 30.7628 11.4258 30.7628C17.8008 30.7628 24.1862 30.7628 30.5612 30.7628C31.5195 30.7628 31.9362 30.3357 31.9362 29.3773C31.9362 26.0961 31.9362 22.8148 31.9362 19.5336C31.9362 19.4086 31.9362 19.2732 31.9362 19.1378C31.8737 19.1378 31.832 19.1273 31.7904 19.1378C29.2591 20.0857 26.7279 21.044 24.207 22.0023C24.1029 22.044 23.9987 22.2211 23.9883 22.3357C23.9674 22.7732 23.9883 23.2211 23.9779 23.6586C23.9674 24.1377 23.7591 24.3669 23.3008 24.3669C21.7695 24.3773 20.2279 24.3773 18.6966 24.3669C18.2279 24.3669 18.0195 24.1377 18.0195 23.6586C18.0091 23.2523 17.9987 22.8461 18.0195 22.4502C18.0404 22.1482 17.9154 22.0232 17.6445 21.919C15.5612 21.1482 13.4883 20.3565 11.4049 19.5753C10.9779 19.4398 10.5404 19.2732 10.0612 19.0961ZM23.9987 20.7523C26.5924 19.7732 29.1654 18.8044 31.7383 17.8252C31.832 17.794 31.9258 17.6169 31.9258 17.5127C31.9466 16.8357 31.9362 16.1586 31.9362 15.4815C31.9258 14.7419 31.4779 14.294 30.7383 14.2836C30.0404 14.2732 29.332 14.2836 28.6341 14.2836C22.8841 14.2836 17.1237 14.2836 11.3737 14.2836C10.4987 14.2836 10.0716 14.7107 10.0716 15.5648C10.0716 16.1898 10.082 16.8148 10.0612 17.4398C10.0508 17.7002 10.1549 17.794 10.3841 17.8773C11.6549 18.3461 12.9154 18.8253 14.1758 19.3044C15.4466 19.7836 16.7279 20.2627 18.0299 20.7627C18.207 20.3565 18.5299 20.3044 18.9049 20.3044C20.2799 20.3148 21.6654 20.3148 23.0404 20.3044C23.4362 20.294 23.7904 20.3357 23.9987 20.7523ZM17.3841 11.2627C17.3841 11.8565 17.3841 12.419 17.3841 13.0023C19.8112 13.0023 22.207 13.0023 24.6237 13.0023C24.6237 12.4086 24.6237 11.8461 24.6237 11.2627C22.207 11.2627 19.8112 11.2627 17.3841 11.2627ZM19.2799 23.1169C20.4466 23.1169 21.5716 23.1169 22.7174 23.1169C22.7174 22.5857 22.7174 22.0857 22.7174 21.5857C21.5612 21.5857 20.4258 21.5857 19.2799 21.5857C19.2799 22.1065 19.2799 22.6065 19.2799 23.1169Z" fill="#014898"/>
<path d="M27.6445 29.2836C26.9154 29.2836 26.1862 29.2836 25.457 29.2836C24.9779 29.2836 24.6758 29.0232 24.6966 28.6377C24.707 28.2627 24.9987 28.0336 25.457 28.0336C26.9258 28.0336 28.3945 28.0336 29.8737 28.0336C30.332 28.0336 30.6133 28.2732 30.6133 28.6586C30.6133 29.0336 30.332 29.2836 29.8737 29.2836C29.1237 29.2836 28.3841 29.2836 27.6445 29.2836Z" fill="#014898"/>
<path d="M13.9987 16.8669C13.5299 16.8669 13.0612 16.8669 12.5924 16.8669C12.1654 16.8565 11.8841 16.6169 11.8737 16.2627C11.8633 15.8877 12.1549 15.6273 12.6029 15.6273C13.5404 15.6273 14.4779 15.6169 15.4154 15.6273C15.8529 15.6273 16.1029 15.8773 16.1029 16.2523C16.1029 16.6273 15.8424 16.8669 15.4049 16.8773C14.9362 16.8773 14.4674 16.8669 13.9987 16.8669Z" fill="#014898"/>
<path d="M0.998698 19.7523C1.10286 19.0023 1.17578 18.2523 1.3112 17.5128C2.13411 12.9503 4.30078 9.12733 7.75911 6.044C10.7695 3.3565 14.3008 1.72108 18.3008 1.18983C23.3841 0.523167 28.0925 1.6065 32.3112 4.53358C36.957 7.76275 39.8529 12.2003 40.7174 17.794C41.7695 24.5648 39.8008 30.4294 34.957 35.2836C31.9987 38.2523 28.3841 40.0336 24.2487 40.7315C23.582 40.8461 22.9154 40.9086 22.2487 40.9919C21.4154 40.9919 20.582 40.9919 19.7487 40.9919C19.2591 40.9294 18.7695 40.8773 18.2799 40.8148C14.2695 40.2419 10.7383 38.6273 7.71745 35.9294C4.27995 32.8461 2.1237 29.0336 1.30078 24.4815C1.16536 23.7419 1.09245 22.9919 0.988281 22.2523C0.998698 21.419 0.998698 20.5857 0.998698 19.7523ZM20.9883 2.25233C10.6654 2.26275 2.25911 10.669 2.2487 20.9919C2.23828 31.3253 10.6549 39.7523 20.9883 39.7523C31.3216 39.7523 39.7487 31.3357 39.7487 21.0023C39.7487 10.669 31.3216 2.25233 20.9883 2.25233Z" stroke="#014898" stroke-width="0.3"/>
<path d="M16.1029 13.0232C16.1029 12.2627 16.1029 11.5544 16.1029 10.8565C16.1029 10.2002 16.3112 9.99192 16.9674 9.99192C19.6445 9.99192 22.332 9.99192 25.0091 9.99192C25.6862 9.99192 25.8841 10.1898 25.8841 10.8877C25.8841 11.5857 25.8841 12.2836 25.8841 13.0232C26.0716 13.0232 26.2174 13.0232 26.3529 13.0232C27.8008 13.0232 29.2383 13.0127 30.6862 13.0232C32.1862 13.0336 33.1758 14.0232 33.1758 15.5336C33.1758 20.1794 33.1758 24.8252 33.1758 29.4815C33.1758 31.0023 32.1758 32.0128 30.6654 32.0128C24.2174 32.0128 17.7799 32.0128 11.332 32.0128C9.8112 32.0128 8.8112 31.0023 8.8112 29.4919C8.8112 24.8461 8.8112 20.2003 8.8112 15.544C8.8112 14.0232 9.80078 13.0336 11.3216 13.0232C12.7487 13.0127 14.1862 13.0232 15.6133 13.0232C15.7695 13.0232 15.9049 13.0232 16.1029 13.0232ZM10.0612 19.0961C10.0612 19.2836 10.0612 19.4086 10.0612 19.5336C10.0612 22.8252 10.0612 26.1169 10.0612 29.4086C10.0612 30.3357 10.4883 30.7628 11.4258 30.7628C17.8008 30.7628 24.1862 30.7628 30.5612 30.7628C31.5195 30.7628 31.9362 30.3357 31.9362 29.3773C31.9362 26.0961 31.9362 22.8148 31.9362 19.5336C31.9362 19.4086 31.9362 19.2732 31.9362 19.1378C31.8737 19.1378 31.832 19.1273 31.7904 19.1378C29.2591 20.0857 26.7279 21.044 24.207 22.0023C24.1029 22.044 23.9987 22.2211 23.9883 22.3357C23.9674 22.7732 23.9883 23.2211 23.9779 23.6586C23.9674 24.1377 23.7591 24.3669 23.3008 24.3669C21.7695 24.3773 20.2279 24.3773 18.6966 24.3669C18.2279 24.3669 18.0195 24.1377 18.0195 23.6586C18.0091 23.2523 17.9987 22.8461 18.0195 22.4502C18.0404 22.1482 17.9154 22.0232 17.6445 21.919C15.5612 21.1482 13.4883 20.3565 11.4049 19.5753C10.9779 19.4398 10.5404 19.2732 10.0612 19.0961ZM23.9987 20.7523C26.5924 19.7732 29.1654 18.8044 31.7383 17.8252C31.832 17.794 31.9258 17.6169 31.9258 17.5127C31.9466 16.8357 31.9362 16.1586 31.9362 15.4815C31.9258 14.7419 31.4779 14.294 30.7383 14.2836C30.0404 14.2732 29.332 14.2836 28.6341 14.2836C22.8841 14.2836 17.1237 14.2836 11.3737 14.2836C10.4987 14.2836 10.0716 14.7107 10.0716 15.5648C10.0716 16.1898 10.082 16.8148 10.0612 17.4398C10.0508 17.7002 10.1549 17.794 10.3841 17.8773C11.6549 18.3461 12.9154 18.8253 14.1758 19.3044C15.4466 19.7836 16.7279 20.2627 18.0299 20.7627C18.207 20.3565 18.5299 20.3044 18.9049 20.3044C20.2799 20.3148 21.6654 20.3148 23.0404 20.3044C23.4362 20.294 23.7904 20.3357 23.9987 20.7523ZM17.3841 11.2627C17.3841 11.8565 17.3841 12.419 17.3841 13.0023C19.8112 13.0023 22.207 13.0023 24.6237 13.0023C24.6237 12.4086 24.6237 11.8461 24.6237 11.2627C22.207 11.2627 19.8112 11.2627 17.3841 11.2627ZM19.2799 23.1169C20.4466 23.1169 21.5716 23.1169 22.7174 23.1169C22.7174 22.5857 22.7174 22.0857 22.7174 21.5857C21.5612 21.5857 20.4258 21.5857 19.2799 21.5857C19.2799 22.1065 19.2799 22.6065 19.2799 23.1169Z" stroke="#014898" stroke-width="0.3"/>
<path d="M27.6445 29.2836C26.9154 29.2836 26.1862 29.2836 25.457 29.2836C24.9779 29.2836 24.6758 29.0232 24.6966 28.6377C24.707 28.2627 24.9987 28.0336 25.457 28.0336C26.9258 28.0336 28.3945 28.0336 29.8737 28.0336C30.332 28.0336 30.6133 28.2732 30.6133 28.6586C30.6133 29.0336 30.332 29.2836 29.8737 29.2836C29.1237 29.2836 28.3841 29.2836 27.6445 29.2836Z" stroke="#014898" stroke-width="0.3"/>
<path d="M13.9987 16.8669C13.5299 16.8669 13.0612 16.8669 12.5924 16.8669C12.1654 16.8565 11.8841 16.6169 11.8737 16.2627C11.8633 15.8877 12.1549 15.6273 12.6029 15.6273C13.5404 15.6273 14.4779 15.6169 15.4154 15.6273C15.8529 15.6273 16.1029 15.8773 16.1029 16.2523C16.1029 16.6273 15.8424 16.8669 15.4049 16.8773C14.9362 16.8773 14.4674 16.8669 13.9987 16.8669Z" stroke="#014898" stroke-width="0.3"/>
</g>
<defs>
<clipPath id="clip0_2171_5024">
<rect width="42" height="42" fill="white"/>
</clipPath>
</defs>
</svg>
