<svg width="40" height="40" viewBox="0 0 40 40" fill="none" xmlns="http://www.w3.org/2000/svg">
<g clip-path="url(#clip0_2171_5665)">
<path d="M24.6159 6.16557C23.7057 6.16557 22.7185 6.16557 21.7185 6.16557C19.4236 6.16557 17.1416 6.16557 14.8467 6.16557C13.4365 6.16557 12.3339 6.87047 11.8339 8.0624C11.3339 9.26714 11.6159 10.5231 12.6288 11.5356C17.9108 16.816 23.1929 22.0964 28.4621 27.3767C30.257 29.1838 30.4493 31.7984 28.9108 33.6824C27.9749 34.8359 26.7313 35.387 25.257 35.387C21.1031 35.387 16.9621 35.387 12.8083 35.3742C12.4365 35.3742 12.257 35.5151 12.0262 35.7843C11.0903 36.9378 10.1672 38.1169 9.11594 39.1678C8.00056 40.2957 7.41082 40.2828 6.26979 39.1678C3.06466 36.0791 0.846714 32.4136 0.141585 27.9535C-0.345594 24.916 0.372355 22.2245 2.83389 20.2252C5.12877 18.354 7.75697 17.931 10.5006 19.0076C13.2442 20.0842 14.8852 22.1733 15.3083 25.1082C15.6159 27.2742 15.1416 29.3504 14.3852 31.3626C14.0775 32.1829 13.68 32.9647 13.3083 33.8106C13.4236 33.8234 13.539 33.8362 13.6544 33.8362C17.5134 33.8362 21.3724 33.8362 25.2442 33.8362C26.6159 33.8362 27.6159 33.2082 28.1672 31.965C28.6929 30.7859 28.4108 29.4914 27.4493 28.5174C22.1416 23.2242 16.8339 17.9182 11.539 12.6122C9.43646 10.5103 9.61594 7.26778 11.9108 5.53757C12.757 4.89675 13.7185 4.60197 14.7826 4.61479C18.1031 4.61479 21.4108 4.61479 24.7313 4.61479C24.9108 4.61479 25.0775 4.61479 25.257 4.61479C26.039 2.9102 27.2442 1.62856 28.9236 0.795497C33.9365 -1.7037 39.9493 1.96179 40.0006 7.56256C40.0262 10.7923 38.9236 13.676 37.257 16.3802C36.2826 17.9567 35.1672 19.4177 33.7954 20.6609C32.5647 21.7888 32.0134 21.8144 30.8211 20.6481C27.68 17.585 25.4749 13.9836 24.7826 9.60037C24.6159 8.49816 24.6672 7.3575 24.6159 6.16557ZM32.2442 19.9945C33.9749 18.495 35.2442 16.8288 36.2954 15.0089C37.6159 12.7276 38.4621 10.3053 38.4621 7.63946C38.4621 5.16589 36.898 2.89739 34.6031 1.98742C32.2185 1.05183 29.5775 1.62856 27.8467 3.46131C26.2185 5.19152 25.9236 7.25496 26.2954 9.49784C26.7826 12.4841 28.1288 15.073 29.9621 17.4312C30.6672 18.3155 31.4621 19.123 32.2442 19.9945ZM7.62877 38.4501C7.9621 38.1553 8.20569 37.9503 8.43646 37.7196C9.71851 36.4507 10.7954 35.0153 11.6929 33.4517C13.0134 31.1447 13.9236 28.684 13.8339 25.9797C13.757 23.4293 12.4877 21.5453 10.1544 20.5199C7.82107 19.4946 5.5903 19.8535 3.65441 21.5196C1.66723 23.237 1.28261 25.4927 1.69287 27.9663C2.18005 30.9525 3.5262 33.5414 5.35953 35.8868C6.05184 36.7711 6.85953 37.5786 7.62877 38.4501Z" fill="#014898"/>
<path d="M32.3211 10.7809C30.6159 10.7809 29.2441 9.3967 29.2441 7.69211C29.257 6.01317 30.6288 4.64181 32.2954 4.62899C34.0134 4.61618 35.4108 6.01317 35.398 7.74338C35.3852 9.40951 33.9877 10.7809 32.3211 10.7809ZM33.8595 7.71775C33.8595 6.87187 33.1929 6.17978 32.3467 6.16696C31.4877 6.15415 30.7826 6.85905 30.7826 7.71775C30.7826 8.55081 31.4749 9.2429 32.3211 9.2429C33.1544 9.2429 33.8467 8.538 33.8595 7.71775Z" fill="#014898"/>
<path d="M7.68028 29.2332C5.98797 29.2203 4.61617 27.8234 4.629 26.1316C4.64182 24.4398 6.03925 23.0685 7.74438 23.0941C9.43669 23.1197 10.7957 24.5167 10.7828 26.2213C10.7572 27.8746 9.35977 29.2332 7.68028 29.2332ZM7.70592 24.6193C6.87259 24.6193 6.18028 25.3113 6.16746 26.1444C6.15464 27.0031 6.87259 27.708 7.73156 27.6952C8.56489 27.6824 9.2572 26.9775 9.24438 26.1444C9.23156 25.2985 8.53925 24.6193 7.70592 24.6193Z" fill="#014898"/>
</g>
<defs>
<clipPath id="clip0_2171_5665">
<rect width="40" height="40" fill="white"/>
</clipPath>
</defs>
</svg>
