<svg width="38" height="43" viewBox="0 0 38 43" fill="none" xmlns="http://www.w3.org/2000/svg">
<g clip-path="url(#clip0_2171_5914)">
<path d="M23.6759 35.6615C23.6759 36.7711 23.6759 37.8142 23.6759 38.9127C24.0198 38.9127 24.3526 38.9016 24.6854 38.9127C25.9834 38.9349 27.0484 39.9224 27.1815 41.1985C27.237 41.7644 27.0373 41.9974 26.4604 41.9974C21.568 41.9974 16.6756 41.9974 11.7721 41.9974C11.2064 41.9974 10.9956 41.7422 11.0732 41.1874C11.2396 39.8781 12.2936 38.9349 13.6248 38.9127C13.9244 38.9127 14.235 38.9127 14.5678 38.9127C14.5678 37.8253 14.5678 36.7711 14.5678 35.6615C14.3903 35.6615 14.235 35.6615 14.0686 35.6615C10.9623 35.6615 7.85601 35.6615 4.74973 35.6615C2.49767 35.6615 1 34.1747 1 31.9333C1 24.9316 1 17.93 1 10.9173C1 8.66479 2.47548 7.18901 4.72754 7.18901C5.24895 7.18901 5.78146 7.18901 6.30287 7.18901C6.72443 7.18901 6.95741 7.37764 6.95741 7.72162C6.9685 8.0656 6.71334 8.27643 6.28068 8.27643C5.72599 8.28752 5.17129 8.27643 4.6166 8.27643C3.11893 8.28752 2.10939 9.27507 2.10939 10.7841C2.09829 13.1698 2.10939 15.5555 2.10939 17.9411C2.10939 21.736 2.10939 25.5419 2.10939 29.3368C2.10939 29.481 2.10939 29.6364 2.10939 29.8028C13.4473 29.8028 24.752 29.8028 36.0899 29.8028C36.101 29.6586 36.1121 29.5143 36.1121 29.3701C36.1121 23.2228 36.1121 17.0867 36.1121 10.9395C36.1121 9.23069 35.1469 8.27643 33.4163 8.27643C32.917 8.27643 32.4178 8.27643 31.9186 8.27643C31.4859 8.27643 31.2419 8.0545 31.253 7.71053C31.2641 7.37764 31.4859 7.20011 31.9186 7.18901C32.4733 7.18901 33.028 7.18901 33.5827 7.18901C35.6905 7.20011 37.1882 8.68698 37.2215 10.7952C37.2326 11.2835 37.2215 11.7606 37.2215 12.2488C37.2215 18.7955 37.2215 25.3422 37.2215 31.8889C37.2215 33.7197 36.223 35.1067 34.5922 35.5284C34.2372 35.6172 33.8489 35.6504 33.4828 35.6504C30.3876 35.6615 27.3036 35.6504 24.2084 35.6504C24.042 35.6615 23.8866 35.6615 23.6759 35.6615ZM2.0872 30.9568C2.10939 31.5671 2.0761 32.1441 2.17595 32.6989C2.39783 33.8751 3.41846 34.5852 4.76082 34.5852C12.0606 34.5852 19.3714 34.5852 26.6712 34.5852C28.9565 34.5852 31.2419 34.5852 33.5272 34.5852C34.3371 34.5852 35.0138 34.3189 35.5463 33.6975C36.2341 32.8875 36.101 31.9222 36.0788 30.9568C24.7631 30.9568 13.4695 30.9568 2.0872 30.9568ZM15.7216 35.6837C15.7216 36.7822 15.7216 37.8364 15.7216 38.8905C18.0069 38.8905 20.2589 38.8905 22.511 38.8905C22.511 37.8031 22.511 36.749 22.511 35.6837C20.2368 35.6837 17.9958 35.6837 15.7216 35.6837ZM12.2714 40.8989C16.8531 40.8989 21.3794 40.8989 25.939 40.8989C25.6395 40.2664 25.1513 40.0334 24.5301 40.0223C23.7646 40.0112 23.0102 40.0223 22.2447 40.0223C19.4158 40.0223 16.598 40.0223 13.769 40.0223C13.1256 40.0112 12.6042 40.2331 12.2714 40.8989Z" fill="#014898"/>
<path d="M29.844 14.6678C29.844 17.5749 29.833 20.4932 29.8551 23.4004C29.8551 24.2659 29.5556 24.9649 28.9565 25.553C28.0579 26.4407 26.9264 26.9511 25.7504 27.3284C23.099 28.1717 20.3699 28.3603 17.6186 28.2161C15.7992 28.1162 13.9909 27.8832 12.2825 27.2396C11.3839 26.8956 10.5185 26.4407 9.71978 25.9081C8.79899 25.3089 8.37742 24.399 8.38851 23.2561C8.42179 17.4973 8.4107 11.7495 8.38851 5.99063C8.38851 4.9587 8.76571 4.17088 9.52009 3.51621C10.5629 2.61743 11.8054 2.09591 13.1145 1.77413C17.5964 0.675614 22.0672 0.653422 26.4493 2.22907C27.2925 2.52866 28.069 3.06127 28.8012 3.60498C29.5445 4.15978 29.8773 4.9698 29.8662 5.93515C29.833 8.84233 29.844 11.7495 29.844 14.6678ZM19.1274 9.13082C20.7915 9.14192 22.4444 8.98657 24.0752 8.60931C25.4731 8.27643 26.8376 7.85477 27.9692 6.9338C29.0009 6.0905 28.9898 5.19172 27.9803 4.33732C27.9026 4.27074 27.8361 4.20417 27.7473 4.15978C26.9042 3.76032 26.0832 3.2499 25.1957 2.9836C21.3129 1.82961 17.3856 1.8407 13.4695 2.83935C12.3157 3.11675 11.1953 3.5495 10.2634 4.32622C9.22055 5.19172 9.20946 6.12379 10.2967 6.9338C10.9068 7.38874 11.6168 7.75491 12.3268 8.03231C14.5012 8.89781 16.7977 9.13082 19.1274 9.13082ZM9.47571 13.7357C9.47571 15.0228 9.48681 16.199 9.46462 17.3752C9.45352 17.9411 9.63103 18.4404 10.0748 18.7733C10.6184 19.1728 11.1731 19.5722 11.7832 19.8496C13.7579 20.7373 15.8658 21.0369 18.0069 21.1257C20.6694 21.2366 23.2987 21.0369 25.817 20.0937C26.6046 19.7942 27.3479 19.3281 28.0579 18.851C28.5682 18.5181 28.779 17.9744 28.7568 17.3308C28.7236 16.5541 28.7458 15.7774 28.7458 15.0006C28.7458 14.6012 28.7458 14.2128 28.7458 13.8578C27.9692 14.2572 27.2481 14.7011 26.4826 15.0117C24.4302 15.855 22.2669 16.1324 20.0704 16.2101C17.663 16.2989 15.2778 16.0992 12.9592 15.4334C11.7167 15.0894 10.5629 14.5901 9.47571 13.7357ZM9.47571 7.74381C9.47571 9.01986 9.48681 10.2071 9.47571 11.3944C9.46462 11.927 9.63103 12.4042 10.0415 12.726C10.5518 13.1254 11.0843 13.5027 11.6723 13.7801C13.3918 14.6012 15.2556 14.923 17.1416 15.0672C19.8928 15.267 22.6219 15.1227 25.2845 14.2905C26.294 13.9798 27.2592 13.5693 28.0801 12.8591C28.5461 12.4596 28.7901 11.9603 28.7679 11.3278C28.7458 10.2848 28.7568 9.25288 28.7568 8.20985C28.7568 8.0767 28.7458 7.95464 28.7347 7.75491C27.5698 8.66479 26.294 9.1863 24.9517 9.54138C22.1005 10.2959 19.1939 10.3958 16.2873 10.0851C13.88 9.82988 11.5392 9.30836 9.47571 7.74381ZM28.7347 19.8163C28.657 19.8607 28.6015 19.8718 28.5683 19.9051C27.6142 20.6485 26.527 21.1257 25.3732 21.4475C21.8787 22.435 18.3508 22.5016 14.7897 21.9024C12.9148 21.5806 11.1287 21.0258 9.58665 19.8607C9.57556 19.8496 9.53118 19.8718 9.48681 19.8718C9.48681 21.0258 9.50899 22.1909 9.47571 23.356C9.46462 23.9996 9.6754 24.5322 10.1746 24.8762C10.8735 25.3422 11.6057 25.786 12.3712 26.0967C14.1684 26.818 16.0655 27.0621 17.9847 27.1509C20.4919 27.2618 22.9659 27.051 25.3732 26.2854C26.3162 25.9858 27.2148 25.5974 27.9914 24.9538C28.3575 24.6431 28.7236 24.2881 28.7347 23.7887C28.7568 22.4794 28.7347 21.159 28.7347 19.8163Z" fill="#014898"/>
<path d="M19.1607 32.1996C19.9927 32.1996 20.8247 32.1996 21.6568 32.1996C22.0007 32.1996 22.2669 32.3105 22.3113 32.6878C22.3668 33.054 22.1116 33.2981 21.6568 33.2981C20.9468 33.3092 20.2479 33.2981 19.5378 33.2981C18.5727 33.2981 17.5964 33.2981 16.6313 33.2981C16.3095 33.2981 16.0211 33.2204 15.9434 32.8431C15.8658 32.4659 16.1209 32.1996 16.5869 32.1885C17.4411 32.1885 18.2953 32.1996 19.1607 32.1996Z" fill="#014898"/>
<path d="M21.568 19.195C20.9911 19.2172 20.736 19.0396 20.7138 18.7067C20.6916 18.385 20.9246 18.1519 21.324 18.1075C22.6108 17.9744 23.8755 17.7525 25.0737 17.2532C25.6728 16.9979 26.2164 16.5985 26.76 16.2434C27.0151 16.0881 27.2481 16.0215 27.4811 16.2212C27.7362 16.432 27.7917 16.7427 27.5698 16.9536C27.1926 17.3086 26.7932 17.6637 26.3384 17.9078C25.2179 18.507 23.9976 18.8066 22.744 19.0174C22.3113 19.0951 21.8565 19.1506 21.568 19.195Z" fill="#014898"/>
<path d="M21.3683 13.2808C20.9801 13.2586 20.7471 13.0921 20.7249 12.7592C20.7027 12.4153 20.9135 12.2488 21.2463 12.1822C22.4112 11.9492 23.5871 11.7384 24.7298 11.4388C25.4842 11.2391 26.2164 10.9173 26.7821 10.3181C26.9818 10.0962 27.2592 10.0962 27.4921 10.2848C27.7473 10.4956 27.7917 10.7952 27.5698 11.0172C27.2703 11.3278 26.9264 11.6385 26.5603 11.8494C25.462 12.4818 24.2416 12.8036 22.9991 13.0366C22.4444 13.1254 21.8787 13.2031 21.3683 13.2808Z" fill="#014898"/>
<path d="M21.5458 25.1758C21.0133 25.1979 20.736 25.0093 20.736 24.6764C20.7249 24.3103 20.9468 24.1549 21.2907 24.0772C22.5332 23.822 23.7868 23.6001 25.0071 23.2339C25.6395 23.0453 26.2053 22.5793 26.7821 22.2131C27.0373 22.0578 27.2703 22.0023 27.5032 22.1909C27.7473 22.3795 27.8139 22.668 27.6142 22.89C27.3368 23.2006 27.0151 23.5113 26.6601 23.7222C25.5618 24.3768 24.3415 24.6986 23.099 24.9316C22.5332 25.0315 21.9785 25.1092 21.5458 25.1758Z" fill="#014898"/>
<path d="M23.6759 35.6615C23.6759 36.7711 23.6759 37.8142 23.6759 38.9127C24.0198 38.9127 24.3526 38.9016 24.6854 38.9127C25.9834 38.9349 27.0484 39.9224 27.1815 41.1985C27.237 41.7644 27.0373 41.9974 26.4604 41.9974C21.568 41.9974 16.6756 41.9974 11.7721 41.9974C11.2064 41.9974 10.9956 41.7422 11.0732 41.1874C11.2396 39.8781 12.2936 38.9349 13.6248 38.9127C13.9244 38.9127 14.235 38.9127 14.5678 38.9127C14.5678 37.8253 14.5678 36.7711 14.5678 35.6615C14.3903 35.6615 14.235 35.6615 14.0686 35.6615C10.9623 35.6615 7.85601 35.6615 4.74973 35.6615C2.49767 35.6615 1 34.1747 1 31.9333C1 24.9316 1 17.93 1 10.9173C1 8.66479 2.47548 7.18901 4.72754 7.18901C5.24895 7.18901 5.78146 7.18901 6.30287 7.18901C6.72443 7.18901 6.95741 7.37764 6.95741 7.72162C6.9685 8.0656 6.71334 8.27643 6.28068 8.27643C5.72599 8.28752 5.17129 8.27643 4.6166 8.27643C3.11893 8.28752 2.10939 9.27507 2.10939 10.7841C2.09829 13.1698 2.10939 15.5555 2.10939 17.9411C2.10939 21.736 2.10939 25.5419 2.10939 29.3368C2.10939 29.481 2.10939 29.6364 2.10939 29.8028C13.4473 29.8028 24.752 29.8028 36.0899 29.8028C36.101 29.6586 36.1121 29.5143 36.1121 29.3701C36.1121 23.2228 36.1121 17.0867 36.1121 10.9395C36.1121 9.23069 35.1469 8.27643 33.4163 8.27643C32.917 8.27643 32.4178 8.27643 31.9186 8.27643C31.4859 8.27643 31.2419 8.0545 31.253 7.71053C31.2641 7.37764 31.4859 7.20011 31.9186 7.18901C32.4733 7.18901 33.028 7.18901 33.5827 7.18901C35.6905 7.20011 37.1882 8.68698 37.2215 10.7952C37.2326 11.2835 37.2215 11.7606 37.2215 12.2488C37.2215 18.7955 37.2215 25.3422 37.2215 31.8889C37.2215 33.7197 36.223 35.1067 34.5922 35.5284C34.2372 35.6172 33.8489 35.6504 33.4828 35.6504C30.3876 35.6615 27.3036 35.6504 24.2084 35.6504C24.042 35.6615 23.8866 35.6615 23.6759 35.6615ZM2.0872 30.9568C2.10939 31.5671 2.0761 32.1441 2.17595 32.6989C2.39783 33.8751 3.41846 34.5852 4.76082 34.5852C12.0606 34.5852 19.3714 34.5852 26.6712 34.5852C28.9565 34.5852 31.2419 34.5852 33.5272 34.5852C34.3371 34.5852 35.0138 34.3189 35.5463 33.6975C36.2341 32.8875 36.101 31.9222 36.0788 30.9568C24.7631 30.9568 13.4695 30.9568 2.0872 30.9568ZM15.7216 35.6837C15.7216 36.7822 15.7216 37.8364 15.7216 38.8905C18.0069 38.8905 20.2589 38.8905 22.511 38.8905C22.511 37.8031 22.511 36.749 22.511 35.6837C20.2368 35.6837 17.9958 35.6837 15.7216 35.6837ZM12.2714 40.8989C16.8531 40.8989 21.3794 40.8989 25.939 40.8989C25.6395 40.2664 25.1513 40.0334 24.5301 40.0223C23.7646 40.0112 23.0102 40.0223 22.2447 40.0223C19.4158 40.0223 16.598 40.0223 13.769 40.0223C13.1256 40.0112 12.6042 40.2331 12.2714 40.8989Z" stroke="#014898" stroke-width="0.3"/>
<path d="M29.844 14.6678C29.844 17.5749 29.833 20.4932 29.8551 23.4004C29.8551 24.2659 29.5556 24.9649 28.9565 25.553C28.0579 26.4407 26.9264 26.9511 25.7504 27.3284C23.099 28.1717 20.3699 28.3603 17.6186 28.2161C15.7992 28.1162 13.9909 27.8832 12.2825 27.2396C11.3839 26.8956 10.5185 26.4407 9.71978 25.9081C8.79899 25.3089 8.37742 24.399 8.38851 23.2561C8.42179 17.4973 8.4107 11.7495 8.38851 5.99063C8.38851 4.9587 8.76571 4.17088 9.52009 3.51621C10.5629 2.61743 11.8054 2.09591 13.1145 1.77413C17.5964 0.675614 22.0672 0.653422 26.4493 2.22907C27.2925 2.52866 28.069 3.06127 28.8012 3.60498C29.5445 4.15978 29.8773 4.9698 29.8662 5.93515C29.833 8.84233 29.844 11.7495 29.844 14.6678ZM19.1274 9.13082C20.7915 9.14192 22.4444 8.98657 24.0752 8.60931C25.4731 8.27643 26.8376 7.85477 27.9692 6.9338C29.0009 6.0905 28.9898 5.19172 27.9803 4.33732C27.9026 4.27074 27.8361 4.20417 27.7473 4.15978C26.9042 3.76032 26.0832 3.2499 25.1957 2.9836C21.3129 1.82961 17.3856 1.8407 13.4695 2.83935C12.3157 3.11675 11.1953 3.5495 10.2634 4.32622C9.22055 5.19172 9.20946 6.12379 10.2967 6.9338C10.9068 7.38874 11.6168 7.75491 12.3268 8.03231C14.5012 8.89781 16.7977 9.13082 19.1274 9.13082ZM9.47571 13.7357C9.47571 15.0228 9.48681 16.199 9.46462 17.3752C9.45352 17.9411 9.63103 18.4404 10.0748 18.7733C10.6184 19.1728 11.1731 19.5722 11.7832 19.8496C13.7579 20.7373 15.8658 21.0369 18.0069 21.1257C20.6694 21.2366 23.2987 21.0369 25.817 20.0937C26.6046 19.7942 27.3479 19.3281 28.0579 18.851C28.5682 18.5181 28.779 17.9744 28.7568 17.3308C28.7236 16.5541 28.7458 15.7774 28.7458 15.0006C28.7458 14.6012 28.7458 14.2128 28.7458 13.8578C27.9692 14.2572 27.2481 14.7011 26.4826 15.0117C24.4302 15.855 22.2669 16.1324 20.0704 16.2101C17.663 16.2989 15.2778 16.0992 12.9592 15.4334C11.7167 15.0894 10.5629 14.5901 9.47571 13.7357ZM9.47571 7.74381C9.47571 9.01986 9.48681 10.2071 9.47571 11.3944C9.46462 11.927 9.63103 12.4042 10.0415 12.726C10.5518 13.1254 11.0843 13.5027 11.6723 13.7801C13.3918 14.6012 15.2556 14.923 17.1416 15.0672C19.8928 15.267 22.6219 15.1227 25.2845 14.2905C26.294 13.9798 27.2592 13.5693 28.0801 12.8591C28.5461 12.4596 28.7901 11.9603 28.7679 11.3278C28.7458 10.2848 28.7568 9.25288 28.7568 8.20985C28.7568 8.0767 28.7458 7.95464 28.7347 7.75491C27.5698 8.66479 26.294 9.1863 24.9517 9.54138C22.1005 10.2959 19.1939 10.3958 16.2873 10.0851C13.88 9.82988 11.5392 9.30836 9.47571 7.74381ZM28.7347 19.8163C28.657 19.8607 28.6015 19.8718 28.5683 19.9051C27.6142 20.6485 26.527 21.1257 25.3732 21.4475C21.8787 22.435 18.3508 22.5016 14.7897 21.9024C12.9148 21.5806 11.1287 21.0258 9.58665 19.8607C9.57556 19.8496 9.53118 19.8718 9.48681 19.8718C9.48681 21.0258 9.50899 22.1909 9.47571 23.356C9.46462 23.9996 9.6754 24.5322 10.1746 24.8762C10.8735 25.3422 11.6057 25.786 12.3712 26.0967C14.1684 26.818 16.0655 27.0621 17.9847 27.1509C20.4919 27.2618 22.9659 27.051 25.3732 26.2854C26.3162 25.9858 27.2148 25.5974 27.9914 24.9538C28.3575 24.6431 28.7236 24.2881 28.7347 23.7887C28.7568 22.4794 28.7347 21.159 28.7347 19.8163Z" stroke="#014898" stroke-width="0.3"/>
<path d="M19.1607 32.1996C19.9927 32.1996 20.8247 32.1996 21.6568 32.1996C22.0007 32.1996 22.2669 32.3105 22.3113 32.6878C22.3668 33.054 22.1116 33.2981 21.6568 33.2981C20.9468 33.3092 20.2479 33.2981 19.5378 33.2981C18.5727 33.2981 17.5964 33.2981 16.6313 33.2981C16.3095 33.2981 16.0211 33.2204 15.9434 32.8431C15.8658 32.4659 16.1209 32.1996 16.5869 32.1885C17.4411 32.1885 18.2953 32.1996 19.1607 32.1996Z" stroke="#014898" stroke-width="0.3"/>
<path d="M21.568 19.195C20.9911 19.2172 20.736 19.0396 20.7138 18.7067C20.6916 18.385 20.9246 18.1519 21.324 18.1075C22.6108 17.9744 23.8755 17.7525 25.0737 17.2532C25.6728 16.9979 26.2164 16.5985 26.76 16.2434C27.0151 16.0881 27.2481 16.0215 27.4811 16.2212C27.7362 16.432 27.7917 16.7427 27.5698 16.9536C27.1926 17.3086 26.7932 17.6637 26.3384 17.9078C25.2179 18.507 23.9976 18.8066 22.744 19.0174C22.3113 19.0951 21.8565 19.1506 21.568 19.195Z" stroke="#014898" stroke-width="0.3"/>
<path d="M21.3683 13.2808C20.9801 13.2586 20.7471 13.0921 20.7249 12.7592C20.7027 12.4153 20.9135 12.2488 21.2463 12.1822C22.4112 11.9492 23.5871 11.7384 24.7298 11.4388C25.4842 11.2391 26.2164 10.9173 26.7821 10.3181C26.9818 10.0962 27.2592 10.0962 27.4921 10.2848C27.7473 10.4956 27.7917 10.7952 27.5698 11.0172C27.2703 11.3278 26.9264 11.6385 26.5603 11.8494C25.462 12.4818 24.2416 12.8036 22.9991 13.0366C22.4444 13.1254 21.8787 13.2031 21.3683 13.2808Z" stroke="#014898" stroke-width="0.3"/>
<path d="M21.5458 25.1758C21.0133 25.1979 20.736 25.0093 20.736 24.6764C20.7249 24.3103 20.9468 24.1549 21.2907 24.0772C22.5332 23.822 23.7868 23.6001 25.0071 23.2339C25.6395 23.0453 26.2053 22.5793 26.7821 22.2131C27.0373 22.0578 27.2703 22.0023 27.5032 22.1909C27.7473 22.3795 27.8139 22.668 27.6142 22.89C27.3368 23.2006 27.0151 23.5113 26.6601 23.7222C25.5618 24.3768 24.3415 24.6986 23.099 24.9316C22.5332 25.0315 21.9785 25.1092 21.5458 25.1758Z" stroke="#014898" stroke-width="0.3"/>
</g>
<defs>
<clipPath id="clip0_2171_5914">
<rect width="38" height="43" fill="white"/>
</clipPath>
</defs>
</svg>
