<svg width="45" height="45" viewBox="0 0 45 45" fill="none" xmlns="http://www.w3.org/2000/svg">
<g id="Frame" clip-path="url(#clip0_2198_3348)">
<g id="Group">
<path id="Vector" d="M27.6951 6.93675C26.6711 6.93675 25.5605 6.93675 24.4355 6.93675C21.8538 6.93675 19.2865 6.93675 16.7048 6.93675C15.1182 6.93675 13.8778 7.72977 13.3153 9.07069C12.7528 10.426 13.0701 11.839 14.2096 12.9781C20.1519 18.9185 26.0942 24.8589 32.0221 30.7993C34.0413 32.8323 34.2576 35.7737 32.5269 37.8932C31.474 39.1908 30.0749 39.8108 28.4163 39.8108C23.7432 39.8108 19.0846 39.8108 14.4115 39.7964C13.9932 39.7964 13.7913 39.955 13.5317 40.2578C12.4788 41.5555 11.4403 42.882 10.2576 44.0643C9.00283 45.3331 8.33937 45.3187 7.05571 44.0643C3.44994 40.5894 0.95475 36.4658 0.161481 31.4481C-0.386596 28.031 0.421096 25.0031 3.19033 22.7538C5.77206 20.6487 8.72879 20.1729 11.8153 21.384C14.9019 22.5952 16.748 24.9454 17.224 28.2472C17.5701 30.684 17.0365 33.0197 16.1855 35.2834C15.8394 36.2062 15.3923 37.0857 14.974 38.0374C15.1038 38.0518 15.2336 38.0662 15.3634 38.0662C19.7048 38.0662 24.0461 38.0662 28.4019 38.0662C29.9451 38.0662 31.0701 37.3597 31.6903 35.9611C32.2817 34.6346 31.9644 33.1783 30.8826 32.0825C24.9115 26.1277 18.9403 20.1585 12.9836 14.1892C10.6182 11.8246 10.8201 8.17674 13.4019 6.23025C14.3538 5.50933 15.4355 5.1777 16.6326 5.19212C20.3682 5.19212 24.0894 5.19212 27.8249 5.19212C28.0269 5.19212 28.2144 5.19212 28.4163 5.19212C29.2961 3.27447 30.6519 1.83262 32.5413 0.895423C38.1807 -1.91618 44.9451 2.2075 45.0028 8.50837C45.0317 12.1418 43.7913 15.386 41.9163 18.4283C40.8201 20.2017 39.5653 21.8454 38.0221 23.244C36.6374 24.5129 36.0173 24.5417 34.6759 23.2296C31.1423 19.7836 28.6615 15.732 27.8826 10.8009C27.6951 9.56091 27.7528 8.27767 27.6951 6.93675ZM36.2769 22.4943C38.224 20.8073 39.6519 18.9329 40.8346 16.8855C42.3201 14.319 43.2721 11.5939 43.2721 8.59488C43.2721 5.81212 41.5124 3.26005 38.9307 2.23634C36.248 1.18379 33.2769 1.83262 31.3298 3.89446C29.498 5.84095 29.1663 8.16232 29.5846 10.6856C30.1326 14.0451 31.6471 16.9576 33.7096 19.6106C34.5028 20.6055 35.3971 21.5138 36.2769 22.4943ZM8.58456 43.2568C8.95956 42.9252 9.2336 42.6945 9.49321 42.435C10.9355 41.0076 12.1471 39.3927 13.1567 37.6336C14.6422 35.0383 15.6663 32.27 15.5653 29.2277C15.4788 26.3584 14.0509 24.2389 11.4259 23.0854C8.8009 21.9319 6.29129 22.3357 4.1134 24.2101C1.87783 26.1421 1.44513 28.6798 1.90667 31.4625C2.45475 34.822 3.96917 37.7346 6.03167 40.3732C6.81052 41.368 7.71917 42.2764 8.58456 43.2568Z" fill="#014898"/>
<path id="Vector_2" d="M36.3639 12.128C34.4456 12.128 32.9023 10.5708 32.9023 8.65314C32.9168 6.76432 34.46 5.22155 36.335 5.20713C38.2677 5.19271 39.8398 6.76432 39.8254 8.71081C39.811 10.5852 38.2389 12.128 36.3639 12.128ZM38.0947 8.68198C38.0947 7.73036 37.3447 6.95176 36.3927 6.93734C35.4264 6.92293 34.6331 7.71594 34.6331 8.68198C34.6331 9.61918 35.412 10.3978 36.3639 10.3978C37.3014 10.3978 38.0802 9.60476 38.0947 8.68198Z" fill="#014898"/>
<path id="Vector_3" d="M8.64373 32.8912C6.73988 32.8768 5.19661 31.3052 5.21104 29.4019C5.22546 27.4987 6.79758 25.9559 8.71585 25.9848C10.6197 26.0136 12.1485 27.5852 12.1341 29.5029C12.1053 31.3629 10.5332 32.8912 8.64373 32.8912ZM8.67258 27.7006C7.73508 27.7006 6.95623 28.4792 6.94181 29.4164C6.92738 30.3824 7.73508 31.1754 8.70142 31.161C9.63892 31.1466 10.4178 30.3536 10.4033 29.4164C10.3889 28.4647 9.61008 27.7006 8.67258 27.7006Z" fill="#014898"/>
</g>
</g>
<defs>
<clipPath id="clip0_2198_3348">
<rect width="45" height="45" fill="white"/>
</clipPath>
</defs>
</svg>
