<svg width="54" height="45" viewBox="0 0 54 45" fill="none" xmlns="http://www.w3.org/2000/svg">
<g id="Frame" clip-path="url(#clip0_2198_3358)">
<g id="Group">
<path id="Vector" d="M0 22.1957C0.291427 21.7138 0.707751 21.5437 1.26285 21.5579C2.37305 21.5863 3.48324 21.5721 4.60732 21.5721C4.73222 20.58 4.8016 19.6162 4.98201 18.6666C6.48078 10.6871 10.8938 4.98942 18.1795 1.78627C27.4496 -2.29562 38.3573 0.850836 44.3385 9.15635C44.4356 9.29808 44.5605 9.43981 44.6299 9.59572C44.8242 10.0351 44.7271 10.4319 44.3385 10.7296C43.9499 11.013 43.5475 10.9705 43.2006 10.6445C43.0757 10.5311 42.9785 10.3752 42.8814 10.2335C38.4961 4.47918 32.7231 1.63036 25.59 1.928C16.2366 2.2965 8.25709 9.62406 6.75833 19.0493C6.63343 19.8571 6.55016 20.6934 6.43914 21.5721C7.47995 21.5721 8.45138 21.5721 9.4228 21.5721C9.63096 21.5721 9.83912 21.5721 10.0473 21.5721C10.4636 21.5721 10.8105 21.6997 10.991 22.0965C11.1714 22.4934 11.0742 22.8477 10.8105 23.1878C9.83912 24.4776 8.8677 25.7674 7.8824 27.0571C7.36893 27.7233 6.86935 28.4036 6.35588 29.0697C5.77303 29.8351 5.19017 29.8493 4.63507 29.0839C3.10855 27.0146 1.59591 24.9453 0.0832648 22.876C0.0693873 22.8477 0.0277549 22.8335 0 22.8193C0 22.6209 0 22.4083 0 22.1957ZM5.50935 27.1847C6.4669 25.9233 7.35506 24.7327 8.32648 23.4571C6.42527 23.4571 4.63507 23.4571 2.76162 23.4571C3.69141 24.7327 4.56569 25.9233 5.50935 27.1847Z" fill="#014898"/>
<path id="Vector_2" d="M53.2905 22.8322C52.9852 23.3141 52.555 23.4416 51.9999 23.4275C50.8897 23.3991 49.7795 23.4133 48.6832 23.4133C48.5583 24.4196 48.4889 25.3975 48.3085 26.3471C46.8653 34.0715 42.6465 39.6983 35.6661 42.9723C26.2433 47.3944 15.0997 44.3613 8.9659 35.8716C8.85488 35.7156 8.72998 35.5597 8.64672 35.3897C8.45243 34.9645 8.60508 34.4826 8.99365 34.2275C9.38222 33.9865 9.84018 34.0574 10.1594 34.4401C10.6451 35.0353 11.0892 35.6731 11.6026 36.2542C15.8908 40.9881 21.2058 43.3267 27.5062 43.0857C36.8735 42.7314 44.6865 35.7582 46.4767 26.3188C46.6432 25.3975 46.7265 24.4621 46.8514 23.47C46.6155 23.4558 46.4351 23.4275 46.2546 23.4275C45.2832 23.4275 44.3118 23.4133 43.3404 23.4275C42.8963 23.4275 42.5077 23.3424 42.2996 22.8889C42.1053 22.4637 42.2579 22.1093 42.5077 21.755C43.951 19.8133 45.3942 17.8574 46.8375 15.9015C47.3926 15.1503 47.9893 15.1503 48.5722 15.9156C50.1542 17.9991 51.7224 20.0967 53.2905 22.1802C53.2905 22.407 53.2905 22.6196 53.2905 22.8322ZM50.5289 21.5566C49.5575 20.2668 48.6416 19.0621 47.6979 17.8007C46.7681 19.0621 45.88 20.2668 44.9363 21.5566C46.8375 21.5566 48.6277 21.5566 50.5289 21.5566Z" fill="#014898"/>
<path id="Vector_3" d="M26.269 36.6249C18.5393 36.3273 12.5442 29.8218 12.8218 22.0123C13.0993 14.1745 19.5662 8.0942 27.296 8.40601C34.7898 8.70364 40.7571 15.3651 40.4518 23.1036C40.1742 30.7572 33.7212 36.8942 26.269 36.6249ZM26.6576 10.2344C20.0242 10.2202 14.6397 15.7052 14.6397 22.4942C14.6258 29.269 19.9825 34.754 26.6298 34.7682C33.2633 34.7824 38.6338 29.3115 38.6477 22.5225C38.6616 15.7477 33.291 10.2485 26.6576 10.2344Z" fill="#014898"/>
<path id="Vector_4" d="M23.731 26.151C23.8698 25.9526 23.9531 25.7683 24.0919 25.6266C26.8257 22.8344 29.5596 20.0423 32.2934 17.2502C32.4322 17.1085 32.5571 16.9667 32.7236 16.8675C33.0983 16.6124 33.5008 16.6407 33.82 16.9526C34.1669 17.2785 34.2224 17.6896 33.9726 18.1148C33.8893 18.2565 33.7506 18.3841 33.6395 18.5116C30.6004 21.6155 27.5612 24.7195 24.5221 27.8234C23.8976 28.4612 23.4812 28.4612 22.8429 27.8092C21.7327 26.6896 20.6364 25.5557 19.5262 24.436C19.1792 24.0817 19.0821 23.6707 19.3458 23.2313C19.5678 22.8486 19.9425 22.7211 20.3311 22.8486C20.5531 22.9195 20.7474 23.0896 20.9139 23.2596C21.8159 24.1809 22.718 25.1163 23.731 26.151Z" fill="#014898"/>
</g>
</g>
<defs>
<clipPath id="clip0_2198_3358">
<rect width="53.2895" height="45" fill="white"/>
</clipPath>
</defs>
</svg>
