<svg width="45" height="45" viewBox="0 0 45 45" fill="none" xmlns="http://www.w3.org/2000/svg">
<g id="Frame" clip-path="url(#clip0_2198_3372)">
<g id="Group">
<g id="Vector">
<path d="M22.5178 7.55992C23.0394 7.55992 23.5492 7.55992 24.0708 7.55992C25.0548 7.57177 25.6713 8.18842 25.695 9.17269C25.7069 9.87235 25.7069 10.5602 25.695 11.2598C25.6832 11.6274 25.8136 11.829 26.1692 11.9476C26.5842 12.0899 26.9991 12.2678 27.4022 12.4575C27.7342 12.6236 27.9831 12.5643 28.2321 12.3034C28.7182 11.7935 29.2042 11.3072 29.7021 10.821C30.4135 10.1332 31.2789 10.1332 31.9784 10.8329C32.7134 11.5563 33.4484 12.2915 34.1835 13.0386C34.8829 13.7383 34.8829 14.6158 34.1835 15.3155C33.6855 15.8254 33.1876 16.3235 32.6778 16.8215C32.4407 17.0468 32.4052 17.284 32.5356 17.5805C32.7253 17.9955 32.9149 18.4106 33.0572 18.8493C33.1758 19.217 33.3892 19.3237 33.7567 19.3237C34.4324 19.3118 35.12 19.3118 35.7958 19.3237C36.8272 19.3356 37.4437 19.9522 37.4437 20.9958C37.4437 22.0156 37.4437 23.0354 37.4437 24.0672C37.4318 25.0514 36.8154 25.6681 35.8314 25.6799C35.1319 25.6918 34.4443 25.6918 33.7448 25.6799C33.3773 25.6681 33.1758 25.7985 33.0572 26.1543C32.9268 26.5575 32.7608 26.9607 32.5593 27.3401C32.3696 27.7078 32.4407 27.9686 32.7371 28.2414C33.235 28.7039 33.7093 29.2019 34.1835 29.6882C34.8711 30.3997 34.8711 31.2654 34.1716 31.965C33.4484 32.7002 32.7134 33.4355 31.9665 34.1707C31.2552 34.8704 30.3898 34.8585 29.6903 34.1707C29.1805 33.6727 28.6826 33.1746 28.1847 32.6647C27.9594 32.4275 27.7223 32.3919 27.4259 32.5342C26.9991 32.7358 26.5605 32.9137 26.11 33.0797C25.8136 33.1865 25.6832 33.3643 25.6832 33.6727C25.695 34.3723 25.695 35.0601 25.6832 35.7598C25.6713 36.8508 25.0667 37.4556 23.9641 37.4556C22.9683 37.4556 21.9843 37.4556 20.9885 37.4556C19.957 37.4556 19.3406 36.8389 19.3287 35.7954C19.3168 35.1194 19.3168 34.4316 19.3287 33.7557C19.3406 33.388 19.2101 33.1864 18.8545 33.0679C18.4514 32.9374 18.0483 32.7714 17.669 32.5698C17.3014 32.3801 17.0406 32.4512 16.7679 32.7477C16.3174 33.2339 15.8314 33.6964 15.3572 34.1707C14.6221 34.8941 13.7685 34.8941 13.0454 34.1826C12.3103 33.4592 11.5753 32.724 10.8403 31.9769C10.1408 31.2772 10.1526 30.3997 10.8403 29.7C11.3382 29.1901 11.8361 28.692 12.3459 28.194C12.583 27.9686 12.6186 27.7315 12.4763 27.435C12.2748 27.0081 12.0969 26.5693 11.931 26.1187C11.8243 25.8222 11.6464 25.6918 11.3382 25.6918C10.6269 25.7036 9.91554 25.7036 9.20422 25.6918C8.1728 25.6799 7.55632 25.0633 7.55632 24.0197C7.55632 23.0117 7.55632 22.0037 7.55632 20.9958C7.55632 19.9641 8.1728 19.3474 9.21608 19.3356C9.89183 19.3356 10.5794 19.3237 11.2552 19.3356C11.6227 19.3474 11.8243 19.217 11.9428 18.8612C12.0732 18.4699 12.2273 18.0785 12.417 17.7109C12.6067 17.3433 12.583 17.0587 12.2629 16.7622C11.765 16.2997 11.2908 15.8135 10.8165 15.3155C10.1289 14.604 10.1289 13.7383 10.8284 13.0386C11.5516 12.3034 12.2866 11.5681 13.0335 10.8329C13.7448 10.1332 14.6103 10.1451 15.3097 10.8329C15.8195 11.331 16.3174 11.829 16.8154 12.339C17.0406 12.5761 17.2777 12.6117 17.5741 12.4694C18.0009 12.2678 18.4395 12.0899 18.8901 11.9239C19.1864 11.8172 19.3168 11.6393 19.3168 11.331C19.305 10.6313 19.305 9.9435 19.3168 9.24384C19.3287 8.15285 19.9333 7.54806 21.0359 7.54806C21.5457 7.55992 22.0317 7.55992 22.5178 7.55992ZM8.64702 22.5018C8.64702 22.9762 8.64702 23.4505 8.64702 23.9248C8.64702 24.4941 8.77743 24.6245 9.35834 24.6245C10.0341 24.6245 10.7217 24.6245 11.3975 24.6245C12.2036 24.6364 12.6423 24.9566 12.9387 25.7155C13.1046 26.1424 13.2825 26.5693 13.4603 26.9844C13.7922 27.7433 13.7093 28.3007 13.1402 28.8936C12.6541 29.3917 12.1562 29.8779 11.6701 30.3759C11.3026 30.7436 11.3026 30.9096 11.6583 31.2653C12.3577 31.9769 13.0572 32.6765 13.7685 33.3762C14.1123 33.7201 14.2902 33.7201 14.634 33.3762C15.1556 32.8663 15.6535 32.3445 16.1752 31.8346C16.7087 31.3246 17.3014 31.2179 17.9653 31.5144C18.4158 31.7041 18.8545 31.9057 19.3168 32.0836C20.0756 32.3801 20.3957 32.8188 20.3957 33.6371C20.4075 34.3486 20.3957 35.0601 20.3957 35.7716C20.3957 36.2341 20.5498 36.3764 21.0122 36.3883C21.9843 36.3883 22.9683 36.3883 23.9404 36.3883C24.4858 36.3883 24.6162 36.2578 24.6162 35.7005C24.6162 35.0008 24.6043 34.313 24.6162 33.6134C24.628 32.8307 24.9481 32.3919 25.6832 32.1073C26.1218 31.9294 26.5605 31.7516 26.9991 31.5618C27.7342 31.2416 28.3032 31.3246 28.8723 31.882C29.3702 32.3682 29.8563 32.8663 30.3542 33.3525C30.7454 33.7319 30.8995 33.7438 31.2789 33.3643C31.9784 32.6765 32.666 31.9887 33.3536 31.2891C33.7211 30.9215 33.7211 30.7673 33.3536 30.3997C32.8438 29.8779 32.3222 29.3798 31.8124 28.858C31.3145 28.3481 31.2196 27.7552 31.5042 27.103C31.7057 26.6286 31.9072 26.1543 32.0969 25.6681C32.3696 24.9921 32.832 24.6601 33.5551 24.6482C34.2783 24.6364 35.0015 24.6482 35.7365 24.6482C36.2226 24.6482 36.3649 24.4941 36.3649 24.0079C36.3649 23.0473 36.3649 22.0868 36.3649 21.1143C36.3649 20.5451 36.2345 20.4265 35.6535 20.4147C34.9422 20.4147 34.2309 20.4147 33.5196 20.4028C32.8201 20.391 32.3577 20.0352 32.0969 19.3948C31.9191 18.9442 31.7413 18.4817 31.5397 18.043C31.2078 17.284 31.2908 16.7266 31.8598 16.1337C32.3459 15.6357 32.8438 15.1494 33.3299 14.6514C33.6974 14.2838 33.6974 14.1177 33.3417 13.762C32.6423 13.0505 31.9428 12.3508 31.2315 11.6511C30.8877 11.3072 30.7099 11.3072 30.366 11.6511C29.8563 12.1492 29.3583 12.6591 28.8604 13.1572C28.2914 13.7146 27.7104 13.8094 26.9873 13.4892C26.5605 13.2995 26.1218 13.1098 25.6832 12.9437C24.9363 12.6473 24.6162 12.2085 24.6043 11.3903C24.5925 10.6906 24.6043 10.0028 24.6043 9.30314C24.6043 8.78136 24.4621 8.65091 23.9404 8.65091C22.9802 8.65091 22.0199 8.65091 21.0477 8.65091C20.5142 8.65091 20.372 8.79321 20.372 9.33871C20.372 10.0502 20.372 10.7618 20.372 11.4733C20.3601 12.1966 20.0045 12.671 19.3406 12.9319C18.8901 13.1098 18.4395 13.2995 17.989 13.4892C17.2659 13.8094 16.685 13.7264 16.1159 13.1691C15.618 12.6829 15.1319 12.1848 14.634 11.6986C14.2428 11.3191 14.0886 11.3072 13.7093 11.6867C13.0098 12.3745 12.3222 13.0623 11.6346 13.762C11.2671 14.1296 11.2671 14.2838 11.6346 14.6514C12.1206 15.1494 12.6186 15.6357 13.1046 16.1337C13.6855 16.7266 13.7685 17.2959 13.4366 18.043C13.2588 18.4462 13.0809 18.8612 12.9268 19.2763C12.6186 20.0945 12.1681 20.4147 11.2789 20.4265C10.5794 20.4265 9.89183 20.4265 9.19236 20.4265C8.78928 20.4265 8.58774 20.6163 8.5996 21.0195C8.65887 21.4938 8.64702 21.9919 8.64702 22.5018Z" fill="#014898"/>
<path d="M9.08567 5.63882C8.0661 5.63882 7.0584 5.63882 6.03884 5.63882C5.90843 5.63882 5.7306 5.66253 5.64761 5.59138C5.49349 5.46094 5.29195 5.2712 5.29195 5.10518C5.29195 4.93915 5.49349 4.74942 5.64761 4.61897C5.7306 4.54782 5.90843 4.57154 6.03884 4.57154C7.54447 4.59525 9.06196 4.60711 10.5676 4.63083C11.2196 4.64269 11.3975 4.83243 11.3026 5.47279C11.1011 6.97884 10.8758 8.49675 10.6624 10.0028C10.615 10.3586 10.4727 10.6432 10.0578 10.6194C9.714 10.6076 9.54803 10.323 9.61916 9.84863C9.74957 8.86437 9.89183 7.8801 10.0341 6.89583C10.0578 6.75353 10.0697 6.59937 10.0934 6.35033C9.87998 6.51636 9.72586 6.62308 9.58359 6.74167C5.20896 10.4534 2.70748 15.1613 2.23327 20.9009C1.40339 30.8977 8.18466 40.1 17.9653 42.3176C21.7828 43.1833 25.5528 42.9817 29.2516 41.6891C29.382 41.6417 29.5006 41.6061 29.631 41.5587C29.9511 41.4401 30.2119 41.5587 30.3186 41.8551C30.4372 42.1753 30.3068 42.4481 29.9748 42.5548C29.4295 42.7445 28.8841 42.9343 28.3269 43.0884C17.0525 46.2547 5.50535 39.9577 2.01987 28.7869C-0.529034 20.6163 2.16213 11.6037 8.78928 6.04201C8.89598 5.959 8.99082 5.87599 9.09752 5.78112C9.09752 5.73368 9.08567 5.68625 9.08567 5.63882Z" fill="#014898"/>
<path d="M37.503 37.8469C38.5107 37.8469 39.471 37.8469 40.4194 37.8469C40.6091 37.8469 40.8106 37.8232 41.0003 37.835C41.3204 37.8706 41.5338 38.0604 41.5219 38.3924C41.5101 38.6889 41.3204 38.8786 41.0003 38.8905C40.2297 38.9142 39.4591 38.9379 38.6885 38.9616C37.8349 38.9853 36.9695 39.0209 36.1159 39.0328C35.6417 39.0446 35.4164 38.8074 35.4639 38.3568C35.618 36.7796 35.7839 35.2024 35.9381 33.6252C35.9855 33.1983 36.2226 32.973 36.5427 33.0204C36.8628 33.0679 37.0406 33.3406 36.9932 33.7675C36.8865 34.8585 36.7679 35.9495 36.6494 37.1117C36.7917 36.9931 36.8746 36.9338 36.9458 36.8626C40.206 33.5541 42.1384 29.5933 42.7193 24.9803C44.0353 14.4261 36.9339 4.60711 26.4893 2.53185C23.324 1.89148 20.1823 2.02193 17.0762 2.87575C17.0169 2.88761 16.9695 2.91133 16.9102 2.92318C16.4478 3.04177 16.1752 2.93504 16.0685 2.603C15.9736 2.28282 16.1633 1.99821 16.6138 1.89148C17.42 1.68989 18.2262 1.47643 19.0323 1.34598C24.9244 0.468445 30.3542 1.66617 35.1675 5.22376C40.0993 8.86437 43.0394 13.7738 43.7626 19.8929C44.5688 26.7591 42.4585 32.6884 37.669 37.6572C37.6097 37.7046 37.5623 37.7639 37.503 37.8469Z" fill="#014898"/>
<path d="M22.5178 29.7356C18.5107 29.7356 15.286 26.4982 15.286 22.5018C15.286 18.4936 18.5225 15.268 22.5178 15.268C26.5249 15.268 29.7496 18.5054 29.7496 22.5018C29.7496 26.51 26.5131 29.7356 22.5178 29.7356ZM16.4004 23.0354C16.4834 25.8459 19.2339 28.5853 21.9843 28.6209C21.9843 28.2414 21.9843 27.8619 21.9843 27.4706C21.9843 27.1148 22.1266 26.8539 22.5178 26.8539C22.909 26.8539 23.0513 27.1148 23.0513 27.4706C23.0513 27.8501 23.0513 28.2295 23.0513 28.6209C25.8373 28.5497 28.5522 25.8341 28.6352 23.0354C28.2558 23.0354 27.8764 23.0354 27.4852 23.0354C27.1295 23.0354 26.8687 22.8931 26.8569 22.5018C26.8569 22.1105 27.1058 21.9682 27.4733 21.9682C27.8527 21.9682 28.2321 21.9682 28.6233 21.9682C28.4455 18.7545 25.5053 16.4065 23.0394 16.4183C23.0394 16.7622 23.0394 17.0943 23.0394 17.4382C23.0394 17.8058 22.8972 18.0548 22.5059 18.0548C22.1147 18.0548 21.9724 17.7939 21.9724 17.4263C21.9724 17.0824 21.9724 16.7266 21.9724 16.3709C18.8426 16.5962 16.5071 19.2881 16.4004 21.9682C16.7798 21.9682 17.171 21.9682 17.5504 21.9682C17.9179 21.9682 18.1669 22.1223 18.1669 22.5137C18.1669 22.905 17.8942 23.0354 17.5385 23.0354C17.171 23.0354 16.8035 23.0354 16.4004 23.0354Z" fill="#014898"/>
<path d="M23.0513 21.9682C23.4781 21.9682 23.8456 21.9682 24.2131 21.9682C24.5688 21.9682 24.794 22.1461 24.794 22.5018C24.794 22.8457 24.5688 23.0354 24.2131 23.0354C23.6678 23.0354 23.1224 23.0473 22.5652 23.0354C22.1621 23.0354 21.9724 22.8101 21.9724 22.4188C21.9724 21.565 21.9606 20.6993 21.9724 19.8455C21.9724 19.4541 22.2096 19.2051 22.5178 19.2288C22.8735 19.2644 23.0276 19.4897 23.0276 19.8336C23.0513 20.5214 23.0513 21.2211 23.0513 21.9682Z" fill="#014898"/>
<path d="M22.5178 7.55992C23.0394 7.55992 23.5492 7.55992 24.0708 7.55992C25.0548 7.57177 25.6713 8.18842 25.695 9.17269C25.7069 9.87235 25.7069 10.5602 25.695 11.2598C25.6832 11.6274 25.8136 11.829 26.1692 11.9476C26.5842 12.0899 26.9991 12.2678 27.4022 12.4575C27.7342 12.6236 27.9831 12.5643 28.2321 12.3034C28.7182 11.7935 29.2042 11.3072 29.7021 10.821C30.4135 10.1332 31.2789 10.1332 31.9784 10.8329C32.7134 11.5563 33.4484 12.2915 34.1835 13.0386C34.8829 13.7383 34.8829 14.6158 34.1835 15.3155C33.6855 15.8254 33.1876 16.3235 32.6778 16.8215C32.4407 17.0468 32.4052 17.284 32.5356 17.5805C32.7253 17.9955 32.9149 18.4106 33.0572 18.8493C33.1758 19.217 33.3892 19.3237 33.7567 19.3237C34.4324 19.3118 35.12 19.3118 35.7958 19.3237C36.8272 19.3356 37.4437 19.9522 37.4437 20.9958C37.4437 22.0156 37.4437 23.0354 37.4437 24.0672C37.4318 25.0514 36.8154 25.6681 35.8314 25.6799C35.1319 25.6918 34.4443 25.6918 33.7448 25.6799C33.3773 25.6681 33.1758 25.7985 33.0572 26.1543C32.9268 26.5575 32.7608 26.9607 32.5593 27.3401C32.3696 27.7078 32.4407 27.9686 32.7371 28.2414C33.235 28.7039 33.7093 29.2019 34.1835 29.6882C34.8711 30.3997 34.8711 31.2654 34.1716 31.965C33.4484 32.7002 32.7134 33.4355 31.9665 34.1707C31.2552 34.8704 30.3898 34.8585 29.6903 34.1707C29.1805 33.6727 28.6826 33.1746 28.1847 32.6647C27.9594 32.4275 27.7223 32.3919 27.4259 32.5342C26.9991 32.7358 26.5605 32.9137 26.11 33.0797C25.8136 33.1865 25.6832 33.3643 25.6832 33.6727C25.695 34.3723 25.695 35.0601 25.6832 35.7598C25.6713 36.8508 25.0667 37.4556 23.9641 37.4556C22.9683 37.4556 21.9843 37.4556 20.9885 37.4556C19.957 37.4556 19.3406 36.8389 19.3287 35.7954C19.3168 35.1194 19.3168 34.4316 19.3287 33.7557C19.3406 33.388 19.2101 33.1864 18.8545 33.0679C18.4514 32.9374 18.0483 32.7714 17.669 32.5698C17.3014 32.3801 17.0406 32.4512 16.7679 32.7477C16.3174 33.2339 15.8314 33.6964 15.3572 34.1707C14.6221 34.8941 13.7685 34.8941 13.0454 34.1826C12.3103 33.4592 11.5753 32.724 10.8403 31.9769C10.1408 31.2772 10.1526 30.3997 10.8403 29.7C11.3382 29.1901 11.8361 28.692 12.3459 28.194C12.583 27.9686 12.6186 27.7315 12.4763 27.435C12.2748 27.0081 12.0969 26.5693 11.931 26.1187C11.8243 25.8222 11.6464 25.6918 11.3382 25.6918C10.6269 25.7036 9.91554 25.7036 9.20422 25.6918C8.1728 25.6799 7.55632 25.0633 7.55632 24.0197C7.55632 23.0117 7.55632 22.0037 7.55632 20.9958C7.55632 19.9641 8.1728 19.3474 9.21608 19.3356C9.89183 19.3356 10.5794 19.3237 11.2552 19.3356C11.6227 19.3474 11.8243 19.217 11.9428 18.8612C12.0732 18.4699 12.2273 18.0785 12.417 17.7109C12.6067 17.3433 12.583 17.0587 12.2629 16.7622C11.765 16.2997 11.2908 15.8135 10.8165 15.3155C10.1289 14.604 10.1289 13.7383 10.8284 13.0386C11.5516 12.3034 12.2866 11.5681 13.0335 10.8329C13.7448 10.1332 14.6103 10.1451 15.3097 10.8329C15.8195 11.331 16.3174 11.829 16.8154 12.339C17.0406 12.5761 17.2777 12.6117 17.5741 12.4694C18.0009 12.2678 18.4395 12.0899 18.8901 11.9239C19.1864 11.8172 19.3168 11.6393 19.3168 11.331C19.305 10.6313 19.305 9.9435 19.3168 9.24384C19.3287 8.15285 19.9333 7.54806 21.0359 7.54806C21.5457 7.55992 22.0317 7.55992 22.5178 7.55992ZM8.64702 22.5018C8.64702 22.9762 8.64702 23.4505 8.64702 23.9248C8.64702 24.4941 8.77743 24.6245 9.35834 24.6245C10.0341 24.6245 10.7217 24.6245 11.3975 24.6245C12.2036 24.6364 12.6423 24.9566 12.9387 25.7155C13.1046 26.1424 13.2825 26.5693 13.4603 26.9844C13.7922 27.7433 13.7093 28.3007 13.1402 28.8936C12.6541 29.3917 12.1562 29.8779 11.6701 30.3759C11.3026 30.7436 11.3026 30.9096 11.6583 31.2653C12.3577 31.9769 13.0572 32.6765 13.7685 33.3762C14.1123 33.7201 14.2902 33.7201 14.634 33.3762C15.1556 32.8663 15.6535 32.3445 16.1752 31.8346C16.7087 31.3246 17.3014 31.2179 17.9653 31.5144C18.4158 31.7041 18.8545 31.9057 19.3168 32.0836C20.0756 32.3801 20.3957 32.8188 20.3957 33.6371C20.4075 34.3486 20.3957 35.0601 20.3957 35.7716C20.3957 36.2341 20.5498 36.3764 21.0122 36.3883C21.9843 36.3883 22.9683 36.3883 23.9404 36.3883C24.4858 36.3883 24.6162 36.2578 24.6162 35.7005C24.6162 35.0008 24.6043 34.313 24.6162 33.6134C24.628 32.8307 24.9481 32.3919 25.6832 32.1073C26.1218 31.9294 26.5605 31.7516 26.9991 31.5618C27.7342 31.2416 28.3032 31.3246 28.8723 31.882C29.3702 32.3682 29.8563 32.8663 30.3542 33.3525C30.7454 33.7319 30.8995 33.7438 31.2789 33.3643C31.9784 32.6765 32.666 31.9887 33.3536 31.2891C33.7211 30.9215 33.7211 30.7673 33.3536 30.3997C32.8438 29.8779 32.3222 29.3798 31.8124 28.858C31.3145 28.3481 31.2196 27.7552 31.5042 27.103C31.7057 26.6286 31.9072 26.1543 32.0969 25.6681C32.3696 24.9921 32.832 24.6601 33.5551 24.6482C34.2783 24.6364 35.0015 24.6482 35.7365 24.6482C36.2226 24.6482 36.3649 24.4941 36.3649 24.0079C36.3649 23.0473 36.3649 22.0868 36.3649 21.1143C36.3649 20.5451 36.2345 20.4265 35.6535 20.4147C34.9422 20.4147 34.2309 20.4147 33.5196 20.4028C32.8201 20.391 32.3577 20.0352 32.0969 19.3948C31.9191 18.9442 31.7413 18.4817 31.5397 18.043C31.2078 17.284 31.2908 16.7266 31.8598 16.1337C32.3459 15.6357 32.8438 15.1494 33.3299 14.6514C33.6974 14.2838 33.6974 14.1177 33.3417 13.762C32.6423 13.0505 31.9428 12.3508 31.2315 11.6511C30.8877 11.3072 30.7099 11.3072 30.366 11.6511C29.8563 12.1492 29.3583 12.6591 28.8604 13.1572C28.2914 13.7146 27.7104 13.8094 26.9873 13.4892C26.5605 13.2995 26.1218 13.1098 25.6832 12.9437C24.9363 12.6473 24.6162 12.2085 24.6043 11.3903C24.5925 10.6906 24.6043 10.0028 24.6043 9.30314C24.6043 8.78136 24.4621 8.65091 23.9404 8.65091C22.9802 8.65091 22.0199 8.65091 21.0477 8.65091C20.5142 8.65091 20.372 8.79321 20.372 9.33871C20.372 10.0502 20.372 10.7618 20.372 11.4733C20.3601 12.1966 20.0045 12.671 19.3406 12.9319C18.8901 13.1098 18.4395 13.2995 17.989 13.4892C17.2659 13.8094 16.685 13.7264 16.1159 13.1691C15.618 12.6829 15.1319 12.1848 14.634 11.6986C14.2428 11.3191 14.0886 11.3072 13.7093 11.6867C13.0098 12.3745 12.3222 13.0623 11.6346 13.762C11.2671 14.1296 11.2671 14.2838 11.6346 14.6514C12.1206 15.1494 12.6186 15.6357 13.1046 16.1337C13.6855 16.7266 13.7685 17.2959 13.4366 18.043C13.2588 18.4462 13.0809 18.8612 12.9268 19.2763C12.6186 20.0945 12.1681 20.4147 11.2789 20.4265C10.5794 20.4265 9.89183 20.4265 9.19236 20.4265C8.78928 20.4265 8.58774 20.6163 8.5996 21.0195C8.65887 21.4938 8.64702 21.9919 8.64702 22.5018Z" stroke="#014898" stroke-width="0.4"/>
<path d="M9.08567 5.63882C8.0661 5.63882 7.0584 5.63882 6.03884 5.63882C5.90843 5.63882 5.7306 5.66253 5.64761 5.59138C5.49349 5.46094 5.29195 5.2712 5.29195 5.10518C5.29195 4.93915 5.49349 4.74942 5.64761 4.61897C5.7306 4.54782 5.90843 4.57154 6.03884 4.57154C7.54447 4.59525 9.06196 4.60711 10.5676 4.63083C11.2196 4.64269 11.3975 4.83243 11.3026 5.47279C11.1011 6.97884 10.8758 8.49675 10.6624 10.0028C10.615 10.3586 10.4727 10.6432 10.0578 10.6194C9.714 10.6076 9.54803 10.323 9.61916 9.84863C9.74957 8.86437 9.89183 7.8801 10.0341 6.89583C10.0578 6.75353 10.0697 6.59937 10.0934 6.35033C9.87998 6.51636 9.72586 6.62308 9.58359 6.74167C5.20896 10.4534 2.70748 15.1613 2.23327 20.9009C1.40339 30.8977 8.18466 40.1 17.9653 42.3176C21.7828 43.1833 25.5528 42.9817 29.2516 41.6891C29.382 41.6417 29.5006 41.6061 29.631 41.5587C29.9511 41.4401 30.2119 41.5587 30.3186 41.8551C30.4372 42.1753 30.3068 42.4481 29.9748 42.5548C29.4295 42.7445 28.8841 42.9343 28.3269 43.0884C17.0525 46.2547 5.50535 39.9577 2.01987 28.7869C-0.529034 20.6163 2.16213 11.6037 8.78928 6.04201C8.89598 5.959 8.99082 5.87599 9.09752 5.78112C9.09752 5.73368 9.08567 5.68625 9.08567 5.63882Z" stroke="#014898" stroke-width="0.4"/>
<path d="M37.503 37.8469C38.5107 37.8469 39.471 37.8469 40.4194 37.8469C40.6091 37.8469 40.8106 37.8232 41.0003 37.835C41.3204 37.8706 41.5338 38.0604 41.5219 38.3924C41.5101 38.6889 41.3204 38.8786 41.0003 38.8905C40.2297 38.9142 39.4591 38.9379 38.6885 38.9616C37.8349 38.9853 36.9695 39.0209 36.1159 39.0328C35.6417 39.0446 35.4164 38.8074 35.4639 38.3568C35.618 36.7796 35.7839 35.2024 35.9381 33.6252C35.9855 33.1983 36.2226 32.973 36.5427 33.0204C36.8628 33.0679 37.0406 33.3406 36.9932 33.7675C36.8865 34.8585 36.7679 35.9495 36.6494 37.1117C36.7917 36.9931 36.8746 36.9338 36.9458 36.8626C40.206 33.5541 42.1384 29.5933 42.7193 24.9803C44.0353 14.4261 36.9339 4.60711 26.4893 2.53185C23.324 1.89148 20.1823 2.02193 17.0762 2.87575C17.0169 2.88761 16.9695 2.91133 16.9102 2.92318C16.4478 3.04177 16.1752 2.93504 16.0685 2.603C15.9736 2.28282 16.1633 1.99821 16.6138 1.89148C17.42 1.68989 18.2262 1.47643 19.0323 1.34598C24.9244 0.468445 30.3542 1.66617 35.1675 5.22376C40.0993 8.86437 43.0394 13.7738 43.7626 19.8929C44.5688 26.7591 42.4585 32.6884 37.669 37.6572C37.6097 37.7046 37.5623 37.7639 37.503 37.8469Z" stroke="#014898" stroke-width="0.4"/>
<path d="M22.5178 29.7356C18.5107 29.7356 15.286 26.4982 15.286 22.5018C15.286 18.4936 18.5225 15.268 22.5178 15.268C26.5249 15.268 29.7496 18.5054 29.7496 22.5018C29.7496 26.51 26.5131 29.7356 22.5178 29.7356ZM16.4004 23.0354C16.4834 25.8459 19.2339 28.5853 21.9843 28.6209C21.9843 28.2414 21.9843 27.8619 21.9843 27.4706C21.9843 27.1148 22.1266 26.8539 22.5178 26.8539C22.909 26.8539 23.0513 27.1148 23.0513 27.4706C23.0513 27.8501 23.0513 28.2295 23.0513 28.6209C25.8373 28.5497 28.5522 25.8341 28.6352 23.0354C28.2558 23.0354 27.8764 23.0354 27.4852 23.0354C27.1295 23.0354 26.8687 22.8931 26.8569 22.5018C26.8569 22.1105 27.1058 21.9682 27.4733 21.9682C27.8527 21.9682 28.2321 21.9682 28.6233 21.9682C28.4455 18.7545 25.5053 16.4065 23.0394 16.4183C23.0394 16.7622 23.0394 17.0943 23.0394 17.4382C23.0394 17.8058 22.8972 18.0548 22.5059 18.0548C22.1147 18.0548 21.9724 17.7939 21.9724 17.4263C21.9724 17.0824 21.9724 16.7266 21.9724 16.3709C18.8426 16.5962 16.5071 19.2881 16.4004 21.9682C16.7798 21.9682 17.171 21.9682 17.5504 21.9682C17.9179 21.9682 18.1669 22.1223 18.1669 22.5137C18.1669 22.905 17.8942 23.0354 17.5385 23.0354C17.171 23.0354 16.8035 23.0354 16.4004 23.0354Z" stroke="#014898" stroke-width="0.4"/>
<path d="M23.0513 21.9682C23.4781 21.9682 23.8456 21.9682 24.2131 21.9682C24.5688 21.9682 24.794 22.1461 24.794 22.5018C24.794 22.8457 24.5688 23.0354 24.2131 23.0354C23.6678 23.0354 23.1224 23.0473 22.5652 23.0354C22.1621 23.0354 21.9724 22.8101 21.9724 22.4188C21.9724 21.565 21.9606 20.6993 21.9724 19.8455C21.9724 19.4541 22.2096 19.2051 22.5178 19.2288C22.8735 19.2644 23.0276 19.4897 23.0276 19.8336C23.0513 20.5214 23.0513 21.2211 23.0513 21.9682Z" stroke="#014898" stroke-width="0.4"/>
</g>
</g>
</g>
<defs>
<clipPath id="clip0_2198_3372">
<rect width="45" height="45" fill="white"/>
</clipPath>
</defs>
</svg>
