<svg width="41" height="40" viewBox="0 0 41 40" fill="none" xmlns="http://www.w3.org/2000/svg">
<path d="M0.998698 18.7523C1.10286 18.0023 1.17578 17.2523 1.3112 16.5128C2.13411 11.9503 4.30078 8.12733 7.75911 5.044C10.7695 2.3565 14.3008 0.721083 18.3008 0.189833C23.3841 -0.476833 28.0925 0.6065 32.3112 3.53358C36.957 6.76275 39.8529 11.2003 40.7174 16.794C41.7695 23.5648 39.8008 29.4294 34.957 34.2836C31.9987 37.2523 28.3841 39.0336 24.2487 39.7315C23.582 39.8461 22.9154 39.9086 22.2487 39.9919C21.4154 39.9919 20.582 39.9919 19.7487 39.9919C19.2591 39.9294 18.7695 39.8773 18.2799 39.8148C14.2695 39.2419 10.7383 37.6273 7.71745 34.9294C4.27995 31.8461 2.1237 28.0336 1.30078 23.4815C1.16536 22.7419 1.09245 21.9919 0.988281 21.2523C0.998698 20.419 0.998698 19.5857 0.998698 18.7523ZM20.9883 1.25233C10.6654 1.26275 2.25911 9.669 2.2487 19.9919C2.23828 30.3253 10.6549 38.7523 20.9883 38.7523C31.3216 38.7523 39.7487 30.3357 39.7487 20.0023C39.7487 9.669 31.3216 1.25233 20.9883 1.25233Z" fill="#014898"/>
<path d="M16.1029 12.0232C16.1029 11.2627 16.1029 10.5544 16.1029 9.8565C16.1029 9.20025 16.3112 8.99192 16.9674 8.99192C19.6445 8.99192 22.332 8.99192 25.0091 8.99192C25.6862 8.99192 25.8841 9.18983 25.8841 9.88775C25.8841 10.5857 25.8841 11.2836 25.8841 12.0232C26.0716 12.0232 26.2174 12.0232 26.3529 12.0232C27.8008 12.0232 29.2383 12.0127 30.6862 12.0232C32.1862 12.0336 33.1758 13.0232 33.1758 14.5336C33.1758 19.1794 33.1758 23.8252 33.1758 28.4815C33.1758 30.0023 32.1758 31.0128 30.6654 31.0128C24.2174 31.0128 17.7799 31.0128 11.332 31.0128C9.8112 31.0128 8.8112 30.0023 8.8112 28.4919C8.8112 23.8461 8.8112 19.2003 8.8112 14.544C8.8112 13.0232 9.80078 12.0336 11.3216 12.0232C12.7487 12.0127 14.1862 12.0232 15.6133 12.0232C15.7695 12.0232 15.9049 12.0232 16.1029 12.0232ZM10.0612 18.0961C10.0612 18.2836 10.0612 18.4086 10.0612 18.5336C10.0612 21.8252 10.0612 25.1169 10.0612 28.4086C10.0612 29.3357 10.4883 29.7628 11.4258 29.7628C17.8008 29.7628 24.1862 29.7628 30.5612 29.7628C31.5195 29.7628 31.9362 29.3357 31.9362 28.3773C31.9362 25.0961 31.9362 21.8148 31.9362 18.5336C31.9362 18.4086 31.9362 18.2732 31.9362 18.1378C31.8737 18.1378 31.832 18.1273 31.7904 18.1378C29.2591 19.0857 26.7279 20.044 24.207 21.0023C24.1029 21.044 23.9987 21.2211 23.9883 21.3357C23.9674 21.7732 23.9883 22.2211 23.9779 22.6586C23.9674 23.1377 23.7591 23.3669 23.3008 23.3669C21.7695 23.3773 20.2279 23.3773 18.6966 23.3669C18.2279 23.3669 18.0195 23.1377 18.0195 22.6586C18.0091 22.2523 17.9987 21.8461 18.0195 21.4502C18.0404 21.1482 17.9154 21.0232 17.6445 20.919C15.5612 20.1482 13.4883 19.3565 11.4049 18.5753C10.9779 18.4398 10.5404 18.2732 10.0612 18.0961ZM23.9987 19.7523C26.5924 18.7732 29.1654 17.8044 31.7383 16.8252C31.832 16.794 31.9258 16.6169 31.9258 16.5127C31.9466 15.8357 31.9362 15.1586 31.9362 14.4815C31.9258 13.7419 31.4779 13.294 30.7383 13.2836C30.0404 13.2732 29.332 13.2836 28.6341 13.2836C22.8841 13.2836 17.1237 13.2836 11.3737 13.2836C10.4987 13.2836 10.0716 13.7107 10.0716 14.5648C10.0716 15.1898 10.082 15.8148 10.0612 16.4398C10.0508 16.7002 10.1549 16.794 10.3841 16.8773C11.6549 17.3461 12.9154 17.8252 14.1758 18.3044C15.4466 18.7836 16.7279 19.2627 18.0299 19.7627C18.207 19.3565 18.5299 19.3044 18.9049 19.3044C20.2799 19.3148 21.6654 19.3148 23.0404 19.3044C23.4362 19.294 23.7904 19.3357 23.9987 19.7523ZM17.3841 10.2627C17.3841 10.8565 17.3841 11.419 17.3841 12.0023C19.8112 12.0023 22.207 12.0023 24.6237 12.0023C24.6237 11.4086 24.6237 10.8461 24.6237 10.2627C22.207 10.2627 19.8112 10.2627 17.3841 10.2627ZM19.2799 22.1169C20.4466 22.1169 21.5716 22.1169 22.7174 22.1169C22.7174 21.5857 22.7174 21.0857 22.7174 20.5857C21.5612 20.5857 20.4258 20.5857 19.2799 20.5857C19.2799 21.1065 19.2799 21.6065 19.2799 22.1169Z" fill="#014898"/>
<path d="M27.6445 28.2836C26.9154 28.2836 26.1862 28.2836 25.457 28.2836C24.9779 28.2836 24.6758 28.0232 24.6966 27.6377C24.707 27.2627 24.9987 27.0336 25.457 27.0336C26.9258 27.0336 28.3945 27.0336 29.8737 27.0336C30.332 27.0336 30.6133 27.2732 30.6133 27.6586C30.6133 28.0336 30.332 28.2836 29.8737 28.2836C29.1237 28.2836 28.3841 28.2836 27.6445 28.2836Z" fill="#014898"/>
<path d="M13.9987 15.8669C13.5299 15.8669 13.0612 15.8669 12.5924 15.8669C12.1654 15.8565 11.8841 15.6169 11.8737 15.2627C11.8633 14.8877 12.1549 14.6273 12.6029 14.6273C13.5404 14.6273 14.4779 14.6169 15.4154 14.6273C15.8529 14.6273 16.1029 14.8773 16.1029 15.2523C16.1029 15.6273 15.8424 15.8669 15.4049 15.8773C14.9362 15.8773 14.4674 15.8669 13.9987 15.8669Z" fill="#014898"/>
</svg>
