<svg width="42" height="42" viewBox="0 0 42 42" fill="none" xmlns="http://www.w3.org/2000/svg">
<g clip-path="url(#clip0_2232_11076)">
<path d="M41.023 21.4152C40.7754 32.4094 31.7732 41.2177 20.6283 41.0238C9.59098 40.8193 0.761152 31.7633 0.976514 20.586C1.20264 9.5272 10.3017 0.740438 21.4466 0.977336C32.4086 1.21423 41.2276 10.3025 41.023 21.4152ZM37.1573 30.3957C41.2384 23.7734 40.8077 13.5114 33.3561 6.91055C26.0446 0.428163 14.8458 0.740439 7.82502 7.69662C0.922673 14.5236 1.08419 24.3764 4.84226 30.385C5.17607 28.5975 6.24211 27.6283 8.02961 27.4345C7.13586 25.7224 7.28661 24.2364 8.48187 23.1488C9.55868 22.1582 11.1739 22.0182 12.4015 22.815C13.1768 23.3103 13.6398 24.021 13.8336 24.9256C14.0167 25.8408 13.769 26.67 13.2737 27.4561C14.3505 27.5207 15.1796 27.9514 15.8365 28.759C16.4933 27.9191 17.3548 27.5207 18.3777 27.4453C17.4732 25.7332 17.6347 24.2364 18.8192 23.1488C19.8853 22.1689 21.479 22.0182 22.7065 22.7935C23.4926 23.2888 23.9771 24.0103 24.171 24.9256C24.354 25.8408 24.1064 26.6592 23.611 27.4561C24.6878 27.5207 25.517 27.9514 26.12 28.6944C26.5292 28.3821 26.8845 28.0375 27.3045 27.8329C27.7352 27.6176 28.2198 27.5314 28.6828 27.3915C27.8106 25.7655 27.9613 24.2687 29.1243 23.1811C30.1903 22.1797 31.8055 22.0182 33.0439 22.7935C33.8299 23.2888 34.3145 24.0103 34.4976 24.9256C34.6806 25.8408 34.433 26.6592 33.9484 27.4453C35.7682 27.6391 36.8235 28.619 37.1573 30.3957ZM35.2083 33.1308C35.8436 32.5171 35.8543 32.5063 35.8543 31.7633C35.8543 31.451 35.8543 31.1495 35.8543 30.8372C35.8436 29.5774 35.0467 28.759 33.7869 28.759C32.1609 28.759 30.5349 28.759 28.8982 28.759C27.606 28.759 26.8092 29.5666 26.8092 30.848C26.8092 32.5817 26.8092 34.3153 26.8092 36.0598C26.8092 36.1997 26.8092 36.3505 26.8092 36.4797C26.3461 36.4797 25.9369 36.4797 25.517 36.4797C25.517 34.5845 25.517 32.7109 25.517 30.8372C25.517 29.5558 24.7094 28.759 23.4172 28.759C21.802 28.759 20.1868 28.759 18.5716 28.759C17.2686 28.759 16.4718 29.5558 16.4718 30.8803C16.4718 32.6032 16.4718 34.3261 16.4718 36.049C16.4718 36.189 16.4718 36.3397 16.4718 36.4797C16.0195 36.4797 15.6103 36.4797 15.1796 36.4797C15.1796 36.3074 15.1796 36.1567 15.1796 36.0167C15.1796 34.2507 15.1904 32.4955 15.1796 30.7296C15.1689 29.6204 14.3505 28.7698 13.2521 28.759C11.5185 28.7482 9.78481 28.7482 8.04038 28.759C6.98511 28.7698 6.16673 29.6097 6.13443 30.6649C6.12366 31.0957 6.16673 31.5264 6.12366 31.9571C6.06982 32.4848 6.42517 32.754 6.79128 33.1416C6.79128 32.2694 6.79128 31.4941 6.79128 30.708C7.23277 30.708 7.64196 30.708 8.07268 30.708C8.07268 31.871 8.08345 33.0124 8.07268 34.1538C8.07268 34.4122 8.13729 34.5953 8.34188 34.7784C12.5953 38.5687 17.5486 40.1947 23.2126 39.5702C27.1968 39.1287 30.6641 37.4919 33.6361 34.7999C33.8407 34.6168 33.9376 34.4338 33.9269 34.143C33.9053 33.1201 33.9161 32.0971 33.9161 31.0741C33.9161 30.9449 33.9269 30.8157 33.9376 30.6865C34.3791 30.6865 34.7775 30.6865 35.2083 30.6865C35.2083 31.0957 35.2083 31.4833 35.2083 31.8602C35.2083 32.2802 35.2083 32.6678 35.2083 33.1308ZM12.5953 25.5286C12.5953 24.4733 11.7338 23.6011 10.6786 23.5903C9.60175 23.5795 8.72954 24.4518 8.71877 25.5286C8.71877 26.5838 9.58021 27.4561 10.6355 27.4668C11.7123 27.4668 12.5953 26.5946 12.5953 25.5286ZM20.9836 27.4561C22.0604 27.4561 22.9326 26.5838 22.9326 25.5178C22.9326 24.4625 22.0712 23.5903 21.0159 23.5903C19.9391 23.5795 19.0669 24.4518 19.0669 25.5286C19.0561 26.5838 19.9283 27.4561 20.9836 27.4561ZM31.321 27.4561C32.3978 27.4561 33.27 26.5838 33.27 25.5178C33.27 24.4625 32.4086 23.5903 31.3533 23.5903C30.2765 23.5795 29.4043 24.4518 29.4043 25.5286C29.3935 26.5838 30.2657 27.4561 31.321 27.4561Z" fill="#014898"/>
<path d="M26.8953 8.15965C26.7122 8.35347 26.5507 8.5796 26.3354 8.71959C25.7431 9.09647 25.7216 9.67795 26.3246 10.0225C26.8092 10.3025 26.8953 10.5071 26.723 11.0455C26.443 11.9392 25.98 12.7145 25.3339 13.3822C24.9678 13.7591 24.7201 13.8452 24.3002 13.5437C23.8695 13.2314 23.5464 13.4252 23.2234 13.6514C23.1372 13.7052 23.0942 13.8667 23.0834 13.9852C23.0403 14.8251 22.9757 14.9112 22.1573 15.0835C21.2959 15.2558 20.4452 15.2343 19.5945 15.0297C19.0777 14.9112 18.9269 14.7174 18.9161 14.1898C18.9054 13.5329 18.3777 13.2099 17.7963 13.5114C17.1933 13.8237 17.0317 13.7914 16.5687 13.296C15.9549 12.6392 15.5134 11.8746 15.255 11.0132C15.1042 10.5179 15.1904 10.3025 15.6426 10.0441C16.0518 9.80717 16.2026 9.50566 16.0734 9.07494C16.0411 8.95649 15.8795 8.87034 15.7611 8.79497C15.1581 8.45039 15.0827 8.26733 15.2981 7.62125C15.578 6.78133 16.0303 6.03834 16.6441 5.40302C17.0317 5.0046 17.2579 4.91846 17.6994 5.23073C18.1516 5.55377 18.4531 5.32764 18.7762 5.10151C18.8623 5.0369 18.8946 4.85385 18.9054 4.72463C18.9269 3.9924 19.0238 3.87395 19.7345 3.71243C20.6283 3.50784 21.522 3.52937 22.4158 3.74473C22.9111 3.86318 23.0619 4.05701 23.0726 4.56311C23.0942 5.25227 23.611 5.56454 24.214 5.26303C24.7955 4.96153 24.9678 4.98306 25.4093 5.46763C26.0446 6.14602 26.4969 6.93209 26.7553 7.82584C26.7768 7.91198 26.7984 8.0089 26.8199 8.09504C26.8415 8.09504 26.8738 8.12734 26.8953 8.15965ZM16.601 7.76123C16.7302 7.83661 16.7948 7.86891 16.8702 7.91198C17.4409 8.23503 17.484 8.33194 17.3978 8.97802C17.3763 9.16108 17.3332 9.36567 17.3871 9.53796C17.5701 10.2271 17.344 10.6901 16.6872 10.9486C16.6656 10.9594 16.6656 10.9917 16.6333 11.067C16.8056 11.3578 16.9994 11.6808 17.1933 12.0039C17.2902 12.1761 17.3978 12.23 17.6132 12.1331C18.3993 11.81 19.7776 12.413 20.1114 13.1883C20.1329 13.2422 20.1652 13.2853 20.1652 13.3391C20.1329 13.899 20.5206 13.899 20.9082 13.8883C21.1128 13.8775 21.3174 13.9098 21.5113 13.8452C21.6297 13.8129 21.7697 13.6621 21.7912 13.5545C21.8774 13.0807 22.125 12.7469 22.545 12.5207C22.7065 12.4346 22.8788 12.3484 23.0403 12.2515C23.4818 11.9716 23.9341 11.9392 24.4294 12.1223C24.5155 12.1546 24.6986 12.1546 24.7309 12.1008C24.9786 11.7454 25.1939 11.3685 25.4308 10.9917C25.2801 10.9055 25.2155 10.8624 25.1401 10.8194C24.5694 10.4856 24.5263 10.3994 24.6125 9.75333C24.634 9.57027 24.6771 9.36567 24.6232 9.19339C24.4294 8.50423 24.6663 8.05197 25.3232 7.79353C25.3447 7.78277 25.3447 7.75046 25.377 7.67509C25.2047 7.38435 25.0109 7.0613 24.8171 6.73826C24.7201 6.56597 24.6125 6.51213 24.3971 6.59828C23.611 6.91055 22.2435 6.31831 21.8989 5.543C21.8774 5.48916 21.8451 5.44609 21.8451 5.39225C21.8774 4.83231 21.4897 4.83231 21.1021 4.84308C20.8867 4.85385 20.6713 4.84308 20.456 4.88615C20.3698 4.90769 20.2406 5.0046 20.2191 5.09074C20.0037 5.88758 19.1638 6.63058 18.3347 6.70596C18.1731 6.71673 17.9793 6.74903 17.8609 6.68442C17.344 6.37215 17.1502 6.73826 16.9564 7.09361C16.8271 7.30897 16.7302 7.52433 16.601 7.76123Z" fill="#014898"/>
<path d="M19.0561 19.7246C19.0561 21.4798 17.6024 22.9335 15.8365 22.9335C14.049 22.9335 12.5953 21.4905 12.5953 19.7138C12.5953 17.9263 14.049 16.4726 15.8257 16.4834C17.624 16.4834 19.0561 17.9371 19.0561 19.7246ZM15.8365 17.7756C14.7812 17.7756 13.909 18.637 13.8982 19.6923C13.8874 20.7691 14.7597 21.6413 15.8365 21.6521C16.8917 21.6521 17.764 20.7906 17.7747 19.7353C17.7747 18.6585 16.9025 17.7756 15.8365 17.7756Z" fill="#014898"/>
<path d="M29.3935 19.7353C29.3827 21.4905 27.929 22.9335 26.1631 22.9335C24.3756 22.9335 22.9326 21.4798 22.9326 19.6923C22.9326 17.9048 24.3971 16.4618 26.1846 16.4726C27.9721 16.4941 29.4043 17.9478 29.3935 19.7353ZM26.1738 21.6413C27.2291 21.6413 28.1013 20.7691 28.1013 19.7246C28.1013 18.6478 27.2291 17.7648 26.1631 17.7756C25.1078 17.7756 24.2356 18.637 24.2356 19.6923C24.2248 20.7691 25.097 21.6413 26.1738 21.6413Z" fill="#014898"/>
<path d="M14.512 36.4905C14.092 36.4905 13.6936 36.4905 13.2737 36.4905C13.2737 34.5738 13.2737 32.6678 13.2737 30.7296C13.6721 30.7296 14.0813 30.7296 14.512 30.7296C14.512 32.6247 14.512 34.5415 14.512 36.4905Z" fill="#014898"/>
<path d="M18.3993 30.7188C18.3993 32.6463 18.3993 34.5522 18.3993 36.4797C17.9901 36.4797 17.5809 36.4797 17.1502 36.4797C17.1502 34.563 17.1502 32.657 17.1502 30.7188C17.5486 30.7188 17.947 30.7188 18.3993 30.7188Z" fill="#014898"/>
<path d="M24.8494 36.4905C24.4186 36.4905 24.0202 36.4905 23.611 36.4905C23.611 34.563 23.611 32.6678 23.611 30.7296C24.0094 30.7296 24.4186 30.7296 24.8494 30.7296C24.8494 32.6247 24.8494 34.5415 24.8494 36.4905Z" fill="#014898"/>
<path d="M27.4875 30.708C27.9075 30.708 28.3059 30.708 28.7259 30.708C28.7259 32.6247 28.7259 34.5307 28.7259 36.4689C28.3275 36.4689 27.9183 36.4689 27.4875 36.4689C27.4875 34.5738 27.4875 32.657 27.4875 30.708Z" fill="#014898"/>
<path d="M23.3634 9.36567C23.3634 10.6794 22.3296 11.7239 21.0159 11.7239C19.7022 11.7347 18.6577 10.7009 18.6469 9.38721C18.6362 8.05197 19.6807 6.9967 21.0159 7.00746C22.3189 7.01823 23.3526 8.05197 23.3634 9.36567ZM21.0052 10.4317C21.6082 10.4209 22.0712 9.95792 22.0604 9.34414C22.0497 8.74113 21.5759 8.28887 20.9621 8.29963C20.3806 8.3104 19.9283 8.77343 19.9283 9.36567C19.9283 9.97946 20.4021 10.4425 21.0052 10.4317Z" fill="#014898"/>
<path d="M41.023 21.4152C40.7754 32.4094 31.7732 41.2177 20.6283 41.0238C9.59098 40.8193 0.761152 31.7633 0.976514 20.586C1.20264 9.5272 10.3017 0.740438 21.4466 0.977336C32.4086 1.21423 41.2276 10.3025 41.023 21.4152ZM37.1573 30.3957C41.2384 23.7734 40.8077 13.5114 33.3561 6.91055C26.0446 0.428163 14.8458 0.740439 7.82502 7.69662C0.922673 14.5236 1.08419 24.3764 4.84226 30.385C5.17607 28.5975 6.24211 27.6283 8.02961 27.4345C7.13586 25.7224 7.28661 24.2364 8.48187 23.1488C9.55868 22.1582 11.1739 22.0182 12.4015 22.815C13.1768 23.3103 13.6398 24.021 13.8336 24.9256C14.0167 25.8408 13.769 26.67 13.2737 27.4561C14.3505 27.5207 15.1796 27.9514 15.8365 28.759C16.4933 27.9191 17.3548 27.5207 18.3777 27.4453C17.4732 25.7332 17.6347 24.2364 18.8192 23.1488C19.8853 22.1689 21.479 22.0182 22.7065 22.7935C23.4926 23.2888 23.9771 24.0103 24.171 24.9256C24.354 25.8408 24.1064 26.6592 23.611 27.4561C24.6878 27.5207 25.517 27.9514 26.12 28.6944C26.5292 28.3821 26.8845 28.0375 27.3045 27.8329C27.7352 27.6176 28.2198 27.5314 28.6828 27.3915C27.8106 25.7655 27.9613 24.2687 29.1243 23.1811C30.1903 22.1797 31.8055 22.0182 33.0439 22.7935C33.8299 23.2888 34.3145 24.0103 34.4976 24.9256C34.6806 25.8408 34.433 26.6592 33.9484 27.4453C35.7682 27.6391 36.8235 28.619 37.1573 30.3957ZM35.2083 33.1308C35.8436 32.5171 35.8543 32.5063 35.8543 31.7633C35.8543 31.451 35.8543 31.1495 35.8543 30.8372C35.8436 29.5774 35.0467 28.759 33.7869 28.759C32.1609 28.759 30.5349 28.759 28.8982 28.759C27.606 28.759 26.8092 29.5666 26.8092 30.848C26.8092 32.5817 26.8092 34.3153 26.8092 36.0598C26.8092 36.1997 26.8092 36.3505 26.8092 36.4797C26.3461 36.4797 25.9369 36.4797 25.517 36.4797C25.517 34.5845 25.517 32.7109 25.517 30.8372C25.517 29.5558 24.7094 28.759 23.4172 28.759C21.802 28.759 20.1868 28.759 18.5716 28.759C17.2686 28.759 16.4718 29.5558 16.4718 30.8803C16.4718 32.6032 16.4718 34.3261 16.4718 36.049C16.4718 36.189 16.4718 36.3397 16.4718 36.4797C16.0195 36.4797 15.6103 36.4797 15.1796 36.4797C15.1796 36.3074 15.1796 36.1567 15.1796 36.0167C15.1796 34.2507 15.1904 32.4955 15.1796 30.7296C15.1689 29.6204 14.3505 28.7698 13.2521 28.759C11.5185 28.7482 9.78481 28.7482 8.04038 28.759C6.98511 28.7698 6.16673 29.6097 6.13443 30.6649C6.12366 31.0957 6.16673 31.5264 6.12366 31.9571C6.06982 32.4848 6.42517 32.754 6.79128 33.1416C6.79128 32.2694 6.79128 31.4941 6.79128 30.708C7.23277 30.708 7.64196 30.708 8.07268 30.708C8.07268 31.871 8.08345 33.0124 8.07268 34.1538C8.07268 34.4122 8.13729 34.5953 8.34188 34.7784C12.5953 38.5687 17.5486 40.1947 23.2126 39.5702C27.1968 39.1287 30.6641 37.4919 33.6361 34.7999C33.8407 34.6168 33.9376 34.4338 33.9269 34.143C33.9053 33.1201 33.9161 32.0971 33.9161 31.0741C33.9161 30.9449 33.9269 30.8157 33.9376 30.6865C34.3791 30.6865 34.7775 30.6865 35.2083 30.6865C35.2083 31.0957 35.2083 31.4833 35.2083 31.8602C35.2083 32.2802 35.2083 32.6678 35.2083 33.1308ZM12.5953 25.5286C12.5953 24.4733 11.7338 23.6011 10.6786 23.5903C9.60175 23.5795 8.72954 24.4518 8.71877 25.5286C8.71877 26.5838 9.58021 27.4561 10.6355 27.4668C11.7123 27.4668 12.5953 26.5946 12.5953 25.5286ZM20.9836 27.4561C22.0604 27.4561 22.9326 26.5838 22.9326 25.5178C22.9326 24.4625 22.0712 23.5903 21.0159 23.5903C19.9391 23.5795 19.0669 24.4518 19.0669 25.5286C19.0561 26.5838 19.9283 27.4561 20.9836 27.4561ZM31.321 27.4561C32.3978 27.4561 33.27 26.5838 33.27 25.5178C33.27 24.4625 32.4086 23.5903 31.3533 23.5903C30.2765 23.5795 29.4043 24.4518 29.4043 25.5286C29.3935 26.5838 30.2657 27.4561 31.321 27.4561Z" stroke="#014898" stroke-width="0.3"/>
<path d="M26.8953 8.15965C26.7122 8.35347 26.5507 8.5796 26.3354 8.71959C25.7431 9.09647 25.7216 9.67795 26.3246 10.0225C26.8092 10.3025 26.8953 10.5071 26.723 11.0455C26.443 11.9392 25.98 12.7145 25.3339 13.3822C24.9678 13.7591 24.7201 13.8452 24.3002 13.5437C23.8695 13.2314 23.5464 13.4252 23.2234 13.6514C23.1372 13.7052 23.0942 13.8667 23.0834 13.9852C23.0403 14.8251 22.9757 14.9112 22.1573 15.0835C21.2959 15.2558 20.4452 15.2343 19.5945 15.0297C19.0777 14.9112 18.9269 14.7174 18.9161 14.1898C18.9054 13.5329 18.3777 13.2099 17.7963 13.5114C17.1933 13.8237 17.0317 13.7914 16.5687 13.296C15.9549 12.6392 15.5134 11.8746 15.255 11.0132C15.1042 10.5179 15.1904 10.3025 15.6426 10.0441C16.0518 9.80717 16.2026 9.50566 16.0734 9.07494C16.0411 8.95649 15.8795 8.87034 15.7611 8.79497C15.1581 8.45039 15.0827 8.26733 15.2981 7.62125C15.578 6.78133 16.0303 6.03834 16.6441 5.40302C17.0317 5.0046 17.2579 4.91846 17.6994 5.23073C18.1516 5.55377 18.4531 5.32764 18.7762 5.10151C18.8623 5.0369 18.8946 4.85385 18.9054 4.72463C18.9269 3.9924 19.0238 3.87395 19.7345 3.71243C20.6283 3.50784 21.522 3.52937 22.4158 3.74473C22.9111 3.86318 23.0619 4.05701 23.0726 4.56311C23.0942 5.25227 23.611 5.56454 24.214 5.26303C24.7955 4.96153 24.9678 4.98306 25.4093 5.46763C26.0446 6.14602 26.4969 6.93209 26.7553 7.82584C26.7768 7.91198 26.7984 8.0089 26.8199 8.09504C26.8415 8.09504 26.8738 8.12734 26.8953 8.15965ZM16.601 7.76123C16.7302 7.83661 16.7948 7.86891 16.8702 7.91198C17.4409 8.23503 17.484 8.33194 17.3978 8.97802C17.3763 9.16108 17.3332 9.36567 17.3871 9.53796C17.5701 10.2271 17.344 10.6901 16.6872 10.9486C16.6656 10.9594 16.6656 10.9917 16.6333 11.067C16.8056 11.3578 16.9994 11.6808 17.1933 12.0039C17.2902 12.1761 17.3978 12.23 17.6132 12.1331C18.3993 11.81 19.7776 12.413 20.1114 13.1883C20.1329 13.2422 20.1652 13.2853 20.1652 13.3391C20.1329 13.899 20.5206 13.899 20.9082 13.8883C21.1128 13.8775 21.3174 13.9098 21.5113 13.8452C21.6297 13.8129 21.7697 13.6621 21.7912 13.5545C21.8774 13.0807 22.125 12.7469 22.545 12.5207C22.7065 12.4346 22.8788 12.3484 23.0403 12.2515C23.4818 11.9716 23.9341 11.9392 24.4294 12.1223C24.5155 12.1546 24.6986 12.1546 24.7309 12.1008C24.9786 11.7454 25.1939 11.3685 25.4308 10.9917C25.2801 10.9055 25.2155 10.8624 25.1401 10.8194C24.5694 10.4856 24.5263 10.3994 24.6125 9.75333C24.634 9.57027 24.6771 9.36567 24.6232 9.19339C24.4294 8.50423 24.6663 8.05197 25.3232 7.79353C25.3447 7.78277 25.3447 7.75046 25.377 7.67509C25.2047 7.38435 25.0109 7.0613 24.8171 6.73826C24.7201 6.56597 24.6125 6.51213 24.3971 6.59828C23.611 6.91055 22.2435 6.31831 21.8989 5.543C21.8774 5.48916 21.8451 5.44609 21.8451 5.39225C21.8774 4.83231 21.4897 4.83231 21.1021 4.84308C20.8867 4.85385 20.6713 4.84308 20.456 4.88615C20.3698 4.90769 20.2406 5.0046 20.2191 5.09074C20.0037 5.88758 19.1638 6.63058 18.3347 6.70596C18.1731 6.71673 17.9793 6.74903 17.8609 6.68442C17.344 6.37215 17.1502 6.73826 16.9564 7.09361C16.8271 7.30897 16.7302 7.52433 16.601 7.76123Z" stroke="#014898" stroke-width="0.3"/>
<path d="M19.0561 19.7246C19.0561 21.4798 17.6024 22.9335 15.8365 22.9335C14.049 22.9335 12.5953 21.4905 12.5953 19.7138C12.5953 17.9263 14.049 16.4726 15.8257 16.4834C17.624 16.4834 19.0561 17.9371 19.0561 19.7246ZM15.8365 17.7756C14.7812 17.7756 13.909 18.637 13.8982 19.6923C13.8874 20.7691 14.7597 21.6413 15.8365 21.6521C16.8917 21.6521 17.764 20.7906 17.7747 19.7353C17.7747 18.6585 16.9025 17.7756 15.8365 17.7756Z" stroke="#014898" stroke-width="0.3"/>
<path d="M29.3935 19.7353C29.3827 21.4905 27.929 22.9335 26.1631 22.9335C24.3756 22.9335 22.9326 21.4798 22.9326 19.6923C22.9326 17.9048 24.3971 16.4618 26.1846 16.4726C27.9721 16.4941 29.4043 17.9478 29.3935 19.7353ZM26.1738 21.6413C27.2291 21.6413 28.1013 20.7691 28.1013 19.7246C28.1013 18.6478 27.2291 17.7648 26.1631 17.7756C25.1078 17.7756 24.2356 18.637 24.2356 19.6923C24.2248 20.7691 25.097 21.6413 26.1738 21.6413Z" stroke="#014898" stroke-width="0.3"/>
<path d="M14.512 36.4905C14.092 36.4905 13.6936 36.4905 13.2737 36.4905C13.2737 34.5738 13.2737 32.6678 13.2737 30.7296C13.6721 30.7296 14.0813 30.7296 14.512 30.7296C14.512 32.6247 14.512 34.5415 14.512 36.4905Z" stroke="#014898" stroke-width="0.3"/>
<path d="M18.3993 30.7188C18.3993 32.6463 18.3993 34.5522 18.3993 36.4797C17.9901 36.4797 17.5809 36.4797 17.1502 36.4797C17.1502 34.563 17.1502 32.657 17.1502 30.7188C17.5486 30.7188 17.947 30.7188 18.3993 30.7188Z" stroke="#014898" stroke-width="0.3"/>
<path d="M24.8494 36.4905C24.4186 36.4905 24.0202 36.4905 23.611 36.4905C23.611 34.563 23.611 32.6678 23.611 30.7296C24.0094 30.7296 24.4186 30.7296 24.8494 30.7296C24.8494 32.6247 24.8494 34.5415 24.8494 36.4905Z" stroke="#014898" stroke-width="0.3"/>
<path d="M27.4875 30.708C27.9075 30.708 28.3059 30.708 28.7259 30.708C28.7259 32.6247 28.7259 34.5307 28.7259 36.4689C28.3275 36.4689 27.9183 36.4689 27.4875 36.4689C27.4875 34.5738 27.4875 32.657 27.4875 30.708Z" stroke="#014898" stroke-width="0.3"/>
<path d="M23.3634 9.36567C23.3634 10.6794 22.3296 11.7239 21.0159 11.7239C19.7022 11.7347 18.6577 10.7009 18.6469 9.38721C18.6362 8.05197 19.6807 6.9967 21.0159 7.00746C22.3189 7.01823 23.3526 8.05197 23.3634 9.36567ZM21.0052 10.4317C21.6082 10.4209 22.0712 9.95792 22.0604 9.34414C22.0497 8.74113 21.5759 8.28887 20.9621 8.29963C20.3806 8.3104 19.9283 8.77343 19.9283 9.36567C19.9283 9.97946 20.4021 10.4425 21.0052 10.4317Z" stroke="#014898" stroke-width="0.3"/>
</g>
<defs>
<clipPath id="clip0_2232_11076">
<rect width="42" height="42" fill="white"/>
</clipPath>
</defs>
</svg>
