<svg width="44" height="40" viewBox="0 0 44 40" fill="none" xmlns="http://www.w3.org/2000/svg">
<g clip-path="url(#clip0_5029_4850)">
<path d="M41.4644 15.1537C40.5584 14.0482 39.3278 13.2291 37.9586 12.8112C37.8044 9.68365 36.4841 6.76561 34.2083 4.54764C31.8092 2.20951 28.6272 0.921875 25.2484 0.921875C20.8114 0.921875 16.7058 3.1957 14.3968 6.89335C13.8354 6.71937 13.2518 6.63154 12.6549 6.63154C9.90881 6.63154 7.54733 8.53661 6.97789 11.1335C3.45118 12.0326 0.9375 15.1917 0.9375 18.8134C0.9375 23.1886 4.55922 26.7482 9.01104 26.7482C10.2594 26.7482 10.2259 25.4268 9.01104 25.4268C5.30067 25.4268 2.282 22.46 2.282 18.8134C2.282 15.6665 4.55824 12.9387 7.69433 12.3275C7.97712 12.2724 8.19278 12.0462 8.23016 11.7652C8.51958 9.59186 10.4218 7.953 12.6549 7.953C13.2693 7.953 13.865 8.07395 14.4257 8.31242C14.7435 8.44764 15.1136 8.32343 15.2811 8.02577C17.2874 4.45893 21.1067 2.24325 25.2484 2.24325C31.4675 2.24325 36.5727 7.21497 36.6288 13.3262C36.6315 13.6316 36.8469 13.8951 37.1495 13.9639C39.841 14.5761 41.7207 16.9019 41.7207 19.6197C41.7207 22.8217 39.0702 25.4268 35.8121 25.4268H35.4463C35.075 25.4268 34.7741 25.7225 34.7741 26.0875C34.7741 26.4524 35.075 26.7482 35.4463 26.7482H35.812C39.8114 26.7482 43.0652 23.5503 43.0652 19.6197C43.0652 17.9992 42.4966 16.4132 41.4644 15.1537Z" fill="#014898" stroke="#014898" stroke-width="0.4"/>
<g clip-path="url(#clip1_5029_4850)">
<path d="M11.625 25.0848C11.625 21.1944 11.625 17.304 11.625 13.4059C11.625 12.4042 12.1441 11.6976 13.0485 11.4879C13.253 11.4413 13.481 11.4335 13.6934 11.4335C18.53 11.4335 23.3667 11.4335 28.2034 11.4258C28.6674 11.4258 29.0213 11.5578 29.3516 11.8995C30.4212 12.9866 31.5065 14.0582 32.5997 15.1142C32.8906 15.3938 33.0086 15.6966 33.0086 16.0927C33.0008 19.983 33.0086 23.8734 33.0008 27.7715C33.0008 28.0355 33.0794 28.1675 33.3153 28.3073C35.6983 29.6352 36.9173 31.623 36.7521 34.3564C36.5791 37.1286 34.1883 39.5901 31.4043 39.9473C29.792 40.157 28.3292 39.8076 26.9687 38.9379C26.8192 38.8369 26.6069 38.7748 26.426 38.7748C22.1477 38.767 17.8773 38.767 13.599 38.767C12.5923 38.767 11.8609 38.2157 11.6643 37.3072C11.625 37.1053 11.625 36.8878 11.625 36.6782C11.625 32.8111 11.625 28.9518 11.625 25.0848ZM27.9753 12.7381C27.8338 12.7381 27.7394 12.7381 27.645 12.7381C22.9971 12.7381 18.3492 12.7381 13.7012 12.7381C13.0642 12.7381 12.8833 12.9167 12.8833 13.5534C12.8833 21.2876 12.8833 29.0217 12.8833 36.7558C12.8833 37.4081 13.0642 37.5867 13.7248 37.5867C17.5313 37.5867 21.3298 37.5867 25.1362 37.5867C25.2306 37.5867 25.3171 37.579 25.443 37.5712C23.9251 35.2494 23.7049 32.881 25.2149 30.5437C26.7249 28.2064 28.982 27.36 31.7503 27.7405C31.7503 23.9821 31.7503 20.2315 31.7503 16.4576C31.1526 16.4576 30.5785 16.4576 29.9965 16.4576C28.7618 16.4576 27.9911 15.6966 27.9911 14.4775C27.9753 13.9184 27.9753 13.3438 27.9753 12.7381ZM25.4587 34.007C25.6081 36.8568 27.9439 38.9767 30.783 38.8214C33.5277 38.6738 35.6511 36.3288 35.5253 33.5799C35.3994 30.9164 32.9929 28.7577 30.3111 28.8897C27.4799 29.0295 25.4036 31.3124 25.4587 34.007ZM30.7436 15.2152C30.2403 14.7182 29.7291 14.2213 29.2415 13.7476C29.2415 14.0116 29.2258 14.33 29.2494 14.6483C29.273 14.9822 29.446 15.1841 29.7763 15.2152C30.0987 15.2385 30.4448 15.2152 30.7436 15.2152Z" fill="#014898"/>
<path d="M22.2971 23.2988C20.4411 23.2988 18.5851 23.2988 16.7291 23.2988C16.2179 23.2988 15.9505 22.9959 16.037 22.5533C16.092 22.266 16.2729 22.1185 16.5561 22.0719C16.6268 22.0641 16.6897 22.0641 16.7605 22.0641C20.4647 22.0641 24.1689 22.0641 27.8652 22.0641C28.3607 22.0641 28.6281 22.3126 28.5966 22.7319C28.573 23.0813 28.3528 23.291 27.9753 23.2988C27.3698 23.3065 26.7563 23.3065 26.1508 23.3065C24.8767 23.2988 23.5869 23.2988 22.2971 23.2988Z" fill="#014898"/>
<path d="M21.0388 26.4126C19.6153 26.4126 18.1919 26.4126 16.7684 26.4126C16.2493 26.4126 15.9662 26.1253 16.037 25.6904C16.0842 25.4109 16.2336 25.2323 16.5246 25.1857C16.6426 25.1702 16.7605 25.1624 16.8785 25.1624C19.6704 25.1624 22.4623 25.1624 25.2463 25.1624C25.38 25.1624 25.5216 25.1702 25.6553 25.2012C25.9306 25.2634 26.0878 25.4885 26.0878 25.7836C26.0878 26.0787 25.9384 26.3039 25.6632 26.3738C25.5295 26.4048 25.3879 26.4126 25.2542 26.4126C23.8543 26.4126 22.4466 26.4126 21.0388 26.4126Z" fill="#014898"/>
<path d="M19.5131 18.958C20.449 18.958 21.377 18.9503 22.3129 18.958C22.8005 18.9658 23.0757 19.3851 22.8949 19.8277C22.769 20.1228 22.5174 20.1927 22.2185 20.1927C20.4804 20.1927 18.7424 20.1927 17.0043 20.1927C16.8785 20.1927 16.7527 20.2004 16.619 20.1927C16.2493 20.1694 16.0134 19.9287 16.0134 19.5715C16.0134 19.2143 16.2493 18.9658 16.619 18.9658C17.5942 18.9503 18.5536 18.958 19.5131 18.958Z" fill="#014898"/>
<path d="M30.3111 34.6592C30.5549 34.1778 30.7987 33.7119 31.0346 33.246C31.2863 32.749 31.5301 32.252 31.7818 31.7628C31.9469 31.4444 32.2929 31.3124 32.5997 31.4289C32.8985 31.5454 33.0637 31.9337 32.9614 32.2598C32.9378 32.3297 32.9064 32.4073 32.8671 32.4695C32.2929 33.6032 31.7188 34.7447 31.1447 35.8784C30.8695 36.4219 30.4055 36.4996 29.9651 36.0725C29.3909 35.5056 28.8168 34.931 28.2349 34.3642C28.0618 34.1933 27.9439 33.9992 27.9911 33.7429C28.0933 33.2537 28.6674 33.0907 29.0449 33.4401C29.3988 33.7662 29.7291 34.1079 30.0673 34.4418C30.1459 34.5117 30.2167 34.5738 30.3111 34.6592Z" fill="#014898"/>
<path d="M11.625 25.0848C11.625 21.1944 11.625 17.304 11.625 13.4059C11.625 12.4042 12.1441 11.6976 13.0485 11.4879C13.253 11.4413 13.481 11.4335 13.6934 11.4335C18.53 11.4335 23.3667 11.4335 28.2034 11.4258C28.6674 11.4258 29.0213 11.5578 29.3516 11.8995C30.4212 12.9866 31.5065 14.0582 32.5997 15.1142C32.8906 15.3938 33.0086 15.6966 33.0086 16.0927C33.0008 19.983 33.0086 23.8734 33.0008 27.7715C33.0008 28.0355 33.0794 28.1675 33.3153 28.3073C35.6983 29.6352 36.9173 31.623 36.7521 34.3564C36.5791 37.1286 34.1883 39.5901 31.4043 39.9473C29.792 40.157 28.3292 39.8076 26.9687 38.9379C26.8192 38.8369 26.6069 38.7748 26.426 38.7748C22.1477 38.767 17.8773 38.767 13.599 38.767C12.5923 38.767 11.8609 38.2157 11.6643 37.3072C11.625 37.1053 11.625 36.8878 11.625 36.6782C11.625 32.8111 11.625 28.9518 11.625 25.0848ZM27.9753 12.7381C27.8338 12.7381 27.7394 12.7381 27.645 12.7381C22.9971 12.7381 18.3492 12.7381 13.7012 12.7381C13.0642 12.7381 12.8833 12.9167 12.8833 13.5534C12.8833 21.2876 12.8833 29.0217 12.8833 36.7558C12.8833 37.4081 13.0642 37.5867 13.7248 37.5867C17.5313 37.5867 21.3298 37.5867 25.1362 37.5867C25.2306 37.5867 25.3171 37.579 25.443 37.5712C23.9251 35.2494 23.7049 32.881 25.2149 30.5437C26.7249 28.2064 28.982 27.36 31.7503 27.7405C31.7503 23.9821 31.7503 20.2315 31.7503 16.4576C31.1526 16.4576 30.5785 16.4576 29.9965 16.4576C28.7618 16.4576 27.9911 15.6966 27.9911 14.4775C27.9753 13.9184 27.9753 13.3438 27.9753 12.7381ZM25.4587 34.007C25.6081 36.8568 27.9439 38.9767 30.783 38.8214C33.5277 38.6738 35.6511 36.3288 35.5253 33.5799C35.3994 30.9164 32.9929 28.7577 30.3111 28.8897C27.4799 29.0295 25.4036 31.3124 25.4587 34.007ZM30.7436 15.2152C30.2403 14.7182 29.7291 14.2213 29.2415 13.7476C29.2415 14.0116 29.2258 14.33 29.2494 14.6483C29.273 14.9822 29.446 15.1841 29.7763 15.2152C30.0987 15.2385 30.4448 15.2152 30.7436 15.2152Z" stroke="#014898" stroke-width="0.4"/>
<path d="M22.2971 23.2988C20.4411 23.2988 18.5851 23.2988 16.7291 23.2988C16.2179 23.2988 15.9505 22.9959 16.037 22.5533C16.092 22.266 16.2729 22.1185 16.5561 22.0719C16.6268 22.0641 16.6897 22.0641 16.7605 22.0641C20.4647 22.0641 24.1689 22.0641 27.8652 22.0641C28.3607 22.0641 28.6281 22.3126 28.5966 22.7319C28.573 23.0813 28.3528 23.291 27.9753 23.2988C27.3698 23.3065 26.7563 23.3065 26.1508 23.3065C24.8767 23.2988 23.5869 23.2988 22.2971 23.2988Z" stroke="#014898" stroke-width="0.4"/>
<path d="M21.0388 26.4126C19.6153 26.4126 18.1919 26.4126 16.7684 26.4126C16.2493 26.4126 15.9662 26.1253 16.037 25.6904C16.0842 25.4109 16.2336 25.2323 16.5246 25.1857C16.6426 25.1702 16.7605 25.1624 16.8785 25.1624C19.6704 25.1624 22.4623 25.1624 25.2463 25.1624C25.38 25.1624 25.5216 25.1702 25.6553 25.2012C25.9306 25.2634 26.0878 25.4885 26.0878 25.7836C26.0878 26.0787 25.9384 26.3039 25.6632 26.3738C25.5295 26.4048 25.3879 26.4126 25.2542 26.4126C23.8543 26.4126 22.4466 26.4126 21.0388 26.4126Z" stroke="#014898" stroke-width="0.4"/>
<path d="M19.5131 18.958C20.449 18.958 21.377 18.9503 22.3129 18.958C22.8005 18.9658 23.0757 19.3851 22.8949 19.8277C22.769 20.1228 22.5174 20.1927 22.2185 20.1927C20.4804 20.1927 18.7424 20.1927 17.0043 20.1927C16.8785 20.1927 16.7527 20.2004 16.619 20.1927C16.2493 20.1694 16.0134 19.9287 16.0134 19.5715C16.0134 19.2143 16.2493 18.9658 16.619 18.9658C17.5942 18.9503 18.5536 18.958 19.5131 18.958Z" stroke="#014898" stroke-width="0.4"/>
<path d="M30.3111 34.6592C30.5549 34.1778 30.7987 33.7119 31.0346 33.246C31.2863 32.749 31.5301 32.252 31.7818 31.7628C31.9469 31.4444 32.2929 31.3124 32.5997 31.4289C32.8985 31.5454 33.0637 31.9337 32.9614 32.2598C32.9378 32.3297 32.9064 32.4073 32.8671 32.4695C32.2929 33.6032 31.7188 34.7447 31.1447 35.8784C30.8695 36.4219 30.4055 36.4996 29.9651 36.0725C29.3909 35.5056 28.8168 34.931 28.2349 34.3642C28.0618 34.1933 27.9439 33.9992 27.9911 33.7429C28.0933 33.2537 28.6674 33.0907 29.0449 33.4401C29.3988 33.7662 29.7291 34.1079 30.0673 34.4418C30.1459 34.5117 30.2167 34.5738 30.3111 34.6592Z" stroke="#014898" stroke-width="0.4"/>
</g>
</g>
<defs>
<clipPath id="clip0_5029_4850">
<rect width="44" height="40" fill="white"/>
</clipPath>
<clipPath id="clip1_5029_4850">
<rect width="26.4" height="29.1892" fill="white" transform="translate(11 10.8125)"/>
</clipPath>
</defs>
</svg>
