<svg width="31" height="40" viewBox="0 0 31 40" fill="none" xmlns="http://www.w3.org/2000/svg">
<g clip-path="url(#clip0_5029_4886)">
<path d="M8.59152 3.28571C8.59152 2.88095 8.57937 2.55952 8.59152 2.2381C8.62798 0.880952 9.52723 0 10.9004 0C13.7075 0 16.5147 0 19.334 0C20.6828 0 21.5821 0.857143 21.6307 2.19048C21.6429 2.53571 21.6307 2.86905 21.6307 3.27381C21.8373 3.27381 21.9953 3.27381 22.1532 3.27381C23.8181 3.27381 25.4951 3.27381 27.1599 3.27381C28.9584 3.28571 30.1979 4.47619 30.1979 6.2381C30.2101 16.4881 30.2101 26.7381 30.1979 36.9881C30.1979 38.7738 28.9463 39.9762 27.1234 39.9762C19.1031 39.9762 11.0827 39.9762 3.06232 39.9762C1.25166 40 0 38.7857 0 37C0 26.7619 0 16.5238 0 6.28571C0 4.46429 1.23951 3.28571 3.09878 3.28571C4.73931 3.28571 6.37984 3.28571 8.02037 3.28571C8.1905 3.28571 8.34848 3.28571 8.59152 3.28571ZM8.59152 4.7381C8.38493 4.72619 8.25126 4.71429 8.11759 4.71429C6.45275 4.71429 4.77577 4.71429 3.11093 4.71429C2.04155 4.71429 1.4704 5.26191 1.4704 6.30952C1.4704 16.5238 1.4704 26.75 1.4704 36.9643C1.4704 38 2.06585 38.5714 3.09878 38.5714C11.107 38.5714 19.1031 38.5714 27.1113 38.5714C28.1685 38.5714 28.764 38.0119 28.764 36.9881C28.764 26.75 28.764 16.5238 28.764 6.28571C28.764 5.28571 28.1685 4.72619 27.1477 4.71429C25.4829 4.71429 23.8059 4.71429 22.1411 4.71429C21.9953 4.71429 21.8494 4.72619 21.6429 4.7381C21.6429 5.09524 21.655 5.41667 21.6429 5.7381C21.6064 7.10714 20.7314 7.96429 19.3461 7.97619C16.539 7.9881 13.7319 7.9881 10.9126 7.97619C9.50293 7.97619 8.62798 7.10714 8.59152 5.71429C8.57937 5.40476 8.59152 5.08333 8.59152 4.7381ZM15.105 6.54762C16.4904 6.54762 17.8636 6.54762 19.2489 6.54762C19.9173 6.54762 20.1603 6.30952 20.1725 5.66667C20.1846 4.54762 20.1846 3.44048 20.1725 2.32143C20.1725 1.67857 19.9051 1.44048 19.2489 1.44048C16.4904 1.44048 13.7197 1.44048 10.9612 1.44048C10.305 1.44048 10.0498 1.67857 10.0498 2.32143C10.0376 3.44048 10.0376 4.54762 10.0498 5.66667C10.0498 6.30952 10.305 6.54762 10.9733 6.54762C12.3465 6.54762 13.7319 6.54762 15.105 6.54762Z" fill="#014898"/>
<path d="M10.868 13.1295C11.1354 12.9628 11.3784 12.7961 11.6336 12.6295C12.144 12.2961 12.5693 12.3318 12.8245 12.7247C13.0676 13.0938 12.9339 13.4866 12.46 13.808C11.9982 14.1176 11.5121 14.4033 11.0625 14.7366C10.9409 14.8199 10.8437 15.0104 10.8316 15.1652C10.7951 15.5937 10.8316 16.0223 10.8194 16.4628C10.7951 17.7009 9.89586 18.6057 8.6442 18.6414C7.44114 18.6652 6.23809 18.6652 5.04718 18.6414C3.79552 18.6176 2.90842 17.7128 2.88411 16.4985C2.87196 15.3438 2.87196 14.1771 2.88411 13.0223C2.89627 11.8318 3.72261 10.939 4.93782 10.8795C6.20163 10.8318 7.46545 10.8318 8.71711 10.8795C9.96878 10.9152 10.6493 11.6652 10.868 13.1295ZM7.96368 15.0223C8.18242 14.8795 8.35255 14.7366 8.54698 14.6533C9.26396 14.3557 9.48269 13.8318 9.37332 13.0937C9.30041 12.5461 9.09383 12.2723 8.52268 12.2723C7.41684 12.2604 6.311 12.2604 5.19301 12.2723C4.58541 12.2842 4.34236 12.5342 4.34236 13.1295C4.34236 14.189 4.34236 15.2366 4.34236 16.2961C4.34236 16.9628 4.58541 17.2009 5.27807 17.2128C6.26239 17.2128 7.24671 17.2128 8.24318 17.2128C9.23965 17.2128 9.49484 16.9033 9.31256 15.8795C8.93585 16.1295 8.57129 16.3676 8.20672 16.5937C7.68418 16.9152 7.29532 16.8199 7.00367 16.2842C6.60265 15.5699 6.21378 14.8437 5.83707 14.1176C5.59403 13.6533 5.69124 13.2485 6.08011 13.0342C6.46898 12.8318 6.85784 12.9747 7.12519 13.439C7.39253 13.9628 7.67203 14.4747 7.96368 15.0223Z" fill="#014898"/>
<path d="M15.5762 23.1308C12.0035 23.1308 8.4429 23.1308 4.87019 23.1308C4.72436 23.1308 4.56639 23.1427 4.42056 23.1189C4.03169 23.0355 3.8008 22.7974 3.81296 22.3927C3.82511 22.0117 4.056 21.7974 4.42056 21.7141C4.54208 21.6903 4.6636 21.7022 4.78512 21.7022C11.967 21.7022 19.1489 21.7022 26.3308 21.7022C26.4523 21.7022 26.5738 21.6903 26.6953 21.7141C27.0842 21.7855 27.3151 22.0236 27.3151 22.4165C27.3151 22.8212 27.072 23.0474 26.6832 23.1189C26.5373 23.1427 26.3794 23.1308 26.2335 23.1308C22.6851 23.1308 19.1246 23.1308 15.5762 23.1308Z" fill="#014898"/>
<path d="M15.5636 30.2725C19.1363 30.2725 22.6968 30.2725 26.2695 30.2725C26.4032 30.2725 26.549 30.2606 26.6827 30.2844C27.0716 30.3439 27.3146 30.5701 27.3268 30.9749C27.3389 31.3558 27.0716 31.6535 26.6706 31.7011C26.549 31.713 26.4275 31.713 26.306 31.713C19.1484 31.713 12.003 31.713 4.84543 31.713C4.6996 31.713 4.54162 31.7249 4.3958 31.6892C4.03124 31.6058 3.8125 31.3677 3.8125 30.9868C3.8125 30.6058 4.04339 30.3797 4.40795 30.2963C4.55378 30.2606 4.71175 30.2844 4.85758 30.2844C8.41814 30.2725 11.9908 30.2725 15.5636 30.2725Z" fill="#014898"/>
<path d="M11.8086 25.7123C14.1782 25.7123 16.5479 25.7123 18.9175 25.7123C19.2699 25.7123 19.5859 25.7718 19.756 26.1171C19.9626 26.5338 19.7196 27.0099 19.2456 27.1171C19.0998 27.1528 18.9418 27.1409 18.796 27.1409C14.1539 27.1409 9.49967 27.1409 4.85758 27.1409C4.74821 27.1409 4.63884 27.1409 4.54163 27.1409C4.10415 27.1052 3.8125 26.8195 3.8125 26.4266C3.8125 26.0218 4.1163 25.7242 4.57808 25.7123C5.42873 25.7004 6.27937 25.7123 7.13002 25.7123C8.68548 25.7123 10.2531 25.7123 11.8086 25.7123Z" fill="#014898"/>
<path d="M11.8242 34.2853C14.1331 34.2853 16.442 34.2853 18.7509 34.2853C18.8846 34.2853 19.0304 34.2734 19.164 34.2853C19.5651 34.3211 19.8567 34.6187 19.8446 34.9877C19.8324 35.3806 19.6015 35.6187 19.2127 35.6901C19.0668 35.7139 18.9089 35.702 18.763 35.702C14.1452 35.702 9.52745 35.702 4.90966 35.702C4.88536 35.702 4.8489 35.702 4.8246 35.702C4.16838 35.702 3.82812 35.452 3.82812 34.9877C3.82812 34.5234 4.15623 34.2734 4.8246 34.2734C7.14564 34.2853 9.47884 34.2853 11.8242 34.2853Z" fill="#014898"/>
<path d="M20.6724 12.0352C22.6045 12.0352 24.5246 12.0352 26.4567 12.0352C26.8456 12.0352 27.1494 12.1423 27.2952 12.5113C27.4411 12.8923 27.2102 13.309 26.797 13.4161C26.6269 13.4637 26.4324 13.4637 26.2623 13.4637C22.5316 13.4637 18.7888 13.4637 15.0581 13.4637C14.973 13.4637 14.8758 13.4637 14.7908 13.4637C14.2925 13.428 13.9766 13.1423 13.9766 12.7256C13.9887 12.309 14.2925 12.0352 14.8151 12.0352C16.7472 12.0352 18.7159 12.0352 20.6724 12.0352Z" fill="#014898"/>
<path d="M18.6521 16.0344C19.9281 16.0344 21.2041 16.0225 22.48 16.0344C22.9661 16.0344 23.2699 16.3201 23.2821 16.713C23.2942 17.1296 22.9783 17.4154 22.4922 17.4511C22.3828 17.463 22.2856 17.4511 22.1762 17.4511C21.3134 17.4511 20.4506 17.4511 19.5757 17.4511C18.0688 17.4511 16.5741 17.4511 15.0673 17.4511C14.8971 17.4511 14.727 17.4511 14.569 17.4273C14.168 17.3677 13.9493 17.1058 13.9614 16.713C13.9736 16.332 14.2045 16.0582 14.6176 16.0344C15.1523 16.0106 15.6749 16.0225 16.2096 16.0225C17.0116 16.0344 17.8379 16.0344 18.6521 16.0344Z" fill="#014898"/>
</g>
<defs>
<clipPath id="clip0_5029_4886">
<rect width="30.2222" height="40" fill="white"/>
</clipPath>
</defs>
</svg>
