<svg width="39" height="44" viewBox="0 0 39 44" fill="none" xmlns="http://www.w3.org/2000/svg">
<g clip-path="url(#clip0_5352_4466)">
<path d="M15.035 44.0003C14.4956 43.7597 14.3608 43.3359 14.4507 42.7746C14.6417 41.5374 14.8102 40.2888 15.0012 39.0401C15.0462 38.7767 15.0012 38.5934 14.8102 38.3986C13.9226 37.5051 13.0574 36.5772 12.181 35.6723C11.9001 35.3744 11.6979 35.0651 11.8327 34.6413C11.9675 34.2174 12.3046 34.0914 12.7091 34.0227C13.9563 33.8165 15.2035 33.5988 16.4394 33.3697C16.608 33.3354 16.8102 33.175 16.9001 33.0261C17.5069 31.892 18.0911 30.7579 18.6642 29.6124C18.8552 29.2458 19.0799 28.9709 19.5293 28.9709C19.9451 28.9823 20.1698 29.2573 20.3496 29.6009C20.9338 30.7465 21.5069 31.8805 22.1136 33.0146C22.1923 33.175 22.3945 33.3239 22.563 33.3583C23.8215 33.5988 25.0687 33.8165 26.3383 34.0227C26.7203 34.0914 27.0462 34.2289 27.1698 34.6413C27.2934 35.0422 27.1361 35.3515 26.8552 35.6379C25.9563 36.5658 25.0574 37.4937 24.181 38.433C24.0687 38.559 23.9788 38.7881 24.0012 38.9485C24.1585 40.1971 24.3608 41.4343 24.5406 42.6829C24.6529 43.4275 24.5518 43.6452 23.9675 44.0003C23.799 44.0003 23.6305 44.0003 23.4619 44.0003C22.4844 43.4848 21.4732 43.0266 20.5406 42.4538C19.8102 42.0071 19.2035 42.0071 18.4732 42.4538C17.5293 43.0266 16.5181 43.4848 15.5406 44.0003C15.372 44.0003 15.2035 44.0003 15.035 44.0003ZM14.372 35.489C15.0911 36.2336 15.7316 36.9209 16.3945 37.5968C16.6979 37.9061 16.8215 38.2268 16.7541 38.6736C16.5968 39.6244 16.4732 40.5866 16.3383 41.629C17.0574 41.2739 17.7428 40.999 18.3496 40.6095C19.1585 40.0826 19.8776 40.094 20.6866 40.6095C21.2934 40.999 21.9675 41.2739 22.6866 41.629C22.5743 40.8157 22.5406 40.0597 22.3496 39.3494C22.1024 38.4101 22.3496 37.7342 23.0687 37.1271C23.6192 36.6574 24.0911 36.0846 24.5967 35.5462C24.5293 35.5004 24.5181 35.4775 24.4844 35.4661C23.5855 35.3057 22.6866 35.1339 21.7878 34.9964C21.3383 34.9277 21.0462 34.71 20.8552 34.3091C20.4844 33.5416 20.0799 32.7855 19.6866 32.0295C19.6417 31.9378 19.5743 31.8576 19.4956 31.7316C19.1923 32.3273 18.9114 32.8657 18.6305 33.4156C17.7203 35.1453 18.1361 34.8246 16.226 35.1797C15.6192 35.2599 15.035 35.3744 14.372 35.489Z" fill="#014898"/>
<path d="M11.2147 22.2008C11.7653 19.8295 13.0125 18.0081 14.9788 16.6678C13.8552 15.1786 13.4394 13.5176 13.8102 11.6962C14.1024 10.2643 14.8327 9.1073 15.9675 8.21378C18.2147 6.44966 21.3945 6.61003 23.4732 8.5689C25.5181 10.5049 26.1024 13.8956 24.0462 16.6678C25.99 17.9967 27.2484 19.8181 27.8102 22.2351C28.1698 21.8113 28.5181 21.4562 28.799 21.0667C31.6192 17.149 32.0462 12.9563 30.1136 8.52308C30.0574 8.40852 30.0012 8.29397 29.9451 8.17941C29.7541 7.70975 29.9001 7.25153 30.3046 7.03388C30.7203 6.81623 31.2147 6.96515 31.4507 7.42336C32.0687 8.62617 32.5069 9.88626 32.7316 11.2151C33.99 18.6725 29.4956 25.5686 22.2372 27.1266C14.5406 28.7761 7.48439 23.4494 6.25967 16.0722C5.09113 9.03857 9.24843 2.3601 15.9675 0.492875C19.2934 -0.423553 22.4956 -0.0455266 25.5855 1.48949C25.9788 1.68423 26.2147 1.98207 26.1473 2.44028C26.0911 2.84122 25.8439 3.10469 25.4619 3.15052C25.2484 3.17343 24.99 3.10469 24.7878 3.0016C22.9788 2.08517 21.0687 1.67278 19.0462 1.7186C13.7316 1.84461 8.87765 6.04872 7.94506 11.3869C7.24843 15.4307 8.2372 18.9818 10.99 22.006C11.0574 22.0518 11.1136 22.0977 11.2147 22.2008ZM19.5069 25.7061C21.8327 25.6717 23.99 25.0417 25.9563 23.7472C26.2147 23.5754 26.2709 23.3921 26.2372 23.1172C25.9114 20.9407 24.8552 19.2567 23.035 18.0654C22.8215 17.9279 22.6642 17.9165 22.4282 18.0539C20.4844 19.1536 18.5181 19.1536 16.5743 18.0425C16.3496 17.9165 16.2035 17.9279 16.0125 18.0539C14.1698 19.2453 13.1024 20.9407 12.7765 23.1286C12.7316 23.415 12.8215 23.5983 13.0687 23.7587C15.035 25.0417 17.181 25.6717 19.5069 25.7061ZM19.4956 17.126C21.7765 17.1375 23.6305 15.2703 23.6417 12.9448C23.6529 10.6079 21.8102 8.69491 19.5181 8.69491C17.2484 8.68345 15.3833 10.5736 15.372 12.8761C15.3608 15.2359 17.1923 17.1146 19.4956 17.126Z" fill="#014898"/>
<path d="M1.88888 34.3663C2.01248 33.5187 2.12484 32.6366 2.27091 31.766C2.32709 31.4452 2.25967 31.239 2.03495 31.0099C1.45068 30.4372 0.90012 29.8186 0.327086 29.2343C0.0574234 28.9594 -0.0774081 28.6501 0.0461874 28.2606C0.169783 27.8712 0.461918 27.7222 0.84394 27.6535C1.68664 27.516 2.52933 27.3786 3.37203 27.2068C3.52933 27.1724 3.72034 27.0235 3.799 26.8745C4.21473 26.1299 4.59675 25.3624 4.97877 24.5949C5.15855 24.2284 5.41697 23.9878 5.82147 23.9993C6.21473 24.0107 6.45068 24.2513 6.61922 24.5949C7.00124 25.3624 7.38327 26.1185 7.799 26.8631C7.88888 27.0235 8.09113 27.1724 8.27091 27.2068C9.1136 27.3786 9.9563 27.516 10.799 27.6535C11.1585 27.7108 11.4394 27.8826 11.5518 28.2492C11.6754 28.6158 11.5518 28.9251 11.3046 29.1885C10.7316 29.7842 10.181 30.3799 9.58551 30.9641C9.33832 31.2047 9.25967 31.4567 9.31585 31.8003C9.45068 32.6022 9.55181 33.4156 9.6754 34.2174C9.73158 34.584 9.66417 34.9047 9.37203 35.1339C9.05742 35.3859 8.72035 35.3515 8.38327 35.1797C7.63046 34.8017 6.87765 34.4236 6.12484 34.0341C5.88888 33.9081 5.69787 33.9196 5.46192 34.0341C4.68664 34.4351 3.91136 34.836 3.12484 35.214C2.48439 35.5348 1.86641 35.1109 1.88888 34.3663ZM5.799 26.7371C5.55181 27.2182 5.30461 27.6421 5.1136 28.0774C4.90012 28.5814 4.54057 28.822 4.01248 28.8792C3.56304 28.9365 3.1136 29.0282 2.66417 29.1083C2.63046 29.1656 2.58551 29.2229 2.55181 29.2802C2.94506 29.6238 3.33832 29.9675 3.73158 30.3112C4.04619 30.5861 4.13608 30.9297 4.05742 31.3536C3.9563 31.8576 3.91136 32.3731 3.8327 32.9688C4.29338 32.7397 4.69787 32.5793 5.04619 32.3617C5.58551 32.0065 6.0799 32.0409 6.61922 32.3731C6.97877 32.5908 7.37203 32.7511 7.81023 32.9688C7.73158 32.396 7.6754 31.9264 7.58551 31.4681C7.49563 30.9756 7.58551 30.5746 7.96754 30.231C8.32709 29.8988 8.64169 29.5322 9.03495 29.1198C8.45068 29.0167 7.94506 28.9136 7.42821 28.8449C7.01248 28.7876 6.74282 28.5699 6.56304 28.1919C6.31585 27.7222 6.06866 27.264 5.799 26.7371Z" fill="#014898"/>
<path d="M36.1585 35.3286C36.0911 35.3057 35.9114 35.2484 35.7541 35.1682C35.0237 34.8017 34.2934 34.4465 33.5743 34.057C33.3271 33.9196 33.1248 33.931 32.8664 34.0685C32.1361 34.458 31.3833 34.8131 30.6417 35.1911C30.3046 35.363 29.9675 35.4088 29.6529 35.1568C29.3383 34.9162 29.2709 34.584 29.3383 34.206C29.4732 33.4041 29.563 32.5908 29.6979 31.7889C29.754 31.4681 29.6979 31.2276 29.4507 30.987C28.8664 30.4257 28.3271 29.8186 27.7653 29.2458C27.4956 28.9709 27.3496 28.6616 27.4619 28.2836C27.5855 27.8826 27.8889 27.7222 28.2821 27.6535C29.1136 27.5275 29.9451 27.39 30.7653 27.2182C30.9338 27.1838 31.1361 27.0235 31.2147 26.8631C31.6305 26.1185 32.0125 25.351 32.3945 24.5949C32.563 24.2513 32.8102 24.0107 33.2035 24.0107C33.5967 24.0107 33.8439 24.2398 34.0125 24.5949C34.3945 25.3624 34.7765 26.1185 35.1923 26.8631C35.2821 27.0349 35.5069 27.1838 35.6866 27.2182C36.5293 27.39 37.372 27.516 38.2147 27.665C38.563 27.7222 38.8215 27.8941 38.9338 28.2377C39.0462 28.5928 38.9675 28.9136 38.6979 29.1771C38.0911 29.8071 37.4732 30.4372 36.8776 31.0901C36.7541 31.2276 36.6754 31.4681 36.6979 31.6514C36.799 32.4991 36.9451 33.3468 37.0687 34.1945C37.1923 34.8704 36.8327 35.34 36.1585 35.3286ZM30.0799 29.1083C30.0574 29.1542 30.0462 29.2 30.0237 29.2458C30.3833 29.5895 30.7316 29.9331 31.1024 30.2653C31.4507 30.5861 31.5406 30.9756 31.4619 31.4338C31.372 31.9264 31.3158 32.4189 31.2372 32.9917C31.7653 32.7282 32.2372 32.4991 32.6866 32.2586C33.0574 32.0524 33.3945 32.0524 33.7653 32.2471C34.2147 32.4877 34.6866 32.7168 35.2147 32.9802C35.1361 32.4075 35.1024 31.9149 35.0012 31.4338C34.8889 30.9412 35.0462 30.5746 35.3833 30.2424C35.7316 29.8988 36.0574 29.5436 36.4507 29.1198C35.8889 29.0282 35.4282 28.9251 34.9563 28.8678C34.4619 28.8105 34.1361 28.5699 33.9338 28.1003C33.7316 27.6535 33.4844 27.2182 33.2372 26.7256C32.99 27.2182 32.7316 27.6306 32.5518 28.0659C32.3383 28.5699 31.9788 28.799 31.4619 28.8678C30.9788 28.9251 30.5293 29.0282 30.0799 29.1083Z" fill="#014898"/>
<path d="M27.5855 4.63971C27.5855 4.17004 27.9338 3.80347 28.3945 3.79202C28.8664 3.78056 29.2597 4.17004 29.2597 4.63971C29.2597 5.10938 28.8552 5.51032 28.3945 5.49886C27.9451 5.48741 27.5855 5.09793 27.5855 4.63971Z" fill="#014898"/>
<path d="M15.035 44.0003C14.4956 43.7597 14.3608 43.3359 14.4507 42.7746C14.6417 41.5374 14.8102 40.2888 15.0012 39.0401C15.0462 38.7767 15.0012 38.5934 14.8102 38.3986C13.9226 37.5051 13.0574 36.5772 12.181 35.6723C11.9001 35.3744 11.6979 35.0651 11.8327 34.6413C11.9675 34.2174 12.3046 34.0914 12.7091 34.0227C13.9563 33.8165 15.2035 33.5988 16.4394 33.3697C16.608 33.3354 16.8102 33.175 16.9001 33.0261C17.5069 31.892 18.0911 30.7579 18.6642 29.6124C18.8552 29.2458 19.0799 28.9709 19.5293 28.9709C19.9451 28.9823 20.1698 29.2573 20.3496 29.6009C20.9338 30.7465 21.5069 31.8805 22.1136 33.0146C22.1923 33.175 22.3945 33.3239 22.563 33.3583C23.8215 33.5988 25.0687 33.8165 26.3383 34.0227C26.7203 34.0914 27.0462 34.2289 27.1698 34.6413C27.2934 35.0422 27.1361 35.3515 26.8552 35.6379C25.9563 36.5658 25.0574 37.4937 24.181 38.433C24.0687 38.559 23.9788 38.7881 24.0012 38.9485C24.1585 40.1971 24.3608 41.4343 24.5406 42.6829C24.6529 43.4275 24.5518 43.6452 23.9675 44.0003C23.799 44.0003 23.6305 44.0003 23.4619 44.0003C22.4844 43.4848 21.4732 43.0266 20.5406 42.4538C19.8102 42.0071 19.2035 42.0071 18.4732 42.4538C17.5293 43.0266 16.5181 43.4848 15.5406 44.0003C15.372 44.0003 15.2035 44.0003 15.035 44.0003ZM14.372 35.489C15.0911 36.2336 15.7316 36.9209 16.3945 37.5968C16.6979 37.9061 16.8215 38.2268 16.7541 38.6736C16.5968 39.6244 16.4732 40.5866 16.3383 41.629C17.0574 41.2739 17.7428 40.999 18.3496 40.6095C19.1585 40.0826 19.8776 40.094 20.6866 40.6095C21.2934 40.999 21.9675 41.2739 22.6866 41.629C22.5743 40.8157 22.5406 40.0597 22.3496 39.3494C22.1024 38.4101 22.3496 37.7342 23.0687 37.1271C23.6192 36.6574 24.0911 36.0846 24.5967 35.5462C24.5293 35.5004 24.5181 35.4775 24.4844 35.4661C23.5855 35.3057 22.6866 35.1339 21.7878 34.9964C21.3383 34.9277 21.0462 34.71 20.8552 34.3091C20.4844 33.5416 20.0799 32.7855 19.6866 32.0295C19.6417 31.9378 19.5743 31.8576 19.4956 31.7316C19.1923 32.3273 18.9114 32.8657 18.6305 33.4156C17.7203 35.1453 18.1361 34.8246 16.226 35.1797C15.6192 35.2599 15.035 35.3744 14.372 35.489Z" stroke="white" stroke-width="0.3"/>
<path d="M11.2147 22.2008C11.7653 19.8295 13.0125 18.0081 14.9788 16.6678C13.8552 15.1786 13.4394 13.5176 13.8102 11.6962C14.1024 10.2643 14.8327 9.1073 15.9675 8.21378C18.2147 6.44966 21.3945 6.61003 23.4732 8.5689C25.5181 10.5049 26.1024 13.8956 24.0462 16.6678C25.99 17.9967 27.2484 19.8181 27.8102 22.2351C28.1698 21.8113 28.5181 21.4562 28.799 21.0667C31.6192 17.149 32.0462 12.9563 30.1136 8.52308C30.0574 8.40852 30.0012 8.29397 29.9451 8.17941C29.7541 7.70975 29.9001 7.25153 30.3046 7.03388C30.7203 6.81623 31.2147 6.96515 31.4507 7.42336C32.0687 8.62617 32.5069 9.88626 32.7316 11.2151C33.99 18.6725 29.4956 25.5686 22.2372 27.1266C14.5406 28.7761 7.48439 23.4494 6.25967 16.0722C5.09113 9.03857 9.24843 2.3601 15.9675 0.492875C19.2934 -0.423553 22.4956 -0.0455266 25.5855 1.48949C25.9788 1.68423 26.2147 1.98207 26.1473 2.44028C26.0911 2.84122 25.8439 3.10469 25.4619 3.15052C25.2484 3.17343 24.99 3.10469 24.7878 3.0016C22.9788 2.08517 21.0687 1.67278 19.0462 1.7186C13.7316 1.84461 8.87765 6.04872 7.94506 11.3869C7.24843 15.4307 8.2372 18.9818 10.99 22.006C11.0574 22.0518 11.1136 22.0977 11.2147 22.2008ZM19.5069 25.7061C21.8327 25.6717 23.99 25.0417 25.9563 23.7472C26.2147 23.5754 26.2709 23.3921 26.2372 23.1172C25.9114 20.9407 24.8552 19.2567 23.035 18.0654C22.8215 17.9279 22.6642 17.9165 22.4282 18.0539C20.4844 19.1536 18.5181 19.1536 16.5743 18.0425C16.3496 17.9165 16.2035 17.9279 16.0125 18.0539C14.1698 19.2453 13.1024 20.9407 12.7765 23.1286C12.7316 23.415 12.8215 23.5983 13.0687 23.7587C15.035 25.0417 17.181 25.6717 19.5069 25.7061ZM19.4956 17.126C21.7765 17.1375 23.6305 15.2703 23.6417 12.9448C23.6529 10.6079 21.8102 8.69491 19.5181 8.69491C17.2484 8.68345 15.3833 10.5736 15.372 12.8761C15.3608 15.2359 17.1923 17.1146 19.4956 17.126Z" stroke="white" stroke-width="0.3"/>
<path d="M1.88888 34.3663C2.01248 33.5187 2.12484 32.6366 2.27091 31.766C2.32709 31.4452 2.25967 31.239 2.03495 31.0099C1.45068 30.4372 0.90012 29.8186 0.327086 29.2343C0.0574234 28.9594 -0.0774081 28.6501 0.0461874 28.2606C0.169783 27.8712 0.461918 27.7222 0.84394 27.6535C1.68664 27.516 2.52933 27.3786 3.37203 27.2068C3.52933 27.1724 3.72034 27.0235 3.799 26.8745C4.21473 26.1299 4.59675 25.3624 4.97877 24.5949C5.15855 24.2284 5.41697 23.9878 5.82147 23.9993C6.21473 24.0107 6.45068 24.2513 6.61922 24.5949C7.00124 25.3624 7.38327 26.1185 7.799 26.8631C7.88888 27.0235 8.09113 27.1724 8.27091 27.2068C9.1136 27.3786 9.9563 27.516 10.799 27.6535C11.1585 27.7108 11.4394 27.8826 11.5518 28.2492C11.6754 28.6158 11.5518 28.9251 11.3046 29.1885C10.7316 29.7842 10.181 30.3799 9.58551 30.9641C9.33832 31.2047 9.25967 31.4567 9.31585 31.8003C9.45068 32.6022 9.55181 33.4156 9.6754 34.2174C9.73158 34.584 9.66417 34.9047 9.37203 35.1339C9.05742 35.3859 8.72035 35.3515 8.38327 35.1797C7.63046 34.8017 6.87765 34.4236 6.12484 34.0341C5.88888 33.9081 5.69787 33.9196 5.46192 34.0341C4.68664 34.4351 3.91136 34.836 3.12484 35.214C2.48439 35.5348 1.86641 35.1109 1.88888 34.3663ZM5.799 26.7371C5.55181 27.2182 5.30461 27.6421 5.1136 28.0774C4.90012 28.5814 4.54057 28.822 4.01248 28.8792C3.56304 28.9365 3.1136 29.0282 2.66417 29.1083C2.63046 29.1656 2.58551 29.2229 2.55181 29.2802C2.94506 29.6238 3.33832 29.9675 3.73158 30.3112C4.04619 30.5861 4.13608 30.9297 4.05742 31.3536C3.9563 31.8576 3.91136 32.3731 3.8327 32.9688C4.29338 32.7397 4.69787 32.5793 5.04619 32.3617C5.58551 32.0065 6.0799 32.0409 6.61922 32.3731C6.97877 32.5908 7.37203 32.7511 7.81023 32.9688C7.73158 32.396 7.6754 31.9264 7.58551 31.4681C7.49563 30.9756 7.58551 30.5746 7.96754 30.231C8.32709 29.8988 8.64169 29.5322 9.03495 29.1198C8.45068 29.0167 7.94506 28.9136 7.42821 28.8449C7.01248 28.7876 6.74282 28.5699 6.56304 28.1919C6.31585 27.7222 6.06866 27.264 5.799 26.7371Z" stroke="white" stroke-width="0.3"/>
<path d="M36.1585 35.3286C36.0911 35.3057 35.9114 35.2484 35.7541 35.1682C35.0237 34.8017 34.2934 34.4465 33.5743 34.057C33.3271 33.9196 33.1248 33.931 32.8664 34.0685C32.1361 34.458 31.3833 34.8131 30.6417 35.1911C30.3046 35.363 29.9675 35.4088 29.6529 35.1568C29.3383 34.9162 29.2709 34.584 29.3383 34.206C29.4732 33.4041 29.563 32.5908 29.6979 31.7889C29.754 31.4681 29.6979 31.2276 29.4507 30.987C28.8664 30.4257 28.3271 29.8186 27.7653 29.2458C27.4956 28.9709 27.3496 28.6616 27.4619 28.2836C27.5855 27.8826 27.8889 27.7222 28.2821 27.6535C29.1136 27.5275 29.9451 27.39 30.7653 27.2182C30.9338 27.1838 31.1361 27.0235 31.2147 26.8631C31.6305 26.1185 32.0125 25.351 32.3945 24.5949C32.563 24.2513 32.8102 24.0107 33.2035 24.0107C33.5967 24.0107 33.8439 24.2398 34.0125 24.5949C34.3945 25.3624 34.7765 26.1185 35.1923 26.8631C35.2821 27.0349 35.5069 27.1838 35.6866 27.2182C36.5293 27.39 37.372 27.516 38.2147 27.665C38.563 27.7222 38.8215 27.8941 38.9338 28.2377C39.0462 28.5928 38.9675 28.9136 38.6979 29.1771C38.0911 29.8071 37.4732 30.4372 36.8776 31.0901C36.7541 31.2276 36.6754 31.4681 36.6979 31.6514C36.799 32.4991 36.9451 33.3468 37.0687 34.1945C37.1923 34.8704 36.8327 35.34 36.1585 35.3286ZM30.0799 29.1083C30.0574 29.1542 30.0462 29.2 30.0237 29.2458C30.3833 29.5895 30.7316 29.9331 31.1024 30.2653C31.4507 30.5861 31.5406 30.9756 31.4619 31.4338C31.372 31.9264 31.3158 32.4189 31.2372 32.9917C31.7653 32.7282 32.2372 32.4991 32.6866 32.2586C33.0574 32.0524 33.3945 32.0524 33.7653 32.2471C34.2147 32.4877 34.6866 32.7168 35.2147 32.9802C35.1361 32.4075 35.1024 31.9149 35.0012 31.4338C34.8889 30.9412 35.0462 30.5746 35.3833 30.2424C35.7316 29.8988 36.0574 29.5436 36.4507 29.1198C35.8889 29.0282 35.4282 28.9251 34.9563 28.8678C34.4619 28.8105 34.1361 28.5699 33.9338 28.1003C33.7316 27.6535 33.4844 27.2182 33.2372 26.7256C32.99 27.2182 32.7316 27.6306 32.5518 28.0659C32.3383 28.5699 31.9788 28.799 31.4619 28.8678C30.9788 28.9251 30.5293 29.0282 30.0799 29.1083Z" stroke="white" stroke-width="0.3"/>
<path d="M27.5855 4.63971C27.5855 4.17004 27.9338 3.80347 28.3945 3.79202C28.8664 3.78056 29.2597 4.17004 29.2597 4.63971C29.2597 5.10938 28.8552 5.51032 28.3945 5.49886C27.9451 5.48741 27.5855 5.09793 27.5855 4.63971Z" stroke="white" stroke-width="0.3"/>
</g>
<defs>
<clipPath id="clip0_5352_4466">
<rect width="39" height="44" fill="white"/>
</clipPath>
</defs>
</svg>
