<svg width="47" height="41" viewBox="0 0 47 41" fill="none" xmlns="http://www.w3.org/2000/svg">
<g clip-path="url(#clip0_5352_4463)">
<path d="M36.4643 8.48368C37.1607 8.48368 37.8036 8.47036 38.4464 8.48368C39.0625 8.49699 39.692 8.45705 40.2946 8.57688C42.4643 8.98965 43.9643 10.8005 43.9777 12.9975C43.9911 15.0214 43.9777 17.0586 43.9777 19.0825C43.9777 19.2689 43.9777 19.442 43.9777 19.695C44.3527 19.695 44.7009 19.695 45.0491 19.695C45.6786 19.7083 45.9866 19.9879 45.9866 20.6004C45.9866 23.0105 45.9866 25.4205 45.9866 27.8439C45.9866 28.4564 45.6786 28.7626 45.0625 28.7759C44.7277 28.7892 44.3929 28.7759 43.9777 28.7759C43.9777 28.9623 43.9777 29.1488 43.9777 29.3219C43.9777 31.3058 43.9777 33.2764 43.9777 35.2604C43.9777 38.0433 42.0491 39.9873 39.25 39.9873C28.067 40.0006 16.8839 40.0006 5.71429 39.9873C2.92857 39.9873 1 38.0433 1 35.2737C1 25.2341 1 15.1945 1 5.16821C1 2.74486 2.67411 1.01389 5.11161 1.01389C14.2054 1.00058 23.2857 1.00058 32.3795 1.01389C34.7902 1.01389 36.4509 2.73154 36.4643 5.14158C36.4777 6.23342 36.4643 7.32526 36.4643 8.48368ZM2.60714 9.25596C2.60714 9.53557 2.60714 9.70867 2.60714 9.88177C2.60714 14.7418 2.60714 19.6018 2.60714 24.4618C2.60714 28.0835 2.60714 31.7186 2.60714 35.3403C2.60714 37.1112 3.83929 38.3495 5.62054 38.3895C6.23661 38.4028 6.85268 38.3895 7.48214 38.3895C18.0223 38.3895 28.5759 38.3895 39.1161 38.3895C41.192 38.3895 42.3839 37.2044 42.3839 35.1406C42.3839 33.2232 42.3839 31.3191 42.3839 29.4017C42.3839 29.202 42.3839 29.0156 42.3839 28.7759C41.433 28.7759 40.5223 28.7892 39.625 28.7759C36.5179 28.7094 34.4955 26.1795 35.1518 23.1569C35.5937 21.1064 37.3214 19.735 39.5446 19.695C40.4821 19.6817 41.4062 19.695 42.3438 19.695C42.3705 19.6018 42.3839 19.5485 42.3839 19.5086C42.3839 17.2983 42.3973 15.088 42.3705 12.8644C42.3705 12.1054 42.0357 11.453 41.4866 10.907C40.8304 10.2546 40.0134 10.0682 39.1027 10.0682C28.1205 10.0815 17.1384 10.0682 6.15625 10.0815C4.9375 10.0948 3.71875 10.1081 2.60714 9.25596ZM34.8571 8.48368C34.8571 7.83124 34.8571 7.24537 34.8571 6.64619C34.8571 6.10027 34.8705 5.55435 34.8571 4.99512C34.8304 3.63697 33.8527 2.61171 32.4866 2.59839C23.3125 2.58508 14.1384 2.59839 4.97768 2.59839C4.95089 2.59839 4.91071 2.59839 4.88393 2.59839C3.66518 2.66497 2.6875 3.63697 2.63393 4.86196C2.62054 5.08832 2.66071 5.32799 2.62054 5.55435C2.36607 7.03233 3.49107 8.48368 5.40625 8.48368C15.0357 8.45705 24.6518 8.47036 34.2812 8.47036C34.442 8.48368 34.6161 8.48368 34.8571 8.48368ZM44.3661 21.3061C42.7857 21.3061 41.2321 21.3061 39.6786 21.3061C39.5179 21.3061 39.3438 21.3061 39.183 21.3195C37.7232 21.5059 36.6384 22.7042 36.5848 24.1689C36.5313 25.5537 37.5357 26.8319 38.942 27.0982C39.4643 27.1914 40 27.1781 40.5357 27.1781C41.7946 27.1914 43.067 27.1781 44.3527 27.1781C44.3661 25.2208 44.3661 23.3034 44.3661 21.3061Z" fill="#014898"/>
<path d="M22.4821 33.1299C17.3795 33.1299 13.5223 29.2685 13.5089 24.1555C13.4955 19.3088 17.5804 15.3009 22.5089 15.3143C27.4375 15.3143 31.5223 19.3621 31.4821 24.1821C31.442 29.3085 27.5982 33.1299 22.4821 33.1299ZM29.875 24.2487C29.7679 20.0012 26.5402 16.8455 22.4018 16.9387C18.1429 17.0452 15.0223 20.2542 15.1161 24.4218C15.2098 28.4962 18.6116 31.6919 22.75 31.5853C26.6741 31.4788 29.9688 28.0835 29.875 24.2487Z" fill="#014898"/>
<path d="M39.5313 25.021C39.1027 24.9944 38.7545 24.6082 38.7813 24.1821C38.808 23.7694 39.1696 23.4365 39.5848 23.4498C40.0134 23.4631 40.375 23.8359 40.3616 24.262C40.3482 24.7014 39.9732 25.0476 39.5313 25.021Z" fill="#014898"/>
<path d="M21.692 27.6174C21.692 26.752 21.7054 25.9797 21.6786 25.2207C21.6786 25.0876 21.5446 24.8878 21.4107 24.8346C20.192 24.302 19.5089 23.3699 19.4955 22.0517C19.4821 20.7069 20.1786 19.7748 21.4107 19.2156C21.5312 19.1623 21.6652 18.9759 21.6786 18.8295C21.7589 18.2569 22.0134 17.924 22.4821 17.924C22.9643 17.9107 23.2321 18.2436 23.3125 18.8561C23.3393 19.0026 23.5 19.1756 23.6473 19.2422C24.7723 19.7615 25.4286 20.6137 25.5223 21.8653C25.5625 22.4379 25.2812 22.784 24.8125 22.824C24.3304 22.8639 24.0089 22.571 23.9286 22.0118C23.8482 21.3993 23.7812 21.2794 23.3125 20.9332C23.3125 21.7854 23.2991 22.5843 23.3259 23.3965C23.3259 23.4897 23.4732 23.6362 23.5938 23.6762C24.8125 24.2088 25.5089 25.1275 25.5089 26.459C25.5223 27.8039 24.8259 28.7359 23.5938 29.2951C23.4732 29.3484 23.3393 29.5348 23.3259 29.6813C23.2455 30.2538 22.9911 30.5867 22.5357 30.6C22.067 30.6133 21.7857 30.2671 21.692 29.668C21.6652 29.5082 21.4777 29.3218 21.3304 29.2552C20.2054 28.7226 19.5759 27.8571 19.4955 26.6055C19.4688 26.0729 19.75 25.74 20.2054 25.7001C20.7009 25.6601 21.0357 25.953 21.0893 26.5123C21.1161 26.9251 21.25 27.2846 21.692 27.6174ZM21.6652 20.9332C20.8616 21.5324 20.875 22.571 21.6652 23.1036C21.6652 22.3846 21.6652 21.6789 21.6652 20.9332ZM23.3259 27.5642C24.1295 27.1647 24.0759 25.6601 23.3259 25.4071C23.3259 26.1128 23.3259 26.8185 23.3259 27.5642Z" fill="#014898"/>
<path d="M36.4643 8.48368C37.1607 8.48368 37.8036 8.47036 38.4464 8.48368C39.0625 8.49699 39.692 8.45705 40.2946 8.57688C42.4643 8.98965 43.9643 10.8005 43.9777 12.9975C43.9911 15.0214 43.9777 17.0586 43.9777 19.0825C43.9777 19.2689 43.9777 19.442 43.9777 19.695C44.3527 19.695 44.7009 19.695 45.0491 19.695C45.6786 19.7083 45.9866 19.9879 45.9866 20.6004C45.9866 23.0105 45.9866 25.4205 45.9866 27.8439C45.9866 28.4564 45.6786 28.7626 45.0625 28.7759C44.7277 28.7892 44.3929 28.7759 43.9777 28.7759C43.9777 28.9623 43.9777 29.1488 43.9777 29.3219C43.9777 31.3058 43.9777 33.2764 43.9777 35.2604C43.9777 38.0433 42.0491 39.9873 39.25 39.9873C28.067 40.0006 16.8839 40.0006 5.71429 39.9873C2.92857 39.9873 1 38.0433 1 35.2737C1 25.2341 1 15.1945 1 5.16821C1 2.74486 2.67411 1.01389 5.11161 1.01389C14.2054 1.00058 23.2857 1.00058 32.3795 1.01389C34.7902 1.01389 36.4509 2.73154 36.4643 5.14158C36.4777 6.23342 36.4643 7.32526 36.4643 8.48368ZM2.60714 9.25596C2.60714 9.53557 2.60714 9.70867 2.60714 9.88177C2.60714 14.7418 2.60714 19.6018 2.60714 24.4618C2.60714 28.0835 2.60714 31.7186 2.60714 35.3403C2.60714 37.1112 3.83929 38.3495 5.62054 38.3895C6.23661 38.4028 6.85268 38.3895 7.48214 38.3895C18.0223 38.3895 28.5759 38.3895 39.1161 38.3895C41.192 38.3895 42.3839 37.2044 42.3839 35.1406C42.3839 33.2232 42.3839 31.3191 42.3839 29.4017C42.3839 29.202 42.3839 29.0156 42.3839 28.7759C41.433 28.7759 40.5223 28.7892 39.625 28.7759C36.5179 28.7094 34.4955 26.1795 35.1518 23.1569C35.5937 21.1064 37.3214 19.735 39.5446 19.695C40.4821 19.6817 41.4062 19.695 42.3438 19.695C42.3705 19.6018 42.3839 19.5485 42.3839 19.5086C42.3839 17.2983 42.3973 15.088 42.3705 12.8644C42.3705 12.1054 42.0357 11.453 41.4866 10.907C40.8304 10.2546 40.0134 10.0682 39.1027 10.0682C28.1205 10.0815 17.1384 10.0682 6.15625 10.0815C4.9375 10.0948 3.71875 10.1081 2.60714 9.25596ZM34.8571 8.48368C34.8571 7.83124 34.8571 7.24537 34.8571 6.64619C34.8571 6.10027 34.8705 5.55435 34.8571 4.99512C34.8304 3.63697 33.8527 2.61171 32.4866 2.59839C23.3125 2.58508 14.1384 2.59839 4.97768 2.59839C4.95089 2.59839 4.91071 2.59839 4.88393 2.59839C3.66518 2.66497 2.6875 3.63697 2.63393 4.86196C2.62054 5.08832 2.66071 5.32799 2.62054 5.55435C2.36607 7.03233 3.49107 8.48368 5.40625 8.48368C15.0357 8.45705 24.6518 8.47036 34.2812 8.47036C34.442 8.48368 34.6161 8.48368 34.8571 8.48368ZM44.3661 21.3061C42.7857 21.3061 41.2321 21.3061 39.6786 21.3061C39.5179 21.3061 39.3438 21.3061 39.183 21.3195C37.7232 21.5059 36.6384 22.7042 36.5848 24.1689C36.5313 25.5537 37.5357 26.8319 38.942 27.0982C39.4643 27.1914 40 27.1781 40.5357 27.1781C41.7946 27.1914 43.067 27.1781 44.3527 27.1781C44.3661 25.2208 44.3661 23.3034 44.3661 21.3061Z" stroke="white" stroke-width="0.2"/>
<path d="M22.4821 33.1299C17.3795 33.1299 13.5223 29.2685 13.5089 24.1555C13.4955 19.3088 17.5804 15.3009 22.5089 15.3143C27.4375 15.3143 31.5223 19.3621 31.4821 24.1821C31.442 29.3085 27.5982 33.1299 22.4821 33.1299ZM29.875 24.2487C29.7679 20.0012 26.5402 16.8455 22.4018 16.9387C18.1429 17.0452 15.0223 20.2542 15.1161 24.4218C15.2098 28.4962 18.6116 31.6919 22.75 31.5853C26.6741 31.4788 29.9688 28.0835 29.875 24.2487Z" stroke="white" stroke-width="0.2"/>
<path d="M39.5313 25.021C39.1027 24.9944 38.7545 24.6082 38.7813 24.1821C38.808 23.7694 39.1696 23.4365 39.5848 23.4498C40.0134 23.4631 40.375 23.8359 40.3616 24.262C40.3482 24.7014 39.9732 25.0476 39.5313 25.021Z" stroke="white" stroke-width="0.2"/>
<path d="M21.692 27.6174C21.692 26.752 21.7054 25.9797 21.6786 25.2207C21.6786 25.0876 21.5446 24.8878 21.4107 24.8346C20.192 24.302 19.5089 23.3699 19.4955 22.0517C19.4821 20.7069 20.1786 19.7748 21.4107 19.2156C21.5312 19.1623 21.6652 18.9759 21.6786 18.8295C21.7589 18.2569 22.0134 17.924 22.4821 17.924C22.9643 17.9107 23.2321 18.2436 23.3125 18.8561C23.3393 19.0026 23.5 19.1756 23.6473 19.2422C24.7723 19.7615 25.4286 20.6137 25.5223 21.8653C25.5625 22.4379 25.2812 22.784 24.8125 22.824C24.3304 22.8639 24.0089 22.571 23.9286 22.0118C23.8482 21.3993 23.7812 21.2794 23.3125 20.9332C23.3125 21.7854 23.2991 22.5843 23.3259 23.3965C23.3259 23.4897 23.4732 23.6362 23.5938 23.6762C24.8125 24.2088 25.5089 25.1275 25.5089 26.459C25.5223 27.8039 24.8259 28.7359 23.5938 29.2951C23.4732 29.3484 23.3393 29.5348 23.3259 29.6813C23.2455 30.2538 22.9911 30.5867 22.5357 30.6C22.067 30.6133 21.7857 30.2671 21.692 29.668C21.6652 29.5082 21.4777 29.3218 21.3304 29.2552C20.2054 28.7226 19.5759 27.8571 19.4955 26.6055C19.4688 26.0729 19.75 25.74 20.2054 25.7001C20.7009 25.6601 21.0357 25.953 21.0893 26.5123C21.1161 26.9251 21.25 27.2846 21.692 27.6174ZM21.6652 20.9332C20.8616 21.5324 20.875 22.571 21.6652 23.1036C21.6652 22.3846 21.6652 21.6789 21.6652 20.9332ZM23.3259 27.5642C24.1295 27.1647 24.0759 25.6601 23.3259 25.4071C23.3259 26.1128 23.3259 26.8185 23.3259 27.5642Z" stroke="white" stroke-width="0.2"/>
</g>
<defs>
<clipPath id="clip0_5352_4463">
<rect width="47" height="41" fill="white"/>
</clipPath>
</defs>
</svg>
