<svg width="36" height="40" viewBox="0 0 36 40" fill="none" xmlns="http://www.w3.org/2000/svg">
<g clip-path="url(#clip0_5423_1291)">
<path d="M13.6672 40.0003C13.1769 39.7816 13.0543 39.3963 13.136 38.886C13.3097 37.7613 13.4629 36.6261 13.6365 35.491C13.6774 35.2515 13.6365 35.0849 13.4629 34.9078C12.6559 34.0956 11.8694 33.252 11.0727 32.4293C10.8173 32.1586 10.6335 31.8774 10.756 31.4921C10.8786 31.1068 11.185 30.9922 11.5528 30.9297C12.6866 30.7423 13.8204 30.5444 14.944 30.3361C15.0972 30.3049 15.2811 30.1591 15.3628 30.0237C15.9144 28.9927 16.4455 27.9617 16.9664 26.9203C17.1401 26.5871 17.3444 26.3372 17.753 26.3372C18.1309 26.3476 18.3352 26.5975 18.4986 26.9099C19.0298 27.9513 19.5507 28.9823 20.1023 30.0133C20.1738 30.1591 20.3577 30.2945 20.5109 30.3257C21.6549 30.5444 22.7887 30.7423 23.943 30.9297C24.2902 30.9922 24.5865 31.1172 24.6988 31.4921C24.8112 31.8566 24.6682 32.1377 24.4128 32.3981C23.5957 33.2416 22.7785 34.0851 21.9818 34.9391C21.8796 35.0536 21.7979 35.2619 21.8183 35.4077C21.9613 36.5428 22.1452 37.6675 22.3086 38.8027C22.4108 39.4796 22.3188 39.6774 21.7877 40.0003C21.6345 40.0003 21.4813 40.0003 21.328 40.0003C20.4394 39.5316 19.5201 39.1151 18.6723 38.5944C18.0083 38.1882 17.4567 38.1882 16.7928 38.5944C15.9348 39.1151 15.0155 39.5316 14.1268 40.0003C13.9736 40.0003 13.8204 40.0003 13.6672 40.0003ZM13.0645 32.2627C13.7182 32.9396 14.3005 33.5644 14.9031 34.1789C15.1789 34.46 15.2913 34.7516 15.23 35.1578C15.087 36.0221 14.9746 36.8969 14.852 37.8446C15.5058 37.5217 16.1289 37.2718 16.6804 36.9177C17.4159 36.4387 18.0696 36.4491 18.8051 36.9177C19.3566 37.2718 19.9695 37.5217 20.6232 37.8446C20.5211 37.1052 20.4904 36.4179 20.3168 35.7722C20.0921 34.9183 20.3168 34.3038 20.9705 33.7519C21.471 33.3249 21.9001 32.8042 22.3597 32.3148C22.2984 32.2731 22.2882 32.2523 22.2576 32.2419C21.4404 32.0961 20.6232 31.9399 19.8061 31.8149C19.3975 31.7524 19.1319 31.5546 18.9583 31.1901C18.6212 30.4923 18.2535 29.805 17.896 29.1177C17.8551 29.0344 17.7938 28.9615 17.7223 28.8469C17.4465 29.3884 17.1912 29.8779 16.9358 30.3778C16.1084 31.9503 16.4864 31.6587 14.7499 31.9815C14.1983 32.0544 13.6672 32.1586 13.0645 32.2627Z" fill="#014898"/>
<path d="M10.1942 20.1825C10.6947 18.0268 11.8286 16.371 13.6161 15.1526C12.5946 13.7988 12.2167 12.2887 12.5538 10.6329C12.8194 9.33117 13.4833 8.27936 14.515 7.46707C16.5579 5.86332 19.4486 6.00912 21.3383 7.78991C23.1973 9.54987 23.7284 12.6324 21.8592 15.1526C23.6263 16.3606 24.7703 18.0164 25.2811 20.2138C25.6079 19.8284 25.9246 19.5056 26.1799 19.1515C28.7438 15.59 29.1319 11.7785 27.375 7.74825C27.324 7.64411 27.2729 7.53997 27.2218 7.43583C27.0482 7.00886 27.181 6.5923 27.5487 6.39444C27.9266 6.19657 28.376 6.33195 28.5906 6.74851C29.1524 7.84198 29.5507 8.98751 29.755 10.1955C30.899 16.975 26.8132 23.2442 20.2147 24.6605C13.2177 26.1601 6.80301 21.3176 5.68963 14.611C4.62732 8.21688 8.40669 2.14554 14.515 0.448068C17.5385 -0.385048 20.4496 -0.0413878 23.2586 1.35408C23.6161 1.53112 23.8306 1.80188 23.7693 2.21844C23.7182 2.58293 23.4935 2.82245 23.1462 2.86411C22.9521 2.88493 22.7172 2.82245 22.5334 2.72872C20.8888 1.89561 19.1523 1.52071 17.3137 1.56236C12.4823 1.67691 8.06961 5.49884 7.22181 10.3517C6.58851 14.0279 7.48739 17.2562 9.98994 20.0055C10.0512 20.0471 10.1023 20.0888 10.1942 20.1825ZM17.7325 23.3692C19.8469 23.3379 21.8081 22.7652 23.5957 21.5884C23.8306 21.4322 23.8817 21.2656 23.851 21.0156C23.5548 19.037 22.5946 17.5061 20.9399 16.4231C20.7458 16.2981 20.6028 16.2877 20.3883 16.4127C18.6212 17.4124 16.8337 17.4124 15.0665 16.4022C14.8623 16.2877 14.7295 16.2981 14.5558 16.4127C12.8806 17.4957 11.9103 19.037 11.614 21.026C11.5732 21.2864 11.6549 21.453 11.8796 21.5988C13.6672 22.7652 15.6181 23.3379 17.7325 23.3692ZM17.7223 15.5691C19.7959 15.5795 21.4813 13.8821 21.4915 11.768C21.5017 9.64359 19.8265 7.90446 17.7427 7.90446C15.6794 7.89405 13.9838 9.61235 13.9736 11.7056C13.9634 13.8508 15.6283 15.5587 17.7223 15.5691Z" fill="#014898"/>
<path d="M1.71619 31.2421C1.82855 30.4715 1.9307 29.6696 2.06348 28.8782C2.11456 28.5866 2.05327 28.3991 1.84898 28.1908C1.31783 27.6701 0.817314 27.1078 0.296375 26.5767C0.0512265 26.3267 -0.0713476 26.0456 0.041012 25.6915C0.153372 25.3374 0.418949 25.202 0.766242 25.1396C1.53233 25.0146 2.29842 24.8896 3.06451 24.7334C3.20751 24.7022 3.38116 24.5668 3.45266 24.4314C3.83059 23.7545 4.17789 23.0568 4.52518 22.359C4.68861 22.0258 4.92355 21.8071 5.29127 21.8175C5.64878 21.8279 5.86328 22.0466 6.0165 22.359C6.36379 23.0568 6.71108 23.7441 7.08902 24.421C7.17074 24.5668 7.3546 24.7022 7.51803 24.7334C8.28412 24.8896 9.05021 25.0146 9.81629 25.1396C10.1432 25.1916 10.3985 25.3478 10.5007 25.6811C10.613 26.0143 10.5007 26.2955 10.2759 26.535C9.75501 27.0765 9.2545 27.6181 8.71313 28.1492C8.48841 28.3679 8.41691 28.597 8.46798 28.9094C8.59055 29.6384 8.68248 30.3778 8.79484 31.1068C8.84592 31.44 8.78463 31.7316 8.51905 31.9399C8.23305 32.169 7.92661 32.1377 7.62017 31.9815C6.9358 31.6379 6.25143 31.2942 5.56706 30.9401C5.35255 30.8256 5.17891 30.836 4.9644 30.9401C4.2596 31.3046 3.5548 31.6691 2.83979 32.0128C2.25756 32.3044 1.69576 31.919 1.71619 31.2421ZM5.27084 24.3064C5.04612 24.7438 4.8214 25.1291 4.64775 25.5249C4.45368 25.9831 4.12681 26.2018 3.64673 26.2538C3.23815 26.3059 2.82957 26.3892 2.42099 26.4621C2.39035 26.5142 2.34949 26.5663 2.31885 26.6183C2.67635 26.9308 3.03386 27.2432 3.39137 27.5556C3.67738 27.8055 3.75909 28.1179 3.68759 28.5033C3.59566 28.9615 3.5548 29.4301 3.4833 29.9716C3.90209 29.7634 4.26982 29.6176 4.58647 29.4197C5.07676 29.0969 5.5262 29.1281 6.0165 29.4301C6.34336 29.628 6.70087 29.7738 7.09924 29.9716C7.02773 29.4509 6.97666 29.024 6.89495 28.6074C6.81323 28.1596 6.89495 27.7951 7.24224 27.4827C7.5691 27.1807 7.85511 26.8474 8.21262 26.4725C7.68146 26.3788 7.22181 26.2851 6.75194 26.2226C6.37401 26.1705 6.12886 25.9727 5.96543 25.629C5.74071 25.202 5.51599 24.7855 5.27084 24.3064Z" fill="#014898"/>
<path d="M32.8704 32.1169C32.8091 32.0961 32.6457 32.044 32.5027 31.9711C31.8388 31.6379 31.1748 31.315 30.5211 30.961C30.2964 30.836 30.1125 30.8464 29.8776 30.9714C29.2136 31.3254 28.5293 31.6483 27.8551 31.9919C27.5487 32.1481 27.2422 32.1898 26.9562 31.9607C26.6702 31.742 26.6089 31.44 26.6702 31.0963C26.7928 30.3674 26.8745 29.628 26.9971 28.899C27.0482 28.6074 26.9971 28.3887 26.7724 28.17C26.2412 27.6597 25.7509 27.1078 25.2402 26.5871C24.995 26.3372 24.8623 26.056 24.9644 25.7123C25.0768 25.3478 25.3526 25.202 25.7101 25.1396C26.4659 25.025 27.2218 24.9 27.9675 24.7438C28.1207 24.7126 28.3045 24.5668 28.376 24.421C28.754 23.7441 29.1013 23.0464 29.4486 22.359C29.6018 22.0466 29.8265 21.8279 30.184 21.8279C30.5415 21.8279 30.7662 22.0362 30.9195 22.359C31.2668 23.0568 31.614 23.7441 31.992 24.421C32.0737 24.5772 32.278 24.7126 32.4414 24.7438C33.2075 24.9 33.9736 25.0146 34.7397 25.15C35.0563 25.202 35.2913 25.3582 35.3934 25.6707C35.4956 25.9935 35.4241 26.2851 35.1789 26.5246C34.6273 27.0974 34.0655 27.6701 33.5242 28.2637C33.4118 28.3887 33.3403 28.6074 33.3607 28.774C33.4527 29.5447 33.5854 30.3153 33.6978 31.0859C33.8102 31.7003 33.4833 32.1273 32.8704 32.1169ZM27.3444 26.4621C27.324 26.5038 27.3137 26.5454 27.2933 26.5871C27.6202 26.8995 27.9368 27.2119 28.2739 27.5139C28.5906 27.8055 28.6723 28.1596 28.6008 28.5762C28.5191 29.024 28.468 29.4718 28.3965 29.9925C28.8766 29.7529 29.3056 29.5447 29.7141 29.326C30.0512 29.1385 30.3577 29.1385 30.6947 29.3155C31.1033 29.5342 31.5323 29.7425 32.0124 29.982C31.9409 29.4613 31.9103 29.0135 31.8183 28.5762C31.7162 28.1284 31.8592 27.7951 32.1656 27.4931C32.4823 27.1807 32.7785 26.8579 33.136 26.4725C32.6253 26.3892 32.2065 26.2955 31.7775 26.2434C31.328 26.1914 31.0318 25.9727 30.848 25.5457C30.6641 25.1396 30.4394 24.7438 30.2147 24.296C29.9899 24.7438 29.755 25.1187 29.5916 25.5145C29.3975 25.9727 29.0706 26.181 28.6008 26.2434C28.1615 26.2955 27.753 26.3892 27.3444 26.4621Z" fill="#014898"/>
<path d="M25.0768 4.21792C25.0768 3.79095 25.3934 3.4577 25.8122 3.44729C26.2412 3.43687 26.5987 3.79095 26.5987 4.21792C26.5987 4.64489 26.231 5.00938 25.8122 4.99897C25.4036 4.98855 25.0768 4.63448 25.0768 4.21792Z" fill="#014898"/>
<path d="M13.6672 40.0003C13.1769 39.7816 13.0543 39.3963 13.136 38.886C13.3097 37.7613 13.4629 36.6261 13.6365 35.491C13.6774 35.2515 13.6365 35.0849 13.4629 34.9078C12.6559 34.0956 11.8694 33.252 11.0727 32.4293C10.8173 32.1586 10.6335 31.8774 10.756 31.4921C10.8786 31.1068 11.185 30.9922 11.5528 30.9297C12.6866 30.7423 13.8204 30.5444 14.944 30.3361C15.0972 30.3049 15.2811 30.1591 15.3628 30.0237C15.9144 28.9927 16.4455 27.9617 16.9664 26.9203C17.1401 26.5871 17.3444 26.3372 17.753 26.3372C18.1309 26.3476 18.3352 26.5975 18.4986 26.9099C19.0298 27.9513 19.5507 28.9823 20.1023 30.0133C20.1738 30.1591 20.3577 30.2945 20.5109 30.3257C21.6549 30.5444 22.7887 30.7423 23.943 30.9297C24.2902 30.9922 24.5865 31.1172 24.6988 31.4921C24.8112 31.8566 24.6682 32.1377 24.4128 32.3981C23.5957 33.2416 22.7785 34.0851 21.9818 34.9391C21.8796 35.0536 21.7979 35.2619 21.8183 35.4077C21.9613 36.5428 22.1452 37.6675 22.3086 38.8027C22.4108 39.4796 22.3188 39.6774 21.7877 40.0003C21.6345 40.0003 21.4813 40.0003 21.328 40.0003C20.4394 39.5316 19.5201 39.1151 18.6723 38.5944C18.0083 38.1882 17.4567 38.1882 16.7928 38.5944C15.9348 39.1151 15.0155 39.5316 14.1268 40.0003C13.9736 40.0003 13.8204 40.0003 13.6672 40.0003ZM13.0645 32.2627C13.7182 32.9396 14.3005 33.5644 14.9031 34.1789C15.1789 34.46 15.2913 34.7516 15.23 35.1578C15.087 36.0221 14.9746 36.8969 14.852 37.8446C15.5058 37.5217 16.1289 37.2718 16.6804 36.9177C17.4159 36.4387 18.0696 36.4491 18.8051 36.9177C19.3566 37.2718 19.9695 37.5217 20.6232 37.8446C20.5211 37.1052 20.4904 36.4179 20.3168 35.7722C20.0921 34.9183 20.3168 34.3038 20.9705 33.7519C21.471 33.3249 21.9001 32.8042 22.3597 32.3148C22.2984 32.2731 22.2882 32.2523 22.2576 32.2419C21.4404 32.0961 20.6232 31.9399 19.8061 31.8149C19.3975 31.7524 19.1319 31.5546 18.9583 31.1901C18.6212 30.4923 18.2535 29.805 17.896 29.1177C17.8551 29.0344 17.7938 28.9615 17.7223 28.8469C17.4465 29.3884 17.1912 29.8779 16.9358 30.3778C16.1084 31.9503 16.4864 31.6587 14.7499 31.9815C14.1983 32.0544 13.6672 32.1586 13.0645 32.2627Z" stroke="white" stroke-width="0.3"/>
<path d="M10.1942 20.1825C10.6947 18.0268 11.8286 16.371 13.6161 15.1526C12.5946 13.7988 12.2167 12.2887 12.5538 10.6329C12.8194 9.33117 13.4833 8.27936 14.515 7.46707C16.5579 5.86332 19.4486 6.00912 21.3383 7.78991C23.1973 9.54987 23.7284 12.6324 21.8592 15.1526C23.6263 16.3606 24.7703 18.0164 25.2811 20.2138C25.6079 19.8284 25.9246 19.5056 26.1799 19.1515C28.7438 15.59 29.1319 11.7785 27.375 7.74825C27.324 7.64411 27.2729 7.53997 27.2218 7.43583C27.0482 7.00886 27.181 6.5923 27.5487 6.39444C27.9266 6.19657 28.376 6.33195 28.5906 6.74851C29.1524 7.84198 29.5507 8.98751 29.755 10.1955C30.899 16.975 26.8132 23.2442 20.2147 24.6605C13.2177 26.1601 6.80301 21.3176 5.68963 14.611C4.62732 8.21688 8.40669 2.14554 14.515 0.448068C17.5385 -0.385048 20.4496 -0.0413878 23.2586 1.35408C23.6161 1.53112 23.8306 1.80188 23.7693 2.21844C23.7182 2.58293 23.4935 2.82245 23.1462 2.86411C22.9521 2.88493 22.7172 2.82245 22.5334 2.72872C20.8888 1.89561 19.1523 1.52071 17.3137 1.56236C12.4823 1.67691 8.06961 5.49884 7.22181 10.3517C6.58851 14.0279 7.48739 17.2562 9.98994 20.0055C10.0512 20.0471 10.1023 20.0888 10.1942 20.1825ZM17.7325 23.3692C19.8469 23.3379 21.8081 22.7652 23.5957 21.5884C23.8306 21.4322 23.8817 21.2656 23.851 21.0156C23.5548 19.037 22.5946 17.5061 20.9399 16.4231C20.7458 16.2981 20.6028 16.2877 20.3883 16.4127C18.6212 17.4124 16.8337 17.4124 15.0665 16.4022C14.8623 16.2877 14.7295 16.2981 14.5558 16.4127C12.8806 17.4957 11.9103 19.037 11.614 21.026C11.5732 21.2864 11.6549 21.453 11.8796 21.5988C13.6672 22.7652 15.6181 23.3379 17.7325 23.3692ZM17.7223 15.5691C19.7959 15.5795 21.4813 13.8821 21.4915 11.768C21.5017 9.64359 19.8265 7.90446 17.7427 7.90446C15.6794 7.89405 13.9838 9.61235 13.9736 11.7056C13.9634 13.8508 15.6283 15.5587 17.7223 15.5691Z" stroke="white" stroke-width="0.3"/>
<path d="M1.71619 31.2421C1.82855 30.4715 1.9307 29.6696 2.06348 28.8782C2.11456 28.5866 2.05327 28.3991 1.84898 28.1908C1.31783 27.6701 0.817314 27.1078 0.296375 26.5767C0.0512265 26.3267 -0.0713476 26.0456 0.041012 25.6915C0.153372 25.3374 0.418949 25.202 0.766242 25.1396C1.53233 25.0146 2.29842 24.8896 3.06451 24.7334C3.20751 24.7022 3.38116 24.5668 3.45266 24.4314C3.83059 23.7545 4.17789 23.0568 4.52518 22.359C4.68861 22.0258 4.92355 21.8071 5.29127 21.8175C5.64878 21.8279 5.86328 22.0466 6.0165 22.359C6.36379 23.0568 6.71108 23.7441 7.08902 24.421C7.17074 24.5668 7.3546 24.7022 7.51803 24.7334C8.28412 24.8896 9.05021 25.0146 9.81629 25.1396C10.1432 25.1916 10.3985 25.3478 10.5007 25.6811C10.613 26.0143 10.5007 26.2955 10.2759 26.535C9.75501 27.0765 9.2545 27.6181 8.71313 28.1492C8.48841 28.3679 8.41691 28.597 8.46798 28.9094C8.59055 29.6384 8.68248 30.3778 8.79484 31.1068C8.84592 31.44 8.78463 31.7316 8.51905 31.9399C8.23305 32.169 7.92661 32.1377 7.62017 31.9815C6.9358 31.6379 6.25143 31.2942 5.56706 30.9401C5.35255 30.8256 5.17891 30.836 4.9644 30.9401C4.2596 31.3046 3.5548 31.6691 2.83979 32.0128C2.25756 32.3044 1.69576 31.919 1.71619 31.2421ZM5.27084 24.3064C5.04612 24.7438 4.8214 25.1291 4.64775 25.5249C4.45368 25.9831 4.12681 26.2018 3.64673 26.2538C3.23815 26.3059 2.82957 26.3892 2.42099 26.4621C2.39035 26.5142 2.34949 26.5663 2.31885 26.6183C2.67635 26.9308 3.03386 27.2432 3.39137 27.5556C3.67738 27.8055 3.75909 28.1179 3.68759 28.5033C3.59566 28.9615 3.5548 29.4301 3.4833 29.9716C3.90209 29.7634 4.26982 29.6176 4.58647 29.4197C5.07676 29.0969 5.5262 29.1281 6.0165 29.4301C6.34336 29.628 6.70087 29.7738 7.09924 29.9716C7.02773 29.4509 6.97666 29.024 6.89495 28.6074C6.81323 28.1596 6.89495 27.7951 7.24224 27.4827C7.5691 27.1807 7.85511 26.8474 8.21262 26.4725C7.68146 26.3788 7.22181 26.2851 6.75194 26.2226C6.37401 26.1705 6.12886 25.9727 5.96543 25.629C5.74071 25.202 5.51599 24.7855 5.27084 24.3064Z" stroke="white" stroke-width="0.3"/>
<path d="M32.8704 32.1169C32.8091 32.0961 32.6457 32.044 32.5027 31.9711C31.8388 31.6379 31.1748 31.315 30.5211 30.961C30.2964 30.836 30.1125 30.8464 29.8776 30.9714C29.2136 31.3254 28.5293 31.6483 27.8551 31.9919C27.5487 32.1481 27.2422 32.1898 26.9562 31.9607C26.6702 31.742 26.6089 31.44 26.6702 31.0963C26.7928 30.3674 26.8745 29.628 26.9971 28.899C27.0482 28.6074 26.9971 28.3887 26.7724 28.17C26.2412 27.6597 25.7509 27.1078 25.2402 26.5871C24.995 26.3372 24.8623 26.056 24.9644 25.7123C25.0768 25.3478 25.3526 25.202 25.7101 25.1396C26.4659 25.025 27.2218 24.9 27.9675 24.7438C28.1207 24.7126 28.3045 24.5668 28.376 24.421C28.754 23.7441 29.1013 23.0464 29.4486 22.359C29.6018 22.0466 29.8265 21.8279 30.184 21.8279C30.5415 21.8279 30.7662 22.0362 30.9195 22.359C31.2668 23.0568 31.614 23.7441 31.992 24.421C32.0737 24.5772 32.278 24.7126 32.4414 24.7438C33.2075 24.9 33.9736 25.0146 34.7397 25.15C35.0563 25.202 35.2913 25.3582 35.3934 25.6707C35.4956 25.9935 35.4241 26.2851 35.1789 26.5246C34.6273 27.0974 34.0655 27.6701 33.5242 28.2637C33.4118 28.3887 33.3403 28.6074 33.3607 28.774C33.4527 29.5447 33.5854 30.3153 33.6978 31.0859C33.8102 31.7003 33.4833 32.1273 32.8704 32.1169ZM27.3444 26.4621C27.324 26.5038 27.3137 26.5454 27.2933 26.5871C27.6202 26.8995 27.9368 27.2119 28.2739 27.5139C28.5906 27.8055 28.6723 28.1596 28.6008 28.5762C28.5191 29.024 28.468 29.4718 28.3965 29.9925C28.8766 29.7529 29.3056 29.5447 29.7141 29.326C30.0512 29.1385 30.3577 29.1385 30.6947 29.3155C31.1033 29.5342 31.5323 29.7425 32.0124 29.982C31.9409 29.4613 31.9103 29.0135 31.8183 28.5762C31.7162 28.1284 31.8592 27.7951 32.1656 27.4931C32.4823 27.1807 32.7785 26.8579 33.136 26.4725C32.6253 26.3892 32.2065 26.2955 31.7775 26.2434C31.328 26.1914 31.0318 25.9727 30.848 25.5457C30.6641 25.1396 30.4394 24.7438 30.2147 24.296C29.9899 24.7438 29.755 25.1187 29.5916 25.5145C29.3975 25.9727 29.0706 26.181 28.6008 26.2434C28.1615 26.2955 27.753 26.3892 27.3444 26.4621Z" stroke="white" stroke-width="0.3"/>
<path d="M25.0768 4.21792C25.0768 3.79095 25.3934 3.4577 25.8122 3.44729C26.2412 3.43687 26.5987 3.79095 26.5987 4.21792C26.5987 4.64489 26.231 5.00938 25.8122 4.99897C25.4036 4.98855 25.0768 4.63448 25.0768 4.21792Z" stroke="white" stroke-width="0.3"/>
</g>
<defs>
<clipPath id="clip0_5423_1291">
<rect width="35.4545" height="40" fill="white"/>
</clipPath>
</defs>
</svg>
