<svg width="48" height="48" viewBox="0 0 48 48" fill="none" xmlns="http://www.w3.org/2000/svg">
<g clip-path="url(#clip0_2280_6215)">
<path d="M13.5264 21.529C13.5264 22.126 13.5904 22.609 13.7024 22.964C13.8304 23.319 13.9894 23.706 14.2134 24.125C14.2934 24.254 14.3254 24.383 14.3254 24.496C14.3254 24.657 14.2294 24.818 14.0224 24.98L13.0164 25.657C12.8724 25.754 12.7294 25.802 12.6014 25.802C12.4414 25.802 12.2824 25.721 12.1224 25.576C11.8984 25.334 11.7074 25.076 11.5474 24.818C11.3874 24.544 11.2284 24.238 11.0524 23.867C9.80738 25.35 8.24238 26.092 6.35838 26.092C5.01738 26.092 3.94737 25.705 3.16537 24.931C2.38337 24.157 1.98438 23.125 1.98438 21.835C1.98438 20.465 2.46337 19.352 3.43737 18.514C4.41137 17.676 5.70437 17.256 7.34837 17.256C7.89137 17.256 8.45038 17.304 9.04038 17.385C9.63038 17.466 10.2374 17.595 10.8764 17.74V16.563C10.8764 15.338 10.6214 14.483 10.1264 13.983C9.61538 13.483 8.75337 13.241 7.52437 13.241C6.96537 13.241 6.39138 13.305 5.80037 13.451C5.20937 13.596 4.63538 13.773 4.07638 13.999C3.82138 14.112 3.62937 14.176 3.51737 14.209C3.40537 14.241 3.32537 14.257 3.26237 14.257C3.03837 14.257 2.92737 14.096 2.92737 13.757V12.967C2.92737 12.709 2.95937 12.516 3.03937 12.403C3.11937 12.29 3.26337 12.177 3.48637 12.064C4.04537 11.774 4.71537 11.532 5.49837 11.338C6.28037 11.128 7.11037 11.032 7.98837 11.032C9.88837 11.032 11.2774 11.467 12.1714 12.338C13.0494 13.209 13.4964 14.531 13.4964 16.304V21.528L13.5264 21.529ZM7.04437 23.979C7.57137 23.979 8.11437 23.882 8.68837 23.689C9.26337 23.496 9.77438 23.141 10.2054 22.657C10.4604 22.351 10.6524 22.012 10.7484 21.625C10.8444 21.238 10.9084 20.77 10.9084 20.222V19.545C10.4454 19.432 9.95037 19.335 9.43937 19.271C8.92837 19.207 8.43338 19.174 7.93837 19.174C6.86837 19.174 6.08637 19.384 5.55937 19.819C5.03237 20.254 4.77737 20.867 4.77737 21.673C4.77737 22.431 4.96937 22.995 5.36837 23.382C5.75137 23.786 6.31037 23.979 7.04437 23.979ZM19.8644 25.721C19.5774 25.721 19.3854 25.673 19.2574 25.56C19.1294 25.463 19.0184 25.238 18.9224 24.931L15.1704 12.468C15.0744 12.146 15.0264 11.936 15.0264 11.823C15.0264 11.565 15.1544 11.42 15.4094 11.42H16.9744C17.2774 11.42 17.4854 11.468 17.5974 11.581C17.7254 11.678 17.8204 11.903 17.9164 12.21L20.5984 22.884L23.0884 12.21C23.1684 11.888 23.2644 11.678 23.3914 11.581C23.5194 11.484 23.7424 11.42 24.0304 11.42H25.3074C25.6104 11.42 25.8184 11.468 25.9464 11.581C26.0744 11.678 26.1854 11.903 26.2494 12.21L28.7714 23.013L31.5334 12.21C31.6294 11.888 31.7414 11.678 31.8524 11.581C31.9804 11.484 32.1874 11.42 32.4754 11.42H33.9604C34.2154 11.42 34.3594 11.549 34.3594 11.823C34.3594 11.904 34.3434 11.984 34.3274 12.081C34.3114 12.178 34.2794 12.307 34.2154 12.484L30.3684 24.947C30.2724 25.269 30.1604 25.479 30.0334 25.576C29.9064 25.673 29.6984 25.737 29.4264 25.737H28.0534C27.7504 25.737 27.5424 25.689 27.4144 25.576C27.2864 25.463 27.1754 25.254 27.1114 24.931L24.6374 14.531L22.1794 24.915C22.0994 25.237 22.0034 25.447 21.8764 25.56C21.7484 25.673 21.5254 25.721 21.2374 25.721H19.8644ZM40.3784 26.156C39.5484 26.156 38.7184 26.059 37.9204 25.866C37.1224 25.673 36.4994 25.463 36.0844 25.221C35.8294 25.076 35.6534 24.915 35.5894 24.77C35.5254 24.625 35.4934 24.464 35.4934 24.319V23.497C35.4934 23.158 35.6214 22.997 35.8604 22.997C35.9564 22.997 36.0524 23.013 36.1474 23.045C36.2434 23.077 36.3864 23.142 36.5464 23.206C37.0894 23.448 37.6794 23.641 38.3024 23.77C38.9414 23.899 39.5634 23.963 40.2024 23.963C41.2084 23.963 41.9904 23.786 42.5334 23.431C43.0764 23.076 43.3634 22.56 43.3634 21.899C43.3634 21.448 43.2194 21.077 42.9324 20.77C42.6454 20.464 42.1024 20.19 41.3204 19.932L39.0054 19.206C37.8404 18.835 36.9784 18.287 36.4514 17.561C35.9244 16.852 35.6534 16.062 35.6534 15.223C35.6534 14.546 35.7974 13.949 36.0844 13.433C36.3714 12.917 36.7554 12.466 37.2334 12.111C37.7124 11.74 38.2554 11.466 38.8934 11.273C39.5324 11.081 40.2024 11 40.9054 11C41.2564 11 41.6234 11.016 41.9754 11.064C42.3424 11.112 42.6774 11.177 43.0134 11.241C43.3324 11.322 43.6364 11.402 43.9234 11.499C44.2104 11.596 44.4344 11.692 44.5944 11.789C44.8184 11.918 44.9774 12.047 45.0734 12.192C45.1694 12.321 45.2174 12.498 45.2174 12.724V13.482C45.2174 13.821 45.0894 13.998 44.8504 13.998C44.7224 13.998 44.5154 13.934 44.2434 13.805C43.3334 13.386 42.3114 13.176 41.1784 13.176C40.2684 13.176 39.5504 13.321 39.0554 13.627C38.5604 13.933 38.3054 14.401 38.3054 15.062C38.3054 15.513 38.4654 15.9 38.7844 16.207C39.1034 16.513 39.6944 16.82 40.5404 17.094L42.8074 17.82C43.9564 18.191 44.7874 18.707 45.2814 19.368C45.7754 20.029 46.0154 20.787 46.0154 21.625C46.0154 22.318 45.8714 22.947 45.6004 23.495C45.3134 24.043 44.9294 24.527 44.4354 24.914C43.9404 25.317 43.3494 25.607 42.6634 25.817C41.9424 26.043 41.1924 26.156 40.3784 26.156Z" fill="#AAAAAA"/>
<path d="M43.3967 33.9937C38.1447 37.9117 30.5137 39.9917 23.9517 39.9917C14.7567 39.9917 6.47071 36.5577 0.212709 30.8497C-0.282291 30.3987 0.164709 29.7857 0.755709 30.1407C7.52471 34.1067 15.8737 36.5097 24.5107 36.5097C30.3377 36.5097 36.7397 35.2847 42.6297 32.7687C43.5087 32.3657 44.2587 33.3487 43.3967 33.9937ZM45.5837 31.4787C44.9127 30.6077 41.1457 31.0597 39.4377 31.2687C38.9267 31.3327 38.8467 30.8817 39.3097 30.5427C42.3107 28.4147 47.2437 29.0267 47.8187 29.7367C48.3937 30.4627 47.6587 35.4447 44.8497 37.8307C44.4187 38.2017 44.0037 38.0077 44.1947 37.5247C44.8337 35.9287 46.2547 32.3327 45.5837 31.4787Z" fill="#D4D4D4"/>
</g>
<defs>
<clipPath id="clip0_2280_6215">
<rect width="48" height="48" fill="white"/>
</clipPath>
</defs>
</svg>
