<svg width="117" height="35" viewBox="0 0 117 35" fill="none" xmlns="http://www.w3.org/2000/svg">
<g clip-path="url(#clip0_2271_14826)">
<path d="M43.9492 15.1531V21.7031H41.6992V15.1531H40.1992V13.3031H41.6992V12.5031C41.6992 10.6531 42.8492 9.20312 45.1492 9.20312C45.8492 9.20312 46.3492 9.35313 46.7492 9.50313L46.4992 11.3531C46.1492 11.2031 45.7492 11.1531 45.3992 11.1531C44.4992 11.1531 43.8492 11.5531 43.8492 12.6531V13.3531H46.2492V15.2031H43.9492V15.1531Z" fill="white"/>
<path d="M47.6992 18.6047V13.3047H49.9492V18.0547C49.9492 19.2047 50.6992 19.8547 51.6992 19.8547C52.6992 19.8547 53.5992 19.2547 53.5992 18.0547V13.3047H55.8492V21.7047H53.6992L53.6492 20.7547C53.1992 21.3547 52.2992 21.9047 51.0492 21.9047C49.0992 21.9047 47.6992 20.6547 47.6992 18.6047Z" fill="white"/>
<path d="M65.4984 16.4016V21.7016H63.2484V17.0016C63.2484 15.8516 62.4984 15.2016 61.4984 15.2016C60.4984 15.2016 59.6484 15.8516 59.6484 17.0016V21.7016H57.3984V13.3016H59.5484L59.5984 14.2516C60.0484 13.6516 60.9484 13.1016 62.1984 13.1016C64.1484 13.1016 65.4984 14.4016 65.4984 16.4016Z" fill="white"/>
<path d="M71.25 13.1016C72.3 13.1016 73.2 13.3516 73.9 13.6516L73.7 15.6016C73.1 15.3516 72.3 15.1516 71.5 15.1516C69.95 15.1516 68.8 15.9516 68.8 17.4516C68.8 18.9016 69.9 19.8016 71.45 19.8016C72.3 19.8016 73.05 19.6016 73.75 19.2516L74 21.2516C73.1 21.6516 72.3 21.8516 71.25 21.8516C68.5 21.8516 66.5 20.0516 66.5 17.4516C66.55 14.7516 68.55 13.1016 71.25 13.1016Z" fill="white"/>
<path d="M78.65 15.1547V18.6047C78.65 19.5047 79.15 19.8547 79.9 19.8547C80.3 19.8547 80.85 19.8047 81.35 19.6547L81.55 21.5047C81.05 21.7047 80.2 21.8547 79.5 21.8547C77.65 21.8547 76.4 20.9047 76.4 18.9047V15.1047H75V13.2547H76.45V10.5547H78.65V13.2547H81.1V15.1047H78.65V15.1547Z" fill="white"/>
<path d="M82.7969 10.6047C82.7969 9.85469 83.3469 9.30469 84.0969 9.30469C84.8469 9.30469 85.3969 9.85469 85.3969 10.6047C85.3969 11.3547 84.8469 11.9047 84.0969 11.9047C83.2969 11.8547 82.7969 11.3547 82.7969 10.6047ZM82.9469 21.7047V13.3047H85.1969V21.7047H82.9469Z" fill="white"/>
<path d="M90.7969 13.1016C93.3969 13.1016 95.2969 15.0016 95.2969 17.5016C95.2969 20.0016 93.3969 21.9016 90.7969 21.9016C88.1969 21.9016 86.2969 20.0016 86.2969 17.5016C86.2969 15.0016 88.2469 13.1016 90.7969 13.1016ZM90.7969 19.8516C92.0969 19.8516 93.0469 18.8516 93.0469 17.5016C93.0469 16.1516 92.0969 15.1516 90.7969 15.1516C89.4969 15.1516 88.5469 16.1516 88.5469 17.5016C88.5469 18.8516 89.4969 19.8516 90.7969 19.8516Z" fill="white"/>
<path d="M104.498 16.4016V21.7016H102.248V17.0016C102.248 15.8516 101.498 15.2016 100.498 15.2016C99.4984 15.2016 98.6484 15.8516 98.6484 17.0016V21.7016H96.3984V13.3016H98.5484L98.5984 14.2516C99.0484 13.6516 99.9484 13.1016 101.198 13.1016C103.148 13.1016 104.498 14.4016 104.498 16.4016Z" fill="white"/>
<path d="M111.047 20.6016C110.547 21.3516 109.497 21.9016 108.347 21.9016C106.747 21.9016 105.547 20.9516 105.547 19.4016C105.547 17.6516 107.047 16.8016 109.347 16.8016C109.997 16.8016 110.597 16.9016 110.997 17.0016V16.6016C110.997 15.5016 110.297 15.1016 108.997 15.1016C107.997 15.1016 106.847 15.4016 106.247 15.7516L106.047 13.8516C106.647 13.5016 107.947 13.1016 109.297 13.1016C111.847 13.1016 113.247 14.1516 113.247 16.4016V21.6516H111.097L111.047 20.6016ZM110.947 18.6516V18.3016C110.597 18.2016 110.097 18.1016 109.497 18.1016C108.497 18.1016 107.797 18.4516 107.797 19.1516C107.797 19.8016 108.347 20.1516 109.097 20.1516C109.997 20.1516 110.897 19.6016 110.947 18.6516Z" fill="white"/>
<path d="M117 21.7016H114.75V9.35156H117V21.7016Z" fill="white"/>
<path d="M51.5492 27.9047H50.3492V26.8547H52.8492V29.4047C52.2492 29.7047 51.4492 29.9547 50.7492 29.9547C50.1492 29.9547 49.5992 29.8547 49.1492 29.6047C48.2492 29.1547 47.6992 28.3047 47.6992 27.2547C47.6992 25.4547 49.1992 24.5547 50.7992 24.5547C51.3992 24.5547 51.9992 24.6547 52.5492 24.9047L52.4992 26.0047C52.0492 25.8047 51.4992 25.6547 50.9492 25.6547C49.9492 25.6547 49.0492 26.1047 49.0492 27.2047C49.0492 28.2047 49.7492 28.7547 50.7492 28.7547C50.9992 28.7547 51.3992 28.7047 51.5992 28.6047V27.9047H51.5492Z" fill="white"/>
<path d="M53.6016 24.6562H54.8516V27.9563C54.8516 28.6063 55.3016 28.9062 55.9016 28.9062C56.5016 28.9062 56.9516 28.6063 56.9516 27.9563V24.6562H58.2016V28.0063C58.2016 29.4063 57.1016 29.9563 55.9016 29.9563C54.6016 29.9563 53.6016 29.3063 53.6016 28.0063V24.6562Z" fill="white"/>
<path d="M60.3 25.7016H58.75V24.6016H63.1V25.7016H61.55V29.8516H60.3V25.7016Z" fill="white"/>
<path d="M68.3 24.5547C68.85 24.5547 69.45 24.6547 69.95 24.9047L69.85 26.0047C69.45 25.8047 68.95 25.7047 68.45 25.7047C67.45 25.7047 66.55 26.1547 66.55 27.2547C66.55 28.2547 67.3 28.8547 68.35 28.8547C68.9 28.8547 69.45 28.7547 69.9 28.4547L70.05 29.5047C69.45 29.8047 68.85 29.9547 68.15 29.9547C66.6 29.9547 65.25 28.9047 65.25 27.2547C65.25 25.4547 66.7 24.5547 68.3 24.5547Z" fill="white"/>
<path d="M74.65 29.8563H70.75V24.6562H72V28.8062H74.65V29.8563Z" fill="white"/>
<path d="M76.5 29.8563H75.25V24.6562H76.5V29.8563Z" fill="white"/>
<path d="M78.6992 29.8563H77.4492V24.6562H78.5492L81.2492 27.8563V24.6562H82.4992V29.9062H81.3992L78.7492 26.7563V29.8563H78.6992Z" fill="white"/>
<path d="M84.6992 29.8563H83.4492V24.6562H84.6992V29.8563Z" fill="white"/>
<path d="M88.4484 24.5547C88.9984 24.5547 89.5984 24.6547 90.0984 24.9047L89.9984 26.0047C89.5984 25.8047 89.0984 25.7047 88.5984 25.7047C87.5984 25.7047 86.6984 26.1547 86.6984 27.2547C86.6984 28.2547 87.4484 28.8547 88.4984 28.8547C89.0484 28.8547 89.5984 28.7547 90.0484 28.4547L90.1984 29.5047C89.5984 29.8047 88.9984 29.9547 88.2984 29.9547C86.7484 29.9547 85.3984 28.9047 85.3984 27.2547C85.4484 25.4547 86.8984 24.5547 88.4484 24.5547Z" fill="white"/>
<path d="M25.9523 22.4062H22.8523V20.7063H30.5523C31.3023 20.7063 31.9023 20.1063 31.9023 19.3563V15.3063C31.9023 14.5563 31.3023 13.9563 30.5523 13.9563H27.4023V12.1063H32.6023C33.3523 12.1063 33.9523 11.5063 33.9523 10.7563V6.30625C33.9523 5.55625 33.3523 4.95625 32.6023 4.95625H22.8523V3.60625H26.2023C26.9523 3.60625 27.5523 3.00625 27.5523 2.25625C27.5523 1.50625 26.9523 0.90625 26.2023 0.90625H21.5023C20.7523 0.90625 20.1523 1.50625 20.1523 2.25625V6.25625C20.1523 7.00625 20.7523 7.60625 21.5023 7.60625H31.2523V9.35625H26.0523C25.3023 9.35625 24.7023 9.95625 24.7023 10.7063V15.2563C24.7023 16.0063 25.3023 16.6063 26.0523 16.6063H29.2023V18.0063H21.5023C20.7523 18.0063 20.1523 18.6063 20.1523 19.3563V23.7563C20.1523 24.5063 20.7523 25.1063 21.5023 25.1063H24.6023V26.8062H21.5023C20.7523 26.8062 20.1523 27.4062 20.1523 28.1562V32.6563C20.1523 33.4063 20.7523 34.0062 21.5023 34.0062H25.8523C26.6023 34.0062 27.2023 33.4063 27.2023 32.6563C27.2023 31.9063 26.6023 31.3062 25.8523 31.3062H22.8523V29.5063H25.9523C26.7023 29.5063 27.3023 28.9062 27.3023 28.1562V23.7563C27.3023 23.0063 26.7023 22.4062 25.9523 22.4062Z" fill="white"/>
<path d="M34.8484 14.0547C34.0984 14.0547 33.4984 14.6547 33.4984 15.4047V22.4047H30.2484C29.4984 22.4047 28.8984 23.0047 28.8984 23.7547V29.2547C28.8984 30.0047 29.4984 30.6047 30.2484 30.6047C30.9984 30.6047 31.5984 30.0047 31.5984 29.2547V25.1047H34.8484C35.5984 25.1047 36.1984 24.5047 36.1984 23.7547V15.4047C36.2484 14.6547 35.5984 14.0547 34.8484 14.0547Z" fill="white"/>
<path d="M21.5013 16.9078C22.2513 16.9078 22.8513 16.3078 22.8513 15.5578V10.1078C22.8513 9.35781 22.2513 8.75781 21.5013 8.75781C20.7513 8.75781 20.1513 9.35781 20.1513 10.1078V15.5578C20.1013 16.3078 20.7013 16.9078 21.5013 16.9078Z" fill="white"/>
<path d="M18.2502 17.4531C18.2502 17.4531 19.9502 10.7531 18.0002 5.35313C18.0002 5.35313 19.7002 0.203125 13.7002 0.203125C7.65016 0.203125 8.05016 4.10312 8.05016 4.10312C8.05016 4.10312 3.90016 3.80312 3.90016 8.45312C3.90016 8.45312 -0.14984 8.65312 0.000159866 16.3531C0.15016 24.0531 2.90016 21.7031 2.85016 22.9531C2.80016 24.2031 2.20016 30.4531 5.05016 30.4531C7.90016 30.4531 8.05016 30.5031 8.05016 31.3531C8.05016 32.2031 8.70016 34.8031 13.5002 34.8031C18.3002 34.8031 18.2502 34.3031 18.2502 25.6531C18.2502 25.6031 19.8502 21.6531 18.2502 17.4531ZM10.6502 2.70312H15.2002C15.6002 2.70312 15.9502 3.05312 15.9502 3.45312C15.9502 3.85313 15.6002 4.20312 15.2002 4.20312H10.6502C10.2502 4.20312 9.90016 3.85313 9.90016 3.45312C9.95016 3.05312 10.2502 2.70312 10.6502 2.70312ZM6.30016 6.70312C6.30016 6.30312 6.65016 5.95312 7.05016 5.95312C7.45016 5.95312 7.80016 6.30312 7.80016 6.70312V14.8531H15.0002V12.6031H12.2502C11.8502 12.6031 11.5002 12.2531 11.5002 11.8531C11.5002 11.4531 11.8502 11.1031 12.2502 11.1031H15.0002V8.50313H10.6502C10.2502 8.50313 9.90016 8.15313 9.90016 7.75313C9.90016 7.35313 10.2502 7.00313 10.6502 7.00313H15.7002C16.1002 7.00313 16.4502 7.35313 16.4502 7.75313V15.6031C16.4502 16.0031 16.1002 16.3531 15.7002 16.3531H7.00016C6.60016 16.3531 6.25016 16.0031 6.25016 15.6031V6.70312H6.30016ZM3.30016 20.5531C2.90016 20.5531 2.55016 20.2031 2.55016 19.8031V11.9031C2.55016 11.5031 2.90016 11.1531 3.30016 11.1531C3.70016 11.1531 4.00016 11.5031 4.00016 11.9031V19.1031H7.70016C8.10016 19.1031 8.45016 19.4531 8.45016 19.8531C8.45016 20.2531 8.10016 20.6031 7.70016 20.6031H3.30016V20.5531ZM15.5502 32.4031H10.9502C10.5502 32.4031 10.2002 32.0531 10.2002 31.6531C10.2002 31.2531 10.5502 30.9031 10.9502 30.9031H15.5502C15.9502 30.9031 16.3002 31.2531 16.3002 31.6531C16.2502 32.0531 15.9502 32.4031 15.5502 32.4031ZM16.6502 23.9531C16.6502 24.3531 16.3002 24.7031 15.9002 24.7031H6.75016V26.7531H14.7502C15.1502 26.7531 15.5002 27.1031 15.5002 27.5031C15.5002 27.9031 15.1502 28.2531 14.7502 28.2531H6.05016C5.65016 28.2531 5.30016 27.9031 5.30016 27.5031V23.9531C5.30016 23.5531 5.65016 23.2031 6.05016 23.2031H15.2002V20.5531H11.5002C11.1002 20.5531 10.7502 20.2031 10.7502 19.8031C10.7502 19.4031 11.1002 19.0531 11.5002 19.0531H15.9502C16.3502 19.0531 16.7002 19.4031 16.7002 19.8031V23.9531H16.6502Z" fill="white"/>
</g>
<defs>
<clipPath id="clip0_2271_14826">
<rect width="117" height="35" fill="white"/>
</clipPath>
</defs>
</svg>
