<svg width="125" height="40" viewBox="0 0 125 40" fill="none" xmlns="http://www.w3.org/2000/svg">
<circle cx="19.8689" cy="20.1033" r="18.6767" stroke="white" stroke-width="2.38427"/>
<path d="M23.6908 27.0181L24.2391 28.3138C22.9025 30.9051 20.3663 32.269 18.07 32.269C15.0883 32.269 14.9169 30.6324 15.6367 28.2456C16.5278 25.2792 17.8644 20.8807 18.5156 18.6303L16.1165 18.4257L16.6306 17.3347H18.9269C19.4409 15.7321 19.8522 14.2659 20.1264 13.2089C21.5659 13.0385 23.4851 12.7316 24.479 12.3906C24.2049 13.1067 23.3823 15.4934 22.7997 17.3347H26.3983L25.85 18.4257L22.4227 18.6303C21.8058 20.5056 19.7494 27.2909 19.2353 29.5413C19.0639 30.2914 19.1668 30.7006 19.8522 30.7006C21.2574 30.7006 23.0396 28.6889 23.6908 27.0181Z" fill="white"/>
<path d="M17.817 12.5162C17.817 13.2042 17.5422 13.8641 17.0532 14.3506C16.5642 14.8372 15.9009 15.1105 15.2093 15.1105C14.5177 15.1105 13.8544 14.8372 13.3653 14.3506C12.8763 13.8641 12.6016 13.2042 12.6016 12.5162C12.6016 11.8281 12.8763 11.1683 13.3653 10.6817C13.8544 10.1952 14.5177 9.92188 15.2093 9.92188C15.9009 9.92188 16.5642 10.1952 17.0532 10.6817C17.5422 11.1683 17.817 11.8281 17.817 12.5162Z" fill="white"/>
<path d="M51.3672 25.4324V15.0551H52.9318V25.4324H51.3672ZM58.6695 25.4324V16.4338H55.0038V15.0551H63.8998V16.4338H60.2341V25.4324H58.6695ZM69.8134 25.4324V15.0551H71.9145L75.1778 21.6966L78.4412 15.0551H80.5274V25.4324H79.0521V16.9527L75.1629 24.6911L71.2737 16.9527V25.4324H69.8134ZM86.8503 25.5658C86.1052 25.5658 85.4295 25.3927 84.8237 25.0469C84.2277 24.7011 83.7509 24.2316 83.3932 23.6386C83.0453 23.0456 82.8717 22.3833 82.8717 21.6521C82.8717 20.9305 83.0404 20.2782 83.3783 19.6952C83.7038 19.1147 84.1764 18.6291 84.7492 18.2869C85.3252 17.9311 85.9659 17.7532 86.6715 17.7532C87.3767 17.7532 88.0025 17.9311 88.549 18.2869C89.0952 18.6327 89.5273 19.1071 89.8454 19.71C90.1733 20.303 90.3372 20.975 90.3372 21.7262V22.1413H84.3618C84.4344 22.5404 84.5919 22.9195 84.8237 23.2531C85.0578 23.5755 85.3638 23.8394 85.7178 24.024C86.0865 24.2121 86.4955 24.3088 86.9099 24.3057C87.2772 24.3057 87.63 24.2512 87.9679 24.1426C88.3155 24.024 88.6034 23.8561 88.8322 23.6386L89.7858 24.5725C89.3388 24.9087 88.8769 25.1607 88.4 25.3286C87.9329 25.4868 87.4166 25.5658 86.8503 25.5658ZM84.3767 21.0294H88.862C88.8024 20.634 88.663 20.2882 88.4447 19.9917C88.2447 19.6931 87.9734 19.4486 87.655 19.2801C87.3474 19.1024 86.9974 19.0102 86.6417 19.0133C86.2784 19.0098 85.9199 19.0964 85.5986 19.2653C85.2776 19.4358 85.0018 19.6797 84.7939 19.9769C84.5853 20.2734 84.446 20.6244 84.3767 21.0294ZM96.0175 25.551C95.312 25.551 94.6664 25.3779 94.0804 25.0321C93.5039 24.6961 93.0261 24.2157 92.6946 23.6386C92.3567 23.0456 92.1879 22.3833 92.1879 21.6521C92.1879 20.9209 92.3567 20.2634 92.6946 19.6804C93.0345 19.1048 93.5167 18.6251 94.0953 18.2869C94.6813 17.9411 95.3321 17.768 96.0473 17.768C96.4646 17.768 96.8669 17.8321 97.2543 17.9607C97.6418 18.0893 97.9994 18.2769 98.3272 18.5241V15.0551L99.8173 14.7734V25.4324H98.3421V24.706C97.6962 25.2693 96.9213 25.551 96.0175 25.551ZM96.2112 24.2612C96.6482 24.2612 97.0457 24.1823 97.4033 24.024C97.7613 23.8728 98.078 23.6391 98.3272 23.3421V19.9472C98.0787 19.6704 97.7707 19.4532 97.4033 19.295C97.0457 19.1271 96.6482 19.0429 96.2112 19.0429C95.7344 19.0429 95.3023 19.1567 94.9148 19.3839C94.5296 19.6089 94.2109 19.9311 93.991 20.3179C93.7622 20.7033 93.6482 21.1432 93.6482 21.6373C93.6482 22.1313 93.7622 22.576 93.991 22.9715C94.2132 23.3605 94.5311 23.6869 94.9148 23.9203C95.3023 24.1474 95.7344 24.2612 96.2112 24.2612ZM102.327 25.4324V17.8866H103.817V25.4324H102.327ZM103.072 16.671C102.824 16.671 102.61 16.582 102.431 16.4041C102.252 16.2162 102.163 15.9991 102.163 15.7519C102.163 15.495 102.252 15.2823 102.431 15.1144C102.61 14.9365 102.824 14.8476 103.072 14.8476C103.33 14.8476 103.549 14.9365 103.727 15.1144C103.906 15.2823 103.996 15.495 103.996 15.7519C103.996 15.9991 103.906 16.2162 103.727 16.4041C103.549 16.582 103.33 16.671 103.072 16.671ZM109.878 25.5658C109.153 25.5658 108.492 25.3927 107.896 25.0469C107.309 24.7091 106.82 24.2234 106.481 23.6386C106.143 23.0456 105.974 22.3833 105.974 21.6521C105.974 20.9209 106.148 20.2634 106.496 19.6804C106.833 19.0985 107.315 18.6133 107.896 18.2721C108.492 17.9163 109.153 17.7384 109.878 17.7384C110.455 17.7384 111.006 17.847 111.532 18.0645C112.053 18.2718 112.525 18.5848 112.918 18.9836L111.994 20.0065C111.706 19.6904 111.383 19.4532 111.026 19.295C110.674 19.1381 110.293 19.0573 109.908 19.0578C109.467 19.0535 109.034 19.1716 108.656 19.3987C108.289 19.6259 107.996 19.9372 107.777 20.3327C107.559 20.7281 107.449 21.1677 107.449 21.6521C107.449 22.1365 107.559 22.576 107.777 22.9715C107.988 23.3589 108.296 23.6856 108.671 23.9203C109.049 24.1474 109.471 24.2612 109.938 24.2612C110.325 24.2612 110.688 24.1871 111.026 24.0389C111.364 23.8806 111.681 23.6534 111.979 23.3569L112.888 24.3057C112.495 24.708 112.024 25.0259 111.502 25.2396C110.989 25.4566 110.436 25.5675 109.878 25.5658ZM117.232 25.5658C116.685 25.5658 116.204 25.472 115.787 25.2841C115.369 25.0866 115.042 24.8146 114.803 24.4688C114.565 24.123 114.445 23.7227 114.445 23.268C114.445 22.5564 114.719 21.9979 115.265 21.5928C115.811 21.1777 116.561 20.9701 117.515 20.9701C118.26 20.9701 118.95 21.1136 119.586 21.4001V20.5995C119.586 20.0558 119.427 19.6508 119.11 19.3839C118.801 19.1171 118.344 18.9836 117.739 18.9836C117.391 18.9836 117.028 19.0381 116.651 19.1467C116.273 19.2457 115.851 19.4035 115.384 19.6211L114.833 18.5093C115.409 18.2424 115.945 18.0497 116.442 17.9311C116.934 17.8033 117.439 17.7385 117.947 17.7384C118.931 17.7384 119.691 17.9707 120.227 18.4351C120.773 18.8995 121.047 19.5618 121.047 20.4216V25.4324H119.586V24.7801C119.262 25.0398 118.893 25.2405 118.499 25.3731C118.111 25.5017 117.689 25.5658 117.232 25.5658ZM115.876 23.2383C115.876 23.6041 116.03 23.9006 116.338 24.1278C116.656 24.3453 117.068 24.4539 117.575 24.4539C117.972 24.4539 118.335 24.3995 118.663 24.2909C119.004 24.1702 119.318 23.9838 119.586 23.7424V22.4674C119.304 22.3018 118.997 22.1817 118.677 22.1116C118.369 22.0327 118.022 21.993 117.634 21.993C117.088 21.993 116.656 22.1068 116.338 22.334C116.03 22.5516 115.876 22.8529 115.876 23.2383ZM123.509 25.4324V15.0551L124.999 14.7734V25.4324H123.509Z" fill="white"/>
</svg>
