<svg width="107" height="35" viewBox="0 0 107 35" fill="none" xmlns="http://www.w3.org/2000/svg">
<path fill-rule="evenodd" clip-rule="evenodd" d="M73.3076 3.07073C73.596 3.07073 74.214 3.13203 74.6883 3.23496L74.3995 0.792082C73.8641 0.689152 73.3696 0.648438 72.8338 0.648438C70.4647 0.648438 69.1667 1.92111 69.1047 4.71303H65.5611V4.36353C65.5611 3.3786 66.0556 3.07073 67.1479 3.07073C67.4362 3.07073 68.0542 3.13203 68.528 3.23496L68.2397 0.792082C67.7039 0.689152 67.2094 0.648438 66.674 0.648438C64.3044 0.648438 63.0064 1.92111 62.9449 4.71303H61.9973L61.5234 7.11474H62.9449V15.3254H65.5611V7.11474H69.1047V15.3254H71.7213V7.11474H74.5234V4.71303H71.7213V4.36353C71.7213 3.3786 72.2158 3.07073 73.3076 3.07073Z" fill="white"/>
<path fill-rule="evenodd" clip-rule="evenodd" d="M58.1249 11.9572C57.7746 12.47 56.8683 13.1475 55.7558 13.1475C54.849 13.1475 53.9013 12.8603 53.9013 11.218V4.71094H51.2852V11.7925C51.2852 14.5026 53.0156 15.5282 55.22 15.5282C56.7241 15.5282 57.6718 14.8919 58.1869 14.4815V15.3233H60.7415V4.71094H58.1249V11.9572Z" fill="white"/>
<path fill-rule="evenodd" clip-rule="evenodd" d="M75.6172 15.3228H78.2338V4.71094H75.6172V15.3228Z" fill="white"/>
<path fill-rule="evenodd" clip-rule="evenodd" d="M82.1262 10.1941C82.0647 8.42876 83.1152 6.78646 85.2989 6.78646C86.185 6.78646 86.8645 7.21785 87.1327 7.91549L82.1262 10.1941ZM85.2373 4.50781C81.7966 4.50781 79.4688 6.95069 79.4688 10.153C79.4688 13.0679 81.3847 15.5726 85.1547 15.5726C86.9265 15.5726 88.348 15.1206 89.8108 14.2793L89.0073 12.0213C87.8126 12.8218 86.7204 13.2733 85.3609 13.2733C84.2897 13.2733 83.4449 13.0268 82.8269 12.3493L90.1409 9.02393C89.6253 6.00648 87.9775 4.50781 85.2373 4.50781Z" fill="white"/>
<path fill-rule="evenodd" clip-rule="evenodd" d="M103.243 11.8361C102.563 12.5337 101.657 13.1289 100.38 13.1289C98.5051 13.1289 97.7222 11.6719 97.7222 10.0913C97.7222 8.3049 98.6699 6.90962 100.524 6.90962C101.719 6.90962 102.667 7.54596 103.243 8.3049V11.8361ZM103.243 5.45168C102.728 5.04133 101.801 4.50746 100.318 4.50746C97.3306 4.50746 95.0234 6.58116 95.0234 9.98884C95.0234 13.827 97.3719 15.5306 99.9059 15.5306C101.534 15.5306 102.563 15.0178 103.285 14.3608V15.3252H105.86V0.8125L103.243 1.14142V5.45168Z" fill="white"/>
<path fill-rule="evenodd" clip-rule="evenodd" d="M91.1719 15.3252H93.7885V0.8125L91.1719 1.14096V15.3252Z" fill="white"/>
<path fill-rule="evenodd" clip-rule="evenodd" d="M80.5381 28.3399V24.5837H83.2782V22.182H80.5381V19.1641L77.9215 19.4925V22.182H76.9743L76.5 24.5837H77.9215V28.7503C77.9215 31.5829 78.6635 32.9585 81.7126 32.9585C82.0836 32.9585 82.6809 32.9174 83.1754 32.8149L83.4844 30.3313C83.0312 30.4749 82.4132 30.5362 82.0836 30.5362C80.8678 30.5362 80.5381 30.2082 80.5381 28.3399Z" fill="white"/>
<path fill-rule="evenodd" clip-rule="evenodd" d="M73.125 32.7939H75.7416V18.2812L73.125 18.6097V32.7939Z" fill="white"/>
<path fill-rule="evenodd" clip-rule="evenodd" d="M90.0781 21.9762C88.7186 21.9762 87.7916 22.4071 87.1318 22.8797V18.2812L84.5156 18.6097V32.7939H87.1318V25.5069C87.5648 24.9735 88.4096 24.3573 89.4187 24.3573C90.3457 24.3573 91.3761 24.5833 91.3761 26.205V32.7939H93.9927V25.8354C93.9927 22.9204 91.9734 21.9762 90.0781 21.9762Z" fill="white"/>
<path fill-rule="evenodd" clip-rule="evenodd" d="M68.9611 29.6336C68.7348 29.8592 67.7458 30.6803 66.283 30.6803C65.0672 30.6803 64.5731 30.0852 64.5731 29.4077C64.5731 28.5252 65.0878 28.0526 66.53 28.0526C67.5603 28.0526 68.5901 28.4429 68.9611 28.71V29.6336ZM67.0245 21.9766C65.7885 21.9766 64.5318 22.2026 63.4395 22.5928L62.9248 25.0558C63.8105 24.6454 65.2733 24.214 66.592 24.214C68.137 24.214 68.9611 24.7067 68.9611 25.9794V26.4515C68.0961 26 67.1273 25.8358 66.1595 25.8358C63.7696 25.8358 61.8945 26.8829 61.8945 29.3866C61.8945 31.3167 63.316 32.9997 65.8091 32.9997C67.5396 32.9997 68.5286 32.3226 69.0024 31.8505V32.7943H71.5777V26.349C71.5777 23.988 70.7329 21.9766 67.0245 21.9766Z" fill="white"/>
<path fill-rule="evenodd" clip-rule="evenodd" d="M46.8548 24.1082H40.5297V18.4219H37.8516V32.7909H40.5297V26.6741H46.8548V32.7909H49.5334V18.4219H46.8548V24.1082Z" fill="white"/>
<path fill-rule="evenodd" clip-rule="evenodd" d="M53.49 27.6629C53.428 25.8975 54.4785 24.2552 56.6626 24.2552C57.5487 24.2552 58.2283 24.6866 58.4964 25.3842L53.49 27.6629ZM56.6006 21.9766C53.1603 21.9766 50.832 24.4194 50.832 27.6217C50.832 30.5367 52.748 33.0413 56.5184 33.0413C58.2902 33.0413 59.7117 32.5893 61.1745 31.7481L60.3711 29.49C59.1764 30.2906 58.0841 30.7421 56.7246 30.7421C55.653 30.7421 54.8086 30.4955 54.1902 29.818L61.5042 26.4927C60.9891 23.4752 59.3408 21.9766 56.6006 21.9766Z" fill="white"/>
<path fill-rule="evenodd" clip-rule="evenodd" d="M29.1191 18.4953H18.025V33.1709C17.9266 33.2093 17.8208 33.2534 17.7262 33.289C16.9211 33.5845 15.794 33.9405 14.9945 34.1049C14.1955 33.9405 13.0684 33.5845 12.2699 33.2913C12.1729 33.2548 12.0648 33.2098 11.9636 33.1705V18.4953H0.870022V12.6582H11.9636V0.980809C11.9808 0.979404 12.0007 0.977999 12.0179 0.977062C13.1097 0.908209 14.0002 0.8787 14.9945 0.8787C15.9889 0.8787 16.8789 0.908209 17.967 0.976594C17.9856 0.977999 18.0064 0.979404 18.025 0.980809V12.6582H29.1191V18.4953ZM18.025 0.0992988C16.7499 0.019204 15.8316 0 14.9945 0C14.1579 0 13.2392 0.0196724 11.9636 0.0997671C9.0125 0.29977 4.30696 0.903993 0 2.59488V2.59582V12.6582V18.4953V19.2204V19.2298C0 19.3066 0.00464012 19.3806 0.00603215 19.4569C0.13874 28.3104 7.61583 32.4782 11.9636 34.1147V34.1138C11.9645 34.1143 11.965 34.1147 11.9659 34.1147C12.8425 34.4365 14.118 34.8389 14.9945 35C15.8715 34.8389 17.1466 34.4365 18.0236 34.1147C18.0236 34.1147 18.0245 34.1143 18.025 34.1143C22.3733 32.4777 29.8503 28.3104 29.9831 19.4569C29.9844 19.3806 29.9896 19.3066 29.9896 19.2298V19.2204V18.4953V12.6582V2.59582V2.59488C25.6821 0.903993 21.0165 0.299301 18.025 0.0992988Z" fill="white"/>
<path fill-rule="evenodd" clip-rule="evenodd" d="M75.2227 2.26611L76.9325 3.96972L78.6428 2.26611L76.9325 0.5625L75.2227 2.26611Z" fill="white"/>
<path fill-rule="evenodd" clip-rule="evenodd" d="M47.0811 9.47663L37.8516 0.546875V15.3263H40.509V6.9107L49.7391 15.7577V0.957223H47.0811V9.47663Z" fill="white"/>
</svg>
