<svg width="34" height="45" viewBox="0 0 34 45" fill="none" xmlns="http://www.w3.org/2000/svg">
<g id="Frame" clip-path="url(#clip0_2108_904)">
<g id="Group">
<path id="Vector" d="M9.66546 3.69643C9.66546 3.24107 9.65179 2.87946 9.66546 2.51786C9.70647 0.991071 10.7181 0 12.263 0C15.421 0 18.579 0 21.7507 0C23.2682 0 24.2799 0.964286 24.3345 2.46429C24.3482 2.85268 24.3345 3.22768 24.3345 3.68304C24.5669 3.68304 24.7447 3.68304 24.9224 3.68304C26.7953 3.68304 28.6819 3.68304 30.5549 3.68304C32.5782 3.69643 33.9727 5.03571 33.9727 7.01786C33.9863 18.5491 33.9863 30.0804 33.9727 41.6116C33.9727 43.6205 32.5645 44.9732 30.5139 44.9732C21.491 44.9732 12.468 44.9732 3.44511 44.9732C1.40812 45 0 43.6339 0 41.625C0 30.1071 0 18.5893 0 7.07143C0 5.02232 1.39445 3.69643 3.48613 3.69643C5.33172 3.69643 7.17732 3.69643 9.02292 3.69643C9.21431 3.69643 9.39204 3.69643 9.66546 3.69643ZM9.66546 5.33036C9.43305 5.31696 9.28267 5.30357 9.13229 5.30357C7.25935 5.30357 5.37274 5.30357 3.4998 5.30357C2.29674 5.30357 1.6542 5.91964 1.6542 7.09821C1.6542 18.5893 1.6542 30.0938 1.6542 41.5848C1.6542 42.75 2.32409 43.3929 3.48613 43.3929C12.4954 43.3929 21.491 43.3929 30.5002 43.3929C31.6896 43.3929 32.3595 42.7634 32.3595 41.6116C32.3595 30.0938 32.3595 18.5893 32.3595 7.07143C32.3595 5.94643 31.6896 5.31696 30.5412 5.30357C28.6683 5.30357 26.7817 5.30357 24.9087 5.30357C24.7447 5.30357 24.5806 5.31696 24.3482 5.33036C24.3482 5.73214 24.3619 6.09375 24.3482 6.45536C24.3072 7.99554 23.3229 8.95982 21.7644 8.97321C18.6064 8.98661 15.4483 8.98661 12.2766 8.97321C10.6908 8.97321 9.70647 7.99554 9.66546 6.42857C9.65179 6.08036 9.66546 5.71875 9.66546 5.33036ZM16.9932 7.36607C18.5517 7.36607 20.0965 7.36607 21.655 7.36607C22.4069 7.36607 22.6803 7.09821 22.694 6.375C22.7077 5.11607 22.7077 3.87054 22.694 2.61161C22.694 1.88839 22.3932 1.62054 21.655 1.62054C18.5517 1.62054 15.4347 1.62054 12.3313 1.62054C11.5931 1.62054 11.306 1.88839 11.306 2.61161C11.2923 3.87054 11.2923 5.11607 11.306 6.375C11.306 7.09821 11.5931 7.36607 12.345 7.36607C13.8898 7.36607 15.4483 7.36607 16.9932 7.36607Z" fill="#014898"/>
<path id="Vector_2" d="M12.2226 14.7746C12.5234 14.5871 12.7968 14.3996 13.0839 14.2121C13.6581 13.8371 14.1366 13.8772 14.4237 14.3192C14.6971 14.7344 14.5467 15.1763 14.0135 15.5379C13.494 15.8862 12.9472 16.2076 12.4414 16.5826C12.3047 16.6763 12.1953 16.8906 12.1816 17.0647C12.1406 17.5469 12.1816 18.029 12.1679 18.5246C12.1406 19.9174 11.1289 20.9353 9.72082 20.9754C8.36738 21.0022 7.01394 21.0022 5.67418 20.9754C4.26605 20.9487 3.26806 19.9308 3.24072 18.5647C3.22705 17.2656 3.22705 15.9531 3.24072 14.654C3.25439 13.3147 4.18403 12.3103 5.55114 12.2433C6.97293 12.1897 8.39472 12.1897 9.80284 12.2433C11.211 12.2835 11.9765 13.1272 12.2226 14.7746ZM8.95524 16.904C9.20132 16.7433 9.39271 16.5826 9.61145 16.4888C10.418 16.154 10.6641 15.5647 10.5411 14.7344C10.4591 14.1183 10.2266 13.8103 9.58411 13.8103C8.34004 13.7969 7.09597 13.7969 5.83823 13.8103C5.15467 13.8237 4.88125 14.1049 4.88125 14.7746C4.88125 15.9665 4.88125 17.1451 4.88125 18.3371C4.88125 19.0871 5.15467 19.3549 5.93393 19.3683C7.04128 19.3683 8.14864 19.3683 9.26967 19.3683C10.3907 19.3683 10.6778 19.0201 10.4727 17.8683C10.0489 18.1496 9.63879 18.4174 9.22866 18.6719C8.6408 19.0335 8.20333 18.9263 7.87522 18.3237C7.42407 17.5201 6.9866 16.7031 6.5628 15.8862C6.28937 15.3638 6.39874 14.9085 6.83622 14.6674C7.27369 14.4397 7.71117 14.6004 8.01193 15.1228C8.3127 15.7121 8.62713 16.2879 8.95524 16.904Z" fill="#014898"/>
<path id="Vector_3" d="M17.5271 26.0246C13.5078 26.0246 9.50217 26.0246 5.48287 26.0246C5.31881 26.0246 5.14109 26.0379 4.97704 26.0112C4.53956 25.9174 4.27981 25.6496 4.29348 25.1942C4.30715 24.7656 4.5669 24.5246 4.97704 24.4308C5.11375 24.404 5.25046 24.4174 5.38717 24.4174C13.4668 24.4174 21.5464 24.4174 29.626 24.4174C29.7627 24.4174 29.8994 24.404 30.0361 24.4308C30.4736 24.5112 30.7334 24.779 30.7334 25.221C30.7334 25.6763 30.4599 25.9308 30.0225 26.0112C29.8584 26.0379 29.6807 26.0246 29.5166 26.0246C25.5247 26.0246 21.5191 26.0246 17.5271 26.0246Z" fill="#014898"/>
<path id="Vector_4" d="M17.5129 34.058C21.5322 34.058 25.5378 34.058 29.5571 34.058C29.7075 34.058 29.8716 34.0446 30.022 34.0714C30.4594 34.1384 30.7329 34.3929 30.7465 34.8482C30.7602 35.2768 30.4594 35.6116 30.0083 35.6652C29.8716 35.6786 29.7349 35.6786 29.5982 35.6786C21.5459 35.6786 13.5073 35.6786 5.45501 35.6786C5.29096 35.6786 5.11323 35.692 4.94918 35.6518C4.53905 35.558 4.29297 35.2902 4.29297 34.8616C4.29297 34.433 4.55272 34.1786 4.96285 34.0848C5.12691 34.0446 5.30463 34.0714 5.46868 34.0714C9.47431 34.058 13.4936 34.058 17.5129 34.058Z" fill="#014898"/>
<path id="Vector_5" d="M13.2885 28.9278C15.9544 28.9278 18.6203 28.9278 21.2861 28.9278C21.6826 28.9278 22.038 28.9948 22.2294 29.3832C22.4618 29.8519 22.1884 30.3876 21.6553 30.5082C21.4912 30.5484 21.3135 30.535 21.1494 30.535C15.9271 30.535 10.691 30.535 5.46868 30.535C5.34564 30.535 5.2226 30.535 5.11323 30.535C4.62108 30.4948 4.29297 30.1734 4.29297 29.7314C4.29297 29.276 4.63475 28.9412 5.15425 28.9278C6.11122 28.9144 7.0682 28.9278 8.02518 28.9278C9.77508 28.9278 11.5386 28.9278 13.2885 28.9278Z" fill="#014898"/>
<path id="Vector_6" d="M13.3022 38.572C15.8997 38.572 18.4972 38.572 21.0947 38.572C21.2451 38.572 21.4092 38.5586 21.5596 38.572C22.0107 38.6122 22.3388 38.947 22.3251 39.3622C22.3115 39.8041 22.0517 40.072 21.6142 40.1523C21.4502 40.1791 21.2725 40.1657 21.1084 40.1657C15.9134 40.1657 10.7184 40.1657 5.52337 40.1657C5.49603 40.1657 5.45501 40.1657 5.42767 40.1657C4.68943 40.1657 4.30664 39.8845 4.30664 39.3622C4.30664 38.8398 4.67576 38.5586 5.42767 38.5586C8.03885 38.572 10.6637 38.572 13.3022 38.572Z" fill="#014898"/>
<path id="Vector_7" d="M23.2554 13.5391C25.4291 13.5391 27.5892 13.5391 29.7629 13.5391C30.2003 13.5391 30.5421 13.6596 30.7062 14.0748C30.8702 14.5033 30.6105 14.9721 30.1457 15.0926C29.9543 15.1462 29.7355 15.1462 29.5441 15.1462C25.3471 15.1462 21.1364 15.1462 16.9394 15.1462C16.8437 15.1462 16.7343 15.1462 16.6386 15.1462C16.0781 15.106 15.7227 14.7846 15.7227 14.3158C15.7363 13.8471 16.0781 13.5391 16.666 13.5391C18.8397 13.5391 21.0544 13.5391 23.2554 13.5391Z" fill="#014898"/>
<path id="Vector_8" d="M20.9846 18.0402C22.4201 18.0402 23.8555 18.0268 25.291 18.0402C25.8378 18.0402 26.1796 18.3616 26.1933 18.8036C26.207 19.2723 25.8515 19.5938 25.3047 19.6339C25.1816 19.6473 25.0723 19.6339 24.9492 19.6339C23.9786 19.6339 23.0079 19.6339 22.0236 19.6339C20.3284 19.6339 18.6469 19.6339 16.9516 19.6339C16.7602 19.6339 16.5689 19.6339 16.3911 19.6071C15.94 19.5402 15.6939 19.2455 15.7076 18.8036C15.7212 18.375 15.981 18.067 16.4458 18.0402C17.0473 18.0134 17.6352 18.0268 18.2367 18.0268C19.139 18.0402 20.0686 18.0402 20.9846 18.0402Z" fill="#014898"/>
</g>
</g>
<defs>
<clipPath id="clip0_2108_904">
<rect width="34" height="45" fill="white"/>
</clipPath>
</defs>
</svg>
