<svg width="45" height="49" viewBox="0 0 45 49" fill="none" xmlns="http://www.w3.org/2000/svg">
<path d="M35.7711 36.8792C34.8143 36.8792 33.7209 36.8792 32.7641 36.8792C30.8506 36.8792 29.4838 35.5124 29.4838 33.5989C29.4838 31.9587 29.4838 30.3186 29.4838 28.6784C27.4336 28.6784 25.3835 28.6784 23.3333 28.6784C23.3333 28.8151 23.3333 29.0885 23.3333 29.2252C23.3333 32.6421 23.3333 35.9224 23.3333 39.3394C23.3333 39.7494 23.47 40.0228 23.88 40.1595C25.6568 40.8429 26.7503 42.7564 26.3402 44.6699C25.9302 46.7201 24.29 48.0868 22.3765 48.0868C20.463 48.0868 18.6862 46.7201 18.2762 44.6699C17.8661 42.7564 18.9596 40.8429 20.7364 40.1595C20.8731 40.0228 21.1464 40.0228 21.2831 39.8861C21.2831 36.0591 21.2831 32.3688 21.2831 28.5418C19.2329 28.5418 17.1827 28.5418 15.1325 28.5418C15.1325 29.7719 14.9959 31.002 15.1325 32.2321C15.4059 35.5124 13.9024 37.0159 10.7588 36.7425C9.66538 36.6058 8.84531 36.7425 8.29859 37.9726C7.47852 39.6128 5.42834 40.1595 3.65151 39.6128C1.87469 38.9294 0.781253 37.2892 0.917932 35.3757C1.05461 33.4622 2.4214 32.0954 4.33491 31.6854C6.11173 31.412 7.88856 32.3688 8.70863 34.0089C8.84531 34.2823 8.84531 34.419 8.98199 34.6923C10.0754 34.6923 11.0322 34.6923 12.1256 34.6923C12.809 34.6923 13.219 34.2823 13.219 33.5989C13.219 32.0954 13.219 30.5919 13.219 29.0885C13.219 28.9518 13.219 28.8151 13.219 28.5418C12.9457 28.5418 12.6723 28.5418 12.5356 28.5418C10.6221 28.5418 8.70863 28.5418 6.93181 28.5418C3.51483 28.4051 0.644574 25.9449 0.097858 22.6646C-0.448858 19.1109 1.32797 15.8306 4.60826 14.6005C5.29166 14.3271 5.97505 14.1905 6.52177 14.0538C4.60826 7.90323 8.43527 3.11947 12.399 1.616C16.7727 -0.0241472 22.1032 1.34264 25.1101 6.12641C28.2537 4.62294 31.2607 4.62294 34.2676 6.39976C37.2745 8.17659 38.6413 10.9102 38.778 14.3271C40.6915 14.6005 42.195 15.5573 43.4251 17.0607C45.2019 19.3843 45.4753 21.8445 44.2452 24.4414C43.015 27.0383 40.9649 28.4051 38.0946 28.5418C36.0444 28.6784 33.8576 28.5418 31.6707 28.5418C31.6707 29.2252 31.6707 29.9085 31.6707 30.7286C31.6707 31.6854 31.6707 32.6421 31.6707 33.5989C31.6707 34.4189 32.0807 34.6923 32.7641 34.6923C33.5842 34.6923 34.541 34.6923 35.361 34.6923C35.7711 34.6923 35.9077 34.5556 36.0444 34.1456C36.7278 32.3688 38.368 31.412 40.1448 31.5487C41.9216 31.6854 43.4251 33.0522 43.8351 34.829C44.2452 36.8792 43.1517 38.9294 41.1015 39.4761C39.0514 40.1595 37.0012 39.2027 36.0444 37.2892C35.9077 37.2892 35.7711 37.0159 35.7711 36.8792ZM22.2398 26.6282C27.297 26.6282 32.3541 26.6282 37.4112 26.6282C38.5046 26.6282 39.5981 26.3549 40.5548 25.6715C42.3316 24.4414 43.1517 22.1178 42.605 20.0677C42.0583 17.8808 40.1448 16.514 37.9579 16.3773C36.8645 16.3773 36.5911 15.9673 36.7278 14.8739C36.7278 14.7372 36.7278 14.6005 36.7278 14.4638C36.7278 11.0468 34.541 8.17659 31.124 7.35652C29.0738 6.94648 27.297 7.21984 25.5201 8.44995C24.7001 8.99666 24.1534 8.85999 23.6066 7.90323C23.6066 7.76655 23.47 7.76655 23.47 7.62987C21.8298 4.34958 18.2762 2.57275 14.7225 3.11947C11.3055 3.66618 8.57195 6.53644 8.02524 10.0901C7.75188 11.7302 8.02524 13.2337 8.70863 14.7372C9.11867 15.6939 8.70863 16.3773 7.6152 16.3773C7.34184 16.3773 6.93181 16.3773 6.65845 16.3773C4.06155 16.514 1.87468 18.7009 1.87468 21.2978C1.87468 24.168 4.06155 26.6282 7.06848 26.6282C12.1256 26.6282 17.1827 26.4916 22.2398 26.6282ZM4.88162 37.8359C5.97505 37.8359 6.93181 37.0159 6.93181 35.7857C6.93181 34.6923 6.11173 33.7356 4.88162 33.7356C3.78819 33.7356 2.83144 34.6923 2.83144 35.7857C2.83144 36.8792 3.78819 37.8359 4.88162 37.8359ZM39.7348 33.7356C38.6413 33.7356 37.6846 34.6923 37.6846 35.7857C37.6846 36.8792 38.6413 37.8359 39.7348 37.8359C40.8282 37.8359 41.7849 36.8792 41.7849 35.7857C41.7849 34.6923 40.8282 33.7356 39.7348 33.7356ZM22.3765 41.9363C21.2831 41.9363 20.3263 42.893 20.3263 43.9865C20.3263 45.0799 21.2831 46.0367 22.3765 46.0367C23.47 46.0367 24.4267 45.0799 24.4267 43.9865C24.29 42.893 23.47 41.9363 22.3765 41.9363Z" fill="#014898"/>
</svg>
