<svg width="48" height="47" viewBox="0 0 48 47" fill="none" xmlns="http://www.w3.org/2000/svg">
<path d="M1 21.1979C1 20.8318 1 20.4657 1 20.0995C1.39561 18.8059 2.17484 17.9761 3.55349 17.8296C3.64939 17.8174 3.76928 17.6465 3.80524 17.5245C4.02103 16.8899 4.1529 16.2309 4.42863 15.6207C5.02804 14.2783 5.68739 12.9602 6.32276 11.6422C6.47861 11.3249 6.75434 11.1785 7.11399 11.3005C7.42568 11.4103 7.62948 11.6422 7.59351 11.9839C7.56954 12.1792 7.44966 12.3867 7.34176 12.5575C6.43066 14.1074 5.73534 15.7549 5.20786 17.4757C5.07599 17.915 5.00406 18.2689 5.49558 18.5252C5.6754 18.6229 5.78329 18.8791 5.95113 19.0256C6.07101 19.1232 6.25083 19.2453 6.38271 19.2209C8.98415 18.6839 11.6216 18.4154 14.2829 18.3422C14.4268 18.3422 14.6186 18.2201 14.7025 18.0981C15.3858 17.0486 16.3329 16.6336 17.5557 16.7679C17.7116 16.7801 17.9393 16.6946 18.0233 16.5726C19.318 14.8274 20.7686 13.2165 22.387 11.7765C22.5668 11.6178 22.5548 11.4836 22.5068 11.2639C22.4109 10.8123 22.339 10.3364 22.363 9.87265C22.375 9.59196 22.315 9.45771 22.0873 9.34788C21.0563 8.82311 20.0493 8.24953 18.9943 7.78578C17.8674 7.28542 16.6806 6.89489 15.5297 6.45555C15.0742 7.26101 14.4867 7.74917 13.6835 7.94443C12.8923 8.13969 12.149 7.98104 11.4657 7.52949C11.3218 7.66374 11.19 7.76137 11.0701 7.88341C10.5666 8.40818 10.0631 8.93295 9.55958 9.44551C9.2359 9.78722 8.87625 9.81163 8.57655 9.53094C8.26485 9.25025 8.25287 8.87193 8.57655 8.53022C9.12801 7.93222 9.69145 7.34644 10.2789 6.77285C10.4947 6.56538 10.5786 6.40673 10.4707 6.07723C10.0751 4.85684 10.5306 3.62424 11.5856 2.92862C12.6286 2.23299 13.8633 2.30622 14.8224 3.16049C15.0622 3.38016 15.23 3.30694 15.4458 3.1971C19.2461 1.36651 23.2381 0.683094 27.422 1.13464C29.9036 1.40313 32.2652 2.07434 34.519 3.17269C34.6509 3.23371 34.8787 3.22151 34.9866 3.14829C36.0775 2.37944 37.1564 2.31842 38.1634 2.97743C39.1824 3.64865 39.602 4.747 39.3383 6.04062C39.3143 6.18706 39.3743 6.39453 39.4821 6.50436C39.7938 6.83387 40.1415 7.12676 40.4532 7.45627C40.645 7.66374 40.8128 7.68815 41.0766 7.59051C42.2155 7.21219 43.3543 7.59051 44.0736 8.55462C44.7689 9.49433 44.8409 10.7391 44.1935 11.7154C44.0257 11.9717 44.0257 12.1426 44.1695 12.3989C45.4283 14.62 46.2555 17.0119 46.6751 19.5504C46.8189 20.4046 46.9028 21.2589 47.0227 22.1254C47.0227 23.0773 47.0227 24.017 47.0227 24.9689C46.9628 25.396 46.9148 25.811 46.8549 26.2381C46.1955 31.7055 43.8459 36.3063 39.9137 40.0651C39.6859 40.2848 39.638 40.4557 39.7219 40.7608C40.0696 41.9323 39.638 43.1283 38.643 43.8117C37.636 44.5074 36.3892 44.483 35.4301 43.6897C35.2143 43.5067 35.0585 43.5189 34.8427 43.6409C32.7208 44.7392 30.467 45.4471 28.1053 45.7766C23.6217 46.399 19.33 45.7278 15.266 43.6775C14.9663 43.5311 14.7864 43.5311 14.5107 43.7263C13.5756 44.3853 12.4128 44.3487 11.4777 43.6775C10.5426 43.0063 10.111 41.8957 10.3868 40.7974C10.4587 40.5045 10.4107 40.3336 10.195 40.1262C8.49263 38.5519 7.07802 36.7457 5.95113 34.7198C4.06898 31.3271 3.06197 27.6782 3.01402 23.7729C3.01402 23.6143 2.95408 23.358 2.85817 23.3214C1.88713 22.943 1.31169 22.1986 1 21.1979ZM19.7735 20.0263C19.1621 21.8325 18.0952 22.4793 16.261 22.2474C16.237 22.284 16.201 22.3084 16.1891 22.3451C13.7794 27.3975 12.8563 32.7306 13.3359 38.32C13.3479 38.442 13.5157 38.6251 13.6476 38.6617C14.259 38.8326 14.7864 39.1376 15.1701 39.6502C15.3139 39.8333 15.4218 39.8821 15.6496 39.7967C22.6987 37.0996 28.5729 32.7672 33.3082 26.8117C33.4521 26.6408 33.5 26.5066 33.3682 26.2991C33.0445 25.7744 32.9366 25.1886 33.0205 24.5906C33.0685 24.2733 32.9725 24.1512 32.6968 24.0048C29.8197 22.5647 26.8346 21.4786 23.7057 20.7708C22.4109 20.4901 21.0922 20.2826 19.7735 20.0263ZM15.6856 42.3107C15.7215 42.3351 15.7455 42.3595 15.7695 42.3717C21.9074 45.3861 28.0574 45.3861 34.2073 42.4327C34.4351 42.3229 34.4831 42.1886 34.4591 41.9445C34.3032 40.4557 35.0345 39.2841 36.4012 38.8448C36.6529 38.7715 36.7368 38.6495 36.7368 38.4054C36.7728 37.3437 36.8208 36.2697 36.8687 35.208C36.8927 34.671 37.1325 34.3781 37.564 34.3903C37.9836 34.4025 38.2354 34.6832 38.2234 35.1958C38.1994 36.1843 38.2234 37.185 38.1035 38.1613C38.0316 38.7471 38.1874 39.04 38.6909 39.2109C38.7149 39.2231 38.7509 39.2231 38.7748 39.2231C38.7988 39.2109 38.8348 39.2109 38.8588 39.1865C40.9207 37.2949 42.5271 35.0615 43.726 32.5109C43.8578 32.218 43.726 32.096 43.5581 31.9373C41.8438 30.2044 40.0096 28.6179 38.0196 27.2144C37.8517 27.0924 37.7199 26.8361 37.4082 27.0558C37.0845 27.2754 37.2284 27.5073 37.2763 27.7636C37.4801 28.7887 37.6959 29.8139 37.8757 30.8512C37.9596 31.3271 37.7199 31.62 37.3123 31.6811C36.8927 31.7421 36.629 31.4858 36.533 30.9366C36.3292 29.8505 36.1135 28.7643 35.9216 27.727C35.538 27.666 35.2263 27.6782 34.9866 27.5561C34.6269 27.3731 34.4591 27.5439 34.2553 27.8002C29.5799 33.6581 23.7896 38.0027 16.8844 40.7486C16.1411 41.0415 15.6256 41.3344 15.6856 42.213C15.6736 42.2496 15.6736 42.2619 15.6856 42.3107ZM14.187 19.7822C14.1031 19.7822 13.9353 19.77 13.7794 19.7822C11.5736 20.0385 9.37976 20.2948 7.17393 20.5389C6.68241 20.5877 6.40668 20.6975 6.33475 21.3077C6.27481 21.7715 5.93914 22.2596 5.61546 22.6257C5.31575 22.9553 4.8602 23.1505 4.3567 23.4678C4.69237 29.5576 6.88621 34.9029 11.202 39.2231C11.9572 39.04 12.0172 38.5885 11.9692 37.9905C11.7175 35.147 11.8853 32.3279 12.4248 29.521C12.9283 26.8605 13.7674 24.3099 14.9183 21.8691C14.9902 21.7227 15.0502 21.503 14.9902 21.3809C14.7625 20.8562 14.4867 20.3558 14.187 19.7822ZM38.4871 7.44407C36.9047 8.4692 35.598 8.23732 34.4111 6.80946C34.3392 6.72404 34.1234 6.69963 34.0035 6.73624C31.8936 7.37084 29.8916 8.28614 27.9735 9.3967C27.7337 9.53094 27.7097 9.68959 27.7217 9.94587C27.7337 10.3608 27.7217 10.8001 27.6018 11.2029C27.5059 11.5446 27.5659 11.7154 27.8056 11.9351C30.7188 14.559 33.0565 17.6465 34.8067 21.1857C35.1064 21.7837 35.3462 22.2962 36.1494 22.1864C36.3772 22.1498 36.5091 22.1498 36.629 21.9301C38.2474 19.1232 39.5301 16.1699 40.4892 13.0579C40.5731 12.7772 40.5491 12.6307 40.3093 12.4599C39.7699 12.0694 39.4342 11.508 39.2783 10.849C39.0865 10.0435 39.2664 9.31127 39.6859 8.60344C39.2903 8.20071 38.8947 7.83459 38.4871 7.44407ZM44.4093 30.8146C44.4573 30.6803 44.5052 30.5705 44.5412 30.4607C45.1526 28.7155 45.5122 26.9093 45.6321 25.0665C45.9078 20.8562 45.0926 16.8899 43.0666 13.1921C42.9947 13.0579 42.7669 12.887 42.707 12.9114C42.4193 13.0579 41.9757 12.7894 41.8318 13.2897C40.8608 16.5848 39.4941 19.709 37.7918 22.6746C37.7319 22.7844 37.7439 23.0285 37.8278 23.1383C38.3433 23.8217 38.5351 24.5906 38.3912 25.4204C38.3313 25.7255 38.4392 25.8354 38.655 26.0062C39.7579 26.8483 40.8608 27.6782 41.9277 28.5691C42.7669 29.2647 43.5701 30.0457 44.4093 30.8146ZM19.0303 17.5733C19.1981 17.8418 19.3899 18.0615 19.4978 18.33C19.6057 18.6107 19.7735 18.7083 20.0613 18.7449C20.7566 18.8303 21.4519 18.9402 22.1472 19.0622C26.0673 19.77 29.8197 21.0392 33.3921 22.8332C33.524 22.9064 33.7398 22.8698 33.8956 22.8088C33.9436 22.7844 33.9676 22.5159 33.9076 22.3939C32.1693 18.7205 29.7957 15.5353 26.7986 12.8504C26.7027 12.765 26.463 12.7406 26.3431 12.7894C25.4679 13.2165 24.6168 13.2165 23.7536 12.7894C23.6457 12.7406 23.4419 12.7284 23.37 12.7894C21.7276 14.2172 20.289 15.816 19.0303 17.5733ZM34.0515 4.47851C33.8477 4.38088 33.6559 4.28325 33.4521 4.18562C31.1503 3.13608 28.7287 2.55029 26.2112 2.41605C22.6627 2.22079 19.27 2.892 16.0692 4.47851C15.9373 4.55174 15.8054 4.7348 15.7695 4.89345C15.7095 5.14973 15.9133 5.22295 16.1291 5.30838C17.5797 5.85756 19.0542 6.39453 20.4808 7.00473C21.38 7.39525 22.2311 7.90782 23.1063 8.35936C24.4729 7.28542 25.5039 7.28542 27.0384 8.37156C27.1942 8.27393 27.3741 8.18851 27.5419 8.09087C29.3641 7.02913 31.2702 6.15045 33.2842 5.54026C33.8117 5.3572 34.1354 5.13753 34.0515 4.47851ZM2.34268 20.6365C2.34268 21.4054 2.95408 22.04 3.70934 22.04C4.48857 22.04 5.064 21.4542 5.07599 20.6609C5.08798 19.8555 4.48857 19.2331 3.69735 19.2331C2.96607 19.2208 2.34268 19.8677 2.34268 20.6365ZM17.0522 20.9416C17.8434 20.9416 18.4428 20.3192 18.4309 19.5137C18.4189 18.7693 17.8075 18.1591 17.0762 18.1469C16.3209 18.1347 15.6856 18.7571 15.6736 19.5137C15.6616 20.307 16.273 20.9416 17.0522 20.9416ZM34.3512 24.9201C34.3632 25.6889 34.9866 26.3235 35.7298 26.3113C36.5211 26.2991 37.0965 25.6767 37.0845 24.8591C37.0725 24.0658 36.4731 23.48 35.6939 23.4922C34.9386 23.5044 34.3392 24.1512 34.3512 24.9201ZM13.0721 3.90493C12.2929 3.90493 11.7055 4.49072 11.6935 5.28397C11.6815 6.06502 12.3169 6.72404 13.0721 6.72404C13.8034 6.71183 14.4148 6.08943 14.4268 5.3572C14.4388 4.52733 13.8633 3.90493 13.0721 3.90493ZM26.403 10.3364C26.403 9.55535 25.8156 8.94515 25.0483 8.93295C24.3051 8.92074 23.6697 9.54314 23.6577 10.312C23.6457 11.0686 24.2571 11.7398 25.0004 11.7521C25.7796 11.7643 26.403 11.1297 26.403 10.3364ZM38.4991 41.5418C38.5111 40.7242 37.9237 40.114 37.1325 40.114C36.3532 40.114 35.7778 40.6997 35.7658 41.493C35.7538 42.2741 36.3532 42.8965 37.1085 42.8965C37.8757 42.9209 38.4991 42.3107 38.4991 41.5418ZM36.7129 3.89273C35.9576 3.89273 35.3462 4.51513 35.3462 5.28397C35.3462 6.07723 35.9216 6.67522 36.6889 6.69963C37.4801 6.71183 38.0795 6.11384 38.0795 5.29618C38.0915 4.52733 37.4681 3.89273 36.7129 3.89273ZM11.6935 41.4076C11.7055 42.1764 12.3169 42.7988 13.0721 42.7988C13.8154 42.7988 14.4388 42.1642 14.4388 41.3954C14.4388 40.6265 13.7794 39.9553 13.0362 39.9797C12.2809 39.9919 11.6815 40.6387 11.6935 41.4076ZM43.2824 10.2388C43.2824 9.45771 42.695 8.83531 41.9397 8.83531C41.1605 8.83531 40.5731 9.4089 40.5611 10.2022C40.5491 11.0198 41.1245 11.63 41.9277 11.6422C42.671 11.63 43.2824 11.0076 43.2824 10.2388Z" fill="#014898" stroke="#014898" stroke-width="0.2"/>
</svg>
