<svg width="49" height="49" viewBox="0 0 49 49" fill="none" xmlns="http://www.w3.org/2000/svg">
<g id="Frame" clip-path="url(#clip0_5029_4723)">
<g id="Group">
<g id="Vector">
<path d="M24.518 8.23052C25.086 8.23052 25.6411 8.23052 26.2091 8.23052C27.2806 8.24343 27.9518 8.9149 27.9776 9.98665C27.9906 10.7485 27.9906 11.4974 27.9776 12.2593C27.9647 12.6596 28.1067 12.8791 28.494 13.0082C28.9458 13.1632 29.3977 13.3569 29.8366 13.5635C30.198 13.7443 30.4691 13.6797 30.7402 13.3956C31.2695 12.8404 31.7988 12.3109 32.3409 11.7815C33.1155 11.0326 34.0579 11.0326 34.8195 11.7944C35.6199 12.5821 36.4202 13.3827 37.2206 14.1962C37.9823 14.9581 37.9823 15.9136 37.2206 16.6755C36.6784 17.2307 36.1362 17.773 35.5812 18.3154C35.323 18.5607 35.2842 18.819 35.4262 19.1418C35.6328 19.5937 35.8393 20.0457 35.9942 20.5235C36.1233 20.9237 36.3557 21.04 36.7559 21.04C37.4917 21.0271 38.2404 21.0271 38.9763 21.04C40.0994 21.0529 40.7706 21.7243 40.7706 22.8607C40.7706 23.9712 40.7706 25.0817 40.7706 26.2051C40.7577 27.2768 40.0865 27.9483 39.015 27.9612C38.2534 27.9741 37.5046 27.9741 36.743 27.9612C36.3428 27.9483 36.1233 28.0903 35.9942 28.4777C35.8522 28.9167 35.6715 29.3558 35.4521 29.769C35.2455 30.1693 35.323 30.4534 35.6457 30.7504C36.1879 31.2539 36.7042 31.7963 37.2206 32.3257C37.9693 33.1005 37.9694 34.0431 37.2077 34.805C36.4202 35.6055 35.6199 36.4061 34.8066 37.2067C34.0321 37.9686 33.0897 37.9557 32.328 37.2067C31.7729 36.6644 31.2308 36.1221 30.6886 35.5668C30.4433 35.3086 30.1851 35.2698 29.8624 35.4248C29.3977 35.6443 28.92 35.838 28.4295 36.0188C28.1067 36.135 27.9647 36.3287 27.9647 36.6644C27.9776 37.4262 27.9776 38.1752 27.9647 38.937C27.9518 40.125 27.2935 40.7836 26.0929 40.7836C25.0085 40.7836 23.9371 40.7836 22.8527 40.7836C21.7296 40.7836 21.0583 40.1121 21.0454 38.9758C21.0325 38.2397 21.0325 37.4908 21.0454 36.7548C21.0583 36.3545 20.9163 36.135 20.5291 36.0058C20.0901 35.8638 19.6512 35.683 19.2381 35.4635C18.838 35.2569 18.5539 35.3344 18.257 35.6572C17.7665 36.1866 17.2372 36.6902 16.7208 37.2067C15.9205 37.9944 14.991 37.9944 14.2036 37.2196C13.4032 36.432 12.6028 35.6314 11.8025 34.8179C11.0408 34.056 11.0537 33.1005 11.8025 32.3386C12.3446 31.7834 12.8868 31.241 13.4419 30.6987C13.7001 30.4534 13.7388 30.1951 13.5839 29.8723C13.3645 29.4074 13.1708 28.9297 12.9901 28.439C12.8739 28.1162 12.6803 27.9741 12.3446 27.9741C11.5701 27.987 10.7955 27.987 10.021 27.9741C8.89789 27.9612 8.22661 27.2897 8.22661 26.1534C8.22661 25.0558 8.22661 23.9582 8.22661 22.8607C8.22661 21.7373 8.89789 21.0658 10.0339 21.0529C10.7697 21.0529 11.5184 21.04 12.2543 21.0529C12.6545 21.0658 12.8739 20.9237 13.003 20.5364C13.145 20.1102 13.3128 19.6841 13.5194 19.2838C13.7259 18.8835 13.7001 18.5736 13.3516 18.2508C12.8094 17.7472 12.293 17.2178 11.7766 16.6755C11.0279 15.9007 11.0279 14.9581 11.7895 14.1962C12.577 13.3956 13.3774 12.595 14.1906 11.7944C14.9652 11.0326 15.9076 11.0455 16.6692 11.7944C17.2243 12.3368 17.7665 12.8791 18.3087 13.4344C18.554 13.6926 18.8121 13.7313 19.1349 13.5764C19.5996 13.3569 20.0772 13.1632 20.5678 12.9824C20.8905 12.8662 21.0325 12.6725 21.0325 12.3368C21.0196 11.5749 21.0196 10.826 21.0325 10.0641C21.0454 8.87616 21.7038 8.21761 22.9043 8.21761C23.4594 8.23052 23.9887 8.23052 24.518 8.23052ZM9.41425 24.5006C9.41425 25.0171 9.41425 25.5336 9.41425 26.0501C9.41425 26.6699 9.55626 26.812 10.1888 26.812C10.9246 26.812 11.6734 26.812 12.4092 26.812C13.287 26.8249 13.7646 27.1735 14.0874 27.9999C14.2681 28.4648 14.4617 28.9297 14.6554 29.3816C15.0168 30.208 14.9265 30.8149 14.3068 31.4606C13.7776 32.0029 13.2354 32.5323 12.7061 33.0746C12.3059 33.4749 12.3059 33.6557 12.6932 34.0431C13.4548 34.8179 14.2165 35.5797 14.991 36.3416C15.3654 36.716 15.559 36.716 15.9334 36.3416C16.5014 35.7863 17.0436 35.2182 17.6116 34.6629C18.1925 34.1077 18.838 33.9915 19.5609 34.3143C20.0514 34.5209 20.5291 34.7404 21.0325 34.9341C21.8587 35.2569 22.2072 35.7347 22.2072 36.6257C22.2202 37.4004 22.2072 38.1752 22.2072 38.9499C22.2072 39.4535 22.3751 39.6085 22.8785 39.6214C23.9371 39.6214 25.0085 39.6214 26.0671 39.6214C26.6609 39.6214 26.8029 39.4794 26.8029 38.8725C26.8029 38.1106 26.79 37.3617 26.8029 36.5998C26.8158 35.7476 27.1644 35.2698 27.9647 34.9599C28.4424 34.7662 28.92 34.5725 29.3977 34.3659C30.198 34.0173 30.8177 34.1077 31.4373 34.7146C31.9795 35.244 32.5088 35.7863 33.051 36.3157C33.477 36.729 33.6448 36.7419 34.0579 36.3287C34.8195 35.5797 35.5682 34.8308 36.317 34.0689C36.7172 33.6686 36.7172 33.5008 36.317 33.1005C35.7619 32.5323 35.1939 31.99 34.6388 31.4218C34.0966 30.8666 33.9933 30.2209 34.3031 29.5107C34.5226 28.9942 34.7421 28.4777 34.9486 27.9483C35.2455 27.2123 35.749 26.8507 36.5364 26.8378C37.3239 26.8249 38.1114 26.8378 38.9117 26.8378C39.441 26.8378 39.5959 26.6699 39.5959 26.1405C39.5959 25.0946 39.5959 24.0486 39.5959 22.9898C39.5959 22.37 39.4539 22.2409 38.8214 22.2279C38.0468 22.2279 37.2723 22.2279 36.4977 22.215C35.7361 22.2021 35.2326 21.8147 34.9486 21.1174C34.755 20.6268 34.5613 20.1232 34.3419 19.6454C33.9804 18.819 34.0708 18.2121 34.6904 17.5664C35.2197 17.0241 35.7619 16.4947 36.2912 15.9523C36.6913 15.552 36.6913 15.3713 36.3041 14.9839C35.5424 14.2091 34.7808 13.4473 34.0062 12.6854C33.6319 12.3109 33.4382 12.3109 33.0639 12.6854C32.5088 13.2278 31.9666 13.783 31.4244 14.3253C30.8048 14.9322 30.1722 15.0355 29.3847 14.6869C28.92 14.4803 28.4424 14.2737 27.9647 14.0929C27.1515 13.7701 26.8029 13.2923 26.79 12.4013C26.7771 11.6395 26.79 10.8905 26.79 10.1287C26.79 9.56053 26.6351 9.41849 26.0671 9.41849C25.0214 9.41849 23.9758 9.41849 22.9173 9.41849C22.3363 9.41849 22.1814 9.57344 22.1814 10.1674C22.1814 10.9422 22.1814 11.717 22.1814 12.4917C22.1685 13.2794 21.7812 13.7959 21.0583 14.08C20.5678 14.2737 20.0772 14.4803 19.5867 14.6869C18.7992 15.0355 18.1667 14.9451 17.547 14.3382C17.0048 13.8088 16.4756 13.2665 15.9334 12.7371C15.5074 12.3239 15.3396 12.3109 14.9265 12.7242C14.1648 13.4731 13.4161 14.222 12.6674 14.9839C12.2672 15.3842 12.2672 15.552 12.6674 15.9523C13.1966 16.4947 13.7388 17.0241 14.2681 17.5664C14.9007 18.2121 14.991 18.8319 14.6296 19.6454C14.4359 20.0844 14.2423 20.5364 14.0745 20.9883C13.7388 21.8793 13.2483 22.2279 12.2801 22.2409C11.5184 22.2409 10.7697 22.2409 10.0081 22.2409C9.56916 22.2409 9.34971 22.4475 9.36262 22.8865C9.42716 23.403 9.41425 23.9453 9.41425 24.5006Z" fill="#014898"/>
<path d="M9.89189 6.13865C8.7817 6.13865 7.68442 6.13865 6.57424 6.13865C6.43223 6.13865 6.2386 6.16448 6.14823 6.087C5.98041 5.94496 5.76096 5.73836 5.76096 5.55758C5.76096 5.3768 5.98041 5.1702 6.14823 5.02816C6.2386 4.95068 6.43223 4.97651 6.57424 4.97651C8.2137 5.00233 9.86608 5.01524 11.5055 5.04107C12.2155 5.05398 12.4092 5.26059 12.3059 5.95788C12.0865 7.59779 11.8412 9.25063 11.6088 10.8905C11.5572 11.2779 11.4023 11.5878 10.9504 11.562C10.5761 11.5491 10.3954 11.2392 10.4728 10.7227C10.6148 9.65092 10.7697 8.57916 10.9246 7.50741C10.9504 7.35245 10.9634 7.18459 10.9892 6.91342C10.7568 7.0942 10.589 7.21041 10.4341 7.33954C5.67059 11.3812 2.94676 16.5076 2.43039 22.7574C1.52675 33.6428 8.9108 43.6631 19.5609 46.0778C23.7176 47.0204 27.8227 46.8009 31.8504 45.3934C31.9924 45.3418 32.1215 45.303 32.2635 45.2514C32.612 45.1222 32.896 45.2514 33.0122 45.5742C33.1413 45.9228 32.9993 46.2198 32.6379 46.336C32.044 46.5426 31.4502 46.7492 30.8435 46.9171C18.5669 50.3648 5.99332 43.5081 2.19802 31.3443C-0.577448 22.4475 2.35293 12.6338 9.56916 6.57769C9.68535 6.4873 9.78862 6.39691 9.9048 6.29361C9.9048 6.24196 9.89189 6.19031 9.89189 6.13865Z" fill="#014898"/>
<path d="M40.8352 41.2097C41.9325 41.2097 42.9781 41.2097 44.0108 41.2097C44.2174 41.2097 44.4368 41.1838 44.6434 41.1968C44.9919 41.2355 45.2243 41.4421 45.2114 41.8037C45.1985 42.1265 44.9919 42.3331 44.6434 42.346C43.8043 42.3718 42.9652 42.3976 42.1261 42.4235C41.1966 42.4493 40.2543 42.488 39.3248 42.5009C38.8084 42.5139 38.5632 42.2556 38.6148 41.7649C38.7826 40.0475 38.9634 38.3301 39.1312 36.6127C39.1828 36.1479 39.441 35.9025 39.7895 35.9542C40.1381 36.0058 40.3317 36.3028 40.2801 36.7677C40.1639 37.9557 40.0348 39.1436 39.9057 40.4091C40.0606 40.28 40.151 40.2154 40.2285 40.1379C43.7785 36.5353 45.8827 32.2224 46.5152 27.1993C47.9481 15.707 40.2155 5.01524 28.8426 2.75551C25.3958 2.05823 21.9749 2.20027 18.5927 3.12998C18.5281 3.1429 18.4765 3.16872 18.412 3.18163C17.9085 3.31076 17.6116 3.19455 17.4954 2.83299C17.3921 2.48435 17.5987 2.17444 18.0892 2.05823C18.967 1.83871 19.8449 1.60628 20.7227 1.46424C27.1386 0.508696 33.051 1.81288 38.2921 5.68671C43.6623 9.65092 46.8638 14.9968 47.6512 21.6598C48.5291 29.1363 46.2312 35.5926 41.0159 41.0031C40.9514 41.0547 40.8997 41.1193 40.8352 41.2097Z" fill="#014898"/>
<path d="M24.518 32.3774C20.1547 32.3774 16.6434 28.8522 16.6434 24.5006C16.6434 20.1361 20.1676 16.6238 24.518 16.6238C28.8813 16.6238 32.3926 20.149 32.3926 24.5006C32.3926 28.8651 28.8684 32.3774 24.518 32.3774ZM17.8569 25.0817C17.9472 28.142 20.9421 31.1248 23.9371 31.1636C23.9371 30.7504 23.9371 30.3371 23.9371 29.911C23.9371 29.5236 24.092 29.2396 24.518 29.2396C24.944 29.2396 25.0989 29.5236 25.0989 29.911C25.0989 30.3242 25.0989 30.7374 25.0989 31.1636C28.1326 31.0861 31.0888 28.1291 31.1791 25.0817C30.766 25.0817 30.3529 25.0817 29.9269 25.0817C29.5397 25.0817 29.2557 24.9267 29.2427 24.5006C29.2427 24.0745 29.5138 23.9195 29.914 23.9195C30.3271 23.9195 30.7402 23.9195 31.1662 23.9195C30.9726 20.4202 27.7711 17.8634 25.086 17.8763C25.086 18.2508 25.086 18.6124 25.086 18.9868C25.086 19.3871 24.9311 19.6583 24.5051 19.6583C24.0791 19.6583 23.9242 19.3742 23.9242 18.9739C23.9242 18.5995 23.9242 18.2121 23.9242 17.8247C20.5161 18.07 17.973 21.0012 17.8569 23.9195C18.2699 23.9195 18.696 23.9195 19.109 23.9195C19.5092 23.9195 19.7803 24.0874 19.7803 24.5135C19.7803 24.9396 19.4834 25.0817 19.0961 25.0817C18.6959 25.0817 18.2958 25.0817 17.8569 25.0817Z" fill="#014898"/>
<path d="M25.0989 23.9195C25.5636 23.9195 25.9638 23.9195 26.364 23.9195C26.7513 23.9195 26.9966 24.1132 26.9966 24.5006C26.9966 24.8751 26.7513 25.0817 26.364 25.0817C25.7702 25.0817 25.1764 25.0946 24.5696 25.0817C24.1307 25.0817 23.9242 24.8363 23.9242 24.4102C23.9242 23.4805 23.9113 22.5378 23.9242 21.6081C23.9242 21.182 24.1824 20.9108 24.518 20.9367C24.9053 20.9754 25.0731 21.2207 25.0731 21.5952C25.0989 22.3442 25.0989 23.106 25.0989 23.9195Z" fill="#014898"/>
<path d="M24.518 8.23052C25.086 8.23052 25.6411 8.23052 26.2091 8.23052C27.2806 8.24343 27.9518 8.9149 27.9776 9.98665C27.9906 10.7485 27.9906 11.4974 27.9776 12.2593C27.9647 12.6596 28.1067 12.8791 28.494 13.0082C28.9458 13.1632 29.3977 13.3569 29.8366 13.5635C30.198 13.7443 30.4691 13.6797 30.7402 13.3956C31.2695 12.8404 31.7988 12.3109 32.3409 11.7815C33.1155 11.0326 34.0579 11.0326 34.8195 11.7944C35.6199 12.5821 36.4202 13.3827 37.2206 14.1962C37.9823 14.9581 37.9823 15.9136 37.2206 16.6755C36.6784 17.2307 36.1362 17.773 35.5812 18.3154C35.323 18.5607 35.2842 18.819 35.4262 19.1418C35.6328 19.5937 35.8393 20.0457 35.9942 20.5235C36.1233 20.9237 36.3557 21.04 36.7559 21.04C37.4917 21.0271 38.2404 21.0271 38.9763 21.04C40.0994 21.0529 40.7706 21.7243 40.7706 22.8607C40.7706 23.9712 40.7706 25.0817 40.7706 26.2051C40.7577 27.2768 40.0865 27.9483 39.015 27.9612C38.2534 27.9741 37.5046 27.9741 36.743 27.9612C36.3428 27.9483 36.1233 28.0903 35.9942 28.4777C35.8522 28.9167 35.6715 29.3558 35.4521 29.769C35.2455 30.1693 35.323 30.4534 35.6457 30.7504C36.1879 31.2539 36.7042 31.7963 37.2206 32.3257C37.9693 33.1005 37.9694 34.0431 37.2077 34.805C36.4202 35.6055 35.6199 36.4061 34.8066 37.2067C34.0321 37.9686 33.0897 37.9557 32.328 37.2067C31.7729 36.6644 31.2308 36.1221 30.6886 35.5668C30.4433 35.3086 30.1851 35.2698 29.8624 35.4248C29.3977 35.6443 28.92 35.838 28.4295 36.0188C28.1067 36.135 27.9647 36.3287 27.9647 36.6644C27.9776 37.4262 27.9776 38.1752 27.9647 38.937C27.9518 40.125 27.2935 40.7836 26.0929 40.7836C25.0085 40.7836 23.9371 40.7836 22.8527 40.7836C21.7296 40.7836 21.0583 40.1121 21.0454 38.9758C21.0325 38.2397 21.0325 37.4908 21.0454 36.7548C21.0583 36.3545 20.9163 36.135 20.5291 36.0058C20.0901 35.8638 19.6512 35.683 19.2381 35.4635C18.838 35.2569 18.5539 35.3344 18.257 35.6572C17.7665 36.1866 17.2372 36.6902 16.7208 37.2067C15.9205 37.9944 14.991 37.9944 14.2036 37.2196C13.4032 36.432 12.6028 35.6314 11.8025 34.8179C11.0408 34.056 11.0537 33.1005 11.8025 32.3386C12.3446 31.7834 12.8868 31.241 13.4419 30.6987C13.7001 30.4534 13.7388 30.1951 13.5839 29.8723C13.3645 29.4074 13.1708 28.9297 12.9901 28.439C12.8739 28.1162 12.6803 27.9741 12.3446 27.9741C11.5701 27.987 10.7955 27.987 10.021 27.9741C8.89789 27.9612 8.22661 27.2897 8.22661 26.1534C8.22661 25.0558 8.22661 23.9582 8.22661 22.8607C8.22661 21.7373 8.89789 21.0658 10.0339 21.0529C10.7697 21.0529 11.5184 21.04 12.2543 21.0529C12.6545 21.0658 12.8739 20.9237 13.003 20.5364C13.145 20.1102 13.3128 19.6841 13.5194 19.2838C13.7259 18.8835 13.7001 18.5736 13.3516 18.2508C12.8094 17.7472 12.293 17.2178 11.7766 16.6755C11.0279 15.9007 11.0279 14.9581 11.7895 14.1962C12.577 13.3956 13.3774 12.595 14.1906 11.7944C14.9652 11.0326 15.9076 11.0455 16.6692 11.7944C17.2243 12.3368 17.7665 12.8791 18.3087 13.4344C18.554 13.6926 18.8121 13.7313 19.1349 13.5764C19.5996 13.3569 20.0772 13.1632 20.5678 12.9824C20.8905 12.8662 21.0325 12.6725 21.0325 12.3368C21.0196 11.5749 21.0196 10.826 21.0325 10.0641C21.0454 8.87616 21.7038 8.21761 22.9043 8.21761C23.4594 8.23052 23.9887 8.23052 24.518 8.23052ZM9.41425 24.5006C9.41425 25.0171 9.41425 25.5336 9.41425 26.0501C9.41425 26.6699 9.55626 26.812 10.1888 26.812C10.9246 26.812 11.6734 26.812 12.4092 26.812C13.287 26.8249 13.7646 27.1735 14.0874 27.9999C14.2681 28.4648 14.4617 28.9297 14.6554 29.3816C15.0168 30.208 14.9265 30.8149 14.3068 31.4606C13.7776 32.0029 13.2354 32.5323 12.7061 33.0746C12.3059 33.4749 12.3059 33.6557 12.6932 34.0431C13.4548 34.8179 14.2165 35.5797 14.991 36.3416C15.3654 36.716 15.559 36.716 15.9334 36.3416C16.5014 35.7863 17.0436 35.2182 17.6116 34.6629C18.1925 34.1077 18.838 33.9915 19.5609 34.3143C20.0514 34.5209 20.5291 34.7404 21.0325 34.9341C21.8587 35.2569 22.2072 35.7347 22.2072 36.6257C22.2202 37.4004 22.2072 38.1752 22.2072 38.9499C22.2072 39.4535 22.3751 39.6085 22.8785 39.6214C23.9371 39.6214 25.0085 39.6214 26.0671 39.6214C26.6609 39.6214 26.8029 39.4794 26.8029 38.8725C26.8029 38.1106 26.79 37.3617 26.8029 36.5998C26.8158 35.7476 27.1644 35.2698 27.9647 34.9599C28.4424 34.7662 28.92 34.5725 29.3977 34.3659C30.198 34.0173 30.8177 34.1077 31.4373 34.7146C31.9795 35.244 32.5088 35.7863 33.051 36.3157C33.477 36.729 33.6448 36.7419 34.0579 36.3287C34.8195 35.5797 35.5682 34.8308 36.317 34.0689C36.7172 33.6686 36.7172 33.5008 36.317 33.1005C35.7619 32.5323 35.1939 31.99 34.6388 31.4218C34.0966 30.8666 33.9933 30.2209 34.3031 29.5107C34.5226 28.9942 34.7421 28.4777 34.9486 27.9483C35.2455 27.2123 35.749 26.8507 36.5364 26.8378C37.3239 26.8249 38.1114 26.8378 38.9117 26.8378C39.441 26.8378 39.5959 26.6699 39.5959 26.1405C39.5959 25.0946 39.5959 24.0486 39.5959 22.9898C39.5959 22.37 39.4539 22.2409 38.8214 22.2279C38.0468 22.2279 37.2723 22.2279 36.4977 22.215C35.7361 22.2021 35.2326 21.8147 34.9486 21.1174C34.755 20.6268 34.5613 20.1232 34.3419 19.6454C33.9804 18.819 34.0708 18.2121 34.6904 17.5664C35.2197 17.0241 35.7619 16.4947 36.2912 15.9523C36.6913 15.552 36.6913 15.3713 36.3041 14.9839C35.5424 14.2091 34.7808 13.4473 34.0062 12.6854C33.6319 12.3109 33.4382 12.3109 33.0639 12.6854C32.5088 13.2278 31.9666 13.783 31.4244 14.3253C30.8048 14.9322 30.1722 15.0355 29.3847 14.6869C28.92 14.4803 28.4424 14.2737 27.9647 14.0929C27.1515 13.7701 26.8029 13.2923 26.79 12.4013C26.7771 11.6395 26.79 10.8905 26.79 10.1287C26.79 9.56053 26.6351 9.41849 26.0671 9.41849C25.0214 9.41849 23.9758 9.41849 22.9173 9.41849C22.3363 9.41849 22.1814 9.57344 22.1814 10.1674C22.1814 10.9422 22.1814 11.717 22.1814 12.4917C22.1685 13.2794 21.7812 13.7959 21.0583 14.08C20.5678 14.2737 20.0772 14.4803 19.5867 14.6869C18.7992 15.0355 18.1667 14.9451 17.547 14.3382C17.0048 13.8088 16.4756 13.2665 15.9334 12.7371C15.5074 12.3239 15.3396 12.3109 14.9265 12.7242C14.1648 13.4731 13.4161 14.222 12.6674 14.9839C12.2672 15.3842 12.2672 15.552 12.6674 15.9523C13.1966 16.4947 13.7388 17.0241 14.2681 17.5664C14.9007 18.2121 14.991 18.8319 14.6296 19.6454C14.4359 20.0844 14.2423 20.5364 14.0745 20.9883C13.7388 21.8793 13.2483 22.2279 12.2801 22.2409C11.5184 22.2409 10.7697 22.2409 10.0081 22.2409C9.56916 22.2409 9.34971 22.4475 9.36262 22.8865C9.42716 23.403 9.41425 23.9453 9.41425 24.5006Z" stroke="#014898" stroke-width="0.4"/>
<path d="M9.89189 6.13865C8.7817 6.13865 7.68442 6.13865 6.57424 6.13865C6.43223 6.13865 6.2386 6.16448 6.14823 6.087C5.98041 5.94496 5.76096 5.73836 5.76096 5.55758C5.76096 5.3768 5.98041 5.1702 6.14823 5.02816C6.2386 4.95068 6.43223 4.97651 6.57424 4.97651C8.2137 5.00233 9.86608 5.01524 11.5055 5.04107C12.2155 5.05398 12.4092 5.26059 12.3059 5.95788C12.0865 7.59779 11.8412 9.25063 11.6088 10.8905C11.5572 11.2779 11.4023 11.5878 10.9504 11.562C10.5761 11.5491 10.3954 11.2392 10.4728 10.7227C10.6148 9.65092 10.7697 8.57916 10.9246 7.50741C10.9504 7.35245 10.9634 7.18459 10.9892 6.91342C10.7568 7.0942 10.589 7.21041 10.4341 7.33954C5.67059 11.3812 2.94676 16.5076 2.43039 22.7574C1.52675 33.6428 8.9108 43.6631 19.5609 46.0778C23.7176 47.0204 27.8227 46.8009 31.8504 45.3934C31.9924 45.3418 32.1215 45.303 32.2635 45.2514C32.612 45.1222 32.896 45.2514 33.0122 45.5742C33.1413 45.9228 32.9993 46.2198 32.6379 46.336C32.044 46.5426 31.4502 46.7492 30.8435 46.9171C18.5669 50.3648 5.99332 43.5081 2.19802 31.3443C-0.577448 22.4475 2.35293 12.6338 9.56916 6.57769C9.68535 6.4873 9.78862 6.39691 9.9048 6.29361C9.9048 6.24196 9.89189 6.19031 9.89189 6.13865Z" stroke="#014898" stroke-width="0.4"/>
<path d="M40.8352 41.2097C41.9325 41.2097 42.9781 41.2097 44.0108 41.2097C44.2174 41.2097 44.4368 41.1838 44.6434 41.1968C44.9919 41.2355 45.2243 41.4421 45.2114 41.8037C45.1985 42.1265 44.9919 42.3331 44.6434 42.346C43.8043 42.3718 42.9652 42.3976 42.1261 42.4235C41.1966 42.4493 40.2543 42.488 39.3248 42.5009C38.8084 42.5139 38.5632 42.2556 38.6148 41.7649C38.7826 40.0475 38.9634 38.3301 39.1312 36.6127C39.1828 36.1479 39.441 35.9025 39.7895 35.9542C40.1381 36.0058 40.3317 36.3028 40.2801 36.7677C40.1639 37.9557 40.0348 39.1436 39.9057 40.4091C40.0606 40.28 40.151 40.2154 40.2285 40.1379C43.7785 36.5353 45.8827 32.2224 46.5152 27.1993C47.9481 15.707 40.2155 5.01524 28.8426 2.75551C25.3958 2.05823 21.9749 2.20027 18.5927 3.12998C18.5281 3.1429 18.4765 3.16872 18.412 3.18163C17.9085 3.31076 17.6116 3.19455 17.4954 2.83299C17.3921 2.48435 17.5987 2.17444 18.0892 2.05823C18.967 1.83871 19.8449 1.60628 20.7227 1.46424C27.1386 0.508696 33.051 1.81288 38.2921 5.68671C43.6623 9.65092 46.8638 14.9968 47.6512 21.6598C48.5291 29.1363 46.2312 35.5926 41.0159 41.0031C40.9514 41.0547 40.8997 41.1193 40.8352 41.2097Z" stroke="#014898" stroke-width="0.4"/>
<path d="M24.518 32.3774C20.1547 32.3774 16.6434 28.8522 16.6434 24.5006C16.6434 20.1361 20.1676 16.6238 24.518 16.6238C28.8813 16.6238 32.3926 20.149 32.3926 24.5006C32.3926 28.8651 28.8684 32.3774 24.518 32.3774ZM17.8569 25.0817C17.9472 28.142 20.9421 31.1248 23.9371 31.1636C23.9371 30.7504 23.9371 30.3371 23.9371 29.911C23.9371 29.5236 24.092 29.2396 24.518 29.2396C24.944 29.2396 25.0989 29.5236 25.0989 29.911C25.0989 30.3242 25.0989 30.7374 25.0989 31.1636C28.1326 31.0861 31.0888 28.1291 31.1791 25.0817C30.766 25.0817 30.3529 25.0817 29.9269 25.0817C29.5397 25.0817 29.2557 24.9267 29.2427 24.5006C29.2427 24.0745 29.5138 23.9195 29.914 23.9195C30.3271 23.9195 30.7402 23.9195 31.1662 23.9195C30.9726 20.4202 27.7711 17.8634 25.086 17.8763C25.086 18.2508 25.086 18.6124 25.086 18.9868C25.086 19.3871 24.9311 19.6583 24.5051 19.6583C24.0791 19.6583 23.9242 19.3742 23.9242 18.9739C23.9242 18.5995 23.9242 18.2121 23.9242 17.8247C20.5161 18.07 17.973 21.0012 17.8569 23.9195C18.2699 23.9195 18.696 23.9195 19.109 23.9195C19.5092 23.9195 19.7803 24.0874 19.7803 24.5135C19.7803 24.9396 19.4834 25.0817 19.0961 25.0817C18.6959 25.0817 18.2958 25.0817 17.8569 25.0817Z" stroke="#014898" stroke-width="0.4"/>
<path d="M25.0989 23.9195C25.5636 23.9195 25.9638 23.9195 26.364 23.9195C26.7513 23.9195 26.9966 24.1132 26.9966 24.5006C26.9966 24.8751 26.7513 25.0817 26.364 25.0817C25.7702 25.0817 25.1764 25.0946 24.5696 25.0817C24.1307 25.0817 23.9242 24.8363 23.9242 24.4102C23.9242 23.4805 23.9113 22.5378 23.9242 21.6081C23.9242 21.182 24.1824 20.9108 24.518 20.9367C24.9053 20.9754 25.0731 21.2207 25.0731 21.5952C25.0989 22.3442 25.0989 23.106 25.0989 23.9195Z" stroke="#014898" stroke-width="0.4"/>
</g>
</g>
</g>
<defs>
<clipPath id="clip0_5029_4723">
<rect width="49" height="49" fill="white"/>
</clipPath>
</defs>
</svg>
