<svg width="35" height="40" viewBox="0 0 35 40" fill="none" xmlns="http://www.w3.org/2000/svg">
<path d="M17.1957 39.0483C17.0816 38.8794 16.913 38.7244 16.8655 38.5396C16.7736 38.177 17.0624 37.9227 17.5765 37.871C18.5985 37.7687 19.5781 37.5084 20.5234 37.118C20.7092 37.0415 20.89 36.955 21.0738 36.8736C21.5758 36.651 21.8121 36.2715 21.809 35.7281C21.802 34.4018 21.807 33.0755 21.807 31.7502C21.807 30.7765 22.314 30.2411 23.3148 30.1924C24.0935 30.1546 24.8842 30.2132 25.6518 30.1079C26.4537 29.9977 27.2414 29.7662 28.0221 29.5426C28.423 29.4274 28.627 29.1313 28.6623 28.6803C28.8007 26.9198 28.7744 25.1643 28.5977 23.4088C28.5472 22.9131 28.6371 22.7998 29.1047 22.5853C29.9823 22.1839 30.8599 21.7805 31.7234 21.3513C32.3344 21.0473 32.399 20.6966 32.0567 20.1095C31.0942 18.4563 30.1388 16.8002 29.1936 15.1371C28.6522 14.1843 28.6139 13.0965 28.3866 12.0603C27.8827 9.76232 27.0071 7.63825 25.3922 5.8609C23.6703 3.96533 21.4899 2.8715 18.9762 2.43933C15.4345 1.83032 11.9432 2.01313 8.59833 3.41792C4.79801 5.01445 2.71052 7.91046 2.23182 11.9132C1.88541 14.8082 2.12072 17.6754 2.97006 20.4801C3.50128 22.2345 4.43949 23.7725 5.68876 25.1047C7.00064 26.5036 7.71263 28.1617 8.11761 29.9758C8.54783 31.9022 8.67306 33.8464 8.35696 35.8066C8.27011 36.347 8.44482 36.6451 8.9417 36.8885C9.94152 37.3783 10.9979 37.6912 12.1068 37.8243C13.4389 37.9843 14.6821 36.9153 14.6982 35.5632C14.7184 33.9279 14.7043 32.2916 14.7053 30.6553C14.7053 29.0687 14.7033 27.4831 14.7053 25.8965C14.7083 24.4709 14.1236 23.3333 12.9743 22.475C11.0191 21.0155 9.20327 19.415 7.75808 17.4459C6.89561 16.2706 6.23613 15.002 5.96245 13.5574C5.52111 11.2257 6.58557 9.03608 8.7074 7.94424C10.8181 6.85935 13.3298 7.19316 14.9275 8.7738C15.0426 8.88805 15.1507 9.00926 15.2789 9.14536C15.3446 9.08874 15.4112 9.04006 15.4668 8.98045C16.9958 7.33722 19.2651 6.86531 21.4132 7.74654C23.5219 8.61087 24.8146 10.5978 24.7055 12.7875C24.6368 14.1754 24.1359 15.4192 23.4067 16.5826C21.908 18.9759 19.8266 20.8198 17.5755 22.4978C17.2856 22.7134 16.9332 22.6459 16.7423 22.3796C16.5494 22.1094 16.6332 21.7944 16.9322 21.5361C18.1239 20.5069 19.357 19.5203 20.483 18.4255C21.7262 17.2164 22.7422 15.8256 23.2805 14.1555C23.9198 12.1725 23.332 10.3028 21.7363 9.20001C19.8397 7.8886 17.2331 8.3625 15.9394 10.2551C15.4738 10.9356 15.1214 10.9317 14.6437 10.2412C13.3338 8.34859 10.707 7.87867 8.80637 9.19901C7.29554 10.2481 6.70373 12.0424 7.2511 13.9598C7.7197 15.601 8.67003 16.977 9.86376 18.1652C11.0029 19.2988 12.1987 20.3926 13.4742 21.3732C15.0982 22.622 15.9101 24.1728 15.8919 26.1966C15.8647 29.2446 15.8889 32.2936 15.8829 35.3426C15.8788 37.2014 14.7285 38.634 12.9137 38.9152C12.2876 39.0125 11.5958 38.944 10.9757 38.788C10.0688 38.5595 9.18004 38.2267 8.31959 37.8581C7.46722 37.4925 7.04306 36.6103 7.18243 35.7132C7.56215 33.2642 7.36926 30.86 6.44923 28.5531C6.13817 27.7712 5.61807 27.0619 5.13836 26.3565C4.57886 25.5339 3.94564 24.759 3.36494 23.9493C2.06922 22.1431 1.4057 20.0976 1.18958 17.9268C1.03002 16.2895 0.910845 14.6344 0.9674 12.9951C1.07647 9.83484 2.09144 6.99347 4.46979 4.74521C6.16645 3.14173 8.2186 2.17705 10.4717 1.60878C13.6227 0.813988 16.7999 0.713646 19.969 1.46273C24.4823 2.52974 27.4201 5.32243 28.8966 9.60833C29.2784 10.7151 29.4561 11.8894 29.7601 13.0239C29.9328 13.6657 30.0883 14.3334 30.3994 14.9126C31.2043 16.4107 32.09 17.8662 32.9444 19.3375C33.0383 19.4985 33.1454 19.6525 33.2292 19.8184C33.6493 20.643 33.5402 21.4318 32.7919 21.9772C32.1627 22.4362 31.4356 22.768 30.7448 23.1436C30.4499 23.3035 30.0207 23.3582 29.8662 23.5956C29.7238 23.8142 29.8833 24.2136 29.8793 24.5325C29.8621 26.0048 29.854 27.4782 29.8035 28.9505C29.7783 29.6708 29.3208 30.1526 28.7108 30.4984C27.9089 30.9534 27.0243 31.1511 26.1184 31.2286C25.2791 31.3001 24.4338 31.3041 23.5916 31.3309C23.0007 31.3498 22.9836 31.3607 22.9836 31.9449C22.9836 33.1351 22.9634 34.3253 22.9896 35.5145C23.0159 36.7216 22.4483 37.5392 21.3788 38.0608C20.4194 38.5277 19.3772 38.7085 18.338 38.9013C18.1319 38.939 17.93 38.9986 17.726 39.0473H17.1968L17.1957 39.0483Z" fill="#014898"/>
<path d="M15.4509 16.8527C16.683 15.4877 18.01 14.0163 19.338 12.545C19.4552 12.4158 19.5653 12.2777 19.6945 12.1625C19.9339 11.9489 20.254 11.9499 20.4813 12.1506C20.7055 12.3483 20.7398 12.6632 20.558 12.9245C20.5085 12.996 20.4449 13.0566 20.3863 13.1222C18.8906 14.7793 17.396 16.4355 15.9003 18.0926C15.5094 18.5258 15.1994 18.5387 14.7954 18.1284C14.0774 17.4002 13.3623 16.668 12.6493 15.9348C12.3393 15.6159 12.3201 15.2642 12.5877 15.0217C12.8433 14.7893 13.1684 14.838 13.4866 15.1241C14.1269 15.6993 14.7783 16.2636 15.4498 16.8547L15.4509 16.8527Z" fill="#014898"/>
<path d="M17.1957 39.0483C17.0816 38.8794 16.913 38.7244 16.8655 38.5396C16.7736 38.177 17.0624 37.9227 17.5765 37.871C18.5985 37.7687 19.5781 37.5084 20.5234 37.118C20.7092 37.0415 20.89 36.955 21.0738 36.8736C21.5758 36.651 21.8121 36.2715 21.809 35.7281C21.802 34.4018 21.807 33.0755 21.807 31.7502C21.807 30.7765 22.314 30.2411 23.3148 30.1924C24.0935 30.1546 24.8842 30.2132 25.6518 30.1079C26.4537 29.9977 27.2414 29.7662 28.0221 29.5426C28.423 29.4274 28.627 29.1313 28.6623 28.6803C28.8007 26.9198 28.7744 25.1643 28.5977 23.4088C28.5472 22.9131 28.6371 22.7998 29.1047 22.5853C29.9823 22.1839 30.8599 21.7805 31.7234 21.3513C32.3344 21.0473 32.399 20.6966 32.0567 20.1095C31.0942 18.4563 30.1388 16.8002 29.1936 15.1371C28.6522 14.1843 28.6139 13.0965 28.3866 12.0603C27.8827 9.76232 27.0071 7.63825 25.3922 5.8609C23.6703 3.96533 21.4899 2.8715 18.9762 2.43933C15.4345 1.83032 11.9432 2.01313 8.59833 3.41792C4.79801 5.01445 2.71052 7.91046 2.23182 11.9132C1.88541 14.8082 2.12072 17.6754 2.97006 20.4801C3.50128 22.2345 4.43949 23.7725 5.68876 25.1047C7.00064 26.5036 7.71263 28.1617 8.11761 29.9758C8.54783 31.9022 8.67306 33.8464 8.35696 35.8066C8.27011 36.347 8.44482 36.6451 8.9417 36.8885C9.94152 37.3783 10.9979 37.6912 12.1068 37.8243C13.4389 37.9843 14.6821 36.9153 14.6982 35.5632C14.7184 33.9279 14.7043 32.2916 14.7053 30.6553C14.7053 29.0687 14.7033 27.4831 14.7053 25.8965C14.7083 24.4709 14.1236 23.3333 12.9743 22.475C11.0191 21.0155 9.20327 19.415 7.75808 17.4459C6.89561 16.2706 6.23613 15.002 5.96245 13.5574C5.52111 11.2257 6.58557 9.03608 8.7074 7.94424C10.8181 6.85935 13.3298 7.19316 14.9275 8.7738C15.0426 8.88805 15.1507 9.00926 15.2789 9.14536C15.3446 9.08874 15.4112 9.04006 15.4668 8.98045C16.9958 7.33722 19.2651 6.86531 21.4132 7.74654C23.5219 8.61087 24.8146 10.5978 24.7055 12.7875C24.6368 14.1754 24.1359 15.4192 23.4067 16.5826C21.908 18.9759 19.8266 20.8198 17.5755 22.4978C17.2856 22.7134 16.9332 22.6459 16.7423 22.3796C16.5494 22.1094 16.6332 21.7944 16.9322 21.5361C18.1239 20.5069 19.357 19.5203 20.483 18.4255C21.7262 17.2164 22.7422 15.8256 23.2805 14.1555C23.9198 12.1725 23.332 10.3028 21.7363 9.20001C19.8397 7.8886 17.2331 8.3625 15.9394 10.2551C15.4738 10.9356 15.1214 10.9317 14.6437 10.2412C13.3338 8.34859 10.707 7.87867 8.80637 9.19901C7.29554 10.2481 6.70373 12.0424 7.2511 13.9598C7.7197 15.601 8.67003 16.977 9.86376 18.1652C11.0029 19.2988 12.1987 20.3926 13.4742 21.3732C15.0982 22.622 15.9101 24.1728 15.8919 26.1966C15.8647 29.2446 15.8889 32.2936 15.8829 35.3426C15.8788 37.2014 14.7285 38.634 12.9137 38.9152C12.2876 39.0125 11.5958 38.944 10.9757 38.788C10.0688 38.5595 9.18004 38.2267 8.31959 37.8581C7.46722 37.4925 7.04306 36.6103 7.18243 35.7132C7.56215 33.2642 7.36926 30.86 6.44923 28.5531C6.13817 27.7712 5.61807 27.0619 5.13836 26.3565C4.57886 25.5339 3.94564 24.759 3.36494 23.9493C2.06922 22.1431 1.4057 20.0976 1.18958 17.9268C1.03002 16.2895 0.910845 14.6344 0.9674 12.9951C1.07647 9.83484 2.09144 6.99347 4.46979 4.74521C6.16645 3.14173 8.2186 2.17705 10.4717 1.60878C13.6227 0.813988 16.7999 0.713646 19.969 1.46273C24.4823 2.52974 27.4201 5.32243 28.8966 9.60833C29.2784 10.7151 29.4561 11.8894 29.7601 13.0239C29.9328 13.6657 30.0883 14.3334 30.3994 14.9126C31.2043 16.4107 32.09 17.8662 32.9444 19.3375C33.0383 19.4985 33.1454 19.6525 33.2292 19.8184C33.6493 20.643 33.5402 21.4318 32.7919 21.9772C32.1627 22.4362 31.4356 22.768 30.7448 23.1436C30.4499 23.3035 30.0207 23.3582 29.8662 23.5956C29.7238 23.8142 29.8833 24.2136 29.8793 24.5325C29.8621 26.0048 29.854 27.4782 29.8035 28.9505C29.7783 29.6708 29.3208 30.1526 28.7108 30.4984C27.9089 30.9534 27.0243 31.1511 26.1184 31.2286C25.2791 31.3001 24.4338 31.3041 23.5916 31.3309C23.0007 31.3498 22.9836 31.3607 22.9836 31.9449C22.9836 33.1351 22.9634 34.3253 22.9896 35.5145C23.0159 36.7216 22.4483 37.5392 21.3788 38.0608C20.4194 38.5277 19.3772 38.7085 18.338 38.9013C18.1319 38.939 17.93 38.9986 17.726 39.0473H17.1968L17.1957 39.0483Z" stroke="#014898" stroke-width="0.3"/>
<path d="M15.4509 16.8527C16.683 15.4877 18.01 14.0163 19.338 12.545C19.4552 12.4158 19.5653 12.2777 19.6945 12.1625C19.9339 11.9489 20.254 11.9499 20.4813 12.1506C20.7055 12.3483 20.7398 12.6632 20.558 12.9245C20.5085 12.996 20.4449 13.0566 20.3863 13.1222C18.8906 14.7793 17.396 16.4355 15.9003 18.0926C15.5094 18.5258 15.1994 18.5387 14.7954 18.1284C14.0774 17.4002 13.3623 16.668 12.6493 15.9348C12.3393 15.6159 12.3201 15.2642 12.5877 15.0217C12.8433 14.7893 13.1684 14.838 13.4866 15.1241C14.1269 15.6993 14.7783 16.2636 15.4498 16.8547L15.4509 16.8527Z" stroke="#014898" stroke-width="0.3"/>
</svg>
