<svg width="42" height="40" viewBox="0 0 42 40" fill="none" xmlns="http://www.w3.org/2000/svg">
<g clip-path="url(#clip0_5352_4350)">
<path d="M32.9818 26.8288C32.201 26.1944 31.5679 26.1944 31.3101 26.7977C30.903 27.7494 31.8519 28.0609 32.3082 28.5783C32.6327 28.9463 33.1716 28.9449 33.5294 28.6094C34.4291 27.7705 35.3099 26.9105 36.1718 26.0336C36.5137 25.6854 36.4674 25.2089 36.1429 24.8931C35.8184 24.5773 35.3591 24.559 34.9651 24.8578C34.8231 24.965 34.6971 25.0947 34.5725 25.2202C34.0466 25.7489 33.5237 26.2803 32.9818 26.8288ZM33.7989 34.7815C33.7989 34.7815 33.7989 34.7787 33.7989 34.7773C33.528 34.7773 33.2571 34.7773 32.9862 34.7773C32.95 34.7773 32.9138 34.7773 32.8775 34.7815C32.398 34.8351 32.0648 35.1762 32.0634 35.6147C32.0605 36.0517 32.3908 36.4296 32.8674 36.4521C33.4802 36.4817 34.0959 36.4803 34.7087 36.4521C35.1882 36.431 35.5214 36.0616 35.5243 35.6246C35.5272 35.1875 35.1954 34.8252 34.7188 34.7857C34.4146 34.7603 34.1046 34.7815 33.7975 34.7815H33.7989Z" fill="white"/>
<path d="M32.9242 7.77836H2.73552V8.34088C2.73552 15.06 2.73552 21.7778 2.73552 28.4969C2.73552 29.4655 2.98904 29.7122 3.98283 29.7122C13.2573 29.7122 14.5303 29.7122 23.8047 29.7122C24.6928 29.7122 25.1042 29.9786 25.1085 30.5524C25.1114 31.1262 24.6928 31.4011 23.8134 31.4011C14.5216 31.4011 13.2298 31.4011 3.93792 31.4011C2.02856 31.3997 1 30.3931 1 28.5237C1 20.3102 1 12.0966 1 3.88306C1 1.98687 2.02132 1 3.98283 1C15.8779 1 19.7731 1 31.6682 1C33.6543 1 34.6597 1.98405 34.6597 3.92817C34.6597 6.4616 34.6597 8.99362 34.6597 11.527C34.6597 11.668 34.6655 11.809 34.6568 11.9486C34.622 12.4744 34.2526 12.8339 33.7658 12.8184C33.2979 12.8043 32.9401 12.4575 32.9314 11.9514C32.914 10.9843 32.9256 10.0171 32.9256 9.05001C32.9256 8.64681 32.9256 8.24219 32.9256 7.77977L32.9242 7.77836ZM2.73842 6.03302H32.8793C32.8995 5.96676 32.9169 5.93433 32.9169 5.90191C32.9213 5.25199 32.9242 4.60065 32.9242 3.95073C32.9242 2.91593 32.6895 2.68895 31.6175 2.68895C19.7615 2.68895 15.9069 2.68895 4.05092 2.68895C3.90605 2.68895 3.76118 2.6819 3.61776 2.69177C3.09914 2.72702 2.7587 3.02449 2.74566 3.52074C2.72393 4.34407 2.73986 5.16881 2.73986 6.03302H2.73842Z" fill="#014898"/>
<path d="M25.9806 26.3343C25.9806 23.0466 25.9806 19.7575 25.9806 16.4698C25.9806 14.6878 27.0367 13.6685 28.8823 13.6685C32.1535 13.6685 35.4246 13.6685 38.6957 13.6685C40.5413 13.6685 41.6003 14.6878 41.6017 16.4684C41.6017 23.0452 41.6017 29.6219 41.6017 36.1987C41.6017 37.9793 40.5413 39.0014 38.6986 39.0014C35.4275 39.0014 32.1564 39.0014 28.8852 39.0014C27.0251 39.0014 25.9806 37.9751 25.9806 36.148C25.9806 32.8772 25.9806 29.6064 25.9806 26.3357V26.3343ZM39.8677 26.3329C39.8677 23.0607 39.8677 19.7885 39.8677 16.5178C39.8677 15.6211 39.5953 15.3575 38.674 15.3575C35.4202 15.3575 32.1651 15.3575 28.9113 15.3575C27.99 15.3575 27.7191 15.6211 27.7191 16.5192C27.7191 23.0635 27.7191 29.6064 27.7191 36.1508C27.7191 37.0474 27.9914 37.3125 28.9128 37.3125C32.1665 37.3125 35.4217 37.3125 38.6754 37.3125C39.5953 37.3125 39.8691 37.046 39.8691 36.1494C39.8691 32.8772 39.8691 29.605 39.8691 26.3343L39.8677 26.3329Z" fill="#014898"/>
<path d="M21.1652 5.21674C21.0204 5.21674 20.8755 5.22943 20.7321 5.21533C20.2511 5.16881 19.9179 4.82763 19.9107 4.38918C19.9034 3.95214 20.2323 3.58418 20.7074 3.54471C21.0305 3.51792 21.3579 3.51933 21.6824 3.5433C22.1634 3.57854 22.498 3.92958 22.5053 4.36662C22.5125 4.80226 22.1808 5.16317 21.707 5.21392C21.5289 5.23366 21.3463 5.21674 21.1652 5.21815V5.21674Z" fill="#014898"/>
<path d="M25.5142 5.21533C25.3519 5.21533 25.1853 5.23648 25.0274 5.2111C24.5595 5.13638 24.2842 4.86288 24.2538 4.39764C24.2263 3.96342 24.5682 3.58982 25.039 3.54471C25.3258 3.51792 25.617 3.52638 25.9053 3.53625C26.463 3.55457 26.8325 3.88306 26.8441 4.35676C26.8571 4.85019 26.4746 5.19841 25.8923 5.22097C25.7662 5.2252 25.6388 5.22097 25.5127 5.22097C25.5127 5.21815 25.5127 5.21674 25.5127 5.21392L25.5142 5.21533Z" fill="#014898"/>
<path d="M29.8501 5.21533C29.6878 5.21533 29.5212 5.23648 29.3633 5.2111C28.8968 5.13497 28.6201 4.86006 28.5926 4.39482C28.5665 3.9606 28.9084 3.58841 29.3807 3.54471C29.6675 3.51792 29.9587 3.52638 30.247 3.53625C30.8033 3.55457 31.1727 3.88588 31.1828 4.35958C31.1944 4.85442 30.8134 5.19841 30.2282 5.22097C30.1021 5.2252 29.9747 5.22097 29.8486 5.22097C29.8486 5.21815 29.8486 5.21674 29.8486 5.21392L29.8501 5.21533Z" fill="#014898"/>
<path d="M32.9792 26.8291C33.521 26.2807 34.044 25.7492 34.5699 25.2205C34.6959 25.0951 34.8205 24.9653 34.9625 24.8582C35.3565 24.5593 35.8157 24.5776 36.1402 24.8934C36.4647 25.2107 36.5111 25.6858 36.1692 26.034C35.3072 26.9109 34.4265 27.7695 33.5268 28.6097C33.1675 28.9452 32.6286 28.9452 32.3056 28.5787C31.8492 28.0613 30.9004 27.7497 31.3074 26.7981C31.5653 26.1947 32.1984 26.1961 32.9792 26.8291Z" fill="#014898"/>
<path d="M33.7977 34.7833C34.1048 34.7833 34.4134 34.7621 34.7191 34.7875C35.1957 34.827 35.5274 35.1893 35.5245 35.6263C35.5216 36.0648 35.1885 36.4327 34.7089 36.4539C34.0961 36.4821 33.479 36.4821 32.8677 36.4539C32.3911 36.4313 32.0608 36.0549 32.0636 35.6165C32.0665 35.178 32.3997 34.8368 32.8778 34.7833C32.914 34.779 32.9502 34.779 32.9865 34.779C33.2574 34.779 33.5283 34.779 33.7992 34.779V34.7833H33.7977Z" fill="#014898"/>
<path d="M32.9242 7.77836H2.73552V8.34088C2.73552 15.06 2.73552 21.7778 2.73552 28.4969C2.73552 29.4655 2.98904 29.7122 3.98283 29.7122C13.2573 29.7122 14.5303 29.7122 23.8047 29.7122C24.6928 29.7122 25.1042 29.9786 25.1085 30.5524C25.1114 31.1262 24.6928 31.4011 23.8134 31.4011C14.5216 31.4011 13.2298 31.4011 3.93792 31.4011C2.02856 31.3997 1 30.3931 1 28.5237C1 20.3102 1 12.0966 1 3.88306C1 1.98687 2.02132 1 3.98283 1C15.8779 1 19.7731 1 31.6682 1C33.6543 1 34.6597 1.98405 34.6597 3.92817C34.6597 6.4616 34.6597 8.99362 34.6597 11.527C34.6597 11.668 34.6655 11.809 34.6568 11.9486C34.622 12.4744 34.2526 12.8339 33.7658 12.8184C33.2979 12.8043 32.9401 12.4575 32.9314 11.9514C32.914 10.9843 32.9256 10.0171 32.9256 9.05001C32.9256 8.64681 32.9256 8.24219 32.9256 7.77977L32.9242 7.77836ZM2.73842 6.03302H32.8793C32.8995 5.96676 32.9169 5.93433 32.9169 5.90191C32.9213 5.25199 32.9242 4.60065 32.9242 3.95073C32.9242 2.91593 32.6895 2.68895 31.6175 2.68895C19.7615 2.68895 15.9069 2.68895 4.05092 2.68895C3.90605 2.68895 3.76118 2.6819 3.61776 2.69177C3.09914 2.72702 2.7587 3.02449 2.74566 3.52074C2.72393 4.34407 2.73986 5.16881 2.73986 6.03302H2.73842Z" stroke="white" stroke-width="0.3"/>
<path d="M25.9806 26.3343C25.9806 23.0466 25.9806 19.7575 25.9806 16.4698C25.9806 14.6878 27.0367 13.6685 28.8823 13.6685C32.1535 13.6685 35.4246 13.6685 38.6957 13.6685C40.5413 13.6685 41.6003 14.6878 41.6017 16.4684C41.6017 23.0452 41.6017 29.6219 41.6017 36.1987C41.6017 37.9793 40.5413 39.0014 38.6986 39.0014C35.4275 39.0014 32.1564 39.0014 28.8852 39.0014C27.0251 39.0014 25.9806 37.9751 25.9806 36.148C25.9806 32.8772 25.9806 29.6064 25.9806 26.3357V26.3343ZM39.8677 26.3329C39.8677 23.0607 39.8677 19.7885 39.8677 16.5178C39.8677 15.6211 39.5953 15.3575 38.674 15.3575C35.4202 15.3575 32.1651 15.3575 28.9113 15.3575C27.99 15.3575 27.7191 15.6211 27.7191 16.5192C27.7191 23.0635 27.7191 29.6064 27.7191 36.1508C27.7191 37.0474 27.9914 37.3125 28.9128 37.3125C32.1665 37.3125 35.4217 37.3125 38.6754 37.3125C39.5953 37.3125 39.8691 37.046 39.8691 36.1494C39.8691 32.8772 39.8691 29.605 39.8691 26.3343L39.8677 26.3329Z" stroke="white" stroke-width="0.3"/>
<path d="M21.1652 5.21674C21.0204 5.21674 20.8755 5.22943 20.7321 5.21533C20.2511 5.16881 19.9179 4.82763 19.9107 4.38918C19.9034 3.95214 20.2323 3.58418 20.7074 3.54471C21.0305 3.51792 21.3579 3.51933 21.6824 3.5433C22.1634 3.57854 22.498 3.92958 22.5053 4.36662C22.5125 4.80226 22.1808 5.16317 21.707 5.21392C21.5289 5.23366 21.3463 5.21674 21.1652 5.21815V5.21674Z" stroke="white" stroke-width="0.3"/>
<path d="M25.5142 5.21533C25.3519 5.21533 25.1853 5.23648 25.0274 5.2111C24.5595 5.13638 24.2842 4.86288 24.2538 4.39764C24.2263 3.96342 24.5682 3.58982 25.039 3.54471C25.3258 3.51792 25.617 3.52638 25.9053 3.53625C26.463 3.55457 26.8325 3.88306 26.8441 4.35676C26.8571 4.85019 26.4746 5.19841 25.8923 5.22097C25.7662 5.2252 25.6388 5.22097 25.5127 5.22097C25.5127 5.21815 25.5127 5.21674 25.5127 5.21392L25.5142 5.21533Z" stroke="white" stroke-width="0.3"/>
<path d="M29.8501 5.21533C29.6878 5.21533 29.5212 5.23648 29.3633 5.2111C28.8968 5.13497 28.6201 4.86006 28.5926 4.39482C28.5665 3.9606 28.9084 3.58841 29.3807 3.54471C29.6675 3.51792 29.9587 3.52638 30.247 3.53625C30.8033 3.55457 31.1727 3.88588 31.1828 4.35958C31.1944 4.85442 30.8134 5.19841 30.2282 5.22097C30.1021 5.2252 29.9747 5.22097 29.8486 5.22097C29.8486 5.21815 29.8486 5.21674 29.8486 5.21392L29.8501 5.21533Z" stroke="white" stroke-width="0.3"/>
<path d="M32.9792 26.8291C33.521 26.2807 34.044 25.7492 34.5699 25.2205C34.6959 25.0951 34.8205 24.9653 34.9625 24.8582C35.3565 24.5593 35.8157 24.5776 36.1402 24.8934C36.4647 25.2107 36.5111 25.6858 36.1692 26.034C35.3072 26.9109 34.4265 27.7695 33.5268 28.6097C33.1675 28.9452 32.6286 28.9452 32.3056 28.5787C31.8492 28.0613 30.9004 27.7497 31.3074 26.7981C31.5653 26.1947 32.1984 26.1961 32.9792 26.8291Z" stroke="white" stroke-width="0.3"/>
<path d="M33.7977 34.7833C34.1048 34.7833 34.4134 34.7621 34.7191 34.7875C35.1957 34.827 35.5274 35.1893 35.5245 35.6263C35.5216 36.0648 35.1885 36.4327 34.7089 36.4539C34.0961 36.4821 33.479 36.4821 32.8677 36.4539C32.3911 36.4313 32.0608 36.0549 32.0636 35.6165C32.0665 35.178 32.3997 34.8368 32.8778 34.7833C32.914 34.779 32.9502 34.779 32.9865 34.779C33.2574 34.779 33.5283 34.779 33.7992 34.779V34.7833H33.7977Z" stroke="white" stroke-width="0.3"/>
</g>
<defs>
<clipPath id="clip0_5352_4350">
<rect width="42" height="40" fill="white"/>
</clipPath>
</defs>
</svg>
