<svg width="26" height="40" viewBox="0 0 26 40" fill="none" xmlns="http://www.w3.org/2000/svg">
<g clip-path="url(#clip0_5352_4338)">
<path d="M3.17618 40.0001C2.5811 39.7309 1.92256 39.5483 1.40447 39.1726C0.403655 38.4464 0 37.3748 0 36.1445C0.0020807 33.0465 0 29.9485 0 26.8504C0 19.2092 0 11.5689 0 3.92768C0.00104035 2.13085 0.922789 0.734696 2.48643 0.219226C2.88593 0.0867068 3.32287 0.0115777 3.74317 0.0115777C9.80424 -0.00198725 15.8664 -0.00303071 21.9285 0.00531697C23.9936 0.00740389 25.5291 1.4912 25.6633 3.57708C25.6706 3.69395 25.6716 3.81082 25.6716 3.92873C25.6716 14.6419 25.6716 25.3541 25.6716 36.0673C25.6716 37.7942 24.83 39.1361 23.3777 39.7215C23.0926 39.8363 22.7909 39.9093 22.4965 40.0011H3.17618V40.0001ZM7.62263 1.40564C6.32636 1.40564 5.08106 1.40251 3.83577 1.40564C2.35431 1.41086 1.40135 2.36354 1.40135 3.8536C1.39927 14.62 1.39927 25.3864 1.40135 36.1529C1.40135 37.6367 2.36055 38.5914 3.84305 38.5946C6.03714 38.5987 8.23124 38.5956 10.4253 38.5956C14.2424 38.5956 18.0594 38.5977 21.8754 38.5946C23.0042 38.5935 23.8822 37.9695 24.1631 36.9542C24.2422 36.6704 24.2672 36.3636 24.2672 36.0673C24.2724 25.353 24.2713 14.6378 24.2713 3.92351C24.2713 3.83273 24.2724 3.7409 24.2682 3.65012C24.2006 2.34475 23.2487 1.41921 21.9441 1.40773C20.7498 1.39729 19.5554 1.4046 18.3611 1.40564C18.2612 1.40564 18.1603 1.41921 18.0688 1.42547C17.0856 4.4995 15.4273 5.93947 12.8712 5.95826C11.7445 5.9666 10.7218 5.64522 9.80633 4.99201C8.5808 4.11759 7.8796 2.91031 7.62367 1.4046L7.62263 1.40564ZM16.5665 1.42338H9.10825C9.14883 3.01361 10.9809 4.55272 12.8161 4.55376C14.6887 4.55376 16.5187 3.03448 16.5665 1.42338Z" fill="#014898"/>
<path d="M5.6875 18.5116C5.72703 13.7837 9.6169 9.96571 14.3141 10.0888C14.5076 10.0941 14.7042 10.1087 14.8946 10.1431C15.4699 10.2485 15.6863 10.8516 15.3076 11.3013C15.1235 11.5194 14.9019 11.7062 14.724 11.9295C13.022 14.0655 12.5756 16.4498 13.5598 18.9958C14.545 21.5439 16.4853 22.9964 19.1746 23.4263C19.5241 23.4827 19.8113 23.5902 19.9153 23.9502C20.0204 24.3091 19.8456 24.57 19.5782 24.7985C17.1979 26.8291 14.4961 27.4791 11.5218 26.4952C8.50164 25.4966 6.64046 23.3543 5.91534 20.248C5.78321 19.6824 5.76136 19.0918 5.6875 18.5116ZM13.1624 11.5904C10.9153 11.533 8.16457 13.8954 7.39991 16.5395C6.51666 19.5948 7.80045 22.8712 10.5106 24.5199C12.9398 25.9974 15.912 25.6917 17.4819 24.5261C12.4186 22.9182 9.7948 16.4759 13.1624 11.5904Z" fill="#014898"/>
<path d="M12.8175 32.1893C10.793 32.1893 8.76741 32.1893 6.74289 32.1893C6.61285 32.1893 6.48177 32.1966 6.3538 32.1809C6.00321 32.1402 5.75664 31.8773 5.73584 31.5371C5.71399 31.1771 5.93871 30.8714 6.29554 30.8025C6.43391 30.7754 6.57956 30.7837 6.72209 30.7827C10.7982 30.7827 14.8732 30.7827 18.9493 30.7827C19.0658 30.7827 19.1844 30.7764 19.2999 30.79C19.6869 30.8359 19.9428 31.1239 19.9387 31.4975C19.9345 31.8731 19.6723 32.1496 19.2812 32.1841C19.1647 32.1945 19.0481 32.1882 18.9306 32.1882C16.8925 32.1882 14.8545 32.1882 12.8175 32.1882V32.1893Z" fill="#014898"/>
<path d="M12.8528 34.1261C13.8776 34.1261 14.9013 34.123 15.926 34.1272C16.4629 34.1293 16.7666 34.3912 16.7625 34.8305C16.7583 35.252 16.4525 35.5275 15.9489 35.5296C13.8745 35.5348 11.8 35.5369 9.72556 35.5296C9.0847 35.5275 8.71954 35.0026 8.98691 34.4966C9.1388 34.2096 9.39369 34.124 9.70267 34.1251C10.7534 34.1293 11.8031 34.1272 12.8539 34.1272L12.8528 34.1261Z" fill="#014898"/>
</g>
<defs>
<clipPath id="clip0_5352_4338">
<rect width="25.6716" height="40" fill="white"/>
</clipPath>
</defs>
</svg>
