<svg width="125" height="40" viewBox="0 0 125 40" fill="none" xmlns="http://www.w3.org/2000/svg">
<circle cx="19.8689" cy="19.8689" r="18.6767" stroke="#616666" stroke-width="2.38427"/>
<path d="M23.6908 26.785L24.2391 28.0807C22.9025 30.6721 20.3663 32.0359 18.07 32.0359C15.0883 32.0359 14.9169 30.3993 15.6367 28.0125C16.5278 25.0461 17.8644 20.6476 18.5156 18.3972L16.1165 18.1927L16.6306 17.1016H18.9269C19.4409 15.499 19.8522 14.0329 20.1264 12.9759C21.5659 12.8054 23.4851 12.4985 24.479 12.1575C24.2049 12.8736 23.3823 15.2603 22.7997 17.1016H26.3983L25.85 18.1927L22.4227 18.3972C21.8058 20.2726 19.7494 27.0578 19.2353 29.3082C19.0639 30.0583 19.1668 30.4675 19.8522 30.4675C21.2574 30.4675 23.0396 28.4558 23.6908 26.785Z" fill="#616666"/>
<path d="M17.815 12.2865C17.815 12.9746 17.5403 13.6344 17.0513 14.121C16.5622 14.6075 15.8989 14.8808 15.2073 14.8808C14.5157 14.8808 13.8524 14.6075 13.3634 14.121C12.8743 13.6344 12.5996 12.9746 12.5996 12.2865C12.5996 11.5985 12.8743 10.9386 13.3634 10.4521C13.8524 9.96553 14.5157 9.6922 15.2073 9.6922C15.8989 9.6922 16.5622 9.96553 17.0513 10.4521C17.5403 10.9386 17.815 11.5985 17.815 12.2865Z" fill="#616666"/>
<path d="M51.3684 25.1971V14.8199H52.933V25.1971H51.3684ZM58.6707 25.1971V16.1986H55.005V14.8199H63.9011V16.1986H60.2354V25.1971H58.6707ZM69.8146 25.1971V14.8199H71.9157L75.179 21.4613L78.4424 14.8199H80.5286V25.1971H79.0534V16.7174L75.1641 24.4559L71.2749 16.7174V25.1971H69.8146ZM86.8515 25.3306C86.1065 25.3306 85.4307 25.1575 84.825 24.8117C84.2289 24.4659 83.7521 23.9963 83.3945 23.4034C83.0465 22.8104 82.8729 22.1481 82.8729 21.4168C82.8729 20.6953 83.0417 20.043 83.3795 19.46C83.705 18.8795 84.1777 18.3939 84.7505 18.0517C85.3264 17.6959 85.9671 17.518 86.6727 17.518C87.3779 17.518 88.0038 17.6959 88.5503 18.0517C89.0964 18.3974 89.5285 18.8718 89.8467 19.4748C90.1745 20.0678 90.3384 20.7397 90.3384 21.491V21.9061H84.363C84.4356 22.3052 84.5931 22.6843 84.825 23.0179C85.059 23.3403 85.365 23.6042 85.719 23.7888C86.0878 23.9769 86.4967 24.0735 86.9111 24.0705C87.2784 24.0705 87.6312 24.016 87.9691 23.9074C88.3167 23.7888 88.6047 23.6209 88.8334 23.4034L89.7871 24.3373C89.34 24.6735 88.8781 24.9255 88.4012 25.0934C87.9341 25.2516 87.4178 25.3306 86.8515 25.3306ZM84.3779 20.7942H88.8632C88.8036 20.3988 88.6643 20.053 88.446 19.7565C88.246 19.4579 87.9746 19.2134 87.6562 19.0449C87.3486 18.8671 86.9986 18.775 86.6429 18.7781C86.2796 18.7746 85.9211 18.8612 85.5998 19.0301C85.2788 19.2006 85.003 19.4445 84.7952 19.7417C84.5865 20.0382 84.4472 20.3891 84.3779 20.7942ZM96.0187 25.3157C95.3132 25.3157 94.6676 25.1427 94.0816 24.7969C93.5051 24.4609 93.0273 23.9804 92.6958 23.4034C92.3579 22.8104 92.1891 22.1481 92.1891 21.4168C92.1891 20.6856 92.3579 20.0281 92.6958 19.4452C93.0358 18.8696 93.5179 18.3899 94.0965 18.0517C94.6825 17.7059 95.3333 17.5328 96.0485 17.5328C96.4658 17.5328 96.8681 17.5969 97.2555 17.7255C97.643 17.8541 98.0006 18.0416 98.3284 18.2888V14.8199L99.8186 14.5382V25.1971H98.3433V24.4707C97.6974 25.0341 96.9225 25.3157 96.0187 25.3157ZM96.2125 24.026C96.6494 24.026 97.0469 23.947 97.4046 23.7888C97.7625 23.6376 98.0792 23.4039 98.3284 23.1069V19.712C98.08 19.4352 97.7719 19.218 97.4046 19.0597C97.0469 18.8918 96.6494 18.8077 96.2125 18.8077C95.7356 18.8077 95.3035 18.9215 94.9161 19.1487C94.5308 19.3737 94.2122 19.6958 93.9922 20.0826C93.7635 20.4681 93.6495 20.908 93.6495 21.402C93.6495 21.8961 93.7635 22.3408 93.9922 22.7362C94.2144 23.1252 94.5323 23.4517 94.9161 23.685C95.3035 23.9122 95.7356 24.026 96.2125 24.026ZM102.328 25.1971V17.6514H103.818V25.1971H102.328ZM103.073 16.4358C102.825 16.4358 102.611 16.3468 102.432 16.1689C102.253 15.981 102.164 15.7638 102.164 15.5166C102.164 15.2598 102.253 15.0471 102.432 14.8792C102.611 14.7013 102.825 14.6123 103.073 14.6123C103.332 14.6123 103.55 14.7013 103.729 14.8792C103.907 15.0471 103.997 15.2598 103.997 15.5166C103.997 15.7638 103.907 15.981 103.729 16.1689C103.55 16.3468 103.332 16.4358 103.073 16.4358ZM109.879 25.3306C109.155 25.3306 108.494 25.1575 107.898 24.8117C107.31 24.4739 106.822 23.9882 106.482 23.4034C106.144 22.8104 105.975 22.1481 105.975 21.4168C105.975 20.6856 106.149 20.0281 106.497 19.4452C106.834 18.8633 107.316 18.3781 107.898 18.0368C108.494 17.681 109.155 17.5031 109.879 17.5031C110.456 17.5031 111.007 17.6117 111.534 17.8293C112.055 18.0365 112.527 18.3496 112.919 18.7484L111.995 19.7713C111.707 19.4552 111.384 19.218 111.027 19.0597C110.675 18.9029 110.294 18.8221 109.909 18.8225C109.468 18.8183 109.035 18.9364 108.658 19.1635C108.29 19.3907 107.997 19.702 107.778 20.0975C107.56 20.4929 107.451 20.9325 107.451 21.4168C107.451 21.9012 107.56 22.3408 107.778 22.7362C107.99 23.1236 108.298 23.4504 108.672 23.685C109.05 23.9122 109.472 24.026 109.939 24.026C110.327 24.026 110.689 23.9519 111.027 23.8036C111.365 23.6454 111.683 23.4182 111.981 23.1217L112.89 24.0705C112.497 24.4728 112.025 24.7907 111.504 25.0044C110.99 25.2213 110.437 25.3323 109.879 25.3306ZM117.233 25.3306C116.687 25.3306 116.205 25.2368 115.788 25.0489C115.371 24.8514 115.043 24.5793 114.804 24.2335C114.566 23.8878 114.447 23.4875 114.447 23.0327C114.447 22.3212 114.72 21.7626 115.266 21.3576C115.812 20.9425 116.563 20.7349 117.516 20.7349C118.261 20.7349 118.952 20.8783 119.588 21.1648V20.3643C119.588 19.8206 119.429 19.4155 119.111 19.1487C118.803 18.8818 118.346 18.7484 117.74 18.7484C117.392 18.7484 117.029 18.8029 116.652 18.9115C116.274 19.0104 115.852 19.1683 115.385 19.3859L114.834 18.274C115.41 18.0072 115.946 17.8145 116.443 17.6959C116.935 17.5681 117.441 17.5033 117.948 17.5031C118.932 17.5031 119.692 17.7355 120.228 18.1999C120.774 18.6643 121.048 19.3266 121.048 20.1864V25.1971H119.588V24.5449C119.263 24.8046 118.895 25.0053 118.5 25.1378C118.112 25.2664 117.69 25.3306 117.233 25.3306ZM115.877 23.0031C115.877 23.3689 116.031 23.6654 116.339 23.8926C116.657 24.1101 117.069 24.2187 117.576 24.2187C117.973 24.2187 118.336 24.1642 118.664 24.0556C119.005 23.9349 119.319 23.7485 119.588 23.5071V22.2322C119.305 22.0666 118.999 21.9465 118.679 21.8764C118.371 21.7975 118.023 21.7578 117.636 21.7578C117.089 21.7578 116.657 21.8716 116.339 22.0988C116.031 22.3163 115.877 22.6176 115.877 23.0031ZM123.51 25.1971V14.8199L125 14.5382V25.1971H123.51Z" fill="#616666"/>
</svg>
