<svg width="91" height="40" viewBox="0 0 91 40" fill="none" xmlns="http://www.w3.org/2000/svg">
<rect x="0.46875" y="0.609375" width="89.8442" height="38.8516" fill="white"/>
<path d="M29.8755 31.25L18.4932 13.7616V27.7968C18.4932 28.271 18.5574 28.6514 18.6859 28.938C18.8242 29.2245 19.002 29.4468 19.2194 29.6049C19.4467 29.7531 19.7134 29.8519 20.0197 29.9013C20.326 29.9507 20.6471 29.9754 20.9831 29.9754H21.3832V31.25H13.7654V29.9754H14.1507C14.4965 29.9754 14.8177 29.9507 15.1141 29.9013C15.4204 29.8519 15.6871 29.7531 15.9144 29.6049C16.1416 29.4468 16.3195 29.2245 16.4479 28.938C16.5764 28.6514 16.6406 28.271 16.6406 27.7968V12.9168C16.6406 12.4722 16.5714 12.1165 16.4331 11.8497C16.3047 11.5731 16.1268 11.3606 15.8996 11.2124C15.6723 11.0642 15.4055 10.9703 15.0993 10.9308C14.8028 10.8814 14.4867 10.8567 14.1507 10.8567H13.7654V9.58214H19.3231L30.1867 26.3592V12.9168C30.1867 12.4722 30.1176 12.1165 29.9792 11.8497C29.8508 11.5731 29.6729 11.3606 29.4457 11.2124C29.2184 11.0642 28.9517 10.9703 28.6454 10.9308C28.349 10.8814 28.0328 10.8567 27.6968 10.8567H27.2967V9.58214H34.9145V10.8567H34.5292C34.1834 10.8567 33.8573 10.8814 33.551 10.9308C33.2546 10.9802 32.9928 11.084 32.7655 11.2421C32.5383 11.3903 32.3604 11.6076 32.232 11.8942C32.1035 12.1807 32.0393 12.5611 32.0393 13.0354V31.25H29.8755ZM56.1229 20.3864C56.1229 22.0463 55.9154 23.5482 55.5005 24.8919C55.0855 26.2258 54.468 27.367 53.6479 28.3155C52.8278 29.2541 51.8002 29.9804 50.5652 30.4941C49.3301 30.998 47.8876 31.25 46.2375 31.25H36.945V29.9754H37.3303C37.6761 29.9754 37.9972 29.9507 38.2936 29.9013C38.5999 29.8519 38.8667 29.7531 39.094 29.6049C39.3212 29.4468 39.4991 29.2245 39.6275 28.938C39.7559 28.6514 39.8202 28.271 39.8202 27.7968V12.9168C39.8202 12.4722 39.751 12.1165 39.6127 11.8497C39.4842 11.5731 39.3064 11.3606 39.0791 11.2124C38.8519 11.0642 38.5851 10.9703 38.2788 10.9308C37.9824 10.8814 37.6662 10.8567 37.3303 10.8567H36.945V9.58214H46.2375C47.7986 9.58214 49.1918 9.82422 50.417 10.3084C51.6421 10.7826 52.6747 11.4792 53.5145 12.3981C54.3642 13.317 55.0114 14.4483 55.456 15.792C55.9006 17.1358 56.1229 18.6672 56.1229 20.3864ZM45.5261 29.7086C46.7316 29.7086 47.7838 29.5061 48.6829 29.101C49.5919 28.686 50.3478 28.0833 50.9505 27.2929C51.5532 26.5024 52.0028 25.5292 52.2992 24.3732C52.6055 23.2172 52.7586 21.8883 52.7586 20.3864C52.7586 17.3729 52.1559 15.0707 50.9505 13.48C49.755 11.8892 47.9567 11.0939 45.5558 11.0939H42.8881V29.7086H45.5261ZM63.3851 24.0027L62.2291 27.1891C62.1401 27.4263 62.071 27.6634 62.0216 27.9005C61.9722 28.1278 61.9475 28.3254 61.9475 28.4934C61.9475 29.0071 62.1105 29.3826 62.4365 29.6197C62.7725 29.8569 63.2813 29.9754 63.9631 29.9754H64.6597V31.25H57.2493V29.9754H57.8273C58.1237 29.9754 58.3757 29.9458 58.5832 29.8865C58.7907 29.8173 58.9784 29.6938 59.1464 29.516C59.3143 29.3381 59.4724 29.0961 59.6206 28.7898C59.7787 28.4835 59.9516 28.0883 60.1393 27.6041L66.8679 9.58214H69.2392L76.1012 28.36C76.2198 28.6761 76.3384 28.938 76.4569 29.1455C76.5854 29.353 76.7336 29.5209 76.9015 29.6494C77.0695 29.7679 77.2622 29.8519 77.4796 29.9013C77.6969 29.9507 77.9538 29.9754 78.2502 29.9754H78.6504V31.25H70.3063V29.9754H71.0029C72.2182 29.9754 72.8259 29.4913 72.8259 28.523C72.8259 28.355 72.8012 28.1821 72.7518 28.0043C72.7122 27.8264 72.6529 27.6239 72.5739 27.3966L71.3586 24.0027H63.3851ZM68.928 17.1703C68.6118 16.2712 68.3204 15.4314 68.0536 14.6508C67.7967 13.8604 67.5843 13.0996 67.4163 12.3684C67.3471 12.734 67.2632 13.0897 67.1644 13.4355C67.0754 13.7715 66.9766 14.1173 66.8679 14.473C66.7593 14.8287 66.6357 15.2041 66.4974 15.5993C66.3591 15.9847 66.201 16.4145 66.0232 16.8887L63.9631 22.4761H70.8102L68.928 17.1703Z" fill="#5E5E5E"/>
</svg>
