<svg width="78" height="32" viewBox="0 0 78 32" fill="none" xmlns="http://www.w3.org/2000/svg">
<g clip-path="url(#clip0_2271_14898)">
<path d="M0 0.601562H78V31.6016H0V0.601562Z" fill="white"/>
<path d="M7.60453 3.50938H16.1845L21.2545 20.9469H21.4495L24.9595 3.50938H31.3945L25.9345 28.6969H17.5495L12.2845 11.2594H12.0895L8.57953 28.6969H2.14453M33.7345 3.50938H40.7545L38.8045 13.0031H46.6045L48.7495 3.50938H55.5745L50.3095 28.6969H43.4845L45.6295 17.8469H37.6345L35.2945 28.6969H28.6645M73.5145 9.12813C72.1495 8.54688 70.3945 7.96562 67.8595 7.96562C65.1295 7.96562 62.9845 8.35313 62.9845 10.4844C62.9845 13.9719 72.9295 12.8094 72.9295 20.3656C72.9295 27.3406 66.4945 29.0844 60.4495 29.0844C57.9145 29.0844 54.7945 28.5031 52.6495 27.7281L54.2095 22.4969C55.5745 23.2719 58.3045 23.8531 60.4495 23.8531C62.5945 23.8531 65.9095 23.4656 65.9095 20.9469C65.9095 16.8781 55.9645 18.4281 55.9645 11.2594C55.9645 4.67188 61.6195 2.73438 67.2745 2.73438C70.3945 2.73438 73.3195 3.12188 75.0745 3.89688" fill="#A5A5A5"/>
</g>
<defs>
<clipPath id="clip0_2271_14898">
<rect width="78" height="31" fill="white" transform="translate(0 0.601562)"/>
</clipPath>
</defs>
</svg>
