<svg width="88" height="35" viewBox="0 0 88 35" fill="none" xmlns="http://www.w3.org/2000/svg">
<g clip-path="url(#clip0_2271_14448)">
<path d="M8.53125 3.28125H18.1563L23.8437 22.9687H24.0625L28 3.28125H35.2188L29.0937 31.7187H19.6875L13.7813 12.0313H13.5625L9.625 31.7187H2.40625M37.8437 3.28125H45.7187L43.5312 14H52.2812L54.6875 3.28125H62.3437L56.4375 31.7187H48.7812L51.1875 19.4687H42.2187L39.5938 31.7187H32.1562M82.4688 9.625C80.9375 8.96875 78.9688 8.3125 76.125 8.3125C73.0625 8.3125 70.6562 8.75 70.6562 11.1562C70.6562 15.0937 81.8125 13.7812 81.8125 22.3125C81.8125 30.1875 74.5937 32.1562 67.8125 32.1562C64.9687 32.1562 61.4687 31.5 59.0625 30.625L60.8125 24.7187C62.3437 25.5937 65.4062 26.25 67.8125 26.25C70.2187 26.25 73.9375 25.8125 73.9375 22.9687C73.9375 18.375 62.7813 20.125 62.7813 12.0313C62.7813 4.59375 69.125 2.40625 75.4688 2.40625C78.9688 2.40625 82.25 2.84375 84.2188 3.71875" fill="#F2F8FF"/>
</g>
<defs>
<clipPath id="clip0_2271_14448">
<rect width="87.5" height="35" fill="white"/>
</clipPath>
</defs>
</svg>
