<svg width="78" height="32" viewBox="0 0 78 32" fill="none" xmlns="http://www.w3.org/2000/svg">
<g clip-path="url(#clip0_188_237)">
<path d="M0 0.582031H78V31.582H0V0.582031Z" fill="#A3A3A3"/>
<path d="M7.60502 3.48789H16.185L21.255 20.9254H21.45L24.96 3.48789H31.395L25.935 28.6754H17.55L12.285 11.2379H12.09L8.58002 28.6754H2.14502M33.735 3.48789H40.755L38.805 12.9816H46.605L48.75 3.48789H55.575L50.31 28.6754H43.485L45.63 17.8254H37.635L35.295 28.6754H28.665M73.515 9.10664C72.15 8.52539 70.395 7.94414 67.86 7.94414C65.13 7.94414 62.985 8.33164 62.985 10.4629C62.985 13.9504 72.93 12.7879 72.93 20.3441C72.93 27.3191 66.495 29.0629 60.45 29.0629C57.915 29.0629 54.795 28.4816 52.65 27.7066L54.21 22.4754C55.575 23.2504 58.305 23.8316 60.45 23.8316C62.595 23.8316 65.91 23.4441 65.91 20.9254C65.91 16.8566 55.965 18.4066 55.965 11.2379C55.965 4.65039 61.62 2.71289 67.275 2.71289C70.395 2.71289 73.32 3.10039 75.075 3.87539" fill="white"/>
</g>
<defs>
<clipPath id="clip0_188_237">
<rect width="78" height="31" fill="white" transform="translate(0 0.582031)"/>
</clipPath>
</defs>
</svg>
