<svg width="91" height="31" viewBox="0 0 91 31" fill="none" xmlns="http://www.w3.org/2000/svg">
<g clip-path="url(#clip0_188_216)">
<path fill-rule="evenodd" clip-rule="evenodd" d="M62.8984 2.71297C63.1458 2.71297 63.6761 2.76551 64.083 2.85374L63.8352 0.759843C63.3759 0.671617 62.9516 0.636719 62.4919 0.636719C60.4592 0.636719 59.3455 1.72758 59.2923 4.12066H56.2519V3.82108C56.2519 2.97686 56.6762 2.71297 57.6134 2.71297C57.8607 2.71297 58.391 2.76551 58.7975 2.85374L58.5501 0.759843C58.0904 0.671617 57.6661 0.636719 57.2068 0.636719C55.1737 0.636719 54.06 1.72758 54.0072 4.12066H53.1941L52.7876 6.17926H54.0072V13.2169H56.2519V6.17926H59.2923V13.2169H61.5374V6.17926H63.9416V4.12066H61.5374V3.82108C61.5374 2.97686 61.9617 2.71297 62.8984 2.71297Z" fill="#A3A3A3"/>
<path fill-rule="evenodd" clip-rule="evenodd" d="M49.8707 10.3322C49.5701 10.7718 48.7925 11.3525 47.838 11.3525C47.06 11.3525 46.2469 11.1062 46.2469 9.69853V4.12109H44.0022V10.191C44.0022 12.5139 45.487 13.393 47.3783 13.393C48.6688 13.393 49.4819 12.8476 49.9239 12.4959V13.2174H52.1158V4.12109H49.8707V10.3322Z" fill="#A3A3A3"/>
<path fill-rule="evenodd" clip-rule="evenodd" d="M64.8782 13.217H67.1232V4.12109H64.8782V13.217Z" fill="#A3A3A3"/>
<path fill-rule="evenodd" clip-rule="evenodd" d="M70.464 8.8193C70.4112 7.30613 71.3125 5.89844 73.1861 5.89844C73.9464 5.89844 74.5294 6.2682 74.7595 6.86618L70.464 8.8193ZM73.1333 3.94531C70.1811 3.94531 68.1838 6.03921 68.1838 8.78401C68.1838 11.2826 69.8277 13.4294 73.0624 13.4294C74.5826 13.4294 75.8022 13.042 77.0573 12.3209L76.3679 10.3854C75.3429 11.0716 74.4057 11.4586 73.2393 11.4586C72.3202 11.4586 71.5954 11.2473 71.0651 10.6666L77.3406 7.81627C76.8982 5.22988 75.4843 3.94531 73.1333 3.94531Z" fill="#A3A3A3"/>
<path fill-rule="evenodd" clip-rule="evenodd" d="M88.5827 10.2261C87.9993 10.8241 87.2217 11.3343 86.1257 11.3343C84.5173 11.3343 83.8456 10.0854 83.8456 8.73061C83.8456 7.1994 84.6587 6.00345 86.2494 6.00345C87.2748 6.00345 88.0879 6.54888 88.5827 7.1994V10.2261ZM88.5827 4.75378C88.1407 4.40205 87.3454 3.94446 86.0725 3.94446C83.5096 3.94446 81.53 5.72191 81.53 8.64278C81.53 11.9326 83.545 13.3929 85.7192 13.3929C87.1157 13.3929 87.9993 12.9533 88.6182 12.3902V13.2168H90.8278V0.777344L88.5827 1.05927V4.75378Z" fill="#A3A3A3"/>
<path fill-rule="evenodd" clip-rule="evenodd" d="M78.2244 13.2168H80.4694V0.777344L78.2244 1.05888V13.2168Z" fill="#A3A3A3"/>
<path fill-rule="evenodd" clip-rule="evenodd" d="M69.1029 24.3729V21.1532H71.4539V19.0946H69.1029V16.5078L66.8578 16.7894V19.0946H66.0451L65.6382 21.1532H66.8578V24.7246C66.8578 27.1526 67.4944 28.3316 70.1106 28.3316C70.4289 28.3316 70.9414 28.2964 71.3657 28.2085L71.6308 26.0797C71.242 26.2029 70.7117 26.2554 70.4289 26.2554C69.3857 26.2554 69.1029 25.9742 69.1029 24.3729Z" fill="#A3A3A3"/>
<path fill-rule="evenodd" clip-rule="evenodd" d="M62.7395 28.1895H64.9846V15.75L62.7395 16.0315V28.1895Z" fill="#A3A3A3"/>
<path fill-rule="evenodd" clip-rule="evenodd" d="M77.2872 18.9171C76.1208 18.9171 75.3254 19.2865 74.7593 19.6915V15.75L72.5146 16.0315V28.1894H74.7593V21.9435C75.1308 21.4862 75.8556 20.9581 76.7215 20.9581C77.5169 20.9581 78.4009 21.1518 78.4009 22.5418V28.1894H80.646V22.225C80.646 19.7264 78.9134 18.9171 77.2872 18.9171Z" fill="#A3A3A3"/>
<path fill-rule="evenodd" clip-rule="evenodd" d="M59.1686 25.4812C58.9744 25.6745 58.1258 26.3783 56.8707 26.3783C55.8276 26.3783 55.4037 25.8682 55.4037 25.2875C55.4037 24.5311 55.8453 24.126 57.0827 24.126C57.9667 24.126 58.8503 24.4605 59.1686 24.6895V25.4812ZM57.507 18.918C56.4465 18.918 55.3683 19.1117 54.4311 19.4461L53.9895 21.5573C54.7494 21.2056 56.0045 20.8358 57.1359 20.8358C58.4615 20.8358 59.1686 21.2581 59.1686 22.349V22.7536C58.4264 22.3666 57.5952 22.2259 56.7648 22.2259C54.7143 22.2259 53.1055 23.1234 53.1055 25.2694C53.1055 26.9238 54.3251 28.3664 56.4642 28.3664C57.949 28.3664 58.7975 27.786 59.204 27.3814V28.1903H61.4137V22.6658C61.4137 20.6421 60.6888 18.918 57.507 18.918Z" fill="#A3A3A3"/>
<path fill-rule="evenodd" clip-rule="evenodd" d="M40.2016 20.747H34.7747V15.873H32.4768V28.1894H34.7747V22.9464H40.2016V28.1894H42.4998V15.873H40.2016V20.747Z" fill="#A3A3A3"/>
<path fill-rule="evenodd" clip-rule="evenodd" d="M45.8936 23.792C45.8404 22.2788 46.7417 20.8711 48.6157 20.8711C49.376 20.8711 49.959 21.2409 50.1891 21.8388L45.8936 23.792ZM48.5625 18.918C45.6107 18.918 43.613 21.0119 43.613 23.7567C43.613 26.2552 45.2569 28.4021 48.492 28.4021C50.0122 28.4021 51.2318 28.0146 52.4869 27.2935L51.7975 25.3581C50.7725 26.0443 49.8353 26.4313 48.6689 26.4313C47.7494 26.4313 47.0249 26.2199 46.4943 25.6392L52.7698 22.7889C52.3278 20.2025 50.9135 18.918 48.5625 18.918Z" fill="#A3A3A3"/>
<path fill-rule="evenodd" clip-rule="evenodd" d="M24.9844 15.9352H15.4657V28.5143C15.3813 28.5472 15.2905 28.5849 15.2093 28.6154C14.5186 28.8688 13.5515 29.1739 12.8656 29.3148C12.18 29.1739 11.213 28.8688 10.5278 28.6174C10.4446 28.5861 10.3518 28.5476 10.265 28.5139V15.9352H0.746723V10.932H10.265V0.922725C10.2798 0.921521 10.2969 0.920316 10.3116 0.919513C11.2484 0.860496 12.0124 0.835203 12.8656 0.835203C13.7187 0.835203 14.4823 0.860496 15.4159 0.919112C15.4319 0.920316 15.4498 0.921521 15.4657 0.922725V10.932H24.9844V15.9352ZM15.4657 0.167144C14.3717 0.0984918 13.5838 0.0820312 12.8656 0.0820312C12.1477 0.0820312 11.3595 0.0988933 10.265 0.167546C7.73297 0.338977 3.69561 0.856883 0.000244141 2.30622V2.30702V10.932V15.9352V16.5567V16.5647C0.000244141 16.6305 0.00422536 16.694 0.00541973 16.7594C0.119283 24.3481 6.53462 27.9205 10.265 29.3232V29.3224C10.2658 29.3228 10.2662 29.3232 10.267 29.3232C11.0191 29.5991 12.1135 29.9439 12.8656 30.082C13.618 29.9439 14.7121 29.5991 15.4645 29.3232C15.4645 29.3232 15.4653 29.3228 15.4657 29.3228C19.1965 27.9201 25.6118 24.3481 25.7257 16.7594C25.7269 16.694 25.7313 16.6305 25.7313 16.5647V16.5567V15.9352V10.932V2.30702V2.30622C22.0355 0.856883 18.0324 0.338575 15.4657 0.167144Z" fill="#A3A3A3"/>
<path fill-rule="evenodd" clip-rule="evenodd" d="M64.5425 2.02664L66.0095 3.48688L67.4769 2.02664L66.0095 0.566406L64.5425 2.02664Z" fill="#A3A3A3"/>
<path fill-rule="evenodd" clip-rule="evenodd" d="M40.3958 8.20291L32.4768 0.548828V13.2169H34.7569V6.00354L42.6763 13.5866V0.900555H40.3958V8.20291Z" fill="#A3A3A3"/>
</g>
<defs>
<clipPath id="clip0_188_216">
<rect width="91" height="30" fill="white" transform="translate(0 0.0820312)"/>
</clipPath>
</defs>
</svg>
