<svg width="69" height="49" viewBox="0 0 69 49" fill="none" xmlns="http://www.w3.org/2000/svg">
<g clip-path="url(#clip0_2271_14854)">
<path d="M25.8359 37.067H27.2323V33.7203H27.2457L29.1389 37.067H30.2131L32.1062 33.7203H32.1197V37.067H33.516V32.4003H31.3006L29.676 35.4003L28.0513 32.4003H25.8359V37.067ZM34.4962 37.067H39.7192V35.947H35.9328V35.2003H39.4372V34.227H34.4962V33.4803H39.6386V32.4003H34.4962V37.067ZM40.6456 37.067H44.9825C45.6941 37.067 46.2043 36.947 46.4863 36.6936C46.7816 36.4403 46.9293 36.027 46.9293 35.4403V34.027C46.9293 33.4403 46.7816 33.027 46.4863 32.7736C46.1909 32.5203 45.6941 32.4003 44.9825 32.4003H40.6322V37.067H40.6456ZM42.0823 33.5603H44.6334C44.9556 33.5603 45.1704 33.6136 45.3047 33.7336C45.439 33.8536 45.4927 34.067 45.4927 34.4003V35.027C45.4927 35.347 45.4255 35.5736 45.3047 35.6936C45.1704 35.8136 44.9556 35.867 44.6334 35.867H42.0823V33.5603ZM47.8826 37.067H49.3193V32.4003H47.8826V37.067ZM50.2726 35.427C50.2726 35.7603 50.3129 36.0403 50.4069 36.267C50.5009 36.4936 50.6351 36.6536 50.8097 36.787C50.9842 36.907 51.199 37.0003 51.4407 37.0536C51.6958 37.107 51.9912 37.1336 52.3269 37.1336H54.6497C54.9988 37.1336 55.2942 37.0936 55.5225 37.027C55.7507 36.9603 55.9253 36.8536 56.0595 36.7336C56.1804 36.6136 56.2743 36.467 56.3146 36.2936C56.3683 36.1336 56.3818 35.9336 56.3818 35.7203V35.2803H54.9451C54.9451 35.427 54.9317 35.547 54.9048 35.627C54.878 35.707 54.8377 35.7736 54.7706 35.8136C54.7034 35.8536 54.6229 35.8803 54.5289 35.8936C54.4215 35.907 54.2872 35.907 54.1126 35.907H52.5686C52.2463 35.907 52.0181 35.8403 51.9107 35.707C51.8032 35.5736 51.7495 35.3336 51.7495 34.9736V34.467C51.7495 34.147 51.8167 33.9203 51.9375 33.7603C52.0584 33.6136 52.3 33.5336 52.6491 33.5336H54.2201C54.4483 33.5336 54.6094 33.5603 54.7303 33.627C54.8377 33.6936 54.9048 33.8003 54.9048 33.9603V34.0936H56.3415C56.3415 33.7336 56.3146 33.4403 56.2609 33.227C56.2072 33.0136 56.0998 32.8403 55.9387 32.707C55.7776 32.5736 55.5493 32.4803 55.2539 32.4136C54.9585 32.3603 54.5557 32.3203 54.0455 32.3203H52.3537C52.0046 32.3203 51.7093 32.347 51.4676 32.4003C51.2125 32.4536 51.0111 32.5336 50.8365 32.667C50.662 32.787 50.5277 32.9603 50.4337 33.187C50.3397 33.4136 50.2995 33.6803 50.2995 34.027V35.427H50.2726ZM56.8114 37.067H58.4226L58.8389 36.2403H61.7659L62.209 37.067H63.8067L61.2288 32.4003H59.3491L56.8114 37.067ZM60.2889 33.4803L61.7659 36.2403H58.8389L60.2889 33.4803ZM64.317 37.067H69.0029V35.867H65.767V32.4003H64.317V37.067Z" fill="white"/>
<path d="M5.34668 19C5.34668 19 3.96373 34.0667 14.45 45.0267C14.45 45.0267 -3.20615 31.0533 5.34668 19Z" fill="white"/>
<path d="M2.0274 19.5469C2.0274 19.5469 -3.77295 29.1335 4.22939 39.5469C4.22939 39.5469 0.0939526 32.4269 2.0274 19.5469Z" fill="white"/>
<path d="M15.2812 11.8816C15.2812 11.8816 17.2147 11.055 19.6986 11.335C19.6986 11.335 19.9806 8.60163 18.5977 8.60163C18.5842 8.5883 18.7453 10.5216 15.2812 11.8816Z" fill="white"/>
<path d="M6.51169 10.775C6.51169 10.775 4.33656 5.08167 9.77438 3.375C9.77438 3.375 7.96177 7.08167 6.51169 10.775Z" fill="white"/>
<path d="M15.9098 5.78667C15.9098 5.78667 10.9016 3.48 7.86719 0C7.86719 0.0266667 8.73993 7.04 15.9098 5.78667Z" fill="white"/>
<path d="M20.0976 36.2662C20.0976 36.2662 20.9301 34.6262 21.4806 33.7996C21.7491 33.3996 22.7024 33.5329 22.6353 34.2929C22.3533 42.3596 20.3796 49.0129 20.3796 49.0129C23.508 41.8929 24.5821 36.2529 24.6224 31.9062H19.4531C20.0036 34.3596 20.0976 36.2662 20.0976 36.2662Z" fill="white"/>
<path d="M21.3233 20.4133C21.1622 20.1866 20.652 19.68 20.652 19.68V19.6933C17.1342 16.7466 9.50781 20.6133 9.50781 20.6133C12.6228 20.5333 14.6637 22.2933 16.248 24.3599H23.4582C22.76 22.4266 21.9007 21.1466 21.3233 20.4133Z" fill="white"/>
<path d="M11.6943 29.4008C12.755 29.4008 13.1578 29.2408 13.1578 28.3608V27.6008C13.1578 26.7208 12.755 26.5608 11.6943 26.5608H10.6201C9.53256 26.5608 9.15661 26.7075 9.15661 27.6275V28.3875C9.15661 29.2408 9.57284 29.4142 10.6336 29.4142H11.6943V29.4008ZM8.05562 30.3742C7.61254 30.0408 7.46484 29.5475 7.46484 28.7608V27.2808C7.46484 26.4408 7.61254 25.9075 8.05562 25.5742C8.4987 25.2408 9.17004 25.1875 10.177 25.1875H12.1373C13.1309 25.1875 13.8291 25.2408 14.2588 25.5742C14.675 25.8942 14.8495 26.4142 14.8495 27.2142V28.7342C14.8495 29.5342 14.6884 30.0542 14.2588 30.3742C13.8023 30.7075 13.1175 30.7608 12.1373 30.7608H10.1905C9.21032 30.7608 8.52556 30.7208 8.05562 30.3742Z" fill="white"/>
<path d="M17.1049 30.6923L15.3594 25.2656H17.0243L18.1521 29.119L19.5485 25.2656H21.0792L22.4084 29.119L23.6034 25.2656H25.2683L23.4423 30.6923H21.5625L20.3004 26.959L19.0114 30.6923H17.1049Z" fill="white"/>
<path d="M31.1082 29.3723V30.6923H25.8047V25.2656H27.4696V29.3723H31.1082Z" fill="white"/>
<path d="M33.3368 28.8909C33.3099 29.4243 33.4979 29.5043 34.1155 29.5043H36.2101C36.6129 29.5043 36.7875 29.3843 36.7875 29.0509C36.7875 28.6509 36.5189 28.5976 35.9819 28.5843L33.3636 28.5043C32.0881 28.4643 31.6853 28.1309 31.6853 26.8909C31.6853 26.3043 31.7927 25.9043 32.0747 25.6243C32.4775 25.2376 33.0683 25.2109 33.9544 25.2109H36.5055C37.8616 25.2109 38.3718 25.6909 38.2778 26.9709H36.6666C36.68 26.5976 36.4921 26.4109 36.1161 26.4109H34.1961C33.6725 26.4109 33.4039 26.4509 33.4039 26.8376C33.4039 27.1709 33.6053 27.2643 34.0618 27.2909L36.7875 27.3309C38.0361 27.3576 38.4927 27.8243 38.4927 29.0909C38.4927 29.7709 38.3718 30.1843 37.875 30.4909C37.5394 30.7043 36.9754 30.7576 36.1833 30.7576H33.9678C32.2761 30.7576 31.6719 30.5043 31.6719 29.3176C31.6719 29.2643 31.6853 29.1043 31.6987 28.8909H33.3368Z" fill="white"/>
<path d="M41.3685 30.6923V26.599H39.0859V25.2656H45.3294V26.599H43.0334V30.6923H41.3685Z" fill="white"/>
<path d="M50.1747 29.4008C51.2354 29.4008 51.6382 29.2408 51.6382 28.3608V27.6008C51.6382 26.7208 51.2354 26.5608 50.1747 26.5608H49.114C48.0265 26.5608 47.6505 26.7075 47.6505 27.6275V28.3875C47.6505 29.2408 48.0667 29.4142 49.1274 29.4142H50.1747V29.4008ZM46.5361 30.3742C46.093 30.0408 45.9453 29.5475 45.9453 28.7608V27.2808C45.9453 26.4408 46.093 25.9075 46.5361 25.5742C46.9792 25.2408 47.6505 25.1875 48.6575 25.1875H50.6178C51.6114 25.1875 52.3096 25.2408 52.7392 25.5742C53.1555 25.8942 53.33 26.4142 53.33 27.2142V28.7342C53.33 29.5342 53.1689 30.0542 52.7392 30.3742C52.2827 30.7075 51.6114 30.7608 50.6178 30.7608H48.6575C47.6774 30.7608 46.9926 30.7208 46.5361 30.3742Z" fill="white"/>
<path d="M59.2809 30.6923L56.0048 26.7456V30.6923H54.3398V25.2656H56.8104L60.0596 29.239V25.2656H61.7245V30.6923H59.2809Z" fill="white"/>
<path d="M64.4618 26.5856V27.4123H68.5167V28.5456H64.4618V29.3723H68.8255V30.6923H62.7969V25.2656H68.7583V26.5856H64.4618Z" fill="white"/>
</g>
<defs>
<clipPath id="clip0_2271_14854">
<rect width="69" height="49" fill="white"/>
</clipPath>
</defs>
</svg>
