<svg width="151" height="36" viewBox="0 0 151 36" fill="none" xmlns="http://www.w3.org/2000/svg">
<path fill-rule="evenodd" clip-rule="evenodd" d="M40.0137 1.65625C26.1423 26.2275 11.8538 6.09088 0.761719 27.7243C9.0795 11.4954 37.3259 39.651 39.9501 4.9835C40.0188 4.15359 40.0137 1.65625 40.0137 1.65625Z" fill="#FDFDFD"/>
<path fill-rule="evenodd" clip-rule="evenodd" d="M40.0647 1.70275C14.552 12.6315 30.445 28.5676 7.14453 35.4258C24.6243 30.2809 2.28762 -2.76497 36.7895 1.14015C37.6159 1.23179 40.0647 1.70275 40.0647 1.70275Z" fill="#E5E5E5"/>
<path fill-rule="evenodd" clip-rule="evenodd" d="M7.5066 33.1496L0 35.4407L2.90906 28.1447C3.19426 27.6777 3.58385 27.2834 4.04717 26.9927C4.51049 26.7021 5.03488 26.5231 5.57905 26.4699C6.12322 26.4167 6.6723 26.4906 7.18305 26.686C7.69381 26.8813 8.15229 27.1927 8.5224 27.5956C8.89251 27.9985 9.16413 28.4819 9.31587 29.0077C9.46762 29.5336 9.49535 30.0876 9.39688 30.626C9.2984 31.1644 9.07642 31.6726 8.7484 32.1105C8.42038 32.5484 7.99529 32.9041 7.5066 33.1496V33.1496Z" fill="#E7E7E7"/>
<path d="M52.207 10.7109H58.6201C61.3196 10.7109 63.3079 12.8426 63.3079 15.7283C63.3079 17.5356 62.4663 19.0606 61.1366 19.8926L63.6614 25.3376H61.0145L58.8831 20.7268C58.7434 20.7423 58.6029 20.7487 58.4623 20.7457H54.6014V25.3376H52.207V10.7109ZM54.6014 18.3487H58.2961C59.8973 18.3487 60.9325 17.3123 60.9325 15.7283C60.9325 14.1443 59.9183 13.108 58.315 13.108H54.6014V18.3487Z" fill="white"/>
<path d="M74.8351 20.2594C74.8351 21.3042 74.5256 22.3256 73.9458 23.1943C73.3659 24.0631 72.5418 24.7402 71.5776 25.14C70.6133 25.5399 69.5523 25.6445 68.5287 25.4406C67.5051 25.2368 66.5648 24.7337 65.8268 23.9949C65.0888 23.256 64.5863 22.3147 64.3826 21.29C64.179 20.2652 64.2835 19.203 64.6829 18.2377C65.0823 17.2724 65.7587 16.4474 66.6265 15.8669C67.4943 15.2864 68.5145 14.9766 69.5582 14.9766C70.9575 14.9771 72.2994 15.5339 73.2889 16.5245C74.2784 17.5151 74.8345 18.8584 74.8351 20.2594ZM69.5582 23.143C70.1285 23.1434 70.6861 22.9745 71.1604 22.6575C71.6348 22.3406 72.0045 21.8899 72.223 21.3625C72.4414 20.8352 72.4987 20.2548 72.3875 19.6948C72.2764 19.1348 72.0018 18.6204 71.5985 18.2167C71.1953 17.813 70.6815 17.5381 70.1221 17.4269C69.5628 17.3156 68.983 17.3729 68.4562 17.5916C67.9294 17.8103 67.4792 18.1805 67.1627 18.6553C66.8461 19.1302 66.6773 19.6884 66.6777 20.2594C66.6811 21.0231 66.9856 21.7546 67.5251 22.2947C68.0645 22.8348 68.7953 23.1397 69.5582 23.143V23.143Z" fill="white"/>
<path d="M76.1367 20.2594C76.1373 18.8588 76.6931 17.5158 77.6822 16.5252C78.6712 15.5347 80.0126 14.9777 81.4115 14.9766C82.126 14.9749 82.8332 15.12 83.4893 15.4029C84.1455 15.6859 84.7366 16.1007 85.2262 16.6217L83.5429 18.3068C83.2696 18.0149 82.9395 17.7821 82.573 17.6227C82.2064 17.4633 81.8112 17.3807 81.4115 17.38C80.9305 17.3779 80.4567 17.4965 80.0331 17.7247C79.6096 17.953 79.2498 18.2837 78.9867 18.6868C78.7235 19.0899 78.5652 19.5525 78.5264 20.0325C78.4875 20.5124 78.5692 20.9945 78.7641 21.4348C78.959 21.875 79.2608 22.2595 79.6421 22.5531C80.0234 22.8466 80.472 23.04 80.947 23.1156C81.4221 23.1912 81.9085 23.1466 82.3619 22.9858C82.8153 22.825 83.2213 22.5532 83.5429 22.1951L85.2262 23.9013C84.7366 24.4222 84.1455 24.837 83.4893 25.12C82.8332 25.403 82.126 25.5481 81.4115 25.5464C80.0127 25.5425 78.6723 24.984 77.6838 23.9932C76.6952 23.0023 76.1389 21.6598 76.1367 20.2594Z" fill="white"/>
<path d="M86.8086 25.3376V10.7109H89.203V19.3471L92.6936 15.1828H95.7171L91.5974 20.0759L95.9612 25.3418H92.9587L89.203 20.8068V25.3376H86.8086Z" fill="white"/>
<path d="M101.201 14.9766C104.081 14.9766 106.04 17.0829 106.04 20.1161C106.04 20.5016 105.979 20.9292 105.939 21.3357H98.4001C98.8062 22.5995 99.9424 23.3663 101.445 23.3663C101.913 23.3812 102.379 23.2987 102.813 23.1239C103.248 22.9492 103.642 22.686 103.969 22.351L105.491 23.8739C104.517 24.9524 103.096 25.54 101.432 25.54C98.3685 25.54 96.0352 23.2441 96.0352 20.2594C96.0352 17.2746 98.2591 14.9766 101.201 14.9766ZM98.3601 19.4674H103.797C103.587 18.0245 102.52 17.1293 101.161 17.1293C99.7593 17.1293 98.5621 18.0645 98.3601 19.4674Z" fill="white"/>
<path d="M107.835 15.1845C107.953 15.1919 108.071 15.1746 108.181 15.1336C108.292 15.0926 108.392 15.0288 108.477 14.9464C108.561 14.864 108.627 14.7648 108.671 14.6553C108.714 14.5457 108.734 14.4282 108.73 14.3103V12.4609H111.124V15.1845H113.701V17.5815H111.124V21.2171C111.124 22.8222 111.366 23.2287 112.34 23.2287C112.798 23.2212 113.254 23.1668 113.701 23.0665V25.3414C113.15 25.4763 112.585 25.547 112.018 25.5521C109.704 25.5521 108.732 24.4989 108.732 21.9375V17.5815H106.863V15.1845H107.835Z" fill="white"/>
<path d="M115.852 10.7109H121.474C125.572 10.7109 128.535 13.7589 128.535 18.0243C128.535 22.2897 125.589 25.3376 121.474 25.3376H115.852V10.7109ZM118.246 22.9406H121.474C124.253 22.9406 126.14 20.95 126.14 18.0243C126.14 15.0985 124.247 13.108 121.474 13.108H118.246V22.9406Z" fill="white"/>
<path d="M140.468 20.2594C140.468 21.3042 140.158 22.3256 139.579 23.1943C138.999 24.0631 138.175 24.7402 137.21 25.14C136.246 25.5399 135.185 25.6445 134.162 25.4406C133.138 25.2368 132.198 24.7337 131.46 23.9949C130.722 23.256 130.219 22.3147 130.015 21.29C129.812 20.2652 129.916 19.203 130.316 18.2377C130.715 17.2724 131.392 16.4474 132.259 15.8669C133.127 15.2864 134.147 14.9766 135.191 14.9766C136.59 14.9771 137.932 15.5339 138.922 16.5245C139.911 17.5151 140.467 18.8584 140.468 20.2594V20.2594ZM135.191 23.143C135.761 23.1434 136.319 22.9745 136.793 22.6575C137.268 22.3406 137.637 21.8899 137.856 21.3625C138.074 20.8352 138.131 20.2548 138.02 19.6948C137.909 19.1348 137.635 18.6204 137.231 18.2167C136.828 17.813 136.314 17.5381 135.755 17.4269C135.196 17.3156 134.616 17.3729 134.089 17.5916C133.562 17.8103 133.112 18.1805 132.795 18.6553C132.479 19.1302 132.31 19.6884 132.311 20.2594C132.313 21.0233 132.618 21.7551 133.157 22.2953C133.697 22.8355 134.428 23.1402 135.191 23.143V23.143Z" fill="white"/>
<path d="M141.77 20.2567C141.764 19.1989 142.076 18.1639 142.666 17.2864C143.256 16.4089 144.096 15.7296 145.077 15.337C146.059 14.9445 147.135 14.8568 148.167 15.0854C149.198 15.3141 150.137 15.8485 150.861 16.619L149.178 18.3041C148.905 18.0121 148.575 17.7792 148.208 17.6199C147.841 17.4605 147.446 17.3779 147.047 17.3773C146.565 17.3749 146.091 17.4931 145.668 17.7212C145.244 17.9492 144.884 18.2798 144.62 18.6828C144.357 19.0858 144.198 19.5484 144.159 20.0285C144.12 20.5085 144.202 20.9907 144.397 21.4311C144.591 21.8716 144.893 22.2562 145.274 22.5499C145.656 22.8437 146.104 23.0372 146.579 23.1129C147.055 23.1886 147.541 23.144 147.995 22.9832C148.448 22.8225 148.854 22.5506 149.176 22.1925L150.859 23.8986C150.369 24.4193 149.778 24.8339 149.122 25.1168C148.466 25.3998 147.759 25.5451 147.044 25.5437C145.646 25.5398 144.305 24.9813 143.317 23.9905C142.328 22.9997 141.772 21.6571 141.77 20.2567Z" fill="white"/>
</svg>
