<svg width="172" height="47" viewBox="0 0 172 47" fill="none" xmlns="http://www.w3.org/2000/svg">
<mask id="mask0_2108_4697" style="mask-type:luminance" maskUnits="userSpaceOnUse" x="0" y="0" width="172" height="47">
<path d="M171.5 0H0.5V47H171.5V0Z" fill="white"/>
</mask>
<g mask="url(#mask0_2108_4697)">
<path d="M26.0874 13.3132C26.0874 13.7276 25.9418 14.0532 25.6799 14.3492C25.3888 14.6157 25.0686 14.7636 24.6902 14.7636C24.2827 14.7636 23.9625 14.6452 23.7005 14.3788C23.4385 14.1124 23.293 13.7572 23.293 13.3427C23.293 12.9579 23.4385 12.6323 23.7005 12.3363C23.9625 12.0698 24.3118 11.9219 24.7193 11.9219C25.1268 11.9219 25.447 12.0698 25.738 12.3363C25.9418 12.6027 26.0874 12.9283 26.0874 13.3132ZM25.709 31.9327H23.555V18.227H25.709V31.9327Z" fill="white"/>
<path d="M38.3115 31.312C37.2635 31.9632 36.041 32.2888 34.6147 32.2888C33.3921 32.2888 32.2861 31.9928 31.2963 31.4304C30.3067 30.868 29.5499 30.0392 29.026 28.9734C28.4729 27.9078 28.2109 26.7533 28.2109 25.4213C28.2109 23.1715 28.8513 21.3362 30.132 19.9745C31.4128 18.6129 33.1011 17.9023 35.226 17.9023C36.3903 17.9023 37.4382 18.1392 38.3405 18.6129V20.8625C37.3218 20.1521 36.2738 19.7969 35.1386 19.7969C33.7414 19.7969 32.6062 20.3002 31.733 21.3066C30.8597 22.3131 30.4231 23.6155 30.4231 25.2436C30.4231 26.8421 30.8306 28.115 31.6747 29.0326C32.4898 29.9503 33.6251 30.424 35.0222 30.424C36.1866 30.424 37.2927 30.0392 38.3405 29.2399V31.312H38.3115Z" fill="white"/>
<path d="M47.7434 20.4475C47.365 20.1514 46.8119 20.0034 46.0842 20.0034C45.1236 20.0034 44.3668 20.4475 43.7555 21.3651C43.1443 22.2827 42.8532 23.4669 42.8532 24.9173V31.9034H40.6992V18.2273H42.8532V21.0394H42.9114C43.2025 20.0923 43.6683 19.3521 44.2795 18.7898C44.8908 18.2273 45.6185 17.9609 46.4335 17.9609C46.9866 17.9609 47.4232 18.02 47.7143 18.1385V20.4475H47.7434Z" fill="white"/>
<path d="M61.1014 25.0347C61.1014 27.2253 60.4901 28.9718 59.2676 30.2743C58.045 31.6063 56.415 32.2576 54.3774 32.2576C52.3981 32.2576 50.7972 31.6063 49.6036 30.3334C48.4102 29.031 47.8281 27.3437 47.8281 25.2419C47.8281 22.9626 48.4393 21.1865 49.6619 19.8544C50.8844 18.5519 52.5727 17.8711 54.6976 17.8711C56.706 17.8711 58.278 18.4927 59.384 19.7655C60.5483 21.068 61.1014 22.8146 61.1014 25.0347ZM58.8892 25.1235C58.8892 23.4066 58.5108 22.0745 57.754 21.1569C56.9972 20.2392 55.9201 19.7655 54.523 19.7655C53.1258 19.7655 52.0488 20.2392 51.2338 21.1865C50.4188 22.1338 50.0113 23.4659 50.0113 25.1532C50.0113 26.8108 50.4188 28.0837 51.2338 29.0014C52.0488 29.919 53.1258 30.3926 54.523 30.3926C55.9201 30.3926 56.9972 29.9486 57.754 29.031C58.5108 28.1133 58.8892 26.8108 58.8892 25.1235Z" fill="white"/>
<path d="M70.9426 28.2613C70.9426 29.4454 70.506 30.4222 69.6036 31.1623C68.7012 31.9024 67.5078 32.2872 66.0232 32.2872C64.7425 32.2872 63.6364 32.0208 62.6758 31.4583V29.0901C63.7237 29.9782 64.9171 30.3926 66.1688 30.3926C67.8862 30.3926 68.7303 29.7414 68.7303 28.4685C68.7303 27.9357 68.5556 27.5212 68.2355 27.1957C67.9153 26.8701 67.1294 26.426 65.965 25.8636C64.7716 25.3307 63.9274 24.798 63.4326 24.2059C62.9378 23.6138 62.7049 22.8146 62.7049 21.8377C62.7049 20.7128 63.1415 19.7655 64.0439 18.9959C64.9463 18.2263 66.0815 17.8711 67.4496 17.8711C68.4974 17.8711 69.458 18.0782 70.3313 18.5223V20.7424C69.458 20.0913 68.4392 19.7655 67.2749 19.7655C66.5763 19.7655 65.9941 19.9432 65.5575 20.2984C65.1208 20.6536 64.9172 21.1273 64.9172 21.6897C64.9172 22.2817 65.0918 22.7553 65.412 23.081C65.7322 23.4066 66.4307 23.7914 67.4787 24.2355C68.7594 24.798 69.6618 25.3603 70.1857 25.982C70.6805 26.6036 70.9426 27.3437 70.9426 28.2613Z" fill="white"/>
<path d="M85.496 25.0347C85.496 27.2253 84.8848 28.9718 83.6622 30.2743C82.4397 31.6063 80.8096 32.2576 78.7721 32.2576C76.7926 32.2576 75.1917 31.6063 73.9983 30.3334C72.8049 29.031 72.2227 27.3437 72.2227 25.2419C72.2227 22.9626 72.834 21.1865 74.0565 19.8544C75.2791 18.5519 76.9673 17.8711 79.0922 17.8711C81.1007 17.8711 82.6725 18.4927 83.7787 19.7655C84.9139 21.068 85.496 22.8146 85.496 25.0347ZM83.2838 25.1235C83.2838 23.4066 82.9054 22.0745 82.1485 21.1569C81.3917 20.2392 80.3148 19.7655 78.9175 19.7655C77.5204 19.7655 76.4434 20.2392 75.6283 21.1865C74.8133 22.1338 74.4058 23.4659 74.4058 25.1532C74.4058 26.8108 74.8133 28.0837 75.6283 29.0014C76.4434 29.919 77.5204 30.3926 78.9175 30.3926C80.3148 30.3926 81.3917 29.9486 82.1485 29.031C82.9054 28.1133 83.2838 26.8108 83.2838 25.1235Z" fill="white"/>
<path d="M94.1425 13.5795C93.735 13.3427 93.2402 13.2243 92.7162 13.2243C91.2026 13.2243 90.4457 14.2011 90.4457 16.1252V18.2271H93.6185V20.0919H90.4457V31.9326H88.2918V20.0919H85.9922V18.2271H88.2918V16.0069C88.2918 14.6156 88.6993 13.4907 89.5143 12.6323C90.3002 11.7738 91.319 11.3594 92.5706 11.3594C93.2402 11.3594 93.735 11.4482 94.1425 11.5962V13.5795Z" fill="white"/>
<path d="M101.302 31.8146C100.779 32.1107 100.109 32.2586 99.2648 32.2586C96.9071 32.2586 95.7428 30.897 95.7428 28.2032V20.0923H93.4141V18.2273H95.7428V14.8823L97.8968 14.1719V18.2273H101.302V20.0923H97.8968V27.8184C97.8968 28.7361 98.0423 29.3872 98.3626 29.772C98.6827 30.1569 99.1776 30.3641 99.9053 30.3641C100.429 30.3641 100.895 30.2161 101.302 29.9201V31.8146Z" fill="white"/>
<path d="M123.657 31.9319H121.211L119.232 26.574H111.228L109.336 31.9319H106.891L114.109 12.75H116.409L123.657 31.9319ZM118.475 24.5315L115.216 15.5621H115.157L111.926 24.5315H118.475Z" fill="white"/>
<path d="M135.766 18.8778L127.79 30.0673H135.678V31.9322H124.617V31.2514L132.593 20.0915H125.374V18.2266H135.766V18.8778Z" fill="white"/>
<path d="M148.572 31.9322H146.418V29.7713H146.359C145.457 31.429 144.089 32.2875 142.226 32.2875C138.995 32.2875 137.395 30.3337 137.395 26.4262V18.2266H139.548V26.071C139.548 28.9424 140.625 30.3929 142.809 30.3929C143.886 30.3929 144.759 30.0081 145.399 29.2089C146.068 28.4096 146.388 27.4031 146.388 26.1303V18.2266H148.543V31.9322H148.572Z" fill="white"/>
<path d="M159.109 20.4475C158.73 20.1514 158.178 20.0034 157.479 20.0034C156.519 20.0034 155.732 20.4475 155.151 21.3651C154.54 22.2827 154.249 23.4669 154.249 24.9173V31.9034H152.094V18.2273H154.249V21.0394H154.306C154.598 20.0923 155.063 19.3521 155.674 18.7898C156.286 18.2273 157.013 17.9609 157.828 17.9609C158.381 17.9609 158.818 18.02 159.109 18.1385V20.4475Z" fill="white"/>
<path d="M170.989 25.6284H161.47C161.5 27.1677 161.906 28.3519 162.663 29.1807C163.42 30.0095 164.497 30.3944 165.866 30.3944C167.379 30.3944 168.776 29.8911 170.028 28.8846V30.9272C168.863 31.8153 167.292 32.2592 165.341 32.2592C163.42 32.2592 161.906 31.6376 160.829 30.3647C159.753 29.0919 159.199 27.3453 159.199 25.1252C159.199 23.7635 159.461 22.5202 160.015 21.425C160.567 20.3002 161.295 19.4417 162.256 18.82C163.217 18.1984 164.265 17.9023 165.399 17.9023C167.146 17.9023 168.514 18.4648 169.475 19.6489C170.464 20.8033 170.93 22.4315 170.93 24.5036V25.6284H170.989ZM168.776 23.7931C168.747 22.5202 168.456 21.5434 167.874 20.8329C167.292 20.1225 166.477 19.7969 165.399 19.7969C164.41 19.7969 163.537 20.1521 162.838 20.8921C162.14 21.6323 161.674 22.5794 161.5 23.7931H168.776Z" fill="white"/>
<path d="M16.9753 12.75L10.1639 28.1132H10.0766L3.41081 12.75H0.5V31.9319H2.62489V16.2429H2.68312L9.58174 31.9319H10.6588L17.4991 16.3318H17.5282V31.9319H19.7405V12.75H16.9753Z" fill="white"/>
</g>
</svg>
