<svg width="80" height="23" viewBox="0 0 80 23" fill="none" xmlns="http://www.w3.org/2000/svg">
<path d="M20.8233 0H24.2938V22.7H20.8233V0ZM36.9337 15.7C36.9337 19.22 34.0942 19.5 33.2265 19.5C31.0574 19.5 30.7419 17.44 30.7419 16.2V7.42H27.2517V16.18C27.2319 18.36 27.8432 20.16 29.0264 21.36C30.1009 22.3315 31.4698 22.9025 32.9073 22.9789C34.3448 23.0552 35.765 22.6323 36.9337 21.78V22.7H40.424V7.42H36.9337V15.7ZM47.9566 2.28H44.4664V7.42H42.0409V10.76H44.4664V22.7H47.9566V10.76H50.8159V7.42H47.9566V2.28ZM62.1149 18.36C61.3261 19.08 60.281 19.48 59.1373 19.48C58.5563 19.4967 57.978 19.3926 57.4382 19.1741C56.8983 18.9556 56.4082 18.6274 55.9981 18.2096C55.5881 17.7918 55.2666 17.2932 55.0536 16.7447C54.8406 16.1962 54.7406 15.6092 54.7597 15.02C54.7597 12.44 56.5541 10.64 59.1373 10.64C60.2613 10.64 61.3261 11.02 62.1346 11.74L62.6867 12.22L65.1319 9.74L64.5206 9.18C63.0398 7.84046 61.1214 7.10635 59.1373 7.12C54.6019 7.12 51.3089 10.44 51.3089 15C51.2848 16.0512 51.4705 17.0966 51.8549 18.0732C52.2392 19.0498 52.8143 19.9374 53.5456 20.6829C54.2768 21.4283 55.1492 22.016 56.1101 22.4108C57.071 22.8055 58.1007 22.9992 59.1373 22.98C61.2078 22.98 63.1403 22.24 64.56 20.9L65.1516 20.34L62.667 17.86L62.1149 18.36ZM78.2253 8.76C77.1508 7.78851 75.7819 7.2175 74.3444 7.14114C72.9069 7.06479 71.4867 7.48766 70.318 8.34V0H66.8277V22.7H70.318V14.44C70.318 10.92 73.1575 10.64 74.0251 10.64C76.1942 10.64 76.5097 12.7 76.5097 13.94V22.72H80V13.94C80.1053 12.0435 79.4674 10.1816 78.2253 8.76ZM15.6766 17.26C14.9976 17.9675 14.1848 18.5287 13.2869 18.9102C12.3891 19.2916 11.4245 19.4854 10.4511 19.48C6.40868 19.48 3.47054 16.26 3.47054 11.84C3.47054 7.4 6.40868 4.18 10.4511 4.18C12.4033 4.18 14.2568 4.96 15.6569 6.38L16.209 6.94L18.6345 4.48L18.102 3.92C17.1015 2.88787 15.9073 2.06944 14.5899 1.51297C13.2724 0.956501 11.8584 0.673276 10.4314 0.68C4.49593 0.68 0 5.48 0 11.86C0 18.2 4.49593 23 10.4314 23C13.3695 23 16.0907 21.84 18.102 19.74L18.6345 19.18L16.2287 16.68L15.6766 17.26Z" fill="white"/>
</svg>
