<svg width="78" height="23" viewBox="0 0 78 23" fill="none" xmlns="http://www.w3.org/2000/svg">
<g clip-path="url(#clip0_5824_1975)">
<path d="M57.5258 17.7184C58.938 17.7184 60.0829 16.5275 60.0829 15.0584C60.0829 13.5894 58.938 12.3984 57.5258 12.3984C56.1136 12.3984 54.9688 13.5894 54.9688 15.0584C54.9688 16.5275 56.1136 17.7184 57.5258 17.7184Z" fill="#E62415"/>
<path d="M20.3027 0H23.6865V22.7H20.3027V0ZM36.0104 15.7C36.0104 19.22 33.2418 19.5 32.3959 19.5C30.281 19.5 29.9734 17.44 29.9734 16.2V7.42H26.5704V16.18C26.5511 18.36 27.1472 20.16 28.3007 21.36C29.3484 22.3315 30.6831 22.9025 32.0846 22.9789C33.4862 23.0552 34.8709 22.6323 36.0104 21.78V22.7H39.4134V7.42H36.0104V15.7ZM46.7577 2.28H43.3547V7.42H40.9899V10.76H43.3547V22.7H46.7577V10.76H49.5455V7.42H46.7577V2.28ZM60.562 18.36C59.793 19.08 58.774 19.48 57.6589 19.48C57.0924 19.4967 56.5286 19.3926 56.0022 19.1741C55.4758 18.9556 54.998 18.6274 54.5982 18.2096C54.1984 17.7918 53.885 17.2932 53.6773 16.7447C53.4696 16.1962 53.3721 15.6092 53.3907 15.02C53.3907 12.44 55.1403 10.64 57.6589 10.64C58.7547 10.64 59.793 11.02 60.5812 11.74L61.1195 12.22L63.5036 9.74L62.9076 9.18C61.4638 7.84046 59.5934 7.10635 57.6589 7.12C53.2369 7.12 50.0261 10.44 50.0261 15C50.0026 16.0512 50.1837 17.0966 50.5585 18.0732C50.9333 19.0498 51.494 19.9374 52.207 20.6829C52.9199 21.4283 53.7704 22.016 54.7073 22.4108C55.6442 22.8055 56.6482 22.9992 57.6589 22.98C59.6776 22.98 61.5617 22.24 62.946 20.9L63.5228 20.34L61.1003 17.86L60.562 18.36ZM76.2697 8.76C75.222 7.78851 73.8873 7.2175 72.4858 7.14114C71.0842 7.06479 69.6995 7.48766 68.56 8.34V0H65.157V22.7H68.56V14.44C68.56 10.92 71.3286 10.64 72.1745 10.64C74.2894 10.64 74.597 12.7 74.597 13.94V22.72H78V13.94C78.1027 12.0435 77.4807 10.1816 76.2697 8.76ZM15.2847 17.26C14.6226 17.9675 13.8302 18.5287 12.9548 18.9102C12.0793 19.2916 11.1389 19.4854 10.1898 19.48C6.24846 19.48 3.38378 16.26 3.38378 11.84C3.38378 7.4 6.24846 4.18 10.1898 4.18C12.0932 4.18 13.9004 4.96 15.2655 6.38L15.8038 6.94L18.1686 4.48L17.6495 3.92C16.674 2.88787 15.5096 2.06944 14.2251 1.51297C12.9406 0.956501 11.562 0.673276 10.1706 0.68C4.38353 0.68 0 5.48 0 11.86C0 18.2 4.38353 23 10.1706 23C13.0352 23 15.6884 21.84 17.6495 19.74L18.1686 19.18L15.823 16.68L15.2847 17.26Z" fill="#17313B"/>
</g>
<defs>
<clipPath id="clip0_5824_1975">
<rect width="78" height="23" fill="white"/>
</clipPath>
</defs>
</svg>
