<svg width="278" height="43" viewBox="0 0 278 43" fill="none" xmlns="http://www.w3.org/2000/svg">
<g clip-path="url(#clip0_5109_1253)">
<path d="M0.511719 2.71094V37.7867H35.3992V23.804H28.4645V30.7147H21.461V16.7243H14.511V30.7147H7.51518V9.75986H28.4645V16.7243H35.3992V2.71094H0.511719Z" fill="#A5A5A5"/>
<path d="M67.1162 32.8646C60.6397 32.8646 56.3398 28.4111 56.3398 21.9534C56.3398 14.7586 61.6173 11.1189 66.9634 11.0498C70.8814 11.0498 74.1273 12.4089 76.3879 15.7414C76.6094 15.9718 76.6094 16.1944 76.3879 16.348L72.7678 19.3043C72.6854 19.3834 72.5819 19.4367 72.47 19.4578C72.384 19.4481 72.3024 19.4141 72.2349 19.3598C72.1673 19.3054 72.1164 19.2329 72.0881 19.1507C71.5522 18.367 70.8316 17.7289 69.9907 17.2935C69.1498 16.858 68.2147 16.6387 67.2689 16.6552C66.5767 16.6176 65.8844 16.7268 65.237 16.9758C64.5895 17.2248 64.0014 17.608 63.5109 18.1005C63.0204 18.5929 62.6384 19.1836 62.3898 19.8342C62.1412 20.4847 62.0315 21.1806 62.0679 21.8766C62.0242 22.5747 62.1289 23.2741 62.3748 23.9284C62.6208 24.5827 63.0024 25.1769 63.4943 25.6715C63.9863 26.1661 64.5773 26.5498 65.2281 26.7971C65.8789 27.0444 66.5746 27.1496 67.2689 27.1057C68.1829 27.1489 69.0926 26.9556 69.911 26.5442C70.7293 26.1328 71.429 25.5171 71.943 24.7561C71.9984 24.6893 72.0672 24.635 72.1448 24.5967C72.2224 24.5583 72.3072 24.5368 72.3936 24.5334C72.5056 24.5496 72.6097 24.6006 72.6914 24.6793L75.8609 27.9427C76.0824 28.0886 76.0824 28.3189 75.9297 28.5493C74.0814 31.3519 71.0265 32.8646 67.1162 32.8646Z" fill="#A5A5A5"/>
<path d="M99.2858 12.032L87.6083 41.9784C87.5602 42.0972 87.4759 42.1976 87.3675 42.2652C87.2591 42.3328 87.1322 42.3641 87.005 42.3547H82.033C81.7275 42.3547 81.5748 42.0552 81.7275 41.7481L85.424 32.2036L77.5881 12.032C77.5567 11.9732 77.5399 11.9076 77.5391 11.8409C77.5383 11.7741 77.5535 11.7082 77.5835 11.6486C77.6135 11.5891 77.6574 11.5377 77.7114 11.4988C77.7653 11.4599 77.8278 11.4348 77.8936 11.4254H83.0946C83.2124 11.4161 83.3297 11.4487 83.426 11.5174C83.5223 11.5862 83.5915 11.6868 83.6216 11.8016L88.288 25.1393L93.5654 11.8016C93.6418 11.5022 93.8633 11.4254 94.1688 11.4254H99.1407C99.2858 11.4254 99.4462 11.7249 99.2858 12.032Z" fill="#A5A5A5"/>
<path d="M102.232 32.334C102.121 32.3427 102.011 32.3074 101.925 32.2357C101.84 32.164 101.785 32.0615 101.774 31.9501V1.12065C101.772 1.0599 101.782 0.999361 101.804 0.942879C101.827 0.886398 101.86 0.835215 101.904 0.792595C101.947 0.749975 101.998 0.71685 102.055 0.695331C102.111 0.673813 102.172 0.664375 102.232 0.667614H106.975C107.035 0.665467 107.094 0.675716 107.15 0.697723C107.205 0.71973 107.256 0.753023 107.298 0.795527C107.34 0.838031 107.374 0.888835 107.395 0.944771C107.417 1.00071 107.428 1.06058 107.425 1.12065V13.4064C108.146 12.6556 109.013 12.0632 109.973 11.6667C110.932 11.2702 111.963 11.0782 113.001 11.1028C119.332 11.026 123.479 15.4949 123.479 22.0064C123.479 28.5178 119.332 32.8639 113.031 32.8639C111.839 32.913 110.653 32.6736 109.573 32.1659C108.492 31.6581 107.549 30.8968 106.822 29.946L106.058 31.9885C105.982 32.2957 105.829 32.4492 105.608 32.4492L102.217 32.3724L102.232 32.334ZM107.502 21.9526C107.502 23.3395 108.05 24.6695 109.025 25.6502C110 26.6308 111.323 27.1817 112.703 27.1817C114.082 27.1817 115.405 26.6308 116.38 25.6502C117.356 24.6695 117.904 23.3395 117.904 21.9526C117.904 20.5658 117.356 19.2357 116.38 18.2551C115.405 17.2744 114.082 16.7235 112.703 16.7235C111.323 16.7235 110 17.2744 109.025 18.2551C108.05 19.2357 107.502 20.5658 107.502 21.9526Z" fill="#A5A5A5"/>
<path d="M137.42 27.4811C138.969 27.5534 140.491 27.0658 141.713 26.1067C141.942 25.9531 142.018 25.8763 142.163 25.8763C142.308 25.8763 142.392 25.9531 142.469 26.1067L145.478 29.1781C145.528 29.2177 145.569 29.2669 145.6 29.3228C145.631 29.3787 145.651 29.4402 145.658 29.5038C145.665 29.5673 145.66 29.6317 145.642 29.6931C145.624 29.7545 145.594 29.8117 145.554 29.8615C143.599 31.9808 140.735 32.8178 137.115 32.8178C130.486 32.8178 126.117 28.4256 126.117 21.9065C126.117 15.3874 130.409 11.0029 136.894 11.0029C143.378 11.0029 147.739 14.7885 147.67 23.6495C147.672 23.7103 147.662 23.7708 147.639 23.8273C147.617 23.8838 147.583 23.935 147.54 23.9776C147.497 24.0202 147.445 24.0533 147.389 24.0749C147.332 24.0964 147.272 24.1058 147.212 24.1026H132.128C132.823 26.1988 134.556 27.4811 137.42 27.4811ZM141.713 20.0636C141.186 17.8599 139.605 16.424 136.894 16.424C134.182 16.424 132.594 17.8599 132.067 20.0636H141.713Z" fill="#A5A5A5"/>
<path d="M160.322 16.8005C159.621 16.8363 158.944 17.0719 158.371 17.4797C157.797 17.8876 157.351 18.4509 157.084 19.1041V32.0271C157.087 32.0878 157.078 32.1485 157.057 32.2054C157.035 32.2622 157.002 32.314 156.96 32.3573C156.917 32.4007 156.867 32.4346 156.81 32.4571C156.754 32.4796 156.694 32.49 156.634 32.4878H151.807C151.746 32.49 151.686 32.4796 151.63 32.4571C151.574 32.4346 151.523 32.4007 151.48 32.3573C151.438 32.314 151.405 32.2622 151.384 32.2054C151.362 32.1485 151.353 32.0878 151.356 32.0271V11.8785C151.354 11.8185 151.364 11.7586 151.386 11.7027C151.408 11.6467 151.441 11.5959 151.483 11.5534C151.526 11.5109 151.576 11.4776 151.632 11.4556C151.687 11.4336 151.747 11.4234 151.807 11.4255H155.121C155.259 11.4181 155.394 11.4594 155.505 11.5422C155.615 11.625 155.693 11.744 155.725 11.8785L156.175 13.1685C157.588 11.7899 159.484 11.0282 161.453 11.0493C162.494 11.0471 163.527 11.2264 164.508 11.5791C164.813 11.6482 164.89 11.8785 164.813 12.1857L163.606 17.2612C163.578 17.3564 163.518 17.4387 163.435 17.4934C163.353 17.5482 163.254 17.572 163.156 17.5607C163.114 17.5657 163.072 17.5614 163.033 17.5481C162.993 17.5349 162.957 17.5129 162.927 17.4839C162.129 17.0415 161.234 16.8066 160.322 16.8005Z" fill="#A5A5A5"/>
<path d="M167.403 11.8788C167.4 11.8181 167.411 11.7575 167.433 11.701C167.456 11.6446 167.489 11.5934 167.532 11.5508C167.576 11.5081 167.627 11.475 167.684 11.4535C167.74 11.432 167.8 11.4225 167.861 11.4258H171.68C171.977 11.4258 172.13 11.6484 172.283 11.8788L172.756 13.8215C174.108 11.9249 176.147 10.8652 179.011 10.8652C183.678 10.8652 186.924 14.4204 186.924 20.2561V31.8508C186.926 31.9115 186.916 31.9721 186.893 32.0285C186.871 32.085 186.837 32.1362 186.794 32.1788C186.751 32.2214 186.699 32.2546 186.643 32.2761C186.586 32.2976 186.526 32.307 186.465 32.3038H181.646C181.587 32.306 181.527 32.2957 181.471 32.2737C181.416 32.2517 181.365 32.2184 181.323 32.1759C181.281 32.1334 181.248 32.0826 181.226 32.0266C181.204 31.9707 181.194 31.9108 181.196 31.8508V21.4233C181.196 18.3518 179.538 16.5781 177.278 16.5781C175.17 16.6549 173.207 18.3211 173.131 22.1067V31.8815C173.119 31.9908 173.065 32.0913 172.981 32.1616C172.897 32.2319 172.789 32.2663 172.68 32.2577H167.861C167.555 32.2577 167.403 32.1042 167.403 31.8815V11.8788Z" fill="#A5A5A5"/>
<path d="M201.686 27.4811C203.237 27.5532 204.762 27.0658 205.986 26.1067C206.207 25.9531 206.284 25.8763 206.437 25.8763C206.589 25.8763 206.658 25.9531 206.734 26.1067L209.751 29.1781C209.849 29.2604 209.911 29.3773 209.925 29.5045C209.939 29.6317 209.904 29.7595 209.828 29.8615C207.865 31.9808 205.001 32.8178 201.388 32.8178C194.759 32.8178 190.383 28.4256 190.383 21.9065C190.383 15.3874 194.683 11.0029 201.159 11.0029C207.636 11.0029 212.012 14.7885 211.935 23.6495C211.938 23.7096 211.927 23.7695 211.906 23.8254C211.884 23.8813 211.85 23.9322 211.808 23.9747C211.766 24.0172 211.715 24.0505 211.66 24.0725C211.604 24.0945 211.545 24.1047 211.485 24.1026H196.416C197.088 26.1988 198.898 27.4811 201.686 27.4811ZM205.986 20.0636C205.459 17.8599 203.87 16.424 201.159 16.424C198.448 16.424 196.867 17.8599 196.34 20.0636H205.986Z" fill="#A5A5A5"/>
<path d="M225.502 11.8016C225.579 11.5022 225.724 11.4254 225.953 11.4254H230.024C230.141 11.4161 230.259 11.4487 230.355 11.5174C230.451 11.5862 230.52 11.6868 230.551 11.8016L233.942 24.9857L236.424 11.8016C236.447 11.6978 236.504 11.6047 236.585 11.5366C236.667 11.4686 236.768 11.4295 236.874 11.4254H242.381C242.679 11.4254 242.755 11.6481 242.679 11.8784L237.18 32.027C237.137 32.129 237.063 32.2142 236.968 32.2696C236.873 32.3251 236.762 32.3477 236.653 32.3341H231.528C231.42 32.3419 231.312 32.3168 231.218 32.262C231.124 32.2072 231.048 32.1254 231.001 32.027L227.984 19.6799L224.929 32.027C224.887 32.129 224.812 32.2142 224.717 32.2696C224.622 32.3251 224.512 32.3477 224.402 32.3341H219.431C219.201 32.3341 218.972 32.1806 218.972 32.027L213.328 11.8784C213.309 11.8289 213.301 11.7752 213.306 11.7221C213.312 11.669 213.33 11.618 213.359 11.5734C213.388 11.5289 213.428 11.4921 213.475 11.4664C213.521 11.4406 213.573 11.4265 213.626 11.4254H219.125C219.231 11.4282 219.333 11.4668 219.415 11.5351C219.497 11.6033 219.553 11.6972 219.576 11.8016L222.218 24.2256L225.502 11.8016Z" fill="#A5A5A5"/>
<path d="M244.336 29.9461L246.298 26.1069C246.325 26.0467 246.366 25.9942 246.418 25.954C246.47 25.9138 246.531 25.8872 246.596 25.8765C246.673 25.8765 246.825 25.9533 246.902 25.9533C248.37 26.8385 250.017 27.3816 251.721 27.5427C252.019 27.5427 252.171 27.6195 252.485 27.6195C254.142 27.6195 255.417 27.0897 255.417 26.3372C255.417 25.2699 253.462 24.7401 250.751 23.9108C246.68 22.7744 244.496 20.8394 244.42 17.6988C244.19 13.3067 248.238 10.957 253.088 10.957C255.654 10.9995 258.148 11.8183 260.244 13.3067C260.297 13.3334 260.343 13.3712 260.38 13.4175C260.417 13.4638 260.443 13.5175 260.458 13.575C260.472 13.6325 260.474 13.6924 260.464 13.7508C260.453 13.8092 260.431 13.8646 260.397 13.9133L258.434 17.5452C258.415 17.6313 258.368 17.7085 258.3 17.7642C258.232 17.8199 258.148 17.851 258.06 17.8524C257.983 17.8524 257.831 17.7756 257.754 17.7756C256.518 17.0761 255.164 16.6127 253.76 16.4088C253.438 16.3449 253.11 16.3191 252.782 16.332C251.202 16.332 250.148 16.9386 250.148 17.6988C250.148 18.6817 251.499 19.1347 253.76 19.6645C258.434 20.7242 261 22.2445 261.069 26.0301C261.222 30.2763 257.831 32.9408 252.782 32.8486C249.863 32.8533 246.998 32.0568 244.496 30.5451C244.439 30.5248 244.387 30.4908 244.346 30.446C244.305 30.4012 244.275 30.347 244.259 30.288C244.243 30.2291 244.242 30.1671 244.255 30.1076C244.269 30.048 244.296 29.9926 244.336 29.9461Z" fill="#A5A5A5"/>
<path d="M271.614 15.2113H270.85V17.3306H269.414V11.4258H271.751C272.336 11.4042 272.914 11.5623 273.408 11.8788C273.601 12.033 273.755 12.2295 273.86 12.4531C273.964 12.6768 274.016 12.9217 274.012 13.1688C274.024 13.5102 273.948 13.8491 273.79 14.1517C273.638 14.4511 273.332 14.6047 273.027 14.8351L274.233 17.1847V17.3306H272.706L271.614 15.2113ZM270.85 14.1517H271.751C271.862 14.1599 271.974 14.1435 272.078 14.1037C272.182 14.0639 272.277 14.0017 272.354 13.9213C272.502 13.7553 272.583 13.5408 272.583 13.3185C272.583 13.0963 272.502 12.8817 272.354 12.7158C272.277 12.6354 272.182 12.5732 272.078 12.5334C271.974 12.4936 271.862 12.4772 271.751 12.4854H270.85V14.1517Z" fill="#A5A5A5"/>
<path d="M271.463 9.91267C272.358 9.91267 273.232 10.1795 273.976 10.6793C274.719 11.1791 275.299 11.8895 275.641 12.7206C275.983 13.5517 276.072 14.466 275.897 15.348C275.722 16.23 275.29 17.04 274.657 17.6754C274.024 18.3108 273.218 18.7432 272.34 18.9177C271.463 19.0922 270.554 19.0011 269.727 18.6559C268.901 18.3106 268.196 17.7268 267.7 16.9783C267.204 16.2297 266.94 15.3501 266.942 14.4507C266.948 13.2477 267.426 12.0958 268.273 11.2458C269.12 10.3959 270.266 9.91671 271.463 9.91267ZM271.463 8.37696C270.269 8.37544 269.101 8.73011 268.108 9.39608C267.115 10.062 266.34 11.0094 265.883 12.1181C265.425 13.2268 265.305 14.4472 265.537 15.6246C265.77 16.802 266.345 17.8836 267.189 18.7324C268.033 19.5812 269.109 20.1591 270.28 20.3929C271.451 20.6267 272.665 20.506 273.768 20.0459C274.871 19.5858 275.813 18.8071 276.475 17.8084C277.138 16.8096 277.49 15.6358 277.489 14.4354C277.485 12.8298 276.849 11.2912 275.72 10.1559C274.59 9.02061 273.06 8.38101 271.463 8.37696Z" fill="#A5A5A5"/>
</g>
<defs>
<clipPath id="clip0_5109_1253">
<rect width="278" height="43" fill="white"/>
</clipPath>
</defs>
</svg>
