<svg width="177" height="42" viewBox="0 0 177 42" fill="none" xmlns="http://www.w3.org/2000/svg">
<g clip-path="url(#clip0_3505_1409)">
<path d="M31.0605 17.2715H37.0113C41.801 17.2715 45.1393 20.6954 45.1393 25.1084V25.1845C45.1393 29.5976 41.8736 33.0215 37.0113 33.0215H31.0605V17.2715ZM37.0113 29.8258C39.769 29.8258 41.5833 27.9237 41.5833 25.1845V25.1084C41.5833 22.3693 39.769 20.391 37.0113 20.391H34.4714V29.8258H37.0113Z" fill="white"/>
<path d="M48.042 17.2715H59.5807V20.315H51.4528V23.5106H58.6373V26.5541H51.4528V29.8258H59.7259V32.8693H48.1146L48.042 17.2715Z" fill="white"/>
<path d="M61.6133 30.6625L63.6453 28.2278C65.0241 29.3691 66.4755 30.1299 68.2172 30.1299C69.5961 30.1299 70.3943 29.5212 70.3943 28.6843V28.6082C70.3943 27.6951 69.8138 27.2386 67.3464 26.6299C64.2984 25.793 62.2664 24.956 62.2664 21.8364V21.7604C62.2664 18.9451 64.4435 17.043 67.6366 17.043C69.8138 17.043 71.7732 17.7278 73.2972 19.0212L71.5555 21.6843C70.2492 20.6951 68.8704 20.1625 67.5641 20.1625C66.2578 20.1625 65.6047 20.7712 65.6047 21.5321V21.456C65.6047 22.4451 66.2578 22.8256 68.8704 23.5104C71.9909 24.3473 73.66 25.4886 73.66 28.1517V28.2278C73.66 31.3473 71.3378 33.0973 68.0721 33.0973C65.7498 33.0973 63.4275 32.2604 61.6133 30.6625Z" fill="white"/>
<path d="M76.708 17.2715H80.0463V32.9454H76.708V17.2715Z" fill="white"/>
<path d="M83.2393 25.1081C83.2393 20.619 86.5775 16.9668 91.222 16.9668C93.9797 16.9668 95.5763 17.7277 97.1728 19.1733L95.0683 21.8364C93.9072 20.8472 92.8912 20.2385 91.0769 20.2385C88.6095 20.2385 86.7227 22.4451 86.7227 25.1081V25.1842C86.7227 28.0755 88.6095 30.2059 91.3672 30.2059C92.6009 30.2059 93.6894 29.9016 94.5603 29.2168V27.0103H91.1495V24.0429H97.7534V30.8146C96.1568 32.1842 94.0523 33.3255 91.222 33.3255C86.4324 33.0972 83.2393 29.7494 83.2393 25.1081Z" fill="white"/>
<path d="M100.946 17.2715H104.067L111.179 26.8584V17.2715H114.444V32.9454H111.614L104.212 22.978V32.9454H100.946V17.2715Z" fill="white"/>
<path d="M118.145 17.2725H125.112C127.071 17.2725 128.523 17.8812 129.539 18.8703C130.41 19.7833 130.845 21.0007 130.845 22.4464V22.5225C130.845 25.0333 129.539 26.6312 127.579 27.392L131.28 32.9464H127.362L124.096 27.9246H124.023H121.411V32.9464H118V17.2725H118.145ZM124.894 24.8051C126.563 24.8051 127.434 23.892 127.434 22.5985V22.5225C127.434 21.0768 126.491 20.3159 124.822 20.3159H121.483V24.8051H124.894Z" fill="white"/>
<path d="M133.675 26.1745V17.1962H137.013V26.0223C137.013 28.6092 138.247 29.8266 140.279 29.8266C142.311 29.8266 143.544 28.5332 143.544 26.0223V17.1201H146.883V25.9462C146.883 30.6636 144.27 33.0223 140.206 33.0223C136.142 33.0223 133.675 30.7397 133.675 26.1745Z" fill="white"/>
<path d="M149.278 30.6635L151.31 28.2287C152.689 29.37 154.141 30.1309 155.882 30.1309C157.261 30.1309 158.059 29.5222 158.059 28.6853V28.6092C158.059 27.6961 157.479 27.2396 155.011 26.6309C151.963 25.7939 149.931 24.957 149.931 21.8374V21.7613C149.931 18.9461 152.109 17.0439 155.302 17.0439C157.479 17.0439 159.438 17.7287 160.962 19.0222L159.221 21.6852C157.914 20.6961 156.535 20.1635 155.229 20.1635C153.923 20.1635 153.27 20.7722 153.27 21.5331V21.457C153.27 22.4461 153.923 22.8266 156.535 23.5113C159.656 24.3483 161.325 25.4896 161.325 28.1526V28.2287C161.325 31.3483 159.003 33.0983 155.737 33.0983C153.487 33.0983 151.093 32.2613 149.278 30.6635Z" fill="white"/>
<path d="M164.228 17.2725H167.566V23.5116H173.734V17.2725H177.073V32.9464H173.734V26.7072H167.566V32.9464H164.228V17.2725Z" fill="white"/>
<path d="M11.9016 26.0976C11.829 26.0215 11.829 26.0976 11.9016 26.0976L11.5387 25.8693L11.4662 25.7932L2.90283 19.4019C2.90283 19.4019 2.83026 19.4019 2.83026 19.3258L2.68512 19.1737L2.61255 19.0976H2.4674L0 17.2715L4.86224 18.0324C5.07995 18.0324 5.15252 18.1084 5.37023 18.1845C5.4428 18.1845 5.58795 18.2606 5.58795 18.2606C5.80566 18.3367 5.87823 18.4128 6.02337 18.4889C6.16851 18.565 6.24108 18.641 6.38622 18.7171C6.4588 18.7932 6.60394 18.8693 6.60394 18.9454C6.67651 19.0215 6.74908 19.0215 6.82165 19.0976C6.96679 19.1737 7.03936 19.2497 7.03936 19.3258C7.25707 19.5541 7.40221 19.7824 7.61993 19.9345L11.4662 25.641L11.5387 25.7171L11.9016 26.0976Z" fill="white"/>
<path d="M11.9013 34.9237L11.5384 34.315L11.4659 34.2389L0.0722656 17.2715L2.53967 19.0976L2.97509 19.4019L11.5384 25.7932H11.611L11.9013 26.0215C11.9013 26.0215 11.9739 26.0215 11.9739 26.0976L12.3367 25.7932L23.8755 17.2715L12.2641 34.315L12.1916 34.3911L11.9013 34.9237Z" fill="white"/>
<path d="M11.9017 23.2065L11.5388 22.5978L11.4662 22.5217L8.63599 18.413L11.4662 19.0217H11.5388L11.9017 19.0978L12.2645 19.0217L15.0222 18.3369L12.2645 22.5978V22.6739L11.9017 23.2065Z" fill="white"/>
<path d="M23.9484 17.1953L20.3198 17.7279L18.941 17.9562C17.8524 18.1084 16.8364 18.7171 16.1833 19.7062L12.337 25.4888L12.2645 25.5649L11.9016 26.0975L12.337 25.641L12.4096 25.5649L11.9016 26.0975L21.6987 18.7931L23.9484 17.1953Z" fill="white"/>
<path d="M13.7154 5.174C13.7154 8.52182 8.20007 10.2718 8.20007 13.8479C8.1275 14.6849 8.34521 15.5218 8.70807 16.2827C8.70807 16.2827 6.60352 14.1523 6.60352 11.8696C6.60352 9.58704 8.6355 6.16313 8.6355 6.16313C8.6355 7.68487 9.21606 8.14139 9.79663 8.21747H9.8692C10.5223 8.21747 10.8852 7.68487 10.8852 6.924C10.8852 6.16313 10.0869 5.40226 10.0869 3.88052C10.0869 2.43487 11.8286 0.0761719 11.8286 0.0761719C13.0623 1.59791 13.7154 3.34791 13.7154 5.174Z" fill="white"/>
<path d="M12.1915 17.348C10.4498 17.348 9.14355 15.9024 9.14355 14.1524V14.0763C9.14355 10.1959 14.2961 9.81543 14.2961 4.56543C14.4412 4.79369 15.8201 6.77195 15.8201 8.90239C15.8201 11.5654 13.4252 12.2502 13.4252 13.5437C13.4252 14.0763 13.6429 14.4567 14.3686 14.4567C14.4412 14.4567 14.5138 14.4567 14.5864 14.3806C15.9652 13.772 16.9086 12.4024 16.9812 10.8046C16.9812 10.8806 17.7069 17.348 12.1915 17.348Z" fill="white"/>
<path d="M14.4412 14.4567C14.5137 14.4567 14.5863 14.4567 14.6589 14.3806C13.9332 14.6089 11.248 15.2937 11.248 13.3154C11.248 10.8806 15.2394 10.348 15.2394 8.29369C15.2394 7.00021 14.9492 5.70673 14.296 4.56543C14.4412 4.79369 15.82 6.77195 15.82 8.90239C15.82 11.5654 13.4252 12.2502 13.4252 13.5437C13.4977 14.0763 13.788 14.4567 14.4412 14.4567Z" fill="white"/>
<path d="M12.2643 6.54356C12.2643 8.44574 9.94202 8.29356 9.79688 8.21748H10.0146C10.6677 8.21748 11.0306 7.68487 11.0306 6.924C11.0306 6.16313 10.2323 5.40226 10.2323 3.88052C10.2323 2.43487 11.974 0.0761719 11.974 0.0761719C11.3934 1.0653 11.1031 2.13052 11.0306 3.19574C11.0306 4.94574 12.2643 5.09791 12.2643 6.54356Z" fill="white"/>
<path d="M10.8134 39.7933L9.2168 38.652H11.1762L11.8293 36.5977L12.4099 38.652H14.3693L12.7728 39.7933L13.3533 41.7716L11.7568 40.5542L10.0876 41.7716L10.8134 39.7933Z" fill="white"/>
<path d="M19.1591 39.7933L17.5625 38.652H19.5219L20.175 36.5977L20.7556 38.652H22.715L21.1185 39.7933L21.699 41.7716L20.1025 40.5542L18.4333 41.7716L19.1591 39.7933Z" fill="white"/>
<path d="M2.53992 39.7933L0.943359 38.652H2.90277L3.55591 36.5977L4.13647 38.652H6.09588L4.49932 39.7933L5.07989 41.7716L3.48333 40.5542L1.88678 41.7716L2.53992 39.7933Z" fill="white"/>
</g>
<defs>
<clipPath id="clip0_3505_1409">
<rect width="177" height="42" fill="white"/>
</clipPath>
</defs>
</svg>
