<svg width="130" height="42" viewBox="0 0 130 42" fill="none" xmlns="http://www.w3.org/2000/svg">
<circle cx="20.6636" cy="20.6636" r="19.4238" stroke="black" stroke-width="2.47964"/>
<path d="M24.6365 27.8571L25.2068 29.2046C23.8167 31.8996 21.1791 33.3181 18.791 33.3181C15.69 33.3181 15.5117 31.6159 16.2603 29.1337C17.187 26.0486 18.5771 21.4742 19.2543 19.1338L16.7593 18.9211L17.2939 17.7863H19.6821C20.2167 16.1197 20.6444 14.5949 20.9296 13.4956C22.4266 13.3183 24.4227 12.9991 25.4563 12.6445C25.1712 13.3892 24.3157 15.8714 23.7098 17.7863H27.4524L26.8821 18.9211L23.3177 19.1338C22.6761 21.0842 20.5375 28.1408 20.0028 30.4812C19.8246 31.2613 19.9316 31.6869 20.6444 31.6869C22.1058 31.6869 23.9593 29.5947 24.6365 27.8571Z" fill="black"/>
<path d="M18.5256 12.7762C18.5256 13.4918 18.2399 14.1781 17.7313 14.6841C17.2227 15.19 16.5329 15.4743 15.8136 15.4743C15.0943 15.4743 14.4045 15.19 13.8959 14.6841C13.3873 14.1781 13.1016 13.4918 13.1016 12.7762C13.1016 12.0606 13.3873 11.3744 13.8959 10.8684C14.4045 10.3624 15.0943 10.0781 15.8136 10.0781C16.5329 10.0781 17.2227 10.3624 17.7313 10.8684C18.2399 11.3744 18.5256 12.0606 18.5256 12.7762Z" fill="black"/>
<path d="M53.4219 26.2025V15.4101H55.0491V26.2025H53.4219ZM61.0163 26.2025V16.844H57.204V15.4101H66.4558V16.844H62.6435V26.2025H61.0163ZM72.6059 26.2025V15.4101H74.791L78.1849 22.3172L81.5788 15.4101H83.7484V26.2025H82.2142V17.3836L78.1694 25.4316L74.1247 17.3836V26.2025H72.6059ZM90.3243 26.3412C89.5495 26.3412 88.8467 26.1612 88.2167 25.8016C87.5968 25.442 87.1009 24.9536 86.729 24.3369C86.3671 23.7202 86.1866 23.0315 86.1866 22.271C86.1866 21.5205 86.3621 20.8421 86.7135 20.2358C87.0519 19.6321 87.5435 19.1271 88.1392 18.7712C88.7382 18.4011 89.4046 18.2161 90.1383 18.2161C90.8718 18.2161 91.5226 18.4011 92.091 18.7712C92.659 19.1308 93.1084 19.6242 93.4393 20.2513C93.7802 20.868 93.9507 21.5668 93.9507 22.3481V22.7798H87.7363C87.8118 23.1948 87.9756 23.5891 88.2167 23.9361C88.4601 24.2713 88.7784 24.5458 89.1465 24.7378C89.53 24.9334 89.9553 25.0339 90.3863 25.0307C90.7683 25.0307 91.1352 24.9741 91.4866 24.8611C91.8481 24.7378 92.1476 24.5632 92.3854 24.3369L93.3773 25.3083C92.9124 25.6578 92.4319 25.9199 91.936 26.0946C91.4502 26.2591 90.9132 26.3412 90.3243 26.3412ZM87.7518 21.6234H92.4164C92.3545 21.2122 92.2096 20.8526 91.9825 20.5442C91.7745 20.2337 91.4923 19.9794 91.1612 19.8042C90.8413 19.6193 90.4773 19.5234 90.1074 19.5266C89.7295 19.523 89.3567 19.6131 89.0225 19.7887C88.6887 19.9661 88.4019 20.2197 88.1857 20.5288C87.9687 20.8371 87.8238 21.2021 87.7518 21.6234ZM99.8582 26.3258C99.1244 26.3258 98.453 26.1458 97.8436 25.7862C97.2441 25.4368 96.7471 24.9371 96.4023 24.3369C96.0509 23.7202 95.8754 23.0315 95.8754 22.271C95.8754 21.5105 96.0509 20.8267 96.4023 20.2204C96.7559 19.6218 97.2574 19.1229 97.8591 18.7712C98.4685 18.4116 99.1453 18.2316 99.8892 18.2316C100.323 18.2316 100.742 18.2982 101.144 18.432C101.547 18.5657 101.919 18.7608 102.26 19.0179V15.4101L103.81 15.1172V26.2025H102.276V25.447C101.604 26.0329 100.798 26.3258 99.8582 26.3258ZM100.06 24.9845C100.514 24.9845 100.928 24.9024 101.299 24.7378C101.672 24.5806 102.001 24.3375 102.26 24.0286V20.4979C102.002 20.21 101.681 19.9842 101.299 19.8196C100.928 19.645 100.514 19.5575 100.06 19.5575C99.5638 19.5575 99.1144 19.6758 98.7114 19.9121C98.3108 20.1461 97.9794 20.4811 97.7506 20.8834C97.5127 21.2842 97.3942 21.7418 97.3942 22.2556C97.3942 22.7694 97.5127 23.2319 97.7506 23.6431C97.9817 24.0477 98.3123 24.3872 98.7114 24.6299C99.1144 24.8661 99.5638 24.9845 100.06 24.9845ZM106.42 26.2025V18.3549H107.969V26.2025H106.42ZM107.195 17.0906C106.937 17.0906 106.714 16.9981 106.528 16.8131C106.342 16.6177 106.249 16.3918 106.249 16.1348C106.249 15.8676 106.342 15.6464 106.528 15.4718C106.714 15.2868 106.937 15.1943 107.195 15.1943C107.464 15.1943 107.691 15.2868 107.877 15.4718C108.062 15.6464 108.155 15.8676 108.155 16.1348C108.155 16.3918 108.062 16.6177 107.877 16.8131C107.691 16.9981 107.464 17.0906 107.195 17.0906ZM114.273 26.3412C113.519 26.3412 112.832 26.1612 112.212 25.8016C111.601 25.4503 111.093 24.9452 110.74 24.3369C110.389 23.7202 110.213 23.0315 110.213 22.271C110.213 21.5105 110.394 20.8267 110.756 20.2204C111.106 19.6153 111.608 19.1107 112.212 18.7558C112.832 18.3857 113.519 18.2007 114.273 18.2007C114.873 18.2007 115.446 18.3137 115.994 18.5399C116.536 18.7554 117.026 19.081 117.435 19.4958L116.474 20.5596C116.175 20.2308 115.839 19.9842 115.467 19.8196C115.101 19.6565 114.705 19.5724 114.304 19.5729C113.846 19.5685 113.395 19.6913 113.003 19.9275C112.621 20.1638 112.316 20.4875 112.088 20.8988C111.861 21.3101 111.747 21.7672 111.747 22.271C111.747 22.7747 111.861 23.2319 112.088 23.6431C112.308 24.046 112.628 24.3859 113.018 24.6299C113.411 24.8661 113.85 24.9845 114.335 24.9845C114.738 24.9845 115.116 24.9074 115.467 24.7532C115.818 24.5886 116.149 24.3524 116.458 24.044L117.404 25.0307C116.995 25.4492 116.505 25.7797 115.963 26.002C115.428 26.2276 114.854 26.343 114.273 26.3412ZM121.921 26.3412C121.353 26.3412 120.852 26.2437 120.418 26.0483C119.984 25.8429 119.643 25.5599 119.395 25.2003C119.147 24.8407 119.023 24.4244 119.023 23.9515C119.023 23.2115 119.307 22.6306 119.876 22.2093C120.444 21.7776 121.224 21.5618 122.216 21.5618C122.991 21.5618 123.708 21.7109 124.37 22.0089V21.1763C124.37 20.6109 124.204 20.1896 123.874 19.9121C123.554 19.6346 123.078 19.4958 122.448 19.4958C122.086 19.4958 121.709 19.5525 121.317 19.6654C120.924 19.7683 120.485 19.9325 120 20.1588L119.426 19.0024C120.025 18.7249 120.583 18.5245 121.1 18.4011C121.611 18.2682 122.137 18.2009 122.665 18.2007C123.688 18.2007 124.478 18.4424 125.036 18.9253C125.604 19.4083 125.889 20.0971 125.889 20.9913V26.2025H124.37V25.5241C124.032 25.7942 123.649 26.003 123.239 26.1408C122.836 26.2746 122.396 26.3412 121.921 26.3412ZM120.511 23.9207C120.511 24.3011 120.671 24.6094 120.991 24.8457C121.322 25.072 121.751 25.1849 122.278 25.1849C122.691 25.1849 123.068 25.1283 123.409 25.0153C123.764 24.8898 124.09 24.6959 124.37 24.4449V23.1189C124.076 22.9467 123.757 22.8218 123.424 22.7489C123.104 22.6668 122.743 22.6256 122.34 22.6256C121.771 22.6256 121.322 22.7439 120.991 22.9802C120.671 23.2064 120.511 23.5198 120.511 23.9207ZM128.449 26.2025V15.4101L129.999 15.1172V26.2025H128.449Z" fill="black"/>
</svg>
