<svg width="28" height="46" viewBox="0 0 28 46" fill="none" xmlns="http://www.w3.org/2000/svg">
<path d="M13.9158 28.706C13.831 28.622 13.831 28.706 13.9158 28.706L13.4915 28.4542L13.4067 28.3702L3.3941 21.3191C3.3941 21.3191 3.30925 21.3191 3.30925 21.2352L3.13954 21.0673L3.05469 20.9833H2.88499L0 18.9688L5.68512 19.8082C5.93968 19.8082 6.02453 19.8921 6.27909 19.976C6.36394 19.976 6.53364 20.06 6.53364 20.06C6.7882 20.1439 6.87305 20.2279 7.04276 20.3118C7.21246 20.3958 7.29732 20.4797 7.46702 20.5636C7.55187 20.6476 7.72158 20.7315 7.72158 20.8155C7.80643 20.8994 7.89128 20.8994 7.97614 20.9833C8.14584 21.0673 8.23069 21.1512 8.23069 21.2352C8.48525 21.487 8.65496 21.7388 8.90951 21.9067L13.4067 28.2023L13.4915 28.2863L13.9158 28.706Z" fill="#2AD2FF"/>
<path d="M13.9169 38.4432L13.4926 37.7717L13.4078 37.6877L0.0859375 18.9688L2.97092 20.9833L3.48004 21.3191L13.4926 28.3702H13.5775L13.9169 28.622C13.9169 28.622 14.0017 28.622 14.0017 28.706L14.426 28.3702L27.9176 18.9688L14.3412 37.7717L14.2563 37.8556L13.9169 38.4432Z" fill="url(#paint0_linear_5867_547)"/>
<path d="M13.9141 25.5183L13.4898 24.8467L13.405 24.7628L10.0957 20.2299L13.405 20.9015H13.4898L13.9141 20.9854L14.3383 20.9015L17.5627 20.146L14.3383 24.8467V24.9307L13.9141 25.5183Z" fill="#2AD2FF"/>
<path d="M27.9996 18.8867L23.757 19.4743L22.1448 19.7261C20.872 19.894 19.684 20.5656 18.9204 21.6568L14.4232 28.0364L14.3383 28.1203L13.9141 28.7079L14.4232 28.2042L14.508 28.1203L13.9141 28.7079L25.3692 20.6495L27.9996 18.8867Z" fill="#2AD2FF"/>
<path d="M16.0382 5.62409C16.0382 9.31752 9.58941 11.2482 9.58941 15.1934C9.50456 16.1168 9.75912 17.0401 10.1834 17.8796C10.1834 17.8796 7.72266 15.5292 7.72266 13.0109C7.72266 10.4927 10.0985 6.71533 10.0985 6.71533C10.0985 8.39416 10.7773 8.89781 11.4562 8.98175H11.541C12.3047 8.98175 12.729 8.39416 12.729 7.55474C12.729 6.71533 11.7956 5.87591 11.7956 4.19708C11.7956 2.60219 13.832 0 13.832 0C15.2745 1.67883 16.0382 3.60949 16.0382 5.62409Z" fill="#2AF4FF"/>
<path d="M14.2572 19.0548C12.2207 19.0548 10.6934 17.4599 10.6934 15.5293V15.4453C10.6934 11.1643 16.7179 10.7446 16.7179 4.95264C16.8876 5.20446 18.4998 7.38694 18.4998 9.73731C18.4998 12.6753 15.6997 13.4307 15.6997 14.8577C15.6997 15.4453 15.9542 15.865 16.8027 15.865C16.8876 15.865 16.9724 15.865 17.0573 15.7811C18.6695 15.1096 19.7726 13.5986 19.8574 11.8358C19.8574 11.9198 20.706 19.0548 14.2572 19.0548Z" fill="#2AF4FF"/>
<path d="M16.8859 15.865C16.9707 15.865 17.0556 15.865 17.1404 15.7811C16.2919 16.0329 13.1523 16.7884 13.1523 14.6059C13.1523 11.9198 17.8192 11.3322 17.8192 9.06577C17.8192 7.63877 17.4798 6.21176 16.7161 4.95264C16.8859 5.20446 18.4981 7.38694 18.4981 9.73731C18.4981 12.6753 15.6979 13.4307 15.6979 14.8577C15.7828 15.4453 16.1222 15.865 16.8859 15.865Z" fill="#2AD2FF"/>
<path d="M14.3401 7.13504C14.3401 9.23358 11.6248 9.06569 11.4551 8.98175H11.7096C12.4733 8.98175 12.8976 8.39416 12.8976 7.55474C12.8976 6.71533 11.9642 5.87591 11.9642 4.19708C11.9642 2.60219 14.0007 0 14.0007 0C13.3218 1.09124 12.9824 2.26642 12.8976 3.44161C12.8976 5.37226 14.3401 5.54015 14.3401 7.13504Z" fill="#2AD2FF"/>
<path d="M12.6441 43.8175L10.7773 42.5584H13.0684L13.832 40.292L14.5109 42.5584H16.8019L14.9351 43.8175L15.6139 46L13.7472 44.657L11.7956 46L12.6441 43.8175Z" fill="#2AD2FF"/>
<path d="M22.4019 43.8175L20.5352 42.5584H22.8262L23.5898 40.292L24.2687 42.5584H26.5597L24.6929 43.8175L25.3717 46L23.505 44.657L21.5534 46L22.4019 43.8175Z" fill="#2AD2FF"/>
<path d="M2.97027 43.8175L1.10352 42.5584H3.39453L4.15821 40.292L4.83703 42.5584H7.12804L5.26129 43.8175L5.94011 46L4.07335 44.657L2.2066 46L2.97027 43.8175Z" fill="#2AD2FF"/>
<defs>
<linearGradient id="paint0_linear_5867_547" x1="0.00108502" y1="38.4785" x2="0.00108502" y2="28.1755" gradientUnits="userSpaceOnUse">
<stop offset="0.73" stop-color="#2AF4FF"/>
<stop offset="0.884" stop-color="#2AF4FF"/>
</linearGradient>
</defs>
</svg>
