<svg width="610" height="44" viewBox="0 0 610 44" fill="none" xmlns="http://www.w3.org/2000/svg">
<g clip-path="url(#clip0_3505_2797)">
<path d="M44.0805 26.2394C45.1627 26.2394 46.04 25.3496 46.04 24.252C46.04 23.1544 45.1627 22.2646 44.0805 22.2646C42.9984 22.2646 42.1211 23.1544 42.1211 24.252C42.1211 25.3496 42.9984 26.2394 44.0805 26.2394Z" fill="#EBEBEB"/>
<path d="M15.5576 13H18.1505V29.9598H15.5576V13ZM27.5941 24.7299C27.5941 27.3598 25.4726 27.569 24.8244 27.569C23.2038 27.569 22.9681 26.0299 22.9681 25.1034V18.5437H20.3604V25.0885C20.3457 26.7172 20.8024 28.0621 21.6864 28.9586C22.4892 29.6844 23.5119 30.1111 24.5859 30.1681C25.6599 30.2252 26.721 29.9092 27.5941 29.2724V29.9598H30.2018V18.5437H27.5941V24.7299ZM35.8297 14.7034H33.222V18.5437H31.4099V21.0391H33.222V29.9598H35.8297V21.0391H37.9659V18.5437H35.8297V14.7034ZM46.4077 26.7172C45.8184 27.2552 45.0375 27.554 44.183 27.554C43.7489 27.5665 43.3169 27.4887 42.9136 27.3255C42.5102 27.1622 42.1441 26.917 41.8377 26.6048C41.5313 26.2927 41.2912 25.9202 41.132 25.5104C40.9729 25.1006 40.8982 24.6621 40.9124 24.2218C40.9124 22.2943 42.2531 20.9494 44.183 20.9494C45.0228 20.9494 45.8184 21.2333 46.4224 21.7713L46.8349 22.1299L48.6617 20.277L48.205 19.8586C47.0987 18.8578 45.6654 18.3093 44.183 18.3195C40.7945 18.3195 38.3342 20.8 38.3342 24.2069C38.3162 24.9923 38.4549 25.7733 38.7421 26.5029C39.0293 27.2326 39.459 27.8958 40.0053 28.4527C40.5517 29.0096 41.2034 29.4487 41.9213 29.7437C42.6393 30.0386 43.4086 30.1833 44.183 30.169C45.73 30.169 47.1737 29.6161 48.2345 28.6149L48.6765 28.1966L46.8202 26.3437L46.4077 26.7172ZM58.4442 19.5448C57.6414 18.819 56.6186 18.3924 55.5446 18.3353C54.4707 18.2783 53.4096 18.5942 52.5364 19.231V13H49.9287V29.9598H52.5364V23.7885C52.5364 21.1586 54.6579 20.9494 55.3061 20.9494C56.9267 20.9494 57.1624 22.4885 57.1624 23.4149V29.9747H59.7701V23.4149C59.8488 21.998 59.3722 20.607 58.4442 19.5448ZM11.7124 25.8954C11.2051 26.424 10.5978 26.8433 9.92702 27.1283C9.25619 27.4133 8.53556 27.5581 7.80827 27.554C4.78809 27.554 2.59294 25.1483 2.59294 21.846C2.59294 18.5287 4.78809 16.123 7.80827 16.123C9.2668 16.123 10.6517 16.7057 11.6977 17.7667L12.1102 18.1851L13.9223 16.3471L13.5245 15.9287C12.777 15.1576 11.8848 14.5461 10.9005 14.1304C9.91618 13.7146 8.85976 13.503 7.79354 13.508C3.35903 13.508 0 17.0943 0 21.8609C0 26.5977 3.35903 30.1839 7.79354 30.1839C9.9887 30.1839 12.0218 29.3172 13.5245 27.7483L13.9223 27.3299L12.1249 25.4621L11.7124 25.8954Z" fill="white"/>
</g>
<g clip-path="url(#clip1_3505_2797)">
<path d="M113.333 18.9043H117.779C121.357 18.9043 123.852 21.4624 123.852 24.7595V24.8163C123.852 28.1134 121.412 30.6715 117.779 30.6715H113.333V18.9043ZM117.779 28.284C119.839 28.284 121.195 26.8628 121.195 24.8163V24.7595C121.195 22.713 119.839 21.235 117.779 21.235H115.881V28.284H117.779Z" fill="white"/>
<path d="M126.02 18.9043H134.641V21.1782H128.569V23.5657H133.936V25.8396H128.569V28.284H134.75V30.5578H126.074L126.02 18.9043Z" fill="white"/>
<path d="M136.16 28.9089L137.678 27.0898C138.708 27.9425 139.793 28.511 141.094 28.511C142.124 28.511 142.721 28.0562 142.721 27.4309V27.3741C142.721 26.6919 142.287 26.3508 140.443 25.8961C138.166 25.2708 136.648 24.6454 136.648 22.3147V22.2579C136.648 20.1546 138.275 18.7334 140.66 18.7334C142.287 18.7334 143.751 19.245 144.889 20.2114L143.588 22.201C142.612 21.462 141.582 21.0641 140.606 21.0641C139.63 21.0641 139.142 21.5189 139.142 22.0873V22.0305C139.142 22.7695 139.63 23.0537 141.582 23.5654C143.914 24.1907 145.161 25.0434 145.161 27.033V27.0898C145.161 29.4206 143.426 30.728 140.986 30.728C139.251 30.728 137.516 30.1027 136.16 28.9089Z" fill="white"/>
<path d="M147.438 18.9043H149.932V30.6147H147.438V18.9043Z" fill="white"/>
<path d="M152.317 24.7593C152.317 21.4054 154.811 18.6768 158.282 18.6768C160.342 18.6768 161.535 19.2452 162.728 20.3253L161.155 22.3149C160.288 21.5759 159.529 21.1212 158.173 21.1212C156.33 21.1212 154.92 22.7697 154.92 24.7593V24.8162C154.92 26.9764 156.33 28.5681 158.39 28.5681C159.312 28.5681 160.125 28.3407 160.776 27.8291V26.1805H158.227V23.9635H163.161V29.0228C161.968 30.0461 160.396 30.8988 158.282 30.8988C154.703 30.7282 152.317 28.227 152.317 24.7593Z" fill="white"/>
<path d="M165.547 18.9043H167.878L173.192 26.067V18.9043H175.632V30.6147H173.517L167.987 23.1678V30.6147H165.547V18.9043Z" fill="white"/>
<path d="M178.396 18.9043H183.601C185.065 18.9043 186.15 19.3591 186.909 20.0981C187.559 20.7802 187.885 21.6898 187.885 22.7699V22.8267C187.885 24.7026 186.909 25.8964 185.445 26.4649L188.21 30.6147H185.282L182.842 26.8628H182.788H180.836V30.6147H178.288V18.9043H178.396ZM183.439 24.5321C184.686 24.5321 185.336 23.8499 185.336 22.8836V22.8267C185.336 21.7466 184.632 21.1782 183.384 21.1782H180.89V24.5321H183.439Z" fill="white"/>
<path d="M189.999 25.5548V18.8469H192.493V25.4411C192.493 27.3739 193.415 28.2834 194.933 28.2834C196.451 28.2834 197.373 27.317 197.373 25.4411V18.79H199.867V25.3842C199.867 28.9087 197.915 30.671 194.879 30.671C191.842 30.671 189.999 28.9656 189.999 25.5548Z" fill="white"/>
<path d="M201.657 28.9089L203.175 27.0898C204.205 27.9425 205.29 28.511 206.591 28.511C207.621 28.511 208.218 28.0562 208.218 27.4309V27.3741C208.218 26.6919 207.784 26.3508 205.94 25.8961C203.663 25.2708 202.145 24.6454 202.145 22.3147V22.2579C202.145 20.1546 203.772 18.7334 206.157 18.7334C207.784 18.7334 209.248 19.245 210.386 20.2114L209.085 22.201C208.109 21.462 207.079 21.0641 206.103 21.0641C205.127 21.0641 204.639 21.5189 204.639 22.0873V22.0305C204.639 22.7695 205.127 23.0537 207.079 23.5654C209.41 24.1907 210.657 25.0434 210.657 27.033V27.0898C210.657 29.4206 208.922 30.728 206.483 30.728C204.802 30.728 203.012 30.1027 201.657 28.9089Z" fill="white"/>
<path d="M212.826 18.9043H215.32V23.5657H219.929V18.9043H222.423V30.6147H219.929V25.9533H215.32V30.6147H212.826V18.9043Z" fill="white"/>
<path d="M99.019 25.4985C98.9647 25.4417 98.9647 25.4985 99.019 25.4985L98.7479 25.328L98.6936 25.2711L92.2957 20.496C92.2957 20.496 92.2415 20.496 92.2415 20.4392L92.1331 20.3255L92.0789 20.2686H91.9704L90.127 18.9043L93.7597 19.4728C93.9223 19.4728 93.9765 19.5296 94.1392 19.5865C94.1934 19.5865 94.3019 19.6433 94.3019 19.6433C94.4645 19.7001 94.5187 19.757 94.6272 19.8138C94.7356 19.8707 94.7898 19.9275 94.8983 19.9844C94.9525 20.0412 95.0609 20.0981 95.0609 20.1549C95.1151 20.2118 95.1694 20.2118 95.2236 20.2686C95.332 20.3255 95.3862 20.3823 95.3862 20.4392C95.5489 20.6097 95.6573 20.7802 95.82 20.8939L98.6936 25.1574L98.7479 25.2143L99.019 25.4985Z" fill="white"/>
<path d="M99.0184 32.0927L98.7473 31.6379L98.6931 31.5811L90.1807 18.9043L92.0241 20.2686L92.3494 20.496L98.7473 25.2711H98.8016L99.0184 25.4417C99.0184 25.4417 99.0727 25.4417 99.0727 25.4985L99.3438 25.2711L107.965 18.9043L99.2895 31.6379L99.2353 31.6948L99.0184 32.0927Z" fill="white"/>
<path d="M99.019 23.3384L98.7479 22.8836L98.6937 22.8268L96.5791 19.757L98.6937 20.2118H98.7479L99.019 20.2687L99.2901 20.2118L101.35 19.7002L99.2901 22.8836V22.9404L99.019 23.3384Z" fill="white"/>
<path d="M108.019 18.8477L105.308 19.2456L104.278 19.4161C103.465 19.5298 102.705 19.9846 102.218 20.7236L99.3439 25.0439L99.2897 25.1008L99.0186 25.4987L99.3439 25.1576L99.3981 25.1008L99.0186 25.4987L106.338 20.0414L108.019 18.8477Z" fill="white"/>
<path d="M100.374 9.86536C100.374 12.3666 96.2534 13.6741 96.2534 16.3459C96.1992 16.9712 96.3618 17.5965 96.6329 18.165C96.6329 18.165 95.0605 16.5733 95.0605 14.8679C95.0605 13.1625 96.5787 10.6044 96.5787 10.6044C96.5787 11.7413 97.0124 12.0824 97.4462 12.1392H97.5004C97.9884 12.1392 98.2595 11.7413 98.2595 11.1728C98.2595 10.6044 97.6631 10.0359 97.6631 8.89897C97.6631 7.81888 98.9644 6.05664 98.9644 6.05664C99.8861 7.19357 100.374 8.50104 100.374 9.86536Z" fill="white"/>
<path d="M99.2355 18.9604C97.9342 18.9604 96.9583 17.8803 96.9583 16.5728V16.516C96.9583 13.6168 100.808 13.3326 100.808 9.41016C100.916 9.5807 101.946 11.0587 101.946 12.6504C101.946 14.64 100.157 15.1517 100.157 16.1181C100.157 16.516 100.32 16.8002 100.862 16.8002C100.916 16.8002 100.97 16.8002 101.025 16.7434C102.055 16.2886 102.76 15.2654 102.814 14.0716C102.814 14.1284 103.356 18.9604 99.2355 18.9604Z" fill="white"/>
<path d="M100.917 16.8002C100.971 16.8002 101.025 16.8002 101.079 16.7434C100.537 16.9139 98.531 17.4255 98.531 15.9475C98.531 14.1284 101.513 13.7305 101.513 12.1956C101.513 11.2292 101.296 10.2629 100.808 9.41016C100.917 9.5807 101.947 11.0587 101.947 12.6504C101.947 14.64 100.158 15.1517 100.158 16.1181C100.212 16.516 100.429 16.8002 100.917 16.8002Z" fill="white"/>
<path d="M99.2905 10.8886C99.2905 12.3098 97.5555 12.1961 97.447 12.1392H97.6097C98.0977 12.1392 98.3688 11.7413 98.3688 11.1728C98.3688 10.6044 97.7723 10.0359 97.7723 8.89897C97.7723 7.81888 99.0736 6.05664 99.0736 6.05664C98.6399 6.79565 98.423 7.5915 98.3688 8.38735C98.3688 9.69482 99.2905 9.80852 99.2905 10.8886Z" fill="white"/>
<path d="M98.2063 35.7303L97.0134 34.8776H98.4774L98.9653 33.3428L99.3991 34.8776H100.863L99.6702 35.7303L100.104 37.2083L98.9111 36.2988L97.6641 37.2083L98.2063 35.7303Z" fill="white"/>
<path d="M104.442 35.7303L103.249 34.8776H104.713L105.201 33.3428L105.634 34.8776H107.098L105.906 35.7303L106.339 37.2083L105.146 36.2988L103.899 37.2083L104.442 35.7303Z" fill="white"/>
<path d="M92.0246 35.7303L90.8318 34.8776H92.2957L92.7837 33.3428L93.2174 34.8776H94.6814L93.4885 35.7303L93.9223 37.2083L92.7295 36.2988L91.5366 37.2083L92.0246 35.7303Z" fill="white"/>
</g>
<g clip-path="url(#clip2_3505_2797)">
<path fill-rule="evenodd" clip-rule="evenodd" d="M301.992 20.7615H300.942L298.1 27.2656H299.263L299.927 25.7068H302.98L303.635 27.2656H304.845L301.992 20.7615ZM302.563 24.6996H300.341L301.438 22.1172L302.563 24.6996ZM336.874 21.8592H338.92V20.8081H333.683V21.8592H335.73V27.2656H336.874V21.8592ZM329.33 22.5041C329.33 22.3976 329.355 22.2926 329.403 22.1973C329.45 22.102 329.519 22.0192 329.604 21.9553C329.828 21.7928 330.102 21.7132 330.378 21.7302C330.678 21.7312 330.975 21.7889 331.253 21.9004C331.565 22.0271 331.859 22.1931 332.128 22.3943L332.737 21.5354C332.417 21.278 332.058 21.0741 331.673 20.9316C331.262 20.7874 330.829 20.7168 330.394 20.723C330.095 20.7202 329.796 20.7656 329.511 20.8575C329.257 20.9381 329.021 21.0687 328.817 21.2417C328.627 21.4066 328.472 21.6094 328.365 21.8372C328.253 22.0787 328.196 22.3423 328.2 22.6084C328.192 22.8709 328.241 23.132 328.343 23.3741C328.436 23.5876 328.579 23.7757 328.76 23.923C328.963 24.0818 329.191 24.2061 329.434 24.2907C329.736 24.4011 330.043 24.4928 330.356 24.5651L331.091 24.7764C331.248 24.8291 331.397 24.902 331.536 24.9933C331.631 25.0556 331.708 25.1429 331.758 25.2457C331.799 25.3448 331.82 25.4513 331.818 25.5586C331.821 25.6768 331.795 25.7939 331.741 25.899C331.686 26.0041 331.606 26.0938 331.508 26.1596C331.263 26.317 330.976 26.3947 330.685 26.3819C330.308 26.3897 329.934 26.3157 329.588 26.1651C329.241 25.9984 328.921 25.7821 328.636 25.5229L327.953 26.3462C328.321 26.6846 328.75 26.9492 329.218 27.1256C329.675 27.2947 330.159 27.3803 330.647 27.3781C330.962 27.3815 331.277 27.3381 331.579 27.2491C331.844 27.1723 332.09 27.0436 332.304 26.8704C332.504 26.7049 332.665 26.4968 332.775 26.2611C332.892 26.0026 332.95 25.7215 332.946 25.4378C332.951 25.1959 332.905 24.9556 332.811 24.7325C332.72 24.5304 332.586 24.3505 332.419 24.2056C332.224 24.0416 332.004 23.9117 331.766 23.8214C331.472 23.7106 331.172 23.6189 330.866 23.547L330.104 23.3357C329.937 23.2834 329.778 23.2086 329.632 23.1134C329.532 23.0495 329.451 22.9605 329.396 22.8554C329.347 22.745 329.325 22.6247 329.33 22.5041ZM326.977 20.8081H322.198V27.2656H327.023V26.2419H323.325V24.5157H326.562V23.4921H323.325V21.8318H326.977V20.8081ZM320.944 20.8081H316.149V27.2656H317.274V24.6365H320.53V23.6128H317.274V21.8318H320.944V20.8081Z" fill="white"/>
<path d="M313.291 20.8086H314.416V27.2688H313.291V20.8086Z" fill="white"/>
<path fill-rule="evenodd" clip-rule="evenodd" d="M310.441 25.2737L306.99 20.8086H305.94V27.2661H307.064V22.672L310.617 27.2661H311.566V20.8086H310.441V25.2737ZM295.867 22.6336V27.2661H296.994V20.8086H295.785L293.82 23.8603L291.856 20.8086H290.647V27.2661H291.771V22.6528L293.793 25.6798H293.829L295.867 22.6336Z" fill="white"/>
<path fill-rule="evenodd" clip-rule="evenodd" d="M286.48 20.8077H281.701V27.2651H286.523V26.2415H282.826V24.5153H286.063V23.4917H282.826V21.8313H286.48V20.8077ZM278.914 24.5427V27.2651H280.042V20.8077H278.914V23.4917H275.817V20.8077H274.692V27.2651H275.817V24.5427H278.914ZM271.445 21.8588H273.491V20.8077H268.254V21.8588H270.301V27.2651H271.445V21.8588ZM295.877 29.0901V42.263H259.463V38.5966H291.579V29.0901H290.498V37.5181H259.463V5.82077H290.496V18.9937H291.576V5.82077H295.875V18.9937H296.956V4.7395H291.579V0H253V38.5966H258.379V43.3333H296.958V29.0901H295.877ZM258.379 37.5126H254.081V1.08402H290.496V4.7395H258.379V37.5126Z" fill="white"/>
</g>
<g clip-path="url(#clip3_3505_2797)">
<path d="M375.503 20.5285C375.503 20.5285 374.596 20.4536 374.596 21.201V24.6377H380.419V25.6839C380.419 25.6839 380.419 26.2067 379.89 26.2067H374.596V30.6897H380.949C380.949 30.6897 384.806 30.092 384.806 26.2067V20.5285H375.503ZM384.731 15H373.235C369.076 15.9713 369 19.3332 369 19.3332V30.6897H373.386V20.3794C373.386 19.483 374.294 19.3332 374.294 19.3332H384.73L384.731 15ZM399.856 27.4027C399.553 27.6266 399.326 27.7764 399.175 27.8513C398.646 28.225 398.041 28.4489 397.587 28.6728C396.83 28.9716 396.226 29.1214 395.62 29.1214C393.654 29.1214 391.99 28.5238 390.629 27.3285C389.268 26.1332 388.663 24.5643 388.663 22.7714C388.663 20.9785 389.268 19.4837 390.478 18.1394C391.687 16.8692 393.125 16.1967 394.864 16.1967C395.544 16.1967 396.301 16.3465 397.133 16.5704C398.192 16.8692 399.023 17.392 399.628 17.9903L398.494 19.2605C398.04 18.8119 397.36 18.4389 396.603 18.2142C396.01 18.0664 395.401 17.9912 394.789 17.9903C393.579 17.9903 392.596 18.4389 391.764 19.4095C390.932 20.3801 390.553 21.4998 390.553 22.8448C390.553 24.1899 391.007 25.2354 391.915 26.1318C392.822 27.0283 394.033 27.402 395.394 27.402C396.037 27.4039 396.667 27.2224 397.208 26.8792C397.738 26.5055 397.965 26.2816 397.965 26.2816V23.5173H394.108L394.713 21.8735H399.855V27.402L399.856 27.4027ZM411.427 24.115C411.441 24.7549 411.321 25.3909 411.073 25.9825C410.826 26.5741 410.457 27.1084 409.989 27.5517C409.007 28.5231 407.872 28.9709 406.511 28.9709C405.225 28.9709 404.091 28.5223 403.108 27.5517C402.64 27.1084 402.271 26.5741 402.024 25.9825C401.776 25.3909 401.656 24.7549 401.67 24.115C401.67 22.7699 402.124 21.6496 403.032 20.6782C403.94 19.7069 405.073 19.1841 406.435 19.1841C407.872 19.1841 409.082 19.6327 410.064 20.6033C410.973 21.4998 411.427 22.6951 411.427 24.115ZM409.612 24.115C409.612 23.2185 409.309 22.4711 408.704 21.8735C408.099 21.2759 407.343 20.977 406.436 20.977C405.604 20.977 404.847 21.2759 404.318 21.9484C403.713 22.6209 403.41 23.2934 403.41 24.115C403.41 25.0114 403.713 25.6839 404.318 26.3565C404.922 26.9541 405.679 27.2529 406.511 27.2529C407.342 27.2529 408.023 26.9541 408.629 26.3565C409.309 25.6839 409.688 25.0114 409.612 24.115ZM422.923 24.115C422.937 24.7549 422.817 25.3909 422.569 25.9825C422.322 26.5741 421.953 27.1084 421.485 27.5517C420.502 28.5231 419.367 28.9709 418.007 28.9709C416.721 28.9709 415.586 28.5223 414.604 27.5517C414.136 27.1084 413.767 26.5741 413.52 25.9825C413.272 25.3909 413.152 24.7549 413.166 24.115C413.145 22.8371 413.634 21.6023 414.527 20.6782C415.435 19.7069 416.569 19.1841 417.93 19.1841C419.367 19.1841 420.577 19.6327 421.56 20.6033C422.392 21.4998 422.923 22.6951 422.923 24.115ZM421.108 24.115C421.108 23.2185 420.805 22.4711 420.2 21.8735C419.594 21.2759 418.839 20.977 417.931 20.977C417.099 20.977 416.343 21.2759 415.814 21.9484C415.209 22.6209 414.905 23.2934 414.905 24.115C414.905 25.0114 415.208 25.6839 415.814 26.3565C416.419 26.9541 417.174 27.2529 418.007 27.2529C418.839 27.2529 419.519 26.9541 420.124 26.3565C420.805 25.6839 421.108 25.0114 421.108 24.115ZM433.511 28.747L431.847 28.9709V27.402L431.468 27.7757C431.167 28.0745 430.788 28.2984 430.41 28.5231C429.835 28.7612 429.219 28.8881 428.595 28.8968C427.31 28.8968 426.175 28.4482 425.343 27.4776C424.436 26.5062 423.982 25.3858 423.982 24.1157C423.982 22.7707 424.436 21.5754 425.343 20.6789C426.251 19.7825 427.31 19.2597 428.595 19.2597C429.245 19.253 429.889 19.3803 430.486 19.6334C430.864 19.7832 431.167 20.0071 431.468 20.306C431.544 20.4557 431.62 20.5299 431.771 20.6797V16.4941L433.511 16.2701V28.747ZM431.922 24.264C431.922 23.3676 431.62 22.546 430.939 21.8735C430.258 21.201 429.578 20.9022 428.746 20.9022C427.839 20.9022 427.083 21.201 426.553 21.7986C426.023 22.3962 425.721 23.1436 425.721 23.9652C425.721 24.9365 426.024 25.6832 426.553 26.2816C427.082 26.8799 427.839 27.178 428.671 27.178C429.503 27.178 430.259 26.8792 430.94 26.3565C431.621 25.7588 431.923 25.0863 431.923 24.2647L431.922 24.264ZM442.813 18.2121H437.897V21.4991H441.755V23.2178H437.897V28.6721L436.007 28.9709V16.4941H442.51L442.813 18.2121ZM446.745 17.2408L445.535 18.7349L444.401 17.2408L445.611 15.7467L446.745 17.2408ZM446.367 28.7463L444.628 28.9702V19.7069L446.367 19.4081V28.7463ZM454.383 19.3325L453.551 21.2003H453.249C453.098 21.2003 452.871 21.2003 452.719 21.2751C452.568 21.2751 452.341 21.35 452.19 21.4249C451.812 21.5747 451.509 21.9477 451.207 22.4711C450.904 23.0688 450.754 23.7413 450.754 24.3389V28.6721L449.014 28.9709V19.7069L450.678 19.4081V21.3507C450.904 21.0519 451.131 20.6782 451.358 20.3045C451.66 19.9308 452.039 19.7069 452.417 19.5571C452.644 19.4822 453.022 19.4074 453.551 19.3332H454.383V19.3325ZM467.466 28.7463L465.727 28.9702V22.6195C465.727 22.0218 465.575 21.5733 465.349 21.3493C465.121 21.0505 464.668 20.9756 464.215 20.9756C463.61 20.9756 463.156 21.1996 462.777 21.723C462.55 22.0967 462.475 22.4704 462.475 22.8434V28.7456L460.736 29.0444V22.6936C460.736 22.1709 460.584 21.7223 460.358 21.4235C460.131 21.1247 459.753 20.9749 459.299 20.9749H459.147C458.542 20.9749 458.088 21.1988 457.786 21.7223C457.559 22.096 457.484 22.6188 457.484 23.2164V28.7449L455.669 29.0437V19.7069L457.332 19.4081V20.6033C457.484 20.3045 457.71 20.0806 457.862 19.9308C458.081 19.7162 458.34 19.5464 458.626 19.431C458.911 19.3156 459.217 19.2569 459.525 19.2583C460.206 19.2583 460.736 19.3332 461.114 19.5571C461.416 19.7069 461.719 20.0799 462.021 20.6775C462.626 19.7062 463.459 19.2583 464.593 19.2583C465.652 19.2583 466.483 19.5571 467.013 20.3045C467.466 20.8273 467.693 21.7237 467.693 22.7699V28.747L467.466 28.7463ZM475.558 25.9072C475.558 26.7287 475.256 27.4761 474.651 27.9989C474.046 28.5216 473.289 28.8204 472.382 28.8204C471.701 28.8204 471.096 28.6707 470.491 28.3719C469.961 28.073 469.508 27.6994 469.206 27.2515L470.416 26.1311C470.491 26.2809 470.567 26.355 470.643 26.4299C471.096 26.8785 471.626 27.1024 472.306 27.1024C472.76 27.1024 473.139 26.9527 473.365 26.7287C473.592 26.5048 473.743 26.206 473.743 25.7574C473.743 25.3088 473.441 24.9358 472.836 24.7861L470.87 24.1884C470.34 23.8896 469.886 23.5908 469.659 23.292C469.357 22.9183 469.206 22.3955 469.206 21.723C469.206 20.9015 469.508 20.2289 470.113 19.7055C470.718 19.182 471.399 18.8839 472.231 18.8839C472.836 18.8839 473.441 19.0337 473.971 19.3325C474.501 19.6313 474.878 19.9301 475.105 20.2289L474.122 21.574C473.962 21.4064 473.785 21.256 473.593 21.1254C473.139 20.8266 472.761 20.6768 472.383 20.6768C472.004 20.6768 471.702 20.7517 471.475 20.9007C471.33 21.0018 471.213 21.1365 471.134 21.2929C471.055 21.4492 471.016 21.6225 471.021 21.7972C471.021 22.1709 471.172 22.4697 471.399 22.6188C471.627 22.7678 472.156 22.9176 472.912 23.0673C473.668 23.2171 474.273 23.5901 474.727 24.0387C475.332 24.5614 475.558 25.1598 475.558 25.9072Z" fill="white"/>
</g>
<path d="M533.326 18.8015H543.855V20.7111H539.715V31.4478H537.438V20.7111H533.316V18.8008H533.325L533.326 18.8015ZM543.405 22.2905H545.351V24.0581H545.388C545.452 23.8081 545.571 23.567 545.746 23.3346C546.119 22.8366 546.624 22.4505 547.206 22.2192C547.501 22.1034 547.815 22.0428 548.133 22.0405C548.37 22.0405 548.546 22.0493 548.638 22.0589C548.729 22.0677 548.821 22.0853 548.922 22.0942V24.0398C548.773 24.0139 548.623 23.9931 548.472 23.9773C548.323 23.9598 548.172 23.9509 548.022 23.9508C547.673 23.9508 547.343 24.0221 547.031 24.1567C546.719 24.2898 546.452 24.4949 546.224 24.7545C545.979 25.0447 545.792 25.3776 545.672 25.7361C545.535 26.1287 545.47 26.5743 545.47 27.0839V31.439H543.396V22.2905H543.405ZM558.459 31.4486H556.421V30.1721H556.384C556.127 30.6368 555.751 31.003 555.246 31.2795C554.741 31.5559 554.227 31.6986 553.704 31.6986C552.465 31.6986 551.565 31.4045 551.015 30.8059C550.464 30.2081 550.188 29.3067 550.188 28.1015V22.2912H552.263V27.9052C552.263 28.7089 552.419 29.2802 552.741 29.6103C553.053 29.9405 553.502 30.1103 554.071 30.1103C554.512 30.1103 554.87 30.0478 555.163 29.9133C555.457 29.7795 555.696 29.6103 555.87 29.3868C556.054 29.1728 556.182 28.9052 556.265 28.6015C556.347 28.2978 556.384 27.9677 556.384 27.6111V22.3H558.459V31.4486ZM561.993 28.5125C562.058 29.1008 562.286 29.5125 562.682 29.753C563.085 29.9853 563.563 30.1103 564.123 30.1103C564.316 30.1103 564.536 30.092 564.784 30.0655C565.031 30.0383 565.27 29.9758 565.481 29.8964C565.701 29.8155 565.875 29.6905 566.022 29.5302C566.16 29.3684 566.224 29.164 566.215 28.9052C566.214 28.7851 566.187 28.6665 566.137 28.5573C566.086 28.4481 566.013 28.3507 565.922 28.2714C565.738 28.1023 565.509 27.9773 565.224 27.8699C564.906 27.7609 564.581 27.6744 564.25 27.6111C563.883 27.5398 563.517 27.4589 563.141 27.3787C562.762 27.2976 562.388 27.1962 562.02 27.075C561.676 26.9657 561.35 26.8031 561.057 26.5934C560.771 26.3958 560.538 26.1324 560.377 25.8258C560.203 25.5133 560.12 25.1295 560.12 24.6655C560.12 24.1655 560.249 23.7552 560.497 23.4155C560.747 23.0786 561.07 22.8013 561.442 22.6037C561.843 22.3944 562.273 22.2468 562.718 22.1662C563.186 22.0861 563.636 22.0412 564.058 22.0412C564.545 22.0412 565.013 22.0949 565.454 22.1934C565.881 22.284 566.288 22.4501 566.656 22.6839C567.014 22.9074 567.307 23.2015 567.547 23.5589C567.785 23.9155 567.932 24.353 567.996 24.8618H565.83C565.729 24.3802 565.508 24.05 565.151 23.889C564.793 23.7199 564.38 23.639 563.921 23.639C563.774 23.639 563.599 23.6478 563.398 23.675C563.204 23.7006 563.013 23.7454 562.828 23.8089C562.659 23.8705 562.506 23.9678 562.378 24.0942C562.317 24.1601 562.269 24.2374 562.237 24.3217C562.206 24.406 562.191 24.4956 562.195 24.5853C562.195 24.8353 562.286 25.0317 562.461 25.1831C562.635 25.3346 562.865 25.4596 563.15 25.567C563.434 25.6655 563.756 25.7545 564.123 25.8258C564.49 25.8971 564.866 25.9773 565.252 26.0581C565.628 26.1383 565.995 26.2456 566.362 26.3611C566.729 26.4773 567.05 26.6383 567.336 26.8434C567.62 27.0486 567.85 27.2986 568.023 27.6023C568.198 27.9052 568.29 28.289 568.29 28.7353C568.29 29.2795 568.162 29.7353 567.904 30.1192C567.648 30.4942 567.317 30.8059 566.913 31.0383C566.49 31.2795 566.031 31.4541 565.554 31.5559C565.069 31.6617 564.573 31.7154 564.076 31.7162C563.519 31.7224 562.964 31.6564 562.425 31.5199C561.919 31.3861 561.479 31.1898 561.112 30.9317C560.749 30.6708 560.451 30.3319 560.24 29.9405C560.029 29.5478 559.918 29.0743 559.9 28.5302H561.993V28.5125ZM568.841 22.292H570.41V19.542H572.485V22.292H574.357V23.7993H572.486V28.6912C572.486 28.9045 572.495 29.0839 572.513 29.2442C572.531 29.3964 572.577 29.5302 572.642 29.6368C572.712 29.7488 572.819 29.8339 572.944 29.878C573.082 29.9317 573.256 29.9589 573.495 29.9589C573.642 29.9589 573.789 29.9589 573.936 29.9493C574.083 29.9405 574.229 29.9228 574.376 29.8868V31.4486C574.147 31.4758 573.917 31.4934 573.706 31.5199C573.484 31.5455 573.26 31.5575 573.036 31.5559C572.486 31.5559 572.045 31.5023 571.714 31.4045C571.384 31.3059 571.117 31.1545 570.934 30.9581C570.741 30.7618 570.622 30.5206 570.548 30.2258C570.477 29.8942 570.437 29.5567 570.43 29.2177V23.8162H568.86V22.2898H568.841L568.841 22.292ZM575.826 22.292H577.791V23.5317H577.828C578.12 22.9964 578.524 22.6214 579.047 22.3898C579.582 22.1545 580.161 22.0356 580.746 22.0412C581.489 22.0412 582.132 22.1662 582.683 22.425C583.233 22.675 583.693 23.0236 584.059 23.4692C584.426 23.9155 584.693 24.4331 584.877 25.0228C585.064 25.6363 585.157 26.274 585.152 26.9148C585.152 27.5302 585.07 28.128 584.904 28.7C584.752 29.2518 584.5 29.7718 584.161 30.2346C583.827 30.6808 583.393 31.0445 582.894 31.2971C582.38 31.5648 581.783 31.6986 581.086 31.6986C580.781 31.6982 580.477 31.6712 580.177 31.6177C579.877 31.5643 579.585 31.4777 579.305 31.3596C579.027 31.2448 578.767 31.0913 578.533 30.9037C578.302 30.7214 578.101 30.5048 577.937 30.2618H577.9V34.8317H575.826V22.2905V22.292ZM583.077 26.8787C583.078 26.4717 583.022 26.0665 582.913 25.6743C582.811 25.3027 582.643 24.9521 582.416 24.639C582.201 24.3412 581.923 24.0941 581.6 23.9155C581.253 23.7301 580.865 23.635 580.471 23.639C579.599 23.639 578.937 23.9331 578.497 24.5228C578.056 25.1118 577.836 25.8978 577.836 26.8787C577.836 27.3427 577.892 27.7714 578.01 28.164C578.129 28.5567 578.295 28.8964 578.533 29.1817C578.764 29.4677 579.039 29.6905 579.36 29.8508C579.681 30.0206 580.058 30.1008 580.48 30.1008C580.957 30.1008 581.352 30.003 581.682 29.8155C582.002 29.6332 582.278 29.3834 582.49 29.0839C582.701 28.7802 582.858 28.4405 582.949 28.0574C583.033 27.6701 583.076 27.275 583.077 26.8787ZM586.74 18.8015H588.815V20.7118H586.74V18.8015ZM586.74 22.2912H588.815V31.4486H586.74V22.2912ZM590.669 18.8015H592.743V31.4486H590.669V18.8015ZM599.105 31.6986C598.351 31.6986 597.681 31.5736 597.094 31.3331C596.532 31.1047 596.023 30.7644 595.598 30.3331C595.186 29.8932 594.87 29.3735 594.67 28.8067C594.452 28.181 594.344 27.523 594.35 26.8611C594.35 26.1648 594.459 25.5228 594.67 24.9331C594.87 24.3666 595.186 23.8471 595.598 23.4074C596.002 22.9787 596.507 22.6486 597.094 22.4074C597.681 22.1662 598.351 22.0412 599.105 22.0412C599.857 22.0412 600.527 22.1662 601.115 22.4074C601.702 22.6486 602.198 22.9883 602.611 23.4074C603.023 23.847 603.339 24.3665 603.538 24.9331C603.749 25.5221 603.859 26.1648 603.859 26.8611C603.859 27.567 603.749 28.2177 603.538 28.8067C603.339 29.3736 603.023 29.8934 602.611 30.3331C602.207 30.7618 601.702 31.092 601.115 31.3331C600.527 31.5736 599.857 31.6986 599.105 31.6986ZM599.105 30.1008C599.564 30.1008 599.967 30.003 600.307 29.8155C600.637 29.6332 600.923 29.3799 601.142 29.0743C601.362 28.7714 601.518 28.4228 601.629 28.039C601.73 27.6552 601.785 27.2625 601.785 26.8611C601.785 26.4684 601.73 26.0846 601.629 25.692C601.534 25.3195 601.369 24.9682 601.142 24.6567C600.923 24.3539 600.637 24.1039 600.307 23.925C599.967 23.7375 599.564 23.639 599.105 23.639C598.646 23.639 598.241 23.7375 597.902 23.925C597.574 24.1067 597.289 24.3562 597.067 24.6567C596.843 24.9701 596.678 25.3207 596.58 25.692C596.479 26.0736 596.426 26.4664 596.424 26.8611C596.424 27.2625 596.479 27.6552 596.58 28.039C596.681 28.4228 596.846 28.7714 597.067 29.0743C597.287 29.378 597.562 29.628 597.902 29.8155C598.241 30.0118 598.646 30.1008 599.105 30.1008ZM604.465 22.292H606.035V19.542H608.109V22.292H609.981V23.7993H608.109V28.6912C608.109 28.9045 608.118 29.0839 608.136 29.2442C608.155 29.3964 608.201 29.5302 608.265 29.6368C608.336 29.749 608.442 29.834 608.568 29.878C608.706 29.9317 608.88 29.9589 609.119 29.9589C609.265 29.9589 609.412 29.9589 609.56 29.9493C609.707 29.9405 609.853 29.9228 610 29.8868V31.4486C609.771 31.4758 609.541 31.4934 609.33 31.5199C609.108 31.5455 608.884 31.5575 608.66 31.5559C608.109 31.5559 607.668 31.5023 607.338 31.4045C607.008 31.3059 606.741 31.1545 606.558 30.9581C606.365 30.7618 606.246 30.5206 606.172 30.2258C606.101 29.8942 606.061 29.5567 606.053 29.2177V23.8162H604.484V22.2898H604.465V22.292Z" fill="white"/>
<path d="M530.903 18.8007H521.393L518.456 10L515.509 18.8015L506 18.7919L513.701 24.236L510.755 33.0272L518.456 27.5919L526.149 33.0272L523.211 24.236L530.903 18.8007Z" fill="white"/>
<path d="M523.871 26.2268L523.21 24.2363L518.456 27.5922L523.871 26.2268Z" fill="#F0F0F0"/>
<defs>
<clipPath id="clip0_3505_2797">
<rect width="59.7701" height="17.1839" fill="white" transform="translate(0 13)"/>
</clipPath>
<clipPath id="clip1_3505_2797">
<rect width="132.241" height="31.3793" fill="white" transform="translate(90.127 6)"/>
</clipPath>
<clipPath id="clip2_3505_2797">
<rect width="85.9195" height="43.3333" fill="white" transform="translate(253)"/>
</clipPath>
<clipPath id="clip3_3505_2797">
<rect width="106.839" height="15.6897" fill="white" transform="translate(369 15)"/>
</clipPath>
</defs>
</svg>
