<svg width="41" height="46" viewBox="0 0 41 46" fill="none" xmlns="http://www.w3.org/2000/svg">
<path d="M23 31C27.4183 31 31 27.4183 31 23C31 18.5817 27.4183 15 23 15C18.5817 15 15 18.5817 15 23C15 27.4183 18.5817 31 23 31Z" fill="#E62415"/>
<path d="M32.007 32.5977C29.6712 34.6858 26.5762 35.8459 23.1893 35.8459C21.4686 35.8943 19.7562 35.5924 18.1575 34.9587C16.5587 34.3251 15.1074 33.3731 13.893 32.1615C12.6786 30.9498 11.7267 29.504 11.0959 27.9132C10.4652 26.3224 10.1689 24.6202 10.2254 22.9114C10.2254 15.4291 15.5394 10.2089 23.1893 10.2089C26.5178 10.2089 29.6712 11.311 32.0654 13.399L33.7005 14.7911L40.9416 7.59883L39.1313 5.97476C34.7463 2.08996 29.065 -0.0390528 23.1893 0.000542524C9.75825 0.000542524 0.00615316 9.6289 0.00615316 22.8534C-0.0652084 25.9021 0.484777 28.9337 1.62308 31.7659C2.76139 34.5981 4.4645 37.1725 6.63004 39.3343C8.79557 41.496 11.3788 43.2006 14.2245 44.3454C17.0702 45.4903 20.1195 46.0518 23.1893 45.9962C29.3208 45.9962 35.0436 43.8502 39.2481 39.964L41 38.34L33.6421 31.1477L32.007 32.5977Z" fill="#17313B"/>
</svg>
