<svg width="339" height="84" viewBox="0 0 339 84" fill="none" xmlns="http://www.w3.org/2000/svg">
<g clip-path="url(#clip0_6003_16592)">
<path d="M44.0805 26.2394C45.1627 26.2394 46.04 25.3496 46.04 24.252C46.04 23.1544 45.1627 22.2646 44.0805 22.2646C42.9984 22.2646 42.1211 23.1544 42.1211 24.252C42.1211 25.3496 42.9984 26.2394 44.0805 26.2394Z" fill="#EBEBEB"/>
<path d="M15.5576 13H18.1505V29.9598H15.5576V13ZM27.5941 24.7299C27.5941 27.3598 25.4726 27.569 24.8244 27.569C23.2038 27.569 22.9681 26.0299 22.9681 25.1034V18.5437H20.3604V25.0885C20.3457 26.7172 20.8024 28.0621 21.6864 28.9586C22.4892 29.6844 23.5119 30.1111 24.5859 30.1681C25.6599 30.2252 26.721 29.9092 27.5941 29.2724V29.9598H30.2018V18.5437H27.5941V24.7299ZM35.8297 14.7034H33.222V18.5437H31.4099V21.0391H33.222V29.9598H35.8297V21.0391H37.9659V18.5437H35.8297V14.7034ZM46.4077 26.7172C45.8184 27.2552 45.0375 27.554 44.183 27.554C43.7489 27.5665 43.3169 27.4887 42.9136 27.3255C42.5102 27.1622 42.1441 26.917 41.8377 26.6048C41.5313 26.2927 41.2912 25.9202 41.132 25.5104C40.9729 25.1006 40.8982 24.6621 40.9124 24.2218C40.9124 22.2943 42.2531 20.9494 44.183 20.9494C45.0228 20.9494 45.8184 21.2333 46.4224 21.7713L46.8349 22.1299L48.6617 20.277L48.205 19.8586C47.0987 18.8578 45.6654 18.3093 44.183 18.3195C40.7945 18.3195 38.3342 20.8 38.3342 24.2069C38.3162 24.9923 38.4549 25.7733 38.7421 26.5029C39.0293 27.2326 39.459 27.8958 40.0053 28.4527C40.5517 29.0096 41.2034 29.4487 41.9213 29.7437C42.6393 30.0386 43.4086 30.1833 44.183 30.169C45.73 30.169 47.1737 29.6161 48.2345 28.6149L48.6765 28.1966L46.8202 26.3437L46.4077 26.7172ZM58.4442 19.5448C57.6414 18.819 56.6186 18.3924 55.5446 18.3353C54.4707 18.2783 53.4096 18.5942 52.5364 19.231V13H49.9287V29.9598H52.5364V23.7885C52.5364 21.1586 54.6579 20.9494 55.3061 20.9494C56.9267 20.9494 57.1624 22.4885 57.1624 23.4149V29.9747H59.7701V23.4149C59.8488 21.998 59.3722 20.607 58.4442 19.5448ZM11.7124 25.8954C11.2051 26.424 10.5978 26.8433 9.92702 27.1283C9.25619 27.4133 8.53556 27.5581 7.80827 27.554C4.78809 27.554 2.59294 25.1483 2.59294 21.846C2.59294 18.5287 4.78809 16.123 7.80827 16.123C9.2668 16.123 10.6517 16.7057 11.6977 17.7667L12.1102 18.1851L13.9223 16.3471L13.5245 15.9287C12.777 15.1576 11.8848 14.5461 10.9005 14.1304C9.91618 13.7146 8.85976 13.503 7.79354 13.508C3.35903 13.508 0 17.0943 0 21.8609C0 26.5977 3.35903 30.1839 7.79354 30.1839C9.9887 30.1839 12.0218 29.3172 13.5245 27.7483L13.9223 27.3299L12.1249 25.4621L11.7124 25.8954Z" fill="white"/>
</g>
<g clip-path="url(#clip1_6003_16592)">
<path d="M113.333 18.9043H117.779C121.358 18.9043 123.852 21.4624 123.852 24.7595V24.8163C123.852 28.1134 121.412 30.6715 117.779 30.6715H113.333V18.9043ZM117.779 28.284C119.839 28.284 121.195 26.8628 121.195 24.8163V24.7595C121.195 22.713 119.839 21.235 117.779 21.235H115.881V28.284H117.779Z" fill="white"/>
<path d="M126.021 18.9043H134.641V21.1782H128.569V23.5657H133.937V25.8396H128.569V28.284H134.75V30.5578H126.075L126.021 18.9043Z" fill="white"/>
<path d="M136.16 28.9089L137.678 27.0898C138.709 27.9425 139.793 28.511 141.094 28.511C142.124 28.511 142.721 28.0562 142.721 27.4309V27.3741C142.721 26.6919 142.287 26.3508 140.444 25.8961C138.166 25.2708 136.648 24.6454 136.648 22.3147V22.2579C136.648 20.1546 138.275 18.7334 140.66 18.7334C142.287 18.7334 143.751 19.245 144.89 20.2114L143.588 22.201C142.612 21.462 141.582 21.0641 140.606 21.0641C139.63 21.0641 139.142 21.5189 139.142 22.0873V22.0305C139.142 22.7695 139.63 23.0537 141.582 23.5654C143.914 24.1907 145.161 25.0434 145.161 27.033V27.0898C145.161 29.4206 143.426 30.728 140.986 30.728C139.251 30.728 137.516 30.1027 136.16 28.9089Z" fill="white"/>
<path d="M147.438 18.9043H149.932V30.6147H147.438V18.9043Z" fill="white"/>
<path d="M152.318 24.7593C152.318 21.4054 154.812 18.6768 158.282 18.6768C160.342 18.6768 161.535 19.2452 162.728 20.3253L161.155 22.3149C160.288 21.5759 159.529 21.1212 158.173 21.1212C156.33 21.1212 154.92 22.7697 154.92 24.7593V24.8162C154.92 26.9764 156.33 28.5681 158.39 28.5681C159.312 28.5681 160.125 28.3407 160.776 27.8291V26.1805H158.227V23.9635H163.161V29.0228C161.969 30.0461 160.396 30.8988 158.282 30.8988C154.703 30.7282 152.318 28.227 152.318 24.7593Z" fill="white"/>
<path d="M165.547 18.9043H167.878L173.192 26.067V18.9043H175.632V30.6147H173.517L167.987 23.1678V30.6147H165.547V18.9043Z" fill="white"/>
<path d="M178.396 18.9038H183.601C185.065 18.9038 186.15 19.3586 186.909 20.0976C187.559 20.7797 187.885 21.6893 187.885 22.7694V22.8262C187.885 24.7022 186.909 25.8959 185.445 26.4644L188.21 30.6142H185.282L182.842 26.8623H182.788H180.836V30.6142H178.288V18.9038H178.396ZM183.439 24.5316C184.686 24.5316 185.336 23.8495 185.336 22.8831V22.8262C185.336 21.7461 184.632 21.1777 183.384 21.1777H180.89V24.5316H183.439Z" fill="white"/>
<path d="M189.999 25.5553V18.8474H192.493V25.4416C192.493 27.3744 193.415 28.2839 194.933 28.2839C196.451 28.2839 197.373 27.3175 197.373 25.4416V18.7905H199.867V25.3847C199.867 28.9092 197.915 30.6715 194.879 30.6715C191.842 30.6715 189.999 28.9661 189.999 25.5553Z" fill="white"/>
<path d="M201.657 28.9089L203.175 27.0898C204.205 27.9425 205.29 28.511 206.591 28.511C207.621 28.511 208.218 28.0562 208.218 27.4309V27.3741C208.218 26.6919 207.784 26.3508 205.94 25.8961C203.663 25.2708 202.145 24.6454 202.145 22.3147V22.2579C202.145 20.1546 203.772 18.7334 206.157 18.7334C207.784 18.7334 209.248 19.245 210.386 20.2114L209.085 22.201C208.109 21.462 207.079 21.0641 206.103 21.0641C205.127 21.0641 204.639 21.5189 204.639 22.0873V22.0305C204.639 22.7695 205.127 23.0537 207.079 23.5654C209.41 24.1907 210.657 25.0434 210.657 27.033V27.0898C210.657 29.4206 208.922 30.728 206.483 30.728C204.802 30.728 203.012 30.1027 201.657 28.9089Z" fill="white"/>
<path d="M212.826 18.9043H215.32V23.5657H219.929V18.9043H222.423V30.6147H219.929V25.9533H215.32V30.6147H212.826V18.9043Z" fill="white"/>
<path d="M99.019 25.4985C98.9647 25.4417 98.9647 25.4985 99.019 25.4985L98.7479 25.328L98.6936 25.2711L92.2957 20.496C92.2957 20.496 92.2415 20.496 92.2415 20.4392L92.1331 20.3255L92.0789 20.2686H91.9704L90.127 18.9043L93.7597 19.4728C93.9223 19.4728 93.9765 19.5296 94.1392 19.5865C94.1934 19.5865 94.3019 19.6433 94.3019 19.6433C94.4645 19.7001 94.5187 19.757 94.6272 19.8138C94.7356 19.8707 94.7898 19.9275 94.8983 19.9844C94.9525 20.0412 95.0609 20.0981 95.0609 20.1549C95.1151 20.2118 95.1694 20.2118 95.2236 20.2686C95.332 20.3255 95.3862 20.3823 95.3862 20.4392C95.5489 20.6097 95.6573 20.7802 95.82 20.8939L98.6936 25.1574L98.7479 25.2143L99.019 25.4985Z" fill="white"/>
<path d="M99.0184 32.0927L98.7473 31.6379L98.6931 31.5811L90.1807 18.9043L92.0241 20.2686L92.3494 20.496L98.7473 25.2711H98.8016L99.0184 25.4417C99.0184 25.4417 99.0727 25.4417 99.0727 25.4985L99.3438 25.2711L107.965 18.9043L99.2895 31.6379L99.2353 31.6948L99.0184 32.0927Z" fill="white"/>
<path d="M99.019 23.3379L98.7479 22.8831L98.6937 22.8263L96.5791 19.7566L98.6937 20.2113H98.7479L99.019 20.2682L99.2901 20.2113L101.35 19.6997L99.2901 22.8831V22.94L99.019 23.3379Z" fill="white"/>
<path d="M108.019 18.8472L105.308 19.2451L104.278 19.4156C103.465 19.5293 102.705 19.9841 102.218 20.7231L99.3439 25.0434L99.2897 25.1003L99.0186 25.4982L99.3439 25.1571L99.3981 25.1003L99.0186 25.4982L106.338 20.0409L108.019 18.8472Z" fill="white"/>
<path d="M100.374 9.86585C100.374 12.3671 96.2535 13.6746 96.2535 16.3464C96.1993 16.9717 96.3619 17.597 96.633 18.1654C96.633 18.1654 95.0607 16.5737 95.0607 14.8683C95.0607 13.163 96.5788 10.6049 96.5788 10.6049C96.5788 11.7418 97.0126 12.0829 97.4463 12.1397H97.5005C97.9885 12.1397 98.2596 11.7418 98.2596 11.1733C98.2596 10.6049 97.6632 10.0364 97.6632 8.89946C97.6632 7.81937 98.9645 6.05713 98.9645 6.05713C99.8862 7.19406 100.374 8.50153 100.374 9.86585Z" fill="white"/>
<path d="M99.2356 18.9614C97.9343 18.9614 96.9584 17.8813 96.9584 16.5738V16.517C96.9584 13.6178 100.808 13.3335 100.808 9.41113C100.916 9.58167 101.947 11.0597 101.947 12.6514C101.947 14.641 100.157 15.1526 100.157 16.119C100.157 16.517 100.32 16.8012 100.862 16.8012C100.916 16.8012 100.971 16.8012 101.025 16.7443C102.055 16.2896 102.76 15.2663 102.814 14.0726C102.814 14.1294 103.356 18.9614 99.2356 18.9614Z" fill="white"/>
<path d="M100.917 16.8002C100.971 16.8002 101.025 16.8002 101.079 16.7434C100.537 16.9139 98.531 17.4255 98.531 15.9475C98.531 14.1284 101.513 13.7305 101.513 12.1956C101.513 11.2292 101.296 10.2629 100.808 9.41016C100.917 9.5807 101.947 11.0587 101.947 12.6504C101.947 14.64 100.158 15.1517 100.158 16.1181C100.212 16.516 100.429 16.8002 100.917 16.8002Z" fill="white"/>
<path d="M99.2905 10.8886C99.2905 12.3098 97.5555 12.1961 97.447 12.1392H97.6097C98.0977 12.1392 98.3688 11.7413 98.3688 11.1728C98.3688 10.6044 97.7723 10.0359 97.7723 8.89897C97.7723 7.81888 99.0736 6.05664 99.0736 6.05664C98.6399 6.79565 98.423 7.5915 98.3688 8.38735C98.3688 9.69482 99.2905 9.80852 99.2905 10.8886Z" fill="white"/>
<path d="M98.2063 35.7303L97.0134 34.8776H98.4774L98.9653 33.3428L99.3991 34.8776H100.863L99.6702 35.7303L100.104 37.2083L98.9111 36.2988L97.6641 37.2083L98.2063 35.7303Z" fill="white"/>
<path d="M104.442 35.7303L103.249 34.8776H104.713L105.201 33.3428L105.634 34.8776H107.098L105.906 35.7303L106.339 37.2083L105.146 36.2988L103.899 37.2083L104.442 35.7303Z" fill="white"/>
<path d="M92.0246 35.7303L90.8318 34.8776H92.2957L92.7837 33.3428L93.2174 34.8776H94.6814L93.4885 35.7303L93.9223 37.2083L92.7295 36.2988L91.5366 37.2083L92.0246 35.7303Z" fill="white"/>
</g>
<g clip-path="url(#clip2_6003_16592)">
<path fill-rule="evenodd" clip-rule="evenodd" d="M301.992 20.761H300.942L298.1 27.2651H299.263L299.927 25.7063H302.98L303.635 27.2651H304.845L301.992 20.761ZM302.563 24.6991H300.341L301.438 22.1167L302.563 24.6991ZM336.874 21.8587H338.92V20.8076H333.683V21.8587H335.73V27.2651H336.874V21.8587ZM329.33 22.5036C329.33 22.3971 329.355 22.2921 329.402 22.1968C329.45 22.1015 329.519 22.0187 329.604 21.9548C329.828 21.7923 330.102 21.7128 330.378 21.7297C330.678 21.7307 330.975 21.7884 331.253 21.8999C331.564 22.0266 331.858 22.1926 332.128 22.3939L332.737 21.5349C332.417 21.2775 332.058 21.0736 331.673 20.9311C331.262 20.7869 330.829 20.7163 330.394 20.7226C330.095 20.7198 329.796 20.7652 329.511 20.857C329.256 20.9376 329.02 21.0682 328.817 21.2412C328.626 21.4061 328.472 21.6089 328.364 21.8368C328.253 22.0782 328.196 22.3418 328.2 22.6079C328.192 22.8704 328.241 23.1315 328.342 23.3736C328.436 23.5871 328.579 23.7752 328.759 23.9225C328.963 24.0813 329.191 24.2056 329.434 24.2902C329.736 24.4006 330.043 24.4923 330.356 24.5646L331.091 24.776C331.248 24.8286 331.397 24.9015 331.535 24.9928C331.631 25.0552 331.708 25.1424 331.758 25.2452C331.799 25.3443 331.82 25.4508 331.818 25.5581C331.821 25.6763 331.795 25.7935 331.74 25.8986C331.686 26.0037 331.606 26.0933 331.508 26.1591C331.263 26.3165 330.976 26.3942 330.685 26.3814C330.308 26.3892 329.934 26.3152 329.588 26.1646C329.241 25.9979 328.92 25.7816 328.636 25.5224L327.953 26.3457C328.321 26.6841 328.75 26.9487 329.218 27.1251C329.675 27.2942 330.159 27.3798 330.647 27.3776C330.962 27.381 331.277 27.3376 331.579 27.2486C331.843 27.1718 332.09 27.0431 332.304 26.8699C332.504 26.7044 332.665 26.4963 332.775 26.2607C332.892 26.0021 332.95 25.721 332.945 25.4373C332.951 25.1954 332.905 24.9551 332.811 24.732C332.72 24.5299 332.586 24.35 332.419 24.2051C332.224 24.0411 332.004 23.9112 331.766 23.8209C331.472 23.7101 331.172 23.6185 330.866 23.5465L330.104 23.3352C329.937 23.2829 329.778 23.2081 329.632 23.1129C329.532 23.049 329.451 22.9601 329.396 22.8549C329.347 22.7445 329.325 22.6242 329.33 22.5036ZM326.976 20.8076H322.198V27.2651H327.023V26.2414H323.325V24.5152H326.562V23.4916H323.325V21.8313H326.976V20.8076ZM320.944 20.8076H316.149V27.2651H317.274V24.636H320.53V23.6124H317.274V21.8313H320.944V20.8076Z" fill="white"/>
<path d="M313.291 20.8076H314.416V27.2678H313.291V20.8076Z" fill="white"/>
<path fill-rule="evenodd" clip-rule="evenodd" d="M310.441 25.2727L306.99 20.8076H305.94V27.2651H307.064V22.671L310.617 27.2651H311.566V20.8076H310.441V25.2727ZM295.867 22.6326V27.2651H296.994V20.8076H295.785L293.82 23.8593L291.856 20.8076H290.647V27.2651H291.771V22.6518L293.793 25.6788H293.829L295.867 22.6326Z" fill="white"/>
<path fill-rule="evenodd" clip-rule="evenodd" d="M286.48 20.8077H281.701V27.2651H286.523V26.2415H282.826V24.5153H286.063V23.4917H282.826V21.8313H286.48V20.8077ZM278.914 24.5427V27.2651H280.042V20.8077H278.914V23.4917H275.817V20.8077H274.692V27.2651H275.817V24.5427H278.914ZM271.445 21.8588H273.491V20.8077H268.254V21.8588H270.301V27.2651H271.445V21.8588ZM295.877 29.0901V42.263H259.463V38.5966H291.579V29.0901H290.498V37.5181H259.463V5.82077H290.496V18.9937H291.576V5.82077H295.875V18.9937H296.956V4.7395H291.579V0H253V38.5966H258.379V43.3333H296.958V29.0901H295.877ZM258.379 37.5126H254.081V1.08402H290.496V4.7395H258.379V37.5126Z" fill="white"/>
</g>
<g clip-path="url(#clip3_6003_16592)">
<path d="M54.5035 69.5285C54.5035 69.5285 53.5961 69.4536 53.5961 70.201V73.6377H59.4188V74.6839C59.4188 74.6839 59.4188 75.2067 58.8896 75.2067H53.5961V79.6897H59.9487C59.9487 79.6897 63.8057 79.092 63.8057 75.2067V69.5285H54.5035ZM63.7306 64H52.2346C48.0758 64.9713 48 68.3332 48 68.3332V79.6897H52.3862V69.3794C52.3862 68.483 53.2936 68.3332 53.2936 68.3332H63.7299L63.7306 64ZM78.8556 76.4027C78.5531 76.6266 78.3264 76.7764 78.1748 76.8513C77.6457 77.225 77.0407 77.4489 76.5867 77.6728C75.8301 77.9716 75.2259 78.1214 74.6203 78.1214C72.6538 78.1214 70.9899 77.5238 69.6291 76.3285C68.2684 75.1332 67.6627 73.5643 67.6627 71.7714C67.6627 69.9785 68.2677 68.4837 69.4775 67.1394C70.6874 65.8692 72.1247 65.1967 73.8637 65.1967C74.5445 65.1967 75.301 65.3465 76.1326 65.5704C77.1916 65.8692 78.0232 66.392 78.6282 66.9903L77.4941 68.2605C77.04 67.8119 76.36 67.4389 75.6035 67.2142C75.0101 67.0664 74.4006 66.9912 73.7886 66.9903C72.5788 66.9903 71.5956 67.4389 70.7639 68.4095C69.9323 69.3801 69.5533 70.4998 69.5533 71.8448C69.5533 73.1899 70.0074 74.2354 70.9148 75.1318C71.8222 76.0283 73.0328 76.402 74.3936 76.402C75.0368 76.4039 75.667 76.2224 76.2084 75.8792C76.7383 75.5055 76.9649 75.2816 76.9649 75.2816V72.5173H73.1079L73.7128 70.8735H78.8548V76.402L78.8556 76.4027ZM90.4267 73.115C90.4411 73.7549 90.3208 74.3909 90.0734 74.9825C89.8259 75.5741 89.4568 76.1084 88.9894 76.5517C88.0069 77.5231 86.8721 77.9709 85.5106 77.9709C84.2249 77.9709 83.0909 77.5223 82.1077 76.5517C81.6402 76.1084 81.2711 75.5741 81.0237 74.9825C80.7763 74.3909 80.656 73.7549 80.6704 73.115C80.6704 71.7699 81.1237 70.6496 82.0319 69.6782C82.94 68.7069 84.0733 68.1841 85.4348 68.1841C86.8721 68.1841 88.082 68.6327 89.0645 69.6033C89.9726 70.4998 90.4267 71.6951 90.4267 73.115ZM88.6118 73.115C88.6118 72.2185 88.3094 71.4711 87.7044 70.8735C87.0995 70.2759 86.343 69.977 85.4356 69.977C84.6039 69.977 83.8474 70.2759 83.3175 70.9484C82.7126 71.6209 82.4101 72.2934 82.4101 73.115C82.4101 74.0114 82.7126 74.6839 83.3175 75.3565C83.9225 75.9541 84.679 76.2529 85.5106 76.2529C86.3422 76.2529 87.023 75.9541 87.6286 75.3565C88.3087 74.6839 88.6876 74.0114 88.6118 73.115ZM101.923 73.115C101.937 73.7549 101.817 74.3909 101.569 74.9825C101.322 75.5741 100.953 76.1084 100.485 76.5517C99.5022 77.5231 98.3674 77.9709 97.0067 77.9709C95.721 77.9709 94.5862 77.5223 93.6037 76.5517C93.1362 76.1084 92.7671 75.5741 92.5197 74.9825C92.2723 74.3909 92.152 73.7549 92.1664 73.115C92.1446 71.8371 92.6335 70.6023 93.5272 69.6782C94.4353 68.7069 95.5694 68.1841 96.9301 68.1841C98.3674 68.1841 99.5773 68.6327 100.56 69.6033C101.392 70.4998 101.923 71.6951 101.923 73.115ZM100.108 73.115C100.108 72.2185 99.8054 71.4711 99.1997 70.8735C98.5941 70.2759 97.839 69.977 96.9309 69.977C96.0992 69.977 95.3427 70.2759 94.8136 70.9484C94.2086 71.6209 93.9054 72.2934 93.9054 73.115C93.9054 74.0114 94.2079 74.6839 94.8136 75.3565C95.4185 75.9541 96.1743 76.2529 97.0067 76.2529C97.839 76.2529 98.519 75.9541 99.1239 75.3565C99.8047 74.6839 100.108 74.0114 100.108 73.115ZM112.511 77.747L110.847 77.9709V76.402L110.468 76.7757C110.167 77.0745 109.788 77.2984 109.41 77.5231C108.835 77.7612 108.219 77.8881 107.595 77.8968C106.31 77.8968 105.175 77.4482 104.343 76.4776C103.436 75.5062 102.982 74.3858 102.982 73.1157C102.982 71.7707 103.436 70.5754 104.343 69.6789C105.251 68.7825 106.31 68.2597 107.595 68.2597C108.245 68.253 108.889 68.3803 109.486 68.6334C109.864 68.7832 110.167 69.0071 110.468 69.306C110.544 69.4557 110.62 69.5299 110.771 69.6797V65.4941L112.511 65.2701V77.747ZM110.922 73.264C110.922 72.3676 110.62 71.546 109.939 70.8735C109.258 70.201 108.578 69.9022 107.746 69.9022C106.839 69.9022 106.083 70.201 105.553 70.7986C105.023 71.3962 104.721 72.1436 104.721 72.9652C104.721 73.9365 105.024 74.6832 105.553 75.2816C106.082 75.8799 106.839 76.178 107.671 76.178C108.503 76.178 109.259 75.8792 109.94 75.3565C110.621 74.7588 110.923 74.0863 110.923 73.2647L110.922 73.264ZM121.813 67.2121H116.897V70.4991H120.755V72.2178H116.897V77.6721L115.007 77.9709V65.4941H121.51L121.813 67.2121ZM125.745 66.2408L124.535 67.7349L123.401 66.2408L124.611 64.7467L125.745 66.2408ZM125.367 77.7463L123.628 77.9702V68.7069L125.367 68.4081V77.7463ZM133.383 68.3325L132.551 70.2003H132.249C132.098 70.2003 131.871 70.2003 131.719 70.2751C131.568 70.2751 131.341 70.35 131.19 70.4249C130.812 70.5747 130.509 70.9477 130.207 71.4711C129.904 72.0688 129.754 72.7413 129.754 73.3389V77.6721L128.014 77.9709V68.7069L129.678 68.4081V70.3507C129.904 70.0519 130.131 69.6782 130.358 69.3045C130.66 68.9308 131.039 68.7069 131.417 68.5571C131.644 68.4822 132.022 68.4074 132.551 68.3332H133.383V68.3325ZM146.466 77.7463L144.727 77.9702V71.6195C144.727 71.0218 144.575 70.5733 144.349 70.3493C144.121 70.0505 143.668 69.9756 143.215 69.9756C142.61 69.9756 142.156 70.1996 141.777 70.723C141.55 71.0967 141.475 71.4704 141.475 71.8434V77.7456L139.736 78.0444V71.6936C139.736 71.1709 139.584 70.7223 139.358 70.4235C139.131 70.1247 138.753 69.9749 138.299 69.9749H138.147C137.542 69.9749 137.088 70.1988 136.786 70.7223C136.559 71.096 136.484 71.6188 136.484 72.2164V77.7449L134.669 78.0437V68.7069L136.332 68.4081V69.6033C136.484 69.3045 136.71 69.0806 136.862 68.9308C137.081 68.7162 137.34 68.5464 137.626 68.431C137.911 68.3156 138.217 68.2569 138.525 68.2583C139.206 68.2583 139.736 68.3332 140.114 68.5571C140.416 68.7069 140.719 69.0799 141.021 69.6775C141.626 68.7062 142.459 68.2583 143.593 68.2583C144.652 68.2583 145.483 68.5571 146.013 69.3045C146.466 69.8273 146.693 70.7237 146.693 71.7699V77.747L146.466 77.7463ZM154.558 74.9072C154.558 75.7287 154.256 76.4761 153.651 76.9989C153.046 77.5216 152.289 77.8204 151.382 77.8204C150.701 77.8204 150.096 77.6707 149.491 77.3719C148.961 77.073 148.508 76.6994 148.206 76.2515L149.416 75.1311C149.491 75.2809 149.567 75.355 149.643 75.4299C150.096 75.8785 150.626 76.1024 151.306 76.1024C151.76 76.1024 152.139 75.9527 152.365 75.7287C152.592 75.5048 152.743 75.206 152.743 74.7574C152.743 74.3088 152.441 73.9358 151.836 73.7861L149.87 73.1884C149.34 72.8896 148.886 72.5908 148.659 72.292C148.357 71.9183 148.206 71.3955 148.206 70.723C148.206 69.9015 148.508 69.2289 149.113 68.7055C149.718 68.182 150.399 67.8839 151.231 67.8839C151.836 67.8839 152.441 68.0337 152.971 68.3325C153.501 68.6313 153.878 68.9301 154.105 69.2289L153.122 70.574C152.962 70.4064 152.785 70.256 152.593 70.1254C152.139 69.8266 151.761 69.6768 151.383 69.6768C151.004 69.6768 150.702 69.7517 150.475 69.9007C150.33 70.0018 150.213 70.1365 150.134 70.2929C150.055 70.4492 150.016 70.6225 150.021 70.7972C150.021 71.1709 150.172 71.4697 150.399 71.6188C150.627 71.7678 151.156 71.9176 151.912 72.0673C152.668 72.2171 153.273 72.5901 153.727 73.0387C154.332 73.5614 154.558 74.1598 154.558 74.9072Z" fill="white"/>
</g>
<path d="M212.326 67.8015H222.855V69.7111H218.715V80.4478H216.438V69.7111H212.316V67.8008H212.325L212.326 67.8015ZM222.405 71.2905H224.351V73.0581H224.388C224.452 72.8081 224.571 72.567 224.746 72.3346C225.119 71.8366 225.624 71.4505 226.206 71.2192C226.501 71.1034 226.815 71.0428 227.133 71.0405C227.37 71.0405 227.546 71.0493 227.638 71.0589C227.729 71.0677 227.821 71.0853 227.922 71.0942V73.0398C227.773 73.0139 227.623 72.9931 227.472 72.9773C227.323 72.9598 227.172 72.9509 227.022 72.9508C226.673 72.9508 226.343 73.0221 226.031 73.1567C225.719 73.2898 225.452 73.4949 225.224 73.7545C224.979 74.0447 224.792 74.3776 224.672 74.7361C224.535 75.1287 224.47 75.5743 224.47 76.0839V80.439H222.396V71.2905H222.405ZM237.459 80.4486H235.421V79.1721H235.384C235.127 79.6368 234.751 80.003 234.246 80.2795C233.741 80.5559 233.227 80.6986 232.704 80.6986C231.465 80.6986 230.565 80.4045 230.015 79.8059C229.464 79.2081 229.188 78.3067 229.188 77.1015V71.2912H231.263V76.9052C231.263 77.7089 231.419 78.2802 231.741 78.6103C232.053 78.9405 232.502 79.1103 233.071 79.1103C233.512 79.1103 233.87 79.0478 234.163 78.9133C234.457 78.7795 234.696 78.6103 234.87 78.3868C235.054 78.1728 235.182 77.9052 235.265 77.6015C235.347 77.2978 235.384 76.9677 235.384 76.6111V71.3H237.459V80.4486ZM240.993 77.5125C241.058 78.1008 241.286 78.5125 241.682 78.753C242.085 78.9853 242.563 79.1103 243.123 79.1103C243.316 79.1103 243.536 79.092 243.784 79.0655C244.031 79.0383 244.27 78.9758 244.481 78.8964C244.701 78.8155 244.875 78.6905 245.022 78.5302C245.16 78.3684 245.224 78.164 245.215 77.9052C245.214 77.7851 245.187 77.6665 245.137 77.5573C245.086 77.4481 245.013 77.3507 244.922 77.2714C244.738 77.1023 244.509 76.9773 244.224 76.8699C243.906 76.7609 243.581 76.6744 243.25 76.6111C242.883 76.5398 242.517 76.4589 242.141 76.3787C241.762 76.2976 241.388 76.1962 241.02 76.075C240.676 75.9657 240.35 75.8031 240.057 75.5934C239.771 75.3958 239.538 75.1324 239.377 74.8258C239.203 74.5133 239.12 74.1295 239.12 73.6655C239.12 73.1655 239.249 72.7552 239.497 72.4155C239.747 72.0786 240.07 71.8013 240.442 71.6037C240.843 71.3944 241.273 71.2468 241.718 71.1662C242.186 71.0861 242.636 71.0412 243.058 71.0412C243.545 71.0412 244.013 71.0949 244.454 71.1934C244.881 71.284 245.288 71.4501 245.656 71.6839C246.014 71.9074 246.307 72.2015 246.547 72.5589C246.785 72.9155 246.932 73.353 246.996 73.8618H244.83C244.729 73.3802 244.508 73.05 244.151 72.889C243.793 72.7199 243.38 72.639 242.921 72.639C242.774 72.639 242.599 72.6478 242.398 72.675C242.204 72.7006 242.013 72.7454 241.828 72.8089C241.659 72.8705 241.506 72.9678 241.378 73.0942C241.317 73.1601 241.269 73.2374 241.237 73.3217C241.206 73.406 241.191 73.4956 241.195 73.5853C241.195 73.8353 241.286 74.0317 241.461 74.1831C241.635 74.3346 241.865 74.4596 242.15 74.567C242.434 74.6655 242.756 74.7545 243.123 74.8258C243.49 74.8971 243.866 74.9773 244.252 75.0581C244.628 75.1383 244.995 75.2456 245.362 75.3611C245.729 75.4773 246.05 75.6383 246.336 75.8434C246.62 76.0486 246.85 76.2986 247.023 76.6023C247.198 76.9052 247.29 77.289 247.29 77.7353C247.29 78.2795 247.162 78.7353 246.904 79.1192C246.648 79.4942 246.317 79.8059 245.913 80.0383C245.49 80.2795 245.031 80.4541 244.554 80.5559C244.069 80.6617 243.573 80.7154 243.076 80.7162C242.519 80.7224 241.964 80.6564 241.425 80.5199C240.919 80.3861 240.479 80.1898 240.112 79.9317C239.749 79.6708 239.451 79.3319 239.24 78.9405C239.029 78.5478 238.918 78.0743 238.9 77.5302H240.993V77.5125ZM247.841 71.292H249.41V68.542H251.485V71.292H253.357V72.7993H251.486V77.6912C251.486 77.9045 251.495 78.0839 251.513 78.2442C251.531 78.3964 251.577 78.5302 251.642 78.6368C251.712 78.7488 251.819 78.8339 251.944 78.878C252.082 78.9317 252.256 78.9589 252.495 78.9589C252.642 78.9589 252.789 78.9589 252.936 78.9493C253.083 78.9405 253.229 78.9228 253.376 78.8868V80.4486C253.147 80.4758 252.917 80.4934 252.706 80.5199C252.484 80.5455 252.26 80.5575 252.036 80.5559C251.486 80.5559 251.045 80.5023 250.714 80.4045C250.384 80.3059 250.117 80.1545 249.934 79.9581C249.741 79.7618 249.622 79.5206 249.548 79.2258C249.477 78.8942 249.437 78.5567 249.43 78.2177V72.8162H247.86V71.2898H247.841L247.841 71.292ZM254.826 71.292H256.791V72.5317H256.828C257.12 71.9964 257.524 71.6214 258.047 71.3898C258.582 71.1545 259.161 71.0356 259.746 71.0412C260.489 71.0412 261.132 71.1662 261.683 71.425C262.233 71.675 262.693 72.0236 263.059 72.4692C263.426 72.9155 263.693 73.4331 263.877 74.0228C264.064 74.6363 264.157 75.274 264.152 75.9148C264.152 76.5302 264.07 77.128 263.904 77.7C263.752 78.2518 263.5 78.7718 263.161 79.2346C262.827 79.6808 262.393 80.0445 261.894 80.2971C261.38 80.5648 260.783 80.6986 260.086 80.6986C259.781 80.6982 259.477 80.6712 259.177 80.6177C258.877 80.5643 258.585 80.4777 258.305 80.3596C258.027 80.2448 257.767 80.0913 257.533 79.9037C257.302 79.7214 257.101 79.5048 256.937 79.2618H256.9V83.8317H254.826V71.2905V71.292ZM262.077 75.8787C262.078 75.4717 262.022 75.0665 261.913 74.6743C261.811 74.3027 261.643 73.9521 261.416 73.639C261.201 73.3412 260.923 73.0941 260.6 72.9155C260.253 72.7301 259.865 72.635 259.471 72.639C258.599 72.639 257.937 72.9331 257.497 73.5228C257.056 74.1118 256.836 74.8978 256.836 75.8787C256.836 76.3427 256.892 76.7714 257.01 77.164C257.129 77.5567 257.295 77.8964 257.533 78.1817C257.764 78.4677 258.039 78.6905 258.36 78.8508C258.681 79.0206 259.058 79.1008 259.48 79.1008C259.957 79.1008 260.352 79.003 260.682 78.8155C261.002 78.6332 261.278 78.3834 261.49 78.0839C261.701 77.7802 261.858 77.4405 261.949 77.0574C262.033 76.6701 262.076 76.275 262.077 75.8787ZM265.74 67.8015H267.815V69.7118H265.74V67.8015ZM265.74 71.2912H267.815V80.4486H265.74V71.2912ZM269.669 67.8015H271.743V80.4486H269.669V67.8015ZM278.105 80.6986C277.351 80.6986 276.681 80.5736 276.094 80.3331C275.532 80.1047 275.023 79.7644 274.598 79.3331C274.186 78.8932 273.87 78.3735 273.67 77.8067C273.452 77.181 273.344 76.523 273.35 75.8611C273.35 75.1648 273.459 74.5228 273.67 73.9331C273.87 73.3666 274.186 72.8471 274.598 72.4074C275.002 71.9787 275.507 71.6486 276.094 71.4074C276.681 71.1662 277.351 71.0412 278.105 71.0412C278.857 71.0412 279.527 71.1662 280.115 71.4074C280.702 71.6486 281.198 71.9883 281.611 72.4074C282.023 72.847 282.339 73.3665 282.538 73.9331C282.749 74.5221 282.859 75.1648 282.859 75.8611C282.859 76.567 282.749 77.2177 282.538 77.8067C282.339 78.3736 282.023 78.8934 281.611 79.3331C281.207 79.7618 280.702 80.092 280.115 80.3331C279.527 80.5736 278.857 80.6986 278.105 80.6986ZM278.105 79.1008C278.564 79.1008 278.967 79.003 279.307 78.8155C279.637 78.6332 279.923 78.3799 280.142 78.0743C280.362 77.7714 280.518 77.4228 280.629 77.039C280.73 76.6552 280.785 76.2625 280.785 75.8611C280.785 75.4684 280.73 75.0846 280.629 74.692C280.534 74.3195 280.369 73.9682 280.142 73.6567C279.923 73.3539 279.637 73.1039 279.307 72.925C278.967 72.7375 278.564 72.639 278.105 72.639C277.646 72.639 277.241 72.7375 276.902 72.925C276.574 73.1067 276.289 73.3562 276.067 73.6567C275.843 73.9701 275.678 74.3207 275.58 74.692C275.479 75.0736 275.426 75.4664 275.424 75.8611C275.424 76.2625 275.479 76.6552 275.58 77.039C275.681 77.4228 275.846 77.7714 276.067 78.0743C276.287 78.378 276.562 78.628 276.902 78.8155C277.241 79.0118 277.646 79.1008 278.105 79.1008ZM283.465 71.292H285.035V68.542H287.109V71.292H288.981V72.7993H287.109V77.6912C287.109 77.9045 287.118 78.0839 287.136 78.2442C287.155 78.3964 287.201 78.5302 287.265 78.6368C287.336 78.749 287.442 78.834 287.568 78.878C287.706 78.9317 287.88 78.9589 288.119 78.9589C288.265 78.9589 288.412 78.9589 288.56 78.9493C288.707 78.9405 288.853 78.9228 289 78.8868V80.4486C288.771 80.4758 288.541 80.4934 288.33 80.5199C288.108 80.5455 287.884 80.5575 287.66 80.5559C287.109 80.5559 286.668 80.5023 286.338 80.4045C286.008 80.3059 285.741 80.1545 285.558 79.9581C285.365 79.7618 285.246 79.5206 285.172 79.2258C285.101 78.8942 285.061 78.5567 285.053 78.2177V72.8162H283.484V71.2898H283.465V71.292Z" fill="white"/>
<path d="M209.903 67.8007H200.393L197.456 59L194.509 67.8015L185 67.7919L192.701 73.236L189.755 82.0272L197.456 76.5919L205.149 82.0272L202.211 73.236L209.903 67.8007Z" fill="white"/>
<path d="M202.871 75.2273L202.21 73.2368L197.456 76.5927L202.871 75.2273Z" fill="#F0F0F0"/>
<defs>
<clipPath id="clip0_6003_16592">
<rect width="59.7701" height="17.1839" fill="white" transform="translate(0 13)"/>
</clipPath>
<clipPath id="clip1_6003_16592">
<rect width="132.241" height="31.3793" fill="white" transform="translate(90.127 6)"/>
</clipPath>
<clipPath id="clip2_6003_16592">
<rect width="85.9195" height="43.3333" fill="white" transform="translate(253)"/>
</clipPath>
<clipPath id="clip3_6003_16592">
<rect width="106.839" height="15.6897" fill="white" transform="translate(48 64)"/>
</clipPath>
</defs>
</svg>
