<svg width="183" height="47" viewBox="0 0 183 47" fill="none" xmlns="http://www.w3.org/2000/svg">
<path d="M15.2152 8.52619C15.2152 5.26358 14.1744 3.53906 10.7458 3.53906C8.11313 3.53906 6.30613 5.20202 5.57144 7.23346H5.4796V3.6314L5.41837 3.60062L0 5.17037C0.67347 5.93985 1.2551 7.38648 1.2551 9.01866V15.0206C1.2551 16.9905 1.13266 19.0228 0.642859 20.5618H6.18456C5.72537 19.1152 5.66415 17.3291 5.66415 15.2053V7.78749C6.36823 7.14112 7.31721 6.80255 8.57231 6.80255C10.1948 6.80255 10.807 7.51047 10.807 9.01866V15.2053C10.807 17.3291 10.7458 19.1143 10.2866 20.5618H15.8274C15.3376 19.0228 15.2152 16.9914 15.2152 15.0206V8.52619Z" fill="white"/>
<path d="M29.4516 16.0988V8.74165C29.4516 5.2328 27.8598 3.53906 23.5732 3.53906C20.2671 3.53906 17.0825 5.13959 17.0825 7.47881C17.0825 8.64843 17.9397 9.2948 18.8886 9.2948C19.9601 9.2948 20.6029 8.70999 20.9397 7.10946C21.1846 6.03219 21.5825 5.53972 22.6846 5.53972C24.4295 5.53972 25.0111 6.49388 25.0111 8.3723V8.71087C25.0111 10.4046 23.7254 11.0809 21.3674 12.035C18.8878 13.02 16.5 14.1597 16.5 16.8067C16.5 19.3306 18.2143 20.9311 20.8776 20.9311C23.051 20.9311 24.4295 20.0078 25.1335 17.884H25.1948C25.256 19.4537 26.3274 20.9311 28.4397 20.9311C30.2458 20.9311 31.1344 20.0385 31.6242 18.6535C31.7467 18.3448 31.8079 18.0687 31.8997 17.5753C31.7161 17.7292 31.1957 17.8215 31.012 17.8215C29.9712 17.8215 29.4507 17.4214 29.4507 16.0979L29.4516 16.0988ZM25.012 17.3599C24.6752 18.0062 24.2467 18.4688 22.9916 18.4688C21.7058 18.4688 20.9099 17.5445 20.9099 16.0988C20.9099 14.3136 21.4609 13.4817 23.023 12.7122C24.2475 12.1274 24.6761 11.8187 25.0128 11.3271L25.012 17.3599Z" fill="white"/>
<path d="M37.5008 20.9317C39.4906 20.9317 40.8996 20.0707 41.4813 18.7464C41.6956 18.2539 41.7568 17.9153 41.8486 17.3305C41.3282 17.6075 40.6854 17.7922 39.4915 17.7922C37.9303 17.7922 37.1956 17.1142 37.1956 15.3598V6.24908H40.9915L41.4201 3.90985H37.1956V0.0307792L37.1037 0L31.1641 6.12596V6.24996H32.7865V16.0694C32.7865 19.2089 34.1028 20.9317 37.5008 20.9317Z" fill="white"/>
<path d="M42.7939 15.4523C42.7939 18.7149 44.1103 20.9002 47.7225 20.9002C50.5694 20.9002 51.9479 19.3612 52.652 17.2375H52.7132V20.5616H57.6732C57.2753 19.3305 56.9998 18.1609 56.9998 15.5745V3.78516L51.8866 4.30928C52.4071 5.78669 52.5907 7.23332 52.5907 8.92618V16.7142C51.9785 17.5136 50.9377 17.9762 49.5295 17.9762C47.8764 17.9762 47.203 17.022 47.203 15.2984V3.78516L42.0898 4.30928C42.6409 5.78669 42.7939 7.23332 42.7939 8.92618V15.4523Z" fill="white"/>
<path d="M59.7542 15.0197C59.7542 16.9896 59.6318 19.0219 59.142 20.5609H64.6837C64.2857 19.0219 64.1327 16.9905 64.1327 14.9283V10.8039C64.1327 8.24918 65.1123 6.77089 66 6.77089C66.3674 6.77089 66.6123 7.14024 67.0102 7.47881C67.3469 7.81826 67.8061 8.15684 68.5714 8.15684C69.9184 8.15684 70.6225 7.14112 70.6225 5.84839C70.6225 4.43254 69.7653 3.53906 68.051 3.53906C66.1837 3.53906 64.7755 4.73946 64.0408 7.81827H63.9796V3.6314L63.9184 3.60062L58.5 5.17037C59.1735 5.93985 59.7551 7.38648 59.7551 9.01866V15.0206L59.7542 15.0197Z" fill="white"/>
<path d="M84.2742 16.0974L84.1823 15.8204C83.417 16.5899 82.2231 17.6681 79.5896 17.6681C76.6814 17.6681 74.5386 16.0367 74.5386 11.8807V11.3882H84.2742C84.2742 6.24717 82.2844 3.50781 77.9978 3.50781C73.4969 3.50781 70.1602 7.17055 70.1602 12.68C70.1602 18.0981 73.6806 20.9298 77.9059 20.9298C81.5794 20.9298 83.5701 18.5906 84.2742 16.0974ZM77.8447 5.53837C79.6823 5.53837 80.0794 7.10811 80.1406 9.75601L74.5989 10.2485C74.8744 7.04743 75.9765 5.53925 77.8438 5.53925L77.8447 5.53837Z" fill="white"/>
<path d="M8.84839 45.5887C5.48103 45.5887 2.87812 43.0947 2.87812 38.8471V38.6009C2.87812 34.3533 5.51077 31.7679 8.84839 31.7679C11.3595 31.7679 13.5329 33.0307 13.9309 35.7393H15.5227C15.0942 32.1065 12.0942 30.3828 8.84839 30.3828C4.62389 30.3828 1.19531 33.6762 1.19531 38.6018V38.848C1.19531 43.7419 4.53205 46.9746 8.84839 46.9746C12.4921 46.9746 15.2472 44.6046 15.6758 41.1564H14.1758C13.7778 44.0506 11.5125 45.5887 8.84839 45.5887Z" fill="white"/>
<path d="M29.2668 40.4128C29.2668 43.7994 26.6342 45.5538 24.0321 45.5538C21.2455 45.5538 19.6537 44.138 19.6537 40.7206V30.625H18.0312V40.8138C18.0312 45.246 20.3578 46.9706 23.6639 46.9706C26.4811 46.9706 28.5321 45.4008 29.2668 43.6464V46.7243H30.8893V30.6259H29.2668V40.4146V40.4128Z" fill="white"/>
<path d="M39.7348 37.7369C36.4584 37.1521 35.3572 36.475 35.3572 34.6273C35.3572 32.9037 36.8572 31.7649 39.0919 31.7649C41.4193 31.7649 42.7357 32.6882 43.1336 34.7504H44.6948C44.2663 31.5802 42.001 30.3789 39.1225 30.3789C36.4287 30.3789 33.8563 31.9487 33.8563 34.688C33.8563 37.4581 35.4482 38.4747 39.3674 39.1818C42.3674 39.7358 43.5613 40.3822 43.5613 42.4453C43.5613 44.3844 42.1838 45.6155 39.489 45.6155C36.5196 45.6155 35.1718 44.1065 34.8972 41.9211H33.3359C33.5502 45 35.7237 47.0006 39.4899 47.0006C43.1336 47.0006 45.1234 45.0307 45.1234 42.3213C45.1234 39.1818 43.1642 38.3507 39.7348 37.7352V37.7369Z" fill="white"/>
<path d="M49.9288 42.7208V32.0096H54.1227V30.6246H49.9288V26.9609H48.3064V30.6246H45.9492V32.0096H48.3064V42.8448C48.3064 45.4303 49.6839 46.9385 52.2247 46.9385C53.2043 46.9385 53.8166 46.7846 54.3379 46.5999V45.2148C53.7868 45.3995 53.144 45.5534 52.3166 45.5534C50.8472 45.5534 49.9288 44.6599 49.9288 42.7208Z" fill="white"/>
<path d="M63.3669 30.3789C59.0803 30.3789 55.6211 33.7338 55.6211 38.5662V38.8124C55.6211 43.5533 58.9884 46.9698 63.3363 46.9698C67.6535 46.9698 71.0821 43.6457 71.0821 38.7817V38.5363C71.0821 33.6415 67.6832 30.3789 63.3669 30.3789ZM69.3975 38.8133C69.3975 42.9685 66.7946 45.5856 63.366 45.5856C59.8753 45.5856 57.3039 42.9377 57.3039 38.8133V38.5671C57.3039 34.3811 59.9365 31.7649 63.366 31.7649C66.764 31.7649 69.3975 34.3195 69.3975 38.5671V38.8133Z" fill="white"/>
<path d="M91.1343 30.3789C88.716 30.3789 86.4507 31.7024 85.4396 33.981C84.7661 31.3955 82.9294 30.3789 80.5407 30.3789C77.9387 30.3789 76.0399 31.9179 75.306 33.6723V30.6251H73.6836V46.7236H75.306V36.9041C75.306 33.5492 77.8162 31.7948 80.2652 31.7948C82.8367 31.7948 84.2754 33.149 84.2754 36.5664V46.7245H85.8979V36.905C85.8979 33.5501 88.4081 31.7956 90.8571 31.7956C93.4285 31.7956 94.8673 33.1499 94.8673 36.5673V46.7254H96.4897V36.6596C96.4897 32.0726 94.2244 30.3798 91.1317 30.3798L91.1343 30.3789Z" fill="white"/>
<path d="M123.919 30.3789C121.501 30.3789 119.236 31.7024 118.225 33.981C117.551 31.3955 115.715 30.3789 113.326 30.3789C110.724 30.3789 108.825 31.9179 108.091 33.6723V30.6251H106.469V46.7236H108.091V36.9041C108.091 33.5492 110.601 31.7948 113.05 31.7948C115.622 31.7948 117.061 33.149 117.061 36.5664V46.7245H118.683V36.905C118.683 33.5501 121.193 31.7956 123.642 31.7956C126.214 31.7956 127.652 33.1499 127.652 36.5673V46.7254H129.275V36.6596C129.275 32.0726 127.01 30.3798 123.917 30.3798L123.919 30.3789Z" fill="white"/>
<path d="M139.07 30.3798C134.784 30.3798 131.723 33.7347 131.723 38.5987V38.845C131.723 43.6773 134.692 46.9716 139.315 46.9716C142.744 46.9716 145.286 45.3086 145.959 42.2307H144.337C143.786 44.4776 141.98 45.5856 139.315 45.5856C135.519 45.5856 133.468 43.1224 133.406 38.8133H146.082V38.2285C146.082 32.9028 142.929 30.3798 139.07 30.3798ZM133.468 37.4907C133.775 33.9818 135.979 31.7649 139.071 31.7649C142.194 31.7649 144.246 33.5808 144.398 37.4907H133.468Z" fill="white"/>
<path d="M160.745 34.1967C159.826 32.196 158.05 30.3792 154.897 30.3792C150.671 30.3792 147.457 33.7033 147.457 38.6597V38.9059C147.457 44.0153 150.579 46.971 154.652 46.971C157.653 46.971 159.887 44.9395 160.745 42.9996V46.7239H162.367V22.9297H160.745V34.1967ZM160.775 38.7819C160.775 43.215 158.05 45.585 154.805 45.585C151.62 45.585 149.141 43.2458 149.141 38.8435V38.5972C149.141 34.2574 151.62 31.7642 155.05 31.7642C158.386 31.7642 160.775 34.1035 160.775 38.5366V38.7819Z" fill="white"/>
<path d="M167.019 24.8711C166.376 24.8711 165.855 25.3943 165.855 26.0099C165.855 26.6563 166.376 27.1795 167.019 27.1795C167.662 27.1795 168.151 26.6563 168.151 26.0099C168.151 25.3943 167.662 24.8711 167.019 24.8711Z" fill="white"/>
<path d="M167.845 30.625H166.223V46.7235H167.845V30.625Z" fill="white"/>
<path d="M177.396 30.3789C174.366 30.3789 171.61 31.7948 171.242 35.1814H172.834C173.201 32.8113 174.916 31.764 177.335 31.764C180.151 31.764 181.377 33.0567 181.377 36.0731V37.5197H178.04C174.09 37.5197 170.539 38.6585 170.539 42.3828C170.539 45.4309 172.804 46.9698 175.958 46.9698C178.652 46.9698 180.367 45.831 181.378 44.2613V46.7236H183V36.0731C183 31.9794 180.735 30.3789 177.397 30.3789H177.396ZM181.377 41.5219C181.377 43.9227 179.02 45.6463 176.08 45.6463C173.447 45.6463 172.162 44.4468 172.162 42.3837C172.162 39.4905 174.764 38.7817 178.101 38.7817H181.378V41.521L181.377 41.5219Z" fill="white"/>
</svg>
