<svg width="257" height="46" viewBox="0 0 257 46" fill="none" xmlns="http://www.w3.org/2000/svg">
<g clip-path="url(#clip0_5109_1266)">
<path d="M85.2717 15.7391H76.673V37.503H70.4695V15.7391H61.9102V9.84961H85.2717V15.7391Z" fill="#A5A5A5"/>
<path d="M87.4717 25.4898H95.2851C95.2328 24.6058 94.8794 23.8387 94.225 23.1887C93.5968 22.5385 92.6414 22.2135 91.3588 22.2135C90.207 22.2135 89.291 22.5516 88.6104 23.2276C87.9298 23.9037 87.5503 24.6578 87.4717 25.4898ZM95.717 30.5213L100.703 31.9254C100.206 33.7195 99.1722 35.2017 97.6016 36.3718C96.031 37.5158 94.0679 38.0879 91.7121 38.0879C88.8852 38.0879 86.4771 37.1518 84.4878 35.2797C82.5247 33.4074 81.543 30.8982 81.543 27.752C81.543 24.7358 82.4984 22.2785 84.4093 20.3804C86.3461 18.4822 88.6366 17.5332 91.2803 17.5332C94.3166 17.5332 96.6986 18.4173 98.4261 20.1853C100.18 21.9275 101.057 24.3587 101.057 27.479C101.057 28.4671 101.018 29.0781 100.939 29.3121H87.3539C87.4062 30.3782 87.8644 31.2754 88.7282 32.0034C89.5919 32.7054 90.6128 33.0565 91.7907 33.0565C93.8062 33.0565 95.115 32.2114 95.717 30.5213Z" fill="#A5A5A5"/>
<path d="M111.916 22.9936C110.634 22.9936 109.561 23.4226 108.697 24.2808C107.859 25.1388 107.44 26.3219 107.44 27.83C107.44 29.3121 107.872 30.4822 108.736 31.3403C109.626 32.1983 110.712 32.6274 111.995 32.6274C113.068 32.6274 113.945 32.3544 114.626 31.8084C115.332 31.2364 115.804 30.5473 116.039 29.7412L121.3 31.3403C120.829 33.1865 119.769 34.7726 118.12 36.0987C116.497 37.4249 114.455 38.0879 111.995 38.0879C109.063 38.0879 106.577 37.1257 104.535 35.2017C102.52 33.2514 101.512 30.7943 101.512 27.83C101.512 24.8397 102.493 22.3826 104.457 20.4584C106.446 18.5083 108.893 17.5332 111.799 17.5332C114.338 17.5332 116.419 18.1832 118.042 19.4833C119.664 20.7834 120.711 22.3826 121.183 24.2808L115.843 25.8798C115.607 25.0477 115.162 24.3587 114.508 23.8127C113.854 23.2666 112.99 22.9936 111.916 22.9936Z" fill="#A5A5A5"/>
<path d="M128.941 26.1141V37.503H122.973V9.26465H128.941V19.3665C130.118 18.1964 131.781 17.6114 133.927 17.6114C136.361 17.6114 138.194 18.3395 139.423 19.7956C140.681 21.2256 141.309 23.0718 141.309 25.334V37.503H135.341V26.3481C135.341 25.334 135.066 24.528 134.516 23.9299C133.993 23.3057 133.207 22.9938 132.16 22.9938C131.244 22.9938 130.485 23.2928 129.883 23.8909C129.307 24.4629 128.993 25.2039 128.941 26.1141Z" fill="#A5A5A5"/>
<path d="M153.312 32.6274C154.541 32.6274 155.575 32.2114 156.413 31.3793C157.276 30.5473 157.709 29.3511 157.709 27.791C157.709 26.2309 157.276 25.0477 156.413 24.2418C155.575 23.4096 154.541 22.9936 153.312 22.9936C152.107 22.9936 151.074 23.4096 150.209 24.2418C149.346 25.0738 148.913 26.2568 148.913 27.791C148.913 29.3251 149.346 30.5212 150.209 31.3793C151.074 32.2114 152.107 32.6274 153.312 32.6274ZM153.312 17.5332C156.269 17.5332 158.729 18.4952 160.692 20.4194C162.682 22.3436 163.677 24.8007 163.677 27.791C163.677 30.7812 162.682 33.2514 160.692 35.2017C158.729 37.1257 156.269 38.0879 153.312 38.0879C150.38 38.0879 147.918 37.1128 145.93 35.1627C143.94 33.2124 142.945 30.7553 142.945 27.791C142.945 24.8268 143.94 22.3826 145.93 20.4584C147.918 18.5083 150.38 17.5332 153.312 17.5332Z" fill="#A5A5A5"/>
<path d="M171.526 44.9136H165.559V18.1184H171.329V20.1075C171.775 19.4315 172.507 18.8594 173.529 18.3914C174.575 17.8974 175.753 17.6504 177.061 17.6504C179.837 17.6504 182.036 18.5994 183.658 20.4976C185.308 22.3697 186.132 24.7879 186.132 27.7521C186.132 30.7165 185.255 33.1606 183.501 35.0848C181.774 36.983 179.549 37.932 176.827 37.932C174.365 37.932 172.599 37.2819 171.526 35.9819V44.9136ZM178.986 31.3795C179.85 30.5214 180.282 29.3253 180.282 27.7911C180.282 26.257 179.85 25.0739 178.986 24.2419C178.148 23.4098 177.102 22.9938 175.845 22.9938C174.615 22.9938 173.568 23.4098 172.705 24.2419C171.866 25.0739 171.447 26.257 171.447 27.7911C171.447 29.3253 171.866 30.5214 172.705 31.3795C173.568 32.2116 174.615 32.6276 175.845 32.6276C177.102 32.6276 178.148 32.2116 178.986 31.3795Z" fill="#A5A5A5"/>
<path d="M192.531 25.4898H200.344C200.293 24.6058 199.939 23.8387 199.284 23.1887C198.657 22.5385 197.701 22.2135 196.419 22.2135C195.267 22.2135 194.35 22.5516 193.67 23.2276C192.988 23.9037 192.61 24.6578 192.531 25.4898ZM200.777 30.5213L205.762 31.9254C205.266 33.7195 204.232 35.2017 202.661 36.3718C201.09 37.5158 199.127 38.0879 196.771 38.0879C193.945 38.0879 191.536 37.1518 189.547 35.2797C187.584 33.4074 186.602 30.8982 186.602 27.752C186.602 24.7358 187.558 22.2785 189.468 20.3804C191.405 18.4822 193.696 17.5332 196.339 17.5332C199.375 17.5332 201.758 18.4173 203.485 20.1853C205.239 21.9275 206.116 24.3587 206.116 27.479C206.116 28.4671 206.077 29.0781 205.998 29.3121H192.413C192.465 30.3782 192.923 31.2754 193.788 32.0034C194.651 32.7054 195.672 33.0565 196.85 33.0565C198.865 33.0565 200.175 32.2114 200.777 30.5213Z" fill="#A5A5A5"/>
<path d="M227.188 9.26465V34.0317C227.188 35.2018 227.239 36.3589 227.345 37.503H221.611C221.507 36.8789 221.454 36.2549 221.454 35.6308C220.984 36.3069 220.276 36.866 219.334 37.308C218.418 37.724 217.385 37.932 216.233 37.932C213.458 37.932 211.155 36.983 209.323 35.0848C207.49 33.1606 206.574 30.7165 206.574 27.7521C206.574 24.8399 207.464 22.4348 209.244 20.5366C211.024 18.6124 213.289 17.6504 216.036 17.6504C218.707 17.6504 220.46 18.3134 221.298 19.6395V9.26465H227.188ZM213.838 24.2419C213 25.0739 212.581 26.257 212.581 27.7911C212.581 29.3253 213 30.5214 213.838 31.3795C214.701 32.2116 215.749 32.6276 216.978 32.6276C218.209 32.6276 219.243 32.2116 220.081 31.3795C220.944 30.5214 221.377 29.3253 221.377 27.7911C221.377 26.257 220.944 25.0739 220.081 24.2419C219.243 23.4098 218.209 22.9938 216.978 22.9938C215.749 22.9938 214.701 23.4098 213.838 24.2419Z" fill="#A5A5A5"/>
<path d="M236.568 37.5022H230.6V18.1175H236.568V37.5022ZM231.111 14.6462C230.43 13.9703 230.09 13.1511 230.09 12.189C230.09 11.227 230.43 10.4079 231.111 9.73186C231.791 9.05581 232.603 8.71777 233.545 8.71777C234.513 8.71777 235.338 9.05581 236.019 9.73186C236.725 10.4079 237.079 11.227 237.079 12.189C237.079 13.1511 236.725 13.9703 236.019 14.6462C235.338 15.3223 234.513 15.6603 233.545 15.6603C232.603 15.6603 231.791 15.3223 231.111 14.6462Z" fill="#A5A5A5"/>
<path d="M238.656 32.1591C238.656 30.521 239.193 29.2078 240.266 28.2198C241.338 27.2057 242.726 26.5686 244.427 26.3087L249.021 25.6065C249.963 25.4766 250.435 25.0345 250.435 24.2805C250.435 23.6825 250.173 23.1884 249.65 22.7984C249.152 22.3824 248.459 22.1742 247.569 22.1742C246.574 22.1742 245.776 22.4604 245.174 23.0324C244.598 23.5784 244.284 24.2415 244.231 25.0215L239.049 23.9685C239.179 22.3563 239.979 20.8872 241.444 19.5611C242.935 18.2089 244.99 17.533 247.607 17.533C250.566 17.533 252.739 18.235 254.126 19.6391C255.539 21.0431 256.246 22.8374 256.246 25.0215V34.4993C256.246 35.7213 256.324 36.7225 256.481 37.5026H251.103C250.972 36.9826 250.906 36.2545 250.906 35.3184C249.78 37.1386 247.949 38.0486 245.41 38.0486C243.342 38.0486 241.692 37.4766 240.463 36.3325C239.258 35.1624 238.656 33.7712 238.656 32.1591ZM246.862 33.7583C247.884 33.7583 248.734 33.4593 249.414 32.8612C250.095 32.2631 250.435 31.2751 250.435 29.8969V29.0388L246.744 29.624C245.279 29.8579 244.545 30.573 244.545 31.7691C244.545 32.3151 244.728 32.7832 245.095 33.1731C245.487 33.5632 246.077 33.7583 246.862 33.7583Z" fill="#A5A5A5"/>
<path d="M33.6774 26.0336C33.6777 26.3702 33.767 26.7009 33.9365 26.9924C34.106 27.2838 34.3497 27.5258 34.6431 27.6941L40.7218 31.1798C41.0151 31.3478 41.3478 31.4362 41.6864 31.436C42.025 31.4359 42.3576 31.3471 42.6506 31.1789C42.9438 31.0106 43.1873 30.7687 43.3565 30.4774C43.5257 30.1861 43.6148 29.8556 43.6148 29.5192V11.1479C43.6148 10.8119 43.5259 10.4816 43.3567 10.1905C43.1876 9.89933 42.9442 9.65758 42.6512 9.4895L26.6351 0.308934C26.3419 0.14102 26.0095 0.0526655 25.671 0.0527344C25.3327 0.0528033 25.0003 0.141295 24.7071 0.30932C24.414 0.477358 24.1705 0.719001 24.0012 1.01003C23.8318 1.30106 23.7425 1.63124 23.7422 1.96741V8.94074C23.7423 9.2771 23.8314 9.60753 24.0006 9.89895C24.1697 10.1903 24.4128 10.4325 24.7058 10.6013L32.7118 15.1885C33.0051 15.3563 33.2486 15.5979 33.4178 15.8891C33.5871 16.1804 33.6759 16.5108 33.6755 16.847L33.6774 26.0336Z" fill="#A5A5A5"/>
<path d="M21.8084 23.6554V32.842C21.8083 33.1784 21.8972 33.509 22.0664 33.8005C22.2355 34.092 22.4789 34.3341 22.7721 34.5025L28.8507 37.9881C29.144 38.1562 29.4768 38.2445 29.8153 38.2444C30.1539 38.2441 30.4865 38.1555 30.7797 37.9872C31.0729 37.819 31.3162 37.577 31.4855 37.2857C31.6547 36.9945 31.7438 36.6639 31.7438 36.3276V17.9563C31.7436 17.6197 31.6543 17.289 31.4847 16.9977C31.3153 16.7061 31.0715 16.4641 30.778 16.2958L14.7642 7.11119C14.471 6.94263 14.1384 6.85375 13.7998 6.85352C13.4611 6.85327 13.1284 6.94168 12.8351 7.10983C12.5418 7.27797 12.2982 7.51992 12.129 7.81131C11.9598 8.10271 11.8708 8.43326 11.8711 8.76967V15.7431C11.8706 16.0792 11.9594 16.4096 12.1287 16.7009C12.2979 16.992 12.5414 17.2338 12.8347 17.4015L20.8448 21.9948C21.1378 22.1634 21.3812 22.4056 21.5503 22.697C21.7195 22.9884 21.8084 23.3189 21.8084 23.6554Z" fill="#A5A5A5"/>
<path d="M18.909 23.1049L2.89303 13.9264C2.5997 13.7584 2.26704 13.67 1.92846 13.6702C1.58987 13.6703 1.25729 13.7589 0.964127 13.9272C0.670961 14.0955 0.427538 14.3374 0.258303 14.6288C0.0890672 14.9201 -1.77542e-05 15.2505 4.52319e-08 15.5868V33.9602C-7.32562e-05 34.2964 0.0889473 34.6266 0.258108 34.9177C0.42727 35.2088 0.670608 35.4506 0.963659 35.6186L10.901 41.3095L16.9797 44.7952C17.2728 44.9638 17.6054 45.0527 17.9439 45.0528C18.2826 45.0531 18.6154 44.9647 18.9087 44.7966C19.202 44.6284 19.4455 44.3865 19.6148 44.0951C19.784 43.8037 19.8729 43.473 19.8726 43.1367V24.7654C19.8725 24.4291 19.7834 24.0986 19.6143 23.8072C19.4451 23.5158 19.2019 23.2736 18.909 23.1049Z" fill="#A5A5A5"/>
</g>
<defs>
<clipPath id="clip0_5109_1266">
<rect width="257" height="46" fill="white"/>
</clipPath>
</defs>
</svg>
