<svg width="125" height="20" viewBox="0 0 125 20" fill="none" xmlns="http://www.w3.org/2000/svg">
<path d="M31.7419 15L28.1019 5.158H29.1379L31.8679 12.634L32.2459 13.894H32.2739C32.4046 13.39 32.5306 12.97 32.6519 12.634L35.3819 5.158H36.4179L32.7779 15H31.7419ZM36.656 11.486C36.656 10.366 36.9874 9.47 37.65 8.798C38.322 8.126 39.1527 7.79 40.142 7.79C41.0754 7.79 41.7987 8.10267 42.312 8.728C42.8254 9.344 43.082 10.114 43.082 11.038C43.082 11.15 43.0727 11.3087 43.054 11.514H37.65C37.6687 12.382 37.9394 13.0633 38.462 13.558C38.9847 14.0527 39.624 14.3 40.38 14.3C41.192 14.3 41.906 14.02 42.522 13.46L42.956 14.188C42.6294 14.4867 42.228 14.7247 41.752 14.902C41.2854 15.0793 40.8187 15.168 40.352 15.168C39.2974 15.168 38.4154 14.8227 37.706 14.132C37.006 13.4413 36.656 12.5593 36.656 11.486ZM37.692 10.758H42.116C42.088 10.058 41.8874 9.52133 41.514 9.148C41.1407 8.76533 40.674 8.574 40.114 8.574C39.5074 8.574 38.98 8.76533 38.532 9.148C38.084 9.53067 37.804 10.0673 37.692 10.758ZM44.8703 15V7.958H45.8083V9.26L45.7523 9.82H45.7803C45.967 9.26 46.2563 8.798 46.6483 8.434C47.0497 8.07 47.5117 7.888 48.0343 7.888C48.1743 7.888 48.3003 7.902 48.4123 7.93V8.868C48.3563 8.84933 48.2397 8.84 48.0623 8.84C47.5677 8.84 47.143 9.01267 46.7883 9.358C46.4337 9.70333 46.1817 10.1093 46.0323 10.576C45.8923 11.0333 45.8223 11.514 45.8223 12.018V15H44.8703ZM49.8322 6.348V5.158H50.8682V6.348H49.8322ZM49.8742 15V7.958H50.8262V15H49.8742ZM53.3668 15V8.756H52.4848V7.958H53.3668V7.692C53.3668 7.15067 53.4508 6.69333 53.6188 6.32C53.7961 5.94667 54.0248 5.68067 54.3048 5.522C54.5848 5.354 54.8415 5.242 55.0748 5.186C55.3081 5.12067 55.5508 5.088 55.8028 5.088C55.9521 5.088 56.0968 5.102 56.2368 5.13V5.97C56.1621 5.95133 56.0501 5.942 55.9008 5.942C55.7328 5.942 55.5695 5.96533 55.4108 6.012C55.2615 6.04933 55.0935 6.124 54.9068 6.236C54.7295 6.33867 54.5848 6.52067 54.4728 6.782C54.3701 7.034 54.3188 7.342 54.3188 7.706V7.958H58.4768V15H57.5388V8.756H54.3188V15H53.3668ZM57.4968 6.348V5.158H58.5188V6.348H57.4968ZM60.2674 11.486C60.2674 10.366 60.5987 9.47 61.2614 8.798C61.9334 8.126 62.764 7.79 63.7534 7.79C64.6867 7.79 65.41 8.10267 65.9234 8.728C66.4367 9.344 66.6934 10.114 66.6934 11.038C66.6934 11.15 66.684 11.3087 66.6654 11.514H61.2614C61.28 12.382 61.5507 13.0633 62.0734 13.558C62.596 14.0527 63.2354 14.3 63.9914 14.3C64.8034 14.3 65.5174 14.02 66.1334 13.46L66.5674 14.188C66.2407 14.4867 65.8394 14.7247 65.3634 14.902C64.8967 15.0793 64.43 15.168 63.9634 15.168C62.9087 15.168 62.0267 14.8227 61.3174 14.132C60.6174 13.4413 60.2674 12.5593 60.2674 11.486ZM61.3034 10.758H65.7274C65.6994 10.058 65.4987 9.52133 65.1254 9.148C64.752 8.76533 64.2854 8.574 63.7254 8.574C63.1187 8.574 62.5914 8.76533 62.1434 9.148C61.6954 9.53067 61.4154 10.0673 61.3034 10.758ZM68.8597 14.146C68.309 13.4647 68.0337 12.5733 68.0337 11.472C68.0337 10.3707 68.3277 9.484 68.9157 8.812C69.5037 8.13067 70.269 7.79 71.2117 7.79C71.7063 7.79 72.159 7.916 72.5697 8.168C72.9897 8.41067 73.307 8.74667 73.5217 9.176H73.5497C73.5217 9.01733 73.5077 8.84 73.5077 8.644V5.158H74.4597V15H73.5357V14.202L73.5777 13.698H73.5497C73.335 14.1273 73.0177 14.482 72.5977 14.762C72.1777 15.0327 71.6783 15.168 71.0997 15.168C70.1663 15.168 69.4197 14.8273 68.8597 14.146ZM69.0137 11.472C69.0137 12.3307 69.219 13.0213 69.6297 13.544C70.0497 14.0573 70.591 14.314 71.2537 14.314C71.8977 14.314 72.4343 14.076 72.8637 13.6C73.3023 13.124 73.5217 12.41 73.5217 11.458C73.5217 10.6927 73.3257 10.0347 72.9337 9.484C72.551 8.93333 72.005 8.658 71.2957 8.658C70.6517 8.658 70.1103 8.91 69.6717 9.414C69.233 9.918 69.0137 10.604 69.0137 11.472ZM80.5058 15V5.158H83.4878C84.2718 5.158 84.8738 5.25133 85.2938 5.438C86.2645 5.90467 86.7498 6.726 86.7498 7.902C86.7498 8.56467 86.5771 9.14333 86.2318 9.638C85.8865 10.1327 85.4338 10.4593 84.8738 10.618V10.646C84.9485 10.73 85.0371 10.8607 85.1398 11.038L87.2818 15H86.1618L83.9498 10.856H81.4718V15H80.5058ZM81.4718 9.988H83.8098C84.3978 9.988 84.8691 9.80133 85.2238 9.428C85.5785 9.04533 85.7558 8.546 85.7558 7.93C85.7558 7.538 85.6625 7.19267 85.4758 6.894C85.2985 6.586 85.0465 6.35733 84.7198 6.208C84.4491 6.08667 84.0198 6.026 83.4318 6.026H81.4718V9.988ZM88.158 11.486C88.158 10.366 88.4893 9.47 89.152 8.798C89.824 8.126 90.6547 7.79 91.644 7.79C92.5773 7.79 93.3007 8.10267 93.814 8.728C94.3273 9.344 94.584 10.114 94.584 11.038C94.584 11.15 94.5747 11.3087 94.556 11.514H89.152C89.1707 12.382 89.4413 13.0633 89.964 13.558C90.4867 14.0527 91.126 14.3 91.882 14.3C92.694 14.3 93.408 14.02 94.024 13.46L94.458 14.188C94.1313 14.4867 93.73 14.7247 93.254 14.902C92.7873 15.0793 92.3207 15.168 91.854 15.168C90.7993 15.168 89.9173 14.8227 89.208 14.132C88.508 13.4413 88.158 12.5593 88.158 11.486ZM89.194 10.758H93.618C93.59 10.058 93.3893 9.52133 93.016 9.148C92.6427 8.76533 92.176 8.574 91.616 8.574C91.0093 8.574 90.482 8.76533 90.034 9.148C89.586 9.53067 89.306 10.0673 89.194 10.758ZM98.1539 15L95.4379 7.958H96.4599L98.4059 13.124L98.6439 13.978H98.6719C98.7559 13.642 98.8399 13.3573 98.9239 13.124L100.87 7.958H101.878L99.1899 15H98.1539ZM103.33 6.348V5.158H104.366V6.348H103.33ZM103.372 15V7.958H104.324V15H103.372ZM106.123 11.486C106.123 10.366 106.454 9.47 107.117 8.798C107.789 8.126 108.62 7.79 109.609 7.79C110.542 7.79 111.266 8.10267 111.779 8.728C112.292 9.344 112.549 10.114 112.549 11.038C112.549 11.15 112.54 11.3087 112.521 11.514H107.117C107.136 12.382 107.406 13.0633 107.929 13.558C108.452 14.0527 109.091 14.3 109.847 14.3C110.659 14.3 111.373 14.02 111.989 13.46L112.423 14.188C112.096 14.4867 111.695 14.7247 111.219 14.902C110.752 15.0793 110.286 15.168 109.819 15.168C108.764 15.168 107.882 14.8227 107.173 14.132C106.473 13.4413 106.123 12.5593 106.123 11.486ZM107.159 10.758H111.583C111.555 10.058 111.354 9.52133 110.981 9.148C110.608 8.76533 110.141 8.574 109.581 8.574C108.974 8.574 108.447 8.76533 107.999 9.148C107.551 9.53067 107.271 10.0673 107.159 10.758ZM115.866 15L113.486 7.958H114.508L116.202 13.194L116.412 13.95H116.44C116.515 13.6793 116.589 13.4273 116.664 13.194L118.386 7.986H119.338L121.06 13.194L121.284 13.95H121.312C121.368 13.6887 121.438 13.4367 121.522 13.194L123.216 7.958H124.224L121.858 15H120.808L119.086 9.988L118.876 9.218H118.848C118.773 9.498 118.699 9.75467 118.624 9.988L116.916 15H115.866Z" fill="#3E839E"/>
<path d="M12.9174 4.87981C11.6502 4.01901 10.1238 3.62422 8.59821 3.76269C7.07261 3.90117 5.64221 4.56434 4.55075 5.63922C3.45929 6.71409 2.77429 8.13416 2.61247 9.65747C2.45065 11.1808 2.82202 12.7131 3.66331 13.9933C4.5046 15.2734 5.76375 16.2223 7.22621 16.6782C8.68868 17.1341 10.264 17.0688 11.6837 16.4934C13.1034 15.9181 14.2797 14.8682 15.0122 13.5228C15.7446 12.1774 15.9879 10.6196 15.7005 9.11493" stroke="#3E839E" stroke-width="1.5" stroke-linecap="round"/>
<path d="M16.3359 4.5L10.4282 11.222C9.96809 11.731 9.73768 11.9862 9.42789 11.9991C9.1181 12.0121 8.86381 11.777 8.35522 11.3081L7.33594 10.3685" stroke="#3E839E" stroke-width="1.5" stroke-linecap="round"/>
</svg>
