<svg width="302" height="52" viewBox="0 0 302 52" fill="none" xmlns="http://www.w3.org/2000/svg">
<g clip-path="url(#clip0_2079_441)">
<mask id="mask0_2079_441" style="mask-type:luminance" maskUnits="userSpaceOnUse" x="0" y="0" width="302" height="52">
<path d="M301.191 0H0.207031V51.5973H301.191V0Z" fill="white"/>
</mask>
<g mask="url(#mask0_2079_441)">
<path d="M11.2002 21.3916C10.6666 20.7467 9.81269 20.8542 9.38577 21.6066L0.313547 39.8807C-0.0066491 40.6331 0.527011 41.4931 1.27414 41.4931H13.8685C14.2954 41.4931 14.6156 41.2781 14.829 40.8481C17.6041 35.1509 15.8964 26.5514 11.2002 21.3916Z" fill="white"/>
<path d="M17.8169 4.83729C12.8005 12.8994 13.1206 21.8214 16.4293 28.5935C19.738 35.3657 22.2996 40.4179 22.5131 40.8479C22.7265 41.2779 23.0467 41.4929 23.4737 41.4929H36.068C36.9219 41.4929 37.3488 40.6329 37.0286 39.8805C37.0286 39.8805 20.0582 5.69725 19.6313 4.83729C19.3111 4.08483 18.2438 4.08483 17.8169 4.83729Z" fill="white"/>
<path d="M165.642 19.4569C165.642 23.9716 167.67 27.519 175.888 29.1314C180.691 30.2063 181.758 30.9588 181.758 32.5712C181.758 34.1836 180.691 35.1511 177.276 35.1511C173.327 35.1511 168.63 33.7536 165.535 31.9262V39.2358C167.99 40.4183 171.192 41.8157 177.276 41.8157C185.814 41.8157 189.123 37.9459 189.123 32.3562M189.123 32.4637C189.123 27.089 186.348 24.6166 178.343 22.8967C173.967 21.9293 172.9 20.9618 172.9 19.5644C172.9 17.8445 174.501 17.092 177.382 17.092C180.905 17.092 184.32 18.1669 187.629 19.6719V12.6847C185.281 11.5023 181.758 10.6423 177.596 10.6423C169.698 10.6423 165.642 14.0822 165.642 19.6719" fill="white"/>
<path d="M274.934 10.8569V41.4928H281.444V18.1666L284.113 24.2937L293.292 41.4928H301.403V10.8569H294.999V30.6359L292.544 24.8312L285.18 10.8569H274.934Z" fill="white"/>
<path d="M233.736 10.8569H226.691V41.4928H233.736V10.8569Z" fill="white"/>
<path d="M218.58 32.356C218.58 26.9813 215.805 24.5089 207.8 22.789C203.424 21.8216 202.357 20.8541 202.357 19.4567C202.357 17.7368 203.958 16.9843 206.839 16.9843C210.362 16.9843 213.777 18.0593 217.086 19.5642V12.5771C214.738 11.3946 211.215 10.5347 207.053 10.5347C199.155 10.5347 195.099 13.9745 195.099 19.5642C195.099 24.079 197.127 27.6263 205.345 29.2387C210.148 30.3136 211.215 31.0661 211.215 32.6785C211.215 34.2909 210.148 35.2584 206.733 35.2584C202.784 35.2584 198.087 33.861 194.992 32.0336V39.3432C197.447 40.5256 200.649 41.923 206.733 41.923C215.165 41.923 218.58 38.0532 218.58 32.356Z" fill="white"/>
<path d="M110.781 10.8569V41.4928H125.297L127.538 34.8282H117.826V10.8569H110.781Z" fill="white"/>
<path d="M82.0703 10.8569V17.4141H89.8617V41.4928H97.0128V17.4141H105.445V10.8569H82.0703Z" fill="white"/>
<path d="M71.7174 10.8569H62.4317L51.8652 41.4928H59.9769L61.4711 36.3331C63.2856 36.8706 65.2067 37.1931 67.1279 37.1931C69.0491 37.1931 70.9703 36.8706 72.7847 36.3331L74.2789 41.4928H82.3906C82.2838 41.4928 71.7174 10.8569 71.7174 10.8569ZM67.0212 30.7434C65.6337 30.7434 64.3529 30.5284 63.1788 30.2059L67.0212 16.8766L70.8635 30.2059C69.6895 30.5284 68.4087 30.7434 67.0212 30.7434Z" fill="white"/>
<path d="M150.379 10.8569H141.093L130.42 41.4928H138.532L140.026 36.3331C141.84 36.8706 143.761 37.1931 145.683 37.1931C147.604 37.1931 149.525 36.8706 151.339 36.3331L152.834 41.4928H160.945L150.379 10.8569ZM145.683 30.7434C144.295 30.7434 143.014 30.5284 141.84 30.2059L145.683 16.8766L149.525 30.2059C148.351 30.5284 147.07 30.7434 145.683 30.7434Z" fill="white"/>
<path d="M259.247 10.8569H249.961L239.395 41.4928H247.506L249 36.3331C250.815 36.8706 252.736 37.1931 254.657 37.1931C256.578 37.1931 258.5 36.8706 260.314 36.3331L261.808 41.4928H269.92L259.247 10.8569ZM254.657 30.7434C253.27 30.7434 251.989 30.5284 250.815 30.2059L254.657 16.8766L258.5 30.2059C257.325 30.5284 255.938 30.7434 254.657 30.7434Z" fill="white"/>
</g>
</g>
<defs>
<clipPath id="clip0_2079_441">
<rect width="300.984" height="51.5973" fill="white" transform="translate(0.207031)"/>
</clipPath>
</defs>
</svg>
