<svg width="230" height="32" viewBox="0 0 230 32" fill="none" xmlns="http://www.w3.org/2000/svg">
<path d="M98.8661 20.4054H113.995L106.004 7.15573L91.3114 31.0867H84.6303L102.499 2.37566C102.889 1.80274 103.407 1.334 104.009 1.00872C104.611 0.683439 105.281 0.511084 105.961 0.506093C106.642 0.501102 107.314 0.663622 107.92 0.980037C108.527 1.29645 109.051 1.75755 109.449 2.3247L127.367 31.0867H120.686L117.539 25.7358H102.231L98.8959 20.4054M168.318 25.7358V0.795888H162.639V28.1921C162.638 28.5728 162.712 28.9498 162.858 29.3002C163.003 29.6506 163.215 29.9671 163.483 30.2305C163.752 30.5129 164.073 30.7368 164.428 30.8892C164.783 31.0415 165.163 31.1191 165.548 31.1173H191.359L194.724 25.7664H168.288M74.4349 21.2819C77.081 21.2819 79.6187 20.2027 81.4897 18.2818C83.3608 16.3609 84.4119 13.7555 84.4119 11.0389C84.4119 8.32229 83.3608 5.71694 81.4897 3.796C79.6187 1.87506 77.081 0.795888 74.4349 0.795888H49.6166V31.0867H55.2851V6.15691H74.0875C75.3539 6.15691 76.5685 6.67341 77.464 7.59278C78.3594 8.51216 78.8625 9.7591 78.8625 11.0593C78.8625 12.3595 78.3594 13.6064 77.464 14.5258C76.5685 15.4452 75.3539 15.9617 74.0875 15.9617H58.0946L75.0306 31.0867H83.2603L71.8836 21.2819H74.4349ZM14.7518 31.0867H31.8963C35.7413 30.9843 39.3952 29.3442 42.0794 26.516C44.7635 23.6878 46.2657 19.8952 46.2657 15.9464C46.2657 11.9976 44.7635 8.20496 42.0794 5.37678C39.3952 2.54859 35.7413 0.908507 31.8963 0.80608H14.7518C12.783 0.753631 10.8239 1.10646 8.99007 1.84375C7.1562 2.58104 5.4847 3.68787 4.07413 5.09896C2.66356 6.51006 1.54248 8.19685 0.777016 10.0599C0.0115493 11.9229 -0.382813 13.9244 -0.382812 15.9464C-0.382813 17.9684 0.0115493 19.9699 0.777016 21.8329C1.54248 23.6959 2.66356 25.3827 4.07413 26.7938C5.4847 28.2049 7.1562 29.3117 8.99007 30.049C10.8239 30.7863 12.783 31.1391 14.7518 31.0867ZM31.5092 25.7562H15.1291C12.6508 25.6742 10.3008 24.6057 8.57604 22.7769C6.85124 20.9481 5.88687 18.5022 5.88687 15.9566C5.88687 13.4109 6.85124 10.9651 8.57604 9.13622C10.3008 7.30739 12.6508 6.23897 15.1291 6.15691H31.5092C32.7886 6.11454 34.0632 6.33667 35.2573 6.81008C36.4514 7.28349 37.5406 7.99853 38.4602 8.9127C39.3798 9.82686 40.1111 10.9215 40.6104 12.1316C41.1098 13.3416 41.3671 14.6424 41.3671 15.9566C41.3671 17.2708 41.1098 18.5715 40.6104 19.7816C40.1111 20.9916 39.3798 22.0863 38.4602 23.0004C37.5406 23.9146 36.4514 24.6296 35.2573 25.1031C34.0632 25.5765 32.7886 25.7986 31.5092 25.7562ZM139.211 31.0867H156.713L160.028 25.7562H139.598C138.319 25.7986 137.044 25.5765 135.85 25.1031C134.656 24.6296 133.566 23.9146 132.647 23.0004C131.727 22.0863 130.996 20.9916 130.497 19.7816C129.997 18.5715 129.74 17.2708 129.74 15.9566C129.74 14.6424 129.997 13.3416 130.497 12.1316C130.996 10.9215 131.727 9.82686 132.647 8.9127C133.566 7.99853 134.656 7.28349 135.85 6.81008C137.044 6.33667 138.319 6.11454 139.598 6.15691H156.226L159.582 0.80608H139.211C137.242 0.753631 135.283 1.10646 133.449 1.84375C131.615 2.58104 129.944 3.68787 128.533 5.09896C127.122 6.51006 126.001 8.19685 125.236 10.0599C124.47 11.9229 124.076 13.9244 124.076 15.9464C124.076 17.9684 124.47 19.9699 125.236 21.8329C126.001 23.6959 127.122 25.3827 128.533 26.7938C129.944 28.2049 131.615 29.3117 133.449 30.049C135.283 30.7863 137.242 31.1391 139.211 31.0867ZM208.573 25.7562C206.493 25.757 204.47 25.0607 202.81 23.7729C201.151 22.4852 199.947 20.6765 199.38 18.6218H223.623L226.958 13.2812H199.38C199.945 11.2256 201.149 9.41594 202.809 8.12796C204.468 6.83997 206.493 6.14422 208.573 6.14672H225.211L228.537 0.795888H208.186C204.341 0.898315 200.687 2.53839 198.003 5.36658C195.319 8.19477 193.816 11.9874 193.816 15.9362C193.816 19.885 195.319 23.6776 198.003 26.5058C200.687 29.334 204.341 30.9741 208.186 31.0765H225.688L229.013 25.746H208.563" fill="white"/>
</svg>
