<svg width="386" height="347" viewBox="0 0 386 347" fill="none" xmlns="http://www.w3.org/2000/svg">
<g style="mix-blend-mode:screen">
<path fill-rule="evenodd" clip-rule="evenodd" d="M106.597 1.49545L124.882 19.4402V62.8276C124.882 63.0629 124.976 63.2848 125.142 63.4506C125.142 63.4506 152.858 90.7809 155.845 93.7276V104.945C155.845 105.429 156.239 105.819 156.721 105.819C157.204 105.819 157.598 105.429 157.598 104.945V93.364C157.598 93.1286 157.504 92.9067 157.338 92.7409L126.636 62.4639C126.636 58.2578 126.636 19.0739 126.636 19.0739C126.636 18.8413 126.542 18.6167 126.373 18.4509L107.825 0.249375C107.482 -0.0875411 106.927 -0.0821828 106.587 0.260081C106.249 0.605019 106.254 1.15853 106.597 1.49545Z" fill="url(#paint0_radial_5824_1571)"/>
<path fill-rule="evenodd" clip-rule="evenodd" d="M155.341 2.17217L173.625 20.1167V63.5059C173.625 63.7391 173.719 63.9641 173.887 64.1261L204.587 94.4032V105.622C204.587 106.105 204.981 106.497 205.465 106.497C205.947 106.497 206.34 106.105 206.34 105.622V94.041C206.34 93.8077 206.246 93.5827 206.081 93.4181L175.378 63.1409V19.7517C175.378 19.5185 175.285 19.2934 175.117 19.1288L156.569 0.926274C156.225 0.588733 155.669 0.594232 155.33 0.937261C154.992 1.28029 154.997 1.83463 155.341 2.17217Z" fill="url(#paint1_radial_5824_1571)"/>
<path fill-rule="evenodd" clip-rule="evenodd" d="M368.837 232.2L350.582 213.705C350.42 213.538 350.195 213.444 349.959 213.444H306.448L276.085 182.828C275.92 182.662 275.695 182.569 275.462 182.569H263.846C263.366 182.569 262.972 182.96 262.972 183.442C262.972 183.924 263.366 184.316 263.846 184.316H275.098C278.05 187.294 305.458 214.932 305.458 214.932C305.623 215.098 305.848 215.191 306.081 215.191H349.591C351.808 217.437 367.588 233.425 367.588 233.425C367.926 233.769 368.481 233.774 368.826 233.436C369.171 233.097 369.175 232.544 368.837 232.2Z" fill="url(#paint2_radial_5824_1571)"/>
<path fill-rule="evenodd" clip-rule="evenodd" d="M368.837 271.09L350.582 252.595C350.42 252.428 350.195 252.334 349.959 252.334C349.959 252.334 310.664 252.334 306.448 252.334L276.085 221.718C275.92 221.552 275.695 221.458 275.462 221.458H263.846C263.366 221.458 262.972 221.85 262.972 222.332C262.972 222.814 263.366 223.206 263.846 223.206H275.098C278.05 226.184 305.458 253.822 305.458 253.822C305.623 253.988 305.848 254.081 306.081 254.081C306.081 254.081 345.368 254.081 349.591 254.081L367.588 272.315C367.926 272.659 368.481 272.664 368.826 272.326C369.171 271.987 369.175 271.434 368.837 271.09Z" fill="url(#paint3_radial_5824_1571)"/>
<path fill-rule="evenodd" clip-rule="evenodd" d="M0.251248 173.518L18.5033 192.014C18.6692 192.179 18.8921 192.275 19.1285 192.275C19.1285 192.275 58.4199 192.275 62.6396 192.275C65.593 195.251 93.0006 222.89 93.0006 222.89C93.1666 223.056 93.3894 223.15 93.6236 223.15H127.49C127.972 223.15 128.366 222.758 128.366 222.276C128.366 221.794 127.972 221.403 127.49 221.403H93.9896C91.0362 218.424 63.6286 190.785 63.6286 190.785C63.4627 190.62 63.2376 190.527 63.0057 190.527C63.0057 190.527 23.7188 190.527 19.4946 190.527C17.2778 188.282 1.49943 172.292 1.49943 172.292C1.16068 171.949 0.60593 171.945 0.260351 172.283C-0.0829544 172.62 -0.0875104 173.173 0.251248 173.518Z" fill="url(#paint4_radial_5824_1571)"/>
<path fill-rule="evenodd" clip-rule="evenodd" d="M256.808 306.455V283.843C256.808 283.61 256.713 283.386 256.548 283.222L225.846 252.945V241.727C225.846 241.245 225.451 240.853 224.971 240.853C224.487 240.853 224.092 241.245 224.092 241.727V253.309C224.092 253.543 224.187 253.766 224.352 253.93L255.057 284.208V306.455C255.057 306.937 255.449 307.329 255.932 307.329C256.416 307.329 256.808 306.937 256.808 306.455Z" fill="url(#paint5_radial_5824_1571)"/>
<path fill-rule="evenodd" clip-rule="evenodd" d="M384.263 182.633H361.589C361.354 182.633 361.131 182.726 360.965 182.892L330.606 213.508H319.355C318.871 213.508 318.478 213.9 318.478 214.382C318.478 214.864 318.871 215.256 319.355 215.256H330.971C331.202 215.256 331.429 215.162 331.591 214.996L361.955 184.38H384.263C384.747 184.38 385.14 183.989 385.14 183.506C385.14 183.024 384.747 182.633 384.263 182.633Z" fill="url(#paint6_radial_5824_1571)"/>
<path fill-rule="evenodd" clip-rule="evenodd" d="M329.03 242.607C329.03 242.607 309.641 242.607 306.724 242.607C303.769 239.628 276.359 211.99 276.359 211.99C276.194 211.824 275.973 211.731 275.738 211.731H264.123C263.639 211.731 263.246 212.123 263.246 212.605C263.246 213.087 263.639 213.478 264.123 213.478C264.123 213.478 273.4 213.478 275.373 213.478L305.735 244.094C305.9 244.26 306.124 244.354 306.356 244.354H329.03C329.515 244.354 329.908 243.962 329.908 243.48C329.908 242.998 329.515 242.607 329.03 242.607Z" fill="url(#paint7_radial_5824_1571)"/>
<path fill-rule="evenodd" clip-rule="evenodd" d="M88.4088 346.749L106.955 328.548C107.123 328.384 107.217 328.16 107.217 327.925V284.536L137.92 254.258C138.085 254.094 138.179 253.87 138.179 253.637V242.055C138.179 241.572 137.786 241.181 137.303 241.181C136.818 241.181 136.426 241.572 136.426 242.055V253.272L105.725 283.55C105.557 283.714 105.464 283.938 105.464 284.171V327.559L87.1789 345.504C86.8335 345.842 86.8288 346.396 87.1696 346.739C87.508 347.083 88.0634 347.087 88.4088 346.749Z" fill="url(#paint8_radial_5824_1571)"/>
<path fill-rule="evenodd" clip-rule="evenodd" d="M284.787 345.224L266.501 327.279C266.501 323.066 266.501 283.891 266.501 283.891C266.501 283.658 266.407 283.434 266.242 283.27L235.539 252.992V241.774C235.539 241.292 235.147 240.901 234.665 240.901C234.18 240.901 233.789 241.292 233.789 241.774V253.357C233.789 253.59 233.882 253.814 234.047 253.978C234.047 253.978 261.765 281.31 264.751 284.256C264.751 288.462 264.751 327.645 264.751 327.645C264.751 327.879 264.845 328.103 265.013 328.268L283.558 346.469C283.904 346.807 284.457 346.803 284.797 346.459C285.137 346.115 285.134 345.562 284.787 345.224Z" fill="url(#paint9_radial_5824_1571)"/>
<path fill-rule="evenodd" clip-rule="evenodd" d="M146.878 346.51L165.423 328.308C165.59 328.144 165.684 327.92 165.684 327.686C165.684 327.686 165.684 288.503 165.684 284.296L196.387 254.018C196.553 253.854 196.648 253.631 196.648 253.397V241.815C196.648 241.333 196.255 240.941 195.773 240.941C195.288 240.941 194.895 241.333 194.895 241.815V253.033C191.909 255.978 164.193 283.31 164.193 283.31C164.026 283.474 163.934 283.698 163.934 283.931C163.934 283.931 163.934 323.107 163.934 327.32L145.647 345.265C145.303 345.603 145.3 346.157 145.639 346.5C145.978 346.844 146.533 346.848 146.878 346.51Z" fill="url(#paint10_radial_5824_1571)"/>
<path fill-rule="evenodd" clip-rule="evenodd" d="M22.6744 95.9138L40.9282 114.409C41.0919 114.575 41.3171 114.67 41.5514 114.67C41.5514 114.67 80.8454 114.67 85.0625 114.67L115.426 145.285C115.59 145.45 115.815 145.546 116.05 145.546H127.664C128.146 145.546 128.54 145.153 128.54 144.672C128.54 144.189 128.146 143.797 127.664 143.797H116.414C113.461 140.818 86.052 113.182 86.052 113.182C85.8882 113.016 85.663 112.921 85.4287 112.921H41.9199L23.9231 94.6889C23.5842 94.3442 23.0292 94.3396 22.6857 94.6776C22.34 95.0156 22.3354 95.569 22.6744 95.9138Z" fill="url(#paint11_radial_5824_1571)"/>
<path fill-rule="evenodd" clip-rule="evenodd" d="M22.6753 66.5875L40.9273 85.0819C41.0915 85.2479 41.3173 85.3434 41.5522 85.3434C41.5522 85.3434 80.8457 85.3434 85.0631 85.3434L115.427 115.959C115.591 116.125 115.815 116.218 116.049 116.218H127.664C128.147 116.218 128.54 115.827 128.54 115.345C128.54 114.862 128.147 114.471 127.664 114.471H116.414L86.0508 83.8559C85.8865 83.6898 85.663 83.5966 85.4281 83.5966H41.9195L23.923 65.3615C23.5854 65.0181 23.0289 65.0136 22.6845 65.3525C22.34 65.6891 22.3355 66.2441 22.6753 66.5875Z" fill="url(#paint12_radial_5824_1571)"/>
<path fill-rule="evenodd" clip-rule="evenodd" d="M5.1035 124.494H85.0631L115.427 155.111C115.591 155.277 115.816 155.37 116.05 155.37H127.664C128.147 155.37 128.54 154.98 128.54 154.497C128.54 154.016 128.147 153.623 127.664 153.623H116.414C113.462 150.645 86.0525 123.009 86.0525 123.009C85.8887 122.841 85.6636 122.748 85.4293 122.748H5.1035C4.62128 122.748 4.22778 123.14 4.22778 123.621C4.22778 124.104 4.62128 124.494 5.1035 124.494Z" fill="url(#paint13_radial_5824_1571)"/>
<path fill-rule="evenodd" clip-rule="evenodd" d="M56.9261 104.778H85.0609L115.425 135.395C115.588 135.561 115.814 135.654 116.048 135.654H127.662C128.144 135.654 128.538 135.261 128.538 134.78C128.538 134.297 128.144 133.907 127.662 133.907C127.662 133.907 118.384 133.907 116.412 133.907L86.0503 103.29C85.8865 103.124 85.6614 103.032 85.4271 103.032H56.9261C56.4417 103.032 56.0481 103.422 56.0481 103.905C56.0481 104.386 56.4417 104.778 56.9261 104.778Z" fill="url(#paint14_radial_5824_1571)"/>
<path fill-rule="evenodd" clip-rule="evenodd" d="M334.746 262.07C334.746 262.07 309.931 262.07 306.609 262.07L276.245 231.453C276.082 231.287 275.859 231.194 275.625 231.194H264.008C263.526 231.194 263.132 231.585 263.132 232.067C263.132 232.549 263.526 232.941 264.008 232.941H275.256C278.213 235.919 305.62 263.557 305.62 263.557C305.786 263.723 306.01 263.817 306.244 263.817H334.746C335.228 263.817 335.622 263.425 335.622 262.943C335.622 262.461 335.228 262.07 334.746 262.07Z" fill="url(#paint15_radial_5824_1571)"/>
<path fill-rule="evenodd" clip-rule="evenodd" d="M155.837 312.381V284.323L186.54 254.046C186.705 253.882 186.8 253.658 186.8 253.424V241.842C186.8 241.36 186.408 240.968 185.924 240.968C185.439 240.968 185.047 241.36 185.047 241.842C185.047 241.842 185.047 251.093 185.047 253.06C182.062 256.005 154.347 283.338 154.347 283.338C154.179 283.502 154.086 283.725 154.086 283.959V312.381C154.086 312.863 154.479 313.255 154.963 313.255C155.445 313.255 155.837 312.863 155.837 312.381Z" fill="url(#paint16_radial_5824_1571)"/>
<path fill-rule="evenodd" clip-rule="evenodd" d="M47.605 151.842C47.605 151.842 63.3885 136.186 65.6018 133.993C68.0811 133.993 82.5681 133.993 85.0611 133.993L115.425 164.61C115.589 164.775 115.814 164.868 116.048 164.868H127.662C128.145 164.868 128.538 164.478 128.538 163.995C128.538 163.514 128.145 163.122 127.662 163.122H116.412L86.0505 132.505C85.8868 132.339 85.6616 132.246 85.4273 132.246H65.2401C65.0081 132.246 64.7852 132.337 64.6214 132.5L46.3699 150.603C46.0264 150.944 46.0242 151.497 46.3653 151.84C46.7065 152.182 47.2615 152.182 47.605 151.842Z" fill="url(#paint17_radial_5824_1571)"/>
<path fill-rule="evenodd" clip-rule="evenodd" d="M86.8362 24.4727L105.407 42.662C105.407 45.4306 105.407 62.9537 105.407 62.9537C105.407 63.1893 105.501 63.4122 105.666 63.5768L136.368 93.8535V105.072C136.368 105.553 136.761 105.946 137.244 105.946C137.729 105.946 138.12 105.553 138.12 105.072V93.4887C138.12 93.2557 138.026 93.0328 137.861 92.8682C137.861 92.8682 110.146 65.5348 107.159 62.589C107.159 59.828 107.159 42.2973 107.159 42.2973C107.159 42.0617 107.063 41.8388 106.895 41.6742L88.0655 23.2265C87.7201 22.8896 87.1638 22.8947 86.826 23.2392C86.4882 23.5811 86.4932 24.1359 86.8362 24.4727Z" fill="url(#paint18_radial_5824_1571)"/>
<path fill-rule="evenodd" clip-rule="evenodd" d="M293.658 18.4233L274.824 36.8694C274.659 37.0338 274.564 37.2573 274.564 37.4941V57.788L243.859 88.0646C243.695 88.229 243.602 88.4526 243.602 88.686V100.267C243.602 100.75 243.995 101.141 244.476 101.141C244.961 101.141 245.353 100.75 245.353 100.267C245.353 100.267 245.353 91.0173 245.353 89.051L276.054 58.7712C276.222 58.6068 276.315 58.3832 276.315 58.1497V37.8591L294.885 19.6694C295.228 19.3308 295.234 18.7784 294.895 18.4364C294.555 18.0912 294.001 18.0846 293.658 18.4233Z" fill="url(#paint19_radial_5824_1571)"/>
<path fill-rule="evenodd" clip-rule="evenodd" d="M274.264 18.4227L255.433 36.8687C255.264 37.0335 255.169 37.2585 255.169 37.493V57.7868L224.467 88.0642C224.301 88.229 224.206 88.4509 224.206 88.6854V100.267C224.206 100.751 224.6 101.141 225.083 101.141C225.566 101.141 225.96 100.751 225.96 100.267C225.96 100.267 225.96 91.015 225.96 89.0499L256.663 58.7725C256.828 58.6077 256.92 58.3858 256.92 58.1513V37.8607L275.491 19.6714C275.834 19.3323 275.841 18.7776 275.501 18.4353C275.164 18.0899 274.607 18.0867 274.264 18.4227Z" fill="url(#paint20_radial_5824_1571)"/>
<path fill-rule="evenodd" clip-rule="evenodd" d="M46.6086 272.656L64.8488 254.139C67.6243 254.139 85.1961 254.139 85.1961 254.139C85.4303 254.139 85.6553 254.045 85.819 253.879L116.182 223.263C118.153 223.263 127.432 223.263 127.432 223.263C127.914 223.263 128.307 222.871 128.307 222.389C128.307 221.907 127.914 221.516 127.432 221.516H115.816C115.582 221.516 115.357 221.609 115.193 221.775C115.193 221.775 87.7853 249.413 84.8302 252.392H64.4805C64.2464 252.392 64.0213 252.486 63.8554 252.653L45.3584 271.432C45.0197 271.776 45.0242 272.329 45.3697 272.667C45.713 273.005 46.2676 273 46.6086 272.656Z" fill="url(#paint21_radial_5824_1571)"/>
<path fill-rule="evenodd" clip-rule="evenodd" d="M117.283 323.415L136.116 304.969C136.284 304.805 136.377 304.58 136.377 304.346V284.053L167.082 253.775C167.248 253.611 167.341 253.387 167.341 253.154V241.571C167.341 241.089 166.949 240.698 166.464 240.698C165.981 240.698 165.589 241.089 165.589 241.571V252.789L134.887 283.067C134.719 283.231 134.626 283.455 134.626 283.688V303.98C132.352 306.207 116.057 322.169 116.057 322.169C115.713 322.507 115.708 323.061 116.045 323.404C116.384 323.748 116.939 323.753 117.283 323.415Z" fill="url(#paint22_radial_5824_1571)"/>
<path fill-rule="evenodd" clip-rule="evenodd" d="M115.373 63.4505L146.075 93.7272V104.945C146.075 105.427 146.467 105.818 146.951 105.818C147.434 105.818 147.827 105.427 147.827 104.945V93.3621C147.827 93.1283 147.733 92.9063 147.566 92.7417L116.603 62.2073C116.261 61.8684 115.706 61.8708 115.366 62.2144C115.027 62.5581 115.029 63.1117 115.373 63.4505Z" fill="url(#paint23_radial_5824_1571)"/>
<path fill-rule="evenodd" clip-rule="evenodd" d="M175.734 74.8182L194.908 93.726C194.908 95.6915 194.908 104.944 194.908 104.944C194.908 105.425 195.301 105.817 195.786 105.817C196.268 105.817 196.661 105.425 196.661 104.944V93.3609C196.661 93.1273 196.566 92.9044 196.4 92.7406L176.967 73.575C176.623 73.2367 176.068 73.2394 175.729 73.5831C175.39 73.924 175.392 74.4798 175.734 74.8182Z" fill="url(#paint24_radial_5824_1571)"/>
<path fill-rule="evenodd" clip-rule="evenodd" d="M284.625 62.2068L253.662 92.7408C253.496 92.9056 253.402 93.1287 253.402 93.3615V104.945C253.402 105.426 253.795 105.817 254.278 105.817C254.761 105.817 255.153 105.426 255.153 104.945V93.7268C258.142 90.7817 285.857 63.4482 285.857 63.4482C286.2 63.1088 286.204 62.556 285.863 62.2133C285.523 61.8706 284.968 61.8674 284.625 62.2068Z" fill="url(#paint25_radial_5824_1571)"/>
<path fill-rule="evenodd" clip-rule="evenodd" d="M305.736 103.366C305.736 103.366 278.326 131.004 275.373 133.983C273.401 133.983 264.123 133.983 264.123 133.983C263.64 133.983 263.246 134.374 263.246 134.856C263.246 135.338 263.64 135.729 264.123 135.729H275.737C275.973 135.729 276.196 135.636 276.361 135.47L306.98 104.595C307.321 104.252 307.317 103.698 306.973 103.359C306.629 103.02 306.077 103.023 305.736 103.366Z" fill="url(#paint26_radial_5824_1571)"/>
<path fill-rule="evenodd" clip-rule="evenodd" d="M327.256 151.693C327.256 151.693 299.848 179.331 296.895 182.309C294.923 182.309 285.645 182.309 285.645 182.309C285.162 182.309 284.77 182.701 284.77 183.183C284.77 183.665 285.162 184.056 285.645 184.056H297.263C297.494 184.056 297.718 183.963 297.883 183.797L328.504 152.921C328.843 152.579 328.84 152.025 328.496 151.686C328.153 151.347 327.596 151.35 327.256 151.693Z" fill="url(#paint27_radial_5824_1571)"/>
<path fill-rule="evenodd" clip-rule="evenodd" d="M305.736 113.201C305.736 113.201 278.326 140.839 275.373 143.818H264.123C263.64 143.818 263.246 144.209 263.246 144.691C263.246 145.173 263.64 145.565 264.123 145.565H275.737C275.973 145.565 276.196 145.472 276.361 145.305L306.98 114.43C307.321 114.087 307.317 113.534 306.973 113.195C306.629 112.855 306.077 112.858 305.736 113.201Z" fill="url(#paint28_radial_5824_1571)"/>
<path fill-rule="evenodd" clip-rule="evenodd" d="M306.98 223.447L276.361 192.572C276.196 192.406 275.973 192.312 275.737 192.312H264.123C263.64 192.312 263.246 192.704 263.246 193.186C263.246 193.668 263.64 194.06 264.123 194.06H275.373L305.736 224.676C306.077 225.019 306.629 225.022 306.973 224.683C307.317 224.344 307.321 223.79 306.98 223.447Z" fill="url(#paint29_radial_5824_1571)"/>
<path fill-rule="evenodd" clip-rule="evenodd" d="M306.98 204.012L276.361 173.136C276.196 172.971 275.973 172.877 275.737 172.877H264.123C263.64 172.877 263.246 173.268 263.246 173.751C263.246 174.233 263.64 174.624 264.123 174.624H275.373L305.736 205.24C306.077 205.583 306.629 205.586 306.973 205.247C307.317 204.908 307.321 204.355 306.98 204.012Z" fill="url(#paint30_radial_5824_1571)"/>
<path fill-rule="evenodd" clip-rule="evenodd" d="M285.857 283.186L255.153 252.908V241.69C255.153 241.208 254.761 240.817 254.278 240.817C253.795 240.817 253.402 241.208 253.402 241.69V253.273C253.402 253.506 253.496 253.73 253.662 253.894L284.625 284.428C284.968 284.767 285.523 284.764 285.863 284.421C286.204 284.078 286.2 283.525 285.857 283.186Z" fill="url(#paint31_radial_5824_1571)"/>
<path fill-rule="evenodd" clip-rule="evenodd" d="M175.11 284.428L206.074 253.894C206.239 253.73 206.333 253.506 206.333 253.273V241.691C206.333 241.208 205.939 240.817 205.458 240.817C204.973 240.817 204.58 241.208 204.58 241.691V252.909L173.88 283.186C173.536 283.525 173.533 284.079 173.872 284.421C174.213 284.764 174.766 284.767 175.11 284.428Z" fill="url(#paint32_radial_5824_1571)"/>
<path fill-rule="evenodd" clip-rule="evenodd" d="M116.733 284.428L147.694 253.894C147.861 253.73 147.955 253.506 147.955 253.273V241.691C147.955 241.209 147.562 240.817 147.079 240.817C146.595 240.817 146.203 241.209 146.203 241.691V252.908L115.501 283.186C115.156 283.525 115.154 284.078 115.493 284.421C115.833 284.764 116.389 284.767 116.733 284.428Z" fill="url(#paint33_radial_5824_1571)"/>
<path fill-rule="evenodd" clip-rule="evenodd" d="M86.0512 263.575L116.413 232.959H127.663C128.145 232.959 128.539 232.567 128.539 232.085C128.539 231.603 128.145 231.212 127.663 231.212H116.049C115.815 231.212 115.589 231.305 115.426 231.471L84.8047 262.346C84.4658 262.689 84.468 263.243 84.8115 263.582C85.155 263.921 85.71 263.918 86.0512 263.575Z" fill="url(#paint34_radial_5824_1571)"/>
<path fill-rule="evenodd" clip-rule="evenodd" d="M84.3512 153.098L114.971 183.975C115.134 184.14 115.359 184.233 115.593 184.233H127.207C127.691 184.233 128.084 183.843 128.084 183.361C128.084 182.878 127.691 182.486 127.207 182.486H115.959C113.003 179.509 85.5961 151.871 85.5961 151.871C85.2554 151.528 84.701 151.524 84.358 151.864C84.0127 152.204 84.0104 152.756 84.3512 153.098Z" fill="url(#paint35_radial_5824_1571)"/>
<path fill-rule="evenodd" clip-rule="evenodd" d="M84.8047 94.827L115.426 125.702C115.589 125.868 115.815 125.963 116.049 125.963H127.663C128.145 125.963 128.539 125.571 128.539 125.088C128.539 124.607 128.145 124.215 127.663 124.215C127.663 124.215 118.385 124.215 116.413 124.215L86.0512 93.5999C85.71 93.2551 85.155 93.2528 84.8115 93.593C84.468 93.931 84.4658 94.4845 84.8047 94.827Z" fill="url(#paint36_radial_5824_1571)"/>
<path fill-rule="evenodd" clip-rule="evenodd" d="M167.378 105.717V93.6349C167.378 93.3992 167.283 93.1738 167.114 93.0098L147.661 74.0133L147.717 19.0502C147.717 18.566 147.327 18.174 146.844 18.174C146.358 18.174 145.965 18.5659 145.965 19.0476L145.908 74.3796C145.908 74.6153 146.004 74.8408 146.171 75.0047L165.626 94.0013C165.626 96.0226 165.626 105.717 165.626 105.717C165.626 106.198 166.019 106.59 166.502 106.59C166.985 106.59 167.378 106.198 167.378 105.717Z" fill="url(#paint37_radial_5824_1571)"/>
<path fill-rule="evenodd" clip-rule="evenodd" d="M127.497 202.053H115.75L96.6991 182.652C96.5331 182.484 96.308 182.389 96.0715 182.389L40.5843 182.448C40.1 182.448 39.709 182.84 39.709 183.321C39.709 183.804 40.1023 184.194 40.5866 184.194L95.7055 184.137L114.754 203.538C114.92 203.705 115.145 203.798 115.381 203.798H127.497C127.979 203.798 128.373 203.408 128.373 202.926C128.373 202.443 127.979 202.053 127.497 202.053Z" fill="url(#paint38_radial_5824_1571)"/>
<path fill-rule="evenodd" clip-rule="evenodd" d="M186.894 105.621V93.5397C186.894 93.3061 186.799 93.0803 186.631 92.9149L167.178 73.9211L167.376 36.6318C167.379 36.1487 166.989 35.7575 166.505 35.7549C166.023 35.7523 165.628 36.1409 165.625 36.6239L165.425 74.2807C165.425 74.5196 165.52 74.7454 165.688 74.9108L185.144 93.9072V105.621C185.144 106.104 185.536 106.495 186.018 106.495C186.502 106.495 186.894 106.104 186.894 105.621Z" fill="url(#paint39_radial_5824_1571)"/>
<path fill-rule="evenodd" clip-rule="evenodd" d="M264.223 116.246H276.337C276.574 116.246 276.801 116.151 276.963 115.983L296.013 96.5852L333.405 96.7827C333.889 96.7855 334.285 96.3961 334.285 95.914C334.289 95.4318 333.9 95.0386 333.415 95.0361L295.652 94.8365C295.412 94.8351 295.185 94.9299 295.019 95.0985C295.019 95.0985 278.258 112.168 275.969 114.498H264.223C263.739 114.498 263.346 114.89 263.346 115.372C263.346 115.854 263.739 116.246 264.223 116.246Z" fill="url(#paint40_radial_5824_1571)"/>
<path fill-rule="evenodd" clip-rule="evenodd" d="M216.088 105.621V93.5388C216.088 93.3032 215.993 93.0789 215.824 92.9135L196.373 73.9202L196.572 36.6316C196.575 36.1494 196.184 35.754 195.701 35.7512C195.217 35.7512 194.821 36.1381 194.821 36.6204L194.618 74.2819C194.618 74.5174 194.714 74.7445 194.882 74.9099L214.337 93.9061V105.621C214.337 106.103 214.73 106.495 215.211 106.495C215.695 106.495 216.088 106.103 216.088 105.621Z" fill="url(#paint41_radial_5824_1571)"/>
<path fill-rule="evenodd" clip-rule="evenodd" d="M215.955 105.824L216.109 93.5598C216.112 93.3242 216.019 93.0942 215.848 92.9288L204.927 82.1873L204.758 55.8581L215.853 44.9876C216.197 44.6511 216.202 44.0986 215.865 43.7536C215.524 43.4087 214.97 43.4059 214.624 43.7424L203.268 54.8709C203.096 55.0364 203.003 55.2635 203.003 55.4991L203.178 82.5603C203.181 82.7931 203.273 83.0146 203.439 83.1773C203.439 83.1773 212.659 92.2445 214.354 93.9104L214.203 105.802C214.197 106.284 214.585 106.68 215.069 106.688C215.553 106.694 215.949 106.307 215.955 105.824Z" fill="url(#paint42_radial_5824_1571)"/>
<path fill-rule="evenodd" clip-rule="evenodd" d="M316.762 163.191L328.722 163.196C328.958 163.196 329.179 163.29 329.347 163.456C329.347 163.456 338.464 172.676 340.118 174.347C340.118 174.347 363.294 174.495 366.518 174.516L377.418 163.452C377.757 163.109 378.314 163.104 378.657 163.442C379.004 163.78 379.007 164.333 378.668 164.677L367.509 176.004C367.341 176.172 367.116 176.266 366.876 176.265L339.74 176.091C339.508 176.09 339.287 175.996 339.123 175.831L328.356 164.943L316.759 164.939C316.278 164.938 315.886 164.547 315.886 164.064C315.886 163.582 316.278 163.191 316.762 163.191Z" fill="url(#paint43_radial_5824_1571)"/>
<path fill-rule="evenodd" clip-rule="evenodd" d="M285.639 145.671L297.6 145.666C297.836 145.666 298.06 145.572 298.223 145.406C298.223 145.406 307.343 136.186 308.997 134.515C308.997 134.515 332.174 134.367 335.396 134.347L346.297 145.41C346.637 145.753 347.191 145.758 347.535 145.42C347.883 145.082 347.886 144.529 347.546 144.185L336.388 132.859C336.222 132.69 335.994 132.596 335.758 132.597L308.621 132.771C308.389 132.772 308.168 132.866 308.001 133.031L297.235 143.919L285.639 143.924C285.157 143.924 284.763 144.316 284.763 144.798C284.763 145.28 285.157 145.671 285.639 145.671Z" fill="url(#paint44_radial_5824_1571)"/>
<path fill-rule="evenodd" clip-rule="evenodd" d="M224.099 252.341L224.105 264.269C224.105 264.502 224.199 264.726 224.367 264.89C224.367 264.89 233.611 273.984 235.288 275.631L235.455 301.959L224.361 312.829C224.017 313.167 224.011 313.721 224.352 314.064C224.69 314.408 225.246 314.413 225.59 314.075L236.947 302.946C237.117 302.781 237.211 302.554 237.211 302.318L237.035 275.257C237.035 275.026 236.941 274.804 236.776 274.641L225.858 263.902L225.852 252.34C225.852 251.858 225.458 251.467 224.975 251.467C224.493 251.467 224.099 251.859 224.099 252.341Z" fill="url(#paint45_radial_5824_1571)"/>
<path fill-rule="evenodd" clip-rule="evenodd" d="M194.952 263.225L194.946 274.787C193.266 276.44 184.028 285.526 184.028 285.526C183.863 285.689 183.769 285.91 183.766 286.142L183.594 313.202C183.591 313.438 183.685 313.665 183.855 313.831L195.213 324.96C195.558 325.297 196.113 325.293 196.452 324.949C196.791 324.605 196.786 324.051 196.441 323.713L185.347 312.844L185.517 286.515L196.438 275.774C196.605 275.61 196.7 275.387 196.7 275.153L196.702 263.225C196.705 262.743 196.312 262.352 195.827 262.352C195.345 262.351 194.952 262.742 194.952 263.225Z" fill="url(#paint46_radial_5824_1571)"/>
<path fill-rule="evenodd" clip-rule="evenodd" d="M104.629 232.645L77.8638 232.816C76.187 231.114 66.9645 221.752 66.9645 221.752C66.6253 221.41 66.0706 221.403 65.725 221.742C65.3815 222.08 65.3751 222.633 65.7143 222.978L76.874 234.304C77.0404 234.472 77.2686 234.567 77.5054 234.565L104.642 234.392C105.124 234.389 105.514 233.995 105.512 233.513C105.508 233.031 105.113 232.642 104.629 232.645Z" fill="url(#paint47_radial_5824_1571)"/>
<path fill-rule="evenodd" clip-rule="evenodd" d="M95.2537 182.389L68.4741 182.331L57.5721 171.265C57.2338 170.921 56.6774 170.917 56.3329 171.255C55.9883 171.592 55.9841 172.147 56.3225 172.491L67.4819 183.817C67.6459 183.983 67.8701 184.078 68.1046 184.078L95.2516 184.136C95.7353 184.136 96.1276 183.747 96.1276 183.265C96.1297 182.782 95.7374 182.391 95.2537 182.389Z" fill="url(#paint48_radial_5824_1571)"/>
<path fill-rule="evenodd" clip-rule="evenodd" d="M323.646 124.167C323.708 124.181 323.773 124.189 323.842 124.189C323.842 124.189 333.429 124.192 335.437 124.193L346.203 135.081C346.369 135.246 346.589 135.34 346.824 135.342L373.957 135.515C374.196 135.516 374.423 135.422 374.589 135.254L385.748 123.927C386.088 123.583 386.084 123.03 385.737 122.692C385.394 122.354 384.839 122.359 384.5 122.703L373.599 133.766L347.198 133.597L336.424 122.706C336.262 122.54 336.039 122.446 335.804 122.446L329.054 122.443L346.115 105.126C346.454 104.782 346.446 104.229 346.103 103.891C345.756 103.553 345.201 103.558 344.862 103.902L326.622 122.42H306.273C306.042 122.42 305.818 122.513 305.652 122.679L275.289 153.295H264.041C263.556 153.295 263.162 153.687 263.162 154.169C263.162 154.651 263.556 155.042 264.041 155.042H275.655C275.89 155.042 276.114 154.949 276.28 154.783L306.639 124.167H323.646Z" fill="url(#paint49_radial_5824_1571)"/>
<path fill-rule="evenodd" clip-rule="evenodd" d="M214.363 241.775L214.357 253.337L203.439 264.075C203.273 264.238 203.181 264.46 203.178 264.692L203.003 291.752C203.003 291.988 203.096 292.215 203.268 292.38L214.624 303.51C214.97 303.847 215.524 303.842 215.865 303.499C216.202 303.155 216.197 302.601 215.853 302.263L204.758 291.394C204.758 291.394 204.907 268.251 204.927 265.065L215.848 254.325C216.017 254.16 216.109 253.936 216.109 253.703L216.115 241.775C216.115 241.293 215.721 240.902 215.24 240.901C214.757 240.901 214.363 241.292 214.363 241.775Z" fill="url(#paint50_radial_5824_1571)"/>
<path fill-rule="evenodd" clip-rule="evenodd" d="M234.797 91.8221C232.869 91.8221 231.307 93.3801 231.307 95.2997C231.307 97.2193 232.869 98.7773 234.797 98.7773C236.722 98.7773 238.285 97.2193 238.285 95.2997C238.285 93.3801 236.722 91.8221 234.797 91.8221ZM234.797 93.5682C235.755 93.5682 236.533 94.3443 236.533 95.2997C236.533 96.2551 235.755 97.0311 234.797 97.0311C233.836 97.0311 233.058 96.2551 233.058 95.2997C233.058 94.3443 233.836 93.5682 234.797 93.5682Z" fill="url(#paint51_radial_5824_1571)"/>
<path fill-rule="evenodd" clip-rule="evenodd" d="M176.247 91.8201C174.324 91.8201 172.76 93.3793 172.76 95.2999C172.76 97.2206 174.324 98.7798 176.247 98.7798C178.173 98.7798 179.737 97.2206 179.737 95.2999C179.737 93.3793 178.173 91.8201 176.247 91.8201ZM176.247 93.5678C177.208 93.5678 177.984 94.3448 177.984 95.2999C177.984 96.2551 177.208 97.0321 176.247 97.0321C175.289 97.0321 174.51 96.2551 174.51 95.2999C174.51 94.3448 175.289 93.5678 176.247 93.5678Z" fill="url(#paint52_radial_5824_1571)"/>
<path fill-rule="evenodd" clip-rule="evenodd" d="M156.722 249.533C154.796 249.533 153.233 251.092 153.233 253.012C153.233 254.932 154.796 256.49 156.722 256.49C158.648 256.49 160.211 254.932 160.211 253.012C160.211 251.092 158.648 249.533 156.722 249.533ZM156.722 251.28C157.68 251.28 158.458 252.056 158.458 253.012C158.458 253.968 157.68 254.743 156.722 254.743C155.764 254.743 154.986 253.968 154.986 253.012C154.986 252.056 155.764 251.28 156.722 251.28Z" fill="url(#paint53_radial_5824_1571)"/>
<path fill-rule="evenodd" clip-rule="evenodd" d="M274.403 121.742C272.476 121.742 270.912 123.301 270.912 125.221C270.912 127.141 272.476 128.7 274.403 128.7C276.327 128.7 277.891 127.141 277.891 125.221C277.891 123.301 276.327 121.742 274.403 121.742ZM274.403 123.489C275.36 123.489 276.139 124.265 276.139 125.221C276.139 126.177 275.36 126.953 274.403 126.953C273.443 126.953 272.664 126.177 272.664 125.221C272.664 124.265 273.443 123.489 274.403 123.489Z" fill="url(#paint54_radial_5824_1571)"/>
<path d="M347.843 99.556C349.287 99.556 350.458 100.723 350.458 102.161C350.458 103.599 349.287 104.767 347.843 104.767C346.404 104.767 345.233 103.599 345.233 102.161C345.233 100.723 346.404 99.556 347.843 99.556Z" fill="url(#paint55_radial_5824_1571)"/>
<path d="M337.366 261.283C338.312 261.283 339.078 262.048 339.078 262.99C339.078 263.933 338.312 264.698 337.366 264.698C336.422 264.698 335.653 263.933 335.653 262.99C335.653 262.048 336.422 261.283 337.366 261.283Z" fill="url(#paint56_radial_5824_1571)"/>
<path d="M198.022 324.172C199.465 324.172 200.636 325.339 200.636 326.777C200.636 328.215 199.465 329.382 198.022 329.382C196.582 329.382 195.411 328.215 195.411 326.777C195.411 325.339 196.582 324.172 198.022 324.172Z" fill="url(#paint57_radial_5824_1571)"/>
<path d="M64.4845 217.571C65.9267 217.571 67.0975 218.739 67.0975 220.177C67.0975 221.615 65.9267 222.783 64.4845 222.783C63.0422 222.783 61.8714 221.615 61.8714 220.177C61.8714 218.739 63.0422 217.571 64.4845 217.571Z" fill="url(#paint58_radial_5824_1571)"/>
<path d="M195.655 31.593C196.837 31.593 197.796 32.5493 197.796 33.7288C197.796 34.906 196.837 35.8623 195.655 35.8623C194.473 35.8623 193.514 34.906 193.514 33.7288C193.514 32.5493 194.473 31.593 195.655 31.593Z" fill="url(#paint59_radial_5824_1571)"/>
<path fill-rule="evenodd" clip-rule="evenodd" d="M274.401 160.591C276.309 160.591 277.857 162.135 277.857 164.037C277.857 165.939 276.309 167.483 274.401 167.483C272.493 167.483 270.946 165.939 270.946 164.037C270.946 162.135 272.493 160.591 274.401 160.591Z" fill="url(#paint60_radial_5824_1571)"/>
<path fill-rule="evenodd" clip-rule="evenodd" d="M274.401 199.552C276.309 199.552 277.857 201.096 277.857 202.998C277.857 204.9 276.309 206.444 274.401 206.444C272.493 206.444 270.946 204.9 270.946 202.998C270.946 201.096 272.493 199.552 274.401 199.552Z" fill="url(#paint61_radial_5824_1571)"/>
<path fill-rule="evenodd" clip-rule="evenodd" d="M244.512 248.724C246.419 248.724 247.968 250.269 247.968 252.17C247.968 254.072 246.419 255.616 244.512 255.616C242.606 255.616 241.057 254.072 241.057 252.17C241.057 250.269 242.606 248.724 244.512 248.724Z" fill="url(#paint62_radial_5824_1571)"/>
<path fill-rule="evenodd" clip-rule="evenodd" d="M287.323 282.668C289.229 282.668 290.779 284.212 290.779 286.114C290.779 288.016 289.229 289.56 287.323 289.56C285.416 289.56 283.866 288.016 283.866 286.114C283.866 284.212 285.416 282.668 287.323 282.668Z" fill="url(#paint63_radial_5824_1571)"/>
<path fill-rule="evenodd" clip-rule="evenodd" d="M115.435 280.979C117.343 280.979 118.891 282.523 118.891 284.425C118.891 286.326 117.343 287.871 115.435 287.871C113.528 287.871 111.979 286.326 111.979 284.425C111.979 282.523 113.528 280.979 115.435 280.979Z" fill="url(#paint64_radial_5824_1571)"/>
<path fill-rule="evenodd" clip-rule="evenodd" d="M217.5 39.2097C219.407 39.2097 220.955 40.7541 220.955 42.6554C220.955 44.5597 219.407 46.1012 217.5 46.1012C215.593 46.1012 214.045 44.5597 214.045 42.6554C214.045 40.7541 215.593 39.2097 217.5 39.2097Z" fill="url(#paint65_radial_5824_1571)"/>
<path fill-rule="evenodd" clip-rule="evenodd" d="M176.246 248.725C178.154 248.725 179.702 250.269 179.702 252.171C179.702 254.073 178.154 255.617 176.246 255.617C174.338 255.617 172.79 254.073 172.79 252.171C172.79 250.269 174.338 248.725 176.246 248.725Z" fill="url(#paint66_radial_5824_1571)"/>
<path fill-rule="evenodd" clip-rule="evenodd" d="M129.092 90.1259V98.8764L134.378 104.106L134.293 95.3098L129.092 90.1259ZM127.657 88.6951V97.4594L122.602 92.4575V83.654L127.657 88.6951ZM121.167 82.2232V91.0382L117.946 87.8518V79.0115L121.167 82.2232ZM116.512 77.5807V86.4326L114.564 84.5064V75.6384L116.512 77.5807ZM113.129 74.2076V83.0895L111.278 81.2555V72.3598L113.129 74.2076ZM109.844 70.9314V79.8363L108.182 78.1935V69.2748L109.844 70.9314ZM106.748 67.844L105.417 66.5147V75.4587L106.748 76.7743V67.844Z" fill="url(#paint67_radial_5824_1571)"/>
<path fill-rule="evenodd" clip-rule="evenodd" d="M279.703 241.825H270.926L265.681 236.552L274.501 236.639L279.703 241.825ZM281.135 243.255H272.349L277.363 248.296H286.193L281.135 243.255ZM287.625 249.726H278.785L281.982 252.939H290.849L287.625 249.726ZM292.281 254.369H283.405L285.336 256.311H294.23L292.281 254.369ZM295.662 257.741H286.758L288.596 259.589H297.517L295.662 257.741ZM298.949 261.019H290.019L291.666 262.676H300.613L298.949 261.019ZM302.045 264.106L303.378 265.433H294.41L293.088 264.106H302.045Z" fill="url(#paint68_radial_5824_1571)"/>
<path fill-rule="evenodd" clip-rule="evenodd" d="M333.746 205.397H324.972L319.726 210.669L328.547 210.583L333.746 205.397ZM335.18 203.967H326.392L331.41 198.926H340.239L335.18 203.967ZM341.67 197.496H332.83L336.026 194.283H344.892L341.67 197.496ZM346.327 192.853H337.45L339.382 190.911H348.273L346.327 192.853ZM349.708 189.481H340.802L342.641 187.633H351.562L349.708 189.481ZM352.997 186.203H344.065L345.713 184.546H354.656L352.997 186.203ZM356.091 183.116L357.423 181.788H348.457L347.133 183.116H356.091Z" fill="url(#paint69_radial_5824_1571)"/>
<path fill-rule="evenodd" clip-rule="evenodd" d="M59.0942 194.798C60.8672 194.798 62.3077 196.234 62.3077 198.002C62.3077 199.772 60.8672 201.208 59.0942 201.208C57.3193 201.208 55.8789 199.772 55.8789 198.002C55.8789 196.234 57.3193 194.798 59.0942 194.798ZM50.7262 194.798C52.501 194.798 53.9415 196.234 53.9415 198.002C53.9415 199.772 52.501 201.208 50.7262 201.208C48.9532 201.208 47.5127 199.772 47.5127 198.002C47.5127 196.234 48.9532 194.798 50.7262 194.798ZM42.36 194.798C44.133 194.798 45.5734 196.234 45.5734 198.002C45.5734 199.772 44.133 201.208 42.36 201.208C40.587 201.208 39.1465 199.772 39.1465 198.002C39.1465 196.234 40.587 194.798 42.36 194.798ZM33.9938 194.798C35.7668 194.798 37.2072 196.234 37.2072 198.002C37.2072 199.772 35.7668 201.208 33.9938 201.208C32.2189 201.208 30.7785 199.772 30.7785 198.002C30.7785 196.234 32.2189 194.798 33.9938 194.798Z" fill="url(#paint70_radial_5824_1571)"/>
<path fill-rule="evenodd" clip-rule="evenodd" d="M268.692 93.4202C267.437 94.6715 265.399 94.6715 264.147 93.4202C262.892 92.1688 262.892 90.1393 264.147 88.8879C265.399 87.6366 267.437 87.6366 268.692 88.8879C269.947 90.1393 269.947 92.1688 268.692 93.4202ZM274.609 87.5198C273.354 88.7712 271.315 88.7712 270.061 87.5198C268.809 86.2684 268.809 84.239 270.061 82.9876C271.315 81.7362 273.354 81.7362 274.609 82.9876C275.86 84.239 275.86 86.2684 274.609 87.5198ZM280.522 81.6195C279.271 82.8709 277.232 82.8709 275.977 81.6195C274.723 80.3714 274.723 78.3387 275.977 77.0873C277.232 75.8359 279.271 75.8359 280.522 77.0873C281.777 78.3387 281.777 80.3714 280.522 81.6195ZM286.439 75.7225C285.184 76.9706 283.149 76.9706 281.894 75.7225C280.639 74.4711 280.639 72.4384 281.894 71.187C283.149 69.9388 285.184 69.9388 286.439 71.187C287.694 72.4384 287.694 74.4711 286.439 75.7225Z" fill="url(#paint71_radial_5824_1571)"/>
<path fill-rule="evenodd" clip-rule="evenodd" d="M299.365 176.724C298.11 177.975 296.074 177.975 294.819 176.724C293.563 175.473 293.563 173.442 294.819 172.191C296.074 170.94 298.11 170.94 299.365 172.191C300.617 173.442 300.617 175.473 299.365 176.724ZM305.281 170.824C304.026 172.075 301.99 172.075 300.734 170.824C299.479 169.573 299.479 167.542 300.734 166.292C301.99 165.041 304.026 165.041 305.281 166.292C306.536 167.542 306.536 169.573 305.281 170.824ZM311.196 164.925C309.941 166.175 307.905 166.175 306.65 164.925C305.398 163.674 305.398 161.643 306.65 160.392C307.905 159.141 309.941 159.141 311.196 160.392C312.452 161.643 312.452 163.674 311.196 164.925ZM317.112 159.025C315.86 160.276 313.82 160.276 312.569 159.025C311.313 157.774 311.313 155.743 312.569 154.492C313.82 153.241 315.86 153.241 317.112 154.492C318.367 155.743 318.367 157.774 317.112 159.025Z" fill="url(#paint72_radial_5824_1571)"/>
<path fill-rule="evenodd" clip-rule="evenodd" d="M212.083 285.238H207.679V289.63H212.083V285.238ZM212.083 279.017H207.679V283.409H212.083V279.017ZM212.083 272.796H207.679V277.187H212.083V272.796ZM212.083 266.574H207.679V270.966H212.083V266.574Z" fill="url(#paint73_radial_5824_1571)"/>
<path fill-rule="evenodd" clip-rule="evenodd" d="M59.9246 91.9072V87.5145H55.5197V91.9072H59.9246ZM66.1635 91.9072V87.5145H61.7586V91.9072H66.1635ZM72.4025 91.9072V87.5145H67.9975V91.9072H72.4025ZM78.6414 91.9072V87.5145H74.2364V91.9072H78.6414Z" fill="url(#paint74_radial_5824_1571)"/>
</g>
<path fill-rule="evenodd" clip-rule="evenodd" d="M263.299 116.853C263.299 114.072 262.192 111.407 260.219 109.44C258.25 107.476 255.577 106.372 252.789 106.372C227.578 106.372 163.91 106.372 138.702 106.372C135.914 106.372 133.24 107.476 131.268 109.44C129.299 111.407 128.191 114.072 128.191 116.853C128.191 141.991 128.191 205.482 128.191 230.62C128.191 233.4 129.299 236.066 131.268 238.031C133.24 239.997 135.914 241.102 138.702 241.102C163.91 241.102 227.578 241.102 252.789 241.102C255.577 241.102 258.25 239.997 260.219 238.031C262.192 236.066 263.299 233.4 263.299 230.62C263.299 205.482 263.299 141.991 263.299 116.853Z" fill="url(#paint75_linear_5824_1571)"/>
<path fill-rule="evenodd" clip-rule="evenodd" d="M165.612 241.922V252.173C165.612 252.656 166.006 253.047 166.489 253.047C166.971 253.047 167.365 252.656 167.365 252.173V241.922C167.365 241.44 166.971 241.048 166.489 241.048C166.006 241.048 165.612 241.44 165.612 241.922ZM146.106 241.922V252.173C146.106 252.656 146.5 253.047 146.982 253.047C147.465 253.047 147.859 252.656 147.859 252.173V241.922C147.859 241.44 147.465 241.048 146.982 241.048C146.5 241.048 146.106 241.44 146.106 241.922ZM185.119 241.922V252.173C185.119 252.656 185.509 253.047 185.995 253.047C186.477 253.047 186.871 252.656 186.871 252.173V241.922C186.871 241.44 186.477 241.048 185.995 241.048C185.509 241.048 185.119 241.44 185.119 241.922ZM194.872 241.922V252.173C194.872 252.656 195.262 253.047 195.748 253.047C196.231 253.047 196.621 252.656 196.621 252.173V241.922C196.621 241.44 196.231 241.048 195.748 241.048C195.262 241.048 194.872 241.44 194.872 241.922ZM155.859 241.922V249.744C155.859 250.226 156.253 250.617 156.735 250.617C157.218 250.617 157.612 250.226 157.612 249.744V241.922C157.612 241.44 157.218 241.048 156.735 241.048C156.253 241.048 155.859 241.44 155.859 241.922ZM224.128 241.922V252.173C224.128 252.656 224.522 253.047 225.004 253.047C225.49 253.047 225.881 252.656 225.881 252.173V241.922C225.881 241.44 225.49 241.048 225.004 241.048C224.522 241.048 224.128 241.44 224.128 241.922ZM136.353 241.922V252.173C136.353 252.656 136.747 253.047 137.229 253.047C137.712 253.047 138.105 252.656 138.105 252.173V241.922C138.105 241.44 137.712 241.048 137.229 241.048C136.747 241.048 136.353 241.44 136.353 241.922ZM175.365 241.922V252.173C175.365 252.656 175.756 253.047 176.242 253.047C176.724 253.047 177.118 252.656 177.118 252.173V241.922C177.118 241.44 176.724 241.048 176.242 241.048C175.756 241.048 175.365 241.44 175.365 241.922ZM204.625 241.922V252.173C204.625 252.656 205.015 253.047 205.498 253.047C205.984 253.047 206.374 252.656 206.374 252.173V241.922C206.374 241.44 205.984 241.048 205.498 241.048C205.015 241.048 204.625 241.44 204.625 241.922ZM214.375 241.922V252.173C214.375 252.656 214.769 253.047 215.251 253.047C215.737 253.047 216.127 252.656 216.127 252.173V241.922C216.127 241.44 215.737 241.048 215.251 241.048C214.769 241.048 214.375 241.44 214.375 241.922ZM233.881 241.922V252.173C233.881 252.656 234.275 253.047 234.757 253.047C235.24 253.047 235.634 252.656 235.634 252.173V241.922C235.634 241.44 235.24 241.048 234.757 241.048C234.275 241.048 233.881 241.44 233.881 241.922ZM243.634 241.922V252.173C243.634 252.656 244.028 253.047 244.511 253.047C244.993 253.047 245.387 252.656 245.387 252.173V241.922C245.387 241.44 244.993 241.048 244.511 241.048C244.028 241.048 243.634 241.44 243.634 241.922ZM253.387 241.922V252.173C253.387 252.656 253.781 253.047 254.264 253.047C254.746 253.047 255.14 252.656 255.14 252.173V241.922C255.14 241.44 254.746 241.048 254.264 241.048C253.781 241.048 253.387 241.44 253.387 241.922ZM264.169 232.965H274.402C274.884 232.965 275.278 232.573 275.278 232.091C275.278 231.609 274.884 231.218 274.402 231.218H264.169C263.687 231.218 263.293 231.609 263.293 232.091C263.293 232.573 263.687 232.965 264.169 232.965ZM117.091 232.965H127.562C128.047 232.965 128.438 232.573 128.438 232.091C128.438 231.609 128.047 231.218 127.562 231.218H117.091C116.609 231.218 116.215 231.609 116.215 232.091C116.215 232.573 116.609 232.965 117.091 232.965ZM264.169 223.239H274.402C274.884 223.239 275.278 222.848 275.278 222.366C275.278 221.884 274.884 221.492 274.402 221.492H264.169C263.687 221.492 263.293 221.884 263.293 222.366C263.293 222.848 263.687 223.239 264.169 223.239ZM117.091 223.239H127.562C128.047 223.239 128.438 222.848 128.438 222.366C128.438 221.884 128.047 221.492 127.562 221.492H117.091C116.609 221.492 116.215 221.884 116.215 222.366C116.215 222.848 116.609 223.239 117.091 223.239ZM264.169 213.514H274.402C274.884 213.514 275.278 213.122 275.278 212.64C275.278 212.158 274.884 211.767 274.402 211.767H264.169C263.687 211.767 263.293 212.158 263.293 212.64C263.293 213.122 263.687 213.514 264.169 213.514ZM117.091 213.514H127.562C128.047 213.514 128.438 213.122 128.438 212.64C128.438 212.158 128.047 211.767 127.562 211.767H117.091C116.609 211.767 116.215 212.158 116.215 212.64C116.215 213.122 116.609 213.514 117.091 213.514ZM264.169 203.788H274.402C274.884 203.788 275.278 203.397 275.278 202.915C275.278 202.433 274.884 202.041 274.402 202.041H264.169C263.687 202.041 263.293 202.433 263.293 202.915C263.293 203.397 263.687 203.788 264.169 203.788ZM117.091 203.788H127.562C128.047 203.788 128.438 203.397 128.438 202.915C128.438 202.433 128.047 202.041 127.562 202.041H117.091C116.609 202.041 116.215 202.433 116.215 202.915C116.215 203.397 116.609 203.788 117.091 203.788ZM264.169 194.063H274.402C274.884 194.063 275.278 193.671 275.278 193.189C275.278 192.707 274.884 192.316 274.402 192.316H264.169C263.687 192.316 263.293 192.707 263.293 193.189C263.293 193.671 263.687 194.063 264.169 194.063ZM117.091 194.063H127.562C128.047 194.063 128.438 193.671 128.438 193.189C128.438 192.707 128.047 192.316 127.562 192.316H117.091C116.609 192.316 116.215 192.707 116.215 193.189C116.215 193.671 116.609 194.063 117.091 194.063ZM264.169 184.337H274.402C274.884 184.337 275.278 183.946 275.278 183.464C275.278 182.981 274.884 182.59 274.402 182.59H264.169C263.687 182.59 263.293 182.981 263.293 183.464C263.293 183.946 263.687 184.337 264.169 184.337ZM117.091 184.337H127.562C128.047 184.337 128.438 183.946 128.438 183.464C128.438 182.981 128.047 182.59 127.562 182.59H117.091C116.609 182.59 116.215 182.981 116.215 183.464C116.215 183.946 116.609 184.337 117.091 184.337ZM264.169 174.611H274.402C274.884 174.611 275.278 174.22 275.278 173.738C275.278 173.256 274.884 172.864 274.402 172.864H264.169C263.687 172.864 263.293 173.256 263.293 173.738C263.293 174.22 263.687 174.611 264.169 174.611ZM120.247 174.611H127.562C128.047 174.611 128.438 174.22 128.438 173.738C128.438 173.256 128.047 172.864 127.562 172.864H120.247C119.764 172.864 119.371 173.256 119.371 173.738C119.371 174.22 119.764 174.611 120.247 174.611ZM117.091 164.886H127.562C128.047 164.886 128.438 164.494 128.438 164.012C128.438 163.53 128.047 163.139 127.562 163.139H117.091C116.609 163.139 116.215 163.53 116.215 164.012C116.215 164.494 116.609 164.886 117.091 164.886ZM264.169 164.886H274.402C274.884 164.886 275.278 164.494 275.278 164.012C275.278 163.53 274.884 163.139 274.402 163.139H264.169C263.687 163.139 263.293 163.53 263.293 164.012C263.293 164.494 263.687 164.886 264.169 164.886ZM117.091 155.16H127.562C128.047 155.16 128.438 154.769 128.438 154.287C128.438 153.805 128.047 153.413 127.562 153.413H117.091C116.609 153.413 116.215 153.805 116.215 154.287C116.215 154.769 116.609 155.16 117.091 155.16ZM264.169 155.16H274.402C274.884 155.16 275.278 154.769 275.278 154.287C275.278 153.805 274.884 153.413 274.402 153.413H264.169C263.687 153.413 263.293 153.805 263.293 154.287C263.293 154.769 263.687 155.16 264.169 155.16ZM117.091 145.435H127.562C128.047 145.435 128.438 145.043 128.438 144.561C128.438 144.079 128.047 143.688 127.562 143.688H117.091C116.609 143.688 116.215 144.079 116.215 144.561C116.215 145.043 116.609 145.435 117.091 145.435ZM264.169 145.435H274.402C274.884 145.435 275.278 145.043 275.278 144.561C275.278 144.079 274.884 143.688 274.402 143.688H264.169C263.687 143.688 263.293 144.079 263.293 144.561C263.293 145.043 263.687 145.435 264.169 145.435ZM117.091 135.709H127.562C128.047 135.709 128.438 135.318 128.438 134.835C128.438 134.353 128.047 133.962 127.562 133.962H117.091C116.609 133.962 116.215 134.353 116.215 134.835C116.215 135.318 116.609 135.709 117.091 135.709ZM264.169 135.709H274.402C274.884 135.709 275.278 135.318 275.278 134.835C275.278 134.353 274.884 133.962 274.402 133.962H264.169C263.687 133.962 263.293 134.353 263.293 134.835C263.293 135.318 263.687 135.709 264.169 135.709ZM117.091 125.983H127.562C128.047 125.983 128.438 125.592 128.438 125.11C128.438 124.628 128.047 124.236 127.562 124.236H117.091C116.609 124.236 116.215 124.628 116.215 125.11C116.215 125.592 116.609 125.983 117.091 125.983ZM264.169 125.983H271.306C271.789 125.983 272.183 125.592 272.183 125.11C272.183 124.628 271.789 124.236 271.306 124.236H264.169C263.687 124.236 263.293 124.628 263.293 125.11C263.293 125.592 263.687 125.983 264.169 125.983ZM117.091 116.257H127.562C128.047 116.257 128.438 115.868 128.438 115.383C128.438 114.902 128.047 114.51 127.562 114.51H117.091C116.609 114.51 116.215 114.902 116.215 115.383C116.215 115.868 116.609 116.257 117.091 116.257ZM264.169 116.257H274.402C274.884 116.257 275.278 115.868 275.278 115.383C275.278 114.902 274.884 114.51 274.402 114.51H264.169C263.687 114.51 263.293 114.902 263.293 115.383C263.293 115.868 263.687 116.257 264.169 116.257ZM136.353 95.3015V105.733C136.353 106.215 136.747 106.604 137.229 106.604C137.712 106.604 138.105 106.215 138.105 105.733V95.3015C138.105 94.8203 137.712 94.4277 137.229 94.4277C136.747 94.4277 136.353 94.8203 136.353 95.3015ZM146.106 95.3015V105.733C146.106 106.215 146.5 106.604 146.982 106.604C147.465 106.604 147.859 106.215 147.859 105.733V95.3015C147.859 94.8203 147.465 94.4277 146.982 94.4277C146.5 94.4277 146.106 94.8203 146.106 95.3015ZM165.612 95.3015V105.733C165.612 106.215 166.006 106.604 166.489 106.604C166.971 106.604 167.365 106.215 167.365 105.733V95.3015C167.365 94.8203 166.971 94.4277 166.489 94.4277C166.006 94.4277 165.612 94.8203 165.612 95.3015ZM175.365 98.2016V105.733C175.365 106.215 175.756 106.604 176.242 106.604C176.724 106.604 177.118 106.215 177.118 105.733V98.2016C177.118 97.7204 176.724 97.3278 176.242 97.3278C175.756 97.3278 175.365 97.7204 175.365 98.2016ZM214.375 95.3015V105.733C214.375 106.215 214.769 106.604 215.251 106.604C215.737 106.604 216.127 106.215 216.127 105.733V95.3015C216.127 94.8203 215.737 94.4277 215.251 94.4277C214.769 94.4277 214.375 94.8203 214.375 95.3015ZM253.387 95.3015V105.733C253.387 106.215 253.781 106.604 254.264 106.604C254.746 106.604 255.14 106.215 255.14 105.733V95.3015C255.14 94.8203 254.746 94.4277 254.264 94.4277C253.781 94.4277 253.387 94.8203 253.387 95.3015ZM233.881 98.6987V105.733C233.881 106.215 234.275 106.604 234.757 106.604C235.24 106.604 235.634 106.215 235.634 105.733V98.6987C235.634 98.2143 235.24 97.8248 234.757 97.8248C234.275 97.8248 233.881 98.2143 233.881 98.6987ZM155.859 95.3015V105.733C155.859 106.215 156.253 106.604 156.735 106.604C157.218 106.604 157.612 106.215 157.612 105.733V95.3015C157.612 94.8203 157.218 94.4277 156.735 94.4277C156.253 94.4277 155.859 94.8203 155.859 95.3015ZM185.119 95.3015V105.733C185.119 106.215 185.509 106.604 185.995 106.604C186.477 106.604 186.871 106.215 186.871 105.733V95.3015C186.871 94.8203 186.477 94.4277 185.995 94.4277C185.509 94.4277 185.119 94.8203 185.119 95.3015ZM194.872 95.3015V105.733C194.872 106.215 195.262 106.604 195.748 106.604C196.231 106.604 196.621 106.215 196.621 105.733V95.3015C196.621 94.8203 196.231 94.4277 195.748 94.4277C195.262 94.4277 194.872 94.8203 194.872 95.3015ZM204.625 95.3015V105.733C204.625 106.215 205.015 106.604 205.498 106.604C205.984 106.604 206.374 106.215 206.374 105.733V95.3015C206.374 94.8203 205.984 94.4277 205.498 94.4277C205.015 94.4277 204.625 94.8203 204.625 95.3015ZM224.128 95.3015V105.733C224.128 106.215 224.522 106.604 225.004 106.604C225.49 106.604 225.881 106.215 225.881 105.733V95.3015C225.881 94.8203 225.49 94.4277 225.004 94.4277C224.522 94.4277 224.128 94.8203 224.128 95.3015ZM243.634 95.3015V105.733C243.634 106.215 244.028 106.604 244.511 106.604C244.993 106.604 245.387 106.215 245.387 105.733V95.3015C245.387 94.8203 244.993 94.4277 244.511 94.4277C244.028 94.4277 243.634 94.8203 243.634 95.3015Z" fill="#0080E3"/>
<path fill-rule="evenodd" clip-rule="evenodd" d="M264.734 116.275C264.734 113.264 263.533 110.376 261.399 108.245C259.263 106.118 256.367 104.921 253.347 104.921C227.959 104.921 163.522 104.921 138.136 104.921C135.116 104.921 132.218 106.118 130.084 108.245C127.947 110.376 126.75 113.264 126.75 116.275C126.75 141.592 126.75 205.847 126.75 231.164C126.75 234.176 127.947 237.064 130.084 239.193C132.218 241.323 135.116 242.52 138.136 242.52C163.522 242.52 227.959 242.52 253.347 242.52C256.367 242.52 259.263 241.323 261.399 239.193C263.533 237.064 264.734 234.176 264.734 231.164C264.734 205.847 264.734 141.592 264.734 116.275ZM262.983 116.275C262.983 141.592 262.983 205.847 262.983 231.164C262.983 233.712 261.966 236.156 260.158 237.958C258.351 239.76 255.901 240.772 253.347 240.772C227.959 240.772 163.522 240.772 138.136 240.772C135.58 240.772 133.129 239.76 131.322 237.958C129.515 236.156 128.501 233.712 128.501 231.164C128.501 205.847 128.501 141.592 128.501 116.275C128.501 113.729 129.515 111.285 131.322 109.483C133.129 107.681 135.58 106.667 138.136 106.667C163.522 106.667 227.959 106.667 253.347 106.667C255.901 106.667 258.351 107.681 260.158 109.483C261.966 111.285 262.983 113.729 262.983 116.275Z" fill="url(#paint76_linear_5824_1571)"/>
<path fill-rule="evenodd" clip-rule="evenodd" d="M255.151 120.59C255.151 117.212 252.404 114.473 249.02 114.473C229.583 114.473 161.903 114.473 142.466 114.473C139.082 114.473 136.336 117.212 136.336 120.59C136.336 139.97 136.336 207.462 136.336 226.843C136.336 230.219 139.082 232.957 142.466 232.957C161.903 232.957 229.583 232.957 249.02 232.957C252.404 232.957 255.151 230.219 255.151 226.843V120.59ZM253.399 120.59V226.843C253.399 229.255 251.437 231.21 249.02 231.21C229.583 231.21 161.903 231.21 142.466 231.21C140.049 231.21 138.087 229.255 138.087 226.843C138.087 207.462 138.087 139.97 138.087 120.59C138.087 118.177 140.049 116.223 142.466 116.223H249.02C251.437 116.223 253.399 118.177 253.399 120.59Z" fill="url(#paint77_linear_5824_1571)"/>
<path fill-rule="evenodd" clip-rule="evenodd" d="M182.244 148.192L187.24 161.122L178.443 183.875H196.03L199.781 193.585H174.567L168.797 208.148H156.086L182.244 148.192ZM224.037 144.498H235.398V208.148H224.037V144.498ZM183.882 144.498H193.68L221.177 208.148H208.475L183.882 144.498Z" fill="#0E4279"/>
<path fill-rule="evenodd" clip-rule="evenodd" d="M182.244 145.59L187.24 158.521L178.443 181.273H196.03L199.781 190.983H174.567L168.797 205.547H156.086L182.244 145.59ZM224.037 141.895H235.398V205.547H224.037V141.895ZM183.882 141.895H193.68L221.177 205.547H208.475L183.882 141.895Z" fill="url(#paint78_linear_5824_1571)"/>
<path fill-rule="evenodd" clip-rule="evenodd" d="M246.561 220.625C244.482 220.625 242.793 222.31 242.793 224.385C242.793 226.46 244.482 228.145 246.561 228.145C248.643 228.145 250.332 226.46 250.332 224.385C250.332 222.31 248.643 220.625 246.561 220.625ZM246.561 222.372C247.676 222.372 248.58 223.274 248.58 224.385C248.58 225.496 247.676 226.398 246.561 226.398C245.449 226.398 244.543 225.496 244.543 224.385C244.543 223.274 245.449 222.372 246.561 222.372Z" fill="url(#paint79_linear_5824_1571)"/>
<path fill-rule="evenodd" clip-rule="evenodd" d="M154.158 121.091C154.158 120.608 153.767 120.218 153.283 120.218H143.563C143.079 120.218 142.688 120.608 142.688 121.091V130.783C142.688 131.266 143.079 131.656 143.563 131.656H153.283C153.767 131.656 154.158 131.266 154.158 130.783V121.091ZM152.407 121.964V129.908H144.438V121.964H152.407Z" fill="url(#paint80_linear_5824_1571)"/>
<path fill-rule="evenodd" clip-rule="evenodd" d="M150.427 134.797C150.427 134.314 150.035 133.922 149.55 133.922H143.564C143.08 133.922 142.688 134.314 142.688 134.797V140.769C142.688 141.249 143.08 141.641 143.564 141.641H149.55C150.035 141.641 150.427 141.249 150.427 140.769V134.797ZM148.676 135.671V139.894H144.439V135.671H148.676Z" fill="url(#paint81_linear_5824_1571)"/>
<path fill-rule="evenodd" clip-rule="evenodd" d="M117.088 170.241C115.162 170.241 113.598 171.799 113.598 173.719C113.598 175.639 115.162 177.199 117.088 177.199C119.013 177.199 120.575 175.639 120.575 173.719C120.575 171.799 119.013 170.241 117.088 170.241ZM117.088 171.988C118.045 171.988 118.824 172.765 118.824 173.719C118.824 174.676 118.045 175.452 117.088 175.452C116.128 175.452 115.349 174.676 115.349 173.719C115.349 172.765 116.128 171.988 117.088 171.988Z" fill="#0175D4"/>
<path fill-rule="evenodd" clip-rule="evenodd" d="M117.091 209.303C118.998 209.303 120.547 210.848 120.547 212.75C120.547 214.651 118.998 216.195 117.091 216.195C115.184 216.195 113.637 214.651 113.637 212.75C113.637 210.848 115.184 209.303 117.091 209.303Z" fill="#0175D4"/>
<path fill-rule="evenodd" clip-rule="evenodd" d="M117.091 189.419C118.998 189.419 120.547 190.964 120.547 192.866C120.547 194.768 118.998 196.312 117.091 196.312C115.184 196.312 113.637 194.768 113.637 192.866C113.637 190.964 115.184 189.419 117.091 189.419Z" fill="#0175D4"/>
<path fill-rule="evenodd" clip-rule="evenodd" d="M61.7212 192.261H34.184C33.749 192.261 33.3929 191.685 33.3945 191.23C33.3945 190.776 33.749 190.506 34.184 190.508L61.7212 190.508C62.1562 190.51 62.509 190.843 62.5073 191.297C62.5073 191.75 62.1562 192.261 61.7212 192.261Z" fill="url(#paint82_linear_5824_1571)"/>
<defs>
<radialGradient id="paint0_radial_5824_1571" cx="0" cy="0" r="1" gradientUnits="userSpaceOnUse" gradientTransform="translate(185.38 202.366) rotate(-72.9387) scale(229.099 269.137)">
<stop stop-color="#0097FF"/>
<stop offset="1" stop-color="#023384"/>
</radialGradient>
<radialGradient id="paint1_radial_5824_1571" cx="0" cy="0" r="1" gradientUnits="userSpaceOnUse" gradientTransform="translate(185.38 202.366) rotate(-72.9387) scale(229.099 269.137)">
<stop stop-color="#0097FF"/>
<stop offset="1" stop-color="#023384"/>
</radialGradient>
<radialGradient id="paint2_radial_5824_1571" cx="0" cy="0" r="1" gradientUnits="userSpaceOnUse" gradientTransform="translate(185.38 202.366) rotate(-72.9387) scale(229.099 269.137)">
<stop stop-color="#0097FF"/>
<stop offset="1" stop-color="#023384"/>
</radialGradient>
<radialGradient id="paint3_radial_5824_1571" cx="0" cy="0" r="1" gradientUnits="userSpaceOnUse" gradientTransform="translate(185.38 202.366) rotate(-72.9387) scale(229.099 269.137)">
<stop stop-color="#0097FF"/>
<stop offset="1" stop-color="#023384"/>
</radialGradient>
<radialGradient id="paint4_radial_5824_1571" cx="0" cy="0" r="1" gradientUnits="userSpaceOnUse" gradientTransform="translate(185.38 202.366) rotate(-72.9387) scale(229.099 269.137)">
<stop stop-color="#0097FF"/>
<stop offset="1" stop-color="#023384"/>
</radialGradient>
<radialGradient id="paint5_radial_5824_1571" cx="0" cy="0" r="1" gradientUnits="userSpaceOnUse" gradientTransform="translate(185.38 202.366) rotate(-72.9387) scale(229.099 269.137)">
<stop stop-color="#0097FF"/>
<stop offset="1" stop-color="#023384"/>
</radialGradient>
<radialGradient id="paint6_radial_5824_1571" cx="0" cy="0" r="1" gradientUnits="userSpaceOnUse" gradientTransform="translate(185.38 202.366) rotate(-72.9387) scale(229.099 269.137)">
<stop stop-color="#0097FF"/>
<stop offset="1" stop-color="#023384"/>
</radialGradient>
<radialGradient id="paint7_radial_5824_1571" cx="0" cy="0" r="1" gradientUnits="userSpaceOnUse" gradientTransform="translate(185.38 202.366) rotate(-72.9387) scale(229.099 269.137)">
<stop stop-color="#0097FF"/>
<stop offset="1" stop-color="#023384"/>
</radialGradient>
<radialGradient id="paint8_radial_5824_1571" cx="0" cy="0" r="1" gradientUnits="userSpaceOnUse" gradientTransform="translate(185.38 202.366) rotate(-72.9387) scale(229.099 269.137)">
<stop stop-color="#0097FF"/>
<stop offset="1" stop-color="#023384"/>
</radialGradient>
<radialGradient id="paint9_radial_5824_1571" cx="0" cy="0" r="1" gradientUnits="userSpaceOnUse" gradientTransform="translate(185.38 202.366) rotate(-72.9387) scale(229.099 269.137)">
<stop stop-color="#0097FF"/>
<stop offset="1" stop-color="#023384"/>
</radialGradient>
<radialGradient id="paint10_radial_5824_1571" cx="0" cy="0" r="1" gradientUnits="userSpaceOnUse" gradientTransform="translate(185.38 202.366) rotate(-72.9387) scale(229.099 269.137)">
<stop stop-color="#0097FF"/>
<stop offset="1" stop-color="#023384"/>
</radialGradient>
<radialGradient id="paint11_radial_5824_1571" cx="0" cy="0" r="1" gradientUnits="userSpaceOnUse" gradientTransform="translate(185.38 202.366) rotate(-72.9387) scale(229.099 269.137)">
<stop stop-color="#0097FF"/>
<stop offset="1" stop-color="#023384"/>
</radialGradient>
<radialGradient id="paint12_radial_5824_1571" cx="0" cy="0" r="1" gradientUnits="userSpaceOnUse" gradientTransform="translate(185.38 202.366) rotate(-72.9387) scale(229.099 269.137)">
<stop stop-color="#0097FF"/>
<stop offset="1" stop-color="#023384"/>
</radialGradient>
<radialGradient id="paint13_radial_5824_1571" cx="0" cy="0" r="1" gradientUnits="userSpaceOnUse" gradientTransform="translate(185.38 202.366) rotate(-72.9387) scale(229.099 269.137)">
<stop stop-color="#0097FF"/>
<stop offset="1" stop-color="#023384"/>
</radialGradient>
<radialGradient id="paint14_radial_5824_1571" cx="0" cy="0" r="1" gradientUnits="userSpaceOnUse" gradientTransform="translate(185.38 202.366) rotate(-72.9387) scale(229.099 269.137)">
<stop stop-color="#0097FF"/>
<stop offset="1" stop-color="#023384"/>
</radialGradient>
<radialGradient id="paint15_radial_5824_1571" cx="0" cy="0" r="1" gradientUnits="userSpaceOnUse" gradientTransform="translate(185.38 202.366) rotate(-72.9387) scale(229.099 269.137)">
<stop stop-color="#0097FF"/>
<stop offset="1" stop-color="#023384"/>
</radialGradient>
<radialGradient id="paint16_radial_5824_1571" cx="0" cy="0" r="1" gradientUnits="userSpaceOnUse" gradientTransform="translate(185.38 202.366) rotate(-72.9387) scale(229.099 269.137)">
<stop stop-color="#0097FF"/>
<stop offset="1" stop-color="#023384"/>
</radialGradient>
<radialGradient id="paint17_radial_5824_1571" cx="0" cy="0" r="1" gradientUnits="userSpaceOnUse" gradientTransform="translate(185.38 202.366) rotate(-72.9387) scale(229.099 269.137)">
<stop stop-color="#0097FF"/>
<stop offset="1" stop-color="#023384"/>
</radialGradient>
<radialGradient id="paint18_radial_5824_1571" cx="0" cy="0" r="1" gradientUnits="userSpaceOnUse" gradientTransform="translate(185.38 202.366) rotate(-72.9387) scale(229.099 269.137)">
<stop stop-color="#0097FF"/>
<stop offset="1" stop-color="#023384"/>
</radialGradient>
<radialGradient id="paint19_radial_5824_1571" cx="0" cy="0" r="1" gradientUnits="userSpaceOnUse" gradientTransform="translate(185.38 202.366) rotate(-72.9387) scale(229.099 269.137)">
<stop stop-color="#0097FF"/>
<stop offset="1" stop-color="#023384"/>
</radialGradient>
<radialGradient id="paint20_radial_5824_1571" cx="0" cy="0" r="1" gradientUnits="userSpaceOnUse" gradientTransform="translate(185.38 202.366) rotate(-72.9387) scale(229.099 269.137)">
<stop stop-color="#0097FF"/>
<stop offset="1" stop-color="#023384"/>
</radialGradient>
<radialGradient id="paint21_radial_5824_1571" cx="0" cy="0" r="1" gradientUnits="userSpaceOnUse" gradientTransform="translate(185.38 202.366) rotate(-72.9387) scale(229.099 269.137)">
<stop stop-color="#0097FF"/>
<stop offset="1" stop-color="#023384"/>
</radialGradient>
<radialGradient id="paint22_radial_5824_1571" cx="0" cy="0" r="1" gradientUnits="userSpaceOnUse" gradientTransform="translate(185.38 202.366) rotate(-72.9387) scale(229.099 269.137)">
<stop stop-color="#0097FF"/>
<stop offset="1" stop-color="#023384"/>
</radialGradient>
<radialGradient id="paint23_radial_5824_1571" cx="0" cy="0" r="1" gradientUnits="userSpaceOnUse" gradientTransform="translate(185.38 202.366) rotate(-72.9387) scale(229.099 269.137)">
<stop stop-color="#0097FF"/>
<stop offset="1" stop-color="#023384"/>
</radialGradient>
<radialGradient id="paint24_radial_5824_1571" cx="0" cy="0" r="1" gradientUnits="userSpaceOnUse" gradientTransform="translate(185.38 202.366) rotate(-72.9387) scale(229.099 269.137)">
<stop stop-color="#0097FF"/>
<stop offset="1" stop-color="#023384"/>
</radialGradient>
<radialGradient id="paint25_radial_5824_1571" cx="0" cy="0" r="1" gradientUnits="userSpaceOnUse" gradientTransform="translate(185.38 202.366) rotate(-72.9387) scale(229.099 269.137)">
<stop stop-color="#0097FF"/>
<stop offset="1" stop-color="#023384"/>
</radialGradient>
<radialGradient id="paint26_radial_5824_1571" cx="0" cy="0" r="1" gradientUnits="userSpaceOnUse" gradientTransform="translate(185.38 202.366) rotate(-72.9387) scale(229.099 269.137)">
<stop stop-color="#0097FF"/>
<stop offset="1" stop-color="#023384"/>
</radialGradient>
<radialGradient id="paint27_radial_5824_1571" cx="0" cy="0" r="1" gradientUnits="userSpaceOnUse" gradientTransform="translate(185.38 202.366) rotate(-72.9387) scale(229.099 269.137)">
<stop stop-color="#0097FF"/>
<stop offset="1" stop-color="#023384"/>
</radialGradient>
<radialGradient id="paint28_radial_5824_1571" cx="0" cy="0" r="1" gradientUnits="userSpaceOnUse" gradientTransform="translate(185.38 202.366) rotate(-72.9387) scale(229.099 269.137)">
<stop stop-color="#0097FF"/>
<stop offset="1" stop-color="#023384"/>
</radialGradient>
<radialGradient id="paint29_radial_5824_1571" cx="0" cy="0" r="1" gradientUnits="userSpaceOnUse" gradientTransform="translate(185.38 202.366) rotate(-72.9387) scale(229.099 269.137)">
<stop stop-color="#0097FF"/>
<stop offset="1" stop-color="#023384"/>
</radialGradient>
<radialGradient id="paint30_radial_5824_1571" cx="0" cy="0" r="1" gradientUnits="userSpaceOnUse" gradientTransform="translate(185.38 202.366) rotate(-72.9387) scale(229.099 269.137)">
<stop stop-color="#0097FF"/>
<stop offset="1" stop-color="#023384"/>
</radialGradient>
<radialGradient id="paint31_radial_5824_1571" cx="0" cy="0" r="1" gradientUnits="userSpaceOnUse" gradientTransform="translate(185.38 202.366) rotate(-72.9387) scale(229.099 269.137)">
<stop stop-color="#0097FF"/>
<stop offset="1" stop-color="#023384"/>
</radialGradient>
<radialGradient id="paint32_radial_5824_1571" cx="0" cy="0" r="1" gradientUnits="userSpaceOnUse" gradientTransform="translate(185.38 202.366) rotate(-72.9387) scale(229.099 269.137)">
<stop stop-color="#0097FF"/>
<stop offset="1" stop-color="#023384"/>
</radialGradient>
<radialGradient id="paint33_radial_5824_1571" cx="0" cy="0" r="1" gradientUnits="userSpaceOnUse" gradientTransform="translate(185.38 202.366) rotate(-72.9387) scale(229.099 269.137)">
<stop stop-color="#0097FF"/>
<stop offset="1" stop-color="#023384"/>
</radialGradient>
<radialGradient id="paint34_radial_5824_1571" cx="0" cy="0" r="1" gradientUnits="userSpaceOnUse" gradientTransform="translate(185.38 202.366) rotate(-72.9387) scale(229.099 269.137)">
<stop stop-color="#0097FF"/>
<stop offset="1" stop-color="#023384"/>
</radialGradient>
<radialGradient id="paint35_radial_5824_1571" cx="0" cy="0" r="1" gradientUnits="userSpaceOnUse" gradientTransform="translate(185.38 202.366) rotate(-72.9387) scale(229.099 269.137)">
<stop stop-color="#0097FF"/>
<stop offset="1" stop-color="#023384"/>
</radialGradient>
<radialGradient id="paint36_radial_5824_1571" cx="0" cy="0" r="1" gradientUnits="userSpaceOnUse" gradientTransform="translate(185.38 202.366) rotate(-72.9387) scale(229.099 269.137)">
<stop stop-color="#0097FF"/>
<stop offset="1" stop-color="#023384"/>
</radialGradient>
<radialGradient id="paint37_radial_5824_1571" cx="0" cy="0" r="1" gradientUnits="userSpaceOnUse" gradientTransform="translate(185.38 202.366) rotate(-72.9387) scale(229.099 269.137)">
<stop stop-color="#0097FF"/>
<stop offset="1" stop-color="#023384"/>
</radialGradient>
<radialGradient id="paint38_radial_5824_1571" cx="0" cy="0" r="1" gradientUnits="userSpaceOnUse" gradientTransform="translate(185.38 202.366) rotate(-72.9387) scale(229.099 269.137)">
<stop stop-color="#0097FF"/>
<stop offset="1" stop-color="#023384"/>
</radialGradient>
<radialGradient id="paint39_radial_5824_1571" cx="0" cy="0" r="1" gradientUnits="userSpaceOnUse" gradientTransform="translate(185.38 202.366) rotate(-72.9387) scale(229.099 269.137)">
<stop stop-color="#0097FF"/>
<stop offset="1" stop-color="#023384"/>
</radialGradient>
<radialGradient id="paint40_radial_5824_1571" cx="0" cy="0" r="1" gradientUnits="userSpaceOnUse" gradientTransform="translate(185.38 202.366) rotate(-72.9387) scale(229.099 269.137)">
<stop stop-color="#0097FF"/>
<stop offset="1" stop-color="#023384"/>
</radialGradient>
<radialGradient id="paint41_radial_5824_1571" cx="0" cy="0" r="1" gradientUnits="userSpaceOnUse" gradientTransform="translate(185.38 202.366) rotate(-72.9387) scale(229.099 269.137)">
<stop stop-color="#0097FF"/>
<stop offset="1" stop-color="#023384"/>
</radialGradient>
<radialGradient id="paint42_radial_5824_1571" cx="0" cy="0" r="1" gradientUnits="userSpaceOnUse" gradientTransform="translate(185.38 202.366) rotate(-72.9387) scale(229.099 269.137)">
<stop stop-color="#0097FF"/>
<stop offset="1" stop-color="#023384"/>
</radialGradient>
<radialGradient id="paint43_radial_5824_1571" cx="0" cy="0" r="1" gradientUnits="userSpaceOnUse" gradientTransform="translate(185.38 202.366) rotate(-72.9387) scale(229.099 269.137)">
<stop stop-color="#0097FF"/>
<stop offset="1" stop-color="#023384"/>
</radialGradient>
<radialGradient id="paint44_radial_5824_1571" cx="0" cy="0" r="1" gradientUnits="userSpaceOnUse" gradientTransform="translate(185.38 202.366) rotate(-72.9387) scale(229.099 269.137)">
<stop stop-color="#0097FF"/>
<stop offset="1" stop-color="#023384"/>
</radialGradient>
<radialGradient id="paint45_radial_5824_1571" cx="0" cy="0" r="1" gradientUnits="userSpaceOnUse" gradientTransform="translate(185.38 202.366) rotate(-72.9387) scale(229.099 269.137)">
<stop stop-color="#0097FF"/>
<stop offset="1" stop-color="#023384"/>
</radialGradient>
<radialGradient id="paint46_radial_5824_1571" cx="0" cy="0" r="1" gradientUnits="userSpaceOnUse" gradientTransform="translate(185.38 202.366) rotate(-72.9387) scale(229.099 269.137)">
<stop stop-color="#0097FF"/>
<stop offset="1" stop-color="#023384"/>
</radialGradient>
<radialGradient id="paint47_radial_5824_1571" cx="0" cy="0" r="1" gradientUnits="userSpaceOnUse" gradientTransform="translate(185.38 202.366) rotate(-72.9387) scale(229.099 269.137)">
<stop stop-color="#0097FF"/>
<stop offset="1" stop-color="#023384"/>
</radialGradient>
<radialGradient id="paint48_radial_5824_1571" cx="0" cy="0" r="1" gradientUnits="userSpaceOnUse" gradientTransform="translate(185.38 202.366) rotate(-72.9387) scale(229.099 269.137)">
<stop stop-color="#0097FF"/>
<stop offset="1" stop-color="#023384"/>
</radialGradient>
<radialGradient id="paint49_radial_5824_1571" cx="0" cy="0" r="1" gradientUnits="userSpaceOnUse" gradientTransform="translate(185.38 202.366) rotate(-72.9387) scale(229.099 269.137)">
<stop stop-color="#0097FF"/>
<stop offset="1" stop-color="#023384"/>
</radialGradient>
<radialGradient id="paint50_radial_5824_1571" cx="0" cy="0" r="1" gradientUnits="userSpaceOnUse" gradientTransform="translate(185.38 202.366) rotate(-72.9387) scale(229.099 269.137)">
<stop stop-color="#0097FF"/>
<stop offset="1" stop-color="#023384"/>
</radialGradient>
<radialGradient id="paint51_radial_5824_1571" cx="0" cy="0" r="1" gradientUnits="userSpaceOnUse" gradientTransform="translate(185.38 202.366) rotate(-72.9387) scale(229.099 269.137)">
<stop stop-color="#0097FF"/>
<stop offset="1" stop-color="#023384"/>
</radialGradient>
<radialGradient id="paint52_radial_5824_1571" cx="0" cy="0" r="1" gradientUnits="userSpaceOnUse" gradientTransform="translate(185.38 202.366) rotate(-72.9387) scale(229.099 269.137)">
<stop stop-color="#0097FF"/>
<stop offset="1" stop-color="#023384"/>
</radialGradient>
<radialGradient id="paint53_radial_5824_1571" cx="0" cy="0" r="1" gradientUnits="userSpaceOnUse" gradientTransform="translate(185.38 202.366) rotate(-72.9387) scale(229.099 269.137)">
<stop stop-color="#0097FF"/>
<stop offset="1" stop-color="#023384"/>
</radialGradient>
<radialGradient id="paint54_radial_5824_1571" cx="0" cy="0" r="1" gradientUnits="userSpaceOnUse" gradientTransform="translate(185.38 202.366) rotate(-72.9387) scale(229.099 269.137)">
<stop stop-color="#0097FF"/>
<stop offset="1" stop-color="#023384"/>
</radialGradient>
<radialGradient id="paint55_radial_5824_1571" cx="0" cy="0" r="1" gradientUnits="userSpaceOnUse" gradientTransform="translate(185.38 202.366) rotate(-72.9387) scale(229.099 269.137)">
<stop stop-color="#0097FF"/>
<stop offset="1" stop-color="#023384"/>
</radialGradient>
<radialGradient id="paint56_radial_5824_1571" cx="0" cy="0" r="1" gradientUnits="userSpaceOnUse" gradientTransform="translate(185.38 202.366) rotate(-72.9387) scale(229.099 269.137)">
<stop stop-color="#0097FF"/>
<stop offset="1" stop-color="#023384"/>
</radialGradient>
<radialGradient id="paint57_radial_5824_1571" cx="0" cy="0" r="1" gradientUnits="userSpaceOnUse" gradientTransform="translate(185.38 202.366) rotate(-72.9387) scale(229.099 269.137)">
<stop stop-color="#0097FF"/>
<stop offset="1" stop-color="#023384"/>
</radialGradient>
<radialGradient id="paint58_radial_5824_1571" cx="0" cy="0" r="1" gradientUnits="userSpaceOnUse" gradientTransform="translate(185.38 202.366) rotate(-72.9387) scale(229.099 269.137)">
<stop stop-color="#0097FF"/>
<stop offset="1" stop-color="#023384"/>
</radialGradient>
<radialGradient id="paint59_radial_5824_1571" cx="0" cy="0" r="1" gradientUnits="userSpaceOnUse" gradientTransform="translate(185.38 202.366) rotate(-72.9387) scale(229.099 269.137)">
<stop stop-color="#0097FF"/>
<stop offset="1" stop-color="#023384"/>
</radialGradient>
<radialGradient id="paint60_radial_5824_1571" cx="0" cy="0" r="1" gradientUnits="userSpaceOnUse" gradientTransform="translate(185.38 202.366) rotate(-72.9387) scale(229.099 269.137)">
<stop stop-color="#0097FF"/>
<stop offset="1" stop-color="#023384"/>
</radialGradient>
<radialGradient id="paint61_radial_5824_1571" cx="0" cy="0" r="1" gradientUnits="userSpaceOnUse" gradientTransform="translate(185.38 202.366) rotate(-72.9387) scale(229.099 269.137)">
<stop stop-color="#0097FF"/>
<stop offset="1" stop-color="#023384"/>
</radialGradient>
<radialGradient id="paint62_radial_5824_1571" cx="0" cy="0" r="1" gradientUnits="userSpaceOnUse" gradientTransform="translate(185.38 202.366) rotate(-72.9387) scale(229.099 269.137)">
<stop stop-color="#0097FF"/>
<stop offset="1" stop-color="#023384"/>
</radialGradient>
<radialGradient id="paint63_radial_5824_1571" cx="0" cy="0" r="1" gradientUnits="userSpaceOnUse" gradientTransform="translate(185.38 202.366) rotate(-72.9387) scale(229.099 269.137)">
<stop stop-color="#0097FF"/>
<stop offset="1" stop-color="#023384"/>
</radialGradient>
<radialGradient id="paint64_radial_5824_1571" cx="0" cy="0" r="1" gradientUnits="userSpaceOnUse" gradientTransform="translate(185.38 202.366) rotate(-72.9387) scale(229.099 269.137)">
<stop stop-color="#0097FF"/>
<stop offset="1" stop-color="#023384"/>
</radialGradient>
<radialGradient id="paint65_radial_5824_1571" cx="0" cy="0" r="1" gradientUnits="userSpaceOnUse" gradientTransform="translate(185.38 202.366) rotate(-72.9387) scale(229.099 269.137)">
<stop stop-color="#0097FF"/>
<stop offset="1" stop-color="#023384"/>
</radialGradient>
<radialGradient id="paint66_radial_5824_1571" cx="0" cy="0" r="1" gradientUnits="userSpaceOnUse" gradientTransform="translate(185.38 202.366) rotate(-72.9387) scale(229.099 269.137)">
<stop stop-color="#0097FF"/>
<stop offset="1" stop-color="#023384"/>
</radialGradient>
<radialGradient id="paint67_radial_5824_1571" cx="0" cy="0" r="1" gradientUnits="userSpaceOnUse" gradientTransform="translate(185.38 202.366) rotate(-72.9387) scale(229.099 269.137)">
<stop stop-color="#0097FF"/>
<stop offset="1" stop-color="#023384"/>
</radialGradient>
<radialGradient id="paint68_radial_5824_1571" cx="0" cy="0" r="1" gradientUnits="userSpaceOnUse" gradientTransform="translate(185.38 202.366) rotate(-72.9387) scale(229.099 269.137)">
<stop stop-color="#0097FF"/>
<stop offset="1" stop-color="#023384"/>
</radialGradient>
<radialGradient id="paint69_radial_5824_1571" cx="0" cy="0" r="1" gradientUnits="userSpaceOnUse" gradientTransform="translate(185.38 202.366) rotate(-72.9387) scale(229.099 269.137)">
<stop stop-color="#0097FF"/>
<stop offset="1" stop-color="#023384"/>
</radialGradient>
<radialGradient id="paint70_radial_5824_1571" cx="0" cy="0" r="1" gradientUnits="userSpaceOnUse" gradientTransform="translate(185.38 202.366) rotate(-72.9387) scale(229.099 269.137)">
<stop stop-color="#0097FF"/>
<stop offset="1" stop-color="#023384"/>
</radialGradient>
<radialGradient id="paint71_radial_5824_1571" cx="0" cy="0" r="1" gradientUnits="userSpaceOnUse" gradientTransform="translate(185.38 202.366) rotate(-72.9387) scale(229.099 269.137)">
<stop stop-color="#0097FF"/>
<stop offset="1" stop-color="#023384"/>
</radialGradient>
<radialGradient id="paint72_radial_5824_1571" cx="0" cy="0" r="1" gradientUnits="userSpaceOnUse" gradientTransform="translate(185.38 202.366) rotate(-72.9387) scale(229.099 269.137)">
<stop stop-color="#0097FF"/>
<stop offset="1" stop-color="#023384"/>
</radialGradient>
<radialGradient id="paint73_radial_5824_1571" cx="0" cy="0" r="1" gradientUnits="userSpaceOnUse" gradientTransform="translate(185.38 202.366) rotate(-72.9387) scale(229.099 269.137)">
<stop stop-color="#0097FF"/>
<stop offset="1" stop-color="#023384"/>
</radialGradient>
<radialGradient id="paint74_radial_5824_1571" cx="0" cy="0" r="1" gradientUnits="userSpaceOnUse" gradientTransform="translate(185.38 202.366) rotate(-72.9387) scale(229.099 269.137)">
<stop stop-color="#0097FF"/>
<stop offset="1" stop-color="#023384"/>
</radialGradient>
<linearGradient id="paint75_linear_5824_1571" x1="195.745" y1="241.102" x2="195.745" y2="106.372" gradientUnits="userSpaceOnUse">
<stop stop-color="#023C78"/>
<stop offset="1" stop-color="#004A98"/>
</linearGradient>
<linearGradient id="paint76_linear_5824_1571" x1="195.742" y1="242.52" x2="195.742" y2="104.921" gradientUnits="userSpaceOnUse">
<stop stop-color="#1191DA"/>
<stop offset="1" stop-color="#CFE7FF"/>
</linearGradient>
<linearGradient id="paint77_linear_5824_1571" x1="195.743" y1="232.957" x2="195.743" y2="114.473" gradientUnits="userSpaceOnUse">
<stop stop-color="#1191DA"/>
<stop offset="1" stop-color="#CFE7FF"/>
</linearGradient>
<linearGradient id="paint78_linear_5824_1571" x1="195.742" y1="205.547" x2="195.742" y2="141.895" gradientUnits="userSpaceOnUse">
<stop stop-color="#1191DA"/>
<stop offset="1" stop-color="#CFE7FF"/>
</linearGradient>
<linearGradient id="paint79_linear_5824_1571" x1="246.563" y1="228.145" x2="246.563" y2="220.625" gradientUnits="userSpaceOnUse">
<stop stop-color="#1191DA"/>
<stop offset="1" stop-color="#CFE7FF"/>
</linearGradient>
<linearGradient id="paint80_linear_5824_1571" x1="148.423" y1="131.656" x2="148.423" y2="120.218" gradientUnits="userSpaceOnUse">
<stop stop-color="#1191DA"/>
<stop offset="1" stop-color="#CFE7FF"/>
</linearGradient>
<linearGradient id="paint81_linear_5824_1571" x1="146.557" y1="141.641" x2="146.557" y2="133.922" gradientUnits="userSpaceOnUse">
<stop stop-color="#1191DA"/>
<stop offset="1" stop-color="#CFE7FF"/>
</linearGradient>
<linearGradient id="paint82_linear_5824_1571" x1="78.6846" y1="205.993" x2="50.5494" y2="206.071" gradientUnits="userSpaceOnUse">
<stop stop-color="#284F6D"/>
<stop offset="0.25" stop-color="#5F7C93"/>
<stop offset="0.5" stop-color="white"/>
<stop offset="0.75" stop-color="#4EA2E7"/>
<stop offset="1" stop-color="#0352A8"/>
</linearGradient>
</defs>
</svg>
