<svg width="65" height="65" viewBox="0 0 65 65" fill="none" xmlns="http://www.w3.org/2000/svg">
<g clip-path="url(#clip0_2079_334)">
<path d="M58.7868 0H6.21324C2.78176 0 0 2.75141 0 6.14545V58.8545C0 62.2486 2.78176 65 6.21324 65H58.7868C62.2182 65 65 62.2486 65 58.8545V6.14545C65 2.75141 62.2182 0 58.7868 0Z" fill="white"/>
<path d="M20.396 55.0922V57.3266C18.89 58.1392 17.1512 58.5455 15.1797 58.5455C13.5779 58.5455 12.219 58.2271 11.1032 57.5906C9.9874 56.9543 9.10433 56.0774 8.45399 54.9603C7.80368 53.843 7.47852 52.6345 7.47852 51.3345C7.47852 49.2694 8.22124 47.5326 9.70673 46.1243C11.199 44.7158 13.0371 44.0117 15.2208 44.0117C16.7268 44.0117 18.4005 44.401 20.242 45.1798V47.3634C18.5648 46.4153 16.9253 45.9414 15.3235 45.9414C13.6805 45.9414 12.3149 46.456 11.2264 47.4853C10.1448 48.5076 9.60404 49.7906 9.60404 51.3345C9.60404 52.8917 10.138 54.1713 11.2059 55.1735C12.2738 56.1755 13.6395 56.6766 15.3029 56.6766C17.0417 56.6766 18.7394 56.1485 20.396 55.0922ZM22.3116 44.1947H24.3654V58.3829H22.3116V44.1947ZM30.6807 52.4312L29.12 51.4969C28.1409 50.9079 27.4429 50.329 27.0251 49.7603C26.6143 49.1848 26.4091 48.5246 26.4091 47.7798C26.4091 46.6625 26.7993 45.7554 27.5796 45.0579C28.367 44.3604 29.3869 44.0117 30.6396 44.0117C31.8375 44.0117 32.9363 44.3436 33.9357 45.007V47.3125C32.9021 46.3307 31.7897 45.84 30.5985 45.84C29.9277 45.84 29.3766 45.9955 28.9453 46.307C28.5142 46.6117 28.2984 47.0046 28.2984 47.4853C28.2984 47.9117 28.4559 48.3112 28.7708 48.6837C29.0858 49.056 29.5957 49.4455 30.3007 49.8516L31.8717 50.7656C33.6243 51.7949 34.5004 53.1084 34.5004 54.7062C34.5004 55.8438 34.1137 56.768 33.3402 57.479C32.5736 58.19 31.5739 58.5455 30.3418 58.5455C28.9247 58.5455 27.6345 58.1153 26.4707 57.2554V54.6757C27.5796 56.0639 28.8633 56.7579 30.3213 56.7579C30.9648 56.7579 31.4987 56.5818 31.9231 56.2298C32.3544 55.8708 32.57 55.4241 32.57 54.8892C32.57 54.0224 31.9403 53.2032 30.6807 52.4312ZM39.6815 52.4312L38.1205 51.4969C37.1417 50.9079 36.4435 50.329 36.026 49.7603C35.6152 49.1848 35.4099 48.5246 35.4099 47.7798C35.4099 46.6625 35.8001 45.7554 36.5804 45.0579C37.3675 44.3604 38.3877 44.0117 39.6404 44.0117C40.8384 44.0117 41.9371 44.3436 42.9365 45.007V47.3125C41.9027 46.3307 40.7903 45.84 39.5993 45.84C38.9285 45.84 38.3774 45.9955 37.9461 46.307C37.5148 46.6117 37.2992 47.0046 37.2992 47.4853C37.2992 47.9117 37.4567 48.3112 37.7716 48.6837C38.0864 49.056 38.5963 49.4455 39.3015 49.8516L40.8725 50.7656C42.6249 51.7949 43.5012 53.1084 43.5012 54.7062C43.5012 55.8438 43.1146 56.768 42.341 57.479C41.5741 58.19 40.5748 58.5455 39.3426 58.5455C37.9255 58.5455 36.6351 58.1153 35.4716 57.2554V54.6757C36.5804 56.0639 37.8639 56.7579 39.3221 56.7579C39.9656 56.7579 40.4995 56.5818 40.9239 56.2298C41.3553 55.8708 41.5708 55.4241 41.5708 54.8892C41.5708 54.0224 40.9411 53.2032 39.6815 52.4312ZM44.8062 58.3829V44.1743H49.355C50.7241 44.1743 51.8159 44.54 52.6306 45.2711C53.4453 46.0024 53.8525 46.9842 53.8525 48.2164C53.8525 49.0425 53.6436 49.7738 53.2261 50.4103C52.8086 51.0466 52.237 51.5104 51.5113 51.8016C50.7857 52.0859 49.7453 52.2282 48.3898 52.2282H46.87V58.3829H44.8062ZM48.9956 45.982H46.87V50.4202H49.1187C49.9539 50.4202 50.5974 50.2274 51.0493 49.8414C51.501 49.4488 51.7271 48.8903 51.7271 48.1656C51.7271 46.71 50.8166 45.982 48.9956 45.982Z" fill="#0157B8"/>
</g>
<defs>
<clipPath id="clip0_2079_334">
<rect width="65" height="65" fill="white"/>
</clipPath>
</defs>
</svg>
