<svg width="76" height="65" viewBox="0 0 76 65" fill="none" xmlns="http://www.w3.org/2000/svg">
<g clip-path="url(#clip0_2108_1187)">
<path d="M6.75771 64.9352C6.70815 64.9352 6.6751 64.9352 6.62554 64.9352C6.26206 64.8682 5.89858 64.8179 5.5351 64.7341C2.79249 64.0305 0.67771 61.7354 0.182058 58.9042C0.149014 58.72 0.132493 58.5189 0.0994492 58.3346C0.132493 58.1839 0.0664062 58.0499 0.0664062 57.8991C0.0664062 57.8488 0.0664062 57.7818 0.0664062 57.7316C0.0664062 57.5975 0.0664062 57.4803 0.0664062 57.3462C0.0664062 40.6942 0.0664062 24.0254 0.0664062 7.37331C0.0664062 7.3398 0.0664062 7.3063 0.0664062 7.27279C0.0664062 7.12202 0.132493 6.988 0.0994492 6.83723C0.0829275 6.78697 0.0829275 6.71996 0.0994492 6.6697C0.462927 3.57047 2.59423 1.07434 5.5351 0.286968C5.89858 0.186452 6.26206 0.136195 6.62554 0.0859375C6.69162 0.0859375 6.75771 0.0859375 6.84032 0.0859375C6.88988 0.0859375 6.95597 0.0859375 7.00554 0.0859375C7.07162 0.0859375 7.15423 0.0859375 7.22032 0.0859375C23.8081 0.0859375 40.396 0.0859375 56.9838 0.0859375C57.0499 0.0859375 57.116 0.0859375 57.1821 0.0859375C57.2316 0.0859375 57.2977 0.0859375 57.3473 0.0859375C57.4134 0.0859375 57.4795 0.0859375 57.5621 0.0859375C60.7012 0.437742 63.196 2.68259 63.9395 5.79857C64.0716 6.36815 64.1377 6.95449 64.1377 7.54083C64.1377 15.1968 64.1377 22.8527 64.1377 30.4919C64.1377 30.9609 64.1377 31.4133 64.1377 31.8823C64.0882 31.9996 63.989 32.0163 63.8899 32.0666C62.9151 32.5357 61.9899 33.0718 61.0977 33.6916C60.0568 34.412 59.0655 35.1993 58.1403 36.0705C57.5786 36.5898 57.0499 37.1259 56.5377 37.6787C55.6621 38.6336 54.8195 39.6388 54.0264 40.6774C52.8368 42.2522 51.7464 43.8939 50.7881 45.6362C49.9621 47.1439 49.2682 48.7019 48.7064 50.3269C48.1777 51.8346 47.7812 53.3759 47.5334 54.9674C47.4177 55.738 47.3351 56.5086 47.2855 57.2792C47.2525 57.8321 47.269 58.3849 47.2525 58.9377C47.236 59.189 47.3021 59.4403 47.3021 59.6916C47.3021 59.7754 47.2855 59.8926 47.4012 59.9261C47.5168 59.9429 47.5664 59.8424 47.5995 59.7586C47.7151 59.5241 47.8473 59.3063 47.9795 59.0885C48.8551 57.5305 49.8134 56.0395 50.8377 54.5821C51.7795 53.2251 52.7708 51.9017 53.8281 50.6285C54.489 49.8243 55.1664 49.037 55.8934 48.2999C56.2073 47.9816 56.4881 47.6465 56.8021 47.3282C58.4212 45.7535 60.1064 44.2792 61.9899 43.0228C62.6177 42.604 63.229 42.1852 63.8734 41.7999C63.9395 41.7496 64.0221 41.6658 64.1212 41.7328C64.1212 41.7999 64.1212 41.8669 64.1212 41.9339C64.1212 47.0769 64.1212 52.2367 64.1212 57.3797C64.1212 58.854 63.7908 60.2612 62.9977 61.5176C61.7916 63.4274 60.0734 64.5666 57.8595 64.9352C57.7273 64.9519 57.6116 64.9687 57.4795 64.9854C57.4134 64.9854 57.3473 64.9854 57.2647 64.9854C57.1986 64.9854 57.116 64.9854 57.0499 64.9854C56.9342 64.9854 56.8186 64.9854 56.7029 64.9854C40.2473 64.9854 23.7916 64.9854 7.31945 64.9854C7.25336 64.9854 7.18728 64.9854 7.12119 64.9854C7.0551 64.9854 6.97249 64.9854 6.90641 64.9854C6.87336 64.9352 6.80728 64.9352 6.75771 64.9352Z" fill="white"/>
<path d="M64.1046 41.6643C64.0385 41.6643 63.9889 41.7145 63.9393 41.748C62.0889 42.904 60.3046 44.1436 58.6689 45.5844C57.3802 46.7235 56.1741 47.9465 55.0341 49.2364C52.9689 51.565 51.1185 54.0779 49.4333 56.7081C48.8054 57.6965 48.1941 58.7016 47.6324 59.7403C47.6159 59.7738 47.5993 59.8241 47.5663 59.8576C47.5167 59.9246 47.4506 59.9748 47.368 59.9413C47.2854 59.9078 47.2524 59.8576 47.2359 59.757C47.2193 59.556 47.2028 59.355 47.2028 59.1539C47.1698 58.1488 47.2028 57.1604 47.3019 56.1552C47.6159 53.1733 48.4585 50.3421 49.6976 47.6114C50.8706 45.0315 52.3576 42.6527 54.0759 40.4246C55.1333 39.0509 56.2567 37.7442 57.4793 36.538C59.4124 34.6449 61.5602 33.0534 64.0054 31.8807C64.0385 31.864 64.0715 31.8472 64.1046 31.8305C64.3854 31.7132 64.6498 31.596 64.9306 31.4787C66.0541 31.0096 67.1941 30.6578 68.3837 30.4065C68.9124 30.2893 69.4576 30.2222 70.0028 30.1552C70.4324 30.105 70.8619 30.1887 71.275 30.3395C71.8037 30.5405 72.2663 30.8588 72.6959 31.2442C73.5715 32.0315 74.2489 32.9864 74.8437 33.9916C75.2402 34.6617 75.6037 35.3485 75.9011 36.0521C75.9176 36.0857 75.9176 36.1192 75.9341 36.1527C75.9341 36.2197 75.9341 36.3034 75.9341 36.3704C75.8019 36.471 75.6367 36.4542 75.488 36.4877C74.6454 36.6552 73.8359 36.9233 73.0263 37.2248C72.0019 37.5934 70.9941 38.0122 70.0193 38.4813C69.0446 38.9336 68.0698 39.4194 67.1115 39.922C66.1367 40.4413 65.162 40.9942 64.2202 41.5637C64.1706 41.614 64.1376 41.6475 64.1046 41.6643Z" fill="#094B94"/>
<path d="M46.7731 59.642C46.7731 59.7258 46.7897 59.7928 46.7897 59.8765C46.8062 59.977 46.7731 60.0608 46.674 60.1111C46.5749 60.1613 46.5088 60.0943 46.4592 60.0273C46.1949 59.6922 45.914 59.3572 45.6497 59.0221C44.2949 57.2464 43.1218 55.3701 42.081 53.3933C40.6931 50.7966 39.5366 48.0995 38.5618 45.3185C38.4131 44.883 38.2644 44.4306 38.1323 43.9951C38.1157 43.9281 38.0827 43.8611 38.0992 43.7773C38.1158 43.66 38.1984 43.6098 38.314 43.66C38.3801 43.6935 38.4297 43.7605 38.4958 43.8108C39.4375 44.7154 40.5114 45.4023 41.7505 45.8044C42.3288 45.9886 42.9236 46.1227 43.5349 46.1729C44.9392 46.3069 46.294 46.1394 47.6323 45.7541C48.6071 45.4693 49.5488 45.084 50.441 44.5814C50.5236 44.5312 50.6227 44.4809 50.7218 44.5647C50.8375 44.6484 50.854 44.6987 50.7879 44.816C50.7053 44.95 50.6227 45.084 50.5401 45.218C49.4497 46.9268 48.6731 48.7696 48.0949 50.7129C47.814 51.651 47.5827 52.6059 47.401 53.5776C47.2523 54.3649 47.1201 55.1691 47.0375 55.9564C46.9218 57.0118 46.8227 58.0672 46.8227 59.1394C46.7897 59.3069 46.7731 59.4745 46.7731 59.642Z" fill="#A1C4EC"/>
<path d="M22.5522 9.95288C22.5687 10.0199 22.6348 10.0199 22.6679 10.0366C23.0644 10.2544 23.2957 10.6062 23.3783 11.0418C23.4609 11.4606 23.3948 11.8627 23.2131 12.248C22.9322 12.8343 22.42 13.0856 21.8087 13.1694C21.5774 13.2029 21.3296 13.2029 21.0818 13.2029C20.3383 13.2029 19.5948 13.2029 18.8513 13.2029C18.8018 13.2029 18.7522 13.2029 18.7026 13.2029C18.6366 13.2029 18.6035 13.1694 18.6035 13.1024C18.6035 13.0521 18.6035 13.0186 18.6035 12.9683C18.6035 11.0753 18.6035 9.19902 18.6035 7.30598C18.6035 7.25572 18.6035 7.22221 18.6035 7.17196C18.6035 7.08819 18.6366 7.05469 18.7192 7.05469C18.7522 7.05469 18.7853 7.05469 18.8183 7.05469C19.6444 7.05469 20.4705 7.05469 21.2966 7.05469C21.5609 7.05469 21.8253 7.07144 22.0731 7.1552C22.9818 7.40649 23.4774 8.37814 23.1305 9.26603C23.0479 9.50056 22.8992 9.68484 22.7009 9.83561C22.6513 9.88587 22.6018 9.91938 22.5522 9.95288Z" fill="#0057B8"/>
<path d="M35.1087 13.1688C34.7122 13.1688 34.3322 13.1688 33.9357 13.1688C33.82 13.1688 33.787 13.1018 33.7539 13.0181C33.44 12.3815 33.1261 11.7449 32.8122 11.1083C32.7957 11.0748 32.7791 11.058 32.7791 11.0245C32.7461 10.9072 32.6635 10.857 32.5478 10.8737C32.2505 10.8905 31.9696 10.8737 31.6722 10.8737C31.4905 10.8737 31.4905 10.8737 31.4905 11.058C31.4905 11.6611 31.4905 12.2474 31.4905 12.8505C31.4905 12.9008 31.4905 12.9511 31.4905 13.0013C31.4905 13.1688 31.4905 13.1688 31.3252 13.1688C31.0278 13.1688 30.7305 13.1688 30.4331 13.1688C30.3174 13.1688 30.2844 13.1353 30.2844 13.0181C30.2844 12.9678 30.2844 12.9343 30.2844 12.884C30.2844 11.0245 30.2844 9.14822 30.2844 7.28868C30.2844 6.98713 30.2678 7.02064 30.5487 7.02064C31.3913 7.02064 32.2174 7.02064 33.06 7.02064C33.3078 7.02064 33.5391 7.03739 33.7705 7.1044C34.4809 7.27193 34.9435 7.79126 35.0591 8.51162C35.1583 9.13146 35.0591 9.6843 34.6626 10.1701C34.4974 10.3712 34.3157 10.5219 34.0844 10.6392C33.9522 10.7062 33.9522 10.723 34.0183 10.857C34.3487 11.5438 34.6626 12.2139 34.9931 12.9008C35.0591 13.0013 35.0922 13.0683 35.1087 13.1688Z" fill="#0057B8"/>
<path d="M29.7563 18.2794C29.7563 19.5693 29.7563 20.8258 29.7563 22.0655C29.7563 22.233 29.7563 22.233 29.5911 22.233C29.3267 22.233 29.0459 22.233 28.7815 22.233C28.6328 22.233 28.6328 22.233 28.6328 22.0655C28.6328 22.032 28.6328 21.9985 28.6328 21.965C28.6328 20.1054 28.6328 18.2459 28.6328 16.3864C28.6328 16.3696 28.6328 16.3361 28.6328 16.3193C28.6328 16.1016 28.6328 16.1016 28.8476 16.1016C29.0789 16.1016 29.3102 16.1016 29.525 16.1016C29.6572 16.1016 29.7232 16.1351 29.8059 16.2523C30.1859 16.8387 30.5824 17.4418 30.9789 18.0281C31.3259 18.5474 31.6563 19.05 32.0032 19.5693C32.1024 19.7034 32.185 19.8541 32.2841 20.0049C32.3006 19.9044 32.2676 19.8039 32.2676 19.7034C32.2676 18.5809 32.2676 17.4753 32.2676 16.3529C32.2676 16.3193 32.2676 16.2858 32.2676 16.2523C32.2676 16.1518 32.3006 16.1183 32.3998 16.1183C32.6972 16.1183 32.9946 16.1183 33.2919 16.1183C33.3746 16.1183 33.4076 16.1518 33.4076 16.2356C33.4076 16.2858 33.4076 16.3361 33.4076 16.3864C33.4076 18.2459 33.4076 20.1222 33.4076 21.9817C33.4076 22.2498 33.4241 22.2498 33.1598 22.2498C32.9615 22.2498 32.7467 22.2498 32.5485 22.2498C32.4163 22.2498 32.3502 22.1995 32.2676 22.099C31.805 21.3954 31.3259 20.675 30.8467 19.9714C30.5659 19.5526 30.285 19.1338 30.0041 18.715C29.938 18.5809 29.8554 18.4469 29.7563 18.2794Z" fill="#0057B8"/>
<path d="M24.7499 10.1037C24.7499 9.18227 24.7499 8.27763 24.7499 7.35623C24.7499 7.30598 24.7499 7.27247 24.7499 7.22221C24.7499 7.05469 24.7499 7.05469 24.9151 7.05469C26.1873 7.05469 27.443 7.05469 28.7151 7.05469C28.8638 7.05469 28.8804 7.05469 28.8804 7.20546C28.8804 7.45675 28.8804 7.72479 28.8804 7.97608C28.8804 8.16036 28.8804 8.16036 28.6821 8.16036C27.856 8.16036 27.0299 8.16036 26.2038 8.16036C25.8734 8.16036 25.9064 8.1101 25.9064 8.4619C25.9064 8.72995 25.9064 8.99799 25.9064 9.26603C25.9064 9.43355 25.9064 9.43355 26.0717 9.43355C26.5343 9.43355 26.9969 9.43355 27.4595 9.43355C27.6412 9.43355 27.6412 9.43355 27.6412 9.60108C27.6412 9.86912 27.6412 10.1372 27.6412 10.4052C27.6412 10.5225 27.6082 10.556 27.4925 10.556C27.063 10.556 26.6334 10.556 26.1873 10.556C26.1377 10.556 26.1047 10.556 26.0551 10.556C25.8899 10.556 25.8899 10.556 25.8899 10.7235C25.8899 11.0921 25.8899 11.4774 25.8899 11.8459C25.8899 12.0135 25.8899 12.0135 26.0717 12.0135C26.9638 12.0135 27.856 12.0135 28.7647 12.0135C28.8143 12.0135 28.8638 12.0135 28.9134 12.0135C28.996 12.0135 29.0291 12.047 29.0291 12.1307C29.0291 12.4323 29.0291 12.7338 29.0291 13.0354C29.0291 13.1024 28.996 13.1359 28.9299 13.1359C28.8804 13.1359 28.8473 13.1359 28.7977 13.1359C27.5256 13.1359 26.2369 13.1359 24.9647 13.1359C24.9482 13.1359 24.9317 13.1359 24.9151 13.1359C24.7334 13.1359 24.7334 13.1359 24.7334 12.9516C24.7499 12.0302 24.7499 11.0586 24.7499 10.1037Z" fill="#0057B8"/>
<path d="M23.0974 19.2013C23.0974 18.2799 23.0974 17.3418 23.0974 16.4204C23.0974 16.3701 23.0974 16.3199 23.0974 16.2696C23.0974 16.1859 23.1305 16.1523 23.2131 16.1523C23.2626 16.1523 23.2957 16.1523 23.3452 16.1523C24.5513 16.1523 25.7409 16.1523 26.947 16.1523C26.9635 16.1523 26.9965 16.1523 27.0131 16.1523C27.1948 16.1523 27.1948 16.1523 27.1948 16.3534C27.1948 16.5879 27.1948 16.8224 27.1948 17.0737C27.1948 17.2915 27.1948 17.2915 26.98 17.2915C26.1539 17.2915 25.3279 17.2915 24.5018 17.2915C24.4522 17.2915 24.4026 17.2915 24.3531 17.2915C24.2705 17.2915 24.2374 17.325 24.2374 17.4088C24.2374 17.7606 24.2374 18.0956 24.2374 18.4474C24.2374 18.5647 24.32 18.5647 24.4026 18.5647C24.8322 18.5647 25.2618 18.5647 25.6748 18.5647C26.0218 18.5647 25.9722 18.5145 25.9722 18.883C25.9722 19.084 25.9722 19.2683 25.9722 19.4694C25.9722 19.6871 25.9722 19.7039 25.7574 19.7039C25.3444 19.7039 24.9148 19.7039 24.5018 19.7039C24.4522 19.7039 24.4192 19.7039 24.3696 19.7039C24.2705 19.7039 24.2209 19.7206 24.2209 19.8379C24.2209 20.24 24.2209 20.642 24.2209 21.0441C24.2209 21.1279 24.2539 21.1781 24.3365 21.1781C24.3861 21.1781 24.4357 21.1781 24.4852 21.1781C25.3444 21.1781 26.22 21.1781 27.0792 21.1781C27.1287 21.1781 27.1783 21.1781 27.2279 21.1781C27.3105 21.1781 27.36 21.1949 27.36 21.2954C27.36 21.5969 27.36 21.8817 27.36 22.1833C27.36 22.267 27.327 22.3005 27.2444 22.3005C27.1948 22.3005 27.1618 22.3005 27.1122 22.3005C25.84 22.3005 24.5679 22.3005 23.2957 22.3005C23.2792 22.3005 23.2461 22.3005 23.2296 22.3005C23.0479 22.3005 23.0479 22.3005 23.0479 22.1163C23.0479 22.066 23.0479 22.0325 23.0479 21.9822C23.0974 21.0273 23.0974 20.1227 23.0974 19.2013Z" fill="#0057B8"/>
<path d="M6.70801 19.2013C6.70801 18.2799 6.70801 17.3585 6.70801 16.4371C6.70801 16.3869 6.70801 16.3366 6.70801 16.2864C6.70801 16.2026 6.74105 16.1523 6.82366 16.1523C6.87323 16.1523 6.90627 16.1523 6.95583 16.1523C8.16192 16.1523 9.36801 16.1523 10.5741 16.1523C10.6071 16.1523 10.6402 16.1523 10.6732 16.1523C10.7558 16.1523 10.8054 16.1691 10.8054 16.2696C10.8054 16.5712 10.8054 16.856 10.8054 17.1575C10.8054 17.2413 10.7724 17.2748 10.6897 17.2748C10.6402 17.2748 10.5906 17.2748 10.5411 17.2748C9.73149 17.2748 8.92192 17.2748 8.11236 17.2748C8.06279 17.2748 8.01322 17.2748 7.96366 17.2748C7.89757 17.2748 7.86453 17.3083 7.86453 17.3753C7.86453 17.7271 7.86453 18.0789 7.86453 18.4307C7.86453 18.5312 7.9141 18.5312 7.9967 18.5312C8.24453 18.5312 8.49236 18.5312 8.74018 18.5312C8.97149 18.5312 9.20279 18.5312 9.45062 18.5312C9.59931 18.5312 9.61583 18.548 9.61583 18.682C9.61583 18.95 9.61583 19.2348 9.61583 19.5029C9.61583 19.6201 9.56627 19.6536 9.46714 19.6536C9.02105 19.6536 8.57496 19.6536 8.12888 19.6536C8.07931 19.6536 8.02975 19.6536 7.98018 19.6536C7.9141 19.6536 7.88105 19.6871 7.88105 19.7541C7.88105 19.8379 7.88105 19.9049 7.88105 19.9887C7.88105 20.2902 7.88105 20.5918 7.88105 20.8933C7.88105 21.1111 7.88105 21.1111 8.11236 21.1111C8.97149 21.1111 9.83062 21.1111 10.6897 21.1111C10.7393 21.1111 10.7724 21.1111 10.8219 21.1111C11.0037 21.1111 11.0037 21.1111 11.0037 21.3121C11.0037 21.5802 11.0037 21.8482 11.0037 22.1163C11.0037 22.2 10.9706 22.2503 10.888 22.2503C10.8384 22.2503 10.8054 22.2503 10.7558 22.2503C9.50018 22.2503 8.24453 22.2503 6.98888 22.2503C6.93931 22.2503 6.88975 22.2503 6.84018 22.2503C6.75757 22.2503 6.72453 22.2168 6.72453 22.133C6.72453 22.0828 6.72453 22.0325 6.72453 21.9822C6.70801 21.0608 6.70801 20.1227 6.70801 19.2013Z" fill="#0057B8"/>
<path d="M48.2937 22.2486C47.8971 22.2486 47.5337 22.2486 47.1702 22.2486C47.0711 22.2486 47.0545 22.1816 47.038 22.1146C46.9224 21.7963 46.8067 21.478 46.6745 21.1597C46.6085 20.9754 46.6085 20.9754 46.4267 20.9754C45.7658 20.9754 45.1215 20.9754 44.4606 20.9754C44.2789 20.9754 44.2789 20.9754 44.2128 21.143C44.0971 21.4613 43.9815 21.7963 43.8658 22.1146C43.8328 22.1816 43.8163 22.2319 43.7171 22.2319C43.3537 22.2319 42.9902 22.2319 42.6267 22.2319C42.6102 22.2319 42.6102 22.2151 42.5771 22.1984C42.6763 21.9136 42.7919 21.6455 42.8911 21.3607C43.5189 19.6855 44.1467 18.0102 44.7745 16.335C44.8571 16.1172 44.8571 16.1172 45.0719 16.1172C45.3198 16.1172 45.5511 16.1172 45.7989 16.1172C45.9806 16.1172 45.9806 16.1172 46.0467 16.2847C46.6911 18.0102 47.3354 19.719 47.9798 21.4445C48.0954 21.7293 48.1945 21.9806 48.2937 22.2486Z" fill="#0057B8"/>
<path d="M14.1927 22.382C13.7796 22.382 13.3996 22.3317 13.0527 22.1642C12.4909 21.8962 12.0779 21.4774 11.8631 20.8743C11.797 20.7235 11.8135 20.7067 11.9622 20.6565C12.2101 20.556 12.4744 20.4722 12.7222 20.3717C12.8709 20.3214 12.8709 20.3214 12.9535 20.4722C13.0692 20.6565 13.2014 20.824 13.3501 20.9748C13.7136 21.3098 14.3249 21.3768 14.7875 21.1758C15.1675 21.0083 15.2996 20.4052 14.9196 20.0869C14.7214 19.9194 14.4901 19.8189 14.2422 19.7351C13.8622 19.6011 13.4657 19.4838 13.1022 19.3163C12.937 19.2325 12.7883 19.1487 12.6396 19.0482C12.2762 18.7634 12.0944 18.3949 12.0614 17.9426C11.9953 16.9709 12.5901 16.4181 13.2675 16.217C13.9283 16.016 14.5892 16.0495 15.2005 16.4013C15.597 16.6191 15.8779 16.9542 16.0266 17.373C16.0762 17.507 16.0762 17.507 15.944 17.5573C15.6962 17.641 15.4649 17.7248 15.217 17.8085C15.1179 17.842 15.0683 17.8253 15.0188 17.7248C14.8535 17.373 14.5562 17.239 14.1927 17.2222C14.0109 17.2055 13.8292 17.2055 13.6475 17.2725C13.3831 17.373 13.2509 17.5573 13.2675 17.8253C13.2675 17.9426 13.317 18.0263 13.3996 18.1101C13.5153 18.2274 13.6475 18.2944 13.7962 18.3614C14.1266 18.5122 14.4735 18.6127 14.8205 18.7467C15.1509 18.864 15.4649 19.0147 15.7292 19.2493C16.2249 19.6513 16.4066 20.1707 16.324 20.8073C16.2249 21.6616 15.6301 22.2312 14.7379 22.3987C14.5396 22.3652 14.3579 22.3988 14.1927 22.382Z" fill="#0057B8"/>
<path d="M21.5448 17.4936C21.2474 17.5941 20.9665 17.6946 20.6857 17.7951C20.6031 17.8286 20.537 17.7951 20.5039 17.7114C20.4709 17.6276 20.4048 17.5438 20.3387 17.4768C20.2065 17.3596 20.0578 17.259 19.8761 17.2255C19.6778 17.192 19.4796 17.1753 19.2813 17.192C19.1161 17.2088 18.9839 17.2758 18.8683 17.3931C18.637 17.6276 18.6535 17.9459 18.9178 18.1469C19.1161 18.2977 19.3309 18.3647 19.5457 18.4485C19.7935 18.5322 20.0413 18.616 20.2891 18.7165C20.6361 18.8505 20.9665 19.0181 21.2474 19.2693C21.5613 19.5541 21.7431 19.9059 21.7761 20.3415C21.8257 20.9446 21.6439 21.4639 21.1978 21.8828C20.9335 22.134 20.6031 22.2681 20.2396 22.3351C19.5291 22.4858 18.8518 22.4356 18.2239 22.0335C17.7778 21.7487 17.4639 21.3467 17.2822 20.8441C17.2492 20.7603 17.2822 20.7101 17.3648 20.6766C17.6457 20.576 17.91 20.4755 18.1909 20.375C18.29 20.3415 18.3396 20.375 18.3891 20.4588C18.5213 20.6933 18.67 20.8944 18.8848 21.0451C19.3144 21.3467 19.777 21.3634 20.2561 21.1624C20.6361 20.9949 20.6857 20.3415 20.4048 20.107C20.1735 19.9227 19.9257 19.8054 19.6448 19.7217C19.2152 19.5709 18.7857 19.4369 18.3726 19.2191C17.9431 18.9846 17.6292 18.6663 17.53 18.1637C17.3483 17.2925 17.7613 16.5387 18.5874 16.2371C19.3474 15.9691 20.0909 16.0026 20.7683 16.4382C21.1648 16.6895 21.4126 17.0413 21.5448 17.4936Z" fill="#0057B8"/>
<path d="M53.96 20.7255C54.2739 20.6082 54.5878 20.4909 54.8852 20.3737C54.9843 20.3402 55.0339 20.3569 55.0669 20.4407C55.166 20.6249 55.2982 20.8092 55.4634 20.9432C55.8765 21.3118 56.3556 21.3621 56.8513 21.1945C57.0991 21.1108 57.2478 20.9265 57.2808 20.6417C57.3139 20.3569 57.1982 20.1391 56.9669 19.9883C56.7687 19.8711 56.5539 19.7706 56.3226 19.7036C55.9095 19.5695 55.48 19.4355 55.1 19.2177C54.6539 18.9832 54.3234 18.6314 54.2408 18.1121C54.1252 17.4587 54.3234 16.8556 54.9017 16.4536C55.3478 16.1353 55.86 16.0515 56.4052 16.085C56.7687 16.1017 57.1156 16.2023 57.4295 16.4033C57.793 16.6211 58.0408 16.9394 58.1895 17.3414C58.2391 17.4922 58.2391 17.4922 58.1069 17.5425C57.8756 17.6262 57.6278 17.6932 57.3965 17.777C57.2974 17.8105 57.2478 17.7938 57.1817 17.6932C56.9834 17.3247 56.653 17.1907 56.273 17.1739C56.1243 17.1739 55.9756 17.1572 55.8269 17.2074C55.7443 17.2409 55.6617 17.2744 55.5956 17.3414C55.3313 17.5927 55.3478 17.9445 55.6452 18.1456C55.8434 18.2796 56.0417 18.3633 56.2565 18.4304C56.5043 18.5141 56.7356 18.5979 56.9834 18.6816C57.2478 18.7822 57.4956 18.9162 57.7434 19.067C58.7017 19.6868 58.6687 20.9767 58.0574 21.6804C57.76 22.0154 57.3965 22.1829 56.9669 22.2834C56.24 22.4342 55.546 22.384 54.9182 21.9819C54.4556 21.7139 54.1417 21.295 53.96 20.7255Z" fill="#0057B8"/>
<path d="M11.3676 11.7459C10.9711 12.7175 10.2441 13.2369 9.28586 13.2704C8.7076 13.2871 8.1789 13.1531 7.71629 12.8181C7.30325 12.4998 7.0389 12.0809 6.87368 11.5951C6.57629 10.724 6.57629 9.8361 6.8076 8.93146C6.92325 8.51264 7.08847 8.14409 7.36933 7.80903C7.89803 7.15568 8.59194 6.92115 9.38499 6.97141C9.74847 7.00491 10.0789 7.08867 10.3928 7.27295C10.7728 7.49074 11.0537 7.79228 11.2519 8.17759C11.318 8.32837 11.318 8.32836 11.1693 8.39538C10.905 8.51264 10.6572 8.62991 10.3928 8.76393C10.3102 8.79744 10.2606 8.79744 10.1946 8.71367C10.1119 8.57965 10.0128 8.44563 9.88064 8.32836C9.45107 7.99331 8.59194 7.99331 8.19542 8.68017C7.93107 9.14924 7.84847 9.66857 7.86499 10.2047C7.86499 10.5062 7.91455 10.8077 8.01368 11.0925C8.09629 11.3606 8.22847 11.6119 8.42673 11.8129C8.85629 12.2485 9.50064 12.2485 9.94673 11.8297C10.0624 11.7124 10.1615 11.5951 10.2441 11.4611C10.2772 11.3941 10.3267 11.3606 10.4093 11.3941C10.7232 11.4946 11.0372 11.6119 11.3676 11.7459Z" fill="#0057B8"/>
<path d="M12.0615 7.07144C12.4746 7.07144 12.8546 7.07144 13.2511 7.07144C13.3337 7.07144 13.3667 7.1217 13.4163 7.18871C13.565 7.44 13.7137 7.67453 13.8624 7.92582C14.1598 8.41165 14.4407 8.89747 14.738 9.3833C14.7711 9.43355 14.7876 9.48381 14.8537 9.51732C15.0685 9.16551 15.2833 8.81371 15.4815 8.4619C15.7293 8.04309 15.9937 7.62428 16.2415 7.20546C16.3076 7.08819 16.3902 7.05469 16.5059 7.05469C16.8033 7.07144 17.1172 7.05469 17.4146 7.05469C17.4641 7.05469 17.5302 7.05469 17.5798 7.07144C17.5798 7.1552 17.5302 7.20546 17.5137 7.25572C16.8528 8.36139 16.2085 9.46706 15.5476 10.5727C15.465 10.7068 15.432 10.8575 15.432 11.025C15.432 11.6784 15.432 12.3317 15.432 12.9851C15.432 13.1694 15.432 13.1694 15.2502 13.1694C14.9859 13.1694 14.7215 13.1694 14.4572 13.1694C14.2589 13.1694 14.2589 13.1694 14.2589 12.9683C14.2589 12.315 14.2589 11.6616 14.2589 11.0083C14.2589 10.8408 14.2259 10.7067 14.1433 10.556C13.4989 9.46706 12.8546 8.39489 12.2102 7.30598C12.1276 7.23897 12.078 7.18871 12.0615 7.07144Z" fill="#0057B8"/>
<path d="M36.2817 19.7541C36.2817 19.0338 36.2817 18.2967 36.2817 17.5763C36.2817 17.5261 36.2817 17.4926 36.2817 17.4423C36.2983 17.3418 36.2487 17.2748 36.133 17.2915C36.0339 17.2915 35.9183 17.2915 35.8191 17.2915C35.4556 17.2915 35.0922 17.2915 34.7287 17.2915C34.5635 17.2915 34.5635 17.2915 34.5635 17.124C34.5635 16.8392 34.5635 16.5544 34.5635 16.2864C34.5635 16.2026 34.5965 16.1523 34.6956 16.1523C34.7287 16.1523 34.7617 16.1523 34.7948 16.1523C36.1661 16.1523 37.5539 16.1523 38.9252 16.1523C38.9748 16.1523 39.0078 16.1523 39.0574 16.1523C39.1235 16.1523 39.173 16.1691 39.173 16.2529C39.173 16.5544 39.173 16.8727 39.173 17.1743C39.173 17.258 39.1235 17.2748 39.0574 17.2748C38.9087 17.2748 38.7435 17.2748 38.5948 17.2748C38.2974 17.2748 38 17.2748 37.7026 17.2748C37.4713 17.2748 37.4548 17.2748 37.4548 17.5261C37.4548 17.8611 37.4548 18.1962 37.4548 18.548C37.4548 19.6871 37.4548 20.8263 37.4548 21.9655C37.4548 22.0157 37.4548 22.0828 37.4548 22.133C37.4548 22.2168 37.4217 22.2503 37.3391 22.2503C37.0417 22.2503 36.7278 22.2503 36.4304 22.2503C36.3148 22.2503 36.3148 22.1833 36.3148 22.0995C36.3148 21.6639 36.3148 21.2284 36.3148 20.7761C36.2817 20.441 36.2817 20.0892 36.2817 19.7541Z" fill="#0057B8"/>
<path d="M49.4004 19.1846C49.4004 18.2632 49.4004 17.3418 49.4004 16.4204C49.4004 16.3701 49.4004 16.3199 49.4004 16.2696C49.4004 16.1859 49.4334 16.1523 49.516 16.1523C49.83 16.1523 50.1604 16.1523 50.4743 16.1523C50.5404 16.1523 50.5734 16.1858 50.5734 16.2529C50.5734 16.3031 50.5734 16.3701 50.5734 16.4204C50.5734 17.8946 50.5734 19.3521 50.5734 20.8263C50.5734 20.8766 50.5734 20.9436 50.5734 20.9938C50.5734 21.0776 50.6065 21.1111 50.6891 21.1111C50.7386 21.1111 50.7882 21.1111 50.8378 21.1111C51.6143 21.1111 52.4073 21.1111 53.1839 21.1111C53.2334 21.1111 53.283 21.1111 53.3326 21.1111C53.4482 21.0944 53.4813 21.1614 53.4813 21.2619C53.4813 21.5467 53.4813 21.8315 53.4813 22.0995C53.4813 22.2 53.4482 22.2503 53.3491 22.2335C53.1839 22.2335 53.0021 22.2335 52.8369 22.2335C51.7795 22.2335 50.7221 22.2335 49.6647 22.2335C49.6152 22.2335 49.5656 22.2335 49.516 22.2335C49.4334 22.2335 49.4004 22.2 49.4004 22.1163C49.4004 22.066 49.4004 22.0157 49.4004 21.9655C49.4004 21.0609 49.4004 20.1227 49.4004 19.1846Z" fill="#0057B8"/>
<path d="M41.4702 19.2013C41.4702 20.1227 41.4702 21.0608 41.4702 21.9822C41.4702 22.0325 41.4702 22.0828 41.4702 22.133C41.4702 22.2168 41.4372 22.2503 41.3545 22.2503C41.0406 22.2503 40.7267 22.2503 40.4128 22.2503C40.3467 22.2503 40.3137 22.2168 40.3137 22.1498C40.3137 22.0995 40.3137 22.066 40.3137 22.0157C40.3137 20.1395 40.3137 18.2632 40.3137 16.3869C40.3137 16.3534 40.3137 16.3199 40.3137 16.2864C40.2972 16.1858 40.3467 16.1523 40.4458 16.1523C40.7432 16.1523 41.0241 16.1523 41.3215 16.1523C41.4372 16.1523 41.4702 16.2026 41.4702 16.3031C41.4702 16.6047 41.4702 16.9062 41.4702 17.2078C41.4702 17.8779 41.4702 18.5312 41.4702 19.2013Z" fill="#0057B8"/>
<path d="M20.6687 12.0976C20.4374 12.0976 20.2061 12.0976 19.9748 12.0976C19.8261 12.0976 19.8096 12.0976 19.8096 11.9468C19.8096 11.5447 19.8096 11.1427 19.8096 10.7406C19.8096 10.5898 19.8096 10.5898 19.9583 10.5898C20.4044 10.5898 20.867 10.5898 21.313 10.5898C21.5113 10.5898 21.7096 10.6233 21.8913 10.7239C22.1557 10.8579 22.2878 11.1427 22.2383 11.461C22.1887 11.7793 22.007 11.9803 21.7096 12.0473C21.4617 12.0976 21.1974 12.0976 20.9496 12.0976C20.8504 12.0976 20.7678 12.0976 20.6687 12.0976Z" fill="white"/>
<path d="M20.6355 8.16016C20.8503 8.16016 21.0651 8.16016 21.2798 8.16016C21.4285 8.16016 21.5607 8.17691 21.6929 8.24392C21.9077 8.32768 22.0233 8.49521 22.0398 8.7465C22.0564 9.01454 21.9903 9.23232 21.7259 9.34959C21.5938 9.4166 21.4451 9.45011 21.2964 9.46686C20.8338 9.46686 20.3877 9.46686 19.9251 9.46686C19.8094 9.46686 19.7764 9.4166 19.7764 9.31609C19.7764 8.98103 19.7764 8.64598 19.7764 8.32768C19.7764 8.17691 19.7764 8.17691 19.9416 8.17691C20.1894 8.16016 20.4042 8.16016 20.6355 8.16016Z" fill="white"/>
<path d="M32.3993 9.75165C32.1349 9.75165 31.8541 9.75165 31.5897 9.75165C31.4906 9.75165 31.4245 9.7349 31.441 9.61763C31.441 9.18206 31.441 8.7465 31.441 8.29418C31.441 8.19366 31.4906 8.16016 31.5732 8.16016C32.0854 8.16016 32.6141 8.16016 33.1262 8.16016C33.6054 8.17691 33.8697 8.4617 33.8697 8.94753C33.8697 9.11505 33.8532 9.28258 33.7706 9.43335C33.6219 9.66789 33.4071 9.7684 33.1427 9.7684C32.8949 9.75165 32.6471 9.7684 32.3993 9.75165Z" fill="white"/>
<path d="M45.4678 17.8281C45.7321 18.5317 45.9634 19.2186 46.2113 19.9054C45.6826 19.9054 45.1869 19.9054 44.6582 19.9054C44.9226 19.2018 45.1869 18.5317 45.4678 17.8281Z" fill="white"/>
</g>
<defs>
<clipPath id="clip0_2108_1187">
<rect width="76" height="65" fill="white"/>
</clipPath>
</defs>
</svg>
