<svg width="180" height="79" viewBox="0 0 180 79" fill="none" xmlns="http://www.w3.org/2000/svg">
<path d="M29.4218 0C29.4218 0 37.4985 13.0377 36.1591 25.8723C34.7386 38.7882 26.0531 44.6369 21.7509 54.5065C17.4894 64.4168 19.9651 74.6926 23.5367 77.3733C18.8287 74.0021 6.44986 67.7067 7.34276 51.0542C7.78921 45.896 10.955 36.6355 18.5852 27.6594C26.256 18.6833 31.2076 15.0685 29.4218 0Z" fill="white"/>
<path d="M12.0167 70.8706C12.0167 70.8706 0.490107 62.7881 0.0436562 50.4815C-0.402795 45.0795 2.56001 36.8345 9.62205 30.539C17.7393 23.3094 19.9716 21.8472 21.6356 20.0195C16.9682 25.5839 6.781 36.3877 5.11696 45.6888C3.4935 54.9898 6.781 64.5752 12.0167 70.8706Z" fill="white"/>
<path d="M26.2691 78.2242C26.2691 78.2242 19.0853 67.7047 24.3209 56.3323C26.1067 52.8799 32.3976 45.366 35.401 38.5019C38.4044 31.5972 39.0132 27.4138 38.8509 22.6211C43.4777 29.079 50.9862 48.2903 42.4631 63.1151C45.1418 61.4499 49.0381 57.7132 50.5398 53.6516C49.8092 61.8967 46.0753 77.3307 26.2691 78.2242Z" fill="white"/>
<path d="M27.0333 76.557C27.0333 76.557 22.4471 68.3526 27.6421 60.1888C31.8225 53.609 36.2059 52.2281 38.7222 45.0391C39.1687 52.553 38.8846 62.4227 32.4313 70.8302C35.11 70.3834 36.7741 69.4898 39.0063 67.987C37.5046 71.1957 34.6636 75.2167 27.0333 76.557Z" fill="white"/>
<path d="M19.4848 72.7379C19.4848 72.7379 6.49717 57.9943 15.6291 42.8446C21.92 31.8783 30.0373 31.2285 31.8231 15.3477C31.8231 26.8013 33.0407 32.4063 23.2188 45.1597C16.7655 53.5266 15.3044 64.7772 19.4848 72.7379Z" fill="white"/>
<path d="M35.5998 1.46094C35.5998 1.46094 39.2526 12.0617 28.3349 27.3333C20.3799 38.3808 4.71356 54.8302 21.354 74.9351C14.6166 67.9492 8.08223 55.805 15.3472 41.427C22.0034 28.308 38.0756 19.8599 35.5998 1.46094Z" fill="white"/>
<mask id="mask0_14497_795" style="mask-type:luminance" maskUnits="userSpaceOnUse" x="71" y="34" width="109" height="39">
<path d="M179.893 34.6758H71.8711V72.0166H179.893V34.6758Z" fill="white"/>
</mask>
<g mask="url(#mask0_14497_795)">
<path d="M158.609 71.8774H155.406V34.7253C161.162 34.8912 166.848 34.1075 172.382 35.7894C176.531 37.048 178.699 40.1145 178.734 44.451C178.77 48.7761 176.619 51.8368 172.528 53.2327C171.453 53.5988 170.343 53.8677 169.046 54.2453C172.715 60.1722 176.263 65.9104 179.892 71.7687C177.431 72.3408 175.912 72.0261 174.702 69.7949C172.254 65.2868 169.326 61.0247 166.796 56.5566C165.785 54.7716 164.639 54.0451 162.518 54.1366C157.937 54.3426 158.655 53.7018 158.614 58.0612C158.574 62.5979 158.603 67.1289 158.603 71.8831L158.609 71.8774ZM158.737 51.4477C162.67 51.2189 166.398 51.2876 170.016 50.7155C173.341 50.1949 175.293 47.5346 175.328 44.5597C175.363 41.6077 173.44 38.9188 170.08 38.381C166.404 37.7918 162.617 37.8833 158.737 37.6659V51.4477Z" fill="white"/>
<path d="M130.284 34.8828V71.8461H126.982V54.3971C126.182 54.3055 125.621 54.1911 125.06 54.1911C119.228 54.1797 113.396 54.2254 107.558 54.1511C105.939 54.1282 105.39 54.6602 105.419 56.2392C105.501 60.6444 105.448 65.0438 105.448 69.449C105.448 70.2156 105.448 70.9765 105.448 71.8689H102.129V34.8885H105.419V51.1189H126.877V34.8828H130.284Z" fill="white"/>
<path d="M71.9124 71.8504V69.6478C71.9124 58.7894 71.9591 47.931 71.8715 37.0726C71.854 35.179 72.415 34.6469 74.3376 34.6812C80.38 34.7956 86.4341 34.7213 92.4765 34.727C93.1895 34.727 93.9083 34.7899 94.7147 34.8243V37.8678H75.5998V51.1805H93.2304V54.1097H75.5589V71.8504H71.9124Z" fill="white"/>
<path d="M144.463 71.8907H141.185C141.138 71.1642 141.062 70.5406 141.062 69.9113C141.056 58.9098 141.062 47.9084 141.051 36.907C141.045 35.717 140.922 34.6758 142.763 34.6758C144.446 34.6758 144.633 35.431 144.627 36.7697C144.592 47.8398 144.609 58.9156 144.604 69.9914C144.604 70.6092 144.516 71.2328 144.463 71.8907Z" fill="white"/>
</g>
</svg>
