<svg width="72" height="75" viewBox="0 0 72 75" fill="none" xmlns="http://www.w3.org/2000/svg">
<g clip-path="url(#clip0_2079_337)">
<path d="M8.51953 32.6224V11.4287C12.1836 10.5456 22.6775 8.73535 35.3405 8.55874C48.0035 8.38212 58.7903 10.3984 62.6011 11.4287V32.6224H8.51953Z" fill="white" stroke="#0151B0"/>
<path d="M35.9999 65.7297C12.2568 59.3716 8.51953 46.9644 8.51953 41.2245H63.0408C63.0408 47.8475 58.4241 59.9897 35.9999 65.7297Z" fill="white"/>
<path d="M2.80469 43.9208V6.61107C33.2311 -0.2769 59.4509 3.74107 68.7578 6.61107C68.9776 16.7664 69.2854 38.4458 68.7578 43.9208C68.0983 50.7648 66.9991 53.1932 58.8648 60.4786C52.3575 66.3068 40.911 70.7072 36.0011 72.1793C31.5309 70.8546 20.612 66.6601 12.6977 60.4786C4.78328 54.2971 2.80469 46.8643 2.80469 43.9208Z" stroke="white" stroke-width="6"/>
<path d="M19.3945 13.2204H27.2318V15.1009H21.4985V19.2208H27.2318V21.1012H21.4985V27.9785H19.3945V13.2204ZM29.0837 13.2204H31.1877V27.9785H29.0837V13.2204ZM33.9023 27.9785V13.1993H38.5626C39.9652 13.1993 41.0838 13.5796 41.9184 14.3402C42.753 15.1009 43.1703 16.122 43.1703 17.4038C43.1703 18.263 42.9564 19.0236 42.5286 19.6857C42.1007 20.3477 41.5152 20.8301 40.7717 21.1329C40.0284 21.4287 38.9623 21.5766 37.5737 21.5766H36.0168V27.9785H33.9023ZM38.1944 15.0797H36.0168V19.6962H38.3206C39.1762 19.6962 39.8355 19.4955 40.2984 19.0941C40.7612 18.6856 40.9927 18.1046 40.9927 17.351C40.9927 15.8368 40.0599 15.0797 38.1944 15.0797ZM48.6406 21.7879L47.0415 20.816C46.0385 20.2033 45.3233 19.6012 44.8955 19.0095C44.4747 18.4109 44.2644 17.7242 44.2644 16.9496C44.2644 15.7875 44.6641 14.8438 45.4634 14.1184C46.2703 13.393 47.3149 13.0303 48.5984 13.0303C49.826 13.0303 50.9516 13.3754 51.9752 14.0655V16.4636C50.9164 15.4424 49.7768 14.9318 48.5566 14.9318C47.869 14.9318 47.3044 15.0938 46.8629 15.4177C46.4211 15.7347 46.1999 16.1431 46.1999 16.6432C46.1999 17.0869 46.3613 17.5024 46.684 17.8898C47.0067 18.2771 47.5291 18.6821 48.2515 19.1046L49.8607 20.0554C51.6564 21.1259 52.5538 22.4922 52.5538 24.1543C52.5538 25.3375 52.1577 26.2988 51.3653 27.0382C50.5796 27.7777 49.556 28.1475 48.2933 28.1475C46.8418 28.1475 45.5197 27.7003 44.3274 26.8058V24.1226C45.4634 25.5663 46.7785 26.2882 48.2726 26.2882C48.9317 26.2882 49.4786 26.1051 49.9135 25.7389C50.3554 25.3656 50.5761 24.9008 50.5761 24.3444C50.5761 23.443 49.9311 22.5908 48.6406 21.7879Z" fill="#0151B0"/>
<path d="M22.4492 44.3477H24.0809V55.7927H22.4492V44.3477ZM30.6836 44.2002H31.3525V50.6232H32.6252V52.0158H31.3525V55.7927H29.7617V52.0158H24.9401V51.3115L30.6836 44.2002ZM29.7617 50.6232V47.305L27.1265 50.6232H29.7617ZM36.6805 44.2002C37.7248 44.2002 38.5868 44.7518 39.2667 45.855C39.952 46.9527 40.2946 48.3484 40.2946 50.0417C40.2946 51.7782 39.952 53.1903 39.2667 54.2769C38.5868 55.3639 37.703 55.9075 36.6152 55.9075C35.5111 55.9075 34.6246 55.375 33.9557 54.31C33.2867 53.2446 32.9522 51.833 32.9522 50.0743C32.9522 48.3373 33.2975 46.9257 33.9883 45.8387C34.679 44.7464 35.5764 44.2002 36.6805 44.2002ZM36.6968 45.757H36.6152C35.9898 45.757 35.4921 46.1447 35.1223 46.92C34.7579 47.69 34.5757 48.736 34.5757 50.058C34.5757 51.4122 34.7551 52.4745 35.1141 53.2446C35.4731 54.015 35.968 54.4001 36.5989 54.4001C37.2298 54.4001 37.7275 54.015 38.0919 53.2446C38.4563 52.4745 38.6385 51.429 38.6385 50.107C38.6385 48.7798 38.4617 47.7232 38.1082 46.9363C37.7601 46.15 37.2897 45.757 36.6968 45.757ZM41.1271 51.2784H45.1899V52.8763H41.1271V51.2784ZM47.2966 54.2115H51.6367V55.7927H44.425V55.6779L45.1103 54.8668C46.1815 53.5342 47.0328 52.4039 47.6637 51.4753C48.3004 50.5468 48.7137 49.8447 48.9041 49.3696C49.0997 48.8946 49.1978 48.4248 49.1978 47.9607C49.1978 47.3161 49.0153 46.7999 48.6508 46.4122C48.2867 46.0188 47.8027 45.8224 47.199 45.8224C46.7421 45.8224 46.2906 45.9588 45.8447 46.2321C45.404 46.4997 45.0069 46.8789 44.6534 47.3708V45.2898C45.54 44.5634 46.4537 44.2002 47.3946 44.2002C48.3901 44.2002 49.2083 44.5334 49.8503 45.1997C50.4975 45.8661 50.8211 46.7125 50.8211 47.7395C50.8211 48.1983 50.7393 48.6897 50.5762 49.2142C50.4188 49.733 50.1356 50.3335 49.728 51.0166C49.32 51.6934 48.6266 52.6193 47.6474 53.7938L47.2966 54.2115Z" fill="#0151B0"/>
</g>
<defs>
<clipPath id="clip0_2079_337">
<rect width="72" height="75" fill="white"/>
</clipPath>
</defs>
</svg>
