<svg width="92" height="88" viewBox="0 0 92 88" fill="none" xmlns="http://www.w3.org/2000/svg">
<path d="M45.7984 0.223145L47.0953 4.1018H51.2922L47.8968 6.49895L49.1938 10.3776L45.7984 7.98047L42.4031 10.3776L43.7 6.49895L40.3047 4.1018H44.5015L45.7984 0.223145Z" fill="white" fill-opacity="0.85"/>
<path d="M45.7984 77.399L47.0953 81.2776H51.2922L47.8968 83.6748L49.1938 87.5535L45.7984 85.1564L42.4031 87.5535L43.7 83.6748L40.3047 81.2776H44.5015L45.7984 77.399Z" fill="white" fill-opacity="0.85"/>
<path d="M65.6515 5.39624L66.9484 9.27491L71.1452 9.27494L67.7498 11.6721L69.0467 15.5507L65.6514 13.1536L62.2561 15.5507L63.553 11.672L60.1577 9.27486L64.3545 9.2749L65.6515 5.39624Z" fill="white" fill-opacity="0.85"/>
<path d="M25.9092 72.2289L27.2312 76.0996L31.4279 76.0739L28.0483 78.4918L29.3703 82.3625L25.9595 79.9861L22.5798 82.404L23.8516 78.5175L20.4408 76.1411L24.6375 76.1154L25.9092 72.2289Z" fill="white" fill-opacity="0.85"/>
<path d="M85.7548 23.6335L82.2535 25.8821L83.3724 29.8128L80.0897 27.2719L76.5884 29.5205L78.0608 25.7014L74.7781 23.1605L78.9708 23.3412L80.4433 19.5222L81.5621 23.4528L85.7548 23.6335Z" fill="white" fill-opacity="0.85"/>
<path d="M16.9355 62.0791L13.4967 64.4169L14.7221 68.3174L11.3713 65.8617L7.93252 68.1997L9.30057 64.3441L5.94983 61.8884L10.1461 61.9612L11.514 58.1057L12.7394 62.0062L16.9355 62.0791Z" fill="white" fill-opacity="0.85"/>
<path d="M83.5536 68.2758L80.1701 65.8629L76.7629 68.2441L78.0791 64.3715L74.6956 61.9586L78.8924 61.9782L80.2084 58.1057L81.4861 61.9903L85.6829 62.01L82.2758 64.3912L83.5536 68.2758Z" fill="white" fill-opacity="0.85"/>
<path d="M14.8188 29.6627L11.4133 27.2795L8.0283 29.6904L9.30841 25.8065L5.90283 23.4233L10.0995 23.4061L11.3797 19.5222L12.6934 23.3956L16.8901 23.3784L13.5052 25.7895L14.8188 29.6627Z" fill="white" fill-opacity="0.85"/>
<path d="M69.0293 82.3979L65.645 79.9861L62.2386 82.3682L63.5534 78.4954L60.1692 76.0834L64.366 76.1018L65.6808 72.2289L66.9598 76.1131L71.1567 76.1315L67.7502 78.5138L69.0293 82.3979Z" fill="white" fill-opacity="0.85"/>
<path d="M29.3935 15.5137L25.9691 13.1559L22.6033 15.592L23.8528 11.6986L20.4285 9.3408L24.6249 9.29241L25.8745 5.39905L27.2185 9.26251L31.4151 9.21411L28.0493 11.6503L29.3935 15.5137Z" fill="white" fill-opacity="0.85"/>
<path d="M0.593628 42.695L4.79034 42.692L6.0844 38.8125L7.38416 42.6903L11.581 42.6873L8.18742 45.0869L9.48718 48.9647L6.0901 46.5698L2.69665 48.9694L3.99059 45.0898L0.593628 42.695Z" fill="white" fill-opacity="0.85"/>
<path d="M80.0403 42.627L84.2367 42.6758L85.5814 38.8125L86.8303 42.706L91.0269 42.7548L87.6023 45.1123L88.8513 49.0057L85.4858 46.5692L82.0612 48.9267L83.4057 45.0635L80.0403 42.627Z" fill="white" fill-opacity="0.85"/>
<path d="M32.1797 49.5954C31.6565 50.1426 30.891 50.5834 29.8833 50.9178C28.8756 51.2522 27.7709 51.4194 26.5694 51.4194C24.7218 51.4194 23.2458 50.8874 22.1412 49.8234C21.0366 48.7594 20.4455 47.2789 20.368 45.3821L20.3583 44.233C20.3583 42.9257 20.6038 41.7858 21.0948 40.8129C21.5857 39.834 22.2866 39.0832 23.1974 38.5603C24.1146 38.0313 25.174 37.7668 26.3756 37.7668C28.1326 37.7668 29.4957 38.1468 30.4646 38.9069C31.4401 39.6607 32.0086 40.7886 32.17 42.2904H28.895C28.7786 41.5486 28.5267 41.0196 28.1392 40.7035C27.7515 40.3874 27.2024 40.2292 26.4919 40.2292C25.6392 40.2292 24.9803 40.5697 24.5152 41.2507C24.0501 41.9317 23.8143 42.9045 23.8079 44.1691V44.9716C23.8079 46.2971 24.0468 47.2941 24.5249 47.963C25.0093 48.6257 25.7684 48.957 26.8019 48.957C27.687 48.957 28.3459 48.7716 28.7786 48.4007V46.3396H26.4144V44.1417H32.1797V49.5954Z" fill="white" fill-opacity="0.85"/>
<path d="M34.1548 51.2368V37.9581H38.6992C39.946 37.9581 41.0667 38.2257 42.0615 38.7607C43.0563 39.2897 43.8315 40.0405 44.387 41.0134C44.949 41.98 45.2333 43.0653 45.2397 44.2691V44.8802C45.2397 46.0962 44.9651 47.1875 44.4162 48.1542C43.8735 49.1148 43.1047 49.8688 42.11 50.4159C41.1216 50.9571 40.0169 51.2306 38.7961 51.2368H34.1548ZM37.5558 40.4297V48.7744H38.738C39.7133 48.7744 40.4627 48.4491 40.986 47.7986C41.5092 47.1419 41.7709 46.1692 41.7709 44.8802V44.3057C41.7709 43.0228 41.5092 42.056 40.986 41.4055C40.4627 40.7549 39.7005 40.4297 38.6992 40.4297H37.5558Z" fill="white" fill-opacity="0.85"/>
<path d="M50.3864 46.7315V51.2368H46.9854V37.9581H52.6151C53.6939 37.9581 54.6467 38.1466 55.4735 38.5235C56.3068 38.8945 56.9497 39.4264 57.4019 40.1196C57.8605 40.8066 58.0897 41.5879 58.0897 42.4634C58.0897 43.7584 57.5956 44.7951 56.6073 45.5733C55.6254 46.3455 54.2753 46.7315 52.557 46.7315H50.3864ZM50.3864 44.2601H52.6151C53.274 44.2601 53.7747 44.1049 54.117 43.7949C54.4658 43.4848 54.6402 43.0471 54.6402 42.4817C54.6402 41.8614 54.4627 41.3659 54.1073 40.9951C53.752 40.6242 53.2675 40.4357 52.6539 40.4297H50.3864V44.2601Z" fill="white" fill-opacity="0.85"/>
<path d="M65.1527 46.5492H63.3117V51.2368H59.9106V37.9581H65.4629C67.1359 37.9581 68.4441 38.3077 69.3871 39.0069C70.3303 39.7061 70.8019 40.6941 70.8019 41.9709C70.8019 42.895 70.6016 43.6612 70.2011 44.2691C69.807 44.8771 69.1869 45.3697 68.3407 45.7466L71.2863 51.0999V51.2368H67.643L65.1527 46.5492ZM63.3117 44.0776H65.4629C66.1088 44.0776 66.5934 43.9195 66.9162 43.6034C67.2458 43.2812 67.4105 42.8343 67.4105 42.2628C67.4105 41.6912 67.2458 41.2444 66.9162 40.9222C66.5868 40.5938 66.1023 40.4297 65.4629 40.4297H63.3117V44.0776Z" fill="white" fill-opacity="0.85"/>
</svg>
