<svg width="110" height="60" viewBox="0 0 110 60" fill="none" xmlns="http://www.w3.org/2000/svg">
<path d="M4.21045 0.0461426H13.3322V15.5302H22.1907H31.0493V0.0461426H40.171V41.5715H31.0493V23.6241H13.3322V41.5715H4.21045V0.0461426ZM48.3449 0.0461426H57.4666V33.1257H75.5458V41.5715H48.3449V0.0461426ZM97.8191 8.14007H77.3537V0.0461426H107.642V7.78816L91.0948 41.5715H80.8621L97.8191 8.14007Z" fill="white"/>
<path d="M5.63647 48.6397H6.95379V59.7768H5.63647V48.6397ZM9.64746 54.161C9.64746 53.8255 9.637 53.5109 9.6161 53.2172C9.5952 52.9235 9.58473 52.6561 9.58473 52.415H10.7452C10.7452 52.6143 10.7504 52.8134 10.7609 53.0127C10.7714 53.2121 10.7766 53.4166 10.7766 53.6262H10.808C10.8916 53.448 11.0066 53.275 11.153 53.1071C11.3098 52.9393 11.4928 52.7925 11.7018 52.6667C11.9109 52.5303 12.1462 52.4255 12.4075 52.3521C12.6689 52.2682 12.9512 52.2262 13.2544 52.2262C13.7353 52.2262 14.1483 52.2997 14.4933 52.4464C14.8488 52.5932 15.1415 52.7977 15.3715 53.0599C15.6015 53.3222 15.7688 53.6419 15.8733 54.0195C15.9883 54.3864 16.0458 54.7903 16.0458 55.2307V59.7768H14.8226V55.3566C14.8226 54.7379 14.6867 54.2503 14.4149 53.8936C14.1431 53.537 13.7196 53.3588 13.1446 53.3588C12.7473 53.3588 12.4023 53.4269 12.1096 53.5633C11.8273 53.6997 11.5921 53.8936 11.4039 54.1453C11.2262 54.397 11.0902 54.6959 10.9961 55.0419C10.9125 55.388 10.8707 55.7707 10.8707 56.1903V59.7768H9.64746V54.161ZM22.533 53.4532H20.3689V57.1341C20.3689 57.3752 20.3741 57.6008 20.3846 57.8105C20.395 58.0098 20.4368 58.188 20.51 58.3453C20.5832 58.4921 20.693 58.6127 20.8393 58.7071C20.9857 58.7909 21.1948 58.833 21.4666 58.833C21.6444 58.833 21.8273 58.8121 22.0155 58.77C22.2037 58.728 22.3814 58.6651 22.5487 58.5813L22.5957 59.6981C22.3866 59.7925 22.1514 59.8606 21.8901 59.9026C21.6391 59.9446 21.3987 59.9655 21.1687 59.9655C20.7296 59.9655 20.3793 59.9078 20.118 59.7925C19.8566 59.6772 19.6527 59.5145 19.5064 59.3049C19.36 59.0952 19.2607 58.8381 19.2084 58.5341C19.1666 58.2195 19.1457 57.8734 19.1457 57.4959V53.4532H17.5461V52.415H19.1457V50.3228H20.3689V52.415H22.533V53.4532ZM30.7436 58.4397C30.3045 59.006 29.8237 59.4044 29.3008 59.6352C28.7781 59.8554 28.1717 59.9655 27.4817 59.9655C26.9068 59.9655 26.3893 59.866 25.9291 59.6667C25.4692 59.457 25.0771 59.179 24.7529 58.833C24.4393 58.4869 24.1938 58.0779 24.0159 57.606C23.8488 57.1341 23.765 56.6307 23.765 56.0959C23.765 55.5296 23.8591 55.0105 24.0472 54.5386C24.2354 54.0561 24.4969 53.6471 24.8314 53.3116C25.1661 52.9655 25.5633 52.6981 26.0232 52.5094C26.4834 52.3206 26.9852 52.2262 27.5287 52.2262C28.0411 52.2262 28.5115 52.3154 28.9401 52.4936C29.3689 52.6615 29.7348 52.9132 30.0379 53.2487C30.3515 53.5739 30.5921 53.9775 30.7593 54.4599C30.9266 54.9318 31.0102 55.4718 31.0102 56.0801V56.4734H25.0823C25.1033 56.788 25.1764 57.0921 25.3018 57.3858C25.4378 57.6689 25.6103 57.9206 25.8193 58.1408C26.0286 58.3505 26.2741 58.5183 26.5564 58.6442C26.8387 58.77 27.1472 58.833 27.4817 58.833C28.0149 58.833 28.4645 58.7386 28.8303 58.5498C29.1964 58.361 29.5257 58.0831 29.8183 57.7161L30.7436 58.4397ZM29.6929 55.4352C29.672 54.806 29.4682 54.3026 29.0813 53.9251C28.6946 53.5476 28.1614 53.3588 27.4817 53.3588C26.8022 53.3588 26.2533 53.5476 25.835 53.9251C25.417 54.3026 25.1661 54.806 25.0823 55.4352H29.6929ZM33.0594 54.161C33.0594 53.8255 33.0489 53.5109 33.028 53.2172C33.0072 52.9235 32.9967 52.6561 32.9967 52.415H34.1572C34.1572 52.6143 34.1623 52.8134 34.1728 53.0127C34.1834 53.2121 34.1885 53.4166 34.1885 53.6262H34.2199C34.3035 53.448 34.4186 53.275 34.5649 53.1071C34.7217 52.9393 34.9048 52.7925 35.1138 52.6667C35.3228 52.5303 35.558 52.4255 35.8195 52.3521C36.0809 52.2682 36.3632 52.2262 36.6663 52.2262C36.7499 52.2262 36.8337 52.2314 36.9172 52.2419C37.0008 52.2525 37.0846 52.2734 37.1682 52.3049L37.0897 53.5476C36.8807 53.4846 36.6612 53.4532 36.4311 53.4532C35.6783 53.4532 35.1295 53.6997 34.7845 54.1925C34.45 54.675 34.2826 55.3408 34.2826 56.1903V59.7768H33.0594V54.161ZM38.5726 54.161C38.5726 53.8255 38.5623 53.5109 38.5413 53.2172C38.5204 52.9235 38.5099 52.6561 38.5099 52.415H39.6704C39.6704 52.6143 39.6758 52.8134 39.6861 53.0127C39.6966 53.2121 39.7017 53.4166 39.7017 53.6262H39.7331C39.8169 53.448 39.9318 53.275 40.0781 53.1071C40.2349 52.9393 40.418 52.7925 40.627 52.6667C40.8362 52.5303 41.0715 52.4255 41.3327 52.3521C41.5941 52.2682 41.8764 52.2262 42.1795 52.2262C42.6605 52.2262 43.0734 52.2997 43.4184 52.4464C43.774 52.5932 44.0668 52.7977 44.2967 53.0599C44.5267 53.3222 44.6941 53.6419 44.7985 54.0195C44.9136 54.3864 44.971 54.7903 44.971 55.2307V59.7768H43.7478V55.3566C43.7478 54.7379 43.612 54.2503 43.34 53.8936C43.0683 53.537 42.6449 53.3588 42.0698 53.3588C41.6726 53.3588 41.3275 53.4269 41.0347 53.5633C40.7525 53.6997 40.5172 53.8936 40.329 54.1453C40.1514 54.397 40.0154 54.6959 39.9213 55.0419C39.8377 55.388 39.7958 55.7707 39.7958 56.1903V59.7768H38.5726V54.161ZM47.3495 53.3588C47.7259 52.9707 48.1702 52.6876 48.6825 52.5094C49.2052 52.3206 49.7332 52.2262 50.2664 52.2262C51.3537 52.2262 52.1378 52.4831 52.6188 52.997C53.0996 53.5109 53.3402 54.2921 53.3402 55.3408V58.5026C53.3402 58.7123 53.3505 58.9325 53.3715 59.1633C53.3924 59.3835 53.4186 59.588 53.4499 59.7768H52.2738C52.2319 59.6089 52.2057 59.4255 52.1954 59.2262C52.1954 59.0165 52.1954 58.833 52.1954 58.6757H52.164C51.9234 59.0532 51.5994 59.3626 51.1917 59.6037C50.7943 59.8449 50.3135 59.9655 49.7489 59.9655C49.3726 59.9655 49.017 59.9183 48.6825 59.824C48.3584 59.7296 48.0709 59.5932 47.82 59.415C47.5794 59.2262 47.3861 58.9954 47.2398 58.7228C47.0933 58.4503 47.0202 58.1356 47.0202 57.779C47.0202 57.1707 47.177 56.6936 47.4907 56.3476C47.8043 56.0015 48.191 55.7446 48.6512 55.5768C49.1216 55.4089 49.6235 55.3042 50.1567 55.2622C50.7002 55.2201 51.1969 55.1993 51.6465 55.1993H52.117V54.979C52.117 54.4442 51.9548 54.0404 51.6308 53.7678C51.3172 53.4952 50.8727 53.3588 50.2978 53.3588C49.9004 53.3588 49.5083 53.4269 49.1216 53.5633C48.7453 53.6891 48.4106 53.8885 48.118 54.161L47.3495 53.3588ZM50.8937 56.2375C50.1096 56.2375 49.4875 56.3476 49.0275 56.5678C48.5674 56.788 48.3375 57.1498 48.3375 57.6532C48.3375 58.1145 48.489 58.4449 48.7923 58.6442C49.106 58.833 49.4926 58.9273 49.9528 58.9273C50.3081 58.9273 50.6166 58.8696 50.8781 58.7543C51.1498 58.6285 51.3745 58.466 51.5524 58.2667C51.73 58.0673 51.866 57.8368 51.9601 57.5745C52.0542 57.3019 52.1064 57.0134 52.117 56.7094V56.2375H50.8937ZM59.7473 53.4532H57.5831V57.1341C57.5831 57.3752 57.5883 57.6008 57.5988 57.8105C57.6091 58.0098 57.651 58.188 57.7243 58.3453C57.7973 58.4921 57.9071 58.6127 58.0536 58.7071C58.1999 58.7909 58.4089 58.833 58.6809 58.833C58.8585 58.833 59.0416 58.8121 59.2298 58.77C59.418 58.728 59.5956 58.6651 59.763 58.5813L59.81 59.6981C59.6008 59.7925 59.3655 59.8606 59.1043 59.9026C58.8534 59.9446 58.6128 59.9655 58.3829 59.9655C57.9438 59.9655 57.5934 59.9078 57.3322 59.7925C57.0708 59.6772 56.8669 59.5145 56.7206 59.3049C56.5741 59.0952 56.4748 58.8381 56.4226 58.5341C56.3807 58.2195 56.3599 57.8734 56.3599 57.4959V53.4532H54.7603V52.415H56.3599V50.3228H57.5831V52.415H59.7473V53.4532ZM61.5277 52.415H62.7509V59.7768H61.5277V52.415ZM61.2454 49.5363C61.2454 49.2952 61.3292 49.0853 61.4963 48.9071C61.6742 48.7289 61.8884 48.6397 62.1393 48.6397C62.3902 48.6397 62.5994 48.7289 62.7666 48.9071C62.9444 49.0853 63.0332 49.2952 63.0332 49.5363C63.0332 49.7986 62.9496 50.0134 62.7822 50.1813C62.6151 50.3491 62.4007 50.433 62.1393 50.433C61.8781 50.433 61.6637 50.3491 61.4963 50.1813C61.3292 50.0134 61.2454 49.7986 61.2454 49.5363ZM64.9188 56.0959C64.9188 55.519 65.0181 54.9948 65.2168 54.5228C65.4153 54.0509 65.6873 53.6471 66.0323 53.3116C66.3773 52.9655 66.7902 52.6981 67.2712 52.5094C67.752 52.3206 68.2749 52.2262 68.8394 52.2262C69.404 52.2262 69.9266 52.3206 70.4076 52.5094C70.8884 52.6981 71.3015 52.9655 71.6465 53.3116C71.9916 53.6471 72.2633 54.0509 72.462 54.5228C72.6605 54.9948 72.76 55.519 72.76 56.0959C72.76 56.6727 72.6605 57.197 72.462 57.6689C72.2633 58.1408 71.9916 58.5498 71.6465 58.8959C71.3015 59.2314 70.8884 59.4936 70.4076 59.6824C69.9266 59.8712 69.404 59.9655 68.8394 59.9655C68.2749 59.9655 67.752 59.8712 67.2712 59.6824C66.7902 59.4936 66.3773 59.2314 66.0323 58.8959C65.6873 58.5498 65.4153 58.1408 65.2168 57.6689C65.0181 57.197 64.9188 56.6727 64.9188 56.0959ZM66.2362 56.0959C66.2362 56.484 66.2935 56.8458 66.4087 57.1813C66.5341 57.5064 66.7118 57.7948 66.9419 58.0464C67.1717 58.2876 67.4437 58.4817 67.7573 58.6285C68.0813 58.7649 68.442 58.833 68.8394 58.833C69.2366 58.833 69.5922 58.7649 69.9058 58.6285C70.2298 58.4817 70.5069 58.2876 70.737 58.0464C70.9668 57.7948 71.1393 57.5064 71.2545 57.1813C71.3799 56.8458 71.4427 56.484 71.4427 56.0959C71.4427 55.7078 71.3799 55.3514 71.2545 55.0262C71.1393 54.6907 70.9668 54.4022 70.737 54.161C70.5069 53.9094 70.2298 53.7154 69.9058 53.579C69.5922 53.4323 69.2366 53.3588 68.8394 53.3588C68.442 53.3588 68.0813 53.4323 67.7573 53.579C67.4437 53.7154 67.1717 53.9094 66.9419 54.161C66.7118 54.4022 66.5341 54.6907 66.4087 55.0262C66.2935 55.3514 66.2362 55.7078 66.2362 56.0959ZM74.9672 54.161C74.9672 53.8255 74.9568 53.5109 74.9358 53.2172C74.915 52.9235 74.9044 52.6561 74.9044 52.415H76.0649C76.0649 52.6143 76.0703 52.8134 76.0806 53.0127C76.0911 53.2121 76.0963 53.4166 76.0963 53.6262H76.1276C76.2114 53.448 76.3264 53.275 76.4726 53.1071C76.6295 52.9393 76.8125 52.7925 77.0215 52.6667C77.2308 52.5303 77.466 52.4255 77.7272 52.3521C77.9887 52.2682 78.271 52.2262 78.5741 52.2262C79.0551 52.2262 79.468 52.2997 79.813 52.4464C80.1685 52.5932 80.4613 52.7977 80.6912 53.0599C80.9213 53.3222 81.0886 53.6419 81.193 54.0195C81.3082 54.3864 81.3655 54.7903 81.3655 55.2307V59.7768H80.1423V55.3566C80.1423 54.7379 80.0065 54.2503 79.7346 53.8936C79.4628 53.537 79.0394 53.3588 78.4643 53.3588C78.0671 53.3588 77.7221 53.4269 77.4293 53.5633C77.147 53.6997 76.9118 53.8936 76.7236 54.1453C76.5459 54.397 76.4099 54.6959 76.3158 55.0419C76.2323 55.388 76.1904 55.7707 76.1904 56.1903V59.7768H74.9672V54.161ZM84.0577 53.3588C84.4341 52.9707 84.8784 52.6876 85.3907 52.5094C85.9134 52.3206 86.4414 52.2262 86.9746 52.2262C88.0619 52.2262 88.846 52.4831 89.327 52.997C89.8077 53.5109 90.0484 54.2921 90.0484 55.3408V58.5026C90.0484 58.7123 90.0587 58.9325 90.0797 59.1633C90.1006 59.3835 90.1268 59.588 90.1581 59.7768H88.982C88.9401 59.6089 88.9139 59.4255 88.9035 59.2262C88.9035 59.0165 88.9035 58.833 88.9035 58.6757H88.8722C88.6316 59.0532 88.3076 59.3626 87.8999 59.6037C87.5024 59.8449 87.0217 59.9655 86.4571 59.9655C86.0807 59.9655 85.7252 59.9183 85.3907 59.824C85.0665 59.7296 84.7791 59.5932 84.5282 59.415C84.2876 59.2262 84.0942 58.9954 83.9479 58.7228C83.8014 58.4503 83.7284 58.1356 83.7284 57.779C83.7284 57.1707 83.8852 56.6936 84.1989 56.3476C84.5125 56.0015 84.8992 55.7446 85.3594 55.5768C85.8298 55.4089 86.3317 55.3042 86.8649 55.2622C87.4084 55.2201 87.905 55.1993 88.3547 55.1993H88.8251V54.979C88.8251 54.4442 88.6629 54.0404 88.339 53.7678C88.0253 53.4952 87.5809 53.3588 87.006 53.3588C86.6086 53.3588 86.2165 53.4269 85.8298 53.5633C85.4535 53.6891 85.1187 53.8885 84.8262 54.161L84.0577 53.3588ZM87.6019 56.2375C86.8178 56.2375 86.1957 56.3476 85.7357 56.5678C85.2756 56.788 85.0457 57.1498 85.0457 57.6532C85.0457 58.1145 85.1972 58.4449 85.5005 58.6442C85.8141 58.833 86.2008 58.9273 86.661 58.9273C87.0163 58.9273 87.3248 58.8696 87.5862 58.7543C87.858 58.6285 88.0827 58.466 88.2606 58.2667C88.4382 58.0673 88.5742 57.8368 88.6683 57.5745C88.7624 57.3019 88.8146 57.0134 88.8251 56.7094V56.2375H87.6019ZM92.7074 47.8846H93.9306V59.7768H92.7074V47.8846Z" fill="white"/>
</svg>
