<svg width="81" height="67" viewBox="0 0 81 67" fill="none" xmlns="http://www.w3.org/2000/svg">
<path d="M79.6365 26.5353C78.8669 24.5152 77.2867 22.7116 75.3634 21.4112C69.8109 17.8856 61.3491 17.6345 55.628 20.8219C52.5078 22.4127 50.457 25.5607 49.8187 28.8026C48.6611 34.1289 48.9601 40.4662 53.0636 44.4585C57.8484 48.653 64.8124 49.5797 71.005 47.8567C71.2992 47.8001 72.2316 47.5653 72.8746 47.2242L73.0558 47.1466C74.9791 46.3473 76.8133 45.0459 78.1827 43.2836C81.3432 38.6627 81.5598 31.7389 79.6365 26.5353ZM69.5541 38.4959C69.3356 39.506 68.6562 40.5524 67.5848 40.9319C65.879 41.6823 63.5714 41.4743 61.9912 40.5965C60.6658 39.6698 60.4952 38.1183 60.3247 36.6502C60.1953 33.7561 59.9864 30.6915 60.7971 28.0456C61.4325 26.4069 63.1852 25.9852 64.7703 25.8616C66.4348 25.8616 68.0553 26.1155 69.0836 27.4581C69.7237 28.4212 69.6844 29.6814 69.8109 30.816C69.7659 33.207 69.9806 36.0589 69.5541 38.4959ZM18.9296 41.1025C17.519 41.0163 15.9388 41.1399 14.5732 40.9722L14.6153 26.2353L14.7016 26.1127L18.9296 26.0715C18.9737 23.6795 19.0159 21.1141 18.8856 18.934L2.78312 18.889L0.131483 18.935C0.0893175 21.1582 0.0893175 23.7581 0.131483 26.0274C1.58523 26.0724 2.94986 26.0274 4.36049 26.1587V40.4307L4.31928 41.0172L0.0893175 41.1035C0.00115197 43.4115 0.00115197 45.7221 0.0893175 48.0301H18.9287L18.9296 41.1025ZM66.3467 51.1753C64.5546 53.7388 62.2901 56.215 59.8177 58.1412C59.7276 58.2725 59.4718 58.2227 59.3903 58.1019C58.3189 57.4321 57.1661 56.8839 56.1388 56.215C57.5072 54.5792 58.8326 52.9424 59.858 51.1302H58.5288C57.467 52.6894 56.3534 54.3252 54.9447 55.7062C53.0636 54.952 51.3559 54.2812 49.4335 53.7732L49.2198 53.6132C49.5188 52.7651 50.0727 51.9688 50.2423 51.1283H49.0895L47.9366 53.3966C45.4192 52.8514 42.641 52.5543 40.0776 52.3885C39.9482 52.0119 40.1178 51.4656 39.9482 51.1283H38.8375C38.7493 51.6334 38.9659 52.0138 38.7091 52.4326C36.0603 52.5543 33.4978 52.8514 31.0225 53.3602L29.8649 51.1283C29.4423 51.1283 28.9669 51.0478 28.6718 51.1734L29.7374 53.6506L29.61 53.7732C27.6953 54.3272 25.8129 54.9869 23.9713 55.7493L23.8017 55.663C22.6028 54.3616 21.449 52.9405 20.508 51.5126C20.2962 50.7948 19.4414 51.2146 18.9708 51.1302C19.9924 52.9798 21.3637 54.6146 22.7284 56.2965C21.5755 56.9702 20.4265 57.7215 19.2248 58.2725C16.6117 56.2823 14.3337 53.887 12.4774 51.1772C11.9637 51.0948 11.6254 51.1322 11.1089 51.1772C14.1851 55.963 18.9708 60.1594 23.9694 62.6366C23.9694 62.6366 23.9694 62.5993 24.0154 62.5993C24.0518 62.5993 24.1371 62.6769 24.0518 62.721C27.4289 64.3587 31.0196 65.5336 34.8184 66.0396C47.9347 67.7588 60.4531 62.1786 67.7113 51.1772C67.2577 51.1305 66.8004 51.1298 66.3467 51.1753ZM48.5365 54.9529L48.6621 54.8686C50.5039 55.2883 52.2519 55.8767 53.8762 56.6721C52.5078 58.2217 50.756 59.5681 49.1345 60.7008C48.1532 61.2864 47.1671 61.9227 46.1408 62.4229L44.3075 61.6256L44.4331 61.3353C45.974 59.2797 47.3415 57.1781 48.5365 54.9529ZM40.1178 53.6927C42.5548 53.7388 44.9908 53.9898 47.2514 54.5332L47.2965 54.6606C46.1024 56.9251 44.6036 59.1129 42.9831 61.1656C42.2529 61.2519 41.5725 60.9615 40.8471 60.9165L40.1168 60.8302C40.0335 58.353 39.9884 56.17 40.1178 53.6927ZM31.8764 54.4479C34.0977 54.0282 36.4034 53.6927 38.7944 53.6927L38.8385 60.7948C37.9396 60.9979 36.9573 60.9979 36.1025 61.2135C34.3507 59.1513 32.8998 56.9251 31.6627 54.6146L31.8764 54.4479ZM24.9948 56.7172C26.6651 55.917 28.414 55.3257 30.206 54.8676L30.3795 54.9117C31.6147 57.2212 33.1547 59.4023 34.6919 61.5854C34.0987 61.9236 33.3684 62.1259 32.7724 62.467C29.8834 61.0399 27.2546 59.1377 24.9957 56.8398V56.7172H24.9948ZM30.5079 63.8949C26.919 62.9682 23.5841 61.3736 20.5089 59.1944V59.0641C21.5343 58.4402 22.5635 57.7665 23.6704 57.2998C26.1074 59.6994 28.6258 61.5049 31.3598 63.2222C31.1471 63.4742 30.8059 63.7272 30.5079 63.8949ZM46.3554 64.4373C41.8284 65.409 36.7848 65.4464 32.2587 64.3568C32.1725 64.1479 32.4724 64.1028 32.5999 63.9802C36.573 61.4167 42.7646 61.4167 46.6563 64.1843C46.7828 64.4373 46.4417 64.3568 46.3554 64.4373ZM50.4579 63.2662L48.4503 63.8939C48.1072 63.7262 47.8101 63.4742 47.5083 63.2212L47.5945 63.0928C50.3295 61.5039 52.8058 59.5672 55.1565 57.2586C56.3103 57.7196 57.4219 58.353 58.4502 59.0631C56.0554 60.9615 53.2773 62.215 50.4579 63.2662ZM12.394 15.6997C13.4507 14.2374 14.6065 12.8494 15.8535 11.5455C16.9603 10.4961 17.9895 9.48892 19.1874 8.72995C20.2991 9.44293 21.5362 10.0371 22.6038 10.706C21.2804 12.3351 19.9129 13.9796 18.9306 15.738C19.2277 15.8693 19.7854 15.8281 20.2138 15.738C21.2804 14.1875 22.4303 12.635 23.8026 11.2484C25.6349 11.9221 27.4317 12.6331 29.3138 13.1391L29.4796 13.3059L28.4159 15.738C28.8874 15.8281 29.1864 15.784 29.6531 15.738C30.0364 15.0289 30.3335 14.2335 30.7609 13.5157C33.2419 14.0639 35.8485 14.3562 38.4973 14.4376C38.8365 14.7357 38.5816 15.3624 38.71 15.738H39.8629C39.9884 15.326 39.8198 14.8583 39.9884 14.4846C42.4685 14.3542 45.0732 14.1022 47.4738 13.5138L47.6817 13.5579L48.8355 15.7361C49.2208 15.7361 49.7325 15.8262 50.0315 15.6499L48.9611 13.2215L49.0502 13.1372C51.0118 12.6331 52.8518 11.878 54.731 11.1238C56.0592 12.5085 57.2945 14.1453 58.409 15.7352C58.8767 15.7352 59.3472 15.7812 59.6893 15.6489C59.1617 14.7117 58.5463 13.8267 57.8513 13.0059C57.287 12.202 56.6576 11.4458 55.9692 10.7453V10.5277L58.96 8.80949L59.3913 8.64178C61.9923 10.6105 64.2684 12.9749 66.1368 15.6489C66.6495 15.6489 67.0779 15.8253 67.5062 15.6135C61.7755 7.05674 52.3362 1.55127 42.1312 0.758748L42.0862 0.840204L41.999 0.758748C40.8471 0.635127 39.4317 0.586253 38.1945 0.709875C37.7259 0.673459 37.172 0.709875 36.6152 0.758748C26.3642 1.55127 16.9239 6.80183 11.0255 15.74C11.4529 15.6997 11.9656 15.8703 12.394 15.6997ZM30.1255 12.0112L29.955 12.0476C28.2013 11.5905 26.4907 11.0395 24.8673 10.3284L24.9497 10.0764C27.2995 7.85214 29.7767 6.00356 32.5108 4.57952C33.1547 4.83155 33.7949 5.03951 34.435 5.33754L34.3095 5.66528C32.6833 7.68539 31.4049 9.86362 30.1255 12.0112ZM38.6238 13.141C37.4307 13.3087 36.3622 13.1037 35.1614 13.0107C34.0134 12.842 32.5577 12.7203 31.4049 12.337C32.644 10.039 34.0987 7.80997 35.8485 5.75824L38.5835 6.13102C38.71 8.31021 38.6238 10.8306 38.6238 13.141ZM39.9472 13.1861C39.8629 10.9542 39.907 8.48079 39.9472 6.17127C40.8049 6.0486 41.7402 5.91827 42.5969 5.79465C44.2625 7.89047 45.8897 10.039 47.0013 12.337C44.6914 12.8959 42.3238 13.1809 39.9472 13.1861ZM53.5791 10.2431C51.9098 10.9532 50.1992 11.6259 48.365 12.0112C47.0416 9.786 45.5897 7.56177 43.9616 5.41229C44.5605 5.08359 45.2907 4.83155 45.9299 4.4971C48.7119 5.8809 51.3999 7.85214 53.6616 10.1118L53.5791 10.2431ZM48.1072 3.06539C51.6961 3.99112 55.0712 5.58382 58.1474 7.76685L58.0621 7.93455L55.1172 9.56942H54.8997C52.639 7.31069 49.9912 5.33754 47.2965 3.78029C47.3818 3.48609 47.8111 3.2743 48.1072 3.06539ZM46.4005 2.64374V2.73286C42.6813 5.41229 36.6593 5.66528 32.7312 3.18806C32.5108 3.02035 32.0891 2.9389 32.0431 2.6447C36.574 1.60014 41.9108 1.51581 46.4005 2.64374ZM20.3393 7.85214C23.0331 5.8809 26.0221 4.41181 29.1845 3.40368C29.3139 3.27239 29.3963 3.14877 29.5649 3.14877V3.23501C29.9061 3.31743 30.1639 2.93698 30.4619 3.18614C30.7197 3.40368 31.0216 3.56946 31.2324 3.77837C28.5855 5.41229 25.978 7.34711 23.5851 9.69304C22.4313 9.28097 21.3676 8.64753 20.3383 7.93455L20.3393 7.85214ZM38.6679 41.4303C34.6526 42.5237 30.2923 41.69 27.3886 38.6627C27.0484 38.2429 26.8328 37.7427 26.4897 37.3249L20.7245 37.3651C20.6335 40.7642 20.5933 44.6693 20.7245 48.0292L27.1299 47.9879L27.2152 45.9717C27.9444 46.3071 28.6718 46.7259 29.3963 47.1025C33.839 48.952 39.5582 49.3717 43.9597 47.1025C47.1661 45.344 48.8758 41.9449 48.4043 38.2851C47.9366 34.7211 44.5174 31.4869 41.0598 30.6081L30.7187 27.6249L29.954 27.2454C29.6119 26.9541 29.3972 26.5784 29.4806 26.1127C30.2923 24.7308 32.1744 25.1505 33.5841 25.1879C36.574 25.6086 39.6492 26.6158 41.4019 29.346C43.2793 29.346 45.4575 29.3824 47.5063 29.3019C47.5936 25.8606 47.4728 22.8401 47.422 19.3547C45.4997 19.3106 43.1489 19.3106 41.2294 19.3988C41.1432 19.8981 41.3119 20.6091 41.0981 21.1151L39.1346 20.0648C34.4331 18.0926 27.8534 17.8866 23.5832 20.9512C20.805 22.9627 19.9531 26.5765 20.6795 29.7657C21.2324 32.7834 24.1371 35.0106 26.9152 36.057C30.7168 37.3987 34.688 38.3704 38.5395 39.6698C38.9209 39.8404 39.4326 40.2209 39.3502 40.6818C39.3521 41.0546 38.965 41.2702 38.6679 41.4303Z" fill="white"/>
</svg>
