<svg width="60" height="60" viewBox="0 0 60 60" fill="none" xmlns="http://www.w3.org/2000/svg">
<g clip-path="url(#clip0_5171_588)">
<path d="M26.7176 36.5032C29.1424 36.5032 31.4477 36.5205 33.753 36.5032C35.2045 36.486 36.434 36.9345 37.4244 38.0213C38.0733 38.7458 38.5514 39.5911 38.5514 40.5744C38.5685 43.4381 38.6197 46.319 38.4148 49.1654C38.2441 51.6151 37.2536 53.8404 35.768 55.7898C34.1628 57.9116 31.9771 59.0675 29.3303 59.102C26.1541 59.1537 22.9779 59.1192 19.7847 59.0675C17.7697 59.033 15.8742 58.4464 14.0641 57.5839C13.8934 57.4976 13.7226 57.4286 13.5518 57.3596C12.1345 59.4815 9.48771 59.4125 7.42148 58.8605C6.00416 58.4809 5.04789 57.0491 5.04789 55.5138C5.01374 50.4075 5.01374 45.3012 5.04789 40.1777C5.06497 38.1421 6.63598 36.6067 8.65097 36.5377C9.24864 36.5205 9.84631 36.5205 10.444 36.5377C11.571 36.5722 12.4931 37.0725 13.2445 37.9005C16.6939 34.8471 18.9821 31.1209 20.0067 26.6184C20.6214 23.9273 22.7901 22.9095 25.2149 24.1688C27.7593 25.4799 29.04 28.3953 28.2715 31.2244C27.8788 32.6908 27.4007 34.1571 26.9738 35.6234C26.8713 35.8649 26.803 36.1409 26.7176 36.5032ZM24.2245 56.9628C24.2245 56.9111 24.2245 56.8593 24.2416 56.8076C25.7955 56.8076 27.3494 56.8248 28.9204 56.8076C31.277 56.7731 33.1041 55.7553 34.3336 53.7024C35.4436 51.8566 36.1266 49.8727 36.1608 47.7163C36.1949 45.629 36.1266 43.5416 36.0754 41.4542C36.0241 39.7809 35.1703 39.0046 33.5139 39.0046C30.7476 39.0046 27.9642 38.9874 25.1978 39.0046C24.566 39.0046 24.0879 38.7976 23.9 38.1766C23.8147 37.9005 23.8659 37.5383 23.9513 37.2278C24.566 35.1059 25.1978 32.984 25.8126 30.8449C26.3761 28.93 25.5906 27.0842 23.9 26.2734C22.8755 25.7731 22.4144 25.9974 22.1583 27.1187C21.4752 30.0859 20.3482 32.8805 18.5039 35.2957C17.2403 36.9517 15.7205 38.4353 14.3374 40.0052C14.1666 40.1949 13.9788 40.4709 13.9788 40.6952C13.9617 45.3012 13.9617 49.9245 13.9788 54.5305C13.9788 54.7202 14.1324 54.9962 14.3032 55.0652C15.4644 55.5483 16.6085 56.1866 17.8209 56.3763C19.9213 56.7558 22.0729 56.7903 24.2245 56.9628ZM11.6052 47.8371C11.6052 45.6462 11.6052 43.4381 11.6052 41.2472C11.6052 39.0391 11.4344 38.8666 9.23156 38.8666C7.76301 38.8666 7.37026 39.2634 7.37026 40.7297C7.37026 45.4565 7.37026 50.166 7.37026 54.8927C7.37026 55.0997 7.37026 55.324 7.38733 55.531C7.47271 56.2728 7.93377 56.7041 8.65097 56.7386C9.02665 56.7558 9.4194 56.7386 9.79508 56.7386C11.2124 56.7386 11.6052 56.3418 11.6052 54.8755C11.6052 52.5294 11.6052 50.1832 11.6052 47.8371Z" fill="white"/>
<path d="M18.1112 21.2361C16.4719 21.1326 15.2765 19.6835 15.5498 18.0447C15.7547 16.7509 16.0108 15.4571 16.1987 14.1632C16.2328 13.9217 16.1304 13.5594 15.9596 13.3869C15.0887 12.4726 14.1837 11.5756 13.2957 10.6785C12.5273 9.9195 12.237 9.02245 12.5443 7.97014C12.8688 6.86608 13.6202 6.24504 14.7301 6.07253C16.0108 5.86552 17.3086 5.71026 18.5893 5.486C18.8284 5.4515 19.1187 5.22724 19.2382 5.00298C19.8188 3.89891 20.3482 2.7776 20.8946 1.65629C21.3898 0.603982 22.1924 0.000198748 23.3536 0.0174497C24.5148 0.0174497 25.3003 0.655735 25.7955 1.69079C26.3078 2.7776 26.8542 3.84716 27.3494 4.95122C27.5373 5.3825 27.8276 5.53775 28.2545 5.60676C29.484 5.76202 30.6964 5.95178 31.9259 6.14154C32.9846 6.2968 33.7359 6.88333 34.0775 7.91839C34.419 8.95344 34.1628 9.86774 33.4115 10.644C32.5065 11.5583 31.5843 12.4554 30.6964 13.3869C30.5256 13.5767 30.4061 13.9045 30.4232 14.1632C30.5768 15.4053 30.7817 16.6301 30.9696 17.8722C31.1404 18.9935 30.9013 19.9768 29.945 20.6668C28.9887 21.3569 27.9983 21.3051 26.9908 20.7531C25.9321 20.1838 24.8734 19.6318 23.8317 19.0625C23.4902 18.8727 23.217 18.8382 22.8413 19.0453C21.7143 19.6663 20.5872 20.2528 19.4261 20.8221C18.9992 20.9946 18.5381 21.0809 18.1112 21.2361ZM15.0033 8.40141C15.2595 8.72918 15.4302 9.02245 15.6522 9.24671C16.6426 10.2473 17.6501 11.2478 18.6747 12.2311C19.1358 12.6796 19.2724 13.1799 19.1528 13.801C18.8796 15.2673 18.6406 16.7336 18.3844 18.2C18.3503 18.3552 18.4015 18.5277 18.4186 18.683C18.5893 18.6657 18.7942 18.683 18.9309 18.5967C20.2628 17.9067 21.5947 17.2167 22.8925 16.4921C23.4561 16.1816 23.9513 16.1816 24.5148 16.4921C25.7613 17.1821 27.0421 17.8549 28.3057 18.5105C28.4935 18.614 28.7326 18.6485 28.9546 18.7175C28.9717 18.476 29.0571 18.2172 29.0229 17.9929C28.8009 16.6474 28.5789 15.319 28.3057 13.9907C28.152 13.2317 28.3057 12.6279 28.9034 12.0759C29.8938 11.1616 30.8501 10.1955 31.7892 9.22946C31.96 9.05695 32.0454 8.81544 32.182 8.60843C31.96 8.50492 31.738 8.36691 31.516 8.33241C30.0816 8.10815 28.6472 7.88388 27.2128 7.69412C26.6152 7.62512 26.2566 7.3146 25.9833 6.79707C25.3344 5.486 24.6514 4.19218 23.9854 2.89836C23.883 2.69135 23.678 2.51884 23.5244 2.34633C23.3707 2.53609 23.1828 2.7086 23.0804 2.93286C22.3973 4.22668 21.7314 5.5205 21.0825 6.83158C20.8263 7.36636 20.4506 7.62512 19.8359 7.69412C18.2649 7.90113 16.6939 8.1599 15.0033 8.40141Z" fill="white"/>
<path d="M47.5164 27.826C47.1237 27.688 46.6968 27.6017 46.3211 27.412C45.399 26.9634 44.511 26.4459 43.5889 25.9974C43.384 25.8939 43.0595 25.8939 42.8546 25.9974C41.9496 26.4287 41.0616 26.9117 40.1907 27.3947C39.2686 27.895 38.3465 27.9295 37.4927 27.2912C36.6389 26.6529 36.3828 25.7731 36.6047 24.7036C36.7926 23.7548 36.9804 22.806 37.0999 21.8399C37.1341 21.5811 37.0146 21.2016 36.8267 21.0119C36.1266 20.2528 35.3753 19.5455 34.641 18.821C33.9067 18.0964 33.6164 17.2339 33.975 16.2333C34.3165 15.2673 35.0679 14.7843 36.0583 14.6635C37.0316 14.5428 38.005 14.3702 38.9783 14.2495C39.354 14.1977 39.576 14.0252 39.7297 13.6802C40.1395 12.8004 40.5664 11.9379 41.0104 11.0753C41.4715 10.1438 42.2399 9.64348 43.2645 9.64348C44.272 9.66073 45.0062 10.161 45.4673 11.0581C45.8942 11.9206 46.3382 12.7832 46.7309 13.663C46.9017 14.0597 47.1578 14.1977 47.5506 14.2495C48.5069 14.3702 49.4461 14.5255 50.4023 14.6463C51.3927 14.7843 52.127 15.2673 52.4515 16.2506C52.793 17.2512 52.5198 18.1137 51.7855 18.8382C51.0854 19.5283 50.4023 20.2528 49.6851 20.9256C49.3607 21.2361 49.2753 21.5294 49.3607 21.9434C49.5485 22.9612 49.7364 23.979 49.89 24.9968C50.095 26.4977 49.0191 27.757 47.5164 27.826ZM50.0266 17.0786C48.9508 16.8889 47.8238 16.6301 46.6797 16.5266C45.6893 16.4404 45.1599 15.9746 44.7842 15.0948C44.3403 14.0425 43.7767 13.0419 43.2303 11.9206C42.7351 12.9039 42.2057 13.7665 41.8642 14.6808C41.369 16.0608 40.4469 16.5784 39.0466 16.6301C38.1416 16.6646 37.2366 16.8889 36.1778 17.0441C37.0658 17.9412 37.8172 18.7692 38.6539 19.4938C39.5419 20.2528 39.8321 21.0636 39.4735 22.2194C39.1662 23.1855 39.0637 24.2205 38.8417 25.3418C40.02 24.7553 41.0958 24.2723 42.1033 23.6858C42.8888 23.2372 43.5548 23.2545 44.3061 23.703C45.3136 24.2895 46.3723 24.8071 47.4823 25.3936C47.2774 24.0998 47.1237 22.9095 46.8846 21.7364C46.7309 20.9256 46.8846 20.3046 47.4994 19.718C48.4215 18.89 49.1899 17.9757 50.0266 17.0786Z" fill="white"/>
<path d="M7.71178 27.8432C7.30195 27.7052 6.85797 27.5845 6.46522 27.3947C5.57725 26.9634 4.70637 26.4977 3.86963 26.0146C3.52811 25.8249 3.27196 25.8421 2.93044 26.0319C2.07663 26.5149 1.18866 26.9634 0.334854 27.412C-0.570186 27.895 -1.47522 27.9122 -2.31196 27.2912C-3.14869 26.6702 -3.43899 25.8249 -3.23407 24.7898C-3.04624 23.8238 -2.8584 22.8405 -2.73886 21.8572C-2.70471 21.5811 -2.82425 21.2189 -2.99501 21.0291C-3.69513 20.2701 -4.44649 19.5628 -5.18076 18.8382C-5.91504 18.1137 -6.20534 17.2512 -5.84674 16.2506C-5.50521 15.2845 -4.77093 14.8015 -3.76344 14.6635C-2.79009 14.5428 -1.81675 14.3702 -0.843404 14.2495C-0.467728 14.1977 -0.245737 14.0425 -0.0749745 13.6802C0.300703 12.8522 0.727607 12.0586 1.10328 11.2478C1.56434 10.23 2.3157 9.62623 3.44273 9.64348C4.56976 9.64348 5.30403 10.2645 5.76509 11.2823C6.14077 12.0759 6.56767 12.8522 6.9092 13.663C7.07996 14.0425 7.31903 14.215 7.71178 14.2667C8.68513 14.3875 9.65847 14.5428 10.6318 14.6808C11.6222 14.8188 12.3565 15.319 12.681 16.2851C13.0225 17.2684 12.7493 18.1137 12.0321 18.821C11.2978 19.5455 10.5806 20.2873 9.82923 20.9774C9.52186 21.2706 9.47063 21.5639 9.53894 21.9434C9.72677 22.9612 9.91461 23.979 10.0854 24.9968C10.3074 26.4632 9.21449 27.757 7.71178 27.8432ZM-3.60975 17.0269C-2.5681 18.0619 -1.66306 19.028 -0.706795 19.9423C-0.211584 20.4253 -0.040822 20.9256 -0.211584 21.6156C-0.484804 22.806 -0.689718 24.0135 -0.945861 25.3246C-0.160356 24.9278 0.522693 24.5656 1.20574 24.2378C3.8184 22.9785 2.94752 22.8922 5.61141 24.2723C6.27738 24.6173 6.94335 24.9623 7.6947 25.3591C7.47271 23.9963 7.30195 22.7542 7.06289 21.5294C6.94335 20.8221 7.07996 20.2701 7.60932 19.787C8.25822 19.2005 8.85589 18.5622 9.48771 17.9412C9.74385 17.6824 10.0341 17.4409 10.4269 17.0786C9.00957 16.8371 7.83132 16.6129 6.6189 16.4576C5.85047 16.3714 5.38942 16.0263 5.06497 15.319C4.55268 14.1805 3.97209 13.0937 3.3915 11.8861C2.75968 13.1454 2.14493 14.3012 1.58142 15.4916C1.3082 16.0781 0.881293 16.3541 0.249473 16.4404C-0.962938 16.6301 -2.2095 16.8199 -3.60975 17.0269Z" fill="white"/>
<path d="M26.7176 36.5032C29.1424 36.5032 31.4477 36.5205 33.753 36.5032C35.2045 36.486 36.434 36.9345 37.4244 38.0213C38.0733 38.7458 38.5514 39.5911 38.5514 40.5744C38.5685 43.4381 38.6197 46.319 38.4148 49.1654C38.2441 51.6151 37.2536 53.8404 35.768 55.7898C34.1628 57.9116 31.9771 59.0675 29.3303 59.102C26.1541 59.1537 22.9779 59.1192 19.7847 59.0675C17.7697 59.033 15.8742 58.4464 14.0641 57.5839C13.8934 57.4976 13.7226 57.4286 13.5518 57.3596C12.1345 59.4815 9.48771 59.4125 7.42148 58.8605C6.00416 58.4809 5.04789 57.0491 5.04789 55.5138C5.01374 50.4075 5.01374 45.3012 5.04789 40.1777C5.06497 38.1421 6.63598 36.6067 8.65097 36.5377C9.24864 36.5205 9.84631 36.5205 10.444 36.5377C11.571 36.5722 12.4931 37.0725 13.2445 37.9005C16.6939 34.8471 18.9821 31.1209 20.0067 26.6184C20.6214 23.9273 22.7901 22.9095 25.2149 24.1688C27.7593 25.4799 29.04 28.3953 28.2715 31.2244C27.8788 32.6908 27.4007 34.1571 26.9738 35.6234C26.8713 35.8649 26.803 36.1409 26.7176 36.5032ZM24.2245 56.9628C24.2245 56.9111 24.2245 56.8593 24.2416 56.8076C25.7955 56.8076 27.3494 56.8248 28.9204 56.8076C31.277 56.7731 33.1041 55.7553 34.3336 53.7024C35.4436 51.8566 36.1266 49.8727 36.1608 47.7163C36.1949 45.629 36.1266 43.5416 36.0754 41.4542C36.0241 39.7809 35.1703 39.0046 33.5139 39.0046C30.7476 39.0046 27.9642 38.9874 25.1978 39.0046C24.566 39.0046 24.0879 38.7976 23.9 38.1766C23.8147 37.9005 23.8659 37.5383 23.9513 37.2278C24.566 35.1059 25.1978 32.984 25.8126 30.8449C26.3761 28.93 25.5906 27.0842 23.9 26.2734C22.8755 25.7731 22.4144 25.9974 22.1583 27.1187C21.4752 30.0859 20.3482 32.8805 18.5039 35.2957C17.2403 36.9517 15.7205 38.4353 14.3374 40.0052C14.1666 40.1949 13.9788 40.4709 13.9788 40.6952C13.9617 45.3012 13.9617 49.9245 13.9788 54.5305C13.9788 54.7202 14.1324 54.9962 14.3032 55.0652C15.4644 55.5483 16.6085 56.1866 17.8209 56.3763C19.9213 56.7558 22.0729 56.7903 24.2245 56.9628ZM11.6052 47.8371C11.6052 45.6462 11.6052 43.4381 11.6052 41.2472C11.6052 39.0391 11.4344 38.8666 9.23156 38.8666C7.76301 38.8666 7.37026 39.2634 7.37026 40.7297C7.37026 45.4565 7.37026 50.166 7.37026 54.8927C7.37026 55.0997 7.37026 55.324 7.38733 55.531C7.47271 56.2728 7.93377 56.7041 8.65097 56.7386C9.02665 56.7558 9.4194 56.7386 9.79508 56.7386C11.2124 56.7386 11.6052 56.3418 11.6052 54.8755C11.6052 52.5294 11.6052 50.1832 11.6052 47.8371Z" stroke="white"/>
<path d="M18.1112 21.2361C16.4719 21.1326 15.2765 19.6835 15.5498 18.0447C15.7547 16.7509 16.0108 15.4571 16.1987 14.1632C16.2328 13.9217 16.1304 13.5594 15.9596 13.3869C15.0887 12.4726 14.1837 11.5756 13.2957 10.6785C12.5273 9.9195 12.237 9.02245 12.5443 7.97014C12.8688 6.86608 13.6202 6.24504 14.7301 6.07253C16.0108 5.86552 17.3086 5.71026 18.5893 5.486C18.8284 5.4515 19.1187 5.22724 19.2382 5.00298C19.8188 3.89891 20.3482 2.7776 20.8946 1.65629C21.3898 0.603982 22.1924 0.000198748 23.3536 0.0174497C24.5148 0.0174497 25.3003 0.655735 25.7955 1.69079C26.3078 2.7776 26.8542 3.84716 27.3494 4.95122C27.5373 5.3825 27.8276 5.53775 28.2545 5.60676C29.484 5.76202 30.6964 5.95178 31.9259 6.14154C32.9846 6.2968 33.7359 6.88333 34.0775 7.91839C34.419 8.95344 34.1628 9.86774 33.4115 10.644C32.5065 11.5583 31.5843 12.4554 30.6964 13.3869C30.5256 13.5767 30.4061 13.9045 30.4232 14.1632C30.5768 15.4053 30.7817 16.6301 30.9696 17.8722C31.1404 18.9935 30.9013 19.9768 29.945 20.6668C28.9887 21.3569 27.9983 21.3051 26.9908 20.7531C25.9321 20.1838 24.8734 19.6318 23.8317 19.0625C23.4902 18.8727 23.217 18.8382 22.8413 19.0453C21.7143 19.6663 20.5872 20.2528 19.4261 20.8221C18.9992 20.9946 18.5381 21.0809 18.1112 21.2361ZM15.0033 8.40141C15.2595 8.72918 15.4302 9.02245 15.6522 9.24671C16.6426 10.2473 17.6501 11.2478 18.6747 12.2311C19.1358 12.6796 19.2724 13.1799 19.1528 13.801C18.8796 15.2673 18.6406 16.7336 18.3844 18.2C18.3503 18.3552 18.4015 18.5277 18.4186 18.683C18.5893 18.6657 18.7942 18.683 18.9309 18.5967C20.2628 17.9067 21.5947 17.2167 22.8925 16.4921C23.4561 16.1816 23.9513 16.1816 24.5148 16.4921C25.7613 17.1821 27.0421 17.8549 28.3057 18.5105C28.4935 18.614 28.7326 18.6485 28.9546 18.7175C28.9717 18.476 29.0571 18.2172 29.0229 17.9929C28.8009 16.6474 28.5789 15.319 28.3057 13.9907C28.152 13.2317 28.3057 12.6279 28.9034 12.0759C29.8938 11.1616 30.8501 10.1955 31.7892 9.22946C31.96 9.05695 32.0454 8.81544 32.182 8.60843C31.96 8.50492 31.738 8.36691 31.516 8.33241C30.0816 8.10815 28.6472 7.88388 27.2128 7.69412C26.6152 7.62512 26.2566 7.3146 25.9833 6.79707C25.3344 5.486 24.6514 4.19218 23.9854 2.89836C23.883 2.69135 23.678 2.51884 23.5244 2.34633C23.3707 2.53609 23.1828 2.7086 23.0804 2.93286C22.3973 4.22668 21.7314 5.5205 21.0825 6.83158C20.8263 7.36636 20.4506 7.62512 19.8359 7.69412C18.2649 7.90113 16.6939 8.1599 15.0033 8.40141Z" stroke="white"/>
<path d="M47.5164 27.826C47.1237 27.688 46.6968 27.6017 46.3211 27.412C45.399 26.9634 44.511 26.4459 43.5889 25.9974C43.384 25.8939 43.0595 25.8939 42.8546 25.9974C41.9496 26.4287 41.0616 26.9117 40.1907 27.3947C39.2686 27.895 38.3465 27.9295 37.4927 27.2912C36.6389 26.6529 36.3828 25.7731 36.6047 24.7036C36.7926 23.7548 36.9804 22.806 37.0999 21.8399C37.1341 21.5811 37.0146 21.2016 36.8267 21.0119C36.1266 20.2528 35.3753 19.5455 34.641 18.821C33.9067 18.0964 33.6164 17.2339 33.975 16.2333C34.3165 15.2673 35.0679 14.7843 36.0583 14.6635C37.0316 14.5428 38.005 14.3702 38.9783 14.2495C39.354 14.1977 39.576 14.0252 39.7297 13.6802C40.1395 12.8004 40.5664 11.9379 41.0104 11.0753C41.4715 10.1438 42.2399 9.64348 43.2645 9.64348C44.272 9.66073 45.0062 10.161 45.4673 11.0581C45.8942 11.9206 46.3382 12.7832 46.7309 13.663C46.9017 14.0597 47.1578 14.1977 47.5506 14.2495C48.5069 14.3702 49.4461 14.5255 50.4023 14.6463C51.3927 14.7843 52.127 15.2673 52.4515 16.2506C52.793 17.2512 52.5198 18.1137 51.7855 18.8382C51.0854 19.5283 50.4023 20.2528 49.6851 20.9256C49.3607 21.2361 49.2753 21.5294 49.3607 21.9434C49.5485 22.9612 49.7364 23.979 49.89 24.9968C50.095 26.4977 49.0191 27.757 47.5164 27.826ZM50.0266 17.0786C48.9508 16.8889 47.8238 16.6301 46.6797 16.5266C45.6893 16.4404 45.1599 15.9746 44.7842 15.0948C44.3403 14.0425 43.7767 13.0419 43.2303 11.9206C42.7351 12.9039 42.2057 13.7665 41.8642 14.6808C41.369 16.0608 40.4469 16.5784 39.0466 16.6301C38.1416 16.6646 37.2366 16.8889 36.1778 17.0441C37.0658 17.9412 37.8172 18.7692 38.6539 19.4938C39.5419 20.2528 39.8321 21.0636 39.4735 22.2194C39.1662 23.1855 39.0637 24.2205 38.8417 25.3418C40.02 24.7553 41.0958 24.2723 42.1033 23.6858C42.8888 23.2372 43.5548 23.2545 44.3061 23.703C45.3136 24.2895 46.3723 24.8071 47.4823 25.3936C47.2774 24.0998 47.1237 22.9095 46.8846 21.7364C46.7309 20.9256 46.8846 20.3046 47.4994 19.718C48.4215 18.89 49.1899 17.9757 50.0266 17.0786Z" stroke="white"/>
<path d="M7.71178 27.8432C7.30195 27.7052 6.85797 27.5845 6.46522 27.3947C5.57725 26.9634 4.70637 26.4977 3.86963 26.0146C3.52811 25.8249 3.27196 25.8421 2.93044 26.0319C2.07663 26.5149 1.18866 26.9634 0.334854 27.412C-0.570186 27.895 -1.47522 27.9122 -2.31196 27.2912C-3.14869 26.6702 -3.43899 25.8249 -3.23407 24.7898C-3.04624 23.8238 -2.8584 22.8405 -2.73886 21.8572C-2.70471 21.5811 -2.82425 21.2189 -2.99501 21.0291C-3.69513 20.2701 -4.44649 19.5628 -5.18076 18.8382C-5.91504 18.1137 -6.20534 17.2512 -5.84674 16.2506C-5.50521 15.2845 -4.77093 14.8015 -3.76344 14.6635C-2.79009 14.5428 -1.81675 14.3702 -0.843404 14.2495C-0.467728 14.1977 -0.245737 14.0425 -0.0749745 13.6802C0.300703 12.8522 0.727607 12.0586 1.10328 11.2478C1.56434 10.23 2.3157 9.62623 3.44273 9.64348C4.56976 9.64348 5.30403 10.2645 5.76509 11.2823C6.14077 12.0759 6.56767 12.8522 6.9092 13.663C7.07996 14.0425 7.31903 14.215 7.71178 14.2667C8.68513 14.3875 9.65847 14.5428 10.6318 14.6808C11.6222 14.8188 12.3565 15.319 12.681 16.2851C13.0225 17.2684 12.7493 18.1137 12.0321 18.821C11.2978 19.5455 10.5806 20.2873 9.82923 20.9774C9.52186 21.2706 9.47063 21.5639 9.53894 21.9434C9.72677 22.9612 9.91461 23.979 10.0854 24.9968C10.3074 26.4632 9.21449 27.757 7.71178 27.8432ZM-3.60975 17.0269C-2.5681 18.0619 -1.66306 19.028 -0.706795 19.9423C-0.211584 20.4253 -0.040822 20.9256 -0.211584 21.6156C-0.484804 22.806 -0.689718 24.0135 -0.945861 25.3246C-0.160356 24.9278 0.522693 24.5656 1.20574 24.2378C3.8184 22.9785 2.94752 22.8922 5.61141 24.2723C6.27738 24.6173 6.94335 24.9623 7.6947 25.3591C7.47271 23.9963 7.30195 22.7542 7.06289 21.5294C6.94335 20.8221 7.07996 20.2701 7.60932 19.787C8.25822 19.2005 8.85589 18.5622 9.48771 17.9412C9.74385 17.6824 10.0341 17.4409 10.4269 17.0786C9.00957 16.8371 7.83132 16.6129 6.6189 16.4576C5.85047 16.3714 5.38942 16.0263 5.06497 15.319C4.55268 14.1805 3.97209 13.0937 3.3915 11.8861C2.75968 13.1454 2.14493 14.3012 1.58142 15.4916C1.3082 16.0781 0.881293 16.3541 0.249473 16.4404C-0.962938 16.6301 -2.2095 16.8199 -3.60975 17.0269Z" stroke="white"/>
</g>
<defs>
<clipPath id="clip0_5171_588">
<rect width="60" height="59.1892" fill="white"/>
</clipPath>
</defs>
</svg>
