<svg width="60" height="52" viewBox="0 0 60 52" fill="none" xmlns="http://www.w3.org/2000/svg">
<g clip-path="url(#clip0_5171_593)">
<path d="M10.1261 31.5144C11.5504 31.6767 12.9914 31.8505 14.4357 31.9997C15.0127 32.0603 15.2779 32.3751 15.4814 32.8899C16.0401 34.313 16.6371 35.7213 17.2709 37.1149C17.5127 37.6461 17.5194 38.074 17.1425 38.5282C16.2369 39.6217 15.3496 40.7267 14.4974 41.776C15.4914 42.7532 16.4554 43.7008 17.4894 44.7173C18.1999 44.1598 19.0054 43.527 19.8109 42.8925C21.7139 41.3924 21.2936 41.576 23.1982 42.5203C24.2105 43.022 25.3113 43.363 26.3937 43.709C27.0191 43.909 27.3893 44.2008 27.4544 44.8845C27.5844 46.2666 27.7696 47.6438 27.9347 49.0587H32.1225C32.2909 47.6143 32.466 46.1961 32.6178 44.7763C32.6778 44.2074 32.9797 43.8942 33.5317 43.7631C35.0594 43.4024 36.4937 42.8171 37.8313 42.0072C38.3416 41.6973 38.8003 41.7563 39.2622 42.1269C40.373 43.0171 41.4987 43.8893 42.5794 44.7386C43.5701 43.7582 44.5307 42.804 45.5548 41.7908C44.946 41.0399 44.2689 40.1955 43.5801 39.3577C42.2042 37.6838 42.3977 37.974 43.2616 36.2788C43.7786 35.2639 44.1605 34.1737 44.5124 33.0883C44.7292 32.421 45.0411 32.0226 45.7916 31.9849C46.4971 31.9489 47.1975 31.8456 47.9013 31.7652C48.5818 31.6882 49.2606 31.6046 50.0127 31.5144C50.0127 30.8733 50.0061 30.2454 50.0144 29.6175C50.0244 28.9076 50.4297 28.4649 51.0384 28.483C51.6238 28.4993 52.0007 28.924 52.0074 29.6093C52.0174 30.4881 52.0174 31.3685 52.0074 32.2489C51.9991 32.9867 51.6905 33.3096 50.9217 33.3998C49.5591 33.5588 48.1965 33.7277 46.8306 33.8523C46.4687 33.8851 46.362 34.0409 46.2452 34.3409C45.8683 35.3115 45.4764 36.2804 45.0261 37.2198C44.8443 37.6002 44.8843 37.8297 45.1462 38.138C45.985 39.1266 46.7956 40.1414 47.6095 41.1497C48.1398 41.8055 48.1215 42.217 47.5227 42.8105C46.2335 44.0893 44.9377 45.3616 43.6385 46.6306C43.0097 47.2437 42.5945 47.2569 41.9023 46.7125C40.8616 45.8961 39.8109 45.0911 38.7886 44.2533C38.4967 44.0156 38.2866 44.0352 37.9614 44.1795C36.979 44.6156 35.9817 45.0239 34.971 45.396C34.6475 45.5157 34.5274 45.6534 34.4941 45.9895C34.3606 47.3323 34.1922 48.6717 34.0337 50.0112C33.947 50.7473 33.6085 51.0572 32.848 51.0605C30.975 51.0671 29.1021 51.0671 27.2292 51.0605C26.4403 51.0572 26.1151 50.7506 26.0234 49.9669C25.8666 48.6258 25.6965 47.288 25.5631 45.9453C25.5314 45.6223 25.388 45.5124 25.1028 45.4042C24.0771 45.0157 23.0581 44.6091 22.0574 44.1631C21.7372 44.0205 21.5404 44.0484 21.2819 44.2566C20.2529 45.0878 19.2105 45.901 18.1682 46.7158C17.461 47.2683 17.0608 47.2503 16.432 46.6355C15.1328 45.3665 13.8386 44.0926 12.5478 42.8171C11.9474 42.2236 11.9273 41.8121 12.456 41.1596C13.2983 40.1185 14.1355 39.0758 14.9961 38.0511C15.2145 37.7904 15.2162 37.5986 15.0761 37.292C14.6241 36.3083 14.2406 35.2934 13.7903 34.3081C13.7035 34.1179 13.4534 33.9048 13.2532 33.8785C11.894 33.6933 10.5281 33.5523 9.16383 33.4014C8.36997 33.3129 8.0631 32.9932 8.05643 32.2112C8.04976 31.3521 8.04809 30.493 8.05643 29.6339C8.0631 28.9191 8.4617 28.478 9.0671 28.4862C9.67084 28.4961 10.0394 28.9355 10.0511 29.6618C10.0594 30.2339 10.0594 30.8061 10.0678 31.3799C10.0678 31.416 10.0995 31.4521 10.1311 31.5209L10.1261 31.5144Z" fill="white"/>
<path d="M30.0441 5.13863e-06C34.4287 -0.00491336 38.0094 3.52165 38.0194 7.85484C38.0278 12.1585 34.417 15.7113 30.0408 15.7097C25.6345 15.7064 22.0421 12.1946 22.0371 7.88272C22.0304 3.52329 25.6045 0.00492363 30.0441 5.13863e-06ZM24.0334 7.87616C24.0435 11.1207 26.7336 13.7456 30.0475 13.7439C33.338 13.7439 36.0398 11.0683 36.0181 7.83353C35.9981 4.58404 33.3113 1.96412 30.0024 1.96412C26.7136 1.96412 24.0234 4.62831 24.0334 7.87616Z" fill="white"/>
<path d="M44.0146 24.4681C44.0146 25.1026 44.023 25.7371 44.013 26.3699C44.0013 27.0487 43.616 27.4782 43.034 27.488C42.4286 27.4995 42.0266 27.0552 42.02 26.342C42.0116 25.278 41.9716 24.2123 42.0333 23.1516C42.075 22.4449 41.8248 21.9137 41.2361 21.6154C39.9319 20.953 38.6444 20.1906 37.2568 19.7693C31.498 18.0199 25.8175 18.2577 20.2855 20.7267C20.1337 20.794 19.9936 20.8825 19.8435 20.953C18.5627 21.5399 17.7771 22.3761 18.0173 23.9139C18.1424 24.714 18.0473 25.5469 18.0373 26.365C18.029 27.0437 17.6454 27.4749 17.0633 27.4897C16.4596 27.5044 16.051 27.0601 16.0443 26.3502C16.036 25.2862 16.096 24.2189 16.0276 23.1598C15.9426 21.8564 16.533 20.9218 17.5053 20.148C18.8028 19.1151 20.3138 18.4806 21.8832 17.9871C27.6471 16.1755 33.3909 16.2411 39.0697 18.3167C40.2238 18.7397 41.3212 19.3676 42.3602 20.0283C43.5293 20.771 44.1831 21.8547 44.0213 23.304C43.9779 23.6877 44.0146 24.0812 44.0146 24.4697V24.4681Z" fill="white"/>
<path d="M5.05081 9.80552C5.06081 5.99532 8.20958 2.9311 12.1005 2.94585C15.9047 2.95897 19.0401 6.05926 19.0351 9.79896C19.0301 13.6141 15.8947 16.6914 12.0138 16.6931C8.18623 16.6931 5.0408 13.5829 5.05081 9.80716V9.80552ZM12.0421 4.90997C9.31365 4.90342 7.06715 7.09051 7.0488 9.77109C7.03046 12.491 9.25194 14.7093 12.0104 14.7257C14.7723 14.742 17.0388 12.5386 17.0371 9.83667C17.0371 7.11838 14.8056 4.91653 12.0421 4.90997Z" fill="white"/>
<path d="M41.0215 9.81041C41.0298 5.99858 44.1769 2.93436 48.0662 2.94583C51.8704 2.95731 55.0075 6.05432 55.0042 9.79402C55.0008 13.6091 51.8671 16.6898 47.9878 16.6914C44.1603 16.6947 41.0115 13.5845 41.0215 9.81041ZM53.0078 9.83992C53.0078 7.12164 50.778 4.91815 48.0162 4.90995C45.2627 4.90176 43.0145 7.11508 43.0195 9.82845C43.0245 12.5385 45.2727 14.7322 48.0395 14.7256C50.7647 14.7191 53.0078 12.5139 53.0078 9.83828V9.83992Z" fill="white"/>
<path d="M0.0571206 24.6511C-0.383173 21.6558 1.78827 20.2376 4.28494 19.131C7.25025 17.8177 10.4074 17.5324 13.6212 17.7308C14.4284 17.78 15.2322 17.9063 16.0328 18.0276C16.7516 18.1374 17.1352 18.608 17.0251 19.1834C16.915 19.7638 16.3863 20.0671 15.6842 19.9523C12.2386 19.3802 8.83798 19.5048 5.55745 20.759C4.60515 21.1229 3.72957 21.7115 2.874 22.2772C2.2836 22.669 1.99675 23.2723 2.04511 24.0249C2.09348 24.7987 2.06346 25.5775 2.05345 26.3546C2.04344 27.0612 1.6315 27.5055 1.0261 27.4858C0.445713 27.4678 0.0721306 27.0383 0.0604562 26.3562C0.0521173 25.866 0.0587884 25.3742 0.0587884 24.6511H0.0571206Z" fill="white"/>
<path d="M59.9993 24.9353C59.9993 25.3025 59.9993 25.6714 59.9993 26.0387C59.9993 27.0273 59.6657 27.5027 58.9836 27.4913C58.3198 27.4798 58.0013 27.0207 58.0013 26.0698C58.0013 25.4353 57.9546 24.7976 58.0129 24.1696C58.0963 23.2696 57.6894 22.6416 57.0173 22.117C55.5446 20.971 53.8201 20.3906 52.0156 20.0299C49.4839 19.5233 46.9372 19.5069 44.3905 19.9529C43.6817 20.0775 43.1597 19.784 43.0379 19.2052C42.9162 18.6314 43.2998 18.1478 44.0086 18.033C48.2631 17.3428 52.4209 17.5674 56.3785 19.4118C56.9923 19.6987 57.5726 20.0791 58.1163 20.4841C59.6507 21.6284 59.9993 22.4974 59.9993 24.9353Z" fill="white"/>
<path d="M30.0518 36.3323C26.3143 36.3437 23.1388 33.3566 23.0438 29.7366C23.0238 28.966 23.3757 28.5053 24.0011 28.484C24.6182 28.4627 24.9967 28.8971 25.0384 29.6726C25.1852 32.3122 27.35 34.3599 30.0051 34.3681C32.6919 34.378 34.8667 32.3335 35.0184 29.6562C35.0618 28.8906 35.4554 28.4528 36.0725 28.484C36.6912 28.5151 37.0381 28.9824 37.0131 29.753C36.903 33.3566 33.7659 36.3208 30.0518 36.3323Z" fill="white"/>
</g>
<defs>
<clipPath id="clip0_5171_593">
<rect width="60" height="51.0638" fill="white"/>
</clipPath>
</defs>
</svg>
