<svg width="47" height="56" viewBox="0 0 47 56" fill="none" xmlns="http://www.w3.org/2000/svg">
<path d="M42.8876 38.773V14.3145C42.8876 12.326 41.2796 10.7168 39.2983 10.7168C37.3144 10.7168 35.709 12.3285 35.709 14.3145V38.4929C35.709 42.3223 37.0146 46.0346 39.4101 49.0162L39.4964 48.9016C41.6988 45.9863 42.8901 42.4293 42.8901 38.773H42.8876Z" stroke="white" stroke-width="1.8" stroke-linecap="round" stroke-linejoin="round"/>
<path d="M35.709 35.8506H42.8901" stroke="white" stroke-width="1.8" stroke-linecap="round" stroke-linejoin="round"/>
<path d="M35.709 16.7007H43.9562C44.689 16.7007 45.2838 17.3029 45.2838 18.0449V27.4724" stroke="white" stroke-width="1.8" stroke-linecap="round" stroke-linejoin="round"/>
<path d="M40.4953 10.7165V8.28497C40.4953 7.64481 39.9595 7.12598 39.2984 7.12598C38.6374 7.12598 38.1016 7.64481 38.1016 8.28497V10.7165" stroke="white" stroke-width="1.8" stroke-linecap="round" stroke-linejoin="round"/>
<path d="M35.709 33.4565H42.8901" stroke="white" stroke-width="1.8" stroke-linecap="round" stroke-linejoin="round"/>
<path d="M1 9.51959H7.23097C7.75619 9.51959 8.18114 9.02017 8.18114 8.40291V1.1416" stroke="white" stroke-width="1.5" stroke-linecap="round" stroke-linejoin="round"/>
<path d="M39.2994 4.2897V3.50962C39.2994 2.20191 38.259 1.1416 36.976 1.1416H9.39951C8.78274 1.1416 8.19321 1.39153 7.75726 1.83585L1.68118 8.02854C1.24522 8.47286 1 9.0737 1 9.70231V52.6321C1 53.9398 2.04034 55.0001 3.32343 55.0001H36.976C38.259 55.0001 39.2994 53.9398 39.2994 52.6321V51.9177" stroke="white" stroke-width="1.8" stroke-linecap="round" stroke-linejoin="round"/>
<path d="M13.4286 21.9151C13.2449 21.9151 13.0661 21.8475 12.926 21.7121L10.799 19.6916C10.5041 19.4112 10.4944 18.9471 10.7699 18.6523C11.0503 18.3574 11.5144 18.3477 11.8093 18.6233L13.4239 20.1556L16.735 16.9121C17.025 16.6269 17.4891 16.6317 17.7743 16.9217C18.0595 17.2118 18.0547 17.6758 17.7647 17.961L13.9507 21.7025C13.8057 21.8426 13.6219 21.9103 13.4383 21.9103L13.4286 21.9151Z" fill="white" stroke="white" stroke-width="0.2"/>
<path d="M13.4286 30.6075C13.2449 30.6075 13.0661 30.5399 12.926 30.4045L10.799 28.3839C10.5041 28.1036 10.4944 27.6395 10.7699 27.3447C11.0503 27.0498 11.5144 27.0401 11.8093 27.3157L13.4239 28.848L16.735 25.6045C17.025 25.3193 17.4891 25.3241 17.7743 25.6141C18.0595 25.9042 18.0547 26.3682 17.7647 26.6534L13.9507 30.3948C13.8057 30.535 13.6219 30.6027 13.4383 30.6027L13.4286 30.6075Z" fill="white" stroke="white" stroke-width="0.2"/>
<path d="M13.4286 39.2999C13.2449 39.2999 13.0661 39.2322 12.926 39.0969L10.799 37.0763C10.5041 36.796 10.4944 36.3319 10.7699 36.037C11.0503 35.7422 11.5144 35.7325 11.8093 36.008L13.4239 37.5404L16.735 34.2968C17.025 34.0116 17.4891 34.0165 17.7743 34.3065C18.0595 34.5966 18.0547 35.0606 17.7647 35.3458L13.9507 39.0872C13.8057 39.2274 13.6219 39.2951 13.4383 39.2951L13.4286 39.2999Z" fill="white" stroke="white" stroke-width="0.2"/>
<path d="M29.3401 21.2971H22.766C22.36 21.2971 22.0312 20.9684 22.0312 20.5624C22.0312 20.1563 22.36 19.8276 22.766 19.8276H29.3401C29.7462 19.8276 30.0749 20.1563 30.0749 20.5624C30.0749 20.9684 29.7462 21.2971 29.3401 21.2971Z" fill="white" stroke="white" stroke-width="0.2"/>
<path d="M29.3401 29.9939H22.766C22.36 29.9939 22.0312 29.6652 22.0312 29.2592C22.0312 28.8531 22.36 28.5244 22.766 28.5244H29.3401C29.7462 28.5244 30.0749 28.8531 30.0749 29.2592C30.0749 29.6652 29.7462 29.9939 29.3401 29.9939Z" fill="white" stroke="white" stroke-width="0.2"/>
<path d="M29.3401 38.6863H22.766C22.36 38.6863 22.0312 38.3576 22.0312 37.9515C22.0312 37.5455 22.36 37.2168 22.766 37.2168H29.3401C29.7462 37.2168 30.0749 37.5455 30.0749 37.9515C30.0749 38.3576 29.7462 38.6863 29.3401 38.6863Z" fill="white" stroke="white" stroke-width="0.2"/>
</svg>
