<svg width="40" height="40" viewBox="0 0 40 40" fill="none" xmlns="http://www.w3.org/2000/svg">
<g id="Frame" clip-path="url(#clip0_2108_1111)">
<g id="Group">
<path id="Vector" d="M0.000651042 36.9506C0.031901 36.8665 0.0735677 36.7929 0.094401 36.6983C0.365234 35.5525 1.33398 34.6799 2.44857 34.6063C3.67773 34.5222 4.7819 35.1845 5.18815 36.3304C5.30273 36.6458 5.45898 36.7088 5.75065 36.7088C9.4694 36.6983 13.1986 36.6983 16.9173 36.7088C17.2298 36.7088 17.3965 36.6458 17.5111 36.3094C17.7715 35.563 18.3027 35.0374 19.0319 34.7851C19.3236 34.6799 19.3861 34.5328 19.3861 34.2489C19.3757 33.1977 19.3652 32.1464 19.3861 31.0952C19.3965 30.7272 19.2819 30.6326 18.9277 30.6326C15.7923 30.5695 12.709 30.1596 9.72982 29.1399C8.2819 28.6458 6.89648 28.0045 5.74023 26.9638C4.82357 26.1333 4.3444 25.1451 4.35482 23.8521C4.38607 18.2174 4.39648 12.5827 4.35482 6.93749C4.35482 5.4342 4.93815 4.35141 6.04232 3.46837C7.4694 2.32251 9.14648 1.68124 10.8757 1.17664C13.2194 0.503845 15.6257 0.188471 18.0632 0.0518086C20.1048 -0.0533163 22.1465 -0.000753841 24.1777 0.230521C27.1465 0.56692 30.0527 1.16613 32.7194 2.62737C33.5111 3.05838 34.2402 3.59452 34.8132 4.30936C35.3548 4.97165 35.6257 5.71804 35.6152 6.59057C35.6048 12.3619 35.5944 18.1228 35.6257 23.8941C35.6361 25.1241 35.1673 26.0807 34.3027 26.8797C33.1361 27.9625 31.7298 28.6037 30.2611 29.1083C28.1152 29.8547 25.8965 30.2752 23.6361 30.4539C22.7402 30.5275 21.8444 30.5696 20.9486 30.6116C20.6777 30.6221 20.5944 30.7167 20.5944 30.9795C20.6048 32.0939 20.6048 33.2082 20.5944 34.333C20.5944 34.5748 20.6882 34.6694 20.8965 34.743C21.6673 35.0163 22.209 35.542 22.4798 36.3199C22.584 36.6142 22.7298 36.6983 23.0111 36.6878C24.7194 36.6773 26.4173 36.6773 28.1257 36.6773C30.1257 36.6773 32.1361 36.6668 34.1361 36.6878C34.4902 36.6878 34.6777 36.6142 34.8236 36.2463C35.2402 35.132 36.3548 34.4802 37.5632 34.5853C38.6777 34.6799 39.6465 35.563 39.8861 36.7088C39.9069 36.814 39.9486 36.9086 39.9798 37.0032C39.9798 37.1924 39.9798 37.3711 39.9798 37.5603C39.9486 37.6444 39.9069 37.7286 39.8861 37.8127C39.6257 39.0216 38.6673 39.8626 37.4173 39.9782C36.3236 40.0728 35.1882 39.3475 34.7819 38.2542C34.6673 37.9493 34.5423 37.8652 34.2298 37.8652C30.4902 37.8757 26.7611 37.8757 23.0215 37.8652C22.7194 37.8652 22.5632 37.9388 22.459 38.2437C22.084 39.2844 21.084 39.9782 20.0007 39.9887C18.9069 39.9992 17.8757 39.3054 17.5007 38.2437C17.3965 37.9388 17.2402 37.8652 16.9382 37.8652C13.1986 37.8757 9.4694 37.8757 5.72982 37.8652C5.41732 37.8652 5.2819 37.9598 5.17773 38.2542C4.7819 39.3264 3.7194 40.0308 2.62565 39.9887C1.44857 39.9467 0.448568 39.1582 0.125651 38.0124C0.0839844 37.8652 0.031901 37.718 -0.00976562 37.5709C0.000651042 37.3711 0.000651042 37.1609 0.000651042 36.9506ZM19.1569 11.605C22.4694 11.605 24.9277 11.4053 27.3444 10.8586C29.1986 10.4381 31.0319 9.90201 32.6257 8.81922C33.1882 8.44077 33.6986 7.93617 34.1152 7.40003C34.5944 6.79031 34.5632 6.06495 34.1361 5.41318C33.9069 5.06626 33.6256 4.74038 33.3131 4.47756C32.3548 3.64708 31.209 3.13197 30.0215 2.72198C27.5215 1.83893 24.9382 1.42894 22.3132 1.28177C18.5632 1.06101 14.8548 1.30279 11.2194 2.33302C9.63607 2.77454 8.0944 3.35273 6.79232 4.39346C5.14648 5.71804 5.1569 7.12671 6.80273 8.44077C7.67773 9.14511 8.67773 9.61817 9.7194 9.99662C13.0423 11.2161 16.4902 11.5945 19.1569 11.605ZM34.4277 9.00844C34.3027 9.08203 34.2402 9.12408 34.1882 9.16613C33.5527 9.58663 32.9382 10.0807 32.2611 10.4276C29.5423 11.8048 26.5944 12.3619 23.5944 12.6458C21.6361 12.835 19.6777 12.856 17.709 12.7404C15.5632 12.6142 13.4382 12.3304 11.3652 11.7732C9.31315 11.2266 7.3444 10.4907 5.70898 9.07152C5.68815 9.0505 5.63607 9.06101 5.55273 9.05049C5.55273 9.20818 5.55273 9.34484 5.55273 9.48151C5.55273 11.3317 5.56315 13.1819 5.55273 15.0321C5.55273 15.7469 5.79232 16.3356 6.27148 16.8402C6.88607 17.5025 7.63607 17.9651 8.44857 18.354C11.459 19.7837 14.6673 20.2673 17.9382 20.4671C19.8965 20.5932 21.8652 20.5301 23.8236 20.3304C26.0527 20.0991 28.2402 19.6891 30.3444 18.8902C31.5631 18.4276 32.7402 17.8705 33.6882 16.9138C34.2194 16.3777 34.4798 15.7469 34.4798 14.969C34.459 13.1399 34.4694 11.3212 34.4694 9.49202C34.459 9.35536 34.4382 9.20818 34.4277 9.00844ZM34.4382 17.9335C34.334 17.9966 34.2715 18.0071 34.2298 18.0492C33.3027 18.8797 32.2194 19.4368 31.0736 19.8994C28.0631 21.0978 24.9069 21.5603 21.6986 21.697C18.3236 21.8337 14.9694 21.6129 11.6777 20.7719C9.52148 20.2253 7.44857 19.4894 5.7194 18.0071C5.69857 17.9861 5.64648 17.9966 5.57357 17.9861C5.56315 18.1438 5.55273 18.2805 5.55273 18.4171C5.55273 20.2568 5.56315 22.0965 5.54232 23.9362C5.5319 24.6826 5.74023 25.3448 6.30273 25.8074C6.95898 26.354 7.64648 26.9007 8.4069 27.2686C11.3548 28.7194 14.5423 29.1924 17.7715 29.4027C20.0632 29.5498 22.3444 29.4657 24.6257 29.1819C26.5944 28.9401 28.5215 28.5301 30.3757 27.8258C31.5527 27.3738 32.6777 26.8376 33.5944 25.9546C34.1777 25.3974 34.4798 24.7246 34.4694 23.8941C34.4486 22.086 34.459 20.2673 34.459 18.4592C34.459 18.2805 34.4382 18.1333 34.4382 17.9335ZM2.69857 38.7798C3.5319 38.7798 4.19857 38.1175 4.18815 37.287C4.18815 36.4671 3.54232 35.8048 2.72982 35.7943C1.9069 35.7732 1.22982 36.4355 1.2194 37.266C1.2194 38.1175 1.86523 38.7798 2.69857 38.7798ZM19.9902 38.7798C20.8132 38.7798 21.4902 38.1175 21.5007 37.2975C21.5111 36.4776 20.834 35.7943 20.0215 35.7837C19.209 35.7837 18.5215 36.446 18.5111 37.266C18.5007 38.086 19.1673 38.7798 19.9902 38.7798ZM38.7715 37.2765C38.7611 36.4565 38.1152 35.8048 37.3132 35.7943C36.4902 35.7837 35.8236 36.446 35.8131 37.287C35.8027 38.1175 36.4694 38.7903 37.3027 38.7798C38.1257 38.7798 38.7819 38.1175 38.7715 37.2765Z" fill="#014898"/>
<path id="Vector_2" d="M24.3028 16.1436C24.3133 15.1344 25.0633 14.388 26.0633 14.3985C27.0216 14.4091 27.7924 15.1975 27.782 16.1646C27.7716 17.1318 26.9487 17.9413 26.0008 17.9307C25.0528 17.8992 24.2924 17.1108 24.3028 16.1436ZM26.5841 16.1541C26.5841 15.8388 26.3237 15.5654 26.0216 15.5759C25.7403 15.5865 25.4799 15.8493 25.4695 16.1436C25.4591 16.4275 25.7195 16.7008 26.0112 16.7113C26.3445 16.7113 26.5841 16.4905 26.5841 16.1541Z" fill="#014898"/>
<path id="Vector_3" d="M15.698 16.158C15.698 17.1462 14.8959 17.9346 13.9376 17.9241C13.0001 17.9031 12.2084 17.0936 12.2189 16.1475C12.2293 15.1593 13.0105 14.3919 14.0001 14.4025C14.9689 14.413 15.698 15.1699 15.698 16.158ZM13.948 16.7047C14.2605 16.7152 14.5314 16.4629 14.5314 16.1475C14.5314 15.8637 14.2709 15.5904 13.9897 15.5798C13.6876 15.5693 13.4168 15.8321 13.4168 16.1475C13.4168 16.4629 13.6355 16.6942 13.948 16.7047Z" fill="#014898"/>
<path id="Vector_4" d="M19.9896 18.8889C19.0312 18.8889 18.25 18.1109 18.25 17.1543C18.25 16.1766 19.0521 15.3672 20.0104 15.3672C20.9688 15.3777 21.7396 16.1556 21.7396 17.1228C21.75 18.1109 20.9792 18.8889 19.9896 18.8889ZM20 17.7115C20.3021 17.7115 20.5729 17.4381 20.5625 17.1228C20.5521 16.8284 20.3021 16.5866 20 16.5866C19.6979 16.5866 19.4479 16.8179 19.4375 17.1228C19.4271 17.4171 19.6979 17.7115 20 17.7115Z" fill="#014898"/>
<path id="Vector_5" d="M15.6986 24.7973C15.6986 25.796 14.9277 26.574 13.9486 26.5634C13.0111 26.5634 12.209 25.754 12.209 24.7973C12.209 23.8302 13.0007 23.0312 13.9798 23.0312C14.9277 23.0418 15.6986 23.8302 15.6986 24.7973ZM14.5319 24.8079C14.5319 24.4925 14.2611 24.2297 13.959 24.2297C13.6673 24.2297 13.4277 24.482 13.4173 24.7868C13.4173 25.0917 13.6465 25.344 13.9382 25.365C14.2402 25.386 14.5319 25.1127 14.5319 24.8079Z" fill="#014898"/>
<path id="Vector_6" d="M24.3028 24.7885C24.3133 23.8003 25.1049 23.0224 26.0737 23.0434C27.0216 23.0644 27.8028 23.8739 27.7924 24.8305C27.782 25.7977 26.9487 26.6071 26.0008 26.5861C25.0424 26.5546 24.2924 25.7661 24.3028 24.7885ZM26.0216 25.3772C26.3133 25.3877 26.5737 25.1459 26.5841 24.841C26.6049 24.5151 26.3549 24.2523 26.0424 24.2418C25.7508 24.2418 25.4799 24.4941 25.4695 24.7779C25.4487 25.0828 25.7091 25.3666 26.0216 25.3772Z" fill="#014898"/>
<path id="Vector_7" d="M20.0001 27.5529C19.0209 27.5529 18.2397 26.754 18.2501 25.7763C18.2605 24.8092 19.0418 24.0312 20.0001 24.0312C20.9689 24.0312 21.7605 24.8302 21.7501 25.8079C21.7501 26.775 20.9584 27.5529 20.0001 27.5529ZM20.0105 26.3545C20.3334 26.344 20.573 26.0812 20.5626 25.7658C20.5522 25.4715 20.2918 25.2402 19.9897 25.2402C19.6668 25.2402 19.4168 25.5135 19.4376 25.8289C19.4584 26.1232 19.7189 26.365 20.0105 26.3545Z" fill="#014898"/>
</g>
</g>
<defs>
<clipPath id="clip0_2108_1111">
<rect width="40" height="40" fill="white"/>
</clipPath>
</defs>
</svg>
