<svg width="40" height="40" viewBox="0 0 40 40" fill="none" xmlns="http://www.w3.org/2000/svg">
<g clip-path="url(#clip0_2108_1120)">
<path d="M0 32.0833C0 24 0 15.9167 0 7.83333C0 7.75 0.0833333 7.66667 0.0833333 7.58333C0.583333 3.91667 3.25 0.916667 6.83333 0.166667C7.16667 0.166667 7.5 0.0833333 7.91667 0C16 0 24.0833 0 32.1667 0C32.25 0 32.3333 0.0833333 32.4167 0.0833333C36 0.666667 38.5 2.66667 39.6667 6.16667C39.8333 6.75 39.9167 7.41667 40.0833 8C40.0833 16 40.0833 24.0833 40.0833 32.0833C40.0833 32.1667 40 32.25 40 32.4167C39.4167 36 37.5 38.4167 34.0833 39.6667C33.4167 39.9167 32.75 40 32.0833 40.0833C24.0833 40.0833 16 40.0833 8 40.0833C7.91667 40.0833 7.83333 40 7.75 40C4.16667 39.5833 1.25 37.0833 0.333333 33.5C0.166667 33 0.0833333 32.5833 0 32.0833ZM20 37.5C23.75 37.5 27.4167 37.5 31.1667 37.5C34.75 37.5 37.5 34.75 37.5 31.1667C37.5 23.75 37.5 16.3333 37.5 8.83333C37.5 5.25 34.75 2.5 31.1667 2.5C23.75 2.5 16.25 2.5 8.83333 2.5C5.25 2.5 2.5 5.25 2.5 8.83333C2.5 16.25 2.5 23.75 2.5 31.1667C2.5 31.5833 2.5 32 2.58333 32.4167C3.16667 35.4167 5.66667 37.4167 8.75 37.5C12.5 37.5 16.25 37.5 20 37.5Z" fill="#0057B8"/>
<path d="M18.75 10.0013C18.75 9.16797 18.75 8.41797 18.75 7.66797C18.75 6.91797 19.25 6.33464 20 6.33464C20.75 6.33464 21.25 6.91797 21.25 7.66797C21.25 8.41797 21.25 9.2513 21.25 10.0013C21.9167 10.0013 22.5 10.0013 23.1667 10.0013C23.1667 9.16797 23.1667 8.33464 23.1667 7.5013C23.1667 6.83464 23.75 6.2513 24.4167 6.2513C25.0833 6.2513 25.5833 6.7513 25.6667 7.5013C25.6667 8.0013 25.6667 8.5013 25.6667 8.91797C25.6667 9.2513 25.6667 9.58464 25.6667 10.0013C26.8333 9.91797 27.8333 10.168 28.75 10.918C29.5833 11.668 30 12.5846 30.0833 13.7513C30.8333 13.7513 31.5 13.7513 32.25 13.7513C32.4167 13.7513 32.6667 13.7513 32.8333 13.7513C33.5 13.8346 33.9167 14.418 33.8333 15.0846C33.75 15.7513 33.25 16.2513 32.5833 16.2513C31.75 16.2513 30.9167 16.2513 30.0833 16.2513C30.0833 16.8346 30.0833 17.5013 30.0833 18.168C30.8333 18.168 31.5833 18.168 32.25 18.168C32.4167 18.168 32.5833 18.168 32.75 18.168C33.4167 18.2513 33.8333 18.918 33.75 19.5013C33.6667 20.168 33.1667 20.5846 32.5 20.668C31.6667 20.668 30.8333 20.668 30 20.668C30 21.3346 30 21.918 30 22.5846C30.8333 22.5846 31.6667 22.5846 32.5 22.5846C33.1667 22.5846 33.75 23.168 33.75 23.8346C33.75 24.5013 33.25 25.0846 32.5 25.0846C32.0833 25.0846 31.5833 25.0846 31.1667 25.0846C30.8333 25.0846 30.4167 25.0846 30 25.0846C30 25.7513 30 26.3346 29.9167 26.918C29.5833 28.8346 28.0833 30.0846 26.1667 30.0846C26 30.0846 25.8333 30.0846 25.5833 30.0846C25.5833 30.668 25.5833 31.2513 25.5833 31.918C25.5833 32.0846 25.5833 32.3346 25.5833 32.5013C25.5833 33.2513 25.0833 33.8346 24.3333 33.8346C23.6667 33.8346 23.0833 33.2513 23.0833 32.5013C23.0833 31.7513 23.0833 30.918 23.0833 30.168C23.0833 30.168 23.0833 30.168 23.0833 30.0846C22.5 30.0846 21.9167 30.0846 21.25 30.0846C21.25 30.918 21.25 31.7513 21.25 32.5013C21.25 33.418 20.3333 34.0846 19.5 33.668C19 33.418 18.75 33.0013 18.75 32.5013C18.75 31.668 18.75 30.918 18.75 30.0846C18.75 30.0846 18.75 30.0846 18.75 30.0013C18.1667 30.0013 17.5833 30.0013 16.9167 30.0013C16.9167 30.8346 16.9167 31.668 16.9167 32.5013C16.9167 33.168 16.3333 33.7513 15.6667 33.7513C15 33.7513 14.5 33.168 14.4167 32.5013C14.4167 32.0013 14.4167 31.5013 14.4167 31.0846C14.4167 30.7513 14.4167 30.418 14.4167 30.0013C13 30.0846 11.8333 29.7513 10.9167 28.668C10 27.5846 10 26.3346 10.0833 25.0013C9.33333 25.0013 8.58333 25.0013 7.83333 25.0013C7.66667 25.0013 7.5 25.0013 7.25 25.0013C6.66667 24.8346 6.25 24.2513 6.25 23.668C6.33333 23.0013 6.83333 22.5013 7.5 22.5013C8.33333 22.5013 9.16667 22.5013 10 22.5013C10 21.8346 10 21.2513 10 20.5846C9.16667 20.5846 8.33333 20.5846 7.5 20.5846C7 20.5846 6.58333 20.3346 6.41667 19.8346C6.16667 19.3346 6.25 18.918 6.58333 18.5013C6.83333 18.168 7.16667 18.0846 7.58333 18.0846C8.33333 18.0846 9.16667 18.0846 10 18.0846C10 17.5013 10 16.8346 10 16.168C9.83333 16.168 9.66667 16.168 9.5 16.168C8.83333 16.168 8.16667 16.168 7.5 16.168C6.83333 16.168 6.25 15.5846 6.25 14.918C6.25 14.2513 6.75 13.668 7.5 13.668C8.33333 13.668 9.16667 13.668 9.91667 13.668C10.3333 11.0013 11.3333 10.168 14.3333 9.91797C14.3333 9.2513 14.3333 8.66797 14.3333 8.0013C14.3333 7.83464 14.3333 7.58463 14.3333 7.41797C14.3333 6.7513 14.9167 6.16797 15.5833 6.16797C16.25 6.16797 16.8333 6.66797 16.8333 7.41797C16.8333 8.2513 16.8333 9.08463 16.8333 9.91797C17.5 10.0013 18.0833 10.0013 18.75 10.0013ZM20 12.5013C18 12.5013 15.9167 12.5013 13.9167 12.5013C13 12.5013 12.5 13.0013 12.5 13.918C12.5 18.0013 12.5 22.0013 12.5 26.0846C12.5 27.0013 13 27.5013 13.9167 27.5013C18 27.5013 22 27.5013 26.0833 27.5013C27 27.5013 27.5 27.0013 27.5 26.0846C27.5 22.0013 27.5 18.0013 27.5 13.918C27.5 13.0013 27 12.5013 26.0833 12.5013C24.0833 12.5013 22 12.5013 20 12.5013Z" fill="#0057B8"/>
</g>
<defs>
<clipPath id="clip0_2108_1120">
<rect width="40" height="40" fill="white"/>
</clipPath>
</defs>
</svg>
