<svg width="41" height="41" viewBox="0 0 41 41" fill="none" xmlns="http://www.w3.org/2000/svg">
<g clip-path="url(#clip0_2108_1123)">
<path d="M20.5176 6.88541C20.9929 6.88541 21.4573 6.88541 21.9326 6.88541C22.8291 6.89621 23.3908 7.45805 23.4124 8.35482C23.4232 8.99229 23.4232 9.61896 23.4124 10.2564C23.4016 10.5914 23.5204 10.775 23.8445 10.8831C24.2225 11.0127 24.6006 11.1748 24.9678 11.3477C25.2703 11.4989 25.4971 11.4449 25.724 11.2072C26.1668 10.7426 26.6097 10.2996 27.0633 9.85665C27.7114 9.22999 28.5 9.22999 29.1372 9.86746C29.8069 10.5265 30.4766 11.1964 31.1463 11.8771C31.7836 12.5146 31.7836 13.3141 31.1463 13.9516C30.6927 14.4162 30.239 14.87 29.7745 15.3238C29.5585 15.529 29.5261 15.7451 29.6449 16.0152C29.8177 16.3934 29.9906 16.7716 30.1202 17.1713C30.2282 17.5063 30.4226 17.6035 30.7575 17.6035C31.3732 17.5927 31.9997 17.5927 32.6153 17.6035C33.5551 17.6143 34.1168 18.1762 34.1168 19.127C34.1168 20.0561 34.1168 20.9853 34.1168 21.9253C34.106 22.8221 33.5443 23.3839 32.6477 23.3947C32.0105 23.4056 31.384 23.4056 30.7467 23.3947C30.4118 23.3839 30.2282 23.5028 30.1202 23.8269C30.0014 24.1943 29.8501 24.5616 29.6665 24.9074C29.4937 25.2423 29.5585 25.48 29.8285 25.7285C30.2822 26.1499 30.7143 26.6037 31.1463 27.0467C31.7728 27.695 31.7728 28.4837 31.1355 29.1212C30.4766 29.791 29.8069 30.4609 29.1264 31.1308C28.4783 31.7683 27.6898 31.7575 27.0525 31.1308C26.5881 30.677 26.1344 30.2232 25.6807 29.7586C25.4755 29.5425 25.2595 29.5101 24.9894 29.6398C24.6006 29.8235 24.2009 29.9855 23.7905 30.1368C23.5204 30.234 23.4016 30.3961 23.4016 30.677C23.4124 31.3145 23.4124 31.9411 23.4016 32.5786C23.3908 33.5726 22.8399 34.1237 21.8354 34.1237C20.9281 34.1237 20.0315 34.1237 19.1242 34.1237C18.1845 34.1237 17.6228 33.5618 17.612 32.611C17.6012 31.9952 17.6012 31.3685 17.612 30.7526C17.6228 30.4177 17.504 30.234 17.1799 30.126C16.8127 30.0071 16.4454 29.8559 16.0998 29.6722C15.7649 29.4993 15.5273 29.5641 15.2788 29.8343C14.8684 30.2772 14.4255 30.6986 13.9935 31.1308C13.3238 31.7899 12.5461 31.7899 11.8872 31.1416C11.2175 30.4825 10.5478 29.8126 9.87807 29.132C9.24078 28.4945 9.25158 27.695 9.87807 27.0575C10.3317 26.5929 10.7854 26.1391 11.2499 25.6853C11.4659 25.48 11.4983 25.2639 11.3687 24.9938C11.1851 24.6049 11.023 24.2051 10.8718 23.7945C10.7746 23.5244 10.6126 23.4056 10.3317 23.4056C9.68364 23.4164 9.03555 23.4164 8.38746 23.4056C7.44772 23.3947 6.88604 22.8329 6.88604 21.8821C6.88604 20.9637 6.88604 20.0453 6.88604 19.127C6.88604 18.187 7.44772 17.6251 8.39826 17.6143C9.01395 17.6143 9.64044 17.6035 10.2561 17.6143C10.591 17.6251 10.7746 17.5063 10.8826 17.1821C11.0014 16.8256 11.1419 16.469 11.3147 16.1341C11.4875 15.7992 11.4659 15.5398 11.1743 15.2697C10.7206 14.8484 10.2885 14.4054 9.85647 13.9516C9.22998 13.3033 9.22998 12.5146 9.86727 11.8771C10.5262 11.2072 11.1959 10.5373 11.8764 9.86746C12.5245 9.22999 13.313 9.2408 13.9503 9.86746C14.4147 10.3213 14.8684 10.775 15.3221 11.2396C15.5273 11.4557 15.7433 11.4881 16.0134 11.3585C16.4022 11.1748 16.8019 11.0127 17.2123 10.8615C17.4824 10.7642 17.6012 10.6022 17.6012 10.3213C17.5904 9.68378 17.5904 9.05712 17.6012 8.41965C17.612 7.42563 18.1629 6.8746 19.1674 6.8746C19.6319 6.88541 20.0747 6.88541 20.5176 6.88541ZM7.87978 20.4991C7.87978 20.9313 7.87978 21.3635 7.87978 21.7957C7.87978 22.3143 7.9986 22.4331 8.52788 22.4331C9.14357 22.4331 9.77006 22.4331 10.3857 22.4331C11.1202 22.4439 11.5199 22.7357 11.7899 23.4272C11.9412 23.8161 12.1032 24.2051 12.2652 24.5832C12.5677 25.2747 12.492 25.7826 11.9736 26.3228C11.5307 26.7766 11.077 27.2196 10.6342 27.6733C10.2993 28.0083 10.2993 28.1596 10.6234 28.4837C11.2607 29.132 11.898 29.7694 12.5461 30.4069C12.8593 30.7202 13.0213 30.7202 13.3346 30.4069C13.8098 29.9423 14.2635 29.4669 14.7388 29.0023C15.2248 28.5377 15.7649 28.4405 16.3698 28.7106C16.7803 28.8835 17.1799 29.0671 17.6012 29.2292C18.2925 29.4993 18.5841 29.8991 18.5841 30.6446C18.5949 31.2929 18.5841 31.9411 18.5841 32.5894C18.5841 33.0108 18.7245 33.1404 19.1458 33.1512C20.0315 33.1512 20.9281 33.1512 21.8138 33.1512C22.3107 33.1512 22.4295 33.0324 22.4295 32.5246C22.4295 31.8871 22.4187 31.2605 22.4295 30.623C22.4403 29.9099 22.7319 29.5101 23.4016 29.2508C23.8013 29.0887 24.2009 28.9267 24.6006 28.7538C25.2703 28.4621 25.7888 28.5377 26.3072 29.0455C26.7609 29.4885 27.2038 29.9423 27.6574 30.3853C28.0139 30.731 28.1543 30.7418 28.5 30.3961C29.1372 29.7694 29.7637 29.1428 30.3902 28.5053C30.7251 28.1704 30.7251 28.0299 30.3902 27.695C29.9258 27.2196 29.4505 26.7658 28.986 26.2904C28.5324 25.8258 28.4459 25.2855 28.7052 24.6913C28.8888 24.2591 29.0724 23.8269 29.2453 23.3839C29.4937 22.7681 29.915 22.4656 30.5738 22.4548C31.2327 22.444 31.8916 22.4548 32.5613 22.4548C33.0042 22.4548 33.1338 22.3143 33.1338 21.8713C33.1338 20.9961 33.1338 20.121 33.1338 19.235C33.1338 18.7164 33.015 18.6083 32.4857 18.5975C31.8376 18.5975 31.1895 18.5975 30.5414 18.5867C29.9042 18.5759 29.4829 18.2518 29.2453 17.6683C29.0832 17.2578 28.9212 16.8364 28.7376 16.4366C28.4351 15.7451 28.5108 15.2373 29.0292 14.6971C29.4721 14.2433 29.9258 13.8003 30.3686 13.3465C30.7035 13.0116 30.7035 12.8603 30.3794 12.5362C29.7421 11.8879 29.1048 11.2504 28.4567 10.613C28.1435 10.2996 27.9815 10.2996 27.6682 10.613C27.2038 11.0668 26.7501 11.5314 26.2964 11.9851C25.778 12.493 25.2487 12.5794 24.5898 12.2877C24.2009 12.1148 23.8013 11.9419 23.4016 11.7907C22.7211 11.5206 22.4295 11.1208 22.4187 10.3753C22.4079 9.7378 22.4187 9.11114 22.4187 8.47367C22.4187 7.99827 22.2891 7.87942 21.8138 7.87942C20.9389 7.87942 20.0639 7.87942 19.1782 7.87942C18.6921 7.87942 18.5625 8.00908 18.5625 8.50609C18.5625 9.15436 18.5625 9.80263 18.5625 10.4509C18.5517 11.11 18.2277 11.5422 17.6228 11.7799C17.2123 11.9419 16.8019 12.1148 16.3914 12.2877C15.7325 12.5794 15.2032 12.5038 14.6848 11.996C14.2311 11.553 13.7882 11.0992 13.3346 10.6562C12.9781 10.3104 12.8377 10.2996 12.492 10.6454C11.8548 11.2721 11.2283 11.8987 10.6018 12.5362C10.2669 12.8711 10.2669 13.0116 10.6018 13.3465C11.0446 13.8003 11.4983 14.2433 11.9412 14.6971C12.4704 15.2373 12.5461 15.7559 12.2436 16.4366C12.0816 16.804 11.9196 17.1821 11.7791 17.5603C11.4983 18.3058 11.0878 18.5975 10.2777 18.6083C9.64044 18.6083 9.01395 18.6083 8.37665 18.6083C8.0094 18.6083 7.82578 18.7812 7.83658 19.1486C7.89058 19.5807 7.87978 20.0345 7.87978 20.4991Z" fill="#0057B8"/>
<path d="M8.27944 5.13507C7.35051 5.13507 6.43238 5.13507 5.50344 5.13507C5.38462 5.13507 5.2226 5.15668 5.14699 5.09185C5.00657 4.973 4.82294 4.80013 4.82294 4.64886C4.82294 4.4976 5.00657 4.32473 5.14699 4.20588C5.2226 4.14105 5.38462 4.16266 5.50344 4.16266C6.87524 4.18427 8.25784 4.19507 9.62964 4.21668C10.2237 4.22749 10.3857 4.40036 10.2993 4.98381C10.1157 6.35598 9.91048 7.73896 9.71605 9.11114C9.67284 9.43528 9.54322 9.69459 9.16517 9.67298C8.85192 9.66217 8.7007 9.40286 8.76551 8.97068C8.88433 8.07391 9.01395 7.17713 9.14356 6.28035C9.16517 6.1507 9.17597 6.01024 9.19757 5.78334C9.00314 5.93461 8.86273 6.03185 8.73311 6.13989C4.74733 9.52171 2.4682 13.8111 2.03614 19.0405C1.28003 28.1487 7.45852 36.5331 16.3698 38.5535C19.8479 39.3423 23.2828 39.1586 26.6529 37.9809C26.7717 37.9377 26.8797 37.9053 26.9985 37.862C27.2902 37.754 27.5278 37.862 27.625 38.1321C27.733 38.4239 27.6142 38.6724 27.3118 38.7696C26.8149 38.9425 26.318 39.1154 25.8104 39.2558C15.5381 42.1406 5.01737 36.4034 1.84171 26.2255C-0.48062 18.7812 1.97133 10.5698 8.0094 5.50242C8.10662 5.42679 8.19303 5.35116 8.29024 5.26472C8.29024 5.22151 8.27944 5.17829 8.27944 5.13507Z" fill="#0057B8"/>
<path d="M34.1708 34.4802C35.0889 34.4802 35.9638 34.4802 36.8279 34.4802C37.0008 34.4802 37.1844 34.4586 37.3572 34.4694C37.6489 34.5018 37.8433 34.6747 37.8325 34.9772C37.8217 35.2473 37.6489 35.4202 37.3572 35.431C36.6551 35.4526 35.953 35.4742 35.2509 35.4958C34.4732 35.5174 33.6847 35.5499 32.907 35.5607C32.4749 35.5715 32.2697 35.3554 32.3129 34.9448C32.4533 33.5078 32.6045 32.0708 32.745 30.6338C32.7882 30.2448 33.0042 30.0395 33.2958 30.0828C33.5875 30.126 33.7495 30.3745 33.7063 30.7634C33.6091 31.7575 33.5011 32.7515 33.3931 33.8103C33.5227 33.7023 33.5983 33.6483 33.6631 33.5834C36.6335 30.569 38.3942 26.9602 38.9234 22.7573C40.1224 13.1412 33.6523 4.19507 24.1361 2.30428C21.2521 1.72083 18.3897 1.83968 15.5597 2.61761C15.5057 2.62841 15.4625 2.65002 15.4085 2.66083C14.9872 2.76887 14.7388 2.67163 14.6416 2.36911C14.5551 2.07738 14.728 1.81807 15.1384 1.72083C15.8729 1.53716 16.6074 1.34267 17.3419 1.22382C22.7103 0.424288 27.6574 1.51555 32.0429 4.75691C36.5363 8.0739 39.2151 12.547 39.874 18.1221C40.6085 24.378 38.6858 29.7802 34.322 34.3073C34.268 34.3506 34.2248 34.4046 34.1708 34.4802Z" fill="#0057B8"/>
<path d="M20.5176 27.0899C16.8667 27.0899 13.9287 24.1403 13.9287 20.4991C13.9287 16.8472 16.8775 13.9084 20.5176 13.9084C24.1685 13.9084 27.1065 16.858 27.1065 20.4991C27.1065 24.1511 24.1577 27.0899 20.5176 27.0899ZM14.944 20.9853C15.0196 23.546 17.5256 26.0419 20.0315 26.0743C20.0315 25.7285 20.0315 25.3828 20.0315 25.0262C20.0315 24.7021 20.1611 24.4644 20.5176 24.4644C20.8741 24.4644 21.0037 24.7021 21.0037 25.0262C21.0037 25.372 21.0037 25.7177 21.0037 26.0743C23.542 26.0094 26.0156 23.5352 26.0912 20.9853C25.7456 20.9853 25.3999 20.9853 25.0435 20.9853C24.7194 20.9853 24.4818 20.8557 24.471 20.4991C24.471 20.1426 24.6978 20.0129 25.0327 20.0129C25.3783 20.0129 25.7239 20.0129 26.0804 20.0129C25.9184 17.0849 23.2396 14.9456 20.9929 14.9564C20.9929 15.2697 20.9929 15.5723 20.9929 15.8856C20.9929 16.2205 20.8633 16.4474 20.5068 16.4474C20.1503 16.4474 20.0207 16.2097 20.0207 15.8748C20.0207 15.5615 20.0207 15.2373 20.0207 14.9132C17.1691 15.1185 15.0412 17.5711 14.944 20.0129C15.2896 20.0129 15.6461 20.0129 15.9918 20.0129C16.3266 20.0129 16.5534 20.1534 16.5534 20.5099C16.5534 20.8665 16.305 20.9853 15.9809 20.9853C15.6461 20.9853 15.3113 20.9853 14.944 20.9853Z" fill="#0057B8"/>
<path d="M21.0037 20.0129C21.3925 20.0129 21.7274 20.0129 22.0622 20.0129C22.3863 20.0129 22.5915 20.175 22.5915 20.4991C22.5915 20.8125 22.3863 20.9853 22.0622 20.9853C21.5654 20.9853 21.0685 20.9961 20.5608 20.9853C20.1936 20.9853 20.0207 20.78 20.0207 20.4235C20.0207 19.6456 20.0099 18.8568 20.0207 18.0789C20.0207 17.7224 20.2368 17.4955 20.5176 17.5171C20.8416 17.5495 20.9821 17.7548 20.9821 18.0681C21.0037 18.6948 21.0037 19.3322 21.0037 20.0129Z" fill="#0057B8"/>
<path d="M20.5176 6.88541C20.9929 6.88541 21.4573 6.88541 21.9326 6.88541C22.8291 6.89621 23.3908 7.45805 23.4124 8.35482C23.4232 8.99229 23.4232 9.61896 23.4124 10.2564C23.4016 10.5914 23.5204 10.775 23.8445 10.8831C24.2225 11.0127 24.6006 11.1748 24.9678 11.3477C25.2703 11.4989 25.4971 11.4449 25.724 11.2072C26.1668 10.7426 26.6097 10.2996 27.0633 9.85665C27.7114 9.22999 28.5 9.22999 29.1372 9.86746C29.8069 10.5265 30.4766 11.1964 31.1463 11.8771C31.7836 12.5146 31.7836 13.3141 31.1463 13.9516C30.6927 14.4162 30.239 14.87 29.7745 15.3238C29.5585 15.529 29.5261 15.7451 29.6449 16.0152C29.8177 16.3934 29.9906 16.7716 30.1202 17.1713C30.2282 17.5063 30.4226 17.6035 30.7575 17.6035C31.3732 17.5927 31.9997 17.5927 32.6153 17.6035C33.5551 17.6143 34.1168 18.1762 34.1168 19.127C34.1168 20.0561 34.1168 20.9853 34.1168 21.9253C34.106 22.8221 33.5443 23.3839 32.6477 23.3947C32.0105 23.4056 31.384 23.4056 30.7467 23.3947C30.4118 23.3839 30.2282 23.5028 30.1202 23.8269C30.0014 24.1943 29.8501 24.5616 29.6665 24.9074C29.4937 25.2423 29.5585 25.48 29.8285 25.7285C30.2822 26.1499 30.7143 26.6037 31.1463 27.0467C31.7728 27.695 31.7728 28.4837 31.1355 29.1212C30.4766 29.791 29.8069 30.4609 29.1264 31.1308C28.4783 31.7683 27.6898 31.7575 27.0525 31.1308C26.5881 30.677 26.1344 30.2232 25.6807 29.7586C25.4755 29.5425 25.2595 29.5101 24.9894 29.6398C24.6006 29.8235 24.2009 29.9855 23.7905 30.1368C23.5204 30.234 23.4016 30.3961 23.4016 30.677C23.4124 31.3145 23.4124 31.9411 23.4016 32.5786C23.3908 33.5726 22.8399 34.1237 21.8354 34.1237C20.9281 34.1237 20.0315 34.1237 19.1242 34.1237C18.1845 34.1237 17.6228 33.5618 17.612 32.611C17.6012 31.9952 17.6012 31.3685 17.612 30.7526C17.6228 30.4177 17.504 30.234 17.1799 30.126C16.8127 30.0071 16.4454 29.8559 16.0998 29.6722C15.7649 29.4993 15.5273 29.5641 15.2788 29.8343C14.8684 30.2772 14.4255 30.6986 13.9935 31.1308C13.3238 31.7899 12.5461 31.7899 11.8872 31.1416C11.2175 30.4825 10.5478 29.8126 9.87807 29.132C9.24078 28.4945 9.25158 27.695 9.87807 27.0575C10.3317 26.5929 10.7854 26.1391 11.2499 25.6853C11.4659 25.48 11.4983 25.2639 11.3687 24.9938C11.1851 24.6049 11.023 24.2051 10.8718 23.7945C10.7746 23.5244 10.6126 23.4056 10.3317 23.4056C9.68364 23.4164 9.03555 23.4164 8.38746 23.4056C7.44772 23.3947 6.88604 22.8329 6.88604 21.8821C6.88604 20.9637 6.88604 20.0453 6.88604 19.127C6.88604 18.187 7.44772 17.6251 8.39826 17.6143C9.01395 17.6143 9.64044 17.6035 10.2561 17.6143C10.591 17.6251 10.7746 17.5063 10.8826 17.1821C11.0014 16.8256 11.1419 16.469 11.3147 16.1341C11.4875 15.7992 11.4659 15.5398 11.1743 15.2697C10.7206 14.8484 10.2885 14.4054 9.85647 13.9516C9.22998 13.3033 9.22998 12.5146 9.86727 11.8771C10.5262 11.2072 11.1959 10.5373 11.8764 9.86746C12.5245 9.22999 13.313 9.2408 13.9503 9.86746C14.4147 10.3213 14.8684 10.775 15.3221 11.2396C15.5273 11.4557 15.7433 11.4881 16.0134 11.3585C16.4022 11.1748 16.8019 11.0127 17.2123 10.8615C17.4824 10.7642 17.6012 10.6022 17.6012 10.3213C17.5904 9.68378 17.5904 9.05712 17.6012 8.41965C17.612 7.42563 18.1629 6.8746 19.1674 6.8746C19.6319 6.88541 20.0747 6.88541 20.5176 6.88541ZM7.87978 20.4991C7.87978 20.9313 7.87978 21.3635 7.87978 21.7957C7.87978 22.3143 7.9986 22.4331 8.52788 22.4331C9.14357 22.4331 9.77006 22.4331 10.3857 22.4331C11.1202 22.4439 11.5199 22.7357 11.7899 23.4272C11.9412 23.8161 12.1032 24.2051 12.2652 24.5832C12.5677 25.2747 12.492 25.7826 11.9736 26.3228C11.5307 26.7766 11.077 27.2196 10.6342 27.6733C10.2993 28.0083 10.2993 28.1596 10.6234 28.4837C11.2607 29.132 11.898 29.7694 12.5461 30.4069C12.8593 30.7202 13.0213 30.7202 13.3346 30.4069C13.8098 29.9423 14.2635 29.4669 14.7388 29.0023C15.2248 28.5377 15.7649 28.4405 16.3698 28.7106C16.7803 28.8835 17.1799 29.0671 17.6012 29.2292C18.2925 29.4993 18.5841 29.8991 18.5841 30.6446C18.5949 31.2929 18.5841 31.9411 18.5841 32.5894C18.5841 33.0108 18.7245 33.1404 19.1458 33.1512C20.0315 33.1512 20.9281 33.1512 21.8138 33.1512C22.3107 33.1512 22.4295 33.0324 22.4295 32.5246C22.4295 31.8871 22.4187 31.2605 22.4295 30.623C22.4403 29.9099 22.7319 29.5101 23.4016 29.2508C23.8013 29.0887 24.2009 28.9267 24.6006 28.7538C25.2703 28.4621 25.7888 28.5377 26.3072 29.0455C26.7609 29.4885 27.2038 29.9423 27.6574 30.3853C28.0139 30.731 28.1543 30.7418 28.5 30.3961C29.1372 29.7694 29.7637 29.1428 30.3902 28.5053C30.7251 28.1704 30.7251 28.0299 30.3902 27.695C29.9258 27.2196 29.4505 26.7658 28.986 26.2904C28.5324 25.8258 28.4459 25.2855 28.7052 24.6913C28.8888 24.2591 29.0724 23.8269 29.2453 23.3839C29.4937 22.7681 29.915 22.4656 30.5738 22.4548C31.2327 22.444 31.8916 22.4548 32.5613 22.4548C33.0042 22.4548 33.1338 22.3143 33.1338 21.8713C33.1338 20.9961 33.1338 20.121 33.1338 19.235C33.1338 18.7164 33.015 18.6083 32.4857 18.5975C31.8376 18.5975 31.1895 18.5975 30.5414 18.5867C29.9042 18.5759 29.4829 18.2518 29.2453 17.6683C29.0832 17.2578 28.9212 16.8364 28.7376 16.4366C28.4351 15.7451 28.5108 15.2373 29.0292 14.6971C29.4721 14.2433 29.9258 13.8003 30.3686 13.3465C30.7035 13.0116 30.7035 12.8603 30.3794 12.5362C29.7421 11.8879 29.1048 11.2504 28.4567 10.613C28.1435 10.2996 27.9815 10.2996 27.6682 10.613C27.2038 11.0668 26.7501 11.5314 26.2964 11.9851C25.778 12.493 25.2487 12.5794 24.5898 12.2877C24.2009 12.1148 23.8013 11.9419 23.4016 11.7907C22.7211 11.5206 22.4295 11.1208 22.4187 10.3753C22.4079 9.7378 22.4187 9.11114 22.4187 8.47367C22.4187 7.99827 22.2891 7.87942 21.8138 7.87942C20.9389 7.87942 20.0639 7.87942 19.1782 7.87942C18.6921 7.87942 18.5625 8.00908 18.5625 8.50609C18.5625 9.15436 18.5625 9.80263 18.5625 10.4509C18.5517 11.11 18.2277 11.5422 17.6228 11.7799C17.2123 11.9419 16.8019 12.1148 16.3914 12.2877C15.7325 12.5794 15.2032 12.5038 14.6848 11.996C14.2311 11.553 13.7882 11.0992 13.3346 10.6562C12.9781 10.3104 12.8377 10.2996 12.492 10.6454C11.8548 11.2721 11.2283 11.8987 10.6018 12.5362C10.2669 12.8711 10.2669 13.0116 10.6018 13.3465C11.0446 13.8003 11.4983 14.2433 11.9412 14.6971C12.4704 15.2373 12.5461 15.7559 12.2436 16.4366C12.0816 16.804 11.9196 17.1821 11.7791 17.5603C11.4983 18.3058 11.0878 18.5975 10.2777 18.6083C9.64044 18.6083 9.01395 18.6083 8.37665 18.6083C8.0094 18.6083 7.82578 18.7812 7.83658 19.1486C7.89058 19.5807 7.87978 20.0345 7.87978 20.4991Z" stroke="#0057B8" stroke-width="0.4"/>
<path d="M8.27944 5.13507C7.35051 5.13507 6.43238 5.13507 5.50344 5.13507C5.38462 5.13507 5.2226 5.15668 5.14699 5.09185C5.00657 4.973 4.82294 4.80013 4.82294 4.64886C4.82294 4.4976 5.00657 4.32473 5.14699 4.20588C5.2226 4.14105 5.38462 4.16266 5.50344 4.16266C6.87524 4.18427 8.25784 4.19507 9.62964 4.21668C10.2237 4.22749 10.3857 4.40036 10.2993 4.98381C10.1157 6.35598 9.91048 7.73896 9.71605 9.11114C9.67284 9.43528 9.54322 9.69459 9.16517 9.67298C8.85192 9.66217 8.7007 9.40286 8.76551 8.97068C8.88433 8.07391 9.01395 7.17713 9.14356 6.28035C9.16517 6.1507 9.17597 6.01024 9.19757 5.78334C9.00314 5.93461 8.86273 6.03185 8.73311 6.13989C4.74733 9.52171 2.4682 13.8111 2.03614 19.0405C1.28003 28.1487 7.45852 36.5331 16.3698 38.5535C19.8479 39.3423 23.2828 39.1586 26.6529 37.9809C26.7717 37.9377 26.8797 37.9053 26.9985 37.862C27.2902 37.754 27.5278 37.862 27.625 38.1321C27.733 38.4239 27.6142 38.6724 27.3118 38.7696C26.8149 38.9425 26.318 39.1154 25.8104 39.2558C15.5381 42.1406 5.01737 36.4034 1.84171 26.2255C-0.48062 18.7812 1.97133 10.5698 8.0094 5.50242C8.10662 5.42679 8.19303 5.35116 8.29024 5.26472C8.29024 5.22151 8.27944 5.17829 8.27944 5.13507Z" stroke="#0057B8" stroke-width="0.4"/>
<path d="M34.1708 34.4802C35.0889 34.4802 35.9638 34.4802 36.8279 34.4802C37.0008 34.4802 37.1844 34.4586 37.3572 34.4694C37.6489 34.5018 37.8433 34.6747 37.8325 34.9772C37.8217 35.2473 37.6489 35.4202 37.3572 35.431C36.6551 35.4526 35.953 35.4742 35.2509 35.4958C34.4732 35.5174 33.6847 35.5499 32.907 35.5607C32.4749 35.5715 32.2697 35.3554 32.3129 34.9448C32.4533 33.5078 32.6045 32.0708 32.745 30.6338C32.7882 30.2448 33.0042 30.0395 33.2958 30.0828C33.5875 30.126 33.7495 30.3745 33.7063 30.7634C33.6091 31.7575 33.5011 32.7515 33.3931 33.8103C33.5227 33.7023 33.5983 33.6483 33.6631 33.5834C36.6335 30.569 38.3942 26.9602 38.9234 22.7573C40.1224 13.1412 33.6523 4.19507 24.1361 2.30428C21.2521 1.72083 18.3897 1.83968 15.5597 2.61761C15.5057 2.62841 15.4625 2.65002 15.4085 2.66083C14.9872 2.76887 14.7388 2.67163 14.6416 2.36911C14.5551 2.07738 14.728 1.81807 15.1384 1.72083C15.8729 1.53716 16.6074 1.34267 17.3419 1.22382C22.7103 0.424288 27.6574 1.51555 32.0429 4.75691C36.5363 8.0739 39.2151 12.547 39.874 18.1221C40.6085 24.378 38.6858 29.7802 34.322 34.3073C34.268 34.3506 34.2248 34.4046 34.1708 34.4802Z" stroke="#0057B8" stroke-width="0.4"/>
<path d="M20.5176 27.0899C16.8667 27.0899 13.9287 24.1403 13.9287 20.4991C13.9287 16.8472 16.8775 13.9084 20.5176 13.9084C24.1685 13.9084 27.1065 16.858 27.1065 20.4991C27.1065 24.1511 24.1577 27.0899 20.5176 27.0899ZM14.944 20.9853C15.0196 23.546 17.5256 26.0419 20.0315 26.0743C20.0315 25.7285 20.0315 25.3828 20.0315 25.0262C20.0315 24.7021 20.1611 24.4644 20.5176 24.4644C20.8741 24.4644 21.0037 24.7021 21.0037 25.0262C21.0037 25.372 21.0037 25.7177 21.0037 26.0743C23.542 26.0094 26.0156 23.5352 26.0912 20.9853C25.7456 20.9853 25.3999 20.9853 25.0435 20.9853C24.7194 20.9853 24.4818 20.8557 24.471 20.4991C24.471 20.1426 24.6978 20.0129 25.0327 20.0129C25.3783 20.0129 25.7239 20.0129 26.0804 20.0129C25.9184 17.0849 23.2396 14.9456 20.9929 14.9564C20.9929 15.2697 20.9929 15.5723 20.9929 15.8856C20.9929 16.2205 20.8633 16.4474 20.5068 16.4474C20.1503 16.4474 20.0207 16.2097 20.0207 15.8748C20.0207 15.5615 20.0207 15.2373 20.0207 14.9132C17.1691 15.1185 15.0412 17.5711 14.944 20.0129C15.2896 20.0129 15.6461 20.0129 15.9918 20.0129C16.3266 20.0129 16.5534 20.1534 16.5534 20.5099C16.5534 20.8665 16.305 20.9853 15.9809 20.9853C15.6461 20.9853 15.3113 20.9853 14.944 20.9853Z" stroke="#0057B8" stroke-width="0.4"/>
<path d="M21.0037 20.0129C21.3925 20.0129 21.7274 20.0129 22.0622 20.0129C22.3863 20.0129 22.5915 20.175 22.5915 20.4991C22.5915 20.8125 22.3863 20.9853 22.0622 20.9853C21.5654 20.9853 21.0685 20.9961 20.5608 20.9853C20.1936 20.9853 20.0207 20.78 20.0207 20.4235C20.0207 19.6456 20.0099 18.8568 20.0207 18.0789C20.0207 17.7224 20.2368 17.4955 20.5176 17.5171C20.8416 17.5495 20.9821 17.7548 20.9821 18.0681C21.0037 18.6948 21.0037 19.3322 21.0037 20.0129Z" stroke="#0057B8" stroke-width="0.4"/>
</g>
<defs>
<clipPath id="clip0_2108_1123">
<rect width="41" height="41" fill="white"/>
</clipPath>
</defs>
</svg>
