<svg width="198" height="38" viewBox="0 0 198 38" fill="none" xmlns="http://www.w3.org/2000/svg">
<g clip-path="url(#clip0_188_330)">
<path d="M11.0786 1.34766L18.7835 19.5312L26.4885 1.34766L18.7835 8.04688L11.0786 1.34766Z" stroke="#616666" stroke-linejoin="round"/>
<path d="M11.0786 37.5234L18.7835 19.3398L26.4885 37.5234L18.7835 30.8242L11.0786 37.5234Z" stroke="#616666" stroke-linejoin="round"/>
<path d="M36.9872 11.7793L18.688 19.4355L36.9872 27.0918L30.2454 19.4355L36.9872 11.7793Z" stroke="#616666" stroke-linejoin="round"/>
<path d="M0.580567 11.7793L18.8798 19.4355L0.580566 27.0918L7.32237 19.4355L0.580567 11.7793Z" stroke="#616666" stroke-linejoin="round"/>
<path d="M51.2745 15.7048C54.1869 15.7048 55.2549 14.113 55.2549 12.5535C55.2549 8.55002 48.8636 9.93273 48.8636 7.52102C48.8636 6.50809 49.7859 5.81673 51.0803 5.81673C52.2615 5.81673 53.3941 6.21869 54.2031 7.10298L55.0121 6.12222C54.106 5.17361 52.8278 4.62695 51.1774 4.62695C49.0578 4.62695 47.4721 5.83281 47.4721 7.60141C47.4721 11.428 53.8633 9.90058 53.8633 12.666C53.8633 13.486 53.2485 14.515 51.323 14.515C49.8021 14.515 48.6371 13.7754 47.9252 12.9876L47.1323 14.0005C48.0222 14.9973 49.3976 15.7048 51.2745 15.7048ZM58.917 15.7048C59.6289 15.7048 60.0658 15.4958 60.3732 15.2064L60.0173 14.306C59.8555 14.4828 59.5319 14.6275 59.1921 14.6275C58.6581 14.6275 58.3992 14.2095 58.3992 13.6307V8.80727H59.9849V7.74611H58.3992V5.6238H57.1857V7.74611H55.8913V8.80727H57.1857V13.888C57.1857 15.0456 57.7682 15.7048 58.917 15.7048ZM67.6505 15.7048C69.576 15.7048 71.0808 14.6115 71.0808 12.2801V4.78773H69.7378V12.2641C69.7378 13.5985 68.8964 14.515 67.5696 14.515C66.6312 14.515 66.0001 14.0166 65.5309 13.4538L64.8351 14.4668C65.5794 15.335 66.5017 15.7048 67.6505 15.7048ZM76.9642 15.7048C79.3427 15.7048 80.8313 13.8719 80.8313 11.6209C80.8313 9.37 79.3427 7.55317 76.9642 7.55317C74.5857 7.55317 73.0971 9.37 73.0971 11.6209C73.0971 13.8719 74.5857 15.7048 76.9642 15.7048ZM76.9642 14.6275C75.2976 14.6275 74.3592 13.2127 74.3592 11.6209C74.3592 10.0453 75.2976 8.63041 76.9642 8.63041C78.6308 8.63041 79.5531 10.0453 79.5531 11.6209C79.5531 13.2127 78.6308 14.6275 76.9642 14.6275ZM89.314 15.5118V10.0292C89.314 8.341 88.4565 7.55317 86.8223 7.55317C85.6411 7.55317 84.5732 8.22845 84.0231 8.87158V4.78773H82.8096V15.5118H84.0231V9.83627C84.4923 9.20922 85.3984 8.63041 86.3369 8.63041C87.3886 8.63041 88.1005 9.03236 88.1005 10.399V15.5118H89.314ZM98.2256 15.5118V10.0614C98.2256 8.37316 97.368 7.55317 95.7338 7.55317C94.5688 7.55317 93.5009 8.22845 92.9508 8.87158V7.74611H91.7372V15.5118H92.9508V9.83627C93.4038 9.20922 94.3099 8.63041 95.2646 8.63041C96.3163 8.63041 97.012 9.06452 97.012 10.4312V15.5118H98.2256ZM113.526 15.5118C112.733 14.7883 112.053 14.1452 111.422 13.486C112.069 12.5856 112.522 11.5727 112.895 10.7206L111.843 10.2704C111.649 10.8653 111.277 11.83 110.678 12.7142C110.257 12.2641 109.836 11.7978 109.4 11.2833C109.044 10.8813 108.591 10.3508 108.154 9.75588C109.529 9.04844 110.904 8.341 110.904 6.73319C110.904 5.38263 109.869 4.62695 108.461 4.62695C106.94 4.62695 105.743 5.68811 105.743 7.11906C105.743 7.87473 106.083 8.7108 106.568 9.53078C105.322 10.19 104.19 11.0421 104.19 12.7142C104.19 14.7079 105.694 15.7048 107.555 15.7048C108.866 15.7048 109.869 15.1742 110.662 14.3864C111.099 14.8366 111.519 15.2385 111.843 15.5118H113.526ZM107.668 14.7079C106.536 14.7079 105.5 13.9683 105.5 12.6339C105.5 11.5245 106.196 10.8653 107.086 10.3186C107.523 10.9296 107.992 11.5084 108.445 12.0229C108.752 12.3927 109.319 13.0037 109.934 13.6468C109.319 14.2577 108.558 14.7079 107.668 14.7079ZM107.005 7.13514C107.005 6.21869 107.685 5.57556 108.51 5.57556C109.238 5.57556 109.788 5.99359 109.788 6.78142C109.788 7.84258 108.801 8.42139 107.652 8.98413C107.28 8.35708 107.005 7.69788 107.005 7.13514Z" fill="#616666"/>
<path d="M50.7432 32.1657C53.6557 32.1657 54.7236 30.574 54.7236 29.0144C54.7236 25.011 48.3324 26.3937 48.3324 23.982C48.3324 22.969 49.2546 22.2777 50.5491 22.2777C51.7302 22.2777 52.8629 22.6796 53.6719 23.5639L54.4809 22.5832C53.5748 21.6345 52.2965 21.0879 50.6462 21.0879C48.5265 21.0879 46.9409 22.2937 46.9409 24.0623C46.9409 27.8889 53.3321 26.3615 53.3321 29.127C53.3321 29.9469 52.7172 30.9759 50.7918 30.9759C49.2708 30.9759 48.1058 30.2363 47.3939 29.4485L46.6011 30.4614C47.491 31.4583 48.8663 32.1657 50.7432 32.1657ZM58.3857 32.1657C59.0977 32.1657 59.5345 31.9567 59.842 31.6673L59.486 30.7669C59.3242 30.9438 59.0006 31.0885 58.6608 31.0885C58.1269 31.0885 57.868 30.6705 57.868 30.0916V25.2682H59.4536V24.207H57.868V22.0847H56.6545V24.207H55.36V25.2682H56.6545V30.3489C56.6545 31.5065 57.2369 32.1657 58.3857 32.1657ZM72.4588 31.9728V30.783H66.7309V27.085H72.3455V25.8952H66.7309V22.4385H72.4588V21.2487H65.388V31.9728H72.4588ZM75.765 31.9728V21.2487H74.5514V31.9728H75.765ZM78.7845 23.0977C79.2376 23.0977 79.6097 22.7439 79.6097 22.2937C79.6097 21.8436 79.2376 21.4738 78.7845 21.4738C78.3477 21.4738 77.9755 21.8436 77.9755 22.2937C77.9755 22.7439 78.3477 23.0977 78.7845 23.0977ZM79.3994 31.9728V24.207H78.1858V31.9728H79.3994ZM87.4021 31.9728V30.9277H83.001L87.3374 25.1235V24.207H81.4477V25.2682H85.7517L81.4477 31.0403V31.9728H87.4021ZM95.552 31.9728V26.6348C95.552 24.7537 94.1766 24.0141 92.5262 24.0141C91.248 24.0141 90.2448 24.4321 89.4034 25.3004L89.9697 26.1364C90.6655 25.3968 91.426 25.0592 92.3644 25.0592C93.4971 25.0592 94.3384 25.6541 94.3384 26.6992V28.098C93.7074 27.3744 92.8175 27.0368 91.7496 27.0368C90.4228 27.0368 89.0151 27.8568 89.0151 29.5932C89.0151 31.2814 90.4228 32.1657 91.7496 32.1657C92.8013 32.1657 93.6912 31.7959 94.3384 31.0885V31.9728H95.552ZM92.1865 31.2975C91.0538 31.2975 90.261 30.5901 90.261 29.6093C90.261 28.6125 91.0538 27.905 92.1865 27.905C93.044 27.905 93.8692 28.2266 94.3384 28.8697V30.3328C93.8692 30.9759 93.044 31.2975 92.1865 31.2975ZM99.1979 29.8665V26.3454C99.6186 25.6702 100.573 25.0913 101.528 25.0913C103.114 25.0913 104.052 26.3776 104.052 28.098C104.052 29.8183 103.114 31.0885 101.528 31.0885C100.573 31.0885 99.6186 30.5418 99.1979 29.8665ZM99.1979 31.9728V30.8152C99.7804 31.603 100.735 32.1657 101.835 32.1657C103.874 32.1657 105.314 30.6222 105.314 28.098C105.314 25.6219 103.874 24.0141 101.835 24.0141C100.767 24.0141 99.829 24.5286 99.1979 25.3807V21.2487H97.9844V31.9728H99.1979ZM110.819 32.1657C112.097 32.1657 113.149 31.7477 113.925 30.9759L113.343 30.1881C112.728 30.8152 111.822 31.1689 110.932 31.1689C109.249 31.1689 108.214 29.9469 108.117 28.4838H114.443V28.1783C114.443 25.847 113.052 24.0141 110.689 24.0141C108.457 24.0141 106.839 25.8309 106.839 28.0819C106.839 30.5097 108.505 32.1657 110.819 32.1657ZM113.246 27.5995H108.117C108.181 26.4097 109.007 25.011 110.673 25.011C112.453 25.011 113.23 26.4419 113.246 27.5995ZM118.383 32.1657C119.095 32.1657 119.532 31.9567 119.839 31.6673L119.483 30.7669C119.321 30.9438 118.998 31.0885 118.658 31.0885C118.124 31.0885 117.865 30.6705 117.865 30.0916V25.2682H119.451V24.207H117.865V22.0847H116.651V24.207H115.357V25.2682H116.651V30.3489C116.651 31.5065 117.234 32.1657 118.383 32.1657ZM127.669 31.9728V26.4901C127.669 24.8019 126.812 24.0141 125.177 24.0141C123.996 24.0141 122.928 24.6894 122.378 25.3325V21.2487H121.165V31.9728H122.378V26.2972C122.847 25.6702 123.753 25.0913 124.692 25.0913C125.744 25.0913 126.456 25.4933 126.456 26.8599V31.9728H127.669ZM143.309 31.9728V21.2487H141.966V25.8631H135.655V21.2487H134.312V31.9728H135.655V27.0529H141.966V31.9728H143.309ZM149.197 32.1657C151.576 32.1657 153.064 30.3328 153.064 28.0819C153.064 25.8309 151.576 24.0141 149.197 24.0141C146.819 24.0141 145.33 25.8309 145.33 28.0819C145.33 30.3328 146.819 32.1657 149.197 32.1657ZM149.197 31.0885C147.53 31.0885 146.592 29.6736 146.592 28.0819C146.592 26.5062 147.53 25.0913 149.197 25.0913C150.864 25.0913 151.786 26.5062 151.786 28.0819C151.786 29.6736 150.864 31.0885 149.197 31.0885ZM157.518 32.1657C159.541 32.1657 160.592 31.1206 160.592 29.8183C160.592 26.7956 155.754 27.9211 155.754 26.2168C155.754 25.5255 156.418 24.9949 157.486 24.9949C158.489 24.9949 159.346 25.4129 159.816 25.9756L160.382 25.1396C159.751 24.5125 158.812 24.0141 157.486 24.0141C155.625 24.0141 154.573 25.0431 154.573 26.249C154.573 29.127 159.411 27.9693 159.411 29.8505C159.411 30.6222 158.764 31.185 157.567 31.185C156.499 31.185 155.512 30.6705 154.994 30.0756L154.363 30.9438C155.156 31.7798 156.24 32.1657 157.518 32.1657ZM166.414 32.1657C168.469 32.1657 169.893 30.5901 169.893 28.0819C169.893 25.5576 168.469 24.0141 166.414 24.0141C165.314 24.0141 164.343 24.5768 163.777 25.3647V24.207H162.564V34.9312H163.777V30.7991C164.408 31.6673 165.347 32.1657 166.414 32.1657ZM166.107 31.0885C165.152 31.0885 164.198 30.5097 163.777 29.8344V26.3294C164.198 25.6541 165.152 25.0913 166.107 25.0913C167.677 25.0913 168.615 26.3615 168.615 28.0819C168.615 29.8022 167.677 31.0885 166.107 31.0885ZM172.422 23.0977C172.875 23.0977 173.247 22.7439 173.247 22.2937C173.247 21.8436 172.875 21.4738 172.422 21.4738C171.985 21.4738 171.613 21.8436 171.613 22.2937C171.613 22.7439 171.985 23.0977 172.422 23.0977ZM173.036 31.9728V24.207H171.823V31.9728H173.036ZM177.431 32.1657C178.143 32.1657 178.58 31.9567 178.888 31.6673L178.532 30.7669C178.37 30.9438 178.046 31.0885 177.706 31.0885C177.172 31.0885 176.914 30.6705 176.914 30.0916V25.2682H178.499V24.207H176.914V22.0847H175.7V24.207H174.406V25.2682H175.7V30.3489C175.7 31.5065 176.283 32.1657 177.431 32.1657ZM186.314 31.9728V26.6348C186.314 24.7537 184.938 24.0141 183.288 24.0141C182.01 24.0141 181.006 24.4321 180.165 25.3004L180.731 26.1364C181.427 25.3968 182.188 25.0592 183.126 25.0592C184.259 25.0592 185.1 25.6541 185.1 26.6992V28.098C184.469 27.3744 183.579 27.0368 182.511 27.0368C181.184 27.0368 179.777 27.8568 179.777 29.5932C179.777 31.2814 181.184 32.1657 182.511 32.1657C183.563 32.1657 184.453 31.7959 185.1 31.0885V31.9728H186.314ZM182.948 31.2975C181.815 31.2975 181.023 30.5901 181.023 29.6093C181.023 28.6125 181.815 27.905 182.948 27.905C183.806 27.905 184.631 28.2266 185.1 28.8697V30.3328C184.631 30.9759 183.806 31.2975 182.948 31.2975ZM189.96 31.9728V21.2487H188.746V31.9728H189.96Z" fill="#616666"/>
</g>
<defs>
<clipPath id="clip0_188_330">
<rect width="197" height="37" fill="white" transform="translate(0.195801 0.582031)"/>
</clipPath>
</defs>
</svg>
