<svg width="222" height="57" viewBox="0 0 222 57" fill="none" xmlns="http://www.w3.org/2000/svg">
<path fill-rule="evenodd" clip-rule="evenodd" d="M15.0338 9.30078L27.558 20.7534V20.7508V9.32721H29.996V20.8047L42.5762 9.30078V22.3585H47.7413V41.193H42.5921V52.8202L29.996 41.8366V52.9464H27.558V42.0177L15.048 52.9535V41.193H9.88281V22.3585H15.0338V9.30078ZM25.72 24.7486H12.3208V38.8029H15.0449V34.3696L25.72 24.7486ZM17.4858 35.4301V47.6202L27.558 38.8154V26.3504L17.4858 35.4301ZM30.0661 38.699V26.3386L40.1412 35.4189V41.193H40.1541V47.4957L30.0661 38.699ZM42.5921 38.8029H45.3033V24.7486H32.0039L42.5921 34.27V38.8029ZM40.1383 22.3585V14.7986L31.8709 22.3585H40.1383ZM25.739 22.3585H17.4718V14.7986L25.739 22.3585Z" fill="white"/>
<path d="M107.979 21.8869H109.527V25.0529H107.523C105.953 25.0529 104.782 25.4278 104.005 26.1798C103.234 26.9295 102.846 28.1626 102.846 29.8765V40.2576H99.6822V21.9592H102.846V24.8791C102.846 25.0439 102.929 25.1253 103.092 25.1253C103.184 25.1253 103.254 25.1026 103.304 25.0552C103.353 25.0077 103.396 24.9151 103.446 24.7729C104.055 22.8512 105.569 21.8891 107.981 21.8891H107.979V21.8869ZM129.021 25.8095C129.852 27.275 130.269 29.041 130.269 31.105C130.269 33.169 129.854 34.935 129.021 36.4005C128.189 37.8662 127.11 38.9636 125.786 39.6908C124.461 40.4179 123.038 40.7815 121.515 40.7815C118.514 40.7815 116.404 39.5847 115.186 37.191C115.093 37.0035 114.973 36.9086 114.834 36.9086C114.694 36.9086 114.621 36.9786 114.621 37.1209V46.9398H111.458V21.9568H114.621V25.0891C114.621 25.229 114.691 25.3014 114.834 25.3014C114.976 25.3014 115.091 25.2087 115.186 25.019C116.404 22.6253 118.514 21.4284 121.515 21.4284C123.038 21.4284 124.461 21.792 125.786 22.5192C127.11 23.2464 128.187 24.3438 129.021 25.8095ZM127.108 31.105C127.108 28.9461 126.528 27.2637 125.368 26.0556C124.209 24.8475 122.681 24.2445 120.779 24.2445C118.877 24.2445 117.349 24.8497 116.19 26.0556C115.028 27.2637 114.603 28.9483 114.603 31.105C114.603 33.2617 115.03 34.9463 116.19 36.1543C117.349 37.3649 118.879 37.9655 120.779 37.9655C122.679 37.9655 124.209 37.3603 125.368 36.1543C126.528 34.9485 127.108 33.2617 127.108 31.105ZM75.7446 25.8365C76.575 27.3021 76.9924 29.0681 76.9924 31.1321C76.9924 33.1962 76.5772 34.962 75.7446 36.4276C74.912 37.8933 73.8336 38.9908 72.5091 39.7178C71.1846 40.445 69.7609 40.8086 68.2378 40.8086C65.237 40.8086 63.1272 39.6118 61.9088 37.218C61.8163 37.0306 61.6968 36.9358 61.5568 36.9358C61.4169 36.9358 61.3448 37.0057 61.3448 37.148V46.9668H58.1836V21.9841H61.347V25.1161C61.347 25.2562 61.4169 25.3285 61.5591 25.3285C61.7012 25.3285 61.8163 25.2359 61.9111 25.0461C63.1296 22.6524 65.2392 21.4555 68.2402 21.4555C69.7631 21.4555 71.1869 21.8191 72.5114 22.5463C73.8358 23.2735 74.9122 24.371 75.747 25.8365H75.7446ZM73.829 31.1321C73.829 28.9732 73.2492 27.2909 72.0895 26.0827C70.9296 24.8767 69.3999 24.2715 67.5 24.2715C65.6002 24.2715 64.0704 24.8767 62.9106 26.0827C61.7509 27.2931 61.3245 28.9755 61.3245 31.1321C61.3245 33.2887 61.7509 34.9734 62.9106 36.1816C64.0704 37.392 65.5979 37.9926 67.5 37.9926C69.4021 37.9926 70.9296 37.3874 72.0895 36.1816C73.2492 34.9756 73.829 33.2887 73.829 31.1321ZM94.091 34.445H97.4304C96.9859 36.1589 96.0766 37.6425 94.707 38.8959C93.335 40.1515 91.3721 40.777 88.8157 40.777C86.8933 40.777 85.201 40.3841 83.7367 39.5982C82.2723 38.8123 81.1418 37.6945 80.343 36.2379C79.5444 34.7837 79.1473 33.0719 79.1473 31.1004C79.1473 29.129 79.5353 27.4173 80.307 25.9629C81.0786 24.5087 82.164 23.3885 83.5584 22.6028C84.9529 21.8169 86.5864 21.4239 88.4615 21.4239C90.3364 21.4239 91.891 21.8123 93.1907 22.5847C94.4926 23.3593 95.4628 24.3867 96.1082 25.6626C96.7534 26.9431 97.0738 28.3431 97.0738 29.8675V31.9789H82.4844C82.5994 33.8081 83.2176 35.2647 84.33 36.3418C85.4424 37.4212 86.9384 37.961 88.8135 37.961C90.3364 37.961 91.5052 37.6517 92.313 37.0284C93.1207 36.4051 93.712 35.5447 94.0887 34.4404L94.091 34.445ZM82.419 29.3435H93.4592C93.4592 27.7493 93.0486 26.4982 92.2273 25.5949C91.4059 24.6938 90.1176 24.2399 88.3599 24.2399C86.7196 24.2399 85.377 24.6803 84.3346 25.5611C83.2921 26.4395 82.6537 27.7019 82.419 29.3435ZM132.821 40.2531H135.987V14.918H132.821V40.2554V40.2531ZM177.311 19.9583H181.008V15.9974H177.311V19.9583ZM190.96 37.5275C190.385 37.5862 190.037 37.6155 189.923 37.6155C189.76 37.6155 189.626 37.5681 189.534 37.4732C189.441 37.3806 189.392 37.2519 189.392 37.0847C189.392 36.9697 189.423 36.6218 189.483 36.046C189.539 35.4725 189.571 34.5849 189.571 33.3903V24.6351H194.083L193.194 21.9546H189.572V17.0272H186.41V21.9524H182.968V24.6329H186.41V34.2665C186.41 36.2854 186.904 37.787 187.886 38.7717C188.87 39.7562 190.371 40.2508 192.389 40.2508H194.85V37.4371H193.618C192.423 37.4371 191.537 37.4664 190.962 37.5251L190.96 37.5275ZM210.082 21.9546L204.843 37.3084C204.774 37.498 204.662 37.7442 204.305 37.7442C203.946 37.7442 203.833 37.498 203.762 37.3084L198.523 21.9546H195.297L201.364 40.2531H203.51C203.649 40.2531 203.756 40.2667 203.829 40.2892C203.898 40.3119 203.957 40.3706 204.004 40.4653C204.096 40.6054 204.085 40.8176 203.968 41.0977L202.984 43.7715C202.842 44.1237 202.573 44.2999 202.177 44.2999C202.035 44.2999 201.708 44.2704 201.193 44.2117C200.676 44.153 200.011 44.1237 199.19 44.1237H196.622V46.9374H199.997C201.966 46.9374 203.151 46.6032 204.171 45.9348C205.191 45.2664 205.981 44.0875 206.544 42.3985L213.097 22.6569V21.9546H210.087H210.082ZM166.604 28.7813L161.646 21.9546H158.165V22.6569L164.105 30.5743L156.862 39.5485V40.2508H160.414L166.18 32.8957L171.56 40.2508H174.971V39.5485L168.676 31.1028L175.5 22.6931V21.9546H171.948L166.605 28.7813H166.604ZM177.648 40.2531H180.813V21.9568H177.648V40.2554V40.2531ZM156.819 34.445C156.372 36.1589 155.466 37.6425 154.096 38.8959C152.724 40.1515 150.761 40.777 148.205 40.777C146.282 40.777 144.59 40.3841 143.126 39.5982C141.659 38.8123 140.531 37.6945 139.732 36.2379C138.936 34.7837 138.539 33.0719 138.539 31.1004C138.539 29.129 138.927 27.4173 139.698 25.9629C140.473 24.5087 141.556 23.3885 142.95 22.6028C144.344 21.8169 145.978 21.4239 147.855 21.4239C149.733 21.4239 151.285 21.8123 152.586 22.5847C153.886 23.3593 154.859 24.3867 155.504 25.6626C156.149 26.9431 156.469 28.3431 156.469 29.8675V31.9789H141.879C141.996 33.8081 142.611 35.2647 143.724 36.3418C144.836 37.4212 146.333 37.961 148.207 37.961C149.73 37.961 150.899 37.6517 151.707 37.0284C152.514 36.4051 153.105 35.5447 153.48 34.4404H156.822L156.819 34.445ZM141.887 29.3435H152.927C152.927 27.7493 152.517 26.4982 151.698 25.5949C150.876 24.6938 149.588 24.2399 147.83 24.2399C146.189 24.2399 144.847 24.6803 143.805 25.5611C142.762 26.4395 142.122 27.7019 141.89 29.3435H141.887Z" fill="white"/>
</svg>
