<svg width="101" height="52" viewBox="0 0 101 52" fill="none" xmlns="http://www.w3.org/2000/svg">
<g clip-path="url(#clip0_2079_439)">
<path d="M0.03125 0.655884V50.9414H54.3756L100.359 0.655884H0.03125ZM17.5854 13.2273C24.692 13.2273 26.9911 14.9051 26.9911 14.9051C26.9911 14.9051 25.7403 18.0496 25.1133 19.7257C23.0231 18.8876 14.6624 17.4177 14.6624 20.5606C14.6624 21.8177 15.0788 22.6541 21.3493 24.1208C23.8575 24.7494 27.6247 26.0049 28.4608 29.7763L34.9354 13.2273H42.251L50.1953 33.1319V32.0843V27.8939V13.2273H59.601C64.8265 13.2273 69.0068 17.4177 69.0068 22.6558C69.0068 27.8939 64.8265 32.0843 59.601 32.0843H56.4658V38.37H52.2854H50.1953H44.9699L43.7125 34.597C42.2494 35.2255 40.5805 35.6446 38.6994 35.6446C36.8182 35.6446 35.1493 35.2255 33.6862 34.597L32.4289 38.37H25.1133L26.1583 35.8574C24.2772 37.324 21.3477 38.37 17.5854 38.37C10.6878 38.37 8.39192 36.4876 8.39192 36.4876L10.0657 31.0367C14.037 33.551 21.1452 33.1319 21.1452 31.0367C21.1452 28.9415 18.01 28.7336 13.8296 27.4764C9.8583 26.2193 8.39192 23.0716 8.39192 20.3478C8.39192 17.624 10.4788 13.2273 17.5854 13.2273ZM56.4658 19.5129V25.7986H59.601C61.2732 25.7986 62.7363 24.332 62.7363 22.6558C62.7363 20.9796 61.2732 19.5129 59.601 19.5129H56.4658ZM38.6994 20.3478L35.5641 29.3589C36.4002 29.9874 37.4453 30.2019 38.6994 30.2019C39.9535 30.2019 40.9985 29.9874 41.8346 29.3589L38.6994 20.3478Z" fill="white"/>
</g>
<defs>
<clipPath id="clip0_2079_439">
<rect width="100.328" height="51.5973" fill="white" transform="translate(0.03125)"/>
</clipPath>
</defs>
</svg>
