<svg width="196" height="42" viewBox="0 0 196 42" fill="none" xmlns="http://www.w3.org/2000/svg">
<g clip-path="url(#clip0_188_287)">
<path d="M55.8564 13.2832H64.9666C68.8014 13.2832 71.6259 16.3352 71.6259 20.4669C71.6259 23.0544 70.4303 25.2379 68.5413 26.4291L72.128 34.225H68.368L65.3402 27.6234C65.1418 27.6457 64.9421 27.6548 64.7424 27.6505H59.2578V34.225H55.8564V13.2832ZM59.2578 24.2185H64.5063C66.7809 24.2185 68.2514 22.7348 68.2514 20.4669C68.2514 18.199 66.8108 16.7152 64.5332 16.7152H59.2578V24.2185Z" fill="#C2C2C2"/>
<path d="M88.0021 26.9543C88.0021 28.4502 87.5624 29.9126 86.7387 31.1564C85.9151 32.4003 84.7443 33.3697 83.3746 33.9422C82.0048 34.5147 80.4976 34.6645 79.0435 34.3726C77.5894 34.0808 76.2537 33.3604 75.2053 32.3026C74.157 31.2448 73.443 29.8971 73.1538 28.4299C72.8646 26.9627 73.013 25.4419 73.5804 24.0598C74.1477 22.6777 75.1085 21.4964 76.3413 20.6653C77.574 19.8342 79.0233 19.3906 80.5059 19.3906C82.4938 19.3914 84.4 20.1886 85.8056 21.6069C87.2113 23.0251 88.0013 24.9485 88.0021 26.9543ZM80.5059 31.0829C81.3161 31.0835 82.1082 30.8416 82.782 30.3879C83.4558 29.9341 83.9811 29.2889 84.2914 28.5338C84.6017 27.7787 84.6831 26.9477 84.5252 26.146C84.3673 25.3442 83.9772 24.6077 83.4044 24.0297C82.8315 23.4517 82.1016 23.0582 81.307 22.8988C80.5124 22.7395 79.6889 22.8216 78.9405 23.1347C78.1922 23.4478 77.5527 23.9778 77.103 24.6577C76.6533 25.3376 76.4135 26.1369 76.4141 26.9543C76.4188 28.0478 76.8515 29.0952 77.6178 29.8684C78.3841 30.6417 79.4222 31.0782 80.5059 31.0829Z" fill="#C2C2C2"/>
<path d="M89.8491 26.9543C89.8499 24.9491 90.6395 23.0261 92.0445 21.6079C93.4495 20.1897 95.3549 19.3922 97.3423 19.3906C98.3572 19.3882 99.3618 19.596 100.294 20.0011C101.226 20.4062 102.066 21.0001 102.761 21.746L100.37 24.1587C99.9818 23.7407 99.5129 23.4074 98.9922 23.1792C98.4715 22.951 97.91 22.8327 97.3423 22.8317C96.659 22.8288 95.9858 22.9985 95.3842 23.3253C94.7825 23.6521 94.2715 24.1257 93.8976 24.7028C93.5238 25.2799 93.299 25.9422 93.2437 26.6294C93.1885 27.3166 93.3046 28.0069 93.5815 28.6372C93.8583 29.2676 94.2871 29.818 94.8287 30.2383C95.3703 30.6587 96.0076 30.9356 96.6824 31.0438C97.3573 31.152 98.0482 31.0881 98.6923 30.8579C99.3364 30.6277 99.9132 30.2385 100.37 29.7258L102.761 32.1687C102.066 32.9145 101.226 33.5084 100.294 33.9136C99.3618 34.3187 98.3572 34.5265 97.3423 34.524C95.3551 34.5184 93.4511 33.7188 92.0468 32.3002C90.6425 30.8815 89.8523 28.9594 89.8491 26.9543Z" fill="#C2C2C2"/>
<path d="M105.012 34.225V13.2832H108.413V25.648L113.372 19.6858H117.667L111.814 26.6915L118.013 34.2311H113.748L108.413 27.738V34.225H105.012Z" fill="#C2C2C2"/>
<path d="M125.453 19.3906C129.545 19.3906 132.327 22.4064 132.327 26.7492C132.327 27.3011 132.241 27.9133 132.184 28.4954H121.475C122.052 30.3049 123.666 31.4026 125.8 31.4026C126.465 31.424 127.127 31.3059 127.744 31.0556C128.362 30.8054 128.921 30.4286 129.386 29.949L131.547 32.1294C130.163 33.6735 128.146 34.5149 125.782 34.5149C121.43 34.5149 118.115 31.2277 118.115 26.9543C118.115 22.6809 121.275 19.3906 125.453 19.3906ZM121.418 25.8203H129.141C128.842 23.7545 127.327 22.4728 125.396 22.4728C123.406 22.4728 121.705 23.8118 121.418 25.8203Z" fill="#C2C2C2"/>
<path d="M134.88 19.6846C135.047 19.6953 135.214 19.6705 135.371 19.6118C135.528 19.5531 135.671 19.4618 135.791 19.3438C135.911 19.2258 136.004 19.0838 136.066 18.9269C136.128 18.77 136.157 18.6018 136.15 18.433V15.7852H139.552V19.6846H143.213V23.1166H139.552V28.3219C139.552 30.6199 139.895 31.202 141.279 31.202C141.93 31.1912 142.578 31.1134 143.213 30.9698V34.2269C142.43 34.42 141.628 34.5212 140.822 34.5284C137.534 34.5284 136.153 33.0205 136.153 29.3533V23.1166H133.499V19.6846H134.88Z" fill="#C2C2C2"/>
<path d="M146.268 13.2832H154.254C160.076 13.2832 164.285 17.6471 164.285 23.7541C164.285 29.8611 160.1 34.225 154.254 34.225H146.268V13.2832ZM149.669 30.793H154.254C158.202 30.793 160.883 27.9431 160.883 23.7541C160.883 19.5651 158.193 16.7152 154.254 16.7152H149.669V30.793Z" fill="#C2C2C2"/>
<path d="M181.238 26.9543C181.238 28.4502 180.798 29.9126 179.975 31.1564C179.151 32.4003 177.98 33.3697 176.61 33.9422C175.241 34.5147 173.733 34.6645 172.279 34.3726C170.825 34.0808 169.49 33.3604 168.441 32.3026C167.393 31.2448 166.679 29.8971 166.39 28.4299C166.1 26.9627 166.249 25.4419 166.816 24.0598C167.384 22.6777 168.344 21.4964 169.577 20.6653C170.81 19.8342 172.259 19.3906 173.742 19.3906C175.73 19.3914 177.636 20.1886 179.041 21.6069C180.447 23.0251 181.237 24.9485 181.238 26.9543ZM173.742 31.0829C174.552 31.0835 175.344 30.8416 176.018 30.3879C176.692 29.9341 177.217 29.2889 177.527 28.5338C177.838 27.7787 177.919 26.9477 177.761 26.146C177.603 25.3442 177.213 24.6077 176.64 24.0297C176.067 23.4517 175.337 23.0582 174.543 22.8988C173.748 22.7395 172.925 22.8216 172.176 23.1347C171.428 23.4478 170.789 23.9778 170.339 24.6577C169.889 25.3376 169.649 26.1369 169.65 26.9543C169.654 28.0481 170.086 29.0959 170.853 29.8693C171.619 30.6427 172.658 31.079 173.742 31.0829Z" fill="#C2C2C2"/>
<path d="M183.085 26.9553C183.077 25.4408 183.52 23.9589 184.358 22.7025C185.197 21.4462 186.39 20.4736 187.784 19.9115C189.178 19.3494 190.707 19.2239 192.172 19.5513C193.638 19.8787 194.972 20.6438 196 21.747L193.609 24.1596C193.221 23.7416 192.752 23.4082 192.231 23.18C191.711 22.9517 191.149 22.8336 190.581 22.8327C189.898 22.8293 189.224 22.9986 188.622 23.325C188.02 23.6515 187.509 24.1248 187.135 24.7019C186.761 25.2789 186.535 25.9412 186.48 26.6285C186.424 27.3158 186.54 28.0062 186.817 28.6368C187.093 29.2674 187.522 29.818 188.064 30.2386C188.605 30.6592 189.243 30.9363 189.918 31.0446C190.593 31.153 191.284 31.0892 191.928 30.859C192.572 30.6288 193.149 30.2396 193.606 29.7268L195.997 32.1696C195.301 32.9151 194.462 33.5087 193.53 33.9138C192.598 34.3189 191.593 34.5269 190.578 34.525C188.591 34.5194 186.687 33.7198 185.283 32.3012C183.878 30.8825 183.088 28.9604 183.085 26.9553Z" fill="#C2C2C2"/>
<path fill-rule="evenodd" clip-rule="evenodd" d="M47.0331 1.20508C30.7287 30.3137 13.9341 6.45863 0.896484 32.087C10.6732 12.8612 43.8768 46.2161 46.9584 5.14675C47.0391 4.16359 47.0331 1.20508 47.0331 1.20508Z" fill="#A2A2A2"/>
<path fill-rule="evenodd" clip-rule="evenodd" d="M47.0932 1.26024C17.1056 14.2071 35.7862 33.0861 8.39893 41.2107C28.9446 35.1158 2.69013 -4.03252 43.2435 0.593741C44.2149 0.70231 47.0932 1.26024 47.0932 1.26024Z" fill="#C2C2C2"/>
<path fill-rule="evenodd" clip-rule="evenodd" d="M8.82323 38.5151L0 41.2293L3.4193 32.586C3.75452 32.0327 4.21245 31.5656 4.75703 31.2213C5.30162 30.877 5.91798 30.665 6.55759 30.6019C7.1972 30.5388 7.84259 30.6264 8.44293 30.8579C9.04327 31.0893 9.58217 31.4581 10.0172 31.9354C10.4522 32.4127 10.7715 32.9854 10.9498 33.6084C11.1282 34.2314 11.1608 34.8876 11.0451 35.5254C10.9293 36.1633 10.6684 36.7653 10.2828 37.2841C9.89728 37.8029 9.39763 38.2243 8.82323 38.5151Z" fill="#C2C2C2"/>
</g>
<defs>
<clipPath id="clip0_188_287">
<rect width="196" height="41" fill="white" transform="translate(0 0.212891)"/>
</clipPath>
</defs>
</svg>
