<svg width="61" height="46" viewBox="0 0 61 46" fill="none" xmlns="http://www.w3.org/2000/svg">
<path d="M58.8525 32.012H54.9512C53.3772 32.012 52.1001 33.4011 52.1001 35.1132C52.1001 36.8252 53.3772 38.2143 54.9512 38.2143H58.8525C59.2339 38.2143 59.543 37.8782 59.543 37.4633V32.7656C59.543 32.3507 59.2339 32.0146 58.8525 32.0146V32.012Z" stroke="#014898" stroke-width="1.5" stroke-linecap="round" stroke-linejoin="round"/>
<path d="M58.3024 38.5422V41.8174C58.3024 43.2541 57.1941 44.4167 55.8302 44.4167H33.4842C32.1178 44.4167 31.012 43.2514 31.012 41.8174V29.531" stroke="#014898" stroke-width="1.5" stroke-linecap="round" stroke-linejoin="round"/>
<path d="M37.2144 27.05H55.8202C57.1921 27.05 58.3024 28.0343 58.3024 29.2456V32.012" stroke="#014898" stroke-width="1.5" stroke-linecap="round" stroke-linejoin="round"/>
<path d="M57.062 27.05V24.4314C57.062 23.1366 56.1052 22.0881 54.9237 22.0881H42.1763" stroke="#014898" stroke-width="1.5" stroke-linecap="round" stroke-linejoin="round"/>
<path d="M23.8708 17.6474C24.5087 18.794 26.0747 19.6072 27.9108 19.6072C30.31 19.6072 32.2524 18.2195 32.2524 16.506C32.2524 14.1794 30.2267 13.6638 27.9108 13.4048C24.911 13.0713 23.5691 12.0171 23.5691 10.3036C23.5691 8.59011 25.5144 7.20239 27.9108 7.20239C29.6951 7.20239 31.2295 7.97193 31.8961 9.06978" stroke="#014898" stroke-width="1.5" stroke-linecap="round" stroke-linejoin="round"/>
<path d="M28.531 5.96191V20.8476" stroke="#014898" stroke-width="1.5" stroke-linecap="round" stroke-linejoin="round"/>
<path d="M27.9107 27.05C35.1042 27.05 40.9357 21.2185 40.9357 14.025C40.9357 6.83149 35.1042 1 27.9107 1C20.7172 1 14.8857 6.83149 14.8857 14.025C14.8857 21.2185 20.7172 27.05 27.9107 27.05Z" stroke="#014898" stroke-width="1.5" stroke-linecap="round" stroke-linejoin="round"/>
<path d="M18.6072 37.8078C18.0845 38.0693 17.5133 38.2143 16.9132 38.2143C14.423 38.2143 12.4048 35.7158 12.4048 32.6322C12.4048 29.5485 14.423 27.05 16.9132 27.05C17.5109 27.05 18.082 27.195 18.6047 27.4565" stroke="#014898" stroke-width="1.5" stroke-linecap="round" stroke-linejoin="round"/>
<path d="M17.3667 32.012H11.1643" stroke="#014898" stroke-width="1.5" stroke-linecap="round" stroke-linejoin="round"/>
<path d="M17.3667 34.4928H11.1643" stroke="#014898" stroke-width="1.5" stroke-linecap="round" stroke-linejoin="round"/>
<path d="M13.3351 22.0881C8.51936 23.3482 4.96191 27.7887 4.96191 33.0735C4.96191 39.337 9.95892 44.4167 16.1262 44.4167C22.2935 44.4167 27.2905 39.3396 27.2905 33.0735C27.2905 32.0581 27.1584 31.0769 26.9151 30.1404" stroke="#014898" stroke-width="1.5" stroke-linecap="round" stroke-linejoin="round"/>
</svg>
