<svg width="39" height="47" viewBox="0 0 39 47" fill="none" xmlns="http://www.w3.org/2000/svg">
<path d="M35.9979 32.4416V12.006C35.9979 10.3445 34.6544 9 32.9989 9C31.3414 9 30 10.3466 30 12.006V32.2076C30 35.4071 31.0909 38.5088 33.0923 41L33.1645 40.9043C35.0046 38.4684 36 35.4965 36 32.4416H35.9979Z" stroke="#014898" stroke-width="1.5" stroke-linecap="round" stroke-linejoin="round"/>
<path d="M30 30H36" stroke="#014898" stroke-width="1.5" stroke-linecap="round" stroke-linejoin="round"/>
<path d="M30 14H36.8907C37.503 14 38 14.5032 38 15.1231V23" stroke="#014898" stroke-width="1.5" stroke-linecap="round" stroke-linejoin="round"/>
<path d="M34 9V6.96837C34 6.4335 33.5523 6 33 6C32.4477 6 32 6.4335 32 6.96837V9" stroke="#014898" stroke-width="1.5" stroke-linecap="round" stroke-linejoin="round"/>
<path d="M30 28H36" stroke="#014898" stroke-width="1.5" stroke-linecap="round" stroke-linejoin="round"/>
<path d="M1 8H6.20612C6.64495 8 7 7.58272 7 7.06698V1" stroke="#014898" stroke-width="1.5" stroke-linecap="round" stroke-linejoin="round"/>
<path d="M33 3.63031V2.97853C33 1.88591 32.1308 1 31.0587 1H8.01798C7.50265 1 7.01009 1.20882 6.64584 1.58006L1.56914 6.75419C1.20489 7.12543 1 7.62745 1 8.15267V44.0215C1 45.1141 1.86923 46 2.94128 46H31.0587C32.1308 46 33 45.1141 33 44.0215V43.4245" stroke="#014898" stroke-width="1.5" stroke-linecap="round" stroke-linejoin="round"/>
<path d="M11.3867 18.3564C11.2332 18.3564 11.0838 18.2998 10.9667 18.1868L9.18959 16.4985C8.94322 16.2643 8.93512 15.8766 9.16533 15.6302C9.39958 15.3838 9.78737 15.3757 10.0337 15.606L11.3827 16.8863L14.1493 14.1762C14.3916 13.9379 14.7794 13.942 15.0177 14.1843C15.256 14.4266 15.2519 14.8143 15.0096 15.0526L11.8229 18.1787C11.7017 18.2958 11.5482 18.3524 11.3948 18.3524L11.3867 18.3564Z" fill="#014898"/>
<path d="M11.3867 25.6191C11.2332 25.6191 11.0838 25.5625 10.9667 25.4495L9.18959 23.7612C8.94322 23.527 8.93512 23.1392 9.16533 22.8929C9.39958 22.6465 9.78737 22.6384 10.0337 22.8687L11.3827 24.149L14.1493 21.4389C14.3916 21.2006 14.7794 21.2047 15.0177 21.447C15.256 21.6893 15.2519 22.077 15.0096 22.3153L11.8229 25.4414C11.7017 25.5585 11.5482 25.6151 11.3948 25.6151L11.3867 25.6191Z" fill="#014898"/>
<path d="M11.3867 32.8818C11.2332 32.8818 11.0838 32.8252 10.9667 32.7122L9.18959 31.0239C8.94322 30.7897 8.93512 30.402 9.16533 30.1556C9.39958 29.9092 9.78737 29.9011 10.0337 30.1314L11.3827 31.4117L14.1493 28.7016C14.3916 28.4633 14.7794 28.4674 15.0177 28.7097C15.256 28.952 15.2519 29.3397 15.0096 29.578L11.8229 32.7041C11.7017 32.8212 11.5482 32.8778 11.3948 32.8778L11.3867 32.8818Z" fill="#014898"/>
<path d="M24.6795 17.8401H19.1867C18.8474 17.8401 18.5728 17.5655 18.5728 17.2262C18.5728 16.8869 18.8474 16.6123 19.1867 16.6123H24.6795C25.0187 16.6123 25.2934 16.8869 25.2934 17.2262C25.2934 17.5655 25.0187 17.8401 24.6795 17.8401Z" fill="#014898"/>
<path d="M24.6795 25.1067H19.1867C18.8474 25.1067 18.5728 24.8321 18.5728 24.4928C18.5728 24.1535 18.8474 23.8789 19.1867 23.8789H24.6795C25.0187 23.8789 25.2934 24.1535 25.2934 24.4928C25.2934 24.8321 25.0187 25.1067 24.6795 25.1067Z" fill="#014898"/>
<path d="M24.6795 32.3694H19.1867C18.8474 32.3694 18.5728 32.0948 18.5728 31.7555C18.5728 31.4162 18.8474 31.1416 19.1867 31.1416H24.6795C25.0187 31.1416 25.2934 31.4162 25.2934 31.7555C25.2934 32.0948 25.0187 32.3694 24.6795 32.3694Z" fill="#014898"/>
</svg>
